<?xml version="1.0" encoding="UTF-8"?>
<!--Generator: Apple Native CoreSVG 341-->
<!DOCTYPE svg
PUBLIC "-//W3C//DTD SVG 1.1//EN"
       "http://www.w3.org/Graphics/SVG/1.1/DTD/svg11.dtd">
<svg version="1.1" xmlns="http://www.w3.org/2000/svg" xmlns:xlink="http://www.w3.org/1999/xlink" viewBox="0 0 3300 2200">
 <!--glyph: "", point size: 100.0, font version: "20.0d10e1", template writer version: "138.0.0"-->
 <style>.monochrome-0 {-sfsymbols-motion-group:1;-sfsymbols-layer-tags:29a5862080ebea74}
.monochrome-1 {-sfsymbols-motion-group:0;-sfsymbols-layer-tags:29a5862080ebea74}

.multicolor-0:custom {fill:#E36710;-sfsymbols-motion-group:1;-sfsymbols-layer-tags:29a5862080ebea74}
.multicolor-1:custom {fill:#E36710;opacity:0.5;-sfsymbols-motion-group:0;-sfsymbols-layer-tags:29a5862080ebea74}

.hierarchical-0:primary {-sfsymbols-motion-group:1;-sfsymbols-layer-tags:29a5862080ebea74}
.hierarchical-1:tertiary {-sfsymbols-motion-group:0;-sfsymbols-layer-tags:29a5862080ebea74}

.SFSymbolsPreviewWireframe {fill:none;opacity:1.0;stroke:black;stroke-width:0.5}
</style>
 <g id="Notes">
  <rect height="2200" id="artboard" style="fill:white;opacity:1" width="3300" x="0" y="0"/>
  <line style="fill:none;stroke:black;opacity:1;stroke-width:0.5;" x1="263" x2="3036" y1="292" y2="292"/>
  <text style="stroke:none;fill:black;font-family:sans-serif;font-size:13;font-weight:bold;" transform="matrix(1 0 0 1 263 322)">Weight/Scale Variations</text>
  <text style="stroke:none;fill:black;font-family:sans-serif;font-size:13;text-anchor:middle;" transform="matrix(1 0 0 1 559.711 322)">Ultralight</text>
  <text style="stroke:none;fill:black;font-family:sans-serif;font-size:13;text-anchor:middle;" transform="matrix(1 0 0 1 856.422 322)">Thin</text>
  <text style="stroke:none;fill:black;font-family:sans-serif;font-size:13;text-anchor:middle;" transform="matrix(1 0 0 1 1153.13 322)">Light</text>
  <text style="stroke:none;fill:black;font-family:sans-serif;font-size:13;text-anchor:middle;" transform="matrix(1 0 0 1 1449.84 322)">Regular</text>
  <text style="stroke:none;fill:black;font-family:sans-serif;font-size:13;text-anchor:middle;" transform="matrix(1 0 0 1 1746.56 322)">Medium</text>
  <text style="stroke:none;fill:black;font-family:sans-serif;font-size:13;text-anchor:middle;" transform="matrix(1 0 0 1 2043.27 322)">Semibold</text>
  <text style="stroke:none;fill:black;font-family:sans-serif;font-size:13;text-anchor:middle;" transform="matrix(1 0 0 1 2339.98 322)">Bold</text>
  <text style="stroke:none;fill:black;font-family:sans-serif;font-size:13;text-anchor:middle;" transform="matrix(1 0 0 1 2636.69 322)">Heavy</text>
  <text style="stroke:none;fill:black;font-family:sans-serif;font-size:13;text-anchor:middle;" transform="matrix(1 0 0 1 2933.4 322)">Black</text>
  <line style="fill:none;stroke:black;opacity:1;stroke-width:0.5;" x1="263" x2="3036" y1="1903" y2="1903"/>
  <g transform="matrix(0.2 0 0 0.2 263 1933)">
   <path d="m46.2402 4.15039c21.7773 0 39.4531-17.627 39.4531-39.4043s-17.6758-39.4043-39.4531-39.4043c-21.7285 0-39.4043 17.627-39.4043 39.4043s17.6758 39.4043 39.4043 39.4043Zm0-7.42188c-17.6758 0-31.9336-14.3066-31.9336-31.9824s14.2578-31.9824 31.9336-31.9824 31.9824 14.3066 31.9824 31.9824-14.3066 31.9824-31.9824 31.9824Zm-17.9688-31.9824c0 2.14844 1.51367 3.61328 3.75977 3.61328h10.498v10.5957c0 2.19727 1.46484 3.71094 3.61328 3.71094 2.24609 0 3.71094-1.51367 3.71094-3.71094v-10.5957h10.5957c2.19727 0 3.71094-1.46484 3.71094-3.61328 0-2.19727-1.51367-3.71094-3.71094-3.71094h-10.5957v-10.5469c0-2.24609-1.46484-3.75977-3.71094-3.75977-2.14844 0-3.61328 1.51367-3.61328 3.75977v10.5469h-10.498c-2.24609 0-3.75977 1.51367-3.75977 3.71094Z"/>
  </g>
  <g transform="matrix(0.2 0 0 0.2 281.506 1933)">
   <path d="m58.5449 14.5508c27.4902 0 49.8047-22.3145 49.8047-49.8047s-22.3145-49.8047-49.8047-49.8047-49.8047 22.3145-49.8047 49.8047 22.3145 49.8047 49.8047 49.8047Zm0-8.30078c-22.9492 0-41.5039-18.5547-41.5039-41.5039s18.5547-41.5039 41.5039-41.5039 41.5039 18.5547 41.5039 41.5039-18.5547 41.5039-41.5039 41.5039Zm-22.6562-41.5039c0 2.39258 1.66016 4.00391 4.15039 4.00391h14.3555v14.4043c0 2.44141 1.66016 4.15039 4.05273 4.15039 2.44141 0 4.15039-1.66016 4.15039-4.15039v-14.4043h14.4043c2.44141 0 4.15039-1.61133 4.15039-4.00391 0-2.44141-1.70898-4.15039-4.15039-4.15039h-14.4043v-14.3555c0-2.49023-1.70898-4.19922-4.15039-4.19922-2.39258 0-4.05273 1.70898-4.05273 4.19922v14.3555h-14.3555c-2.49023 0-4.15039 1.70898-4.15039 4.15039Z"/>
  </g>
  <g transform="matrix(0.2 0 0 0.2 304.924 1933)">
   <path d="m74.8535 28.3203c35.1074 0 63.623-28.4668 63.623-63.5742s-28.5156-63.623-63.623-63.623-63.5742 28.5156-63.5742 63.623 28.4668 63.5742 63.5742 63.5742Zm0-9.08203c-30.127 0-54.4922-24.3652-54.4922-54.4922s24.3652-54.4922 54.4922-54.4922 54.4922 24.3652 54.4922 54.4922-24.3652 54.4922-54.4922 54.4922Zm-28.8574-54.4922c0 2.58789 1.85547 4.39453 4.58984 4.39453h19.7266v19.7754c0 2.68555 1.85547 4.58984 4.44336 4.58984 2.68555 0 4.54102-1.85547 4.54102-4.58984v-19.7754h19.7754c2.68555 0 4.58984-1.80664 4.58984-4.39453 0-2.73438-1.85547-4.58984-4.58984-4.58984h-19.7754v-19.7266c0-2.73438-1.85547-4.63867-4.54102-4.63867-2.58789 0-4.44336 1.9043-4.44336 4.63867v19.7266h-19.7266c-2.73438 0-4.58984 1.85547-4.58984 4.58984Z"/>
  </g>
  <text style="stroke:none;fill:black;font-family:sans-serif;font-size:13;font-weight:bold;" transform="matrix(1 0 0 1 263 1953)">Design Variations</text>
  <text style="stroke:none;fill:black;font-family:sans-serif;font-size:13;" transform="matrix(1 0 0 1 263 1971)">Symbols are supported in up to nine weights and three scales.</text>
  <text style="stroke:none;fill:black;font-family:sans-serif;font-size:13;" transform="matrix(1 0 0 1 263 1989)">For optimal layout with text and other symbols, vertically align</text>
  <text style="stroke:none;fill:black;font-family:sans-serif;font-size:13;" transform="matrix(1 0 0 1 263 2007)">symbols with the adjacent text.</text>
  <line style="fill:none;stroke:#00AEEF;stroke-width:0.5;opacity:1.0;" x1="776" x2="776" y1="1919" y2="1933"/>
  <g transform="matrix(0.2 0 0 0.2 776 1933)">
   <path d="m16.5527 0.78125c2.58789 0 3.85742-0.976562 4.78516-3.71094l6.29883-17.2363h28.8086l6.29883 17.2363c0.927734 2.73438 2.19727 3.71094 4.73633 3.71094 2.58789 0 4.24805-1.5625 4.24805-4.00391 0-0.830078-0.146484-1.61133-0.537109-2.63672l-22.9004-60.9863c-1.12305-2.97852-3.125-4.49219-6.25-4.49219-3.02734 0-5.07812 1.46484-6.15234 4.44336l-22.9004 61.084c-0.390625 1.02539-0.537109 1.80664-0.537109 2.63672 0 2.44141 1.5625 3.95508 4.10156 3.95508Zm13.4766-28.3691 11.8652-32.8613h0.244141l11.8652 32.8613Z"/>
  </g>
  <line style="fill:none;stroke:#00AEEF;stroke-width:0.5;opacity:1.0;" x1="792.836" x2="792.836" y1="1919" y2="1933"/>
  <text style="stroke:none;fill:black;font-family:sans-serif;font-size:13;font-weight:bold;" transform="matrix(1 0 0 1 776 1953)">Margins</text>
  <text style="stroke:none;fill:black;font-family:sans-serif;font-size:13;" transform="matrix(1 0 0 1 776 1971)">Leading and trailing margins on the left and right side of each symbol</text>
  <text style="stroke:none;fill:black;font-family:sans-serif;font-size:13;" transform="matrix(1 0 0 1 776 1989)">can be adjusted by modifying the x-location of the margin guidelines.</text>
  <text style="stroke:none;fill:black;font-family:sans-serif;font-size:13;" transform="matrix(1 0 0 1 776 2007)">Modifications are automatically applied proportionally to all</text>
  <text style="stroke:none;fill:black;font-family:sans-serif;font-size:13;" transform="matrix(1 0 0 1 776 2025)">scales and weights.</text>
  <g transform="matrix(0.2 0 0 0.2 1289 1933)">
   <path d="m14.209 9.32617 8.49609 8.54492c4.29688 4.3457 9.22852 4.05273 13.8672-1.07422l53.4668-58.9355-4.83398-4.88281-53.0762 58.3984c-1.75781 2.00195-3.41797 2.49023-5.76172 0.146484l-5.85938-5.81055c-2.34375-2.29492-1.80664-4.00391 0.195312-5.81055l57.373-54.0039-4.88281-4.83398-57.959 54.4434c-4.93164 4.58984-5.32227 9.47266-1.02539 13.8184Zm32.0801-90.9668c-2.09961 2.05078-2.24609 4.93164-1.07422 6.88477 1.17188 1.80664 3.4668 2.97852 6.68945 2.14844 7.32422-1.70898 14.9414-2.00195 22.0703 2.68555l-2.92969 7.27539c-1.70898 4.15039-0.830078 7.08008 1.85547 9.81445l11.4746 11.5723c2.44141 2.44141 4.49219 2.53906 7.32422 2.05078l5.32227-0.976562 3.32031 3.36914-0.195312 2.7832c-0.195312 2.49023 0.439453 4.39453 2.88086 6.78711l3.80859 3.71094c2.39258 2.39258 5.46875 2.53906 7.8125 0.195312l14.5508-14.5996c2.34375-2.34375 2.24609-5.32227-0.146484-7.71484l-3.85742-3.80859c-2.39258-2.39258-4.24805-3.17383-6.64062-2.97852l-2.88086 0.244141-3.22266-3.17383 1.2207-5.61523c0.634766-2.83203-0.146484-5.0293-3.07617-7.95898l-10.9863-10.9375c-16.6992-16.6016-38.8672-16.2109-53.3203-1.75781Zm7.4707 1.85547c12.1582-8.88672 28.6133-7.37305 39.7461 3.75977l12.1582 12.0605c1.17188 1.17188 1.36719 2.09961 1.02539 3.80859l-1.61133 7.42188 7.51953 7.42188 4.93164-0.292969c1.26953-0.0488281 1.66016 0.0488281 2.63672 1.02539l2.88086 2.88086-12.207 12.207-2.88086-2.88086c-0.976562-0.976562-1.12305-1.36719-1.07422-2.68555l0.341797-4.88281-7.4707-7.42188-7.61719 1.26953c-1.61133 0.341797-2.34375 0.195312-3.56445-0.976562l-10.0098-10.0098c-1.26953-1.17188-1.41602-2.00195-0.634766-3.85742l4.39453-10.4492c-7.8125-7.27539-17.9688-10.4004-28.125-7.42188-0.78125 0.195312-1.07422-0.439453-0.439453-0.976562Z"/>
  </g>
  <text style="stroke:none;fill:black;font-family:sans-serif;font-size:13;font-weight:bold;" transform="matrix(1 0 0 1 1289 1953)">Exporting</text>
  <text style="stroke:none;fill:black;font-family:sans-serif;font-size:13;" transform="matrix(1 0 0 1 1289 1971)">Symbols should be outlined when exporting to ensure the</text>
  <text style="stroke:none;fill:black;font-family:sans-serif;font-size:13;" transform="matrix(1 0 0 1 1289 1989)">design is preserved when submitting to Xcode.</text>
  <text id="template-version" style="stroke:none;fill:black;font-family:sans-serif;font-size:13;text-anchor:end;" transform="matrix(1 0 0 1 3036 1933)">Template v.6.0</text>
  <text style="stroke:none;fill:black;font-family:sans-serif;font-size:13;text-anchor:end;" transform="matrix(1 0 0 1 3036 1951)">Requires Xcode 16 or greater</text>
  <text id="descriptive-name" style="stroke:none;fill:black;font-family:sans-serif;font-size:13;text-anchor:end;" transform="matrix(1 0 0 1 3036 1969)">Generated from filterrotelistech-4</text>
  <text style="stroke:none;fill:black;font-family:sans-serif;font-size:13;text-anchor:end;" transform="matrix(1 0 0 1 3036 1987)">Typeset at 100.0 points</text>
  <text style="stroke:none;fill:black;font-family:sans-serif;font-size:13;" transform="matrix(1 0 0 1 263 726)">Small</text>
  <text style="stroke:none;fill:black;font-family:sans-serif;font-size:13;" transform="matrix(1 0 0 1 263 1156)">Medium</text>
  <text style="stroke:none;fill:black;font-family:sans-serif;font-size:13;" transform="matrix(1 0 0 1 263 1586)">Large</text>
 </g>
 <g id="Guides">
  <g id="H-reference" style="fill:#27AAE1;stroke:none;" transform="matrix(1 0 0 1 339 696)">
   <path d="M0.993654 0L3.63775 0L29.3281-67.1323L30.0303-67.1323L30.0303-70.459L28.1226-70.459ZM11.6885-24.4799L46.9815-24.4799L46.2315-26.7285L12.4385-26.7285ZM55.1196 0L57.7637 0L30.6382-70.459L29.4326-70.459L29.4326-67.1323Z"/>
  </g>
  <line id="Baseline-S" style="fill:none;stroke:#27AAE1;opacity:1;stroke-width:0.5;" x1="263" x2="3036" y1="696" y2="696"/>
  <line id="Capline-S" style="fill:none;stroke:#27AAE1;opacity:1;stroke-width:0.5;" x1="263" x2="3036" y1="625.541" y2="625.541"/>
  <g id="H-reference" style="fill:#27AAE1;stroke:none;" transform="matrix(1 0 0 1 339 1126)">
   <path d="M0.993654 0L3.63775 0L29.3281-67.1323L30.0303-67.1323L30.0303-70.459L28.1226-70.459ZM11.6885-24.4799L46.9815-24.4799L46.2315-26.7285L12.4385-26.7285ZM55.1196 0L57.7637 0L30.6382-70.459L29.4326-70.459L29.4326-67.1323Z"/>
  </g>
  <line id="Baseline-M" style="fill:none;stroke:#27AAE1;opacity:1;stroke-width:0.5;" x1="263" x2="3036" y1="1126" y2="1126"/>
  <line id="Capline-M" style="fill:none;stroke:#27AAE1;opacity:1;stroke-width:0.5;" x1="263" x2="3036" y1="1055.54" y2="1055.54"/>
  <g id="H-reference" style="fill:#27AAE1;stroke:none;" transform="matrix(1 0 0 1 339 1556)">
   <path d="M0.993654 0L3.63775 0L29.3281-67.1323L30.0303-67.1323L30.0303-70.459L28.1226-70.459ZM11.6885-24.4799L46.9815-24.4799L46.2315-26.7285L12.4385-26.7285ZM55.1196 0L57.7637 0L30.6382-70.459L29.4326-70.459L29.4326-67.1323Z"/>
  </g>
  <line id="Baseline-L" style="fill:none;stroke:#27AAE1;opacity:1;stroke-width:0.5;" x1="263" x2="3036" y1="1556" y2="1556"/>
  <line id="Capline-L" style="fill:none;stroke:#27AAE1;opacity:1;stroke-width:0.5;" x1="263" x2="3036" y1="1485.54" y2="1485.54"/>
  <line id="right-margin-Black-S" style="fill:none;stroke:#00AEEF;stroke-width:0.5;opacity:1.0;" x1="2982.23" x2="2982.23" y1="600.785" y2="720.121"/>
  <line id="left-margin-Black-S" style="fill:none;stroke:#00AEEF;stroke-width:0.5;opacity:1.0;" x1="2884.57" x2="2884.57" y1="600.785" y2="720.121"/>
  <line id="right-margin-Regular-S" style="fill:none;stroke:#00AEEF;stroke-width:0.5;opacity:1.0;" x1="1496.11" x2="1496.11" y1="600.785" y2="720.121"/>
  <line id="left-margin-Regular-S" style="fill:none;stroke:#00AEEF;stroke-width:0.5;opacity:1.0;" x1="1403.58" x2="1403.58" y1="600.785" y2="720.121"/>
  <line id="right-margin-Ultralight-S" style="fill:none;stroke:#FF3B30;stroke-width:0.5;opacity:1.0;" x1="603.773" x2="603.773" y1="600.785" y2="720.121"/>
  <line id="left-margin-Ultralight-S" style="fill:none;stroke:#00AEEF;stroke-width:0.5;opacity:1.0;" x1="515.649" x2="515.649" y1="600.785" y2="720.121"/>
 </g>
 <g id="Symbols">
  <g id="Black-S" transform="matrix(1 0 0 1 2884.57 696)">
   <path class="monochrome-0 multicolor-0:custom hierarchical-0:primary SFSymbolsPreviewWireframe" d="M33.93-58C35.863-58 37.43-56.3799 37.43-54.3814L37.43-31.6186C37.43-29.6201 35.863-28 33.93-28C31.997-28 30.43-29.6201 30.43-31.6186L30.43-54.3814C30.43-56.3799 31.997-58 33.93-58ZM33.9483-20C35.8712-20 37.43-18.433 37.43-16.5C37.43-14.567 35.8712-13 33.9483-13L33.9117-13C31.9888-13 30.43-14.567 30.43-16.5C30.43-18.433 31.9888-20 33.9117-20L33.9483-20ZM48.93-58C50.863-58 52.43-56.3799 52.43-54.3814L52.43-31.6186C52.43-29.6201 50.863-28 48.93-28C46.997-28 45.43-29.6201 45.43-31.6186L45.43-54.3814C45.43-56.3799 46.997-58 48.93-58ZM48.9483-20C50.8712-20 52.43-18.433 52.43-16.5C52.43-14.567 50.8712-13 48.9483-13L48.9117-13C46.9888-13 45.43-14.567 45.43-16.5C45.43-18.433 46.9888-20 48.9117-20L48.9483-20ZM63.93-58C65.863-58 67.43-56.3799 67.43-54.3814L67.43-31.6186C67.43-29.6201 65.863-28 63.93-28C61.997-28 60.43-29.6201 60.43-31.6186L60.43-54.3814C60.43-56.3799 61.997-58 63.93-58ZM63.9483-20C65.8712-20 67.43-18.433 67.43-16.5C67.43-14.567 65.8712-13 63.9483-13L63.9117-13C61.9888-13 60.43-14.567 60.43-16.5C60.43-18.433 61.9888-20 63.9117-20L63.9483-20ZM83.831-13.7864C84.8642-15.464 87.0569-15.9832 88.7284-14.9462C90.3998-13.9091 90.9172-11.7084 89.8839-10.0308C81.1373 4.17 65.7 13 48.753 13C48.0706 13 47.3899 12.9858 46.7109 12.9574C44.7476 12.8754 43.2222 11.2114 43.3039 9.24088C43.3856 7.27032 45.0435 5.73935 47.0069 5.82137C47.5872 5.84562 48.1693 5.85777 48.753 5.85777C63.2082 5.85777 76.3679-1.6695 83.831-13.7864ZM8.72438-62.6778C9.82681-64.3105 12.0392-64.7371 13.6659-63.6306C15.2926-62.5241 15.7176-60.3036 14.6152-58.671C10.0322-51.8838 7.54616-43.8827 7.54616-35.5C7.54616-28.9621 9.05641-22.6485 11.9172-16.941C12.8003-15.1791 12.0931-13.0323 10.3376-12.146C8.58216-11.2596 6.44318-11.9694 5.56008-13.7313C2.203-20.429 0.43-27.841 0.43-35.5C0.43-45.3226 3.34907-54.7172 8.72438-62.6778ZM48.753-84C66.4696-84 82.5026-74.3461 90.9784-59.1C91.9359-57.3777 91.321-55.2025 89.605-54.2415C87.8889-53.2805 85.7216-53.8977 84.7642-55.62C77.533-68.6272 63.8638-76.8578 48.753-76.8578C46.7879-76.8578 45.1949-78.4566 45.1949-80.4289C45.1949-82.4012 46.7879-84 48.753-84Z"/>
   <path class="monochrome-1 multicolor-1:custom hierarchical-1:tertiary SFSymbolsPreviewWireframe" d="M48.93-84C75.7158-84 97.43-62.2858 97.43-35.5C97.43-8.71425 75.7157 13 48.93 13C22.1442 13 0.43-8.71423 0.43-35.5C0.43-62.2858 22.1442-84 48.93-84ZM48.93-70C29.8762-70 14.43-54.5538 14.43-35.5C14.43-16.4462 29.8762-1 48.93-1C67.9838-1 83.43-16.4462 83.43-35.5C83.43-54.5538 67.9838-70 48.93-70Z"/>
  </g>
  <g id="Regular-S" transform="matrix(1 0 0 1 1403.58 696)">
   <path class="monochrome-0 multicolor-0:custom hierarchical-0:primary SFSymbolsPreviewWireframe" d="M32.92-57C34.853-57 36.42-55.4339 36.42-53.5021L36.42-31.4979C36.42-29.5661 34.853-28 32.92-28C30.987-28 29.42-29.5661 29.42-31.4979L29.42-53.5021C29.42-55.4339 30.987-57 32.92-57ZM32.9383-21C34.8612-21 36.42-19.433 36.42-17.5C36.42-15.567 34.8612-14 32.9383-14L32.9017-14C30.9788-14 29.42-15.567 29.42-17.5C29.42-19.433 30.9788-21 32.9017-21L32.9383-21ZM46.92-57C48.853-57 50.42-55.4339 50.42-53.5021L50.42-31.4979C50.42-29.5661 48.853-28 46.92-28C44.987-28 43.42-29.5661 43.42-31.4979L43.42-53.5021C43.42-55.4339 44.987-57 46.92-57ZM46.9383-21C48.8612-21 50.42-19.433 50.42-17.5C50.42-15.567 48.8612-14 46.9383-14L46.9017-14C44.9788-14 43.42-15.567 43.42-17.5C43.42-19.433 44.9788-21 46.9017-21L46.9383-21ZM60.92-57C62.853-57 64.42-55.4339 64.42-53.5021L64.42-31.4979C64.42-29.5661 62.853-28 60.92-28C58.987-28 57.42-29.5661 57.42-31.4979L57.42-53.5021C57.42-55.4339 58.987-57 60.92-57ZM60.9383-21C62.8612-21 64.42-19.433 64.42-17.5C64.42-15.567 62.8612-14 60.9383-14L60.9017-14C58.9788-14 57.42-15.567 57.42-17.5C57.42-19.433 58.9788-21 60.9017-21L60.9383-21ZM80.155-15.4056C81.1428-16.9968 83.2391-17.4893 84.8371-16.5057C86.4351-15.522 86.9298-13.4348 85.9419-11.8437C77.5798 1.62515 62.821 10 46.6189 10C45.9665 10 45.3157 9.98652 44.6666 9.95962C42.7895 9.88182 41.3312 8.30364 41.4093 6.43465C41.4875 4.56566 43.0725 3.11361 44.9496 3.1914C45.5044 3.2144 46.0609 3.22593 46.6189 3.22593C60.4387 3.22593 73.02-3.91334 80.155-15.4056ZM8.34979-61.7769C9.40376-63.3254 11.5189-63.73 13.0741-62.6806C14.6293-61.6311 15.0356-59.5251 13.9817-57.9766C9.60017-51.5393 7.22336-43.9506 7.22336-36C7.22336-29.7991 8.66722-23.811 11.4022-18.3977C12.2465-16.7266 11.5704-14.6904 9.89212-13.8498C8.21382-13.0091 6.16887-13.6823 5.32458-15.3534C2.11507-21.7059 0.42-28.7358 0.42-36C0.42-45.3162 3.21076-54.2266 8.34979-61.7769ZM46.6189-82C63.5567-82 78.885-72.8437 86.9883-58.3836C87.9037-56.75 87.3158-54.6869 85.6752-53.7754C84.0346-52.864 81.9626-53.4493 81.0472-55.0829C74.1338-67.4196 61.0655-75.2259 46.6189-75.2259C44.7402-75.2259 43.2172-76.7424 43.2172-78.613C43.2172-80.4836 44.7402-82 46.6189-82Z"/>
   <path class="monochrome-1 multicolor-1:custom hierarchical-1:tertiary SFSymbolsPreviewWireframe" d="M46.42-82C71.8251-82 92.42-61.4051 92.42-36C92.42-10.595 71.825 10 46.42 10C21.0149 10 0.42-10.5949 0.42-36C0.42-61.4051 21.0149-82 46.42-82ZM46.42-75.2259C24.7561-75.2259 7.19407-57.6639 7.19407-36C7.19407-14.3362 24.7561 3.22593 46.42 3.22593C68.0838 3.22593 85.6459-14.3362 85.6459-36C85.6459-57.6639 68.0838-75.2259 46.42-75.2259Z"/>
  </g>
  <g id="Ultralight-S" transform="matrix(1 0 0 1 515.649 696)">
   <path class="monochrome-0 multicolor-0:custom hierarchical-0:primary SFSymbolsPreviewWireframe" d="M30.351-57C32.0079-57 33.351-55.5419 33.351-53.7433L33.351-33.2567C33.351-31.4581 32.0079-30 30.351-30C28.6941-30 27.351-31.4581 27.351-33.2567L27.351-53.7433C27.351-55.5419 28.6941-57 30.351-57ZM30.8693-23C32.7922-23 34.351-21.6569 34.351-20C34.351-18.3431 32.7922-17 30.8693-17L30.8327-17C28.9098-17 27.351-18.3431 27.351-20C27.351-21.6569 28.9098-23 30.8327-23L30.8693-23ZM44.351-57C46.0079-57 47.351-55.5419 47.351-53.7433L47.351-33.2567C47.351-31.4581 46.0079-30 44.351-30C42.6941-30 41.351-31.4581 41.351-33.2567L41.351-53.7433C41.351-55.5419 42.6941-57 44.351-57ZM44.8693-23C46.7922-23 48.351-21.6569 48.351-20C48.351-18.3431 46.7922-17 44.8693-17L44.8327-17C42.9098-17 41.351-18.3431 41.351-20C41.351-21.6569 42.9098-23 44.8327-23L44.8693-23ZM58.351-57C60.0079-57 61.351-55.5419 61.351-53.7433L61.351-33.2567C61.351-31.4581 60.0079-30 58.351-30C56.6941-30 55.351-31.4581 55.351-33.2567L55.351-53.7433C55.351-55.5419 56.6941-57 58.351-57ZM57.8693-23C59.7922-23 61.351-21.6569 61.351-20C61.351-18.3431 59.7922-17 57.8693-17L57.8327-17C55.9098-17 54.351-18.3431 54.351-20C54.351-21.6569 55.9098-23 57.8327-23L57.8693-23ZM76.42-17.301C77.3625-18.823 79.3623-19.2941 80.8869-18.3532C82.4114-17.4124 82.8833-15.4159 81.9409-13.894C73.9632-1.01072 59.883 7 44.4258 7C43.8034 7 43.1825 6.9871 42.5633 6.96137C40.7725 6.88696 39.3812 5.37739 39.4558 3.58966C39.5303 1.80194 41.0424 0.413018 42.8332 0.487431C43.3625 0.509425 43.8935 0.520453 44.4258 0.520453C57.6102 0.520453 69.6131-6.30841 76.42-17.301ZM7.9162-61.6562C8.92171-63.1374 10.9396-63.5244 12.4233-62.5206C13.907-61.5167 14.2947-59.5023 13.2891-58.0211C9.10909-51.8636 6.84156-44.6049 6.84156-37C6.84156-31.0687 8.21904-25.3409 10.8283-20.163C11.6338-18.5646 10.9888-16.6169 9.38762-15.8128C7.78649-15.0087 5.83555-15.6527 5.03008-17.2511C1.96813-23.3274 0.351-30.0516 0.351-37C0.351-45.9112 3.01345-54.4342 7.9162-61.6562ZM44.4258-81C60.5849-81 75.2084-72.2418 82.9391-58.4104C83.8124-56.8478 83.2516-54.8744 81.6864-54.0026C80.1213-53.1308 78.1445-53.6907 77.2712-55.2532C70.6757-67.0535 58.2082-74.5205 44.4258-74.5205C42.6335-74.5205 41.1805-75.9709 41.1805-77.7602C41.1805-79.5495 42.6335-81 44.4258-81Z"/>
   <path class="monochrome-1 multicolor-1:custom hierarchical-1:tertiary SFSymbolsPreviewWireframe" d="M44.351-81C68.6515-81 88.351-61.3005 88.351-37C88.351-12.6995 68.6515 7 44.351 7C20.0505 7 0.351-12.6995 0.351-37C0.351-61.3005 20.0505-81 44.351-81ZM44.351-78C21.7073-78 3.351-59.6437 3.351-37C3.351-14.3564 21.7073 4 44.351 4C66.9946 4 85.351-14.3564 85.351-37C85.351-59.6437 66.9946-78 44.351-78Z"/>
  </g>
 </g>
</svg>
