<?xml version="1.0" encoding="UTF-8"?>
<svg width="3300px" height="2200px" viewBox="0 0 3300 2200" version="1.1" xmlns="http://www.w3.org/2000/svg" xmlns:xlink="http://www.w3.org/1999/xlink">
    <!-- Generator: Sketch 59.1 (86144) - https://sketch.com -->
    <title>filter</title>
    <desc>Created with Sketch.</desc>
    <g id="Page-1" stroke="none" stroke-width="1" fill="none" fill-rule="evenodd">
        <g id="filter">
            <g id="Notes">
                <rect id="artboard" fill="#FFFFFF" fill-rule="nonzero" x="0" y="0" width="3300" height="2200"></rect>
                <line x1="263" y1="292" x2="3036" y2="292" id="Path" stroke="#000000" stroke-width="0.5"></line>
                <text id="Weight/Scale-Variations" fill="#000000" font-family="Helvetica-Bold, Helvetica" font-size="13" font-weight="bold">
                    <tspan x="263" y="322">Weight/Scale Variations</tspan>
                </text>
                <text id="Ultralight" fill="#000000" font-family="Helvetica" font-size="13" font-weight="normal">
                    <tspan x="533.711" y="322">Ultralight</tspan>
                </text>
                <text id="Thin" fill="#000000" font-family="Helvetica" font-size="13" font-weight="normal">
                    <tspan x="843.422" y="322">Thin</tspan>
                </text>
                <text id="Light" fill="#000000" font-family="Helvetica" font-size="13" font-weight="normal">
                    <tspan x="1138.63" y="322">Light</tspan>
                </text>
                <text id="Regular" fill="#000000" font-family="Helvetica" font-size="13" font-weight="normal">
                    <tspan x="1426.84" y="322">Regular</tspan>
                </text>
                <text id="Medium" fill="#000000" font-family="Helvetica" font-size="13" font-weight="normal">
                    <tspan x="1723.06" y="322">Medium</tspan>
                </text>
                <text id="Semibold" fill="#000000" font-family="Helvetica" font-size="13" font-weight="normal">
                    <tspan x="2015.77" y="322">Semibold</tspan>
                </text>
                <text id="Bold" fill="#000000" font-family="Helvetica" font-size="13" font-weight="normal">
                    <tspan x="2326.48" y="322">Bold</tspan>
                </text>
                <text id="Heavy" fill="#000000" font-family="Helvetica" font-size="13" font-weight="normal">
                    <tspan x="2618.19" y="322">Heavy</tspan>
                </text>
                <text id="Black" fill="#000000" font-family="Helvetica" font-size="13" font-weight="normal">
                    <tspan x="2917.4" y="322">Black</tspan>
                </text>
                <line x1="263" y1="1903" x2="3036" y2="1903" id="Path" stroke="#000000" stroke-width="0.5"></line>
                <g id="Group" transform="translate(264.000000, 1918.000000)" fill="#000000" fill-rule="nonzero">
                    <path d="M8.24805,15.830078 C12.5547,15.830078 16.1387,12.25586 16.1387,7.94922 C16.1387,3.6426 12.5449,0.0684 8.23828,0.0684 C3.94141,0.0684 0.36719,3.6426 0.36719,7.94922 C0.36719,12.25586 3.95117,15.830078 8.24805,15.830078 Z M8.24805,14.345703 C4.70312,14.345703 1.87109,11.50391 1.87109,7.94922 C1.87109,4.3945 4.69336,1.5527 8.23828,1.5527 C11.793,1.5527 14.6348,4.3945 14.6445503,7.94922 C14.6543,11.50391 11.8027,14.345703 8.24805,14.345703 Z M8.22852,11.57227 C8.69727,11.57227 8.9707,11.25977 8.9707,10.74219 L8.9707,8.68164 L11.1973,8.68164 C11.6953,8.68164 12.0371,8.42773 12.0371,7.95898 C12.0371,7.48047 11.7148,7.2168 11.1973,7.2168 L8.9707,7.2168 L8.9707,4.9902 C8.9707,4.4727 8.69727,4.1504 8.22852,4.1504 C7.75977,4.1504 7.50586,4.4922 7.50586,4.9902 L7.50586,7.2168 L5.29883,7.2168 C4.78125,7.2168 4.44922,7.48047 4.44922,7.95898 C4.44922,8.42773 4.80078,8.68164 5.29883,8.68164 L7.50586,8.68164 L7.50586,10.74219 C7.50586,11.24023 7.75977,11.57227 8.22852,11.57227 Z" id="Shape"></path>
                </g>
                <g id="Group" transform="translate(282.506000, 1915.000000)" fill="#000000" fill-rule="nonzero">
                    <path d="M10.709,20.91016 C16.1582,20.91016 20.6699,16.39844 20.6699,10.94922 C20.6699,5.5098 16.1484,0.9883 10.6992,0.9883 C5.25977,0.9883 0.74805,5.5098 0.74805,10.94922 C0.74805,16.39844 5.26953,20.91016 10.709,20.91016 Z M10.709,19.25 C6.09961,19.25 2.41797,15.55859 2.41797,10.94922 C2.41797,6.3496 6.08984,2.6484 10.6992,2.6484 C15.3086,2.6484 19,6.3496 19.0098379,10.94922 C19.0195,15.55859 15.3184,19.25 10.709,19.25 Z M10.6895,15.58789 C11.207,15.58789 11.5195,15.22656 11.5195,14.66016 L11.5195,11.76953 L14.5762,11.76953 C15.123,11.76953 15.5039,11.48633 15.5039,10.96875 C15.5039,10.44141 15.1426,10.13867 14.5762,10.13867 L11.5195,10.13867 L11.5195,7.0723 C11.5195,6.4961 11.207,6.1445 10.6895,6.1445 C10.1719,6.1445 9.8789,6.5156 9.8789,7.0723 L9.8789,10.13867 L6.83203,10.13867 C6.26562,10.13867 5.89453,10.44141 5.89453,10.96875 C5.89453,11.48633 6.28516,11.76953 6.83203,11.76953 L9.8789,11.76953 L9.8789,14.66016 C9.8789,15.20703 10.1719,15.58789 10.6895,15.58789 Z" id="Shape"></path>
                </g>
                <g id="Group" transform="translate(306.924000, 1913.000000)" fill="#000000" fill-rule="nonzero">
                    <path d="M12.9707,25.67383 C19.9336,25.67383 25.6953,19.921875 25.6953,12.95898 C25.6953,5.9961 19.9238,0.2441 12.9609,0.2441 C6.00781,0.2441 0.25586,5.9961 0.25586,12.95898 C0.25586,19.921875 6.01758,25.67383 12.9707,25.67383 Z M12.9707,23.85742 C6.93555,23.85742 2.08203,18.99414 2.08203,12.95898 C2.08203,6.9238 6.92578,2.0605 12.9609,2.0605 C19.0059,2.0605 23.8594,6.9238 23.8691295,12.95898 C23.8789,18.99414 19.0156,23.85742 12.9707,23.85742 Z M12.9512,18.93555 C13.5176,18.93555 13.8691,18.54492 13.8691,17.93945 L13.8691,13.86719 L18.1074,13.86719 C18.6934,13.86719 19.1133,13.53516 19.1133,12.97852 C19.1133,12.40234 18.7227,12.06055 18.1074,12.06055 L13.8691,12.06055 L13.8691,7.8125 C13.8691,7.1973 13.5176,6.8066 12.9512,6.8066 C12.3848,6.8066 12.0625,7.2168 12.0625,7.8125 L12.0625,12.06055 L7.83398,12.06055 C7.21875,12.06055 6.80859,12.40234 6.80859,12.97852 C6.80859,13.53516 7.23828,13.86719 7.83398,13.86719 L12.0625,13.86719 L12.0625,17.93945 C12.0625,18.52539 12.3848,18.93555 12.9512,18.93555 Z" id="Shape"></path>
                </g>
                <text id="Design-Variations" fill="#000000" font-family="Helvetica-Bold, Helvetica" font-size="13" font-weight="bold">
                    <tspan x="263" y="1953">Design Variations</tspan>
                </text>
                <text id="Symbols-are-supported-in-up-to-nine-weights-and-three-scales." fill="#000000" font-family="Helvetica" font-size="13" font-weight="normal">
                    <tspan x="263" y="1971">Symbols are supported in up to nine weights and three scales.</tspan>
                </text>
                <text id="For-optimal-layout-with-text-and-other-symbols,-vertically-align" fill="#000000" font-family="Helvetica" font-size="13" font-weight="normal">
                    <tspan x="263" y="1989">For optimal layout with text and other symbols, vertically align</tspan>
                </text>
                <text id="symbols-with-the-adjacent-text." fill="#000000" font-family="Helvetica" font-size="13" font-weight="normal">
                    <tspan x="263" y="2007">symbols with the adjacent text.</tspan>
                </text>
                <rect id="Rectangle" fill="#00AEEF" fill-rule="nonzero" opacity="0.4" x="776" y="1919" width="3" height="14"></rect>
                <g id="Group" transform="translate(779.000000, 1918.000000)" fill="#000000" fill-rule="nonzero">
                    <path d="M10.5273,15 L12.373,15 L7.17773,0.9082 L5.43945,0.9082 L0.244141,15 L2.08984,15 L3.50586,10.9668 L9.11133,10.9668 L10.5273,15 Z M6.2793,3.0469 L6.33789,3.0469 L8.59375,9.47266 L4.02344,9.47266 L6.2793,3.0469 Z" id="Shape"></path>
                </g>
                <rect id="Rectangle" fill="#00AEEF" fill-rule="nonzero" opacity="0.4" x="791.617" y="1919" width="3" height="14"></rect>
                <text id="Margins" fill="#000000" font-family="Helvetica-Bold, Helvetica" font-size="13" font-weight="bold">
                    <tspan x="776" y="1953">Margins</tspan>
                </text>
                <text id="Leading-and-trailing-margins-on-the-left-and-right-side-of-each-symbol" fill="#000000" font-family="Helvetica" font-size="13" font-weight="normal">
                    <tspan x="776" y="1971">Leading and trailing margins on the left and right side of each symbol</tspan>
                </text>
                <text id="can-be-adjusted-by-modifying-the-width-of-the-blue-rectangles." fill="#000000" font-family="Helvetica" font-size="13" font-weight="normal">
                    <tspan x="776" y="1989">can be adjusted by modifying the width of the blue rectangles.</tspan>
                </text>
                <text id="Modifications-are-automatically-applied-proportionally-to-all" fill="#000000" font-family="Helvetica" font-size="13" font-weight="normal">
                    <tspan x="776" y="2007">Modifications are automatically applied proportionally to all</tspan>
                </text>
                <text id="scales-and-weights." fill="#000000" font-family="Helvetica" font-size="13" font-weight="normal">
                    <tspan x="776" y="2025">scales and weights.</tspan>
                </text>
                <g id="Group" transform="translate(1291.000000, 1915.000000)" fill="#000000" fill-rule="nonzero">
                    <path d="M0.83203,21.11523 L2.375,22.6582 C3.22461,23.48828 4.19141,23.41992 5.06055,22.46289 L15.2754,11.33984 C15.7051,11.63281 16.0957,11.62305 16.5645,11.52539 L17.6094,11.31055 L18.3027,12.00391 L18.2539,12.52148 C18.1855,13.04883 18.3516,13.46875 18.8496,13.9668 L19.6602,14.77734 C20.168,15.28516 20.8223,15.31445 21.3008,14.83594 L24.5527,11.58398 C25.0312,11.10547 25.0117,10.45117 24.5039,9.94336 L23.6836,9.12305 C23.1855,8.625 22.7754,8.44922 22.2383,8.52734 L21.7109,8.58594 L21.0566,7.9219 L21.3398,6.7793 C21.4863,6.2129 21.3398,5.7441 20.7148,5.1387 L18.3027,2.7461 C14.7578,-0.7793 10.2266,-0.6719 7.11133,2.4629 C6.69141,2.8926 6.64258,3.4785 6.91602,3.9082 C7.15039,4.2793 7.62891,4.5039 8.2734,4.3379 C9.7871,3.957 11.3008,4.0742 12.7852,5.0801 L12.1602,6.6621 C11.9258,7.248 11.9453,7.7266 12.1797,8.16602 L1.01758,18.439453 C0.08008,19.30859 -0.02734,20.25586 0.83203,21.11523 Z M8.6738,2.8535 C11.3398,0.8613 14.6504,1.1738 17.0527,3.5859 L19.6797,6.1934 C19.9141,6.4277 19.9434,6.6133 19.8848,6.9062 L19.5039,8.46875 L21.0762,10.04102 L22.043,9.95312 C22.3262,9.92383 22.4141,9.94336 22.6387,10.16797 L23.2637,10.79297 L20.5098,13.53711 L19.8848,12.92188 C19.6602,12.69727 19.6406,12.59961 19.6699,12.31641 L19.7578,11.35938 L18.1953,9.79688 L16.5742,10.10938 C16.291,10.16797 16.1445,10.16797 15.9102,9.92383 L13.7324,7.7461 C13.5078,7.5117 13.4785,7.375 13.6055,7.0527 L14.5527,4.7773 C12.9512,3.2441 10.8418,2.3945 8.8008,3.0488 C8.7129,3.0781 8.6445,3.0586 8.6152,3.0195 C8.5859,2.9707 8.5859,2.9219 8.6738,2.8535 Z M2.10156,20.41211 C1.61328,19.91406 1.78906,19.61133 2.12109,19.30859 L13.0781,9.19141 L14.3086,10.42188 L4.15234,21.34961 C3.84961,21.68164 3.46875,21.7793 3.06836,21.37891 L2.10156,20.41211 Z" id="Shape"></path>
                </g>
                <text id="Exporting" fill="#000000" font-family="Helvetica-Bold, Helvetica" font-size="13" font-weight="bold">
                    <tspan x="1289" y="1953">Exporting</tspan>
                </text>
                <text id="Symbols-should-be-outlined-when-exporting-to-ensure-the" fill="#000000" font-family="Helvetica" font-size="13" font-weight="normal">
                    <tspan x="1289" y="1971">Symbols should be outlined when exporting to ensure the</tspan>
                </text>
                <text id="design-is-preserved-when-submitting-to-Xcode." fill="#000000" font-family="Helvetica" font-size="13" font-weight="normal">
                    <tspan x="1289" y="1989">design is preserved when submitting to Xcode.</tspan>
                </text>
                <text id="Template-v.1.0" fill="#000000" font-family="Helvetica" font-size="13" font-weight="normal">
                    <tspan x="2952" y="1933">Template v.1.0</tspan>
                </text>
                <text id="Generated-from-circle" fill="#000000" font-family="Helvetica" font-size="13" font-weight="normal">
                    <tspan x="2911" y="1951">Generated from circle</tspan>
                </text>
                <text id="Typeset-at-100-points" fill="#000000" font-family="Helvetica" font-size="13" font-weight="normal">
                    <tspan x="2912" y="1969">Typeset at 100 points</tspan>
                </text>
                <text id="Small" fill="#000000" font-family="Helvetica" font-size="13" font-weight="normal">
                    <tspan x="263" y="726">Small</tspan>
                </text>
                <text id="Medium" fill="#000000" font-family="Helvetica" font-size="13" font-weight="normal">
                    <tspan x="263" y="1156">Medium</tspan>
                </text>
                <text id="Large" fill="#000000" font-family="Helvetica" font-size="13" font-weight="normal">
                    <tspan x="263" y="1586">Large</tspan>
                </text>
            </g>
            <g id="Guides" transform="translate(263.000000, 625.000000)">
                <g id="H-reference" transform="translate(76.000000, 0.000000)" fill="#27AAE1" fill-rule="nonzero">
                    <path d="M54.9316,71 L57.666,71 L30.5664,0.541 L28.0762,0.541 L0.976562,71 L3.66211,71 L12.9395,46.5371 L45.7031,46.5371 L54.9316,71 Z M29.1992,3.9102 L29.4434,3.9102 L44.8242,44.291 L13.8184,44.291 L29.1992,3.9102 Z" id="Shape"></path>
                </g>
                <line x1="0" y1="71" x2="2773" y2="71" id="Baseline-S" stroke="#27AAE1" stroke-width="0.577"></line>
                <line x1="0" y1="0.541" x2="2773" y2="0.541" id="Capline-S" stroke="#27AAE1" stroke-width="0.577"></line>
                <g id="H-reference" transform="translate(76.000000, 430.000000)" fill="#27AAE1" fill-rule="nonzero">
                    <path d="M54.9316,71 L57.666,71 L30.5664,0.541 L28.0762,0.541 L0.976562,71 L3.66211,71 L12.9395,46.5371 L45.7031,46.5371 L54.9316,71 Z M29.1992,3.9102 L29.4434,3.9102 L44.8242,44.291 L13.8184,44.291 L29.1992,3.9102 Z" id="Shape"></path>
                </g>
                <line x1="0" y1="501" x2="2773" y2="501" id="Baseline-M" stroke="#27AAE1" stroke-width="0.577"></line>
                <line x1="0" y1="430.54" x2="2773" y2="430.54" id="Capline-M" stroke="#27AAE1" stroke-width="0.577"></line>
                <g id="H-reference" transform="translate(76.000000, 860.000000)" fill="#27AAE1" fill-rule="nonzero">
                    <path d="M54.9316,71 L57.666,71 L30.5664,0.541 L28.0762,0.541 L0.976562,71 L3.66211,71 L12.9395,46.5371 L45.7031,46.5371 L54.9316,71 Z M29.1992,3.9102 L29.4434,3.9102 L44.8242,44.291 L13.8184,44.291 L29.1992,3.9102 Z" id="Shape"></path>
                </g>
                <line x1="0" y1="931" x2="2773" y2="931" id="Baseline-L" stroke="#27AAE1" stroke-width="0.577"></line>
                <line x1="0" y1="860.54" x2="2773" y2="860.54" id="Capline-L" stroke="#27AAE1" stroke-width="0.577"></line>
                <rect id="left-margin" fill="#00AEEF" fill-rule="nonzero" opacity="0.4" x="1128.3" y="405.79" width="8.74023" height="119.336"></rect>
                <rect id="right-margin" fill="#00AEEF" fill-rule="nonzero" opacity="0.4" x="1236.65" y="405.79" width="8.74023" height="119.336"></rect>
            </g>
            <g id="Symbols" transform="translate(1399.000000, 1040.000000)" fill="#000000" fill-rule="nonzero">
                <g id="Regular-M" transform="translate(0.300000, 0.000000)">
                    <path d="M50.5449,100.5508 C77.791,100.5508 100.35,77.99219 100.35,50.7461 C100.35,23.5488 77.7422,0.9414 50.4961,0.9414 C23.2988,0.9414 0.74023,23.5488 0.74023,50.7461 C0.74023,77.99219 23.3477,100.5508 50.5449,100.5508 Z M50.1551,92.0078 C27.1082,92.0078 8.7,73.5508 8.7,50.5039 C8.7,27.5058 27.0594,9 50.1063,9 C73.1532,9 91.6102,27.5058 91.6593938,50.5039 C91.7082,73.5508 73.202,92.0078 50.1551,92.0078 Z" id="Shape"></path>
                    <path d="M36.1682097,81.2566404 C36.0935363,81.3793258 36.0141958,81.4925738 35.9441895,81.6294152 C35.7855086,81.93141 35.6454959,82.2617168 35.4774808,82.558993 C35.2906939,82.8952083 35.091423,83.2241764 34.8800936,83.5451947 C34.744748,83.7480975 34.5627316,83.8613455 34.4600557,84.1067163 C34.3293772,84.4323045 34.1333596,84.2058084 33.9840128,84.3851178 C33.9560102,84.4181485 33.7739938,84.139747 33.73199,83.9510003 C33.6665124,83.5709707 33.7019432,83.1801801 33.834666,82.8185197 C34.0213495,82.2050928 34.1986988,81.5680725 34.3993836,80.9688016 C34.6187367,80.3129066 34.8754265,79.7041983 35.0994467,79.0577407 C35.2907973,78.5150938 35.4634795,77.9488536 35.6454959,77.3967693 L36.3455591,75.2167443 C36.5462438,74.5844427 36.7375944,73.9427038 36.9336121,73.3009648 C37.087626,72.7819112 37.2369728,72.2487017 37.4003208,71.7343668 C37.6103398,71.0643158 37.8390271,70.4131395 38.0397118,69.7336512 C38.2263953,69.1249429 38.3804092,68.483204 38.5530915,67.8650584 C38.7304408,67.2563501 38.9171243,66.6617978 39.0898065,66.0530896 C39.1598128,65.8124374 39.2064837,65.548192 39.2624888,65.2933839 C39.2811571,65.2131665 39.2951584,65.1235118 39.3231609,65.0574504 C39.4273038,64.8085922 39.4979407,64.5467279 39.5331799,64.2788701 C39.5798507,63.9485633 39.6871937,63.6418498 39.7665342,63.3209803 L39.9952215,62.3630906 C40.0652278,62.0941264 40.1539025,61.8393183 40.2099075,61.5609169 C40.2939151,61.1551114 40.3079164,60.7115565 40.4339277,60.319907 C40.555272,59.9424135 40.6346125,59.4988586 40.6906176,59.0694598 C40.7559568,58.5268128 40.9006365,57.9936033 40.8072947,57.4037697 C40.798445,57.3143253 40.8096105,57.2240139 40.8399644,57.1395242 C40.9379732,56.8847161 40.872634,56.6676573 40.8352973,56.4081306 C40.7559568,55.8985143 40.6439467,55.3653048 40.662615,54.8509699 C40.6906176,54.1242949 40.713953,53.3693079 40.8819681,52.6709449 C40.9753099,52.2745767 40.9986453,51.8215845 41.0686516,51.415779 C41.138658,51.0618788 41.2506681,50.7362907 41.3113402,50.3776719 C41.404682,49.8444623 41.4700212,49.292378 41.5540288,48.7544498 C41.5913655,48.5185164 41.6380363,48.2920202 41.6847072,48.0655241 C41.8620565,47.2067264 42.0534071,46.357366 42.2214223,45.489131 C42.2960957,45.1163562 42.3240982,44.7105506 42.3801032,44.3283385 C42.4034387,44.1867784 42.4594437,44.064093 42.4921133,43.922533 C42.5994564,43.4836968 42.7021323,43.0448606 42.8001411,42.6013057 C43.0194942,41.6009479 43.2435144,40.6005901 43.4535334,39.590795 C43.5468751,39.1472401 43.6075473,38.6753733 43.700889,38.2318184 C43.7848966,37.8307316 43.9062409,37.4579567 43.9902484,37.0521512 C44.074256,36.6746577 44.1302611,36.2641335 44.2049345,35.8772027 C44.4372581,34.7290718 44.6971359,33.5868169 44.9843381,32.4514491 C45.0823469,32.0597996 45.2176925,31.6964621 45.3203684,31.3189686 C45.404376,31.0264112 45.460381,30.7196977 45.5350544,30.4271402 C45.5673305,30.3037014 45.6110849,30.1836268 45.6657329,30.0685214 C45.9037543,29.5636238 46.1464429,29.0587263 46.3937985,28.5632661 C46.5291441,28.2895833 46.6738238,28.0253378 46.8138364,27.7610924 C47.0331895,27.3600055 47.2478755,26.9494813 47.4765628,26.5719878 C47.7472539,26.1237143 48.0226121,25.6990341 48.3026373,25.2837913 C48.4706525,25.0337018 48.6526689,24.8119244 48.8300182,24.5854283 L49.6234231,23.5614771 L50.2394787,22.7734595 C50.902972,21.8147128 51.4190877,20.7599365 51.7702834,19.6449821 C51.9989707,18.8711204 52.1716529,18.0453533 52.3863389,17.2620543 C52.498349,16.8373741 52.6336946,16.4362873 52.7830414,16.0587938 C53.0321025,15.3827406 53.4698388,14.7942809 54.043155,14.3647917 C54.4398574,14.0675156 54.8365599,13.7513647 55.2425965,13.5012753 C55.5249759,13.3266272 55.8341054,13.200652 56.1573456,13.1285005 C56.5616317,13.0187429 56.9813577,12.978859 57.3987909,13.0105337 C57.8114297,13.0792072 58.2046004,13.2369261 58.5515616,13.4729633 C58.840921,13.6569914 59.1022779,14.0156102 59.3683019,14.3128863 C59.5456512,14.5016331 59.7230005,14.6903798 59.8816815,14.9263133 C60.0403625,15.143372 60.1803751,15.3981802 60.3063865,15.6718629 C60.5164054,16.1154178 60.7264243,16.5589727 60.8944395,17.0449956 C61.0017825,17.3469904 61.0344521,17.7339212 61.1044584,18.0831027 C61.188466,18.4794709 61.2864748,18.8664017 61.3658153,19.2627699 C61.4498229,19.6780127 61.5384976,20.0885369 61.5898355,20.5132171 C61.6505077,20.985084 61.6878444,21.4758255 61.6971786,21.9571298 C61.7089315,22.397308 61.6839519,22.8377044 61.6225052,23.2736384 C61.5898355,23.4718224 61.4358217,23.6322572 61.3144774,23.7313492 C61.2678065,23.7690986 61.1417951,23.6086638 61.1091255,23.4812598 C60.9691129,22.9857996 60.7310914,22.8442395 60.4697345,22.7923341 C60.4137295,22.7828968 60.3203877,22.9716436 60.2783839,23.1037663 C60.1663738,23.4340731 60.0543637,23.7785359 59.9703562,24.1418734 C59.9184945,24.3840966 59.8872663,24.630369 59.8770144,24.8779857 C59.8443448,25.4347887 59.8116752,26.0010289 59.8070081,26.5625505 C59.8070081,26.9919494 59.8443448,27.4260669 59.8770144,27.8554657 C59.9050169,28.2707086 59.9563549,28.6812328 59.9703562,29.1011943 C59.9843574,29.4503758 59.961022,29.8089946 59.9516878,30.1581761 C59.9516878,30.1959255 59.9516878,30.2478308 59.961022,30.2761428 C60.0216941,30.4460149 60.0076929,30.6206057 59.9983587,30.8187897 C59.9890245,31.0075365 60.0543637,31.2104392 60.0590308,31.4086233 C60.0636979,31.9607076 60.0636979,32.5175105 60.0450296,33.0695948 C60.0310283,33.4612443 59.9750233,33.8481751 59.9516878,34.2398246 C59.9470207,34.3955407 59.9983587,34.5701314 59.9890245,34.7211288 C59.961022,35.0703103 59.9050169,35.4100545 59.8723473,35.759236 C59.8396777,36.0753868 59.8256765,36.3962562 59.7976739,36.7124071 C59.7556701,37.3022407 59.7183334,37.8920742 59.6623284,38.4771892 C59.6249917,38.9113067 59.5503183,39.3359869 59.5036474,39.7653858 C59.4476424,40.2844393 59.4103057,40.8034929 59.3543006,41.3225465 C59.3309652,41.5207305 59.2842943,41.7094773 59.2609589,41.9123801 C59.2189551,42.2426869 59.1722842,42.5777124 59.1582829,42.9174565 C59.1396146,43.2477633 59.1582829,43.5875075 59.1536158,43.9178143 C59.1536158,44.021625 59.1209462,44.120717 59.1162791,44.2245278 C59.0929437,44.6492079 59.0509399,45.0502948 58.9762665,45.460819 C58.896926,45.9138112 58.8829248,46.4139901 58.8455881,46.8952943 C58.8175855,47.2680691 58.8035843,47.640844 58.7849159,48.0136188 C58.7662476,48.3533629 58.7709147,48.7119818 58.7149096,49.0234139 C58.5128749,50.1158026 58.2526956,51.1963752 57.935506,52.2604207 C57.8608326,52.5057915 57.7394883,52.6945382 57.6648149,52.939909 C57.4388227,53.6199943 57.1316387,54.2696751 56.7500658,54.8745632 C56.5167114,55.2709314 56.2740228,55.6342689 56.0546697,56.0542304 C55.8959887,56.3703812 55.6859698,56.5402533 55.5179547,56.8186547 C55.3826091,57.0404322 55.2519307,57.2669283 55.107251,57.4745497 C55.0139092,57.6161098 54.8785637,57.6963271 54.7945561,57.8614805 C54.6078726,58.2342554 54.3465157,58.3239101 54.1318297,58.5928742 C54.0524892,58.6966849 53.9824829,58.8288076 53.9031424,58.937337 L53.3850957,59.6121067 C53.3664273,59.6309813 53.3430919,59.6357 53.3244235,59.649856 C53.2357489,59.70648 53.1284058,59.7253547 53.0677337,59.8338841 C52.9353087,60.0632998 52.8288509,60.3070599 52.7503717,60.5605591 C52.6383616,60.9238966 52.6663642,61.0135513 52.8530477,61.3155461 C52.9883932,61.5373235 53.1237388,61.759101 53.2544172,61.9903157 C53.2943394,62.0626315 53.3167317,62.1434879 53.3197564,62.2262492 C53.3197564,62.5754307 53.296421,62.9246122 53.2870868,63.2785123 L53.2824197,63.2926683 C53.3757615,63.5852258 53.2824197,63.9060953 53.3290906,64.2128087 C53.3554595,64.4574553 53.3554595,64.7042745 53.3290906,64.9489211 C53.3197564,65.1612612 53.3850957,65.4585373 53.5064399,65.5529107 C53.5671121,65.6000974 53.6557867,65.618972 53.5671121,65.8030001 C53.5531108,65.8313121 53.5764462,65.9539975 53.5997817,66.0059029 C53.7117918,66.2654297 53.8471373,66.4966444 53.9404791,66.7750459 C54.0478221,67.086478 54.1084942,67.4403782 54.201836,67.7659663 C54.2485068,67.9216824 54.3138461,68.0490865 54.365184,68.1953652 C54.4118549,68.3274879 54.4351903,68.483204 54.4865283,68.610608 C54.6545435,69.0494442 54.8272257,69.4788431 54.9999079,69.908242 C55.1025839,70.1677687 55.214594,70.4131395 55.3126028,70.677385 C55.3919433,70.8944437 55.4526154,71.1303772 55.5179547,71.3474359 C55.4899521,71.3993413 55.4572825,71.47484 55.4152787,71.5267453 C55.3826091,71.573932 55.3406053,71.6258374 55.3079357,71.6211187 C55.1238669,71.5789748 54.9429594,71.5237874 54.7665536,71.4559653 C54.2485068,71.2483439 53.9544803,70.4603262 53.6091159,69.8185872 C53.4691032,69.5590605 53.347759,69.2617843 53.2077463,69.0022575 C53.1144046,68.8323855 53.0443983,69.0022575 52.9883932,69.1202243 L52.6616971,69.8327433 C52.6439556,69.8686833 52.6141917,69.8971044 52.5776895,69.9129606 C52.1744737,70.1075673 51.7699838,70.2994641 51.3642468,70.4886382 C51.1402265,70.5924489 50.948876,70.3470781 50.9068722,69.9129606 C50.9068722,69.8893673 50.9068722,69.8563366 50.897538,69.8374619 C50.7295228,69.3325644 50.8928709,68.9550709 51.0375506,68.5870147 C51.1689405,68.2490116 51.2476617,67.8924426 51.270905,67.5300329 C51.2849063,67.3507235 51.2895734,67.1666954 51.2989075,66.987386 C51.3129088,66.7184219 51.2382354,66.5862991 51.0748873,66.5957365 C51.0348975,66.5940676 50.9975258,66.5751752 50.9722114,66.5438311 C50.8423118,66.3942641 50.7177756,66.2400212 50.5988444,66.0814016 C50.5599456,66.0160398 50.5330657,65.9441008 50.5195039,65.8690615 C50.4280012,65.5036236 50.3840706,65.1276727 50.3888255,64.750737 C50.3981596,64.5242409 50.3514888,64.3921181 50.2488128,64.2741514 C50.033625,64.004941 49.7728929,63.7764757 49.4787434,63.5993818 C49.3387308,63.5286018 49.2313877,63.240763 49.1333789,63.0142669 C49.0680397,62.8538321 49.0167017,62.7972081 48.9466954,62.9765175 C48.7880144,63.4153537 48.6340005,63.8683459 48.4706525,64.3071821 C48.4239816,64.4487422 48.3539753,64.5619902 48.2979702,64.6988316 L47.9012678,65.6425654 L47.807926,65.8501868 C47.779315,65.9241801 47.7620043,66.0021437 47.7565881,66.0814016 L47.6399109,66.331491 C47.5419021,66.5579871 47.4438932,66.7797645 47.3505515,67.0109793 C47.2898793,67.1525394 47.2292072,67.3035368 47.1778692,67.4592529 C47.0705262,67.756529 46.9631832,68.0538051 46.8651744,68.3605186 C46.6924921,68.8890095 46.5338112,69.4269377 46.3517947,69.95071 C46.2817884,70.1724874 46.1697783,70.3470781 46.0951049,70.5641369 C46.0157644,70.8000704 45.9644265,71.0595971 45.8944202,71.3049679 C45.8570835,71.4276533 45.8010784,71.531464 45.7637417,71.6588681 C45.6283962,72.1307349 45.5023848,72.6026018 45.3623722,73.06975 C45.3017,73.2773715 45.1990241,73.4472435 45.138352,73.6501463 C44.9563356,74.2730106 44.7743192,74.8958749 44.6109711,75.5328951 C44.5176293,75.891514 44.4709585,76.2878821 44.391618,76.6559383 C44.3619315,76.8138769 44.3133479,76.9675766 44.2469383,77.1136492 C44.0602548,77.4769867 44.0135839,77.9488536 43.9295763,78.4065644 C43.9015738,78.5669992 43.8222333,78.6991219 43.7802295,78.854838 L43.4115296,80.3176253 C43.2668499,80.8838655 43.1035018,81.4406685 42.9588221,82.0163461 C42.7908069,82.686397 42.6414601,83.3753227 42.473445,84.054811 C42.4314412,84.2152457 42.3567678,84.3473684 42.3007628,84.4983658 C42.2820944,84.5644272 42.2774273,84.6540819 42.2540919,84.7248619 C42.2260894,84.8428287 42.1840856,84.951358 42.151416,85.0693248 C42.0706421,85.4236564 41.9163331,85.7565944 41.6987085,86.0460892 C41.6660389,86.0838385 41.6427034,86.1498999 41.619368,86.2112426 C41.56803,86.3528027 41.512025,86.4566134 41.409349,86.36224 C41.3906807,86.3433653 41.353344,86.3528027 41.3346756,86.376396 C41.1806618,86.5887361 40.9939782,86.7538895 40.8866352,87.032291 C40.7372884,87.4097845 40.5366037,87.5890939 40.340586,87.8108713 C40.3032493,87.8533393 40.2659126,87.9052447 40.2239088,87.9099634 C39.9718861,87.9713061 39.7151963,88.0798354 39.4585065,87.9052447 C39.2484875,87.7636846 39.1924825,87.4192218 39.1271432,87.088915 C39.0219542,86.5291158 38.973477,85.9599338 38.9824635,85.3901942 C38.9824635,85.2250408 39.0384686,85.0598874 39.0571369,84.8994527 C39.113142,84.4464605 39.1504787,83.9840309 39.2158179,83.5357574 C39.2811571,83.1016399 39.383833,82.6911157 39.4491723,82.2617168 C39.5611824,81.5539165 39.6545241,80.8461162 39.7665342,80.1383159 C39.8225393,79.7844157 39.9065469,79.4446716 39.967219,79.0907714 C40.0138899,78.8170886 40.0418924,78.5245312 40.0792291,78.2461297 C40.1259,77.9724469 40.181905,77.7129201 40.2192417,77.4345187 C40.2845809,76.8494037 40.3265847,76.2501328 40.4059252,75.6697365 C40.4805986,75.1554016 40.5926087,74.6646601 40.6859505,74.1597625 C40.713953,73.9993278 40.7186201,73.8294557 40.7466226,73.5699289 C40.60661,73.8058624 40.499267,73.9993278 40.3872569,74.1739185 C40.2659126,74.3721026 40.1305671,74.5466934 40.0045557,74.7448775 C39.7898697,75.0987776 39.5751836,75.4526778 39.3698318,75.8207339 C39.1831483,76.1651968 38.9964648,76.5190969 38.8331167,76.9060278 C38.7071054,77.2080226 38.6137636,77.5666414 38.5064206,77.9016669 C38.4830852,77.9582909 38.4784181,78.0432269 38.4504155,78.0762576 C38.1983928,78.3782524 38.1610561,78.925618 38.0257106,79.3644542 C37.885698,79.8174464 37.727017,80.2468453 37.5730031,80.6856815 C37.4889955,80.9357709 37.4143221,81.1952977 37.3256474,81.4406685 C37.2416399,81.6671646 37.1669665,81.9125353 37.0596235,82.0965634 C36.8122678,82.5212436 36.6862565,83.0827652 36.5089071,83.5829441 C36.3595603,84.0029056 36.1635427,84.3568058 35.9908604,84.7437366 C35.9535237,84.823954 35.9255212,84.923046 35.8881845,84.9985447 C35.860182,85.0598874 35.7995098,85.1589795 35.7808415,85.1401048 C35.7292089,85.0791246 35.698147,85.003091 35.6921668,84.923046 C35.6874997,84.6304886 35.6641643,84.3190564 35.7061681,84.0500923 C35.7995098,83.4319467 35.9301883,82.8326758 36.0421984,82.2239675 L36.2008794,81.2802337 C36.191004,81.2730501 36.1816462,81.2651658 36.1728768,81.2566404 L36.1682097,81.2566404 Z" id="Path"></path>
                </g>
            </g>
        </g>
    </g>
</svg>