<?xml version="1.0" encoding="UTF-8"?>
<svg width="3300px" height="2200px" viewBox="0 0 3300 2200" version="1.1" xmlns="http://www.w3.org/2000/svg" xmlns:xlink="http://www.w3.org/1999/xlink">
    <!-- Generator: Sketch 59.1 (86144) - https://sketch.com -->
    <title>filter</title>
    <desc>Created with Sketch.</desc>
    <g id="Page-1" stroke="none" stroke-width="1" fill="none" fill-rule="evenodd">
        <g id="filter">
            <g id="Notes">
                <rect id="artboard" fill="#FFFFFF" fill-rule="nonzero" x="0" y="0" width="3300" height="2200"></rect>
                <line x1="263" y1="292" x2="3036" y2="292" id="Path" stroke="#000000" stroke-width="0.5"></line>
                <text id="Weight/Scale-Variations" fill="#000000" font-family="Helvetica-Bold, Helvetica" font-size="13" font-weight="bold">
                    <tspan x="263" y="322">Weight/Scale Variations</tspan>
                </text>
                <text id="Ultralight" fill="#000000" font-family="Helvetica" font-size="13" font-weight="normal">
                    <tspan x="533.711" y="322">Ultralight</tspan>
                </text>
                <text id="Thin" fill="#000000" font-family="Helvetica" font-size="13" font-weight="normal">
                    <tspan x="843.422" y="322">Thin</tspan>
                </text>
                <text id="Light" fill="#000000" font-family="Helvetica" font-size="13" font-weight="normal">
                    <tspan x="1138.63" y="322">Light</tspan>
                </text>
                <text id="Regular" fill="#000000" font-family="Helvetica" font-size="13" font-weight="normal">
                    <tspan x="1426.84" y="322">Regular</tspan>
                </text>
                <text id="Medium" fill="#000000" font-family="Helvetica" font-size="13" font-weight="normal">
                    <tspan x="1723.06" y="322">Medium</tspan>
                </text>
                <text id="Semibold" fill="#000000" font-family="Helvetica" font-size="13" font-weight="normal">
                    <tspan x="2015.77" y="322">Semibold</tspan>
                </text>
                <text id="Bold" fill="#000000" font-family="Helvetica" font-size="13" font-weight="normal">
                    <tspan x="2326.48" y="322">Bold</tspan>
                </text>
                <text id="Heavy" fill="#000000" font-family="Helvetica" font-size="13" font-weight="normal">
                    <tspan x="2618.19" y="322">Heavy</tspan>
                </text>
                <text id="Black" fill="#000000" font-family="Helvetica" font-size="13" font-weight="normal">
                    <tspan x="2917.4" y="322">Black</tspan>
                </text>
                <line x1="263" y1="1903" x2="3036" y2="1903" id="Path" stroke="#000000" stroke-width="0.5"></line>
                <g id="Group" transform="translate(264.000000, 1918.000000)" fill="#000000" fill-rule="nonzero">
                    <path d="M8.24805,15.830078 C12.5547,15.830078 16.1387,12.25586 16.1387,7.94922 C16.1387,3.6426 12.5449,0.0684 8.23828,0.0684 C3.94141,0.0684 0.36719,3.6426 0.36719,7.94922 C0.36719,12.25586 3.95117,15.830078 8.24805,15.830078 Z M8.24805,14.345703 C4.70312,14.345703 1.87109,11.50391 1.87109,7.94922 C1.87109,4.3945 4.69336,1.5527 8.23828,1.5527 C11.793,1.5527 14.6348,4.3945 14.6445503,7.94922 C14.6543,11.50391 11.8027,14.345703 8.24805,14.345703 Z M8.22852,11.57227 C8.69727,11.57227 8.9707,11.25977 8.9707,10.74219 L8.9707,8.68164 L11.1973,8.68164 C11.6953,8.68164 12.0371,8.42773 12.0371,7.95898 C12.0371,7.48047 11.7148,7.2168 11.1973,7.2168 L8.9707,7.2168 L8.9707,4.9902 C8.9707,4.4727 8.69727,4.1504 8.22852,4.1504 C7.75977,4.1504 7.50586,4.4922 7.50586,4.9902 L7.50586,7.2168 L5.29883,7.2168 C4.78125,7.2168 4.44922,7.48047 4.44922,7.95898 C4.44922,8.42773 4.80078,8.68164 5.29883,8.68164 L7.50586,8.68164 L7.50586,10.74219 C7.50586,11.24023 7.75977,11.57227 8.22852,11.57227 Z" id="Shape"></path>
                </g>
                <g id="Group" transform="translate(282.506000, 1915.000000)" fill="#000000" fill-rule="nonzero">
                    <path d="M10.709,20.91016 C16.1582,20.91016 20.6699,16.39844 20.6699,10.94922 C20.6699,5.5098 16.1484,0.9883 10.6992,0.9883 C5.25977,0.9883 0.74805,5.5098 0.74805,10.94922 C0.74805,16.39844 5.26953,20.91016 10.709,20.91016 Z M10.709,19.25 C6.09961,19.25 2.41797,15.55859 2.41797,10.94922 C2.41797,6.3496 6.08984,2.6484 10.6992,2.6484 C15.3086,2.6484 19,6.3496 19.0098379,10.94922 C19.0195,15.55859 15.3184,19.25 10.709,19.25 Z M10.6895,15.58789 C11.207,15.58789 11.5195,15.22656 11.5195,14.66016 L11.5195,11.76953 L14.5762,11.76953 C15.123,11.76953 15.5039,11.48633 15.5039,10.96875 C15.5039,10.44141 15.1426,10.13867 14.5762,10.13867 L11.5195,10.13867 L11.5195,7.0723 C11.5195,6.4961 11.207,6.1445 10.6895,6.1445 C10.1719,6.1445 9.8789,6.5156 9.8789,7.0723 L9.8789,10.13867 L6.83203,10.13867 C6.26562,10.13867 5.89453,10.44141 5.89453,10.96875 C5.89453,11.48633 6.28516,11.76953 6.83203,11.76953 L9.8789,11.76953 L9.8789,14.66016 C9.8789,15.20703 10.1719,15.58789 10.6895,15.58789 Z" id="Shape"></path>
                </g>
                <g id="Group" transform="translate(306.924000, 1913.000000)" fill="#000000" fill-rule="nonzero">
                    <path d="M12.9707,25.67383 C19.9336,25.67383 25.6953,19.921875 25.6953,12.95898 C25.6953,5.9961 19.9238,0.2441 12.9609,0.2441 C6.00781,0.2441 0.25586,5.9961 0.25586,12.95898 C0.25586,19.921875 6.01758,25.67383 12.9707,25.67383 Z M12.9707,23.85742 C6.93555,23.85742 2.08203,18.99414 2.08203,12.95898 C2.08203,6.9238 6.92578,2.0605 12.9609,2.0605 C19.0059,2.0605 23.8594,6.9238 23.8691295,12.95898 C23.8789,18.99414 19.0156,23.85742 12.9707,23.85742 Z M12.9512,18.93555 C13.5176,18.93555 13.8691,18.54492 13.8691,17.93945 L13.8691,13.86719 L18.1074,13.86719 C18.6934,13.86719 19.1133,13.53516 19.1133,12.97852 C19.1133,12.40234 18.7227,12.06055 18.1074,12.06055 L13.8691,12.06055 L13.8691,7.8125 C13.8691,7.1973 13.5176,6.8066 12.9512,6.8066 C12.3848,6.8066 12.0625,7.2168 12.0625,7.8125 L12.0625,12.06055 L7.83398,12.06055 C7.21875,12.06055 6.80859,12.40234 6.80859,12.97852 C6.80859,13.53516 7.23828,13.86719 7.83398,13.86719 L12.0625,13.86719 L12.0625,17.93945 C12.0625,18.52539 12.3848,18.93555 12.9512,18.93555 Z" id="Shape"></path>
                </g>
                <text id="Design-Variations" fill="#000000" font-family="Helvetica-Bold, Helvetica" font-size="13" font-weight="bold">
                    <tspan x="263" y="1953">Design Variations</tspan>
                </text>
                <text id="Symbols-are-supported-in-up-to-nine-weights-and-three-scales." fill="#000000" font-family="Helvetica" font-size="13" font-weight="normal">
                    <tspan x="263" y="1971">Symbols are supported in up to nine weights and three scales.</tspan>
                </text>
                <text id="For-optimal-layout-with-text-and-other-symbols,-vertically-align" fill="#000000" font-family="Helvetica" font-size="13" font-weight="normal">
                    <tspan x="263" y="1989">For optimal layout with text and other symbols, vertically align</tspan>
                </text>
                <text id="symbols-with-the-adjacent-text." fill="#000000" font-family="Helvetica" font-size="13" font-weight="normal">
                    <tspan x="263" y="2007">symbols with the adjacent text.</tspan>
                </text>
                <rect id="Rectangle" fill="#00AEEF" fill-rule="nonzero" opacity="0.4" x="776" y="1919" width="3" height="14"></rect>
                <g id="Group" transform="translate(779.000000, 1918.000000)" fill="#000000" fill-rule="nonzero">
                    <path d="M10.5273,15 L12.373,15 L7.17773,0.9082 L5.43945,0.9082 L0.244141,15 L2.08984,15 L3.50586,10.9668 L9.11133,10.9668 L10.5273,15 Z M6.2793,3.0469 L6.33789,3.0469 L8.59375,9.47266 L4.02344,9.47266 L6.2793,3.0469 Z" id="Shape"></path>
                </g>
                <rect id="Rectangle" fill="#00AEEF" fill-rule="nonzero" opacity="0.4" x="791.617" y="1919" width="3" height="14"></rect>
                <text id="Margins" fill="#000000" font-family="Helvetica-Bold, Helvetica" font-size="13" font-weight="bold">
                    <tspan x="776" y="1953">Margins</tspan>
                </text>
                <text id="Leading-and-trailing-margins-on-the-left-and-right-side-of-each-symbol" fill="#000000" font-family="Helvetica" font-size="13" font-weight="normal">
                    <tspan x="776" y="1971">Leading and trailing margins on the left and right side of each symbol</tspan>
                </text>
                <text id="can-be-adjusted-by-modifying-the-width-of-the-blue-rectangles." fill="#000000" font-family="Helvetica" font-size="13" font-weight="normal">
                    <tspan x="776" y="1989">can be adjusted by modifying the width of the blue rectangles.</tspan>
                </text>
                <text id="Modifications-are-automatically-applied-proportionally-to-all" fill="#000000" font-family="Helvetica" font-size="13" font-weight="normal">
                    <tspan x="776" y="2007">Modifications are automatically applied proportionally to all</tspan>
                </text>
                <text id="scales-and-weights." fill="#000000" font-family="Helvetica" font-size="13" font-weight="normal">
                    <tspan x="776" y="2025">scales and weights.</tspan>
                </text>
                <g id="Group" transform="translate(1291.000000, 1915.000000)" fill="#000000" fill-rule="nonzero">
                    <path d="M0.83203,21.11523 L2.375,22.6582 C3.22461,23.48828 4.19141,23.41992 5.06055,22.46289 L15.2754,11.33984 C15.7051,11.63281 16.0957,11.62305 16.5645,11.52539 L17.6094,11.31055 L18.3027,12.00391 L18.2539,12.52148 C18.1855,13.04883 18.3516,13.46875 18.8496,13.9668 L19.6602,14.77734 C20.168,15.28516 20.8223,15.31445 21.3008,14.83594 L24.5527,11.58398 C25.0312,11.10547 25.0117,10.45117 24.5039,9.94336 L23.6836,9.12305 C23.1855,8.625 22.7754,8.44922 22.2383,8.52734 L21.7109,8.58594 L21.0566,7.9219 L21.3398,6.7793 C21.4863,6.2129 21.3398,5.7441 20.7148,5.1387 L18.3027,2.7461 C14.7578,-0.7793 10.2266,-0.6719 7.11133,2.4629 C6.69141,2.8926 6.64258,3.4785 6.91602,3.9082 C7.15039,4.2793 7.62891,4.5039 8.2734,4.3379 C9.7871,3.957 11.3008,4.0742 12.7852,5.0801 L12.1602,6.6621 C11.9258,7.248 11.9453,7.7266 12.1797,8.16602 L1.01758,18.439453 C0.08008,19.30859 -0.02734,20.25586 0.83203,21.11523 Z M8.6738,2.8535 C11.3398,0.8613 14.6504,1.1738 17.0527,3.5859 L19.6797,6.1934 C19.9141,6.4277 19.9434,6.6133 19.8848,6.9062 L19.5039,8.46875 L21.0762,10.04102 L22.043,9.95312 C22.3262,9.92383 22.4141,9.94336 22.6387,10.16797 L23.2637,10.79297 L20.5098,13.53711 L19.8848,12.92188 C19.6602,12.69727 19.6406,12.59961 19.6699,12.31641 L19.7578,11.35938 L18.1953,9.79688 L16.5742,10.10938 C16.291,10.16797 16.1445,10.16797 15.9102,9.92383 L13.7324,7.7461 C13.5078,7.5117 13.4785,7.375 13.6055,7.0527 L14.5527,4.7773 C12.9512,3.2441 10.8418,2.3945 8.8008,3.0488 C8.7129,3.0781 8.6445,3.0586 8.6152,3.0195 C8.5859,2.9707 8.5859,2.9219 8.6738,2.8535 Z M2.10156,20.41211 C1.61328,19.91406 1.78906,19.61133 2.12109,19.30859 L13.0781,9.19141 L14.3086,10.42188 L4.15234,21.34961 C3.84961,21.68164 3.46875,21.7793 3.06836,21.37891 L2.10156,20.41211 Z" id="Shape"></path>
                </g>
                <text id="Exporting" fill="#000000" font-family="Helvetica-Bold, Helvetica" font-size="13" font-weight="bold">
                    <tspan x="1289" y="1953">Exporting</tspan>
                </text>
                <text id="Symbols-should-be-outlined-when-exporting-to-ensure-the" fill="#000000" font-family="Helvetica" font-size="13" font-weight="normal">
                    <tspan x="1289" y="1971">Symbols should be outlined when exporting to ensure the</tspan>
                </text>
                <text id="design-is-preserved-when-submitting-to-Xcode." fill="#000000" font-family="Helvetica" font-size="13" font-weight="normal">
                    <tspan x="1289" y="1989">design is preserved when submitting to Xcode.</tspan>
                </text>
                <text id="Template-v.1.0" fill="#000000" font-family="Helvetica" font-size="13" font-weight="normal">
                    <tspan x="2952" y="1933">Template v.1.0</tspan>
                </text>
                <text id="Generated-from-circle" fill="#000000" font-family="Helvetica" font-size="13" font-weight="normal">
                    <tspan x="2911" y="1951">Generated from circle</tspan>
                </text>
                <text id="Typeset-at-100-points" fill="#000000" font-family="Helvetica" font-size="13" font-weight="normal">
                    <tspan x="2912" y="1969">Typeset at 100 points</tspan>
                </text>
                <text id="Small" fill="#000000" font-family="Helvetica" font-size="13" font-weight="normal">
                    <tspan x="263" y="726">Small</tspan>
                </text>
                <text id="Medium" fill="#000000" font-family="Helvetica" font-size="13" font-weight="normal">
                    <tspan x="263" y="1156">Medium</tspan>
                </text>
                <text id="Large" fill="#000000" font-family="Helvetica" font-size="13" font-weight="normal">
                    <tspan x="263" y="1586">Large</tspan>
                </text>
            </g>
            <g id="Guides" transform="translate(263.000000, 625.000000)">
                <g id="H-reference" transform="translate(76.000000, 0.000000)" fill="#27AAE1" fill-rule="nonzero">
                    <path d="M54.9316,71 L57.666,71 L30.5664,0.541 L28.0762,0.541 L0.976562,71 L3.66211,71 L12.9395,46.5371 L45.7031,46.5371 L54.9316,71 Z M29.1992,3.9102 L29.4434,3.9102 L44.8242,44.291 L13.8184,44.291 L29.1992,3.9102 Z" id="Shape"></path>
                </g>
                <line x1="0" y1="71" x2="2773" y2="71" id="Baseline-S" stroke="#27AAE1" stroke-width="0.577"></line>
                <line x1="0" y1="0.541" x2="2773" y2="0.541" id="Capline-S" stroke="#27AAE1" stroke-width="0.577"></line>
                <g id="H-reference" transform="translate(76.000000, 430.000000)" fill="#27AAE1" fill-rule="nonzero">
                    <path d="M54.9316,71 L57.666,71 L30.5664,0.541 L28.0762,0.541 L0.976562,71 L3.66211,71 L12.9395,46.5371 L45.7031,46.5371 L54.9316,71 Z M29.1992,3.9102 L29.4434,3.9102 L44.8242,44.291 L13.8184,44.291 L29.1992,3.9102 Z" id="Shape"></path>
                </g>
                <line x1="0" y1="501" x2="2773" y2="501" id="Baseline-M" stroke="#27AAE1" stroke-width="0.577"></line>
                <line x1="0" y1="430.54" x2="2773" y2="430.54" id="Capline-M" stroke="#27AAE1" stroke-width="0.577"></line>
                <g id="H-reference" transform="translate(76.000000, 860.000000)" fill="#27AAE1" fill-rule="nonzero">
                    <path d="M54.9316,71 L57.666,71 L30.5664,0.541 L28.0762,0.541 L0.976562,71 L3.66211,71 L12.9395,46.5371 L45.7031,46.5371 L54.9316,71 Z M29.1992,3.9102 L29.4434,3.9102 L44.8242,44.291 L13.8184,44.291 L29.1992,3.9102 Z" id="Shape"></path>
                </g>
                <line x1="0" y1="931" x2="2773" y2="931" id="Baseline-L" stroke="#27AAE1" stroke-width="0.577"></line>
                <line x1="0" y1="860.54" x2="2773" y2="860.54" id="Capline-L" stroke="#27AAE1" stroke-width="0.577"></line>
                <rect id="left-margin" fill="#00AEEF" fill-rule="nonzero" opacity="0.4" x="1128.3" y="405.79" width="8.74023" height="119.336"></rect>
                <rect id="right-margin" fill="#00AEEF" fill-rule="nonzero" opacity="0.4" x="1236.65" y="405.79" width="8.74023" height="119.336"></rect>
            </g>
            <g id="Symbols" transform="translate(1399.000000, 1040.000000)" fill="#000000" fill-rule="nonzero">
                <g id="Regular-M" transform="translate(0.300000, 0.000000)">
                    <path d="M50.5449,100.5508 C77.791,100.5508 100.35,77.99219 100.35,50.7461 C100.35,23.5488 77.7422,0.9414 50.4961,0.9414 C23.2988,0.9414 0.74023,23.5488 0.74023,50.7461 C0.74023,77.99219 23.3477,100.5508 50.5449,100.5508 Z M50.1551,92.0078 C27.1082,92.0078 8.7,73.5508 8.7,50.5039 C8.7,27.5058 27.0594,9 50.1063,9 C73.1532,9 91.6102,27.5058 91.6593938,50.5039 C91.7082,73.5508 73.202,92.0078 50.1551,92.0078 Z" id="Shape"></path>
                    <path d="M64.5558622,61.9709596 C64.6404785,62.1022527 64.7166331,62.2970747 64.8520192,62.4368383 C65.1820226,62.7926002 65.558565,63.0890685 65.787029,63.550712 C65.9181842,63.8132981 66.1974179,63.9954144 66.4047277,64.2198832 C66.8912713,64.7492908 67.5174317,64.7069382 68.1393613,64.6772914 C68.5412886,64.6561151 68.9432159,64.6434093 69.3451432,64.5925861 C69.8147635,64.5375278 70.2843838,64.4316462 70.7540041,64.3765878 C71.1474697,64.3342352 71.5451662,64.3511763 71.9386319,64.3045884 C72.3405592,64.2580005 72.6367161,64.4612931 72.911719,64.7069382 C72.979412,64.7704671 72.9582579,64.9398775 72.979412,65.0627001 C72.8524876,65.0627001 72.6917167,65.109288 72.6113312,65.0457591 C72.4040214,64.8890544 72.2178656,64.8001139 71.9555551,64.8848192 C71.8413232,64.9187012 71.7017063,64.8678781 71.5705511,64.8678781 C71.4436267,64.8678781 71.3167023,64.8890544 71.1474697,64.9017602 C71.3420872,65.0584649 71.5070889,65.1601111 71.6340133,65.2998747 C71.6932447,65.3634036 71.6763214,65.5031673 71.6932447,65.6048135 C71.5790127,65.613284 71.4224726,65.6810482 71.3632412,65.6259898 C70.9274674,65.2194048 70.4197698,65.4819909 69.9459187,65.4269326 C69.8866873,65.4226973 69.8189943,65.5285788 69.7470705,65.5836372 L69.9078414,65.7530476 C70.2251524,66.0749275 70.6016948,66.3459842 70.7159268,66.8245687 C70.7413116,66.9177444 70.6736186,67.0363317 70.6524646,67.1422132 C70.5678483,67.0829196 70.4747704,67.0320965 70.3986157,66.9685675 C70.1955367,66.7991571 70.0051501,66.6212761 69.8063018,66.4476304 C69.7936094,66.4349247 69.7682245,66.4391599 69.7555321,66.4264541 C69.4762984,66.2062206 69.2605269,66.2104558 69.0912943,66.5789235 C69.0616787,66.6466877 68.9093694,66.667864 68.8078298,66.6932756 C68.4609031,66.7779808 68.1097456,66.8542155 67.7585881,66.9304502 C67.6824334,66.943156 67.6062788,66.943156 67.5301241,66.9643323 C67.4539695,66.9855086 67.3820457,67.0193907 67.3101218,67.0490375 C67.3566608,67.1210369 67.3947381,67.2099774 67.4539695,67.2608005 C67.602048,67.3666821 67.7966654,67.4217405 67.9108974,67.5572688 C68.1393613,67.8240903 68.3339787,68.1247938 68.5201345,68.4297326 C68.5624427,68.501732 68.5201345,68.6626719 68.4735956,68.7558477 C68.3889793,68.8998465 68.2409008,68.9083171 68.1901311,68.7389066 C68.0166677,68.129029 67.4158922,68.0189123 67.0308881,67.6589151 C66.9039637,67.5403278 66.6078068,67.544563 66.4047277,67.5911509 C66.0197237,67.6758561 65.6431813,67.819855 65.2708697,67.9553833 C64.7716337,68.129029 64.3485523,67.8960897 63.9085477,67.722444 C63.7309139,67.6478208 63.5356246,67.6257726 63.3458495,67.6589151 C62.9650763,67.7436203 62.5885339,67.8876192 62.2162223,68.0189123 C61.7296787,68.192558 61.2431352,68.3746742 60.7608224,68.5694962 C60.5365893,68.6542014 60.363126,68.6118488 60.1896626,68.4551441 C60.0759774,68.3328408 59.9354986,68.2386065 59.7792737,68.1798522 C59.1700365,68.0231475 58.5777226,67.5953862 57.9177157,68.0527943 C57.7611756,68.1671464 57.638482,68.0062065 57.5623274,67.8537371 C57.4861727,67.7055029 57.4861727,67.5742099 57.6511745,67.4979752 C58.1334872,67.2819768 58.6327232,67.1210369 59.1319592,67.4090347 C59.5550406,67.6504446 59.9273522,67.5149162 60.3292794,67.349741 C60.7058219,67.1888011 61.1035183,67.0871548 61.4927532,66.9685675 C61.7973718,66.8711565 62.110452,66.7949218 62.4150705,66.6975108 C62.5843031,66.6424524 62.6266112,66.5281004 62.4785327,66.4010426 C62.2585304,66.2146911 62.0216049,66.0495159 61.8016026,65.871635 C61.4631375,65.6005783 61.1373648,65.3168158 60.7988998,65.0499943 C60.5154352,64.8212902 60.2150475,64.6179977 59.931583,64.3892936 C59.6438877,64.1605895 59.3815772,63.9022386 59.0854203,63.6904756 C58.942859,63.5776837 58.7678134,63.5138288 58.5861843,63.5083593 C57.503096,63.5803588 56.4200077,63.7243577 55.3369194,63.762475 C54.1184451,63.8090629 52.9042016,63.762475 51.715343,63.3940073 C51.2118762,63.2415379 50.7084094,63.0128338 50.1414804,63.1229506 C49.7224017,63.1764169 49.3327129,63.3669993 49.0330072,63.665064 C48.4660782,64.2580005 47.8906876,64.8467018 47.3068353,65.4226973 C46.9895243,65.7403419 46.6383667,66.0283396 46.3125941,66.3375137 C46.0375912,66.6000998 45.7879732,66.8923328 45.5002779,67.1422132 C45.1957009,67.4149569 44.8045252,67.5709916 44.3960355,67.5826804 C44.2394954,67.5911509 44.0194931,67.2650358 43.9306461,67.0320965 C43.7487211,66.570453 43.9856466,66.163868 44.0406472,65.7403419 C44.091417,65.3888152 44.1929565,65.0457591 44.294496,64.7069382 C44.341035,64.5290572 44.2818036,64.4655283 44.1294943,64.4951751 C43.9814158,64.5163515 43.8333373,64.5798804 43.6894897,64.622233 C43.1775612,64.7704671 42.6571712,64.9017602 42.1537044,65.0754059 C41.8466165,65.1859528 41.5517233,65.3278774 41.2736951,65.498932 C40.5036871,65.9648107 39.7379098,66.4391599 38.9805942,66.9177444 C38.8325157,67.0151554 38.7055913,67.154919 38.5744361,67.2819768 C38.2063553,67.641974 37.8467361,68.0189123 37.4659629,68.3746742 C37.1190362,68.7007893 36.7467246,68.9972575 36.3997979,69.3191374 C36.2474886,69.458901 36.1332567,69.6367819 35.9851782,69.7850161 C35.875177,69.8993681 35.7313294,69.9798381 35.6170974,70.0984254 C35.194016,70.5388925 34.7836271,70.9920654 34.3647766,71.4410031 C34.0897737,71.7332361 33.8147708,72.0339396 33.5313063,72.3134669 C33.1928412,72.6438172 32.8247604,72.9402855 32.4905262,73.2748711 C32.266293,73.4993399 32.0885989,73.7703966 31.8685966,74.003336 C31.5259007,74.3675684 31.1535891,74.702154 30.815124,75.074857 C30.4228147,75.5066411 30.04191,75.9486726 29.6728043,76.4004937 C29.317416,76.8324903 28.9958742,77.2898985 28.6320242,77.7134246 C28.3697138,78.0141281 28.0608644,78.2767143 27.7773999,78.5604768 C27.7223993,78.6112999 27.6800911,78.6790641 27.6293214,78.7383577 C27.4177807,78.9585913 27.20624,79.1745896 26.9989302,79.3990584 L26.1443058,80.3858742 C26.0362394,80.5117127 25.9188546,80.6292209 25.7931483,80.7374009 C25.4758373,81.0042223 25.1585263,81.2795143 24.8200612,81.5082184 C24.5452181,81.6962426 24.2500036,81.8525297 23.9400519,81.9740971 C23.8131275,82.0249202 23.5888944,82 23.4873549,81.9105682 C23.3519689,81.7835103 23.3858154,81.5844531 23.4915857,81.4023368 C23.7835118,80.9110466 24.0585147,80.4112858 24.3292868,79.9072897 C24.3631333,79.8479961 24.34621,79.7632909 24.3504409,79.6870562 C24.2658246,79.6955267 24.1600543,79.6743504 24.0881304,79.7124677 C23.8046659,79.8691724 23.529663,80.0512886 23.2419677,80.2122285 C23.1700439,80.2545811 23.076966,80.3054043 22.9965805,80.2969337 C22.895041,80.2884632 22.7511933,80.2545811 22.713116,80.1825817 C22.6750387,80.1105823 22.7258085,79.9454071 22.7892707,79.8776429 C23.0642735,79.5684689 23.3731229,79.2847064 23.6523566,78.9840028 C23.9485136,78.6578878 24.2235165,78.3148316 24.506981,77.9760107 C25.141603,77.2263696 25.776225,76.4809636 26.3981546,75.7228519 C27.2020092,74.7402714 27.9889405,73.7322793 28.8012567,72.7581693 C29.4824177,71.9365286 30.1931944,71.1487701 30.8912786,70.3440705 C31.3939703,69.7734784 31.9016878,69.2073431 32.4143715,68.6457309 C32.6089889,68.4339678 32.8289913,68.2560869 33.0109162,68.0443238 C33.2689959,67.7436203 33.5016906,67.4175052 33.7555394,67.1125664 C34.0051574,66.8203334 34.2716987,66.5450414 34.5255475,66.2528084 C34.8174736,65.9224581 35.126323,65.6090488 35.3886335,65.2532869 C35.807484,64.6984677 36.1840264,64.1097664 36.5859537,63.5380062 C36.9667269,63.000128 37.3644234,62.4707204 37.7451966,61.9328423 C38.0413536,61.5177867 38.3121256,61.0857901 38.6040518,60.6707345 C38.8155925,60.3615605 39.0609796,60.0735627 39.2640587,59.7559181 C39.551754,59.3112157 39.8225261,58.8538076 40.0848365,58.3963994 C40.5290719,57.6171114 40.9606149,56.8335881 41.3963887,56.0543001 C41.7940852,55.3427762 42.2002433,54.6397229 42.5810165,53.9154933 C42.7671723,53.5427903 42.864481,53.1192642 43.0506368,52.742326 C43.3848711,52.07739 43.7571827,51.4378656 44.1083402,50.7814002 C44.2141106,50.5781077 44.2860344,50.3578741 44.3833431,50.1461111 C44.5144983,49.8750544 44.658346,49.6039977 44.7979628,49.332941 C45.1364279,48.668005 45.474893,47.9988338 45.8260505,47.3423683 C45.8979744,47.2110752 46.0291296,47.1136642 46.1052842,46.9866064 C46.223747,46.7748433 46.3041325,46.541904 46.4268261,46.3343762 C46.8499074,45.5974408 47.2856812,44.8732112 47.7129934,44.140511 C48.2333835,43.246871 48.7453119,42.3447604 49.2699328,41.4553556 C49.5110892,41.0445353 49.7776304,40.650656 50.0187868,40.244071 C50.3572519,39.6723107 50.6576396,39.0793742 51.0087972,38.5160845 C51.330339,37.9993827 51.7068814,37.5207982 52.0368849,37.0083316 C52.5022743,36.2883372 52.9507406,35.5556371 53.4034376,34.8229369 C53.7630568,34.2384709 54.1226759,33.6540049 54.4653718,33.0610684 C54.778452,32.5316608 55.0576857,31.9810769 55.3834584,31.4686103 C55.6457688,31.0535547 55.9800031,30.6893223 56.2592368,30.2827372 C56.5300089,29.8930932 56.7880885,29.4907434 57.0165524,29.0714526 C57.3465559,28.461575 57.6469436,27.8347564 57.9600238,27.212173 C58.205411,26.7335885 58.5269529,26.2804156 58.6792622,25.767949 C58.9415726,24.89125 59.5804254,24.2347846 59.8427359,23.3665561 C59.9400446,23.0531468 60.1769702,22.7863253 60.3673568,22.5110334 C60.6719753,22.066331 60.9723631,21.6173933 61.3065974,21.1981025 C61.7169863,20.6771654 62.2077607,20.2621098 62.7746897,19.9148184 C63.1681554,19.6734085 63.5785443,19.4912923 63.993164,19.3218819 C64.12855,19.2668235 64.2850901,19.2668235 64.4289378,19.2371767 C64.9747127,19.1440009 65.5077953,19.0084726 66.0704935,19 C66.6208764,19 67.162914,19.1346813 67.6485869,19.3938813 L68.0843607,19.6056444 C68.8924461,20.0037589 69.7174548,20.3722266 70.5043861,20.8211643 C71.0755459,21.1515146 71.6213209,21.5580997 72.1290185,21.9943315 C72.594408,22.3924461 72.9878736,22.8837363 73.4151858,23.3284387 C73.4661306,23.385158 73.5299875,23.4287426 73.6013416,23.4554966 C74.0751927,23.5994954 74.5532747,23.7180827 75.0186642,23.8705521 C75.5136693,24.0314921 76.0044437,24.2136083 76.4909873,24.404195 C76.6940663,24.4804297 76.8717605,24.6837222 77.1129169,24.4973708 C77.1213785,24.4889002 77.1763791,24.5354881 77.1975331,24.5651349 C77.3117651,24.696428 77.4090738,24.8531327 77.540229,24.9674847 C77.7517697,25.1580715 77.7644622,25.4291282 77.5106133,25.5604213 C76.9733,25.8441837 76.4275251,26.1067699 75.8817501,26.3693561 C75.5771315,26.513355 75.2682822,26.6446481 74.9636636,26.7886469 C74.7775078,26.8733521 74.7351996,27.0342921 74.7690462,27.2333493 C74.7859694,27.3138193 74.8028927,27.3985245 74.7859694,27.4705239 C74.6505834,27.9999316 74.5321206,28.542045 74.3544264,29.0587468 C74.1851939,29.5585076 73.9398067,30.0328568 73.7324968,30.5241471 C73.6950751,30.6067177 73.6749183,30.6960774 73.6732654,30.7867333 C73.6905788,31.0034626 73.6042514,31.21558 73.4405707,31.3584935 C73.3559544,31.4347282 73.3390312,31.5871976 73.3094155,31.7100201 C73.2417225,31.9768416 73.1951835,32.2521336 73.1359521,32.518955 C73.1063364,32.6502481 73.0597975,32.7773059 73.0344126,32.908599 C72.9161313,33.5599912 72.919,34.2276458 73.0428742,34.8779953 C73.1317213,35.3735209 73.2924922,35.8521054 73.410955,36.3391604 C73.4363399,36.4238656 73.4151858,36.5255118 73.4405707,36.6102171 C73.4871096,36.7796275 73.5505718,36.9405674 73.6098032,37.1057426 C73.6267265,37.1523305 73.6521114,37.1989183 73.660573,37.2455062 C73.7578817,37.664797 73.8721137,38.0798526 73.9524991,38.5033787 C74.0371154,38.9438458 74.092116,39.3927835 74.1767323,39.8290154 C74.2613485,40.2991294 74.3882729,40.7607728 74.4644276,41.2308868 C74.4982741,41.4511203 74.4644276,41.6798244 74.4517351,41.9085285 C74.4517351,41.9508811 74.4221194,42.0017043 74.4263503,42.0482921 C74.4432735,42.3235841 74.4940433,42.598876 74.4855816,42.8699327 C74.4813508,43.3527525 74.4475043,43.8398075 74.4136578,44.318392 C74.3882729,44.6741539 74.3713497,45.0299158 74.2994259,45.372972 C74.1555782,46.0336727 73.977884,46.6859029 73.8171131,47.3466036 C73.7663433,47.5498961 73.7324968,47.7531886 73.6817271,47.9522459 C73.5378794,48.473183 73.4024934,48.9941201 73.2417225,49.5023514 C73.0301818,50.1588168 72.8059487,50.8025765 72.4378679,51.395513 C72.1544034,51.8402154 71.98094,52.3569173 71.7524761,52.8355018 C71.6678598,53.017618 71.549397,53.1870284 71.4605499,53.3691446 C71.2490093,53.813847 71.0628535,54.2754905 70.8343895,54.7117224 C70.6059256,55.1479542 70.3393844,55.5630098 70.0813047,55.9823006 C69.869764,56.3211215 69.6624542,56.6726482 69.417067,56.9818222 C69.032063,57.4731125 68.7909066,58.0872253 68.2578241,58.455693 C68.1435921,58.536163 68.0674375,58.6759266 67.9828212,58.7945139 C67.5724323,59.3450978 67.035119,59.7347418 66.5104981,60.1455622 C66.2143411,60.3785015 65.9435691,60.6495582 65.6389505,60.8655565 C65.2581773,61.1281427 64.8393267,61.344141 64.4500919,61.5940214 C64.3908605,61.636374 64.3612448,61.7507261 64.3612448,61.8354313 C64.3612448,61.8735486 64.4670151,61.911666 64.5558622,61.9709596 L64.5558622,61.9709596 Z M64.7966303,67.1364729 C65.050506,67.0961365 65.3082283,67.0679011 65.5659506,67.0154638 C65.6280991,66.9969454 65.6772284,66.9469425 65.696735,66.8823539 C65.7121214,66.8178157 65.6698088,66.6927731 65.639036,66.6201676 C65.4236263,66.1562997 65.1966768,65.7166335 64.992807,65.236631 C64.7466245,64.6557876 64.5312148,64.0305742 64.2850324,63.4618317 C64.1003955,63.0383001 63.873446,62.6833402 63.6772694,62.2759431 C63.5234053,61.957286 63.3310752,61.9169497 63.1772112,62.1428332 C62.9707321,62.4549876 62.7096814,62.7232566 62.4078909,62.9334256 C61.9116794,63.2722509 61.4347008,63.679648 60.8884835,63.5747735 C60.8269378,63.5626726 60.7615456,63.6675471 60.7,63.7199843 C60.7346194,63.8288925 60.7538524,63.9700697 60.8000116,64.0426751 C61.0577339,64.4460386 61.3231494,64.8252002 61.5808717,65.2164628 C61.7770483,65.5149518 61.9693784,65.821508 62.1655551,66.1280642 C62.2232541,66.2208378 62.2924929,66.3015105 62.3463453,66.4104186 C62.5656016,66.8500848 62.7694715,67.3139528 63.0002675,67.7334508 C63.1541316,68.0158052 63.323382,68.1206797 63.5387917,67.8141235 C63.8172965,67.3764936 64.2912867,67.1203518 64.7927837,67.1364729 L64.7966303,67.1364729 Z M64.8970747,72 C65.3743649,71.6250552 65.6745958,71.4275036 65.9632794,71.1533503 C66.686913,70.471999 67.4143957,69.8067742 68.1226328,69.0165679 C68.3458814,68.774668 68.5075443,68.1739499 68.7,67.7344984 C68.4844496,67.1539386 68.295843,66.2306874 68.0379523,66.0734524 C67.7107775,65.8718692 67.2950731,66.1097374 66.9755966,66.4887139 C66.0518091,67.5933901 65.1126251,68.3513432 64.0733641,68.1537916 C63.9578907,68.1296016 63.8231717,68.750478 63.7,69.0730112 L64.8932256,72 L64.8970747,72 Z" id="Shape"></path>
                </g>
            </g>
        </g>
    </g>
</svg>