<?xml version="1.0" encoding="UTF-8"?>
<!--Generator: Apple Native CoreSVG 341-->
<!DOCTYPE svg
PUBLIC "-//W3C//DTD SVG 1.1//EN"
       "http://www.w3.org/Graphics/SVG/1.1/DTD/svg11.dtd">
<svg version="1.1" xmlns="http://www.w3.org/2000/svg" xmlns:xlink="http://www.w3.org/1999/xlink" viewBox="0 0 3300 2200">
 <!--glyph: "", point size: 100.0, font version: "20.0d10e1", template writer version: "138.0.0"-->
 <style>.monochrome-0 {-sfsymbols-motion-group:1;-sfsymbols-layer-tags:38d678ebc8b8bca2}
.monochrome-1 {-sfsymbols-motion-group:0;-sfsymbols-layer-tags:38d678ebc8b8bca2}

.multicolor-0:tintColor {-sfsymbols-motion-group:1;-sfsymbols-layer-tags:38d678ebc8b8bca2}
.multicolor-1:tintColor {-sfsymbols-motion-group:0;-sfsymbols-layer-tags:38d678ebc8b8bca2}

.hierarchical-0:primary {-sfsymbols-motion-group:1;-sfsymbols-layer-tags:38d678ebc8b8bca2}
.hierarchical-1:tertiary {-sfsymbols-motion-group:0;-sfsymbols-layer-tags:38d678ebc8b8bca2}

.SFSymbolsPreviewWireframe {fill:none;opacity:1.0;stroke:black;stroke-width:0.5}
</style>
 <g id="Notes">
  <rect height="2200" id="artboard" style="fill:white;opacity:1" width="3300" x="0" y="0"/>
  <line style="fill:none;stroke:black;opacity:1;stroke-width:0.5;" x1="263" x2="3036" y1="292" y2="292"/>
  <text style="stroke:none;fill:black;font-family:sans-serif;font-size:13;font-weight:bold;" transform="matrix(1 0 0 1 263 322)">Weight/Scale Variations</text>
  <text style="stroke:none;fill:black;font-family:sans-serif;font-size:13;text-anchor:middle;" transform="matrix(1 0 0 1 559.711 322)">Ultralight</text>
  <text style="stroke:none;fill:black;font-family:sans-serif;font-size:13;text-anchor:middle;" transform="matrix(1 0 0 1 856.422 322)">Thin</text>
  <text style="stroke:none;fill:black;font-family:sans-serif;font-size:13;text-anchor:middle;" transform="matrix(1 0 0 1 1153.13 322)">Light</text>
  <text style="stroke:none;fill:black;font-family:sans-serif;font-size:13;text-anchor:middle;" transform="matrix(1 0 0 1 1449.84 322)">Regular</text>
  <text style="stroke:none;fill:black;font-family:sans-serif;font-size:13;text-anchor:middle;" transform="matrix(1 0 0 1 1746.56 322)">Medium</text>
  <text style="stroke:none;fill:black;font-family:sans-serif;font-size:13;text-anchor:middle;" transform="matrix(1 0 0 1 2043.27 322)">Semibold</text>
  <text style="stroke:none;fill:black;font-family:sans-serif;font-size:13;text-anchor:middle;" transform="matrix(1 0 0 1 2339.98 322)">Bold</text>
  <text style="stroke:none;fill:black;font-family:sans-serif;font-size:13;text-anchor:middle;" transform="matrix(1 0 0 1 2636.69 322)">Heavy</text>
  <text style="stroke:none;fill:black;font-family:sans-serif;font-size:13;text-anchor:middle;" transform="matrix(1 0 0 1 2933.4 322)">Black</text>
  <line style="fill:none;stroke:black;opacity:1;stroke-width:0.5;" x1="263" x2="3036" y1="1903" y2="1903"/>
  <g transform="matrix(0.2 0 0 0.2 263 1933)">
   <path d="m46.2402 4.15039c21.7773 0 39.4531-17.627 39.4531-39.4043s-17.6758-39.4043-39.4531-39.4043c-21.7285 0-39.4043 17.627-39.4043 39.4043s17.6758 39.4043 39.4043 39.4043Zm0-7.42188c-17.6758 0-31.9336-14.3066-31.9336-31.9824s14.2578-31.9824 31.9336-31.9824 31.9824 14.3066 31.9824 31.9824-14.3066 31.9824-31.9824 31.9824Zm-17.9688-31.9824c0 2.14844 1.51367 3.61328 3.75977 3.61328h10.498v10.5957c0 2.19727 1.46484 3.71094 3.61328 3.71094 2.24609 0 3.71094-1.51367 3.71094-3.71094v-10.5957h10.5957c2.19727 0 3.71094-1.46484 3.71094-3.61328 0-2.19727-1.51367-3.71094-3.71094-3.71094h-10.5957v-10.5469c0-2.24609-1.46484-3.75977-3.71094-3.75977-2.14844 0-3.61328 1.51367-3.61328 3.75977v10.5469h-10.498c-2.24609 0-3.75977 1.51367-3.75977 3.71094Z"/>
  </g>
  <g transform="matrix(0.2 0 0 0.2 281.506 1933)">
   <path d="m58.5449 14.5508c27.4902 0 49.8047-22.3145 49.8047-49.8047s-22.3145-49.8047-49.8047-49.8047-49.8047 22.3145-49.8047 49.8047 22.3145 49.8047 49.8047 49.8047Zm0-8.30078c-22.9492 0-41.5039-18.5547-41.5039-41.5039s18.5547-41.5039 41.5039-41.5039 41.5039 18.5547 41.5039 41.5039-18.5547 41.5039-41.5039 41.5039Zm-22.6562-41.5039c0 2.39258 1.66016 4.00391 4.15039 4.00391h14.3555v14.4043c0 2.44141 1.66016 4.15039 4.05273 4.15039 2.44141 0 4.15039-1.66016 4.15039-4.15039v-14.4043h14.4043c2.44141 0 4.15039-1.61133 4.15039-4.00391 0-2.44141-1.70898-4.15039-4.15039-4.15039h-14.4043v-14.3555c0-2.49023-1.70898-4.19922-4.15039-4.19922-2.39258 0-4.05273 1.70898-4.05273 4.19922v14.3555h-14.3555c-2.49023 0-4.15039 1.70898-4.15039 4.15039Z"/>
  </g>
  <g transform="matrix(0.2 0 0 0.2 304.924 1933)">
   <path d="m74.8535 28.3203c35.1074 0 63.623-28.4668 63.623-63.5742s-28.5156-63.623-63.623-63.623-63.5742 28.5156-63.5742 63.623 28.4668 63.5742 63.5742 63.5742Zm0-9.08203c-30.127 0-54.4922-24.3652-54.4922-54.4922s24.3652-54.4922 54.4922-54.4922 54.4922 24.3652 54.4922 54.4922-24.3652 54.4922-54.4922 54.4922Zm-28.8574-54.4922c0 2.58789 1.85547 4.39453 4.58984 4.39453h19.7266v19.7754c0 2.68555 1.85547 4.58984 4.44336 4.58984 2.68555 0 4.54102-1.85547 4.54102-4.58984v-19.7754h19.7754c2.68555 0 4.58984-1.80664 4.58984-4.39453 0-2.73438-1.85547-4.58984-4.58984-4.58984h-19.7754v-19.7266c0-2.73438-1.85547-4.63867-4.54102-4.63867-2.58789 0-4.44336 1.9043-4.44336 4.63867v19.7266h-19.7266c-2.73438 0-4.58984 1.85547-4.58984 4.58984Z"/>
  </g>
  <text style="stroke:none;fill:black;font-family:sans-serif;font-size:13;font-weight:bold;" transform="matrix(1 0 0 1 263 1953)">Design Variations</text>
  <text style="stroke:none;fill:black;font-family:sans-serif;font-size:13;" transform="matrix(1 0 0 1 263 1971)">Symbols are supported in up to nine weights and three scales.</text>
  <text style="stroke:none;fill:black;font-family:sans-serif;font-size:13;" transform="matrix(1 0 0 1 263 1989)">For optimal layout with text and other symbols, vertically align</text>
  <text style="stroke:none;fill:black;font-family:sans-serif;font-size:13;" transform="matrix(1 0 0 1 263 2007)">symbols with the adjacent text.</text>
  <line style="fill:none;stroke:#00AEEF;stroke-width:0.5;opacity:1.0;" x1="776" x2="776" y1="1919" y2="1933"/>
  <g transform="matrix(0.2 0 0 0.2 776 1933)">
   <path d="m16.5527 0.78125c2.58789 0 3.85742-0.976562 4.78516-3.71094l6.29883-17.2363h28.8086l6.29883 17.2363c0.927734 2.73438 2.19727 3.71094 4.73633 3.71094 2.58789 0 4.24805-1.5625 4.24805-4.00391 0-0.830078-0.146484-1.61133-0.537109-2.63672l-22.9004-60.9863c-1.12305-2.97852-3.125-4.49219-6.25-4.49219-3.02734 0-5.07812 1.46484-6.15234 4.44336l-22.9004 61.084c-0.390625 1.02539-0.537109 1.80664-0.537109 2.63672 0 2.44141 1.5625 3.95508 4.10156 3.95508Zm13.4766-28.3691 11.8652-32.8613h0.244141l11.8652 32.8613Z"/>
  </g>
  <line style="fill:none;stroke:#00AEEF;stroke-width:0.5;opacity:1.0;" x1="792.836" x2="792.836" y1="1919" y2="1933"/>
  <text style="stroke:none;fill:black;font-family:sans-serif;font-size:13;font-weight:bold;" transform="matrix(1 0 0 1 776 1953)">Margins</text>
  <text style="stroke:none;fill:black;font-family:sans-serif;font-size:13;" transform="matrix(1 0 0 1 776 1971)">Leading and trailing margins on the left and right side of each symbol</text>
  <text style="stroke:none;fill:black;font-family:sans-serif;font-size:13;" transform="matrix(1 0 0 1 776 1989)">can be adjusted by modifying the x-location of the margin guidelines.</text>
  <text style="stroke:none;fill:black;font-family:sans-serif;font-size:13;" transform="matrix(1 0 0 1 776 2007)">Modifications are automatically applied proportionally to all</text>
  <text style="stroke:none;fill:black;font-family:sans-serif;font-size:13;" transform="matrix(1 0 0 1 776 2025)">scales and weights.</text>
  <g transform="matrix(0.2 0 0 0.2 1289 1933)">
   <path d="m14.209 9.32617 8.49609 8.54492c4.29688 4.3457 9.22852 4.05273 13.8672-1.07422l53.4668-58.9355-4.83398-4.88281-53.0762 58.3984c-1.75781 2.00195-3.41797 2.49023-5.76172 0.146484l-5.85938-5.81055c-2.34375-2.29492-1.80664-4.00391 0.195312-5.81055l57.373-54.0039-4.88281-4.83398-57.959 54.4434c-4.93164 4.58984-5.32227 9.47266-1.02539 13.8184Zm32.0801-90.9668c-2.09961 2.05078-2.24609 4.93164-1.07422 6.88477 1.17188 1.80664 3.4668 2.97852 6.68945 2.14844 7.32422-1.70898 14.9414-2.00195 22.0703 2.68555l-2.92969 7.27539c-1.70898 4.15039-0.830078 7.08008 1.85547 9.81445l11.4746 11.5723c2.44141 2.44141 4.49219 2.53906 7.32422 2.05078l5.32227-0.976562 3.32031 3.36914-0.195312 2.7832c-0.195312 2.49023 0.439453 4.39453 2.88086 6.78711l3.80859 3.71094c2.39258 2.39258 5.46875 2.53906 7.8125 0.195312l14.5508-14.5996c2.34375-2.34375 2.24609-5.32227-0.146484-7.71484l-3.85742-3.80859c-2.39258-2.39258-4.24805-3.17383-6.64062-2.97852l-2.88086 0.244141-3.22266-3.17383 1.2207-5.61523c0.634766-2.83203-0.146484-5.0293-3.07617-7.95898l-10.9863-10.9375c-16.6992-16.6016-38.8672-16.2109-53.3203-1.75781Zm7.4707 1.85547c12.1582-8.88672 28.6133-7.37305 39.7461 3.75977l12.1582 12.0605c1.17188 1.17188 1.36719 2.09961 1.02539 3.80859l-1.61133 7.42188 7.51953 7.42188 4.93164-0.292969c1.26953-0.0488281 1.66016 0.0488281 2.63672 1.02539l2.88086 2.88086-12.207 12.207-2.88086-2.88086c-0.976562-0.976562-1.12305-1.36719-1.07422-2.68555l0.341797-4.88281-7.4707-7.42188-7.61719 1.26953c-1.61133 0.341797-2.34375 0.195312-3.56445-0.976562l-10.0098-10.0098c-1.26953-1.17188-1.41602-2.00195-0.634766-3.85742l4.39453-10.4492c-7.8125-7.27539-17.9688-10.4004-28.125-7.42188-0.78125 0.195312-1.07422-0.439453-0.439453-0.976562Z"/>
  </g>
  <text style="stroke:none;fill:black;font-family:sans-serif;font-size:13;font-weight:bold;" transform="matrix(1 0 0 1 1289 1953)">Exporting</text>
  <text style="stroke:none;fill:black;font-family:sans-serif;font-size:13;" transform="matrix(1 0 0 1 1289 1971)">Symbols should be outlined when exporting to ensure the</text>
  <text style="stroke:none;fill:black;font-family:sans-serif;font-size:13;" transform="matrix(1 0 0 1 1289 1989)">design is preserved when submitting to Xcode.</text>
  <text id="template-version" style="stroke:none;fill:black;font-family:sans-serif;font-size:13;text-anchor:end;" transform="matrix(1 0 0 1 3036 1933)">Template v.6.0</text>
  <text style="stroke:none;fill:black;font-family:sans-serif;font-size:13;text-anchor:end;" transform="matrix(1 0 0 1 3036 1951)">Requires Xcode 16 or greater</text>
  <text id="descriptive-name" style="stroke:none;fill:black;font-family:sans-serif;font-size:13;text-anchor:end;" transform="matrix(1 0 0 1 3036 1969)">Generated from filtervogelgruppe-42</text>
  <text style="stroke:none;fill:black;font-family:sans-serif;font-size:13;text-anchor:end;" transform="matrix(1 0 0 1 3036 1987)">Typeset at 100.0 points</text>
  <text style="stroke:none;fill:black;font-family:sans-serif;font-size:13;" transform="matrix(1 0 0 1 263 726)">Small</text>
  <text style="stroke:none;fill:black;font-family:sans-serif;font-size:13;" transform="matrix(1 0 0 1 263 1156)">Medium</text>
  <text style="stroke:none;fill:black;font-family:sans-serif;font-size:13;" transform="matrix(1 0 0 1 263 1586)">Large</text>
 </g>
 <g id="Guides">
  <g id="H-reference" style="fill:#27AAE1;stroke:none;" transform="matrix(1 0 0 1 339 696)">
   <path d="M0.993654 0L3.63775 0L29.3281-67.1323L30.0303-67.1323L30.0303-70.459L28.1226-70.459ZM11.6885-24.4799L46.9815-24.4799L46.2315-26.7285L12.4385-26.7285ZM55.1196 0L57.7637 0L30.6382-70.459L29.4326-70.459L29.4326-67.1323Z"/>
  </g>
  <line id="Baseline-S" style="fill:none;stroke:#27AAE1;opacity:1;stroke-width:0.5;" x1="263" x2="3036" y1="696" y2="696"/>
  <line id="Capline-S" style="fill:none;stroke:#27AAE1;opacity:1;stroke-width:0.5;" x1="263" x2="3036" y1="625.541" y2="625.541"/>
  <g id="H-reference" style="fill:#27AAE1;stroke:none;" transform="matrix(1 0 0 1 339 1126)">
   <path d="M0.993654 0L3.63775 0L29.3281-67.1323L30.0303-67.1323L30.0303-70.459L28.1226-70.459ZM11.6885-24.4799L46.9815-24.4799L46.2315-26.7285L12.4385-26.7285ZM55.1196 0L57.7637 0L30.6382-70.459L29.4326-70.459L29.4326-67.1323Z"/>
  </g>
  <line id="Baseline-M" style="fill:none;stroke:#27AAE1;opacity:1;stroke-width:0.5;" x1="263" x2="3036" y1="1126" y2="1126"/>
  <line id="Capline-M" style="fill:none;stroke:#27AAE1;opacity:1;stroke-width:0.5;" x1="263" x2="3036" y1="1055.54" y2="1055.54"/>
  <g id="H-reference" style="fill:#27AAE1;stroke:none;" transform="matrix(1 0 0 1 339 1556)">
   <path d="M0.993654 0L3.63775 0L29.3281-67.1323L30.0303-67.1323L30.0303-70.459L28.1226-70.459ZM11.6885-24.4799L46.9815-24.4799L46.2315-26.7285L12.4385-26.7285ZM55.1196 0L57.7637 0L30.6382-70.459L29.4326-70.459L29.4326-67.1323Z"/>
  </g>
  <line id="Baseline-L" style="fill:none;stroke:#27AAE1;opacity:1;stroke-width:0.5;" x1="263" x2="3036" y1="1556" y2="1556"/>
  <line id="Capline-L" style="fill:none;stroke:#27AAE1;opacity:1;stroke-width:0.5;" x1="263" x2="3036" y1="1485.54" y2="1485.54"/>
  <line id="right-margin-Black-S" style="fill:none;stroke:#00AEEF;stroke-width:0.5;opacity:1.0;" x1="2982.23" x2="2982.23" y1="600.785" y2="720.121"/>
  <line id="left-margin-Black-S" style="fill:none;stroke:#00AEEF;stroke-width:0.5;opacity:1.0;" x1="2884.57" x2="2884.57" y1="600.785" y2="720.121"/>
  <line id="right-margin-Regular-S" style="fill:none;stroke:#00AEEF;stroke-width:0.5;opacity:1.0;" x1="1496.11" x2="1496.11" y1="600.785" y2="720.121"/>
  <line id="left-margin-Regular-S" style="fill:none;stroke:#00AEEF;stroke-width:0.5;opacity:1.0;" x1="1403.58" x2="1403.58" y1="600.785" y2="720.121"/>
  <line id="right-margin-Ultralight-S" style="fill:none;stroke:#00AEEF;stroke-width:0.5;opacity:1.0;" x1="603.773" x2="603.773" y1="600.785" y2="720.121"/>
  <line id="left-margin-Ultralight-S" style="fill:none;stroke:#00AEEF;stroke-width:0.5;opacity:1.0;" x1="515.649" x2="515.649" y1="600.785" y2="720.121"/>
 </g>
 <g id="Symbols">
  <g id="Black-S" transform="matrix(1 0 0 1 2884.57 696)">
   <path class="monochrome-0 multicolor-0:tintColor hierarchical-0:primary SFSymbolsPreviewWireframe" d="M25.2761-55.2381C25.2597-55.1147 25.7086-55.0084 26.9809-54.861C28.2567-54.7067 28.7967-54.5833 29.4447-53.469C30.0893-52.3581 30.7271-50.8359 30.96-50.1879C31.1962-49.5399 30.8891-47.5342 30.771-45.0109C30.6495-42.4942 30.5482-41.3182 31.2435-39.46C31.9353-37.6018 32.2087-37.7593 32.661-35.9287C33.1166-34.0942 33.9097-32.3011 34.2708-31.8865C34.6319-31.4749 34.9593-31.3996 35.0301-31.132L35.1246-30.7516L35.1246-31.1287C35.1246-31.1287 35.3103-31.108 35.5971-30.3745C35.884-29.6338 36.262-29.1091 36.262-29.1091L36.3565-29.236C36.3565-29.236 36.9505-28.6051 37.3015-28.4818C37.6525-28.3549 37.9123-28.2487 38.0608-27.9745C38.2059-27.7 38.8573-27.0487 39.0058-26.9629C39.1577-26.8774 39.7686-26.5687 40.0487-26.2087C40.3254-25.8454 40.4673-25.9654 40.8048-25.9549C41.1423-25.9447 41.9286-25.1596 42.3201-25.0705C42.7116-24.9847 42.7959-24.9778 42.9816-24.9436C43.1706-24.9127 43.6296-24.1789 43.7409-23.6818C43.8489-23.1847 43.6497-22.8934 43.6464-22.4203C43.6395-21.9469 43.9029-21.3229 43.7409-20.6545L42.3201-14.9734C42.3201-14.9734 41.4966-15.0214 41.1828-14.9734C40.8687-14.9254 40.5447-14.7847 40.3323-14.8465C40.1475-14.9068 39.9576-14.9491 39.7652-14.9734C39.6369-14.9803 39.4952-15.0592 39.1003-14.7232C38.7054-14.3803 38.6278-14.0923 38.6278-14.0923C38.6278-14.0923 38.5198-13.9381 38.1553-14.0923C37.7875-14.2432 37.585-14.0923 37.585-14.0923C37.585-14.0923 37.1834-14.3836 36.7345-13.9654C36.2823-13.5472 36.1675-13.2076 36.1675-13.2076C36.1675-13.2076 36.3059-13.4443 36.64-13.5847C36.9741-13.7287 37.396-13.7116 37.396-13.7116C37.396-13.7116 37.3453-13.4236 37.6795-13.081C38.0169-12.7381 38.3443-13.081 38.3443-13.081L38.9113-13.081C38.9113-13.081 38.5333-12.7174 38.3443-12.3265C38.1519-11.9323 38.2498-11.6923 38.2498-11.6923C38.2498-11.6923 38.3612-11.9461 38.6278-12.0694C38.7453-12.1345 38.8734-12.1774 39.0058-12.1963C39.0058-12.1963 39.0699-12.1276 39.3838-12.073C39.7011-12.0145 39.9812-12.4945 40.3287-12.4501C40.6833-12.4054 40.5852-12.3985 40.9026-12.4501C41.2164-12.5014 41.4966-12.6214 41.9421-12.577C42.3876-12.5323 42.9747-12.4843 43.0761-12.7036L43.3629-13.3345L43.7409-13.3345C43.7409-13.3345 44.0649-12.7756 44.2134-12.7036C44.3619-12.6283 44.4969-12.577 44.4969-12.577C44.4969-12.577 44.5206-12.4636 44.5914-12.3232C44.6655-12.1825 44.7735-12.4876 44.6859-12.8272C44.6016-13.1701 44.3079-13.4581 44.3079-13.4581C44.3079-13.4581 44.5947-13.8112 44.6859-13.9654C44.7771-14.1196 44.9322-14.0887 45.0639-13.9654C45.1989-13.8385 45.138-13.5541 45.4452-13.4581C45.7491-13.3654 45.7287-13.081 45.7287-13.081C45.7287-13.081 45.7761-13.7836 45.6342-13.9654C45.489-14.1472 45.2394-14.0545 45.1617-14.4694C45.0807-14.8843 44.7804-15.1003 44.7804-15.1003C44.7804-15.1003 44.5881-16.2145 44.9694-18.7618C45.354-21.3058 45.6714-23.1265 45.7287-23.6818C45.7827-24.2407 45.4014-24.6865 45.4452-24.8203C45.4857-24.9538 46.3734-24.7207 47.055-24.8203C47.7333-24.916 47.8449-25.2385 48.8538-25.1974C49.8597-25.1596 50.4603-25.2454 51.7902-25.9549C53.1132-26.6647 53.2209-27.268 53.5854-27.8476C53.9499-28.4305 55.0503-28.8487 56.3328-29.3629C57.6153-29.8771 59.3364-30.4705 60.4974-30.6247C61.6617-30.7789 62.6877-30.6898 65.9883-30.3709C69.2925-30.0556 70.0383-30.148 71.8608-29.8669C73.6764-29.5891 74.3313-29.4349 74.6958-29.4898C75.0669-29.5447 75.0771-29.4898 75.0771-29.4898C75.0771-29.4898 74.8206-29.6785 74.1321-29.8669C73.4403-30.0556 71.4321-30.5185 71.385-30.6247C71.3376-30.7345 74.7768-30.2407 74.8881-30.2476C74.9994-30.2509 74.5707-30.5116 73.4706-30.7516C72.3669-30.9916 70.4838-31.4785 69.8697-31.7596C69.2553-32.044 69.3027-32.0131 69.3027-32.0131C69.3027-32.0131 74.0274-32.3116 75.6474-32.2669C77.2605-32.2189 78.5331-32.5582 78.7692-32.644C79.0056-32.7298 79.2822-32.9836 78.2022-33.2749C77.1222-33.5698 75.2661-33.9058 75.2661-33.9058C75.2661-33.9058 75.2322-34.0087 75.3606-34.0327C75.4887-34.0567 76.5822-34.5742 77.9187-35.1676C79.2552-35.764 79.542-35.8978 79.0527-36.052C78.5667-36.2062 77.8716-36.3607 75.8364-36.052C73.8012-35.7436 72.5223-35.1811 69.4917-35.1676C66.4608-35.1571 64.7565-35.7982 64.7565-35.7982C64.7565-35.7982 63.528-36.0142 61.4457-36.9367C59.3601-37.8589 58.2903-38.4109 57.1833-38.8291C56.0796-39.244 53.8083-40.9138 52.5462-42.2371C51.2805-43.5604 51.0477-43.78 50.3658-44.1295C49.6875-44.476 49.4208-44.8873 49.4208-44.8873C49.4208-44.8873 49.8933-45.0931 49.2318-45.5182C48.5703-45.9433 45.597-47.2633 44.3079-48.0416C43.0185-48.8233 42.8466-49.1319 41.7531-50.0644C40.6563-50.9902 40.0655-51.309 39.8597-51.7033C39.6405-52.1798 39.5111-52.6938 39.4783-53.2187C39.4142-53.8358 38.9214-55.4575 38.4388-56.373C37.9528-57.2884 37.0956-58.4438 35.8806-59.1501C34.669-59.8529 33.5519-59.9352 31.905-59.0232C30.2614-58.1146 29.421-56.6747 28.9688-56.6232C28.5199-56.5752 27.4231-56.7672 26.792-56.6232C26.1609-56.4861 25.334-55.5741 25.2761-55.2381L25.2761-55.2381Z"/>
   <path class="monochrome-1 multicolor-1:tintColor hierarchical-1:tertiary SFSymbolsPreviewWireframe" d="M48.9411-84C55.3091-84.0013 61.615-82.7479 67.4985-80.3116C73.382-77.8752 78.7279-74.3036 83.2305-69.8009C87.7334-65.2983 91.305-59.9524 93.7418-54.0682C96.1779-48.1846 97.4312-41.8789 97.43-35.5124C97.43-8.72255 75.7254 13 48.9424 13C22.156 13 0.43-8.726 0.43-35.5124C0.43-62.2926 22.1539-84 48.9411-84ZM48.9424-70C29.8835-70 14.43-54.5582 14.43-35.5124C14.43-16.458 29.888-0.999999 48.9424-0.999999C67.9909-0.999999 83.43-16.4519 83.43-35.5138C83.4309-40.0428 82.5395-44.5276 80.8069-48.7121C79.0739-52.8969 76.5337-56.6989 73.3311-59.9013C70.1287-63.1038 66.3266-65.644 62.1422-67.3767C57.9578-69.1095 53.4729-70.0009 48.9424-70Z"/>
  </g>
  <g id="Regular-S" transform="matrix(1 0 0 1 1403.58 696)">
   <path class="monochrome-0 multicolor-0:tintColor hierarchical-0:primary SFSymbolsPreviewWireframe" d="M17.42-58.7463C17.4007-58.6007 17.9301-58.4753 19.4308-58.3014C20.9355-58.1195 21.5724-57.9739 22.3367-56.6596C23.097-55.3494 23.8494-53.5539 24.124-52.7896C24.4027-52.0253 24.0405-49.6596 23.9011-46.6834C23.7578-43.715 23.6384-42.3279 24.4584-40.1362C25.2745-37.9445 25.5969-38.1303 26.1303-35.9711C26.6677-33.8073 27.6032-31.6924 28.0291-31.2034C28.455-30.7179 28.8412-30.6291 28.9248-30.3135L29.0362-29.8648L29.0362-30.3096C29.0362-30.3096 29.2551-30.2851 29.5935-29.42C29.9319-28.5463 30.3777-27.9275 30.3777-27.9275L30.4892-28.0771C30.4892-28.0771 31.1898-27.333 31.6038-27.1876C32.0178-27.0379 32.3243-26.9126 32.4994-26.5892C32.6706-26.2655 33.4388-25.4973 33.614-25.3961C33.7931-25.2952 34.5136-24.9311 34.844-24.5065C35.1704-24.078 35.3378-24.2195 35.7358-24.2071C36.1339-24.1951 37.0613-23.2691 37.5231-23.164C37.9849-23.0628 38.0843-23.0547 38.3033-23.0143C38.5263-22.9779 39.0676-22.1124 39.1989-21.526C39.3263-20.9397 39.0914-20.5961 39.0875-20.0381C39.0793-19.4797 39.39-18.7437 39.1989-17.9554L37.5231-11.2546C37.5231-11.2546 36.5518-11.3112 36.1817-11.2546C35.8112-11.198 35.429-11.032 35.1785-11.1049C34.9606-11.176 34.7367-11.2259 34.5096-11.2546C34.3584-11.2627 34.1912-11.3558 33.7255-10.9595C33.2597-10.555 33.1682-10.2153 33.1682-10.2153C33.1682-10.2153 33.0408-10.0335 32.6109-10.2153C32.177-10.3933 31.9381-10.2153 31.9381-10.2153C31.9381-10.2153 31.4644-10.5589 30.935-10.0657C30.4016-9.57241 30.2663-9.17186 30.2663-9.17186C30.2663-9.17186 30.4294-9.45104 30.8235-9.61664C31.2176-9.78649 31.7152-9.76632 31.7152-9.76632C31.7152-9.76632 31.6555-9.42663 32.0496-9.02253C32.4476-8.61809 32.8338-9.02253 32.8338-9.02253L33.5025-9.02253C33.5025-9.02253 33.0567-8.59367 32.8338-8.13261C32.6069-7.66766 32.7223-7.38458 32.7223-7.38458C32.7223-7.38458 32.8537-7.68393 33.1682-7.82936C33.3067-7.90615 33.4578-7.95675 33.614-7.97904C33.614-7.97904 33.6896-7.89801 34.0598-7.83361C34.434-7.76461 34.7644-8.33076 35.1743-8.27839C35.5925-8.22567 35.4768-8.21753 35.8512-8.27839C36.2213-8.3389 36.5518-8.48044 37.0773-8.42807C37.6027-8.37535 38.2952-8.31873 38.4148-8.5774L38.7531-9.32153L39.1989-9.32153C39.1989-9.32153 39.5811-8.66232 39.7562-8.5774C39.9314-8.48858 40.0906-8.42807 40.0906-8.42807C40.0906-8.42807 40.1186-8.29432 40.2021-8.12872C40.2895-7.96276 40.4169-8.32263 40.3135-8.72318C40.2141-9.12763 39.8677-9.46732 39.8677-9.46732C39.8677-9.46732 40.206-9.8838 40.3135-10.0657C40.4211-10.2475 40.604-10.2111 40.7594-10.0657C40.9186-9.916 40.8468-9.58055 41.2091-9.46732C41.5676-9.35798 41.5435-9.02253 41.5435-9.02253C41.5435-9.02253 41.5994-9.85124 41.432-10.0657C41.2608-10.2801 40.9664-10.1708 40.8747-10.6601C40.7792-11.1495 40.425-11.4043 40.425-11.4043C40.425-11.4043 40.1982-12.7185 40.6479-15.723C41.1016-18.7236 41.4759-20.8711 41.5435-21.526C41.6072-22.1853 41.1575-22.7111 41.2091-22.8689C41.2569-23.0263 42.3039-22.7514 43.1079-22.8689C43.9079-22.9818 44.0395-23.3621 45.2295-23.3137C46.416-23.2691 47.1244-23.3703 48.693-24.2071C50.2534-25.0443 50.3805-25.7559 50.8104-26.4395C51.2403-27.1271 52.5382-27.6203 54.0509-28.2268C55.5636-28.8333 57.5936-29.5332 58.963-29.7151C60.3363-29.897 61.5464-29.7919 65.4394-29.4157C69.3367-29.0439 70.2164-29.1528 72.366-28.8213C74.5075-28.4936 75.2799-28.3117 75.7098-28.3765C76.1475-28.4413 76.1596-28.3765 76.1596-28.3765C76.1596-28.3765 75.857-28.5991 75.045-28.8213C74.229-29.0439 71.8603-29.5898 71.8048-29.7151C71.7489-29.8446 75.8054-29.2622 75.9366-29.2703C76.0679-29.2742 75.5623-29.5817 74.2647-29.8648C72.9629-30.1479 70.7418-30.7221 70.0175-31.0537C69.2928-31.3891 69.3487-31.3527 69.3487-31.3527C69.3487-31.3527 74.9215-31.7048 76.8322-31.6521C78.7349-31.5954 80.2359-31.9956 80.5144-32.0968C80.7932-32.198 81.1194-32.4974 79.8456-32.841C78.5717-33.1888 76.3825-33.5851 76.3825-33.5851C76.3825-33.5851 76.3425-33.7065 76.494-33.7348C76.645-33.7631 77.9348-34.3735 79.5112-35.0734C81.0876-35.7768 81.4259-35.9347 80.8487-36.1165C80.2755-36.2984 79.4556-36.4806 77.0552-36.1165C74.6547-35.7528 73.1462-35.0893 69.5717-35.0734C65.9968-35.061 63.9866-35.8172 63.9866-35.8172C63.9866-35.8172 62.5376-36.0719 60.0815-37.16C57.6216-38.2477 56.3598-38.8988 55.0541-39.3921C53.7523-39.8815 51.0733-41.851 49.5847-43.4118C48.0918-44.9726 47.8172-45.2316 47.0129-45.6438C46.2129-46.0525 45.8983-46.5377 45.8983-46.5377C45.8983-46.5377 46.4556-46.7804 45.6754-47.2818C44.8951-47.7832 41.3882-49.3401 39.8677-50.2581C38.3469-51.1801 38.1441-51.5441 36.8543-52.644C35.5607-53.7359 34.8639-54.1119 34.6211-54.577C34.3626-55.1391 34.21-55.7453 34.1713-56.3644C34.0956-57.0923 33.5145-59.0051 32.9453-60.0848C32.372-61.1645 31.3609-62.5273 29.9279-63.3604C28.4988-64.1894 27.1812-64.2864 25.2386-63.2107C23.3-62.1391 22.3089-60.4407 21.7755-60.38C21.246-60.3234 19.9523-60.5499 19.2079-60.38C18.4635-60.2183 17.4883-59.1426 17.42-58.7463L17.42-58.7463Z"/>
   <path class="monochrome-1 multicolor-1:tintColor hierarchical-1:tertiary SFSymbolsPreviewWireframe" d="M46.4321-81.8365C52.4502-81.8377 58.4096-80.6532 63.9698-78.3508C69.53-76.0483 74.5822-72.6729 78.8374-68.4176C83.0928-64.1624 86.4682-59.1103 88.771-53.5496C91.0733-47.9892 92.2577-42.03 92.2566-36.0127C92.2566-10.693 71.744 9.83658 46.4328 9.83658C21.1173 9.83658 0.5835-10.6972 0.5835-36.0127C0.5835-61.3211 21.1145-81.8365 46.4321-81.8365ZM46.4328-75.0865C24.8413-75.0865 7.3335-57.592 7.3335-36.0127C7.3335-14.4252 24.8452 3.08658 46.4328 3.08658C68.0148 3.08658 85.5066-14.4197 85.5066-36.0133C85.5076-41.1447 84.4976-46.226 82.5345-50.9672C80.571-55.7085 77.693-60.0162 74.0644-63.6446C70.4361-67.273 66.1283-70.1511 61.3873-72.1143C56.6463-74.0776 51.5649-75.0875 46.4328-75.0865Z"/>
  </g>
  <g id="Ultralight-S" transform="matrix(1 0 0 1 515.649 696)">
   <path class="monochrome-0 multicolor-0:tintColor hierarchical-0:primary SFSymbolsPreviewWireframe" d="M18.351-59.7463C18.3317-59.6007 18.8611-59.4753 20.3618-59.3014C21.8665-59.1195 22.5034-58.9739 23.2677-57.6596C24.028-56.3494 24.7804-54.5539 25.055-53.7896C25.3337-53.0253 24.9715-50.6596 24.8321-47.6834C24.6888-44.715 24.5694-43.3279 25.3894-41.1362C26.2055-38.9445 26.5279-39.1303 27.0613-36.9711C27.5987-34.8073 28.5342-32.6924 28.9601-32.2034C29.386-31.7179 29.7722-31.6291 29.8558-31.3135L29.9672-30.8648L29.9672-31.3096C29.9672-31.3096 30.1861-31.2851 30.5245-30.42C30.8629-29.5463 31.3087-28.9275 31.3087-28.9275L31.4202-29.0771C31.4202-29.0771 32.1208-28.333 32.5348-28.1876C32.9488-28.0379 33.2553-27.9126 33.4304-27.5892C33.6016-27.2655 34.3698-26.4973 34.545-26.3961C34.7241-26.2952 35.4446-25.9311 35.775-25.5065C36.1014-25.078 36.2688-25.2195 36.6668-25.2071C37.0649-25.1951 37.9923-24.2691 38.4541-24.164C38.9159-24.0628 39.0153-24.0547 39.2343-24.0143C39.4573-23.9779 39.9986-23.1124 40.1299-22.526C40.2573-21.9397 40.0224-21.5961 40.0185-21.0381C40.0103-20.4797 40.321-19.7437 40.1299-18.9554L38.4541-12.2546C38.4541-12.2546 37.4828-12.3112 37.1127-12.2546C36.7422-12.198 36.36-12.032 36.1095-12.1049C35.8916-12.176 35.6677-12.2259 35.4406-12.2546C35.2894-12.2627 35.1222-12.3558 34.6565-11.9595C34.1907-11.555 34.0992-11.2153 34.0992-11.2153C34.0992-11.2153 33.9718-11.0335 33.5419-11.2153C33.108-11.3933 32.8691-11.2153 32.8691-11.2153C32.8691-11.2153 32.3954-11.5589 31.866-11.0657C31.3326-10.5724 31.1973-10.1719 31.1973-10.1719C31.1973-10.1719 31.3604-10.451 31.7545-10.6166C32.1486-10.7865 32.6462-10.7663 32.6462-10.7663C32.6462-10.7663 32.5865-10.4266 32.9806-10.0225C33.3786-9.61809 33.7648-10.0225 33.7648-10.0225L34.4335-10.0225C34.4335-10.0225 33.9877-9.59367 33.7648-9.13261C33.5379-8.66766 33.6533-8.38458 33.6533-8.38458C33.6533-8.38458 33.7847-8.68393 34.0992-8.82936C34.2377-8.90615 34.3888-8.95675 34.545-8.97904C34.545-8.97904 34.6206-8.89801 34.9908-8.83361C35.365-8.76461 35.6954-9.33076 36.1053-9.2784C36.5235-9.22567 36.4078-9.21753 36.7822-9.2784C37.1523-9.3389 37.4828-9.48044 38.0083-9.42807C38.5337-9.37535 39.2262-9.31873 39.3458-9.5774L39.6841-10.3215L40.1299-10.3215C40.1299-10.3215 40.5121-9.66232 40.6872-9.5774C40.8624-9.48858 41.0216-9.42807 41.0216-9.42807C41.0216-9.42807 41.0496-9.29432 41.1331-9.12872C41.2205-8.96276 41.3479-9.32263 41.2445-9.72318C41.1451-10.1276 40.7987-10.4673 40.7987-10.4673C40.7987-10.4673 41.137-10.8838 41.2445-11.0657C41.3521-11.2475 41.535-11.2111 41.6904-11.0657C41.8496-10.916 41.7778-10.5805 42.1401-10.4673C42.4986-10.358 42.4745-10.0225 42.4745-10.0225C42.4745-10.0225 42.5304-10.8512 42.363-11.0657C42.1918-11.2801 41.8974-11.1708 41.8057-11.6601C41.7102-12.1495 41.356-12.4043 41.356-12.4043C41.356-12.4043 41.1292-13.7185 41.5789-16.723C42.0326-19.7236 42.4069-21.8711 42.4745-22.526C42.5382-23.1853 42.0885-23.7111 42.1401-23.8689C42.1879-24.0263 43.2349-23.7514 44.0389-23.8689C44.8389-23.9818 44.9705-24.3621 46.1605-24.3137C47.347-24.2691 48.0554-24.3703 49.624-25.2071C51.1844-26.0443 51.3115-26.7559 51.7414-27.4395C52.1713-28.1271 53.4692-28.6203 54.9819-29.2268C56.4946-29.8333 58.5246-30.5332 59.894-30.7151C61.2673-30.897 62.4774-30.7919 66.3704-30.4157C70.2677-30.0439 71.1474-30.1528 73.297-29.8213C75.4385-29.4936 76.2109-29.3117 76.6408-29.3765C77.0785-29.4413 77.0906-29.3765 77.0906-29.3765C77.0906-29.3765 76.788-29.5991 75.976-29.8213C75.16-30.0439 72.7913-30.5898 72.7358-30.7151C72.6799-30.8446 76.7364-30.2622 76.8676-30.2703C76.9989-30.2742 76.4933-30.5817 75.1957-30.8648C73.8939-31.1479 71.6728-31.7221 70.9485-32.0537C70.2238-32.3891 70.2797-32.3527 70.2797-32.3527C70.2797-32.3527 75.8525-32.7048 77.7632-32.6521C79.6659-32.5954 81.1669-32.9956 81.4454-33.0968C81.7242-33.198 82.0504-33.4974 80.7766-33.841C79.5027-34.1888 77.3135-34.5851 77.3135-34.5851C77.3135-34.5851 77.2735-34.7065 77.425-34.7348C77.576-34.7631 78.8658-35.3735 80.4422-36.0734C82.0186-36.7768 82.3569-36.9347 81.7797-37.1165C81.2065-37.2984 80.3866-37.4806 77.9862-37.1165C75.5857-36.7528 74.0772-36.0893 70.5027-36.0734C66.9278-36.061 64.9176-36.8172 64.9176-36.8172C64.9176-36.8172 63.4686-37.0719 61.0125-38.16C58.5526-39.2477 57.2908-39.8988 55.9851-40.3921C54.6833-40.8815 52.0043-42.851 50.5157-44.4118C49.0228-45.9726 48.7482-46.2316 47.9439-46.6438C47.1439-47.0525 46.8293-47.5377 46.8293-47.5377C46.8293-47.5377 47.3866-47.7804 46.6064-48.2818C45.8261-48.7832 42.3192-50.3401 40.7987-51.2581C39.2779-52.1801 39.0751-52.5441 37.7853-53.644C36.4917-54.7359 35.7949-55.1119 35.5521-55.577C35.2936-56.1391 35.141-56.7453 35.1023-57.3644C35.0266-58.0923 34.4455-60.0051 33.8763-61.0848C33.303-62.1645 32.2919-63.5273 30.8589-64.3604C29.4298-65.1894 28.1122-65.2864 26.1696-64.2107C24.231-63.1391 23.2399-61.4407 22.7065-61.38C22.177-61.3234 20.8833-61.5499 20.1389-61.38C19.3945-61.2183 18.4193-60.1426 18.351-59.7463L18.351-59.7463Z"/>
   <path class="monochrome-1 multicolor-1:tintColor hierarchical-1:tertiary SFSymbolsPreviewWireframe" d="M44.3636-80.5865C50.0861-80.5876 55.7528-79.4613 61.04-77.272C66.3271-75.0826 71.1312-71.8729 75.1774-67.8265C79.2239-63.7803 82.4335-58.9764 84.6232-53.6889C86.8124-48.4015 87.9387-42.7349 87.9376-37.0127C87.9376-12.9352 68.432 6.58658 44.3638 6.58658C20.2909 6.58658 0.7645-12.9399 0.7645-37.0127C0.7645-61.0781 20.2877-80.5865 44.3636-80.5865ZM44.3638-78.3365C21.53-78.3365 3.0145-59.8351 3.0145-37.0127C3.0145-14.1825 21.5336 4.33658 44.3638 4.33658C67.1889 4.33658 85.6876-14.1774 85.6876-37.0129C85.6886-42.4398 84.6205-47.8138 82.5443-52.828C80.4678-57.8425 77.4239-62.3983 73.5865-66.2355C69.7491-70.073 65.1932-73.1168 60.1791-75.1931C55.1651-77.2695 49.791-78.3376 44.3638-78.3365Z"/>
  </g>
 </g>
</svg>
