<?xml version="1.0" encoding="UTF-8"?>
<!--Generator: Apple Native CoreSVG 341-->
<!DOCTYPE svg
PUBLIC "-//W3C//DTD SVG 1.1//EN"
       "http://www.w3.org/Graphics/SVG/1.1/DTD/svg11.dtd">
<svg version="1.1" xmlns="http://www.w3.org/2000/svg" xmlns:xlink="http://www.w3.org/1999/xlink" viewBox="0 0 3300 2200">
 <!--glyph: "", point size: 100.0, font version: "20.0d10e1", template writer version: "138.0.0"-->
 <style>.monochrome-0 {-sfsymbols-motion-group:1;-sfsymbols-layer-tags:7fdf9543615ab8a0}
.monochrome-1 {-sfsymbols-motion-group:0;-sfsymbols-layer-tags:7fdf9543615ab8a0}

.multicolor-0:tintColor {-sfsymbols-motion-group:1;-sfsymbols-layer-tags:7fdf9543615ab8a0}
.multicolor-1:tintColor {-sfsymbols-motion-group:0;-sfsymbols-layer-tags:7fdf9543615ab8a0}

.hierarchical-0:primary {-sfsymbols-motion-group:1;-sfsymbols-layer-tags:7fdf9543615ab8a0}
.hierarchical-1:tertiary {-sfsymbols-motion-group:0;-sfsymbols-layer-tags:7fdf9543615ab8a0}

.SFSymbolsPreviewWireframe {fill:none;opacity:1.0;stroke:black;stroke-width:0.5}
</style>
 <g id="Notes">
  <rect height="2200" id="artboard" style="fill:white;opacity:1" width="3300" x="0" y="0"/>
  <line style="fill:none;stroke:black;opacity:1;stroke-width:0.5;" x1="263" x2="3036" y1="292" y2="292"/>
  <text style="stroke:none;fill:black;font-family:sans-serif;font-size:13;font-weight:bold;" transform="matrix(1 0 0 1 263 322)">Weight/Scale Variations</text>
  <text style="stroke:none;fill:black;font-family:sans-serif;font-size:13;text-anchor:middle;" transform="matrix(1 0 0 1 559.711 322)">Ultralight</text>
  <text style="stroke:none;fill:black;font-family:sans-serif;font-size:13;text-anchor:middle;" transform="matrix(1 0 0 1 856.422 322)">Thin</text>
  <text style="stroke:none;fill:black;font-family:sans-serif;font-size:13;text-anchor:middle;" transform="matrix(1 0 0 1 1153.13 322)">Light</text>
  <text style="stroke:none;fill:black;font-family:sans-serif;font-size:13;text-anchor:middle;" transform="matrix(1 0 0 1 1449.84 322)">Regular</text>
  <text style="stroke:none;fill:black;font-family:sans-serif;font-size:13;text-anchor:middle;" transform="matrix(1 0 0 1 1746.56 322)">Medium</text>
  <text style="stroke:none;fill:black;font-family:sans-serif;font-size:13;text-anchor:middle;" transform="matrix(1 0 0 1 2043.27 322)">Semibold</text>
  <text style="stroke:none;fill:black;font-family:sans-serif;font-size:13;text-anchor:middle;" transform="matrix(1 0 0 1 2339.98 322)">Bold</text>
  <text style="stroke:none;fill:black;font-family:sans-serif;font-size:13;text-anchor:middle;" transform="matrix(1 0 0 1 2636.69 322)">Heavy</text>
  <text style="stroke:none;fill:black;font-family:sans-serif;font-size:13;text-anchor:middle;" transform="matrix(1 0 0 1 2933.4 322)">Black</text>
  <line style="fill:none;stroke:black;opacity:1;stroke-width:0.5;" x1="263" x2="3036" y1="1903" y2="1903"/>
  <g transform="matrix(0.2 0 0 0.2 263 1933)">
   <path d="m46.2402 4.15039c21.7773 0 39.4531-17.627 39.4531-39.4043s-17.6758-39.4043-39.4531-39.4043c-21.7285 0-39.4043 17.627-39.4043 39.4043s17.6758 39.4043 39.4043 39.4043Zm0-7.42188c-17.6758 0-31.9336-14.3066-31.9336-31.9824s14.2578-31.9824 31.9336-31.9824 31.9824 14.3066 31.9824 31.9824-14.3066 31.9824-31.9824 31.9824Zm-17.9688-31.9824c0 2.14844 1.51367 3.61328 3.75977 3.61328h10.498v10.5957c0 2.19727 1.46484 3.71094 3.61328 3.71094 2.24609 0 3.71094-1.51367 3.71094-3.71094v-10.5957h10.5957c2.19727 0 3.71094-1.46484 3.71094-3.61328 0-2.19727-1.51367-3.71094-3.71094-3.71094h-10.5957v-10.5469c0-2.24609-1.46484-3.75977-3.71094-3.75977-2.14844 0-3.61328 1.51367-3.61328 3.75977v10.5469h-10.498c-2.24609 0-3.75977 1.51367-3.75977 3.71094Z"/>
  </g>
  <g transform="matrix(0.2 0 0 0.2 281.506 1933)">
   <path d="m58.5449 14.5508c27.4902 0 49.8047-22.3145 49.8047-49.8047s-22.3145-49.8047-49.8047-49.8047-49.8047 22.3145-49.8047 49.8047 22.3145 49.8047 49.8047 49.8047Zm0-8.30078c-22.9492 0-41.5039-18.5547-41.5039-41.5039s18.5547-41.5039 41.5039-41.5039 41.5039 18.5547 41.5039 41.5039-18.5547 41.5039-41.5039 41.5039Zm-22.6562-41.5039c0 2.39258 1.66016 4.00391 4.15039 4.00391h14.3555v14.4043c0 2.44141 1.66016 4.15039 4.05273 4.15039 2.44141 0 4.15039-1.66016 4.15039-4.15039v-14.4043h14.4043c2.44141 0 4.15039-1.61133 4.15039-4.00391 0-2.44141-1.70898-4.15039-4.15039-4.15039h-14.4043v-14.3555c0-2.49023-1.70898-4.19922-4.15039-4.19922-2.39258 0-4.05273 1.70898-4.05273 4.19922v14.3555h-14.3555c-2.49023 0-4.15039 1.70898-4.15039 4.15039Z"/>
  </g>
  <g transform="matrix(0.2 0 0 0.2 304.924 1933)">
   <path d="m74.8535 28.3203c35.1074 0 63.623-28.4668 63.623-63.5742s-28.5156-63.623-63.623-63.623-63.5742 28.5156-63.5742 63.623 28.4668 63.5742 63.5742 63.5742Zm0-9.08203c-30.127 0-54.4922-24.3652-54.4922-54.4922s24.3652-54.4922 54.4922-54.4922 54.4922 24.3652 54.4922 54.4922-24.3652 54.4922-54.4922 54.4922Zm-28.8574-54.4922c0 2.58789 1.85547 4.39453 4.58984 4.39453h19.7266v19.7754c0 2.68555 1.85547 4.58984 4.44336 4.58984 2.68555 0 4.54102-1.85547 4.54102-4.58984v-19.7754h19.7754c2.68555 0 4.58984-1.80664 4.58984-4.39453 0-2.73438-1.85547-4.58984-4.58984-4.58984h-19.7754v-19.7266c0-2.73438-1.85547-4.63867-4.54102-4.63867-2.58789 0-4.44336 1.9043-4.44336 4.63867v19.7266h-19.7266c-2.73438 0-4.58984 1.85547-4.58984 4.58984Z"/>
  </g>
  <text style="stroke:none;fill:black;font-family:sans-serif;font-size:13;font-weight:bold;" transform="matrix(1 0 0 1 263 1953)">Design Variations</text>
  <text style="stroke:none;fill:black;font-family:sans-serif;font-size:13;" transform="matrix(1 0 0 1 263 1971)">Symbols are supported in up to nine weights and three scales.</text>
  <text style="stroke:none;fill:black;font-family:sans-serif;font-size:13;" transform="matrix(1 0 0 1 263 1989)">For optimal layout with text and other symbols, vertically align</text>
  <text style="stroke:none;fill:black;font-family:sans-serif;font-size:13;" transform="matrix(1 0 0 1 263 2007)">symbols with the adjacent text.</text>
  <line style="fill:none;stroke:#00AEEF;stroke-width:0.5;opacity:1.0;" x1="776" x2="776" y1="1919" y2="1933"/>
  <g transform="matrix(0.2 0 0 0.2 776 1933)">
   <path d="m16.5527 0.78125c2.58789 0 3.85742-0.976562 4.78516-3.71094l6.29883-17.2363h28.8086l6.29883 17.2363c0.927734 2.73438 2.19727 3.71094 4.73633 3.71094 2.58789 0 4.24805-1.5625 4.24805-4.00391 0-0.830078-0.146484-1.61133-0.537109-2.63672l-22.9004-60.9863c-1.12305-2.97852-3.125-4.49219-6.25-4.49219-3.02734 0-5.07812 1.46484-6.15234 4.44336l-22.9004 61.084c-0.390625 1.02539-0.537109 1.80664-0.537109 2.63672 0 2.44141 1.5625 3.95508 4.10156 3.95508Zm13.4766-28.3691 11.8652-32.8613h0.244141l11.8652 32.8613Z"/>
  </g>
  <line style="fill:none;stroke:#00AEEF;stroke-width:0.5;opacity:1.0;" x1="792.836" x2="792.836" y1="1919" y2="1933"/>
  <text style="stroke:none;fill:black;font-family:sans-serif;font-size:13;font-weight:bold;" transform="matrix(1 0 0 1 776 1953)">Margins</text>
  <text style="stroke:none;fill:black;font-family:sans-serif;font-size:13;" transform="matrix(1 0 0 1 776 1971)">Leading and trailing margins on the left and right side of each symbol</text>
  <text style="stroke:none;fill:black;font-family:sans-serif;font-size:13;" transform="matrix(1 0 0 1 776 1989)">can be adjusted by modifying the x-location of the margin guidelines.</text>
  <text style="stroke:none;fill:black;font-family:sans-serif;font-size:13;" transform="matrix(1 0 0 1 776 2007)">Modifications are automatically applied proportionally to all</text>
  <text style="stroke:none;fill:black;font-family:sans-serif;font-size:13;" transform="matrix(1 0 0 1 776 2025)">scales and weights.</text>
  <g transform="matrix(0.2 0 0 0.2 1289 1933)">
   <path d="m14.209 9.32617 8.49609 8.54492c4.29688 4.3457 9.22852 4.05273 13.8672-1.07422l53.4668-58.9355-4.83398-4.88281-53.0762 58.3984c-1.75781 2.00195-3.41797 2.49023-5.76172 0.146484l-5.85938-5.81055c-2.34375-2.29492-1.80664-4.00391 0.195312-5.81055l57.373-54.0039-4.88281-4.83398-57.959 54.4434c-4.93164 4.58984-5.32227 9.47266-1.02539 13.8184Zm32.0801-90.9668c-2.09961 2.05078-2.24609 4.93164-1.07422 6.88477 1.17188 1.80664 3.4668 2.97852 6.68945 2.14844 7.32422-1.70898 14.9414-2.00195 22.0703 2.68555l-2.92969 7.27539c-1.70898 4.15039-0.830078 7.08008 1.85547 9.81445l11.4746 11.5723c2.44141 2.44141 4.49219 2.53906 7.32422 2.05078l5.32227-0.976562 3.32031 3.36914-0.195312 2.7832c-0.195312 2.49023 0.439453 4.39453 2.88086 6.78711l3.80859 3.71094c2.39258 2.39258 5.46875 2.53906 7.8125 0.195312l14.5508-14.5996c2.34375-2.34375 2.24609-5.32227-0.146484-7.71484l-3.85742-3.80859c-2.39258-2.39258-4.24805-3.17383-6.64062-2.97852l-2.88086 0.244141-3.22266-3.17383 1.2207-5.61523c0.634766-2.83203-0.146484-5.0293-3.07617-7.95898l-10.9863-10.9375c-16.6992-16.6016-38.8672-16.2109-53.3203-1.75781Zm7.4707 1.85547c12.1582-8.88672 28.6133-7.37305 39.7461 3.75977l12.1582 12.0605c1.17188 1.17188 1.36719 2.09961 1.02539 3.80859l-1.61133 7.42188 7.51953 7.42188 4.93164-0.292969c1.26953-0.0488281 1.66016 0.0488281 2.63672 1.02539l2.88086 2.88086-12.207 12.207-2.88086-2.88086c-0.976562-0.976562-1.12305-1.36719-1.07422-2.68555l0.341797-4.88281-7.4707-7.42188-7.61719 1.26953c-1.61133 0.341797-2.34375 0.195312-3.56445-0.976562l-10.0098-10.0098c-1.26953-1.17188-1.41602-2.00195-0.634766-3.85742l4.39453-10.4492c-7.8125-7.27539-17.9688-10.4004-28.125-7.42188-0.78125 0.195312-1.07422-0.439453-0.439453-0.976562Z"/>
  </g>
  <text style="stroke:none;fill:black;font-family:sans-serif;font-size:13;font-weight:bold;" transform="matrix(1 0 0 1 1289 1953)">Exporting</text>
  <text style="stroke:none;fill:black;font-family:sans-serif;font-size:13;" transform="matrix(1 0 0 1 1289 1971)">Symbols should be outlined when exporting to ensure the</text>
  <text style="stroke:none;fill:black;font-family:sans-serif;font-size:13;" transform="matrix(1 0 0 1 1289 1989)">design is preserved when submitting to Xcode.</text>
  <text id="template-version" style="stroke:none;fill:black;font-family:sans-serif;font-size:13;text-anchor:end;" transform="matrix(1 0 0 1 3036 1933)">Template v.6.0</text>
  <text style="stroke:none;fill:black;font-family:sans-serif;font-size:13;text-anchor:end;" transform="matrix(1 0 0 1 3036 1951)">Requires Xcode 16 or greater</text>
  <text id="descriptive-name" style="stroke:none;fill:black;font-family:sans-serif;font-size:13;text-anchor:end;" transform="matrix(1 0 0 1 3036 1969)">Generated from filtervogelgruppe-38</text>
  <text style="stroke:none;fill:black;font-family:sans-serif;font-size:13;text-anchor:end;" transform="matrix(1 0 0 1 3036 1987)">Typeset at 100.0 points</text>
  <text style="stroke:none;fill:black;font-family:sans-serif;font-size:13;" transform="matrix(1 0 0 1 263 726)">Small</text>
  <text style="stroke:none;fill:black;font-family:sans-serif;font-size:13;" transform="matrix(1 0 0 1 263 1156)">Medium</text>
  <text style="stroke:none;fill:black;font-family:sans-serif;font-size:13;" transform="matrix(1 0 0 1 263 1586)">Large</text>
 </g>
 <g id="Guides">
  <g id="H-reference" style="fill:#27AAE1;stroke:none;" transform="matrix(1 0 0 1 339 696)">
   <path d="M0.993654 0L3.63775 0L29.3281-67.1323L30.0303-67.1323L30.0303-70.459L28.1226-70.459ZM11.6885-24.4799L46.9815-24.4799L46.2315-26.7285L12.4385-26.7285ZM55.1196 0L57.7637 0L30.6382-70.459L29.4326-70.459L29.4326-67.1323Z"/>
  </g>
  <line id="Baseline-S" style="fill:none;stroke:#27AAE1;opacity:1;stroke-width:0.5;" x1="263" x2="3036" y1="696" y2="696"/>
  <line id="Capline-S" style="fill:none;stroke:#27AAE1;opacity:1;stroke-width:0.5;" x1="263" x2="3036" y1="625.541" y2="625.541"/>
  <g id="H-reference" style="fill:#27AAE1;stroke:none;" transform="matrix(1 0 0 1 339 1126)">
   <path d="M0.993654 0L3.63775 0L29.3281-67.1323L30.0303-67.1323L30.0303-70.459L28.1226-70.459ZM11.6885-24.4799L46.9815-24.4799L46.2315-26.7285L12.4385-26.7285ZM55.1196 0L57.7637 0L30.6382-70.459L29.4326-70.459L29.4326-67.1323Z"/>
  </g>
  <line id="Baseline-M" style="fill:none;stroke:#27AAE1;opacity:1;stroke-width:0.5;" x1="263" x2="3036" y1="1126" y2="1126"/>
  <line id="Capline-M" style="fill:none;stroke:#27AAE1;opacity:1;stroke-width:0.5;" x1="263" x2="3036" y1="1055.54" y2="1055.54"/>
  <g id="H-reference" style="fill:#27AAE1;stroke:none;" transform="matrix(1 0 0 1 339 1556)">
   <path d="M0.993654 0L3.63775 0L29.3281-67.1323L30.0303-67.1323L30.0303-70.459L28.1226-70.459ZM11.6885-24.4799L46.9815-24.4799L46.2315-26.7285L12.4385-26.7285ZM55.1196 0L57.7637 0L30.6382-70.459L29.4326-70.459L29.4326-67.1323Z"/>
  </g>
  <line id="Baseline-L" style="fill:none;stroke:#27AAE1;opacity:1;stroke-width:0.5;" x1="263" x2="3036" y1="1556" y2="1556"/>
  <line id="Capline-L" style="fill:none;stroke:#27AAE1;opacity:1;stroke-width:0.5;" x1="263" x2="3036" y1="1485.54" y2="1485.54"/>
  <line id="right-margin-Black-S" style="fill:none;stroke:#00AEEF;stroke-width:0.5;opacity:1.0;" x1="2982.23" x2="2982.23" y1="600.785" y2="720.121"/>
  <line id="left-margin-Black-S" style="fill:none;stroke:#00AEEF;stroke-width:0.5;opacity:1.0;" x1="2884.57" x2="2884.57" y1="600.785" y2="720.121"/>
  <line id="right-margin-Regular-S" style="fill:none;stroke:#00AEEF;stroke-width:0.5;opacity:1.0;" x1="1496.11" x2="1496.11" y1="600.785" y2="720.121"/>
  <line id="left-margin-Regular-S" style="fill:none;stroke:#00AEEF;stroke-width:0.5;opacity:1.0;" x1="1403.58" x2="1403.58" y1="600.785" y2="720.121"/>
  <line id="right-margin-Ultralight-S" style="fill:none;stroke:#00AEEF;stroke-width:0.5;opacity:1.0;" x1="603.773" x2="603.773" y1="600.785" y2="720.121"/>
  <line id="left-margin-Ultralight-S" style="fill:none;stroke:#00AEEF;stroke-width:0.5;opacity:1.0;" x1="515.649" x2="515.649" y1="600.785" y2="720.121"/>
 </g>
 <g id="Symbols">
  <g id="Black-S" transform="matrix(1 0 0 1 2884.57 696)">
   <path class="monochrome-0 multicolor-0:tintColor hierarchical-0:primary SFSymbolsPreviewWireframe" d="M20.7499-49.3639C20.8262-49.3868 20.7728-49.78 21.0553-49.78C21.3302-49.78 22.0251-49.7113 22.258-49.9175C22.4947-50.1198 23.1667-50.1351 23.5676-50.0549C23.9723-49.9786 24.1785-49.3333 24.1709-48.6728C24.1633-48.0122 23.1056-46.7637 22.8651-44.1064C22.6207-41.4528 23.0789-38.5205 24.9765-34.8398C26.8741-31.163 30.3562-29.021 31.3146-28.4788C32.2806-27.9328 32.5937-27.5625 32.6242-27.0928C32.6548-26.627 32.4104-26.2109 32.4257-25.9856C32.4371-25.7679 32.4753-25.9779 32.5249-25.2983C32.5746-24.6111 32.0133-21.526 31.9217-21.2855C31.8262-21.0449 31.5475-20.4264 30.509-20.1782C29.4781-19.93 28.7183-20.1248 28.2945-19.9033C27.8745-19.6819 27.7981-19.4871 27.7981-19.4871L28.0959-19.4871C28.0959-19.4871 28.1952-19.323 28.2983-19.3497C28.4014-19.3726 28.9015-19.3497 28.9015-19.3497L28.9015-19.2122C28.9015-19.2122 29.879-19.239 29.9095-19.2122C29.9363-19.1817 31.5284-19.3688 31.9217-19.3497C32.3111-19.3268 32.5631-19.2275 32.8266-19.6246C32.9747-19.8314 33.0787-20.0669 33.132-20.3157C33.132-20.3157 33.3115-20.3233 33.4298-20.1782C33.5482-20.0331 33.7353-20.0408 33.7353-20.0408L33.8346-19.9033C33.8346-19.9033 33.8422-20.3653 33.7315-20.5906C33.6207-20.8197 33.1282-21.2855 33.1282-21.2855C33.1282-21.2855 33.3497-23.8513 33.4336-24.6072C33.51-25.3594 33.5482-25.619 33.6322-25.8481C33.7124-26.0772 33.6322-26.543 33.6322-26.543C33.6322-26.543 33.9186-27.1005 34.3347-26.9554C34.7547-26.8103 36.4423-26.4819 37.7596-26.4018C39.0768-26.3254 40.5087-26.5659 41.4823-26.4018C42.4521-26.2376 45.0637-25.8825 46.5146-25.5732C47.9655-25.264 49.1491-25.6687 50.5389-25.1571C51.9287-24.6492 53.3567-24.3285 53.3567-24.3285C53.3567-24.3285 54.3723-23.6336 55.6704-23.0838C56.9686-22.5302 57.0831-22.5302 57.0831-22.5302L56.5753-23.2213L57.8849-23.2213L57.8849-23.3587C57.8849-23.3587 58.8357-23.4389 59.2977-23.3587C59.7558-23.2824 61.4587-22.7516 63.5205-21.8391C65.5823-20.9228 66.8804-20.5219 69.5608-19.071C72.2411-17.6201 74.4403-16.5052 75.9981-15.6156C77.5597-14.7259 77.911-14.6458 77.911-14.6458C77.911-14.6458 77.1168-15.249 75.4979-16.1692C73.879-17.0855 73.0811-17.5514 73.0811-17.5514C73.0811-17.5514 73.5774-17.4941 74.6923-16.9977C75.8072-16.5014 77.3077-15.6156 77.3077-15.6156C77.3077-15.6156 76.6586-16.1616 74.5892-17.2726C72.5236-18.3875 71.9165-18.399 67.9457-20.4569C63.9825-22.5111 61.4091-24.0498 61.4091-24.0498C61.4091-24.0498 62.5621-23.9963 62.7149-24.0498C62.8676-24.1071 62.5965-24.7523 61.4091-25.4358C60.2216-26.1192 59.0266-26.6194 56.9801-28.0626C55.4449-29.1355 53.9011-30.1957 52.3487-31.2431C52.3487-31.2431 51.9707-32.7017 50.0349-34.2862C48.0991-35.8707 47.072-36.2945 45.9113-37.4667C44.7468-38.6426 43.9832-40.1546 42.2841-42.308C40.5889-44.4653 38.8936-45.1143 37.6565-46.0459C36.5477-46.9214 35.3705-47.7067 34.1362-48.3941C32.7502-49.15 32.6853-49.1882 32.7235-49.6388C32.7693-50.0931 32.8762-51.5707 32.3226-52.9605C31.7689-54.3503 31.433-55.0109 30.1081-55.8623C28.787-56.7176 27.7867-57.023 26.183-56.0036C24.5794-54.9841 24.1442-53.98 23.8693-53.2354C23.5982-52.4909 23.2049-52.2847 22.6627-52.1282C22.1206-51.9755 21.5288-51.9067 21.0515-51.4409C20.578-50.9713 20.6353-50.0702 20.6506-49.78C20.662-49.486 20.6773-49.3371 20.7499-49.3639Z"/>
   <path class="monochrome-1 multicolor-1:tintColor hierarchical-1:tertiary SFSymbolsPreviewWireframe" d="M48.9411-84C55.3091-84.0013 61.615-82.7479 67.4985-80.3116C73.382-77.8752 78.7279-74.3036 83.2305-69.8009C87.7334-65.2983 91.305-59.9524 93.7418-54.0682C96.1779-48.1846 97.4312-41.8789 97.43-35.5124C97.43-8.72255 75.7254 13 48.9424 13C22.156 13 0.43-8.726 0.43-35.5124C0.43-62.2926 22.1539-84 48.9411-84ZM48.9424-70C29.8835-70 14.43-54.5582 14.43-35.5124C14.43-16.458 29.888-0.999999 48.9424-0.999999C67.9909-0.999999 83.43-16.4519 83.43-35.5138C83.4309-40.0428 82.5395-44.5276 80.8069-48.7121C79.0739-52.8969 76.5337-56.6989 73.3311-59.9013C70.1287-63.1038 66.3266-65.644 62.1422-67.3767C57.9578-69.1095 53.4729-70.0009 48.9424-70Z"/>
  </g>
  <g id="Regular-S" transform="matrix(1 0 0 1 1403.58 696)">
   <path class="monochrome-0 multicolor-0:tintColor hierarchical-0:primary SFSymbolsPreviewWireframe" d="M19.542-46.9017C19.6269-46.9272 19.5675-47.3645 19.8817-47.3645C20.1874-47.3645 20.9602-47.2881 21.2192-47.5174C21.4825-47.7424 22.2298-47.7594 22.6756-47.6703C23.1257-47.5853 23.355-46.8677 23.3465-46.1332C23.338-45.3986 22.1619-44.0101 21.8944-41.0548C21.6226-38.1037 22.1321-34.8427 24.2425-30.7494C26.3528-26.6604 30.2253-24.2783 31.2911-23.6753C32.3654-23.0681 32.7136-22.6562 32.7475-22.134C32.7815-21.6159 32.5097-21.1531 32.5267-20.9026C32.5395-20.6605 32.5819-20.8941 32.6371-20.1383C32.6923-19.374 32.0681-15.9431 31.9662-15.6756C31.8601-15.4081 31.5501-14.7202 30.3952-14.4442C29.2487-14.1682 28.4037-14.3847 27.9324-14.1385C27.4653-13.8922 27.3804-13.6756 27.3804-13.6756L27.7116-13.6756C27.7116-13.6756 27.822-13.493 27.9366-13.5228C28.0513-13.5482 28.6075-13.5228 28.6075-13.5228L28.6075-13.3699C28.6075-13.3699 29.6945-13.3996 29.7285-13.3699C29.7582-13.3359 31.5289-13.544 31.9662-13.5228C32.3993-13.4973 32.6796-13.3869 32.9726-13.8285C33.1373-14.0585 33.2529-14.3203 33.3123-14.597C33.3123-14.597 33.5118-14.6055 33.6435-14.4442C33.7751-14.2828 33.9832-14.2913 33.9832-14.2913L34.0936-14.1385C34.0936-14.1385 34.102-14.6522 33.9789-14.9028C33.8558-15.1575 33.308-15.6756 33.308-15.6756C33.308-15.6756 33.5543-18.529 33.6477-19.3697C33.7326-20.2062 33.7751-20.4949 33.8685-20.7497C33.9577-21.0045 33.8685-21.5225 33.8685-21.5225C33.8685-21.5225 34.187-22.1425 34.6498-21.9811C35.1169-21.8197 36.9937-21.4546 38.4586-21.3654C39.9235-21.2805 41.5159-21.548 42.5987-21.3654C43.6772-21.1828 46.5816-20.7879 48.1951-20.444C49.8086-20.1001 51.1249-20.5501 52.6705-19.9812C54.2161-19.4164 55.8042-19.0597 55.8042-19.0597C55.8042-19.0597 56.9337-18.2869 58.3774-17.6755C59.8211-17.0598 59.9485-17.0598 59.9485-17.0598L59.3837-17.8284L60.8401-17.8284L60.8401-17.9812C60.8401-17.9812 61.8974-18.0704 62.4112-17.9812C62.9208-17.8963 64.8145-17.3061 67.1075-16.2913C69.4004-15.2722 70.8441-14.8263 73.8249-13.2128C76.8057-11.5993 79.2515-10.3594 80.9839-9.37002C82.7206-8.38067 83.1112-8.2915 83.1112-8.2915C83.1112-8.2915 82.228-8.96239 80.4277-9.98571C78.6273-11.0048 77.7398-11.5228 77.7398-11.5228C77.7398-11.5228 78.2918-11.4591 79.5317-10.9071C80.7716-10.3551 82.4403-9.37002 82.4403-9.37002C82.4403-9.37002 81.7185-9.97722 79.4171-11.2129C77.1199-12.4527 76.4448-12.4655 72.0288-14.7541C67.6213-17.0386 64.7593-18.7498 64.7593-18.7498C64.7593-18.7498 66.0417-18.6903 66.2115-18.7498C66.3814-18.8135 66.0799-19.5311 64.7593-20.2911C63.4388-21.0512 62.1097-21.6074 59.8338-23.2125C58.1265-24.4057 56.4096-25.5847 54.6832-26.7495C54.6832-26.7495 54.2629-28.3716 52.1101-30.1337C49.9573-31.8959 48.815-32.3672 47.5242-33.6708C46.2291-34.9786 45.3799-36.6601 43.4904-39.0549C41.6051-41.454 39.7197-42.1757 38.344-43.2118C37.1108-44.1855 35.8017-45.0587 34.429-45.8232C32.8876-46.6639 32.8155-46.7064 32.8579-47.2074C32.9089-47.7127 33.0278-49.356 32.4121-50.9016C31.7964-52.4472 31.4227-53.1818 29.9493-54.1287C28.4801-55.0798 27.3676-55.4195 25.5843-54.2858C23.8009-53.152 23.3168-52.0353 23.0111-51.2073C22.7096-50.3793 22.2723-50.15 21.6693-49.9759C21.0664-49.8061 20.4082-49.7296 19.8774-49.2116C19.3509-48.6893 19.4146-47.6872 19.4316-47.3645C19.4443-47.0376 19.4613-46.872 19.542-46.9017Z"/>
   <path class="monochrome-1 multicolor-1:tintColor hierarchical-1:tertiary SFSymbolsPreviewWireframe" d="M46.4321-81.8365C52.4502-81.8377 58.4096-80.6532 63.9698-78.3508C69.53-76.0483 74.5822-72.6729 78.8374-68.4176C83.0928-64.1624 86.4682-59.1103 88.771-53.5496C91.0733-47.9892 92.2577-42.03 92.2566-36.0127C92.2566-10.693 71.744 9.83658 46.4328 9.83658C21.1173 9.83658 0.5835-10.6972 0.5835-36.0127C0.5835-61.3211 21.1145-81.8365 46.4321-81.8365ZM46.4328-75.0865C24.8413-75.0865 7.3335-57.592 7.3335-36.0127C7.3335-14.4252 24.8452 3.08658 46.4328 3.08658C68.0148 3.08658 85.5066-14.4197 85.5066-36.0133C85.5076-41.1447 84.4976-46.226 82.5345-50.9672C80.571-55.7085 77.693-60.0162 74.0644-63.6446C70.4361-67.273 66.1283-70.1511 61.3873-72.1143C56.6463-74.0776 51.5649-75.0875 46.4328-75.0865Z"/>
  </g>
  <g id="Ultralight-S" transform="matrix(1 0 0 1 515.649 696)">
   <path class="monochrome-0 multicolor-0:tintColor hierarchical-0:primary SFSymbolsPreviewWireframe" d="M15.473-48.9017C15.5579-48.9272 15.4985-49.3645 15.8127-49.3645C16.1184-49.3645 16.8912-49.2881 17.1502-49.5174C17.4135-49.7424 18.1608-49.7594 18.6066-49.6703C19.0567-49.5853 19.286-48.8677 19.2775-48.1332C19.269-47.3986 18.0929-46.0101 17.8254-43.0548C17.5536-40.1037 18.0631-36.8427 20.1735-32.7494C22.2838-28.6604 26.1563-26.2783 27.2221-25.6753C28.2964-25.0681 28.6446-24.6562 28.6785-24.134C28.7125-23.6159 28.4407-23.1531 28.4577-22.9026C28.4705-22.6605 28.5129-22.8941 28.5681-22.1383C28.6233-21.374 27.9991-17.9431 27.8972-17.6756C27.7911-17.4081 27.4811-16.7202 26.3262-16.4442C25.1797-16.1682 24.3347-16.3847 23.8634-16.1385C23.3963-15.8922 23.3114-15.6756 23.3114-15.6756L23.6426-15.6756C23.6426-15.6756 23.753-15.493 23.8676-15.5228C23.9823-15.5482 24.5385-15.5228 24.5385-15.5228L24.5385-15.3699C24.5385-15.3699 25.6255-15.3996 25.6595-15.3699C25.6892-15.3359 27.4599-15.544 27.8972-15.5228C28.3303-15.4973 28.6106-15.3869 28.9036-15.8285C29.0683-16.0585 29.1839-16.3203 29.2433-16.597C29.2433-16.597 29.4428-16.6055 29.5745-16.4442C29.7061-16.2828 29.9142-16.2913 29.9142-16.2913L30.0246-16.1385C30.0246-16.1385 30.033-16.6522 29.9099-16.9028C29.7868-17.1575 29.239-17.6756 29.239-17.6756C29.239-17.6756 29.4853-20.529 29.5787-21.3697C29.6636-22.2062 29.7061-22.4949 29.7995-22.7497C29.8887-23.0045 29.7995-23.5225 29.7995-23.5225C29.7995-23.5225 30.118-24.1425 30.5808-23.9811C31.0479-23.8197 32.9247-23.4546 34.3896-23.3654C35.8545-23.2805 37.4469-23.548 38.5297-23.3654C39.6082-23.1828 42.5126-22.7879 44.1261-22.444C45.7396-22.1001 47.0559-22.5501 48.6015-21.9812C50.1471-21.4164 51.7352-21.0597 51.7352-21.0597C51.7352-21.0597 52.8647-20.2869 54.3084-19.6755C55.7521-19.0598 55.8795-19.0598 55.8795-19.0598L55.3147-19.8284L56.7711-19.8284L56.7711-19.9812C56.7711-19.9812 57.8284-20.0704 58.3422-19.9812C58.8518-19.8963 60.7455-19.3061 63.0385-18.2913C65.3314-17.2722 66.7751-16.8263 69.7559-15.2128C72.7367-13.5993 75.1825-12.3594 76.9149-11.37C78.6516-10.3807 79.0422-10.2915 79.0422-10.2915C79.0422-10.2915 78.159-10.9624 76.3587-11.9857C74.5583-13.0048 73.6708-13.5228 73.6708-13.5228C73.6708-13.5228 74.2228-13.4591 75.4627-12.9071C76.7026-12.3551 78.3713-11.37 78.3713-11.37C78.3713-11.37 77.6495-11.9772 75.3481-13.2129C73.0509-14.4527 72.3758-14.4655 67.9598-16.7541C63.5523-19.0386 60.6903-20.7498 60.6903-20.7498C60.6903-20.7498 61.9727-20.6903 62.1425-20.7498C62.3124-20.8135 62.0109-21.5311 60.6903-22.2911C59.3698-23.0512 58.0407-23.6074 55.7648-25.2125C54.0575-26.4057 52.3406-27.5847 50.6142-28.7495C50.6142-28.7495 50.1939-30.3716 48.0411-32.1337C45.8883-33.8959 44.746-34.3672 43.4552-35.6708C42.1601-36.9786 41.3109-38.6601 39.4214-41.0549C37.5361-43.454 35.6507-44.1757 34.275-45.2118C33.0418-46.1855 31.7327-47.0587 30.36-47.8232C28.8186-48.6639 28.7465-48.7064 28.7889-49.2074C28.8399-49.7127 28.9588-51.356 28.3431-52.9016C27.7274-54.4472 27.3537-55.1818 25.8803-56.1287C24.4111-57.0798 23.2986-57.4195 21.5153-56.2858C19.7319-55.152 19.2478-54.0353 18.9421-53.2073C18.6406-52.3793 18.2033-52.15 17.6003-51.9759C16.9974-51.8061 16.3392-51.7296 15.8084-51.2116C15.2819-50.6893 15.3456-49.6872 15.3626-49.3645C15.3753-49.0376 15.3923-48.872 15.473-48.9017Z"/>
   <path class="monochrome-1 multicolor-1:tintColor hierarchical-1:tertiary SFSymbolsPreviewWireframe" d="M44.3636-80.5865C50.0861-80.5876 55.7528-79.4613 61.04-77.272C66.3271-75.0826 71.1312-71.8729 75.1774-67.8265C79.2239-63.7803 82.4335-58.9764 84.6232-53.6889C86.8124-48.4015 87.9387-42.7349 87.9376-37.0127C87.9376-12.9352 68.432 6.58658 44.3638 6.58658C20.2909 6.58658 0.7645-12.9399 0.7645-37.0127C0.7645-61.0781 20.2877-80.5865 44.3636-80.5865ZM44.3638-78.3365C21.53-78.3365 3.0145-59.8351 3.0145-37.0127C3.0145-14.1825 21.5336 4.33658 44.3638 4.33658C67.1889 4.33658 85.6876-14.1774 85.6876-37.0129C85.6886-42.4398 84.6205-47.8138 82.5443-52.828C80.4678-57.8425 77.4239-62.3983 73.5865-66.2355C69.7491-70.073 65.1932-73.1168 60.1791-75.1931C55.1651-77.2695 49.791-78.3376 44.3638-78.3365Z"/>
  </g>
 </g>
</svg>
