<?xml version="1.0" encoding="UTF-8"?>
<!--Generator: Apple Native CoreSVG 341-->
<!DOCTYPE svg
PUBLIC "-//W3C//DTD SVG 1.1//EN"
       "http://www.w3.org/Graphics/SVG/1.1/DTD/svg11.dtd">
<svg version="1.1" xmlns="http://www.w3.org/2000/svg" xmlns:xlink="http://www.w3.org/1999/xlink" viewBox="0 0 3300 2200">
 <!--glyph: "", point size: 100.0, font version: "20.0d10e1", template writer version: "138.0.0"-->
 <style>.monochrome-0 {-sfsymbols-motion-group:1;-sfsymbols-layer-tags:27efd9dfd1ffa65d}
.monochrome-1 {-sfsymbols-motion-group:0;-sfsymbols-layer-tags:27efd9dfd1ffa65d}

.multicolor-0:tintColor {-sfsymbols-motion-group:1;-sfsymbols-layer-tags:27efd9dfd1ffa65d}
.multicolor-1:tintColor {-sfsymbols-motion-group:0;-sfsymbols-layer-tags:27efd9dfd1ffa65d}

.hierarchical-0:primary {-sfsymbols-motion-group:1;-sfsymbols-layer-tags:27efd9dfd1ffa65d}
.hierarchical-1:tertiary {-sfsymbols-motion-group:0;-sfsymbols-layer-tags:27efd9dfd1ffa65d}

.SFSymbolsPreviewWireframe {fill:none;opacity:1.0;stroke:black;stroke-width:0.5}
</style>
 <g id="Notes">
  <rect height="2200" id="artboard" style="fill:white;opacity:1" width="3300" x="0" y="0"/>
  <line style="fill:none;stroke:black;opacity:1;stroke-width:0.5;" x1="263" x2="3036" y1="292" y2="292"/>
  <text style="stroke:none;fill:black;font-family:sans-serif;font-size:13;font-weight:bold;" transform="matrix(1 0 0 1 263 322)">Weight/Scale Variations</text>
  <text style="stroke:none;fill:black;font-family:sans-serif;font-size:13;text-anchor:middle;" transform="matrix(1 0 0 1 559.711 322)">Ultralight</text>
  <text style="stroke:none;fill:black;font-family:sans-serif;font-size:13;text-anchor:middle;" transform="matrix(1 0 0 1 856.422 322)">Thin</text>
  <text style="stroke:none;fill:black;font-family:sans-serif;font-size:13;text-anchor:middle;" transform="matrix(1 0 0 1 1153.13 322)">Light</text>
  <text style="stroke:none;fill:black;font-family:sans-serif;font-size:13;text-anchor:middle;" transform="matrix(1 0 0 1 1449.84 322)">Regular</text>
  <text style="stroke:none;fill:black;font-family:sans-serif;font-size:13;text-anchor:middle;" transform="matrix(1 0 0 1 1746.56 322)">Medium</text>
  <text style="stroke:none;fill:black;font-family:sans-serif;font-size:13;text-anchor:middle;" transform="matrix(1 0 0 1 2043.27 322)">Semibold</text>
  <text style="stroke:none;fill:black;font-family:sans-serif;font-size:13;text-anchor:middle;" transform="matrix(1 0 0 1 2339.98 322)">Bold</text>
  <text style="stroke:none;fill:black;font-family:sans-serif;font-size:13;text-anchor:middle;" transform="matrix(1 0 0 1 2636.69 322)">Heavy</text>
  <text style="stroke:none;fill:black;font-family:sans-serif;font-size:13;text-anchor:middle;" transform="matrix(1 0 0 1 2933.4 322)">Black</text>
  <line style="fill:none;stroke:black;opacity:1;stroke-width:0.5;" x1="263" x2="3036" y1="1903" y2="1903"/>
  <g transform="matrix(0.2 0 0 0.2 263 1933)">
   <path d="m46.2402 4.15039c21.7773 0 39.4531-17.627 39.4531-39.4043s-17.6758-39.4043-39.4531-39.4043c-21.7285 0-39.4043 17.627-39.4043 39.4043s17.6758 39.4043 39.4043 39.4043Zm0-7.42188c-17.6758 0-31.9336-14.3066-31.9336-31.9824s14.2578-31.9824 31.9336-31.9824 31.9824 14.3066 31.9824 31.9824-14.3066 31.9824-31.9824 31.9824Zm-17.9688-31.9824c0 2.14844 1.51367 3.61328 3.75977 3.61328h10.498v10.5957c0 2.19727 1.46484 3.71094 3.61328 3.71094 2.24609 0 3.71094-1.51367 3.71094-3.71094v-10.5957h10.5957c2.19727 0 3.71094-1.46484 3.71094-3.61328 0-2.19727-1.51367-3.71094-3.71094-3.71094h-10.5957v-10.5469c0-2.24609-1.46484-3.75977-3.71094-3.75977-2.14844 0-3.61328 1.51367-3.61328 3.75977v10.5469h-10.498c-2.24609 0-3.75977 1.51367-3.75977 3.71094Z"/>
  </g>
  <g transform="matrix(0.2 0 0 0.2 281.506 1933)">
   <path d="m58.5449 14.5508c27.4902 0 49.8047-22.3145 49.8047-49.8047s-22.3145-49.8047-49.8047-49.8047-49.8047 22.3145-49.8047 49.8047 22.3145 49.8047 49.8047 49.8047Zm0-8.30078c-22.9492 0-41.5039-18.5547-41.5039-41.5039s18.5547-41.5039 41.5039-41.5039 41.5039 18.5547 41.5039 41.5039-18.5547 41.5039-41.5039 41.5039Zm-22.6562-41.5039c0 2.39258 1.66016 4.00391 4.15039 4.00391h14.3555v14.4043c0 2.44141 1.66016 4.15039 4.05273 4.15039 2.44141 0 4.15039-1.66016 4.15039-4.15039v-14.4043h14.4043c2.44141 0 4.15039-1.61133 4.15039-4.00391 0-2.44141-1.70898-4.15039-4.15039-4.15039h-14.4043v-14.3555c0-2.49023-1.70898-4.19922-4.15039-4.19922-2.39258 0-4.05273 1.70898-4.05273 4.19922v14.3555h-14.3555c-2.49023 0-4.15039 1.70898-4.15039 4.15039Z"/>
  </g>
  <g transform="matrix(0.2 0 0 0.2 304.924 1933)">
   <path d="m74.8535 28.3203c35.1074 0 63.623-28.4668 63.623-63.5742s-28.5156-63.623-63.623-63.623-63.5742 28.5156-63.5742 63.623 28.4668 63.5742 63.5742 63.5742Zm0-9.08203c-30.127 0-54.4922-24.3652-54.4922-54.4922s24.3652-54.4922 54.4922-54.4922 54.4922 24.3652 54.4922 54.4922-24.3652 54.4922-54.4922 54.4922Zm-28.8574-54.4922c0 2.58789 1.85547 4.39453 4.58984 4.39453h19.7266v19.7754c0 2.68555 1.85547 4.58984 4.44336 4.58984 2.68555 0 4.54102-1.85547 4.54102-4.58984v-19.7754h19.7754c2.68555 0 4.58984-1.80664 4.58984-4.39453 0-2.73438-1.85547-4.58984-4.58984-4.58984h-19.7754v-19.7266c0-2.73438-1.85547-4.63867-4.54102-4.63867-2.58789 0-4.44336 1.9043-4.44336 4.63867v19.7266h-19.7266c-2.73438 0-4.58984 1.85547-4.58984 4.58984Z"/>
  </g>
  <text style="stroke:none;fill:black;font-family:sans-serif;font-size:13;font-weight:bold;" transform="matrix(1 0 0 1 263 1953)">Design Variations</text>
  <text style="stroke:none;fill:black;font-family:sans-serif;font-size:13;" transform="matrix(1 0 0 1 263 1971)">Symbols are supported in up to nine weights and three scales.</text>
  <text style="stroke:none;fill:black;font-family:sans-serif;font-size:13;" transform="matrix(1 0 0 1 263 1989)">For optimal layout with text and other symbols, vertically align</text>
  <text style="stroke:none;fill:black;font-family:sans-serif;font-size:13;" transform="matrix(1 0 0 1 263 2007)">symbols with the adjacent text.</text>
  <line style="fill:none;stroke:#00AEEF;stroke-width:0.5;opacity:1.0;" x1="776" x2="776" y1="1919" y2="1933"/>
  <g transform="matrix(0.2 0 0 0.2 776 1933)">
   <path d="m16.5527 0.78125c2.58789 0 3.85742-0.976562 4.78516-3.71094l6.29883-17.2363h28.8086l6.29883 17.2363c0.927734 2.73438 2.19727 3.71094 4.73633 3.71094 2.58789 0 4.24805-1.5625 4.24805-4.00391 0-0.830078-0.146484-1.61133-0.537109-2.63672l-22.9004-60.9863c-1.12305-2.97852-3.125-4.49219-6.25-4.49219-3.02734 0-5.07812 1.46484-6.15234 4.44336l-22.9004 61.084c-0.390625 1.02539-0.537109 1.80664-0.537109 2.63672 0 2.44141 1.5625 3.95508 4.10156 3.95508Zm13.4766-28.3691 11.8652-32.8613h0.244141l11.8652 32.8613Z"/>
  </g>
  <line style="fill:none;stroke:#00AEEF;stroke-width:0.5;opacity:1.0;" x1="792.836" x2="792.836" y1="1919" y2="1933"/>
  <text style="stroke:none;fill:black;font-family:sans-serif;font-size:13;font-weight:bold;" transform="matrix(1 0 0 1 776 1953)">Margins</text>
  <text style="stroke:none;fill:black;font-family:sans-serif;font-size:13;" transform="matrix(1 0 0 1 776 1971)">Leading and trailing margins on the left and right side of each symbol</text>
  <text style="stroke:none;fill:black;font-family:sans-serif;font-size:13;" transform="matrix(1 0 0 1 776 1989)">can be adjusted by modifying the x-location of the margin guidelines.</text>
  <text style="stroke:none;fill:black;font-family:sans-serif;font-size:13;" transform="matrix(1 0 0 1 776 2007)">Modifications are automatically applied proportionally to all</text>
  <text style="stroke:none;fill:black;font-family:sans-serif;font-size:13;" transform="matrix(1 0 0 1 776 2025)">scales and weights.</text>
  <g transform="matrix(0.2 0 0 0.2 1289 1933)">
   <path d="m14.209 9.32617 8.49609 8.54492c4.29688 4.3457 9.22852 4.05273 13.8672-1.07422l53.4668-58.9355-4.83398-4.88281-53.0762 58.3984c-1.75781 2.00195-3.41797 2.49023-5.76172 0.146484l-5.85938-5.81055c-2.34375-2.29492-1.80664-4.00391 0.195312-5.81055l57.373-54.0039-4.88281-4.83398-57.959 54.4434c-4.93164 4.58984-5.32227 9.47266-1.02539 13.8184Zm32.0801-90.9668c-2.09961 2.05078-2.24609 4.93164-1.07422 6.88477 1.17188 1.80664 3.4668 2.97852 6.68945 2.14844 7.32422-1.70898 14.9414-2.00195 22.0703 2.68555l-2.92969 7.27539c-1.70898 4.15039-0.830078 7.08008 1.85547 9.81445l11.4746 11.5723c2.44141 2.44141 4.49219 2.53906 7.32422 2.05078l5.32227-0.976562 3.32031 3.36914-0.195312 2.7832c-0.195312 2.49023 0.439453 4.39453 2.88086 6.78711l3.80859 3.71094c2.39258 2.39258 5.46875 2.53906 7.8125 0.195312l14.5508-14.5996c2.34375-2.34375 2.24609-5.32227-0.146484-7.71484l-3.85742-3.80859c-2.39258-2.39258-4.24805-3.17383-6.64062-2.97852l-2.88086 0.244141-3.22266-3.17383 1.2207-5.61523c0.634766-2.83203-0.146484-5.0293-3.07617-7.95898l-10.9863-10.9375c-16.6992-16.6016-38.8672-16.2109-53.3203-1.75781Zm7.4707 1.85547c12.1582-8.88672 28.6133-7.37305 39.7461 3.75977l12.1582 12.0605c1.17188 1.17188 1.36719 2.09961 1.02539 3.80859l-1.61133 7.42188 7.51953 7.42188 4.93164-0.292969c1.26953-0.0488281 1.66016 0.0488281 2.63672 1.02539l2.88086 2.88086-12.207 12.207-2.88086-2.88086c-0.976562-0.976562-1.12305-1.36719-1.07422-2.68555l0.341797-4.88281-7.4707-7.42188-7.61719 1.26953c-1.61133 0.341797-2.34375 0.195312-3.56445-0.976562l-10.0098-10.0098c-1.26953-1.17188-1.41602-2.00195-0.634766-3.85742l4.39453-10.4492c-7.8125-7.27539-17.9688-10.4004-28.125-7.42188-0.78125 0.195312-1.07422-0.439453-0.439453-0.976562Z"/>
  </g>
  <text style="stroke:none;fill:black;font-family:sans-serif;font-size:13;font-weight:bold;" transform="matrix(1 0 0 1 1289 1953)">Exporting</text>
  <text style="stroke:none;fill:black;font-family:sans-serif;font-size:13;" transform="matrix(1 0 0 1 1289 1971)">Symbols should be outlined when exporting to ensure the</text>
  <text style="stroke:none;fill:black;font-family:sans-serif;font-size:13;" transform="matrix(1 0 0 1 1289 1989)">design is preserved when submitting to Xcode.</text>
  <text id="template-version" style="stroke:none;fill:black;font-family:sans-serif;font-size:13;text-anchor:end;" transform="matrix(1 0 0 1 3036 1933)">Template v.6.0</text>
  <text style="stroke:none;fill:black;font-family:sans-serif;font-size:13;text-anchor:end;" transform="matrix(1 0 0 1 3036 1951)">Requires Xcode 16 or greater</text>
  <text id="descriptive-name" style="stroke:none;fill:black;font-family:sans-serif;font-size:13;text-anchor:end;" transform="matrix(1 0 0 1 3036 1969)">Generated from filtervogelgruppe-7</text>
  <text style="stroke:none;fill:black;font-family:sans-serif;font-size:13;text-anchor:end;" transform="matrix(1 0 0 1 3036 1987)">Typeset at 100.0 points</text>
  <text style="stroke:none;fill:black;font-family:sans-serif;font-size:13;" transform="matrix(1 0 0 1 263 726)">Small</text>
  <text style="stroke:none;fill:black;font-family:sans-serif;font-size:13;" transform="matrix(1 0 0 1 263 1156)">Medium</text>
  <text style="stroke:none;fill:black;font-family:sans-serif;font-size:13;" transform="matrix(1 0 0 1 263 1586)">Large</text>
 </g>
 <g id="Guides">
  <g id="H-reference" style="fill:#27AAE1;stroke:none;" transform="matrix(1 0 0 1 339 696)">
   <path d="M0.993654 0L3.63775 0L29.3281-67.1323L30.0303-67.1323L30.0303-70.459L28.1226-70.459ZM11.6885-24.4799L46.9815-24.4799L46.2315-26.7285L12.4385-26.7285ZM55.1196 0L57.7637 0L30.6382-70.459L29.4326-70.459L29.4326-67.1323Z"/>
  </g>
  <line id="Baseline-S" style="fill:none;stroke:#27AAE1;opacity:1;stroke-width:0.5;" x1="263" x2="3036" y1="696" y2="696"/>
  <line id="Capline-S" style="fill:none;stroke:#27AAE1;opacity:1;stroke-width:0.5;" x1="263" x2="3036" y1="625.541" y2="625.541"/>
  <g id="H-reference" style="fill:#27AAE1;stroke:none;" transform="matrix(1 0 0 1 339 1126)">
   <path d="M0.993654 0L3.63775 0L29.3281-67.1323L30.0303-67.1323L30.0303-70.459L28.1226-70.459ZM11.6885-24.4799L46.9815-24.4799L46.2315-26.7285L12.4385-26.7285ZM55.1196 0L57.7637 0L30.6382-70.459L29.4326-70.459L29.4326-67.1323Z"/>
  </g>
  <line id="Baseline-M" style="fill:none;stroke:#27AAE1;opacity:1;stroke-width:0.5;" x1="263" x2="3036" y1="1126" y2="1126"/>
  <line id="Capline-M" style="fill:none;stroke:#27AAE1;opacity:1;stroke-width:0.5;" x1="263" x2="3036" y1="1055.54" y2="1055.54"/>
  <g id="H-reference" style="fill:#27AAE1;stroke:none;" transform="matrix(1 0 0 1 339 1556)">
   <path d="M0.993654 0L3.63775 0L29.3281-67.1323L30.0303-67.1323L30.0303-70.459L28.1226-70.459ZM11.6885-24.4799L46.9815-24.4799L46.2315-26.7285L12.4385-26.7285ZM55.1196 0L57.7637 0L30.6382-70.459L29.4326-70.459L29.4326-67.1323Z"/>
  </g>
  <line id="Baseline-L" style="fill:none;stroke:#27AAE1;opacity:1;stroke-width:0.5;" x1="263" x2="3036" y1="1556" y2="1556"/>
  <line id="Capline-L" style="fill:none;stroke:#27AAE1;opacity:1;stroke-width:0.5;" x1="263" x2="3036" y1="1485.54" y2="1485.54"/>
  <line id="right-margin-Black-S" style="fill:none;stroke:#00AEEF;stroke-width:0.5;opacity:1.0;" x1="2982.23" x2="2982.23" y1="600.785" y2="720.121"/>
  <line id="left-margin-Black-S" style="fill:none;stroke:#00AEEF;stroke-width:0.5;opacity:1.0;" x1="2884.57" x2="2884.57" y1="600.785" y2="720.121"/>
  <line id="right-margin-Regular-S" style="fill:none;stroke:#00AEEF;stroke-width:0.5;opacity:1.0;" x1="1496.11" x2="1496.11" y1="600.785" y2="720.121"/>
  <line id="left-margin-Regular-S" style="fill:none;stroke:#00AEEF;stroke-width:0.5;opacity:1.0;" x1="1403.58" x2="1403.58" y1="600.785" y2="720.121"/>
  <line id="right-margin-Ultralight-S" style="fill:none;stroke:#00AEEF;stroke-width:0.5;opacity:1.0;" x1="603.773" x2="603.773" y1="600.785" y2="720.121"/>
  <line id="left-margin-Ultralight-S" style="fill:none;stroke:#00AEEF;stroke-width:0.5;opacity:1.0;" x1="515.649" x2="515.649" y1="600.785" y2="720.121"/>
 </g>
 <g id="Symbols">
  <g id="Black-S" transform="matrix(1 0 0 1 2884.57 696)">
   <path class="monochrome-0 multicolor-0:tintColor hierarchical-0:primary SFSymbolsPreviewWireframe" d="M59.212-21.3037C59.2764-21.2602 59.3142-21.217 59.3638-21.2025C59.811-21.0582 60.2544-20.8522 60.7133-20.8052C60.9787-20.7836 61.3159-20.964 61.5321-21.1664C61.9606-21.5567 62.3095-22.0514 62.7264-22.4597C63.0448-22.7704 63.4164-23.0195 63.7727-23.2796C64.4096-23.7492 65.0504-23.482 65.6835-23.258C65.7443-23.24 65.7974-23.1823 65.8388-23.1278C65.9679-22.9834 65.9301-22.8461 65.7443-22.8101C65.6191-22.7849 65.4903-22.7849 65.365-22.763C65.0161-22.6943 64.6523-22.6583 64.3187-22.5355C64.1442-22.4704 64.0115-22.2573 63.8788-22.0949C63.8601-22.0695 63.9358-21.8961 63.9928-21.878C64.4666-21.7191 64.9404-21.5493 65.4446-21.6721C65.6077-21.7082 65.7592-21.7988 65.9149-21.8564C66.1877-21.9576 66.4609-22.0588 66.7337-22.1526C66.7952-22.1745 66.8621-22.1809 66.9269-22.1707C67.3214-22.0985 67.7117-22.0082 68.1062-21.9431C68.2602-21.9194 68.4024-21.8497 68.5121-21.7436C68.6218-21.6378 68.6936-21.5015 68.7163-21.3543C68.7428-21.217 68.7619-21.0943 68.5422-21.1594C68.3373-21.2206 68.1211-21.2206 67.9088-21.2386C67.8709-21.2386 67.8143-21.1955 67.7952-21.1594C67.5829-20.7691 67.2188-20.78 66.8664-20.6895C66.3735-20.5631 65.9035-20.3501 65.4259-20.1622C65.3423-20.1261 65.2815-20.032 65.187-19.9453C65.5203-19.8661 65.8087-19.7939 66.1006-19.7288C66.1424-19.7178 66.199-19.7288 66.2255-19.7072C66.3243-19.6205 66.4152-19.5264 66.5061-19.4287C66.4078-19.4 66.3129-19.3494 66.2142-19.3459C65.422-19.3374 64.6297-19.3374 63.8371-19.3459C63.6099-19.3494 63.5151-19.2663 63.5264-19.0207C63.5338-18.8618 63.5186-18.7026 63.4808-18.5476C63.4694-18.4861 63.3672-18.4209 63.295-18.4139C63.1347-18.4001 62.973-18.4036 62.8138-18.4245C62.5785-18.457 62.3435-18.5112 62.1085-18.5402C61.8053-18.5798 61.5095-18.6053 61.2098-18.6414C61.1227-18.6485 61.0357-18.6775 60.9483-18.6991C60.9104-18.7065 60.8648-18.7391 60.8269-18.7352C60.3457-18.6739 59.8602-18.6124 59.379-18.5331C59.3181-18.5257 59.2803-18.4209 59.2197-18.3739C59.1285-18.3017 59.0301-18.215 58.9278-18.1934C58.6699-18.1393 58.4045-18.1212 58.1391-18.0851C58.1126-18.0851 58.0634-18.0706 58.0595-18.0561C57.999-17.6227 57.4417-17.7851 57.3504-17.3842C57.3391-17.341 57.2216-17.33 57.1115-17.2869C57.1798-17.1821 57.2633-17.0954 57.309-16.9868C57.3543-16.8895 57.4035-16.7593 57.3769-16.6691C57.286-16.3439 57.3999-16.0657 57.6197-15.8237C57.8015-15.6213 57.9041-15.3287 58.0216-15.0651C58.1126-14.8701 58.1617-14.6567 58.2491-14.4582C58.4006-14.1185 58.5637-13.7827 58.7304-13.4466C58.7495-13.4144 58.8443-13.3818 58.8747-13.3999C59.2385-13.6239 59.6061-13.8478 59.9589-14.0969C60.2013-14.2703 60.4402-14.4582 60.6411-14.6857C60.7816-14.8411 60.8421-15.0796 60.9635-15.2565C61.047-15.3687 61.1758-15.4409 61.2859-15.5311C61.3276-15.5672 61.4072-15.5997 61.4108-15.6394C61.426-15.9214 61.6761-15.99 61.8202-16.1524C62.0668-16.4415 62.4118-16.3439 62.7111-16.3403C62.9539-16.3368 63.1966-16.2391 63.4316-16.1705C63.4885-16.1524 63.5529-16.0803 63.5756-16.0187C63.5834-15.99 63.5073-15.8994 63.4542-15.8779C63.3551-15.8354 63.2483-15.811 63.1397-15.8057C62.9235-15.8025 62.7143-15.7331 62.5424-15.6086C62.3704-15.4837 62.2448-15.3096 62.1843-15.1121C62.1255-14.9073 62.0222-14.7169 61.881-14.5523C61.7398-14.3882 61.5643-14.2541 61.3655-14.1585C61.1001-14.0318 60.8991-13.7611 60.6677-13.5587C60.5881-13.4901 60.501-13.4324 60.4136-13.3744C60.3758-13.3493 60.3191-13.3493 60.3-13.3203C60.213-13.183 60.1369-13.0421 60.0538-12.9048C60.1748-12.8978 60.3075-12.8542 60.4136-12.8903C60.6111-12.9554 60.7852-13.0782 60.9787-13.1543C61.0357-13.1794 61.1153-13.1217 61.1797-13.1072C61.2098-13.1578 61.2289-13.2445 61.2781-13.2697C61.5665-13.4144 61.8697-13.5227 62.1538-13.6745C62.4383-13.8259 62.6924-14.0679 62.9879-14.1585C63.3824-14.2778 63.5756-14.6206 63.8488-14.8736C63.9963-15.0109 64.1025-15.2024 64.2543-15.3287C64.6032-15.6142 65.02-15.4915 65.4106-15.4985C65.5469-15.4985 65.6873-15.5346 65.8123-15.4985C65.9566-15.4624 66.1042-15.3867 66.2142-15.282C66.2786-15.2169 66.3204-14.9929 66.2825-14.9639C66.1424-14.8485 65.9566-14.6932 65.8087-14.7148C65.5433-14.7509 65.4446-14.6426 65.2967-14.4473C65.1109-14.2017 64.8569-14.0173 64.6258-13.8188C64.2203-13.4611 63.8297-13.0747 63.3937-12.775C62.9082-12.4424 62.3814-12.1897 61.8658-11.9077C61.6231-11.7778 61.3729-11.6551 61.1153-11.5468C60.9709-11.4887 60.8082-11.4742 60.6525-11.4417C60.6033-11.4311 60.5541-11.413 60.5085-11.3985L60.5276-11.2828L61.4829-11.4742C61.7405-11.5213 61.9985-11.5539 62.2526-11.6045C62.4422-11.6405 62.6393-11.6766 62.8212-11.7382C63.1538-11.867 63.514-11.9165 63.8714-11.8826C64.1973-11.8465 64.5271-11.8536 64.8455-11.7888C64.9669-11.7633 65.1109-11.6009 65.1488-11.4707C65.187-11.3444 65.1223-11.1455 65.0352-11.0447C64.9935-10.9866 64.8077-11.0263 64.6941-11.0663C64.4135-11.1565 64.1368-11.2828 63.8753-11.0408C63.7957-10.9686 63.7653-10.8242 63.6856-10.752C63.5756-10.6615 63.4316-10.5351 63.318-10.5532C62.4688-10.6869 61.6344-10.4414 60.7929-10.4629C60.3913-10.4806 59.9933-10.5426 59.6061-10.6473C59.4204-10.694 59.2764-10.8999 59.0906-10.9541C58.718-11.0779 58.333-11.1664 57.942-11.2181C57.3582-11.2828 56.7665-11.2793 56.1753-11.3369C55.8416-11.3734 55.5157-11.4962 55.182-11.5323C54.6626-11.5829 54.1431-11.5935 53.6276-11.6154C53.2486-11.6335 53.2334-11.6621 53.2107-12.0524C53.1987-12.2028 53.1421-12.3468 53.0476-12.4678C52.9039-12.6363 52.7383-12.787 52.5547-12.9158C52.479-12.9699 52.3537-12.9809 52.2628-12.9625C51.8077-12.8797 51.353-12.7675 50.898-12.6918C50.6326-12.6448 50.3633-12.6483 50.0979-12.6377C50.0562-12.6377 50.0148-12.6738 49.973-12.6883C49.9957-12.7389 50.0109-12.8001 50.0449-12.8327C50.0972-12.8815 50.1631-12.9155 50.2345-12.9303C50.4808-12.9519 50.6365-13.0857 50.7766-13.2951C50.8753-13.4466 51.0346-13.6564 51.1634-13.6564C51.732-13.6384 52.2932-13.6564 52.8541-13.8008C52.9301-13.8188 53.0324-13.7141 53.1194-13.6745C53.2143-13.6309 53.3091-13.5948 53.4078-13.5623C53.6049-13.4936 53.8133-13.4466 54.003-13.3599C54.2114-13.2626 54.405-13.1359 54.6021-13.017C54.7765-12.9158 54.9357-12.7891 55.1098-12.6954C55.2206-12.6349 55.3434-12.597 55.47-12.5835C55.9024-12.5471 56.3345-12.4969 56.763-12.511C56.907-12.5149 57.051-12.6918 57.1724-12.8146C57.195-12.8362 57.1115-12.9699 57.0889-13.0566C57.0623-13.1578 57.0662-13.2732 57.0245-13.3673C56.9144-13.62 56.7591-13.862 56.6756-14.126C56.5468-14.5304 56.4711-14.9494 56.3536-15.3542C56.251-15.6974 56.1526-16.0403 55.8908-16.3078C55.7963-16.4054 55.8228-16.64 55.7963-16.8134L55.7393-17.1241C55.6519-17.088 55.5574-17.0735 55.4778-17.0268C55.2011-16.8569 55.0567-16.893 54.9092-17.1892C54.7648-17.4709 54.5525-17.5431 54.3367-17.323C54.0865-17.07 53.8891-16.7593 53.6541-16.4847C53.5027-16.3007 53.3356-16.1054 53.146-15.9681C53.0097-15.8669 52.8771-15.9536 52.8618-16.1595C52.8466-16.398 52.8771-16.6075 53.0476-16.7989C53.146-16.9075 53.1385-17.117 53.2295-17.2433C53.457-17.5685 53.6959-17.8792 53.9499-18.1718C54.0256-18.2621 54.1774-18.2766 54.2871-18.3343C54.4881-18.439 54.6891-18.5437 54.8827-18.6665C54.9127-18.6846 54.9127-18.8003 54.8901-18.8544C54.8331-19.02 54.762-19.1807 54.6778-19.3349C54.5603-19.5444 54.4428-19.7719 54.2797-19.9382C53.9446-20.3016 53.7192-20.7447 53.6276-21.2206C53.5897-21.3833 53.4153-21.5132 53.2865-21.6395C53.1789-21.7478 53.0565-21.8412 52.9223-21.9177C52.2628-22.2864 51.5802-22.5464 50.8145-22.4668C50.6857-22.4523 50.5339-22.539 50.409-22.6115C49.9161-22.9113 49.4536-23.287 48.9341-23.511C48.4147-23.735 47.8234-23.7746 47.2888-23.9731C46.3638-24.3199 45.4084-24.2081 44.4644-24.2658C43.6919-24.3121 42.9177-24.3252 42.1442-24.3058C41.3579-24.2838 40.5728-24.2382 39.7898-24.1685C39.1681-24.1143 38.5388-24.0673 37.9284-23.9371C37.3356-23.816 36.7594-23.6306 36.211-23.3843C35.2404-22.9328 34.3002-22.4056 33.3448-21.9177C32.8027-21.6395 32.2454-21.3904 31.7146-21.1013C31.2521-20.8487 30.8199-20.5451 30.365-20.2885C29.929-20.043 29.4931-19.7974 29.0343-19.606C28.5377-19.4 28.0069-19.2808 27.5102-19.0784C27.1577-18.934 26.843-18.6955 26.5056-18.5112C26.1331-18.3045 25.7551-18.1071 25.3721-17.9188C24.974-17.7274 24.5683-17.5289 24.1551-17.3771C23.8821-17.2759 23.5864-17.2398 23.2983-17.1892C23.0746-17.1457 22.8774-17.1892 22.7486-17.4203C22.6576-17.5866 22.5514-17.7384 22.4718-17.9082C22.3315-18.2185 22.5855-18.4464 22.631-18.7171C22.6765-18.9701 22.832-19.0172 23.0101-19.1109C23.2224-19.2192 23.3817-19.4361 23.5826-19.5699C23.9162-19.7864 24.2726-19.9673 24.6024-20.1912C24.9133-20.4043 25.209-20.6498 25.5123-20.8773C25.5957-20.9389 25.6943-20.9931 25.7891-21.0472C25.9824-21.1594 26.1758-21.2821 26.3767-21.3795C26.5776-21.4771 26.7937-21.5387 26.9947-21.6395C27.5254-21.907 28.0638-22.1707 28.5907-22.4597C29.0457-22.7124 29.5082-22.9654 29.9328-23.2725C30.2361-23.4891 30.4749-23.7927 30.7441-24.0528C30.9413-24.2442 31.146-24.4285 31.3431-24.6164C31.4872-24.7608 31.6161-24.9232 31.7715-25.0499C32.2796-25.4614 32.7876-25.8733 33.3107-26.2636C33.9401-26.7331 34.577-27.1811 35.2177-27.6362C35.8736-28.1022 36.537-28.5611 37.1967-29.0197C37.4697-29.2111 37.7502-29.3884 38.0194-29.5869C38.0724-29.6304 38.0876-29.7423 38.1103-29.8219C38.1217-29.8615 38.1028-29.9156 38.118-29.9517C38.2772-30.2624 38.444-30.566 38.5956-30.8838C38.6639-31.0175 38.6714-31.2015 38.7587-31.3066C39.0998-31.7075 39.4714-32.0904 39.8316-32.4768C39.8808-32.5238 39.9453-32.5564 39.9832-32.6105C40.3017-32.9969 40.605-33.3982 40.9273-33.7772C41.1927-34.0953 41.5034-34.3769 41.7613-34.7021C42.1481-35.1933 42.4966-35.7173 42.8795-36.2084C43.1183-36.512 43.418-36.7647 43.653-37.0683C43.9562-37.4621 44.2216-37.8917 44.5174-38.2965C44.6692-38.4989 44.8585-38.6684 45.033-38.8563L45.3932-39.2756C45.4919-39.3874 45.5942-39.4921 45.6965-39.6004C45.7191-39.6223 45.7534-39.633 45.7722-39.6584C46.0376-40.0268 46.2955-40.4061 46.5761-40.7639C46.7428-40.9804 46.9551-41.1612 47.1256-41.3778C47.3723-41.6739 47.5959-41.9921 47.8386-42.2953C48.035-42.5501 48.2424-42.7974 48.4603-43.0359C48.8015-43.3972 49.1578-43.7404 49.5067-44.0907L50.8941-45.4743C51.1973-45.774 51.4932-46.0848 51.8077-46.3666C52.02-46.5508 52.278-46.6736 52.4903-46.8614C52.9415-47.248 53.3887-47.6417 53.8094-48.068C54.0865-48.3461 54.3137-48.6821 54.5677-48.9964L54.7082-49.1698C54.9432-49.4551 55.1972-49.7261 55.4095-50.0259C55.6887-50.4231 55.9516-50.8304 56.1979-51.2469C56.5429-51.8249 56.8805-52.4101 57.2064-53.0025C57.54-53.6022 57.8472-54.2199 58.1922-54.8087C58.5411-55.4084 58.9239-55.9827 59.2916-56.568C59.4129-56.7667 59.5039-56.987 59.6405-57.1749C59.8415-57.453 60.0651-57.7059 60.2774-57.9696C60.7399-58.5512 61.3389-58.9305 61.9529-59.2809C62.2069-59.4254 62.5102-59.4651 62.7947-59.541C63.1888-59.6493 63.5869-59.7613 63.985-59.8408C64.387-59.9167 64.7889-59.9925 65.1944-60C65.5394-60.007 65.8919-59.8552 66.2294-59.8841C66.9612-59.9456 67.6321-59.6132 68.3412-59.5699C69.011-59.5307 69.6571-59.3184 70.2102-58.9558C70.4678-58.7896 70.6801-58.544 70.9267-58.3453C71.0973-58.208 71.3022-58.1105 71.4727-57.9659C71.7303-57.7492 71.9692-57.5108 72.2193-57.2868C72.2689-57.2399 72.3255-57.1857 72.3864-57.1785C73.3265-57.1134 74.2706-57.0593 75.2147-56.9906C75.3169-56.9834 75.4914-56.9364 75.5027-56.875C75.5214-56.7739 75.4761-56.5932 75.4004-56.5427C75.1994-56.409 74.9719-56.3295 74.7557-56.2248C74.5852-56.1453 74.4068-56.0803 74.2515-55.9719C73.9861-55.7913 73.732-55.5854 73.4819-55.3795C73.3492-55.2711 73.2356-55.1374 73.1103-55.0182C72.9019-54.8087 72.6935-54.5956 72.4812-54.3933C72.081-54.0229 71.805-53.5477 71.6886-53.0278C71.5789-52.5618 71.4158-52.1103 71.3022-51.6479C71.2148-51.3083 71.1504-50.9579 71.1164-50.6075C71.0708-50.1307 71.0594-49.6502 71.0403-49.1698C71.0216-48.7724 70.972-48.3751 71.0138-47.9849C71.0782-47.4105 71.3209-46.8976 71.5824-46.3955C71.7229-46.1353 71.8099-45.8426 71.9426-45.5825C72.0223-45.4237 72.1627-45.3044 72.2576-45.1491C72.3333-45.0337 72.3825-44.8964 72.4355-44.7662C72.576-44.423 72.7388-44.0872 72.8414-43.733C72.9359-43.3972 73.0081-43.043 73.012-42.6962C73.012-42.2447 72.9132-41.7932 72.9019-41.3381C72.8828-40.3951 72.8828-39.4525 72.9019-38.5095C72.9093-37.9603 72.7653-37.4547 72.6213-36.942C72.4812-36.4324 72.375-35.9123 72.2537-35.3957C72.2423-35.3596 72.2423-35.316 72.231-35.2838C72.0414-34.7778 71.8517-34.2722 71.6698-33.763C71.518-33.3295 71.3209-32.9067 71.23-32.4587C71.0934-31.7832 70.7297-31.245 70.4338-30.6598C70.0697-29.9411 69.6908-29.2292 69.3118-28.5176C69.1561-28.2214 69.0085-27.9143 68.8037-27.6581C68.5687-27.369 68.2803-27.127 68.0075-26.8775C67.7687-26.661 67.5146-26.466 67.2719-26.2562C66.9952-26.0141 66.711-25.776 66.4456-25.5195C66.0929-25.1798 65.7744-24.8004 65.4106-24.4827C65.1403-24.2325 64.8116-24.0467 64.4514-23.9406C64.1442-23.8578 63.8714-23.6083 63.5795-23.4424C63.4203-23.3483 63.2458-23.2761 63.0791-23.1823C62.9273-23.0956 62.7872-22.9799 62.6241-22.9077C62.3814-22.792 62.1238-22.7018 61.8732-22.6006C61.8506-22.5935 61.8241-22.5935 61.8014-22.579C61.3842-22.3621 60.9674-22.1381 60.5502-21.9286C60.2961-21.8094 60.0233-21.7301 59.7693-21.6144C59.5874-21.5313 59.4204-21.423 59.212-21.3037Z"/>
   <path class="monochrome-1 multicolor-1:tintColor hierarchical-1:tertiary SFSymbolsPreviewWireframe" d="M48.9411-84C55.3091-84.0013 61.615-82.7479 67.4985-80.3116C73.382-77.8752 78.7279-74.3036 83.2305-69.8009C87.7334-65.2983 91.305-59.9524 93.7418-54.0682C96.1779-48.1846 97.4312-41.8789 97.43-35.5124C97.43-8.72255 75.7254 13 48.9424 13C22.156 13 0.43-8.726 0.43-35.5124C0.43-62.2926 22.1539-84 48.9411-84ZM48.9424-70C29.8835-70 14.43-54.5582 14.43-35.5124C14.43-16.458 29.888-0.999999 48.9424-0.999999C67.9909-0.999999 83.43-16.4519 83.43-35.5138C83.4309-40.0428 82.5395-44.5276 80.8069-48.7121C79.0739-52.8969 76.5337-56.6989 73.3311-59.9013C70.1287-63.1038 66.3266-65.644 62.1422-67.3767C57.9578-69.1095 53.4729-70.0009 48.9424-70Z"/>
  </g>
  <g id="Regular-S" transform="matrix(1 0 0 1 1403.58 696)">
   <path class="monochrome-0 multicolor-0:tintColor hierarchical-0:primary SFSymbolsPreviewWireframe" d="M56.202-22.3037C56.2664-22.2602 56.3043-22.217 56.3538-22.2025C56.8011-22.0581 57.2444-21.8522 57.7034-21.8051C57.9688-21.7835 58.306-21.964 58.5222-22.1664C58.9507-22.5567 59.2996-23.0514 59.7164-23.4597C60.0349-23.7704 60.4064-24.0195 60.7627-24.2796C61.3996-24.7491 62.0405-24.482 62.6735-24.258C62.7344-24.2399 62.7874-24.1823 62.8288-24.1278C62.958-23.9834 62.9201-23.8461 62.7344-23.81C62.6091-23.7849 62.4803-23.7849 62.355-23.763C62.0061-23.6943 61.6424-23.6582 61.3087-23.5354C61.1343-23.4703 61.0016-23.2573 60.8689-23.0949C60.8501-23.0694 60.9258-22.896 60.9828-22.878C61.4566-22.7191 61.9304-22.5493 62.4346-22.672C62.5978-22.7081 62.7492-22.7987 62.9049-22.8564C63.1777-22.9576 63.4509-23.0588 63.7237-23.1526C63.7853-23.1745 63.8522-23.1809 63.9169-23.1706C64.3114-23.0984 64.7017-23.0082 65.0963-22.9431C65.2502-22.9194 65.3924-22.8497 65.5021-22.7435C65.6118-22.6377 65.6837-22.5015 65.7063-22.3543C65.7328-22.217 65.752-22.0942 65.5322-22.1593C65.3273-22.2205 65.1111-22.2205 64.8988-22.2386C64.861-22.2386 64.8044-22.1954 64.7852-22.1593C64.5729-21.769 64.2088-21.78 63.8564-21.6894C63.3635-21.5631 62.8936-21.3501 62.4159-21.1622C62.3324-21.1261 62.2715-21.032 62.177-20.9453C62.5104-20.866 62.7988-20.7938 63.0907-20.7287C63.1324-20.7178 63.189-20.7287 63.2156-20.7071C63.3143-20.6204 63.4052-20.5263 63.4962-20.4287C63.3978-20.4 63.303-20.3494 63.2043-20.3459C62.412-20.3374 61.6197-20.3374 60.8271-20.3459C60.6-20.3494 60.5051-20.2662 60.5164-20.0207C60.5239-19.8618 60.5087-19.7026 60.4708-19.5476C60.4595-19.486 60.3572-19.4209 60.285-19.4138C60.1247-19.4 59.963-19.4036 59.8038-19.4244C59.5685-19.457 59.3335-19.5111 59.0986-19.5402C58.7953-19.5798 58.4995-19.6053 58.1998-19.6414C58.1128-19.6484 58.0257-19.6774 57.9383-19.699C57.9005-19.7065 57.8548-19.739 57.817-19.7351C57.3357-19.6739 56.8502-19.6123 56.369-19.5331C56.3082-19.5256 56.2703-19.4209 56.2098-19.3738C56.1185-19.3017 56.0201-19.215 55.9179-19.1934C55.6599-19.1392 55.3945-19.1212 55.1291-19.0851C55.1026-19.0851 55.0534-19.0706 55.0495-19.0561C54.989-18.6226 54.4317-18.785 54.3404-18.3841C54.3291-18.341 54.2116-18.33 54.1016-18.2868C54.1699-18.1821 54.2534-18.0954 54.299-17.9868C54.3443-17.8895 54.3935-17.7592 54.367-17.669C54.276-17.3438 54.39-17.0657 54.6097-16.8237C54.7916-16.6213 54.8942-16.3286 55.0117-16.065C55.1026-15.8701 55.1518-15.6567 55.2392-15.4582C55.3906-15.1185 55.5538-14.7827 55.7204-14.4465C55.7395-14.4143 55.8344-14.3818 55.8648-14.3998C56.2285-14.6238 56.5962-14.8478 56.949-15.0969C57.1914-15.2703 57.4302-15.4582 57.6312-15.6857C57.7717-15.841 57.8322-16.0795 57.9535-16.2565C58.037-16.3686 58.1658-16.4408 58.2759-16.531C58.3176-16.5671 58.3973-16.5997 58.4008-16.6393C58.416-16.9213 58.6662-16.99 58.8102-17.1524C59.0568-17.4415 59.4018-17.3438 59.7012-17.3403C59.9439-17.3368 60.1867-17.2391 60.4216-17.1704C60.4786-17.1524 60.543-17.0802 60.5656-17.0186C60.5734-16.99 60.4973-16.8994 60.4443-16.8778C60.3452-16.8354 60.2383-16.8109 60.1297-16.8056C59.9135-16.8024 59.7044-16.7331 59.5324-16.6085C59.3604-16.4836 59.2348-16.3095 59.1743-16.1121C59.1156-15.9072 59.0122-15.7168 58.8711-15.5523C58.7299-15.3881 58.5544-15.254 58.3555-15.1585C58.0901-15.0318 57.8891-14.7611 57.6577-14.5587C57.5781-14.4901 57.4911-14.4324 57.4037-14.3744C57.3658-14.3492 57.3092-14.3492 57.2901-14.3202C57.203-14.1829 57.127-14.0421 57.0438-13.9048C57.1648-13.8977 57.2975-13.8542 57.4037-13.8903C57.6011-13.9554 57.7752-14.0782 57.9688-14.1543C58.0257-14.1794 58.1053-14.1217 58.1697-14.1072C58.1998-14.1578 58.2189-14.2445 58.2681-14.2696C58.5565-14.4143 58.8597-14.5226 59.1439-14.6744C59.4284-14.8259 59.6824-15.0679 59.9779-15.1585C60.3724-15.2777 60.5656-15.6206 60.8388-15.8736C60.9864-16.0109 61.0925-16.2023 61.2443-16.3286C61.5932-16.6142 62.01-16.4914 62.4007-16.4985C62.5369-16.4985 62.6774-16.5346 62.8023-16.4985C62.9467-16.4624 63.0942-16.3867 63.2043-16.2819C63.2687-16.2168 63.3104-15.9928 63.2726-15.9638C63.1324-15.8485 62.9467-15.6931 62.7988-15.7147C62.5334-15.7508 62.4346-15.6425 62.2867-15.4472C62.101-15.2016 61.8469-15.0173 61.6158-14.8188C61.2103-14.461 60.8197-14.0746 60.3838-13.7749C59.8983-13.4423 59.3714-13.1897 58.8558-12.9077C58.6131-12.7778 58.3629-12.655 58.1053-12.5467C57.961-12.4887 57.7982-12.4742 57.6425-12.4416C57.5933-12.431 57.5441-12.413 57.4985-12.3985L57.5176-12.2828L58.473-12.4742C58.7306-12.5213 58.9885-12.5538 59.2426-12.6044C59.4323-12.6405 59.6294-12.6766 59.8112-12.7382C60.1438-12.867 60.5041-12.9165 60.8614-12.8825C61.1873-12.8464 61.5171-12.8535 61.8356-12.7888C61.957-12.7633 62.101-12.6009 62.1388-12.4707C62.177-12.3443 62.1123-12.1455 62.0252-12.0446C61.9835-11.9866 61.7977-12.0262 61.6841-12.0662C61.4035-12.1564 61.1268-12.2828 60.8653-12.0407C60.7857-11.9686 60.7553-11.8242 60.6757-11.752C60.5656-11.6614 60.4216-11.5351 60.308-11.5531C59.4588-11.6869 58.6244-11.4413 57.783-11.4629C57.3814-11.4806 56.9833-11.5425 56.5962-11.6473C56.4104-11.694 56.2664-11.8999 56.0806-11.954C55.708-12.0779 55.323-12.1664 54.932-12.218C54.3482-12.2828 53.7566-12.2792 53.1653-12.3369C52.8316-12.3734 52.5057-12.4961 52.172-12.5322C51.6526-12.5828 51.1332-12.5934 50.6176-12.6154C50.2386-12.6334 50.2234-12.6621 50.2008-13.0524C50.1887-13.2028 50.1321-13.3468 50.0376-13.4678C49.894-13.6362 49.7284-13.787 49.5447-13.9158C49.469-13.9699 49.3438-13.9809 49.2528-13.9625C48.7978-13.8797 48.3431-13.7675 47.888-13.6918C47.6226-13.6447 47.3534-13.6483 47.088-13.6376C47.0462-13.6376 47.0048-13.6737 46.9631-13.6882C46.9857-13.7388 47.0009-13.8001 47.0349-13.8326C47.0873-13.8814 47.1531-13.9154 47.2246-13.9303C47.4708-13.9519 47.6265-14.0856 47.7667-14.2951C47.8654-14.4465 48.0246-14.6564 48.1534-14.6564C48.722-14.6383 49.2832-14.6564 49.8441-14.8007C49.9202-14.8188 50.0224-14.714 50.1095-14.6744C50.2043-14.6309 50.2991-14.5948 50.3979-14.5622C50.595-14.4936 50.8034-14.4465 50.993-14.3598C51.2014-14.2625 51.395-14.1359 51.5921-14.017C51.7665-13.9158 51.9258-13.7891 52.0999-13.6953C52.2106-13.6348 52.3334-13.597 52.4601-13.5835C52.8925-13.5471 53.3245-13.4968 53.753-13.511C53.897-13.5149 54.0411-13.6918 54.1624-13.8146C54.1851-13.8362 54.1016-13.9699 54.0789-14.0566C54.0524-14.1578 54.0563-14.2732 54.0145-14.3673C53.9045-14.6199 53.7491-14.862 53.6656-15.1259C53.5368-15.5304 53.4611-15.9493 53.3436-16.3541C53.241-16.6974 53.1426-17.0402 52.8808-17.3077C52.7863-17.4054 52.8129-17.64 52.7863-17.8134L52.7294-18.1241C52.642-18.088 52.5475-18.0735 52.4679-18.0268C52.1912-17.8569 52.0468-17.893 51.8992-18.1892C51.7549-18.4708 51.5426-18.543 51.3267-18.3229C51.0765-18.0699 50.8791-17.7592 50.6441-17.4847C50.4927-17.3007 50.3257-17.1053 50.136-16.968C49.9998-16.8668 49.8671-16.9535 49.8519-17.1595C49.8367-17.398 49.8671-17.6074 50.0376-17.7989C50.136-17.9075 50.1286-18.117 50.2195-18.2433C50.447-18.5685 50.6859-18.8792 50.94-19.1718C51.0157-19.262 51.1675-19.2765 51.2772-19.3342C51.4782-19.439 51.6791-19.5437 51.8727-19.6665C51.9028-19.6845 51.9028-19.8002 51.8801-19.8544C51.8232-20.02 51.752-20.1806 51.6678-20.3349C51.5503-20.5444 51.4329-20.7719 51.2697-20.9382C50.9346-21.3016 50.7092-21.7446 50.6176-22.2205C50.5797-22.3833 50.4053-22.5132 50.2765-22.6395C50.1689-22.7478 50.0465-22.8412 49.9124-22.9176C49.2528-23.2863 48.5702-23.5464 47.8045-23.4668C47.6757-23.4523 47.5239-23.539 47.399-23.6115C46.9061-23.9112 46.4436-24.287 45.9242-24.511C45.4047-24.735 44.8135-24.7746 44.2788-24.9731C43.3538-25.3199 42.3985-25.2081 41.4544-25.2657C40.682-25.3121 39.9077-25.3252 39.1342-25.3057C38.348-25.2838 37.5628-25.2381 36.7799-25.1684C36.1581-25.1143 35.5288-25.0672 34.9184-24.937C34.3257-24.816 33.7494-24.6306 33.201-24.3843C32.2305-23.9328 31.2903-23.4056 30.3349-22.9176C29.7928-22.6395 29.2355-22.3904 28.7047-22.1013C28.2422-21.8486 27.81-21.545 27.355-21.2885C26.9191-21.0429 26.4831-20.7974 26.0243-20.6059C25.5277-20.4 24.9969-20.2808 24.5003-20.0784C24.1477-19.934 23.833-19.6955 23.4956-19.5111C23.1231-19.3045 22.7452-19.107 22.3621-18.9188C21.964-18.7274 21.5583-18.5289 21.1451-18.3771C20.8722-18.2759 20.5764-18.2398 20.2883-18.1892C20.0646-18.1456 19.8675-18.1892 19.7386-18.4202C19.6476-18.5865 19.5414-18.7383 19.4618-18.9082C19.3216-19.2185 19.5756-19.4464 19.6211-19.7171C19.6666-19.9701 19.822-20.0171 20.0002-20.1109C20.2125-20.2192 20.3717-20.4361 20.5727-20.5698C20.9063-20.7864 21.2626-20.9672 21.5925-21.1912C21.9033-21.4042 22.199-21.6498 22.5024-21.8773C22.5858-21.9389 22.6843-21.993 22.7791-22.0472C22.9724-22.1593 23.1658-22.2821 23.3667-22.3794C23.5677-22.4771 23.7838-22.5386 23.9847-22.6395C24.5155-22.907 25.0538-23.1706 25.5808-23.4597C26.0357-23.7124 26.4982-23.9654 26.9229-24.2725C27.2261-24.489 27.465-24.7926 27.7342-25.0527C27.9313-25.2442 28.136-25.4285 28.3332-25.6164C28.4772-25.7608 28.6061-25.9232 28.7616-26.0499C29.2696-26.4614 29.7776-26.8733 30.3008-27.2636C30.9301-27.7331 31.567-28.1811 32.2077-28.6361C32.8636-29.1021 33.5271-29.5611 34.1867-30.0197C34.4597-30.2111 34.7402-30.3884 35.0094-30.5869C35.0625-30.6304 35.0777-30.7422 35.1004-30.8218C35.1118-30.8615 35.0928-30.9156 35.108-30.9517C35.2672-31.2624 35.434-31.566 35.5857-31.8837C35.6539-32.0175 35.6615-32.2015 35.7487-32.3066C36.0899-32.7075 36.4614-33.0903 36.8216-33.4767C36.8709-33.5238 36.9353-33.5564 36.9732-33.6105C37.2918-33.9969 37.595-34.3982 37.9174-34.7771C38.1827-35.0952 38.4934-35.3769 38.7514-35.7021C39.1381-36.1932 39.4867-36.7173 39.8695-37.2084C40.1084-37.512 40.4081-37.7646 40.643-38.0682C40.9463-38.4621 41.2117-38.8916 41.5075-39.2964C41.6593-39.4988 41.8486-39.6683 42.023-39.8562L42.3832-40.2755C42.482-40.3874 42.5842-40.4921 42.6865-40.6004C42.7091-40.6223 42.7435-40.6329 42.7622-40.6584C43.0276-41.0268 43.2856-41.4061 43.5662-41.7638C43.7328-41.9804 43.9451-42.1612 44.1157-42.3777C44.3623-42.6739 44.5859-42.992 44.8287-43.2953C45.0251-43.55 45.2324-43.7974 45.4504-44.0359C45.7915-44.3971 46.1478-44.7404 46.4967-45.0907L47.8841-46.4742C48.1874-46.7739 48.4832-47.0847 48.7978-47.3665C49.0101-47.5507 49.268-47.6736 49.4803-47.8614C49.9315-48.2479 50.3788-48.6417 50.7995-49.0679C51.0765-49.3461 51.3037-49.682 51.5578-49.9963L51.6982-50.1697C51.9332-50.4551 52.1873-50.726 52.3996-51.0259C52.6788-51.4231 52.9417-51.8304 53.1879-52.2469C53.5329-52.8248 53.8705-53.4101 54.1964-54.0025C54.5301-54.6021 54.8372-55.2199 55.1822-55.8087C55.5311-56.4083 55.914-56.9827 56.2816-57.5679C56.403-57.7666 56.4939-57.987 56.6305-58.1748C56.8315-58.453 57.0551-58.7058 57.2674-58.9696C57.7299-59.5511 58.329-59.9304 58.9429-60.2808C59.197-60.4253 59.5002-60.4651 59.7847-60.5409C60.1789-60.6493 60.577-60.7613 60.975-60.8408C61.377-60.9166 61.779-60.9925 62.1845-61C62.5295-61.0069 62.8819-60.8552 63.2195-60.8841C63.9512-60.9455 64.6221-60.6132 65.3312-60.5698C66.0011-60.5306 66.6472-60.3183 67.2002-59.9557C67.4578-59.7896 67.6702-59.5439 67.9168-59.3452C68.0873-59.2079 68.2922-59.1104 68.4628-58.9659C68.7204-58.7492 68.9592-58.5108 69.2094-58.2868C69.2589-58.2398 69.3155-58.1856 69.3764-58.1784C70.3166-58.1134 71.2606-58.0592 72.2047-57.9906C72.307-57.9833 72.4814-57.9364 72.4927-57.875C72.5115-57.7738 72.4662-57.5932 72.3905-57.5426C72.1895-57.409 71.962-57.3295 71.7458-57.2247C71.5752-57.1453 71.3969-57.0803 71.2415-56.9719C70.9761-56.7913 70.7221-56.5853 70.4719-56.3794C70.3392-56.2711 70.2256-56.1374 70.1004-56.0182C69.892-55.8087 69.6835-55.5956 69.4712-55.3933C69.071-55.0229 68.795-54.5476 68.6786-54.0278C68.5689-53.5618 68.4058-53.1102 68.2922-52.6478C68.2048-52.3083 68.1404-51.9579 68.1064-51.6075C68.0608-51.1306 68.0495-50.6502 68.0304-50.1697C68.0116-49.7724 67.9621-49.375 68.0038-48.9849C68.0682-48.4105 68.311-47.8975 68.5725-47.3954C68.7129-47.1353 68.8-46.8426 68.9327-46.5825C69.0123-46.4236 69.1528-46.3044 69.2476-46.149C69.3233-46.0337 69.3725-45.8964 69.4256-45.7662C69.5661-45.4229 69.7288-45.0871 69.8314-44.7329C69.9259-44.3971 69.9981-44.0429 70.002-43.6962C70.002-43.2447 69.9033-42.7932 69.892-42.3381C69.8728-41.3951 69.8728-40.4525 69.892-39.5095C69.8994-38.9603 69.7554-38.4546 69.6114-37.9419C69.4712-37.4324 69.3651-36.9122 69.2437-36.3956C69.2324-36.3595 69.2324-36.316 69.2211-36.2838C69.0314-35.7778 68.8417-35.2722 68.6599-34.763C68.5081-34.3295 68.311-33.9067 68.22-33.4587C68.0834-32.7832 67.7197-32.245 67.4239-31.6597C67.0598-30.9411 66.6808-30.2291 66.3018-29.5176C66.1461-29.2214 65.9986-28.9142 65.7937-28.6581C65.5588-28.369 65.2704-28.1269 64.9976-27.8775C64.7587-27.6609 64.5046-27.466 64.2619-27.2561C63.9852-27.0141 63.7011-26.776 63.4357-26.5194C63.0829-26.1797 62.7644-25.8004 62.4007-25.4826C62.1303-25.2325 61.8016-25.0467 61.4414-24.9406C61.1343-24.8578 60.8614-24.6083 60.5695-24.4423C60.4103-24.3482 60.2358-24.276 60.0692-24.1823C59.9174-24.0956 59.7773-23.9799 59.6141-23.9077C59.3714-23.792 59.1138-23.7017 58.8633-23.6005C58.8406-23.5935 58.8141-23.5935 58.7914-23.579C58.3743-23.362 57.9574-23.1381 57.5402-22.9286C57.2862-22.8093 57.0134-22.7301 56.7593-22.6144C56.5774-22.5312 56.4104-22.4229 56.202-22.3037Z"/>
   <path class="monochrome-1 multicolor-1:tintColor hierarchical-1:tertiary SFSymbolsPreviewWireframe" d="M46.4321-81.8365C52.4502-81.8377 58.4096-80.6532 63.9698-78.3508C69.53-76.0483 74.5822-72.6729 78.8374-68.4176C83.0928-64.1624 86.4682-59.1103 88.771-53.5496C91.0733-47.9892 92.2577-42.03 92.2566-36.0127C92.2566-10.693 71.744 9.83658 46.4328 9.83658C21.1173 9.83658 0.5835-10.6972 0.5835-36.0127C0.5835-61.3211 21.1145-81.8365 46.4321-81.8365ZM46.4328-75.0865C24.8413-75.0865 7.3335-57.592 7.3335-36.0127C7.3335-14.4252 24.8452 3.08658 46.4328 3.08658C68.0148 3.08658 85.5066-14.4197 85.5066-36.0133C85.5076-41.1447 84.4976-46.226 82.5345-50.9672C80.571-55.7085 77.693-60.0162 74.0644-63.6446C70.4361-67.273 66.1283-70.1511 61.3873-72.1143C56.6463-74.0776 51.5649-75.0875 46.4328-75.0865Z"/>
  </g>
  <g id="Ultralight-S" transform="matrix(1 0 0 1 515.649 696)">
   <path class="monochrome-0 multicolor-0:tintColor hierarchical-0:primary SFSymbolsPreviewWireframe" d="M54.133-23.3037C54.1974-23.2602 54.2353-23.217 54.2848-23.2025C54.7321-23.0581 55.1754-22.8522 55.6344-22.8051C55.8998-22.7835 56.237-22.964 56.4532-23.1664C56.8817-23.5567 57.2306-24.0514 57.6474-24.4597C57.9659-24.7704 58.3374-25.0195 58.6937-25.2796C59.3306-25.7491 59.9715-25.482 60.6045-25.258C60.6654-25.2399 60.7184-25.1823 60.7598-25.1278C60.889-24.9834 60.8511-24.8461 60.6654-24.81C60.5401-24.7849 60.4113-24.7849 60.286-24.763C59.9371-24.6943 59.5734-24.6582 59.2397-24.5354C59.0653-24.4703 58.9326-24.2573 58.7999-24.0949C58.7811-24.0694 58.8568-23.896 58.9138-23.878C59.3876-23.7191 59.8614-23.5493 60.3656-23.672C60.5288-23.7081 60.6802-23.7987 60.8359-23.8564C61.1087-23.9576 61.3819-24.0588 61.6547-24.1526C61.7163-24.1745 61.7832-24.1809 61.8479-24.1706C62.2424-24.0984 62.6327-24.0082 63.0273-23.9431C63.1812-23.9194 63.3234-23.8497 63.4331-23.7435C63.5428-23.6377 63.6147-23.5015 63.6373-23.3543C63.6638-23.217 63.683-23.0942 63.4632-23.1593C63.2583-23.2205 63.0421-23.2205 62.8298-23.2386C62.792-23.2386 62.7354-23.1954 62.7162-23.1593C62.5039-22.769 62.1398-22.78 61.7874-22.6894C61.2945-22.5631 60.8246-22.3501 60.3469-22.1622C60.2634-22.1261 60.2025-22.032 60.108-21.9453C60.4414-21.866 60.7298-21.7938 61.0217-21.7287C61.0634-21.7178 61.12-21.7287 61.1466-21.7071C61.2453-21.6204 61.3362-21.5263 61.4272-21.4287C61.3288-21.4 61.234-21.3494 61.1353-21.3459C60.343-21.3374 59.5507-21.3374 58.7581-21.3459C58.531-21.3494 58.4361-21.2662 58.4474-21.0207C58.4549-20.8618 58.4397-20.7026 58.4018-20.5476C58.3905-20.486 58.2882-20.4209 58.216-20.4138C58.0557-20.4 57.894-20.4036 57.7348-20.4244C57.4995-20.457 57.2645-20.5111 57.0296-20.5402C56.7263-20.5798 56.4305-20.6053 56.1308-20.6414C56.0438-20.6484 55.9567-20.6774 55.8693-20.699C55.8315-20.7065 55.7858-20.739 55.748-20.7351C55.2667-20.6739 54.7812-20.6123 54.3-20.5331C54.2392-20.5256 54.2013-20.4209 54.1408-20.3738C54.0495-20.3017 53.9511-20.215 53.8489-20.1934C53.5909-20.1392 53.3255-20.1212 53.0601-20.0851C53.0336-20.0851 52.9844-20.0706 52.9805-20.0561C52.92-19.6226 52.3627-19.785 52.2714-19.3841C52.2601-19.341 52.1426-19.33 52.0326-19.2868C52.1009-19.1821 52.1844-19.0954 52.23-18.9868C52.2753-18.8895 52.3245-18.7592 52.298-18.669C52.207-18.3438 52.321-18.0657 52.5407-17.8237C52.7226-17.6213 52.8252-17.3286 52.9427-17.065C53.0336-16.8701 53.0828-16.6567 53.1702-16.4582C53.3216-16.1185 53.4848-15.7827 53.6514-15.4465C53.6705-15.4143 53.7654-15.3818 53.7958-15.3998C54.1595-15.6238 54.5272-15.8478 54.88-16.0969C55.1224-16.2703 55.3612-16.4582 55.5622-16.6857C55.7027-16.841 55.7632-17.0795 55.8845-17.2565C55.968-17.3686 56.0968-17.4408 56.2069-17.531C56.2486-17.5671 56.3283-17.5997 56.3318-17.6393C56.347-17.9213 56.5972-17.99 56.7412-18.1524C56.9878-18.4415 57.3328-18.3438 57.6322-18.3403C57.8749-18.3368 58.1177-18.2391 58.3526-18.1704C58.4096-18.1524 58.474-18.0802 58.4966-18.0186C58.5044-17.99 58.4283-17.8994 58.3753-17.8778C58.2762-17.8354 58.1693-17.8109 58.0607-17.8056C57.8445-17.8024 57.6354-17.7331 57.4634-17.6085C57.2914-17.4836 57.1658-17.3095 57.1053-17.1121C57.0466-16.9072 56.9432-16.7168 56.8021-16.5523C56.6609-16.3881 56.4854-16.254 56.2865-16.1585C56.0211-16.0318 55.8201-15.7611 55.5887-15.5587C55.5091-15.4901 55.4221-15.4324 55.3347-15.3744C55.2968-15.3492 55.2402-15.3492 55.2211-15.3202C55.134-15.1829 55.058-15.0421 54.9748-14.9048C55.0958-14.8977 55.2285-14.8542 55.3347-14.8903C55.5321-14.9554 55.7062-15.0782 55.8998-15.1543C55.9567-15.1794 56.0363-15.1217 56.1007-15.1072C56.1308-15.1578 56.1499-15.2445 56.1991-15.2696C56.4875-15.4143 56.7907-15.5226 57.0749-15.6744C57.3594-15.8259 57.6134-16.0679 57.9089-16.1585C58.3034-16.2777 58.4966-16.6206 58.7698-16.8736C58.9174-17.0109 59.0235-17.2023 59.1753-17.3286C59.5242-17.6142 59.941-17.4914 60.3317-17.4985C60.4679-17.4985 60.6084-17.5346 60.7333-17.4985C60.8777-17.4624 61.0252-17.3867 61.1353-17.2819C61.1997-17.2168 61.2414-16.9928 61.2036-16.9638C61.0634-16.8485 60.8777-16.6931 60.7298-16.7147C60.4644-16.7508 60.3656-16.6425 60.2177-16.4472C60.032-16.2016 59.7779-16.0173 59.5468-15.8188C59.1413-15.461 58.7507-15.0746 58.3148-14.7749C57.8293-14.4423 57.3024-14.1897 56.7868-13.9077C56.5441-13.7778 56.2939-13.655 56.0363-13.5467C55.892-13.4887 55.7292-13.4742 55.5735-13.4416C55.5243-13.431 55.4751-13.413 55.4295-13.3985L55.4486-13.2828L56.404-13.4742C56.6616-13.5213 56.9195-13.5538 57.1736-13.6044C57.3633-13.6405 57.5604-13.6766 57.7422-13.7382C58.0748-13.867 58.4351-13.9165 58.7924-13.8825C59.1183-13.8464 59.4481-13.8535 59.7666-13.7888C59.888-13.7633 60.032-13.6009 60.0698-13.4707C60.108-13.3443 60.0433-13.1455 59.9562-13.0446C59.9145-12.9866 59.7287-13.0262 59.6151-13.0662C59.3345-13.1564 59.0578-13.2828 58.7963-13.0407C58.7167-12.9686 58.6863-12.8242 58.6067-12.752C58.4966-12.6614 58.3526-12.5351 58.239-12.5531C57.3898-12.6869 56.5554-12.4413 55.714-12.4629C55.3124-12.4806 54.9143-12.5425 54.5272-12.6473C54.3414-12.694 54.1974-12.8999 54.0116-12.954C53.639-13.0779 53.254-13.1664 52.863-13.218C52.2792-13.2828 51.6876-13.2792 51.0963-13.3369C50.7626-13.3734 50.4367-13.4961 50.103-13.5322C49.5836-13.5828 49.0642-13.5934 48.5486-13.6154C48.1696-13.6334 48.1544-13.6621 48.1318-14.0524C48.1197-14.2028 48.0631-14.3468 47.9686-14.4678C47.825-14.6362 47.6594-14.787 47.4757-14.9158C47.4-14.9699 47.2748-14.9809 47.1838-14.9625C46.7288-14.8797 46.2741-14.7675 45.819-14.6918C45.5536-14.6447 45.2844-14.6483 45.019-14.6376C44.9772-14.6376 44.9358-14.6737 44.8941-14.6882C44.9167-14.7388 44.9319-14.8001 44.9659-14.8326C45.0183-14.8814 45.0841-14.9154 45.1556-14.9303C45.4018-14.9519 45.5575-15.0856 45.6977-15.2951C45.7964-15.4465 45.9556-15.6564 46.0844-15.6564C46.653-15.6383 47.2142-15.6564 47.7751-15.8007C47.8512-15.8188 47.9534-15.714 48.0405-15.6744C48.1353-15.6309 48.2301-15.5948 48.3289-15.5622C48.526-15.4936 48.7344-15.4465 48.924-15.3598C49.1324-15.2625 49.326-15.1359 49.5231-15.017C49.6975-14.9158 49.8568-14.7891 50.0309-14.6953C50.1416-14.6348 50.2644-14.597 50.3911-14.5835C50.8235-14.5471 51.2555-14.4968 51.684-14.511C51.828-14.5149 51.9721-14.6918 52.0934-14.8146C52.1161-14.8362 52.0326-14.9699 52.0099-15.0566C51.9834-15.1578 51.9873-15.2732 51.9455-15.3673C51.8355-15.6199 51.6801-15.862 51.5966-16.1259C51.4678-16.5304 51.3921-16.9493 51.2746-17.3541C51.172-17.6974 51.0736-18.0402 50.8118-18.3077C50.7173-18.4054 50.7439-18.64 50.7173-18.8134L50.6604-19.1241C50.573-19.088 50.4785-19.0735 50.3989-19.0268C50.1222-18.8569 49.9778-18.893 49.8302-19.1892C49.6859-19.4708 49.4736-19.543 49.2577-19.3229C49.0075-19.0699 48.8101-18.7592 48.5751-18.4847C48.4237-18.3007 48.2567-18.1053 48.067-17.968C47.9308-17.8668 47.7981-17.9535 47.7829-18.1595C47.7677-18.398 47.7981-18.6074 47.9686-18.7989C48.067-18.9075 48.0596-19.117 48.1505-19.2433C48.378-19.5685 48.6169-19.8792 48.871-20.1718C48.9467-20.262 49.0985-20.2765 49.2082-20.3342C49.4092-20.439 49.6101-20.5437 49.8037-20.6665C49.8338-20.6845 49.8338-20.8002 49.8111-20.8544C49.7542-21.02 49.683-21.1806 49.5988-21.3349C49.4813-21.5444 49.3639-21.7719 49.2007-21.9382C48.8656-22.3016 48.6402-22.7446 48.5486-23.2205C48.5107-23.3833 48.3363-23.5132 48.2075-23.6395C48.0999-23.7478 47.9775-23.8412 47.8434-23.9176C47.1838-24.2863 46.5012-24.5464 45.7355-24.4668C45.6067-24.4523 45.4549-24.539 45.33-24.6115C44.8371-24.9112 44.3746-25.287 43.8552-25.511C43.3357-25.735 42.7445-25.7746 42.2098-25.9731C41.2848-26.3199 40.3295-26.2081 39.3854-26.2657C38.613-26.3121 37.8387-26.3252 37.0652-26.3057C36.279-26.2838 35.4938-26.2381 34.7109-26.1684C34.0891-26.1143 33.4598-26.0672 32.8494-25.937C32.2567-25.816 31.6804-25.6306 31.132-25.3843C30.1615-24.9328 29.2213-24.4056 28.2659-23.9176C27.7238-23.6395 27.1665-23.3904 26.6357-23.1013C26.1732-22.8486 25.741-22.545 25.286-22.2885C24.8501-22.0429 24.4141-21.7974 23.9553-21.6059C23.4587-21.4 22.9279-21.2808 22.4313-21.0784C22.0787-20.934 21.764-20.6955 21.4266-20.5111C21.0541-20.3045 20.6762-20.107 20.2931-19.9188C19.895-19.7274 19.4893-19.5289 19.0761-19.3771C18.8032-19.2759 18.5074-19.2398 18.2193-19.1892C17.9956-19.1456 17.7985-19.1892 17.6696-19.4202C17.5786-19.5865 17.4724-19.7383 17.3928-19.9082C17.2526-20.2185 17.5066-20.4464 17.5521-20.7171C17.5976-20.9701 17.753-21.0171 17.9312-21.1109C18.1435-21.2192 18.3027-21.4361 18.5037-21.5698C18.8373-21.7864 19.1936-21.9672 19.5235-22.1912C19.8343-22.4042 20.13-22.6498 20.4334-22.8773C20.5168-22.9389 20.6153-22.993 20.7101-23.0472C20.9034-23.1593 21.0968-23.2821 21.2977-23.3794C21.4987-23.4771 21.7148-23.5386 21.9157-23.6395C22.4465-23.907 22.9848-24.1706 23.5118-24.4597C23.9667-24.7124 24.4292-24.9654 24.8539-25.2725C25.1571-25.489 25.396-25.7926 25.6652-26.0527C25.8623-26.2442 26.067-26.4285 26.2642-26.6164C26.4082-26.7608 26.5371-26.9232 26.6926-27.0499C27.2006-27.4614 27.7086-27.8733 28.2318-28.2636C28.8611-28.7331 29.498-29.1811 30.1387-29.6361C30.7946-30.1021 31.4581-30.5611 32.1177-31.0197C32.3907-31.2111 32.6712-31.3884 32.9404-31.5869C32.9935-31.6304 33.0087-31.7422 33.0314-31.8218C33.0428-31.8615 33.0238-31.9156 33.039-31.9517C33.1982-32.2624 33.365-32.566 33.5167-32.8837C33.5849-33.0175 33.5925-33.2015 33.6797-33.3066C34.0209-33.7075 34.3924-34.0903 34.7526-34.4767C34.8019-34.5238 34.8663-34.5564 34.9042-34.6105C35.2228-34.9969 35.526-35.3982 35.8484-35.7771C36.1137-36.0952 36.4244-36.3769 36.6824-36.7021C37.0691-37.1932 37.4177-37.7173 37.8005-38.2084C38.0394-38.512 38.3391-38.7646 38.574-39.0682C38.8773-39.4621 39.1427-39.8916 39.4385-40.2964C39.5903-40.4988 39.7796-40.6683 39.954-40.8562L40.3142-41.2755C40.413-41.3874 40.5152-41.4921 40.6175-41.6004C40.6401-41.6223 40.6745-41.6329 40.6932-41.6584C40.9586-42.0268 41.2166-42.4061 41.4972-42.7638C41.6638-42.9804 41.8761-43.1612 42.0467-43.3777C42.2933-43.6739 42.5169-43.992 42.7597-44.2953C42.9561-44.55 43.1634-44.7974 43.3814-45.0359C43.7225-45.3971 44.0788-45.7404 44.4277-46.0907L45.8151-47.4742C46.1184-47.7739 46.4142-48.0847 46.7288-48.3665C46.9411-48.5507 47.199-48.6736 47.4113-48.8614C47.8625-49.2479 48.3098-49.6417 48.7305-50.0679C49.0075-50.3461 49.2347-50.682 49.4888-50.9963L49.6292-51.1697C49.8642-51.4551 50.1183-51.726 50.3306-52.0259C50.6098-52.4231 50.8727-52.8304 51.1189-53.2469C51.4639-53.8248 51.8015-54.4101 52.1274-55.0025C52.4611-55.6021 52.7682-56.2199 53.1132-56.8087C53.4621-57.4083 53.845-57.9827 54.2126-58.5679C54.334-58.7666 54.4249-58.987 54.5615-59.1748C54.7625-59.453 54.9861-59.7058 55.1984-59.9696C55.6609-60.5511 56.26-60.9304 56.8739-61.2808C57.128-61.4253 57.4312-61.4651 57.7157-61.5409C58.1099-61.6493 58.508-61.7613 58.906-61.8408C59.308-61.9166 59.71-61.9925 60.1155-62C60.4605-62.0069 60.8129-61.8552 61.1505-61.8841C61.8822-61.9455 62.5531-61.6132 63.2622-61.5698C63.9321-61.5306 64.5782-61.3183 65.1312-60.9557C65.3888-60.7896 65.6012-60.5439 65.8478-60.3452C66.0183-60.2079 66.2232-60.1104 66.3938-59.9659C66.6514-59.7492 66.8902-59.5108 67.1404-59.2868C67.1899-59.2398 67.2465-59.1856 67.3074-59.1784C68.2476-59.1134 69.1916-59.0592 70.1357-58.9906C70.238-58.9833 70.4124-58.9364 70.4237-58.875C70.4425-58.7738 70.3972-58.5932 70.3215-58.5426C70.1205-58.409 69.893-58.3295 69.6768-58.2247C69.5062-58.1453 69.3279-58.0803 69.1725-57.9719C68.9071-57.7913 68.6531-57.5853 68.4029-57.3794C68.2702-57.2711 68.1566-57.1374 68.0314-57.0182C67.823-56.8087 67.6145-56.5956 67.4022-56.3933C67.002-56.0229 66.726-55.5476 66.6096-55.0278C66.4999-54.5618 66.3368-54.1102 66.2232-53.6478C66.1358-53.3083 66.0714-52.9579 66.0374-52.6075C65.9918-52.1306 65.9805-51.6502 65.9614-51.1697C65.9426-50.7724 65.8931-50.375 65.9348-49.9849C65.9992-49.4105 66.242-48.8975 66.5035-48.3954C66.6439-48.1353 66.731-47.8426 66.8637-47.5825C66.9433-47.4236 67.0838-47.3044 67.1786-47.149C67.2543-47.0337 67.3035-46.8964 67.3566-46.7662C67.4971-46.4229 67.6598-46.0871 67.7624-45.7329C67.8569-45.3971 67.9291-45.0429 67.933-44.6962C67.933-44.2447 67.8343-43.7932 67.823-43.3381C67.8038-42.3951 67.8038-41.4525 67.823-40.5095C67.8304-39.9603 67.6864-39.4546 67.5424-38.9419C67.4022-38.4324 67.2961-37.9122 67.1747-37.3956C67.1634-37.3595 67.1634-37.316 67.1521-37.2838C66.9624-36.7778 66.7727-36.2722 66.5909-35.763C66.4391-35.3295 66.242-34.9067 66.151-34.4587C66.0144-33.7832 65.6507-33.245 65.3549-32.6597C64.9908-31.9411 64.6118-31.2291 64.2328-30.5176C64.0771-30.2214 63.9296-29.9142 63.7247-29.6581C63.4898-29.369 63.2014-29.1269 62.9286-28.8775C62.6897-28.6609 62.4356-28.466 62.1929-28.2561C61.9162-28.0141 61.6321-27.776 61.3667-27.5194C61.0139-27.1797 60.6954-26.8004 60.3317-26.4826C60.0613-26.2325 59.7326-26.0467 59.3724-25.9406C59.0653-25.8578 58.7924-25.6083 58.5005-25.4423C58.3413-25.3482 58.1668-25.276 58.0002-25.1823C57.8484-25.0956 57.7083-24.9799 57.5451-24.9077C57.3024-24.792 57.0448-24.7017 56.7943-24.6005C56.7716-24.5935 56.7451-24.5935 56.7224-24.579C56.3053-24.362 55.8884-24.1381 55.4712-23.9286C55.2172-23.8093 54.9444-23.7301 54.6903-23.6144C54.5084-23.5312 54.3414-23.4229 54.133-23.3037Z"/>
   <path class="monochrome-1 multicolor-1:tintColor hierarchical-1:tertiary SFSymbolsPreviewWireframe" d="M44.3636-80.5865C50.0861-80.5876 55.7528-79.4613 61.04-77.272C66.3271-75.0826 71.1312-71.8729 75.1774-67.8265C79.2239-63.7803 82.4335-58.9764 84.6232-53.6889C86.8124-48.4015 87.9387-42.7349 87.9376-37.0127C87.9376-12.9352 68.432 6.58658 44.3638 6.58658C20.2909 6.58658 0.7645-12.9399 0.7645-37.0127C0.7645-61.0781 20.2877-80.5865 44.3636-80.5865ZM44.3638-78.3365C21.53-78.3365 3.0145-59.8351 3.0145-37.0127C3.0145-14.1825 21.5336 4.33658 44.3638 4.33658C67.1889 4.33658 85.6876-14.1774 85.6876-37.0129C85.6886-42.4398 84.6205-47.8138 82.5443-52.828C80.4678-57.8425 77.4239-62.3983 73.5865-66.2355C69.7491-70.073 65.1932-73.1168 60.1791-75.1931C55.1651-77.2695 49.791-78.3376 44.3638-78.3365Z"/>
  </g>
 </g>
</svg>
