<?xml version="1.0" encoding="UTF-8"?>
<!--Generator: Apple Native CoreSVG 341-->
<!DOCTYPE svg
PUBLIC "-//W3C//DTD SVG 1.1//EN"
       "http://www.w3.org/Graphics/SVG/1.1/DTD/svg11.dtd">
<svg version="1.1" xmlns="http://www.w3.org/2000/svg" xmlns:xlink="http://www.w3.org/1999/xlink" viewBox="0 0 3300 2200">
 <!--glyph: "", point size: 100.0, font version: "20.0d10e1", template writer version: "138.0.0"-->
 <style>.monochrome-0 {-sfsymbols-motion-group:1;-sfsymbols-layer-tags:-408ca26410a490bb}
.monochrome-1 {-sfsymbols-motion-group:0;-sfsymbols-layer-tags:-408ca26410a490bb}

.multicolor-0:tintColor {-sfsymbols-motion-group:1;-sfsymbols-layer-tags:-408ca26410a490bb}
.multicolor-1:tintColor {-sfsymbols-motion-group:0;-sfsymbols-layer-tags:-408ca26410a490bb}

.hierarchical-0:primary {-sfsymbols-motion-group:1;-sfsymbols-layer-tags:-408ca26410a490bb}
.hierarchical-1:tertiary {-sfsymbols-motion-group:0;-sfsymbols-layer-tags:-408ca26410a490bb}

.SFSymbolsPreviewWireframe {fill:none;opacity:1.0;stroke:black;stroke-width:0.5}
</style>
 <g id="Notes">
  <rect height="2200" id="artboard" style="fill:white;opacity:1" width="3300" x="0" y="0"/>
  <line style="fill:none;stroke:black;opacity:1;stroke-width:0.5;" x1="263" x2="3036" y1="292" y2="292"/>
  <text style="stroke:none;fill:black;font-family:sans-serif;font-size:13;font-weight:bold;" transform="matrix(1 0 0 1 263 322)">Weight/Scale Variations</text>
  <text style="stroke:none;fill:black;font-family:sans-serif;font-size:13;text-anchor:middle;" transform="matrix(1 0 0 1 559.711 322)">Ultralight</text>
  <text style="stroke:none;fill:black;font-family:sans-serif;font-size:13;text-anchor:middle;" transform="matrix(1 0 0 1 856.422 322)">Thin</text>
  <text style="stroke:none;fill:black;font-family:sans-serif;font-size:13;text-anchor:middle;" transform="matrix(1 0 0 1 1153.13 322)">Light</text>
  <text style="stroke:none;fill:black;font-family:sans-serif;font-size:13;text-anchor:middle;" transform="matrix(1 0 0 1 1449.84 322)">Regular</text>
  <text style="stroke:none;fill:black;font-family:sans-serif;font-size:13;text-anchor:middle;" transform="matrix(1 0 0 1 1746.56 322)">Medium</text>
  <text style="stroke:none;fill:black;font-family:sans-serif;font-size:13;text-anchor:middle;" transform="matrix(1 0 0 1 2043.27 322)">Semibold</text>
  <text style="stroke:none;fill:black;font-family:sans-serif;font-size:13;text-anchor:middle;" transform="matrix(1 0 0 1 2339.98 322)">Bold</text>
  <text style="stroke:none;fill:black;font-family:sans-serif;font-size:13;text-anchor:middle;" transform="matrix(1 0 0 1 2636.69 322)">Heavy</text>
  <text style="stroke:none;fill:black;font-family:sans-serif;font-size:13;text-anchor:middle;" transform="matrix(1 0 0 1 2933.4 322)">Black</text>
  <line style="fill:none;stroke:black;opacity:1;stroke-width:0.5;" x1="263" x2="3036" y1="1903" y2="1903"/>
  <g transform="matrix(0.2 0 0 0.2 263 1933)">
   <path d="m46.2402 4.15039c21.7773 0 39.4531-17.627 39.4531-39.4043s-17.6758-39.4043-39.4531-39.4043c-21.7285 0-39.4043 17.627-39.4043 39.4043s17.6758 39.4043 39.4043 39.4043Zm0-7.42188c-17.6758 0-31.9336-14.3066-31.9336-31.9824s14.2578-31.9824 31.9336-31.9824 31.9824 14.3066 31.9824 31.9824-14.3066 31.9824-31.9824 31.9824Zm-17.9688-31.9824c0 2.14844 1.51367 3.61328 3.75977 3.61328h10.498v10.5957c0 2.19727 1.46484 3.71094 3.61328 3.71094 2.24609 0 3.71094-1.51367 3.71094-3.71094v-10.5957h10.5957c2.19727 0 3.71094-1.46484 3.71094-3.61328 0-2.19727-1.51367-3.71094-3.71094-3.71094h-10.5957v-10.5469c0-2.24609-1.46484-3.75977-3.71094-3.75977-2.14844 0-3.61328 1.51367-3.61328 3.75977v10.5469h-10.498c-2.24609 0-3.75977 1.51367-3.75977 3.71094Z"/>
  </g>
  <g transform="matrix(0.2 0 0 0.2 281.506 1933)">
   <path d="m58.5449 14.5508c27.4902 0 49.8047-22.3145 49.8047-49.8047s-22.3145-49.8047-49.8047-49.8047-49.8047 22.3145-49.8047 49.8047 22.3145 49.8047 49.8047 49.8047Zm0-8.30078c-22.9492 0-41.5039-18.5547-41.5039-41.5039s18.5547-41.5039 41.5039-41.5039 41.5039 18.5547 41.5039 41.5039-18.5547 41.5039-41.5039 41.5039Zm-22.6562-41.5039c0 2.39258 1.66016 4.00391 4.15039 4.00391h14.3555v14.4043c0 2.44141 1.66016 4.15039 4.05273 4.15039 2.44141 0 4.15039-1.66016 4.15039-4.15039v-14.4043h14.4043c2.44141 0 4.15039-1.61133 4.15039-4.00391 0-2.44141-1.70898-4.15039-4.15039-4.15039h-14.4043v-14.3555c0-2.49023-1.70898-4.19922-4.15039-4.19922-2.39258 0-4.05273 1.70898-4.05273 4.19922v14.3555h-14.3555c-2.49023 0-4.15039 1.70898-4.15039 4.15039Z"/>
  </g>
  <g transform="matrix(0.2 0 0 0.2 304.924 1933)">
   <path d="m74.8535 28.3203c35.1074 0 63.623-28.4668 63.623-63.5742s-28.5156-63.623-63.623-63.623-63.5742 28.5156-63.5742 63.623 28.4668 63.5742 63.5742 63.5742Zm0-9.08203c-30.127 0-54.4922-24.3652-54.4922-54.4922s24.3652-54.4922 54.4922-54.4922 54.4922 24.3652 54.4922 54.4922-24.3652 54.4922-54.4922 54.4922Zm-28.8574-54.4922c0 2.58789 1.85547 4.39453 4.58984 4.39453h19.7266v19.7754c0 2.68555 1.85547 4.58984 4.44336 4.58984 2.68555 0 4.54102-1.85547 4.54102-4.58984v-19.7754h19.7754c2.68555 0 4.58984-1.80664 4.58984-4.39453 0-2.73438-1.85547-4.58984-4.58984-4.58984h-19.7754v-19.7266c0-2.73438-1.85547-4.63867-4.54102-4.63867-2.58789 0-4.44336 1.9043-4.44336 4.63867v19.7266h-19.7266c-2.73438 0-4.58984 1.85547-4.58984 4.58984Z"/>
  </g>
  <text style="stroke:none;fill:black;font-family:sans-serif;font-size:13;font-weight:bold;" transform="matrix(1 0 0 1 263 1953)">Design Variations</text>
  <text style="stroke:none;fill:black;font-family:sans-serif;font-size:13;" transform="matrix(1 0 0 1 263 1971)">Symbols are supported in up to nine weights and three scales.</text>
  <text style="stroke:none;fill:black;font-family:sans-serif;font-size:13;" transform="matrix(1 0 0 1 263 1989)">For optimal layout with text and other symbols, vertically align</text>
  <text style="stroke:none;fill:black;font-family:sans-serif;font-size:13;" transform="matrix(1 0 0 1 263 2007)">symbols with the adjacent text.</text>
  <line style="fill:none;stroke:#00AEEF;stroke-width:0.5;opacity:1.0;" x1="776" x2="776" y1="1919" y2="1933"/>
  <g transform="matrix(0.2 0 0 0.2 776 1933)">
   <path d="m16.5527 0.78125c2.58789 0 3.85742-0.976562 4.78516-3.71094l6.29883-17.2363h28.8086l6.29883 17.2363c0.927734 2.73438 2.19727 3.71094 4.73633 3.71094 2.58789 0 4.24805-1.5625 4.24805-4.00391 0-0.830078-0.146484-1.61133-0.537109-2.63672l-22.9004-60.9863c-1.12305-2.97852-3.125-4.49219-6.25-4.49219-3.02734 0-5.07812 1.46484-6.15234 4.44336l-22.9004 61.084c-0.390625 1.02539-0.537109 1.80664-0.537109 2.63672 0 2.44141 1.5625 3.95508 4.10156 3.95508Zm13.4766-28.3691 11.8652-32.8613h0.244141l11.8652 32.8613Z"/>
  </g>
  <line style="fill:none;stroke:#00AEEF;stroke-width:0.5;opacity:1.0;" x1="792.836" x2="792.836" y1="1919" y2="1933"/>
  <text style="stroke:none;fill:black;font-family:sans-serif;font-size:13;font-weight:bold;" transform="matrix(1 0 0 1 776 1953)">Margins</text>
  <text style="stroke:none;fill:black;font-family:sans-serif;font-size:13;" transform="matrix(1 0 0 1 776 1971)">Leading and trailing margins on the left and right side of each symbol</text>
  <text style="stroke:none;fill:black;font-family:sans-serif;font-size:13;" transform="matrix(1 0 0 1 776 1989)">can be adjusted by modifying the x-location of the margin guidelines.</text>
  <text style="stroke:none;fill:black;font-family:sans-serif;font-size:13;" transform="matrix(1 0 0 1 776 2007)">Modifications are automatically applied proportionally to all</text>
  <text style="stroke:none;fill:black;font-family:sans-serif;font-size:13;" transform="matrix(1 0 0 1 776 2025)">scales and weights.</text>
  <g transform="matrix(0.2 0 0 0.2 1289 1933)">
   <path d="m14.209 9.32617 8.49609 8.54492c4.29688 4.3457 9.22852 4.05273 13.8672-1.07422l53.4668-58.9355-4.83398-4.88281-53.0762 58.3984c-1.75781 2.00195-3.41797 2.49023-5.76172 0.146484l-5.85938-5.81055c-2.34375-2.29492-1.80664-4.00391 0.195312-5.81055l57.373-54.0039-4.88281-4.83398-57.959 54.4434c-4.93164 4.58984-5.32227 9.47266-1.02539 13.8184Zm32.0801-90.9668c-2.09961 2.05078-2.24609 4.93164-1.07422 6.88477 1.17188 1.80664 3.4668 2.97852 6.68945 2.14844 7.32422-1.70898 14.9414-2.00195 22.0703 2.68555l-2.92969 7.27539c-1.70898 4.15039-0.830078 7.08008 1.85547 9.81445l11.4746 11.5723c2.44141 2.44141 4.49219 2.53906 7.32422 2.05078l5.32227-0.976562 3.32031 3.36914-0.195312 2.7832c-0.195312 2.49023 0.439453 4.39453 2.88086 6.78711l3.80859 3.71094c2.39258 2.39258 5.46875 2.53906 7.8125 0.195312l14.5508-14.5996c2.34375-2.34375 2.24609-5.32227-0.146484-7.71484l-3.85742-3.80859c-2.39258-2.39258-4.24805-3.17383-6.64062-2.97852l-2.88086 0.244141-3.22266-3.17383 1.2207-5.61523c0.634766-2.83203-0.146484-5.0293-3.07617-7.95898l-10.9863-10.9375c-16.6992-16.6016-38.8672-16.2109-53.3203-1.75781Zm7.4707 1.85547c12.1582-8.88672 28.6133-7.37305 39.7461 3.75977l12.1582 12.0605c1.17188 1.17188 1.36719 2.09961 1.02539 3.80859l-1.61133 7.42188 7.51953 7.42188 4.93164-0.292969c1.26953-0.0488281 1.66016 0.0488281 2.63672 1.02539l2.88086 2.88086-12.207 12.207-2.88086-2.88086c-0.976562-0.976562-1.12305-1.36719-1.07422-2.68555l0.341797-4.88281-7.4707-7.42188-7.61719 1.26953c-1.61133 0.341797-2.34375 0.195312-3.56445-0.976562l-10.0098-10.0098c-1.26953-1.17188-1.41602-2.00195-0.634766-3.85742l4.39453-10.4492c-7.8125-7.27539-17.9688-10.4004-28.125-7.42188-0.78125 0.195312-1.07422-0.439453-0.439453-0.976562Z"/>
  </g>
  <text style="stroke:none;fill:black;font-family:sans-serif;font-size:13;font-weight:bold;" transform="matrix(1 0 0 1 1289 1953)">Exporting</text>
  <text style="stroke:none;fill:black;font-family:sans-serif;font-size:13;" transform="matrix(1 0 0 1 1289 1971)">Symbols should be outlined when exporting to ensure the</text>
  <text style="stroke:none;fill:black;font-family:sans-serif;font-size:13;" transform="matrix(1 0 0 1 1289 1989)">design is preserved when submitting to Xcode.</text>
  <text id="template-version" style="stroke:none;fill:black;font-family:sans-serif;font-size:13;text-anchor:end;" transform="matrix(1 0 0 1 3036 1933)">Template v.6.0</text>
  <text style="stroke:none;fill:black;font-family:sans-serif;font-size:13;text-anchor:end;" transform="matrix(1 0 0 1 3036 1951)">Requires Xcode 16 or greater</text>
  <text id="descriptive-name" style="stroke:none;fill:black;font-family:sans-serif;font-size:13;text-anchor:end;" transform="matrix(1 0 0 1 3036 1969)">Generated from filtervogelgruppe-18</text>
  <text style="stroke:none;fill:black;font-family:sans-serif;font-size:13;text-anchor:end;" transform="matrix(1 0 0 1 3036 1987)">Typeset at 100.0 points</text>
  <text style="stroke:none;fill:black;font-family:sans-serif;font-size:13;" transform="matrix(1 0 0 1 263 726)">Small</text>
  <text style="stroke:none;fill:black;font-family:sans-serif;font-size:13;" transform="matrix(1 0 0 1 263 1156)">Medium</text>
  <text style="stroke:none;fill:black;font-family:sans-serif;font-size:13;" transform="matrix(1 0 0 1 263 1586)">Large</text>
 </g>
 <g id="Guides">
  <g id="H-reference" style="fill:#27AAE1;stroke:none;" transform="matrix(1 0 0 1 339 696)">
   <path d="M0.993654 0L3.63775 0L29.3281-67.1323L30.0303-67.1323L30.0303-70.459L28.1226-70.459ZM11.6885-24.4799L46.9815-24.4799L46.2315-26.7285L12.4385-26.7285ZM55.1196 0L57.7637 0L30.6382-70.459L29.4326-70.459L29.4326-67.1323Z"/>
  </g>
  <line id="Baseline-S" style="fill:none;stroke:#27AAE1;opacity:1;stroke-width:0.5;" x1="263" x2="3036" y1="696" y2="696"/>
  <line id="Capline-S" style="fill:none;stroke:#27AAE1;opacity:1;stroke-width:0.5;" x1="263" x2="3036" y1="625.541" y2="625.541"/>
  <g id="H-reference" style="fill:#27AAE1;stroke:none;" transform="matrix(1 0 0 1 339 1126)">
   <path d="M0.993654 0L3.63775 0L29.3281-67.1323L30.0303-67.1323L30.0303-70.459L28.1226-70.459ZM11.6885-24.4799L46.9815-24.4799L46.2315-26.7285L12.4385-26.7285ZM55.1196 0L57.7637 0L30.6382-70.459L29.4326-70.459L29.4326-67.1323Z"/>
  </g>
  <line id="Baseline-M" style="fill:none;stroke:#27AAE1;opacity:1;stroke-width:0.5;" x1="263" x2="3036" y1="1126" y2="1126"/>
  <line id="Capline-M" style="fill:none;stroke:#27AAE1;opacity:1;stroke-width:0.5;" x1="263" x2="3036" y1="1055.54" y2="1055.54"/>
  <g id="H-reference" style="fill:#27AAE1;stroke:none;" transform="matrix(1 0 0 1 339 1556)">
   <path d="M0.993654 0L3.63775 0L29.3281-67.1323L30.0303-67.1323L30.0303-70.459L28.1226-70.459ZM11.6885-24.4799L46.9815-24.4799L46.2315-26.7285L12.4385-26.7285ZM55.1196 0L57.7637 0L30.6382-70.459L29.4326-70.459L29.4326-67.1323Z"/>
  </g>
  <line id="Baseline-L" style="fill:none;stroke:#27AAE1;opacity:1;stroke-width:0.5;" x1="263" x2="3036" y1="1556" y2="1556"/>
  <line id="Capline-L" style="fill:none;stroke:#27AAE1;opacity:1;stroke-width:0.5;" x1="263" x2="3036" y1="1485.54" y2="1485.54"/>
  <line id="right-margin-Black-S" style="fill:none;stroke:#00AEEF;stroke-width:0.5;opacity:1.0;" x1="2982.23" x2="2982.23" y1="600.785" y2="720.121"/>
  <line id="left-margin-Black-S" style="fill:none;stroke:#00AEEF;stroke-width:0.5;opacity:1.0;" x1="2884.57" x2="2884.57" y1="600.785" y2="720.121"/>
  <line id="right-margin-Regular-S" style="fill:none;stroke:#00AEEF;stroke-width:0.5;opacity:1.0;" x1="1496.11" x2="1496.11" y1="600.785" y2="720.121"/>
  <line id="left-margin-Regular-S" style="fill:none;stroke:#00AEEF;stroke-width:0.5;opacity:1.0;" x1="1403.58" x2="1403.58" y1="600.785" y2="720.121"/>
  <line id="right-margin-Ultralight-S" style="fill:none;stroke:#00AEEF;stroke-width:0.5;opacity:1.0;" x1="603.773" x2="603.773" y1="600.785" y2="720.121"/>
  <line id="left-margin-Ultralight-S" style="fill:none;stroke:#00AEEF;stroke-width:0.5;opacity:1.0;" x1="515.649" x2="515.649" y1="600.785" y2="720.121"/>
 </g>
 <g id="Symbols">
  <g id="Black-S" transform="matrix(1 0 0 1 2884.57 696)">
   <path class="monochrome-0 multicolor-0:tintColor hierarchical-0:primary SFSymbolsPreviewWireframe" d="M21.1525-39.925C21.0676-39.9356 20.9827-39.9604 20.9048-39.9462C20.6217-39.9108 20.3387-39.8684 20.0627-39.8224C19.7902-39.7764 19.5248-39.6914 19.2559-39.6773C18.8383-39.6606 18.4202-39.6663 18.0032-39.695C17.9395-39.6985 17.8369-39.8188 17.8298-39.8967C17.8192-40.0488 17.8228-40.2682 17.8935-40.3531C18.0882-40.5937 18.3075-40.8131 18.5411-40.99C19.1072-41.4076 19.6911-41.7933 20.2679-42.2282C20.1547-42.2175 20.045-42.2073 19.9353-42.1896C19.822-42.1684 19.7088-42.1188 19.592-42.1153C19.2948-42.1047 18.994-42.0976 18.6968-42.1153C18.4653-42.1347 18.2358-42.1726 18.0103-42.2282C17.8688-42.26 17.706-42.2883 17.5928-42.3945C17.4923-42.5098 17.4348-42.656 17.43-42.8085C17.43-42.9146 17.5291-43.0738 17.6105-43.1269C17.9997-43.3711 18.3854-43.6082 18.7852-43.8063C19.1957-44.008 19.6203-44.1602 20.0379-44.3371C20.2148-44.4078 20.3882-44.4857 20.5616-44.5635C20.5899-44.5777 20.6147-44.6131 20.6713-44.6626L20.3316-44.8395C20.2032-44.8993 20.0734-44.956 19.9423-45.0094C19.6593-45.1297 19.3727-45.2323 19.0931-45.3632C19.02-45.394 18.9594-45.4485 18.9209-45.5179C18.8824-45.5869 18.8682-45.6672 18.8808-45.7454C18.8913-45.8278 18.9257-45.9053 18.9798-45.9683C19.3337-46.3505 19.7796-46.3115 20.1971-46.4106C20.4519-46.4672 20.7067-46.5274 20.9614-46.5698C21.2162-46.6123 21.471-46.6371 21.7257-46.6654L23.1907-46.8423C23.2438-46.8494 23.2968-46.8848 23.3535-46.9662L22.9182-47.1502C22.7519-47.2138 22.5785-47.2563 22.4157-47.3412C22.2774-47.4198 22.1491-47.5149 22.0336-47.6244C22.0053-47.6527 21.984-47.7765 21.9982-47.8013C22.1043-47.9428 22.207-48.1516 22.3308-48.1764C22.7307-48.2648 23.1376-48.3038 23.541-48.325C23.8595-48.3391 24.185-48.3073 24.507-48.2825C25.0802-48.2436 25.6535-48.187 26.2267-48.1516C26.7363-48.1198 27.2458-48.1162 27.7589-48.0808C28.0349-48.0596 28.3109-47.9924 28.5904-47.9747C29.1636-47.9393 29.7369-47.9181 30.3137-47.8862L31.5698-47.8155C31.8281-47.8013 32.0864-47.8084 32.3483-47.7836C32.9428-47.727 33.5408-47.6845 34.1317-47.5855C34.6483-47.5005 35.1579-47.3518 35.6745-47.228C36.0496-47.1325 36.4282-47.044 36.8068-46.9308C37.3907-46.7538 37.9887-46.6123 38.5584-46.3646C39.2874-46.0497 40.0376-45.9365 40.7877-45.8126C41.361-45.7171 41.9307-45.6498 42.5039-45.5649C42.879-45.5048 43.254-45.3915 43.6327-45.3809C44.0997-45.3668 44.5704-45.434 45.041-45.4588C45.2285-45.4729 45.416-45.4588 45.6036-45.48C45.9822-45.5189 46.3608-45.5685 46.7359-45.6322C46.8067-45.6463 46.881-45.7418 46.9164-45.8268C47.0119-46.0603 47.0897-46.308 47.1747-46.5486C47.2596-46.7963 47.3587-47.044 47.433-47.2917C47.5037-47.5288 47.5497-47.7765 47.6205-48.0136C47.6488-48.1127 47.716-48.1905 47.7514-48.2896C47.8328-48.5231 47.8682-48.8062 47.992-48.9902C48.2397-49.3688 48.314-49.9279 48.6891-50.1755C48.7914-50.2434 48.882-50.327 48.958-50.4232C49.0076-50.4869 49.0182-50.6002 49.05-50.6815L49.1845-51C49.2517-50.9257 49.3756-50.8478 49.3756-50.7735C49.372-50.3843 49.6127-50.2994 49.7754-50.1012C49.9877-49.8465 50.2142-49.5846 50.3628-49.2662C50.5893-48.7885 50.7733-48.2755 50.9396-47.7518C51.0599-47.3695 51.1059-46.9485 51.2156-46.5557C51.3076-46.2089 51.4173-45.8586 51.5659-45.5508C51.626-45.4234 51.8065-45.3809 51.9374-45.3349C52.5885-45.1014 53.2537-45.0625 53.919-45.0695C54.708-45.0731 55.4971-45.0483 56.2791-45.112C57.1107-45.1828 57.9422-45.3172 58.7667-45.4835C59.3045-45.5897 59.8282-45.8091 60.359-45.9754C60.6951-46.0815 61.0313-46.1665 61.3639-46.2726C61.6824-46.3788 62.0008-46.4708 62.3122-46.6088C63.1968-47.0051 64.092-47.044 65.005-46.7822C65.3942-46.6689 65.794-46.6442 66.1904-46.5805C66.7211-46.4991 67.2484-46.4035 67.7791-46.3398C68.0728-46.308 68.3736-46.308 68.6673-46.354C69.1627-46.4283 69.658-46.5522 70.1499-46.6512C70.3838-46.7008 70.6209-46.7751 70.8579-46.7857C71.463-46.814 72.0716-46.8423 72.6767-46.8211C73.2853-46.7963 73.8939-46.7291 74.5026-46.6477C74.9449-46.5875 75.3836-46.4778 75.8189-46.3788C75.9399-46.3494 76.0542-46.2967 76.155-46.2231C76.2046-46.1877 76.2541-46.0709 76.2435-46.0072C76.2304-45.9198 76.1847-45.8402 76.1161-45.7843C75.9286-45.6605 75.7269-45.5614 75.5358-45.4517L75.3341-45.3243C75.5606-45.2288 75.7375-45.1262 75.925-45.0766C76.5266-44.9245 77.1352-44.8183 77.7332-44.6485C78.2109-44.5069 78.6779-44.3123 79.1486-44.1177C79.283-44.0611 79.4599-43.9691 79.3962-43.6966C79.363-43.5809 79.2979-43.4769 79.2087-43.3958C78.961-43.1623 78.6532-43.1871 78.3701-43.1128C77.8358-42.9606 77.2979-43.0526 76.7601-43.0738L76.6752-43.0703C76.6646-43.0703 76.6575-43.0597 76.6186-43.0385L76.7636-42.9606C77.0644-42.8297 77.3652-42.6882 77.6695-42.5714C77.8959-42.49 78.133-42.4511 78.363-42.3768C78.6284-42.2883 78.8938-42.1751 79.1592-42.0834C79.4776-41.9773 79.7961-41.8959 80.111-41.765C80.4118-41.6411 80.7373-41.5668 80.9709-41.2484C81.0699-41.1139 81.1832-40.9653 81.0841-40.7459C80.9992-40.5548 80.8895-40.4628 80.7055-40.4699C80.4082-40.477 80.1075-40.4239 79.8102-40.4133C79.6652-40.4097 79.5166-40.4557 79.3715-40.4664C79.0636-40.4911 78.7558-40.5017 78.4515-40.5265C78.3206-40.5371 78.1896-40.5654 78.0339-40.5407L78.5046-40.1054L79.7006-39.0333C79.7855-38.9625 79.8881-38.9236 79.9801-38.8564C80.1853-38.7113 80.3941-38.5733 80.5852-38.3964C80.6559-38.3327 80.709-38.177 80.709-38.0602C80.709-37.8904 80.6029-37.8337 80.479-37.8337C80.1464-37.8337 79.7996-37.7559 79.4776-37.8337C78.8938-37.9753 78.3206-38.2017 77.7438-38.4034C77.4784-38.499 77.2166-38.6228 76.9512-38.7219C76.9016-38.7431 76.845-38.729 76.7389-38.729C76.9229-38.5202 77.075-38.3504 77.2342-38.1805C77.581-37.8019 77.9278-37.4197 78.2816-37.0482C78.5046-36.8217 78.7346-36.613 78.9681-36.4007C79.0778-36.298 79.0672-35.976 78.9327-35.8947C78.6249-35.7213 78.3064-35.5833 77.9667-35.6576C77.7155-35.7107 77.4642-35.7496 77.2413-35.9548C77.0927-36.0928 76.9441-36.0433 76.8202-35.8487C76.7258-35.6969 76.6168-35.5546 76.4947-35.424C76.431-35.3533 76.339-35.2967 76.2576-35.3002C76.0524-35.3002 75.8436-35.371 75.6384-35.3639C75.3659-35.3533 75.097-35.3002 74.8246-35.2577C74.7892-35.2542 74.7538-35.194 74.7184-35.1587C74.5167-34.9393 74.3009-34.78 74.0284-34.7836C73.809-34.7871 73.5932-34.7482 73.3738-34.7305C73.3136-34.727 73.2393-34.7199 73.1969-34.7624C73.0412-34.9145 72.9492-34.7977 72.8182-34.6739C72.6516-34.5129 72.4488-34.394 72.2273-34.3271C71.8487-34.221 71.4595-34.1927 71.0809-34.1077C70.956-34.0709 70.8427-34.0026 70.7518-33.9096C70.5253-33.6973 70.2737-33.6584 70.0084-33.6336C69.7278-33.6085 69.451-33.5501 69.1839-33.4602C68.8584-33.3505 68.5434-33.1771 68.2214-33.0462C67.995-32.9542 67.7437-32.9436 67.5456-32.795C67.22-32.5473 66.8804-32.5296 66.53-32.5119C66.3882-32.5006 66.2505-32.4581 66.1267-32.388C65.6773-32.151 65.2067-32.1333 64.736-32.105C64.585-32.0795 64.4452-32.0077 64.3362-31.8997C64.177-31.76 63.9887-31.6574 63.7849-31.599C63.5811-31.5409 63.367-31.5289 63.1579-31.5636C63.0411-31.5742 62.9173-31.5176 62.797-31.4751C62.5988-31.4044 62.4077-31.2876 62.2131-31.2522C61.757-31.1701 61.2977-31.1039 60.8367-31.054C60.6527-31.0328 60.458-31.0824 60.2776-31.0434C59.9531-30.9758 59.6336-30.8846 59.3222-30.771C58.9825-30.6471 58.6711-30.725 58.3951-30.9656C58.1616-31.1744 57.9422-31.093 57.7157-31.0257C57.4217-30.9518 57.1107-30.9925 56.8453-31.139C56.634-31.2214 56.4047-31.2483 56.18-31.2168C55.8368-31.192 55.4971-31.1284 55.1645-31.3159C55.1079-31.3442 55.0477-31.3407 54.9876-31.369C54.9168-31.4044 54.8496-31.4645 54.7753-31.4893C54.6904-31.5176 54.5807-31.5636 54.5064-31.5211C54.1879-31.3336 53.8694-31.3619 53.5439-31.4433C53.3564-31.4893 53.1759-31.6096 52.9919-31.691C52.8928-31.7334 52.7902-31.7794 52.684-31.7971C52.5885-31.8184 52.539-31.7405 52.5956-31.6202C52.815-31.1496 53.0485-30.686 53.2679-30.2119C53.4342-29.858 53.5757-29.4794 53.7491-29.1291C54.1242-28.3684 54.517-27.6288 54.892-26.8645C55.0973-26.447 55.2742-25.9976 55.4724-25.5659C55.6104-25.2687 55.7837-24.9962 55.897-24.6816C55.9826-24.4831 56.0229-24.268 56.0155-24.0521C56.0084-23.8363 55.9532-23.6247 55.8545-23.4326C55.766-23.2415 55.6326-23.0752 55.4653-22.9478C55.3591-22.877 55.2884-22.6895 55.2353-22.5338C55.1408-22.2111 54.9526-21.9241 54.6939-21.7093C54.5984-21.6421 54.4993-21.5855 54.4002-21.5253C54.1214-21.342 53.8829-21.1035 53.6996-20.8247C53.6253-20.715 53.4979-20.6584 53.3917-20.5947C53.1313-20.4457 52.8684-20.3017 52.6027-20.163C52.4717-20.0922 52.3408-20.0002 52.2064-19.9861C51.8384-19.9507 51.5093-19.7809 51.1696-19.611C50.9276-19.49 50.6579-19.4337 50.3876-19.4482C50.0642-19.4858 49.7372-19.4277 49.4464-19.2819C49.2949-19.1952 49.1229-19.151 48.9485-19.1537C48.774-19.157 48.6038-19.2073 48.4556-19.2996C48.0816-19.536 47.64-19.6418 47.1994-19.6004C46.933-19.5647 46.663-19.633 46.4457-19.7915C46.3042-19.8835 46.145-20.0179 46.0105-19.9861C45.8017-19.9401 45.6319-20.0356 45.455-20.1029C45.3736-20.1347 45.3064-20.2232 45.2285-20.2692C45.0056-20.4107 44.772-20.5275 44.5562-20.6726C44.3036-20.8403 44.0594-21.0197 43.8237-21.2104C43.753-21.267 43.7176-21.3979 43.6574-21.4758C43.569-21.5926 43.4805-21.7412 43.3708-21.7872C43.1865-21.8572 43.0202-21.9673 42.8829-22.1092C42.7459-22.2511 42.6419-22.4213 42.5782-22.6081C42.5032-22.7804 42.3804-22.928 42.2244-23.0327C42.1147-23.1106 42.0368-23.1884 42.012-23.3512C41.9484-23.6944 41.8811-24.0412 42.0085-24.3879C42.0227-24.4304 42.0404-24.4799 42.0687-24.5082C42.4296-24.8617 42.5357-25.435 42.7551-25.9127L43.162-26.8079C43.3885-27.321 43.6008-27.8482 43.8379-28.3507C44.1316-28.9628 44.4465-29.5608 44.7473-30.1659C45.0304-30.732 45.3064-31.3053 45.5859-31.875L45.593-31.9033L45.6779-32.158C45.5859-32.1651 45.501-32.1757 45.409-32.1757C45.3347-32.1757 45.2568-32.1651 45.1825-32.158C45.1365-32.158 45.0905-32.1722 45.0516-32.1545C44.3793-31.8254 43.6716-31.8714 42.9816-31.7759C42.7905-31.7476 42.5924-31.7759 42.4013-31.7405C42.1784-31.7051 41.9554-31.6344 41.7325-31.5777C41.591-31.5424 41.4494-31.5247 41.3079-31.4751C41.039-31.3867 40.7807-31.4468 40.5188-31.5388C40.3706-31.5894 40.2152-31.6167 40.0588-31.6202C39.6271-31.6344 39.1919-31.6308 38.7602-31.6414C38.687-31.6446 38.6158-31.6637 38.5513-31.698C38.2753-31.8431 38.0205-31.6273 37.7551-31.6096C37.5145-31.5954 37.2704-31.652 37.0262-31.6768C36.8755-31.6927 36.7245-31.7044 36.5733-31.7122C36.3539-31.7193 36.1309-31.7122 35.9116-31.7299C35.7453-31.744 35.5825-31.79 35.4162-31.8184C35.1331-31.8679 34.85-31.8891 34.574-31.9705C34.3759-32.0271 34.1919-32.1687 34.0008-32.2536C33.884-32.3067 33.7496-32.3845 33.6399-32.3491C33.2966-32.2359 33.0348-32.4234 32.7552-32.6534C32.4989-32.8668 32.2186-33.0497 31.9201-33.1984C31.6972-33.3045 31.4495-33.3328 31.2124-33.3753C30.8798-33.4354 30.618-33.676 30.4021-33.9874C30.2606-34.1997 30.1049-34.2245 29.9351-34.175C29.6272-34.09 29.3476-34.2104 29.0893-34.3802C28.7947-34.5805 28.4477-34.6898 28.0915-34.6951C27.8226-34.6951 27.6173-34.872 27.451-35.1304C27.401-35.2195 27.3254-35.2921 27.234-35.3381C27.1426-35.3841 27.0395-35.4018 26.938-35.3887C26.665-35.3547 26.3879-35.395 26.1362-35.5061C25.8844-35.6169 25.6675-35.7942 25.5084-36.0185C25.2642-36.3476 25.0342-36.2945 24.7724-36.2485C24.3548-36.1777 23.9585-36.153 23.587-36.5316C23.2968-36.8359 22.9324-36.7404 22.5856-36.7439C22.3131-36.751 22.0371-36.8217 21.7682-36.889C21.5913-36.935 21.4356-37.034 21.379-37.303C21.3719-37.3419 21.294-37.3702 21.248-37.3808C20.7987-37.5011 20.3599-37.356 19.9211-37.2676C19.78-37.2375 19.6341-37.2372 19.4929-37.2665C19.3515-37.2955 19.2178-37.3539 19.1002-37.4374C18.9197-37.5577 18.8878-37.855 19.0577-38.0177C19.4399-38.3928 19.8362-38.7608 20.2325-39.1111C20.5333-39.38 20.8447-39.6207 21.1525-39.8754L21.1525-39.9285L21.1525-39.925Z"/>
   <path class="monochrome-1 multicolor-1:tintColor hierarchical-1:tertiary SFSymbolsPreviewWireframe" d="M48.9411-84C55.3091-84.0013 61.615-82.7479 67.4985-80.3116C73.382-77.8752 78.7279-74.3036 83.2305-69.8009C87.7334-65.2983 91.305-59.9524 93.7418-54.0682C96.1779-48.1846 97.4312-41.8789 97.43-35.5124C97.43-8.72255 75.7254 13 48.9424 13C22.156 13 0.43-8.726 0.43-35.5124C0.43-62.2926 22.1539-84 48.9411-84ZM48.9424-70C29.8835-70 14.43-54.5582 14.43-35.5124C14.43-16.458 29.888-0.999999 48.9424-0.999999C67.9909-0.999999 83.43-16.4519 83.43-35.5138C83.4309-40.0428 82.5395-44.5276 80.8069-48.7121C79.0739-52.8969 76.5337-56.6989 73.3311-59.9013C70.1287-63.1038 66.3266-65.644 62.1422-67.3767C57.9578-69.1095 53.4729-70.0009 48.9424-70Z"/>
  </g>
  <g id="Regular-S" transform="matrix(1 0 0 1 1403.58 696)">
   <path class="monochrome-0 multicolor-0:tintColor hierarchical-0:primary SFSymbolsPreviewWireframe" d="M18.1425-40.9249C18.0576-40.9355 17.9727-40.9603 17.8948-40.9462C17.6118-40.9108 17.3287-40.8683 17.0527-40.8223C16.7802-40.7763 16.5148-40.6914 16.2459-40.6772C15.8283-40.6606 15.4102-40.6663 14.9933-40.6949C14.9296-40.6985 14.827-40.8188 14.8199-40.8966C14.8093-41.0488 14.8128-41.2682 14.8836-41.3531C15.0782-41.5937 15.2976-41.8131 15.5311-41.99C16.0973-42.4075 16.6812-42.7932 17.2579-43.2281C17.1447-43.2175 17.035-43.2072 16.9253-43.1895C16.8121-43.1683 16.6988-43.1188 16.5821-43.1152C16.2848-43.1046 15.984-43.0975 15.6868-43.1152C15.4554-43.1347 15.2258-43.1726 15.0003-43.2281C14.8588-43.26 14.696-43.2883 14.5828-43.3944C14.4824-43.5098 14.4249-43.6559 14.42-43.8084C14.42-43.9146 14.5191-44.0738 14.6005-44.1269C14.9897-44.371 15.3754-44.6081 15.7753-44.8063C16.1857-45.008 16.6104-45.1601 17.0279-45.337C17.2048-45.4078 17.3782-45.4857 17.5516-45.5635C17.5799-45.5777 17.6047-45.613 17.6613-45.6626L17.3216-45.8395C17.1933-45.8993 17.0635-45.9559 16.9324-46.0093C16.6493-46.1297 16.3627-46.2323 16.0831-46.3632C16.01-46.394 15.9494-46.4485 15.9109-46.5178C15.8724-46.5868 15.8583-46.6671 15.8708-46.7453C15.8813-46.8278 15.9158-46.9053 15.9699-46.9683C16.3238-47.3504 16.7696-47.3115 17.1872-47.4106C17.4419-47.4672 17.6967-47.5273 17.9515-47.5698C18.2062-47.6123 18.461-47.637 18.7158-47.6653L20.1807-47.8423C20.2338-47.8493 20.2869-47.8847 20.3435-47.9661L19.9083-48.1501C19.742-48.2138 19.5685-48.2563 19.4058-48.3412C19.2674-48.4197 19.1391-48.5149 19.0236-48.6243C18.9953-48.6526 18.9741-48.7765 18.9882-48.8013C19.0944-48.9428 19.197-49.1516 19.3208-49.1763C19.7207-49.2648 20.1276-49.3037 20.531-49.325C20.8495-49.3391 21.175-49.3073 21.497-49.2825C22.0703-49.2436 22.6435-49.187 23.2167-49.1516C23.7263-49.1197 24.2358-49.1162 24.7489-49.0808C25.0249-49.0596 25.3009-48.9923 25.5805-48.9746C26.1537-48.9393 26.7269-48.918 27.3037-48.8862L28.5599-48.8154C28.8182-48.8013 29.0765-48.8083 29.3383-48.7836C29.9328-48.727 30.5308-48.6845 31.1218-48.5854C31.6384-48.5005 32.1479-48.3518 32.6645-48.228C33.0396-48.1324 33.4182-48.044 33.7968-47.9307C34.3807-47.7538 34.9787-47.6123 35.5484-47.3646C36.2775-47.0497 37.0276-46.9364 37.7778-46.8126C38.351-46.717 38.9207-46.6498 39.4939-46.5649C39.869-46.5047 40.2441-46.3915 40.6227-46.3809C41.0898-46.3667 41.5604-46.434 42.031-46.4587C42.2185-46.4729 42.4061-46.4587 42.5936-46.48C42.9722-46.5189 43.3509-46.5684 43.7259-46.6321C43.7967-46.6463 43.871-46.7418 43.9064-46.8267C44.0019-47.0603 44.0798-47.308 44.1647-47.5486C44.2496-47.7963 44.3487-48.044 44.423-48.2917C44.4938-48.5288 44.5398-48.7765 44.6105-49.0136C44.6389-49.1126 44.7061-49.1905 44.7415-49.2896C44.8229-49.5231 44.8582-49.8061 44.9821-49.9901C45.2298-50.3688 45.3041-50.9278 45.6792-51.1755C45.7814-51.2434 45.872-51.3269 45.9481-51.4232C45.9976-51.4869 46.0082-51.6001 46.0401-51.6815L46.1745-52C46.2418-51.9257 46.3656-51.8478 46.3656-51.7735C46.3621-51.3843 46.6027-51.2993 46.7655-51.1012C46.9778-50.8465 47.2042-50.5846 47.3529-50.2661C47.5793-49.7885 47.7633-49.2754 47.9296-48.7517C48.0499-48.3695 48.0959-47.9484 48.2056-47.5557C48.2976-47.2089 48.4073-46.8586 48.5559-46.5507C48.6161-46.4233 48.7965-46.3809 48.9275-46.3349C49.5785-46.1013 50.2438-46.0624 50.909-46.0695C51.6981-46.073 52.4872-46.0483 53.2692-46.112C54.1007-46.1827 54.9322-46.3172 55.7567-46.4835C56.2945-46.5897 56.8182-46.809 57.349-46.9753C57.6852-47.0815 58.0213-47.1664 58.3539-47.2726C58.6724-47.3787 58.9909-47.4707 59.3022-47.6087C60.1869-48.005 61.0821-48.044 61.995-47.7821C62.3842-47.6689 62.7841-47.6441 63.1804-47.5804C63.7112-47.499 64.2384-47.4035 64.7692-47.3398C65.0629-47.308 65.3636-47.308 65.6573-47.354C66.1527-47.4283 66.6481-47.5521 67.1399-47.6512C67.3738-47.7007 67.6109-47.775 67.848-47.7857C68.4531-47.814 69.0617-47.8423 69.6667-47.821C70.2754-47.7963 70.884-47.729 71.4926-47.6477C71.9349-47.5875 72.3737-47.4778 72.8089-47.3787C72.9299-47.3494 73.0442-47.2966 73.1451-47.223C73.1946-47.1877 73.2441-47.0709 73.2335-47.0072C73.2204-46.9198 73.1748-46.8402 73.1061-46.7843C72.9186-46.6604 72.7169-46.5613 72.5258-46.4517L72.3241-46.3243C72.5506-46.2287 72.7275-46.1261 72.9151-46.0766C73.5166-45.9244 74.1252-45.8183 74.7232-45.6484C75.2009-45.5069 75.668-45.3123 76.1386-45.1177C76.2731-45.061 76.45-44.969 76.3863-44.6966C76.353-44.5809 76.2879-44.4768 76.1987-44.3958C75.9511-44.1623 75.6432-44.187 75.3601-44.1127C74.8258-43.9606 74.288-44.0526 73.7501-44.0738L73.6652-44.0703C73.6546-44.0703 73.6475-44.0597 73.6086-44.0384L73.7537-43.9606C74.0544-43.8297 74.3552-43.6881 74.6595-43.5713C74.886-43.49 75.1231-43.451 75.3531-43.3767C75.6184-43.2883 75.8838-43.175 76.1492-43.0834C76.4677-42.9772 76.7861-42.8959 77.1011-42.7649C77.4018-42.6411 77.7274-42.5668 77.9609-42.2483C78.06-42.1139 78.1732-41.9652 78.0741-41.7459C77.9892-41.5548 77.8795-41.4628 77.6955-41.4699C77.3983-41.4769 77.0975-41.4239 76.8003-41.4132C76.6552-41.4097 76.5066-41.4557 76.3615-41.4663C76.0537-41.4911 75.7458-41.5017 75.4415-41.5265C75.3106-41.5371 75.1797-41.5654 75.024-41.5406L75.4946-41.1054L76.6906-40.0332C76.7755-39.9625 76.8781-39.9235 76.9701-39.8563C77.1754-39.7112 77.3841-39.5732 77.5752-39.3963C77.646-39.3326 77.6991-39.1769 77.6991-39.0602C77.6991-38.8903 77.5929-38.8337 77.4691-38.8337C77.1364-38.8337 76.7897-38.7559 76.4677-38.8337C75.8838-38.9752 75.3106-39.2017 74.7338-39.4034C74.4684-39.4989 74.2066-39.6228 73.9412-39.7219C73.8917-39.7431 73.8351-39.7289 73.7289-39.7289C73.9129-39.5202 74.0651-39.3503 74.2243-39.1805C74.5711-38.8019 74.9178-38.4197 75.2717-38.0482C75.4946-37.8217 75.7246-37.6129 75.9581-37.4006C76.0678-37.298 76.0572-36.976 75.9227-36.8946C75.6149-36.7212 75.2964-36.5832 74.9567-36.6575C74.7055-36.7106 74.4543-36.7495 74.2314-36.9548C74.0827-37.0928 73.9341-37.0432 73.8103-36.8486C73.7158-36.6968 73.6068-36.5546 73.4847-36.424C73.4211-36.3532 73.3291-36.2966 73.2477-36.3002C73.0424-36.3002 72.8337-36.3709 72.6284-36.3639C72.356-36.3532 72.0871-36.3002 71.8146-36.2577C71.7792-36.2542 71.7438-36.194 71.7084-36.1586C71.5067-35.9392 71.2909-35.78 71.0184-35.7835C70.7991-35.7871 70.5832-35.7482 70.3638-35.7305C70.3037-35.7269 70.2294-35.7199 70.1869-35.7623C70.0312-35.9145 69.9392-35.7977 69.8083-35.6739C69.6416-35.5129 69.4389-35.394 69.2174-35.3271C68.8387-35.2209 68.4495-35.1926 68.0709-35.1077C67.946-35.0709 67.8328-35.0026 67.7418-34.9095C67.5154-34.6972 67.2638-34.6583 66.9984-34.6335C66.7178-34.6084 66.4411-34.55 66.1739-34.4602C65.8484-34.3505 65.5335-34.1771 65.2115-34.0462C64.985-33.9542 64.7338-33.9435 64.5356-33.7949C64.2101-33.5472 63.8704-33.5295 63.5201-33.5119C63.3782-33.5005 63.2405-33.4581 63.1167-33.388C62.6673-33.1509 62.1967-33.1332 61.7261-33.1049C61.575-33.0795 61.4352-33.0076 61.3262-32.8997C61.167-32.7599 60.9788-32.6573 60.7749-32.5989C60.5711-32.5409 60.3571-32.5289 60.1479-32.5635C60.0312-32.5742 59.9073-32.5175 59.787-32.4751C59.5889-32.4043 59.3978-32.2875 59.2032-32.2522C58.7471-32.1701 58.2878-32.1039 57.8267-32.054C57.6427-32.0328 57.4481-32.0823 57.2676-32.0434C56.9431-31.9758 56.6236-31.8845 56.3122-31.7709C55.9725-31.6471 55.6612-31.7249 55.3852-31.9655C55.1516-32.1743 54.9322-32.0929 54.7058-32.0257C54.4117-31.9517 54.1007-31.9924 53.8353-32.1389C53.6241-32.2214 53.3948-32.2483 53.1701-32.2168C52.8269-32.192 52.4872-32.1283 52.1545-32.3159C52.0979-32.3442 52.0378-32.3406 51.9776-32.3689C51.9069-32.4043 51.8396-32.4645 51.7653-32.4892C51.6804-32.5175 51.5707-32.5635 51.4964-32.5211C51.1779-32.3335 50.8595-32.3619 50.5339-32.4432C50.3464-32.4892 50.1659-32.6095 49.9819-32.6909C49.8829-32.7334 49.7802-32.7794 49.6741-32.7971C49.5785-32.8183 49.529-32.7405 49.5856-32.6202C49.805-32.1495 50.0385-31.686 50.2579-31.2119C50.4242-30.858 50.5658-30.4794 50.7392-30.1291C51.1142-29.3683 51.507-28.6288 51.8821-27.8645C52.0873-27.4469 52.2642-26.9975 52.4624-26.5659C52.6004-26.2686 52.7738-25.9962 52.887-25.6816C52.9726-25.4831 53.013-25.2679 53.0055-25.0521C52.9985-24.8363 52.9433-24.6247 52.8445-24.4325C52.7561-24.2414 52.6227-24.0751 52.4553-23.9477C52.3492-23.877 52.2784-23.6894 52.2253-23.5337C52.1308-23.211 51.9426-22.9241 51.6839-22.7093C51.5884-22.6421 51.4893-22.5854 51.3902-22.5253C51.1114-22.342 50.8729-22.1035 50.6896-21.8247C50.6153-21.715 50.4879-21.6584 50.3818-21.5947C50.1213-21.4457 49.8584-21.3017 49.5927-21.163C49.4618-21.0922 49.3309-21.0002 49.1964-20.9861C48.8284-20.9507 48.4993-20.7808 48.1596-20.611C47.9176-20.49 47.648-20.4337 47.3776-20.4482C47.0542-20.4857 46.7273-20.4277 46.4364-20.2819C46.2849-20.1952 46.113-20.151 45.9385-20.1537C45.7641-20.157 45.5939-20.2072 45.4456-20.2996C45.0716-20.536 44.63-20.6418 44.1895-20.6004C43.923-20.5646 43.653-20.6329 43.4358-20.7914C43.2942-20.8834 43.135-21.0179 43.0005-20.9861C42.7918-20.9401 42.6219-21.0356 42.445-21.1028C42.3636-21.1347 42.2964-21.2231 42.2185-21.2691C41.9956-21.4107 41.7621-21.5274 41.5462-21.6725C41.2936-21.8402 41.0494-22.0196 40.8138-22.2104C40.743-22.267 40.7076-22.3979 40.6475-22.4757C40.559-22.5925 40.4705-22.7411 40.3609-22.7871C40.1765-22.8572 40.0102-22.9672 39.8729-23.1091C39.736-23.251 39.6319-23.4212 39.5682-23.6081C39.4932-23.7804 39.3704-23.9279 39.2144-24.0327C39.1047-24.1105 39.0269-24.1884 39.0021-24.3511C38.9384-24.6944 38.8712-25.0411 38.9985-25.3879C39.0127-25.4304 39.0304-25.4799 39.0587-25.5082C39.4196-25.8617 39.5258-26.4349 39.7452-26.9126L40.1521-27.8079C40.3785-28.3209 40.5909-28.8482 40.8279-29.3506C41.1216-29.9628 41.4365-30.5608 41.7373-31.1659C42.0204-31.732 42.2964-32.3052 42.5759-32.8749L42.583-32.9032L42.6679-33.158C42.5759-33.1651 42.491-33.1757 42.399-33.1757C42.3247-33.1757 42.2469-33.1651 42.1725-33.158C42.1265-33.158 42.0805-33.1722 42.0416-33.1545C41.3693-32.8254 40.6616-32.8714 39.9716-32.7759C39.7805-32.7475 39.5824-32.7759 39.3913-32.7405C39.1684-32.7051 38.9455-32.6343 38.7225-32.5777C38.581-32.5423 38.4395-32.5246 38.2979-32.4751C38.029-32.3866 37.7707-32.4468 37.5089-32.5388C37.3606-32.5894 37.2053-32.6166 37.0489-32.6202C36.6172-32.6343 36.1819-32.6308 35.7502-32.6414C35.677-32.6446 35.6058-32.6637 35.5413-32.698C35.2653-32.8431 35.0106-32.6272 34.7452-32.6095C34.5046-32.5954 34.2604-32.652 34.0163-32.6768C33.8656-32.6927 33.7146-32.7044 33.5633-32.7122C33.3439-32.7192 33.121-32.7122 32.9016-32.7299C32.7353-32.744 32.5725-32.79 32.4062-32.8183C32.1231-32.8679 31.8401-32.8891 31.5641-32.9705C31.3659-33.0271 31.1819-33.1686 30.9908-33.2535C30.8741-33.3066 30.7396-33.3845 30.6299-33.3491C30.2866-33.2359 30.0248-33.4234 29.7453-33.6534C29.4889-33.8668 29.2087-34.0497 28.9102-34.1983C28.6873-34.3045 28.4396-34.3328 28.2025-34.3752C27.8699-34.4354 27.608-34.676 27.3922-34.9874C27.2506-35.1997 27.0949-35.2245 26.9251-35.1749C26.6172-35.09 26.3377-35.2103 26.0794-35.3802C25.7847-35.5804 25.4378-35.6898 25.0815-35.6951C24.8126-35.6951 24.6074-35.872 24.4411-36.1303C24.3911-36.2195 24.3155-36.292 24.2241-36.338C24.1326-36.384 24.0295-36.4017 23.928-36.3886C23.655-36.3547 23.3779-36.395 23.1262-36.5061C22.8745-36.6169 22.6575-36.7941 22.4984-37.0185C22.2543-37.3475 22.0243-37.2945 21.7624-37.2485C21.3449-37.1777 20.9486-37.1529 20.577-37.5315C20.2869-37.8359 19.9224-37.7403 19.5756-37.7439C19.3032-37.7509 19.0272-37.8217 18.7582-37.8889C18.5813-37.9349 18.4256-38.034 18.369-38.3029C18.3619-38.3419 18.2841-38.3702 18.2381-38.3808C17.7887-38.5011 17.3499-38.356 16.9112-38.2675C16.77-38.2375 16.6242-38.2371 16.4829-38.2665C16.3416-38.2955 16.2079-38.3539 16.0902-38.4374C15.9097-38.5577 15.8779-38.8549 16.0477-39.0177C16.4299-39.3928 16.8262-39.7608 17.2225-40.1111C17.5233-40.38 17.8347-40.6206 18.1425-40.8754L18.1425-40.9285L18.1425-40.9249Z"/>
   <path class="monochrome-1 multicolor-1:tintColor hierarchical-1:tertiary SFSymbolsPreviewWireframe" d="M46.4321-81.8365C52.4502-81.8377 58.4096-80.6532 63.9698-78.3508C69.53-76.0483 74.5822-72.6729 78.8374-68.4176C83.0928-64.1624 86.4682-59.1103 88.771-53.5496C91.0733-47.9892 92.2577-42.03 92.2566-36.0127C92.2566-10.693 71.744 9.83658 46.4328 9.83658C21.1173 9.83658 0.5835-10.6972 0.5835-36.0127C0.5835-61.3211 21.1145-81.8365 46.4321-81.8365ZM46.4328-75.0865C24.8413-75.0865 7.3335-57.592 7.3335-36.0127C7.3335-14.4252 24.8452 3.08658 46.4328 3.08658C68.0148 3.08658 85.5066-14.4197 85.5066-36.0133C85.5076-41.1447 84.4976-46.226 82.5345-50.9672C80.571-55.7085 77.693-60.0162 74.0644-63.6446C70.4361-67.273 66.1283-70.1511 61.3873-72.1143C56.6463-74.0776 51.5649-75.0875 46.4328-75.0865Z"/>
  </g>
  <g id="Ultralight-S" transform="matrix(1 0 0 1 515.649 696)">
   <path class="monochrome-0 multicolor-0:tintColor hierarchical-0:primary SFSymbolsPreviewWireframe" d="M16.0735-41.9249C15.9886-41.9355 15.9037-41.9603 15.8258-41.9462C15.5428-41.9108 15.2597-41.8683 14.9837-41.8223C14.7112-41.7763 14.4458-41.6914 14.1769-41.6772C13.7593-41.6606 13.3412-41.6663 12.9243-41.6949C12.8606-41.6985 12.758-41.8188 12.7509-41.8966C12.7403-42.0488 12.7438-42.2682 12.8146-42.3531C13.0092-42.5937 13.2286-42.8131 13.4621-42.99C14.0283-43.4075 14.6122-43.7932 15.1889-44.2281C15.0757-44.2175 14.966-44.2072 14.8563-44.1895C14.7431-44.1683 14.6298-44.1188 14.5131-44.1152C14.2158-44.1046 13.915-44.0975 13.6178-44.1152C13.3864-44.1347 13.1568-44.1726 12.9313-44.2281C12.7898-44.26 12.627-44.2883 12.5138-44.3944C12.4134-44.5098 12.3559-44.6559 12.351-44.8084C12.351-44.9146 12.4501-45.0738 12.5315-45.1269C12.9207-45.371 13.3064-45.6081 13.7063-45.8063C14.1167-46.008 14.5414-46.1601 14.9589-46.337C15.1358-46.4078 15.3092-46.4857 15.4826-46.5635C15.5109-46.5777 15.5357-46.613 15.5923-46.6626L15.2526-46.8395C15.1243-46.8993 14.9945-46.9559 14.8634-47.0093C14.5803-47.1297 14.2937-47.2323 14.0141-47.3632C13.941-47.394 13.8804-47.4485 13.8419-47.5178C13.8034-47.5868 13.7893-47.6671 13.8018-47.7453C13.8123-47.8278 13.8468-47.9053 13.9009-47.9683C14.2548-48.3504 14.7006-48.3115 15.1182-48.4106C15.3729-48.4672 15.6277-48.5273 15.8825-48.5698C16.1372-48.6123 16.392-48.637 16.6468-48.6653L18.1117-48.8423C18.1648-48.8493 18.2179-48.8847 18.2745-48.9661L17.8393-49.1501C17.673-49.2138 17.4995-49.2563 17.3368-49.3412C17.1984-49.4197 17.0701-49.5149 16.9546-49.6243C16.9263-49.6526 16.9051-49.7765 16.9192-49.8013C17.0254-49.9428 17.128-50.1516 17.2518-50.1763C17.6517-50.2648 18.0586-50.3037 18.462-50.325C18.7805-50.3391 19.106-50.3073 19.428-50.2825C20.0013-50.2436 20.5745-50.187 21.1477-50.1516C21.6573-50.1197 22.1668-50.1162 22.6799-50.0808C22.9559-50.0596 23.2319-49.9923 23.5115-49.9746C24.0847-49.9393 24.6579-49.918 25.2347-49.8862L26.4909-49.8154C26.7492-49.8013 27.0075-49.8083 27.2693-49.7836C27.8638-49.727 28.4618-49.6845 29.0528-49.5854C29.5694-49.5005 30.0789-49.3518 30.5955-49.228C30.9706-49.1324 31.3492-49.044 31.7278-48.9307C32.3117-48.7538 32.9097-48.6123 33.4794-48.3646C34.2085-48.0497 34.9586-47.9364 35.7088-47.8126C36.282-47.717 36.8517-47.6498 37.4249-47.5649C37.8-47.5047 38.1751-47.3915 38.5537-47.3809C39.0208-47.3667 39.4914-47.434 39.962-47.4587C40.1495-47.4729 40.3371-47.4587 40.5246-47.48C40.9032-47.5189 41.2819-47.5684 41.6569-47.6321C41.7277-47.6463 41.802-47.7418 41.8374-47.8267C41.9329-48.0603 42.0108-48.308 42.0957-48.5486C42.1806-48.7963 42.2797-49.044 42.354-49.2917C42.4248-49.5288 42.4708-49.7765 42.5415-50.0136C42.5699-50.1126 42.6371-50.1905 42.6725-50.2896C42.7539-50.5231 42.7892-50.8061 42.9131-50.9901C43.1608-51.3688 43.2351-51.9278 43.6102-52.1755C43.7124-52.2434 43.803-52.3269 43.8791-52.4232C43.9286-52.4869 43.9392-52.6001 43.9711-52.6815L44.1055-53C44.1728-52.9257 44.2966-52.8478 44.2966-52.7735C44.2931-52.3843 44.5337-52.2993 44.6965-52.1012C44.9088-51.8465 45.1352-51.5846 45.2839-51.2661C45.5103-50.7885 45.6943-50.2754 45.8606-49.7517C45.9809-49.3695 46.0269-48.9484 46.1366-48.5557C46.2286-48.2089 46.3383-47.8586 46.4869-47.5507C46.5471-47.4233 46.7275-47.3809 46.8585-47.3349C47.5095-47.1013 48.1748-47.0624 48.84-47.0695C49.6291-47.073 50.4182-47.0483 51.2002-47.112C52.0317-47.1827 52.8632-47.3172 53.6877-47.4835C54.2255-47.5897 54.7492-47.809 55.28-47.9753C55.6162-48.0815 55.9523-48.1664 56.2849-48.2726C56.6034-48.3787 56.9219-48.4707 57.2332-48.6087C58.1179-49.005 59.0131-49.044 59.926-48.7821C60.3152-48.6689 60.7151-48.6441 61.1114-48.5804C61.6422-48.499 62.1694-48.4035 62.7002-48.3398C62.9939-48.308 63.2946-48.308 63.5883-48.354C64.0837-48.4283 64.5791-48.5521 65.0709-48.6512C65.3048-48.7007 65.5419-48.775 65.779-48.7857C66.3841-48.814 66.9927-48.8423 67.5977-48.821C68.2064-48.7963 68.815-48.729 69.4236-48.6477C69.8659-48.5875 70.3047-48.4778 70.7399-48.3787C70.8609-48.3494 70.9752-48.2966 71.0761-48.223C71.1256-48.1877 71.1751-48.0709 71.1645-48.0072C71.1514-47.9198 71.1058-47.8402 71.0371-47.7843C70.8496-47.6604 70.6479-47.5613 70.4568-47.4517L70.2551-47.3243C70.4816-47.2287 70.6585-47.1261 70.8461-47.0766C71.4476-46.9244 72.0562-46.8183 72.6542-46.6484C73.1319-46.5069 73.599-46.3123 74.0696-46.1177C74.2041-46.061 74.381-45.969 74.3173-45.6966C74.284-45.5809 74.2189-45.4768 74.1297-45.3958C73.8821-45.1623 73.5742-45.187 73.2911-45.1127C72.7568-44.9606 72.219-45.0526 71.6811-45.0738L71.5962-45.0703C71.5856-45.0703 71.5785-45.0597 71.5396-45.0384L71.6847-44.9606C71.9854-44.8297 72.2862-44.6881 72.5905-44.5713C72.817-44.49 73.0541-44.451 73.2841-44.3767C73.5494-44.2883 73.8148-44.175 74.0802-44.0834C74.3987-43.9772 74.7171-43.8959 75.0321-43.7649C75.3328-43.6411 75.6584-43.5668 75.8919-43.2483C75.991-43.1139 76.1042-42.9652 76.0051-42.7459C75.9202-42.5548 75.8105-42.4628 75.6265-42.4699C75.3293-42.4769 75.0285-42.4239 74.7313-42.4132C74.5862-42.4097 74.4376-42.4557 74.2925-42.4663C73.9847-42.4911 73.6768-42.5017 73.3725-42.5265C73.2416-42.5371 73.1107-42.5654 72.955-42.5406L73.4256-42.1054L74.6216-41.0332C74.7065-40.9625 74.8091-40.9235 74.9011-40.8563C75.1064-40.7112 75.3151-40.5732 75.5062-40.3963C75.577-40.3326 75.6301-40.1769 75.6301-40.0602C75.6301-39.8903 75.5239-39.8337 75.4001-39.8337C75.0674-39.8337 74.7207-39.7559 74.3987-39.8337C73.8148-39.9752 73.2416-40.2017 72.6648-40.4034C72.3994-40.4989 72.1376-40.6228 71.8722-40.7219C71.8227-40.7431 71.7661-40.7289 71.6599-40.7289C71.8439-40.5202 71.9961-40.3503 72.1553-40.1805C72.5021-39.8019 72.8488-39.4197 73.2027-39.0482C73.4256-38.8217 73.6556-38.6129 73.8891-38.4006C73.9988-38.298 73.9882-37.976 73.8537-37.8946C73.5459-37.7212 73.2274-37.5832 72.8877-37.6575C72.6365-37.7106 72.3853-37.7495 72.1624-37.9548C72.0137-38.0928 71.8651-38.0432 71.7413-37.8486C71.6468-37.6968 71.5378-37.5546 71.4157-37.424C71.3521-37.3532 71.2601-37.2966 71.1787-37.3002C70.9734-37.3002 70.7647-37.3709 70.5594-37.3639C70.287-37.3532 70.0181-37.3002 69.7456-37.2577C69.7102-37.2542 69.6748-37.194 69.6394-37.1586C69.4377-36.9392 69.2219-36.78 68.9494-36.7835C68.7301-36.7871 68.5142-36.7482 68.2948-36.7305C68.2347-36.7269 68.1604-36.7199 68.1179-36.7623C67.9622-36.9145 67.8702-36.7977 67.7393-36.6739C67.5726-36.5129 67.3699-36.394 67.1484-36.3271C66.7697-36.2209 66.3805-36.1926 66.0019-36.1077C65.877-36.0709 65.7638-36.0026 65.6728-35.9095C65.4464-35.6972 65.1948-35.6583 64.9294-35.6335C64.6488-35.6084 64.3721-35.55 64.1049-35.4602C63.7794-35.3505 63.4645-35.1771 63.1425-35.0462C62.916-34.9542 62.6648-34.9435 62.4666-34.7949C62.1411-34.5472 61.8014-34.5295 61.4511-34.5119C61.3092-34.5005 61.1715-34.4581 61.0477-34.388C60.5983-34.1509 60.1277-34.1332 59.6571-34.1049C59.506-34.0795 59.3662-34.0076 59.2572-33.8997C59.098-33.7599 58.9098-33.6573 58.7059-33.5989C58.5021-33.5409 58.2881-33.5289 58.0789-33.5635C57.9622-33.5742 57.8383-33.5175 57.718-33.4751C57.5199-33.4043 57.3288-33.2875 57.1342-33.2522C56.6781-33.1701 56.2188-33.1039 55.7577-33.054C55.5737-33.0328 55.3791-33.0823 55.1986-33.0434C54.8741-32.9758 54.5546-32.8845 54.2432-32.7709C53.9035-32.6471 53.5922-32.7249 53.3162-32.9655C53.0826-33.1743 52.8632-33.0929 52.6368-33.0257C52.3427-32.9517 52.0317-32.9924 51.7663-33.1389C51.5551-33.2214 51.3258-33.2483 51.1011-33.2168C50.7579-33.192 50.4182-33.1283 50.0855-33.3159C50.0289-33.3442 49.9688-33.3406 49.9086-33.3689C49.8379-33.4043 49.7706-33.4645 49.6963-33.4892C49.6114-33.5175 49.5017-33.5635 49.4274-33.5211C49.1089-33.3335 48.7905-33.3619 48.4649-33.4432C48.2774-33.4892 48.0969-33.6095 47.9129-33.6909C47.8139-33.7334 47.7112-33.7794 47.6051-33.7971C47.5095-33.8183 47.46-33.7405 47.5166-33.6202C47.736-33.1495 47.9695-32.686 48.1889-32.2119C48.3552-31.858 48.4968-31.4794 48.6702-31.1291C49.0452-30.3683 49.438-29.6288 49.8131-28.8645C50.0183-28.4469 50.1952-27.9975 50.3934-27.5659C50.5314-27.2686 50.7048-26.9962 50.818-26.6816C50.9036-26.4831 50.944-26.2679 50.9365-26.0521C50.9295-25.8363 50.8743-25.6247 50.7755-25.4325C50.6871-25.2414 50.5537-25.0751 50.3863-24.9477C50.2802-24.877 50.2094-24.6894 50.1563-24.5337C50.0618-24.211 49.8736-23.9241 49.6149-23.7093C49.5194-23.6421 49.4203-23.5854 49.3212-23.5253C49.0424-23.342 48.8039-23.1035 48.6206-22.8247C48.5463-22.715 48.4189-22.6584 48.3128-22.5947C48.0523-22.4457 47.7894-22.3017 47.5237-22.163C47.3928-22.0922 47.2619-22.0002 47.1274-21.9861C46.7594-21.9507 46.4303-21.7808 46.0906-21.611C45.8486-21.49 45.579-21.4337 45.3086-21.4482C44.9852-21.4857 44.6583-21.4277 44.3674-21.2819C44.2159-21.1952 44.044-21.151 43.8695-21.1537C43.6951-21.157 43.5249-21.2072 43.3766-21.2996C43.0026-21.536 42.561-21.6418 42.1205-21.6004C41.854-21.5646 41.584-21.6329 41.3668-21.7914C41.2252-21.8834 41.066-22.0179 40.9315-21.9861C40.7228-21.9401 40.5529-22.0356 40.376-22.1028C40.2946-22.1347 40.2274-22.2231 40.1495-22.2691C39.9266-22.4107 39.6931-22.5274 39.4772-22.6725C39.2246-22.8402 38.9804-23.0196 38.7448-23.2104C38.674-23.267 38.6386-23.3979 38.5785-23.4757C38.49-23.5925 38.4015-23.7411 38.2919-23.7871C38.1075-23.8572 37.9412-23.9672 37.8039-24.1091C37.667-24.251 37.5629-24.4212 37.4992-24.6081C37.4242-24.7804 37.3014-24.9279 37.1454-25.0327C37.0357-25.1105 36.9579-25.1884 36.9331-25.3511C36.8694-25.6944 36.8022-26.0411 36.9295-26.3879C36.9437-26.4304 36.9614-26.4799 36.9897-26.5082C37.3506-26.8617 37.4568-27.4349 37.6762-27.9126L38.0831-28.8079C38.3095-29.3209 38.5219-29.8482 38.7589-30.3506C39.0526-30.9628 39.3675-31.5608 39.6683-32.1659C39.9514-32.732 40.2274-33.3052 40.5069-33.8749L40.514-33.9032L40.5989-34.158C40.5069-34.1651 40.422-34.1757 40.33-34.1757C40.2557-34.1757 40.1779-34.1651 40.1035-34.158C40.0575-34.158 40.0115-34.1722 39.9726-34.1545C39.3003-33.8254 38.5926-33.8714 37.9026-33.7759C37.7115-33.7475 37.5134-33.7759 37.3223-33.7405C37.0994-33.7051 36.8765-33.6343 36.6535-33.5777C36.512-33.5423 36.3705-33.5246 36.2289-33.4751C35.96-33.3866 35.7017-33.4468 35.4399-33.5388C35.2916-33.5894 35.1363-33.6166 34.9799-33.6202C34.5482-33.6343 34.1129-33.6308 33.6812-33.6414C33.608-33.6446 33.5368-33.6637 33.4723-33.698C33.1963-33.8431 32.9416-33.6272 32.6762-33.6095C32.4356-33.5954 32.1914-33.652 31.9473-33.6768C31.7966-33.6927 31.6456-33.7044 31.4943-33.7122C31.2749-33.7192 31.052-33.7122 30.8326-33.7299C30.6663-33.744 30.5035-33.79 30.3372-33.8183C30.0541-33.8679 29.7711-33.8891 29.4951-33.9705C29.2969-34.0271 29.1129-34.1686 28.9218-34.2535C28.8051-34.3066 28.6706-34.3845 28.5609-34.3491C28.2176-34.2359 27.9558-34.4234 27.6763-34.6534C27.4199-34.8668 27.1397-35.0497 26.8412-35.1983C26.6183-35.3045 26.3706-35.3328 26.1335-35.3752C25.8009-35.4354 25.539-35.676 25.3232-35.9874C25.1816-36.1997 25.0259-36.2245 24.8561-36.1749C24.5482-36.09 24.2687-36.2103 24.0104-36.3802C23.7157-36.5804 23.3688-36.6898 23.0125-36.6951C22.7436-36.6951 22.5384-36.872 22.3721-37.1303C22.3221-37.2195 22.2465-37.292 22.1551-37.338C22.0636-37.384 21.9605-37.4017 21.859-37.3886C21.586-37.3547 21.3089-37.395 21.0572-37.5061C20.8055-37.6169 20.5885-37.7941 20.4294-38.0185C20.1853-38.3475 19.9553-38.2945 19.6934-38.2485C19.2759-38.1777 18.8796-38.1529 18.508-38.5315C18.2179-38.8359 17.8534-38.7403 17.5066-38.7439C17.2342-38.7509 16.9582-38.8217 16.6892-38.8889C16.5123-38.9349 16.3566-39.034 16.3-39.3029C16.2929-39.3419 16.2151-39.3702 16.1691-39.3808C15.7197-39.5011 15.2809-39.356 14.8422-39.2675C14.701-39.2375 14.5552-39.2371 14.4139-39.2665C14.2726-39.2955 14.1389-39.3539 14.0212-39.4374C13.8407-39.5577 13.8089-39.8549 13.9787-40.0177C14.3609-40.3928 14.7572-40.7608 15.1535-41.1111C15.4543-41.38 15.7657-41.6206 16.0735-41.8754L16.0735-41.9285L16.0735-41.9249Z"/>
   <path class="monochrome-1 multicolor-1:tintColor hierarchical-1:tertiary SFSymbolsPreviewWireframe" d="M44.3636-80.5865C50.0861-80.5876 55.7528-79.4613 61.04-77.272C66.3271-75.0826 71.1312-71.8729 75.1774-67.8265C79.2239-63.7803 82.4335-58.9764 84.6232-53.6889C86.8124-48.4015 87.9387-42.7349 87.9376-37.0127C87.9376-12.9352 68.432 6.58658 44.3638 6.58658C20.2909 6.58658 0.7645-12.9399 0.7645-37.0127C0.7645-61.0781 20.2877-80.5865 44.3636-80.5865ZM44.3638-78.3365C21.53-78.3365 3.0145-59.8351 3.0145-37.0127C3.0145-14.1825 21.5336 4.33658 44.3638 4.33658C67.1889 4.33658 85.6876-14.1774 85.6876-37.0129C85.6886-42.4398 84.6205-47.8138 82.5443-52.828C80.4678-57.8425 77.4239-62.3983 73.5865-66.2355C69.7491-70.073 65.1932-73.1168 60.1791-75.1931C55.1651-77.2695 49.791-78.3376 44.3638-78.3365Z"/>
  </g>
 </g>
</svg>
