<?xml version="1.0" encoding="UTF-8"?>
<svg width="3300px" height="2200px" viewBox="0 0 3300 2200" version="1.1" xmlns="http://www.w3.org/2000/svg" xmlns:xlink="http://www.w3.org/1999/xlink">
    <!-- Generator: Sketch 59.1 (86144) - https://sketch.com -->
    <title>filter</title>
    <desc>Created with Sketch.</desc>
    <g id="Page-1" stroke="none" stroke-width="1" fill="none" fill-rule="evenodd">
        <g id="filter">
            <g id="Notes">
                <rect id="artboard" fill="#FFFFFF" fill-rule="nonzero" x="0" y="0" width="3300" height="2200"></rect>
                <line x1="263" y1="292" x2="3036" y2="292" id="Path" stroke="#000000" stroke-width="0.5"></line>
                <text id="Weight/Scale-Variations" fill="#000000" font-family="Helvetica-Bold, Helvetica" font-size="13" font-weight="bold">
                    <tspan x="263" y="322">Weight/Scale Variations</tspan>
                </text>
                <text id="Ultralight" fill="#000000" font-family="Helvetica" font-size="13" font-weight="normal">
                    <tspan x="533.711" y="322">Ultralight</tspan>
                </text>
                <text id="Thin" fill="#000000" font-family="Helvetica" font-size="13" font-weight="normal">
                    <tspan x="843.422" y="322">Thin</tspan>
                </text>
                <text id="Light" fill="#000000" font-family="Helvetica" font-size="13" font-weight="normal">
                    <tspan x="1138.63" y="322">Light</tspan>
                </text>
                <text id="Regular" fill="#000000" font-family="Helvetica" font-size="13" font-weight="normal">
                    <tspan x="1426.84" y="322">Regular</tspan>
                </text>
                <text id="Medium" fill="#000000" font-family="Helvetica" font-size="13" font-weight="normal">
                    <tspan x="1723.06" y="322">Medium</tspan>
                </text>
                <text id="Semibold" fill="#000000" font-family="Helvetica" font-size="13" font-weight="normal">
                    <tspan x="2015.77" y="322">Semibold</tspan>
                </text>
                <text id="Bold" fill="#000000" font-family="Helvetica" font-size="13" font-weight="normal">
                    <tspan x="2326.48" y="322">Bold</tspan>
                </text>
                <text id="Heavy" fill="#000000" font-family="Helvetica" font-size="13" font-weight="normal">
                    <tspan x="2618.19" y="322">Heavy</tspan>
                </text>
                <text id="Black" fill="#000000" font-family="Helvetica" font-size="13" font-weight="normal">
                    <tspan x="2917.4" y="322">Black</tspan>
                </text>
                <line x1="263" y1="1903" x2="3036" y2="1903" id="Path" stroke="#000000" stroke-width="0.5"></line>
                <g id="Group" transform="translate(264.000000, 1918.000000)" fill="#000000" fill-rule="nonzero">
                    <path d="M8.24805,15.830078 C12.5547,15.830078 16.1387,12.25586 16.1387,7.94922 C16.1387,3.6426 12.5449,0.0684 8.23828,0.0684 C3.94141,0.0684 0.36719,3.6426 0.36719,7.94922 C0.36719,12.25586 3.95117,15.830078 8.24805,15.830078 Z M8.24805,14.345703 C4.70312,14.345703 1.87109,11.50391 1.87109,7.94922 C1.87109,4.3945 4.69336,1.5527 8.23828,1.5527 C11.793,1.5527 14.6348,4.3945 14.6445503,7.94922 C14.6543,11.50391 11.8027,14.345703 8.24805,14.345703 Z M8.22852,11.57227 C8.69727,11.57227 8.9707,11.25977 8.9707,10.74219 L8.9707,8.68164 L11.1973,8.68164 C11.6953,8.68164 12.0371,8.42773 12.0371,7.95898 C12.0371,7.48047 11.7148,7.2168 11.1973,7.2168 L8.9707,7.2168 L8.9707,4.9902 C8.9707,4.4727 8.69727,4.1504 8.22852,4.1504 C7.75977,4.1504 7.50586,4.4922 7.50586,4.9902 L7.50586,7.2168 L5.29883,7.2168 C4.78125,7.2168 4.44922,7.48047 4.44922,7.95898 C4.44922,8.42773 4.80078,8.68164 5.29883,8.68164 L7.50586,8.68164 L7.50586,10.74219 C7.50586,11.24023 7.75977,11.57227 8.22852,11.57227 Z" id="Shape"></path>
                </g>
                <g id="Group" transform="translate(282.506000, 1915.000000)" fill="#000000" fill-rule="nonzero">
                    <path d="M10.709,20.91016 C16.1582,20.91016 20.6699,16.39844 20.6699,10.94922 C20.6699,5.5098 16.1484,0.9883 10.6992,0.9883 C5.25977,0.9883 0.74805,5.5098 0.74805,10.94922 C0.74805,16.39844 5.26953,20.91016 10.709,20.91016 Z M10.709,19.25 C6.09961,19.25 2.41797,15.55859 2.41797,10.94922 C2.41797,6.3496 6.08984,2.6484 10.6992,2.6484 C15.3086,2.6484 19,6.3496 19.0098379,10.94922 C19.0195,15.55859 15.3184,19.25 10.709,19.25 Z M10.6895,15.58789 C11.207,15.58789 11.5195,15.22656 11.5195,14.66016 L11.5195,11.76953 L14.5762,11.76953 C15.123,11.76953 15.5039,11.48633 15.5039,10.96875 C15.5039,10.44141 15.1426,10.13867 14.5762,10.13867 L11.5195,10.13867 L11.5195,7.0723 C11.5195,6.4961 11.207,6.1445 10.6895,6.1445 C10.1719,6.1445 9.8789,6.5156 9.8789,7.0723 L9.8789,10.13867 L6.83203,10.13867 C6.26562,10.13867 5.89453,10.44141 5.89453,10.96875 C5.89453,11.48633 6.28516,11.76953 6.83203,11.76953 L9.8789,11.76953 L9.8789,14.66016 C9.8789,15.20703 10.1719,15.58789 10.6895,15.58789 Z" id="Shape"></path>
                </g>
                <g id="Group" transform="translate(306.924000, 1913.000000)" fill="#000000" fill-rule="nonzero">
                    <path d="M12.9707,25.67383 C19.9336,25.67383 25.6953,19.921875 25.6953,12.95898 C25.6953,5.9961 19.9238,0.2441 12.9609,0.2441 C6.00781,0.2441 0.25586,5.9961 0.25586,12.95898 C0.25586,19.921875 6.01758,25.67383 12.9707,25.67383 Z M12.9707,23.85742 C6.93555,23.85742 2.08203,18.99414 2.08203,12.95898 C2.08203,6.9238 6.92578,2.0605 12.9609,2.0605 C19.0059,2.0605 23.8594,6.9238 23.8691295,12.95898 C23.8789,18.99414 19.0156,23.85742 12.9707,23.85742 Z M12.9512,18.93555 C13.5176,18.93555 13.8691,18.54492 13.8691,17.93945 L13.8691,13.86719 L18.1074,13.86719 C18.6934,13.86719 19.1133,13.53516 19.1133,12.97852 C19.1133,12.40234 18.7227,12.06055 18.1074,12.06055 L13.8691,12.06055 L13.8691,7.8125 C13.8691,7.1973 13.5176,6.8066 12.9512,6.8066 C12.3848,6.8066 12.0625,7.2168 12.0625,7.8125 L12.0625,12.06055 L7.83398,12.06055 C7.21875,12.06055 6.80859,12.40234 6.80859,12.97852 C6.80859,13.53516 7.23828,13.86719 7.83398,13.86719 L12.0625,13.86719 L12.0625,17.93945 C12.0625,18.52539 12.3848,18.93555 12.9512,18.93555 Z" id="Shape"></path>
                </g>
                <text id="Design-Variations" fill="#000000" font-family="Helvetica-Bold, Helvetica" font-size="13" font-weight="bold">
                    <tspan x="263" y="1953">Design Variations</tspan>
                </text>
                <text id="Symbols-are-supported-in-up-to-nine-weights-and-three-scales." fill="#000000" font-family="Helvetica" font-size="13" font-weight="normal">
                    <tspan x="263" y="1971">Symbols are supported in up to nine weights and three scales.</tspan>
                </text>
                <text id="For-optimal-layout-with-text-and-other-symbols,-vertically-align" fill="#000000" font-family="Helvetica" font-size="13" font-weight="normal">
                    <tspan x="263" y="1989">For optimal layout with text and other symbols, vertically align</tspan>
                </text>
                <text id="symbols-with-the-adjacent-text." fill="#000000" font-family="Helvetica" font-size="13" font-weight="normal">
                    <tspan x="263" y="2007">symbols with the adjacent text.</tspan>
                </text>
                <rect id="Rectangle" fill="#00AEEF" fill-rule="nonzero" opacity="0.4" x="776" y="1919" width="3" height="14"></rect>
                <g id="Group" transform="translate(779.000000, 1918.000000)" fill="#000000" fill-rule="nonzero">
                    <path d="M10.5273,15 L12.373,15 L7.17773,0.9082 L5.43945,0.9082 L0.244141,15 L2.08984,15 L3.50586,10.9668 L9.11133,10.9668 L10.5273,15 Z M6.2793,3.0469 L6.33789,3.0469 L8.59375,9.47266 L4.02344,9.47266 L6.2793,3.0469 Z" id="Shape"></path>
                </g>
                <rect id="Rectangle" fill="#00AEEF" fill-rule="nonzero" opacity="0.4" x="791.617" y="1919" width="3" height="14"></rect>
                <text id="Margins" fill="#000000" font-family="Helvetica-Bold, Helvetica" font-size="13" font-weight="bold">
                    <tspan x="776" y="1953">Margins</tspan>
                </text>
                <text id="Leading-and-trailing-margins-on-the-left-and-right-side-of-each-symbol" fill="#000000" font-family="Helvetica" font-size="13" font-weight="normal">
                    <tspan x="776" y="1971">Leading and trailing margins on the left and right side of each symbol</tspan>
                </text>
                <text id="can-be-adjusted-by-modifying-the-width-of-the-blue-rectangles." fill="#000000" font-family="Helvetica" font-size="13" font-weight="normal">
                    <tspan x="776" y="1989">can be adjusted by modifying the width of the blue rectangles.</tspan>
                </text>
                <text id="Modifications-are-automatically-applied-proportionally-to-all" fill="#000000" font-family="Helvetica" font-size="13" font-weight="normal">
                    <tspan x="776" y="2007">Modifications are automatically applied proportionally to all</tspan>
                </text>
                <text id="scales-and-weights." fill="#000000" font-family="Helvetica" font-size="13" font-weight="normal">
                    <tspan x="776" y="2025">scales and weights.</tspan>
                </text>
                <g id="Group" transform="translate(1291.000000, 1915.000000)" fill="#000000" fill-rule="nonzero">
                    <path d="M0.83203,21.11523 L2.375,22.6582 C3.22461,23.48828 4.19141,23.41992 5.06055,22.46289 L15.2754,11.33984 C15.7051,11.63281 16.0957,11.62305 16.5645,11.52539 L17.6094,11.31055 L18.3027,12.00391 L18.2539,12.52148 C18.1855,13.04883 18.3516,13.46875 18.8496,13.9668 L19.6602,14.77734 C20.168,15.28516 20.8223,15.31445 21.3008,14.83594 L24.5527,11.58398 C25.0312,11.10547 25.0117,10.45117 24.5039,9.94336 L23.6836,9.12305 C23.1855,8.625 22.7754,8.44922 22.2383,8.52734 L21.7109,8.58594 L21.0566,7.9219 L21.3398,6.7793 C21.4863,6.2129 21.3398,5.7441 20.7148,5.1387 L18.3027,2.7461 C14.7578,-0.7793 10.2266,-0.6719 7.11133,2.4629 C6.69141,2.8926 6.64258,3.4785 6.91602,3.9082 C7.15039,4.2793 7.62891,4.5039 8.2734,4.3379 C9.7871,3.957 11.3008,4.0742 12.7852,5.0801 L12.1602,6.6621 C11.9258,7.248 11.9453,7.7266 12.1797,8.16602 L1.01758,18.439453 C0.08008,19.30859 -0.02734,20.25586 0.83203,21.11523 Z M8.6738,2.8535 C11.3398,0.8613 14.6504,1.1738 17.0527,3.5859 L19.6797,6.1934 C19.9141,6.4277 19.9434,6.6133 19.8848,6.9062 L19.5039,8.46875 L21.0762,10.04102 L22.043,9.95312 C22.3262,9.92383 22.4141,9.94336 22.6387,10.16797 L23.2637,10.79297 L20.5098,13.53711 L19.8848,12.92188 C19.6602,12.69727 19.6406,12.59961 19.6699,12.31641 L19.7578,11.35938 L18.1953,9.79688 L16.5742,10.10938 C16.291,10.16797 16.1445,10.16797 15.9102,9.92383 L13.7324,7.7461 C13.5078,7.5117 13.4785,7.375 13.6055,7.0527 L14.5527,4.7773 C12.9512,3.2441 10.8418,2.3945 8.8008,3.0488 C8.7129,3.0781 8.6445,3.0586 8.6152,3.0195 C8.5859,2.9707 8.5859,2.9219 8.6738,2.8535 Z M2.10156,20.41211 C1.61328,19.91406 1.78906,19.61133 2.12109,19.30859 L13.0781,9.19141 L14.3086,10.42188 L4.15234,21.34961 C3.84961,21.68164 3.46875,21.7793 3.06836,21.37891 L2.10156,20.41211 Z" id="Shape"></path>
                </g>
                <text id="Exporting" fill="#000000" font-family="Helvetica-Bold, Helvetica" font-size="13" font-weight="bold">
                    <tspan x="1289" y="1953">Exporting</tspan>
                </text>
                <text id="Symbols-should-be-outlined-when-exporting-to-ensure-the" fill="#000000" font-family="Helvetica" font-size="13" font-weight="normal">
                    <tspan x="1289" y="1971">Symbols should be outlined when exporting to ensure the</tspan>
                </text>
                <text id="design-is-preserved-when-submitting-to-Xcode." fill="#000000" font-family="Helvetica" font-size="13" font-weight="normal">
                    <tspan x="1289" y="1989">design is preserved when submitting to Xcode.</tspan>
                </text>
                <text id="Template-v.1.0" fill="#000000" font-family="Helvetica" font-size="13" font-weight="normal">
                    <tspan x="2952" y="1933">Template v.1.0</tspan>
                </text>
                <text id="Generated-from-circle" fill="#000000" font-family="Helvetica" font-size="13" font-weight="normal">
                    <tspan x="2911" y="1951">Generated from circle</tspan>
                </text>
                <text id="Typeset-at-100-points" fill="#000000" font-family="Helvetica" font-size="13" font-weight="normal">
                    <tspan x="2912" y="1969">Typeset at 100 points</tspan>
                </text>
                <text id="Small" fill="#000000" font-family="Helvetica" font-size="13" font-weight="normal">
                    <tspan x="263" y="726">Small</tspan>
                </text>
                <text id="Medium" fill="#000000" font-family="Helvetica" font-size="13" font-weight="normal">
                    <tspan x="263" y="1156">Medium</tspan>
                </text>
                <text id="Large" fill="#000000" font-family="Helvetica" font-size="13" font-weight="normal">
                    <tspan x="263" y="1586">Large</tspan>
                </text>
            </g>
            <g id="Guides" transform="translate(263.000000, 625.000000)">
                <g id="H-reference" transform="translate(76.000000, 0.000000)" fill="#27AAE1" fill-rule="nonzero">
                    <path d="M54.9316,71 L57.666,71 L30.5664,0.541 L28.0762,0.541 L0.976562,71 L3.66211,71 L12.9395,46.5371 L45.7031,46.5371 L54.9316,71 Z M29.1992,3.9102 L29.4434,3.9102 L44.8242,44.291 L13.8184,44.291 L29.1992,3.9102 Z" id="Shape"></path>
                </g>
                <line x1="0" y1="71" x2="2773" y2="71" id="Baseline-S" stroke="#27AAE1" stroke-width="0.577"></line>
                <line x1="0" y1="0.541" x2="2773" y2="0.541" id="Capline-S" stroke="#27AAE1" stroke-width="0.577"></line>
                <g id="H-reference" transform="translate(76.000000, 430.000000)" fill="#27AAE1" fill-rule="nonzero">
                    <path d="M54.9316,71 L57.666,71 L30.5664,0.541 L28.0762,0.541 L0.976562,71 L3.66211,71 L12.9395,46.5371 L45.7031,46.5371 L54.9316,71 Z M29.1992,3.9102 L29.4434,3.9102 L44.8242,44.291 L13.8184,44.291 L29.1992,3.9102 Z" id="Shape"></path>
                </g>
                <line x1="0" y1="501" x2="2773" y2="501" id="Baseline-M" stroke="#27AAE1" stroke-width="0.577"></line>
                <line x1="0" y1="430.54" x2="2773" y2="430.54" id="Capline-M" stroke="#27AAE1" stroke-width="0.577"></line>
                <g id="H-reference" transform="translate(76.000000, 860.000000)" fill="#27AAE1" fill-rule="nonzero">
                    <path d="M54.9316,71 L57.666,71 L30.5664,0.541 L28.0762,0.541 L0.976562,71 L3.66211,71 L12.9395,46.5371 L45.7031,46.5371 L54.9316,71 Z M29.1992,3.9102 L29.4434,3.9102 L44.8242,44.291 L13.8184,44.291 L29.1992,3.9102 Z" id="Shape"></path>
                </g>
                <line x1="0" y1="931" x2="2773" y2="931" id="Baseline-L" stroke="#27AAE1" stroke-width="0.577"></line>
                <line x1="0" y1="860.54" x2="2773" y2="860.54" id="Capline-L" stroke="#27AAE1" stroke-width="0.577"></line>
                <rect id="left-margin" fill="#00AEEF" fill-rule="nonzero" opacity="0.4" x="1128.3" y="405.79" width="8.74023" height="119.336"></rect>
                <rect id="right-margin" fill="#00AEEF" fill-rule="nonzero" opacity="0.4" x="1236.65" y="405.79" width="8.74023" height="119.336"></rect>
            </g>
            <g id="Symbols" transform="translate(1399.000000, 1040.000000)" fill="#000000" fill-rule="nonzero">
                <g id="Regular-M" transform="translate(0.300000, 0.000000)">
                    <path d="M50.5449,100.5508 C77.791,100.5508 100.35,77.99219 100.35,50.7461 C100.35,23.5488 77.7422,0.9414 50.4961,0.9414 C23.2988,0.9414 0.74023,23.5488 0.74023,50.7461 C0.74023,77.99219 23.3477,100.5508 50.5449,100.5508 Z M50.1551,92.0078 C27.1082,92.0078 8.7,73.5508 8.7,50.5039 C8.7,27.5058 27.0594,9 50.1063,9 C73.1532,9 91.6102,27.5058 91.6593938,50.5039 C91.7082,73.5508 73.202,92.0078 50.1551,92.0078 Z" id="Shape"></path>
                    <path d="M64.1247359,65.7694197 C64.1148896,65.7350617 64.1247359,65.6368962 64.0853507,65.6221714 C63.7850382,65.489648 63.8884245,65.3276749 63.9770413,65.1411605 C64.0313491,65.0439883 64.0454798,64.9295236 64.0164265,64.8221226 C63.8490392,64.3754696 64.0164265,63.9778993 64.2379685,63.580329 C64.3068927,63.4576222 64.2822769,63.3054656 64.3019696,63.168034 C64.316739,63.0404188 64.316739,62.9078954 64.3708937,62.7900968 C64.5185884,62.4759672 64.4299716,62.2992693 64.0262728,62.1961955 C63.6133948,62.0861871 63.1962274,61.9928538 62.7757912,61.9164238 C62.6009523,61.8858888 62.4209501,61.9081074 62.2588599,61.9802314 C61.0773025,62.6183072 59.7086651,62.8146382 58.3597204,63.0355105 C57.6360165,63.1582174 56.8975431,63.2318415 56.1639929,63.2956491 C55.0021281,63.4036311 53.8353402,63.4919801 52.6685522,63.5656042 C52.407625,63.5852373 52.1368514,63.526338 51.871001,63.526338 C51.6090823,63.5293423 51.3476232,63.5490155 51.0882192,63.5852373 C51.0537571,63.5901456 50.9996024,63.7324856 51.0291413,63.7815683 C51.6593053,64.6552413 52.4863954,65.3816659 53.5793361,65.88231 C54.081498,66.1129989 54.6476609,66.2553389 55.1744386,66.4516699 C55.3664416,66.525294 55.5436752,66.6332761 55.7061394,66.7461664 C56.3461497,67.1977277 56.8729273,67.7278214 57.1387778,68.3855302 C57.3800124,68.9745232 57.271703,69.5635162 56.9910831,70.1426926 C56.7501597,70.7021649 56.256647,71.1140047 55.661831,71.2519628 C55.5929068,71.2715959 55.5141363,71.4139358 55.5239826,71.4973765 C55.5732142,72.1060026 55.2138238,72.5477473 54.6476609,72.8766018 C54.0862102,73.2063431 53.3959875,73.2321713 52.8113237,72.9453176 C52.2852591,72.7086522 51.7768733,72.434724 51.2900686,72.1256357 C51.1571434,72.0372868 51.1719128,71.8016896 51.1177581,71.6348082 C51.3097612,71.6004503 51.5017643,71.5513675 51.6937673,71.5464593 C51.8217694,71.5464593 51.9399251,71.6298999 52.0728504,71.6544413 C52.156544,71.6691661 52.250084,71.649533 52.3436239,71.6446248 L52.2303913,71.4630186 C52.5208575,71.3648531 52.4765491,71.2765041 52.220545,71.1145311 C52.0706784,70.9979175 51.99237,70.8120327 52.0137725,70.6237036 C52.1087503,70.1988139 52.0512594,69.7541716 51.8513083,69.3671852 C51.7307168,69.1539836 51.6791334,68.9088461 51.7036137,68.6653019 C51.8119231,68.0174096 51.2802223,67.5560317 51.0291413,67.0161215 C50.7435983,66.4074954 50.3792847,65.8234107 50.0149712,65.239326 C49.7294282,64.7730399 49.3946536,64.3214786 49.0795716,63.865009 C49.0314593,63.8085325 48.961831,63.7747136 48.8875685,63.7717518 C48.4789466,63.7913849 48.0654015,63.7864766 47.6666258,63.8502842 C46.89578,63.9655814 46.1289863,64.1063628 45.367512,64.2723958 C45.0967385,64.3312951 44.8555038,64.4883599 44.6191924,64.6257916 L41.6652988,66.3338713 C40.9514412,66.7461664 40.2621994,67.1830028 39.5335723,67.5756648 C38.7592347,68.0178573 38.0651944,68.5870091 37.4806163,69.2592031 C37.091687,69.6813148 36.648603,70.0690685 36.2202884,70.4666388 C35.8461286,70.810218 35.4621224,71.148889 35.0830394,71.48756 C34.5611849,71.9538461 34.0393304,72.4250405 33.5125527,72.8864183 C33.0202371,73.3281631 32.5279215,73.7748161 31.9962207,74.1871112 C31.0165127,74.9478938 30.0072657,75.684135 29.0127882,76.4351011 C28.6927831,76.6706983 28.3973937,76.9308369 28.0724654,77.1615258 C27.6983056,77.4216644 27.29953,77.6621698 26.9056775,77.9075836 C26.8267508,77.9553124 26.736983,77.9823302 26.6447502,77.986116 C25.9488073,78.0324109 25.2499915,77.9627405 24.5770248,77.7799684 C24.17556,77.6681902 23.7626405,77.6023228 23.3462358,77.5836374 C22.0711384,77.4903802 20.8009642,77.4216644 19.5258668,77.3284071 C19.3260372,77.3215438 19.1291525,77.2782936 18.9449344,77.200792 C18.6396988,77.0535437 18.6495451,76.80813 18.8120092,76.3712935 C19.1073986,75.6006944 19.688331,74.9773434 20.3431107,74.3834422 C21.0077368,73.7797244 21.6329776,73.1563734 22.3025268,72.5526556 C22.8588434,72.0520116 23.4693147,71.5906337 24.0256313,71.0850814 C24.3210207,70.8151263 24.5179469,70.4764553 24.8034899,70.1868671 C25.3302676,69.6567734 25.9653547,69.1904873 26.3247451,68.5524116 C26.5512103,68.149933 26.7776754,67.7425462 27.0238332,67.3498842 C27.4718404,66.6381843 27.9444634,65.9412093 28.3875474,65.2344177 C28.6337052,64.8319392 28.815862,64.400011 29.0669429,64.0024407 C29.2737155,63.6588614 29.5543354,63.3496401 29.7660311,63.0158774 C30.0269583,62.6035823 30.2435772,62.1716541 30.4946581,61.7544508 C30.868818,61.1360081 31.247901,60.527382 31.626984,59.9138477 C32.0454522,59.241414 32.4737668,58.5787969 32.8725424,57.901455 C33.1679318,57.3959026 33.4042433,56.8707172 33.7094789,56.3651649 C34.0639461,55.7761719 34.4676449,55.206812 34.8319585,54.6227273 C35.1864257,54.0582757 35.5064308,53.474191 35.8658212,52.9146476 C36.1562874,52.4729029 36.4861388,52.0507912 36.8012208,51.618863 L38.1304729,49.8224344 C38.67202,49.0861932 39.2184904,48.3646768 39.7551143,47.6284355 C40.0308111,47.2504983 40.2769689,46.8578364 40.5428193,46.4749909 C40.912056,45.9301724 41.2714464,45.3804456 41.6652988,44.8454436 C42.1822302,44.1435603 42.7040847,43.441677 43.2653245,42.7643351 C43.7822559,42.1458924 44.259802,41.4980001 45.0228911,41.0366223 C45.0918153,40.9973561 45.14597,40.9384568 45.2001247,40.8844658 C45.6087467,40.4721707 46.0025992,40.050059 46.4309137,39.657397 C46.8444588,39.2598268 47.3072355,38.8917061 47.7207806,38.4941359 C48.1244793,38.1014739 48.4691002,37.6793622 48.8777222,37.2965168 C49.2715747,36.9283962 49.724505,36.5995417 50.1429732,36.2412377 C50.5072868,35.9271081 50.8568308,35.5982537 51.2162212,35.2743075 L52.7719385,33.8656326 C52.8418583,33.8005147 52.9045764,33.7281132 52.9590184,33.6496685 C53.451334,32.9526935 53.9436496,32.2606267 54.4261189,31.5538351 C54.524582,31.4164034 54.5098125,31.2249807 54.6082756,31.087549 C54.9972049,30.5476388 55.4156732,30.0322699 55.7996794,29.4923596 C56.0950687,29.0898811 56.3609191,28.6677695 56.6366159,28.2505661 C56.6612316,28.2211164 56.6710779,28.1818502 56.6858474,28.1474923 C57.020622,27.6223069 57.3258577,27.0922132 57.6901712,26.5768443 C58.2204656,25.8191213 59.0041251,25.2744799 59.9006682,25.0405543 C60.3535985,24.9178474 60.7720668,24.696975 61.2299203,24.5988095 C61.9043926,24.4515613 62.6084039,24.3632123 63.2927226,24.2454137 C63.6619593,24.1816062 64.0213497,24.0785324 64.3955095,24.0490827 C64.8730556,24.0049083 65.3506018,24.0049083 65.833071,24 C66.3500024,24 66.8669338,24 67.3838651,24.0196331 C67.5906377,24.0245414 67.7924871,24.0981655 67.9992596,24.1276151 C69.0331224,24.2797717 70.0620619,24.4761027 70.9629995,24.927664 C71.5685476,25.2270687 72.1002485,25.624639 72.6664114,25.9780348 C72.8584145,26.0958334 73.0701102,26.2038154 73.2374975,26.3412471 C73.5033479,26.5670278 73.7888909,26.7879002 73.9759709,27.052947 C74.2122823,27.391618 74.5716727,27.4652421 74.9704483,27.4554256 C75.5119955,27.4505173 76.0535426,27.3474435 76.5950898,27.3670766 C77.6092599,27.4063428 78.62343,27.4652421 79.6228306,27.5977655 C80.3416114,27.695931 81.0456227,27.9069868 81.7397877,28.1082261 C82.0844086,28.2063916 82.3847211,28.3929061 82.6899568,28.5646957 C82.7244189,28.5794205 82.665341,28.7953846 82.5865705,28.8297425 C82.2714885,28.9671742 81.9268676,29.070248 81.6019393,29.1880466 C81.1243932,29.3598362 80.6714629,29.570892 80.1840704,29.6985072 C79.4308276,29.8948382 78.6480458,30.0224533 77.8898798,30.1991512 C77.486181,30.2973167 77.107098,30.444565 76.7132455,30.5574553 C76.4670877,30.6310794 76.2110836,30.7047036 75.9501564,30.7537863 C75.2412219,30.8814015 74.8769084,31.337871 74.5667496,31.784524 C74.3063963,32.1353939 74.1433821,32.5484694 74.0941266,32.9821431 C74.0547414,33.5809527 74.1335118,34.194487 74.2565907,34.78348 C74.3845928,35.4068309 74.611058,36.015457 74.8326,36.6240831 C74.9753715,37.0118368 75.1969135,37.3799575 75.3643008,37.7628029 C75.5464576,38.1800063 75.7138449,38.6021179 75.8713859,39.0242296 C75.9846185,39.3432674 76.12739,39.6623053 76.1667752,39.9813432 C76.2061605,40.4083631 76.1569289,40.8402913 76.1520058,41.2673112 C76.1520058,41.478367 76.1667752,41.6894229 76.1470826,41.8955704 C76.0880047,42.4158475 76.0387732,42.9361247 75.9304637,43.4465853 C75.8221543,43.9521376 75.6350744,44.4478734 75.4873797,44.9436091 C75.3643008,45.3608125 75.2510682,45.7780159 75.1230662,46.2001275 C74.9753715,46.7007716 74.8326,47.2014156 74.6553664,47.6922431 C74.4042854,48.3794016 74.1482813,49.0616518 73.8430456,49.7291772 C73.5033479,50.4654184 73.1094954,51.1869348 72.7304124,51.9133595 C72.2637466,52.8031118 71.7078744,53.6434445 71.0713089,54.421488 C70.4805302,55.1184631 69.8060578,55.7712636 69.2349717,56.4780552 C68.4029584,57.4989764 67.3001715,58.3333831 66.3401561,59.2659554 C65.8970721,59.7027919 65.296447,60.0365545 64.7696694,60.4194 C64.7155146,60.4635745 64.6367442,60.5568317 64.6564368,60.5862813 C64.7056683,60.6451806 64.8041315,60.7138965 64.8878251,60.723713 C65.2570618,60.7531627 65.6262985,60.7678875 65.990612,60.7777041 C66.3943108,60.7924289 66.7930864,60.7924289 67.1967852,60.8022454 C67.5414061,60.812062 67.886027,60.7973372 68.2208016,60.8415116 C68.9100435,60.9347689 69.6337474,60.9691268 70.1408324,61.4206881 C70.3027064,61.5805733 70.4285764,61.7729904 70.5100691,61.9851397 C70.726688,62.4710589 70.7562269,62.9667947 70.5642238,63.4576222 C70.4411449,63.7815683 70.2786808,64.0956979 70.1999103,64.4196441 C70.1556019,64.6110668 70.2491419,64.8221226 70.2639113,65.0233619 C70.2786808,65.1607936 70.2983734,65.3080418 70.2589882,65.4405652 C70.1309861,65.8430438 70.0275998,66.2602472 69.8159041,66.6381843 C69.7223642,66.8050657 69.4220517,66.917956 69.180817,67.0063049 C68.7623488,67.1633697 68.3241879,67.3008014 67.8811039,67.4087835 C67.4970977,67.506949 67.1820157,67.3351594 66.9457043,67.114287 C66.6650844,66.8443319 66.4435424,66.5400188 66.1727688,66.2700637 C66.0684026,66.1839975 65.9388261,66.134046 65.8035321,66.1277237 C65.5130659,66.1179072 65.2225997,66.1571734 64.9321335,66.1522651 C64.8336704,66.1522651 64.7302841,66.0982741 64.6367442,66.0540996 C64.4644337,65.9657507 64.3019696,65.8675852 64.1247359,65.7645114 L64.1247359,65.7694197 Z M70.4040679,63 C69.3640679,63 68.2940679,63.66 68.1640679,64.335 C67.9746386,65.3190715 67.8212031,66.3097314 67.7040679,67.305 C67.6740679,67.525 67.8340679,67.77 67.9040679,68 C68.1940679,67.85 68.6890679,67.77 68.7390679,67.55 C68.9190679,66.78 68.9190679,65.96 69.0540679,65.17 C69.0940679,64.95 69.3490679,64.655 69.5290679,64.63 C69.7190679,64.605 70.0290679,64.805 70.1290679,65.005 C70.2540679,65.27 70.1840679,65.655 70.2840679,65.95 C70.4440679,66.43 71.2190679,66.8 71.5540679,66.625 C72.0790679,66.345 72.8340679,64.955 72.6790679,64.555 C72.6673762,64.5240199 72.6504651,64.495271 72.6290679,64.47 C72.0445005,63.7758862 71.2718604,63.2654228 70.4040679,63 L70.4040679,63 Z M67.7,69.9893905 C68.685,73.4392158 70.445,73.889193 71.805,71.519313 C72.22,70.7993495 72.455,69.0794365 72.7,68.0844869 C71.85,68.0844869 71.17,67.864498 70.515,68.1344844 C69.635,68.5044656 68.765,69.2644272 67.7,69.9893905 Z M57.7004734,68 L60.9254734,73 C64.3304734,71.865 62.6054734,68.945 57.7004734,68 Z M57.7,71.8390885 C56.7550099,70.6243769 55.9500183,69.4796487 54.9500287,68.374911 C54.7700306,68.1749585 53.8250405,68.1249703 53.2400466,68 C53.0500486,68.2499407 52.6950523,68.5048801 52.7000523,68.7598196 C52.7200521,69.7045953 52.8000512,70.649371 52.9850493,71.5891478 C53.0550485,71.9540612 53.2350467,72.4089532 53.7650411,72.6338998 C54.3300352,72.8738428 55.6250217,73.0937906 56.1150166,72.9588226 C56.8650087,72.7488725 57.1900053,72.2289959 57.7,71.8390885 Z" id="Shape"></path>
                </g>
            </g>
        </g>
    </g>
</svg>