<?xml version="1.0" encoding="UTF-8"?>
<!--Generator: Apple Native CoreSVG 341-->
<!DOCTYPE svg
PUBLIC "-//W3C//DTD SVG 1.1//EN"
       "http://www.w3.org/Graphics/SVG/1.1/DTD/svg11.dtd">
<svg version="1.1" xmlns="http://www.w3.org/2000/svg" xmlns:xlink="http://www.w3.org/1999/xlink" viewBox="0 0 3300 2200">
 <!--glyph: "", point size: 100.0, font version: "20.0d10e1", template writer version: "138.0.0"-->
 <style>.monochrome-0 {-sfsymbols-motion-group:1;-sfsymbols-layer-tags:acf25022359c831}
.monochrome-1 {-sfsymbols-motion-group:0;-sfsymbols-layer-tags:acf25022359c831}

.multicolor-0:tintColor {-sfsymbols-motion-group:1;-sfsymbols-layer-tags:acf25022359c831}
.multicolor-1:tintColor {-sfsymbols-motion-group:0;-sfsymbols-layer-tags:acf25022359c831}

.hierarchical-0:primary {-sfsymbols-motion-group:1;-sfsymbols-layer-tags:acf25022359c831}
.hierarchical-1:tertiary {-sfsymbols-motion-group:0;-sfsymbols-layer-tags:acf25022359c831}

.SFSymbolsPreviewWireframe {fill:none;opacity:1.0;stroke:black;stroke-width:0.5}
</style>
 <g id="Notes">
  <rect height="2200" id="artboard" style="fill:white;opacity:1" width="3300" x="0" y="0"/>
  <line style="fill:none;stroke:black;opacity:1;stroke-width:0.5;" x1="263" x2="3036" y1="292" y2="292"/>
  <text style="stroke:none;fill:black;font-family:sans-serif;font-size:13;font-weight:bold;" transform="matrix(1 0 0 1 263 322)">Weight/Scale Variations</text>
  <text style="stroke:none;fill:black;font-family:sans-serif;font-size:13;text-anchor:middle;" transform="matrix(1 0 0 1 559.711 322)">Ultralight</text>
  <text style="stroke:none;fill:black;font-family:sans-serif;font-size:13;text-anchor:middle;" transform="matrix(1 0 0 1 856.422 322)">Thin</text>
  <text style="stroke:none;fill:black;font-family:sans-serif;font-size:13;text-anchor:middle;" transform="matrix(1 0 0 1 1153.13 322)">Light</text>
  <text style="stroke:none;fill:black;font-family:sans-serif;font-size:13;text-anchor:middle;" transform="matrix(1 0 0 1 1449.84 322)">Regular</text>
  <text style="stroke:none;fill:black;font-family:sans-serif;font-size:13;text-anchor:middle;" transform="matrix(1 0 0 1 1746.56 322)">Medium</text>
  <text style="stroke:none;fill:black;font-family:sans-serif;font-size:13;text-anchor:middle;" transform="matrix(1 0 0 1 2043.27 322)">Semibold</text>
  <text style="stroke:none;fill:black;font-family:sans-serif;font-size:13;text-anchor:middle;" transform="matrix(1 0 0 1 2339.98 322)">Bold</text>
  <text style="stroke:none;fill:black;font-family:sans-serif;font-size:13;text-anchor:middle;" transform="matrix(1 0 0 1 2636.69 322)">Heavy</text>
  <text style="stroke:none;fill:black;font-family:sans-serif;font-size:13;text-anchor:middle;" transform="matrix(1 0 0 1 2933.4 322)">Black</text>
  <line style="fill:none;stroke:black;opacity:1;stroke-width:0.5;" x1="263" x2="3036" y1="1903" y2="1903"/>
  <g transform="matrix(0.2 0 0 0.2 263 1933)">
   <path d="m46.2402 4.15039c21.7773 0 39.4531-17.627 39.4531-39.4043s-17.6758-39.4043-39.4531-39.4043c-21.7285 0-39.4043 17.627-39.4043 39.4043s17.6758 39.4043 39.4043 39.4043Zm0-7.42188c-17.6758 0-31.9336-14.3066-31.9336-31.9824s14.2578-31.9824 31.9336-31.9824 31.9824 14.3066 31.9824 31.9824-14.3066 31.9824-31.9824 31.9824Zm-17.9688-31.9824c0 2.14844 1.51367 3.61328 3.75977 3.61328h10.498v10.5957c0 2.19727 1.46484 3.71094 3.61328 3.71094 2.24609 0 3.71094-1.51367 3.71094-3.71094v-10.5957h10.5957c2.19727 0 3.71094-1.46484 3.71094-3.61328 0-2.19727-1.51367-3.71094-3.71094-3.71094h-10.5957v-10.5469c0-2.24609-1.46484-3.75977-3.71094-3.75977-2.14844 0-3.61328 1.51367-3.61328 3.75977v10.5469h-10.498c-2.24609 0-3.75977 1.51367-3.75977 3.71094Z"/>
  </g>
  <g transform="matrix(0.2 0 0 0.2 281.506 1933)">
   <path d="m58.5449 14.5508c27.4902 0 49.8047-22.3145 49.8047-49.8047s-22.3145-49.8047-49.8047-49.8047-49.8047 22.3145-49.8047 49.8047 22.3145 49.8047 49.8047 49.8047Zm0-8.30078c-22.9492 0-41.5039-18.5547-41.5039-41.5039s18.5547-41.5039 41.5039-41.5039 41.5039 18.5547 41.5039 41.5039-18.5547 41.5039-41.5039 41.5039Zm-22.6562-41.5039c0 2.39258 1.66016 4.00391 4.15039 4.00391h14.3555v14.4043c0 2.44141 1.66016 4.15039 4.05273 4.15039 2.44141 0 4.15039-1.66016 4.15039-4.15039v-14.4043h14.4043c2.44141 0 4.15039-1.61133 4.15039-4.00391 0-2.44141-1.70898-4.15039-4.15039-4.15039h-14.4043v-14.3555c0-2.49023-1.70898-4.19922-4.15039-4.19922-2.39258 0-4.05273 1.70898-4.05273 4.19922v14.3555h-14.3555c-2.49023 0-4.15039 1.70898-4.15039 4.15039Z"/>
  </g>
  <g transform="matrix(0.2 0 0 0.2 304.924 1933)">
   <path d="m74.8535 28.3203c35.1074 0 63.623-28.4668 63.623-63.5742s-28.5156-63.623-63.623-63.623-63.5742 28.5156-63.5742 63.623 28.4668 63.5742 63.5742 63.5742Zm0-9.08203c-30.127 0-54.4922-24.3652-54.4922-54.4922s24.3652-54.4922 54.4922-54.4922 54.4922 24.3652 54.4922 54.4922-24.3652 54.4922-54.4922 54.4922Zm-28.8574-54.4922c0 2.58789 1.85547 4.39453 4.58984 4.39453h19.7266v19.7754c0 2.68555 1.85547 4.58984 4.44336 4.58984 2.68555 0 4.54102-1.85547 4.54102-4.58984v-19.7754h19.7754c2.68555 0 4.58984-1.80664 4.58984-4.39453 0-2.73438-1.85547-4.58984-4.58984-4.58984h-19.7754v-19.7266c0-2.73438-1.85547-4.63867-4.54102-4.63867-2.58789 0-4.44336 1.9043-4.44336 4.63867v19.7266h-19.7266c-2.73438 0-4.58984 1.85547-4.58984 4.58984Z"/>
  </g>
  <text style="stroke:none;fill:black;font-family:sans-serif;font-size:13;font-weight:bold;" transform="matrix(1 0 0 1 263 1953)">Design Variations</text>
  <text style="stroke:none;fill:black;font-family:sans-serif;font-size:13;" transform="matrix(1 0 0 1 263 1971)">Symbols are supported in up to nine weights and three scales.</text>
  <text style="stroke:none;fill:black;font-family:sans-serif;font-size:13;" transform="matrix(1 0 0 1 263 1989)">For optimal layout with text and other symbols, vertically align</text>
  <text style="stroke:none;fill:black;font-family:sans-serif;font-size:13;" transform="matrix(1 0 0 1 263 2007)">symbols with the adjacent text.</text>
  <line style="fill:none;stroke:#00AEEF;stroke-width:0.5;opacity:1.0;" x1="776" x2="776" y1="1919" y2="1933"/>
  <g transform="matrix(0.2 0 0 0.2 776 1933)">
   <path d="m16.5527 0.78125c2.58789 0 3.85742-0.976562 4.78516-3.71094l6.29883-17.2363h28.8086l6.29883 17.2363c0.927734 2.73438 2.19727 3.71094 4.73633 3.71094 2.58789 0 4.24805-1.5625 4.24805-4.00391 0-0.830078-0.146484-1.61133-0.537109-2.63672l-22.9004-60.9863c-1.12305-2.97852-3.125-4.49219-6.25-4.49219-3.02734 0-5.07812 1.46484-6.15234 4.44336l-22.9004 61.084c-0.390625 1.02539-0.537109 1.80664-0.537109 2.63672 0 2.44141 1.5625 3.95508 4.10156 3.95508Zm13.4766-28.3691 11.8652-32.8613h0.244141l11.8652 32.8613Z"/>
  </g>
  <line style="fill:none;stroke:#00AEEF;stroke-width:0.5;opacity:1.0;" x1="792.836" x2="792.836" y1="1919" y2="1933"/>
  <text style="stroke:none;fill:black;font-family:sans-serif;font-size:13;font-weight:bold;" transform="matrix(1 0 0 1 776 1953)">Margins</text>
  <text style="stroke:none;fill:black;font-family:sans-serif;font-size:13;" transform="matrix(1 0 0 1 776 1971)">Leading and trailing margins on the left and right side of each symbol</text>
  <text style="stroke:none;fill:black;font-family:sans-serif;font-size:13;" transform="matrix(1 0 0 1 776 1989)">can be adjusted by modifying the x-location of the margin guidelines.</text>
  <text style="stroke:none;fill:black;font-family:sans-serif;font-size:13;" transform="matrix(1 0 0 1 776 2007)">Modifications are automatically applied proportionally to all</text>
  <text style="stroke:none;fill:black;font-family:sans-serif;font-size:13;" transform="matrix(1 0 0 1 776 2025)">scales and weights.</text>
  <g transform="matrix(0.2 0 0 0.2 1289 1933)">
   <path d="m14.209 9.32617 8.49609 8.54492c4.29688 4.3457 9.22852 4.05273 13.8672-1.07422l53.4668-58.9355-4.83398-4.88281-53.0762 58.3984c-1.75781 2.00195-3.41797 2.49023-5.76172 0.146484l-5.85938-5.81055c-2.34375-2.29492-1.80664-4.00391 0.195312-5.81055l57.373-54.0039-4.88281-4.83398-57.959 54.4434c-4.93164 4.58984-5.32227 9.47266-1.02539 13.8184Zm32.0801-90.9668c-2.09961 2.05078-2.24609 4.93164-1.07422 6.88477 1.17188 1.80664 3.4668 2.97852 6.68945 2.14844 7.32422-1.70898 14.9414-2.00195 22.0703 2.68555l-2.92969 7.27539c-1.70898 4.15039-0.830078 7.08008 1.85547 9.81445l11.4746 11.5723c2.44141 2.44141 4.49219 2.53906 7.32422 2.05078l5.32227-0.976562 3.32031 3.36914-0.195312 2.7832c-0.195312 2.49023 0.439453 4.39453 2.88086 6.78711l3.80859 3.71094c2.39258 2.39258 5.46875 2.53906 7.8125 0.195312l14.5508-14.5996c2.34375-2.34375 2.24609-5.32227-0.146484-7.71484l-3.85742-3.80859c-2.39258-2.39258-4.24805-3.17383-6.64062-2.97852l-2.88086 0.244141-3.22266-3.17383 1.2207-5.61523c0.634766-2.83203-0.146484-5.0293-3.07617-7.95898l-10.9863-10.9375c-16.6992-16.6016-38.8672-16.2109-53.3203-1.75781Zm7.4707 1.85547c12.1582-8.88672 28.6133-7.37305 39.7461 3.75977l12.1582 12.0605c1.17188 1.17188 1.36719 2.09961 1.02539 3.80859l-1.61133 7.42188 7.51953 7.42188 4.93164-0.292969c1.26953-0.0488281 1.66016 0.0488281 2.63672 1.02539l2.88086 2.88086-12.207 12.207-2.88086-2.88086c-0.976562-0.976562-1.12305-1.36719-1.07422-2.68555l0.341797-4.88281-7.4707-7.42188-7.61719 1.26953c-1.61133 0.341797-2.34375 0.195312-3.56445-0.976562l-10.0098-10.0098c-1.26953-1.17188-1.41602-2.00195-0.634766-3.85742l4.39453-10.4492c-7.8125-7.27539-17.9688-10.4004-28.125-7.42188-0.78125 0.195312-1.07422-0.439453-0.439453-0.976562Z"/>
  </g>
  <text style="stroke:none;fill:black;font-family:sans-serif;font-size:13;font-weight:bold;" transform="matrix(1 0 0 1 1289 1953)">Exporting</text>
  <text style="stroke:none;fill:black;font-family:sans-serif;font-size:13;" transform="matrix(1 0 0 1 1289 1971)">Symbols should be outlined when exporting to ensure the</text>
  <text style="stroke:none;fill:black;font-family:sans-serif;font-size:13;" transform="matrix(1 0 0 1 1289 1989)">design is preserved when submitting to Xcode.</text>
  <text id="template-version" style="stroke:none;fill:black;font-family:sans-serif;font-size:13;text-anchor:end;" transform="matrix(1 0 0 1 3036 1933)">Template v.6.0</text>
  <text style="stroke:none;fill:black;font-family:sans-serif;font-size:13;text-anchor:end;" transform="matrix(1 0 0 1 3036 1951)">Requires Xcode 16 or greater</text>
  <text id="descriptive-name" style="stroke:none;fill:black;font-family:sans-serif;font-size:13;text-anchor:end;" transform="matrix(1 0 0 1 3036 1969)">Generated from filtervogelgruppe-36</text>
  <text style="stroke:none;fill:black;font-family:sans-serif;font-size:13;text-anchor:end;" transform="matrix(1 0 0 1 3036 1987)">Typeset at 100.0 points</text>
  <text style="stroke:none;fill:black;font-family:sans-serif;font-size:13;" transform="matrix(1 0 0 1 263 726)">Small</text>
  <text style="stroke:none;fill:black;font-family:sans-serif;font-size:13;" transform="matrix(1 0 0 1 263 1156)">Medium</text>
  <text style="stroke:none;fill:black;font-family:sans-serif;font-size:13;" transform="matrix(1 0 0 1 263 1586)">Large</text>
 </g>
 <g id="Guides">
  <g id="H-reference" style="fill:#27AAE1;stroke:none;" transform="matrix(1 0 0 1 339 696)">
   <path d="M0.993654 0L3.63775 0L29.3281-67.1323L30.0303-67.1323L30.0303-70.459L28.1226-70.459ZM11.6885-24.4799L46.9815-24.4799L46.2315-26.7285L12.4385-26.7285ZM55.1196 0L57.7637 0L30.6382-70.459L29.4326-70.459L29.4326-67.1323Z"/>
  </g>
  <line id="Baseline-S" style="fill:none;stroke:#27AAE1;opacity:1;stroke-width:0.5;" x1="263" x2="3036" y1="696" y2="696"/>
  <line id="Capline-S" style="fill:none;stroke:#27AAE1;opacity:1;stroke-width:0.5;" x1="263" x2="3036" y1="625.541" y2="625.541"/>
  <g id="H-reference" style="fill:#27AAE1;stroke:none;" transform="matrix(1 0 0 1 339 1126)">
   <path d="M0.993654 0L3.63775 0L29.3281-67.1323L30.0303-67.1323L30.0303-70.459L28.1226-70.459ZM11.6885-24.4799L46.9815-24.4799L46.2315-26.7285L12.4385-26.7285ZM55.1196 0L57.7637 0L30.6382-70.459L29.4326-70.459L29.4326-67.1323Z"/>
  </g>
  <line id="Baseline-M" style="fill:none;stroke:#27AAE1;opacity:1;stroke-width:0.5;" x1="263" x2="3036" y1="1126" y2="1126"/>
  <line id="Capline-M" style="fill:none;stroke:#27AAE1;opacity:1;stroke-width:0.5;" x1="263" x2="3036" y1="1055.54" y2="1055.54"/>
  <g id="H-reference" style="fill:#27AAE1;stroke:none;" transform="matrix(1 0 0 1 339 1556)">
   <path d="M0.993654 0L3.63775 0L29.3281-67.1323L30.0303-67.1323L30.0303-70.459L28.1226-70.459ZM11.6885-24.4799L46.9815-24.4799L46.2315-26.7285L12.4385-26.7285ZM55.1196 0L57.7637 0L30.6382-70.459L29.4326-70.459L29.4326-67.1323Z"/>
  </g>
  <line id="Baseline-L" style="fill:none;stroke:#27AAE1;opacity:1;stroke-width:0.5;" x1="263" x2="3036" y1="1556" y2="1556"/>
  <line id="Capline-L" style="fill:none;stroke:#27AAE1;opacity:1;stroke-width:0.5;" x1="263" x2="3036" y1="1485.54" y2="1485.54"/>
  <line id="right-margin-Black-S" style="fill:none;stroke:#00AEEF;stroke-width:0.5;opacity:1.0;" x1="2982.23" x2="2982.23" y1="600.785" y2="720.121"/>
  <line id="left-margin-Black-S" style="fill:none;stroke:#00AEEF;stroke-width:0.5;opacity:1.0;" x1="2884.57" x2="2884.57" y1="600.785" y2="720.121"/>
  <line id="right-margin-Regular-S" style="fill:none;stroke:#00AEEF;stroke-width:0.5;opacity:1.0;" x1="1496.11" x2="1496.11" y1="600.785" y2="720.121"/>
  <line id="left-margin-Regular-S" style="fill:none;stroke:#00AEEF;stroke-width:0.5;opacity:1.0;" x1="1403.58" x2="1403.58" y1="600.785" y2="720.121"/>
  <line id="right-margin-Ultralight-S" style="fill:none;stroke:#00AEEF;stroke-width:0.5;opacity:1.0;" x1="603.773" x2="603.773" y1="600.785" y2="720.121"/>
  <line id="left-margin-Ultralight-S" style="fill:none;stroke:#00AEEF;stroke-width:0.5;opacity:1.0;" x1="515.649" x2="515.649" y1="600.785" y2="720.121"/>
 </g>
 <g id="Symbols">
  <g id="Black-S" transform="matrix(1 0 0 1 2884.57 696)">
   <path class="monochrome-0 multicolor-0:tintColor hierarchical-0:primary SFSymbolsPreviewWireframe" d="M34.3605-39.2423C34.3605-39.2423 33.4972-41.7546 33.4972-43.6972C33.4972-45.6362 33.6387-46.9702 33.667-47.547C33.6882-48.1238 33.5219-48.4139 33.2565-49.0685C33.0708-49.5209 32.8701-49.967 32.655-50.4061L32.4639-50.2752C32.4639-50.2752 32.2269-50.0628 32.1809-50.1938C32.1313-50.3247 32.1065-50.4308 32.1065-50.4308C32.1065-50.4308 31.8659-50.3778 31.8199-50.5618C31.7704-50.7458 31.6501-51.3225 31.6501-51.3225C31.6501-51.3225 31.3387-51.0076 31.3387-51.3756C31.3387-51.7401 31.2892-52.2248 31.2892-52.2248C31.2892-52.2248 30.4293-52.4831 28.9538-52.8476C28.1157-53.0708 27.2552-53.199 26.3884-53.2298C26.2186-53.2298 26.0346-52.9679 26.0346-52.9679C26.0346-52.9679 25.9638-53.4102 26.3884-53.9162C26.813-54.4187 27.5313-54.8221 29.2121-55.2467C30.8893-55.6713 31.6112-55.6713 31.6112-55.6713C31.6112-55.6713 32.2375-56.9805 33.1787-57.582C34.1199-58.1907 34.7108-58.2296 35.1921-58.3322C35.6698-58.4313 35.6875-58.3923 35.6875-58.3923L35.4858-58.1694C35.4858-58.1694 35.8573-58.2083 36.1333-58.2508C36.4093-58.2897 36.3916-58.1907 36.3173-58.088C36.243-57.989 36.2076-57.9076 36.6499-57.9677C37.0922-58.0279 38.313-57.9677 39.548-57.444C40.7864-56.9204 42.1876-56.2339 42.9979-54.8822C43.8118-53.5341 43.7375-53.1094 43.6809-52.8299C44.2541-50.7882 44.937-48.329 45.4501-48.0282C45.9702-47.7239 49.5688-45.3249 51.9679-42.2818C54.367-39.2388 55.0145-37.9295 56.621-34.7803C58.2274-31.6311 58.0788-31.5745 58.8926-30.5837C59.703-29.5965 59.848-29.3948 60.4779-28.5491C61.1042-27.6999 61.0865-27.1974 61.0865-27.1974C61.0865-27.1974 61.3837-26.9144 62.6186-25.8457C63.8571-24.7771 65.0177-23.9102 65.5343-23.2061C66.0545-22.4984 66.0722-21.8756 65.6652-21.9959C65.2583-22.1162 64.2251-22.6222 64.2251-22.6222C64.2251-22.6222 64.7063-21.8756 64.9257-21.4899C65.1486-21.1078 65-21.0688 64.6851-21.1502C64.3737-21.2281 63.9314-21.3519 63.9314-21.3519C63.9314-21.3519 63.9526-21.2493 64.1402-21.0582C64.5648-20.6195 65.5485-19.7065 66.9214-18.4044C68.8958-16.529 71.5355-13.8504 71.7938-13.4859C72.0521-13.125 72.1618-13.1038 71.7938-13.3656C71.4258-13.6275 71.0154-13.9106 70.888-13.8893C70.7606-13.8681 70.8349-13.5461 70.4634-13.447C70.0954-13.3444 70.1131-13.3444 70.1131-13.3444C70.1131-13.3444 70.1697-13.0436 70.2228-12.6367C70.2794-12.2369 70.1166-12.3784 69.5964-12.7995C69.0798-13.2241 68.1563-14.1724 66.0332-16.069C63.9102-17.9621 62.6363-19.2925 61.1785-20.1382C59.7206-20.9875 58.6662-21.6527 56.621-22.5408C54.5722-23.4254 54.3882-23.4891 54.2573-23.4254C54.1299-23.3653 54.1653-23.3051 54.1476-23.1247C54.1299-22.9442 53.9813-23.0858 53.7407-23.1636C53.5001-23.245 52.8737-23.6271 52.5977-23.6271C52.3217-23.6271 52.3394-23.7474 52.3961-23.5068C52.4491-23.2662 52.3607-23.1884 52.0811-23.2662C51.8051-23.3476 51.5858-23.5281 51.2496-23.6484C50.917-23.7687 50.7719-23.751 50.7896-23.5281C50.8073-23.3051 50.641-23.3476 50.4216-23.4078C50.1987-23.4679 50.0324-23.5705 49.7387-23.5281C49.4415-23.4891 49.4591-23.567 49.4238-23.4467C49.3884-23.3264 49.4238-23.4078 49.0558-23.4467C48.6842-23.4891 48.9248-23.3653 49.0204-23.2662C49.1088-23.1636 49.0735-23.0645 48.7585-23.1247C48.4472-23.1848 48.5179-23.0433 48.5922-23.0044C48.6665-22.9654 48.6135-22.9442 48.3728-22.9442C48.1083-22.9413 47.8453-22.982 47.5944-23.0645C47.2653-23.1671 46.9858-23.1247 46.9858-23.1247C46.9858-23.1247 46.9327-22.923 46.6921-22.7213C46.4515-22.5196 46.1932-22.3568 46.1932-22.3568C46.1932-22.3568 51.4159-18.507 51.7131-18.323C52.0068-18.1461 52.1378-18.0435 52.3005-17.7427C52.4668-17.4384 52.1731-16.9324 52.1731-16.9324C52.1731-16.9324 52.2298-16.8722 52.4137-16.7909C52.5977-16.713 52.5234-16.6139 52.6154-16.4512C52.7074-16.2884 52.7464-16.2282 52.4668-16.2495C52.2147-16.289 51.9679-16.3568 51.7308-16.4512C51.7308-16.4512 51.7662-16.3486 51.5291-16.3096C51.2885-16.2707 50.917-16.6918 49.8095-17.4596C48.7019-18.2239 46.2109-20.0179 46.2109-20.0179C46.2109-20.0179 46.0835-19.7985 45.6376-19.5933C45.1953-19.3952 45.029-19.3739 44.9936-19.1935C44.9582-19.0095 45.1741-18.7087 45.5032-18.9564C45.8287-19.2041 45.8818-19.2324 45.8818-19.2324C45.8818-19.2324 45.7544-18.7795 45.4642-18.6804C45.1741-18.5849 44.9335-18.5849 44.6716-18.8892C44.4062-19.1899 44.1656-19.5756 44.1656-19.5756C44.1656-19.5756 43.9144-19.5473 43.7764-19.8233C43.6349-20.0993 43.7233-20.1948 43.7764-20.1135C43.8259-20.0285 44.0913-19.8799 44.0913-19.8799C44.0913-19.8799 44.1019-20.1276 44.0382-20.3895C43.9746-20.6478 43.9746-20.8424 43.9746-20.8424C43.9746-20.8424 43.3341-20.6655 43.2456-21.1608C43.1572-21.6562 43.281-22.2471 43.281-22.2471C43.281-22.2471 41.8727-23.2768 40.9103-23.9244C40.4078-24.2641 40.0292-24.4374 40.0292-24.4374C40.0292-24.4374 39.9407-23.9987 39.4489-23.9138C38.957-23.8324 38.9712-24.0801 38.9712-24.0801C38.9712-24.0801 38.858-23.9704 38.4935-23.9562C38.1254-23.9421 38.0264-24.0518 37.9131-24.1614C37.7999-24.2711 37.9131-24.2181 38.0016-24.2039C38.0901-24.1898 38.4546-24.1473 38.4935-24.2287C38.5289-24.3136 38.5041-24.3525 38.3024-24.4516C38.1007-24.5471 37.7221-25.2902 37.7221-25.2902C37.7221-25.2902 37.1948-25.2442 36.8268-25.9625C36.4588-26.6879 36.6499-27.0453 36.6499-27.0453C36.6499-27.0453 31.6925-30.8951 31.1689-31.3303C30.6487-31.7585 30.6239-31.8009 30.9389-31.6736C31.2573-31.5497 31.3741-31.5497 31.4095-31.7302C31.4484-31.9106 31.8695-31.7443 31.9438-31.6877C32.0216-31.6346 32.0075-31.7019 32.0075-31.9354C32.0075-32.176 32.3118-32.1194 32.4392-32.0911C32.5665-32.0628 32.4144-32.2999 32.3401-32.5228C32.2622-32.7422 32.2764-32.7846 32.4533-32.6749C32.6302-32.5653 37.6018-28.8003 37.6018-28.8003C37.6018-28.8003 37.7681-28.9419 38.3413-28.9773C38.9146-29.0233 39.2684-29.0693 39.2684-29.0693C39.2684-29.0693 36.8339-31.9779 36.1333-33.5277C35.4327-35.0846 35.3761-35.3677 35.0258-36.776C34.6719-38.1914 34.3605-39.2458 34.3605-39.2458L34.3605-39.2423Z"/>
   <path class="monochrome-1 multicolor-1:tintColor hierarchical-1:tertiary SFSymbolsPreviewWireframe" d="M48.9411-84C55.3091-84.0013 61.615-82.7479 67.4985-80.3116C73.382-77.8752 78.7279-74.3036 83.2305-69.8009C87.7334-65.2983 91.305-59.9524 93.7418-54.0682C96.1779-48.1846 97.4312-41.8789 97.43-35.5124C97.43-8.72255 75.7254 13 48.9424 13C22.156 13 0.43-8.726 0.43-35.5124C0.43-62.2926 22.1539-84 48.9411-84ZM48.9424-70C29.8835-70 14.43-54.5582 14.43-35.5124C14.43-16.458 29.888-0.999999 48.9424-0.999999C67.9909-0.999999 83.43-16.4519 83.43-35.5138C83.4309-40.0428 82.5395-44.5276 80.8069-48.7121C79.0739-52.8969 76.5337-56.6989 73.3311-59.9013C70.1287-63.1038 66.3266-65.644 62.1422-67.3767C57.9578-69.1095 53.4729-70.0009 48.9424-70Z"/>
  </g>
  <g id="Regular-S" transform="matrix(1 0 0 1 1403.58 696)">
   <path class="monochrome-0 multicolor-0:tintColor hierarchical-0:primary SFSymbolsPreviewWireframe" d="M28.4165-41.0108C28.4165-41.0108 27.3805-44.0255 27.3805-46.3566C27.3805-48.6835 27.5503-50.2843 27.5843-50.9765C27.6098-51.6686 27.4102-52.0168 27.0917-52.8023C26.8688-53.3451 26.6281-53.8804 26.3699-54.4073L26.1406-54.2502C26.1406-54.2502 25.8561-53.9955 25.8009-54.1526C25.7415-54.3097 25.7117-54.4371 25.7117-54.4371C25.7117-54.4371 25.423-54.3734 25.3678-54.5942C25.3084-54.815 25.164-55.5071 25.164-55.5071C25.164-55.5071 24.7903-55.1292 24.7903-55.5708C24.7903-56.0081 24.7309-56.5899 24.7309-56.5899C24.7309-56.5899 23.6991-56.8998 21.9284-57.3372C20.9227-57.6051 19.8901-57.7589 18.85-57.7958C18.6461-57.7958 18.4253-57.4816 18.4253-57.4816C18.4253-57.4816 18.3404-58.0123 18.85-58.6195C19.3595-59.2225 20.2215-59.7065 22.2384-60.2161C24.2511-60.7256 25.1173-60.7256 25.1173-60.7256C25.1173-60.7256 25.8689-62.2967 26.9983-63.0185C28.1278-63.7489 28.8369-63.7956 29.4144-63.9187C29.9876-64.0376 30.0089-63.9909 30.0089-63.9909L29.7668-63.7234C29.7668-63.7234 30.2127-63.7701 30.5439-63.8211C30.8751-63.8678 30.8538-63.7489 30.7647-63.6257C30.6755-63.5069 30.633-63.4092 31.1638-63.4814C31.6946-63.5536 33.1595-63.4814 34.6415-62.8529C36.1276-62.2245 37.8091-61.4008 38.7815-59.7787C39.7581-58.1609 39.6689-57.6514 39.601-57.316C40.2889-54.8659 41.1084-51.9149 41.7241-51.5539C42.3482-51.1888 46.6666-48.3099 49.5455-44.6582C52.4244-41.0065 53.2014-39.4354 55.1292-35.6564C57.0569-31.8773 56.8786-31.8094 57.8552-30.6204C58.8276-29.4358 59.0017-29.1937 59.7575-28.1789C60.509-27.1598 60.4878-26.5569 60.4878-26.5569C60.4878-26.5569 60.8445-26.2172 62.3264-24.9348C63.8126-23.6525 65.2053-22.6122 65.8252-21.7672C66.4494-20.918 66.4706-20.1706 65.9823-20.315C65.494-20.4594 64.2542-21.0666 64.2542-21.0666C64.2542-21.0666 64.8316-20.1706 65.0949-19.7078C65.3624-19.2492 65.1841-19.2025 64.8062-19.3002C64.4325-19.3936 63.9017-19.5422 63.9017-19.5422C63.9017-19.5422 63.9272-19.4191 64.1522-19.1898C64.6618-18.6633 65.8422-17.5678 67.4897-16.0052C69.8591-13.7547 73.0267-10.5404 73.3367-10.103C73.6466-9.66991 73.7783-9.64443 73.3367-9.95864C72.8951-10.2729 72.4025-10.6126 72.2497-10.5871C72.0968-10.5616 72.186-10.1752 71.7401-10.0563C71.2985-9.93317 71.3198-9.93317 71.3198-9.93317C71.3198-9.93317 71.3877-9.57224 71.4514-9.08394C71.5193-8.60412 71.324-8.77397 70.6998-9.27926C70.0799-9.7888 68.9716-10.9268 66.4239-13.2027C63.8762-15.4744 62.3476-17.071 60.5982-18.0858C58.8488-19.1049 57.5834-19.9031 55.1292-20.9689C52.6706-22.0305 52.4498-22.1069 52.2927-22.0305C52.1399-21.9583 52.1823-21.8861 52.1611-21.6695C52.1399-21.453 51.9615-21.6228 51.6728-21.7162C51.3841-21.8139 50.6325-22.2725 50.3013-22.2725C49.9701-22.2725 49.9913-22.4169 50.0593-22.1281C50.123-21.8394 50.0168-21.746 49.6814-21.8394C49.3502-21.937 49.0869-22.1536 48.6835-22.298C48.2844-22.4423 48.1103-22.4211 48.1315-22.1536C48.1527-21.8861 47.9532-21.937 47.6899-22.0092C47.4224-22.0814 47.2228-22.2046 46.8704-22.1536C46.5137-22.1069 46.535-22.2003 46.4925-22.0559C46.45-21.9116 46.4925-22.0092 46.0509-22.0559C45.605-22.1069 45.8938-21.9583 46.0084-21.8394C46.1146-21.7162 46.0721-21.5974 45.6942-21.6695C45.3206-21.7417 45.4055-21.5719 45.4946-21.5252C45.5838-21.4785 45.5201-21.453 45.2314-21.453C44.914-21.4494 44.5984-21.4983 44.2972-21.5974C43.9023-21.7205 43.5669-21.6695 43.5669-21.6695C43.5669-21.6695 43.5032-21.4275 43.2145-21.1855C42.9257-20.9434 42.6158-20.7481 42.6158-20.7481C42.6158-20.7481 48.8831-16.1283 49.2398-15.9075C49.5922-15.6952 49.7493-15.5721 49.9446-15.2111C50.1442-14.846 49.7918-14.2388 49.7918-14.2388C49.7918-14.2388 49.8597-14.1666 50.0805-14.0689C50.3013-13.9755 50.2121-13.8566 50.3225-13.6613C50.4329-13.466 50.4796-13.3938 50.1442-13.4193C49.8416-13.4667 49.5455-13.5481 49.261-13.6613C49.261-13.6613 49.3034-13.5382 49.019-13.4914C48.7302-13.4447 48.2844-13.95 46.9553-14.8714C45.6263-15.7886 42.637-17.9414 42.637-17.9414C42.637-17.9414 42.4841-17.6782 41.9491-17.4319C41.4183-17.1941 41.2188-17.1686 41.1763-16.9521C41.1338-16.7313 41.3929-16.3703 41.7878-16.6676C42.1784-16.9648 42.2421-16.9988 42.2421-16.9988C42.2421-16.9988 42.0892-16.4553 41.741-16.3364C41.3929-16.2217 41.1041-16.2217 40.7899-16.5869C40.4714-16.9478 40.1827-17.4106 40.1827-17.4106C40.1827-17.4106 39.8812-17.3767 39.7156-17.7079C39.5458-18.0391 39.6519-18.1537 39.7156-18.0561C39.7751-17.9542 40.0935-17.7758 40.0935-17.7758C40.0935-17.7758 40.1063-18.073 40.0298-18.3873C39.9534-18.6972 39.9534-18.9308 39.9534-18.9308C39.9534-18.9308 39.1849-18.7185 39.0787-19.3129C38.9726-19.9074 39.1212-20.6165 39.1212-20.6165C39.1212-20.6165 37.4312-21.8521 36.2762-22.6292C35.6733-23.0368 35.219-23.2449 35.219-23.2449C35.219-23.2449 35.1128-22.7183 34.5226-22.6164C33.9324-22.5188 33.9494-22.816 33.9494-22.816C33.9494-22.816 33.8135-22.6844 33.3761-22.6674C32.9345-22.6504 32.8156-22.782 32.6797-22.9137C32.5438-23.0453 32.6797-22.9816 32.7858-22.9646C32.892-22.9476 33.3294-22.8967 33.3761-22.9943C33.4186-23.0962 33.3889-23.143 33.1468-23.2618C32.9047-23.3765 32.4504-24.2682 32.4504-24.2682C32.4504-24.2682 31.8177-24.213 31.3761-25.075C30.9345-25.9454 31.1638-26.3743 31.1638-26.3743C31.1638-26.3743 25.2149-30.9941 24.5865-31.5164C23.9623-32.0302 23.9326-32.0811 24.3105-31.9282C24.6927-31.7796 24.8328-31.7796 24.8753-31.9962C24.922-32.2127 25.4273-32.0132 25.5164-31.9452C25.6098-31.8815 25.5929-31.9622 25.5929-32.2425C25.5929-32.5312 25.958-32.4633 26.1109-32.4293C26.2637-32.3953 26.0812-32.6798 25.992-32.9473C25.8986-33.2106 25.9156-33.2615 26.1279-33.1299C26.3402-32.9983 32.306-28.4804 32.306-28.4804C32.306-28.4804 32.5056-28.6502 33.1935-28.6927C33.8814-28.7479 34.306-28.8031 34.306-28.8031C34.306-28.8031 31.3846-32.2934 30.5439-34.1532C29.7031-36.0215 29.6352-36.3612 29.2148-38.0512C28.7902-39.7497 28.4165-41.015 28.4165-41.015L28.4165-41.0108Z"/>
   <path class="monochrome-1 multicolor-1:tintColor hierarchical-1:tertiary SFSymbolsPreviewWireframe" d="M46.4321-81.8365C52.4502-81.8377 58.4096-80.6532 63.9698-78.3508C69.53-76.0483 74.5822-72.6729 78.8374-68.4176C83.0928-64.1624 86.4682-59.1103 88.771-53.5496C91.0733-47.9892 92.2577-42.03 92.2566-36.0127C92.2566-10.693 71.744 9.83658 46.4328 9.83658C21.1173 9.83658 0.5835-10.6972 0.5835-36.0127C0.5835-61.3211 21.1145-81.8365 46.4321-81.8365ZM46.4328-75.0865C24.8413-75.0865 7.3335-57.592 7.3335-36.0127C7.3335-14.4252 24.8452 3.08658 46.4328 3.08658C68.0148 3.08658 85.5066-14.4197 85.5066-36.0133C85.5076-41.1447 84.4976-46.226 82.5345-50.9672C80.571-55.7085 77.693-60.0162 74.0644-63.6446C70.4361-67.273 66.1283-70.1511 61.3873-72.1143C56.6463-74.0776 51.5649-75.0875 46.4328-75.0865Z"/>
  </g>
  <g id="Ultralight-S" transform="matrix(1 0 0 1 515.649 696)">
   <path class="monochrome-0 multicolor-0:tintColor hierarchical-0:primary SFSymbolsPreviewWireframe" d="M26.3475-42.0108C26.3475-42.0108 25.3115-45.0255 25.3115-47.3566C25.3115-49.6835 25.4813-51.2843 25.5153-51.9765C25.5408-52.6686 25.3412-53.0168 25.0227-53.8023C24.7998-54.3451 24.5591-54.8804 24.3009-55.4073L24.0716-55.2502C24.0716-55.2502 23.7871-54.9955 23.7319-55.1526C23.6725-55.3097 23.6427-55.4371 23.6427-55.4371C23.6427-55.4371 23.354-55.3734 23.2988-55.5942C23.2394-55.815 23.095-56.5071 23.095-56.5071C23.095-56.5071 22.7213-56.1292 22.7213-56.5708C22.7213-57.0081 22.6619-57.5899 22.6619-57.5899C22.6619-57.5899 21.6301-57.8998 19.8594-58.3372C18.8537-58.6051 17.8211-58.7589 16.781-58.7958C16.5771-58.7958 16.3563-58.4816 16.3563-58.4816C16.3563-58.4816 16.2714-59.0123 16.781-59.6195C17.2905-60.2225 18.1525-60.7065 20.1694-61.2161C22.1821-61.7256 23.0483-61.7256 23.0483-61.7256C23.0483-61.7256 23.7999-63.2967 24.9293-64.0185C26.0588-64.7489 26.7679-64.7956 27.3454-64.9187C27.9186-65.0376 27.9399-64.9909 27.9399-64.9909L27.6978-64.7234C27.6978-64.7234 28.1437-64.7701 28.4749-64.8211C28.8061-64.8678 28.7848-64.7489 28.6957-64.6257C28.6065-64.5069 28.564-64.4092 29.0948-64.4814C29.6256-64.5536 31.0905-64.4814 32.5725-63.8529C34.0586-63.2245 35.7401-62.4008 36.7125-60.7787C37.6891-59.1609 37.5999-58.6514 37.532-58.316C38.2199-55.8659 39.0394-52.9149 39.6551-52.5539C40.2792-52.1888 44.5976-49.3099 47.4765-45.6582C50.3554-42.0065 51.1324-40.4354 53.0602-36.6564C54.9879-32.8773 54.8096-32.8094 55.7862-31.6204C56.7586-30.4358 56.9327-30.1937 57.6885-29.1789C58.44-28.1598 58.4188-27.5569 58.4188-27.5569C58.4188-27.5569 58.7755-27.2172 60.2574-25.9348C61.7436-24.6525 63.1363-23.6122 63.7562-22.7672C64.3804-21.918 64.4016-21.1706 63.9133-21.315C63.425-21.4594 62.1852-22.0666 62.1852-22.0666C62.1852-22.0666 62.7626-21.1706 63.0259-20.7078C63.2934-20.2492 63.1151-20.2025 62.7372-20.3002C62.3635-20.3936 61.8327-20.5422 61.8327-20.5422C61.8327-20.5422 61.8582-20.4191 62.0832-20.1898C62.5928-19.6633 63.7732-18.5678 65.4207-17.0052C67.7901-14.7547 70.9577-11.5404 71.2677-11.103C71.5776-10.6699 71.7093-10.6444 71.2677-10.9586C70.8261-11.2729 70.3335-11.6126 70.1807-11.5871C70.0278-11.5616 70.117-11.1752 69.6711-11.0563C69.2295-10.9332 69.2508-10.9332 69.2508-10.9332C69.2508-10.9332 69.3187-10.5722 69.3824-10.0839C69.4503-9.60412 69.255-9.77397 68.6308-10.2793C68.0109-10.7888 66.9026-11.9268 64.3549-14.2027C61.8072-16.4744 60.2786-18.071 58.5292-19.0858C56.7798-20.1049 55.5144-20.9031 53.0602-21.9689C50.6016-23.0305 50.3808-23.1069 50.2237-23.0305C50.0709-22.9583 50.1133-22.8861 50.0921-22.6695C50.0709-22.453 49.8925-22.6228 49.6038-22.7162C49.3151-22.8139 48.5635-23.2725 48.2323-23.2725C47.9011-23.2725 47.9223-23.4169 47.9903-23.1281C48.054-22.8394 47.9478-22.746 47.6124-22.8394C47.2812-22.937 47.0179-23.1536 46.6145-23.298C46.2154-23.4423 46.0413-23.4211 46.0625-23.1536C46.0837-22.8861 45.8842-22.937 45.6209-23.0092C45.3534-23.0814 45.1538-23.2046 44.8014-23.1536C44.4447-23.1069 44.466-23.2003 44.4235-23.0559C44.381-22.9116 44.4235-23.0092 43.9819-23.0559C43.536-23.1069 43.8248-22.9583 43.9394-22.8394C44.0456-22.7162 44.0031-22.5974 43.6252-22.6695C43.2516-22.7417 43.3365-22.5719 43.4256-22.5252C43.5148-22.4785 43.4511-22.453 43.1624-22.453C42.845-22.4494 42.5294-22.4983 42.2282-22.5974C41.8333-22.7205 41.4979-22.6695 41.4979-22.6695C41.4979-22.6695 41.4342-22.4275 41.1455-22.1855C40.8567-21.9434 40.5468-21.7481 40.5468-21.7481C40.5468-21.7481 46.8141-17.1283 47.1708-16.9075C47.5232-16.6952 47.6803-16.5721 47.8756-16.2111C48.0752-15.846 47.7228-15.2388 47.7228-15.2388C47.7228-15.2388 47.7907-15.1666 48.0115-15.0689C48.2323-14.9755 48.1431-14.8566 48.2535-14.6613C48.3639-14.466 48.4106-14.3938 48.0752-14.4193C47.7726-14.4667 47.4765-14.5481 47.192-14.6613C47.192-14.6613 47.2344-14.5382 46.95-14.4914C46.6612-14.4447 46.2154-14.95 44.8863-15.8714C43.5573-16.7886 40.568-18.9414 40.568-18.9414C40.568-18.9414 40.4151-18.6782 39.8801-18.4319C39.3493-18.1941 39.1498-18.1686 39.1073-17.9521C39.0648-17.7313 39.3239-17.3703 39.7188-17.6676C40.1094-17.9648 40.1731-17.9988 40.1731-17.9988C40.1731-17.9988 40.0202-17.4553 39.672-17.3364C39.3239-17.2217 39.0351-17.2217 38.7209-17.5869C38.4024-17.9478 38.1137-18.4106 38.1137-18.4106C38.1137-18.4106 37.8122-18.3767 37.6466-18.7079C37.4768-19.0391 37.5829-19.1537 37.6466-19.0561C37.7061-18.9542 38.0245-18.7758 38.0245-18.7758C38.0245-18.7758 38.0373-19.073 37.9608-19.3873C37.8844-19.6972 37.8844-19.9308 37.8844-19.9308C37.8844-19.9308 37.1159-19.7185 37.0097-20.3129C36.9036-20.9074 37.0522-21.6165 37.0522-21.6165C37.0522-21.6165 35.3622-22.8521 34.2072-23.6292C33.6043-24.0368 33.15-24.2449 33.15-24.2449C33.15-24.2449 33.0438-23.7183 32.4536-23.6164C31.8634-23.5188 31.8804-23.816 31.8804-23.816C31.8804-23.816 31.7445-23.6844 31.3071-23.6674C30.8655-23.6504 30.7466-23.782 30.6107-23.9137C30.4748-24.0453 30.6107-23.9816 30.7168-23.9646C30.823-23.9476 31.2604-23.8967 31.3071-23.9943C31.3496-24.0962 31.3199-24.143 31.0778-24.2618C30.8357-24.3765 30.3814-25.2682 30.3814-25.2682C30.3814-25.2682 29.7487-25.213 29.3071-26.075C28.8655-26.9454 29.0948-27.3743 29.0948-27.3743C29.0948-27.3743 23.1459-31.9941 22.5175-32.5164C21.8933-33.0302 21.8636-33.0811 22.2415-32.9282C22.6237-32.7796 22.7638-32.7796 22.8063-32.9962C22.853-33.2127 23.3583-33.0132 23.4474-32.9452C23.5408-32.8815 23.5239-32.9622 23.5239-33.2425C23.5239-33.5312 23.889-33.4633 24.0419-33.4293C24.1947-33.3953 24.0122-33.6798 23.923-33.9473C23.8296-34.2106 23.8466-34.2615 24.0589-34.1299C24.2712-33.9983 30.237-29.4804 30.237-29.4804C30.237-29.4804 30.4366-29.6502 31.1245-29.6927C31.8124-29.7479 32.237-29.8031 32.237-29.8031C32.237-29.8031 29.3156-33.2934 28.4749-35.1532C27.6341-37.0215 27.5662-37.3612 27.1458-39.0512C26.7212-40.7497 26.3475-42.015 26.3475-42.015L26.3475-42.0108Z"/>
   <path class="monochrome-1 multicolor-1:tintColor hierarchical-1:tertiary SFSymbolsPreviewWireframe" d="M44.3636-80.5865C50.0861-80.5876 55.7528-79.4613 61.04-77.272C66.3271-75.0826 71.1312-71.8729 75.1774-67.8265C79.2239-63.7803 82.4335-58.9764 84.6232-53.6889C86.8124-48.4015 87.9387-42.7349 87.9376-37.0127C87.9376-12.9352 68.432 6.58658 44.3638 6.58658C20.2909 6.58658 0.7645-12.9399 0.7645-37.0127C0.7645-61.0781 20.2877-80.5865 44.3636-80.5865ZM44.3638-78.3365C21.53-78.3365 3.0145-59.8351 3.0145-37.0127C3.0145-14.1825 21.5336 4.33658 44.3638 4.33658C67.1889 4.33658 85.6876-14.1774 85.6876-37.0129C85.6886-42.4398 84.6205-47.8138 82.5443-52.828C80.4678-57.8425 77.4239-62.3983 73.5865-66.2355C69.7491-70.073 65.1932-73.1168 60.1791-75.1931C55.1651-77.2695 49.791-78.3376 44.3638-78.3365Z"/>
  </g>
 </g>
</svg>
