<?xml version="1.0" encoding="UTF-8"?>
<svg width="3300px" height="2200px" viewBox="0 0 3300 2200" version="1.1" xmlns="http://www.w3.org/2000/svg" xmlns:xlink="http://www.w3.org/1999/xlink">
    <!-- Generator: Sketch 59.1 (86144) - https://sketch.com -->
    <title>filter</title>
    <desc>Created with Sketch.</desc>
    <g id="Page-1" stroke="none" stroke-width="1" fill="none" fill-rule="evenodd">
        <g id="filter">
            <g id="Notes">
                <rect id="artboard" fill="#FFFFFF" fill-rule="nonzero" x="0" y="0" width="3300" height="2200"></rect>
                <line x1="263" y1="292" x2="3036" y2="292" id="Path" stroke="#000000" stroke-width="0.5"></line>
                <text id="Weight/Scale-Variations" fill="#000000" font-family="Helvetica-Bold, Helvetica" font-size="13" font-weight="bold">
                    <tspan x="263" y="322">Weight/Scale Variations</tspan>
                </text>
                <text id="Ultralight" fill="#000000" font-family="Helvetica" font-size="13" font-weight="normal">
                    <tspan x="533.711" y="322">Ultralight</tspan>
                </text>
                <text id="Thin" fill="#000000" font-family="Helvetica" font-size="13" font-weight="normal">
                    <tspan x="843.422" y="322">Thin</tspan>
                </text>
                <text id="Light" fill="#000000" font-family="Helvetica" font-size="13" font-weight="normal">
                    <tspan x="1138.63" y="322">Light</tspan>
                </text>
                <text id="Regular" fill="#000000" font-family="Helvetica" font-size="13" font-weight="normal">
                    <tspan x="1426.84" y="322">Regular</tspan>
                </text>
                <text id="Medium" fill="#000000" font-family="Helvetica" font-size="13" font-weight="normal">
                    <tspan x="1723.06" y="322">Medium</tspan>
                </text>
                <text id="Semibold" fill="#000000" font-family="Helvetica" font-size="13" font-weight="normal">
                    <tspan x="2015.77" y="322">Semibold</tspan>
                </text>
                <text id="Bold" fill="#000000" font-family="Helvetica" font-size="13" font-weight="normal">
                    <tspan x="2326.48" y="322">Bold</tspan>
                </text>
                <text id="Heavy" fill="#000000" font-family="Helvetica" font-size="13" font-weight="normal">
                    <tspan x="2618.19" y="322">Heavy</tspan>
                </text>
                <text id="Black" fill="#000000" font-family="Helvetica" font-size="13" font-weight="normal">
                    <tspan x="2917.4" y="322">Black</tspan>
                </text>
                <line x1="263" y1="1903" x2="3036" y2="1903" id="Path" stroke="#000000" stroke-width="0.5"></line>
                <g id="Group" transform="translate(264.000000, 1918.000000)" fill="#000000" fill-rule="nonzero">
                    <path d="M8.24805,15.830078 C12.5547,15.830078 16.1387,12.25586 16.1387,7.94922 C16.1387,3.6426 12.5449,0.0684 8.23828,0.0684 C3.94141,0.0684 0.36719,3.6426 0.36719,7.94922 C0.36719,12.25586 3.95117,15.830078 8.24805,15.830078 Z M8.24805,14.345703 C4.70312,14.345703 1.87109,11.50391 1.87109,7.94922 C1.87109,4.3945 4.69336,1.5527 8.23828,1.5527 C11.793,1.5527 14.6348,4.3945 14.6445503,7.94922 C14.6543,11.50391 11.8027,14.345703 8.24805,14.345703 Z M8.22852,11.57227 C8.69727,11.57227 8.9707,11.25977 8.9707,10.74219 L8.9707,8.68164 L11.1973,8.68164 C11.6953,8.68164 12.0371,8.42773 12.0371,7.95898 C12.0371,7.48047 11.7148,7.2168 11.1973,7.2168 L8.9707,7.2168 L8.9707,4.9902 C8.9707,4.4727 8.69727,4.1504 8.22852,4.1504 C7.75977,4.1504 7.50586,4.4922 7.50586,4.9902 L7.50586,7.2168 L5.29883,7.2168 C4.78125,7.2168 4.44922,7.48047 4.44922,7.95898 C4.44922,8.42773 4.80078,8.68164 5.29883,8.68164 L7.50586,8.68164 L7.50586,10.74219 C7.50586,11.24023 7.75977,11.57227 8.22852,11.57227 Z" id="Shape"></path>
                </g>
                <g id="Group" transform="translate(282.506000, 1915.000000)" fill="#000000" fill-rule="nonzero">
                    <path d="M10.709,20.91016 C16.1582,20.91016 20.6699,16.39844 20.6699,10.94922 C20.6699,5.5098 16.1484,0.9883 10.6992,0.9883 C5.25977,0.9883 0.74805,5.5098 0.74805,10.94922 C0.74805,16.39844 5.26953,20.91016 10.709,20.91016 Z M10.709,19.25 C6.09961,19.25 2.41797,15.55859 2.41797,10.94922 C2.41797,6.3496 6.08984,2.6484 10.6992,2.6484 C15.3086,2.6484 19,6.3496 19.0098379,10.94922 C19.0195,15.55859 15.3184,19.25 10.709,19.25 Z M10.6895,15.58789 C11.207,15.58789 11.5195,15.22656 11.5195,14.66016 L11.5195,11.76953 L14.5762,11.76953 C15.123,11.76953 15.5039,11.48633 15.5039,10.96875 C15.5039,10.44141 15.1426,10.13867 14.5762,10.13867 L11.5195,10.13867 L11.5195,7.0723 C11.5195,6.4961 11.207,6.1445 10.6895,6.1445 C10.1719,6.1445 9.8789,6.5156 9.8789,7.0723 L9.8789,10.13867 L6.83203,10.13867 C6.26562,10.13867 5.89453,10.44141 5.89453,10.96875 C5.89453,11.48633 6.28516,11.76953 6.83203,11.76953 L9.8789,11.76953 L9.8789,14.66016 C9.8789,15.20703 10.1719,15.58789 10.6895,15.58789 Z" id="Shape"></path>
                </g>
                <g id="Group" transform="translate(306.924000, 1913.000000)" fill="#000000" fill-rule="nonzero">
                    <path d="M12.9707,25.67383 C19.9336,25.67383 25.6953,19.921875 25.6953,12.95898 C25.6953,5.9961 19.9238,0.2441 12.9609,0.2441 C6.00781,0.2441 0.25586,5.9961 0.25586,12.95898 C0.25586,19.921875 6.01758,25.67383 12.9707,25.67383 Z M12.9707,23.85742 C6.93555,23.85742 2.08203,18.99414 2.08203,12.95898 C2.08203,6.9238 6.92578,2.0605 12.9609,2.0605 C19.0059,2.0605 23.8594,6.9238 23.8691295,12.95898 C23.8789,18.99414 19.0156,23.85742 12.9707,23.85742 Z M12.9512,18.93555 C13.5176,18.93555 13.8691,18.54492 13.8691,17.93945 L13.8691,13.86719 L18.1074,13.86719 C18.6934,13.86719 19.1133,13.53516 19.1133,12.97852 C19.1133,12.40234 18.7227,12.06055 18.1074,12.06055 L13.8691,12.06055 L13.8691,7.8125 C13.8691,7.1973 13.5176,6.8066 12.9512,6.8066 C12.3848,6.8066 12.0625,7.2168 12.0625,7.8125 L12.0625,12.06055 L7.83398,12.06055 C7.21875,12.06055 6.80859,12.40234 6.80859,12.97852 C6.80859,13.53516 7.23828,13.86719 7.83398,13.86719 L12.0625,13.86719 L12.0625,17.93945 C12.0625,18.52539 12.3848,18.93555 12.9512,18.93555 Z" id="Shape"></path>
                </g>
                <text id="Design-Variations" fill="#000000" font-family="Helvetica-Bold, Helvetica" font-size="13" font-weight="bold">
                    <tspan x="263" y="1953">Design Variations</tspan>
                </text>
                <text id="Symbols-are-supported-in-up-to-nine-weights-and-three-scales." fill="#000000" font-family="Helvetica" font-size="13" font-weight="normal">
                    <tspan x="263" y="1971">Symbols are supported in up to nine weights and three scales.</tspan>
                </text>
                <text id="For-optimal-layout-with-text-and-other-symbols,-vertically-align" fill="#000000" font-family="Helvetica" font-size="13" font-weight="normal">
                    <tspan x="263" y="1989">For optimal layout with text and other symbols, vertically align</tspan>
                </text>
                <text id="symbols-with-the-adjacent-text." fill="#000000" font-family="Helvetica" font-size="13" font-weight="normal">
                    <tspan x="263" y="2007">symbols with the adjacent text.</tspan>
                </text>
                <rect id="Rectangle" fill="#00AEEF" fill-rule="nonzero" opacity="0.4" x="776" y="1919" width="3" height="14"></rect>
                <g id="Group" transform="translate(779.000000, 1918.000000)" fill="#000000" fill-rule="nonzero">
                    <path d="M10.5273,15 L12.373,15 L7.17773,0.9082 L5.43945,0.9082 L0.244141,15 L2.08984,15 L3.50586,10.9668 L9.11133,10.9668 L10.5273,15 Z M6.2793,3.0469 L6.33789,3.0469 L8.59375,9.47266 L4.02344,9.47266 L6.2793,3.0469 Z" id="Shape"></path>
                </g>
                <rect id="Rectangle" fill="#00AEEF" fill-rule="nonzero" opacity="0.4" x="791.617" y="1919" width="3" height="14"></rect>
                <text id="Margins" fill="#000000" font-family="Helvetica-Bold, Helvetica" font-size="13" font-weight="bold">
                    <tspan x="776" y="1953">Margins</tspan>
                </text>
                <text id="Leading-and-trailing-margins-on-the-left-and-right-side-of-each-symbol" fill="#000000" font-family="Helvetica" font-size="13" font-weight="normal">
                    <tspan x="776" y="1971">Leading and trailing margins on the left and right side of each symbol</tspan>
                </text>
                <text id="can-be-adjusted-by-modifying-the-width-of-the-blue-rectangles." fill="#000000" font-family="Helvetica" font-size="13" font-weight="normal">
                    <tspan x="776" y="1989">can be adjusted by modifying the width of the blue rectangles.</tspan>
                </text>
                <text id="Modifications-are-automatically-applied-proportionally-to-all" fill="#000000" font-family="Helvetica" font-size="13" font-weight="normal">
                    <tspan x="776" y="2007">Modifications are automatically applied proportionally to all</tspan>
                </text>
                <text id="scales-and-weights." fill="#000000" font-family="Helvetica" font-size="13" font-weight="normal">
                    <tspan x="776" y="2025">scales and weights.</tspan>
                </text>
                <g id="Group" transform="translate(1291.000000, 1915.000000)" fill="#000000" fill-rule="nonzero">
                    <path d="M0.83203,21.11523 L2.375,22.6582 C3.22461,23.48828 4.19141,23.41992 5.06055,22.46289 L15.2754,11.33984 C15.7051,11.63281 16.0957,11.62305 16.5645,11.52539 L17.6094,11.31055 L18.3027,12.00391 L18.2539,12.52148 C18.1855,13.04883 18.3516,13.46875 18.8496,13.9668 L19.6602,14.77734 C20.168,15.28516 20.8223,15.31445 21.3008,14.83594 L24.5527,11.58398 C25.0312,11.10547 25.0117,10.45117 24.5039,9.94336 L23.6836,9.12305 C23.1855,8.625 22.7754,8.44922 22.2383,8.52734 L21.7109,8.58594 L21.0566,7.9219 L21.3398,6.7793 C21.4863,6.2129 21.3398,5.7441 20.7148,5.1387 L18.3027,2.7461 C14.7578,-0.7793 10.2266,-0.6719 7.11133,2.4629 C6.69141,2.8926 6.64258,3.4785 6.91602,3.9082 C7.15039,4.2793 7.62891,4.5039 8.2734,4.3379 C9.7871,3.957 11.3008,4.0742 12.7852,5.0801 L12.1602,6.6621 C11.9258,7.248 11.9453,7.7266 12.1797,8.16602 L1.01758,18.439453 C0.08008,19.30859 -0.02734,20.25586 0.83203,21.11523 Z M8.6738,2.8535 C11.3398,0.8613 14.6504,1.1738 17.0527,3.5859 L19.6797,6.1934 C19.9141,6.4277 19.9434,6.6133 19.8848,6.9062 L19.5039,8.46875 L21.0762,10.04102 L22.043,9.95312 C22.3262,9.92383 22.4141,9.94336 22.6387,10.16797 L23.2637,10.79297 L20.5098,13.53711 L19.8848,12.92188 C19.6602,12.69727 19.6406,12.59961 19.6699,12.31641 L19.7578,11.35938 L18.1953,9.79688 L16.5742,10.10938 C16.291,10.16797 16.1445,10.16797 15.9102,9.92383 L13.7324,7.7461 C13.5078,7.5117 13.4785,7.375 13.6055,7.0527 L14.5527,4.7773 C12.9512,3.2441 10.8418,2.3945 8.8008,3.0488 C8.7129,3.0781 8.6445,3.0586 8.6152,3.0195 C8.5859,2.9707 8.5859,2.9219 8.6738,2.8535 Z M2.10156,20.41211 C1.61328,19.91406 1.78906,19.61133 2.12109,19.30859 L13.0781,9.19141 L14.3086,10.42188 L4.15234,21.34961 C3.84961,21.68164 3.46875,21.7793 3.06836,21.37891 L2.10156,20.41211 Z" id="Shape"></path>
                </g>
                <text id="Exporting" fill="#000000" font-family="Helvetica-Bold, Helvetica" font-size="13" font-weight="bold">
                    <tspan x="1289" y="1953">Exporting</tspan>
                </text>
                <text id="Symbols-should-be-outlined-when-exporting-to-ensure-the" fill="#000000" font-family="Helvetica" font-size="13" font-weight="normal">
                    <tspan x="1289" y="1971">Symbols should be outlined when exporting to ensure the</tspan>
                </text>
                <text id="design-is-preserved-when-submitting-to-Xcode." fill="#000000" font-family="Helvetica" font-size="13" font-weight="normal">
                    <tspan x="1289" y="1989">design is preserved when submitting to Xcode.</tspan>
                </text>
                <text id="Template-v.1.0" fill="#000000" font-family="Helvetica" font-size="13" font-weight="normal">
                    <tspan x="2952" y="1933">Template v.1.0</tspan>
                </text>
                <text id="Generated-from-circle" fill="#000000" font-family="Helvetica" font-size="13" font-weight="normal">
                    <tspan x="2911" y="1951">Generated from circle</tspan>
                </text>
                <text id="Typeset-at-100-points" fill="#000000" font-family="Helvetica" font-size="13" font-weight="normal">
                    <tspan x="2912" y="1969">Typeset at 100 points</tspan>
                </text>
                <text id="Small" fill="#000000" font-family="Helvetica" font-size="13" font-weight="normal">
                    <tspan x="263" y="726">Small</tspan>
                </text>
                <text id="Medium" fill="#000000" font-family="Helvetica" font-size="13" font-weight="normal">
                    <tspan x="263" y="1156">Medium</tspan>
                </text>
                <text id="Large" fill="#000000" font-family="Helvetica" font-size="13" font-weight="normal">
                    <tspan x="263" y="1586">Large</tspan>
                </text>
            </g>
            <g id="Guides" transform="translate(263.000000, 625.000000)">
                <g id="H-reference" transform="translate(76.000000, 0.000000)" fill="#27AAE1" fill-rule="nonzero">
                    <path d="M54.9316,71 L57.666,71 L30.5664,0.541 L28.0762,0.541 L0.976562,71 L3.66211,71 L12.9395,46.5371 L45.7031,46.5371 L54.9316,71 Z M29.1992,3.9102 L29.4434,3.9102 L44.8242,44.291 L13.8184,44.291 L29.1992,3.9102 Z" id="Shape"></path>
                </g>
                <line x1="0" y1="71" x2="2773" y2="71" id="Baseline-S" stroke="#27AAE1" stroke-width="0.577"></line>
                <line x1="0" y1="0.541" x2="2773" y2="0.541" id="Capline-S" stroke="#27AAE1" stroke-width="0.577"></line>
                <g id="H-reference" transform="translate(76.000000, 430.000000)" fill="#27AAE1" fill-rule="nonzero">
                    <path d="M54.9316,71 L57.666,71 L30.5664,0.541 L28.0762,0.541 L0.976562,71 L3.66211,71 L12.9395,46.5371 L45.7031,46.5371 L54.9316,71 Z M29.1992,3.9102 L29.4434,3.9102 L44.8242,44.291 L13.8184,44.291 L29.1992,3.9102 Z" id="Shape"></path>
                </g>
                <line x1="0" y1="501" x2="2773" y2="501" id="Baseline-M" stroke="#27AAE1" stroke-width="0.577"></line>
                <line x1="0" y1="430.54" x2="2773" y2="430.54" id="Capline-M" stroke="#27AAE1" stroke-width="0.577"></line>
                <g id="H-reference" transform="translate(76.000000, 860.000000)" fill="#27AAE1" fill-rule="nonzero">
                    <path d="M54.9316,71 L57.666,71 L30.5664,0.541 L28.0762,0.541 L0.976562,71 L3.66211,71 L12.9395,46.5371 L45.7031,46.5371 L54.9316,71 Z M29.1992,3.9102 L29.4434,3.9102 L44.8242,44.291 L13.8184,44.291 L29.1992,3.9102 Z" id="Shape"></path>
                </g>
                <line x1="0" y1="931" x2="2773" y2="931" id="Baseline-L" stroke="#27AAE1" stroke-width="0.577"></line>
                <line x1="0" y1="860.54" x2="2773" y2="860.54" id="Capline-L" stroke="#27AAE1" stroke-width="0.577"></line>
                <rect id="left-margin" fill="#00AEEF" fill-rule="nonzero" opacity="0.4" x="1128.3" y="405.79" width="8.74023" height="119.336"></rect>
                <rect id="right-margin" fill="#00AEEF" fill-rule="nonzero" opacity="0.4" x="1236.65" y="405.79" width="8.74023" height="119.336"></rect>
            </g>
            <g id="Symbols" transform="translate(1399.000000, 1040.000000)" fill="#000000" fill-rule="nonzero">
                <g id="Regular-M" transform="translate(0.300000, 0.000000)">
                    <!-- <path d="M50.5449,100.5508 C77.791,100.5508 100.35,77.99219 100.35,50.7461 C100.35,23.5488 77.7422,0.9414 50.4961,0.9414 C23.2988,0.9414 0.74023,23.5488 0.74023,50.7461 C0.74023,77.99219 23.3477,100.5508 50.5449,100.5508 Z M50.1551,92.0078 C27.1082,92.0078 8.7,73.5508 8.7,50.5039 C8.7,27.5058 27.0594,9 50.1063,9 C73.1532,9 91.6102,27.5058 91.6593938,50.5039 C91.7082,73.5508 73.202,92.0078 50.1551,92.0078 Z" id="Shape"></path> -->
                    <path d="M39.2395116,56.2251979 C39.353505,56.0019493 39.4627488,55.8167004 39.5482438,55.6077016 C39.8807247,54.8049565 40.2037061,53.9974614 40.5266875,53.1852163 C40.6786788,52.8004686 40.8116711,52.3777211 40.9684121,52.0072234 C41.1489017,51.574976 41.3198918,51.0999789 41.5526284,50.7817308 C41.8518612,50.3732333 41.9753541,49.7699869 42.1938415,49.2854898 C42.2650874,49.1334907 42.3648317,49.0242414 42.445577,48.8817423 C42.7495595,48.3354956 43.0440426,47.7749989 43.3480251,47.2430022 C43.6805059,46.6730056 44.0319857,46.1315089 44.3692163,45.5662623 C44.635201,45.124515 44.8916862,44.6637677 45.1529212,44.2125205 C45.2289168,44.0890212 45.3191616,43.9892718 45.3904075,43.8657726 C45.7276381,43.3100259 46.0648687,42.7590292 46.3878501,42.1842827 C46.6110872,41.7947851 46.8010763,41.3482878 47.0195637,40.9587901 C47.2428009,40.5550426 47.4850369,40.1797948 47.727273,39.8045471 C47.7842697,39.7142976 47.865015,39.6762979 47.917262,39.5907984 L48.7389647,38.2750563 L49.8788991,36.4700672 C50.0783876,36.1565691 50.2731264,35.8193212 50.4821144,35.520073 C50.8098455,35.0450758 51.1470761,34.6033285 51.4795569,34.1520812 C51.6220487,33.9620824 51.7645405,33.7625836 51.9165318,33.6010845 C52.1920159,33.3113363 52.486499,33.0643378 52.7524837,32.7555897 C53.1372115,32.3233423 53.5076902,31.8530951 53.8829186,31.3970979 C54.1584027,31.0645999 54.4433863,30.7511018 54.709371,30.3901039 C54.9943546,30.0101062 55.2555895,29.5826088 55.5215742,29.1788613 C55.5453229,29.1456115 55.559572,29.0838618 55.5880704,29.055362 C55.9870474,28.6563644 56.167537,27.9153689 56.428772,27.2978726 C56.6757578,26.6993762 56.9702408,26.1578795 57.1982277,25.5403832 C57.3882168,25.0178864 57.6162036,24.5191394 57.696949,23.8731433 C57.7254474,23.6261448 57.8204419,23.4028961 57.8869381,23.1701475 C57.9106867,23.098898 57.958184,23.0371484 57.958184,22.9658988 C57.991432,22.3246527 58.3144134,21.9731548 58.4189074,21.4079082 C58.4949031,20.9709108 58.5803981,20.5386634 58.6468943,20.0921661 C58.7988856,19.113672 58.8653817,18.0734283 59.2168615,17.2279334 C59.3593533,16.8954354 59.5445926,16.6199371 59.7108331,16.3254389 C59.8913227,15.9929409 60.0670625,15.6604429 60.2570516,15.3516948 C60.4565401,15.0239467 60.6655281,14.7009487 60.8840155,14.4159504 C61.1120024,14.1214522 61.3637379,13.8934536 61.5964745,13.6084553 C61.9099564,13.2427075 62.2424373,13.0764585 62.6176657,13.0764585 C63.0926384,13.0764585 63.567611,13.0194589 64.0425837,13 C64.2658208,12.995709 64.489058,13.0289588 64.7075454,13.0479587 C64.9830295,13.0669586 65.2585137,13.0669586 65.5244984,13.1239582 C65.6574907,13.152458 65.7857333,13.2807073 65.9092262,13.3852066 C66.2417071,13.660705 66.5741879,13.9219534 66.8971693,14.2402015 C67.2661547,14.5967616 67.5249828,15.0517949 67.6428764,15.5511936 C67.6808742,15.7079426 67.7853682,15.8551917 67.875613,15.9311913 C68.1605966,16.1686898 68.4550796,16.3349388 68.7305638,16.5961873 C68.9775496,16.8194359 69.2530337,17.0426846 69.4145244,17.4131823 C69.5760151,17.79318 69.6282621,18.3394267 69.6947583,18.8286738 C69.7232566,19.0186726 69.6330118,19.1801716 69.4857703,19.1421719 C69.3100304,19.0946722 69.1247911,18.9996727 68.9633004,19.0661723 C68.5263255,19.2514212 68.136848,19.5221696 67.8708633,20.2964149 C67.562131,21.2036594 67.1821529,22.0301544 66.8211737,22.8803993 C66.4031978,23.8588934 65.9662229,24.8088876 65.5672459,25.8016317 C65.3357916,26.3740078 65.2795838,27.0022449 65.4057552,27.6066208 C65.5244984,28.1291176 65.7097377,28.6136147 65.8759781,29.0981117 C66.1134644,29.7963575 66.3699497,30.4661035 66.5979366,31.1690992 C66.8544218,31.9480945 67.1156567,32.7365898 67.319895,33.5583348 C67.5098841,34.3183302 67.6618753,35.1115754 67.7616196,35.9190705 C67.9326097,37.2965622 68.0513529,38.6930538 68.1748458,40.0895454 C68.2270928,40.6880417 68.2365922,41.2960381 68.2698403,41.8992844 C68.2935889,42.3172819 68.3553354,42.7400294 68.3410862,43.1532769 C68.3125878,44.28377 68.2508414,45.4142632 68.2080939,46.5447564 C68.1748458,47.3475015 68.1605966,48.1549967 68.1035999,48.9434919 C68.0561026,49.4944886 67.9468589,50.0264853 67.8518644,50.5584821 C67.5396174,52.3457613 67.1800954,54.1244574 66.7736764,55.8926999 C66.6026863,56.6194455 66.3936983,57.3271913 66.1752109,58.0064372 C66.0327191,58.4291846 65.8284809,58.7759325 65.6717399,59.1796801 C65.5339978,59.521678 65.4342535,59.9159256 65.2917618,60.2579236 C65.0685246,60.7994203 64.8262886,61.3124172 64.5888022,61.839664 C64.541305,61.9489133 64.4843082,62.0486627 64.4273115,62.1531621 C64.0948307,62.8181581 63.7623498,63.4831541 63.4393684,64.1624 C63.2968766,64.4473983 63.1971323,64.7988961 63.0498908,65.0696445 C62.8456526,65.4448922 62.6224154,65.7821402 62.403928,66.1146382 C62.0669337,66.6102889 61.7185273,67.0980829 61.3589882,67.5776293 C61.0740046,67.967127 60.7652723,68.3186249 60.4660396,68.6938726 C60.1383084,69.1023701 59.8200768,69.5346175 59.4875959,69.9288651 C59.1313664,70.3563626 58.7703872,70.77436 58.3951588,71.1638577 C58.1576725,71.4156062 57.9106867,71.6388548 57.6542015,71.8288537 C57.4024659,72.0141026 57.1317315,72.1376018 56.8704966,72.3038508 C56.690007,72.4131001 56.5000179,72.5175995 56.3385272,72.6885985 C56.1247895,72.9118471 56.0915414,73.4580938 56.1912857,73.9805907 C56.3527764,74.8213356 56.4952682,75.6668305 56.6472594,76.5123254 C56.6615086,76.578825 56.6947567,76.6358246 56.7042561,76.7023242 C56.7470037,76.9968225 56.8087501,77.2865707 56.8182496,77.5810689 C56.827749,77.9515667 57.0034889,78.1890653 57.2077272,78.1320656 C57.4452135,78.0750659 57.5782058,77.8090676 57.6921993,77.5050694 C57.8230566,77.1146792 58.1104181,76.7963283 58.4854036,76.6263247 C58.7703872,76.4695756 59.06962,76.417326 59.364103,76.2938267 C59.4875959,76.246327 59.5968396,76.1275777 59.7155828,76.3413264 C59.7915784,76.4695756 59.782079,76.5075754 59.6965839,76.5930749 C59.6538363,76.6405746 59.6300877,76.749824 59.6015893,76.8305735 C59.5635915,76.9350728 59.5398429,77.068072 59.4923456,77.1250717 C59.3023566,77.3245705 59.1123675,77.4860695 58.9223784,77.6808183 C58.8796309,77.728318 58.8558823,77.8328174 58.8273839,77.908817 C58.8748812,77.9420668 58.9413774,78.0228163 58.9888746,78.0038164 C59.1428708,77.9273228 59.2865149,77.8315552 59.41635,77.7188181 C60.2475522,77.0063224 61.0787543,76.2795768 61.9052067,75.5575812 C62.0265367,75.4526424 62.1468686,75.3465549 62.2661859,75.2393331 C62.4514253,75.0683341 62.7079105,75.1585836 62.855152,75.4293319 C62.9121488,75.5338313 62.9928941,75.6003309 63.0166427,75.6288307 C62.6461641,76.1180778 62.2709357,76.6453246 61.8767084,77.1345716 C61.5252286,77.571569 61.1642494,77.9943164 60.7985204,78.3790641 C60.4711086,78.7194622 60.1220699,79.0383731 59.7535806,79.3338083 C59.4400986,79.5855568 59.1076178,79.7708057 58.7893861,79.9893044 C58.6085281,80.1109467 58.4311345,80.2376629 58.2574167,80.3693021 C58.2289184,80.388302 58.2099195,80.4690515 58.1909206,80.5213012 C58.2336681,80.545051 58.2764156,80.5973007 58.3144134,80.5878008 L59.1836134,80.2600528 L60.6987762,79.7375559 C60.9837598,79.6473065 61.2544942,79.4050579 61.5774756,79.5475571 C61.7674647,79.6235566 61.9859521,79.4193078 62.19494,79.3623082 C62.2424373,79.3528082 62.299434,79.4240578 62.3564307,79.4573076 C62.3089335,79.5333071 62.2709357,79.6140567 62.2186887,79.6710563 C62.1284439,79.7850556 62.0381991,79.9370547 61.9337051,79.9845544 C61.743716,80.0795538 61.5394778,80.0795538 61.3494887,80.1793032 C61.1594997,80.2790526 60.9837598,80.4643015 60.8032702,80.6068007 C60.7319032,80.6613336 60.6555723,80.7090428 60.5752833,80.7492998 C60.1478079,80.9677985 59.7203325,81.1910471 59.2881074,81.4000459 C58.9271282,81.5710448 58.566149,81.7182939 58.2099195,81.8845429 C58.1624222,81.9082928 58.1149249,81.9795424 58.0674277,82.0270421 C58.0199304,82.0650418 57.9724331,82.1552913 57.9249359,82.1410414 C57.6732004,82.046042 57.4262146,82.1885411 57.1744791,82.1790412 C57.1507304,82.1790412 57.1269818,82.1410414 57.1032332,82.1267915 C56.8657468,81.9462926 56.6425097,81.6945441 56.3955239,81.6042946 C56.0392944,81.4760454 55.6830649,81.5235451 55.3648333,81.9605425 C55.0640523,82.3837554 54.7339261,82.7853239 54.3768901,83.1622852 C54.2153994,83.3285342 54.0064115,83.3522841 53.8116727,83.4092837 C53.7166781,83.4425335 53.6216836,83.4140337 53.5029404,83.3522841 C53.6644312,83.1907851 53.8211721,83.0102861 53.9874126,82.863037 C54.2486475,82.6397884 54.4291371,82.3452902 54.4813841,81.7800436 C54.5216761,81.4744754 54.6200196,81.1794298 54.7711174,80.9107988 C54.9827856,80.5238931 55.219179,80.1510386 55.4788267,79.7945556 C55.7305622,79.4383077 55.611819,78.9965604 55.5738212,78.6023128 C55.529937,78.2220217 55.4568928,77.8456658 55.3553338,77.4765696 C55.2935874,77.234321 55.1938431,77.0205723 55.108348,76.7973237 C55.0940988,76.7593239 55.0608508,76.7023242 55.0513513,76.7023242 C54.8613622,76.7640739 54.8851109,76.4648257 54.8186147,76.2938267 C54.75871,76.1122834 54.6634688,75.9443921 54.5383808,75.7998297 C54.3246431,75.576581 54.2866453,75.419832 54.3483918,74.9923346 C54.3816399,74.750086 54.3721404,74.4840876 54.3721404,74.2228392 C54.3721404,74.1753395 54.343642,74.09459 54.3198934,74.08509 C53.9636639,73.9758407 53.6074344,73.7763419 53.2512049,73.7905918 C52.8712268,73.8048417 52.4912487,74.0138405 52.12077,74.1515896 C51.6284171,74.3805458 51.2031706,74.7322101 50.8858411,75.1728335 C50.7813471,75.2963327 50.7243504,75.5575812 50.662604,75.7713299 C50.5913581,76.0183284 50.5343614,76.2843268 50.4726149,76.5408252 C50.3586215,77.0015724 50.2256291,77.4433198 50.1353843,77.9183169 C50.0424125,78.3748528 49.9758061,78.8363639 49.9358958,79.3005585 C49.8836488,79.9988043 49.9168969,80.7302999 49.8171526,81.4000459 C49.7316576,81.9890423 49.7174084,82.5732888 49.68891,83.1575353 C49.6651614,83.6325324 49.7601559,83.860531 50.0118914,83.8367811 C50.4773646,83.7987814 50.9475876,83.7417817 51.408311,83.6372824 C51.7122935,83.5707828 52.0115263,83.4092837 52.3107591,83.3047844 C52.4057536,83.2667846 52.6622388,83.6562822 52.6527394,83.8272812 C52.6527394,83.8937808 52.6052421,83.9840303 52.5672443,84.0030301 C52.2965099,84.1597792 52.016276,84.2927784 51.7455416,84.4495274 C51.3988116,84.6490262 51.0568313,84.862775 50.7101012,85.0670237 C50.6388553,85.1050235 50.55811,85.1145234 50.4916138,85.181023 C50.4298674,85.2380227 50.3776204,85.3425221 50.3206237,85.4280215 C50.3776204,85.523021 50.4298674,85.6987699 50.4916138,85.7130198 C50.7196007,85.7510196 50.957087,85.7605195 51.1850739,85.7510196 C51.3655635,85.7367697 51.5460531,85.6417702 51.7265427,85.6275203 C51.8310367,85.6180204 51.9402804,85.7272697 52.0447744,85.7130198 C52.2062651,85.6940199 52.3630061,85.5990205 52.5244968,85.5705207 C52.6194913,85.5515208 52.7334847,85.5372709 52.7952312,85.6227704 C52.9709711,85.8697689 53.1419612,85.855519 53.3509492,85.8080192 C53.7594257,85.7130198 54.1774016,85.7130198 54.5953776,85.67977 C54.8851109,85.6560202 55.1748442,85.6322703 55.4693272,85.6322703 C55.5168245,85.6275203 55.5643218,85.7177698 55.5975699,85.7557696 L55.8065578,85.7272697 L55.8350562,85.855519 C55.6260682,86.0740176 55.4265797,86.3542659 55.2033426,86.4967651 C54.2248989,87.1142614 53.2084574,87.4277595 52.173017,87.4325094 C52.0542739,87.4325094 51.9355307,87.4610093 51.8215372,87.4800091 C51.8072881,87.4800091 51.7882892,87.499009 51.7075438,87.5417588 C51.8357864,87.6035084 51.9022826,87.6510081 51.9782782,87.670008 C52.225264,87.7412576 52.486499,87.7460075 52.7192356,87.8885067 C53.0659656,88.1022554 53.3936967,88.4110035 53.7261776,88.6817519 C53.7499262,88.7007518 53.7831743,88.7672514 53.7784246,88.8005012 C53.7784246,88.8527509 53.7451765,88.9287504 53.7214279,88.9430003 C53.6478804,88.9804965 53.5664949,89 53.4839415,89 C53.0612159,88.9762501 52.6432399,88.99525 52.2300137,88.8955006 C51.8357864,88.8005012 51.4558083,88.5725025 51.0710805,88.4205035 C50.9760859,88.3730038 50.8620925,88.4062536 50.767098,88.3587538 C50.2256291,88.1022554 49.6841603,87.8267571 49.1426915,87.5607587 C49.1094434,87.5417588 49.0619461,87.4942591 49.0429472,87.5132589 C48.8767068,87.7365076 48.8054609,87.4657592 48.7294653,87.3042602 C48.5409979,86.9183291 48.3636023,86.5270883 48.1974959,86.1310173 C48.1594981,86.0312679 48.1642478,85.8650189 48.1452489,85.7272697 C48.1120008,85.4945211 48.021756,85.4612713 47.9125123,85.523021 C47.6607768,85.6702701 47.413791,85.8270191 47.1620555,85.9647683 C47.0908096,86.007518 47.0053145,86.0312679 46.9340686,86.012268 C46.6648634,85.9359675 46.4013885,85.8407307 46.145614,85.7272697 C46.0648687,85.68452 45.9936228,85.5420209 45.9271266,85.4232716 C45.9176271,85.3995217 45.955625,85.2237728 45.988873,85.1952729 C46.3118544,84.9340245 46.6443353,84.7107759 46.962567,84.4305276 C47.2626984,84.1590141 47.5436083,83.8669797 47.8032686,83.5565328 C48.0298028,83.3253306 48.170567,83.0236776 48.2022456,82.701538 C48.230744,82.4212897 48.2592423,82.1457914 48.2639921,81.870293 C48.2639921,81.3667961 48.2259942,80.8632991 48.2497429,80.3693021 C48.2633355,80.0067496 48.1831738,79.6468213 48.0170063,79.3243084 C47.8412664,78.9348108 47.8745145,78.3363144 48.1309997,78.1985652 C48.4824795,78.0133163 48.5347265,77.5050694 48.5489757,77.0348222 C48.5679746,76.0373283 48.5204773,75.0303343 48.5204773,74.0280904 C48.5204773,73.6623426 48.5679746,73.2918448 48.7912117,73.101846 C48.9289538,72.9830967 48.8672073,72.8548475 48.7769625,72.7788479 C48.420733,72.4938497 48.0645035,72.2183513 47.7130238,71.9286031 C47.6180293,71.8526035 47.5230347,71.7386042 47.4327899,71.6436048 C47.4090413,71.615105 47.3900424,71.5723552 47.3662937,71.5581053 C47.0575615,71.3443566 46.7583287,71.0831082 46.4400971,70.940609 C46.093367,70.7933599 45.7276381,70.7553602 45.3666589,70.6841106 C44.9961802,70.608111 44.6257015,70.5606113 44.2552229,70.4846118 C44.1697278,70.4656119 44.0889824,70.3421127 44.0034873,70.3278627 C43.7418266,70.2764472 43.4766844,70.244692 43.210283,70.2328633 C42.8018065,70.2233634 42.3980798,70.2376133 41.9896033,70.2423633 L41.9088579,70.2471132 C41.5763771,70.3753624 41.2391465,70.5083616 40.9019159,70.622361 C40.673929,70.6983605 40.4411924,70.7363603 40.2132056,70.78861 C39.7857302,70.8883594 39.3582548,70.9691089 38.9307794,71.0926081 C38.5128034,71.2113574 38.0900778,71.3776064 37.6721018,71.5106056 C37.6103554,71.5296055 37.5438592,71.5106056 37.4821128,71.5201055 C37.1971292,71.5486054 36.9026461,71.5581053 36.6129128,71.6198549 C36.379332,71.6715102 36.1528639,71.7512567 35.9384517,71.8573535 C35.8434571,71.9048532 35.7484626,72.0378524 35.6582178,72.1423518 C35.2307424,72.6125989 34.7985173,73.0780961 34.3757916,73.5673432 C34.2712976,73.6860925 34.2000517,73.8998412 34.1003075,74.0470903 C34.0019946,74.2040953 33.883862,74.3477774 33.7488277,74.4745877 C33.5825873,74.6170868 33.397348,74.7025863 33.2263578,74.8308355 C32.9888715,75.0018345 32.7656343,75.1918334 32.5328977,75.3723323 C32.4905897,75.4071762 32.439769,75.4301286 32.3856562,75.4388319 C32.3286595,75.4435818 32.266913,75.419832 32.2099163,75.4055821 C31.8774355,75.3485824 31.763442,75.1538336 31.7016956,74.5410873 C31.6950472,74.4491652 31.7079989,74.3568793 31.7396934,74.2703389 C31.9866792,73.6670926 32.2431644,73.0638462 32.4948999,72.4653498 L32.8083819,71.7101044 C32.822631,71.6721046 32.8368802,71.6246049 32.8558791,71.5961051 C33.0696168,71.2446072 33.2833545,70.9073592 33.4923425,70.5511114 C33.5778376,70.3991123 33.6253348,70.1806136 33.7108299,70.0286145 C33.8438222,69.7768661 33.9958135,69.5583674 34.1335556,69.3208688 C34.2285501,69.1641198 34.3235446,69.0026207 34.4090397,68.8268718 C34.7652692,68.1048762 35.1262484,67.3781306 35.4777282,66.641885 C35.5727227,66.4423862 35.6439686,66.2048876 35.724714,65.986389 C35.7437129,65.9388892 35.7484626,65.8581397 35.7722112,65.8438898 C36.1426899,65.5778914 36.2329347,64.8938956 36.4276735,64.3808987 C36.6841587,63.7016528 36.888397,62.9416573 37.1258833,62.2339116 C37.2826243,61.7684144 37.4678636,61.340917 37.6293543,60.8849198 C38.0093324,59.854176 38.3750614,58.8139323 38.74554,57.7784385 L39.2205127,56.4579465 C39.2442613,56.377197 39.2347619,56.2584477 39.2395116,56.2204479 L39.2395116,56.2251979 Z" id="Path"></path>
                </g>
            </g>
        </g>
    </g>
</svg>