<?xml version="1.0" encoding="UTF-8"?>
<svg width="3300px" height="2200px" viewBox="0 0 3300 2200" version="1.1" xmlns="http://www.w3.org/2000/svg" xmlns:xlink="http://www.w3.org/1999/xlink">
    <!-- Generator: Sketch 59.1 (86144) - https://sketch.com -->
    <title>filter</title>
    <desc>Created with Sketch.</desc>
    <g id="Page-1" stroke="none" stroke-width="1" fill="none" fill-rule="evenodd">
        <g id="filter">
            <g id="Notes">
                <rect id="artboard" fill="#FFFFFF" fill-rule="nonzero" x="0" y="0" width="3300" height="2200"></rect>
                <line x1="263" y1="292" x2="3036" y2="292" id="Path" stroke="#000000" stroke-width="0.5"></line>
                <text id="Weight/Scale-Variations" fill="#000000" font-family="Helvetica-Bold, Helvetica" font-size="13" font-weight="bold">
                    <tspan x="263" y="322">Weight/Scale Variations</tspan>
                </text>
                <text id="Ultralight" fill="#000000" font-family="Helvetica" font-size="13" font-weight="normal">
                    <tspan x="533.711" y="322">Ultralight</tspan>
                </text>
                <text id="Thin" fill="#000000" font-family="Helvetica" font-size="13" font-weight="normal">
                    <tspan x="843.422" y="322">Thin</tspan>
                </text>
                <text id="Light" fill="#000000" font-family="Helvetica" font-size="13" font-weight="normal">
                    <tspan x="1138.63" y="322">Light</tspan>
                </text>
                <text id="Regular" fill="#000000" font-family="Helvetica" font-size="13" font-weight="normal">
                    <tspan x="1426.84" y="322">Regular</tspan>
                </text>
                <text id="Medium" fill="#000000" font-family="Helvetica" font-size="13" font-weight="normal">
                    <tspan x="1723.06" y="322">Medium</tspan>
                </text>
                <text id="Semibold" fill="#000000" font-family="Helvetica" font-size="13" font-weight="normal">
                    <tspan x="2015.77" y="322">Semibold</tspan>
                </text>
                <text id="Bold" fill="#000000" font-family="Helvetica" font-size="13" font-weight="normal">
                    <tspan x="2326.48" y="322">Bold</tspan>
                </text>
                <text id="Heavy" fill="#000000" font-family="Helvetica" font-size="13" font-weight="normal">
                    <tspan x="2618.19" y="322">Heavy</tspan>
                </text>
                <text id="Black" fill="#000000" font-family="Helvetica" font-size="13" font-weight="normal">
                    <tspan x="2917.4" y="322">Black</tspan>
                </text>
                <line x1="263" y1="1903" x2="3036" y2="1903" id="Path" stroke="#000000" stroke-width="0.5"></line>
                <g id="Group" transform="translate(264.000000, 1918.000000)" fill="#000000" fill-rule="nonzero">
                    <path d="M8.24805,15.830078 C12.5547,15.830078 16.1387,12.25586 16.1387,7.94922 C16.1387,3.6426 12.5449,0.0684 8.23828,0.0684 C3.94141,0.0684 0.36719,3.6426 0.36719,7.94922 C0.36719,12.25586 3.95117,15.830078 8.24805,15.830078 Z M8.24805,14.345703 C4.70312,14.345703 1.87109,11.50391 1.87109,7.94922 C1.87109,4.3945 4.69336,1.5527 8.23828,1.5527 C11.793,1.5527 14.6348,4.3945 14.6445503,7.94922 C14.6543,11.50391 11.8027,14.345703 8.24805,14.345703 Z M8.22852,11.57227 C8.69727,11.57227 8.9707,11.25977 8.9707,10.74219 L8.9707,8.68164 L11.1973,8.68164 C11.6953,8.68164 12.0371,8.42773 12.0371,7.95898 C12.0371,7.48047 11.7148,7.2168 11.1973,7.2168 L8.9707,7.2168 L8.9707,4.9902 C8.9707,4.4727 8.69727,4.1504 8.22852,4.1504 C7.75977,4.1504 7.50586,4.4922 7.50586,4.9902 L7.50586,7.2168 L5.29883,7.2168 C4.78125,7.2168 4.44922,7.48047 4.44922,7.95898 C4.44922,8.42773 4.80078,8.68164 5.29883,8.68164 L7.50586,8.68164 L7.50586,10.74219 C7.50586,11.24023 7.75977,11.57227 8.22852,11.57227 Z" id="Shape"></path>
                </g>
                <g id="Group" transform="translate(282.506000, 1915.000000)" fill="#000000" fill-rule="nonzero">
                    <path d="M10.709,20.91016 C16.1582,20.91016 20.6699,16.39844 20.6699,10.94922 C20.6699,5.5098 16.1484,0.9883 10.6992,0.9883 C5.25977,0.9883 0.74805,5.5098 0.74805,10.94922 C0.74805,16.39844 5.26953,20.91016 10.709,20.91016 Z M10.709,19.25 C6.09961,19.25 2.41797,15.55859 2.41797,10.94922 C2.41797,6.3496 6.08984,2.6484 10.6992,2.6484 C15.3086,2.6484 19,6.3496 19.0098379,10.94922 C19.0195,15.55859 15.3184,19.25 10.709,19.25 Z M10.6895,15.58789 C11.207,15.58789 11.5195,15.22656 11.5195,14.66016 L11.5195,11.76953 L14.5762,11.76953 C15.123,11.76953 15.5039,11.48633 15.5039,10.96875 C15.5039,10.44141 15.1426,10.13867 14.5762,10.13867 L11.5195,10.13867 L11.5195,7.0723 C11.5195,6.4961 11.207,6.1445 10.6895,6.1445 C10.1719,6.1445 9.8789,6.5156 9.8789,7.0723 L9.8789,10.13867 L6.83203,10.13867 C6.26562,10.13867 5.89453,10.44141 5.89453,10.96875 C5.89453,11.48633 6.28516,11.76953 6.83203,11.76953 L9.8789,11.76953 L9.8789,14.66016 C9.8789,15.20703 10.1719,15.58789 10.6895,15.58789 Z" id="Shape"></path>
                </g>
                <g id="Group" transform="translate(306.924000, 1913.000000)" fill="#000000" fill-rule="nonzero">
                    <path d="M12.9707,25.67383 C19.9336,25.67383 25.6953,19.921875 25.6953,12.95898 C25.6953,5.9961 19.9238,0.2441 12.9609,0.2441 C6.00781,0.2441 0.25586,5.9961 0.25586,12.95898 C0.25586,19.921875 6.01758,25.67383 12.9707,25.67383 Z M12.9707,23.85742 C6.93555,23.85742 2.08203,18.99414 2.08203,12.95898 C2.08203,6.9238 6.92578,2.0605 12.9609,2.0605 C19.0059,2.0605 23.8594,6.9238 23.8691295,12.95898 C23.8789,18.99414 19.0156,23.85742 12.9707,23.85742 Z M12.9512,18.93555 C13.5176,18.93555 13.8691,18.54492 13.8691,17.93945 L13.8691,13.86719 L18.1074,13.86719 C18.6934,13.86719 19.1133,13.53516 19.1133,12.97852 C19.1133,12.40234 18.7227,12.06055 18.1074,12.06055 L13.8691,12.06055 L13.8691,7.8125 C13.8691,7.1973 13.5176,6.8066 12.9512,6.8066 C12.3848,6.8066 12.0625,7.2168 12.0625,7.8125 L12.0625,12.06055 L7.83398,12.06055 C7.21875,12.06055 6.80859,12.40234 6.80859,12.97852 C6.80859,13.53516 7.23828,13.86719 7.83398,13.86719 L12.0625,13.86719 L12.0625,17.93945 C12.0625,18.52539 12.3848,18.93555 12.9512,18.93555 Z" id="Shape"></path>
                </g>
                <text id="Design-Variations" fill="#000000" font-family="Helvetica-Bold, Helvetica" font-size="13" font-weight="bold">
                    <tspan x="263" y="1953">Design Variations</tspan>
                </text>
                <text id="Symbols-are-supported-in-up-to-nine-weights-and-three-scales." fill="#000000" font-family="Helvetica" font-size="13" font-weight="normal">
                    <tspan x="263" y="1971">Symbols are supported in up to nine weights and three scales.</tspan>
                </text>
                <text id="For-optimal-layout-with-text-and-other-symbols,-vertically-align" fill="#000000" font-family="Helvetica" font-size="13" font-weight="normal">
                    <tspan x="263" y="1989">For optimal layout with text and other symbols, vertically align</tspan>
                </text>
                <text id="symbols-with-the-adjacent-text." fill="#000000" font-family="Helvetica" font-size="13" font-weight="normal">
                    <tspan x="263" y="2007">symbols with the adjacent text.</tspan>
                </text>
                <rect id="Rectangle" fill="#00AEEF" fill-rule="nonzero" opacity="0.4" x="776" y="1919" width="3" height="14"></rect>
                <g id="Group" transform="translate(779.000000, 1918.000000)" fill="#000000" fill-rule="nonzero">
                    <path d="M10.5273,15 L12.373,15 L7.17773,0.9082 L5.43945,0.9082 L0.244141,15 L2.08984,15 L3.50586,10.9668 L9.11133,10.9668 L10.5273,15 Z M6.2793,3.0469 L6.33789,3.0469 L8.59375,9.47266 L4.02344,9.47266 L6.2793,3.0469 Z" id="Shape"></path>
                </g>
                <rect id="Rectangle" fill="#00AEEF" fill-rule="nonzero" opacity="0.4" x="791.617" y="1919" width="3" height="14"></rect>
                <text id="Margins" fill="#000000" font-family="Helvetica-Bold, Helvetica" font-size="13" font-weight="bold">
                    <tspan x="776" y="1953">Margins</tspan>
                </text>
                <text id="Leading-and-trailing-margins-on-the-left-and-right-side-of-each-symbol" fill="#000000" font-family="Helvetica" font-size="13" font-weight="normal">
                    <tspan x="776" y="1971">Leading and trailing margins on the left and right side of each symbol</tspan>
                </text>
                <text id="can-be-adjusted-by-modifying-the-width-of-the-blue-rectangles." fill="#000000" font-family="Helvetica" font-size="13" font-weight="normal">
                    <tspan x="776" y="1989">can be adjusted by modifying the width of the blue rectangles.</tspan>
                </text>
                <text id="Modifications-are-automatically-applied-proportionally-to-all" fill="#000000" font-family="Helvetica" font-size="13" font-weight="normal">
                    <tspan x="776" y="2007">Modifications are automatically applied proportionally to all</tspan>
                </text>
                <text id="scales-and-weights." fill="#000000" font-family="Helvetica" font-size="13" font-weight="normal">
                    <tspan x="776" y="2025">scales and weights.</tspan>
                </text>
                <g id="Group" transform="translate(1291.000000, 1915.000000)" fill="#000000" fill-rule="nonzero">
                    <path d="M0.83203,21.11523 L2.375,22.6582 C3.22461,23.48828 4.19141,23.41992 5.06055,22.46289 L15.2754,11.33984 C15.7051,11.63281 16.0957,11.62305 16.5645,11.52539 L17.6094,11.31055 L18.3027,12.00391 L18.2539,12.52148 C18.1855,13.04883 18.3516,13.46875 18.8496,13.9668 L19.6602,14.77734 C20.168,15.28516 20.8223,15.31445 21.3008,14.83594 L24.5527,11.58398 C25.0312,11.10547 25.0117,10.45117 24.5039,9.94336 L23.6836,9.12305 C23.1855,8.625 22.7754,8.44922 22.2383,8.52734 L21.7109,8.58594 L21.0566,7.9219 L21.3398,6.7793 C21.4863,6.2129 21.3398,5.7441 20.7148,5.1387 L18.3027,2.7461 C14.7578,-0.7793 10.2266,-0.6719 7.11133,2.4629 C6.69141,2.8926 6.64258,3.4785 6.91602,3.9082 C7.15039,4.2793 7.62891,4.5039 8.2734,4.3379 C9.7871,3.957 11.3008,4.0742 12.7852,5.0801 L12.1602,6.6621 C11.9258,7.248 11.9453,7.7266 12.1797,8.16602 L1.01758,18.439453 C0.08008,19.30859 -0.02734,20.25586 0.83203,21.11523 Z M8.6738,2.8535 C11.3398,0.8613 14.6504,1.1738 17.0527,3.5859 L19.6797,6.1934 C19.9141,6.4277 19.9434,6.6133 19.8848,6.9062 L19.5039,8.46875 L21.0762,10.04102 L22.043,9.95312 C22.3262,9.92383 22.4141,9.94336 22.6387,10.16797 L23.2637,10.79297 L20.5098,13.53711 L19.8848,12.92188 C19.6602,12.69727 19.6406,12.59961 19.6699,12.31641 L19.7578,11.35938 L18.1953,9.79688 L16.5742,10.10938 C16.291,10.16797 16.1445,10.16797 15.9102,9.92383 L13.7324,7.7461 C13.5078,7.5117 13.4785,7.375 13.6055,7.0527 L14.5527,4.7773 C12.9512,3.2441 10.8418,2.3945 8.8008,3.0488 C8.7129,3.0781 8.6445,3.0586 8.6152,3.0195 C8.5859,2.9707 8.5859,2.9219 8.6738,2.8535 Z M2.10156,20.41211 C1.61328,19.91406 1.78906,19.61133 2.12109,19.30859 L13.0781,9.19141 L14.3086,10.42188 L4.15234,21.34961 C3.84961,21.68164 3.46875,21.7793 3.06836,21.37891 L2.10156,20.41211 Z" id="Shape"></path>
                </g>
                <text id="Exporting" fill="#000000" font-family="Helvetica-Bold, Helvetica" font-size="13" font-weight="bold">
                    <tspan x="1289" y="1953">Exporting</tspan>
                </text>
                <text id="Symbols-should-be-outlined-when-exporting-to-ensure-the" fill="#000000" font-family="Helvetica" font-size="13" font-weight="normal">
                    <tspan x="1289" y="1971">Symbols should be outlined when exporting to ensure the</tspan>
                </text>
                <text id="design-is-preserved-when-submitting-to-Xcode." fill="#000000" font-family="Helvetica" font-size="13" font-weight="normal">
                    <tspan x="1289" y="1989">design is preserved when submitting to Xcode.</tspan>
                </text>
                <text id="Template-v.1.0" fill="#000000" font-family="Helvetica" font-size="13" font-weight="normal">
                    <tspan x="2952" y="1933">Template v.1.0</tspan>
                </text>
                <text id="Generated-from-circle" fill="#000000" font-family="Helvetica" font-size="13" font-weight="normal">
                    <tspan x="2911" y="1951">Generated from circle</tspan>
                </text>
                <text id="Typeset-at-100-points" fill="#000000" font-family="Helvetica" font-size="13" font-weight="normal">
                    <tspan x="2912" y="1969">Typeset at 100 points</tspan>
                </text>
                <text id="Small" fill="#000000" font-family="Helvetica" font-size="13" font-weight="normal">
                    <tspan x="263" y="726">Small</tspan>
                </text>
                <text id="Medium" fill="#000000" font-family="Helvetica" font-size="13" font-weight="normal">
                    <tspan x="263" y="1156">Medium</tspan>
                </text>
                <text id="Large" fill="#000000" font-family="Helvetica" font-size="13" font-weight="normal">
                    <tspan x="263" y="1586">Large</tspan>
                </text>
            </g>
            <g id="Guides" transform="translate(263.000000, 625.000000)">
                <g id="H-reference" transform="translate(76.000000, 0.000000)" fill="#27AAE1" fill-rule="nonzero">
                    <path d="M54.9316,71 L57.666,71 L30.5664,0.541 L28.0762,0.541 L0.976562,71 L3.66211,71 L12.9395,46.5371 L45.7031,46.5371 L54.9316,71 Z M29.1992,3.9102 L29.4434,3.9102 L44.8242,44.291 L13.8184,44.291 L29.1992,3.9102 Z" id="Shape"></path>
                </g>
                <line x1="0" y1="71" x2="2773" y2="71" id="Baseline-S" stroke="#27AAE1" stroke-width="0.577"></line>
                <line x1="0" y1="0.541" x2="2773" y2="0.541" id="Capline-S" stroke="#27AAE1" stroke-width="0.577"></line>
                <g id="H-reference" transform="translate(76.000000, 430.000000)" fill="#27AAE1" fill-rule="nonzero">
                    <path d="M54.9316,71 L57.666,71 L30.5664,0.541 L28.0762,0.541 L0.976562,71 L3.66211,71 L12.9395,46.5371 L45.7031,46.5371 L54.9316,71 Z M29.1992,3.9102 L29.4434,3.9102 L44.8242,44.291 L13.8184,44.291 L29.1992,3.9102 Z" id="Shape"></path>
                </g>
                <line x1="0" y1="501" x2="2773" y2="501" id="Baseline-M" stroke="#27AAE1" stroke-width="0.577"></line>
                <line x1="0" y1="430.54" x2="2773" y2="430.54" id="Capline-M" stroke="#27AAE1" stroke-width="0.577"></line>
                <g id="H-reference" transform="translate(76.000000, 860.000000)" fill="#27AAE1" fill-rule="nonzero">
                    <path d="M54.9316,71 L57.666,71 L30.5664,0.541 L28.0762,0.541 L0.976562,71 L3.66211,71 L12.9395,46.5371 L45.7031,46.5371 L54.9316,71 Z M29.1992,3.9102 L29.4434,3.9102 L44.8242,44.291 L13.8184,44.291 L29.1992,3.9102 Z" id="Shape"></path>
                </g>
                <line x1="0" y1="931" x2="2773" y2="931" id="Baseline-L" stroke="#27AAE1" stroke-width="0.577"></line>
                <line x1="0" y1="860.54" x2="2773" y2="860.54" id="Capline-L" stroke="#27AAE1" stroke-width="0.577"></line>
                <rect id="left-margin" fill="#00AEEF" fill-rule="nonzero" opacity="0.4" x="1128.3" y="405.79" width="8.74023" height="119.336"></rect>
                <rect id="right-margin" fill="#00AEEF" fill-rule="nonzero" opacity="0.4" x="1236.65" y="405.79" width="8.74023" height="119.336"></rect>
            </g>
            <g id="Symbols" transform="translate(1399.000000, 1040.000000)" fill="#000000" fill-rule="nonzero">
                <g id="Regular-M" transform="translate(0.300000, 0.000000)">
                    <path d="M50.5449,100.5508 C77.791,100.5508 100.35,77.99219 100.35,50.7461 C100.35,23.5488 77.7422,0.9414 50.4961,0.9414 C23.2988,0.9414 0.74023,23.5488 0.74023,50.7461 C0.74023,77.99219 23.3477,100.5508 50.5449,100.5508 Z M50.1551,92.0078 C27.1082,92.0078 8.7,73.5508 8.7,50.5039 C8.7,27.5058 27.0594,9 50.1063,9 C73.1532,9 91.6102,27.5058 91.6593938,50.5039 C91.7082,73.5508 73.202,92.0078 50.1551,92.0078 Z" id="Shape"></path>
                    <path d="M39.0697929,39.5703937 C38.9419153,39.3806475 38.8470384,39.1702767 38.682035,39.0135298 C38.2984021,38.6546619 38.1375238,38.2132957 37.9725205,37.7760544 C37.7745164,37.2563147 37.560012,36.736575 37.4445097,36.2085855 C37.3496327,35.7672193 36.9701249,35.4908498 36.7473704,35.1319819 C36.5451639,34.7935946 36.310287,34.4758328 36.046106,34.1832508 C35.8769776,33.9893797 35.5923467,33.8780069 35.3860925,33.7047603 C35.1309899,33.4964137 34.8961874,33.264383 34.6848281,33.0117741 C34.5858261,32.8880266 34.5940763,32.7312797 34.8828322,32.6859056 C35.5180952,32.5951574 35.947104,32.9004013 36.3843629,33.1850206 C36.6731189,33.370642 36.9329992,33.5851377 37.1846293,33.8037583 C37.4403846,34.022379 37.6425137,34.2946236 37.9188944,34.4884947 C38.3809038,34.8184882 38.5912831,35.2681042 38.8470384,35.6970957 C38.8882892,35.7589695 38.925415,35.8249682 38.9419153,35.8950918 C39.0656678,36.3900819 39.1605448,36.8974468 39.3090478,37.3883121 C39.4121749,37.7348052 39.5813034,38.0647986 39.7339315,38.4030419 C39.758682,38.4525409 39.8411837,38.4814154 39.8989349,38.5185396 C39.9236854,38.4690406 39.9690613,38.4195416 39.9731864,38.3659176 L40.2248166,36.3117085 C40.2619423,36.0229642 40.3073183,35.7300951 40.3691945,35.4454757 C40.3774447,35.3877269 40.4599464,35.3464777 40.5053223,35.2969787 C40.5589484,35.3382278 40.6290749,35.379477 40.6620755,35.428976 C41.0044575,35.932216 41.025083,36.484955 41.0292081,37.0459439 C41.0292081,37.4089367 41.0044575,37.7760544 41.0787091,38.1266724 C41.223087,38.8237835 41.4252162,39.5126449 41.6190951,40.2015062 C41.6644711,40.362378 41.7758483,40.5026252 41.8996009,40.7377455 L42.0728544,40.358253 C42.0852297,40.3293786 42.0728544,40.2963793 42.0811046,40.2675048 C42.3162344,39.6487671 42.3162344,38.9681557 42.7699937,38.398917 C42.8731208,38.2669196 42.8854961,38.0812983 42.9432472,37.9204265 C42.9844981,37.8008039 43.0092486,37.6729314 43.0917503,37.5739334 C43.7888896,36.7324501 44.4984041,35.9033416 45.1955434,35.0577334 C45.2615447,34.97936 45.2491695,34.8514875 45.2780451,34.7483646 C45.2862952,34.6988656 45.27392,34.6369918 45.3027956,34.5998675 C45.859682,33.9192561 46.400068,33.2262698 46.98583,32.5662829 C47.5633418,31.9062961 47.9882255,31.2009351 48.3058571,30.4295754 C48.5616123,29.7943381 48.891619,29.1838502 49.1556245,28.5568627 C49.2711268,28.2846181 49.279377,27.9793741 49.3701288,27.7030046 C49.4361302,27.5173833 49.5887583,27.3565115 49.67126,27.17914 C49.7743871,26.9646443 49.8362634,26.7418987 49.9352654,26.527403 C49.9765163,26.4449046 50.1002688,26.3830309 50.1456447,26.2964076 C50.3725244,25.8674161 50.5870288,25.4301748 50.8056582,24.9929335 C50.8386589,24.9269348 50.8675345,24.8485614 50.9294108,24.8073122 C51.3542945,24.5185679 51.4532965,24.1349506 51.4409212,23.7018342 C51.4244209,23.1820945 51.4821721,22.654105 51.4120457,22.1426152 C51.3082178,21.4861286 51.0663976,20.8591085 50.7025311,20.3029018 C50.2116461,19.5109175 49.4237549,18.9458037 48.7224906,18.3105664 C48.6482391,18.2445677 48.6317387,18.12907 48.5863628,18.0383218 C48.7059902,18.025947 48.8338679,17.9805729 48.936995,18.0094473 C49.4320051,18.1661942 49.9600159,18.2940667 50.405525,18.529187 C50.8221586,18.7519326 51.2016663,19.0613014 51.5069226,19.3912949 C51.9441815,19.8574106 52.3195642,20.3689004 52.6743215,20.8845152 C52.9259517,21.247508 53.1033303,21.6517499 53.3137096,22.0394922 C53.3384601,22.0807414 53.3673357,22.1426152 53.4127116,22.1632398 C53.8912214,22.4107348 54.361481,22.6829794 54.8606163,22.8892253 C55.2524993,23.0542221 55.6815081,23.1655948 56.1022667,23.260468 C56.7870307,23.4172148 57.5212957,23.4667139 58.1648089,23.7018342 C58.754696,23.912205 59.2620814,24.2958224 59.7942173,24.6216909 C60.1943505,24.869186 60.561483,25.1496804 60.9574911,25.4054253 C61.2173714,25.5745469 61.5102524,25.7189191 61.7660077,25.8921656 C62.0052626,26.0571624 62.2115168,26.2427837 62.4342713,26.4201551 C63.2015371,27.0471427 63.8079245,27.7813781 64.3606858,28.5444879 C64.7236932,29.0394781 64.9505729,29.6087167 65.2393288,30.1449561 C65.4497081,30.5368233 65.7054633,30.9121908 65.8622165,31.3164328 C66.1509724,32.058918 66.3572267,32.8220279 66.2664748,33.6140121 C66.2499745,33.7253849 66.2788501,33.8408826 66.2871002,33.9563803 C66.3159758,34.4884947 66.373727,35.0164842 66.373727,35.5485987 C66.373727,36.1590865 66.2871002,36.7695744 66.2994755,37.3800622 C66.3118507,37.8668026 66.4191029,38.349418 66.4851043,38.8361583 C66.5552307,39.3476481 66.6707331,39.859138 66.6913585,40.3706278 C66.716109,41.0306147 66.6831083,41.6947265 66.6501077,42.3547133 C66.617107,43.0188251 66.567606,43.6829369 66.5057297,44.3429238 C66.4438534,45.0565346 66.3819772,45.7701454 66.2871002,46.4796313 C66.1674728,47.3376143 65.9942192,48.1873474 65.882842,49.0453303 C65.787965,49.767191 65.7920901,50.4973015 65.6765877,51.2150372 C65.5982111,51.7389018 65.4125823,52.2503916 65.2640793,52.7660064 C65.1650773,53.0918749 65.0495749,53.4136185 64.9423227,53.7353621 C64.8061949,54.1354791 64.661817,54.5355962 64.5298143,54.9398381 C64.3854363,55.3688296 64.2534336,55.801946 64.1173058,56.2350624 C63.9028014,56.9197988 63.7171726,57.6169099 63.4655425,58.2975214 C63.246913,58.8750099 62.954032,59.4359988 62.6941517,60.0052374 C62.4218961,60.5951007 62.1166398,61.1725892 61.8980104,61.7707023 C61.6017046,62.5949765 61.2142973,63.3835953 60.7429867,64.1219056 C60.7025936,64.1833335 60.6706797,64.2499338 60.6481098,64.3199017 C60.4430216,65.0868245 60.0013213,65.7695558 59.3858339,66.2709879 C59.2332058,66.3906105 58.9320746,66.4318597 58.705195,66.41536 C58.4576899,66.3988603 58.3793133,66.2008643 58.3215621,65.9946184 C58.1387094,65.3949532 58.1287011,64.7558764 58.2926865,64.15078 C58.3875635,63.8207866 58.5814425,63.5072928 58.705195,63.1855492 C58.8413228,62.8225564 58.9609502,62.4595637 59.0764526,62.0965709 C59.2084553,61.6675794 59.3239577,61.2385879 59.4477102,60.8137214 L59.3445831,60.7724722 C59.2703316,60.8549706 59.1754546,60.933344 59.1259536,61.0282171 C58.7794465,61.7088286 58.4370645,62.393565 58.1029327,63.0824263 C57.7399252,63.8331613 57.4429191,64.6086459 57.0015351,65.3263817 C56.6756534,65.8543712 56.5519009,66.4318597 56.3002707,66.9763489 C56.1063918,67.3888407 56.0610158,67.8467066 55.920763,68.2798229 C55.7475094,68.832562 55.5495054,69.381176 55.3556264,69.9297901 C55.335001,69.987539 55.2937501,70.0411629 55.2813749,70.0947869 C55.1741227,70.5485278 55.091621,71.0063937 54.9596183,71.4560098 C54.7946149,72.0293734 54.5924858,72.5986121 54.3944817,73.1678508 C54.2831044,73.4813445 54.1222261,73.7865885 54.014974,74.1000822 C53.9489726,74.2980783 53.9737231,74.5208239 53.8912214,74.7105701 C53.7055926,75.1230619 53.4663377,75.5231789 53.2724587,75.9315458 C52.9342018,76.6451566 52.5093181,77.3381429 52.3154392,78.0765032 C52.0926846,78.9262363 51.7998036,79.7677196 51.8245541,80.6669517 C51.8410544,81.1866913 51.6595507,81.7105559 51.5357982,82.2261707 C51.5110477,82.3334185 51.3501694,82.4200418 51.2552924,82.5149149 C51.1439152,82.4324166 51.0407881,82.3457933 50.9252857,82.2674199 C50.6117793,82.061174 50.698406,81.7311805 50.5540281,81.4878104 C50.3230234,81.0876933 50.5540281,80.7040759 50.4797766,80.3245835 C50.4067082,79.9465203 50.3158555,79.5721121 50.207521,79.2026058 C50.1662701,79.0706084 50.2198962,78.8932369 49.9352654,78.8354881 C49.4815061,78.740615 49.3247529,78.7282402 49.0896231,79.0664835 C48.7301887,79.5755012 48.3996603,80.1043253 48.0996028,80.650452 C47.8397225,81.1124428 47.4808402,81.50431 47.1095826,81.9003022 C46.7829298,82.1986938 46.5168252,82.5572203 46.3258165,82.9562812 C46.2309396,83.2202759 46.0123101,83.4141471 45.9256833,83.6781418 C45.8514318,83.8967625 45.6121769,84.0040103 45.3192959,84 C45.0346651,83.9916356 44.935663,83.8472635 44.8820369,83.6492674 C44.7170336,83.0470294 44.8779119,82.4942904 45.1666678,81.9291766 C45.3564217,81.557934 45.4265481,81.1330674 45.5379254,80.7329504 L46.6269477,76.8720271 C46.9280788,75.770674 47.2209598,74.6693209 47.5262161,73.5679678 C47.6004676,73.2998481 47.6912195,73.0317285 47.7778462,72.7677337 C47.7917383,72.7178008 47.8223093,72.6741297 47.864473,72.6439862 C48.2439808,72.4212406 48.2439808,72.0912472 48.2481059,71.7530039 C48.2481059,71.6581308 48.2687313,71.5632577 48.301732,71.4725095 L49.1226238,69.2203042 C49.2257509,68.93156 49.3412533,68.6469406 49.4443804,68.3623213 C49.7042607,67.6115862 50.013642,66.8732259 50.2157712,66.114241 C50.6458561,64.466275 50.5769429,62.7277219 50.0177671,61.1189653 C49.8115129,60.4837279 49.5640078,59.8567404 49.3371282,59.2297529 C49.2381261,58.9575083 49.1556245,58.6811388 49.0442472,58.4130191 C48.8355652,57.9754774 48.5259361,57.5937583 48.1408537,57.2992912 C47.4334653,56.6930914 46.7321658,56.0798228 46.0370606,55.4595778 C45.9009328,55.3358303 45.7895555,55.199708 45.6616779,55.0677106 C45.2491695,54.646969 44.8119105,54.2386021 44.4241526,53.8013608 C44.1271465,53.4713673 43.8920167,53.1042496 43.6197611,52.7618814 C43.4135069,52.5020116 43.1866272,52.2586415 42.980373,51.9946467 C42.9061215,51.8997736 42.881371,51.7719011 42.8153696,51.6687782 C42.6799402,51.4573832 42.536842,51.251 42.3863608,51.0500405 C42.2873588,50.9139182 41.9738524,50.9634172 41.8666002,51.1449136 C41.4623419,51.8214001 40.8270789,52.3370149 40.1753156,52.8443798 C39.8349842,53.1144618 39.4090562,53.2535048 38.974916,53.236247 C38.8429133,53.2321221 38.7109106,53.1413739 38.6036584,53.0712503 C38.583033,53.0547506 38.6655347,52.9186283 38.7191608,52.8526296 C39.2347963,52.2215172 39.7751824,51.6069044 40.2660674,50.9592923 C40.6911823,50.4272096 40.9081831,49.7586394 40.8765799,49.0783297 C40.8683298,48.9298326 40.9260809,48.7772107 40.9013304,48.6328385 C40.8848301,48.5338405 40.7693277,48.4472172 40.6992013,48.3523441 C40.6744508,48.3193448 40.6166996,48.2822205 40.6249498,48.2533461 C40.6909511,48.005851 40.5135725,47.8408543 40.3196935,47.7006071 C39.9319356,47.4118628 39.8741844,47.0736195 39.9401858,46.6570028 C40.0226874,46.145513 40.0350627,45.6257733 40.0391878,45.1060337 C40.0391878,44.4130474 39.9814366,43.7200612 39.9855617,43.027075 C39.9855617,42.5939586 39.6679302,42.321714 39.4080499,42.0082202 L38.7480363,41.2244858 C38.4097794,40.8284937 38.0756476,40.4366265 37.7250154,40.0530091 C37.3207571,39.6116429 36.875248,39.1950262 36.4874901,38.7454101 C36.0832318,38.2834193 35.7243494,37.796679 35.3407166,37.3181885 C35.3077159,37.2769393 35.2499647,37.24394 35.212839,37.1985659 C35.0313352,36.9840701 34.8704569,36.7530747 34.6642027,36.5592036 C34.4652782,36.370653 34.2418961,36.2097135 34.0000641,36.0807131 C33.8061852,35.9775901 33.6783075,35.8785921 33.703058,35.684721 C33.7236835,35.4908498 33.8763116,35.4207262 34.0990662,35.4042265 C34.6353271,35.3629773 35.0725861,35.5362239 35.361342,35.8992167 C35.654223,36.2663344 36.0749816,36.5055796 36.4751148,36.7654495 C37.1268781,37.190316 37.6383886,37.6729314 37.8446428,38.3741675 C37.9065191,38.5927881 38.1498991,38.7742845 38.3190276,38.9681557 C38.4757808,39.1496521 38.6449092,39.3270235 38.8140377,39.504395 C38.8552885,39.553894 38.9171648,39.5868934 38.9707909,39.6281426 L39.0697929,39.5703937 L39.0697929,39.5703937 Z" id="Path"></path>
                </g>
            </g>
        </g>
    </g>
</svg>