<?xml version="1.0" encoding="UTF-8"?>
<!--Generator: Apple Native CoreSVG 341-->
<!DOCTYPE svg
PUBLIC "-//W3C//DTD SVG 1.1//EN"
       "http://www.w3.org/Graphics/SVG/1.1/DTD/svg11.dtd">
<svg version="1.1" xmlns="http://www.w3.org/2000/svg" xmlns:xlink="http://www.w3.org/1999/xlink" viewBox="0 0 3300 2200">
 <!--glyph: "", point size: 100.0, font version: "20.0d10e1", template writer version: "138.0.0"-->
 <style>.monochrome-0 {-sfsymbols-motion-group:1;-sfsymbols-layer-tags:3b9839be99ab9a4b}
.monochrome-1 {-sfsymbols-motion-group:0;-sfsymbols-layer-tags:3b9839be99ab9a4b}

.multicolor-0:tintColor {-sfsymbols-motion-group:1;-sfsymbols-layer-tags:3b9839be99ab9a4b}
.multicolor-1:tintColor {-sfsymbols-motion-group:0;-sfsymbols-layer-tags:3b9839be99ab9a4b}

.hierarchical-0:primary {-sfsymbols-motion-group:1;-sfsymbols-layer-tags:3b9839be99ab9a4b}
.hierarchical-1:tertiary {-sfsymbols-motion-group:0;-sfsymbols-layer-tags:3b9839be99ab9a4b}

.SFSymbolsPreviewWireframe {fill:none;opacity:1.0;stroke:black;stroke-width:0.5}
</style>
 <g id="Notes">
  <rect height="2200" id="artboard" style="fill:white;opacity:1" width="3300" x="0" y="0"/>
  <line style="fill:none;stroke:black;opacity:1;stroke-width:0.5;" x1="263" x2="3036" y1="292" y2="292"/>
  <text style="stroke:none;fill:black;font-family:sans-serif;font-size:13;font-weight:bold;" transform="matrix(1 0 0 1 263 322)">Weight/Scale Variations</text>
  <text style="stroke:none;fill:black;font-family:sans-serif;font-size:13;text-anchor:middle;" transform="matrix(1 0 0 1 559.711 322)">Ultralight</text>
  <text style="stroke:none;fill:black;font-family:sans-serif;font-size:13;text-anchor:middle;" transform="matrix(1 0 0 1 856.422 322)">Thin</text>
  <text style="stroke:none;fill:black;font-family:sans-serif;font-size:13;text-anchor:middle;" transform="matrix(1 0 0 1 1153.13 322)">Light</text>
  <text style="stroke:none;fill:black;font-family:sans-serif;font-size:13;text-anchor:middle;" transform="matrix(1 0 0 1 1449.84 322)">Regular</text>
  <text style="stroke:none;fill:black;font-family:sans-serif;font-size:13;text-anchor:middle;" transform="matrix(1 0 0 1 1746.56 322)">Medium</text>
  <text style="stroke:none;fill:black;font-family:sans-serif;font-size:13;text-anchor:middle;" transform="matrix(1 0 0 1 2043.27 322)">Semibold</text>
  <text style="stroke:none;fill:black;font-family:sans-serif;font-size:13;text-anchor:middle;" transform="matrix(1 0 0 1 2339.98 322)">Bold</text>
  <text style="stroke:none;fill:black;font-family:sans-serif;font-size:13;text-anchor:middle;" transform="matrix(1 0 0 1 2636.69 322)">Heavy</text>
  <text style="stroke:none;fill:black;font-family:sans-serif;font-size:13;text-anchor:middle;" transform="matrix(1 0 0 1 2933.4 322)">Black</text>
  <line style="fill:none;stroke:black;opacity:1;stroke-width:0.5;" x1="263" x2="3036" y1="1903" y2="1903"/>
  <g transform="matrix(0.2 0 0 0.2 263 1933)">
   <path d="m46.2402 4.15039c21.7773 0 39.4531-17.627 39.4531-39.4043s-17.6758-39.4043-39.4531-39.4043c-21.7285 0-39.4043 17.627-39.4043 39.4043s17.6758 39.4043 39.4043 39.4043Zm0-7.42188c-17.6758 0-31.9336-14.3066-31.9336-31.9824s14.2578-31.9824 31.9336-31.9824 31.9824 14.3066 31.9824 31.9824-14.3066 31.9824-31.9824 31.9824Zm-17.9688-31.9824c0 2.14844 1.51367 3.61328 3.75977 3.61328h10.498v10.5957c0 2.19727 1.46484 3.71094 3.61328 3.71094 2.24609 0 3.71094-1.51367 3.71094-3.71094v-10.5957h10.5957c2.19727 0 3.71094-1.46484 3.71094-3.61328 0-2.19727-1.51367-3.71094-3.71094-3.71094h-10.5957v-10.5469c0-2.24609-1.46484-3.75977-3.71094-3.75977-2.14844 0-3.61328 1.51367-3.61328 3.75977v10.5469h-10.498c-2.24609 0-3.75977 1.51367-3.75977 3.71094Z"/>
  </g>
  <g transform="matrix(0.2 0 0 0.2 281.506 1933)">
   <path d="m58.5449 14.5508c27.4902 0 49.8047-22.3145 49.8047-49.8047s-22.3145-49.8047-49.8047-49.8047-49.8047 22.3145-49.8047 49.8047 22.3145 49.8047 49.8047 49.8047Zm0-8.30078c-22.9492 0-41.5039-18.5547-41.5039-41.5039s18.5547-41.5039 41.5039-41.5039 41.5039 18.5547 41.5039 41.5039-18.5547 41.5039-41.5039 41.5039Zm-22.6562-41.5039c0 2.39258 1.66016 4.00391 4.15039 4.00391h14.3555v14.4043c0 2.44141 1.66016 4.15039 4.05273 4.15039 2.44141 0 4.15039-1.66016 4.15039-4.15039v-14.4043h14.4043c2.44141 0 4.15039-1.61133 4.15039-4.00391 0-2.44141-1.70898-4.15039-4.15039-4.15039h-14.4043v-14.3555c0-2.49023-1.70898-4.19922-4.15039-4.19922-2.39258 0-4.05273 1.70898-4.05273 4.19922v14.3555h-14.3555c-2.49023 0-4.15039 1.70898-4.15039 4.15039Z"/>
  </g>
  <g transform="matrix(0.2 0 0 0.2 304.924 1933)">
   <path d="m74.8535 28.3203c35.1074 0 63.623-28.4668 63.623-63.5742s-28.5156-63.623-63.623-63.623-63.5742 28.5156-63.5742 63.623 28.4668 63.5742 63.5742 63.5742Zm0-9.08203c-30.127 0-54.4922-24.3652-54.4922-54.4922s24.3652-54.4922 54.4922-54.4922 54.4922 24.3652 54.4922 54.4922-24.3652 54.4922-54.4922 54.4922Zm-28.8574-54.4922c0 2.58789 1.85547 4.39453 4.58984 4.39453h19.7266v19.7754c0 2.68555 1.85547 4.58984 4.44336 4.58984 2.68555 0 4.54102-1.85547 4.54102-4.58984v-19.7754h19.7754c2.68555 0 4.58984-1.80664 4.58984-4.39453 0-2.73438-1.85547-4.58984-4.58984-4.58984h-19.7754v-19.7266c0-2.73438-1.85547-4.63867-4.54102-4.63867-2.58789 0-4.44336 1.9043-4.44336 4.63867v19.7266h-19.7266c-2.73438 0-4.58984 1.85547-4.58984 4.58984Z"/>
  </g>
  <text style="stroke:none;fill:black;font-family:sans-serif;font-size:13;font-weight:bold;" transform="matrix(1 0 0 1 263 1953)">Design Variations</text>
  <text style="stroke:none;fill:black;font-family:sans-serif;font-size:13;" transform="matrix(1 0 0 1 263 1971)">Symbols are supported in up to nine weights and three scales.</text>
  <text style="stroke:none;fill:black;font-family:sans-serif;font-size:13;" transform="matrix(1 0 0 1 263 1989)">For optimal layout with text and other symbols, vertically align</text>
  <text style="stroke:none;fill:black;font-family:sans-serif;font-size:13;" transform="matrix(1 0 0 1 263 2007)">symbols with the adjacent text.</text>
  <line style="fill:none;stroke:#00AEEF;stroke-width:0.5;opacity:1.0;" x1="776" x2="776" y1="1919" y2="1933"/>
  <g transform="matrix(0.2 0 0 0.2 776 1933)">
   <path d="m16.5527 0.78125c2.58789 0 3.85742-0.976562 4.78516-3.71094l6.29883-17.2363h28.8086l6.29883 17.2363c0.927734 2.73438 2.19727 3.71094 4.73633 3.71094 2.58789 0 4.24805-1.5625 4.24805-4.00391 0-0.830078-0.146484-1.61133-0.537109-2.63672l-22.9004-60.9863c-1.12305-2.97852-3.125-4.49219-6.25-4.49219-3.02734 0-5.07812 1.46484-6.15234 4.44336l-22.9004 61.084c-0.390625 1.02539-0.537109 1.80664-0.537109 2.63672 0 2.44141 1.5625 3.95508 4.10156 3.95508Zm13.4766-28.3691 11.8652-32.8613h0.244141l11.8652 32.8613Z"/>
  </g>
  <line style="fill:none;stroke:#00AEEF;stroke-width:0.5;opacity:1.0;" x1="792.836" x2="792.836" y1="1919" y2="1933"/>
  <text style="stroke:none;fill:black;font-family:sans-serif;font-size:13;font-weight:bold;" transform="matrix(1 0 0 1 776 1953)">Margins</text>
  <text style="stroke:none;fill:black;font-family:sans-serif;font-size:13;" transform="matrix(1 0 0 1 776 1971)">Leading and trailing margins on the left and right side of each symbol</text>
  <text style="stroke:none;fill:black;font-family:sans-serif;font-size:13;" transform="matrix(1 0 0 1 776 1989)">can be adjusted by modifying the x-location of the margin guidelines.</text>
  <text style="stroke:none;fill:black;font-family:sans-serif;font-size:13;" transform="matrix(1 0 0 1 776 2007)">Modifications are automatically applied proportionally to all</text>
  <text style="stroke:none;fill:black;font-family:sans-serif;font-size:13;" transform="matrix(1 0 0 1 776 2025)">scales and weights.</text>
  <g transform="matrix(0.2 0 0 0.2 1289 1933)">
   <path d="m14.209 9.32617 8.49609 8.54492c4.29688 4.3457 9.22852 4.05273 13.8672-1.07422l53.4668-58.9355-4.83398-4.88281-53.0762 58.3984c-1.75781 2.00195-3.41797 2.49023-5.76172 0.146484l-5.85938-5.81055c-2.34375-2.29492-1.80664-4.00391 0.195312-5.81055l57.373-54.0039-4.88281-4.83398-57.959 54.4434c-4.93164 4.58984-5.32227 9.47266-1.02539 13.8184Zm32.0801-90.9668c-2.09961 2.05078-2.24609 4.93164-1.07422 6.88477 1.17188 1.80664 3.4668 2.97852 6.68945 2.14844 7.32422-1.70898 14.9414-2.00195 22.0703 2.68555l-2.92969 7.27539c-1.70898 4.15039-0.830078 7.08008 1.85547 9.81445l11.4746 11.5723c2.44141 2.44141 4.49219 2.53906 7.32422 2.05078l5.32227-0.976562 3.32031 3.36914-0.195312 2.7832c-0.195312 2.49023 0.439453 4.39453 2.88086 6.78711l3.80859 3.71094c2.39258 2.39258 5.46875 2.53906 7.8125 0.195312l14.5508-14.5996c2.34375-2.34375 2.24609-5.32227-0.146484-7.71484l-3.85742-3.80859c-2.39258-2.39258-4.24805-3.17383-6.64062-2.97852l-2.88086 0.244141-3.22266-3.17383 1.2207-5.61523c0.634766-2.83203-0.146484-5.0293-3.07617-7.95898l-10.9863-10.9375c-16.6992-16.6016-38.8672-16.2109-53.3203-1.75781Zm7.4707 1.85547c12.1582-8.88672 28.6133-7.37305 39.7461 3.75977l12.1582 12.0605c1.17188 1.17188 1.36719 2.09961 1.02539 3.80859l-1.61133 7.42188 7.51953 7.42188 4.93164-0.292969c1.26953-0.0488281 1.66016 0.0488281 2.63672 1.02539l2.88086 2.88086-12.207 12.207-2.88086-2.88086c-0.976562-0.976562-1.12305-1.36719-1.07422-2.68555l0.341797-4.88281-7.4707-7.42188-7.61719 1.26953c-1.61133 0.341797-2.34375 0.195312-3.56445-0.976562l-10.0098-10.0098c-1.26953-1.17188-1.41602-2.00195-0.634766-3.85742l4.39453-10.4492c-7.8125-7.27539-17.9688-10.4004-28.125-7.42188-0.78125 0.195312-1.07422-0.439453-0.439453-0.976562Z"/>
  </g>
  <text style="stroke:none;fill:black;font-family:sans-serif;font-size:13;font-weight:bold;" transform="matrix(1 0 0 1 1289 1953)">Exporting</text>
  <text style="stroke:none;fill:black;font-family:sans-serif;font-size:13;" transform="matrix(1 0 0 1 1289 1971)">Symbols should be outlined when exporting to ensure the</text>
  <text style="stroke:none;fill:black;font-family:sans-serif;font-size:13;" transform="matrix(1 0 0 1 1289 1989)">design is preserved when submitting to Xcode.</text>
  <text id="template-version" style="stroke:none;fill:black;font-family:sans-serif;font-size:13;text-anchor:end;" transform="matrix(1 0 0 1 3036 1933)">Template v.6.0</text>
  <text style="stroke:none;fill:black;font-family:sans-serif;font-size:13;text-anchor:end;" transform="matrix(1 0 0 1 3036 1951)">Requires Xcode 16 or greater</text>
  <text id="descriptive-name" style="stroke:none;fill:black;font-family:sans-serif;font-size:13;text-anchor:end;" transform="matrix(1 0 0 1 3036 1969)">Generated from filterlebensraum-6</text>
  <text style="stroke:none;fill:black;font-family:sans-serif;font-size:13;text-anchor:end;" transform="matrix(1 0 0 1 3036 1987)">Typeset at 100.0 points</text>
  <text style="stroke:none;fill:black;font-family:sans-serif;font-size:13;" transform="matrix(1 0 0 1 263 726)">Small</text>
  <text style="stroke:none;fill:black;font-family:sans-serif;font-size:13;" transform="matrix(1 0 0 1 263 1156)">Medium</text>
  <text style="stroke:none;fill:black;font-family:sans-serif;font-size:13;" transform="matrix(1 0 0 1 263 1586)">Large</text>
 </g>
 <g id="Guides">
  <g id="H-reference" style="fill:#27AAE1;stroke:none;" transform="matrix(1 0 0 1 339 696)">
   <path d="M0.993654 0L3.63775 0L29.3281-67.1323L30.0303-67.1323L30.0303-70.459L28.1226-70.459ZM11.6885-24.4799L46.9815-24.4799L46.2315-26.7285L12.4385-26.7285ZM55.1196 0L57.7637 0L30.6382-70.459L29.4326-70.459L29.4326-67.1323Z"/>
  </g>
  <line id="Baseline-S" style="fill:none;stroke:#27AAE1;opacity:1;stroke-width:0.5;" x1="263" x2="3036" y1="696" y2="696"/>
  <line id="Capline-S" style="fill:none;stroke:#27AAE1;opacity:1;stroke-width:0.5;" x1="263" x2="3036" y1="625.541" y2="625.541"/>
  <g id="H-reference" style="fill:#27AAE1;stroke:none;" transform="matrix(1 0 0 1 339 1126)">
   <path d="M0.993654 0L3.63775 0L29.3281-67.1323L30.0303-67.1323L30.0303-70.459L28.1226-70.459ZM11.6885-24.4799L46.9815-24.4799L46.2315-26.7285L12.4385-26.7285ZM55.1196 0L57.7637 0L30.6382-70.459L29.4326-70.459L29.4326-67.1323Z"/>
  </g>
  <line id="Baseline-M" style="fill:none;stroke:#27AAE1;opacity:1;stroke-width:0.5;" x1="263" x2="3036" y1="1126" y2="1126"/>
  <line id="Capline-M" style="fill:none;stroke:#27AAE1;opacity:1;stroke-width:0.5;" x1="263" x2="3036" y1="1055.54" y2="1055.54"/>
  <g id="H-reference" style="fill:#27AAE1;stroke:none;" transform="matrix(1 0 0 1 339 1556)">
   <path d="M0.993654 0L3.63775 0L29.3281-67.1323L30.0303-67.1323L30.0303-70.459L28.1226-70.459ZM11.6885-24.4799L46.9815-24.4799L46.2315-26.7285L12.4385-26.7285ZM55.1196 0L57.7637 0L30.6382-70.459L29.4326-70.459L29.4326-67.1323Z"/>
  </g>
  <line id="Baseline-L" style="fill:none;stroke:#27AAE1;opacity:1;stroke-width:0.5;" x1="263" x2="3036" y1="1556" y2="1556"/>
  <line id="Capline-L" style="fill:none;stroke:#27AAE1;opacity:1;stroke-width:0.5;" x1="263" x2="3036" y1="1485.54" y2="1485.54"/>
  <line id="right-margin-Black-S" style="fill:none;stroke:#00AEEF;stroke-width:0.5;opacity:1.0;" x1="2982.23" x2="2982.23" y1="600.785" y2="720.121"/>
  <line id="left-margin-Black-S" style="fill:none;stroke:#00AEEF;stroke-width:0.5;opacity:1.0;" x1="2884.57" x2="2884.57" y1="600.785" y2="720.121"/>
  <line id="right-margin-Regular-S" style="fill:none;stroke:#00AEEF;stroke-width:0.5;opacity:1.0;" x1="1496.11" x2="1496.11" y1="600.785" y2="720.121"/>
  <line id="left-margin-Regular-S" style="fill:none;stroke:#00AEEF;stroke-width:0.5;opacity:1.0;" x1="1403.58" x2="1403.58" y1="600.785" y2="720.121"/>
  <line id="right-margin-Ultralight-S" style="fill:none;stroke:#00AEEF;stroke-width:0.5;opacity:1.0;" x1="603.773" x2="603.773" y1="600.785" y2="720.121"/>
  <line id="left-margin-Ultralight-S" style="fill:none;stroke:#00AEEF;stroke-width:0.5;opacity:1.0;" x1="515.649" x2="515.649" y1="600.785" y2="720.121"/>
 </g>
 <g id="Symbols">
  <g id="Black-S" transform="matrix(1 0 0 1 2884.57 696)">
   <path class="monochrome-0 multicolor-0:tintColor hierarchical-0:primary SFSymbolsPreviewWireframe" d="M25.6877-45.2057C25.43-46.7469 25.8166-48.1595 26.7186-49.3153C28.0071-50.9847 29.6821-52.012 31.6149-52.2689C33.1612-52.5257 34.4497-52.012 35.7382-51.7551C38.1864-51.1131 40.377-50.3426 42.4385-49.0584C43.7272-48.2878 45.1446-47.5174 46.1753-46.49C47.9792-44.8206 49.0102-42.6375 49.5254-40.3261C49.7833-38.9132 49.2679-37.6292 48.3659-36.6018C47.2061-35.0609 45.6598-33.9049 44.2426-32.8775C42.4385-31.7218 40.5058-30.6944 38.8307-29.5387C38.1864-29.1535 37.6711-28.7681 37.1556-28.3829C35.6094-27.484 34.0631-27.3555 32.6458-28.1261C30.8418-28.8967 29.0379-29.6671 27.7494-31.0798C27.1051-31.7218 26.7186-32.6207 26.5897-33.5197C26.4608-35.5744 26.332-37.5007 26.0743-39.5554C25.9455-41.4818 25.6877-43.2795 25.43-45.0774L25.6877-45.2057ZM71.43-46.7472C71.43-45.5916 70.9158-44.5642 70.2715-43.6652C69.3683-42.5094 68.3389-41.6105 66.9201-41.2254C65.245-40.7115 63.8288-41.097 62.5406-41.8673C60.7354-43.0229 59.1891-44.4358 58.416-46.2336C57.7716-47.5178 57.514-48.9304 57.2561-50.3431C57.1273-51.6272 57.1273-52.9114 57.1273-54.324C57.1273-56.1218 58.416-57.1493 59.9635-57.7913C60.3487-57.9197 60.8655-58.0482 61.2519-58.305C62.668-58.8186 63.6987-58.1766 64.7311-57.2776C67.0502-55.0945 68.7242-52.6545 70.2715-49.9578C70.7857-49.0588 71.3013-48.1599 71.43-47.1325C71.3013-47.1325 71.43-47.0041 71.43-46.7472ZM66.1476-30.1808C66.9208-30.1808 67.8227-30.1808 68.7246-29.9241C70.0133-29.6673 70.5285-28.2548 70.2708-27.2275C69.8844-25.0443 69.369-22.9897 68.8534-20.8066C68.2095-18.1096 66.4052-16.8255 63.9571-16.0549C63.184-15.7982 62.282-15.6698 61.5089-15.4127C60.3493-15.1559 59.0606-16.3117 59.3183-17.5958C59.9626-20.9349 60.6069-24.1453 61.2513-27.4842C61.5089-28.8967 62.4108-30.0524 64.3438-30.0524C64.7302-30.0524 65.2457-30.0524 66.1476-30.1808ZM50.1699-32.364C50.4274-33.6481 50.6853-34.9327 50.943-36.2168C51.2005-37.5008 51.9737-38.5282 53.1335-39.1704C54.6798-39.9407 56.0972-40.7113 57.7723-40.5829C58.4164-40.5829 59.0606-40.4545 59.5761-40.069C60.6069-39.4272 61.5089-38.6566 62.282-37.886C63.313-36.9873 63.4417-35.4462 62.7975-34.5471C62.1532-33.6481 61.38-32.7492 60.4781-31.979C59.1895-30.8232 57.7723-29.9242 56.3549-29.1536C54.4219-28.383 52.618-28.6401 51.2005-29.6674C50.5566-30.1809 50.2986-30.8232 50.1699-31.7219L50.1699-32.364ZM53.0042-22.4758C52.8752-21.0634 52.8752-19.9077 51.9732-19.0086C51.458-18.4948 50.8137-18.3665 50.0406-18.3665C48.8807-18.238 47.85-17.9813 46.8192-18.3665C45.0154-19.0086 43.8555-20.2928 43.34-22.0908C42.8249-23.8887 42.8249-25.8147 43.7267-27.3559C44.1131-27.9982 44.6287-28.3832 45.4018-28.3832C47.4636-28.3832 49.3963-27.8694 51.0712-26.7137C52.102-26.0718 52.3599-25.1728 52.4888-24.1454C52.8752-23.6316 53.0042-22.8614 53.0042-22.4758ZM34.7074-14.5141C34.9651-16.954 35.6094-18.7519 37.0268-20.2928C37.5423-20.8067 38.0576-21.4485 38.8307-21.5769C39.475-21.7054 39.9902-21.4485 40.5058-21.0634C41.2789-20.5496 41.5365-19.6506 41.7944-18.7519C42.3096-16.1834 41.7944-14.0003 40.7634-11.5604C40.2481-10.4048 39.2171-9.89091 38.3153-10.0192C37.1556-10.1477 36.1248-10.6615 35.6094-11.6888C35.094-12.9729 34.9651-13.8719 34.7074-14.5141ZM56.7415-45.2058C56.6114-43.7933 55.9671-42.6372 54.9377-41.7386C54.551-41.3531 53.7778-41.3531 53.2626-41.8669C51.7163-43.2795 50.2989-44.692 49.0102-46.1047C47.9795-47.2605 48.3663-48.5447 49.0102-49.7005C49.6545-50.9846 50.9432-51.7551 52.2316-52.3972C52.8759-52.654 53.39-52.5256 53.7778-52.012C54.8089-49.9572 55.8395-48.031 56.9992-45.9763C56.7415-45.5909 56.7415-45.4626 56.7415-45.2058ZM46.1754-51.4987C44.1136-51.6272 42.4385-52.0125 40.7635-52.3978C39.346-52.7829 38.0576-53.0398 36.769-53.4251C36.6402-53.4251 36.3825-53.5535 36.2536-53.6818C35.6094-54.0671 35.6094-54.324 35.9959-54.8376C36.8978-55.9934 37.9288-57.0208 39.4751-57.406C40.377-57.6629 41.2789-57.6629 42.1809-57.406C44.1136-56.8924 45.9177-56.3787 47.464-55.0945C47.9792-54.7093 48.4948-54.1956 48.7523-53.5535C49.1391-52.7829 48.6235-51.884 47.8504-51.6272C47.0772-51.6272 46.5618-51.6272 46.1754-51.4987ZM27.8779-22.3474C27.8779-23.8886 28.9087-25.8146 30.7126-26.3284C33.5474-27.2275 35.4802-24.7873 35.4802-22.7329C35.4802-21.7055 35.0937-20.9349 34.1917-20.421C32.7743-19.6508 31.2281-19.2654 29.8106-19.6508C28.2644-20.1643 27.8779-21.3201 27.8779-22.3474ZM58.4162-14.771C58.2875-14.1287 58.1587-13.4865 57.901-12.973C57.6431-12.3308 56.9988-12.074 56.2257-12.2025C55.195-12.4592 54.293-12.7163 53.3911-12.973C52.7468-13.1014 52.2312-13.4865 51.716-13.7436C50.9429-14.1287 50.8141-15.2845 51.4581-15.9267C52.2312-16.8253 53.1335-17.3391 54.1642-17.8526C54.5506-17.9814 54.8085-18.3665 55.0662-18.4949C55.9681-19.1372 57.1279-18.4949 57.5144-17.7243C57.901-16.8253 58.1587-15.7983 58.4162-14.771ZM29.6823-53.6816C28.6513-53.81 27.7494-53.81 27.234-54.709C26.9763-55.2227 27.1051-55.7363 27.3629-56.1216C28.3937-57.6626 29.9399-58.4331 31.615-58.8184C32.2593-58.9469 33.1613-59.0752 33.8056-58.9469C34.5786-58.8184 35.094-57.7911 34.9652-57.0205C34.7075-55.3511 33.5478-54.5805 32.1305-54.1953C31.3574-53.9385 30.4554-53.81 29.6823-53.6816ZM54.6791-22.4758C54.6791-23.3749 55.3235-24.0171 55.7112-24.6589C55.9678-25.0445 56.2253-25.3012 56.6119-25.6863C57.1273-26.2001 57.9004-25.9434 58.0305-25.3012C58.2882-23.8887 58.1581-22.3475 57.3863-21.1917C56.7422-20.1644 55.8387-20.1644 55.1947-21.3202C54.9368-21.5769 54.8093-22.0908 54.6791-22.4758Z"/>
   <path class="monochrome-1 multicolor-1:tintColor hierarchical-1:tertiary SFSymbolsPreviewWireframe" d="M48.9411-84C55.3091-84.0013 61.615-82.7479 67.4985-80.3116C73.382-77.8752 78.7279-74.3036 83.2305-69.8009C87.7334-65.2983 91.305-59.9524 93.7418-54.0682C96.1779-48.1846 97.4312-41.8789 97.43-35.5124C97.43-8.72255 75.7254 13 48.9424 13C22.156 13 0.43-8.726 0.43-35.5124C0.43-62.2926 22.1539-84 48.9411-84ZM48.9424-70C29.8835-70 14.43-54.5582 14.43-35.5124C14.43-16.458 29.888-0.999999 48.9424-0.999999C67.9909-0.999999 83.43-16.4519 83.43-35.5138C83.4309-40.0428 82.5395-44.5276 80.8069-48.7121C79.0739-52.8969 76.5337-56.6989 73.3311-59.9013C70.1287-63.1038 66.3266-65.644 62.1422-67.3767C57.9578-69.1095 53.4729-70.0009 48.9424-70Z"/>
  </g>
  <g id="Regular-S" transform="matrix(1 0 0 1 1403.58 696)">
   <path class="monochrome-0 multicolor-0:tintColor hierarchical-0:primary SFSymbolsPreviewWireframe" d="M23.6777-44.9242C23.42-46.4968 23.8067-47.9382 24.7086-49.1175C25.9971-50.8211 27.6722-51.8694 29.6049-52.1315C31.1512-52.3936 32.4398-51.8694 33.7283-51.6073C36.1765-50.9522 38.367-50.166 40.4285-48.8554C41.7172-48.0692 43.1346-47.283 44.1653-46.2347C45.9692-44.5313 47.0003-42.3036 47.5155-39.9449C47.7734-38.5033 47.2579-37.193 46.356-36.1446C45.1961-34.5723 43.6498-33.3927 42.2327-32.3443C40.4285-31.1651 38.4959-30.1168 36.8208-28.9374C36.1765-28.5444 35.6611-28.1511 35.1457-27.758C33.5994-26.8408 32.0532-26.7097 30.6359-27.4961C28.8318-28.2824 27.0279-29.0683 25.7394-30.51C25.0951-31.1651 24.7086-32.0823 24.5798-32.9997C24.4508-35.0963 24.322-37.062 24.0643-39.1586C23.9355-41.1243 23.6777-42.9585 23.42-44.7933L23.6777-44.9242ZM69.42-46.4972C69.42-45.3179 68.9059-44.2695 68.2616-43.3523C67.3583-42.1729 66.3289-41.2557 64.9101-40.8626C63.235-40.3383 61.8189-40.7316 60.5306-41.5176C58.7254-42.6969 57.1792-44.1386 56.406-45.9731C55.7616-47.2835 55.5041-48.7248 55.2462-50.1663C55.1173-51.4767 55.1173-52.7871 55.1173-54.2286C55.1173-56.0631 56.406-57.1114 57.9536-57.7667C58.3387-57.8977 58.8555-58.0288 59.2419-58.2908C60.6581-58.815 61.6888-58.1598 62.7212-57.2425C65.0402-55.0148 66.7143-52.525 68.2616-49.7733C68.7757-48.8559 69.2913-47.9386 69.42-46.8903C69.2913-46.8903 69.42-46.7593 69.42-46.4972ZM64.1376-29.5927C64.9107-29.5927 65.8126-29.5927 66.7146-29.3307C68.0032-29.0686 68.5184-27.6273 68.2609-26.579C67.8745-24.3514 67.3589-22.2547 66.8433-20.0271C66.1994-17.2751 64.3952-15.9647 61.947-15.1784C61.1739-14.9164 60.2719-14.7855 59.4988-14.5231C58.3393-14.2611 57.0507-15.4404 57.3082-16.7508C57.9525-20.158 58.5969-23.434 59.2412-26.841C59.4988-28.2823 60.4008-29.4616 62.3337-29.4616C62.7201-29.4616 63.2357-29.4616 64.1376-29.5927ZM48.1599-31.8204C48.4174-33.1307 48.6754-34.4414 48.933-35.7518C49.1906-37.0621 49.9637-38.1104 51.1236-38.7657C52.6698-39.5517 54.0872-40.3381 55.7623-40.207C56.4064-40.207 57.0507-40.0761 57.5661-39.6827C58.5969-39.0278 59.4989-38.2413 60.272-37.455C61.3031-36.5381 61.4318-34.9654 60.7875-34.0481C60.1432-33.1307 59.3701-32.2135 58.4681-31.4274C57.1795-30.2482 55.7623-29.3308 54.3449-28.5445C52.4119-27.7582 50.608-28.0205 49.1906-29.0688C48.5466-29.5928 48.2886-30.2482 48.1599-31.1651L48.1599-31.8204ZM50.9943-21.7304C50.8652-20.2891 50.8652-19.1099 49.9632-18.1925C49.448-17.6682 48.8037-17.5372 48.0306-17.5372C46.8707-17.4062 45.84-17.1442 44.8093-17.5372C43.0054-18.1925 41.8456-19.5028 41.33-21.3375C40.8149-23.1721 40.8149-25.1375 41.7167-26.7101C42.1031-27.3654 42.6187-27.7584 43.3918-27.7584C45.4537-27.7584 47.3863-27.2341 49.0613-26.0547C50.0921-25.3998 50.35-24.4824 50.4788-23.4341C50.8652-22.9098 50.9943-22.1238 50.9943-21.7304ZM32.6976-13.6062C32.9552-16.0959 33.5995-17.9305 35.017-19.5029C35.5323-20.0272 36.0478-20.6821 36.8209-20.8132C37.4652-20.9441 37.9804-20.6821 38.4959-20.2892C39.269-19.7649 39.5267-18.8475 39.7846-17.9305C40.2998-15.3096 39.7846-13.0819 38.7535-10.5922C38.2383-9.41289 37.2073-8.88856 36.3054-9.01961C35.1458-9.15067 34.115-9.67499 33.5995-10.7233C33.0841-12.0336 32.9552-12.951 32.6976-13.6062ZM54.7315-44.9243C54.6014-43.483 53.9571-42.3033 52.9277-41.3864C52.541-40.993 51.7679-40.993 51.2526-41.5173C49.7064-42.9586 48.289-44.4 47.0003-45.8415C45.9696-47.0208 46.3563-48.3312 47.0003-49.5106C47.6446-50.821 48.9333-51.6072 50.2216-52.2625C50.8659-52.5246 51.3801-52.3935 51.7679-51.8693C52.7989-49.7727 53.8296-47.8071 54.9892-45.7105C54.7315-45.3172 54.7315-45.1863 54.7315-44.9243ZM44.1653-51.3457C42.1035-51.4767 40.4285-51.8699 38.7534-52.2629C37.336-52.6561 36.0475-52.9182 34.7591-53.3113C34.6301-53.3113 34.3724-53.4423 34.2436-53.5733C33.5993-53.9665 33.5993-54.2286 33.9859-54.7527C34.8879-55.932 35.9187-56.9803 37.4651-57.3735C38.367-57.6356 39.269-57.6356 40.1708-57.3735C42.1035-56.8494 43.9077-56.3252 45.454-55.0148C45.9691-54.6216 46.4847-54.0975 46.7422-53.4423C47.129-52.6561 46.6135-51.7388 45.8404-51.4767C45.0673-51.4767 44.5517-51.4767 44.1653-51.3457ZM25.8679-21.5994C25.8679-23.172 26.8987-25.1373 28.7026-25.6617C31.5374-26.579 33.4702-24.089 33.4702-21.9927C33.4702-20.9444 33.0836-20.158 32.1817-19.6337C30.7642-18.8477 29.2181-18.4545 27.8007-18.8477C26.2544-19.3717 25.8679-20.5511 25.8679-21.5994ZM56.4063-13.8683C56.2776-13.213 56.1487-12.5577 55.8911-12.0336C55.6332-11.3783 54.9889-11.1163 54.2157-11.2473C53.185-11.5093 52.2831-11.7716 51.3811-12.0336C50.7368-12.1646 50.2213-12.5577 49.706-12.8199C48.9329-13.213 48.8042-14.3923 49.4481-15.0476C50.2213-15.9646 51.1236-16.4889 52.1543-17.0129C52.5406-17.1443 52.7985-17.5372 53.0562-17.6683C53.9582-18.3235 55.1179-17.6683 55.5044-16.882C55.8911-15.9646 56.1487-14.9166 56.4063-13.8683ZM27.6722-53.5731C26.6414-53.7041 25.7393-53.7041 25.224-54.6214C24.9663-55.1456 25.0951-55.6697 25.3528-56.0629C26.3837-57.6354 27.9299-58.4216 29.6049-58.8147C30.2492-58.9457 31.1512-59.0767 31.7955-58.9457C32.5686-58.8147 33.084-57.7663 32.9551-56.9801C32.6975-55.2767 31.5378-54.4903 30.1204-54.0972C29.3473-53.8352 28.4453-53.7041 27.6722-53.5731ZM52.6691-21.7304C52.6691-22.6478 53.3134-23.3031 53.7012-23.9581C53.9577-24.3514 54.2154-24.6135 54.6018-25.0064C55.1173-25.5307 55.8905-25.2687 56.0206-24.6135C56.2781-23.1721 56.148-21.5995 55.3762-20.4201C54.7322-19.3718 53.8286-19.3718 53.1846-20.5512C52.9267-20.8132 52.7992-21.3375 52.6691-21.7304Z"/>
   <path class="monochrome-1 multicolor-1:tintColor hierarchical-1:tertiary SFSymbolsPreviewWireframe" d="M46.4321-81.8365C52.4502-81.8377 58.4096-80.6532 63.9698-78.3508C69.53-76.0483 74.5822-72.6729 78.8374-68.4176C83.0928-64.1624 86.4682-59.1103 88.771-53.5496C91.0733-47.9892 92.2577-42.03 92.2566-36.0127C92.2566-10.693 71.744 9.83658 46.4328 9.83658C21.1173 9.83658 0.5835-10.6972 0.5835-36.0127C0.5835-61.3211 21.1145-81.8365 46.4321-81.8365ZM46.4328-75.0865C24.8413-75.0865 7.3335-57.592 7.3335-36.0127C7.3335-14.4252 24.8452 3.08658 46.4328 3.08658C68.0148 3.08658 85.5066-14.4197 85.5066-36.0133C85.5076-41.1447 84.4976-46.226 82.5345-50.9672C80.571-55.7085 77.693-60.0162 74.0644-63.6446C70.4361-67.273 66.1283-70.1511 61.3873-72.1143C56.6463-74.0776 51.5649-75.0875 46.4328-75.0865Z"/>
  </g>
  <g id="Ultralight-S" transform="matrix(1 0 0 1 515.649 696)">
   <path class="monochrome-0 multicolor-0:tintColor hierarchical-0:primary SFSymbolsPreviewWireframe" d="M20.6143-46.9242C20.351-48.4968 20.7461-49.9382 21.6676-51.1175C22.9841-52.8211 24.6956-53.8694 26.6704-54.1315C28.2503-54.3936 29.5669-53.8694 30.8833-53.6073C33.3848-52.9522 35.623-52.166 37.7293-50.8554C39.046-50.0692 40.4942-49.283 41.5473-48.2347C43.3904-46.5313 44.4439-44.3036 44.9703-41.9449C45.2338-40.5033 44.7071-39.193 43.7856-38.1446C42.6005-36.5723 41.0206-35.3927 39.5726-34.3443C37.7293-33.1651 35.7546-32.1168 34.0431-30.9374C33.3848-30.5444 32.8582-30.1511 32.3316-29.758C30.7517-28.8408 29.1718-28.7097 27.7237-29.4961C25.8805-30.2824 24.0373-31.0683 22.7208-32.51C22.0625-33.1651 21.6676-34.0823 21.536-34.9997C21.4042-37.0963 21.2726-39.062 21.0093-41.1586C20.8777-43.1243 20.6143-44.9585 20.351-46.7933L20.6143-46.9242ZM67.351-48.4972C67.351-47.3179 66.8257-46.2695 66.1674-45.3523C65.2445-44.1729 64.1927-43.2557 62.7431-42.8626C61.0316-42.3383 59.5846-42.7316 58.2684-43.5176C56.4239-44.6969 54.8441-46.1386 54.0541-47.9731C53.3957-49.2835 53.1326-50.7248 52.8691-52.1663C52.7374-53.4767 52.7374-54.7871 52.7374-56.2286C52.7374-58.0631 54.0541-59.1114 55.6353-59.7667C56.0288-59.8977 56.5569-60.0288 56.9517-60.2908C58.3986-60.815 59.4517-60.1598 60.5065-59.2425C62.876-57.0148 64.5864-54.525 66.1674-51.7733C66.6927-50.8559 67.2195-49.9386 67.351-48.8903C67.2195-48.8903 67.351-48.7593 67.351-48.4972ZM61.9537-31.5927C62.7437-31.5927 63.6652-31.5927 64.5868-31.3307C65.9034-31.0686 66.4298-29.6273 66.1667-28.579C65.7719-26.3514 65.2451-24.2547 64.7183-22.0271C64.0604-19.2751 62.217-17.9647 59.7156-17.1784C58.9256-16.9164 58.004-16.7855 57.2141-16.5231C56.0294-16.2611 54.7128-17.4404 54.9759-18.7508C55.6342-22.158 56.2927-25.434 56.951-28.841C57.2141-30.2823 58.1357-31.4616 60.1107-31.4616C60.5055-31.4616 61.0323-31.4616 61.9537-31.5927ZM45.6287-33.8204C45.8919-35.1307 46.1554-36.4414 46.4187-37.7518C46.6818-39.0621 47.4717-40.1104 48.6568-40.7657C50.2367-41.5517 51.6849-42.3381 53.3964-42.207C54.0545-42.207 54.7128-42.0761 55.2395-41.6827C56.2927-41.0278 57.2142-40.2413 58.0042-39.455C59.0576-38.5381 59.1891-36.9654 58.5308-36.0481C57.8725-35.1307 57.0826-34.2135 56.161-33.4274C54.8444-32.2482 53.3964-31.3308 51.9482-30.5445C49.9732-29.7582 48.13-30.0205 46.6818-31.0688C46.0239-31.5928 45.7602-32.2482 45.6287-33.1651L45.6287-33.8204ZM48.5247-23.7304C48.3928-22.2891 48.3928-21.1099 47.4713-20.1925C46.9448-19.6682 46.2865-19.5372 45.4966-19.5372C44.3115-19.4062 43.2584-19.1442 42.2052-19.5372C40.3622-20.1925 39.1771-21.5028 38.6503-23.3375C38.124-25.1721 38.124-27.1375 39.0455-28.7101C39.4403-29.3654 39.9671-29.7584 40.757-29.7584C42.8636-29.7584 44.8383-29.2341 46.5497-28.0547C47.6029-27.3998 47.8664-26.4824 47.998-25.4341C48.3928-24.9098 48.5247-24.1238 48.5247-23.7304ZM29.8303-15.6062C30.0935-18.0959 30.7518-19.9305 32.2001-21.5029C32.7266-22.0272 33.2533-22.6821 34.0432-22.8132C34.7015-22.9441 35.2279-22.6821 35.7546-22.2892C36.5445-21.7649 36.8078-20.8475 37.0713-19.9305C37.5977-17.3096 37.0713-15.0819 36.0179-12.5922C35.4914-11.4129 34.438-10.8886 33.5165-11.0196C32.3317-11.1507 31.2785-11.675 30.7518-12.7233C30.2252-14.0336 30.0935-14.951 29.8303-15.6062ZM52.3432-46.9243C52.2103-45.483 51.552-44.3033 50.5002-43.3864C50.1051-42.993 49.3151-42.993 48.7887-43.5173C47.2088-44.9586 45.7606-46.4 44.4439-47.8415C43.3908-49.0208 43.7859-50.3312 44.4439-51.5106C45.1022-52.821 46.4189-53.6072 47.7352-54.2625C48.3935-54.5246 48.9189-54.3935 49.3151-53.8693C50.3686-51.7727 51.4216-49.8071 52.6065-47.7105C52.3432-47.3172 52.3432-47.1863 52.3432-46.9243ZM41.5473-53.3457C39.4406-53.4767 37.7293-53.8699 36.0177-54.2629C34.5695-54.6561 33.253-54.9182 31.9366-55.3113C31.8048-55.3113 31.5415-55.4423 31.4099-55.5733C30.7516-55.9665 30.7516-56.2286 31.1466-56.7527C32.0682-57.932 33.1214-58.9803 34.7014-59.3735C35.623-59.6356 36.5445-59.6356 37.466-59.3735C39.4406-58.8494 41.2841-58.3252 42.864-57.0148C43.3903-56.6216 43.9171-56.0975 44.1802-55.4423C44.5754-54.6561 44.0487-53.7388 43.2588-53.4767C42.4689-53.4767 41.9421-53.4767 41.5473-53.3457ZM22.8521-23.5994C22.8521-25.172 23.9053-27.1373 25.7485-27.6617C28.6448-28.579 30.6197-26.089 30.6197-23.9927C30.6197-22.9444 30.2247-22.158 29.3031-21.6337C27.8549-20.8477 26.2751-20.4545 24.8269-20.8477C23.247-21.3717 22.8521-22.5511 22.8521-23.5994ZM54.0544-15.8683C53.9229-15.213 53.7912-14.5577 53.5279-14.0336C53.2644-13.3783 52.6061-13.1163 51.8162-13.2473C50.7631-13.5093 49.8415-13.7716 48.92-14.0336C48.2617-14.1646 47.7349-14.5577 47.2085-14.8199C46.4185-15.213 46.287-16.3923 46.945-17.0476C47.7349-17.9646 48.6568-18.4889 49.7099-19.0129C50.1047-19.1443 50.3682-19.5372 50.6315-19.6683C51.5531-20.3235 52.738-19.6683 53.1329-18.882C53.5279-17.9646 53.7912-16.9166 54.0544-15.8683ZM24.6956-55.5731C23.6424-55.7041 22.7207-55.7041 22.1942-56.6214C21.9309-57.1456 22.0625-57.6697 22.3258-58.0629C23.3791-59.6354 24.9589-60.4216 26.6704-60.8147C27.3287-60.9457 28.2503-61.0767 28.9086-60.9457C29.6985-60.8147 30.225-59.7663 30.0934-58.9801C29.8301-57.2767 28.6453-56.4903 27.1971-56.0972C26.4071-55.8352 25.4856-55.7041 24.6956-55.5731ZM50.236-23.7304C50.236-24.6478 50.8943-25.3031 51.2905-25.9581C51.5526-26.3514 51.8159-26.6135 52.2106-27.0064C52.7374-27.5307 53.5274-27.2687 53.6603-26.6135C53.9234-25.1721 53.7905-23.5995 53.0019-22.4201C52.3439-21.3718 51.4207-21.3718 50.7626-22.5512C50.4991-22.8132 50.3689-23.3375 50.236-23.7304Z"/>
   <path class="monochrome-1 multicolor-1:tintColor hierarchical-1:tertiary SFSymbolsPreviewWireframe" d="M44.3636-80.5865C50.0861-80.5876 55.7528-79.4613 61.04-77.272C66.3271-75.0826 71.1312-71.8729 75.1774-67.8265C79.2239-63.7803 82.4335-58.9764 84.6232-53.6889C86.8124-48.4015 87.9387-42.7349 87.9376-37.0127C87.9376-12.9352 68.432 6.58658 44.3638 6.58658C20.2909 6.58658 0.7645-12.9399 0.7645-37.0127C0.7645-61.0781 20.2877-80.5865 44.3636-80.5865ZM44.3638-78.3365C21.53-78.3365 3.0145-59.8351 3.0145-37.0127C3.0145-14.1825 21.5336 4.33658 44.3638 4.33658C67.1889 4.33658 85.6876-14.1774 85.6876-37.0129C85.6886-42.4398 84.6205-47.8138 82.5443-52.828C80.4678-57.8425 77.4239-62.3983 73.5865-66.2355C69.7491-70.073 65.1932-73.1168 60.1791-75.1931C55.1651-77.2695 49.791-78.3376 44.3638-78.3365Z"/>
  </g>
 </g>
</svg>
