<?xml version="1.0" encoding="UTF-8"?>
<!--Generator: Apple Native CoreSVG 341-->
<!DOCTYPE svg
PUBLIC "-//W3C//DTD SVG 1.1//EN"
       "http://www.w3.org/Graphics/SVG/1.1/DTD/svg11.dtd">
<svg version="1.1" xmlns="http://www.w3.org/2000/svg" xmlns:xlink="http://www.w3.org/1999/xlink" viewBox="0 0 3300 2200">
 <!--glyph: "", point size: 100.0, font version: "20.0d10e1", template writer version: "138.0.0"-->
 <style>.monochrome-0 {-sfsymbols-motion-group:1;-sfsymbols-layer-tags:-1e3a4a10b322e048}
.monochrome-1 {-sfsymbols-motion-group:0;-sfsymbols-layer-tags:-1e3a4a10b322e048}

.multicolor-0:tintColor {-sfsymbols-motion-group:1;-sfsymbols-layer-tags:-1e3a4a10b322e048}
.multicolor-1:tintColor {-sfsymbols-motion-group:0;-sfsymbols-layer-tags:-1e3a4a10b322e048}

.hierarchical-0:primary {-sfsymbols-motion-group:1;-sfsymbols-layer-tags:-1e3a4a10b322e048}
.hierarchical-1:tertiary {-sfsymbols-motion-group:0;-sfsymbols-layer-tags:-1e3a4a10b322e048}

.SFSymbolsPreviewWireframe {fill:none;opacity:1.0;stroke:black;stroke-width:0.5}
</style>
 <g id="Notes">
  <rect height="2200" id="artboard" style="fill:white;opacity:1" width="3300" x="0" y="0"/>
  <line style="fill:none;stroke:black;opacity:1;stroke-width:0.5;" x1="263" x2="3036" y1="292" y2="292"/>
  <text style="stroke:none;fill:black;font-family:sans-serif;font-size:13;font-weight:bold;" transform="matrix(1 0 0 1 263 322)">Weight/Scale Variations</text>
  <text style="stroke:none;fill:black;font-family:sans-serif;font-size:13;text-anchor:middle;" transform="matrix(1 0 0 1 559.711 322)">Ultralight</text>
  <text style="stroke:none;fill:black;font-family:sans-serif;font-size:13;text-anchor:middle;" transform="matrix(1 0 0 1 856.422 322)">Thin</text>
  <text style="stroke:none;fill:black;font-family:sans-serif;font-size:13;text-anchor:middle;" transform="matrix(1 0 0 1 1153.13 322)">Light</text>
  <text style="stroke:none;fill:black;font-family:sans-serif;font-size:13;text-anchor:middle;" transform="matrix(1 0 0 1 1449.84 322)">Regular</text>
  <text style="stroke:none;fill:black;font-family:sans-serif;font-size:13;text-anchor:middle;" transform="matrix(1 0 0 1 1746.56 322)">Medium</text>
  <text style="stroke:none;fill:black;font-family:sans-serif;font-size:13;text-anchor:middle;" transform="matrix(1 0 0 1 2043.27 322)">Semibold</text>
  <text style="stroke:none;fill:black;font-family:sans-serif;font-size:13;text-anchor:middle;" transform="matrix(1 0 0 1 2339.98 322)">Bold</text>
  <text style="stroke:none;fill:black;font-family:sans-serif;font-size:13;text-anchor:middle;" transform="matrix(1 0 0 1 2636.69 322)">Heavy</text>
  <text style="stroke:none;fill:black;font-family:sans-serif;font-size:13;text-anchor:middle;" transform="matrix(1 0 0 1 2933.4 322)">Black</text>
  <line style="fill:none;stroke:black;opacity:1;stroke-width:0.5;" x1="263" x2="3036" y1="1903" y2="1903"/>
  <g transform="matrix(0.2 0 0 0.2 263 1933)">
   <path d="m46.2402 4.15039c21.7773 0 39.4531-17.627 39.4531-39.4043s-17.6758-39.4043-39.4531-39.4043c-21.7285 0-39.4043 17.627-39.4043 39.4043s17.6758 39.4043 39.4043 39.4043Zm0-7.42188c-17.6758 0-31.9336-14.3066-31.9336-31.9824s14.2578-31.9824 31.9336-31.9824 31.9824 14.3066 31.9824 31.9824-14.3066 31.9824-31.9824 31.9824Zm-17.9688-31.9824c0 2.14844 1.51367 3.61328 3.75977 3.61328h10.498v10.5957c0 2.19727 1.46484 3.71094 3.61328 3.71094 2.24609 0 3.71094-1.51367 3.71094-3.71094v-10.5957h10.5957c2.19727 0 3.71094-1.46484 3.71094-3.61328 0-2.19727-1.51367-3.71094-3.71094-3.71094h-10.5957v-10.5469c0-2.24609-1.46484-3.75977-3.71094-3.75977-2.14844 0-3.61328 1.51367-3.61328 3.75977v10.5469h-10.498c-2.24609 0-3.75977 1.51367-3.75977 3.71094Z"/>
  </g>
  <g transform="matrix(0.2 0 0 0.2 281.506 1933)">
   <path d="m58.5449 14.5508c27.4902 0 49.8047-22.3145 49.8047-49.8047s-22.3145-49.8047-49.8047-49.8047-49.8047 22.3145-49.8047 49.8047 22.3145 49.8047 49.8047 49.8047Zm0-8.30078c-22.9492 0-41.5039-18.5547-41.5039-41.5039s18.5547-41.5039 41.5039-41.5039 41.5039 18.5547 41.5039 41.5039-18.5547 41.5039-41.5039 41.5039Zm-22.6562-41.5039c0 2.39258 1.66016 4.00391 4.15039 4.00391h14.3555v14.4043c0 2.44141 1.66016 4.15039 4.05273 4.15039 2.44141 0 4.15039-1.66016 4.15039-4.15039v-14.4043h14.4043c2.44141 0 4.15039-1.61133 4.15039-4.00391 0-2.44141-1.70898-4.15039-4.15039-4.15039h-14.4043v-14.3555c0-2.49023-1.70898-4.19922-4.15039-4.19922-2.39258 0-4.05273 1.70898-4.05273 4.19922v14.3555h-14.3555c-2.49023 0-4.15039 1.70898-4.15039 4.15039Z"/>
  </g>
  <g transform="matrix(0.2 0 0 0.2 304.924 1933)">
   <path d="m74.8535 28.3203c35.1074 0 63.623-28.4668 63.623-63.5742s-28.5156-63.623-63.623-63.623-63.5742 28.5156-63.5742 63.623 28.4668 63.5742 63.5742 63.5742Zm0-9.08203c-30.127 0-54.4922-24.3652-54.4922-54.4922s24.3652-54.4922 54.4922-54.4922 54.4922 24.3652 54.4922 54.4922-24.3652 54.4922-54.4922 54.4922Zm-28.8574-54.4922c0 2.58789 1.85547 4.39453 4.58984 4.39453h19.7266v19.7754c0 2.68555 1.85547 4.58984 4.44336 4.58984 2.68555 0 4.54102-1.85547 4.54102-4.58984v-19.7754h19.7754c2.68555 0 4.58984-1.80664 4.58984-4.39453 0-2.73438-1.85547-4.58984-4.58984-4.58984h-19.7754v-19.7266c0-2.73438-1.85547-4.63867-4.54102-4.63867-2.58789 0-4.44336 1.9043-4.44336 4.63867v19.7266h-19.7266c-2.73438 0-4.58984 1.85547-4.58984 4.58984Z"/>
  </g>
  <text style="stroke:none;fill:black;font-family:sans-serif;font-size:13;font-weight:bold;" transform="matrix(1 0 0 1 263 1953)">Design Variations</text>
  <text style="stroke:none;fill:black;font-family:sans-serif;font-size:13;" transform="matrix(1 0 0 1 263 1971)">Symbols are supported in up to nine weights and three scales.</text>
  <text style="stroke:none;fill:black;font-family:sans-serif;font-size:13;" transform="matrix(1 0 0 1 263 1989)">For optimal layout with text and other symbols, vertically align</text>
  <text style="stroke:none;fill:black;font-family:sans-serif;font-size:13;" transform="matrix(1 0 0 1 263 2007)">symbols with the adjacent text.</text>
  <line style="fill:none;stroke:#00AEEF;stroke-width:0.5;opacity:1.0;" x1="776" x2="776" y1="1919" y2="1933"/>
  <g transform="matrix(0.2 0 0 0.2 776 1933)">
   <path d="m16.5527 0.78125c2.58789 0 3.85742-0.976562 4.78516-3.71094l6.29883-17.2363h28.8086l6.29883 17.2363c0.927734 2.73438 2.19727 3.71094 4.73633 3.71094 2.58789 0 4.24805-1.5625 4.24805-4.00391 0-0.830078-0.146484-1.61133-0.537109-2.63672l-22.9004-60.9863c-1.12305-2.97852-3.125-4.49219-6.25-4.49219-3.02734 0-5.07812 1.46484-6.15234 4.44336l-22.9004 61.084c-0.390625 1.02539-0.537109 1.80664-0.537109 2.63672 0 2.44141 1.5625 3.95508 4.10156 3.95508Zm13.4766-28.3691 11.8652-32.8613h0.244141l11.8652 32.8613Z"/>
  </g>
  <line style="fill:none;stroke:#00AEEF;stroke-width:0.5;opacity:1.0;" x1="792.836" x2="792.836" y1="1919" y2="1933"/>
  <text style="stroke:none;fill:black;font-family:sans-serif;font-size:13;font-weight:bold;" transform="matrix(1 0 0 1 776 1953)">Margins</text>
  <text style="stroke:none;fill:black;font-family:sans-serif;font-size:13;" transform="matrix(1 0 0 1 776 1971)">Leading and trailing margins on the left and right side of each symbol</text>
  <text style="stroke:none;fill:black;font-family:sans-serif;font-size:13;" transform="matrix(1 0 0 1 776 1989)">can be adjusted by modifying the x-location of the margin guidelines.</text>
  <text style="stroke:none;fill:black;font-family:sans-serif;font-size:13;" transform="matrix(1 0 0 1 776 2007)">Modifications are automatically applied proportionally to all</text>
  <text style="stroke:none;fill:black;font-family:sans-serif;font-size:13;" transform="matrix(1 0 0 1 776 2025)">scales and weights.</text>
  <g transform="matrix(0.2 0 0 0.2 1289 1933)">
   <path d="m14.209 9.32617 8.49609 8.54492c4.29688 4.3457 9.22852 4.05273 13.8672-1.07422l53.4668-58.9355-4.83398-4.88281-53.0762 58.3984c-1.75781 2.00195-3.41797 2.49023-5.76172 0.146484l-5.85938-5.81055c-2.34375-2.29492-1.80664-4.00391 0.195312-5.81055l57.373-54.0039-4.88281-4.83398-57.959 54.4434c-4.93164 4.58984-5.32227 9.47266-1.02539 13.8184Zm32.0801-90.9668c-2.09961 2.05078-2.24609 4.93164-1.07422 6.88477 1.17188 1.80664 3.4668 2.97852 6.68945 2.14844 7.32422-1.70898 14.9414-2.00195 22.0703 2.68555l-2.92969 7.27539c-1.70898 4.15039-0.830078 7.08008 1.85547 9.81445l11.4746 11.5723c2.44141 2.44141 4.49219 2.53906 7.32422 2.05078l5.32227-0.976562 3.32031 3.36914-0.195312 2.7832c-0.195312 2.49023 0.439453 4.39453 2.88086 6.78711l3.80859 3.71094c2.39258 2.39258 5.46875 2.53906 7.8125 0.195312l14.5508-14.5996c2.34375-2.34375 2.24609-5.32227-0.146484-7.71484l-3.85742-3.80859c-2.39258-2.39258-4.24805-3.17383-6.64062-2.97852l-2.88086 0.244141-3.22266-3.17383 1.2207-5.61523c0.634766-2.83203-0.146484-5.0293-3.07617-7.95898l-10.9863-10.9375c-16.6992-16.6016-38.8672-16.2109-53.3203-1.75781Zm7.4707 1.85547c12.1582-8.88672 28.6133-7.37305 39.7461 3.75977l12.1582 12.0605c1.17188 1.17188 1.36719 2.09961 1.02539 3.80859l-1.61133 7.42188 7.51953 7.42188 4.93164-0.292969c1.26953-0.0488281 1.66016 0.0488281 2.63672 1.02539l2.88086 2.88086-12.207 12.207-2.88086-2.88086c-0.976562-0.976562-1.12305-1.36719-1.07422-2.68555l0.341797-4.88281-7.4707-7.42188-7.61719 1.26953c-1.61133 0.341797-2.34375 0.195312-3.56445-0.976562l-10.0098-10.0098c-1.26953-1.17188-1.41602-2.00195-0.634766-3.85742l4.39453-10.4492c-7.8125-7.27539-17.9688-10.4004-28.125-7.42188-0.78125 0.195312-1.07422-0.439453-0.439453-0.976562Z"/>
  </g>
  <text style="stroke:none;fill:black;font-family:sans-serif;font-size:13;font-weight:bold;" transform="matrix(1 0 0 1 1289 1953)">Exporting</text>
  <text style="stroke:none;fill:black;font-family:sans-serif;font-size:13;" transform="matrix(1 0 0 1 1289 1971)">Symbols should be outlined when exporting to ensure the</text>
  <text style="stroke:none;fill:black;font-family:sans-serif;font-size:13;" transform="matrix(1 0 0 1 1289 1989)">design is preserved when submitting to Xcode.</text>
  <text id="template-version" style="stroke:none;fill:black;font-family:sans-serif;font-size:13;text-anchor:end;" transform="matrix(1 0 0 1 3036 1933)">Template v.6.0</text>
  <text style="stroke:none;fill:black;font-family:sans-serif;font-size:13;text-anchor:end;" transform="matrix(1 0 0 1 3036 1951)">Requires Xcode 16 or greater</text>
  <text id="descriptive-name" style="stroke:none;fill:black;font-family:sans-serif;font-size:13;text-anchor:end;" transform="matrix(1 0 0 1 3036 1969)">Generated from filtervogelgruppe-41</text>
  <text style="stroke:none;fill:black;font-family:sans-serif;font-size:13;text-anchor:end;" transform="matrix(1 0 0 1 3036 1987)">Typeset at 100.0 points</text>
  <text style="stroke:none;fill:black;font-family:sans-serif;font-size:13;" transform="matrix(1 0 0 1 263 726)">Small</text>
  <text style="stroke:none;fill:black;font-family:sans-serif;font-size:13;" transform="matrix(1 0 0 1 263 1156)">Medium</text>
  <text style="stroke:none;fill:black;font-family:sans-serif;font-size:13;" transform="matrix(1 0 0 1 263 1586)">Large</text>
 </g>
 <g id="Guides">
  <g id="H-reference" style="fill:#27AAE1;stroke:none;" transform="matrix(1 0 0 1 339 696)">
   <path d="M0.993654 0L3.63775 0L29.3281-67.1323L30.0303-67.1323L30.0303-70.459L28.1226-70.459ZM11.6885-24.4799L46.9815-24.4799L46.2315-26.7285L12.4385-26.7285ZM55.1196 0L57.7637 0L30.6382-70.459L29.4326-70.459L29.4326-67.1323Z"/>
  </g>
  <line id="Baseline-S" style="fill:none;stroke:#27AAE1;opacity:1;stroke-width:0.5;" x1="263" x2="3036" y1="696" y2="696"/>
  <line id="Capline-S" style="fill:none;stroke:#27AAE1;opacity:1;stroke-width:0.5;" x1="263" x2="3036" y1="625.541" y2="625.541"/>
  <g id="H-reference" style="fill:#27AAE1;stroke:none;" transform="matrix(1 0 0 1 339 1126)">
   <path d="M0.993654 0L3.63775 0L29.3281-67.1323L30.0303-67.1323L30.0303-70.459L28.1226-70.459ZM11.6885-24.4799L46.9815-24.4799L46.2315-26.7285L12.4385-26.7285ZM55.1196 0L57.7637 0L30.6382-70.459L29.4326-70.459L29.4326-67.1323Z"/>
  </g>
  <line id="Baseline-M" style="fill:none;stroke:#27AAE1;opacity:1;stroke-width:0.5;" x1="263" x2="3036" y1="1126" y2="1126"/>
  <line id="Capline-M" style="fill:none;stroke:#27AAE1;opacity:1;stroke-width:0.5;" x1="263" x2="3036" y1="1055.54" y2="1055.54"/>
  <g id="H-reference" style="fill:#27AAE1;stroke:none;" transform="matrix(1 0 0 1 339 1556)">
   <path d="M0.993654 0L3.63775 0L29.3281-67.1323L30.0303-67.1323L30.0303-70.459L28.1226-70.459ZM11.6885-24.4799L46.9815-24.4799L46.2315-26.7285L12.4385-26.7285ZM55.1196 0L57.7637 0L30.6382-70.459L29.4326-70.459L29.4326-67.1323Z"/>
  </g>
  <line id="Baseline-L" style="fill:none;stroke:#27AAE1;opacity:1;stroke-width:0.5;" x1="263" x2="3036" y1="1556" y2="1556"/>
  <line id="Capline-L" style="fill:none;stroke:#27AAE1;opacity:1;stroke-width:0.5;" x1="263" x2="3036" y1="1485.54" y2="1485.54"/>
  <line id="right-margin-Black-S" style="fill:none;stroke:#00AEEF;stroke-width:0.5;opacity:1.0;" x1="2982.23" x2="2982.23" y1="600.785" y2="720.121"/>
  <line id="left-margin-Black-S" style="fill:none;stroke:#00AEEF;stroke-width:0.5;opacity:1.0;" x1="2884.57" x2="2884.57" y1="600.785" y2="720.121"/>
  <line id="right-margin-Regular-S" style="fill:none;stroke:#00AEEF;stroke-width:0.5;opacity:1.0;" x1="1496.11" x2="1496.11" y1="600.785" y2="720.121"/>
  <line id="left-margin-Regular-S" style="fill:none;stroke:#00AEEF;stroke-width:0.5;opacity:1.0;" x1="1403.58" x2="1403.58" y1="600.785" y2="720.121"/>
  <line id="right-margin-Ultralight-S" style="fill:none;stroke:#00AEEF;stroke-width:0.5;opacity:1.0;" x1="603.773" x2="603.773" y1="600.785" y2="720.121"/>
  <line id="left-margin-Ultralight-S" style="fill:none;stroke:#00AEEF;stroke-width:0.5;opacity:1.0;" x1="515.649" x2="515.649" y1="600.785" y2="720.121"/>
 </g>
 <g id="Symbols">
  <g id="Black-S" transform="matrix(1 0 0 1 2884.57 696)">
   <path class="monochrome-0 multicolor-0:tintColor hierarchical-0:primary SFSymbolsPreviewWireframe" d="M69.0005-10.7262C68.8766-10.6413 68.7528-10.5174 68.6254-10.4785C68.2715-10.3794 67.9531-10.7333 67.624-10.9704C67.3374-11.1791 67.0578-11.4268 66.7358-11.4587C66.4446-11.4718 66.1587-11.5447 65.8972-11.6731C65.6354-11.8016 65.4029-11.9827 65.2143-12.2053C64.8534-12.6193 64.4182-12.7184 64.0183-12.9554C63.9051-13.0227 63.7954-13.097 63.6857-13.1394C63.5548-13.189 63.4203-13.2067 63.2894-13.2456C63.2222-13.2633 63.1478-13.2598 63.0877-13.3234C62.8931-13.5358 62.7055-13.7834 62.5109-13.9887C62.2155-14.294 61.9101-14.5892 61.5945-14.8733C61.3822-15.0644 61.1663-15.2059 60.9505-15.3722C60.7983-15.4925 60.6532-15.6305 60.4975-15.7331C59.8606-16.1648 59.2237-16.6107 58.5832-16.9964C58.2506-17.1981 57.9038-17.2936 57.5642-17.4281C57.5111-17.4493 57.4509-17.4351 57.3978-17.4104C57.2361-17.3368 57.0599-17.3003 56.8823-17.3042C56.7047-17.3078 56.5302-17.3513 56.3717-17.4316C56.2514-17.4918 56.1452-17.6687 56.032-17.7854C55.7595-18.0756 55.4906-18.4011 55.2075-18.6418C54.8643-18.9319 54.4998-18.7762 54.1531-18.6878C53.7462-18.5887 53.3392-18.4047 52.9358-18.2561C52.7412-18.1853 52.5395-18.1251 52.3449-18.0438C52.0442-17.9164 51.7434-17.7713 51.4426-17.6439C51.3718-17.6121 51.3011-17.6227 51.2303-17.6014L50.8871-17.4847C50.8729-17.4776 50.8588-17.4634 50.8446-17.4599C50.5014-17.3785 50.1617-17.3007 49.8185-17.2122C49.5495-17.1414 49.2806-17.0494 49.0117-16.9787C48.6578-16.8867 48.304-16.8194 47.9502-16.7168C47.66-16.6319 47.3734-16.501 47.0832-16.409C46.9134-16.3559 46.74-16.3453 46.5702-16.3064C46.4286-16.2781 46.2942-16.2214 46.1562-16.2002C46.0111-16.1825 45.8625-16.2038 45.7174-16.1825C45.5511-16.1578 45.3848-16.1047 45.2185-16.0658C45.1972-16.0622 45.1831-16.0481 45.1618-16.0516C44.8788-16.1047 44.5992-16.179 44.3162-16.2144C44.072-16.2462 43.8278-16.2214 43.5837-16.2498C43.4669-16.2568 43.3537-16.3276 43.2369-16.3701C43.2015-16.3842 43.1732-16.4125 43.1414-16.4161L42.6602-16.4585C42.3417-16.4904 42.0232-16.5151 41.7048-16.5611C41.6305-16.5718 41.5632-16.6638 41.4889-16.7062C41.2943-16.8265 41.0997-16.9822 40.9015-17.0424C40.7034-17.1061 40.4982-17.0424 40.3-17.0954C40.0063-17.1698 39.7162-17.3042 39.426-17.4104C39.3623-17.4316 39.2986-17.4705 39.2385-17.4458C38.9165-17.3184 38.6015-17.7996 38.2795-17.5165C38.2548-17.4918 38.2158-17.5484 38.184-17.5661C38.0849-17.6227 37.9823-17.743 37.8832-17.7288C37.6355-17.6934 37.3878-17.5873 37.1366-17.5201C36.9809-17.4776 36.8217-17.4811 36.6695-17.4139C36.5422-17.3608 36.4218-17.2158 36.2838-17.3573C36.2414-17.3998 36.1706-17.329 36.114-17.3042C36.0786-17.2901 36.0432-17.2228 36.0185-17.2441C35.838-17.421 35.6717-17.1839 35.5018-17.1521C35.3674-17.1238 35.2294-17.2051 35.0949-17.2582C34.8437-17.3467 34.5889-17.4245 34.3412-17.5625C34.1502-17.6687 33.9697-17.8527 33.7857-18.0048C33.7786-18.0084 33.7715-18.0225 33.7645-18.0225C33.4106-18.1287 33.1346-18.6099 32.8338-18.9567C32.6038-19.2221 32.3951-19.583 32.1792-19.9085C32.1421-19.9673 32.119-20.0338 32.112-20.1031C32.0872-20.4924 31.9492-20.6693 31.8431-20.917C31.5134-21.664 31.285-22.4516 31.1637-23.2591C31.1071-23.62 31.1142-24.0269 31.0646-24.3914C30.9655-25.1026 31.0434-25.7926 31.0858-26.4862C31.1-26.7162 31.1354-26.9532 31.1849-27.1549C31.3088-27.6432 31.4468-28.1103 31.5742-28.5916C31.652-28.8676 31.6095-29.1082 31.468-29.1683C31.054-29.3452 30.64-29.5009 30.2295-29.6849C30.0385-29.7663 29.8545-29.9043 29.6669-30.0069C29.1857-30.2759 28.708-30.5731 28.2197-30.796C27.9331-30.9305 27.6358-30.9659 27.3386-31.0189C27.0449-31.072 26.7442-31.0897 26.4469-31.1286C26.0188-31.1888 25.5871-31.2348 25.1554-31.3197C24.9431-31.3622 24.7378-31.4719 24.5291-31.5709C24.4902-31.5922 24.4335-31.6983 24.43-31.7656C24.43-31.8611 24.4654-32.0026 24.5008-32.0451C24.5853-32.1445 24.6887-32.2263 24.8051-32.2857C25.3358-32.5263 25.8666-32.7634 26.3974-32.9757C26.6203-33.0642 26.8574-33.0819 27.0838-33.1456C27.7172-33.3225 28.3471-33.4888 28.9805-33.6834C29.3768-33.8037 29.7731-33.9665 30.1694-34.1045C30.3251-34.1576 30.4878-34.1929 30.6435-34.2354C31.1035-34.3628 31.5105-34.8157 31.9068-35.3323C32.236-35.7619 32.583-36.1773 32.9471-36.5779C33.0532-36.6946 33.1948-36.6345 33.3115-36.7265C33.4814-36.8609 33.6371-36.8751 33.814-36.7371C33.9414-36.638 34.0971-36.7265 34.2315-36.6663C34.4368-36.5779 34.6349-36.4292 34.8366-36.3054C34.8508-36.2983 34.8614-36.2629 34.8755-36.2594L35.5125-35.9834C35.5841-35.9544 35.6482-35.9098 35.7-35.8525C36.0892-35.3996 36.4855-34.9785 36.8075-34.2885C36.8571-34.1859 36.9845-34.1752 37.0552-34.2425C37.2675-34.4406 37.494-34.5928 37.6355-35.074C37.6815-35.2262 37.7877-35.304 37.8726-35.3783C38.1309-35.6012 38.2335-36.1462 38.1557-36.7265C38.0425-37.5616 37.9611-38.4108 37.8585-39.2526C37.8302-39.5074 37.7735-39.748 37.7346-39.9957C37.6249-40.668 37.5506-41.3757 37.4055-42.002C37.2286-42.7663 37.0765-43.5907 36.7615-44.1675C36.6908-44.2949 36.6518-44.5037 36.6058-44.6841C36.4997-45.1512 36.2697-45.2574 36.0928-44.8964C35.8698-44.4329 35.6186-44.1109 35.3072-44.118C35.1303-44.118 34.9534-44.1392 34.78-44.1675C34.5748-44.1958 34.366-44.2666 34.1572-44.2666C34.0758-44.2666 33.9591-44.1746 33.9166-44.0366C33.7503-43.5058 33.5203-43.3855 33.2585-43.428C32.9966-43.4704 32.7242-43.4846 32.4729-43.6544C32.1226-43.888 31.7865-44.2383 31.4503-44.5744C31.2415-44.7832 31.1708-44.7266 31.146-44.217C31.1283-43.888 31.0328-43.7747 30.9089-43.8278C30.6275-43.9538 30.3534-44.0957 30.088-44.2524C29.9499-44.3381 29.8228-44.4403 29.7094-44.5567C29.5537-44.7054 29.4015-44.8823 29.2494-45.0521C28.984-45.3564 28.7682-45.8908 28.4497-45.9828C28.3754-46.0075 28.2834-46.0182 28.2197-45.9403C28.0038-45.6678 27.8022-45.7457 27.5934-45.9828C27.4589-46.1385 27.3103-46.2446 27.1829-46.4251C27.006-46.6798 26.8432-47.0195 26.6628-47.2637C26.27-47.7944 26.0365-48.679 25.7251-49.3796C25.4951-49.8962 25.3606-50.6181 25.1589-51.209C24.8971-51.9732 24.8829-52.9074 24.7697-53.7743C24.6317-54.8783 24.7272-55.9752 24.8263-57.0685C24.8652-57.5108 24.8758-57.9708 24.9395-58.3919C24.9749-58.6396 25.0917-58.8377 25.1766-59.05C25.2049-59.1208 25.2651-59.1562 25.2792-59.227C25.3854-59.8921 25.6508-59.8497 25.8808-59.9134C26.1288-59.985 26.3875-60.0125 26.6451-59.9948C26.8362-59.9841 27.0308-59.8532 27.2254-59.8178C27.3315-59.7966 27.4412-59.8709 27.5509-59.8886C27.6235-59.9087 27.6997-59.9123 27.7738-59.8992C28.0498-59.8285 28.3294-59.7506 28.6054-59.6586C28.7434-59.6126 28.8743-59.4746 29.0088-59.464C29.3945-59.4286 29.7518-59.1668 30.1057-58.8873C30.3994-58.6643 30.7002-58.4874 30.9974-58.314C31.5635-57.985 32.1297-57.6701 32.6958-57.3587C32.9435-57.2242 33.1983-57.1145 33.4495-56.9907C33.5097-56.9588 33.5698-56.8987 33.6265-56.8598C33.814-56.7359 33.998-56.6085 34.1855-56.4953C34.4686-56.3184 34.7588-56.1591 35.0454-55.9823C35.4912-55.7098 35.9406-55.4232 36.39-55.1578C36.6589-54.9986 36.9349-54.8924 37.2003-54.719C37.6037-54.4537 38-54.1317 38.4069-53.8698C38.6971-53.6858 38.9978-53.6044 39.2845-53.4098C39.5817-53.2152 39.8648-52.9215 40.1585-52.7022C40.5229-52.4262 40.8945-52.1926 41.2589-51.9272C41.4288-51.8069 41.5915-51.6583 41.7614-51.5274C41.8392-51.4637 41.9206-51.4248 41.9985-51.3611C42.1754-51.2196 42.3523-51.0745 42.5292-50.9117C42.8548-50.6145 43.1732-50.289 43.4988-49.9988C43.7182-49.8042 43.9446-49.6521 44.1711-49.4752C44.3409-49.3442 44.5214-49.2522 44.6771-49.0576C44.9602-48.7109 45.222-48.2933 45.498-47.9218C45.5709-47.8083 45.6675-47.7118 45.7811-47.6387C46.1774-47.4406 46.3826-46.7187 46.6409-46.1349C46.8462-45.6678 47.0337-45.1583 47.2318-44.67C47.2602-44.6063 47.2991-44.5674 47.3309-44.5143C47.4017-44.4081 47.476-44.309 47.5362-44.1817C47.6246-43.9941 47.706-43.7854 47.7838-43.5837C47.9218-43.251 48.0528-42.9043 48.1908-42.5787C48.2545-42.4301 48.3465-42.3381 48.4137-42.1895C48.5906-41.8109 48.7675-41.4146 48.9374-41.0183C49.0188-40.8272 49.0718-40.8909 49.132-41.0784C49.2346-41.3898 49.3372-41.7083 49.4505-41.9914C49.7795-42.7804 50.1122-43.5483 50.4412-44.3303C50.65-44.8257 50.88-45.2857 51.0498-45.8341C51.2622-46.5064 51.4497-47.2354 51.5912-47.9926C51.7151-48.6684 51.7965-49.4079 51.8283-50.1333C51.8637-51.071 51.8212-52.0228 51.8389-52.9675C51.8495-53.5337 51.9698-53.9972 52.214-54.252C52.5714-54.6199 52.9252-55.0092 53.2897-55.3524C53.4312-55.4869 53.5869-55.5293 53.7391-55.6143C53.9302-55.7204 54.1248-55.8407 54.3194-55.9433C54.8502-56.2264 55.3845-56.4245 55.94-56.3644C56.4849-56.3042 57.0263-56.3538 57.5677-56.3644C57.7552-56.3644 57.9428-56.4245 58.1268-56.4104C58.5231-56.3856 58.9194-56.3184 59.3157-56.2901C59.5634-56.2724 59.8111-56.3113 60.0588-56.3007C60.1897-56.2971 60.3242-56.237 60.4551-56.2087L62.5251-55.7558C62.7728-55.7027 63.0205-55.6779 63.2682-55.6107C63.6432-55.5046 64.0183-55.363 64.3934-55.2533C64.5809-55.1967 64.772-55.1932 64.9595-55.1259C65.1117-55.0729 65.2603-54.9419 65.4125-54.8783C65.6955-54.7579 65.9786-54.6659 66.2617-54.5598C66.8137-54.3546 67.3657-54.16 67.9212-53.9477C68.1442-53.8628 68.3635-53.746 68.5865-53.6469C68.8235-53.5408 69.0677-53.4629 69.3012-53.3284C69.6162-53.1444 69.924-52.9039 70.2354-52.7092C70.3238-52.6526 70.4194-52.6739 70.5114-52.6314C70.5715-52.5996 70.6282-52.5182 70.6883-52.4686C70.7874-52.3908 70.8829-52.3094 70.982-52.2492C71.2297-52.0971 71.4809-51.9556 71.7322-51.8211C71.9445-51.7008 72.1638-51.5628 72.3832-51.492C72.9494-51.3151 73.4235-50.6428 73.926-50.1227C73.9511-50.0874 73.966-50.0457 73.9685-50.0024C73.9614-49.9493 73.9331-49.8785 73.9118-49.875C73.8198-49.8644 73.7243-49.8927 73.6323-49.8679C73.4802-49.829 73.328-49.7405 73.1723-49.7016C72.9777-49.6556 72.7831-49.6486 72.5849-49.6096C72.3266-49.5636 72.0718-49.5035 71.8135-49.4539C71.7958-49.4504 71.7782-49.4186 71.7605-49.4256C71.5765-49.5212 71.4066-49.4115 71.2297-49.3053C71.0068-49.1744 70.7697-49.1638 70.5432-49.1072C70.2-49.0152 69.8568-48.9338 69.5171-48.8276C69.28-48.7569 69.05-48.6401 68.8129-48.5622C68.5228-48.4667 68.2291-48.4066 67.9389-48.3004C67.7125-48.2155 67.4895-48.0704 67.2631-47.982C66.9906-47.8758 66.7146-47.8263 66.4492-47.706C65.9397-47.4795 65.4302-47.2707 64.9737-46.6798C64.9132-46.5596 64.8771-46.4285 64.8675-46.2942C64.8003-45.8235 64.7472-45.3423 64.6906-44.8646C64.6092-44.164 64.5314-43.4634 64.4429-42.7663C64.4252-42.6035 64.3651-42.469 64.3332-42.3169C64.2554-41.963 64.22-41.503 64.0997-41.273C63.7458-40.6149 63.6043-39.5427 63.1868-39.0123C63.0806-38.8743 63.0169-38.5523 62.9285-38.3329C62.7586-37.9154 62.5782-37.512 62.4118-37.0945C62.3234-36.8716 62.2526-36.6132 62.1642-36.3974C62.0651-36.1568 61.9518-35.9409 61.8422-35.7251C61.736-35.5199 61.6192-35.3359 61.5131-35.1271C61.2406-34.5999 60.9682-34.0797 60.7877-33.3649C60.7382-33.1809 60.6426-33.0571 60.5648-32.9156L60.0694-32.0097C59.9172-31.7266 59.7686-31.4329 59.6094-31.1605C59.4678-30.9128 59.3086-30.7005 59.1635-30.4634C59.0149-30.2263 58.8734-29.9822 58.7248-29.7522C58.6498-29.6404 58.567-29.5338 58.4771-29.4337C58.4063-29.3523 58.3249-29.3169 58.2648-29.2143C58.0277-28.7932 57.7446-28.5491 57.4722-28.2589C57.4198-28.2023 57.377-28.1379 57.3448-28.0679C57.0582-27.4557 56.6654-27.2752 56.3292-26.8577C56.2266-26.7268 56.0886-26.7516 55.9754-26.656C55.7949-26.5074 55.6215-26.3199 55.4446-26.1429C55.3703-26.0651 55.3031-25.966 55.2288-25.8952C55.0271-25.7042 54.8183-25.5626 54.6272-25.3362C54.417-25.0842 54.3042-24.7654 54.3088-24.4374C54.3088-24.3808 54.2982-24.2959 54.3088-24.2711C54.4362-23.9986 54.5565-23.712 54.698-23.4749C54.8572-23.1919 55.0306-22.9551 55.204-22.7039C55.3031-22.5624 55.4092-22.4385 55.5083-22.2934C55.5932-22.1696 55.664-21.9891 55.756-21.8901C56.28-21.2892 56.8685-20.7482 57.5111-20.2765C57.7092-20.1279 57.9215-20.0465 58.1197-19.9014C58.4205-19.6821 58.7142-19.4308 59.0114-19.1938C59.1175-19.1124 59.0963-19.0027 59.0397-18.8399C58.9866-18.6878 58.8982-18.479 58.9158-18.341C58.9442-18.0544 59.0786-18.0261 59.1989-17.9801C59.3935-17.9022 59.5811-17.7501 59.7722-17.6262C60.0446-17.4493 60.3206-17.2724 60.5931-17.0813C61.1097-16.7274 61.6192-16.3488 62.1394-16.0198C62.5817-15.7331 63.0275-15.4784 63.4982-15.8499C63.714-16.0233 63.9546-16.0622 64.1775-16.2038C64.4535-16.3807 64.7225-16.5894 64.9949-16.7947C65.1931-16.9398 65.6495-16.7699 65.7486-16.4762C65.7805-16.3807 65.784-16.2391 65.8052-16.1224L65.6602-16.0516C65.6354-16.0445 65.6071-16.0516 65.5823-16.0445C65.2638-15.9136 64.9454-15.8039 64.6305-15.6376C64.5243-15.581 64.4394-15.3758 64.3438-15.2378C64.4288-15.1033 64.5102-14.8945 64.6057-14.8414C64.9418-14.6574 65.2815-14.5336 65.6212-14.3744C65.6948-14.3418 65.7557-14.2859 65.7946-14.2151C66.0883-13.6738 66.4422-13.7091 66.7889-13.6773C66.8951-13.6667 66.9942-13.6136 67.0968-13.557C67.256-13.4721 67.4152-13.3907 67.5674-13.2633C67.6558-13.1925 67.7337-13.0545 67.8045-12.9165C67.8682-12.7927 67.9106-12.6193 67.9708-12.4778C68.0911-12.1947 68.2185-12.0036 68.406-12.1947C68.4414-12.2265 68.4909-12.1805 68.5263-12.1451C68.5355-12.0793 68.5334-12.0121 68.5192-11.947C68.4591-11.7418 68.36-11.5047 68.4626-11.303C68.5617-11.1119 68.7032-11.027 68.8306-10.9138C68.8766-10.8748 68.9297-10.8961 68.9828-10.8925L69.0005-10.7262L69.0005-10.7262Z"/>
   <path class="monochrome-1 multicolor-1:tintColor hierarchical-1:tertiary SFSymbolsPreviewWireframe" d="M48.9411-84C55.3091-84.0013 61.615-82.7479 67.4985-80.3116C73.382-77.8752 78.7279-74.3036 83.2305-69.8009C87.7334-65.2983 91.305-59.9524 93.7418-54.0682C96.1779-48.1846 97.4312-41.8789 97.43-35.5124C97.43-8.72255 75.7254 13 48.9424 13C22.156 13 0.43-8.726 0.43-35.5124C0.43-62.2926 22.1539-84 48.9411-84ZM48.9424-70C29.8835-70 14.43-54.5582 14.43-35.5124C14.43-16.458 29.888-0.999999 48.9424-0.999999C67.9909-0.999999 83.43-16.4519 83.43-35.5138C83.4309-40.0428 82.5395-44.5276 80.8069-48.7121C79.0739-52.8969 76.5337-56.6989 73.3311-59.9013C70.1287-63.1038 66.3266-65.644 62.1422-67.3767C57.9578-69.1095 53.4729-70.0009 48.9424-70Z"/>
  </g>
  <g id="Regular-S" transform="matrix(1 0 0 1 1403.58 696)">
   <path class="monochrome-0 multicolor-0:tintColor hierarchical-0:primary SFSymbolsPreviewWireframe" d="M65.9905-11.7262C65.8667-11.6413 65.7428-11.5174 65.6154-11.4785C65.2616-11.3794 64.9431-11.7333 64.614-11.9703C64.3274-12.1791 64.0479-12.4268 63.7259-12.4586C63.4347-12.4717 63.1488-12.5446 62.8873-12.6731C62.6254-12.8015 62.3929-12.9827 62.2043-13.2053C61.8434-13.6193 61.4082-13.7183 61.0083-13.9554C60.8951-14.0226 60.7854-14.0969 60.6757-14.1394C60.5448-14.1889 60.4103-14.2066 60.2794-14.2456C60.2122-14.2633 60.1379-14.2597 60.0777-14.3234C59.8831-14.5357 59.6956-14.7834 59.501-14.9886C59.2055-15.294 58.9001-15.5891 58.5845-15.8733C58.3722-16.0643 58.1563-16.2059 57.9405-16.3722C57.7883-16.4925 57.6433-16.6305 57.4876-16.7331C56.8507-17.1648 56.2137-17.6106 55.5733-17.9963C55.2407-18.198 54.8939-18.2936 54.5542-18.428C54.5011-18.4493 54.441-18.4351 54.3879-18.4103C54.2262-18.3367 54.05-18.3003 53.8723-18.3042C53.6947-18.3077 53.5203-18.3512 53.3617-18.4316C53.2414-18.4917 53.1353-18.6686 53.022-18.7854C52.7496-19.0756 52.4807-19.4011 52.1976-19.6417C51.8543-19.9319 51.4899-19.7762 51.1431-19.6877C50.7362-19.5886 50.3293-19.4046 49.9259-19.256C49.7313-19.1853 49.5296-19.1251 49.335-19.0437C49.0342-18.9163 48.7334-18.7713 48.4327-18.6439C48.3619-18.612 48.2911-18.6226 48.2203-18.6014L47.8771-18.4846C47.863-18.4776 47.8488-18.4634 47.8347-18.4599C47.4914-18.3785 47.1517-18.3006 46.8085-18.2122C46.5396-18.1414 46.2707-18.0494 46.0017-17.9786C45.6479-17.8866 45.294-17.8194 44.9402-17.7168C44.65-17.6319 44.3634-17.5009 44.0733-17.4089C43.9034-17.3559 43.73-17.3453 43.5602-17.3063C43.4187-17.278 43.2842-17.2214 43.1462-17.2002C43.0011-17.1825 42.8525-17.2037 42.7074-17.1825C42.5411-17.1577 42.3748-17.1046 42.2085-17.0657C42.1873-17.0622 42.1731-17.048 42.1519-17.0516C41.8688-17.1046 41.5893-17.1789 41.3062-17.2143C41.062-17.2462 40.8179-17.2214 40.5737-17.2497C40.457-17.2568 40.3437-17.3276 40.227-17.37C40.1916-17.3842 40.1633-17.4125 40.1314-17.416L39.6502-17.4585C39.3317-17.4903 39.0133-17.5151 38.6948-17.5611C38.6205-17.5717 38.5533-17.6637 38.479-17.7062C38.2843-17.8265 38.0897-17.9822 37.8916-18.0423C37.6934-18.106 37.4882-18.0423 37.29-18.0954C36.9963-18.1697 36.7062-18.3042 36.416-18.4103C36.3523-18.4316 36.2887-18.4705 36.2285-18.4457C35.9065-18.3183 35.5916-18.7996 35.2696-18.5165C35.2448-18.4917 35.2059-18.5483 35.174-18.566C35.075-18.6226 34.9723-18.7429 34.8733-18.7288C34.6256-18.6934 34.3779-18.5873 34.1267-18.52C33.971-18.4776 33.8117-18.4811 33.6596-18.4139C33.5322-18.3608 33.4119-18.2157 33.2739-18.3573C33.2314-18.3997 33.1607-18.3289 33.104-18.3042C33.0687-18.29 33.0333-18.2228 33.0085-18.244C32.828-18.4209 32.6617-18.1839 32.4919-18.152C32.3574-18.1237 32.2194-18.2051 32.085-18.2582C31.8337-18.3466 31.579-18.4245 31.3313-18.5625C31.1402-18.6686 30.9597-18.8526 30.7757-19.0048C30.7687-19.0083 30.7616-19.0225 30.7545-19.0225C30.4007-19.1286 30.1247-19.6099 29.8239-19.9566C29.5939-20.222 29.3851-20.5829 29.1693-20.9085C29.1321-20.9672 29.1091-21.0337 29.102-21.1031C29.0773-21.4923 28.9393-21.6693 28.8331-21.9169C28.5035-22.6639 28.275-23.4516 28.1537-24.2591C28.0971-24.62 28.1042-25.0269 28.0547-25.3914C27.9556-26.1026 28.0334-26.7926 28.0759-27.4861C28.09-27.7161 28.1254-27.9532 28.175-28.1549C28.2988-28.6432 28.4368-29.1103 28.5642-29.5915C28.642-29.8675 28.5996-30.1081 28.458-30.1683C28.044-30.3452 27.63-30.5009 27.2196-30.6849C27.0285-30.7663 26.8445-30.9043 26.657-31.0069C26.1757-31.2758 25.698-31.5731 25.2097-31.796C24.9231-31.9304 24.6259-31.9658 24.3287-32.0189C24.035-32.072 23.7342-32.0897 23.437-32.1286C23.0088-32.1887 22.5771-32.2347 22.1454-32.3197C21.9331-32.3621 21.7279-32.4718 21.5191-32.5709C21.4802-32.5921 21.4236-32.6983 21.42-32.7655C21.42-32.8611 21.4554-33.0026 21.4908-33.0451C21.5753-33.1445 21.6788-33.2262 21.7951-33.2857C22.3259-33.5263 22.8567-33.7634 23.3874-33.9757C23.6103-34.0641 23.8474-34.0818 24.0739-34.1455C24.7073-34.3224 25.3371-34.4887 25.9705-34.6834C26.3668-34.8037 26.7631-34.9664 27.1594-35.1044C27.3151-35.1575 27.4779-35.1929 27.6336-35.2354C28.0936-35.3627 28.5005-35.8157 28.8968-36.3323C29.226-36.7619 29.5731-37.1773 29.9371-37.5778C30.0433-37.6946 30.1848-37.6344 30.3016-37.7264C30.4714-37.8609 30.6271-37.8751 30.804-37.7371C30.9314-37.638 31.0871-37.7264 31.2216-37.6663C31.4268-37.5778 31.625-37.4292 31.8267-37.3054C31.8408-37.2983 31.8514-37.2629 31.8656-37.2594L32.5025-36.9834C32.5741-36.9543 32.6383-36.9098 32.69-36.8524C33.0793-36.3995 33.4756-35.9784 33.7976-35.2884C33.8471-35.1858 33.9745-35.1752 34.0453-35.2424C34.2576-35.4406 34.484-35.5927 34.6256-36.074C34.6716-36.2261 34.7777-36.304 34.8627-36.3783C35.121-36.6012 35.2236-37.1461 35.1457-37.7264C35.0325-38.5615 34.9511-39.4107 34.8485-40.2525C34.8202-40.5073 34.7636-40.7479 34.7247-40.9956C34.615-41.6679 34.5407-42.3756 34.3956-43.0019C34.2187-43.7662 34.0665-44.5907 33.7516-45.1675C33.6808-45.2949 33.6419-45.5036 33.5959-45.6841C33.4897-46.1512 33.2597-46.2573 33.0828-45.8964C32.8599-45.4329 32.6087-45.1109 32.2973-45.1179C32.1203-45.1179 31.9434-45.1392 31.77-45.1675C31.5648-45.1958 31.356-45.2665 31.1473-45.2665C31.0659-45.2665 30.9491-45.1745 30.9067-45.0365C30.7403-44.5058 30.5103-44.3855 30.2485-44.4279C29.9867-44.4704 29.7142-44.4845 29.463-44.6544C29.1127-44.8879 28.7765-45.2382 28.4403-45.5744C28.2316-45.7832 28.1608-45.7265 28.136-45.217C28.1183-44.8879 28.0228-44.7747 27.899-44.8278C27.6175-44.9537 27.3435-45.0956 27.078-45.2524C26.94-45.338 26.8128-45.4403 26.6994-45.5567C26.5437-45.7053 26.3916-45.8822 26.2394-46.0521C25.974-46.3564 25.7582-46.8907 25.4397-46.9827C25.3654-47.0075 25.2734-47.0181 25.2097-46.9403C24.9939-46.6678 24.7922-46.7456 24.5834-46.9827C24.449-47.1384 24.3003-47.2446 24.173-47.425C23.996-47.6798 23.8333-48.0195 23.6528-48.2636C23.26-48.7944 23.0265-49.679 22.7151-50.3796C22.4851-50.8962 22.3507-51.618 22.149-52.2089C21.8871-52.9732 21.873-53.9073 21.7597-54.7743C21.6217-55.8782 21.7173-56.9751 21.8163-58.0685C21.8553-58.5108 21.8659-58.9708 21.9296-59.3918C21.965-59.6395 22.0817-59.8377 22.1667-60.05C22.195-60.1208 22.2551-60.1561 22.2693-60.2269C22.3754-60.8921 22.6408-60.8496 22.8708-60.9133C23.1189-60.985 23.3776-61.0125 23.6351-60.9947C23.8262-60.9841 24.0208-60.8532 24.2154-60.8178C24.3216-60.7966 24.4313-60.8709 24.541-60.8886C24.6135-60.9087 24.6897-60.9123 24.7639-60.8992C25.0399-60.8284 25.3194-60.7506 25.5954-60.6586C25.7334-60.6126 25.8643-60.4746 25.9988-60.464C26.3845-60.4286 26.7419-60.1668 27.0957-59.8872C27.3894-59.6643 27.6902-59.4874 27.9874-59.314C28.5536-58.9849 29.1197-58.67 29.6859-58.3586C29.9336-58.2242 30.1883-58.1145 30.4396-57.9906C30.4997-57.9588 30.5599-57.8986 30.6165-57.8597C30.804-57.7359 30.988-57.6085 31.1756-57.4953C31.4587-57.3183 31.7488-57.1591 32.0354-56.9822C32.4813-56.7098 32.9307-56.4231 33.38-56.1578C33.649-55.9985 33.925-55.8924 34.1903-55.719C34.5937-55.4536 34.99-55.1316 35.397-54.8698C35.6871-54.6858 35.9879-54.6044 36.2745-54.4098C36.5717-54.2152 36.8548-53.9215 37.1485-53.7021C37.513-53.4261 37.8845-53.1926 38.249-52.9272C38.4188-52.8069 38.5816-52.6583 38.7514-52.5274C38.8293-52.4637 38.9107-52.4247 38.9885-52.3611C39.1654-52.2196 39.3423-52.0745 39.5193-51.9117C39.8448-51.6145 40.1633-51.2889 40.4888-50.9988C40.7082-50.8042 40.9347-50.652 41.1611-50.4751C41.331-50.3442 41.5114-50.2522 41.6671-50.0576C41.9502-49.7108 42.212-49.2933 42.488-48.9218C42.5609-48.8083 42.6575-48.7117 42.7711-48.6387C43.1674-48.4405 43.3727-47.7187 43.631-47.1349C43.8362-46.6678 44.0237-46.1582 44.2219-45.6699C44.2502-45.6062 44.2891-45.5673 44.321-45.5142C44.3917-45.4081 44.466-45.309 44.5262-45.1816C44.6147-44.9941 44.696-44.7853 44.7739-44.5836C44.9119-44.251 45.0428-43.9042 45.1808-43.5787C45.2445-43.4301 45.3365-43.3381 45.4037-43.1895C45.5807-42.8109 45.7576-42.4145 45.9274-42.0182C46.0088-41.8272 46.0619-41.8909 46.122-42.0784C46.2247-42.3898 46.3273-42.7082 46.4405-42.9913C46.7696-43.7804 47.1022-44.5482 47.4313-45.3302C47.64-45.8256 47.87-46.2856 48.0399-46.8341C48.2522-47.5064 48.4397-48.2353 48.5813-48.9925C48.7051-49.6684 48.7865-50.4079 48.8183-51.1332C48.8537-52.0709 48.8113-53.0227 48.829-53.9675C48.8396-54.5336 48.9599-54.9972 49.204-55.2519C49.5614-55.6199 49.9153-56.0091 50.2797-56.3524C50.4213-56.4868 50.577-56.5293 50.7291-56.6142C50.9202-56.7204 51.1148-56.8407 51.3094-56.9433C51.8402-57.2263 52.3745-57.4245 52.93-57.3643C53.475-57.3042 54.0163-57.3537 54.5577-57.3643C54.7453-57.3643 54.9328-57.4245 55.1168-57.4103C55.5131-57.3856 55.9094-57.3183 56.3057-57.29C56.5534-57.2723 56.8011-57.3113 57.0488-57.3006C57.1797-57.2971 57.3142-57.2369 57.4451-57.2086L59.5151-56.7558C59.7628-56.7027 60.0105-56.6779 60.2582-56.6107C60.6333-56.5045 61.0083-56.363 61.3834-56.2533C61.571-56.1967 61.762-56.1931 61.9496-56.1259C62.1017-56.0728 62.2503-55.9419 62.4025-55.8782C62.6856-55.7579 62.9687-55.6659 63.2517-55.5598C63.8037-55.3546 64.3557-55.1599 64.9113-54.9476C65.1342-54.8627 65.3536-54.7459 65.5765-54.6469C65.8136-54.5407 66.0577-54.4629 66.2913-54.3284C66.6062-54.1444 66.914-53.9038 67.2254-53.7092C67.3139-53.6526 67.4094-53.6738 67.5014-53.6314C67.5616-53.5995 67.6182-53.5181 67.6783-53.4686C67.7774-53.3907 67.873-53.3094 67.972-53.2492C68.2197-53.0971 68.471-52.9555 68.7222-52.8211C68.9345-52.7007 69.1539-52.5627 69.3733-52.492C69.9394-52.3151 70.4136-51.6428 70.916-51.1226C70.9412-51.0874 70.956-51.0456 70.9585-51.0023C70.9514-50.9492 70.9231-50.8785 70.9019-50.8749C70.8099-50.8643 70.7143-50.8926 70.6223-50.8679C70.4702-50.8289 70.318-50.7405 70.1623-50.7016C69.9677-50.6556 69.7731-50.6485 69.575-50.6096C69.3167-50.5636 69.0619-50.5034 68.8036-50.4539C68.7859-50.4504 68.7682-50.4185 68.7505-50.4256C68.5665-50.5211 68.3967-50.4114 68.2197-50.3053C67.9968-50.1744 67.7597-50.1637 67.5333-50.1071C67.19-50.0151 66.8468-49.9337 66.5071-49.8276C66.27-49.7568 66.04-49.64 65.803-49.5622C65.5128-49.4667 65.2191-49.4065 64.929-49.3004C64.7025-49.2154 64.4796-49.0704 64.2531-48.9819C63.9807-48.8758 63.7047-48.8262 63.4393-48.7059C62.9297-48.4795 62.4202-48.2707 61.9637-47.6798C61.9032-47.5595 61.8671-47.4284 61.8576-47.2941C61.7903-46.8235 61.7373-46.3422 61.6807-45.8645C61.5993-45.1639 61.5214-44.4633 61.433-43.7662C61.4153-43.6035 61.3551-43.469 61.3233-43.3169C61.2454-42.963 61.21-42.503 61.0897-42.273C60.7359-41.6149 60.5943-40.5427 60.1768-40.0123C60.0707-39.8743 60.007-39.5523 59.9185-39.3329C59.7487-38.9154 59.5682-38.512 59.4019-38.0944C59.3134-37.8715 59.2427-37.6132 59.1542-37.3974C59.0551-37.1567 58.9419-36.9409 58.8322-36.7251C58.726-36.5198 58.6093-36.3358 58.5031-36.1271C58.2307-35.5998 57.9582-35.0797 57.7777-34.3649C57.7282-34.1809 57.6327-34.0571 57.5548-33.9155L57.0594-33.0097C56.9073-32.7266 56.7587-32.4329 56.5994-32.1604C56.4579-31.9127 56.2987-31.7004 56.1536-31.4634C56.005-31.2263 55.8634-30.9821 55.7148-30.7521C55.6398-30.6403 55.557-30.5338 55.4671-30.4337C55.3963-30.3523 55.315-30.3169 55.2548-30.2143C55.0177-29.7932 54.7347-29.5491 54.4622-29.2589C54.4098-29.2023 54.367-29.1379 54.3348-29.0678C54.0482-28.4557 53.6554-28.2752 53.3193-27.8577C53.2167-27.7267 53.0787-27.7515 52.9654-27.656C52.785-27.5074 52.6116-27.3198 52.4347-27.1429C52.3603-27.0651 52.2931-26.966 52.2188-26.8952C52.0171-26.7041 51.8083-26.5626 51.6173-26.3361C51.4071-26.0842 51.2942-25.7654 51.2988-25.4374C51.2988-25.3807 51.2882-25.2958 51.2988-25.2711C51.4262-24.9986 51.5465-24.712 51.688-24.4749C51.8473-24.1918 52.0207-23.9551 52.194-23.7039C52.2931-23.5623 52.3993-23.4385 52.4983-23.2934C52.5833-23.1696 52.654-22.9891 52.746-22.89C53.2701-22.2892 53.8585-21.7482 54.5011-21.2765C54.6993-21.1279 54.9116-21.0465 55.1097-20.9014C55.4105-20.682 55.7042-20.4308 56.0014-20.1937C56.1076-20.1123 56.0863-20.0026 56.0297-19.8399C55.9767-19.6877 55.8882-19.4789 55.9059-19.3409C55.9342-19.0543 56.0687-19.026 56.189-18.98C56.3836-18.9022 56.5711-18.75 56.7622-18.6262C57.0347-18.4493 57.3107-18.2723 57.5831-18.0813C58.0997-17.7274 58.6093-17.3488 59.1294-17.0197C59.5717-16.7331 60.0176-16.4783 60.4882-16.8499C60.704-17.0233 60.9447-17.0622 61.1676-17.2037C61.4436-17.3806 61.7125-17.5894 61.985-17.7946C62.1831-17.9397 62.6396-17.7699 62.7387-17.4762C62.7705-17.3806 62.774-17.2391 62.7953-17.1223L62.6502-17.0516C62.6254-17.0445 62.5971-17.0516 62.5723-17.0445C62.2539-16.9136 61.9354-16.8039 61.6205-16.6376C61.5143-16.5809 61.4294-16.3757 61.3339-16.2377C61.4188-16.1033 61.5002-15.8945 61.5957-15.8414C61.9319-15.6574 62.2716-15.5336 62.6113-15.3743C62.6849-15.3418 62.7457-15.2859 62.7847-15.2151C63.0783-14.6737 63.4322-14.7091 63.779-14.6773C63.8851-14.6666 63.9842-14.6136 64.0868-14.5569C64.246-14.472 64.4053-14.3906 64.5574-14.2633C64.6459-14.1925 64.7237-14.0545 64.7945-13.9165C64.8582-13.7926 64.9007-13.6193 64.9608-13.4777C65.0811-13.1946 65.2085-13.0036 65.396-13.1946C65.4314-13.2265 65.481-13.1805 65.5163-13.1451C65.5255-13.0793 65.5234-13.0121 65.5093-12.9469C65.4491-12.7417 65.35-12.5046 65.4527-12.3029C65.5517-12.1119 65.6933-12.0269 65.8207-11.9137C65.8667-11.8748 65.9197-11.896 65.9728-11.8925L65.9905-11.7262L65.9905-11.7262Z"/>
   <path class="monochrome-1 multicolor-1:tintColor hierarchical-1:tertiary SFSymbolsPreviewWireframe" d="M46.4321-81.8365C52.4502-81.8377 58.4096-80.6532 63.9698-78.3508C69.53-76.0483 74.5822-72.6729 78.8374-68.4176C83.0928-64.1624 86.4682-59.1103 88.771-53.5496C91.0733-47.9892 92.2577-42.03 92.2566-36.0127C92.2566-10.693 71.744 9.83658 46.4328 9.83658C21.1173 9.83658 0.5835-10.6972 0.5835-36.0127C0.5835-61.3211 21.1145-81.8365 46.4321-81.8365ZM46.4328-75.0865C24.8413-75.0865 7.3335-57.592 7.3335-36.0127C7.3335-14.4252 24.8452 3.08658 46.4328 3.08658C68.0148 3.08658 85.5066-14.4197 85.5066-36.0133C85.5076-41.1447 84.4976-46.226 82.5345-50.9672C80.571-55.7085 77.693-60.0162 74.0644-63.6446C70.4361-67.273 66.1283-70.1511 61.3873-72.1143C56.6463-74.0776 51.5649-75.0875 46.4328-75.0865Z"/>
  </g>
  <g id="Ultralight-S" transform="matrix(1 0 0 1 515.649 696)">
   <path class="monochrome-0 multicolor-0:tintColor hierarchical-0:primary SFSymbolsPreviewWireframe" d="M63.9215-12.7262C63.7977-12.6413 63.6738-12.5174 63.5464-12.4785C63.1926-12.3794 62.8741-12.7333 62.545-12.9703C62.2584-13.1791 61.9789-13.4268 61.6569-13.4586C61.3657-13.4717 61.0798-13.5446 60.8183-13.6731C60.5564-13.8015 60.3239-13.9827 60.1353-14.2053C59.7744-14.6193 59.3392-14.7183 58.9393-14.9554C58.8261-15.0226 58.7164-15.0969 58.6067-15.1394C58.4758-15.1889 58.3413-15.2066 58.2104-15.2456C58.1432-15.2633 58.0689-15.2597 58.0087-15.3234C57.8141-15.5357 57.6266-15.7834 57.432-15.9886C57.1365-16.294 56.8311-16.5891 56.5155-16.8733C56.3032-17.0643 56.0873-17.2059 55.8715-17.3722C55.7193-17.4925 55.5743-17.6305 55.4186-17.7331C54.7817-18.1648 54.1447-18.6106 53.5043-18.9963C53.1717-19.198 52.8249-19.2936 52.4852-19.428C52.4321-19.4493 52.372-19.4351 52.3189-19.4103C52.1572-19.3367 51.981-19.3003 51.8033-19.3042C51.6257-19.3077 51.4513-19.3512 51.2927-19.4316C51.1724-19.4917 51.0663-19.6686 50.953-19.7854C50.6806-20.0756 50.4117-20.4011 50.1286-20.6417C49.7853-20.9319 49.4209-20.7762 49.0741-20.6877C48.6672-20.5886 48.2603-20.4046 47.8569-20.256C47.6623-20.1853 47.4606-20.1251 47.266-20.0437C46.9652-19.9163 46.6644-19.7713 46.3637-19.6439C46.2929-19.612 46.2221-19.6226 46.1513-19.6014L45.8081-19.4846C45.794-19.4776 45.7798-19.4634 45.7657-19.4599C45.4224-19.3785 45.0827-19.3006 44.7395-19.2122C44.4706-19.1414 44.2017-19.0494 43.9327-18.9786C43.5789-18.8866 43.225-18.8194 42.8712-18.7168C42.581-18.6319 42.2944-18.5009 42.0043-18.4089C41.8344-18.3559 41.661-18.3453 41.4912-18.3063C41.3497-18.278 41.2152-18.2214 41.0772-18.2002C40.9321-18.1825 40.7835-18.2037 40.6384-18.1825C40.4721-18.1577 40.3058-18.1046 40.1395-18.0657C40.1183-18.0622 40.1041-18.048 40.0829-18.0516C39.7998-18.1046 39.5203-18.1789 39.2372-18.2143C38.993-18.2462 38.7489-18.2214 38.5047-18.2497C38.388-18.2568 38.2747-18.3276 38.158-18.37C38.1226-18.3842 38.0943-18.4125 38.0624-18.416L37.5812-18.4585C37.2627-18.4903 36.9443-18.5151 36.6258-18.5611C36.5515-18.5717 36.4843-18.6637 36.41-18.7062C36.2153-18.8265 36.0207-18.9822 35.8226-19.0423C35.6244-19.106 35.4192-19.0423 35.221-19.0954C34.9273-19.1697 34.6372-19.3042 34.347-19.4103C34.2833-19.4316 34.2197-19.4705 34.1595-19.4457C33.8375-19.3183 33.5226-19.7996 33.2006-19.5165C33.1758-19.4917 33.1369-19.5483 33.105-19.566C33.006-19.6226 32.9033-19.7429 32.8043-19.7288C32.5566-19.6934 32.3089-19.5873 32.0577-19.52C31.902-19.4776 31.7427-19.4811 31.5906-19.4139C31.4632-19.3608 31.3429-19.2157 31.2049-19.3573C31.1624-19.3997 31.0917-19.3289 31.035-19.3042C30.9997-19.29 30.9643-19.2228 30.9395-19.244C30.759-19.4209 30.5927-19.1839 30.4229-19.152C30.2884-19.1237 30.1504-19.2051 30.016-19.2582C29.7647-19.3466 29.51-19.4245 29.2623-19.5625C29.0712-19.6686 28.8907-19.8526 28.7067-20.0048C28.6997-20.0083 28.6926-20.0225 28.6855-20.0225C28.3317-20.1286 28.0557-20.6099 27.7549-20.9566C27.5249-21.222 27.3161-21.5829 27.1003-21.9085C27.0631-21.9672 27.0401-22.0337 27.033-22.1031C27.0083-22.4923 26.8703-22.6693 26.7641-22.9169C26.4345-23.6639 26.206-24.4516 26.0847-25.2591C26.0281-25.62 26.0352-26.0269 25.9857-26.3914C25.8866-27.1026 25.9644-27.7926 26.0069-28.4861C26.021-28.7161 26.0564-28.9532 26.106-29.1549C26.2298-29.6432 26.3678-30.1103 26.4952-30.5915C26.573-30.8675 26.5306-31.1081 26.389-31.1683C25.975-31.3452 25.561-31.5009 25.1506-31.6849C24.9595-31.7663 24.7755-31.9043 24.588-32.0069C24.1067-32.2758 23.629-32.5731 23.1407-32.796C22.8541-32.9304 22.5569-32.9658 22.2597-33.0189C21.966-33.072 21.6652-33.0897 21.368-33.1286C20.9398-33.1887 20.5081-33.2347 20.0764-33.3197C19.8641-33.3621 19.6589-33.4718 19.4501-33.5709C19.4112-33.5921 19.3546-33.6983 19.351-33.7655C19.351-33.8611 19.3864-34.0026 19.4218-34.0451C19.5063-34.1445 19.6098-34.2262 19.7261-34.2857C20.2569-34.5263 20.7877-34.7634 21.3184-34.9757C21.5413-35.0641 21.7784-35.0818 22.0049-35.1455C22.6383-35.3224 23.2681-35.4887 23.9015-35.6834C24.2978-35.8037 24.6941-35.9664 25.0904-36.1044C25.2461-36.1575 25.4089-36.1929 25.5646-36.2354C26.0246-36.3627 26.4315-36.8157 26.8278-37.3323C27.157-37.7619 27.5041-38.1773 27.8681-38.5778C27.9743-38.6946 28.1158-38.6344 28.2326-38.7264C28.4024-38.8609 28.5581-38.8751 28.735-38.7371C28.8624-38.638 29.0181-38.7264 29.1526-38.6663C29.3578-38.5778 29.556-38.4292 29.7577-38.3054C29.7718-38.2983 29.7824-38.2629 29.7966-38.2594L30.4335-37.9834C30.5051-37.9543 30.5693-37.9098 30.621-37.8524C31.0103-37.3995 31.4066-36.9784 31.7286-36.2884C31.7781-36.1858 31.9055-36.1752 31.9763-36.2424C32.1886-36.4406 32.415-36.5927 32.5566-37.074C32.6026-37.2261 32.7087-37.304 32.7937-37.3783C33.052-37.6012 33.1546-38.1461 33.0767-38.7264C32.9635-39.5615 32.8821-40.4107 32.7795-41.2525C32.7512-41.5073 32.6946-41.7479 32.6557-41.9956C32.546-42.6679 32.4717-43.3756 32.3266-44.0019C32.1497-44.7662 31.9975-45.5907 31.6826-46.1675C31.6118-46.2949 31.5729-46.5036 31.5269-46.6841C31.4207-47.1512 31.1907-47.2573 31.0138-46.8964C30.7909-46.4329 30.5397-46.1109 30.2283-46.1179C30.0513-46.1179 29.8744-46.1392 29.701-46.1675C29.4958-46.1958 29.287-46.2665 29.0783-46.2665C28.9969-46.2665 28.8801-46.1745 28.8377-46.0365C28.6713-45.5058 28.4413-45.3855 28.1795-45.4279C27.9177-45.4704 27.6452-45.4845 27.394-45.6544C27.0437-45.8879 26.7075-46.2382 26.3713-46.5744C26.1626-46.7832 26.0918-46.7265 26.067-46.217C26.0493-45.8879 25.9538-45.7747 25.83-45.8278C25.5485-45.9537 25.2745-46.0956 25.009-46.2524C24.871-46.338 24.7438-46.4403 24.6304-46.5567C24.4747-46.7053 24.3226-46.8822 24.1704-47.0521C23.905-47.3564 23.6892-47.8907 23.3707-47.9827C23.2964-48.0075 23.2044-48.0181 23.1407-47.9403C22.9249-47.6678 22.7232-47.7456 22.5144-47.9827C22.38-48.1384 22.2313-48.2446 22.104-48.425C21.927-48.6798 21.7643-49.0195 21.5838-49.2636C21.191-49.7944 20.9575-50.679 20.6461-51.3796C20.4161-51.8962 20.2817-52.618 20.08-53.2089C19.8181-53.9732 19.804-54.9073 19.6907-55.7743C19.5527-56.8782 19.6483-57.9751 19.7473-59.0685C19.7863-59.5108 19.7969-59.9708 19.8606-60.3918C19.896-60.6395 20.0127-60.8377 20.0977-61.05C20.126-61.1208 20.1861-61.1561 20.2003-61.2269C20.3064-61.8921 20.5718-61.8496 20.8018-61.9133C21.0499-61.985 21.3086-62.0125 21.5661-61.9947C21.7572-61.9841 21.9518-61.8532 22.1464-61.8178C22.2526-61.7966 22.3623-61.8709 22.472-61.8886C22.5445-61.9087 22.6207-61.9123 22.6949-61.8992C22.9709-61.8284 23.2504-61.7506 23.5264-61.6586C23.6644-61.6126 23.7953-61.4746 23.9298-61.464C24.3155-61.4286 24.6729-61.1668 25.0267-60.8872C25.3204-60.6643 25.6212-60.4874 25.9184-60.314C26.4846-59.9849 27.0507-59.67 27.6169-59.3586C27.8646-59.2242 28.1193-59.1145 28.3706-58.9906C28.4307-58.9588 28.4909-58.8986 28.5475-58.8597C28.735-58.7359 28.919-58.6085 29.1066-58.4953C29.3897-58.3183 29.6798-58.1591 29.9664-57.9822C30.4123-57.7098 30.8617-57.4231 31.311-57.1578C31.58-56.9985 31.856-56.8924 32.1213-56.719C32.5247-56.4536 32.921-56.1316 33.328-55.8698C33.6181-55.6858 33.9189-55.6044 34.2055-55.4098C34.5027-55.2152 34.7858-54.9215 35.0795-54.7021C35.444-54.4261 35.8155-54.1926 36.18-53.9272C36.3498-53.8069 36.5126-53.6583 36.6824-53.5274C36.7603-53.4637 36.8417-53.4247 36.9195-53.3611C37.0964-53.2196 37.2733-53.0745 37.4503-52.9117C37.7758-52.6145 38.0943-52.2889 38.4198-51.9988C38.6392-51.8042 38.8657-51.652 39.0921-51.4751C39.262-51.3442 39.4424-51.2522 39.5981-51.0576C39.8812-50.7108 40.143-50.2933 40.419-49.9218C40.4919-49.8083 40.5885-49.7117 40.7021-49.6387C41.0984-49.4405 41.3037-48.7187 41.562-48.1349C41.7672-47.6678 41.9547-47.1582 42.1529-46.6699C42.1812-46.6062 42.2201-46.5673 42.252-46.5142C42.3227-46.4081 42.397-46.309 42.4572-46.1816C42.5457-45.9941 42.627-45.7853 42.7049-45.5836C42.8429-45.251 42.9738-44.9042 43.1118-44.5787C43.1755-44.4301 43.2675-44.3381 43.3347-44.1895C43.5117-43.8109 43.6886-43.4145 43.8584-43.0182C43.9398-42.8272 43.9929-42.8909 44.053-43.0784C44.1557-43.3898 44.2583-43.7082 44.3715-43.9913C44.7006-44.7804 45.0332-45.5482 45.3623-46.3302C45.571-46.8256 45.801-47.2856 45.9709-47.8341C46.1832-48.5064 46.3707-49.2353 46.5123-49.9925C46.6361-50.6684 46.7175-51.4079 46.7493-52.1332C46.7847-53.0709 46.7423-54.0227 46.76-54.9675C46.7706-55.5336 46.8909-55.9972 47.135-56.2519C47.4924-56.6199 47.8463-57.0091 48.2107-57.3524C48.3523-57.4868 48.508-57.5293 48.6601-57.6142C48.8512-57.7204 49.0458-57.8407 49.2404-57.9433C49.7712-58.2263 50.3055-58.4245 50.861-58.3643C51.406-58.3042 51.9473-58.3537 52.4887-58.3643C52.6763-58.3643 52.8638-58.4245 53.0478-58.4103C53.4441-58.3856 53.8404-58.3183 54.2367-58.29C54.4844-58.2723 54.7321-58.3113 54.9798-58.3006C55.1107-58.2971 55.2452-58.2369 55.3761-58.2086L57.4461-57.7558C57.6938-57.7027 57.9415-57.6779 58.1892-57.6107C58.5643-57.5045 58.9393-57.363 59.3144-57.2533C59.502-57.1967 59.693-57.1931 59.8806-57.1259C60.0327-57.0728 60.1813-56.9419 60.3335-56.8782C60.6166-56.7579 60.8997-56.6659 61.1827-56.5598C61.7347-56.3546 62.2867-56.1599 62.8423-55.9476C63.0652-55.8627 63.2846-55.7459 63.5075-55.6469C63.7446-55.5407 63.9887-55.4629 64.2223-55.3284C64.5372-55.1444 64.845-54.9038 65.1564-54.7092C65.2449-54.6526 65.3404-54.6738 65.4324-54.6314C65.4926-54.5995 65.5492-54.5181 65.6093-54.4686C65.7084-54.3907 65.804-54.3094 65.903-54.2492C66.1507-54.0971 66.402-53.9555 66.6532-53.8211C66.8655-53.7007 67.0849-53.5627 67.3043-53.492C67.8704-53.3151 68.3446-52.6428 68.847-52.1226C68.8722-52.0874 68.887-52.0456 68.8895-52.0023C68.8824-51.9492 68.8541-51.8785 68.8329-51.8749C68.7409-51.8643 68.6453-51.8926 68.5533-51.8679C68.4012-51.8289 68.249-51.7405 68.0933-51.7016C67.8987-51.6556 67.7041-51.6485 67.506-51.6096C67.2477-51.5636 66.9929-51.5034 66.7346-51.4539C66.7169-51.4504 66.6992-51.4185 66.6815-51.4256C66.4975-51.5211 66.3277-51.4114 66.1507-51.3053C65.9278-51.1744 65.6907-51.1637 65.4643-51.1071C65.121-51.0151 64.7778-50.9337 64.4381-50.8276C64.201-50.7568 63.971-50.64 63.734-50.5622C63.4438-50.4667 63.1501-50.4065 62.86-50.3004C62.6335-50.2154 62.4106-50.0704 62.1841-49.9819C61.9117-49.8758 61.6357-49.8262 61.3703-49.7059C60.8607-49.4795 60.3512-49.2707 59.8947-48.6798C59.8342-48.5595 59.7981-48.4284 59.7886-48.2941C59.7213-47.8235 59.6683-47.3422 59.6117-46.8645C59.5303-46.1639 59.4524-45.4633 59.364-44.7662C59.3463-44.6035 59.2861-44.469 59.2543-44.3169C59.1764-43.963 59.141-43.503 59.0207-43.273C58.6669-42.6149 58.5253-41.5427 58.1078-41.0123C58.0017-40.8743 57.938-40.5523 57.8495-40.3329C57.6797-39.9154 57.4992-39.512 57.3329-39.0944C57.2444-38.8715 57.1737-38.6132 57.0852-38.3974C56.9861-38.1567 56.8729-37.9409 56.7632-37.7251C56.657-37.5198 56.5403-37.3358 56.4341-37.1271C56.1617-36.5998 55.8892-36.0797 55.7087-35.3649C55.6592-35.1809 55.5637-35.0571 55.4858-34.9155L54.9904-34.0097C54.8383-33.7266 54.6897-33.4329 54.5304-33.1604C54.3889-32.9127 54.2297-32.7004 54.0846-32.4634C53.936-32.2263 53.7944-31.9821 53.6458-31.7521C53.5708-31.6403 53.488-31.5338 53.3981-31.4337C53.3273-31.3523 53.246-31.3169 53.1858-31.2143C52.9487-30.7932 52.6657-30.5491 52.3932-30.2589C52.3408-30.2023 52.298-30.1379 52.2658-30.0678C51.9792-29.4557 51.5864-29.2752 51.2503-28.8577C51.1477-28.7267 51.0097-28.7515 50.8964-28.656C50.716-28.5074 50.5426-28.3198 50.3657-28.1429C50.2913-28.0651 50.2241-27.966 50.1498-27.8952C49.9481-27.7041 49.7393-27.5626 49.5483-27.3361C49.3381-27.0842 49.2252-26.7654 49.2298-26.4374C49.2298-26.3807 49.2192-26.2958 49.2298-26.2711C49.3572-25.9986 49.4775-25.712 49.619-25.4749C49.7783-25.1918 49.9517-24.9551 50.125-24.7039C50.2241-24.5623 50.3303-24.4385 50.4293-24.2934C50.5143-24.1696 50.585-23.9891 50.677-23.89C51.2011-23.2892 51.7895-22.7482 52.4321-22.2765C52.6303-22.1279 52.8426-22.0465 53.0407-21.9014C53.3415-21.682 53.6352-21.4308 53.9324-21.1937C54.0386-21.1123 54.0173-21.0026 53.9607-20.8399C53.9077-20.6877 53.8192-20.4789 53.8369-20.3409C53.8652-20.0543 53.9997-20.026 54.12-19.98C54.3146-19.9022 54.5021-19.75 54.6932-19.6262C54.9657-19.4493 55.2417-19.2723 55.5141-19.0813C56.0307-18.7274 56.5403-18.3488 57.0604-18.0197C57.5027-17.7331 57.9486-17.4783 58.4192-17.8499C58.635-18.0233 58.8757-18.0622 59.0986-18.2037C59.3746-18.3806 59.6435-18.5894 59.916-18.7946C60.1141-18.9397 60.5706-18.7699 60.6697-18.4762C60.7015-18.3806 60.705-18.2391 60.7263-18.1223L60.5812-18.0516C60.5564-18.0445 60.5281-18.0516 60.5033-18.0445C60.1849-17.9136 59.8664-17.8039 59.5515-17.6376C59.4453-17.5809 59.3604-17.3757 59.2649-17.2377C59.3498-17.1033 59.4312-16.8945 59.5267-16.8414C59.8629-16.6574 60.2026-16.5336 60.5423-16.3743C60.6159-16.3418 60.6767-16.2859 60.7157-16.2151C61.0093-15.6737 61.3632-15.7091 61.71-15.6773C61.8161-15.6666 61.9152-15.6136 62.0178-15.5569C62.177-15.472 62.3363-15.3906 62.4884-15.2633C62.5769-15.1925 62.6547-15.0545 62.7255-14.9165C62.7892-14.7926 62.8317-14.6193 62.8918-14.4777C63.0121-14.1946 63.1395-14.0036 63.327-14.1946C63.3624-14.2265 63.412-14.1805 63.4473-14.1451C63.4565-14.0793 63.4544-14.0121 63.4403-13.9469C63.3801-13.7417 63.281-13.5046 63.3837-13.3029C63.4827-13.1119 63.6243-13.0269 63.7517-12.9137C63.7977-12.8748 63.8507-12.896 63.9038-12.8925L63.9215-12.7262L63.9215-12.7262Z"/>
   <path class="monochrome-1 multicolor-1:tintColor hierarchical-1:tertiary SFSymbolsPreviewWireframe" d="M44.3636-80.5865C50.0861-80.5876 55.7528-79.4613 61.04-77.272C66.3271-75.0826 71.1312-71.8729 75.1774-67.8265C79.2239-63.7803 82.4335-58.9764 84.6232-53.6889C86.8124-48.4015 87.9387-42.7349 87.9376-37.0127C87.9376-12.9352 68.432 6.58658 44.3638 6.58658C20.2909 6.58658 0.7645-12.9399 0.7645-37.0127C0.7645-61.0781 20.2877-80.5865 44.3636-80.5865ZM44.3638-78.3365C21.53-78.3365 3.0145-59.8351 3.0145-37.0127C3.0145-14.1825 21.5336 4.33658 44.3638 4.33658C67.1889 4.33658 85.6876-14.1774 85.6876-37.0129C85.6886-42.4398 84.6205-47.8138 82.5443-52.828C80.4678-57.8425 77.4239-62.3983 73.5865-66.2355C69.7491-70.073 65.1932-73.1168 60.1791-75.1931C55.1651-77.2695 49.791-78.3376 44.3638-78.3365Z"/>
  </g>
 </g>
</svg>
