<?xml version="1.0" encoding="UTF-8"?>
<!--Generator: Apple Native CoreSVG 341-->
<!DOCTYPE svg
PUBLIC "-//W3C//DTD SVG 1.1//EN"
       "http://www.w3.org/Graphics/SVG/1.1/DTD/svg11.dtd">
<svg version="1.1" xmlns="http://www.w3.org/2000/svg" xmlns:xlink="http://www.w3.org/1999/xlink" viewBox="0 0 3300 2200">
 <!--glyph: "", point size: 100.0, font version: "20.0d10e1", template writer version: "138.0.0"-->
 <style>.monochrome-0 {-sfsymbols-motion-group:1;-sfsymbols-layer-tags:784a0e34da845f60}
.monochrome-1 {-sfsymbols-motion-group:0;-sfsymbols-layer-tags:784a0e34da845f60}

.multicolor-0:tintColor {-sfsymbols-motion-group:1;-sfsymbols-layer-tags:784a0e34da845f60}
.multicolor-1:tintColor {-sfsymbols-motion-group:0;-sfsymbols-layer-tags:784a0e34da845f60}

.hierarchical-0:primary {-sfsymbols-motion-group:1;-sfsymbols-layer-tags:784a0e34da845f60}
.hierarchical-1:tertiary {-sfsymbols-motion-group:0;-sfsymbols-layer-tags:784a0e34da845f60}

.SFSymbolsPreviewWireframe {fill:none;opacity:1.0;stroke:black;stroke-width:0.5}
</style>
 <g id="Notes">
  <rect height="2200" id="artboard" style="fill:white;opacity:1" width="3300" x="0" y="0"/>
  <line style="fill:none;stroke:black;opacity:1;stroke-width:0.5;" x1="263" x2="3036" y1="292" y2="292"/>
  <text style="stroke:none;fill:black;font-family:sans-serif;font-size:13;font-weight:bold;" transform="matrix(1 0 0 1 263 322)">Weight/Scale Variations</text>
  <text style="stroke:none;fill:black;font-family:sans-serif;font-size:13;text-anchor:middle;" transform="matrix(1 0 0 1 559.711 322)">Ultralight</text>
  <text style="stroke:none;fill:black;font-family:sans-serif;font-size:13;text-anchor:middle;" transform="matrix(1 0 0 1 856.422 322)">Thin</text>
  <text style="stroke:none;fill:black;font-family:sans-serif;font-size:13;text-anchor:middle;" transform="matrix(1 0 0 1 1153.13 322)">Light</text>
  <text style="stroke:none;fill:black;font-family:sans-serif;font-size:13;text-anchor:middle;" transform="matrix(1 0 0 1 1449.84 322)">Regular</text>
  <text style="stroke:none;fill:black;font-family:sans-serif;font-size:13;text-anchor:middle;" transform="matrix(1 0 0 1 1746.56 322)">Medium</text>
  <text style="stroke:none;fill:black;font-family:sans-serif;font-size:13;text-anchor:middle;" transform="matrix(1 0 0 1 2043.27 322)">Semibold</text>
  <text style="stroke:none;fill:black;font-family:sans-serif;font-size:13;text-anchor:middle;" transform="matrix(1 0 0 1 2339.98 322)">Bold</text>
  <text style="stroke:none;fill:black;font-family:sans-serif;font-size:13;text-anchor:middle;" transform="matrix(1 0 0 1 2636.69 322)">Heavy</text>
  <text style="stroke:none;fill:black;font-family:sans-serif;font-size:13;text-anchor:middle;" transform="matrix(1 0 0 1 2933.4 322)">Black</text>
  <line style="fill:none;stroke:black;opacity:1;stroke-width:0.5;" x1="263" x2="3036" y1="1903" y2="1903"/>
  <g transform="matrix(0.2 0 0 0.2 263 1933)">
   <path d="m46.2402 4.15039c21.7773 0 39.4531-17.627 39.4531-39.4043s-17.6758-39.4043-39.4531-39.4043c-21.7285 0-39.4043 17.627-39.4043 39.4043s17.6758 39.4043 39.4043 39.4043Zm0-7.42188c-17.6758 0-31.9336-14.3066-31.9336-31.9824s14.2578-31.9824 31.9336-31.9824 31.9824 14.3066 31.9824 31.9824-14.3066 31.9824-31.9824 31.9824Zm-17.9688-31.9824c0 2.14844 1.51367 3.61328 3.75977 3.61328h10.498v10.5957c0 2.19727 1.46484 3.71094 3.61328 3.71094 2.24609 0 3.71094-1.51367 3.71094-3.71094v-10.5957h10.5957c2.19727 0 3.71094-1.46484 3.71094-3.61328 0-2.19727-1.51367-3.71094-3.71094-3.71094h-10.5957v-10.5469c0-2.24609-1.46484-3.75977-3.71094-3.75977-2.14844 0-3.61328 1.51367-3.61328 3.75977v10.5469h-10.498c-2.24609 0-3.75977 1.51367-3.75977 3.71094Z"/>
  </g>
  <g transform="matrix(0.2 0 0 0.2 281.506 1933)">
   <path d="m58.5449 14.5508c27.4902 0 49.8047-22.3145 49.8047-49.8047s-22.3145-49.8047-49.8047-49.8047-49.8047 22.3145-49.8047 49.8047 22.3145 49.8047 49.8047 49.8047Zm0-8.30078c-22.9492 0-41.5039-18.5547-41.5039-41.5039s18.5547-41.5039 41.5039-41.5039 41.5039 18.5547 41.5039 41.5039-18.5547 41.5039-41.5039 41.5039Zm-22.6562-41.5039c0 2.39258 1.66016 4.00391 4.15039 4.00391h14.3555v14.4043c0 2.44141 1.66016 4.15039 4.05273 4.15039 2.44141 0 4.15039-1.66016 4.15039-4.15039v-14.4043h14.4043c2.44141 0 4.15039-1.61133 4.15039-4.00391 0-2.44141-1.70898-4.15039-4.15039-4.15039h-14.4043v-14.3555c0-2.49023-1.70898-4.19922-4.15039-4.19922-2.39258 0-4.05273 1.70898-4.05273 4.19922v14.3555h-14.3555c-2.49023 0-4.15039 1.70898-4.15039 4.15039Z"/>
  </g>
  <g transform="matrix(0.2 0 0 0.2 304.924 1933)">
   <path d="m74.8535 28.3203c35.1074 0 63.623-28.4668 63.623-63.5742s-28.5156-63.623-63.623-63.623-63.5742 28.5156-63.5742 63.623 28.4668 63.5742 63.5742 63.5742Zm0-9.08203c-30.127 0-54.4922-24.3652-54.4922-54.4922s24.3652-54.4922 54.4922-54.4922 54.4922 24.3652 54.4922 54.4922-24.3652 54.4922-54.4922 54.4922Zm-28.8574-54.4922c0 2.58789 1.85547 4.39453 4.58984 4.39453h19.7266v19.7754c0 2.68555 1.85547 4.58984 4.44336 4.58984 2.68555 0 4.54102-1.85547 4.54102-4.58984v-19.7754h19.7754c2.68555 0 4.58984-1.80664 4.58984-4.39453 0-2.73438-1.85547-4.58984-4.58984-4.58984h-19.7754v-19.7266c0-2.73438-1.85547-4.63867-4.54102-4.63867-2.58789 0-4.44336 1.9043-4.44336 4.63867v19.7266h-19.7266c-2.73438 0-4.58984 1.85547-4.58984 4.58984Z"/>
  </g>
  <text style="stroke:none;fill:black;font-family:sans-serif;font-size:13;font-weight:bold;" transform="matrix(1 0 0 1 263 1953)">Design Variations</text>
  <text style="stroke:none;fill:black;font-family:sans-serif;font-size:13;" transform="matrix(1 0 0 1 263 1971)">Symbols are supported in up to nine weights and three scales.</text>
  <text style="stroke:none;fill:black;font-family:sans-serif;font-size:13;" transform="matrix(1 0 0 1 263 1989)">For optimal layout with text and other symbols, vertically align</text>
  <text style="stroke:none;fill:black;font-family:sans-serif;font-size:13;" transform="matrix(1 0 0 1 263 2007)">symbols with the adjacent text.</text>
  <line style="fill:none;stroke:#00AEEF;stroke-width:0.5;opacity:1.0;" x1="776" x2="776" y1="1919" y2="1933"/>
  <g transform="matrix(0.2 0 0 0.2 776 1933)">
   <path d="m16.5527 0.78125c2.58789 0 3.85742-0.976562 4.78516-3.71094l6.29883-17.2363h28.8086l6.29883 17.2363c0.927734 2.73438 2.19727 3.71094 4.73633 3.71094 2.58789 0 4.24805-1.5625 4.24805-4.00391 0-0.830078-0.146484-1.61133-0.537109-2.63672l-22.9004-60.9863c-1.12305-2.97852-3.125-4.49219-6.25-4.49219-3.02734 0-5.07812 1.46484-6.15234 4.44336l-22.9004 61.084c-0.390625 1.02539-0.537109 1.80664-0.537109 2.63672 0 2.44141 1.5625 3.95508 4.10156 3.95508Zm13.4766-28.3691 11.8652-32.8613h0.244141l11.8652 32.8613Z"/>
  </g>
  <line style="fill:none;stroke:#00AEEF;stroke-width:0.5;opacity:1.0;" x1="792.836" x2="792.836" y1="1919" y2="1933"/>
  <text style="stroke:none;fill:black;font-family:sans-serif;font-size:13;font-weight:bold;" transform="matrix(1 0 0 1 776 1953)">Margins</text>
  <text style="stroke:none;fill:black;font-family:sans-serif;font-size:13;" transform="matrix(1 0 0 1 776 1971)">Leading and trailing margins on the left and right side of each symbol</text>
  <text style="stroke:none;fill:black;font-family:sans-serif;font-size:13;" transform="matrix(1 0 0 1 776 1989)">can be adjusted by modifying the x-location of the margin guidelines.</text>
  <text style="stroke:none;fill:black;font-family:sans-serif;font-size:13;" transform="matrix(1 0 0 1 776 2007)">Modifications are automatically applied proportionally to all</text>
  <text style="stroke:none;fill:black;font-family:sans-serif;font-size:13;" transform="matrix(1 0 0 1 776 2025)">scales and weights.</text>
  <g transform="matrix(0.2 0 0 0.2 1289 1933)">
   <path d="m14.209 9.32617 8.49609 8.54492c4.29688 4.3457 9.22852 4.05273 13.8672-1.07422l53.4668-58.9355-4.83398-4.88281-53.0762 58.3984c-1.75781 2.00195-3.41797 2.49023-5.76172 0.146484l-5.85938-5.81055c-2.34375-2.29492-1.80664-4.00391 0.195312-5.81055l57.373-54.0039-4.88281-4.83398-57.959 54.4434c-4.93164 4.58984-5.32227 9.47266-1.02539 13.8184Zm32.0801-90.9668c-2.09961 2.05078-2.24609 4.93164-1.07422 6.88477 1.17188 1.80664 3.4668 2.97852 6.68945 2.14844 7.32422-1.70898 14.9414-2.00195 22.0703 2.68555l-2.92969 7.27539c-1.70898 4.15039-0.830078 7.08008 1.85547 9.81445l11.4746 11.5723c2.44141 2.44141 4.49219 2.53906 7.32422 2.05078l5.32227-0.976562 3.32031 3.36914-0.195312 2.7832c-0.195312 2.49023 0.439453 4.39453 2.88086 6.78711l3.80859 3.71094c2.39258 2.39258 5.46875 2.53906 7.8125 0.195312l14.5508-14.5996c2.34375-2.34375 2.24609-5.32227-0.146484-7.71484l-3.85742-3.80859c-2.39258-2.39258-4.24805-3.17383-6.64062-2.97852l-2.88086 0.244141-3.22266-3.17383 1.2207-5.61523c0.634766-2.83203-0.146484-5.0293-3.07617-7.95898l-10.9863-10.9375c-16.6992-16.6016-38.8672-16.2109-53.3203-1.75781Zm7.4707 1.85547c12.1582-8.88672 28.6133-7.37305 39.7461 3.75977l12.1582 12.0605c1.17188 1.17188 1.36719 2.09961 1.02539 3.80859l-1.61133 7.42188 7.51953 7.42188 4.93164-0.292969c1.26953-0.0488281 1.66016 0.0488281 2.63672 1.02539l2.88086 2.88086-12.207 12.207-2.88086-2.88086c-0.976562-0.976562-1.12305-1.36719-1.07422-2.68555l0.341797-4.88281-7.4707-7.42188-7.61719 1.26953c-1.61133 0.341797-2.34375 0.195312-3.56445-0.976562l-10.0098-10.0098c-1.26953-1.17188-1.41602-2.00195-0.634766-3.85742l4.39453-10.4492c-7.8125-7.27539-17.9688-10.4004-28.125-7.42188-0.78125 0.195312-1.07422-0.439453-0.439453-0.976562Z"/>
  </g>
  <text style="stroke:none;fill:black;font-family:sans-serif;font-size:13;font-weight:bold;" transform="matrix(1 0 0 1 1289 1953)">Exporting</text>
  <text style="stroke:none;fill:black;font-family:sans-serif;font-size:13;" transform="matrix(1 0 0 1 1289 1971)">Symbols should be outlined when exporting to ensure the</text>
  <text style="stroke:none;fill:black;font-family:sans-serif;font-size:13;" transform="matrix(1 0 0 1 1289 1989)">design is preserved when submitting to Xcode.</text>
  <text id="template-version" style="stroke:none;fill:black;font-family:sans-serif;font-size:13;text-anchor:end;" transform="matrix(1 0 0 1 3036 1933)">Template v.6.0</text>
  <text style="stroke:none;fill:black;font-family:sans-serif;font-size:13;text-anchor:end;" transform="matrix(1 0 0 1 3036 1951)">Requires Xcode 16 or greater</text>
  <text id="descriptive-name" style="stroke:none;fill:black;font-family:sans-serif;font-size:13;text-anchor:end;" transform="matrix(1 0 0 1 3036 1969)">Generated from filtervogelgruppe-1</text>
  <text style="stroke:none;fill:black;font-family:sans-serif;font-size:13;text-anchor:end;" transform="matrix(1 0 0 1 3036 1987)">Typeset at 100.0 points</text>
  <text style="stroke:none;fill:black;font-family:sans-serif;font-size:13;" transform="matrix(1 0 0 1 263 726)">Small</text>
  <text style="stroke:none;fill:black;font-family:sans-serif;font-size:13;" transform="matrix(1 0 0 1 263 1156)">Medium</text>
  <text style="stroke:none;fill:black;font-family:sans-serif;font-size:13;" transform="matrix(1 0 0 1 263 1586)">Large</text>
 </g>
 <g id="Guides">
  <g id="H-reference" style="fill:#27AAE1;stroke:none;" transform="matrix(1 0 0 1 339 696)">
   <path d="M0.993654 0L3.63775 0L29.3281-67.1323L30.0303-67.1323L30.0303-70.459L28.1226-70.459ZM11.6885-24.4799L46.9815-24.4799L46.2315-26.7285L12.4385-26.7285ZM55.1196 0L57.7637 0L30.6382-70.459L29.4326-70.459L29.4326-67.1323Z"/>
  </g>
  <line id="Baseline-S" style="fill:none;stroke:#27AAE1;opacity:1;stroke-width:0.5;" x1="263" x2="3036" y1="696" y2="696"/>
  <line id="Capline-S" style="fill:none;stroke:#27AAE1;opacity:1;stroke-width:0.5;" x1="263" x2="3036" y1="625.541" y2="625.541"/>
  <g id="H-reference" style="fill:#27AAE1;stroke:none;" transform="matrix(1 0 0 1 339 1126)">
   <path d="M0.993654 0L3.63775 0L29.3281-67.1323L30.0303-67.1323L30.0303-70.459L28.1226-70.459ZM11.6885-24.4799L46.9815-24.4799L46.2315-26.7285L12.4385-26.7285ZM55.1196 0L57.7637 0L30.6382-70.459L29.4326-70.459L29.4326-67.1323Z"/>
  </g>
  <line id="Baseline-M" style="fill:none;stroke:#27AAE1;opacity:1;stroke-width:0.5;" x1="263" x2="3036" y1="1126" y2="1126"/>
  <line id="Capline-M" style="fill:none;stroke:#27AAE1;opacity:1;stroke-width:0.5;" x1="263" x2="3036" y1="1055.54" y2="1055.54"/>
  <g id="H-reference" style="fill:#27AAE1;stroke:none;" transform="matrix(1 0 0 1 339 1556)">
   <path d="M0.993654 0L3.63775 0L29.3281-67.1323L30.0303-67.1323L30.0303-70.459L28.1226-70.459ZM11.6885-24.4799L46.9815-24.4799L46.2315-26.7285L12.4385-26.7285ZM55.1196 0L57.7637 0L30.6382-70.459L29.4326-70.459L29.4326-67.1323Z"/>
  </g>
  <line id="Baseline-L" style="fill:none;stroke:#27AAE1;opacity:1;stroke-width:0.5;" x1="263" x2="3036" y1="1556" y2="1556"/>
  <line id="Capline-L" style="fill:none;stroke:#27AAE1;opacity:1;stroke-width:0.5;" x1="263" x2="3036" y1="1485.54" y2="1485.54"/>
  <line id="right-margin-Black-S" style="fill:none;stroke:#00AEEF;stroke-width:0.5;opacity:1.0;" x1="2982.23" x2="2982.23" y1="600.785" y2="720.121"/>
  <line id="left-margin-Black-S" style="fill:none;stroke:#00AEEF;stroke-width:0.5;opacity:1.0;" x1="2884.57" x2="2884.57" y1="600.785" y2="720.121"/>
  <line id="right-margin-Regular-S" style="fill:none;stroke:#00AEEF;stroke-width:0.5;opacity:1.0;" x1="1496.11" x2="1496.11" y1="600.785" y2="720.121"/>
  <line id="left-margin-Regular-S" style="fill:none;stroke:#00AEEF;stroke-width:0.5;opacity:1.0;" x1="1403.58" x2="1403.58" y1="600.785" y2="720.121"/>
  <line id="right-margin-Ultralight-S" style="fill:none;stroke:#00AEEF;stroke-width:0.5;opacity:1.0;" x1="603.773" x2="603.773" y1="600.785" y2="720.121"/>
  <line id="left-margin-Ultralight-S" style="fill:none;stroke:#00AEEF;stroke-width:0.5;opacity:1.0;" x1="515.649" x2="515.649" y1="600.785" y2="720.121"/>
 </g>
 <g id="Symbols">
  <g id="Black-S" transform="matrix(1 0 0 1 2884.57 696)">
   <path class="monochrome-0 multicolor-0:tintColor hierarchical-0:primary SFSymbolsPreviewWireframe" d="M41.2519-63.151C42.2888-63.0963 44.2553-62.9067 45.9682-59.8509C47.6773-56.7879 47.6581-55.0303 47.6965-52.022C47.7349-49.0173 47.6581-47.1759 48.4339-46.0418C49.2097-44.9005 53.3653-41.2722 55.7311-38.0232C58.1008-34.7742 60.0711-30.6319 62.6789-26.9489C65.3635-22.967 66.339-21.4792 67.2531-20.75C69.304-19.6378 69.8417-18.4454 69.8186-17.4973C70.894-16.4398 72.6069-14.5984 73.064-14.2483C73.521-13.8946 72.9641-13.8691 72.9641-13.8691C73.2791-13.3258 72.0078-13.6248 72.0078-13.6248C71.8081-13.3805 70.8172-13.7889 70.8172-13.7889C70.4562-13.4899 69.1273-13.7342 69.1273-13.7342C68.5749-13.753 68.0234-13.798 67.4758-13.8691C67.8714-13.3549 67.6717-13.4899 65.6823-13.705C64.2305-13.4607 63.1551-13.8144 62.5598-13.8144C63.0975-13.1945 62.0605-13.4607 61.8416-13.4607L58.5386-13.4607C59.0571-13.0012 58.819-12.8918 58.3389-12.921C57.8627-12.9465 57.1099-12.921 57.1099-12.921C57.3672-12.5673 56.4301-12.5928 56.4301-12.5928C57.2674-12.1334 56.3917-12.2173 56.3917-12.2173C56.5069-11.9438 55.5737-12.2173 55.5737-12.2173C55.4738-11.5937 54.6212-11.7542 54.6212-11.7542C53.9644-11.2145 53.3077-11.5354 51.5563-11.2436C49.805-10.9446 48.5529-10.8061 48.5529-10.8061C47.9961-9.80694 47.2394-9.77777 46.9207-9.50793C46.4022-8.93909 45.5688-8.58903 45.5688-8.58903C44.4934-7.64095 43.6984-7.53155 43.6984-7.53155C42.0661-6.23342 41.828-5.82501 41.6283-5.66457C41.4285-5.50048 41.1098-5.74479 41.1098-5.74479C40.7948-5.60987 40.814-5.23064 40.814-5.23064C40.6758-5.85054 41.3133-6.41939 41.3133-6.41939C41.3133-6.41939 41.2903-6.52878 40.9715-6.69287C40.6527-6.85696 40.2379-6.85696 40.2149-6.39386C40.0382-7.15232 40.6143-7.47686 40.8294-7.58625C41.0137-8.47963 41.49-8.72395 41.5706-8.72395C42.4425-9.58816 43.8366-10.6201 44.2975-10.7805C44.7507-10.9446 45.4113-10.9446 45.9643-11.2436C47.539-12.3522 47.539-12.2719 48.8909-12.4105C50.2428-12.5418 51.6178-12.4871 52.1555-12.6767C52.6893-12.8663 52.4896-13.2456 52.4896-13.2456C52.3744-13.2747 51.3566-14.303 50.8612-14.4124C48.4339-14.3322 47.877-14.1681 47.1588-13.8436C46.4444-13.5154 45.1885-12.5673 45.1885-12.5673C45.2884-13.1653 46.1449-13.7087 46.1449-13.7087C46.8784-14.7916 47.0589-14.9521 47.635-15.0068C48.2111-15.0615 49.1098-15.4662 49.1098-15.4662C45.8837-17.202 45.1693-18.1756 44.5932-18.6095C42.4233-20.2322 40.9331-21.884 39.5197-24.7538C37.8758-27.5175 36.8336-30.5668 36.4549-33.7204C36.0363-37.0204 36.5356-40.5393 37.1116-44.4155C37.6877-48.2844 38.1486-49.6153 38.1102-51.6172C38.068-53.6228 37.8875-53.7322 36.9734-54.6219C36.0593-55.5153 34.5077-57.8746 33.9085-58.4689C33.3132-59.0633 32.1418-59.1982 30.6286-59.7452C29.1154-60.2849 28.8773-60.2302 28.7774-60.4453C29.6147-61.2329 30.667-61.3387 31.6426-61.3132C32.6181-61.2329 34.0506-60.8537 34.646-61.0397C35.2451-61.2293 37.054-62.2612 38.0104-62.8009C38.9628-63.3406 40.3954-63.2604 41.2519-63.151L41.2519-63.151Z"/>
   <path class="monochrome-1 multicolor-1:tintColor hierarchical-1:tertiary SFSymbolsPreviewWireframe" d="M48.9411-84C55.3091-84.0013 61.615-82.7479 67.4985-80.3116C73.382-77.8752 78.7279-74.3036 83.2305-69.8009C87.7334-65.2983 91.305-59.9524 93.7418-54.0682C96.1779-48.1846 97.4312-41.8789 97.43-35.5124C97.43-8.72255 75.7254 13 48.9424 13C22.156 13 0.43-8.726 0.43-35.5124C0.43-62.2926 22.1539-84 48.9411-84ZM48.9424-70C29.8835-70 14.43-54.5582 14.43-35.5124C14.43-16.458 29.888-0.999999 48.9424-0.999999C67.9909-0.999999 83.43-16.4519 83.43-35.5138C83.4309-40.0428 82.5395-44.5276 80.8069-48.7121C79.0739-52.8969 76.5337-56.6989 73.3311-59.9013C70.1287-63.1038 66.3266-65.644 62.1422-67.3767C57.9578-69.1095 53.4729-70.0009 48.9424-70Z"/>
  </g>
  <g id="Regular-S" transform="matrix(1 0 0 1 1403.58 696)">
   <path class="monochrome-0 multicolor-0:tintColor hierarchical-0:primary SFSymbolsPreviewWireframe" d="M39.2115-68.9072C40.358-68.8435 42.532-68.6227 44.4258-65.0644C46.3154-61.4976 46.2941-59.451 46.3366-55.9479C46.3791-52.4491 46.2941-50.3048 47.1519-48.9842C48.0096-47.6552 52.6039-43.4302 55.2195-39.6469C57.8394-35.8636 60.0177-31.04 62.9008-26.7513C65.8689-22.1145 66.9474-20.3821 67.958-19.5329C70.2255-18.2378 70.8199-16.8493 70.7944-15.7453C71.9834-14.5139 73.8771-12.3696 74.3824-11.962C74.8877-11.5501 74.272-11.5204 74.272-11.5204C74.6202-10.8877 73.2147-11.2359 73.2147-11.2359C72.9939-10.9514 71.8984-11.427 71.8984-11.427C71.4993-11.0788 70.0301-11.3633 70.0301-11.3633C69.4194-11.3852 68.8097-11.4376 68.2043-11.5204C68.6416-10.9217 68.4208-11.0788 66.2213-11.3293C64.6163-11.0448 63.4274-11.4567 62.7692-11.4567C63.3637-10.7348 62.2172-11.0448 61.9752-11.0448L58.3235-11.0448C58.8967-10.5098 58.6335-10.3824 58.1027-10.4164C57.5762-10.4461 56.7439-10.4164 56.7439-10.4164C57.0284-10.0045 55.9923-10.0342 55.9923-10.0342C56.918-9.49921 55.9499-9.59688 55.9499-9.59688C56.0773-9.27841 55.0455-9.59688 55.0455-9.59688C54.9351-8.87078 53.9924-9.05761 53.9924-9.05761C53.2663-8.42918 52.5402-8.80285 50.604-8.46315C48.6677-8.11497 47.2835-7.95361 47.2835-7.95361C46.6678-6.79017 45.8313-6.7562 45.4789-6.44198C44.9056-5.77958 43.9842-5.37195 43.9842-5.37195C42.7953-4.26795 41.9163-4.14057 41.9163-4.14057C40.1117-2.62894 39.8485-2.15337 39.6277-1.96654C39.4069-1.77546 39.0544-2.05995 39.0544-2.05995C38.7063-1.90285 38.7275-1.46125 38.7275-1.46125C38.5746-2.18309 39.2795-2.84549 39.2795-2.84549C39.2795-2.84549 39.254-2.97288 38.9016-3.16395C38.5491-3.35503 38.0906-3.35503 38.0651-2.81577C37.8698-3.69897 38.5067-4.07688 38.7445-4.20426C38.9483-5.24457 39.4748-5.52906 39.564-5.52906C40.5279-6.5354 42.0692-7.73706 42.5787-7.92389C43.0798-8.11497 43.8101-8.11497 44.4216-8.46315C46.1625-9.75398 46.1625-9.66057 47.6571-9.82192C49.1518-9.97478 50.6719-9.91109 51.2664-10.1319C51.8566-10.3527 51.6358-10.7943 51.6358-10.7943C51.5084-10.8283 50.3832-12.0257 49.8354-12.1531C47.1519-12.0596 46.5362-11.8686 45.7421-11.4907C44.9523-11.1085 43.5639-10.0045 43.5639-10.0045C43.6743-10.7009 44.6211-11.3336 44.6211-11.3336C45.4322-12.5947 45.6317-12.7815 46.2687-12.8452C46.9056-12.9089 47.8992-13.3802 47.8992-13.3802C44.3324-15.4014 43.5426-16.5351 42.9057-17.0404C40.5066-18.9299 38.8591-20.8534 37.2965-24.1952C35.479-27.4134 34.3267-30.9642 33.9081-34.6364C33.4453-38.4792 33.9973-42.5768 34.6342-47.0905C35.2711-51.5956 35.7807-53.1455 35.7382-55.4766C35.6915-57.812 35.4919-57.9394 34.4813-58.9754C33.4707-60.0157 31.7553-62.763 31.0929-63.4551C30.4347-64.1472 29.1397-64.3044 27.4667-64.9413C25.7937-65.5697 25.5304-65.506 25.42-65.7565C26.3457-66.6737 27.5091-66.7969 28.5877-66.7671C29.6662-66.6737 31.25-66.2321 31.9082-66.4487C32.5706-66.6695 34.5705-67.8711 35.6278-68.4996C36.6808-69.128 38.2647-69.0346 39.2115-68.9072L39.2115-68.9072Z"/>
   <path class="monochrome-1 multicolor-1:tintColor hierarchical-1:tertiary SFSymbolsPreviewWireframe" d="M46.4321-81.8365C52.4502-81.8377 58.4096-80.6532 63.9698-78.3508C69.53-76.0483 74.5822-72.6729 78.8374-68.4176C83.0928-64.1624 86.4682-59.1103 88.771-53.5496C91.0733-47.9892 92.2577-42.03 92.2566-36.0127C92.2566-10.693 71.744 9.83658 46.4328 9.83658C21.1173 9.83658 0.5835-10.6972 0.5835-36.0127C0.5835-61.3211 21.1145-81.8365 46.4321-81.8365ZM46.4328-75.0865C24.8413-75.0865 7.3335-57.592 7.3335-36.0127C7.3335-14.4252 24.8452 3.08658 46.4328 3.08658C68.0148 3.08658 85.5066-14.4197 85.5066-36.0133C85.5076-41.1447 84.4976-46.226 82.5345-50.9672C80.571-55.7085 77.693-60.0162 74.0644-63.6446C70.4361-67.273 66.1283-70.1511 61.3873-72.1143C56.6463-74.0776 51.5649-75.0875 46.4328-75.0865Z"/>
  </g>
  <g id="Ultralight-S" transform="matrix(1 0 0 1 515.649 696)">
   <path class="monochrome-0 multicolor-0:tintColor hierarchical-0:primary SFSymbolsPreviewWireframe" d="M37.1425-67.9072C38.289-67.8435 40.463-67.6227 42.3568-64.0644C44.2464-60.4976 44.2251-58.451 44.2676-54.9479C44.3101-51.4491 44.2251-49.3048 45.0829-47.9842C45.9406-46.6552 50.5349-42.4302 53.1505-38.6469C55.7704-34.8636 57.9487-30.04 60.8318-25.7513C63.7999-21.1145 64.8784-19.3821 65.889-18.5329C68.1565-17.2378 68.7509-15.8493 68.7254-14.7453C69.9144-13.5139 71.8081-11.3696 72.3134-10.962C72.8187-10.5501 72.203-10.5204 72.203-10.5204C72.5512-9.88771 71.1457-10.2359 71.1457-10.2359C70.9249-9.9514 69.8294-10.427 69.8294-10.427C69.4303-10.0788 67.9611-10.3633 67.9611-10.3633C67.3504-10.3852 66.7407-10.4376 66.1353-10.5204C66.5726-9.92168 66.3518-10.0788 64.1523-10.3293C62.5473-10.0448 61.3584-10.4567 60.7002-10.4567C61.2947-9.73485 60.1482-10.0448 59.9062-10.0448L56.2545-10.0448C56.8277-9.5098 56.5645-9.38241 56.0337-9.41638C55.5072-9.44611 54.6749-9.41638 54.6749-9.41638C54.9594-9.00451 53.9233-9.03423 53.9233-9.03423C54.849-8.49921 53.8809-8.59688 53.8809-8.59688C54.0083-8.27841 52.9765-8.59688 52.9765-8.59688C52.8661-7.87078 51.9234-8.05761 51.9234-8.05761C51.1973-7.42918 50.4712-7.80285 48.535-7.46315C46.5987-7.11497 45.2145-6.95361 45.2145-6.95361C44.5988-5.79017 43.7623-5.7562 43.4099-5.44198C42.8366-4.77958 41.9152-4.37195 41.9152-4.37195C40.7263-3.26795 39.8473-3.14057 39.8473-3.14057C38.0427-1.62894 37.7795-1.15337 37.5587-0.966538C37.3379-0.775461 36.9854-1.05995 36.9854-1.05995C36.6373-0.902845 36.6585-0.461245 36.6585-0.461245C36.5056-1.18309 37.2105-1.84549 37.2105-1.84549C37.2105-1.84549 37.185-1.97288 36.8326-2.16395C36.4801-2.35503 36.0216-2.35503 35.9961-1.81577C35.8008-2.69897 36.4377-3.07688 36.6755-3.20426C36.8793-4.24457 37.4058-4.52906 37.495-4.52906C38.4589-5.5354 40.0002-6.73706 40.5097-6.92389C41.0108-7.11497 41.7411-7.11497 42.3526-7.46315C44.0935-8.75398 44.0935-8.66057 45.5881-8.82192C47.0828-8.97478 48.6029-8.91109 49.1974-9.13189C49.7876-9.35269 49.5668-9.79429 49.5668-9.79429C49.4394-9.82826 48.3142-11.0257 47.7664-11.1531C45.0829-11.0596 44.4672-10.8686 43.6731-10.4907C42.8833-10.1085 41.4949-9.00451 41.4949-9.00451C41.6053-9.70088 42.5521-10.3336 42.5521-10.3336C43.3632-11.5947 43.5627-11.7815 44.1997-11.8452C44.8366-11.9089 45.8302-12.3802 45.8302-12.3802C42.2634-14.4014 41.4736-15.5351 40.8367-16.0404C38.4376-17.9299 36.7901-19.8534 35.2275-23.1952C33.41-26.4134 32.2577-29.9642 31.8391-33.6364C31.3763-37.4792 31.9283-41.5768 32.5652-46.0905C33.2021-50.5956 33.7117-52.1455 33.6692-54.4766C33.6225-56.812 33.4229-56.9394 32.4123-57.9754C31.4017-59.0157 29.6863-61.763 29.0239-62.4551C28.3657-63.1472 27.0707-63.3044 25.3977-63.9413C23.7247-64.5697 23.4614-64.506 23.351-64.7565C24.2767-65.6737 25.4401-65.7969 26.5187-65.7671C27.5972-65.6737 29.181-65.2321 29.8392-65.4487C30.5016-65.6695 32.5015-66.8711 33.5588-67.4996C34.6118-68.128 36.1957-68.0346 37.1425-67.9072L37.1425-67.9072Z"/>
   <path class="monochrome-1 multicolor-1:tintColor hierarchical-1:tertiary SFSymbolsPreviewWireframe" d="M44.3636-80.5865C50.0861-80.5876 55.7528-79.4613 61.04-77.272C66.3271-75.0826 71.1312-71.8729 75.1774-67.8265C79.2239-63.7803 82.4335-58.9764 84.6232-53.6889C86.8124-48.4015 87.9387-42.7349 87.9376-37.0127C87.9376-12.9352 68.432 6.58658 44.3638 6.58658C20.2909 6.58658 0.7645-12.9399 0.7645-37.0127C0.7645-61.0781 20.2877-80.5865 44.3636-80.5865ZM44.3638-78.3365C21.53-78.3365 3.0145-59.8351 3.0145-37.0127C3.0145-14.1825 21.5336 4.33658 44.3638 4.33658C67.1889 4.33658 85.6876-14.1774 85.6876-37.0129C85.6886-42.4398 84.6205-47.8138 82.5443-52.828C80.4678-57.8425 77.4239-62.3983 73.5865-66.2355C69.7491-70.073 65.1932-73.1168 60.1791-75.1931C55.1651-77.2695 49.791-78.3376 44.3638-78.3365Z"/>
  </g>
 </g>
</svg>
