<?xml version="1.0" encoding="UTF-8"?>
<!--Generator: Apple Native CoreSVG 341-->
<!DOCTYPE svg
PUBLIC "-//W3C//DTD SVG 1.1//EN"
       "http://www.w3.org/Graphics/SVG/1.1/DTD/svg11.dtd">
<svg version="1.1" xmlns="http://www.w3.org/2000/svg" xmlns:xlink="http://www.w3.org/1999/xlink" viewBox="0 0 3300 2200">
 <!--glyph: "", point size: 100.0, font version: "20.0d10e1", template writer version: "138.0.0"-->
 <style>.monochrome-0 {-sfsymbols-motion-group:1;-sfsymbols-layer-tags:57a18b1e44e04b71}
.monochrome-1 {-sfsymbols-motion-group:0;-sfsymbols-layer-tags:57a18b1e44e04b71}

.multicolor-0:tintColor {-sfsymbols-motion-group:1;-sfsymbols-layer-tags:57a18b1e44e04b71}
.multicolor-1:tintColor {-sfsymbols-motion-group:0;-sfsymbols-layer-tags:57a18b1e44e04b71}

.hierarchical-0:primary {-sfsymbols-motion-group:1;-sfsymbols-layer-tags:57a18b1e44e04b71}
.hierarchical-1:tertiary {-sfsymbols-motion-group:0;-sfsymbols-layer-tags:57a18b1e44e04b71}

.SFSymbolsPreviewWireframe {fill:none;opacity:1.0;stroke:black;stroke-width:0.5}
</style>
 <g id="Notes">
  <rect height="2200" id="artboard" style="fill:white;opacity:1" width="3300" x="0" y="0"/>
  <line style="fill:none;stroke:black;opacity:1;stroke-width:0.5;" x1="263" x2="3036" y1="292" y2="292"/>
  <text style="stroke:none;fill:black;font-family:sans-serif;font-size:13;font-weight:bold;" transform="matrix(1 0 0 1 263 322)">Weight/Scale Variations</text>
  <text style="stroke:none;fill:black;font-family:sans-serif;font-size:13;text-anchor:middle;" transform="matrix(1 0 0 1 559.711 322)">Ultralight</text>
  <text style="stroke:none;fill:black;font-family:sans-serif;font-size:13;text-anchor:middle;" transform="matrix(1 0 0 1 856.422 322)">Thin</text>
  <text style="stroke:none;fill:black;font-family:sans-serif;font-size:13;text-anchor:middle;" transform="matrix(1 0 0 1 1153.13 322)">Light</text>
  <text style="stroke:none;fill:black;font-family:sans-serif;font-size:13;text-anchor:middle;" transform="matrix(1 0 0 1 1449.84 322)">Regular</text>
  <text style="stroke:none;fill:black;font-family:sans-serif;font-size:13;text-anchor:middle;" transform="matrix(1 0 0 1 1746.56 322)">Medium</text>
  <text style="stroke:none;fill:black;font-family:sans-serif;font-size:13;text-anchor:middle;" transform="matrix(1 0 0 1 2043.27 322)">Semibold</text>
  <text style="stroke:none;fill:black;font-family:sans-serif;font-size:13;text-anchor:middle;" transform="matrix(1 0 0 1 2339.98 322)">Bold</text>
  <text style="stroke:none;fill:black;font-family:sans-serif;font-size:13;text-anchor:middle;" transform="matrix(1 0 0 1 2636.69 322)">Heavy</text>
  <text style="stroke:none;fill:black;font-family:sans-serif;font-size:13;text-anchor:middle;" transform="matrix(1 0 0 1 2933.4 322)">Black</text>
  <line style="fill:none;stroke:black;opacity:1;stroke-width:0.5;" x1="263" x2="3036" y1="1903" y2="1903"/>
  <g transform="matrix(0.2 0 0 0.2 263 1933)">
   <path d="m46.2402 4.15039c21.7773 0 39.4531-17.627 39.4531-39.4043s-17.6758-39.4043-39.4531-39.4043c-21.7285 0-39.4043 17.627-39.4043 39.4043s17.6758 39.4043 39.4043 39.4043Zm0-7.42188c-17.6758 0-31.9336-14.3066-31.9336-31.9824s14.2578-31.9824 31.9336-31.9824 31.9824 14.3066 31.9824 31.9824-14.3066 31.9824-31.9824 31.9824Zm-17.9688-31.9824c0 2.14844 1.51367 3.61328 3.75977 3.61328h10.498v10.5957c0 2.19727 1.46484 3.71094 3.61328 3.71094 2.24609 0 3.71094-1.51367 3.71094-3.71094v-10.5957h10.5957c2.19727 0 3.71094-1.46484 3.71094-3.61328 0-2.19727-1.51367-3.71094-3.71094-3.71094h-10.5957v-10.5469c0-2.24609-1.46484-3.75977-3.71094-3.75977-2.14844 0-3.61328 1.51367-3.61328 3.75977v10.5469h-10.498c-2.24609 0-3.75977 1.51367-3.75977 3.71094Z"/>
  </g>
  <g transform="matrix(0.2 0 0 0.2 281.506 1933)">
   <path d="m58.5449 14.5508c27.4902 0 49.8047-22.3145 49.8047-49.8047s-22.3145-49.8047-49.8047-49.8047-49.8047 22.3145-49.8047 49.8047 22.3145 49.8047 49.8047 49.8047Zm0-8.30078c-22.9492 0-41.5039-18.5547-41.5039-41.5039s18.5547-41.5039 41.5039-41.5039 41.5039 18.5547 41.5039 41.5039-18.5547 41.5039-41.5039 41.5039Zm-22.6562-41.5039c0 2.39258 1.66016 4.00391 4.15039 4.00391h14.3555v14.4043c0 2.44141 1.66016 4.15039 4.05273 4.15039 2.44141 0 4.15039-1.66016 4.15039-4.15039v-14.4043h14.4043c2.44141 0 4.15039-1.61133 4.15039-4.00391 0-2.44141-1.70898-4.15039-4.15039-4.15039h-14.4043v-14.3555c0-2.49023-1.70898-4.19922-4.15039-4.19922-2.39258 0-4.05273 1.70898-4.05273 4.19922v14.3555h-14.3555c-2.49023 0-4.15039 1.70898-4.15039 4.15039Z"/>
  </g>
  <g transform="matrix(0.2 0 0 0.2 304.924 1933)">
   <path d="m74.8535 28.3203c35.1074 0 63.623-28.4668 63.623-63.5742s-28.5156-63.623-63.623-63.623-63.5742 28.5156-63.5742 63.623 28.4668 63.5742 63.5742 63.5742Zm0-9.08203c-30.127 0-54.4922-24.3652-54.4922-54.4922s24.3652-54.4922 54.4922-54.4922 54.4922 24.3652 54.4922 54.4922-24.3652 54.4922-54.4922 54.4922Zm-28.8574-54.4922c0 2.58789 1.85547 4.39453 4.58984 4.39453h19.7266v19.7754c0 2.68555 1.85547 4.58984 4.44336 4.58984 2.68555 0 4.54102-1.85547 4.54102-4.58984v-19.7754h19.7754c2.68555 0 4.58984-1.80664 4.58984-4.39453 0-2.73438-1.85547-4.58984-4.58984-4.58984h-19.7754v-19.7266c0-2.73438-1.85547-4.63867-4.54102-4.63867-2.58789 0-4.44336 1.9043-4.44336 4.63867v19.7266h-19.7266c-2.73438 0-4.58984 1.85547-4.58984 4.58984Z"/>
  </g>
  <text style="stroke:none;fill:black;font-family:sans-serif;font-size:13;font-weight:bold;" transform="matrix(1 0 0 1 263 1953)">Design Variations</text>
  <text style="stroke:none;fill:black;font-family:sans-serif;font-size:13;" transform="matrix(1 0 0 1 263 1971)">Symbols are supported in up to nine weights and three scales.</text>
  <text style="stroke:none;fill:black;font-family:sans-serif;font-size:13;" transform="matrix(1 0 0 1 263 1989)">For optimal layout with text and other symbols, vertically align</text>
  <text style="stroke:none;fill:black;font-family:sans-serif;font-size:13;" transform="matrix(1 0 0 1 263 2007)">symbols with the adjacent text.</text>
  <line style="fill:none;stroke:#00AEEF;stroke-width:0.5;opacity:1.0;" x1="776" x2="776" y1="1919" y2="1933"/>
  <g transform="matrix(0.2 0 0 0.2 776 1933)">
   <path d="m16.5527 0.78125c2.58789 0 3.85742-0.976562 4.78516-3.71094l6.29883-17.2363h28.8086l6.29883 17.2363c0.927734 2.73438 2.19727 3.71094 4.73633 3.71094 2.58789 0 4.24805-1.5625 4.24805-4.00391 0-0.830078-0.146484-1.61133-0.537109-2.63672l-22.9004-60.9863c-1.12305-2.97852-3.125-4.49219-6.25-4.49219-3.02734 0-5.07812 1.46484-6.15234 4.44336l-22.9004 61.084c-0.390625 1.02539-0.537109 1.80664-0.537109 2.63672 0 2.44141 1.5625 3.95508 4.10156 3.95508Zm13.4766-28.3691 11.8652-32.8613h0.244141l11.8652 32.8613Z"/>
  </g>
  <line style="fill:none;stroke:#00AEEF;stroke-width:0.5;opacity:1.0;" x1="792.836" x2="792.836" y1="1919" y2="1933"/>
  <text style="stroke:none;fill:black;font-family:sans-serif;font-size:13;font-weight:bold;" transform="matrix(1 0 0 1 776 1953)">Margins</text>
  <text style="stroke:none;fill:black;font-family:sans-serif;font-size:13;" transform="matrix(1 0 0 1 776 1971)">Leading and trailing margins on the left and right side of each symbol</text>
  <text style="stroke:none;fill:black;font-family:sans-serif;font-size:13;" transform="matrix(1 0 0 1 776 1989)">can be adjusted by modifying the x-location of the margin guidelines.</text>
  <text style="stroke:none;fill:black;font-family:sans-serif;font-size:13;" transform="matrix(1 0 0 1 776 2007)">Modifications are automatically applied proportionally to all</text>
  <text style="stroke:none;fill:black;font-family:sans-serif;font-size:13;" transform="matrix(1 0 0 1 776 2025)">scales and weights.</text>
  <g transform="matrix(0.2 0 0 0.2 1289 1933)">
   <path d="m14.209 9.32617 8.49609 8.54492c4.29688 4.3457 9.22852 4.05273 13.8672-1.07422l53.4668-58.9355-4.83398-4.88281-53.0762 58.3984c-1.75781 2.00195-3.41797 2.49023-5.76172 0.146484l-5.85938-5.81055c-2.34375-2.29492-1.80664-4.00391 0.195312-5.81055l57.373-54.0039-4.88281-4.83398-57.959 54.4434c-4.93164 4.58984-5.32227 9.47266-1.02539 13.8184Zm32.0801-90.9668c-2.09961 2.05078-2.24609 4.93164-1.07422 6.88477 1.17188 1.80664 3.4668 2.97852 6.68945 2.14844 7.32422-1.70898 14.9414-2.00195 22.0703 2.68555l-2.92969 7.27539c-1.70898 4.15039-0.830078 7.08008 1.85547 9.81445l11.4746 11.5723c2.44141 2.44141 4.49219 2.53906 7.32422 2.05078l5.32227-0.976562 3.32031 3.36914-0.195312 2.7832c-0.195312 2.49023 0.439453 4.39453 2.88086 6.78711l3.80859 3.71094c2.39258 2.39258 5.46875 2.53906 7.8125 0.195312l14.5508-14.5996c2.34375-2.34375 2.24609-5.32227-0.146484-7.71484l-3.85742-3.80859c-2.39258-2.39258-4.24805-3.17383-6.64062-2.97852l-2.88086 0.244141-3.22266-3.17383 1.2207-5.61523c0.634766-2.83203-0.146484-5.0293-3.07617-7.95898l-10.9863-10.9375c-16.6992-16.6016-38.8672-16.2109-53.3203-1.75781Zm7.4707 1.85547c12.1582-8.88672 28.6133-7.37305 39.7461 3.75977l12.1582 12.0605c1.17188 1.17188 1.36719 2.09961 1.02539 3.80859l-1.61133 7.42188 7.51953 7.42188 4.93164-0.292969c1.26953-0.0488281 1.66016 0.0488281 2.63672 1.02539l2.88086 2.88086-12.207 12.207-2.88086-2.88086c-0.976562-0.976562-1.12305-1.36719-1.07422-2.68555l0.341797-4.88281-7.4707-7.42188-7.61719 1.26953c-1.61133 0.341797-2.34375 0.195312-3.56445-0.976562l-10.0098-10.0098c-1.26953-1.17188-1.41602-2.00195-0.634766-3.85742l4.39453-10.4492c-7.8125-7.27539-17.9688-10.4004-28.125-7.42188-0.78125 0.195312-1.07422-0.439453-0.439453-0.976562Z"/>
  </g>
  <text style="stroke:none;fill:black;font-family:sans-serif;font-size:13;font-weight:bold;" transform="matrix(1 0 0 1 1289 1953)">Exporting</text>
  <text style="stroke:none;fill:black;font-family:sans-serif;font-size:13;" transform="matrix(1 0 0 1 1289 1971)">Symbols should be outlined when exporting to ensure the</text>
  <text style="stroke:none;fill:black;font-family:sans-serif;font-size:13;" transform="matrix(1 0 0 1 1289 1989)">design is preserved when submitting to Xcode.</text>
  <text id="template-version" style="stroke:none;fill:black;font-family:sans-serif;font-size:13;text-anchor:end;" transform="matrix(1 0 0 1 3036 1933)">Template v.6.0</text>
  <text style="stroke:none;fill:black;font-family:sans-serif;font-size:13;text-anchor:end;" transform="matrix(1 0 0 1 3036 1951)">Requires Xcode 16 or greater</text>
  <text id="descriptive-name" style="stroke:none;fill:black;font-family:sans-serif;font-size:13;text-anchor:end;" transform="matrix(1 0 0 1 3036 1969)">Generated from filtervogelgruppe-4</text>
  <text style="stroke:none;fill:black;font-family:sans-serif;font-size:13;text-anchor:end;" transform="matrix(1 0 0 1 3036 1987)">Typeset at 100.0 points</text>
  <text style="stroke:none;fill:black;font-family:sans-serif;font-size:13;" transform="matrix(1 0 0 1 263 726)">Small</text>
  <text style="stroke:none;fill:black;font-family:sans-serif;font-size:13;" transform="matrix(1 0 0 1 263 1156)">Medium</text>
  <text style="stroke:none;fill:black;font-family:sans-serif;font-size:13;" transform="matrix(1 0 0 1 263 1586)">Large</text>
 </g>
 <g id="Guides">
  <g id="H-reference" style="fill:#27AAE1;stroke:none;" transform="matrix(1 0 0 1 339 696)">
   <path d="M0.993654 0L3.63775 0L29.3281-67.1323L30.0303-67.1323L30.0303-70.459L28.1226-70.459ZM11.6885-24.4799L46.9815-24.4799L46.2315-26.7285L12.4385-26.7285ZM55.1196 0L57.7637 0L30.6382-70.459L29.4326-70.459L29.4326-67.1323Z"/>
  </g>
  <line id="Baseline-S" style="fill:none;stroke:#27AAE1;opacity:1;stroke-width:0.5;" x1="263" x2="3036" y1="696" y2="696"/>
  <line id="Capline-S" style="fill:none;stroke:#27AAE1;opacity:1;stroke-width:0.5;" x1="263" x2="3036" y1="625.541" y2="625.541"/>
  <g id="H-reference" style="fill:#27AAE1;stroke:none;" transform="matrix(1 0 0 1 339 1126)">
   <path d="M0.993654 0L3.63775 0L29.3281-67.1323L30.0303-67.1323L30.0303-70.459L28.1226-70.459ZM11.6885-24.4799L46.9815-24.4799L46.2315-26.7285L12.4385-26.7285ZM55.1196 0L57.7637 0L30.6382-70.459L29.4326-70.459L29.4326-67.1323Z"/>
  </g>
  <line id="Baseline-M" style="fill:none;stroke:#27AAE1;opacity:1;stroke-width:0.5;" x1="263" x2="3036" y1="1126" y2="1126"/>
  <line id="Capline-M" style="fill:none;stroke:#27AAE1;opacity:1;stroke-width:0.5;" x1="263" x2="3036" y1="1055.54" y2="1055.54"/>
  <g id="H-reference" style="fill:#27AAE1;stroke:none;" transform="matrix(1 0 0 1 339 1556)">
   <path d="M0.993654 0L3.63775 0L29.3281-67.1323L30.0303-67.1323L30.0303-70.459L28.1226-70.459ZM11.6885-24.4799L46.9815-24.4799L46.2315-26.7285L12.4385-26.7285ZM55.1196 0L57.7637 0L30.6382-70.459L29.4326-70.459L29.4326-67.1323Z"/>
  </g>
  <line id="Baseline-L" style="fill:none;stroke:#27AAE1;opacity:1;stroke-width:0.5;" x1="263" x2="3036" y1="1556" y2="1556"/>
  <line id="Capline-L" style="fill:none;stroke:#27AAE1;opacity:1;stroke-width:0.5;" x1="263" x2="3036" y1="1485.54" y2="1485.54"/>
  <line id="right-margin-Black-S" style="fill:none;stroke:#00AEEF;stroke-width:0.5;opacity:1.0;" x1="2982.23" x2="2982.23" y1="600.785" y2="720.121"/>
  <line id="left-margin-Black-S" style="fill:none;stroke:#00AEEF;stroke-width:0.5;opacity:1.0;" x1="2884.57" x2="2884.57" y1="600.785" y2="720.121"/>
  <line id="right-margin-Regular-S" style="fill:none;stroke:#00AEEF;stroke-width:0.5;opacity:1.0;" x1="1496.11" x2="1496.11" y1="600.785" y2="720.121"/>
  <line id="left-margin-Regular-S" style="fill:none;stroke:#00AEEF;stroke-width:0.5;opacity:1.0;" x1="1403.58" x2="1403.58" y1="600.785" y2="720.121"/>
  <line id="right-margin-Ultralight-S" style="fill:none;stroke:#00AEEF;stroke-width:0.5;opacity:1.0;" x1="603.773" x2="603.773" y1="600.785" y2="720.121"/>
  <line id="left-margin-Ultralight-S" style="fill:none;stroke:#00AEEF;stroke-width:0.5;opacity:1.0;" x1="515.649" x2="515.649" y1="600.785" y2="720.121"/>
 </g>
 <g id="Symbols">
  <g id="Black-S" transform="matrix(1 0 0 1 2884.57 696)">
   <path class="monochrome-0 multicolor-0:tintColor hierarchical-0:primary SFSymbolsPreviewWireframe" d="M35.9708-42.7279C35.8623-42.8889 35.7818-43.0674 35.6419-43.2004C35.3164-43.5049 35.1799-43.8794 35.0399-44.2504C34.8719-44.6914 34.6899-45.1324 34.5919-45.5804C34.5114-45.9549 34.1894-46.1894 34.0004-46.4938C33.8288-46.781 33.6295-47.0506 33.4054-47.2988C33.2619-47.4633 33.0204-47.5578 32.8454-47.7048C32.629-47.8816 32.4297-48.0785 32.2504-48.2928C32.1664-48.3978 32.1734-48.5308 32.4184-48.5693C32.9574-48.6463 33.3214-48.3873 33.6924-48.1458C33.9374-47.9883 34.1579-47.8063 34.3714-47.6208C34.5884-47.4353 34.7599-47.2043 34.9944-47.0398C35.3864-46.7598 35.5649-46.3783 35.7818-46.0144C35.8168-45.9619 35.8483-45.9059 35.8623-45.8464C35.9673-45.4264 36.0478-44.9959 36.1738-44.5794C36.2613-44.2854 36.4048-44.0054 36.5343-43.7184C36.5553-43.6764 36.6253-43.6519 36.6743-43.6204C36.6953-43.6624 36.7338-43.7044 36.7373-43.7499L36.9508-45.4929C36.9823-45.7379 37.0208-45.9864 37.0733-46.2279C37.0803-46.2768 37.1503-46.3118 37.1888-46.3538C37.2343-46.3188 37.2938-46.2838 37.3218-46.2418C37.6123-45.8149 37.6298-45.3459 37.6333-44.8699C37.6333-44.5619 37.6123-44.2504 37.6753-43.9529C37.7978-43.3614 37.9693-42.7769 38.1338-42.1924C38.1723-42.0559 38.2668-41.9369 38.3718-41.7374L38.5188-42.0594C38.5293-42.0839 38.5188-42.1119 38.5258-42.1364C38.7253-42.6614 38.7253-43.2389 39.1102-43.7219C39.1977-43.8339 39.2082-43.9914 39.2572-44.1279C39.2922-44.2294 39.3132-44.3379 39.3832-44.4219C39.9747-45.1359 40.5767-45.8394 41.1682-46.5568C41.2242-46.6233 41.2137-46.7318 41.2382-46.8193C41.2452-46.8613 41.2347-46.9138 41.2592-46.9453C41.7317-47.5228 42.1902-48.1108 42.6872-48.6708C43.1772-49.2308 43.5377-49.8293 43.8072-50.4838C44.0241-51.0228 44.3041-51.5407 44.5281-52.0727C44.6261-52.3037 44.6331-52.5627 44.7101-52.7972C44.7661-52.9547 44.8956-53.0912 44.9656-53.2417C45.0531-53.4237 45.1056-53.6127 45.1896-53.7947C45.2246-53.8647 45.3296-53.9172 45.3681-53.9907C45.5606-54.3547 45.7426-54.7257 45.9281-55.0967C45.9561-55.1527 45.9806-55.2192 46.0331-55.2542C46.3936-55.4992 46.4776-55.8246 46.4671-56.1921C46.4531-56.6331 46.5021-57.0811 46.4426-57.5151C46.3545-58.0721 46.1495-58.6041 45.8406-59.0761C45.4241-59.7481 44.7556-60.2276 44.1606-60.7665C44.0976-60.8225 44.0836-60.9205 44.0451-60.9975C44.1466-61.008 44.2551-61.0465 44.3426-61.022C44.7626-60.889 45.2106-60.7805 45.5886-60.5811C45.9421-60.3921 46.2641-60.1296 46.5231-59.8496C46.8941-59.4541 47.2126-59.0201 47.5136-58.5826C47.7271-58.2746 47.8776-57.9316 48.0561-57.6026C48.0771-57.5676 48.1016-57.5151 48.1401-57.4976C48.5461-57.2876 48.945-57.0566 49.3685-56.8816C49.701-56.7416 50.065-56.6471 50.422-56.5666C51.003-56.4336 51.626-56.3916 52.172-56.1921C52.6725-56.0136 53.103-55.6882 53.5544-55.4117C53.8939-55.2017 54.2054-54.9637 54.5414-54.7467C54.7619-54.6032 55.0104-54.4807 55.2274-54.3337C55.4304-54.1937 55.6054-54.0362 55.7944-53.8857C56.4454-53.3537 56.9599-52.7307 57.4289-52.0832C57.7369-51.6632 57.9294-51.1802 58.1743-50.7253C58.3528-50.3928 58.5698-50.0743 58.7028-49.7313C58.9478-49.1013 59.1228-48.4538 59.0458-47.7818C59.0318-47.6873 59.0563-47.5893 59.0633-47.4913C59.0878-47.0398 59.1368-46.5918 59.1368-46.1404C59.1368-45.6224 59.0633-45.1044 59.0738-44.5864C59.0843-44.1734 59.1753-43.7639 59.2313-43.3509C59.2908-42.9169 59.3888-42.4829 59.4063-42.0489C59.4273-41.4889 59.3993-40.9254 59.3713-40.3654C59.3433-39.8019 59.3013-39.2384 59.2488-38.6784C59.1963-38.073 59.1438-37.4675 59.0633-36.8655C58.9618-36.1375 58.8148-35.4165 58.7203-34.6885C58.6398-34.076 58.6433-33.4566 58.5453-32.8476C58.4788-32.4031 58.3213-31.9691 58.1953-31.5316C58.1114-31.2551 58.0134-30.9821 57.9224-30.7091C57.8069-30.3696 57.6844-30.0301 57.5724-29.6871C57.4499-29.3231 57.3379-28.9557 57.2224-28.5882C57.0404-28.0072 56.8829-27.4157 56.6694-26.8382C56.4839-26.3482 56.2354-25.8722 56.0149-25.3892C55.7839-24.8887 55.5249-24.3987 55.3394-23.8913C55.088-23.1919 54.7593-22.5228 54.3594-21.8963C54.3253-21.8441 54.2982-21.7878 54.2789-21.7283C54.1048-21.0776 53.7303-20.4984 53.208-20.0728C53.0785-19.9713 52.823-19.9363 52.6305-19.9503C52.4205-19.9643 52.354-20.1323 52.305-20.3073C52.1498-20.8163 52.1414-21.3585 52.2805-21.8718C52.361-22.1518 52.5255-22.4178 52.6305-22.6908C52.746-22.9988 52.8475-23.3068 52.9455-23.6148C53.0575-23.9788 53.1555-24.3427 53.2605-24.7032L53.173-24.7382C53.11-24.6682 53.0295-24.6017 52.9875-24.5212C52.6935-23.9438 52.403-23.3628 52.1195-22.7783C51.8115-22.1413 51.5595-21.4833 51.185-20.8743C50.9085-20.4263 50.8035-19.9363 50.59-19.4744C50.4255-19.1244 50.387-18.7359 50.268-18.3684C50.121-17.8994 49.953-17.4339 49.7885-16.9684C49.771-16.9194 49.736-16.8739 49.7255-16.8284C49.6345-16.4434 49.5645-16.0549 49.4525-15.6734C49.3125-15.1869 49.141-14.704 48.973-14.221C48.8785-13.955 48.742-13.696 48.651-13.43C48.5951-13.262 48.616-13.073 48.5461-12.912C48.3886-12.562 48.1856-12.2225 48.0211-11.876C47.7341-11.2705 47.3736-10.6825 47.2091-10.056C47.0201-9.33506 46.7716-8.62108 46.7926-7.85809C46.8066-7.4171 46.6526-6.97261 46.5476-6.53512C46.5266-6.44412 46.3901-6.37063 46.3096-6.29013C46.2151-6.36013 46.1276-6.43362 46.0296-6.50012C45.7636-6.67512 45.8371-6.95511 45.7146-7.16161C45.5186-7.5011 45.7146-7.8266 45.6516-8.14859C45.5898-8.46942 45.5125-8.78703 45.4206-9.10057C45.3856-9.21257 45.4311-9.36306 45.1896-9.41206C44.8046-9.49256 44.6716-9.50306 44.4721-9.21607C44.1671-8.78412 43.8868-8.33554 43.6322-7.87209C43.4117-7.4801 43.1072-7.14761 42.7922-6.81162C42.5151-6.55846 42.2893-6.25425 42.1272-5.91564C42.0467-5.69164 41.8612-5.52714 41.7877-5.30315C41.7247-5.11765 41.5217-5.02665 41.2732-5.03006C41.0317-5.03715 40.9477-5.15965 40.9022-5.32765C40.7622-5.83864 40.8987-6.30763 41.1437-6.78712C41.3047-7.10211 41.3642-7.4626 41.4587-7.8021L42.3827-11.078C42.6382-12.0125 42.8867-12.947 43.1457-13.8815C43.2087-14.109 43.2857-14.3365 43.3592-14.5605C43.3708-14.6027 43.3968-14.6398 43.4327-14.6655C43.7547-14.8544 43.7547-15.1344 43.7582-15.4214C43.7582-15.5019 43.7757-15.5824 43.8037-15.6594L44.5001-17.5704C44.5876-17.8154 44.6856-18.0569 44.7731-18.2984C44.9936-18.9354 45.2561-19.5618 45.4276-20.2058C45.7925-21.6041 45.7342-23.0793 45.2596-24.4442C45.0846-24.9832 44.8746-25.5152 44.6821-26.0472C44.5981-26.2782 44.5281-26.5127 44.4336-26.7402C44.2566-27.1115 43.9938-27.4355 43.6672-27.6852C43.0669-28.1997 42.4719-28.72 41.8822-29.2461C41.7667-29.3511 41.6722-29.4666 41.5637-29.5786C41.2137-29.9356 40.8427-30.2821 40.5137-30.6531C40.2617-30.9331 40.0622-31.2446 39.8312-31.5351C39.6562-31.7556 39.4637-31.9621 39.2887-32.1861C39.2257-32.2666 39.2047-32.3751 39.1487-32.4626C39.0338-32.642 38.9125-32.8172 38.7848-32.9876C38.7008-33.1031 38.4348-33.0611 38.3438-32.9071C38.0008-32.3331 37.4618-31.8956 36.9088-31.4651C36.6201-31.2359 36.2587-31.118 35.8903-31.1326C35.7783-31.1361 35.6663-31.2131 35.5754-31.2726C35.5579-31.2866 35.6279-31.4021 35.6733-31.4581C36.1108-31.9936 36.5693-32.5151 36.9858-33.0646C37.3466-33.5161 37.5306-34.0833 37.5038-34.6605C37.4968-34.7865 37.5458-34.916 37.5248-35.0385C37.5108-35.1225 37.4128-35.196 37.3533-35.2765C37.3323-35.3045 37.2833-35.336 37.2903-35.3605C37.3463-35.5705 37.1958-35.7105 37.0313-35.8295C36.7023-36.0745 36.6533-36.3615 36.7093-36.715C36.7793-37.149 36.7898-37.59 36.7933-38.031C36.7933-38.619 36.7443-39.2069 36.7478-39.7949C36.7478-40.1624 36.4783-40.3934 36.2578-40.6594L35.6978-41.3244C35.4109-41.6604 35.1274-41.9929 34.8299-42.3184C34.4869-42.6929 34.1089-43.0464 33.7799-43.4279C33.4369-43.8199 33.1324-44.2329 32.8069-44.6389C32.7789-44.6739 32.7299-44.7019 32.6984-44.7404C32.5444-44.9224 32.4079-45.1184 32.2329-45.2829C32.0641-45.4428 31.8746-45.5794 31.6694-45.6889C31.5049-45.7764 31.3964-45.8604 31.4174-46.0249C31.4349-46.1894 31.5644-46.2488 31.7534-46.2628C32.2084-46.2978 32.5794-46.1509 32.8244-45.8429C33.0729-45.5314 33.4299-45.3284 33.7694-45.1079C34.3224-44.7474 34.7564-44.3379 34.9314-43.7429C34.9839-43.5574 35.1904-43.4034 35.3339-43.2389C35.4669-43.0849 35.6104-42.9344 35.7538-42.7839C35.7888-42.7419 35.8413-42.7139 35.8868-42.6789L35.9708-42.7279L35.9708-42.7279Z"/>
   <path class="monochrome-1 multicolor-1:tintColor hierarchical-1:tertiary SFSymbolsPreviewWireframe" d="M48.9411-84C55.3091-84.0013 61.615-82.7479 67.4985-80.3116C73.382-77.8752 78.7279-74.3036 83.2305-69.8009C87.7334-65.2983 91.305-59.9524 93.7418-54.0682C96.1779-48.1846 97.4312-41.8789 97.43-35.5124C97.43-8.72255 75.7254 13 48.9424 13C22.156 13 0.43-8.726 0.43-35.5124C0.43-62.2926 22.1539-84 48.9411-84ZM48.9424-70C29.8835-70 14.43-54.5582 14.43-35.5124C14.43-16.458 29.888-0.999999 48.9424-0.999999C67.9909-0.999999 83.43-16.4519 83.43-35.5138C83.4309-40.0428 82.5395-44.5276 80.8069-48.7121C79.0739-52.8969 76.5337-56.6989 73.3311-59.9013C70.1287-63.1038 66.3266-65.644 62.1422-67.3767C57.9578-69.1095 53.4729-70.0009 48.9424-70Z"/>
  </g>
  <g id="Regular-S" transform="matrix(1 0 0 1 1403.58 696)">
   <path class="monochrome-0 multicolor-0:tintColor hierarchical-0:primary SFSymbolsPreviewWireframe" d="M31.9474-45.7955C31.8158-45.9908 31.7181-46.2074 31.5483-46.3687C31.1534-46.7382 30.9878-47.1926 30.818-47.6427C30.6141-48.1777 30.3933-48.7127 30.2744-49.2562C30.1768-49.7105 29.7861-49.995 29.5568-50.3644C29.3487-50.7128 29.1069-51.0399 28.835-51.3411C28.6609-51.5406 28.3679-51.6553 28.1556-51.8336C27.893-52.0481 27.6513-52.2869 27.4338-52.547C27.3319-52.6744 27.3404-52.8357 27.6376-52.8824C28.2915-52.9758 28.7331-52.6616 29.1832-52.3686C29.4804-52.1776 29.7479-51.9568 30.0069-51.7317C30.2702-51.5067 30.4783-51.2264 30.7628-51.0268C31.2383-50.6872 31.4549-50.2243 31.7181-49.7827C31.7606-49.719 31.7988-49.6511 31.8158-49.5789C31.9432-49.0694 32.0408-48.5471 32.1937-48.0418C32.2999-47.6851 32.474-47.3454 32.6311-46.9972C32.6565-46.9463 32.7415-46.9166 32.8009-46.8784C32.8264-46.9293 32.8731-46.9803 32.8773-47.0355L33.1363-49.15C33.1745-49.4473 33.2212-49.7488 33.2849-50.0417C33.2934-50.1012 33.3784-50.1436 33.4251-50.1946C33.4803-50.1521 33.5524-50.1097 33.5864-50.0587C33.9388-49.5407 33.9601-48.9717 33.9643-48.3942C33.9643-48.0206 33.9388-47.6427 34.0153-47.2817C34.1639-46.5641 34.372-45.855 34.5715-45.1459C34.6182-44.9803 34.7329-44.8359 34.8603-44.5939L35.0386-44.9845C35.0513-45.0142 35.0386-45.0482 35.0471-45.0779C35.2891-45.7148 35.2891-46.4155 35.7562-47.0015C35.8624-47.1374 35.8751-47.3284 35.9345-47.494C35.977-47.6172 36.0025-47.7488 36.0874-47.8507C36.805-48.7169 37.5353-49.5704 38.2529-50.4409C38.3209-50.5216 38.3081-50.6532 38.3379-50.7593C38.3464-50.8103 38.3336-50.874 38.3633-50.9122C38.9366-51.6128 39.4928-52.3262 40.0958-53.0056C40.6902-53.6849 41.1276-54.411 41.4545-55.2051C41.7178-55.859 42.0575-56.4874 42.3292-57.1328C42.4481-57.4131 42.4566-57.7273 42.55-58.0118C42.618-58.2028 42.7751-58.3684 42.86-58.551C42.9662-58.7718 43.0299-59.0011 43.1318-59.2219C43.1742-59.3068 43.3016-59.3705 43.3483-59.4597C43.5819-59.9013 43.8027-60.3514 44.0277-60.8015C44.0617-60.8694 44.0914-60.9501 44.1551-60.9926C44.5924-61.2898 44.6944-61.6847 44.6816-62.1305C44.6646-62.6656 44.7241-63.2091 44.6519-63.7356C44.545-64.4114 44.2963-65.0568 43.9216-65.6294C43.4163-66.4446 42.6052-67.0264 41.8834-67.6803C41.807-67.7482 41.79-67.8671 41.7433-67.9605C41.8664-67.9732 41.998-68.02 42.1042-67.9902C42.6137-67.8289 43.1572-67.6972 43.6158-67.4552C44.0447-67.2259 44.4353-66.9075 44.7496-66.5678C45.1996-66.088 45.586-65.5614 45.9512-65.0307C46.2102-64.657 46.3928-64.2409 46.6094-63.8417C46.6348-63.7993 46.6646-63.7356 46.7113-63.7144C47.2038-63.4596 47.6879-63.1793 48.2017-62.967C48.6051-62.7972 49.0467-62.6825 49.4798-62.5849C50.1846-62.4235 50.9404-62.3726 51.6028-62.1305C52.21-61.914 52.7323-61.5191 53.2801-61.1836C53.692-60.9289 54.0699-60.6401 54.4775-60.3769C54.745-60.2028 55.0465-60.0542 55.3097-59.8758C55.556-59.706 55.7683-59.5149 55.9976-59.3323C56.7874-58.6869 57.4116-57.9311 57.9806-57.1456C58.3542-56.636 58.5878-56.05 58.885-55.498C59.1016-55.0947 59.3648-54.7083 59.5262-54.2921C59.8234-53.5278 60.0357-52.7423 59.9423-51.927C59.9253-51.8124 59.955-51.6935 59.9635-51.5746C59.9932-51.0268 60.0527-50.4833 60.0527-49.9356C60.0527-49.3072 59.9635-48.6787 59.9763-48.0503C59.989-47.5492 60.0994-47.0524 60.1673-46.5514C60.2395-46.0248 60.3584-45.4983 60.3796-44.9718C60.4051-44.2924 60.3712-43.6087 60.3372-42.9294C60.3032-42.2457 60.2523-41.5621 60.1886-40.8827C60.1249-40.1481 60.0612-39.4135 59.9635-38.6832C59.8404-37.8 59.662-36.9253 59.5474-36.0421C59.4497-35.299 59.454-34.5475 59.3351-33.8086C59.2544-33.2694 59.0633-32.7428 58.9105-32.2121C58.8086-31.8766 58.6897-31.5454 58.5793-31.2142C58.4392-30.8023 58.2905-30.3905 58.1547-29.9743C58.006-29.5327 57.8702-29.0869 57.73-28.6411C57.5092-27.9362 57.3182-27.2186 57.0592-26.518C56.8341-25.9235 56.5326-25.346 56.2651-24.7601C55.9849-24.1529 55.6707-23.5584 55.4456-22.9427C55.1406-22.0942 54.7418-21.2825 54.2567-20.5224C54.2153-20.4591 54.1824-20.3908 54.159-20.3186C53.9478-19.5292 53.4934-18.8264 52.8597-18.3102C52.7026-18.187 52.3926-18.1446 52.1591-18.1615C51.9043-18.1785 51.8236-18.3823 51.7642-18.5947C51.576-19.2121 51.5657-19.8699 51.7345-20.4927C51.8321-20.8324 52.0317-21.1551 52.1591-21.4863C52.2992-21.8599 52.4224-22.2336 52.5412-22.6073C52.6771-23.0489 52.796-23.4905 52.9234-23.9278L52.8172-23.9703C52.7408-23.8854 52.6432-23.8047 52.5922-23.707C52.2355-23.0064 51.8831-22.3015 51.5392-21.5924C51.1655-20.8196 50.8598-20.0214 50.4054-19.2825C50.07-18.739 49.9426-18.1446 49.6836-17.5841C49.484-17.1595 49.4373-16.6881 49.2929-16.2423C49.1146-15.6733 48.9108-15.1086 48.7112-14.5438C48.69-14.4844 48.6475-14.4292 48.6348-14.374C48.5244-13.9069 48.4395-13.4356 48.3036-12.9727C48.1337-12.3825 47.9257-11.7966 47.7219-11.2106C47.6072-10.8879 47.4416-10.5737 47.3312-10.251C47.2633-10.0471 47.2888-9.81786 47.2038-9.62253C47.0128-9.19792 46.7665-8.78604 46.5669-8.36567C46.2187-7.63109 45.7814-6.91773 45.5818-6.15767C45.3525-5.28296 45.051-4.41675 45.0765-3.49109C45.0935-2.95607 44.9067-2.41681 44.7793-1.88604C44.7538-1.77564 44.5882-1.68647 44.4905-1.58881C44.3759-1.67373 44.2697-1.7629 44.1508-1.84358C43.8281-2.05589 43.9173-2.39558 43.7687-2.6461C43.5309-3.05798 43.7687-3.45287 43.6923-3.84352C43.6172-4.23275 43.5235-4.61809 43.412-4.99847C43.3696-5.13435 43.4248-5.31693 43.1318-5.37638C42.6647-5.47404 42.5033-5.48678 42.2613-5.13859C41.8912-4.61455 41.5511-4.07033 41.2422-3.50807C40.9747-3.0325 40.6053-2.62912 40.2232-2.22149C39.887-1.91435 39.6131-1.54529 39.4164-1.13447C39.3187-0.862717 39.0937-0.663148 39.0045-0.391394C38.9281-0.166348 38.6818-0.0559478 38.3803-0.060076C38.0873-0.0686862 37.9854-0.217302 37.9302-0.421117C37.7604-1.04106 37.926-1.61004 38.2232-2.19176C38.4185-2.57392 38.4907-3.01127 38.6054-3.42315L39.7264-7.39755C40.0363-8.53127 40.3378-9.66499 40.652-10.7987C40.7284-11.0747 40.8219-11.3507 40.911-11.6225C40.9252-11.6738 40.9567-11.7187 41.0002-11.7499C41.3908-11.9791 41.3908-12.3188 41.3951-12.667C41.3951-12.7647 41.4163-12.8623 41.4503-12.9558L42.2953-15.2742C42.4014-15.5714 42.5203-15.8644 42.6265-16.1574C42.894-16.9302 43.2124-17.6902 43.4205-18.4715C43.8632-20.1679 43.7924-21.9576 43.2167-23.6136C43.0044-24.2675 42.7496-24.9129 42.5161-25.5583C42.4142-25.8386 42.3292-26.1231 42.2146-26.3991C41.9998-26.8495 41.681-27.2427 41.2847-27.5455C40.5565-28.1697 39.8346-28.801 39.1192-29.4393C38.979-29.5667 38.8644-29.7068 38.7328-29.8427C38.3081-30.2758 37.858-30.6962 37.4589-31.1463C37.1532-31.486 36.9112-31.8639 36.6309-32.2163C36.4186-32.4838 36.1851-32.7343 35.9728-33.0061C35.8963-33.1038 35.8708-33.2354 35.8029-33.3415C35.6635-33.5592 35.5163-33.7718 35.3613-33.9785C35.2594-34.1186 34.9367-34.0676 34.8263-33.8808C34.4102-33.1844 33.7563-32.6537 33.0854-32.1314C32.7351-31.8533 32.2966-31.7103 31.8498-31.728C31.7139-31.7323 31.578-31.8257 31.4676-31.8979C31.4464-31.9148 31.5313-32.055 31.5865-32.1229C32.1173-32.7726 32.6735-33.4052 33.1788-34.0719C33.6165-34.6196 33.8398-35.3079 33.8072-36.0081C33.7987-36.161 33.8582-36.3181 33.8327-36.4667C33.8157-36.5686 33.6968-36.6578 33.6246-36.7555C33.5992-36.7894 33.5397-36.8276 33.5482-36.8574C33.6161-37.1121 33.4336-37.282 33.234-37.4263C32.8348-37.7236 32.7754-38.0718 32.8433-38.5006C32.9283-39.0271 32.941-39.5622 32.9452-40.0972C32.9452-40.8105 32.8858-41.5239 32.89-42.2372C32.89-42.6831 32.5631-42.9633 32.2956-43.286L31.6162-44.0928C31.268-44.5004 30.9241-44.9038 30.5632-45.2987C30.1471-45.7531 29.6885-46.1819 29.2893-46.6448C28.8732-47.1204 28.5038-47.6214 28.1089-48.114C28.0749-48.1564 28.0155-48.1904 27.9773-48.2371C27.7904-48.4579 27.6248-48.6957 27.4125-48.8953C27.2078-49.0894 26.9778-49.255 26.7289-49.3878C26.5293-49.494 26.3977-49.5959 26.4232-49.7955C26.4444-49.995 26.6015-50.0672 26.8308-50.0842C27.3828-50.1267 27.8329-49.9483 28.1301-49.5747C28.4316-49.1968 28.8647-48.9505 29.2766-48.683C29.9475-48.2456 30.474-47.7488 30.6863-47.027C30.75-46.8019 31.0005-46.6151 31.1746-46.4155C31.336-46.2286 31.5101-46.046 31.6842-45.8635C31.7266-45.8125 31.7903-45.7785 31.8455-45.7361L31.9474-45.7955L31.9474-45.7955Z"/>
   <path class="monochrome-1 multicolor-1:tintColor hierarchical-1:tertiary SFSymbolsPreviewWireframe" d="M46.4321-81.8365C52.4502-81.8377 58.4096-80.6532 63.9698-78.3508C69.53-76.0483 74.5822-72.6729 78.8374-68.4176C83.0928-64.1624 86.4682-59.1103 88.771-53.5496C91.0733-47.9892 92.2577-42.03 92.2566-36.0127C92.2566-10.693 71.744 9.83658 46.4328 9.83658C21.1173 9.83658 0.5835-10.6972 0.5835-36.0127C0.5835-61.3211 21.1145-81.8365 46.4321-81.8365ZM46.4328-75.0865C24.8413-75.0865 7.3335-57.592 7.3335-36.0127C7.3335-14.4252 24.8452 3.08658 46.4328 3.08658C68.0148 3.08658 85.5066-14.4197 85.5066-36.0133C85.5076-41.1447 84.4976-46.226 82.5345-50.9672C80.571-55.7085 77.693-60.0162 74.0644-63.6446C70.4361-67.273 66.1283-70.1511 61.3873-72.1143C56.6463-74.0776 51.5649-75.0875 46.4328-75.0865Z"/>
  </g>
  <g id="Ultralight-S" transform="matrix(1 0 0 1 515.649 696)">
   <path class="monochrome-0 multicolor-0:tintColor hierarchical-0:primary SFSymbolsPreviewWireframe" d="M29.715-46.959C29.5833-47.1543 29.4857-47.3709 29.3158-47.5322C28.9209-47.9017 28.7553-48.356 28.5855-48.8061C28.3817-49.3411 28.1609-49.8762 28.042-50.4197C27.9443-50.874 27.5537-51.1585 27.3244-51.5279C27.1162-51.8762 26.8745-52.2033 26.6025-52.5045C26.4284-52.7041 26.1355-52.8187 25.9232-52.9971C25.6606-53.2115 25.4189-53.4504 25.2013-53.7104C25.0994-53.8378 25.1079-53.9992 25.4051-54.0459C26.059-54.1393 26.5006-53.8251 26.9507-53.5321C27.248-53.341 27.5155-53.1202 27.7745-52.8952C28.0377-52.6701 28.2458-52.3899 28.5303-52.1903C29.0059-51.8506 29.2224-51.3878 29.4857-50.9462C29.5281-50.8825 29.5664-50.8146 29.5833-50.7424C29.7107-50.2328 29.8084-49.7106 29.9612-49.2053C30.0674-48.8486 30.2415-48.5089 30.3986-48.1607C30.4241-48.1098 30.509-48.08 30.5684-48.0418C30.5939-48.0928 30.6406-48.1437 30.6448-48.1989L30.9039-50.3135C30.9421-50.6107 30.9888-50.9122 31.0525-51.2052C31.061-51.2646 31.1459-51.3071 31.1926-51.3581C31.2478-51.3156 31.32-51.2731 31.354-51.2222C31.7064-50.7042 31.7276-50.1352 31.7319-49.5577C31.7319-49.184 31.7064-48.8061 31.7828-48.4452C31.9314-47.7276 32.1395-47.0184 32.3391-46.3093C32.3858-46.1437 32.5004-45.9993 32.6278-45.7573L32.8061-46.148C32.8189-46.1777 32.8061-46.2117 32.8146-46.2414C33.0567-46.8783 33.0567-47.5789 33.5237-48.165C33.6299-48.3008 33.6426-48.4919 33.7021-48.6575C33.7445-48.7806 33.77-48.9123 33.8549-49.0142C34.5725-49.8804 35.3029-50.7339 36.0205-51.6043C36.0884-51.685 36.0757-51.8166 36.1054-51.9228C36.1139-51.9738 36.1012-52.0374 36.1309-52.0757C36.7041-52.7763 37.2604-53.4896 37.8633-54.169C38.4578-54.8484 38.8951-55.5745 39.2221-56.3685C39.4853-57.0224 39.825-57.6509 40.0968-58.2963C40.2157-58.5765 40.2242-58.8907 40.3176-59.1752C40.3855-59.3663 40.5426-59.5319 40.6276-59.7145C40.7337-59.9353 40.7974-60.1646 40.8993-60.3854C40.9418-60.4703 41.0692-60.534 41.1159-60.6232C41.3494-61.0648 41.5702-61.5149 41.7952-61.965C41.8292-62.0329 41.8589-62.1136 41.9226-62.156C42.36-62.4533 42.4619-62.8482 42.4492-63.294C42.4322-63.829 42.4916-64.3725 42.4194-64.899C42.3126-65.5748 42.0638-66.2203 41.6891-66.7928C41.1838-67.6081 40.3728-68.1898 39.6509-68.8437C39.5745-68.9117 39.5575-69.0306 39.5108-69.124C39.634-69.1367 39.7656-69.1834 39.8717-69.1537C40.3813-68.9923 40.9248-68.8607 41.3834-68.6187C41.8122-68.3894 42.2029-68.0709 42.5171-67.7312C42.9672-67.2514 43.3536-66.7249 43.7188-66.1941C43.9778-65.8205 44.1604-65.4043 44.3769-65.0052C44.4024-64.9627 44.4321-64.899 44.4788-64.8778C44.9714-64.623 45.4554-64.3428 45.9692-64.1305C46.3726-63.9606 46.8142-63.846 47.2473-63.7483C47.9522-63.587 48.708-63.536 49.3704-63.294C49.9776-63.0774 50.4999-62.6826 51.0476-62.3471C51.4595-62.0923 51.8374-61.8036 52.245-61.5403C52.5125-61.3662 52.814-61.2176 53.0773-61.0393C53.3236-60.8694 53.5359-60.6784 53.7652-60.4958C54.5549-59.8504 55.1791-59.0946 55.7481-58.309C56.1218-57.7995 56.3553-57.2135 56.6525-56.6615C56.8691-56.2581 57.1324-55.8717 57.2937-55.4556C57.5909-54.6913 57.8032-53.9058 57.7098-53.0905C57.6928-52.9758 57.7226-52.857 57.7311-52.7381C57.7608-52.1903 57.8202-51.6468 57.8202-51.099C57.8202-50.4706 57.7311-49.8422 57.7438-49.2138C57.7565-48.7127 57.8669-48.2159 57.9349-47.7149C58.0071-47.1883 58.126-46.6617 58.1472-46.1352C58.1727-45.4558 58.1387-44.7722 58.1047-44.0928C58.0708-43.4092 58.0198-42.7256 57.9561-42.0462C57.8924-41.3116 57.8287-40.577 57.7311-39.8467C57.6079-38.9635 57.4296-38.0888 57.3149-37.2056C57.2173-36.4625 57.2215-35.7109 57.1026-34.9721C57.022-34.4328 56.8309-33.9063 56.678-33.3755C56.5761-33.0401 56.4572-32.7089 56.3468-32.3777C56.2067-31.9658 56.0581-31.5539 55.9222-31.1378C55.7736-30.6962 55.6377-30.2504 55.4976-29.8045C55.2768-29.0997 55.0857-28.3821 54.8267-27.6814C54.6016-27.087 54.3002-26.5095 54.0327-25.9235C53.7524-25.3163 53.4382-24.7219 53.2132-24.1062C52.9081-23.2577 52.5094-22.4459 52.0242-21.6859C51.9828-21.6225 51.9499-21.5542 51.9266-21.4821C51.7153-20.6926 51.261-19.9899 50.6272-19.4736C50.4701-19.3505 50.1602-19.308 49.9266-19.325C49.6719-19.342 49.5912-19.5458 49.5317-19.7581C49.3435-20.3756 49.3332-21.0334 49.502-21.6561C49.5997-21.9958 49.7992-22.3185 49.9266-22.6497C50.0668-23.0234 50.1899-23.3971 50.3088-23.7707C50.4447-24.2123 50.5636-24.6539 50.6909-25.0913L50.5848-25.1337C50.5084-25.0488 50.4107-24.9681 50.3597-24.8705C50.0031-24.1699 49.6506-23.465 49.3067-22.7559C48.933-21.9831 48.6273-21.1848 48.173-20.446C47.8375-19.9025 47.7101-19.308 47.4511-18.7475C47.2516-18.3229 47.2048-17.8516 47.0605-17.4057C46.8821-16.8368 46.6783-16.272 46.4788-15.7073C46.4575-15.6478 46.4151-15.5926 46.4023-15.5374C46.2919-15.0704 46.207-14.599 46.0711-14.1362C45.9013-13.546 45.6932-12.96 45.4894-12.3741C45.3748-12.0513 45.2092-11.7371 45.0988-11.4144C45.0308-11.2106 45.0563-10.9813 44.9714-10.786C44.7803-10.3614 44.534-9.9495 44.3344-9.52913C43.9863-8.79455 43.5489-8.08119 43.3493-7.32113C43.12-6.44642 42.8186-5.58021 42.844-4.65455C42.861-4.11953 42.6742-3.58027 42.5468-3.0495C42.5213-2.9391 42.3557-2.84993 42.2581-2.75227C42.1434-2.83719 42.0373-2.92636 41.9184-3.00704C41.5957-3.21935 41.6848-3.55904 41.5362-3.80956C41.2984-4.22144 41.5362-4.61633 41.4598-5.00698C41.3848-5.39621 41.291-5.78155 41.1796-6.16193C41.1371-6.29781 41.1923-6.48039 40.8993-6.53984C40.4322-6.6375 40.2709-6.65024 40.0288-6.30205C39.6587-5.77801 39.3187-5.23379 39.0098-4.67153C38.7423-4.19596 38.3728-3.79258 37.9907-3.38495C37.6545-3.07781 37.3807-2.70875 37.1839-2.29793C37.0863-2.02618 36.8612-1.82661 36.772-1.55485C36.6956-1.32981 36.4493-1.21941 36.1479-1.22353C35.8549-1.23215 35.753-1.38076 35.6978-1.58458C35.5279-2.20451 35.6935-2.7735 35.9908-3.35522C36.1861-3.73738 36.2583-4.17473 36.3729-4.58661L37.4939-8.56101C37.8039-9.69473 38.1053-10.8285 38.4196-11.9622C38.496-12.2382 38.5894-12.5142 38.6786-12.7859C38.6927-12.8372 38.7242-12.8822 38.7677-12.9133C39.1584-13.1426 39.1584-13.4823 39.1626-13.8305C39.1626-13.9281 39.1839-14.0258 39.2178-14.1192L40.0628-16.4376C40.169-16.7349 40.2879-17.0278 40.394-17.3208C40.6615-18.0936 40.98-18.8537 41.188-19.635C41.6307-21.3313 41.5599-23.1211 40.9842-24.7771C40.7719-25.431 40.5172-26.0764 40.2836-26.7218C40.1817-27.0021 40.0968-27.2865 39.9821-27.5625C39.7674-28.013 39.4485-28.4061 39.0522-28.709C38.324-29.3332 37.6022-29.9645 36.8867-30.6028C36.7466-30.7302 36.6319-30.8703 36.5003-31.0062C36.0757-31.4393 35.6256-31.8597 35.2264-32.3097C34.9207-32.6494 34.6787-33.0273 34.3984-33.3798C34.1861-33.6473 33.9526-33.8978 33.7403-34.1696C33.6639-34.2672 33.6384-34.3989 33.5704-34.505C33.431-34.7226 33.2838-34.9353 33.1288-35.1419C33.0269-35.2821 32.7042-35.2311 32.5938-35.0443C32.1777-34.3479 31.5238-33.8171 30.8529-33.2949C30.5026-33.0167 30.0642-32.8738 29.6173-32.8915C29.4814-32.8957 29.3456-32.9891 29.2352-33.0613C29.2139-33.0783 29.2988-33.2184 29.354-33.2864C29.8848-33.936 30.4411-34.5687 30.9463-35.2353C31.384-35.7831 31.6073-36.4713 31.5748-37.1716C31.5663-37.3245 31.6257-37.4816 31.6002-37.6302C31.5832-37.7321 31.4644-37.8213 31.3922-37.9189C31.3667-37.9529 31.3072-37.9911 31.3157-38.0208C31.3837-38.2756 31.2011-38.4454 31.0015-38.5898C30.6024-38.887 30.543-39.2352 30.6109-39.6641C30.6958-40.1906 30.7085-40.7256 30.7128-41.2606C30.7128-41.974 30.6533-42.6873 30.6576-43.4007C30.6576-43.8465 30.3307-44.1268 30.0632-44.4495L29.3838-45.2563C29.0356-45.6639 28.6916-46.0673 28.3307-46.4622C27.9146-46.9165 27.456-47.3454 27.0569-47.8083C26.6408-48.2838 26.2713-48.7849 25.8764-49.2774C25.8425-49.3199 25.783-49.3539 25.7448-49.4006C25.558-49.6214 25.3924-49.8592 25.1801-50.0587C24.9753-50.2528 24.7454-50.4185 24.4964-50.5513C24.2969-50.6574 24.1652-50.7594 24.1907-50.9589C24.212-51.1585 24.3691-51.2307 24.5984-51.2477C25.1504-51.2901 25.6004-51.1118 25.8977-50.7381C26.1992-50.3602 26.6323-50.1139 27.0441-49.8464C27.715-49.4091 28.2416-48.9123 28.4539-48.1904C28.5176-47.9654 28.7681-47.7786 28.9422-47.5789C29.1035-47.3921 29.2776-47.2095 29.4517-47.0269C29.4942-46.976 29.5579-46.942 29.6131-46.8995L29.715-46.959L29.715-46.959Z"/>
   <path class="monochrome-1 multicolor-1:tintColor hierarchical-1:tertiary SFSymbolsPreviewWireframe" d="M44.3636-80.5865C50.0861-80.5876 55.7528-79.4613 61.04-77.272C66.3271-75.0826 71.1312-71.8729 75.1774-67.8265C79.2239-63.7803 82.4335-58.9764 84.6232-53.6889C86.8124-48.4015 87.9387-42.7349 87.9376-37.0127C87.9376-12.9352 68.432 6.58658 44.3638 6.58658C20.2909 6.58658 0.7645-12.9399 0.7645-37.0127C0.7645-61.0781 20.2877-80.5865 44.3636-80.5865ZM44.3638-78.3365C21.53-78.3365 3.0145-59.8351 3.0145-37.0127C3.0145-14.1825 21.5336 4.33658 44.3638 4.33658C67.1889 4.33658 85.6876-14.1774 85.6876-37.0129C85.6886-42.4398 84.6205-47.8138 82.5443-52.828C80.4678-57.8425 77.4239-62.3983 73.5865-66.2355C69.7491-70.073 65.1932-73.1168 60.1791-75.1931C55.1651-77.2695 49.791-78.3376 44.3638-78.3365Z"/>
  </g>
 </g>
</svg>
