<?xml version="1.0" encoding="UTF-8"?>
<svg width="3300px" height="2200px" viewBox="0 0 3300 2200" version="1.1" xmlns="http://www.w3.org/2000/svg" xmlns:xlink="http://www.w3.org/1999/xlink">
    <!-- Generator: Sketch 59.1 (86144) - https://sketch.com -->
    <title>filter</title>
    <desc>Created with Sketch.</desc>
    <g id="Page-1" stroke="none" stroke-width="1" fill="none" fill-rule="evenodd">
        <g id="filter">
            <g id="Notes">
                <rect id="artboard" fill="#FFFFFF" fill-rule="nonzero" x="0" y="0" width="3300" height="2200"></rect>
                <line x1="263" y1="292" x2="3036" y2="292" id="Path" stroke="#000000" stroke-width="0.5"></line>
                <text id="Weight/Scale-Variations" fill="#000000" font-family="Helvetica-Bold, Helvetica" font-size="13" font-weight="bold">
                    <tspan x="263" y="322">Weight/Scale Variations</tspan>
                </text>
                <text id="Ultralight" fill="#000000" font-family="Helvetica" font-size="13" font-weight="normal">
                    <tspan x="533.711" y="322">Ultralight</tspan>
                </text>
                <text id="Thin" fill="#000000" font-family="Helvetica" font-size="13" font-weight="normal">
                    <tspan x="843.422" y="322">Thin</tspan>
                </text>
                <text id="Light" fill="#000000" font-family="Helvetica" font-size="13" font-weight="normal">
                    <tspan x="1138.63" y="322">Light</tspan>
                </text>
                <text id="Regular" fill="#000000" font-family="Helvetica" font-size="13" font-weight="normal">
                    <tspan x="1426.84" y="322">Regular</tspan>
                </text>
                <text id="Medium" fill="#000000" font-family="Helvetica" font-size="13" font-weight="normal">
                    <tspan x="1723.06" y="322">Medium</tspan>
                </text>
                <text id="Semibold" fill="#000000" font-family="Helvetica" font-size="13" font-weight="normal">
                    <tspan x="2015.77" y="322">Semibold</tspan>
                </text>
                <text id="Bold" fill="#000000" font-family="Helvetica" font-size="13" font-weight="normal">
                    <tspan x="2326.48" y="322">Bold</tspan>
                </text>
                <text id="Heavy" fill="#000000" font-family="Helvetica" font-size="13" font-weight="normal">
                    <tspan x="2618.19" y="322">Heavy</tspan>
                </text>
                <text id="Black" fill="#000000" font-family="Helvetica" font-size="13" font-weight="normal">
                    <tspan x="2917.4" y="322">Black</tspan>
                </text>
                <line x1="263" y1="1903" x2="3036" y2="1903" id="Path" stroke="#000000" stroke-width="0.5"></line>
                <g id="Group" transform="translate(264.000000, 1918.000000)" fill="#000000" fill-rule="nonzero">
                    <path d="M8.24805,15.830078 C12.5547,15.830078 16.1387,12.25586 16.1387,7.94922 C16.1387,3.6426 12.5449,0.0684 8.23828,0.0684 C3.94141,0.0684 0.36719,3.6426 0.36719,7.94922 C0.36719,12.25586 3.95117,15.830078 8.24805,15.830078 Z M8.24805,14.345703 C4.70312,14.345703 1.87109,11.50391 1.87109,7.94922 C1.87109,4.3945 4.69336,1.5527 8.23828,1.5527 C11.793,1.5527 14.6348,4.3945 14.6445503,7.94922 C14.6543,11.50391 11.8027,14.345703 8.24805,14.345703 Z M8.22852,11.57227 C8.69727,11.57227 8.9707,11.25977 8.9707,10.74219 L8.9707,8.68164 L11.1973,8.68164 C11.6953,8.68164 12.0371,8.42773 12.0371,7.95898 C12.0371,7.48047 11.7148,7.2168 11.1973,7.2168 L8.9707,7.2168 L8.9707,4.9902 C8.9707,4.4727 8.69727,4.1504 8.22852,4.1504 C7.75977,4.1504 7.50586,4.4922 7.50586,4.9902 L7.50586,7.2168 L5.29883,7.2168 C4.78125,7.2168 4.44922,7.48047 4.44922,7.95898 C4.44922,8.42773 4.80078,8.68164 5.29883,8.68164 L7.50586,8.68164 L7.50586,10.74219 C7.50586,11.24023 7.75977,11.57227 8.22852,11.57227 Z" id="Shape"></path>
                </g>
                <g id="Group" transform="translate(282.506000, 1915.000000)" fill="#000000" fill-rule="nonzero">
                    <path d="M10.709,20.91016 C16.1582,20.91016 20.6699,16.39844 20.6699,10.94922 C20.6699,5.5098 16.1484,0.9883 10.6992,0.9883 C5.25977,0.9883 0.74805,5.5098 0.74805,10.94922 C0.74805,16.39844 5.26953,20.91016 10.709,20.91016 Z M10.709,19.25 C6.09961,19.25 2.41797,15.55859 2.41797,10.94922 C2.41797,6.3496 6.08984,2.6484 10.6992,2.6484 C15.3086,2.6484 19,6.3496 19.0098379,10.94922 C19.0195,15.55859 15.3184,19.25 10.709,19.25 Z M10.6895,15.58789 C11.207,15.58789 11.5195,15.22656 11.5195,14.66016 L11.5195,11.76953 L14.5762,11.76953 C15.123,11.76953 15.5039,11.48633 15.5039,10.96875 C15.5039,10.44141 15.1426,10.13867 14.5762,10.13867 L11.5195,10.13867 L11.5195,7.0723 C11.5195,6.4961 11.207,6.1445 10.6895,6.1445 C10.1719,6.1445 9.8789,6.5156 9.8789,7.0723 L9.8789,10.13867 L6.83203,10.13867 C6.26562,10.13867 5.89453,10.44141 5.89453,10.96875 C5.89453,11.48633 6.28516,11.76953 6.83203,11.76953 L9.8789,11.76953 L9.8789,14.66016 C9.8789,15.20703 10.1719,15.58789 10.6895,15.58789 Z" id="Shape"></path>
                </g>
                <g id="Group" transform="translate(306.924000, 1913.000000)" fill="#000000" fill-rule="nonzero">
                    <path d="M12.9707,25.67383 C19.9336,25.67383 25.6953,19.921875 25.6953,12.95898 C25.6953,5.9961 19.9238,0.2441 12.9609,0.2441 C6.00781,0.2441 0.25586,5.9961 0.25586,12.95898 C0.25586,19.921875 6.01758,25.67383 12.9707,25.67383 Z M12.9707,23.85742 C6.93555,23.85742 2.08203,18.99414 2.08203,12.95898 C2.08203,6.9238 6.92578,2.0605 12.9609,2.0605 C19.0059,2.0605 23.8594,6.9238 23.8691295,12.95898 C23.8789,18.99414 19.0156,23.85742 12.9707,23.85742 Z M12.9512,18.93555 C13.5176,18.93555 13.8691,18.54492 13.8691,17.93945 L13.8691,13.86719 L18.1074,13.86719 C18.6934,13.86719 19.1133,13.53516 19.1133,12.97852 C19.1133,12.40234 18.7227,12.06055 18.1074,12.06055 L13.8691,12.06055 L13.8691,7.8125 C13.8691,7.1973 13.5176,6.8066 12.9512,6.8066 C12.3848,6.8066 12.0625,7.2168 12.0625,7.8125 L12.0625,12.06055 L7.83398,12.06055 C7.21875,12.06055 6.80859,12.40234 6.80859,12.97852 C6.80859,13.53516 7.23828,13.86719 7.83398,13.86719 L12.0625,13.86719 L12.0625,17.93945 C12.0625,18.52539 12.3848,18.93555 12.9512,18.93555 Z" id="Shape"></path>
                </g>
                <text id="Design-Variations" fill="#000000" font-family="Helvetica-Bold, Helvetica" font-size="13" font-weight="bold">
                    <tspan x="263" y="1953">Design Variations</tspan>
                </text>
                <text id="Symbols-are-supported-in-up-to-nine-weights-and-three-scales." fill="#000000" font-family="Helvetica" font-size="13" font-weight="normal">
                    <tspan x="263" y="1971">Symbols are supported in up to nine weights and three scales.</tspan>
                </text>
                <text id="For-optimal-layout-with-text-and-other-symbols,-vertically-align" fill="#000000" font-family="Helvetica" font-size="13" font-weight="normal">
                    <tspan x="263" y="1989">For optimal layout with text and other symbols, vertically align</tspan>
                </text>
                <text id="symbols-with-the-adjacent-text." fill="#000000" font-family="Helvetica" font-size="13" font-weight="normal">
                    <tspan x="263" y="2007">symbols with the adjacent text.</tspan>
                </text>
                <rect id="Rectangle" fill="#00AEEF" fill-rule="nonzero" opacity="0.4" x="776" y="1919" width="3" height="14"></rect>
                <g id="Group" transform="translate(779.000000, 1918.000000)" fill="#000000" fill-rule="nonzero">
                    <path d="M10.5273,15 L12.373,15 L7.17773,0.9082 L5.43945,0.9082 L0.244141,15 L2.08984,15 L3.50586,10.9668 L9.11133,10.9668 L10.5273,15 Z M6.2793,3.0469 L6.33789,3.0469 L8.59375,9.47266 L4.02344,9.47266 L6.2793,3.0469 Z" id="Shape"></path>
                </g>
                <rect id="Rectangle" fill="#00AEEF" fill-rule="nonzero" opacity="0.4" x="791.617" y="1919" width="3" height="14"></rect>
                <text id="Margins" fill="#000000" font-family="Helvetica-Bold, Helvetica" font-size="13" font-weight="bold">
                    <tspan x="776" y="1953">Margins</tspan>
                </text>
                <text id="Leading-and-trailing-margins-on-the-left-and-right-side-of-each-symbol" fill="#000000" font-family="Helvetica" font-size="13" font-weight="normal">
                    <tspan x="776" y="1971">Leading and trailing margins on the left and right side of each symbol</tspan>
                </text>
                <text id="can-be-adjusted-by-modifying-the-width-of-the-blue-rectangles." fill="#000000" font-family="Helvetica" font-size="13" font-weight="normal">
                    <tspan x="776" y="1989">can be adjusted by modifying the width of the blue rectangles.</tspan>
                </text>
                <text id="Modifications-are-automatically-applied-proportionally-to-all" fill="#000000" font-family="Helvetica" font-size="13" font-weight="normal">
                    <tspan x="776" y="2007">Modifications are automatically applied proportionally to all</tspan>
                </text>
                <text id="scales-and-weights." fill="#000000" font-family="Helvetica" font-size="13" font-weight="normal">
                    <tspan x="776" y="2025">scales and weights.</tspan>
                </text>
                <g id="Group" transform="translate(1291.000000, 1915.000000)" fill="#000000" fill-rule="nonzero">
                    <path d="M0.83203,21.11523 L2.375,22.6582 C3.22461,23.48828 4.19141,23.41992 5.06055,22.46289 L15.2754,11.33984 C15.7051,11.63281 16.0957,11.62305 16.5645,11.52539 L17.6094,11.31055 L18.3027,12.00391 L18.2539,12.52148 C18.1855,13.04883 18.3516,13.46875 18.8496,13.9668 L19.6602,14.77734 C20.168,15.28516 20.8223,15.31445 21.3008,14.83594 L24.5527,11.58398 C25.0312,11.10547 25.0117,10.45117 24.5039,9.94336 L23.6836,9.12305 C23.1855,8.625 22.7754,8.44922 22.2383,8.52734 L21.7109,8.58594 L21.0566,7.9219 L21.3398,6.7793 C21.4863,6.2129 21.3398,5.7441 20.7148,5.1387 L18.3027,2.7461 C14.7578,-0.7793 10.2266,-0.6719 7.11133,2.4629 C6.69141,2.8926 6.64258,3.4785 6.91602,3.9082 C7.15039,4.2793 7.62891,4.5039 8.2734,4.3379 C9.7871,3.957 11.3008,4.0742 12.7852,5.0801 L12.1602,6.6621 C11.9258,7.248 11.9453,7.7266 12.1797,8.16602 L1.01758,18.439453 C0.08008,19.30859 -0.02734,20.25586 0.83203,21.11523 Z M8.6738,2.8535 C11.3398,0.8613 14.6504,1.1738 17.0527,3.5859 L19.6797,6.1934 C19.9141,6.4277 19.9434,6.6133 19.8848,6.9062 L19.5039,8.46875 L21.0762,10.04102 L22.043,9.95312 C22.3262,9.92383 22.4141,9.94336 22.6387,10.16797 L23.2637,10.79297 L20.5098,13.53711 L19.8848,12.92188 C19.6602,12.69727 19.6406,12.59961 19.6699,12.31641 L19.7578,11.35938 L18.1953,9.79688 L16.5742,10.10938 C16.291,10.16797 16.1445,10.16797 15.9102,9.92383 L13.7324,7.7461 C13.5078,7.5117 13.4785,7.375 13.6055,7.0527 L14.5527,4.7773 C12.9512,3.2441 10.8418,2.3945 8.8008,3.0488 C8.7129,3.0781 8.6445,3.0586 8.6152,3.0195 C8.5859,2.9707 8.5859,2.9219 8.6738,2.8535 Z M2.10156,20.41211 C1.61328,19.91406 1.78906,19.61133 2.12109,19.30859 L13.0781,9.19141 L14.3086,10.42188 L4.15234,21.34961 C3.84961,21.68164 3.46875,21.7793 3.06836,21.37891 L2.10156,20.41211 Z" id="Shape"></path>
                </g>
                <text id="Exporting" fill="#000000" font-family="Helvetica-Bold, Helvetica" font-size="13" font-weight="bold">
                    <tspan x="1289" y="1953">Exporting</tspan>
                </text>
                <text id="Symbols-should-be-outlined-when-exporting-to-ensure-the" fill="#000000" font-family="Helvetica" font-size="13" font-weight="normal">
                    <tspan x="1289" y="1971">Symbols should be outlined when exporting to ensure the</tspan>
                </text>
                <text id="design-is-preserved-when-submitting-to-Xcode." fill="#000000" font-family="Helvetica" font-size="13" font-weight="normal">
                    <tspan x="1289" y="1989">design is preserved when submitting to Xcode.</tspan>
                </text>
                <text id="Template-v.1.0" fill="#000000" font-family="Helvetica" font-size="13" font-weight="normal">
                    <tspan x="2952" y="1933">Template v.1.0</tspan>
                </text>
                <text id="Generated-from-circle" fill="#000000" font-family="Helvetica" font-size="13" font-weight="normal">
                    <tspan x="2911" y="1951">Generated from circle</tspan>
                </text>
                <text id="Typeset-at-100-points" fill="#000000" font-family="Helvetica" font-size="13" font-weight="normal">
                    <tspan x="2912" y="1969">Typeset at 100 points</tspan>
                </text>
                <text id="Small" fill="#000000" font-family="Helvetica" font-size="13" font-weight="normal">
                    <tspan x="263" y="726">Small</tspan>
                </text>
                <text id="Medium" fill="#000000" font-family="Helvetica" font-size="13" font-weight="normal">
                    <tspan x="263" y="1156">Medium</tspan>
                </text>
                <text id="Large" fill="#000000" font-family="Helvetica" font-size="13" font-weight="normal">
                    <tspan x="263" y="1586">Large</tspan>
                </text>
            </g>
            <g id="Guides" transform="translate(263.000000, 625.000000)">
                <g id="H-reference" transform="translate(76.000000, 0.000000)" fill="#27AAE1" fill-rule="nonzero">
                    <path d="M54.9316,71 L57.666,71 L30.5664,0.541 L28.0762,0.541 L0.976562,71 L3.66211,71 L12.9395,46.5371 L45.7031,46.5371 L54.9316,71 Z M29.1992,3.9102 L29.4434,3.9102 L44.8242,44.291 L13.8184,44.291 L29.1992,3.9102 Z" id="Shape"></path>
                </g>
                <line x1="0" y1="71" x2="2773" y2="71" id="Baseline-S" stroke="#27AAE1" stroke-width="0.577"></line>
                <line x1="0" y1="0.541" x2="2773" y2="0.541" id="Capline-S" stroke="#27AAE1" stroke-width="0.577"></line>
                <g id="H-reference" transform="translate(76.000000, 430.000000)" fill="#27AAE1" fill-rule="nonzero">
                    <path d="M54.9316,71 L57.666,71 L30.5664,0.541 L28.0762,0.541 L0.976562,71 L3.66211,71 L12.9395,46.5371 L45.7031,46.5371 L54.9316,71 Z M29.1992,3.9102 L29.4434,3.9102 L44.8242,44.291 L13.8184,44.291 L29.1992,3.9102 Z" id="Shape"></path>
                </g>
                <line x1="0" y1="501" x2="2773" y2="501" id="Baseline-M" stroke="#27AAE1" stroke-width="0.577"></line>
                <line x1="0" y1="430.54" x2="2773" y2="430.54" id="Capline-M" stroke="#27AAE1" stroke-width="0.577"></line>
                <g id="H-reference" transform="translate(76.000000, 860.000000)" fill="#27AAE1" fill-rule="nonzero">
                    <path d="M54.9316,71 L57.666,71 L30.5664,0.541 L28.0762,0.541 L0.976562,71 L3.66211,71 L12.9395,46.5371 L45.7031,46.5371 L54.9316,71 Z M29.1992,3.9102 L29.4434,3.9102 L44.8242,44.291 L13.8184,44.291 L29.1992,3.9102 Z" id="Shape"></path>
                </g>
                <line x1="0" y1="931" x2="2773" y2="931" id="Baseline-L" stroke="#27AAE1" stroke-width="0.577"></line>
                <line x1="0" y1="860.54" x2="2773" y2="860.54" id="Capline-L" stroke="#27AAE1" stroke-width="0.577"></line>
                <rect id="left-margin" fill="#00AEEF" fill-rule="nonzero" opacity="0.4" x="1128.3" y="405.79" width="8.74023" height="119.336"></rect>
                <rect id="right-margin" fill="#00AEEF" fill-rule="nonzero" opacity="0.4" x="1236.65" y="405.79" width="8.74023" height="119.336"></rect>
            </g>
            <g id="Symbols" transform="translate(1399.000000, 1040.000000)" fill="#000000" fill-rule="nonzero">
                <g id="Regular-M" transform="translate(0.300000, 0.000000)">
                    <!-- <path d="M50.5449,100.5508 C77.791,100.5508 100.35,77.99219 100.35,50.7461 C100.35,23.5488 77.7422,0.9414 50.4961,0.9414 C23.2988,0.9414 0.74023,23.5488 0.74023,50.7461 C0.74023,77.99219 23.3477,100.5508 50.5449,100.5508 Z M50.1551,92.0078 C27.1082,92.0078 8.7,73.5508 8.7,50.5039 C8.7,27.5058 27.0594,9 50.1063,9 C73.1532,9 91.6102,27.5058 91.6593938,50.5039 C91.7082,73.5508 73.202,92.0078 50.1551,92.0078 Z" id="Shape"></path> -->
                    <path d="M22.6255481,47.4921507 L22.3061767,47.3103416 C22.0552421,47.1558039 21.8134324,46.9739948 21.5624977,46.8512736 C21.147315,46.6512836 20.7230073,46.4967459 20.3078246,46.3058463 C19.8912661,46.1195758 19.4832797,45.9148359 19.0850885,45.6922406 C18.4919703,45.3558937 17.9171019,44.9695494 17.3285461,44.6286573 C16.8723013,44.3604889 16.4069316,44.1423179 15.9552493,43.8741495 C15.5549403,43.6633307 15.2826251,43.2716594 15.2252576,42.8242019 C15.1340086,42.3105912 15.3028192,41.8333423 15.6176281,41.8333423 C16.1331847,41.8333423 16.6487413,41.9151564 17.1688604,41.9969705 C17.5201689,42.0515132 17.8760398,42.1605987 18.2273483,42.246958 C18.7565923,42.3833148 19.2858362,42.5196716 19.8196426,42.6423928 C20.6408833,42.8332924 21.4621239,43.0241919 22.2833645,43.1878201 C23.0681055,43.3378126 23.8619715,43.4741695 24.6558374,43.5832549 C25.1257695,43.6468881 25.609389,43.6150715 26.0838836,43.665069 C26.4580043,43.7014308 26.8275626,43.8423329 27.1971209,43.865059 C27.9818619,43.9105113 28.7711654,43.8832399 29.5559065,43.9423279 C30.6326442,44.0150515 31.7093819,44.124137 32.7815571,44.2514034 C33.4841741,44.3286723 34.1776662,44.5013909 34.8802832,44.5377527 C35.3000284,44.5604789 35.7197736,44.3923054 36.1440812,44.3377627 C36.5455766,44.2877652 36.947072,44.2650391 37.3531299,44.2468582 C37.517378,44.2377677 37.6907511,44.2923104 37.8549992,44.2559486 C37.9416857,44.2332225 38.0374971,44.0968656 38.0968089,43.965054 C38.4663672,43.1332774 38.8131132,42.2515032 39.3879817,41.7651638 C40.0905987,41.1651938 40.8160279,40.6288569 41.5140824,40.0197964 C42.5178209,39.1471127 43.5945586,38.7289518 44.7032335,38.4607833 C45.2917893,38.315336 45.8757826,38.1108008 46.4689008,38.0244415 C47.3950777,37.8971751 48.2482555,37.3244764 49.1288079,36.9244964 C49.6671768,36.6790541 50.2055456,36.4108856 50.7484769,36.1881695 C51.7841526,35.7654633 52.8198283,35.3563928 53.8600664,34.9700485 C54.3847479,34.7746037 54.9185543,34.6518825 55.4432358,34.4700734 C56.1732275,34.1973598 56.8986567,33.8791938 57.6332108,33.6201158 C58.2810784,33.3928545 58.9471958,33.2474072 59.5996259,33.0201458 C59.937247,32.9019699 60.2566184,32.665618 60.5896771,32.5292612 C60.7812999,32.4474471 60.9911725,32.4928994 61.1873577,32.4338114 C61.515854,32.3338164 61.8397878,32.1838239 62.1637216,32.0747384 C62.3142824,32.0292862 62.4694056,32.0292862 62.6199664,32.0020148 C63.0579614,31.9247459 63.4913939,31.8747484 63.920264,31.747482 C64.1272818,31.6650803 64.2952211,31.5075209 64.3901962,31.306595 C64.796254,30.5157253 65.1338752,29.6203155 65.5764326,28.8885338 C65.8364921,28.4476468 66.2243002,28.1840235 66.5801712,27.934036 C67.3284126,27.4022444 68.1314034,27.2067996 68.9207069,26.9568121 C69.7419475,26.7068246 70.5540633,26.4068395 71.3707414,26.1795781 C72.2219097,25.9045676 73.1443284,25.9465577 73.9667743,26.2977541 C74.6237668,26.5977391 75.2716344,27.0613523 75.8738775,27.6113249 C76.5034953,28.1840235 77.0829262,28.9248957 77.6669195,29.6384964 C78.3102247,30.429366 79.0082792,30.9384315 79.8158325,31.0293361 C80.5184495,31.1066049 81.2119416,31.2656879 81.9099961,31.3929543 C82.4985519,31.506585 83.0871076,31.6156704 83.6756634,31.7383916 C84.2915939,31.865658 84.9075244,31.9611077 85.5188924,32.1610978 C85.861076,32.2747285 86.1895722,32.5474421 86.513506,32.7928844 C86.7598782,32.9746935 86.7644407,33.4792138 86.513506,33.5928445 C86.1028857,33.7791988 85.6648907,33.8201059 85.2405831,33.9337366 C84.7660885,34.0564577 84.2915939,34.1882693 83.8125369,34.3019 C83.5616022,34.3655332 83.3106676,34.3973498 83.059733,34.4382568 C82.2841168,34.5746137 81.5085007,34.6882444 80.7328845,34.8427821 C80.2310153,34.9427771 79.820395,35.4382069 79.4553991,35.979089 C78.8166564,36.956313 78.1779137,37.9789892 77.8266052,39.333467 C77.6076077,40.1834246 77.4752967,41.1061058 77.3384233,42.0060609 C77.2380494,42.6651189 77.1148633,43.3559935 77.142238,44.0150515 C77.1741752,44.7968307 77.0920511,45.5331576 77.0373017,46.2876654 C77.009927,46.7058263 77.0920511,47.1512586 77.0464266,47.5603291 C76.9616399,48.2732151 76.8505451,48.9827509 76.7133679,49.6874957 C76.5536823,50.5465437 76.4259337,51.4374083 76.184124,52.2237327 C75.8100032,53.446399 75.3628834,54.6099773 74.9203259,55.7690103 C74.7150158,56.3053472 74.4367064,56.7689604 74.208584,57.2871164 C73.7340895,58.377971 73.1044716,59.1779311 72.4748538,59.9869816 C71.9729846,60.6233135 71.5258647,61.3687308 71.0285579,62.0005175 C70.531251,62.6277589 69.9928822,63.1504601 69.4864505,63.7504301 C68.6652098,64.7140184 67.7070958,65.004913 66.771794,65.4185287 C66.2243002,65.663971 65.6859314,66.0094083 65.1338752,66.2457601 C64.6046312,66.4730215 64.0799497,66.7684613 63.5050813,66.7002829 C63.1172732,66.6548306 62.7249027,66.7502804 62.3325322,66.8184588 C62.1317844,66.8502754 62.035973,67.0548106 62.0587853,67.4184289 C62.0770351,67.8365898 62.0724726,68.259296 62.0770351,68.6774569 C62.0770351,68.7547258 62.0679102,68.8365399 62.0770351,68.9047183 C62.1545967,69.5546859 62.2458456,70.195563 62.3142824,70.8409853 C62.3735942,71.3682317 62.3964064,71.9045686 62.4511558,72.431815 C62.5424048,73.3635867 62.8617761,73.8635617 63.4092699,74.0999135 C64.3308843,74.4953484 65.2661862,74.3180845 66.201488,74.3589915 C66.6668577,74.3817177 67.1367898,74.4908031 67.597597,74.6180695 C67.8120321,74.6771575 67.8029072,75.0544114 67.7344705,75.2816727 C67.6817687,75.4442821 67.5599751,75.5755887 67.4014118,75.6407457 C67.0740656,75.7422764 66.7380881,75.8137825 66.3976732,75.8543714 C65.8775542,75.9225498 65.3619976,76.0043639 64.8464409,76 C64.0023881,75.986183 63.1628977,75.9134594 62.3234073,75.8543714 C61.994911,75.8316453 61.6709772,75.7816478 61.342481,75.7361955 C61.3105438,75.7316503 61.2649193,75.7134694 61.251232,75.6725623 C61.0322345,75.1816777 60.721988,75.2634918 60.4299914,75.3089441 C60.1288698,75.3543964 59.8368732,75.4498462 59.5357516,75.545296 C59.325879,75.6180196 59.1433811,75.6089291 58.9882578,75.3043989 C58.8330307,75.0077352 58.7955686,74.6637359 58.8833215,74.3408106 C59.1388186,73.3817676 59.193568,72.3909079 59.0430072,71.3682317 C58.8376971,69.9728468 58.5548253,68.6320047 57.8887079,67.6502355 C57.532837,67.1229891 57.1222167,66.7093733 56.6294723,66.6139236 C56.5701605,66.6002879 56.524536,66.5048381 56.4652242,66.463931 C56.1184781,66.2275792 55.7762945,65.9866821 55.424986,65.7594208 C54.8957421,65.4185287 54.3619357,65.1094532 53.8372542,64.745835 C52.9703891,64.1504102 52.103524,63.5458949 51.2549087,62.8959273 C50.7986639,62.55049 50.3789187,62.091422 49.9409237,61.6868968 L49.1288079,60.9460246 C48.731875,60.5824064 48.3486293,60.1597003 47.9334466,59.85517 C47.0757064,59.2233834 46.1905915,58.7097726 45.3419762,58.0461694 C44.2652385,57.2053023 43.0972518,56.9644052 41.9703272,56.4826111 C41.0304629,56.0735406 40.0951611,55.682651 39.1644217,55.2372187 C38.4161803,54.8781457 37.6907511,54.4281682 36.947072,54.0554595 C36.691575,53.9281931 36.4223905,53.9009217 36.1577686,53.8600147 C35.4277769,53.7509292 34.7023477,53.6327533 33.9769185,53.5554844 C32.6994331,53.4327633 31.4310725,53.3418587 30.1581496,53.2282281 C29.8387782,53.2009567 29.5285318,53.1509592 29.2137229,53.1009617 C29.1772233,53.1009617 29.1224739,53.0555094 29.113349,53.0146024 C29.0449123,52.6464389 28.8669768,52.7055269 28.7027287,52.6964364 C28.0457362,52.6600746 27.3978686,52.5964414 26.7408761,52.5873509 C26.3050353,52.5860324 25.8727525,52.5091304 25.4633907,52.3600896 C25.303705,52.3010016 25.1166446,52.428268 24.9432716,52.4646298 C24.8839598,52.4782655 24.8200855,52.4873559 24.7607737,52.4646298 C24.5691509,52.3737252 24.3775281,52.2100971 24.1813428,52.1919161 C23.7068482,52.1464639 23.2232288,52.2100971 22.7487342,52.1600995 C22.0552421,52.0828307 21.3708749,51.9373834 20.6819453,51.8373884 C20.2704943,51.7738014 19.8564308,51.7283051 19.4409595,51.7010316 C18.95734,51.669215 18.4691581,51.6828506 17.9809761,51.6601245 C17.5703558,51.6464888 17.1506106,51.6283079 16.7354279,51.5692199 C16.3129236,51.5154363 15.8960851,51.4241692 15.4898796,51.2965063 C15.3073817,51.2374183 15.1385711,51.0237926 14.9697605,50.8692549 C14.7279508,50.6419935 14.4770162,50.4192773 14.2488938,50.1511089 C14.0717338,49.9403739 13.9271807,49.7044466 13.8200237,49.4511439 C13.6162236,48.9614419 13.6745796,48.4023124 13.9751469,47.9648544 C14.1120203,47.7694096 14.2762684,47.7603192 14.4313917,47.6739598 C14.8785116,47.437608 15.3301939,47.4603341 15.7818762,47.4466984 C16.2107464,47.4421532 16.635054,47.5148769 17.0639241,47.537603 C18.4554707,47.6285076 19.8470173,47.7285026 21.2431264,47.7830453 C21.6993712,47.8012262 22.155616,47.6921407 22.6118608,47.6421432 L22.6255481,47.4921507 Z M63.4030059,74.205794 L63.7,74.1832903 C63.2950081,73.2291354 62.948515,72.265979 62.4625247,71.3208256 C61.9090358,70.2406502 61.2025499,69.1739771 60.6085618,68.0983024 C60.1315714,67.2431636 59.2765884,66.9416147 57.3101278,67.0091256 C56.8151377,67.0271285 56.3201476,67.0091256 55.8341573,67.03613 C55.5866622,67.0496322 55.1681706,67.1171432 55.150171,67.1801534 C54.9611747,67.7787506 54.547183,68.4088529 54.7586788,68.9804457 C55.2356692,70.2856576 56.19865,71.5548636 56.648641,72.8555748 C57.0536329,74.0257647 58.300108,74.9484145 60.0865723,75.7270409 C60.5950621,75.9475767 61.6615408,76.0465928 62.3680266,75.9790819 C62.8090178,75.9385753 63.2050099,75.4975037 63.3625067,75.2094569 C63.5335033,74.8944058 63.4030059,74.538848 63.4030059,74.205794 L63.4030059,74.205794 Z" id="Shape"></path>
                </g>
            </g>
        </g>
    </g>
</svg>