<?xml version="1.0" encoding="UTF-8"?>
<!--Generator: Apple Native CoreSVG 341-->
<!DOCTYPE svg
PUBLIC "-//W3C//DTD SVG 1.1//EN"
       "http://www.w3.org/Graphics/SVG/1.1/DTD/svg11.dtd">
<svg version="1.1" xmlns="http://www.w3.org/2000/svg" xmlns:xlink="http://www.w3.org/1999/xlink" viewBox="0 0 3300 2200">
 <!--glyph: "", point size: 100.0, font version: "20.0d10e1", template writer version: "138.0.0"-->
 <style>.monochrome-0 {-sfsymbols-motion-group:1;-sfsymbols-layer-tags:1b8a64514daf9dcb}
.monochrome-1 {-sfsymbols-motion-group:0;-sfsymbols-layer-tags:1b8a64514daf9dcb}

.multicolor-0:tintColor {-sfsymbols-motion-group:1;-sfsymbols-layer-tags:1b8a64514daf9dcb}
.multicolor-1:tintColor {-sfsymbols-motion-group:0;-sfsymbols-layer-tags:1b8a64514daf9dcb}

.hierarchical-0:primary {-sfsymbols-motion-group:1;-sfsymbols-layer-tags:1b8a64514daf9dcb}
.hierarchical-1:tertiary {-sfsymbols-motion-group:0;-sfsymbols-layer-tags:1b8a64514daf9dcb}

.SFSymbolsPreviewWireframe {fill:none;opacity:1.0;stroke:black;stroke-width:0.5}
</style>
 <g id="Notes">
  <rect height="2200" id="artboard" style="fill:white;opacity:1" width="3300" x="0" y="0"/>
  <line style="fill:none;stroke:black;opacity:1;stroke-width:0.5;" x1="263" x2="3036" y1="292" y2="292"/>
  <text style="stroke:none;fill:black;font-family:sans-serif;font-size:13;font-weight:bold;" transform="matrix(1 0 0 1 263 322)">Weight/Scale Variations</text>
  <text style="stroke:none;fill:black;font-family:sans-serif;font-size:13;text-anchor:middle;" transform="matrix(1 0 0 1 559.711 322)">Ultralight</text>
  <text style="stroke:none;fill:black;font-family:sans-serif;font-size:13;text-anchor:middle;" transform="matrix(1 0 0 1 856.422 322)">Thin</text>
  <text style="stroke:none;fill:black;font-family:sans-serif;font-size:13;text-anchor:middle;" transform="matrix(1 0 0 1 1153.13 322)">Light</text>
  <text style="stroke:none;fill:black;font-family:sans-serif;font-size:13;text-anchor:middle;" transform="matrix(1 0 0 1 1449.84 322)">Regular</text>
  <text style="stroke:none;fill:black;font-family:sans-serif;font-size:13;text-anchor:middle;" transform="matrix(1 0 0 1 1746.56 322)">Medium</text>
  <text style="stroke:none;fill:black;font-family:sans-serif;font-size:13;text-anchor:middle;" transform="matrix(1 0 0 1 2043.27 322)">Semibold</text>
  <text style="stroke:none;fill:black;font-family:sans-serif;font-size:13;text-anchor:middle;" transform="matrix(1 0 0 1 2339.98 322)">Bold</text>
  <text style="stroke:none;fill:black;font-family:sans-serif;font-size:13;text-anchor:middle;" transform="matrix(1 0 0 1 2636.69 322)">Heavy</text>
  <text style="stroke:none;fill:black;font-family:sans-serif;font-size:13;text-anchor:middle;" transform="matrix(1 0 0 1 2933.4 322)">Black</text>
  <line style="fill:none;stroke:black;opacity:1;stroke-width:0.5;" x1="263" x2="3036" y1="1903" y2="1903"/>
  <g transform="matrix(0.2 0 0 0.2 263 1933)">
   <path d="m46.2402 4.15039c21.7773 0 39.4531-17.627 39.4531-39.4043s-17.6758-39.4043-39.4531-39.4043c-21.7285 0-39.4043 17.627-39.4043 39.4043s17.6758 39.4043 39.4043 39.4043Zm0-7.42188c-17.6758 0-31.9336-14.3066-31.9336-31.9824s14.2578-31.9824 31.9336-31.9824 31.9824 14.3066 31.9824 31.9824-14.3066 31.9824-31.9824 31.9824Zm-17.9688-31.9824c0 2.14844 1.51367 3.61328 3.75977 3.61328h10.498v10.5957c0 2.19727 1.46484 3.71094 3.61328 3.71094 2.24609 0 3.71094-1.51367 3.71094-3.71094v-10.5957h10.5957c2.19727 0 3.71094-1.46484 3.71094-3.61328 0-2.19727-1.51367-3.71094-3.71094-3.71094h-10.5957v-10.5469c0-2.24609-1.46484-3.75977-3.71094-3.75977-2.14844 0-3.61328 1.51367-3.61328 3.75977v10.5469h-10.498c-2.24609 0-3.75977 1.51367-3.75977 3.71094Z"/>
  </g>
  <g transform="matrix(0.2 0 0 0.2 281.506 1933)">
   <path d="m58.5449 14.5508c27.4902 0 49.8047-22.3145 49.8047-49.8047s-22.3145-49.8047-49.8047-49.8047-49.8047 22.3145-49.8047 49.8047 22.3145 49.8047 49.8047 49.8047Zm0-8.30078c-22.9492 0-41.5039-18.5547-41.5039-41.5039s18.5547-41.5039 41.5039-41.5039 41.5039 18.5547 41.5039 41.5039-18.5547 41.5039-41.5039 41.5039Zm-22.6562-41.5039c0 2.39258 1.66016 4.00391 4.15039 4.00391h14.3555v14.4043c0 2.44141 1.66016 4.15039 4.05273 4.15039 2.44141 0 4.15039-1.66016 4.15039-4.15039v-14.4043h14.4043c2.44141 0 4.15039-1.61133 4.15039-4.00391 0-2.44141-1.70898-4.15039-4.15039-4.15039h-14.4043v-14.3555c0-2.49023-1.70898-4.19922-4.15039-4.19922-2.39258 0-4.05273 1.70898-4.05273 4.19922v14.3555h-14.3555c-2.49023 0-4.15039 1.70898-4.15039 4.15039Z"/>
  </g>
  <g transform="matrix(0.2 0 0 0.2 304.924 1933)">
   <path d="m74.8535 28.3203c35.1074 0 63.623-28.4668 63.623-63.5742s-28.5156-63.623-63.623-63.623-63.5742 28.5156-63.5742 63.623 28.4668 63.5742 63.5742 63.5742Zm0-9.08203c-30.127 0-54.4922-24.3652-54.4922-54.4922s24.3652-54.4922 54.4922-54.4922 54.4922 24.3652 54.4922 54.4922-24.3652 54.4922-54.4922 54.4922Zm-28.8574-54.4922c0 2.58789 1.85547 4.39453 4.58984 4.39453h19.7266v19.7754c0 2.68555 1.85547 4.58984 4.44336 4.58984 2.68555 0 4.54102-1.85547 4.54102-4.58984v-19.7754h19.7754c2.68555 0 4.58984-1.80664 4.58984-4.39453 0-2.73438-1.85547-4.58984-4.58984-4.58984h-19.7754v-19.7266c0-2.73438-1.85547-4.63867-4.54102-4.63867-2.58789 0-4.44336 1.9043-4.44336 4.63867v19.7266h-19.7266c-2.73438 0-4.58984 1.85547-4.58984 4.58984Z"/>
  </g>
  <text style="stroke:none;fill:black;font-family:sans-serif;font-size:13;font-weight:bold;" transform="matrix(1 0 0 1 263 1953)">Design Variations</text>
  <text style="stroke:none;fill:black;font-family:sans-serif;font-size:13;" transform="matrix(1 0 0 1 263 1971)">Symbols are supported in up to nine weights and three scales.</text>
  <text style="stroke:none;fill:black;font-family:sans-serif;font-size:13;" transform="matrix(1 0 0 1 263 1989)">For optimal layout with text and other symbols, vertically align</text>
  <text style="stroke:none;fill:black;font-family:sans-serif;font-size:13;" transform="matrix(1 0 0 1 263 2007)">symbols with the adjacent text.</text>
  <line style="fill:none;stroke:#00AEEF;stroke-width:0.5;opacity:1.0;" x1="776" x2="776" y1="1919" y2="1933"/>
  <g transform="matrix(0.2 0 0 0.2 776 1933)">
   <path d="m16.5527 0.78125c2.58789 0 3.85742-0.976562 4.78516-3.71094l6.29883-17.2363h28.8086l6.29883 17.2363c0.927734 2.73438 2.19727 3.71094 4.73633 3.71094 2.58789 0 4.24805-1.5625 4.24805-4.00391 0-0.830078-0.146484-1.61133-0.537109-2.63672l-22.9004-60.9863c-1.12305-2.97852-3.125-4.49219-6.25-4.49219-3.02734 0-5.07812 1.46484-6.15234 4.44336l-22.9004 61.084c-0.390625 1.02539-0.537109 1.80664-0.537109 2.63672 0 2.44141 1.5625 3.95508 4.10156 3.95508Zm13.4766-28.3691 11.8652-32.8613h0.244141l11.8652 32.8613Z"/>
  </g>
  <line style="fill:none;stroke:#00AEEF;stroke-width:0.5;opacity:1.0;" x1="792.836" x2="792.836" y1="1919" y2="1933"/>
  <text style="stroke:none;fill:black;font-family:sans-serif;font-size:13;font-weight:bold;" transform="matrix(1 0 0 1 776 1953)">Margins</text>
  <text style="stroke:none;fill:black;font-family:sans-serif;font-size:13;" transform="matrix(1 0 0 1 776 1971)">Leading and trailing margins on the left and right side of each symbol</text>
  <text style="stroke:none;fill:black;font-family:sans-serif;font-size:13;" transform="matrix(1 0 0 1 776 1989)">can be adjusted by modifying the x-location of the margin guidelines.</text>
  <text style="stroke:none;fill:black;font-family:sans-serif;font-size:13;" transform="matrix(1 0 0 1 776 2007)">Modifications are automatically applied proportionally to all</text>
  <text style="stroke:none;fill:black;font-family:sans-serif;font-size:13;" transform="matrix(1 0 0 1 776 2025)">scales and weights.</text>
  <g transform="matrix(0.2 0 0 0.2 1289 1933)">
   <path d="m14.209 9.32617 8.49609 8.54492c4.29688 4.3457 9.22852 4.05273 13.8672-1.07422l53.4668-58.9355-4.83398-4.88281-53.0762 58.3984c-1.75781 2.00195-3.41797 2.49023-5.76172 0.146484l-5.85938-5.81055c-2.34375-2.29492-1.80664-4.00391 0.195312-5.81055l57.373-54.0039-4.88281-4.83398-57.959 54.4434c-4.93164 4.58984-5.32227 9.47266-1.02539 13.8184Zm32.0801-90.9668c-2.09961 2.05078-2.24609 4.93164-1.07422 6.88477 1.17188 1.80664 3.4668 2.97852 6.68945 2.14844 7.32422-1.70898 14.9414-2.00195 22.0703 2.68555l-2.92969 7.27539c-1.70898 4.15039-0.830078 7.08008 1.85547 9.81445l11.4746 11.5723c2.44141 2.44141 4.49219 2.53906 7.32422 2.05078l5.32227-0.976562 3.32031 3.36914-0.195312 2.7832c-0.195312 2.49023 0.439453 4.39453 2.88086 6.78711l3.80859 3.71094c2.39258 2.39258 5.46875 2.53906 7.8125 0.195312l14.5508-14.5996c2.34375-2.34375 2.24609-5.32227-0.146484-7.71484l-3.85742-3.80859c-2.39258-2.39258-4.24805-3.17383-6.64062-2.97852l-2.88086 0.244141-3.22266-3.17383 1.2207-5.61523c0.634766-2.83203-0.146484-5.0293-3.07617-7.95898l-10.9863-10.9375c-16.6992-16.6016-38.8672-16.2109-53.3203-1.75781Zm7.4707 1.85547c12.1582-8.88672 28.6133-7.37305 39.7461 3.75977l12.1582 12.0605c1.17188 1.17188 1.36719 2.09961 1.02539 3.80859l-1.61133 7.42188 7.51953 7.42188 4.93164-0.292969c1.26953-0.0488281 1.66016 0.0488281 2.63672 1.02539l2.88086 2.88086-12.207 12.207-2.88086-2.88086c-0.976562-0.976562-1.12305-1.36719-1.07422-2.68555l0.341797-4.88281-7.4707-7.42188-7.61719 1.26953c-1.61133 0.341797-2.34375 0.195312-3.56445-0.976562l-10.0098-10.0098c-1.26953-1.17188-1.41602-2.00195-0.634766-3.85742l4.39453-10.4492c-7.8125-7.27539-17.9688-10.4004-28.125-7.42188-0.78125 0.195312-1.07422-0.439453-0.439453-0.976562Z"/>
  </g>
  <text style="stroke:none;fill:black;font-family:sans-serif;font-size:13;font-weight:bold;" transform="matrix(1 0 0 1 1289 1953)">Exporting</text>
  <text style="stroke:none;fill:black;font-family:sans-serif;font-size:13;" transform="matrix(1 0 0 1 1289 1971)">Symbols should be outlined when exporting to ensure the</text>
  <text style="stroke:none;fill:black;font-family:sans-serif;font-size:13;" transform="matrix(1 0 0 1 1289 1989)">design is preserved when submitting to Xcode.</text>
  <text id="template-version" style="stroke:none;fill:black;font-family:sans-serif;font-size:13;text-anchor:end;" transform="matrix(1 0 0 1 3036 1933)">Template v.6.0</text>
  <text style="stroke:none;fill:black;font-family:sans-serif;font-size:13;text-anchor:end;" transform="matrix(1 0 0 1 3036 1951)">Requires Xcode 16 or greater</text>
  <text id="descriptive-name" style="stroke:none;fill:black;font-family:sans-serif;font-size:13;text-anchor:end;" transform="matrix(1 0 0 1 3036 1969)">Generated from filtervogelgruppe-51</text>
  <text style="stroke:none;fill:black;font-family:sans-serif;font-size:13;text-anchor:end;" transform="matrix(1 0 0 1 3036 1987)">Typeset at 100.0 points</text>
  <text style="stroke:none;fill:black;font-family:sans-serif;font-size:13;" transform="matrix(1 0 0 1 263 726)">Small</text>
  <text style="stroke:none;fill:black;font-family:sans-serif;font-size:13;" transform="matrix(1 0 0 1 263 1156)">Medium</text>
  <text style="stroke:none;fill:black;font-family:sans-serif;font-size:13;" transform="matrix(1 0 0 1 263 1586)">Large</text>
 </g>
 <g id="Guides">
  <g id="H-reference" style="fill:#27AAE1;stroke:none;" transform="matrix(1 0 0 1 339 696)">
   <path d="M0.993654 0L3.63775 0L29.3281-67.1323L30.0303-67.1323L30.0303-70.459L28.1226-70.459ZM11.6885-24.4799L46.9815-24.4799L46.2315-26.7285L12.4385-26.7285ZM55.1196 0L57.7637 0L30.6382-70.459L29.4326-70.459L29.4326-67.1323Z"/>
  </g>
  <line id="Baseline-S" style="fill:none;stroke:#27AAE1;opacity:1;stroke-width:0.5;" x1="263" x2="3036" y1="696" y2="696"/>
  <line id="Capline-S" style="fill:none;stroke:#27AAE1;opacity:1;stroke-width:0.5;" x1="263" x2="3036" y1="625.541" y2="625.541"/>
  <g id="H-reference" style="fill:#27AAE1;stroke:none;" transform="matrix(1 0 0 1 339 1126)">
   <path d="M0.993654 0L3.63775 0L29.3281-67.1323L30.0303-67.1323L30.0303-70.459L28.1226-70.459ZM11.6885-24.4799L46.9815-24.4799L46.2315-26.7285L12.4385-26.7285ZM55.1196 0L57.7637 0L30.6382-70.459L29.4326-70.459L29.4326-67.1323Z"/>
  </g>
  <line id="Baseline-M" style="fill:none;stroke:#27AAE1;opacity:1;stroke-width:0.5;" x1="263" x2="3036" y1="1126" y2="1126"/>
  <line id="Capline-M" style="fill:none;stroke:#27AAE1;opacity:1;stroke-width:0.5;" x1="263" x2="3036" y1="1055.54" y2="1055.54"/>
  <g id="H-reference" style="fill:#27AAE1;stroke:none;" transform="matrix(1 0 0 1 339 1556)">
   <path d="M0.993654 0L3.63775 0L29.3281-67.1323L30.0303-67.1323L30.0303-70.459L28.1226-70.459ZM11.6885-24.4799L46.9815-24.4799L46.2315-26.7285L12.4385-26.7285ZM55.1196 0L57.7637 0L30.6382-70.459L29.4326-70.459L29.4326-67.1323Z"/>
  </g>
  <line id="Baseline-L" style="fill:none;stroke:#27AAE1;opacity:1;stroke-width:0.5;" x1="263" x2="3036" y1="1556" y2="1556"/>
  <line id="Capline-L" style="fill:none;stroke:#27AAE1;opacity:1;stroke-width:0.5;" x1="263" x2="3036" y1="1485.54" y2="1485.54"/>
  <line id="right-margin-Black-S" style="fill:none;stroke:#00AEEF;stroke-width:0.5;opacity:1.0;" x1="2982.23" x2="2982.23" y1="600.785" y2="720.121"/>
  <line id="left-margin-Black-S" style="fill:none;stroke:#00AEEF;stroke-width:0.5;opacity:1.0;" x1="2884.57" x2="2884.57" y1="600.785" y2="720.121"/>
  <line id="right-margin-Regular-S" style="fill:none;stroke:#00AEEF;stroke-width:0.5;opacity:1.0;" x1="1496.11" x2="1496.11" y1="600.785" y2="720.121"/>
  <line id="left-margin-Regular-S" style="fill:none;stroke:#00AEEF;stroke-width:0.5;opacity:1.0;" x1="1403.58" x2="1403.58" y1="600.785" y2="720.121"/>
  <line id="right-margin-Ultralight-S" style="fill:none;stroke:#00AEEF;stroke-width:0.5;opacity:1.0;" x1="603.773" x2="603.773" y1="600.785" y2="720.121"/>
  <line id="left-margin-Ultralight-S" style="fill:none;stroke:#00AEEF;stroke-width:0.5;opacity:1.0;" x1="515.649" x2="515.649" y1="600.785" y2="720.121"/>
 </g>
 <g id="Symbols">
  <g id="Black-S" transform="matrix(1 0 0 1 2884.57 696)">
   <path class="monochrome-0 multicolor-0:tintColor hierarchical-0:primary SFSymbolsPreviewWireframe" d="M67.3465-6.87152L67.3465-6.03927C67.3592-5.71232 67.3975-5.38112 67.3805-5.05416C67.3805-4.96924 67.2319-4.81638 67.1257-4.80788C66.8837-4.79515 66.5737-4.80394 66.4633-4.98198C66.2637-5.29195 66.1109-5.61041 65.9113-5.91613C65.699-6.23459 65.4442-6.54456 65.2319-6.86302C65.1682-6.95219 65.164-7.0541 65.13-7.14752C65.1215-7.16875 65.0918-7.18998 65.0578-7.22395C64.8922-7.02438 64.8328-6.84179 64.9389-6.63798C65.0876-6.35348 64.9899-6.07748 64.854-5.80148C64.7479-5.60192 64.7394-5.38536 64.6502-5.18579C64.5936-5.04921 64.4917-4.93668 64.3615-4.86733C64.268-4.82487 64.0388-4.87582 63.8732-4.89281C63.8477-4.89705 63.818-4.94801 63.8222-4.97773C63.8816-5.33865 63.9284-5.69533 63.733-6.05201C63.6439-6.22185 63.6651-6.40444 63.6184-6.58278C63.5504-6.82905 63.4655-7.07533 63.3891-7.32161C63.3042-7.58912 63.249-7.86087 63.1216-8.11564C62.9178-8.51053 62.663-8.89693 62.4295-9.28333C62.1407-9.7589 61.8775-10.243 61.5505-10.7058C61.3722-10.94 61.1464-11.1339 60.8881-11.2748C60.3361-11.5932 59.7119-11.8692 59.1429-12.175C58.2474-12.6519 57.3571-13.1388 56.4721-13.6356C55.9626-13.9201 55.4955-14.2343 54.9987-14.5273C54.659-14.7227 54.2641-14.884 53.9456-15.0878C53.5125-15.3638 53.1261-15.6695 52.6676-15.9965C52.6506-15.8054 52.6039-15.6526 52.6336-15.5039C52.693-15.1897 52.7949-14.8798 52.8756-14.5698C52.9351-14.3405 52.9733-14.1112 53.0455-13.8904C53.1983-13.3936 53.3682-12.8968 53.5253-12.4043C53.5847-12.2047 53.6102-12.0051 53.6612-11.8098C53.7503-11.4701 53.8777-11.1304 53.9329-10.7822C53.9803-10.4903 53.9732-10.1924 53.9117-9.90327C53.8735-9.72918 53.7121-9.54659 53.5295-9.40222C53.2832-9.2069 53.003-9.25785 52.71-9.41921C52.3024-9.6485 51.8353-9.84382 51.381-10.0391C50.9733-10.2217 50.5317-10.3788 50.1411-10.5657C49.9373-10.6633 49.8141-10.8204 49.6316-10.9393C49.3471-11.1177 49.0244-11.2748 48.7441-11.4574C48.4341-11.6612 48.1496-11.882 47.8609-12.1028C47.5637-12.3193 47.2622-12.5359 46.9862-12.7609C46.4639-13.194 45.844-13.5974 46.0053-14.2046C46.0393-14.3447 45.9501-14.5019 45.8567-14.6377C45.684-14.8766 45.4954-15.1037 45.292-15.3171C45.1388-15.476 44.9742-15.6235 44.7994-15.7587C44.774-15.7799 44.6551-15.7587 44.5234-15.7587C44.4937-15.8054 44.4555-15.9031 44.3833-15.9965C44.3408-16.0559 44.2729-16.1324 44.1837-16.1621C43.8186-16.2683 43.4364-16.3532 43.0712-16.4593C42.6721-16.574 42.29-16.7056 41.8993-16.833C41.704-16.8967 41.4747-16.9434 41.3261-17.0411C40.9227-17.3001 40.5618-17.5931 40.1711-17.8563C39.6464-18.1981 39.2097-18.6595 38.8973-19.2023C38.5151-19.8817 38.0948-20.5484 37.6956-21.2235C37.5003-21.559 37.3177-21.8944 37.1139-22.2256C36.9525-22.4804 36.7445-22.7309 36.6001-22.9899C36.3368-23.4612 36.1118-23.9411 35.8485-24.4166C35.687-24.7234 35.4995-25.0164 35.288-25.2913C34.9568-25.7075 34.5407-26.0981 34.218-26.5185C33.9208-26.9091 33.7085-27.321 33.441-27.7201C33.2202-28.0556 32.9739-28.3825 32.7446-28.7137C32.5323-29.0322 32.337-29.3507 32.1247-29.6691C32.078-29.7413 31.9718-29.8007 31.9166-29.8729L30.7701-31.3803C30.3625-31.9323 29.9634-32.4843 29.5388-33.0363C29.4538-33.1467 29.25-33.2231 29.1481-33.3335C28.9115-33.5834 28.6848-33.8427 28.4687-34.1106C28.2776-34.3441 28.0738-34.5777 27.9464-34.8197C27.6662-35.3377 27.4369-35.8643 27.4454-36.4205C27.4474-36.8819 27.4062-37.3423 27.3223-37.7963C27.2416-38.2888 27.059-38.7729 27.0123-39.2612C26.9826-39.5924 27.1184-39.9278 27.1652-40.259C27.1942-40.46 27.2042-40.6631 27.1949-40.8662C27.1694-41.3418 27.1694-41.8131 27.0717-42.2802C27.008-42.6029 27.1439-42.8959 27.2204-43.1974C27.2968-43.4988 27.4072-43.8003 27.4921-44.106C27.5346-44.2504 27.5388-44.4033 27.5855-44.5434C27.7341-45.0487 27.9252-45.5454 28.0441-46.0507C28.1503-46.4795 28.1885-46.9169 28.2352-47.35C28.2565-47.5479 28.2522-47.7477 28.2224-47.9445C28.1562-48.3737 28.0798-48.8013 27.9932-49.2268C27.938-49.5028 27.887-49.7788 27.7936-50.0548C27.7511-50.1822 27.5643-50.2968 27.5346-50.4242C27.4072-50.921 26.8849-51.3074 26.5367-51.7405C26.3673-51.9532 26.1782-52.1494 25.972-52.3265C25.8404-52.4411 25.6238-52.5133 25.454-52.6152C25.3234-52.6931 25.1972-52.7781 25.076-52.87C24.9784-52.9464 24.9147-53.0398 24.8-53.1035C24.4188-53.3116 24.0322-53.5097 23.6408-53.698C23.5007-53.7659 23.2927-53.7829 23.1653-53.8509C22.6867-54.1079 22.2417-54.4231 21.8405-54.7893C21.4923-55.1077 21.3861-55.4559 21.4456-55.8126C21.5178-56.2669 21.8575-56.6533 22.3755-56.9973C23.0379-57.4346 23.8701-57.7191 24.6981-58.0163C25.1695-58.1862 25.6111-58.3857 26.0866-58.5513C26.3839-58.6575 26.7236-58.7212 27.042-58.8146C27.594-58.9675 28.1333-59.1373 28.6895-59.2817C29.25-59.4303 29.8063-59.5874 30.3922-59.6851C31.1948-59.8209 32.01-59.9526 32.8338-59.9823C33.8104-60.0248 34.804-59.9823 35.7891-59.9441C36.5024-59.9186 37.2328-59.8719 37.9207-59.7657C38.927-59.6086 39.9121-59.3963 40.893-59.1883C41.8484-58.9887 42.7655-58.7085 43.7421-58.5683C44.413-58.4664 45.1604-58.5216 45.8652-58.5429C46.8503-58.5811 47.8312-58.6448 48.8078-58.7127C49.2961-58.7509 49.7759-58.8231 50.2557-58.8825C50.795-58.9505 51.3258-59.0397 51.8693-59.0821C52.5901-59.1381 53.3123-59.1749 54.0348-59.1925C54.6335-59.2095 55.2322-59.184 55.8309-59.1798C56.2428-59.1755 56.6589-59.1968 57.0623-59.1628C57.2785-59.1323 57.4876-59.0618 57.678-58.9547C58.0432-58.7721 57.8309-58.4367 57.3044-58.3136L55.0199-57.7828C54.6802-57.7064 54.332-57.6554 54.0008-57.579C52.238-57.1977 50.4826-56.7829 48.7356-56.3349C48.5912-56.2966 48.4681-56.2372 48.3407-56.1862C47.4618-55.8338 46.5913-55.4771 45.7081-55.1332C44.6508-54.7171 43.585-54.3179 42.5277-53.9018C42.3579-53.8381 42.2305-53.7235 42.0607-53.6555C41.8696-53.5791 41.636-53.5366 41.4407-53.4602C40.7316-53.1969 40.3452-52.8445 40.4174-52.3095C40.4811-51.8 40.7571-51.3499 41.1435-50.9083C41.3558-50.6747 41.4535-50.3987 41.704-50.1864C42.1456-49.8043 42.6296-49.4391 43.3175-49.2013C43.9544-48.9848 44.5786-48.7555 45.2198-48.5474C45.8185-48.3478 46.4427-48.178 47.0372-47.9784C47.3514-47.8723 47.6444-47.7406 47.9288-47.609C48.4384-47.3712 48.9649-47.1377 49.4362-46.8702C49.8693-46.6239 50.2388-46.3394 50.6252-46.0634C50.9691-45.8256 51.3045-45.5836 51.6357-45.3331C51.7844-45.2227 51.899-45.0911 52.0476-44.9807C52.3576-44.7557 52.6888-44.5391 52.9988-44.3099C53.1898-44.1697 53.3597-44.0169 53.5423-43.8725C53.7248-43.7281 53.9159-43.5923 54.0943-43.4479C54.3957-43.1931 54.7269-42.9553 54.986-42.6878C55.4191-42.242 55.7927-41.7791 56.2131-41.3291C56.5952-40.9172 56.7778-40.4671 56.9307-40.0127C56.9792-39.8563 56.9965-39.6918 56.9816-39.5287C56.9604-39.1847 57.2067-38.9087 57.5336-38.6455C57.7544-38.4671 57.9413-38.2718 58.1536-38.0935C58.2215-38.034 58.3277-37.9958 58.4084-37.9449L59.6228-37.206C59.8574-37.0811 60.1316-37.0521 60.3871-37.1254C61.007-37.2825 61.6184-37.4566 62.1959-37.6561C62.8413-37.8769 63.4018-38.1869 63.716-38.5903C64.0727-39.0531 64.4039-39.5499 63.8647-40.0637C63.7482-40.1727 63.6279-40.2778 63.5037-40.3779C63.249-40.586 63.4952-40.7898 63.5037-40.9979C63.5147-41.1493 63.4712-41.3 63.3806-41.4225C63.1173-41.7537 62.99-42.0806 63.2108-42.4415C63.2532-42.501 63.2405-42.5774 63.2575-42.6496C63.266-42.6836 63.2575-42.726 63.2914-42.743C63.6311-42.9341 63.9411-43.1549 64.336-43.295C64.9602-43.5158 65.6141-43.4564 66.2935-43.295C66.8455-43.1676 67.4569-43.1379 68.0429-43.0615C68.1363-43.0487 68.2127-42.9935 68.2976-42.9596C68.2297-42.9129 68.1703-42.8322 68.0896-42.8237C67.8858-42.7982 67.6692-42.8025 67.4612-42.794C67.0663-42.777 66.6629-42.7855 66.2807-42.7303C65.8901-42.6793 65.5164-42.5732 65.1428-42.4755C65.0621-42.4543 65.0069-42.3651 64.9941-42.3057C64.9347-41.932 65.0578-41.7409 65.733-41.7494C66.285-41.7579 66.8412-41.8046 67.3975-41.8301C67.8093-41.8471 68.2255-41.8683 68.6416-41.8726C68.735-41.8726 68.8284-41.8259 68.9218-41.7961C68.8666-41.7367 68.8369-41.6433 68.752-41.622C68.2552-41.4819 67.7414-41.3673 67.2446-41.2271C66.4718-41.0148 65.941-40.6751 65.9283-40.1231C65.9198-39.8896 65.8604-39.6561 65.8476-39.4268C65.8434-39.2569 65.8901-39.0871 65.8943-38.9172C65.9028-38.5478 65.9156-38.1784 65.8901-37.8132C65.8773-37.6604 65.7584-37.516 65.7075-37.3589C65.6735-37.2527 65.6353-37.1381 65.6693-37.0362C65.7457-36.7984 66.0175-36.7177 66.3996-36.8196C67.1512-37.0192 67.9028-37.2188 68.6501-37.4268C69.2743-37.5967 69.5418-37.9364 69.7159-38.3015C69.8348-38.5393 69.8687-38.7983 69.9749-39.0404C70.0428-39.1932 70.1872-39.3376 70.2721-39.4905C70.4802-39.8599 71.0449-40.0127 71.529-40.1868C71.9536-40.3312 72.4716-40.3907 72.9599-40.4459C73.3421-40.4883 73.7455-40.4713 74.1361-40.4628C74.2465-40.4628 74.4164-40.4034 74.4418-40.3524C74.4673-40.2972 74.3696-40.1911 74.2762-40.1614C73.8134-40.0085 73.3336-39.8769 72.8665-39.7367C72.289-39.5584 72.0385-39.2187 72.1659-38.8451C72.2253-38.6667 72.1149-38.4671 72.0852-38.2803C72.0767-38.2294 72.1022-38.1742 72.1149-38.0935C71.8389-37.8132 71.5502-37.482 71.1978-37.1763C71.0134-37.0503 70.8029-36.9675 70.5821-36.9343C70.2764-36.8748 69.597-36.5267 69.6479-36.3398C69.7159-36.0893 69.8942-35.8473 70.0853-35.618C70.1277-35.567 70.4462-35.5713 70.6118-35.601C70.9005-35.6435 71.185-35.7241 71.4525-35.8091C71.8347-35.9279 72.1999-36.0681 72.5735-36.1997C72.616-36.2124 72.6924-36.1997 72.7434-36.187C73.0321-36.1063 73.3039-36.0001 73.6011-35.9449C73.8261-35.9025 74.0469-35.7751 74.3144-35.8812C74.3314-35.8855 74.3866-35.86 74.4248-35.8515C74.5989-35.8006 74.7773-35.7071 74.9514-35.7114C75.4397-35.7284 75.7709-35.5585 76.0936-35.3929C76.4333-35.2231 76.6626-34.998 76.6244-34.7093C76.6201-34.6626 76.5692-34.6159 76.5394-34.5734C76.463-34.5947 76.3696-34.6159 76.3144-34.6499C76.0851-34.79 75.8898-34.9556 75.635-35.083C75.5076-35.1467 75.2953-35.1594 75.117-35.1806C74.9853-35.1976 74.8452-35.1891 74.7136-35.1806C74.548-35.1806 74.3612-35.1976 74.2253-35.1551C73.7922-35.0278 73.3845-34.8707 72.9642-34.7263L72.858-34.6923C72.2763-34.5777 71.6903-34.4715 71.1171-34.3484C70.9625-34.3169 70.816-34.2535 70.6872-34.1623C70.5584-34.0706 70.4504-33.9531 70.3698-33.8176C69.7201-32.8835 69.3295-31.9068 69.4696-30.8878C69.5333-30.4462 69.6989-30.0173 69.8178-29.5842C69.8305-29.5247 69.8305-29.4695 69.839-29.4101C69.6989-29.4101 69.5036-29.3676 69.4314-29.4101C69.1798-29.5237 68.9498-29.6804 68.752-29.8729C68.6494-29.9996 68.5291-30.1111 68.3953-30.2041C67.9282-30.5268 67.941-30.9175 67.9495-31.3081C67.958-31.737 67.9664-32.1659 67.6183-32.565C67.4909-32.7051 67.4909-32.8835 67.4144-33.0406C67.355-33.1679 67.2658-33.2359 66.9898-33.1764C66.8115-33.1382 66.561-33.1764 66.3699-33.2231C66.1661-33.2741 65.992-33.3675 65.8136-33.4482C65.7542-33.4737 65.7075-33.5161 65.665-33.5543C65.406-33.7794 65.164-34.0214 64.871-34.2295C64.7988-34.2847 64.5228-34.2889 64.3912-34.255C64.026-34.1488 63.6906-34.0129 63.3424-33.8898C63.3296-33.8855 63.3169-33.8728 63.3042-33.8771C62.8456-33.9195 62.612-33.7157 62.3021-33.5713C61.9709-33.41 61.5548-33.3166 61.2108-33.1595C60.552-32.8831 59.9748-32.4433 59.5336-31.8814C59.024-31.2062 58.3616-30.5905 57.5209-30.0343C57.2014-29.8379 56.9063-29.604 56.642-29.3379C56.3575-29.0237 56.0263-28.718 55.8267-28.3825C55.4658-27.7753 55.3172-27.1596 55.8055-26.5355C56.1621-26.0854 56.5061-25.6225 56.7693-25.147C56.9562-24.82 57.0199-24.4676 57.1005-24.1236C57.177-23.8179 57.2152-23.5079 57.2492-23.2022C57.2831-22.8795 57.2576-22.5526 57.3171-22.2256C57.3765-21.8859 57.3426-21.5335 57.5719-21.1938C57.7877-20.8502 57.9522-20.4765 58.0602-20.0855C58.1324-19.8393 58.4126-19.6864 58.6037-19.4911C58.8712-19.2363 59.1557-18.9815 59.4529-18.7268C59.8223-18.4253 60.2172-18.1323 60.6036-17.8308C60.8754-17.6185 61.1556-17.4147 61.4104-17.1982C61.9199-16.7651 62.4295-16.3277 62.905-15.8776C63.3933-15.4148 63.8392-14.9435 64.3063-14.4721L65.2022-13.5677C65.3805-13.3936 65.5844-13.2238 65.7245-13.0369C65.8519-12.8671 65.8943-12.6675 66.0217-12.4934C66.1448-12.3236 66.3487-12.1665 66.4845-11.9966C66.6459-11.7843 66.769-11.5635 66.9092-11.347C67.1852-10.9266 67.4951-10.5105 67.7159-10.0816C67.89-9.73767 67.9537-9.36825 68.0684-9.01582C68.1278-8.82899 68.2127-8.64216 68.2594-8.45533C68.3783-8.00948 68.3868-7.56364 68.1363-7.12628C68.1066-7.07108 68.0726-7.01164 68.0641-6.95644C68.0216-6.71865 67.856-6.67195 67.5418-6.80358L67.3465-6.87152L67.3465-6.87152ZM59.644-26.1193C59.9242-26.0641 60.0049-26.0174 60.0813-26.0387C61.3382-26.4463 62.5993-26.8539 63.8562-27.2785C64.4421-27.4739 65.0451-27.6267 65.6056-27.9579C66.3996-28.425 67.1767-29.0025 67.9282-29.6394C68.0726-29.7583 68.183-30.4207 68.1193-30.7307C67.941-31.6139 67.5673-32.4079 67.4612-33.3038C67.3295-34.48 67.0535-34.8537 66.4251-34.2252C64.8116-32.6202 63.1768-31.0746 61.6269-29.3252C60.9136-28.5311 60.3701-27.3167 59.644-26.1193L59.644-26.1193ZM68.1363-32.03C68.217-31.8474 68.2679-31.2402 68.7053-30.8198C70.0216-29.5587 71.4568-28.3698 71.771-26.7435C71.822-26.476 72.599-26.2679 73.0406-26.0344C73.2359-26.3486 73.5926-26.6586 73.6011-26.9771C73.6351-28.5948 73.5884-30.2041 76.3866-30.9387C76.5437-30.9812 76.7008-31.3803 76.5904-31.4907C75.4949-32.548 74.8919-33.8049 72.7264-34.3399C70.391-34.9174 68.2127-34.1531 68.1363-32.03L68.1363-32.03Z"/>
   <path class="monochrome-1 multicolor-1:tintColor hierarchical-1:tertiary SFSymbolsPreviewWireframe" d="M48.9411-84C55.3091-84.0013 61.615-82.7479 67.4985-80.3116C73.382-77.8752 78.7279-74.3036 83.2305-69.8009C87.7334-65.2983 91.305-59.9524 93.7418-54.0682C96.1779-48.1846 97.4312-41.8789 97.43-35.5124C97.43-8.72255 75.7254 13 48.9424 13C22.156 13 0.43-8.726 0.43-35.5124C0.43-62.2926 22.1539-84 48.9411-84ZM48.9424-70C29.8835-70 14.43-54.5582 14.43-35.5124C14.43-16.458 29.888-0.999999 48.9424-0.999999C67.9909-0.999999 83.43-16.4519 83.43-35.5138C83.4309-40.0428 82.5395-44.5276 80.8069-48.7121C79.0739-52.8969 76.5337-56.6989 73.3311-59.9013C70.1287-63.1038 66.3266-65.644 62.1422-67.3767C57.9578-69.1095 53.4729-70.0009 48.9424-70Z"/>
  </g>
  <g id="Regular-S" transform="matrix(1 0 0 1 1403.58 696)">
   <path class="monochrome-0 multicolor-0:tintColor hierarchical-0:primary SFSymbolsPreviewWireframe" d="M64.3365-5.87148L64.3365-5.03923C64.3493-4.71228 64.3875-4.38108 64.3705-4.05412C64.3705-3.9692 64.2219-3.81634 64.1157-3.80785C63.8737-3.79511 63.5637-3.8039 63.4533-3.98194C63.2538-4.29191 63.1009-4.61037 62.9013-4.91609C62.689-5.23455 62.4343-5.54452 62.222-5.86298C62.1583-5.95215 62.154-6.05406 62.1201-6.14748C62.1116-6.16871 62.0818-6.18994 62.0479-6.22391C61.8823-6.02434 61.8228-5.84175 61.929-5.63794C62.0776-5.35345 61.9799-5.07745 61.8441-4.80145C61.7379-4.60188 61.7294-4.38532 61.6402-4.18575C61.5836-4.04917 61.4817-3.93665 61.3515-3.86729C61.2581-3.82483 61.0288-3.87578 60.8632-3.89277C60.8377-3.89701 60.808-3.94797 60.8122-3.97769C60.8717-4.33861 60.9184-4.69529 60.7231-5.05197C60.6339-5.22181 60.6551-5.4044 60.6084-5.58274C60.5405-5.82901 60.4556-6.07529 60.3791-6.32157C60.2942-6.58908 60.239-6.86083 60.1116-7.1156C59.9078-7.51049 59.653-7.89689 59.4195-8.28329C59.1308-8.75886 58.8675-9.24292 58.5405-9.70575C58.3622-9.94 58.1365-10.1339 57.8781-10.2747C57.3261-10.5932 56.702-10.8692 56.133-11.1749C55.2374-11.6519 54.3471-12.1388 53.4621-12.6356C52.9526-12.9201 52.4855-13.2343 51.9887-13.5273C51.649-13.7226 51.2541-13.884 50.9357-14.0878C50.5026-14.3638 50.1162-14.6695 49.6576-14.9965C49.6406-14.8054 49.5939-14.6525 49.6236-14.5039C49.6831-14.1897 49.785-13.8797 49.8657-13.5698C49.9251-13.3405 49.9633-13.1112 50.0355-12.8904C50.1884-12.3936 50.3582-11.8968 50.5153-11.4042C50.5748-11.2046 50.6002-11.0051 50.6512-10.8098C50.7404-10.4701 50.8677-10.1304 50.9229-9.78218C50.9704-9.49026 50.9633-9.19232 50.9017-8.90323C50.8635-8.72914 50.7021-8.54655 50.5196-8.40218C50.2733-8.20686 49.993-8.25781 49.7001-8.41917C49.2924-8.64846 48.8253-8.84378 48.371-9.03911C47.9634-9.22169 47.5218-9.3788 47.1311-9.56563C46.9273-9.66329 46.8042-9.8204 46.6216-9.93929C46.3371-10.1176 46.0144-10.2747 45.7341-10.4573C45.4242-10.6611 45.1397-10.8819 44.8509-11.1027C44.5537-11.3193 44.2522-11.5358 43.9762-11.7609C43.454-12.194 42.834-12.5974 42.9954-13.2046C43.0293-13.3447 42.9402-13.5018 42.8468-13.6377C42.6741-13.8765 42.4855-14.1037 42.282-14.3171C42.1288-14.476 41.9643-14.6235 41.7895-14.7587C41.764-14.7799 41.6451-14.7587 41.5135-14.7587C41.4837-14.8054 41.4455-14.903 41.3733-14.9965C41.3309-15.0559 41.2629-15.1323 41.1738-15.1621C40.8086-15.2682 40.4265-15.3531 40.0613-15.4593C39.6621-15.5739 39.28-15.7056 38.8893-15.833C38.694-15.8966 38.4647-15.9434 38.3161-16.041C37.9127-16.3 37.5518-16.593 37.1612-16.8563C36.6364-17.1981 36.1998-17.6595 35.8873-18.2023C35.5052-18.8817 35.0848-19.5483 34.6857-20.2235C34.4903-20.5589 34.3077-20.8944 34.1039-21.2256C33.9426-21.4803 33.7345-21.7309 33.5901-21.9899C33.3269-22.4612 33.1018-22.941 32.8386-23.4166C32.6771-23.7234 32.4895-24.0164 32.2781-24.2913C31.9469-24.7074 31.5308-25.0981 31.2081-25.5184C30.9108-25.9091 30.6985-26.321 30.431-26.7201C30.2102-27.0555 29.9639-27.3825 29.7346-27.7137C29.5223-28.0322 29.327-28.3506 29.1147-28.6691C29.068-28.7413 28.9618-28.8007 28.9066-28.8729L27.7602-30.3803C27.3525-30.9323 26.9534-31.4843 26.5288-32.0363C26.4439-32.1467 26.2401-32.2231 26.1381-32.3335C25.9015-32.5833 25.6749-32.8427 25.4588-33.1106C25.2677-33.3441 25.0639-33.5776 24.9365-33.8197C24.6562-34.3377 24.4269-34.8642 24.4354-35.4205C24.4374-35.8819 24.3962-36.3422 24.3123-36.7962C24.2316-37.2888 24.049-37.7728 24.0023-38.2611C23.9726-38.5923 24.1085-38.9278 24.1552-39.259C24.1842-39.46 24.1942-39.6631 24.1849-39.8662C24.1594-40.3418 24.1594-40.8131 24.0618-41.2802C23.9981-41.6029 24.134-41.8958 24.2104-42.1973C24.2868-42.4988 24.3972-42.8003 24.4821-43.106C24.5246-43.2504 24.5289-43.4032 24.5756-43.5434C24.7242-44.0486 24.9153-44.5453 25.0341-45.0506C25.1403-45.4795 25.1785-45.9168 25.2252-46.35C25.2465-46.5479 25.2422-46.7476 25.2125-46.9444C25.1463-47.3736 25.0699-47.8012 24.9832-48.2268C24.928-48.5028 24.877-48.7788 24.7836-49.0548C24.7412-49.1821 24.5543-49.2968 24.5246-49.4242C24.3972-49.921 23.8749-50.3074 23.5268-50.7405C23.3573-50.9531 23.1682-51.1493 22.962-51.3264C22.8304-51.4411 22.6138-51.5133 22.444-51.6152C22.3134-51.6931 22.1872-51.7781 22.0661-51.87C21.9684-51.9464 21.9047-52.0398 21.7901-52.1035C21.4088-52.3115 21.0223-52.5097 20.6309-52.698C20.4908-52.7659 20.2827-52.7829 20.1553-52.8508C19.6767-53.1079 19.2318-53.4231 18.8305-53.7892C18.4823-54.1077 18.3762-54.4559 18.4356-54.8125C18.5078-55.2669 18.8475-55.6533 19.3655-55.9972C20.0279-56.4346 20.8602-56.7191 21.6882-57.0163C22.1595-57.1861 22.6011-57.3857 23.0767-57.5513C23.3739-57.6575 23.7136-57.7212 24.0321-57.8146C24.5841-57.9674 25.1233-58.1373 25.6796-58.2816C26.2401-58.4303 26.7963-58.5874 27.3823-58.685C28.1848-58.8209 29.0001-58.9525 29.8238-58.9823C30.8004-59.0247 31.794-58.9823 32.7791-58.944C33.4925-58.9186 34.2228-58.8719 34.9107-58.7657C35.917-58.6086 36.9021-58.3963 37.883-58.1882C38.8384-57.9887 39.7556-57.7084 40.7322-57.5683C41.4031-57.4664 42.1504-57.5216 42.8553-57.5428C43.8404-57.581 44.8212-57.6447 45.7978-57.7127C46.2861-57.7509 46.766-57.8231 47.2458-57.8825C47.785-57.9504 48.3158-58.0396 48.8593-58.0821C49.5801-58.1381 50.3023-58.1749 51.0249-58.1925C51.6236-58.2095 52.2223-58.184 52.821-58.1797C53.2329-58.1755 53.649-58.1967 54.0524-58.1628C54.2686-58.1323 54.4777-58.0617 54.6681-57.9547C55.0332-57.7721 54.8209-57.4367 54.2944-57.3135L52.01-56.7828C51.6703-56.7063 51.3221-56.6554 50.9909-56.5789C49.228-56.1977 47.4726-55.7829 45.7257-55.3348C45.5813-55.2966 45.4581-55.2372 45.3308-55.1862C44.4518-54.8338 43.5813-54.4771 42.6981-54.1332C41.6409-53.717 40.5751-53.3179 39.5178-52.9018C39.3479-52.8381 39.2205-52.7234 39.0507-52.6555C38.8596-52.5791 38.6261-52.5366 38.4308-52.4602C37.7217-52.1969 37.3353-51.8445 37.4074-51.3095C37.4711-50.7999 37.7471-50.3498 38.1335-49.9082C38.3458-49.6747 38.4435-49.3987 38.694-49.1864C39.1356-48.8042 39.6197-48.4391 40.3076-48.2013C40.9445-47.9847 41.5687-47.7554 42.2098-47.5474C42.8085-47.3478 43.4327-47.178 44.0272-46.9784C44.3414-46.8722 44.6344-46.7406 44.9189-46.609C45.4284-46.3712 45.9549-46.1376 46.4263-45.8701C46.8594-45.6239 47.2288-45.3394 47.6152-45.0634C47.9591-44.8256 48.2946-44.5836 48.6258-44.333C48.7744-44.2226 48.889-44.0911 49.0377-43.9807C49.3476-43.7557 49.6788-43.5391 49.9888-43.3098C50.1799-43.1697 50.3497-43.0168 50.5323-42.8725C50.7149-42.7281 50.906-42.5922 51.0843-42.4478C51.3858-42.1931 51.717-41.9553 51.976-41.6878C52.4091-41.2419 52.7828-40.7791 53.2031-40.329C53.5853-39.9171 53.7679-39.467 53.9207-39.0127C53.9692-38.8563 53.9865-38.6918 53.9717-38.5286C53.9505-38.1847 54.1967-37.9087 54.5237-37.6454C54.7445-37.4671 54.9313-37.2718 55.1436-37.0934C55.2116-37.034 55.3177-36.9958 55.3984-36.9448L56.6128-36.206C56.8474-36.0811 57.1216-36.0521 57.3771-36.1253C57.997-36.2824 58.6085-36.4565 59.186-36.6561C59.8314-36.8769 60.3919-37.1869 60.7061-37.5902C61.0628-38.0531 61.394-38.5499 60.8547-39.0637C60.7383-39.1726 60.618-39.2777 60.4938-39.3779C60.239-39.5859 60.4853-39.7898 60.4938-39.9978C60.5047-40.1493 60.4612-40.3 60.3706-40.4224C60.1074-40.7536 59.98-41.0806 60.2008-41.4415C60.2433-41.501 60.2305-41.5774 60.2475-41.6496C60.256-41.6835 60.2475-41.726 60.2815-41.743C60.6212-41.9341 60.9311-42.1549 61.326-42.295C61.9502-42.5158 62.6041-42.4563 63.2835-42.295C63.8355-42.1676 64.4469-42.1379 65.0329-42.0614C65.1263-42.0487 65.2028-41.9935 65.2877-41.9595C65.2197-41.9128 65.1603-41.8322 65.0796-41.8237C64.8758-41.7982 64.6593-41.8024 64.4512-41.7939C64.0563-41.777 63.6529-41.7854 63.2708-41.7302C62.8801-41.6793 62.5065-41.5731 62.1328-41.4755C62.0521-41.4542 61.9969-41.3651 61.9842-41.3056C61.9247-40.932 62.0479-40.7409 62.723-40.7494C63.275-40.7579 63.8313-40.8046 64.3875-40.8301C64.7994-40.847 65.2155-40.8683 65.6316-40.8725C65.725-40.8725 65.8185-40.8258 65.9119-40.7961C65.8567-40.7366 65.8269-40.6432 65.742-40.622C65.2452-40.4819 64.7314-40.3672 64.2346-40.2271C63.4618-40.0148 62.9311-39.6751 62.9183-39.1231C62.9098-38.8896 62.8504-38.656 62.8377-38.4267C62.8334-38.2569 62.8801-38.087 62.8844-37.9172C62.8929-37.5478 62.9056-37.1784 62.8801-36.8132C62.8674-36.6603 62.7485-36.516 62.6975-36.3589C62.6636-36.2527 62.6253-36.1381 62.6593-36.0362C62.7357-35.7984 63.0075-35.7177 63.3897-35.8196C64.1412-36.0192 64.8928-36.2187 65.6401-36.4268C66.2643-36.5966 66.5318-36.9363 66.7059-37.3015C66.8248-37.5393 66.8588-37.7983 66.9649-38.0403C67.0329-38.1932 67.1772-38.3376 67.2621-38.4904C67.4702-38.8598 68.0349-39.0127 68.519-39.1868C68.9436-39.3312 69.4617-39.3906 69.95-39.4458C70.3321-39.4883 70.7355-39.4713 71.1261-39.4628C71.2365-39.4628 71.4064-39.4034 71.4319-39.3524C71.4573-39.2972 71.3597-39.191 71.2663-39.1613C70.8034-39.0085 70.3236-38.8768 69.8565-38.7367C69.2791-38.5584 69.0285-38.2187 69.1559-37.845C69.2154-37.6667 69.105-37.4671 69.0753-37.2803C69.0668-37.2293 69.0922-37.1741 69.105-37.0934C68.829-36.8132 68.5402-36.482 68.1878-36.1763C68.0035-36.0503 67.7929-35.9675 67.5721-35.9342C67.2664-35.8748 66.587-35.5266 66.638-35.3398C66.7059-35.0893 66.8842-34.8472 67.0753-34.6179C67.1178-34.567 67.4362-34.5712 67.6018-34.601C67.8906-34.6434 68.1751-34.7241 68.4426-34.809C68.8247-34.9279 69.1899-35.068 69.5636-35.1997C69.606-35.2124 69.6825-35.1997 69.7334-35.1869C70.0221-35.1062 70.2939-35.0001 70.5911-34.9449C70.8162-34.9024 71.037-34.775 71.3045-34.8812C71.3215-34.8854 71.3767-34.86 71.4149-34.8515C71.589-34.8005 71.7673-34.7071 71.9414-34.7114C72.4297-34.7283 72.7609-34.5585 73.0836-34.3929C73.4233-34.223 73.6526-33.998 73.6144-33.7093C73.6101-33.6626 73.5592-33.6158 73.5295-33.5734C73.453-33.5946 73.3596-33.6158 73.3044-33.6498C73.0751-33.7899 72.8798-33.9555 72.625-34.0829C72.4977-34.1466 72.2853-34.1594 72.107-34.1806C71.9754-34.1976 71.8353-34.1891 71.7036-34.1806C71.538-34.1806 71.3512-34.1976 71.2153-34.1551C70.7822-34.0277 70.3746-33.8706 69.9542-33.7262L69.8481-33.6923C69.2663-33.5776 68.6804-33.4715 68.1071-33.3483C67.9525-33.3168 67.806-33.2535 67.6772-33.1622C67.5484-33.0706 67.4405-32.9531 67.3598-32.8176C66.7101-31.8834 66.3195-30.9068 66.4596-29.8877C66.5233-29.4461 66.6889-29.0173 66.8078-28.5842C66.8205-28.5247 66.8205-28.4695 66.829-28.4101C66.6889-28.4101 66.4936-28.3676 66.4214-28.4101C66.1698-28.5236 65.9398-28.6804 65.742-28.8729C65.6394-28.9996 65.5191-29.111 65.3853-29.2041C64.9183-29.5268 64.931-29.9174 64.9395-30.3081C64.948-30.737 64.9565-31.1658 64.6083-31.565C64.4809-31.7051 64.4809-31.8834 64.4045-32.0405C64.345-32.1679 64.2559-32.2358 63.9799-32.1764C63.8015-32.1382 63.551-32.1764 63.3599-32.2231C63.1561-32.2741 62.982-32.3675 62.8037-32.4482C62.7442-32.4736 62.6975-32.5161 62.6551-32.5543C62.3961-32.7794 62.154-33.0214 61.861-33.2294C61.7889-33.2846 61.5129-33.2889 61.3812-33.2549C61.0161-33.1488 60.6806-33.0129 60.3324-32.8898C60.3197-32.8855 60.3069-32.8728 60.2942-32.877C59.8356-32.9195 59.6021-32.7157 59.2921-32.5713C58.9609-32.4099 58.5448-32.3165 58.2009-32.1594C57.542-31.8831 56.9649-31.4432 56.5236-30.8813C56.0141-30.2062 55.3517-29.5905 54.5109-29.0342C54.1914-28.8379 53.8963-28.604 53.632-28.3379C53.3475-28.0237 53.0163-27.7179 52.8167-27.3825C52.4558-26.7753 52.3072-26.1596 52.7955-25.5354C53.1522-25.0853 53.4961-24.6225 53.7594-24.1469C53.9462-23.82 54.0099-23.4675 54.0906-23.1236C54.167-22.8179 54.2052-22.5079 54.2392-22.2022C54.2732-21.8795 54.2477-21.5525 54.3071-21.2256C54.3666-20.8859 54.3326-20.5334 54.5619-20.1938C54.7777-19.8502 54.9423-19.4765 55.0502-19.0855C55.1224-18.8392 55.4026-18.6864 55.5937-18.491C55.8612-18.2363 56.1457-17.9815 56.4429-17.7267C56.8124-17.4253 57.2073-17.1323 57.5937-16.8308C57.8654-16.6185 58.1457-16.4147 58.4004-16.1981C58.91-15.765 59.4195-15.3277 59.8951-14.8776C60.3834-14.4147 60.8292-13.9434 61.2963-13.4721L62.1922-12.5677C62.3706-12.3936 62.5744-12.2237 62.7145-12.0369C62.8419-11.867 62.8844-11.6675 63.0117-11.4934C63.1349-11.3235 63.3387-11.1664 63.4746-10.9966C63.6359-10.7843 63.7591-10.5635 63.8992-10.3469C64.1752-9.92655 64.4852-9.51043 64.706-9.08157C64.8801-8.73763 64.9437-8.36821 65.0584-8.01578C65.1178-7.82895 65.2028-7.64212 65.2495-7.45529C65.3684-7.00945 65.3769-6.5636 65.1263-6.12625C65.0966-6.07105 65.0626-6.0116 65.0541-5.9564C65.0117-5.71861 64.8461-5.67191 64.5319-5.80354L64.3365-5.87148L64.3365-5.87148ZM56.634-25.1193C56.9143-25.0641 56.9949-25.0174 57.0714-25.0386C58.3282-25.4462 59.5893-25.8539 60.8462-26.2785C61.4322-26.4738 62.0351-26.6267 62.5956-26.9579C63.3897-27.425 64.1667-28.0024 64.9183-28.6394C65.0626-28.7582 65.173-29.4206 65.1093-29.7306C64.931-30.6138 64.5573-31.4078 64.4512-32.3038C64.3196-33.48 64.0436-33.8536 63.4151-33.2252C61.8016-31.6202 60.1668-30.0746 58.617-28.3251C57.9036-27.5311 57.3601-26.3167 56.634-25.1193L56.634-25.1193ZM65.1263-31.0299C65.207-30.8474 65.258-30.2402 65.6953-29.8198C67.0116-28.5587 68.4468-27.3698 68.761-25.7435C68.812-25.476 69.589-25.2679 70.0306-25.0344C70.226-25.3486 70.5826-25.6586 70.5911-25.977C70.6251-27.5948 70.5784-29.2041 73.3766-29.9387C73.5337-29.9811 73.6908-30.3803 73.5804-30.4907C72.4849-31.548 71.882-32.8048 69.7164-33.3398C67.381-33.9173 65.2028-33.153 65.1263-31.0299L65.1263-31.0299Z"/>
   <path class="monochrome-1 multicolor-1:tintColor hierarchical-1:tertiary SFSymbolsPreviewWireframe" d="M46.4321-81.8365C52.4502-81.8377 58.4096-80.6532 63.9698-78.3508C69.53-76.0483 74.5822-72.6729 78.8374-68.4176C83.0928-64.1624 86.4682-59.1103 88.771-53.5496C91.0733-47.9892 92.2577-42.03 92.2566-36.0127C92.2566-10.693 71.744 9.83658 46.4328 9.83658C21.1173 9.83658 0.5835-10.6972 0.5835-36.0127C0.5835-61.3211 21.1145-81.8365 46.4321-81.8365ZM46.4328-75.0865C24.8413-75.0865 7.3335-57.592 7.3335-36.0127C7.3335-14.4252 24.8452 3.08658 46.4328 3.08658C68.0148 3.08658 85.5066-14.4197 85.5066-36.0133C85.5076-41.1447 84.4976-46.226 82.5345-50.9672C80.571-55.7085 77.693-60.0162 74.0644-63.6446C70.4361-67.273 66.1283-70.1511 61.3873-72.1143C56.6463-74.0776 51.5649-75.0875 46.4328-75.0865Z"/>
  </g>
  <g id="Ultralight-S" transform="matrix(1 0 0 1 515.649 696)">
   <path class="monochrome-0 multicolor-0:tintColor hierarchical-0:primary SFSymbolsPreviewWireframe" d="M67.2675-5.87148L67.2675-5.03923C67.2803-4.71228 67.3185-4.38108 67.3015-4.05412C67.3015-3.9692 67.1529-3.81634 67.0467-3.80785C66.8047-3.79511 66.4947-3.8039 66.3843-3.98194C66.1848-4.29191 66.0319-4.61037 65.8323-4.91609C65.62-5.23455 65.3653-5.54452 65.153-5.86298C65.0893-5.95215 65.085-6.05406 65.0511-6.14748C65.0426-6.16871 65.0128-6.18994 64.9789-6.22391C64.8133-6.02434 64.7538-5.84175 64.86-5.63794C65.0086-5.35345 64.9109-5.07745 64.7751-4.80145C64.6689-4.60188 64.6604-4.38532 64.5712-4.18575C64.5146-4.04917 64.4127-3.93665 64.2825-3.86729C64.1891-3.82483 63.9598-3.87578 63.7942-3.89277C63.7687-3.89701 63.739-3.94797 63.7432-3.97769C63.8027-4.33861 63.8494-4.69529 63.6541-5.05197C63.5649-5.22181 63.5861-5.4044 63.5394-5.58274C63.4715-5.82901 63.3866-6.07529 63.3101-6.32157C63.2252-6.58908 63.17-6.86083 63.0426-7.1156C62.8388-7.51049 62.584-7.89689 62.3505-8.28329C62.0618-8.75886 61.7985-9.24292 61.4715-9.70575C61.2932-9.94 61.0675-10.1339 60.8091-10.2747C60.2571-10.5932 59.633-10.8692 59.064-11.1749C58.1684-11.6519 57.2781-12.1388 56.3931-12.6356C55.8836-12.9201 55.4165-13.2343 54.9197-13.5273C54.58-13.7226 54.1851-13.884 53.8667-14.0878C53.4336-14.3638 53.0472-14.6695 52.5886-14.9965C52.5716-14.8054 52.5249-14.6525 52.5546-14.5039C52.6141-14.1897 52.716-13.8797 52.7967-13.5698C52.8561-13.3405 52.8943-13.1112 52.9665-12.8904C53.1194-12.3936 53.2892-11.8968 53.4463-11.4042C53.5058-11.2046 53.5312-11.0051 53.5822-10.8098C53.6714-10.4701 53.7987-10.1304 53.8539-9.78218C53.9014-9.49026 53.8943-9.19232 53.8327-8.90323C53.7945-8.72914 53.6331-8.54655 53.4506-8.40218C53.2043-8.20686 52.924-8.25781 52.6311-8.41917C52.2234-8.64846 51.7563-8.84378 51.302-9.03911C50.8944-9.22169 50.4528-9.3788 50.0621-9.56563C49.8583-9.66329 49.7352-9.8204 49.5526-9.93929C49.2681-10.1176 48.9454-10.2747 48.6651-10.4573C48.3552-10.6611 48.0707-10.8819 47.7819-11.1027C47.4847-11.3193 47.1832-11.5358 46.9072-11.7609C46.385-12.194 45.765-12.5974 45.9264-13.2046C45.9603-13.3447 45.8712-13.5018 45.7778-13.6377C45.6051-13.8765 45.4165-14.1037 45.213-14.3171C45.0598-14.476 44.8953-14.6235 44.7205-14.7587C44.695-14.7799 44.5761-14.7587 44.4445-14.7587C44.4147-14.8054 44.3765-14.903 44.3043-14.9965C44.2619-15.0559 44.1939-15.1323 44.1048-15.1621C43.7396-15.2682 43.3575-15.3531 42.9923-15.4593C42.5931-15.5739 42.211-15.7056 41.8203-15.833C41.625-15.8966 41.3957-15.9434 41.2471-16.041C40.8437-16.3 40.4828-16.593 40.0922-16.8563C39.5674-17.1981 39.1308-17.6595 38.8183-18.2023C38.4362-18.8817 38.0158-19.5483 37.6167-20.2235C37.4213-20.5589 37.2387-20.8944 37.0349-21.2256C36.8736-21.4803 36.6655-21.7309 36.5211-21.9899C36.2579-22.4612 36.0328-22.941 35.7696-23.4166C35.6081-23.7234 35.4205-24.0164 35.2091-24.2913C34.8779-24.7074 34.4618-25.0981 34.1391-25.5184C33.8418-25.9091 33.6295-26.321 33.362-26.7201C33.1412-27.0555 32.8949-27.3825 32.6656-27.7137C32.4533-28.0322 32.258-28.3506 32.0457-28.6691C31.999-28.7413 31.8928-28.8007 31.8376-28.8729L30.6912-30.3803C30.2835-30.9323 29.8844-31.4843 29.4598-32.0363C29.3749-32.1467 29.1711-32.2231 29.0691-32.3335C28.8325-32.5833 28.6059-32.8427 28.3898-33.1106C28.1987-33.3441 27.9949-33.5776 27.8675-33.8197C27.5872-34.3377 27.3579-34.8642 27.3664-35.4205C27.3684-35.8819 27.3272-36.3422 27.2433-36.7962C27.1626-37.2888 26.98-37.7728 26.9333-38.2611C26.9036-38.5923 27.0395-38.9278 27.0862-39.259C27.1152-39.46 27.1252-39.6631 27.1159-39.8662C27.0904-40.3418 27.0904-40.8131 26.9928-41.2802C26.9291-41.6029 27.065-41.8958 27.1414-42.1973C27.2178-42.4988 27.3282-42.8003 27.4131-43.106C27.4556-43.2504 27.4599-43.4032 27.5066-43.5434C27.6552-44.0486 27.8463-44.5453 27.9651-45.0506C28.0713-45.4795 28.1095-45.9168 28.1562-46.35C28.1775-46.5479 28.1732-46.7476 28.1435-46.9444C28.0773-47.3736 28.0009-47.8012 27.9142-48.2268C27.859-48.5028 27.808-48.7788 27.7146-49.0548C27.6722-49.1821 27.4853-49.2968 27.4556-49.4242C27.3282-49.921 26.8059-50.3074 26.4578-50.7405C26.2883-50.9531 26.0992-51.1493 25.893-51.3264C25.7614-51.4411 25.5448-51.5133 25.375-51.6152C25.2444-51.6931 25.1182-51.7781 24.9971-51.87C24.8994-51.9464 24.8357-52.0398 24.7211-52.1035C24.3398-52.3115 23.9533-52.5097 23.5619-52.698C23.4218-52.7659 23.2137-52.7829 23.0863-52.8508C22.6077-53.1079 22.1628-53.4231 21.7615-53.7892C21.4133-54.1077 21.3072-54.4559 21.3666-54.8125C21.4388-55.2669 21.7785-55.6533 22.2965-55.9972C22.9589-56.4346 23.7912-56.7191 24.6192-57.0163C25.0905-57.1861 25.5321-57.3857 26.0077-57.5513C26.3049-57.6575 26.6446-57.7212 26.9631-57.8146C27.5151-57.9674 28.0543-58.1373 28.6106-58.2816C29.1711-58.4303 29.7273-58.5874 30.3133-58.685C31.1158-58.8209 31.9311-58.9525 32.7548-58.9823C33.7314-59.0247 34.725-58.9823 35.7101-58.944C36.4235-58.9186 37.1538-58.8719 37.8417-58.7657C38.848-58.6086 39.8331-58.3963 40.814-58.1882C41.7694-57.9887 42.6866-57.7084 43.6632-57.5683C44.3341-57.4664 45.0814-57.5216 45.7863-57.5428C46.7714-57.581 47.7522-57.6447 48.7288-57.7127C49.2171-57.7509 49.697-57.8231 50.1768-57.8825C50.716-57.9504 51.2468-58.0396 51.7903-58.0821C52.5111-58.1381 53.2333-58.1749 53.9559-58.1925C54.5546-58.2095 55.1533-58.184 55.752-58.1797C56.1639-58.1755 56.58-58.1967 56.9834-58.1628C57.1996-58.1323 57.4087-58.0617 57.5991-57.9547C57.9642-57.7721 57.7519-57.4367 57.2254-57.3135L54.941-56.7828C54.6013-56.7063 54.2531-56.6554 53.9219-56.5789C52.159-56.1977 50.4036-55.7829 48.6567-55.3348C48.5123-55.2966 48.3891-55.2372 48.2618-55.1862C47.3828-54.8338 46.5123-54.4771 45.6291-54.1332C44.5719-53.717 43.5061-53.3179 42.4488-52.9018C42.2789-52.8381 42.1515-52.7234 41.9817-52.6555C41.7906-52.5791 41.5571-52.5366 41.3618-52.4602C40.6527-52.1969 40.2663-51.8445 40.3384-51.3095C40.4021-50.7999 40.6781-50.3498 41.0645-49.9082C41.2768-49.6747 41.3745-49.3987 41.625-49.1864C42.0666-48.8042 42.5507-48.4391 43.2386-48.2013C43.8755-47.9847 44.4997-47.7554 45.1408-47.5474C45.7395-47.3478 46.3637-47.178 46.9582-46.9784C47.2724-46.8722 47.5654-46.7406 47.8499-46.609C48.3594-46.3712 48.8859-46.1376 49.3573-45.8701C49.7904-45.6239 50.1598-45.3394 50.5462-45.0634C50.8901-44.8256 51.2256-44.5836 51.5568-44.333C51.7054-44.2226 51.82-44.0911 51.9687-43.9807C52.2786-43.7557 52.6098-43.5391 52.9198-43.3098C53.1109-43.1697 53.2807-43.0168 53.4633-42.8725C53.6459-42.7281 53.837-42.5922 54.0153-42.4478C54.3168-42.1931 54.648-41.9553 54.907-41.6878C55.3401-41.2419 55.7138-40.7791 56.1341-40.329C56.5163-39.9171 56.6989-39.467 56.8517-39.0127C56.9002-38.8563 56.9175-38.6918 56.9027-38.5286C56.8815-38.1847 57.1277-37.9087 57.4547-37.6454C57.6755-37.4671 57.8623-37.2718 58.0746-37.0934C58.1426-37.034 58.2487-36.9958 58.3294-36.9448L59.5438-36.206C59.7784-36.0811 60.0526-36.0521 60.3081-36.1253C60.928-36.2824 61.5395-36.4565 62.117-36.6561C62.7624-36.8769 63.3229-37.1869 63.6371-37.5902C63.9938-38.0531 64.325-38.5499 63.7857-39.0637C63.6693-39.1726 63.549-39.2777 63.4248-39.3779C63.17-39.5859 63.4163-39.7898 63.4248-39.9978C63.4357-40.1493 63.3922-40.3 63.3016-40.4224C63.0384-40.7536 62.911-41.0806 63.1318-41.4415C63.1743-41.501 63.1615-41.5774 63.1785-41.6496C63.187-41.6835 63.1785-41.726 63.2125-41.743C63.5522-41.9341 63.8621-42.1549 64.257-42.295C64.8812-42.5158 65.5351-42.4563 66.2145-42.295C66.7665-42.1676 67.3779-42.1379 67.9639-42.0614C68.0573-42.0487 68.1338-41.9935 68.2187-41.9595C68.1507-41.9128 68.0913-41.8322 68.0106-41.8237C67.8068-41.7982 67.5903-41.8024 67.3822-41.7939C66.9873-41.777 66.5839-41.7854 66.2018-41.7302C65.8111-41.6793 65.4375-41.5731 65.0638-41.4755C64.9831-41.4542 64.9279-41.3651 64.9152-41.3056C64.8557-40.932 64.9789-40.7409 65.654-40.7494C66.206-40.7579 66.7623-40.8046 67.3185-40.8301C67.7304-40.847 68.1465-40.8683 68.5626-40.8725C68.656-40.8725 68.7495-40.8258 68.8429-40.7961C68.7877-40.7366 68.7579-40.6432 68.673-40.622C68.1762-40.4819 67.6624-40.3672 67.1656-40.2271C66.3928-40.0148 65.8621-39.6751 65.8493-39.1231C65.8408-38.8896 65.7814-38.656 65.7687-38.4267C65.7644-38.2569 65.8111-38.087 65.8154-37.9172C65.8239-37.5478 65.8366-37.1784 65.8111-36.8132C65.7984-36.6603 65.6795-36.516 65.6285-36.3589C65.5946-36.2527 65.5563-36.1381 65.5903-36.0362C65.6667-35.7984 65.9385-35.7177 66.3207-35.8196C67.0722-36.0192 67.8238-36.2187 68.5711-36.4268C69.1953-36.5966 69.4628-36.9363 69.6369-37.3015C69.7558-37.5393 69.7898-37.7983 69.8959-38.0403C69.9639-38.1932 70.1082-38.3376 70.1931-38.4904C70.4012-38.8598 70.9659-39.0127 71.45-39.1868C71.8746-39.3312 72.3927-39.3906 72.881-39.4458C73.2631-39.4883 73.6665-39.4713 74.0571-39.4628C74.1675-39.4628 74.3374-39.4034 74.3629-39.3524C74.3883-39.2972 74.2907-39.191 74.1973-39.1613C73.7344-39.0085 73.2546-38.8768 72.7875-38.7367C72.2101-38.5584 71.9595-38.2187 72.0869-37.845C72.1464-37.6667 72.036-37.4671 72.0063-37.2803C71.9978-37.2293 72.0232-37.1741 72.036-37.0934C71.76-36.8132 71.4712-36.482 71.1188-36.1763C70.9345-36.0503 70.7239-35.9675 70.5031-35.9342C70.1974-35.8748 69.518-35.5266 69.569-35.3398C69.6369-35.0893 69.8152-34.8472 70.0063-34.6179C70.0488-34.567 70.3672-34.5712 70.5328-34.601C70.8216-34.6434 71.1061-34.7241 71.3736-34.809C71.7557-34.9279 72.1209-35.068 72.4946-35.1997C72.537-35.2124 72.6135-35.1997 72.6644-35.1869C72.9531-35.1062 73.2249-35.0001 73.5221-34.9449C73.7472-34.9024 73.968-34.775 74.2355-34.8812C74.2525-34.8854 74.3077-34.86 74.3459-34.8515C74.52-34.8005 74.6983-34.7071 74.8724-34.7114C75.3607-34.7283 75.6919-34.5585 76.0146-34.3929C76.3543-34.223 76.5836-33.998 76.5454-33.7093C76.5411-33.6626 76.4902-33.6158 76.4605-33.5734C76.384-33.5946 76.2906-33.6158 76.2354-33.6498C76.0061-33.7899 75.8108-33.9555 75.556-34.0829C75.4287-34.1466 75.2163-34.1594 75.038-34.1806C74.9064-34.1976 74.7663-34.1891 74.6346-34.1806C74.469-34.1806 74.2822-34.1976 74.1463-34.1551C73.7132-34.0277 73.3056-33.8706 72.8852-33.7262L72.7791-33.6923C72.1973-33.5776 71.6114-33.4715 71.0381-33.3483C70.8835-33.3168 70.737-33.2535 70.6082-33.1622C70.4794-33.0706 70.3715-32.9531 70.2908-32.8176C69.6411-31.8834 69.2505-30.9068 69.3906-29.8877C69.4543-29.4461 69.6199-29.0173 69.7388-28.5842C69.7515-28.5247 69.7515-28.4695 69.76-28.4101C69.6199-28.4101 69.4246-28.3676 69.3524-28.4101C69.1008-28.5236 68.8708-28.6804 68.673-28.8729C68.5704-28.9996 68.4501-29.111 68.3163-29.2041C67.8493-29.5268 67.862-29.9174 67.8705-30.3081C67.879-30.737 67.8875-31.1658 67.5393-31.565C67.4119-31.7051 67.4119-31.8834 67.3355-32.0405C67.276-32.1679 67.1869-32.2358 66.9109-32.1764C66.7325-32.1382 66.482-32.1764 66.2909-32.2231C66.0871-32.2741 65.913-32.3675 65.7347-32.4482C65.6752-32.4736 65.6285-32.5161 65.5861-32.5543C65.3271-32.7794 65.085-33.0214 64.792-33.2294C64.7199-33.2846 64.4439-33.2889 64.3122-33.2549C63.9471-33.1488 63.6116-33.0129 63.2634-32.8898C63.2507-32.8855 63.2379-32.8728 63.2252-32.877C62.7666-32.9195 62.5331-32.7157 62.2231-32.5713C61.8919-32.4099 61.4758-32.3165 61.1319-32.1594C60.473-31.8831 59.8959-31.4432 59.4546-30.8813C58.9451-30.2062 58.2827-29.5905 57.4419-29.0342C57.1224-28.8379 56.8273-28.604 56.563-28.3379C56.2785-28.0237 55.9473-27.7179 55.7477-27.3825C55.3868-26.7753 55.2382-26.1596 55.7265-25.5354C56.0832-25.0853 56.4271-24.6225 56.6904-24.1469C56.8772-23.82 56.9409-23.4675 57.0216-23.1236C57.098-22.8179 57.1362-22.5079 57.1702-22.2022C57.2042-21.8795 57.1787-21.5525 57.2381-21.2256C57.2976-20.8859 57.2636-20.5334 57.4929-20.1938C57.7087-19.8502 57.8733-19.4765 57.9812-19.0855C58.0534-18.8392 58.3336-18.6864 58.5247-18.491C58.7922-18.2363 59.0767-17.9815 59.3739-17.7267C59.7434-17.4253 60.1383-17.1323 60.5247-16.8308C60.7964-16.6185 61.0767-16.4147 61.3314-16.1981C61.841-15.765 62.3505-15.3277 62.8261-14.8776C63.3144-14.4147 63.7602-13.9434 64.2273-13.4721L65.1232-12.5677C65.3016-12.3936 65.5054-12.2237 65.6455-12.0369C65.7729-11.867 65.8154-11.6675 65.9427-11.4934C66.0659-11.3235 66.2697-11.1664 66.4056-10.9966C66.5669-10.7843 66.6901-10.5635 66.8302-10.3469C67.1062-9.92655 67.4162-9.51043 67.637-9.08157C67.8111-8.73763 67.8747-8.36821 67.9894-8.01578C68.0488-7.82895 68.1338-7.64212 68.1805-7.45529C68.2994-7.00945 68.3079-6.5636 68.0573-6.12625C68.0276-6.07105 67.9936-6.0116 67.9851-5.9564C67.9427-5.71861 67.7771-5.67191 67.4629-5.80354L67.2675-5.87148L67.2675-5.87148ZM59.565-25.1193C59.8453-25.0641 59.9259-25.0174 60.0024-25.0386C61.2592-25.4462 62.5203-25.8539 63.7772-26.2785C64.3632-26.4738 64.9661-26.6267 65.5266-26.9579C66.3207-27.425 67.0977-28.0024 67.8493-28.6394C67.9936-28.7582 68.104-29.4206 68.0403-29.7306C67.862-30.6138 67.4883-31.4078 67.3822-32.3038C67.2506-33.48 66.9746-33.8536 66.3461-33.2252C64.7326-31.6202 63.0978-30.0746 61.548-28.3251C60.8346-27.5311 60.2911-26.3167 59.565-25.1193L59.565-25.1193ZM68.0573-31.0299C68.138-30.8474 68.189-30.2402 68.6263-29.8198C69.9426-28.5587 71.3778-27.3698 71.692-25.7435C71.743-25.476 72.52-25.2679 72.9616-25.0344C73.157-25.3486 73.5136-25.6586 73.5221-25.977C73.5561-27.5948 73.5094-29.2041 76.3076-29.9387C76.4647-29.9811 76.6218-30.3803 76.5114-30.4907C75.4159-31.548 74.813-32.8048 72.6474-33.3398C70.312-33.9173 68.1338-33.153 68.0573-31.0299L68.0573-31.0299Z"/>
   <path class="monochrome-1 multicolor-1:tintColor hierarchical-1:tertiary SFSymbolsPreviewWireframe" d="M44.3636-80.5865C50.0861-80.5876 55.7528-79.4613 61.04-77.272C66.3271-75.0826 71.1312-71.8729 75.1774-67.8265C79.2239-63.7803 82.4335-58.9764 84.6232-53.6889C86.8124-48.4015 87.9387-42.7349 87.9376-37.0127C87.9376-12.9352 68.432 6.58658 44.3638 6.58658C20.2909 6.58658 0.7645-12.9399 0.7645-37.0127C0.7645-61.0781 20.2877-80.5865 44.3636-80.5865ZM44.3638-78.3365C21.53-78.3365 3.0145-59.8351 3.0145-37.0127C3.0145-14.1825 21.5336 4.33658 44.3638 4.33658C67.1889 4.33658 85.6876-14.1774 85.6876-37.0129C85.6886-42.4398 84.6205-47.8138 82.5443-52.828C80.4678-57.8425 77.4239-62.3983 73.5865-66.2355C69.7491-70.073 65.1932-73.1168 60.1791-75.1931C55.1651-77.2695 49.791-78.3376 44.3638-78.3365Z"/>
  </g>
 </g>
</svg>
