<?xml version="1.0" encoding="UTF-8"?>
<!--Generator: Apple Native CoreSVG 341-->
<!DOCTYPE svg
PUBLIC "-//W3C//DTD SVG 1.1//EN"
       "http://www.w3.org/Graphics/SVG/1.1/DTD/svg11.dtd">
<svg version="1.1" xmlns="http://www.w3.org/2000/svg" xmlns:xlink="http://www.w3.org/1999/xlink" viewBox="0 0 3300 2200">
 <!--glyph: "", point size: 100.0, font version: "20.0d10e1", template writer version: "138.0.0"-->
 <style>.monochrome-0 {-sfsymbols-motion-group:1;-sfsymbols-layer-tags:-22f67803bf358baf}
.monochrome-1 {-sfsymbols-motion-group:0;-sfsymbols-layer-tags:-22f67803bf358baf}

.multicolor-0:tintColor {-sfsymbols-motion-group:1;-sfsymbols-layer-tags:-22f67803bf358baf}
.multicolor-1:tintColor {-sfsymbols-motion-group:0;-sfsymbols-layer-tags:-22f67803bf358baf}

.hierarchical-0:primary {-sfsymbols-motion-group:1;-sfsymbols-layer-tags:-22f67803bf358baf}
.hierarchical-1:tertiary {-sfsymbols-motion-group:0;-sfsymbols-layer-tags:-22f67803bf358baf}

.SFSymbolsPreviewWireframe {fill:none;opacity:1.0;stroke:black;stroke-width:0.5}
</style>
 <g id="Notes">
  <rect height="2200" id="artboard" style="fill:white;opacity:1" width="3300" x="0" y="0"/>
  <line style="fill:none;stroke:black;opacity:1;stroke-width:0.5;" x1="263" x2="3036" y1="292" y2="292"/>
  <text style="stroke:none;fill:black;font-family:sans-serif;font-size:13;font-weight:bold;" transform="matrix(1 0 0 1 263 322)">Weight/Scale Variations</text>
  <text style="stroke:none;fill:black;font-family:sans-serif;font-size:13;text-anchor:middle;" transform="matrix(1 0 0 1 559.711 322)">Ultralight</text>
  <text style="stroke:none;fill:black;font-family:sans-serif;font-size:13;text-anchor:middle;" transform="matrix(1 0 0 1 856.422 322)">Thin</text>
  <text style="stroke:none;fill:black;font-family:sans-serif;font-size:13;text-anchor:middle;" transform="matrix(1 0 0 1 1153.13 322)">Light</text>
  <text style="stroke:none;fill:black;font-family:sans-serif;font-size:13;text-anchor:middle;" transform="matrix(1 0 0 1 1449.84 322)">Regular</text>
  <text style="stroke:none;fill:black;font-family:sans-serif;font-size:13;text-anchor:middle;" transform="matrix(1 0 0 1 1746.56 322)">Medium</text>
  <text style="stroke:none;fill:black;font-family:sans-serif;font-size:13;text-anchor:middle;" transform="matrix(1 0 0 1 2043.27 322)">Semibold</text>
  <text style="stroke:none;fill:black;font-family:sans-serif;font-size:13;text-anchor:middle;" transform="matrix(1 0 0 1 2339.98 322)">Bold</text>
  <text style="stroke:none;fill:black;font-family:sans-serif;font-size:13;text-anchor:middle;" transform="matrix(1 0 0 1 2636.69 322)">Heavy</text>
  <text style="stroke:none;fill:black;font-family:sans-serif;font-size:13;text-anchor:middle;" transform="matrix(1 0 0 1 2933.4 322)">Black</text>
  <line style="fill:none;stroke:black;opacity:1;stroke-width:0.5;" x1="263" x2="3036" y1="1903" y2="1903"/>
  <g transform="matrix(0.2 0 0 0.2 263 1933)">
   <path d="m46.2402 4.15039c21.7773 0 39.4531-17.627 39.4531-39.4043s-17.6758-39.4043-39.4531-39.4043c-21.7285 0-39.4043 17.627-39.4043 39.4043s17.6758 39.4043 39.4043 39.4043Zm0-7.42188c-17.6758 0-31.9336-14.3066-31.9336-31.9824s14.2578-31.9824 31.9336-31.9824 31.9824 14.3066 31.9824 31.9824-14.3066 31.9824-31.9824 31.9824Zm-17.9688-31.9824c0 2.14844 1.51367 3.61328 3.75977 3.61328h10.498v10.5957c0 2.19727 1.46484 3.71094 3.61328 3.71094 2.24609 0 3.71094-1.51367 3.71094-3.71094v-10.5957h10.5957c2.19727 0 3.71094-1.46484 3.71094-3.61328 0-2.19727-1.51367-3.71094-3.71094-3.71094h-10.5957v-10.5469c0-2.24609-1.46484-3.75977-3.71094-3.75977-2.14844 0-3.61328 1.51367-3.61328 3.75977v10.5469h-10.498c-2.24609 0-3.75977 1.51367-3.75977 3.71094Z"/>
  </g>
  <g transform="matrix(0.2 0 0 0.2 281.506 1933)">
   <path d="m58.5449 14.5508c27.4902 0 49.8047-22.3145 49.8047-49.8047s-22.3145-49.8047-49.8047-49.8047-49.8047 22.3145-49.8047 49.8047 22.3145 49.8047 49.8047 49.8047Zm0-8.30078c-22.9492 0-41.5039-18.5547-41.5039-41.5039s18.5547-41.5039 41.5039-41.5039 41.5039 18.5547 41.5039 41.5039-18.5547 41.5039-41.5039 41.5039Zm-22.6562-41.5039c0 2.39258 1.66016 4.00391 4.15039 4.00391h14.3555v14.4043c0 2.44141 1.66016 4.15039 4.05273 4.15039 2.44141 0 4.15039-1.66016 4.15039-4.15039v-14.4043h14.4043c2.44141 0 4.15039-1.61133 4.15039-4.00391 0-2.44141-1.70898-4.15039-4.15039-4.15039h-14.4043v-14.3555c0-2.49023-1.70898-4.19922-4.15039-4.19922-2.39258 0-4.05273 1.70898-4.05273 4.19922v14.3555h-14.3555c-2.49023 0-4.15039 1.70898-4.15039 4.15039Z"/>
  </g>
  <g transform="matrix(0.2 0 0 0.2 304.924 1933)">
   <path d="m74.8535 28.3203c35.1074 0 63.623-28.4668 63.623-63.5742s-28.5156-63.623-63.623-63.623-63.5742 28.5156-63.5742 63.623 28.4668 63.5742 63.5742 63.5742Zm0-9.08203c-30.127 0-54.4922-24.3652-54.4922-54.4922s24.3652-54.4922 54.4922-54.4922 54.4922 24.3652 54.4922 54.4922-24.3652 54.4922-54.4922 54.4922Zm-28.8574-54.4922c0 2.58789 1.85547 4.39453 4.58984 4.39453h19.7266v19.7754c0 2.68555 1.85547 4.58984 4.44336 4.58984 2.68555 0 4.54102-1.85547 4.54102-4.58984v-19.7754h19.7754c2.68555 0 4.58984-1.80664 4.58984-4.39453 0-2.73438-1.85547-4.58984-4.58984-4.58984h-19.7754v-19.7266c0-2.73438-1.85547-4.63867-4.54102-4.63867-2.58789 0-4.44336 1.9043-4.44336 4.63867v19.7266h-19.7266c-2.73438 0-4.58984 1.85547-4.58984 4.58984Z"/>
  </g>
  <text style="stroke:none;fill:black;font-family:sans-serif;font-size:13;font-weight:bold;" transform="matrix(1 0 0 1 263 1953)">Design Variations</text>
  <text style="stroke:none;fill:black;font-family:sans-serif;font-size:13;" transform="matrix(1 0 0 1 263 1971)">Symbols are supported in up to nine weights and three scales.</text>
  <text style="stroke:none;fill:black;font-family:sans-serif;font-size:13;" transform="matrix(1 0 0 1 263 1989)">For optimal layout with text and other symbols, vertically align</text>
  <text style="stroke:none;fill:black;font-family:sans-serif;font-size:13;" transform="matrix(1 0 0 1 263 2007)">symbols with the adjacent text.</text>
  <line style="fill:none;stroke:#00AEEF;stroke-width:0.5;opacity:1.0;" x1="776" x2="776" y1="1919" y2="1933"/>
  <g transform="matrix(0.2 0 0 0.2 776 1933)">
   <path d="m16.5527 0.78125c2.58789 0 3.85742-0.976562 4.78516-3.71094l6.29883-17.2363h28.8086l6.29883 17.2363c0.927734 2.73438 2.19727 3.71094 4.73633 3.71094 2.58789 0 4.24805-1.5625 4.24805-4.00391 0-0.830078-0.146484-1.61133-0.537109-2.63672l-22.9004-60.9863c-1.12305-2.97852-3.125-4.49219-6.25-4.49219-3.02734 0-5.07812 1.46484-6.15234 4.44336l-22.9004 61.084c-0.390625 1.02539-0.537109 1.80664-0.537109 2.63672 0 2.44141 1.5625 3.95508 4.10156 3.95508Zm13.4766-28.3691 11.8652-32.8613h0.244141l11.8652 32.8613Z"/>
  </g>
  <line style="fill:none;stroke:#00AEEF;stroke-width:0.5;opacity:1.0;" x1="792.836" x2="792.836" y1="1919" y2="1933"/>
  <text style="stroke:none;fill:black;font-family:sans-serif;font-size:13;font-weight:bold;" transform="matrix(1 0 0 1 776 1953)">Margins</text>
  <text style="stroke:none;fill:black;font-family:sans-serif;font-size:13;" transform="matrix(1 0 0 1 776 1971)">Leading and trailing margins on the left and right side of each symbol</text>
  <text style="stroke:none;fill:black;font-family:sans-serif;font-size:13;" transform="matrix(1 0 0 1 776 1989)">can be adjusted by modifying the x-location of the margin guidelines.</text>
  <text style="stroke:none;fill:black;font-family:sans-serif;font-size:13;" transform="matrix(1 0 0 1 776 2007)">Modifications are automatically applied proportionally to all</text>
  <text style="stroke:none;fill:black;font-family:sans-serif;font-size:13;" transform="matrix(1 0 0 1 776 2025)">scales and weights.</text>
  <g transform="matrix(0.2 0 0 0.2 1289 1933)">
   <path d="m14.209 9.32617 8.49609 8.54492c4.29688 4.3457 9.22852 4.05273 13.8672-1.07422l53.4668-58.9355-4.83398-4.88281-53.0762 58.3984c-1.75781 2.00195-3.41797 2.49023-5.76172 0.146484l-5.85938-5.81055c-2.34375-2.29492-1.80664-4.00391 0.195312-5.81055l57.373-54.0039-4.88281-4.83398-57.959 54.4434c-4.93164 4.58984-5.32227 9.47266-1.02539 13.8184Zm32.0801-90.9668c-2.09961 2.05078-2.24609 4.93164-1.07422 6.88477 1.17188 1.80664 3.4668 2.97852 6.68945 2.14844 7.32422-1.70898 14.9414-2.00195 22.0703 2.68555l-2.92969 7.27539c-1.70898 4.15039-0.830078 7.08008 1.85547 9.81445l11.4746 11.5723c2.44141 2.44141 4.49219 2.53906 7.32422 2.05078l5.32227-0.976562 3.32031 3.36914-0.195312 2.7832c-0.195312 2.49023 0.439453 4.39453 2.88086 6.78711l3.80859 3.71094c2.39258 2.39258 5.46875 2.53906 7.8125 0.195312l14.5508-14.5996c2.34375-2.34375 2.24609-5.32227-0.146484-7.71484l-3.85742-3.80859c-2.39258-2.39258-4.24805-3.17383-6.64062-2.97852l-2.88086 0.244141-3.22266-3.17383 1.2207-5.61523c0.634766-2.83203-0.146484-5.0293-3.07617-7.95898l-10.9863-10.9375c-16.6992-16.6016-38.8672-16.2109-53.3203-1.75781Zm7.4707 1.85547c12.1582-8.88672 28.6133-7.37305 39.7461 3.75977l12.1582 12.0605c1.17188 1.17188 1.36719 2.09961 1.02539 3.80859l-1.61133 7.42188 7.51953 7.42188 4.93164-0.292969c1.26953-0.0488281 1.66016 0.0488281 2.63672 1.02539l2.88086 2.88086-12.207 12.207-2.88086-2.88086c-0.976562-0.976562-1.12305-1.36719-1.07422-2.68555l0.341797-4.88281-7.4707-7.42188-7.61719 1.26953c-1.61133 0.341797-2.34375 0.195312-3.56445-0.976562l-10.0098-10.0098c-1.26953-1.17188-1.41602-2.00195-0.634766-3.85742l4.39453-10.4492c-7.8125-7.27539-17.9688-10.4004-28.125-7.42188-0.78125 0.195312-1.07422-0.439453-0.439453-0.976562Z"/>
  </g>
  <text style="stroke:none;fill:black;font-family:sans-serif;font-size:13;font-weight:bold;" transform="matrix(1 0 0 1 1289 1953)">Exporting</text>
  <text style="stroke:none;fill:black;font-family:sans-serif;font-size:13;" transform="matrix(1 0 0 1 1289 1971)">Symbols should be outlined when exporting to ensure the</text>
  <text style="stroke:none;fill:black;font-family:sans-serif;font-size:13;" transform="matrix(1 0 0 1 1289 1989)">design is preserved when submitting to Xcode.</text>
  <text id="template-version" style="stroke:none;fill:black;font-family:sans-serif;font-size:13;text-anchor:end;" transform="matrix(1 0 0 1 3036 1933)">Template v.6.0</text>
  <text style="stroke:none;fill:black;font-family:sans-serif;font-size:13;text-anchor:end;" transform="matrix(1 0 0 1 3036 1951)">Requires Xcode 16 or greater</text>
  <text id="descriptive-name" style="stroke:none;fill:black;font-family:sans-serif;font-size:13;text-anchor:end;" transform="matrix(1 0 0 1 3036 1969)">Generated from filternahrung-4</text>
  <text style="stroke:none;fill:black;font-family:sans-serif;font-size:13;text-anchor:end;" transform="matrix(1 0 0 1 3036 1987)">Typeset at 100.0 points</text>
  <text style="stroke:none;fill:black;font-family:sans-serif;font-size:13;" transform="matrix(1 0 0 1 263 726)">Small</text>
  <text style="stroke:none;fill:black;font-family:sans-serif;font-size:13;" transform="matrix(1 0 0 1 263 1156)">Medium</text>
  <text style="stroke:none;fill:black;font-family:sans-serif;font-size:13;" transform="matrix(1 0 0 1 263 1586)">Large</text>
 </g>
 <g id="Guides">
  <g id="H-reference" style="fill:#27AAE1;stroke:none;" transform="matrix(1 0 0 1 339 696)">
   <path d="M0.993654 0L3.63775 0L29.3281-67.1323L30.0303-67.1323L30.0303-70.459L28.1226-70.459ZM11.6885-24.4799L46.9815-24.4799L46.2315-26.7285L12.4385-26.7285ZM55.1196 0L57.7637 0L30.6382-70.459L29.4326-70.459L29.4326-67.1323Z"/>
  </g>
  <line id="Baseline-S" style="fill:none;stroke:#27AAE1;opacity:1;stroke-width:0.5;" x1="263" x2="3036" y1="696" y2="696"/>
  <line id="Capline-S" style="fill:none;stroke:#27AAE1;opacity:1;stroke-width:0.5;" x1="263" x2="3036" y1="625.541" y2="625.541"/>
  <g id="H-reference" style="fill:#27AAE1;stroke:none;" transform="matrix(1 0 0 1 339 1126)">
   <path d="M0.993654 0L3.63775 0L29.3281-67.1323L30.0303-67.1323L30.0303-70.459L28.1226-70.459ZM11.6885-24.4799L46.9815-24.4799L46.2315-26.7285L12.4385-26.7285ZM55.1196 0L57.7637 0L30.6382-70.459L29.4326-70.459L29.4326-67.1323Z"/>
  </g>
  <line id="Baseline-M" style="fill:none;stroke:#27AAE1;opacity:1;stroke-width:0.5;" x1="263" x2="3036" y1="1126" y2="1126"/>
  <line id="Capline-M" style="fill:none;stroke:#27AAE1;opacity:1;stroke-width:0.5;" x1="263" x2="3036" y1="1055.54" y2="1055.54"/>
  <g id="H-reference" style="fill:#27AAE1;stroke:none;" transform="matrix(1 0 0 1 339 1556)">
   <path d="M0.993654 0L3.63775 0L29.3281-67.1323L30.0303-67.1323L30.0303-70.459L28.1226-70.459ZM11.6885-24.4799L46.9815-24.4799L46.2315-26.7285L12.4385-26.7285ZM55.1196 0L57.7637 0L30.6382-70.459L29.4326-70.459L29.4326-67.1323Z"/>
  </g>
  <line id="Baseline-L" style="fill:none;stroke:#27AAE1;opacity:1;stroke-width:0.5;" x1="263" x2="3036" y1="1556" y2="1556"/>
  <line id="Capline-L" style="fill:none;stroke:#27AAE1;opacity:1;stroke-width:0.5;" x1="263" x2="3036" y1="1485.54" y2="1485.54"/>
  <line id="right-margin-Black-S" style="fill:none;stroke:#00AEEF;stroke-width:0.5;opacity:1.0;" x1="2982.23" x2="2982.23" y1="600.785" y2="720.121"/>
  <line id="left-margin-Black-S" style="fill:none;stroke:#00AEEF;stroke-width:0.5;opacity:1.0;" x1="2884.57" x2="2884.57" y1="600.785" y2="720.121"/>
  <line id="right-margin-Regular-S" style="fill:none;stroke:#00AEEF;stroke-width:0.5;opacity:1.0;" x1="1496.11" x2="1496.11" y1="600.785" y2="720.121"/>
  <line id="left-margin-Regular-S" style="fill:none;stroke:#00AEEF;stroke-width:0.5;opacity:1.0;" x1="1403.58" x2="1403.58" y1="600.785" y2="720.121"/>
  <line id="right-margin-Ultralight-S" style="fill:none;stroke:#00AEEF;stroke-width:0.5;opacity:1.0;" x1="603.773" x2="603.773" y1="600.785" y2="720.121"/>
  <line id="left-margin-Ultralight-S" style="fill:none;stroke:#00AEEF;stroke-width:0.5;opacity:1.0;" x1="515.649" x2="515.649" y1="600.785" y2="720.121"/>
 </g>
 <g id="Symbols">
  <g id="Black-S" transform="matrix(1 0 0 1 2884.57 696)">
   <path class="monochrome-0 multicolor-0:tintColor hierarchical-0:primary SFSymbolsPreviewWireframe" d="M65.6378-59C67.1871-59 68.443-57.7486 68.443-56.2049L68.443-55.2798L68.4929-55.3078C69.6297-55.9022 71.0526-55.6509 71.9115-54.6638L72.0159-54.5366C72.9614-53.3137 72.7329-51.5586 71.5056-50.6165L69.2376-48.8762C69.5153-44.6946 67.9633-41.5137 64.9778-39.7817L64.7721-39.6659C63.332-38.8794 61.642-38.4981 60.0217-38.5017L59.8321-38.5049L59.8303-38.4888C59.5366-36.6517 59.0343-34.9252 58.3441-33.3943L58.2786-33.2533L58.5503-33.2298C58.7742-33.2088 58.9908-33.1843 59.1993-33.1561L59.5059-33.1111C60.5535-32.9445 61.4332-32.6766 62.1777-32.2281C63.4161-31.482 64.2085-30.2425 64.1119-28.7159C63.9816-26.6553 62.3871-25.0123 59.3163-23.0094C58.6952-22.6042 58.1668-22.2281 57.7304-21.8845L57.676-21.8417L57.8218-21.8254C59.0162-21.7025 60.5463-21.6995 62.0765-21.8205L62.2059-21.8318L62.2386-21.8614C62.3162-21.9294 62.3984-21.9938 62.4849-22.054L62.6179-22.1413C62.6633-22.1693 62.7092-22.1959 62.7556-22.221L62.8717-22.2798L64.7961-25.3767C65.5834-26.644 67.2223-27.0657 68.52-26.3619L68.6577-26.2822C69.975-25.4697 70.3819-23.747 69.5665-22.4344L69.6382-22.5598L70.6248-22.5598C72.1224-22.5598 73.3459-21.3904 73.4258-19.918L73.43-19.7646C73.43-18.2209 72.1741-16.9695 70.6248-16.9695L69.1295-16.9695L69.5665-16.2667C70.3538-14.9993 70.0016-13.3497 68.7907-12.5061L68.6577-12.4189C67.3404-11.6064 65.6115-12.0118 64.7961-13.3244L62.9573-16.2838L62.7817-16.2667C59.6125-15.9831 56.3917-16.1398 54.2916-16.8843L54.035-16.9804C51.6816-17.9122 50.2708-19.9297 51.1379-22.4658C51.7374-24.219 53.4091-25.8377 56.2434-27.6866L56.3179-27.7368L56.2194-27.7367C55.2797-27.7355 54.2251-27.6873 53.1291-27.6009L53.0714-27.596L52.9509-27.5421C52.0634-27.1599 51.1051-26.9405 50.0827-26.9111L49.8456-26.9078C48.8132-26.9078 47.8446-27.0999 46.9463-27.4568L46.8392-27.5016L46.8294-27.5018C45.3309-27.6499 43.8538-27.7351 42.5783-27.7365L42.3302-27.7359L42.4055-27.6865C45.1253-25.9124 46.7794-24.3547 47.4555-22.6995L47.5265-22.5152C48.4405-19.9975 47.0784-17.9386 44.7425-16.9897C42.6851-16.1539 39.3727-15.9704 36.0782-16.2663L35.9011-16.2838L34.0638-13.3243C33.2764-12.057 31.6375-11.6354 30.3398-12.3392L30.2021-12.4189C28.8848-13.2314 28.478-14.9542 29.2935-16.2667L29.7296-16.9695L28.2352-16.9695C26.7376-16.9695 25.5141-18.1389 25.4342-19.6113L25.43-19.7646C25.43-21.3083 26.6859-22.5598 28.2352-22.5598L29.2201-22.5598L29.2134-22.5715C28.5324-23.8185 28.9014-25.3814 30.0691-26.1949L30.2021-26.2822C31.5194-27.0947 33.2483-26.6894 34.0638-25.3768L35.9867-22.2807L36.1046-22.221L36.2423-22.1412C36.3786-22.0572 36.5051-21.9634 36.6216-21.8613L36.6533-21.8318L36.774-21.821C38.2907-21.7003 39.7964-21.7027 40.9627-21.8231L40.9936-21.8268L40.9271-21.8801C40.5498-22.1761 40.1055-22.4958 39.594-22.8369L39.3326-23.0093C36.2421-25.0252 34.6468-26.6858 34.5664-28.7851C34.5079-30.3098 35.3255-31.5201 36.5706-32.2474C37.3193-32.6848 38.2039-32.9481 39.2566-33.1124C39.8662-33.2076 40.5536-33.2692 41.2973-33.3012L41.3884-33.3047L41.347-33.3943C40.6568-34.9252 40.1546-36.6517 39.8608-38.4888L39.8508-38.5562L39.688-38.5395C37.9157-38.3843 35.9858-38.7055 34.3447-39.5313L34.088-39.6659C30.9683-41.3696 29.3384-44.5996 29.6222-48.871L29.6216-48.8762L27.3544-50.6165C26.1709-51.525 25.9162-53.1894 26.7473-54.4036L26.8441-54.5366C27.6883-55.6285 29.1829-55.9269 30.3671-55.3078L30.417-55.2798L30.417-56.2049C30.417-57.6971 31.5906-58.9162 33.0683-58.9959L33.2222-59C34.7715-59 36.0274-57.7486 36.0274-56.2049L36.0274-55.2798L36.0773-55.3078C37.2141-55.9022 38.637-55.6509 39.4959-54.6638L39.6003-54.5366C40.5458-53.3137 40.3173-51.5586 39.09-50.6165L35.1863-47.6207L35.1897-47.5141C35.2575-46.0531 35.7976-45.1598 36.6644-44.6371L36.7846-44.5681C37.3507-44.2589 38.0639-44.0926 38.7885-44.0926C39.0625-44.0926 39.3181-44.1173 39.5344-44.1553L39.6363-44.1755L39.6466-44.2978C40.227-50.719 43.6632-55.5496 49.59-55.6844L49.8456-55.6873C55.9292-55.6873 59.4559-50.8107 60.0446-44.2978L60.0615-44.0935L60.0716-44.0926C60.7157-44.0926 61.3508-44.224 61.8815-44.4703L62.0755-44.5681C63.0124-45.0798 63.5995-45.9866 63.6704-47.5141L63.6729-47.6207L59.77-50.6165C58.5865-51.525 58.3318-53.1894 59.1629-54.4036L59.2597-54.5366C60.1039-55.6285 61.5985-55.9269 62.7827-55.3078L62.8326-55.2798L62.8326-56.2049C62.8326-57.6971 64.0062-58.9162 65.4839-58.9959L65.6378-59ZM49.93-50C47.0348-50 45.2104-46.6411 45.4513-41.4674C45.6373-37.4719 47.0499-34.2637 48.6665-33.1225L48.6874-33.1084L49.0495-33.063C49.1919-33.0448 49.334-33.0261 49.4759-33.0069L49.5302-33L49.5859-33.0072C50.1534-33.0842 50.7244-33.1535 51.2931-33.2139L51.3197-33.2169L51.4176-33.295C52.9017-34.5329 54.1682-37.5079 54.3938-41.19L54.4087-41.4674C54.6496-46.6411 52.8252-50 49.93-50Z"/>
   <path class="monochrome-1 multicolor-1:tintColor hierarchical-1:tertiary SFSymbolsPreviewWireframe" d="M48.9411-84C55.3091-84.0013 61.615-82.7479 67.4985-80.3116C73.382-77.8752 78.7279-74.3036 83.2305-69.8009C87.7334-65.2983 91.305-59.9524 93.7418-54.0682C96.1779-48.1846 97.4312-41.8789 97.43-35.5124C97.43-8.72255 75.7254 13 48.9424 13C22.156 13 0.43-8.726 0.43-35.5124C0.43-62.2926 22.1539-84 48.9411-84ZM48.9424-70C29.8835-70 14.43-54.5582 14.43-35.5124C14.43-16.458 29.888-0.999999 48.9424-0.999999C67.9909-0.999999 83.43-16.4519 83.43-35.5138C83.4309-40.0428 82.5395-44.5276 80.8069-48.7121C79.0739-52.8969 76.5337-56.6989 73.3311-59.9013C70.1287-63.1038 66.3266-65.644 62.1422-67.3767C57.9578-69.1095 53.4729-70.0009 48.9424-70Z"/>
  </g>
  <g id="Regular-S" transform="matrix(1 0 0 1 1403.58 696)">
   <path class="monochrome-0 multicolor-0:tintColor hierarchical-0:primary SFSymbolsPreviewWireframe" d="M66.42-64.375C68.284-64.375 69.795-62.8639 69.795-61L69.795-59.883L69.8551-59.9168C71.2228-60.6345 72.9347-60.331 73.9681-59.1392L74.0937-58.9856C75.2312-57.509 74.9563-55.3898 73.4797-54.2523L70.751-52.151C71.0852-47.1018 69.2179-43.261 65.626-41.1697L65.3785-41.0298C63.6459-40.0802 61.6126-39.6198 59.6632-39.6241L59.435-39.628L59.433-39.6086C59.0795-37.3904 58.4753-35.3057 57.6449-33.4572L57.566-33.287L57.8929-33.2586C58.1623-33.2332 58.4229-33.2036 58.6738-33.1696L59.0426-33.1153C60.303-32.914 61.3614-32.5906 62.2571-32.049C63.747-31.1482 64.7005-29.6515 64.5842-27.8082C64.4274-25.3201 62.509-23.3363 58.8145-20.9178C58.0672-20.4286 57.4314-19.9745 56.9064-19.5596L56.841-19.508L57.0164-19.4883C58.4535-19.3398 60.2944-19.3363 62.1354-19.4823L62.291-19.496L62.3304-19.5317C62.4238-19.6138 62.5226-19.6916 62.6267-19.7643L62.7867-19.8697C62.8413-19.9035 62.8966-19.9356 62.9523-19.9659L63.092-20.037L65.4073-23.7763C66.3546-25.3066 68.3263-25.8157 69.8877-24.9659L70.0534-24.8697C71.6383-23.8886 72.1278-21.8085 71.1467-20.2236L71.233-20.375L72.42-20.375C74.2219-20.375 75.6939-18.963 75.79-17.1851L75.795-17C75.795-15.136 74.284-13.625 72.42-13.625L70.621-13.625L71.1467-12.7763C72.094-11.2461 71.6703-9.25417 70.2134-8.2356L70.0534-8.13025C68.4685-7.1492 66.3884-7.63872 65.4073-9.22361L63.195-12.797L62.9838-12.7763C59.1709-12.4339 55.2958-12.6232 52.7692-13.522L52.4605-13.6381C49.6289-14.7632 47.9316-17.1992 48.9749-20.2615C49.6961-22.3784 51.7074-24.3329 55.1175-26.5653L55.207-26.626L55.0886-26.6259C53.9579-26.6244 52.6892-26.5663 51.3705-26.4619L51.301-26.456L51.1561-26.391C50.0884-25.9295 48.9354-25.6646 47.7053-25.6291L47.42-25.625C46.178-25.625 45.0126-25.8569 43.9318-26.288L43.803-26.342L43.7912-26.3423C41.9884-26.521 40.2111-26.6239 38.6766-26.6257L38.378-26.625L38.4686-26.5653C41.7409-24.4231 43.7311-22.5423 44.5444-20.5437L44.6299-20.3211C45.7296-17.2811 44.0908-14.7951 41.2804-13.6493C38.8051-12.6402 34.8198-12.4186 30.8561-12.7759L30.643-12.797L28.4325-9.22351C27.4853-7.6933 25.5135-7.18427 23.9521-8.03405L23.7865-8.13031C22.2016-9.11142 21.7121-11.1915 22.6933-12.7764L23.218-13.625L21.42-13.625C19.6182-13.625 18.1462-15.0369 18.05-16.8148L18.045-17C18.045-18.8639 19.5561-20.375 21.42-20.375L22.605-20.375L22.597-20.3892C21.7776-21.8948 22.2216-23.782 23.6264-24.7643L23.7865-24.8696C25.3713-25.8507 27.4514-25.3613 28.4325-23.7764L30.746-20.038L30.888-19.9659L31.0536-19.8696C31.2176-19.7681 31.3698-19.6549 31.5099-19.5316L31.548-19.496L31.6933-19.483C33.5181-19.3372 35.3296-19.34 36.7328-19.4854L36.77-19.49L36.6899-19.5543C36.236-19.9117 35.7016-20.2977 35.0861-20.7096L34.7716-20.9178C31.0533-23.3518 29.134-25.3569 29.0372-27.8918C28.9669-29.7327 29.9506-31.1942 31.4485-32.0724C32.3493-32.6005 33.4137-32.9184 34.6801-33.1168C35.4135-33.2317 36.2406-33.3062 37.1353-33.3448L37.245-33.349L37.1952-33.4572C36.3648-35.3057 35.7605-37.3904 35.4071-39.6086L35.395-39.69L35.1991-39.6697C33.0669-39.4824 30.745-39.8702 28.7705-40.8673L28.4617-41.0298C24.7083-43.0871 22.7474-46.9871 23.0888-52.1447L23.088-52.151L20.3603-54.2523C18.9365-55.3492 18.63-57.3589 19.6299-58.825L19.7464-58.9856C20.7621-60.304 22.5603-60.6644 23.985-59.9168L24.045-59.883L24.045-61C24.045-62.8018 25.457-64.2738 27.2349-64.37L27.42-64.375C29.284-64.375 30.795-62.8639 30.795-61L30.795-59.883L30.8551-59.9168C32.2228-60.6345 33.9347-60.331 34.9681-59.1392L35.0937-58.9856C36.2312-57.509 35.9563-55.3898 34.4797-54.2523L29.783-50.635L29.7871-50.5063C29.8687-48.7421 30.5185-47.6635 31.5614-47.0323L31.706-46.949C32.3871-46.5757 33.2452-46.375 34.117-46.375C34.4466-46.375 34.7542-46.4047 35.0144-46.4506L35.137-46.475L35.1493-46.6227C35.8477-54.376 39.9819-60.2087 47.1126-60.3715L47.42-60.375C54.7393-60.375 58.9824-54.4867 59.6907-46.6227L59.711-46.376L59.7232-46.375C60.4981-46.375 61.2622-46.5336 61.9008-46.831L62.1342-46.949C63.2614-47.5669 63.9677-48.6619 64.053-50.5062L64.056-50.635L59.3603-54.2523C57.9365-55.3492 57.63-57.3589 58.6299-58.825L58.7464-58.9856C59.7621-60.304 61.5603-60.6644 62.985-59.9168L63.045-59.883L63.045-61C63.045-62.8018 64.457-64.2738 66.2349-64.37L66.42-64.375ZM47.42-53.625C43.7992-53.625 41.5175-49.5054 41.8188-43.16C42.0514-38.2596 43.8181-34.3249 45.8398-32.9252L45.866-32.908L46.3188-32.8523C46.4969-32.8299 46.6747-32.807 46.8521-32.7834L46.92-32.775L46.9897-32.7839C47.6995-32.8782 48.4136-32.9632 49.1248-33.0374L49.158-33.041L49.2805-33.1368C51.1365-34.655 52.7204-38.3038 53.0026-42.8197L53.0213-43.16C53.3226-49.5054 51.0409-53.625 47.42-53.625Z"/>
   <path class="monochrome-1 multicolor-1:tintColor hierarchical-1:tertiary SFSymbolsPreviewWireframe" d="M46.4321-81.8365C52.4502-81.8377 58.4096-80.6532 63.9698-78.3508C69.53-76.0483 74.5822-72.6729 78.8374-68.4176C83.0928-64.1624 86.4682-59.1103 88.771-53.5496C91.0733-47.9892 92.2577-42.03 92.2566-36.0127C92.2566-10.693 71.744 9.83658 46.4328 9.83658C21.1173 9.83658 0.5835-10.6972 0.5835-36.0127C0.5835-61.3211 21.1145-81.8365 46.4321-81.8365ZM46.4328-75.0865C24.8413-75.0865 7.3335-57.592 7.3335-36.0127C7.3335-14.4252 24.8452 3.08658 46.4328 3.08658C68.0148 3.08658 85.5066-14.4197 85.5066-36.0133C85.5076-41.1447 84.4976-46.226 82.5345-50.9672C80.571-55.7085 77.693-60.0162 74.0644-63.6446C70.4361-67.273 66.1283-70.1511 61.3873-72.1143C56.6463-74.0776 51.5649-75.0875 46.4328-75.0865Z"/>
  </g>
  <g id="Ultralight-S" transform="matrix(1 0 0 1 515.649 696)">
   <path class="monochrome-0 multicolor-0:tintColor hierarchical-0:primary SFSymbolsPreviewWireframe" d="M63.726-65C65.59-65 67.101-63.4889 67.101-61.625L67.101-60.508L67.1611-60.5418C68.5288-61.2595 70.2407-60.956 71.2741-59.7642L71.3997-59.6106C72.5372-58.134 72.2623-56.0148 70.7857-54.8773L68.057-52.776C68.3912-47.7268 66.5239-43.886 62.932-41.7947L62.6845-41.6548C60.9519-40.7052 58.9186-40.2448 56.9692-40.2491L56.741-40.253L56.739-40.2336C56.3855-38.0154 55.7813-35.9307 54.9509-34.0822L54.872-33.912L55.1989-33.8836C55.4683-33.8582 55.7289-33.8286 55.9798-33.7946L56.3486-33.7403C57.609-33.539 58.6674-33.2156 59.5631-32.674C61.053-31.7732 62.0065-30.2765 61.8902-28.4332C61.7334-25.9451 59.815-23.9613 56.1205-21.5428C55.3732-21.0536 54.7374-20.5995 54.2124-20.1846L54.147-20.133L54.3224-20.1133C55.7595-19.9648 57.6004-19.9613 59.4414-20.1073L59.597-20.121L59.6364-20.1567C59.7298-20.2388 59.8286-20.3166 59.9327-20.3893L60.0927-20.4947C60.1473-20.5285 60.2026-20.5606 60.2583-20.5909L60.398-20.662L62.7133-24.4013C63.6606-25.9316 65.6323-26.4407 67.1937-25.5909L67.3594-25.4947C68.9443-24.5136 69.4338-22.4335 68.4527-20.8486L68.539-21L69.726-21C71.5279-21 72.9999-19.588 73.096-17.8101L73.101-17.625C73.101-15.761 71.59-14.25 69.726-14.25L67.927-14.25L68.4527-13.4013C69.4-11.8711 68.9763-9.87917 67.5194-8.8606L67.3594-8.75525C65.7745-7.7742 63.6944-8.26372 62.7133-9.84861L60.501-13.422L60.2898-13.4013C56.4769-13.0589 52.6018-13.2482 50.0752-14.147L49.7665-14.2631C46.9349-15.3882 45.2376-17.8242 46.2809-20.8865C47.0021-23.0034 49.0134-24.9579 52.4235-27.1903L52.513-27.251L52.3946-27.2509C51.2639-27.2494 49.9952-27.1913 48.6765-27.0869L48.607-27.081L48.4621-27.016C47.3944-26.5545 46.2414-26.2896 45.0113-26.2541L44.726-26.25C43.484-26.25 42.3186-26.4819 41.2378-26.913L41.109-26.967L41.0972-26.9673C39.2944-27.146 37.5171-27.2489 35.9826-27.2507L35.684-27.25L35.7746-27.1903C39.0469-25.0481 41.0371-23.1673 41.8504-21.1687L41.9359-20.9461C43.0356-17.9061 41.3968-15.4201 38.5864-14.2743C36.1111-13.2652 32.1258-13.0436 28.1621-13.4009L27.949-13.422L25.7385-9.84851C24.7913-8.3183 22.8195-7.80927 21.2581-8.65905L21.0925-8.75531C19.5076-9.73642 19.0181-11.8165 19.9993-13.4014L20.524-14.25L18.726-14.25C16.9242-14.25 15.4522-15.6619 15.356-17.4398L15.351-17.625C15.351-19.4889 16.8621-21 18.726-21L19.911-21L19.903-21.0142C19.0836-22.5198 19.5276-24.407 20.9324-25.3893L21.0925-25.4946C22.6773-26.4757 24.7574-25.9863 25.7385-24.4014L28.052-20.663L28.194-20.5909L28.3596-20.4946C28.5236-20.3931 28.6758-20.2799 28.8159-20.1566L28.854-20.121L28.9993-20.108C30.8241-19.9622 32.6356-19.965 34.0388-20.1104L34.076-20.115L33.9959-20.1793C33.542-20.5367 33.0076-20.9227 32.3921-21.3346L32.0776-21.5428C28.3593-23.9768 26.44-25.9819 26.3432-28.5168C26.2729-30.3577 27.2566-31.8192 28.7545-32.6974C29.6553-33.2255 30.7197-33.5434 31.9861-33.7418C32.7195-33.8567 33.5466-33.9312 34.4413-33.9698L34.551-33.974L34.5012-34.0822C33.6708-35.9307 33.0665-38.0154 32.7131-40.2336L32.701-40.315L32.5051-40.2947C30.3729-40.1074 28.051-40.4952 26.0765-41.4923L25.7677-41.6548C22.0143-43.7121 20.0534-47.6121 20.3948-52.7697L20.394-52.776L17.6663-54.8773C16.2425-55.9742 15.936-57.9839 16.9359-59.45L17.0524-59.6106C18.0681-60.929 19.8663-61.2894 21.291-60.5418L21.351-60.508L21.351-61.625C21.351-63.4268 22.763-64.8988 24.5409-64.995L24.726-65C26.59-65 28.101-63.4889 28.101-61.625L28.101-60.508L28.1611-60.5418C29.5288-61.2595 31.2407-60.956 32.2741-59.7642L32.3997-59.6106C33.5372-58.134 33.2623-56.0148 31.7857-54.8773L27.089-51.26L27.0931-51.1313C27.1747-49.3671 27.8245-48.2885 28.8674-47.6573L29.012-47.574C29.6931-47.2007 30.5512-47 31.423-47C31.7526-47 32.0602-47.0297 32.3204-47.0756L32.443-47.1L32.4553-47.2477C33.1537-55.001 37.2879-60.8337 44.4186-60.9965L44.726-61C52.0453-61 56.2884-55.1117 56.9967-47.2477L57.017-47.001L57.0292-47C57.8041-47 58.5682-47.1586 59.2068-47.456L59.4402-47.574C60.5674-48.1919 61.2737-49.2869 61.359-51.1312L61.362-51.26L56.6663-54.8773C55.2425-55.9742 54.936-57.9839 55.9359-59.45L56.0524-59.6106C57.0681-60.929 58.8663-61.2894 60.291-60.5418L60.351-60.508L60.351-61.625C60.351-63.4268 61.763-64.8988 63.5409-64.995L63.726-65ZM44.726-54.25C41.1052-54.25 38.8235-50.1304 39.1248-43.785C39.3574-38.8846 41.1241-34.9499 43.1458-33.5502L43.172-33.533L43.6248-33.4773C43.8029-33.4549 43.9807-33.432 44.1581-33.4084L44.226-33.4L44.2957-33.4089C45.0054-33.5032 45.7196-33.5882 46.4308-33.6624L46.464-33.666L46.5865-33.7618C48.4425-35.28 50.0264-38.9288 50.3086-43.4447L50.3273-43.785C50.6286-50.1304 48.3469-54.25 44.726-54.25Z"/>
   <path class="monochrome-1 multicolor-1:tintColor hierarchical-1:tertiary SFSymbolsPreviewWireframe" d="M44.3636-80.5865C50.0861-80.5876 55.7528-79.4613 61.04-77.272C66.3271-75.0826 71.1312-71.8729 75.1774-67.8265C79.2239-63.7803 82.4335-58.9764 84.6232-53.6889C86.8124-48.4015 87.9387-42.7349 87.9376-37.0127C87.9376-12.9352 68.432 6.58658 44.3638 6.58658C20.2909 6.58658 0.7645-12.9399 0.7645-37.0127C0.7645-61.0781 20.2877-80.5865 44.3636-80.5865ZM44.3638-78.3365C21.53-78.3365 3.0145-59.8351 3.0145-37.0127C3.0145-14.1825 21.5336 4.33658 44.3638 4.33658C67.1889 4.33658 85.6876-14.1774 85.6876-37.0129C85.6886-42.4398 84.6205-47.8138 82.5443-52.828C80.4678-57.8425 77.4239-62.3983 73.5865-66.2355C69.7491-70.073 65.1932-73.1168 60.1791-75.1931C55.1651-77.2695 49.791-78.3376 44.3638-78.3365Z"/>
  </g>
 </g>
</svg>
