<?xml version="1.0" encoding="UTF-8"?>
<!--Generator: Apple Native CoreSVG 341-->
<!DOCTYPE svg
PUBLIC "-//W3C//DTD SVG 1.1//EN"
       "http://www.w3.org/Graphics/SVG/1.1/DTD/svg11.dtd">
<svg version="1.1" xmlns="http://www.w3.org/2000/svg" xmlns:xlink="http://www.w3.org/1999/xlink" viewBox="0 0 3300 2200">
 <!--glyph: "", point size: 100.0, font version: "20.0d10e1", template writer version: "138.0.0"-->
 <style>.monochrome-0 {-sfsymbols-motion-group:1;-sfsymbols-layer-tags:65eba93b12e625f3}
.monochrome-1 {-sfsymbols-motion-group:0;-sfsymbols-layer-tags:65eba93b12e625f3}

.multicolor-0:tintColor {-sfsymbols-motion-group:1;-sfsymbols-layer-tags:65eba93b12e625f3}
.multicolor-1:tintColor {-sfsymbols-motion-group:0;-sfsymbols-layer-tags:65eba93b12e625f3}

.hierarchical-0:primary {-sfsymbols-motion-group:1;-sfsymbols-layer-tags:65eba93b12e625f3}
.hierarchical-1:tertiary {-sfsymbols-motion-group:0;-sfsymbols-layer-tags:65eba93b12e625f3}

.SFSymbolsPreviewWireframe {fill:none;opacity:1.0;stroke:black;stroke-width:0.5}
</style>
 <g id="Notes">
  <rect height="2200" id="artboard" style="fill:white;opacity:1" width="3300" x="0" y="0"/>
  <line style="fill:none;stroke:black;opacity:1;stroke-width:0.5;" x1="263" x2="3036" y1="292" y2="292"/>
  <text style="stroke:none;fill:black;font-family:sans-serif;font-size:13;font-weight:bold;" transform="matrix(1 0 0 1 263 322)">Weight/Scale Variations</text>
  <text style="stroke:none;fill:black;font-family:sans-serif;font-size:13;text-anchor:middle;" transform="matrix(1 0 0 1 559.711 322)">Ultralight</text>
  <text style="stroke:none;fill:black;font-family:sans-serif;font-size:13;text-anchor:middle;" transform="matrix(1 0 0 1 856.422 322)">Thin</text>
  <text style="stroke:none;fill:black;font-family:sans-serif;font-size:13;text-anchor:middle;" transform="matrix(1 0 0 1 1153.13 322)">Light</text>
  <text style="stroke:none;fill:black;font-family:sans-serif;font-size:13;text-anchor:middle;" transform="matrix(1 0 0 1 1449.84 322)">Regular</text>
  <text style="stroke:none;fill:black;font-family:sans-serif;font-size:13;text-anchor:middle;" transform="matrix(1 0 0 1 1746.56 322)">Medium</text>
  <text style="stroke:none;fill:black;font-family:sans-serif;font-size:13;text-anchor:middle;" transform="matrix(1 0 0 1 2043.27 322)">Semibold</text>
  <text style="stroke:none;fill:black;font-family:sans-serif;font-size:13;text-anchor:middle;" transform="matrix(1 0 0 1 2339.98 322)">Bold</text>
  <text style="stroke:none;fill:black;font-family:sans-serif;font-size:13;text-anchor:middle;" transform="matrix(1 0 0 1 2636.69 322)">Heavy</text>
  <text style="stroke:none;fill:black;font-family:sans-serif;font-size:13;text-anchor:middle;" transform="matrix(1 0 0 1 2933.4 322)">Black</text>
  <line style="fill:none;stroke:black;opacity:1;stroke-width:0.5;" x1="263" x2="3036" y1="1903" y2="1903"/>
  <g transform="matrix(0.2 0 0 0.2 263 1933)">
   <path d="m46.2402 4.15039c21.7773 0 39.4531-17.627 39.4531-39.4043s-17.6758-39.4043-39.4531-39.4043c-21.7285 0-39.4043 17.627-39.4043 39.4043s17.6758 39.4043 39.4043 39.4043Zm0-7.42188c-17.6758 0-31.9336-14.3066-31.9336-31.9824s14.2578-31.9824 31.9336-31.9824 31.9824 14.3066 31.9824 31.9824-14.3066 31.9824-31.9824 31.9824Zm-17.9688-31.9824c0 2.14844 1.51367 3.61328 3.75977 3.61328h10.498v10.5957c0 2.19727 1.46484 3.71094 3.61328 3.71094 2.24609 0 3.71094-1.51367 3.71094-3.71094v-10.5957h10.5957c2.19727 0 3.71094-1.46484 3.71094-3.61328 0-2.19727-1.51367-3.71094-3.71094-3.71094h-10.5957v-10.5469c0-2.24609-1.46484-3.75977-3.71094-3.75977-2.14844 0-3.61328 1.51367-3.61328 3.75977v10.5469h-10.498c-2.24609 0-3.75977 1.51367-3.75977 3.71094Z"/>
  </g>
  <g transform="matrix(0.2 0 0 0.2 281.506 1933)">
   <path d="m58.5449 14.5508c27.4902 0 49.8047-22.3145 49.8047-49.8047s-22.3145-49.8047-49.8047-49.8047-49.8047 22.3145-49.8047 49.8047 22.3145 49.8047 49.8047 49.8047Zm0-8.30078c-22.9492 0-41.5039-18.5547-41.5039-41.5039s18.5547-41.5039 41.5039-41.5039 41.5039 18.5547 41.5039 41.5039-18.5547 41.5039-41.5039 41.5039Zm-22.6562-41.5039c0 2.39258 1.66016 4.00391 4.15039 4.00391h14.3555v14.4043c0 2.44141 1.66016 4.15039 4.05273 4.15039 2.44141 0 4.15039-1.66016 4.15039-4.15039v-14.4043h14.4043c2.44141 0 4.15039-1.61133 4.15039-4.00391 0-2.44141-1.70898-4.15039-4.15039-4.15039h-14.4043v-14.3555c0-2.49023-1.70898-4.19922-4.15039-4.19922-2.39258 0-4.05273 1.70898-4.05273 4.19922v14.3555h-14.3555c-2.49023 0-4.15039 1.70898-4.15039 4.15039Z"/>
  </g>
  <g transform="matrix(0.2 0 0 0.2 304.924 1933)">
   <path d="m74.8535 28.3203c35.1074 0 63.623-28.4668 63.623-63.5742s-28.5156-63.623-63.623-63.623-63.5742 28.5156-63.5742 63.623 28.4668 63.5742 63.5742 63.5742Zm0-9.08203c-30.127 0-54.4922-24.3652-54.4922-54.4922s24.3652-54.4922 54.4922-54.4922 54.4922 24.3652 54.4922 54.4922-24.3652 54.4922-54.4922 54.4922Zm-28.8574-54.4922c0 2.58789 1.85547 4.39453 4.58984 4.39453h19.7266v19.7754c0 2.68555 1.85547 4.58984 4.44336 4.58984 2.68555 0 4.54102-1.85547 4.54102-4.58984v-19.7754h19.7754c2.68555 0 4.58984-1.80664 4.58984-4.39453 0-2.73438-1.85547-4.58984-4.58984-4.58984h-19.7754v-19.7266c0-2.73438-1.85547-4.63867-4.54102-4.63867-2.58789 0-4.44336 1.9043-4.44336 4.63867v19.7266h-19.7266c-2.73438 0-4.58984 1.85547-4.58984 4.58984Z"/>
  </g>
  <text style="stroke:none;fill:black;font-family:sans-serif;font-size:13;font-weight:bold;" transform="matrix(1 0 0 1 263 1953)">Design Variations</text>
  <text style="stroke:none;fill:black;font-family:sans-serif;font-size:13;" transform="matrix(1 0 0 1 263 1971)">Symbols are supported in up to nine weights and three scales.</text>
  <text style="stroke:none;fill:black;font-family:sans-serif;font-size:13;" transform="matrix(1 0 0 1 263 1989)">For optimal layout with text and other symbols, vertically align</text>
  <text style="stroke:none;fill:black;font-family:sans-serif;font-size:13;" transform="matrix(1 0 0 1 263 2007)">symbols with the adjacent text.</text>
  <line style="fill:none;stroke:#00AEEF;stroke-width:0.5;opacity:1.0;" x1="776" x2="776" y1="1919" y2="1933"/>
  <g transform="matrix(0.2 0 0 0.2 776 1933)">
   <path d="m16.5527 0.78125c2.58789 0 3.85742-0.976562 4.78516-3.71094l6.29883-17.2363h28.8086l6.29883 17.2363c0.927734 2.73438 2.19727 3.71094 4.73633 3.71094 2.58789 0 4.24805-1.5625 4.24805-4.00391 0-0.830078-0.146484-1.61133-0.537109-2.63672l-22.9004-60.9863c-1.12305-2.97852-3.125-4.49219-6.25-4.49219-3.02734 0-5.07812 1.46484-6.15234 4.44336l-22.9004 61.084c-0.390625 1.02539-0.537109 1.80664-0.537109 2.63672 0 2.44141 1.5625 3.95508 4.10156 3.95508Zm13.4766-28.3691 11.8652-32.8613h0.244141l11.8652 32.8613Z"/>
  </g>
  <line style="fill:none;stroke:#00AEEF;stroke-width:0.5;opacity:1.0;" x1="792.836" x2="792.836" y1="1919" y2="1933"/>
  <text style="stroke:none;fill:black;font-family:sans-serif;font-size:13;font-weight:bold;" transform="matrix(1 0 0 1 776 1953)">Margins</text>
  <text style="stroke:none;fill:black;font-family:sans-serif;font-size:13;" transform="matrix(1 0 0 1 776 1971)">Leading and trailing margins on the left and right side of each symbol</text>
  <text style="stroke:none;fill:black;font-family:sans-serif;font-size:13;" transform="matrix(1 0 0 1 776 1989)">can be adjusted by modifying the x-location of the margin guidelines.</text>
  <text style="stroke:none;fill:black;font-family:sans-serif;font-size:13;" transform="matrix(1 0 0 1 776 2007)">Modifications are automatically applied proportionally to all</text>
  <text style="stroke:none;fill:black;font-family:sans-serif;font-size:13;" transform="matrix(1 0 0 1 776 2025)">scales and weights.</text>
  <g transform="matrix(0.2 0 0 0.2 1289 1933)">
   <path d="m14.209 9.32617 8.49609 8.54492c4.29688 4.3457 9.22852 4.05273 13.8672-1.07422l53.4668-58.9355-4.83398-4.88281-53.0762 58.3984c-1.75781 2.00195-3.41797 2.49023-5.76172 0.146484l-5.85938-5.81055c-2.34375-2.29492-1.80664-4.00391 0.195312-5.81055l57.373-54.0039-4.88281-4.83398-57.959 54.4434c-4.93164 4.58984-5.32227 9.47266-1.02539 13.8184Zm32.0801-90.9668c-2.09961 2.05078-2.24609 4.93164-1.07422 6.88477 1.17188 1.80664 3.4668 2.97852 6.68945 2.14844 7.32422-1.70898 14.9414-2.00195 22.0703 2.68555l-2.92969 7.27539c-1.70898 4.15039-0.830078 7.08008 1.85547 9.81445l11.4746 11.5723c2.44141 2.44141 4.49219 2.53906 7.32422 2.05078l5.32227-0.976562 3.32031 3.36914-0.195312 2.7832c-0.195312 2.49023 0.439453 4.39453 2.88086 6.78711l3.80859 3.71094c2.39258 2.39258 5.46875 2.53906 7.8125 0.195312l14.5508-14.5996c2.34375-2.34375 2.24609-5.32227-0.146484-7.71484l-3.85742-3.80859c-2.39258-2.39258-4.24805-3.17383-6.64062-2.97852l-2.88086 0.244141-3.22266-3.17383 1.2207-5.61523c0.634766-2.83203-0.146484-5.0293-3.07617-7.95898l-10.9863-10.9375c-16.6992-16.6016-38.8672-16.2109-53.3203-1.75781Zm7.4707 1.85547c12.1582-8.88672 28.6133-7.37305 39.7461 3.75977l12.1582 12.0605c1.17188 1.17188 1.36719 2.09961 1.02539 3.80859l-1.61133 7.42188 7.51953 7.42188 4.93164-0.292969c1.26953-0.0488281 1.66016 0.0488281 2.63672 1.02539l2.88086 2.88086-12.207 12.207-2.88086-2.88086c-0.976562-0.976562-1.12305-1.36719-1.07422-2.68555l0.341797-4.88281-7.4707-7.42188-7.61719 1.26953c-1.61133 0.341797-2.34375 0.195312-3.56445-0.976562l-10.0098-10.0098c-1.26953-1.17188-1.41602-2.00195-0.634766-3.85742l4.39453-10.4492c-7.8125-7.27539-17.9688-10.4004-28.125-7.42188-0.78125 0.195312-1.07422-0.439453-0.439453-0.976562Z"/>
  </g>
  <text style="stroke:none;fill:black;font-family:sans-serif;font-size:13;font-weight:bold;" transform="matrix(1 0 0 1 1289 1953)">Exporting</text>
  <text style="stroke:none;fill:black;font-family:sans-serif;font-size:13;" transform="matrix(1 0 0 1 1289 1971)">Symbols should be outlined when exporting to ensure the</text>
  <text style="stroke:none;fill:black;font-family:sans-serif;font-size:13;" transform="matrix(1 0 0 1 1289 1989)">design is preserved when submitting to Xcode.</text>
  <text id="template-version" style="stroke:none;fill:black;font-family:sans-serif;font-size:13;text-anchor:end;" transform="matrix(1 0 0 1 3036 1933)">Template v.6.0</text>
  <text style="stroke:none;fill:black;font-family:sans-serif;font-size:13;text-anchor:end;" transform="matrix(1 0 0 1 3036 1951)">Requires Xcode 16 or greater</text>
  <text id="descriptive-name" style="stroke:none;fill:black;font-family:sans-serif;font-size:13;text-anchor:end;" transform="matrix(1 0 0 1 3036 1969)">Generated from filtervogelgruppe-2</text>
  <text style="stroke:none;fill:black;font-family:sans-serif;font-size:13;text-anchor:end;" transform="matrix(1 0 0 1 3036 1987)">Typeset at 100.0 points</text>
  <text style="stroke:none;fill:black;font-family:sans-serif;font-size:13;" transform="matrix(1 0 0 1 263 726)">Small</text>
  <text style="stroke:none;fill:black;font-family:sans-serif;font-size:13;" transform="matrix(1 0 0 1 263 1156)">Medium</text>
  <text style="stroke:none;fill:black;font-family:sans-serif;font-size:13;" transform="matrix(1 0 0 1 263 1586)">Large</text>
 </g>
 <g id="Guides">
  <g id="H-reference" style="fill:#27AAE1;stroke:none;" transform="matrix(1 0 0 1 339 696)">
   <path d="M0.993654 0L3.63775 0L29.3281-67.1323L30.0303-67.1323L30.0303-70.459L28.1226-70.459ZM11.6885-24.4799L46.9815-24.4799L46.2315-26.7285L12.4385-26.7285ZM55.1196 0L57.7637 0L30.6382-70.459L29.4326-70.459L29.4326-67.1323Z"/>
  </g>
  <line id="Baseline-S" style="fill:none;stroke:#27AAE1;opacity:1;stroke-width:0.5;" x1="263" x2="3036" y1="696" y2="696"/>
  <line id="Capline-S" style="fill:none;stroke:#27AAE1;opacity:1;stroke-width:0.5;" x1="263" x2="3036" y1="625.541" y2="625.541"/>
  <g id="H-reference" style="fill:#27AAE1;stroke:none;" transform="matrix(1 0 0 1 339 1126)">
   <path d="M0.993654 0L3.63775 0L29.3281-67.1323L30.0303-67.1323L30.0303-70.459L28.1226-70.459ZM11.6885-24.4799L46.9815-24.4799L46.2315-26.7285L12.4385-26.7285ZM55.1196 0L57.7637 0L30.6382-70.459L29.4326-70.459L29.4326-67.1323Z"/>
  </g>
  <line id="Baseline-M" style="fill:none;stroke:#27AAE1;opacity:1;stroke-width:0.5;" x1="263" x2="3036" y1="1126" y2="1126"/>
  <line id="Capline-M" style="fill:none;stroke:#27AAE1;opacity:1;stroke-width:0.5;" x1="263" x2="3036" y1="1055.54" y2="1055.54"/>
  <g id="H-reference" style="fill:#27AAE1;stroke:none;" transform="matrix(1 0 0 1 339 1556)">
   <path d="M0.993654 0L3.63775 0L29.3281-67.1323L30.0303-67.1323L30.0303-70.459L28.1226-70.459ZM11.6885-24.4799L46.9815-24.4799L46.2315-26.7285L12.4385-26.7285ZM55.1196 0L57.7637 0L30.6382-70.459L29.4326-70.459L29.4326-67.1323Z"/>
  </g>
  <line id="Baseline-L" style="fill:none;stroke:#27AAE1;opacity:1;stroke-width:0.5;" x1="263" x2="3036" y1="1556" y2="1556"/>
  <line id="Capline-L" style="fill:none;stroke:#27AAE1;opacity:1;stroke-width:0.5;" x1="263" x2="3036" y1="1485.54" y2="1485.54"/>
  <line id="right-margin-Black-S" style="fill:none;stroke:#00AEEF;stroke-width:0.5;opacity:1.0;" x1="2982.23" x2="2982.23" y1="600.785" y2="720.121"/>
  <line id="left-margin-Black-S" style="fill:none;stroke:#00AEEF;stroke-width:0.5;opacity:1.0;" x1="2884.57" x2="2884.57" y1="600.785" y2="720.121"/>
  <line id="right-margin-Regular-S" style="fill:none;stroke:#00AEEF;stroke-width:0.5;opacity:1.0;" x1="1496.11" x2="1496.11" y1="600.785" y2="720.121"/>
  <line id="left-margin-Regular-S" style="fill:none;stroke:#00AEEF;stroke-width:0.5;opacity:1.0;" x1="1403.58" x2="1403.58" y1="600.785" y2="720.121"/>
  <line id="right-margin-Ultralight-S" style="fill:none;stroke:#00AEEF;stroke-width:0.5;opacity:1.0;" x1="603.773" x2="603.773" y1="600.785" y2="720.121"/>
  <line id="left-margin-Ultralight-S" style="fill:none;stroke:#00AEEF;stroke-width:0.5;opacity:1.0;" x1="515.649" x2="515.649" y1="600.785" y2="720.121"/>
 </g>
 <g id="Symbols">
  <g id="Black-S" transform="matrix(1 0 0 1 2884.57 696)">
   <path class="monochrome-0 multicolor-0:tintColor hierarchical-0:primary SFSymbolsPreviewWireframe" d="M60.5772-26.521C60.6439-26.417 60.7039-26.2623 60.8106-26.1513C61.0706-25.869 61.3672-25.6336 61.5472-25.2673C61.6506-25.059 61.8706-24.9143 62.0339-24.7363C62.4172-24.316 62.9106-24.3496 63.4006-24.3733C63.7172-24.39 64.0339-24.4 64.3506-24.4403C64.7206-24.484 65.0906-24.568 65.4606-24.612C65.7706-24.6453 66.0839-24.632 66.3939-24.669C66.7106-24.706 66.9439-24.5446 67.1606-24.3496C67.2139-24.2993 67.1972-24.1646 67.2139-24.0673C67.1139-24.0673 66.9872-24.0303 66.9239-24.0806C66.7606-24.205 66.6139-24.2756 66.4072-24.2083C66.3172-24.1816 66.2072-24.222 66.1039-24.222C66.0039-24.222 65.9039-24.205 65.7706-24.195C65.9239-24.0706 66.0539-23.99 66.1539-23.879C66.2006-23.8286 66.1872-23.7176 66.2006-23.637C66.1106-23.6303 65.9872-23.5766 65.9406-23.6203C65.5972-23.943 65.1972-23.7346 64.8239-23.7783C64.7772-23.7816 64.7239-23.6976 64.6672-23.654L64.7939-23.5193C65.0439-23.264 65.3406-23.0486 65.4306-22.669C65.4506-22.595 65.3972-22.501 65.3806-22.417C65.3139-22.464 65.2406-22.5043 65.1806-22.5546C65.0206-22.689 64.8706-22.8303 64.7139-22.968C64.7039-22.9783 64.6839-22.975 64.6739-22.985C64.4539-23.1596 64.2839-23.1563 64.1506-22.864C64.1272-22.8103 64.0072-22.7933 63.9272-22.7733C63.6539-22.706 63.3772-22.6453 63.1006-22.585C63.0406-22.575 62.9806-22.575 62.9206-22.558C62.8606-22.5413 62.8039-22.5143 62.7472-22.491C62.7839-22.4336 62.8139-22.363 62.8606-22.3226C62.9772-22.2386 63.1306-22.195 63.2206-22.0873C63.4006-21.8756 63.5539-21.637 63.7006-21.395C63.7339-21.338 63.7006-21.2103 63.6639-21.1363C63.5972-21.022 63.4806-21.0153 63.4406-21.1496C63.3039-21.6336 62.8306-21.721 62.5272-22.0066C62.4272-22.101 62.1939-22.0976 62.0339-22.0606C61.7306-21.9933 61.4339-21.879 61.1406-21.7716C60.7472-21.6336 60.4139-21.8186 60.0672-21.9563C59.9272-22.0156 59.7735-22.033 59.6239-22.0066C59.3239-21.9396 59.0272-21.8253 58.7339-21.721C58.3505-21.5833 57.9672-21.4386 57.5872-21.284C57.4105-21.217 57.2739-21.2506 57.1372-21.375C57.0475-21.472 56.9369-21.5466 56.8139-21.5933C56.3339-21.7176 55.8672-22.0573 55.3472-21.6943C55.2239-21.6033 55.1272-21.7313 55.0672-21.8523C55.0072-21.97 55.0072-22.074 55.1372-22.1346C55.5172-22.306 55.9105-22.4336 56.3039-22.205C56.6372-22.0136 56.9305-22.121 57.2472-22.2523C57.5439-22.38 57.8572-22.4606 58.1639-22.5546C58.4039-22.632 58.6505-22.6926 58.8905-22.77C59.0239-22.8136 59.0572-22.9043 58.9405-23.005C58.7672-23.153 58.5805-23.284 58.4072-23.4253C58.1405-23.6403 57.8839-23.8656 57.6172-24.0773C57.3939-24.259 57.1572-24.4203 56.9339-24.6016C56.7072-24.7833 56.5005-24.9883 56.2672-25.1563C56.1549-25.246 56.0169-25.2966 55.8739-25.301C55.0205-25.2436 54.1672-25.1293 53.3139-25.0993C52.3539-25.0623 51.3972-25.0993 50.4605-25.3916C50.0639-25.5126 49.6672-25.6943 49.2205-25.6066C48.8902-25.5643 48.5832-25.413 48.3472-25.1766C47.9005-24.706 47.4472-24.2386 46.9872-23.7816C46.7372-23.5293 46.4605-23.301 46.2039-23.0556C45.9872-22.847 45.7905-22.6153 45.5639-22.417C45.3239-22.2003 45.0155-22.0766 44.6939-22.0673C44.5705-22.0606 44.3972-22.3193 44.3272-22.5043C44.1839-22.8706 44.3705-23.1933 44.4139-23.5293C44.4539-23.8083 44.5339-24.0806 44.6139-24.3496C44.6505-24.4906 44.6039-24.5413 44.4839-24.5176C44.3672-24.501 44.2505-24.4503 44.1372-24.417C43.7339-24.2993 43.3235-24.195 42.9269-24.0573C42.6852-23.9693 42.4529-23.857 42.2335-23.721C41.6269-23.3513 41.0235-22.975 40.4269-22.595C40.3102-22.5176 40.2102-22.4066 40.1069-22.306C39.8169-22.0203 39.5335-21.721 39.2335-21.4386C38.9602-21.18 38.6669-20.9446 38.3935-20.6893C38.2735-20.5783 38.1835-20.437 38.0669-20.3193C37.9802-20.2286 37.8669-20.1646 37.7769-20.0706C37.4436-19.721 37.1203-19.3613 36.7903-19.005C36.5736-18.7733 36.357-18.5346 36.1336-18.3126C35.867-18.0506 35.577-17.8153 35.3136-17.5496C35.1369-17.3716 34.9969-17.1563 34.8236-16.9716C34.5536-16.6823 34.2602-16.417 33.9936-16.121C33.6845-15.7783 33.3844-15.4276 33.0936-15.069C32.8136-14.7263 32.5602-14.3633 32.2736-14.027C32.0669-13.7883 31.8235-13.58 31.6002-13.3546C31.5569-13.3143 31.5235-13.2606 31.4835-13.2136C31.3169-13.0386 31.1502-12.8673 30.9869-12.6893L30.3135-11.906C30.2284-11.8063 30.1359-11.713 30.0369-11.627C29.7869-11.4153 29.5369-11.1966 29.2702-11.0153C29.0536-10.866 28.821-10.742 28.5768-10.6456C28.4768-10.6053 28.3002-10.625 28.2202-10.696C28.1135-10.7966 28.1402-10.9546 28.2235-11.0993C28.4535-11.4893 28.6702-11.886 28.8835-12.286C28.9102-12.333 28.8968-12.4 28.9002-12.4606C28.8335-12.454 28.7502-12.4706 28.6935-12.4406C28.4702-12.316 28.2535-12.1716 28.0268-12.044C27.9702-12.0103 27.8968-11.97 27.8335-11.9766C27.7535-11.9833 27.6402-12.0103 27.6102-12.0673C27.5802-12.1246 27.6202-12.2556 27.6702-12.3093C27.8868-12.5546 28.1302-12.78 28.3502-13.0186C28.5835-13.2773 28.8002-13.5496 29.0235-13.8186C29.5235-14.4136 30.0235-15.0053 30.5135-15.607C31.1469-16.3866 31.7669-17.1866 32.4069-17.9596C32.9436-18.612 33.5036-19.237 34.0536-19.8756C34.4496-20.3286 34.8496-20.778 35.2536-21.2236C35.4069-21.3916 35.5803-21.533 35.7236-21.701C35.927-21.9396 36.1103-22.1983 36.3103-22.4403C36.507-22.6723 36.717-22.891 36.917-23.1226C37.147-23.385 37.3903-23.6336 37.597-23.916C37.9269-24.3563 38.2235-24.8236 38.5402-25.2773C38.8402-25.7043 39.1535-26.1243 39.4535-26.5513C39.6869-26.8807 39.9002-27.2237 40.1302-27.553C40.2969-27.7983 40.4902-28.027 40.6502-28.279C40.8769-28.632 41.0902-28.995 41.2969-29.358C41.6469-29.9767 41.9869-30.5983 42.3302-31.2167C42.6435-31.7817 42.9635-32.3397 43.2635-32.9143C43.4105-33.21 43.4872-33.5463 43.6339-33.8453C43.8972-34.373 44.1905-34.8807 44.4672-35.4017C44.5505-35.563 44.6072-35.7377 44.6839-35.906C44.7872-36.121 44.9005-36.336 45.0105-36.5513C45.2772-37.079 45.5439-37.61 45.8205-38.131C45.8772-38.2353 45.9805-38.3127 46.0405-38.4133C46.1339-38.5813 46.1972-38.7663 46.2939-38.931C46.6272-39.516 46.9705-40.0907 47.3072-40.6723C47.7172-41.3813 48.1205-42.0973 48.5339-42.8033C48.7239-43.1293 48.9339-43.442 49.1239-43.7647C49.3905-44.2183 49.6272-44.689 49.9039-45.136C50.1572-45.546 50.4539-45.926 50.7139-46.3327C51.0805-46.904 51.4339-47.4856 51.7905-48.0671C52.0739-48.531 52.3572-48.9948 52.6272-49.4654C52.8739-49.8856 53.0939-50.3226 53.3505-50.7293C53.5572-51.0587 53.8205-51.3478 54.0405-51.6705C54.2539-51.9797 54.4572-52.299 54.6372-52.6318C54.8972-53.1158 55.1339-53.6133 55.3805-54.1074C55.5739-54.4873 55.8272-54.8469 55.9472-55.2536C56.1539-55.9494 56.6572-56.4704 56.8639-57.1595C56.9405-57.4083 57.1272-57.62 57.2772-57.8385C57.5172-58.1914 57.7539-58.5477 58.0172-58.8805C58.3405-59.294 58.7272-59.6234 59.1739-59.899C59.4839-60.0906 59.8072-60.2351 60.1339-60.3696C60.2405-60.4133 60.3639-60.4133 60.4772-60.4368C60.9072-60.5107 61.3272-60.6183 61.7706-60.625C62.2042-60.625 62.6312-60.5181 63.0139-60.3124L63.3572-60.1444C63.9939-59.8284 64.6439-59.536 65.2639-59.1797C65.7139-58.9175 66.1439-58.5948 66.5439-58.2486C66.9106-57.9326 67.2206-57.5427 67.5572-57.1898C67.5976-57.1447 67.6479-57.1102 67.7039-57.0889C68.0772-56.9746 68.4539-56.8805 68.8206-56.7595C69.2106-56.6318 69.5972-56.4872 69.9806-56.336C70.1406-56.2755 70.2806-56.1141 70.4706-56.262C70.4772-56.2688 70.5206-56.2318 70.5372-56.2083C70.6272-56.1041 70.7039-55.9797 70.8072-55.8889C70.9739-55.7377 70.9839-55.5226 70.7839-55.4184C70.3606-55.1931 69.9306-54.9847 69.5006-54.7763C69.2606-54.6621 69.0172-54.5579 68.7772-54.4436C68.6306-54.3763 68.5972-54.2486 68.6239-54.0906C68.6372-54.0268 68.6506-53.9595 68.6372-53.9024C68.5306-53.4822 68.4372-53.052 68.2972-52.6419C68.1639-52.2453 67.9706-51.8688 67.8072-51.4789C67.7779-51.4134 67.7619-51.3424 67.7606-51.2705C67.7672-51.1857 67.7542-51.1004 67.7226-51.0216C67.6906-50.9428 67.6409-50.8726 67.5772-50.8167C67.5106-50.7562 67.4972-50.6352 67.4739-50.5377C67.4206-50.3259 67.3839-50.1074 67.3372-49.8957C67.3139-49.7915 67.2772-49.6906 67.2572-49.5864C67.1642-49.0695 67.1662-48.5396 67.2639-48.0234C67.3339-47.6301 67.4606-47.2503 67.5539-46.8637C67.5739-46.7967 67.5572-46.716 67.5772-46.6487C67.6139-46.5143 67.6639-46.3863 67.7106-46.2553C67.7239-46.2183 67.7439-46.1813 67.7506-46.1443C67.8272-45.8117 67.9172-45.4823 67.9806-45.146C68.0472-44.7967 68.0906-44.4403 68.1572-44.094C68.2239-43.721 68.3239-43.3547 68.3839-42.9813C68.4106-42.8067 68.3839-42.625 68.3739-42.4437C68.3739-42.41 68.3506-42.3697 68.3539-42.3327C68.3672-42.1143 68.4072-41.8957 68.4006-41.6807C68.3972-41.2973 68.3706-40.911 68.3439-40.531C68.3239-40.2487 68.3106-39.9663 68.2539-39.694C68.1406-39.1697 68.0006-38.652 67.8739-38.1277C67.8339-37.9663 67.8072-37.805 67.7672-37.647C67.6539-37.2337 67.5472-36.82 67.4206-36.4167C67.2539-35.8957 67.0772-35.385 66.7872-34.9143C66.5639-34.5613 66.4272-34.1513 66.2472-33.7713C66.1806-33.627 66.0872-33.4923 66.0172-33.348C65.8506-32.995 65.7039-32.6287 65.5239-32.2823C65.3439-31.936 65.1339-31.6067 64.9306-31.274C64.7639-31.005 64.6006-30.726 64.4072-30.4807C64.1039-30.0907 63.9139-29.6033 63.4939-29.311C63.4039-29.247 63.3439-29.1363 63.2772-29.042C62.9539-28.605 62.5306-28.296 62.1172-27.9697C61.8839-27.785 61.6706-27.5697 61.4306-27.3983C61.1306-27.19 60.8006-27.0187 60.4939-26.8203C60.4472-26.7867 60.4239-26.696 60.4239-26.6287C60.4239-26.5983 60.5072-26.568 60.5772-26.521Z"/>
   <path class="monochrome-1 multicolor-1:tintColor hierarchical-1:tertiary SFSymbolsPreviewWireframe" d="M48.9411-84C55.3091-84.0013 61.615-82.7479 67.4985-80.3116C73.382-77.8752 78.7279-74.3036 83.2305-69.8009C87.7334-65.2983 91.305-59.9524 93.7418-54.0682C96.1779-48.1846 97.4312-41.8789 97.43-35.5124C97.43-8.72255 75.7254 13 48.9424 13C22.156 13 0.43-8.726 0.43-35.5124C0.43-62.2926 22.1539-84 48.9411-84ZM48.9424-70C29.8835-70 14.43-54.5582 14.43-35.5124C14.43-16.458 29.888-0.999999 48.9424-0.999999C67.9909-0.999999 83.43-16.4519 83.43-35.5138C83.4309-40.0428 82.5395-44.5276 80.8069-48.7121C79.0739-52.8969 76.5337-56.6989 73.3311-59.9013C70.1287-63.1038 66.3266-65.644 62.1422-67.3767C57.9578-69.1095 53.4729-70.0009 48.9424-70Z"/>
  </g>
  <g id="Regular-S" transform="matrix(1 0 0 1 1403.58 696)">
   <path class="monochrome-0 multicolor-0:tintColor hierarchical-0:primary SFSymbolsPreviewWireframe" d="M56.4267-24.7972C56.4975-24.6868 56.5612-24.5227 56.6744-24.4048C56.9504-24.1051 57.2654-23.8553 57.4564-23.4664C57.5661-23.2453 57.7997-23.0917 57.9731-22.9028C58.38-22.4566 58.9037-22.4923 59.4238-22.5174C59.76-22.5351 60.0961-22.5457 60.4323-22.5885C60.8251-22.6349 61.2178-22.7241 61.6106-22.7708C61.9397-22.8062 62.2723-22.792 62.6014-22.8313C62.9375-22.8706 63.1852-22.6993 63.4152-22.4923C63.4718-22.4389 63.4541-22.2959 63.4718-22.1926C63.3657-22.1926 63.2312-22.1533 63.164-22.2067C62.9906-22.3387 62.8349-22.4137 62.6155-22.3423C62.52-22.314 62.4032-22.3568 62.2935-22.3568C62.1874-22.3568 62.0812-22.3387 61.9397-22.3281C62.1024-22.1961 62.2404-22.1105 62.3466-21.9927C62.3961-21.9392 62.382-21.8214 62.3961-21.7358C62.3006-21.7287 62.1697-21.6717 62.1201-21.7181C61.7557-22.0606 61.3311-21.8394 60.9347-21.8858C60.8852-21.8893 60.8286-21.8002 60.7684-21.7538L60.9029-21.6109C61.1683-21.3398 61.4832-21.1112 61.5787-20.7082C61.6-20.6296 61.5434-20.5299 61.5257-20.4407C61.4549-20.4906 61.3771-20.5334 61.3134-20.5868C61.1435-20.7294 60.9843-20.8795 60.818-21.0256C60.8074-21.0366 60.7861-21.033 60.7755-21.0436C60.542-21.2291 60.3615-21.2255 60.22-20.9152C60.1952-20.8582 60.0678-20.8402 59.9829-20.819C59.6927-20.7475 59.3991-20.6831 59.1054-20.619C59.0417-20.6084 58.978-20.6084 58.9143-20.5904C58.8506-20.5727 58.7904-20.544 58.7303-20.5192C58.7692-20.4584 58.8011-20.3834 58.8506-20.3406C58.9744-20.2514 59.1372-20.205 59.2327-20.0907C59.4238-19.866 59.5866-19.6127 59.7423-19.3558C59.7777-19.2953 59.7423-19.1598 59.7034-19.0812C59.6326-18.9598 59.5087-18.9528 59.4663-19.0954C59.3212-19.6092 58.8187-19.7019 58.4967-20.0051C58.3906-20.1052 58.1429-20.1017 57.9731-20.0624C57.6511-19.991 57.3361-19.8696 57.0247-19.7556C56.6072-19.6092 56.2534-19.8055 55.8854-19.9517C55.7367-20.0147 55.5736-20.0331 55.4147-20.0051C55.0963-19.934 54.7814-19.8126 54.47-19.7019C54.0631-19.5557 53.6561-19.4022 53.2527-19.238C53.0652-19.1668 52.9201-19.2026 52.7751-19.3346C52.6799-19.4375 52.5624-19.5168 52.4318-19.5663C51.9223-19.6983 51.4269-20.0589 50.8749-19.6736C50.744-19.577 50.6414-19.7128 50.5777-19.8413C50.514-19.9662 50.514-20.0766 50.652-20.141C51.0554-20.3229 51.4729-20.4584 51.8904-20.2156C52.2443-20.0125 52.5557-20.1265 52.8918-20.2659C53.2067-20.4014 53.5394-20.487 53.8649-20.5868C54.1197-20.6689 54.3815-20.7333 54.6363-20.8154C54.7778-20.8618 54.8132-20.958 54.6894-21.0649C54.5054-21.222 54.3072-21.361 54.1232-21.5111C53.8401-21.7393 53.5677-21.9785 53.2846-22.2032C53.0475-22.396 52.7963-22.5673 52.5592-22.7598C52.3186-22.9526 52.0992-23.1703 51.8515-23.3486C51.7323-23.4438 51.5858-23.4976 51.434-23.5022C50.5281-23.4413 49.6223-23.3199 48.7164-23.2881C47.6974-23.2488 46.6818-23.2881 45.6875-23.5984C45.2664-23.7269 44.8454-23.9197 44.3712-23.8266C44.0205-23.7817 43.6947-23.6211 43.4441-23.3702C42.97-22.8706 42.4887-22.3745 42.0004-21.8893C41.7351-21.6215 41.4414-21.3791 41.1689-21.1187C40.9389-20.8972 40.7301-20.6512 40.4895-20.4407C40.2347-20.2107 39.9074-20.0794 39.566-20.0695C39.4351-20.0624 39.2511-20.337 39.1767-20.5334C39.0246-20.9223 39.2227-21.2648 39.2687-21.6215C39.3112-21.9176 39.3961-22.2067 39.4811-22.4923C39.52-22.642 39.4704-22.6958 39.3431-22.6706C39.2192-22.6529 39.0954-22.5992 38.9751-22.5638C38.5469-22.4389 38.1113-22.3281 37.6902-22.182C37.4337-22.0886 37.1871-21.9693 36.9542-21.8249C36.3102-21.4325 35.6698-21.033 35.0364-20.6296C34.9125-20.5476 34.8064-20.4297 34.6967-20.3229C34.3889-20.0196 34.0881-19.7019 33.7696-19.4022C33.4795-19.1276 33.1681-18.8778 32.8779-18.6067C32.7505-18.4889 32.655-18.3388 32.5312-18.2139C32.4392-18.1177 32.3189-18.0498 32.2233-17.95C31.8696-17.5788 31.5263-17.197 31.176-16.8187C30.946-16.5728 30.716-16.3194 30.479-16.0838C30.1959-15.8057 29.888-15.5558 29.6085-15.2738C29.4209-15.0849 29.2723-14.8563 29.0883-14.6603C28.8017-14.3531 28.4903-14.0715 28.2072-13.7572C27.8791-13.3935 27.5605-13.0212 27.2518-12.6405C26.9546-12.2768 26.6857-11.8914 26.3814-11.5344C26.162-11.281 25.9037-11.0599 25.6666-10.8207C25.6206-10.7779 25.5852-10.7209 25.5427-10.671C25.3658-10.4852 25.1889-10.3034 25.0155-10.1144L24.3007-9.28287C24.2104-9.17706 24.1122-9.07799 24.007-8.9867C23.7417-8.762 23.4763-8.52988 23.1932-8.33739C22.9633-8.17886 22.7164-8.04723 22.4572-7.94497C22.351-7.90216 22.1635-7.92311 22.0785-7.9984C21.9653-8.10527 21.9936-8.27299 22.0821-8.42656C22.3262-8.84056 22.5562-9.26163 22.7827-9.68625C22.811-9.73614 22.7969-9.80727 22.8004-9.87167C22.7296-9.86459 22.6412-9.88228 22.581-9.85043C22.3439-9.7181 22.1139-9.56488 21.8733-9.42936C21.8132-9.39362 21.7353-9.3508 21.6681-9.35788C21.5832-9.36496 21.4629-9.39362 21.431-9.45413C21.3992-9.51499 21.4416-9.65405 21.4947-9.71102C21.7247-9.97145 21.983-10.2106 22.2165-10.464C22.4642-10.7386 22.6942-11.0277 22.9313-11.3132C23.4621-11.9448 23.9929-12.5729 24.513-13.2116C25.1854-14.0393 25.8435-14.8885 26.5229-15.7091C27.0926-16.4015 27.6871-17.065 28.2709-17.743C28.6914-18.2238 29.116-18.7008 29.5448-19.1739C29.7075-19.3523 29.8916-19.5023 30.0437-19.6806C30.2596-19.934 30.4542-20.2086 30.6665-20.4655C30.8753-20.7117 31.0982-20.9439 31.3105-21.1898C31.5547-21.4683 31.813-21.7322 32.0323-22.0319C32.3825-22.4994 32.6975-22.9955 33.0336-23.477C33.3521-23.9303 33.6847-24.3762 34.0032-24.8294C34.2509-25.179 34.4773-25.5432 34.7215-25.8928C34.8984-26.1532 35.1036-26.3959 35.2735-26.6634C35.5141-27.0382 35.7405-27.4235 35.9599-27.8088C36.3315-28.4656 36.6924-29.1255 37.0569-29.7819C37.3895-30.3816 37.7292-30.974 38.0476-31.584C38.2037-31.8979 38.2851-32.2549 38.4407-32.5723C38.7203-33.1324 39.0317-33.6714 39.3254-34.2244C39.4138-34.3957 39.474-34.5811 39.5554-34.7598C39.6651-34.988 39.7854-35.2162 39.9021-35.4448C40.1852-36.005 40.4683-36.5686 40.762-37.1217C40.8221-37.2325 40.9318-37.3146 40.9955-37.4214C41.0946-37.5998 41.1618-37.7961 41.2644-37.9709C41.6183-38.5919 41.9827-39.202 42.3401-39.8194C42.7754-40.5721 43.2035-41.3321 43.6423-42.0816C43.844-42.4276 44.0669-42.7595 44.2686-43.1021C44.5517-43.5836 44.8029-44.0833 45.0966-44.5578C45.3655-44.993 45.6804-45.3964 45.9564-45.8281C46.3457-46.4346 46.7207-47.052 47.0994-47.6693C47.4001-48.1617 47.7009-48.6541 47.9875-49.1536C48.2494-49.5997 48.4829-50.0635 48.7554-50.4953C48.9747-50.845 49.2543-51.1518 49.4878-51.4943C49.7143-51.8226 49.9301-52.1616 50.1212-52.5149C50.3972-53.0287 50.6484-53.5568 50.9103-54.0813C51.1155-54.4845 51.3844-54.8663 51.5118-55.298C51.7312-56.0366 52.2655-56.5897 52.4849-57.3212C52.5663-57.5852 52.7644-57.81 52.9237-58.0419C53.1784-58.4166 53.4297-58.7948 53.7092-59.1481C54.0524-59.587 54.4629-59.9366 54.9371-60.2292C55.2661-60.4326 55.6094-60.5861 55.9561-60.7288C56.0694-60.7752 56.2003-60.7752 56.3206-60.8001C56.7771-60.8786 57.2229-60.9928 57.6935-61C58.1539-61 58.6071-60.8865 59.0134-60.6681L59.3778-60.4897C60.0537-60.1543 60.7437-59.8439 61.4018-59.4656C61.8795-59.1873 62.336-58.8448 62.7606-58.4772C63.1498-58.1418 63.4789-57.7279 63.8363-57.3533C63.8791-57.3055 63.9325-57.2688 63.992-57.2463C64.3883-57.1249 64.7881-57.025 65.1774-56.8965C65.5914-56.761 66.0018-56.6075 66.4087-56.447C66.5786-56.3828 66.7272-56.2115 66.9289-56.3685C66.936-56.3756 66.982-56.3364 66.9997-56.3114C67.0952-56.2008 67.1766-56.0688 67.2863-55.9724C67.4632-55.8118 67.4738-55.5835 67.2615-55.4729C66.8121-55.2338 66.3557-55.0126 65.8992-54.7913C65.6444-54.67 65.3861-54.5594 65.1314-54.4381C64.9757-54.3667 64.9403-54.2311 64.9686-54.0634C64.9827-53.9956 64.9969-53.9243 64.9827-53.8636C64.8695-53.4176 64.7704-52.9609 64.6218-52.5256C64.4803-52.1045 64.2751-51.7049 64.1017-51.291C64.0705-51.2214 64.0535-51.1461 64.0521-51.0697C64.0592-50.9797 64.0454-50.8892 64.0118-50.8056C63.9778-50.7219 63.9251-50.6474 63.8575-50.588C63.7867-50.5238 63.7726-50.3954 63.7478-50.2919C63.6912-50.0671 63.6523-49.8352 63.6027-49.6104C63.578-49.4997 63.5391-49.3927 63.5178-49.2821C63.4191-48.7333 63.4212-48.1708 63.5249-47.6229C63.5992-47.2054 63.7337-46.8022 63.8327-46.3918C63.854-46.3206 63.8363-46.235 63.8575-46.1635C63.8964-46.0209 63.9495-45.8851 63.9991-45.746C64.0132-45.7067 64.0344-45.6674 64.0415-45.6282C64.1229-45.275 64.2184-44.9254 64.2857-44.5684C64.3564-44.1976 64.4024-43.8193 64.4732-43.4517C64.544-43.0557 64.6501-42.6668 64.7138-42.2705C64.7421-42.0851 64.7138-41.8923 64.7032-41.6998C64.7032-41.664 64.6784-41.6212 64.682-41.5819C64.6961-41.3502 64.7386-41.118 64.7315-40.8898C64.728-40.4829 64.6997-40.0728 64.6714-39.6694C64.6501-39.3697 64.636-39.07 64.5758-38.7809C64.4555-38.2243 64.3069-37.6748 64.1724-37.1182C64.13-36.9469 64.1017-36.7756 64.0592-36.6079C63.9389-36.1692 63.8257-35.73 63.6912-35.3019C63.5143-34.7488 63.3267-34.2067 63.0189-33.7071C62.7818-33.3324 62.6367-32.8971 62.4457-32.4938C62.3749-32.3405 62.2758-32.1976 62.2015-32.0444C62.0246-31.6696 61.8689-31.2808 61.6778-30.9131C61.4867-30.5455 61.2638-30.1959 61.048-29.8427C60.8711-29.5572 60.6977-29.261 60.4924-29.0006C60.1704-28.5866 59.9687-28.0693 59.5229-27.7589C59.4274-27.691 59.3637-27.5735 59.2929-27.4734C58.9497-27.0095 58.5003-26.6815 58.0615-26.3351C57.8138-26.139 57.5874-25.9104 57.3326-25.7286C57.0141-25.5074 56.6638-25.3255 56.3383-25.115C56.2887-25.0793 56.264-24.983 56.264-24.9115C56.264-24.8793 56.3524-24.8471 56.4267-24.7972Z"/>
   <path class="monochrome-1 multicolor-1:tintColor hierarchical-1:tertiary SFSymbolsPreviewWireframe" d="M46.4321-81.8365C52.4502-81.8377 58.4096-80.6532 63.9698-78.3508C69.53-76.0483 74.5822-72.6729 78.8374-68.4176C83.0928-64.1624 86.4682-59.1103 88.771-53.5496C91.0733-47.9892 92.2577-42.03 92.2566-36.0127C92.2566-10.693 71.744 9.83658 46.4328 9.83658C21.1173 9.83658 0.5835-10.6972 0.5835-36.0127C0.5835-61.3211 21.1145-81.8365 46.4321-81.8365ZM46.4328-75.0865C24.8413-75.0865 7.3335-57.592 7.3335-36.0127C7.3335-14.4252 24.8452 3.08658 46.4328 3.08658C68.0148 3.08658 85.5066-14.4197 85.5066-36.0133C85.5076-41.1447 84.4976-46.226 82.5345-50.9672C80.571-55.7085 77.693-60.0162 74.0644-63.6446C70.4361-67.273 66.1283-70.1511 61.3873-72.1143C56.6463-74.0776 51.5649-75.0875 46.4328-75.0865Z"/>
  </g>
  <g id="Ultralight-S" transform="matrix(1 0 0 1 515.649 696)">
   <path class="monochrome-0 multicolor-0:tintColor hierarchical-0:primary SFSymbolsPreviewWireframe" d="M57.308-23.0643C57.3853-22.9437 57.4549-22.7642 57.5786-22.6355C57.8802-22.308 58.2244-22.035 58.4332-21.61C58.553-21.3684 58.8082-21.2006 58.9977-20.9941C59.4424-20.5065 60.0146-20.5455 60.583-20.573C60.9504-20.5923 61.3177-20.6039 61.685-20.6507C62.1142-20.7014 62.5434-20.7988 62.9726-20.8499C63.3322-20.8885 63.6957-20.8731 64.0553-20.916C64.4227-20.9589 64.6933-20.7717 64.9447-20.5455C65.0065-20.4872 64.9872-20.3309 65.0065-20.218C64.8905-20.218 64.7436-20.1751 64.6701-20.2335C64.4807-20.3777 64.3105-20.4597 64.0708-20.3816C63.9664-20.3507 63.8388-20.3975 63.7189-20.3975C63.6029-20.3975 63.4869-20.3777 63.3322-20.3661C63.5101-20.2219 63.6609-20.1283 63.7769-19.9996C63.831-19.9412 63.8156-19.8124 63.831-19.7189C63.7266-19.7111 63.5836-19.6489 63.5294-19.6995C63.1312-20.0738 62.6672-19.8321 62.2341-19.8828C62.18-19.8867 62.1181-19.7892 62.0524-19.7386L62.1993-19.5824C62.4893-19.2862 62.8334-19.0364 62.9378-18.596C62.961-18.5101 62.8992-18.4011 62.8798-18.3037C62.8025-18.3582 62.7174-18.405 62.6478-18.4633C62.4622-18.6192 62.2882-18.7831 62.1065-18.9428C62.0949-18.9548 62.0717-18.9509 62.0601-18.9625C61.8049-19.1651 61.6077-19.1613 61.453-18.8222C61.426-18.7599 61.2868-18.7402 61.194-18.717C60.8769-18.6389 60.556-18.5685 60.235-18.4985C60.1654-18.4869 60.0958-18.4869 60.0262-18.4672C59.9566-18.4479 59.8909-18.4166 59.8252-18.3895C59.8677-18.323 59.9025-18.241 59.9566-18.1942C60.092-18.0968 60.2698-18.0461 60.3742-17.9212C60.583-17.6757 60.7609-17.3988 60.931-17.1181C60.9697-17.052 60.931-16.9039 60.8885-16.8181C60.8112-16.6854 60.6758-16.6777 60.6294-16.8335C60.4709-17.395 59.9218-17.4963 59.57-17.8277C59.454-17.9371 59.1833-17.9332 58.9977-17.8903C58.6458-17.8122 58.3017-17.6796 57.9614-17.5551C57.5052-17.395 57.1185-17.6096 56.7164-17.7693C56.554-17.8381 56.3757-17.8582 56.2021-17.8277C55.8541-17.7499 55.51-17.6173 55.1697-17.4963C54.725-17.3366 54.2804-17.1688 53.8396-16.9894C53.6346-16.9116 53.4761-16.9507 53.3176-17.0949C53.2136-17.2074 53.0852-17.2941 52.9425-17.3482C52.3857-17.4924 51.8444-17.8864 51.2412-17.4654C51.0981-17.3598 50.986-17.5083 50.9164-17.6486C50.8468-17.7851 50.8468-17.9058 50.9976-17.9761C51.4384-18.1749 51.8946-18.323 52.3509-18.0577C52.7376-17.8358 53.0778-17.9603 53.4452-18.1126C53.7893-18.2607 54.1528-18.3543 54.5085-18.4633C54.7869-18.5531 55.073-18.6234 55.3514-18.7131C55.5061-18.7638 55.5448-18.869 55.4094-18.9857C55.2084-19.1574 54.9918-19.3094 54.7908-19.4733C54.4814-19.7227 54.1837-19.9841 53.8744-20.2296C53.6153-20.4404 53.3408-20.6275 53.0817-20.8379C52.8188-21.0486 52.579-21.2864 52.3084-21.4813C52.1781-21.5853 52.018-21.6441 51.8521-21.6491C50.8622-21.5826 49.8724-21.45 48.8825-21.4152C47.7689-21.3722 46.6592-21.4152 45.5726-21.7543C45.1125-21.8946 44.6524-22.1054 44.1342-22.0037C43.751-21.9546 43.3949-21.779 43.1212-21.5049C42.603-20.9589 42.0772-20.4168 41.5436-19.8867C41.2536-19.594 40.9326-19.3291 40.6349-19.0445C40.3836-18.8025 40.1554-18.5337 39.8925-18.3037C39.6141-18.0523 39.2564-17.9089 38.8833-17.898C38.7402-17.8903 38.5391-18.1904 38.4579-18.405C38.2917-18.8299 38.5082-19.2042 38.5585-19.594C38.6049-19.9176 38.6977-20.2335 38.7905-20.5455C38.833-20.7091 38.7789-20.7679 38.6397-20.7404C38.5043-20.7211 38.369-20.6623 38.2375-20.6237C37.7697-20.4872 37.2937-20.3661 36.8336-20.2064C36.5532-20.1044 36.2837-19.9741 36.0293-19.8163C35.3256-19.3875 34.6257-18.9509 33.9336-18.5101C33.7982-18.4204 33.6822-18.2917 33.5624-18.1749C33.226-17.8435 32.8973-17.4963 32.5493-17.1688C32.2322-16.8687 31.892-16.5957 31.5749-16.2996C31.4357-16.1708 31.3313-16.0068 31.196-15.8704C31.0954-15.7652 30.964-15.6909 30.8596-15.5819C30.473-15.1763 30.0979-14.7591 29.7151-14.3457C29.4638-14.077 29.2125-13.8001 28.9534-13.5426C28.6441-13.2387 28.3077-12.9657 28.0022-12.6575C27.7972-12.4511 27.6348-12.2013 27.4338-11.9871C27.1206-11.6514 26.7803-11.3436 26.471-11.0003C26.1124-10.6028 25.7643-10.196 25.427-9.77996C25.1022-9.38247 24.8083-8.96139 24.4758-8.57124C24.236-8.29438 23.9537-8.05272 23.6946-7.79133C23.6444-7.74454 23.6057-7.68229 23.5593-7.62777C23.366-7.42477 23.1726-7.22602 22.9832-7.01954L22.2021-6.11087C22.1034-5.99526 21.9961-5.88699 21.8812-5.78723C21.5912-5.5417 21.3012-5.28805 20.9918-5.0777C20.7406-4.90447 20.4708-4.76063 20.1875-4.64889C20.0715-4.6021 19.8666-4.62499 19.7738-4.70727C19.6501-4.82405 19.681-5.00733 19.7777-5.17514C20.0445-5.62754 20.2958-6.08767 20.5433-6.55168C20.5742-6.6062 20.5587-6.68392 20.5626-6.75429C20.4853-6.74656 20.3886-6.76589 20.3229-6.73109C20.0638-6.58648 19.8125-6.41905 19.5495-6.27096C19.4838-6.2319 19.3987-6.18511 19.3253-6.19285C19.2325-6.20058 19.101-6.2319 19.0662-6.29802C19.0314-6.36453 19.0778-6.51649 19.1358-6.57874C19.3871-6.86333 19.6694-7.12472 19.9246-7.40157C20.1953-7.70162 20.4466-8.01753 20.7057-8.32957C21.2857-9.01977 21.8657-9.70611 22.4341-10.404C23.1688-11.3085 23.888-12.2365 24.6304-13.1331C25.253-13.8898 25.9026-14.6148 26.5406-15.3557C27-15.8812 27.464-16.4024 27.9326-16.9194C28.1104-17.1143 28.3115-17.2782 28.4778-17.4731C28.7137-17.7499 28.9263-18.05 29.1583-18.3307C29.3865-18.5998 29.6301-18.8535 29.8621-19.1222C30.1289-19.4265 30.4111-19.715 30.6509-20.0425C31.0336-20.5533 31.3777-21.0954 31.745-21.6216C32.093-22.117 32.4565-22.6042 32.8045-23.0995C33.0752-23.4815 33.3226-23.8794 33.5894-24.2614C33.7828-24.546 34.007-24.8113 34.1926-25.1036C34.4556-25.5131 34.703-25.9341 34.9428-26.3552C35.3488-27.0729 35.7432-27.794 36.1414-28.5113C36.5049-29.1667 36.8761-29.814 37.2241-30.4806C37.3946-30.8235 37.4835-31.2137 37.6537-31.5605C37.9591-32.1726 38.2994-32.7615 38.6203-33.3659C38.717-33.553 38.7827-33.7556 38.8717-33.9509C38.9915-34.2003 39.123-34.4497 39.2506-34.6995C39.56-35.3116 39.8693-35.9276 40.1902-36.5319C40.256-36.6529 40.3758-36.7426 40.4454-36.8594C40.5537-37.0543 40.6272-37.2689 40.7393-37.4599C41.126-38.1385 41.5242-38.8051 41.9148-39.4799C42.3904-40.3023 42.8582-41.1329 43.3377-41.9518C43.5581-42.33 43.8017-42.6927 44.0221-43.067C44.3314-43.5932 44.606-44.1392 44.9269-44.6577C45.2208-45.1333 45.5649-45.5741 45.8665-46.0459C46.2918-46.7086 46.7017-47.3833 47.1154-48.0578C47.4441-48.5959 47.7728-49.134 48.086-49.6799C48.3721-50.1673 48.6273-50.6742 48.925-51.1459C49.1648-51.5281 49.4702-51.8634 49.7254-52.2377C49.9729-52.5964 50.2088-52.9668 50.4176-53.3529C50.7192-53.9143 50.9937-54.4914 51.2798-55.0646C51.5041-55.5052 51.798-55.9224 51.9372-56.3942C52.1769-57.2013 52.7608-57.8056 53.0005-58.605C53.0894-58.8935 53.306-59.1391 53.48-59.3926C53.7584-59.802 54.0329-60.2153 54.3384-60.6013C54.7134-61.081 55.162-61.4631 55.6801-61.7828C56.0397-62.005 56.4148-62.1727 56.7937-62.3286C56.9174-62.3793 57.0605-62.3793 57.192-62.4066C57.6908-62.4924 58.178-62.6172 58.6922-62.625C59.1953-62.625 59.6906-62.501 60.1345-62.2624L60.5328-62.0674C61.2713-61.7009 62.0253-61.3617 62.7445-60.9484C63.2665-60.6442 63.7653-60.2699 64.2293-59.8683C64.6547-59.5018 65.0143-59.0495 65.4048-58.6401C65.4516-58.5878 65.51-58.5477 65.5749-58.5231C66.008-58.3905 66.4449-58.2814 66.8703-58.141C67.3227-57.9928 67.7712-57.8251 68.2159-57.6497C68.4015-57.5795 68.5639-57.3923 68.7843-57.5639C68.792-57.5717 68.8423-57.5288 68.8616-57.5015C68.966-57.3807 69.0549-57.2364 69.1748-57.1311C69.3681-56.9556 69.3797-56.7061 69.1477-56.5852C68.6567-56.324 68.1579-56.0822 67.6591-55.8405C67.3807-55.7079 67.0984-55.5871 66.82-55.4545C66.6499-55.3765 66.6112-55.2283 66.6421-55.0451C66.6576-54.971 66.6731-54.893 66.6576-54.8267C66.5339-54.3393 66.4256-53.8402 66.2632-53.3645C66.1085-52.9044 65.8843-52.4677 65.6948-52.0155C65.6608-51.9394 65.6422-51.8572 65.6407-51.7737C65.6484-51.6753 65.6333-51.5764 65.5966-51.485C65.5595-51.3936 65.5018-51.3122 65.428-51.2473C65.3507-51.1771 65.3352-51.0368 65.3081-50.9237C65.2463-50.6781 65.2037-50.4246 65.1496-50.1789C65.1225-50.0581 65.08-49.9411 65.0568-49.8202C64.9489-49.2206 64.9512-48.6059 65.0645-48.0072C65.1457-47.5509 65.2927-47.1104 65.4009-46.6618C65.4241-46.5841 65.4048-46.4905 65.428-46.4124C65.4705-46.2566 65.5285-46.1081 65.5827-45.9562C65.5981-45.9132 65.6213-45.8703 65.6291-45.8274C65.718-45.4415 65.8224-45.0595 65.8959-44.6693C65.9732-44.2641 66.0235-43.8508 66.1008-43.449C66.1781-43.0163 66.2941-42.5914 66.3637-42.1583C66.3947-41.9557 66.3637-41.745 66.3521-41.5346C66.3521-41.4956 66.3251-41.4488 66.3289-41.4059C66.3444-41.1526 66.3908-40.8989 66.3831-40.6495C66.3792-40.2049 66.3483-39.7567 66.3173-39.3159C66.2941-38.9884 66.2787-38.6609 66.2129-38.345C66.0815-37.7368 65.9191-37.1363 65.7721-36.528C65.7257-36.3409 65.6948-36.1538 65.6484-35.9705C65.5169-35.491 65.3932-35.0112 65.2463-34.5433C65.0529-33.9389 64.848-33.3466 64.5116-32.8006C64.2525-32.3911 64.094-31.9155 63.8852-31.4747C63.8078-31.3073 63.6996-31.1511 63.6184-30.9836C63.425-30.5741 63.2549-30.1492 63.0461-29.7475C62.8373-29.3457 62.5937-28.9637 62.3578-28.5778C62.1645-28.2657 61.975-27.9421 61.7508-27.6575C61.3989-27.2051 61.1785-26.6398 60.6913-26.3007C60.5869-26.2265 60.5173-26.0981 60.44-25.9887C60.0649-25.4817 59.5738-25.1233 59.0944-24.7448C58.8237-24.5305 58.5762-24.2808 58.2978-24.082C57.9498-23.8403 57.567-23.6416 57.2113-23.4115C57.1572-23.3725 57.1301-23.2673 57.1301-23.1892C57.1301-23.154 57.2268-23.1188 57.308-23.0643Z"/>
   <path class="monochrome-1 multicolor-1:tintColor hierarchical-1:tertiary SFSymbolsPreviewWireframe" d="M44.3636-80.5865C50.0861-80.5876 55.7528-79.4613 61.04-77.272C66.3271-75.0826 71.1312-71.8729 75.1774-67.8265C79.2239-63.7803 82.4335-58.9764 84.6232-53.6889C86.8124-48.4015 87.9387-42.7349 87.9376-37.0127C87.9376-12.9352 68.432 6.58658 44.3638 6.58658C20.2909 6.58658 0.7645-12.9399 0.7645-37.0127C0.7645-61.0781 20.2877-80.5865 44.3636-80.5865ZM44.3638-78.3365C21.53-78.3365 3.0145-59.8351 3.0145-37.0127C3.0145-14.1825 21.5336 4.33658 44.3638 4.33658C67.1889 4.33658 85.6876-14.1774 85.6876-37.0129C85.6886-42.4398 84.6205-47.8138 82.5443-52.828C80.4678-57.8425 77.4239-62.3983 73.5865-66.2355C69.7491-70.073 65.1932-73.1168 60.1791-75.1931C55.1651-77.2695 49.791-78.3376 44.3638-78.3365Z"/>
  </g>
 </g>
</svg>
