<?xml version="1.0" encoding="UTF-8"?>
<!--Generator: Apple Native CoreSVG 341-->
<!DOCTYPE svg
PUBLIC "-//W3C//DTD SVG 1.1//EN"
       "http://www.w3.org/Graphics/SVG/1.1/DTD/svg11.dtd">
<svg version="1.1" xmlns="http://www.w3.org/2000/svg" xmlns:xlink="http://www.w3.org/1999/xlink" viewBox="0 0 3300 2200">
 <!--glyph: "", point size: 100.0, font version: "20.0d10e1", template writer version: "138.0.0"-->
 <style>.monochrome-0 {-sfsymbols-motion-group:1;-sfsymbols-layer-tags:-408ab8c5e7effa75}
.monochrome-1 {-sfsymbols-motion-group:0;-sfsymbols-layer-tags:-408ab8c5e7effa75}

.multicolor-0:tintColor {-sfsymbols-motion-group:1;-sfsymbols-layer-tags:-408ab8c5e7effa75}
.multicolor-1:tintColor {-sfsymbols-motion-group:0;-sfsymbols-layer-tags:-408ab8c5e7effa75}

.hierarchical-0:primary {-sfsymbols-motion-group:1;-sfsymbols-layer-tags:-408ab8c5e7effa75}
.hierarchical-1:tertiary {-sfsymbols-motion-group:0;-sfsymbols-layer-tags:-408ab8c5e7effa75}

.SFSymbolsPreviewWireframe {fill:none;opacity:1.0;stroke:black;stroke-width:0.5}
</style>
 <g id="Notes">
  <rect height="2200" id="artboard" style="fill:white;opacity:1" width="3300" x="0" y="0"/>
  <line style="fill:none;stroke:black;opacity:1;stroke-width:0.5;" x1="263" x2="3036" y1="292" y2="292"/>
  <text style="stroke:none;fill:black;font-family:sans-serif;font-size:13;font-weight:bold;" transform="matrix(1 0 0 1 263 322)">Weight/Scale Variations</text>
  <text style="stroke:none;fill:black;font-family:sans-serif;font-size:13;text-anchor:middle;" transform="matrix(1 0 0 1 559.711 322)">Ultralight</text>
  <text style="stroke:none;fill:black;font-family:sans-serif;font-size:13;text-anchor:middle;" transform="matrix(1 0 0 1 856.422 322)">Thin</text>
  <text style="stroke:none;fill:black;font-family:sans-serif;font-size:13;text-anchor:middle;" transform="matrix(1 0 0 1 1153.13 322)">Light</text>
  <text style="stroke:none;fill:black;font-family:sans-serif;font-size:13;text-anchor:middle;" transform="matrix(1 0 0 1 1449.84 322)">Regular</text>
  <text style="stroke:none;fill:black;font-family:sans-serif;font-size:13;text-anchor:middle;" transform="matrix(1 0 0 1 1746.56 322)">Medium</text>
  <text style="stroke:none;fill:black;font-family:sans-serif;font-size:13;text-anchor:middle;" transform="matrix(1 0 0 1 2043.27 322)">Semibold</text>
  <text style="stroke:none;fill:black;font-family:sans-serif;font-size:13;text-anchor:middle;" transform="matrix(1 0 0 1 2339.98 322)">Bold</text>
  <text style="stroke:none;fill:black;font-family:sans-serif;font-size:13;text-anchor:middle;" transform="matrix(1 0 0 1 2636.69 322)">Heavy</text>
  <text style="stroke:none;fill:black;font-family:sans-serif;font-size:13;text-anchor:middle;" transform="matrix(1 0 0 1 2933.4 322)">Black</text>
  <line style="fill:none;stroke:black;opacity:1;stroke-width:0.5;" x1="263" x2="3036" y1="1903" y2="1903"/>
  <g transform="matrix(0.2 0 0 0.2 263 1933)">
   <path d="m46.2402 4.15039c21.7773 0 39.4531-17.627 39.4531-39.4043s-17.6758-39.4043-39.4531-39.4043c-21.7285 0-39.4043 17.627-39.4043 39.4043s17.6758 39.4043 39.4043 39.4043Zm0-7.42188c-17.6758 0-31.9336-14.3066-31.9336-31.9824s14.2578-31.9824 31.9336-31.9824 31.9824 14.3066 31.9824 31.9824-14.3066 31.9824-31.9824 31.9824Zm-17.9688-31.9824c0 2.14844 1.51367 3.61328 3.75977 3.61328h10.498v10.5957c0 2.19727 1.46484 3.71094 3.61328 3.71094 2.24609 0 3.71094-1.51367 3.71094-3.71094v-10.5957h10.5957c2.19727 0 3.71094-1.46484 3.71094-3.61328 0-2.19727-1.51367-3.71094-3.71094-3.71094h-10.5957v-10.5469c0-2.24609-1.46484-3.75977-3.71094-3.75977-2.14844 0-3.61328 1.51367-3.61328 3.75977v10.5469h-10.498c-2.24609 0-3.75977 1.51367-3.75977 3.71094Z"/>
  </g>
  <g transform="matrix(0.2 0 0 0.2 281.506 1933)">
   <path d="m58.5449 14.5508c27.4902 0 49.8047-22.3145 49.8047-49.8047s-22.3145-49.8047-49.8047-49.8047-49.8047 22.3145-49.8047 49.8047 22.3145 49.8047 49.8047 49.8047Zm0-8.30078c-22.9492 0-41.5039-18.5547-41.5039-41.5039s18.5547-41.5039 41.5039-41.5039 41.5039 18.5547 41.5039 41.5039-18.5547 41.5039-41.5039 41.5039Zm-22.6562-41.5039c0 2.39258 1.66016 4.00391 4.15039 4.00391h14.3555v14.4043c0 2.44141 1.66016 4.15039 4.05273 4.15039 2.44141 0 4.15039-1.66016 4.15039-4.15039v-14.4043h14.4043c2.44141 0 4.15039-1.61133 4.15039-4.00391 0-2.44141-1.70898-4.15039-4.15039-4.15039h-14.4043v-14.3555c0-2.49023-1.70898-4.19922-4.15039-4.19922-2.39258 0-4.05273 1.70898-4.05273 4.19922v14.3555h-14.3555c-2.49023 0-4.15039 1.70898-4.15039 4.15039Z"/>
  </g>
  <g transform="matrix(0.2 0 0 0.2 304.924 1933)">
   <path d="m74.8535 28.3203c35.1074 0 63.623-28.4668 63.623-63.5742s-28.5156-63.623-63.623-63.623-63.5742 28.5156-63.5742 63.623 28.4668 63.5742 63.5742 63.5742Zm0-9.08203c-30.127 0-54.4922-24.3652-54.4922-54.4922s24.3652-54.4922 54.4922-54.4922 54.4922 24.3652 54.4922 54.4922-24.3652 54.4922-54.4922 54.4922Zm-28.8574-54.4922c0 2.58789 1.85547 4.39453 4.58984 4.39453h19.7266v19.7754c0 2.68555 1.85547 4.58984 4.44336 4.58984 2.68555 0 4.54102-1.85547 4.54102-4.58984v-19.7754h19.7754c2.68555 0 4.58984-1.80664 4.58984-4.39453 0-2.73438-1.85547-4.58984-4.58984-4.58984h-19.7754v-19.7266c0-2.73438-1.85547-4.63867-4.54102-4.63867-2.58789 0-4.44336 1.9043-4.44336 4.63867v19.7266h-19.7266c-2.73438 0-4.58984 1.85547-4.58984 4.58984Z"/>
  </g>
  <text style="stroke:none;fill:black;font-family:sans-serif;font-size:13;font-weight:bold;" transform="matrix(1 0 0 1 263 1953)">Design Variations</text>
  <text style="stroke:none;fill:black;font-family:sans-serif;font-size:13;" transform="matrix(1 0 0 1 263 1971)">Symbols are supported in up to nine weights and three scales.</text>
  <text style="stroke:none;fill:black;font-family:sans-serif;font-size:13;" transform="matrix(1 0 0 1 263 1989)">For optimal layout with text and other symbols, vertically align</text>
  <text style="stroke:none;fill:black;font-family:sans-serif;font-size:13;" transform="matrix(1 0 0 1 263 2007)">symbols with the adjacent text.</text>
  <line style="fill:none;stroke:#00AEEF;stroke-width:0.5;opacity:1.0;" x1="776" x2="776" y1="1919" y2="1933"/>
  <g transform="matrix(0.2 0 0 0.2 776 1933)">
   <path d="m16.5527 0.78125c2.58789 0 3.85742-0.976562 4.78516-3.71094l6.29883-17.2363h28.8086l6.29883 17.2363c0.927734 2.73438 2.19727 3.71094 4.73633 3.71094 2.58789 0 4.24805-1.5625 4.24805-4.00391 0-0.830078-0.146484-1.61133-0.537109-2.63672l-22.9004-60.9863c-1.12305-2.97852-3.125-4.49219-6.25-4.49219-3.02734 0-5.07812 1.46484-6.15234 4.44336l-22.9004 61.084c-0.390625 1.02539-0.537109 1.80664-0.537109 2.63672 0 2.44141 1.5625 3.95508 4.10156 3.95508Zm13.4766-28.3691 11.8652-32.8613h0.244141l11.8652 32.8613Z"/>
  </g>
  <line style="fill:none;stroke:#00AEEF;stroke-width:0.5;opacity:1.0;" x1="792.836" x2="792.836" y1="1919" y2="1933"/>
  <text style="stroke:none;fill:black;font-family:sans-serif;font-size:13;font-weight:bold;" transform="matrix(1 0 0 1 776 1953)">Margins</text>
  <text style="stroke:none;fill:black;font-family:sans-serif;font-size:13;" transform="matrix(1 0 0 1 776 1971)">Leading and trailing margins on the left and right side of each symbol</text>
  <text style="stroke:none;fill:black;font-family:sans-serif;font-size:13;" transform="matrix(1 0 0 1 776 1989)">can be adjusted by modifying the x-location of the margin guidelines.</text>
  <text style="stroke:none;fill:black;font-family:sans-serif;font-size:13;" transform="matrix(1 0 0 1 776 2007)">Modifications are automatically applied proportionally to all</text>
  <text style="stroke:none;fill:black;font-family:sans-serif;font-size:13;" transform="matrix(1 0 0 1 776 2025)">scales and weights.</text>
  <g transform="matrix(0.2 0 0 0.2 1289 1933)">
   <path d="m14.209 9.32617 8.49609 8.54492c4.29688 4.3457 9.22852 4.05273 13.8672-1.07422l53.4668-58.9355-4.83398-4.88281-53.0762 58.3984c-1.75781 2.00195-3.41797 2.49023-5.76172 0.146484l-5.85938-5.81055c-2.34375-2.29492-1.80664-4.00391 0.195312-5.81055l57.373-54.0039-4.88281-4.83398-57.959 54.4434c-4.93164 4.58984-5.32227 9.47266-1.02539 13.8184Zm32.0801-90.9668c-2.09961 2.05078-2.24609 4.93164-1.07422 6.88477 1.17188 1.80664 3.4668 2.97852 6.68945 2.14844 7.32422-1.70898 14.9414-2.00195 22.0703 2.68555l-2.92969 7.27539c-1.70898 4.15039-0.830078 7.08008 1.85547 9.81445l11.4746 11.5723c2.44141 2.44141 4.49219 2.53906 7.32422 2.05078l5.32227-0.976562 3.32031 3.36914-0.195312 2.7832c-0.195312 2.49023 0.439453 4.39453 2.88086 6.78711l3.80859 3.71094c2.39258 2.39258 5.46875 2.53906 7.8125 0.195312l14.5508-14.5996c2.34375-2.34375 2.24609-5.32227-0.146484-7.71484l-3.85742-3.80859c-2.39258-2.39258-4.24805-3.17383-6.64062-2.97852l-2.88086 0.244141-3.22266-3.17383 1.2207-5.61523c0.634766-2.83203-0.146484-5.0293-3.07617-7.95898l-10.9863-10.9375c-16.6992-16.6016-38.8672-16.2109-53.3203-1.75781Zm7.4707 1.85547c12.1582-8.88672 28.6133-7.37305 39.7461 3.75977l12.1582 12.0605c1.17188 1.17188 1.36719 2.09961 1.02539 3.80859l-1.61133 7.42188 7.51953 7.42188 4.93164-0.292969c1.26953-0.0488281 1.66016 0.0488281 2.63672 1.02539l2.88086 2.88086-12.207 12.207-2.88086-2.88086c-0.976562-0.976562-1.12305-1.36719-1.07422-2.68555l0.341797-4.88281-7.4707-7.42188-7.61719 1.26953c-1.61133 0.341797-2.34375 0.195312-3.56445-0.976562l-10.0098-10.0098c-1.26953-1.17188-1.41602-2.00195-0.634766-3.85742l4.39453-10.4492c-7.8125-7.27539-17.9688-10.4004-28.125-7.42188-0.78125 0.195312-1.07422-0.439453-0.439453-0.976562Z"/>
  </g>
  <text style="stroke:none;fill:black;font-family:sans-serif;font-size:13;font-weight:bold;" transform="matrix(1 0 0 1 1289 1953)">Exporting</text>
  <text style="stroke:none;fill:black;font-family:sans-serif;font-size:13;" transform="matrix(1 0 0 1 1289 1971)">Symbols should be outlined when exporting to ensure the</text>
  <text style="stroke:none;fill:black;font-family:sans-serif;font-size:13;" transform="matrix(1 0 0 1 1289 1989)">design is preserved when submitting to Xcode.</text>
  <text id="template-version" style="stroke:none;fill:black;font-family:sans-serif;font-size:13;text-anchor:end;" transform="matrix(1 0 0 1 3036 1933)">Template v.6.0</text>
  <text style="stroke:none;fill:black;font-family:sans-serif;font-size:13;text-anchor:end;" transform="matrix(1 0 0 1 3036 1951)">Requires Xcode 16 or greater</text>
  <text id="descriptive-name" style="stroke:none;fill:black;font-family:sans-serif;font-size:13;text-anchor:end;" transform="matrix(1 0 0 1 3036 1969)">Generated from filternahrung-5</text>
  <text style="stroke:none;fill:black;font-family:sans-serif;font-size:13;text-anchor:end;" transform="matrix(1 0 0 1 3036 1987)">Typeset at 100.0 points</text>
  <text style="stroke:none;fill:black;font-family:sans-serif;font-size:13;" transform="matrix(1 0 0 1 263 726)">Small</text>
  <text style="stroke:none;fill:black;font-family:sans-serif;font-size:13;" transform="matrix(1 0 0 1 263 1156)">Medium</text>
  <text style="stroke:none;fill:black;font-family:sans-serif;font-size:13;" transform="matrix(1 0 0 1 263 1586)">Large</text>
 </g>
 <g id="Guides">
  <g id="H-reference" style="fill:#27AAE1;stroke:none;" transform="matrix(1 0 0 1 339 696)">
   <path d="M0.993654 0L3.63775 0L29.3281-67.1323L30.0303-67.1323L30.0303-70.459L28.1226-70.459ZM11.6885-24.4799L46.9815-24.4799L46.2315-26.7285L12.4385-26.7285ZM55.1196 0L57.7637 0L30.6382-70.459L29.4326-70.459L29.4326-67.1323Z"/>
  </g>
  <line id="Baseline-S" style="fill:none;stroke:#27AAE1;opacity:1;stroke-width:0.5;" x1="263" x2="3036" y1="696" y2="696"/>
  <line id="Capline-S" style="fill:none;stroke:#27AAE1;opacity:1;stroke-width:0.5;" x1="263" x2="3036" y1="625.541" y2="625.541"/>
  <g id="H-reference" style="fill:#27AAE1;stroke:none;" transform="matrix(1 0 0 1 339 1126)">
   <path d="M0.993654 0L3.63775 0L29.3281-67.1323L30.0303-67.1323L30.0303-70.459L28.1226-70.459ZM11.6885-24.4799L46.9815-24.4799L46.2315-26.7285L12.4385-26.7285ZM55.1196 0L57.7637 0L30.6382-70.459L29.4326-70.459L29.4326-67.1323Z"/>
  </g>
  <line id="Baseline-M" style="fill:none;stroke:#27AAE1;opacity:1;stroke-width:0.5;" x1="263" x2="3036" y1="1126" y2="1126"/>
  <line id="Capline-M" style="fill:none;stroke:#27AAE1;opacity:1;stroke-width:0.5;" x1="263" x2="3036" y1="1055.54" y2="1055.54"/>
  <g id="H-reference" style="fill:#27AAE1;stroke:none;" transform="matrix(1 0 0 1 339 1556)">
   <path d="M0.993654 0L3.63775 0L29.3281-67.1323L30.0303-67.1323L30.0303-70.459L28.1226-70.459ZM11.6885-24.4799L46.9815-24.4799L46.2315-26.7285L12.4385-26.7285ZM55.1196 0L57.7637 0L30.6382-70.459L29.4326-70.459L29.4326-67.1323Z"/>
  </g>
  <line id="Baseline-L" style="fill:none;stroke:#27AAE1;opacity:1;stroke-width:0.5;" x1="263" x2="3036" y1="1556" y2="1556"/>
  <line id="Capline-L" style="fill:none;stroke:#27AAE1;opacity:1;stroke-width:0.5;" x1="263" x2="3036" y1="1485.54" y2="1485.54"/>
  <line id="right-margin-Black-S" style="fill:none;stroke:#00AEEF;stroke-width:0.5;opacity:1.0;" x1="2982.23" x2="2982.23" y1="600.785" y2="720.121"/>
  <line id="left-margin-Black-S" style="fill:none;stroke:#00AEEF;stroke-width:0.5;opacity:1.0;" x1="2884.57" x2="2884.57" y1="600.785" y2="720.121"/>
  <line id="right-margin-Regular-S" style="fill:none;stroke:#00AEEF;stroke-width:0.5;opacity:1.0;" x1="1496.11" x2="1496.11" y1="600.785" y2="720.121"/>
  <line id="left-margin-Regular-S" style="fill:none;stroke:#00AEEF;stroke-width:0.5;opacity:1.0;" x1="1403.58" x2="1403.58" y1="600.785" y2="720.121"/>
  <line id="right-margin-Ultralight-S" style="fill:none;stroke:#00AEEF;stroke-width:0.5;opacity:1.0;" x1="603.773" x2="603.773" y1="600.785" y2="720.121"/>
  <line id="left-margin-Ultralight-S" style="fill:none;stroke:#00AEEF;stroke-width:0.5;opacity:1.0;" x1="515.649" x2="515.649" y1="600.785" y2="720.121"/>
 </g>
 <g id="Symbols">
  <g id="Black-S" transform="matrix(1 0 0 1 2884.57 696)">
   <path class="monochrome-0 multicolor-0:tintColor hierarchical-0:primary SFSymbolsPreviewWireframe" d="M48.6896-57C51.1657-57 53.5405-56.0163 55.2916-54.2653C57.0424-52.5143 58.0262-50.1395 58.0262-47.6635L58.0262-45.0096C58.0262-44.2502 57.4105-43.6346 56.6512-43.6346C55.8918-43.6346 51.43-44.2406 51.43-45L51.43-47.6538C51.43-48.5882 51.1493-50 50.683-50.3173C50.2167-50.6346 49.9066-51 48.43-51C46.9534-51 46.782-50.6346 46.356-50.3173C45.93-50 45.43-48.6194 45.43-47.6538L45.43-45C45.43-44.2406 41.4875-43.6346 40.7281-43.6346C39.9687-43.6346 39.3531-44.2502 39.3531-45.0096L39.3531-47.6635C39.3531-50.1395 40.3368-52.5143 42.0877-54.2654C43.8388-56.0163 46.2135-57 48.6896-57ZM59.305-46.3847C59.7645-46.3847 60.1937-46.1551 60.4487-45.7728C62.1659-43.1996 63.1615-40.2128 63.3338-37.0481L63.3338-29.0865C63.3338-25.2027 61.7911-21.478 59.0448-18.7313C56.2982-15.9851 52.5735-14.4423 48.6896-14.4423C44.8058-14.4423 41.081-15.9851 38.3343-18.7314C35.5882-21.4779 34.0454-25.2027 34.0454-29.0865L34.0475-37.1238C34.2178-40.2128 35.2134-43.1996 36.9305-45.7728L36.9564-45.8076L36.9794-45.8416L36.9954-45.8596L37.0144-45.8858L37.0354-45.9086L37.059-45.937L37.0864-45.9646L37.1076-45.9878L37.1274-46.0056L37.1468-46.0248L37.1734-46.0466L37.2089-46.0786L37.2314-46.0956L37.2422-46.1044L37.2724-46.1246L37.3175-46.1581L37.3344-46.1676L37.3446-46.1753L37.3764-46.1926L37.4323-46.2259L37.4454-46.2326L37.5064-46.2606L37.5526-46.282L37.5604-46.2846C37.6465-46.3195 37.7284-46.3435 37.8129-46.3598L37.8714-46.3676L37.9357-46.3777C37.9795-46.3821 38.0235-46.3847 38.0676-46.3847L38.0704-46.3847L59.305-46.3847ZM56.0764-40.4135L41.3022-40.4135L41.2282-40.288C40.4258-38.8919 39.9371-37.3378 39.7996-35.7682L39.7756-35.4316L39.7756-29.4098C39.7756-27.0238 40.7147-24.7356 42.3863-23.0484C44.0583-21.3613 46.3257-20.4135 48.6899-20.4135C51.0541-20.4135 53.3215-21.3613 54.9933-23.0483C56.665-24.7356 57.6042-27.0238 57.6042-29.4098L57.6058-35.3744C57.5103-37.1211 57.0039-38.8163 56.1324-40.3211L56.0764-40.4135ZM35.4204-35.7693C36.1798-35.7693 36.7954-35.1537 36.7954-34.3943C36.7954-33.6349 36.1798-33.0193 35.4204-33.0193L24.805-33.0193C24.0456-33.0193 23.43-33.6349 23.43-34.3943C23.43-35.1537 24.0456-35.7693 24.805-35.7693L35.4204-35.7693ZM72.5742-35.7693C73.3336-35.7693 73.9492-35.1537 73.9492-34.3943C73.9492-33.6349 73.3336-33.0193 72.5742-33.0193L61.9588-33.0193C61.1995-33.0193 60.5838-33.6349 60.5838-34.3943C60.5838-35.1537 61.1995-35.7693 61.9588-35.7693L72.5742-35.7693ZM49.1896-33.1154C50.2251-33.1154 51.0646-32.4998 51.0646-31.7404L51.0646-15.8173C51.0646-15.0579 50.2251-14.4423 49.1896-14.4423C48.154-14.4423 47.3146-15.0579 47.3146-15.8173L47.3146-31.7404C47.3146-32.4998 48.154-33.1154 49.1896-33.1154ZM35.6444-24.9595C36.2964-25.3487 37.1406-25.1357 37.5298-24.4837C37.9191-23.8317 37.7061-22.9875 37.0541-22.5982L28.1637-17.2905C27.5117-16.9013 26.6675-17.1143 26.2782-17.7663C25.889-18.4183 26.102-19.2625 26.754-19.6518L35.6444-24.9595ZM59.8494-24.4837C60.2387-25.1357 61.0828-25.3487 61.7348-24.9595L70.6252-19.6518C71.2773-19.2625 71.4903-18.4183 71.101-17.7663C70.7117-17.1143 69.8676-16.9013 69.2155-17.2905L60.3252-22.5982C59.6731-22.9875 59.4601-23.8317 59.8494-24.4837ZM26.3007-51.0585C26.7101-51.6981 27.5604-51.8848 28.2-51.4754L38.152-45.1062C38.7916-44.6968 38.9782-43.8465 38.5689-43.2069C38.1595-42.5673 37.3092-42.3806 36.6696-42.79L26.7176-49.1592C26.078-49.5685 25.8914-50.4189 26.3007-51.0585ZM69.1792-51.4754C69.8188-51.8848 70.6692-51.6981 71.0785-51.0585C71.4879-50.4189 71.3012-49.5685 70.6616-49.1592L60.7097-42.79C60.07-42.3806 59.2197-42.5673 58.8103-43.2069C58.401-43.8465 58.5876-44.6968 59.2273-45.1062L69.1792-51.4754Z"/>
   <path class="monochrome-1 multicolor-1:tintColor hierarchical-1:tertiary SFSymbolsPreviewWireframe" d="M48.9411-84C55.3091-84.0013 61.615-82.7479 67.4985-80.3116C73.382-77.8752 78.7279-74.3036 83.2305-69.8009C87.7334-65.2983 91.305-59.9524 93.7418-54.0682C96.1779-48.1846 97.4312-41.8789 97.43-35.5124C97.43-8.72255 75.7254 13 48.9424 13C22.156 13 0.43-8.726 0.43-35.5124C0.43-62.2926 22.1539-84 48.9411-84ZM48.9424-70C29.8835-70 14.43-54.5582 14.43-35.5124C14.43-16.458 29.888-0.999999 48.9424-0.999999C67.9909-0.999999 83.43-16.4519 83.43-35.5138C83.4309-40.0428 82.5395-44.5276 80.8069-48.7121C79.0739-52.8969 76.5337-56.6989 73.3311-59.9013C70.1287-63.1038 66.3266-65.644 62.1422-67.3767C57.9578-69.1095 53.4729-70.0009 48.9424-70Z"/>
  </g>
  <g id="Regular-S" transform="matrix(1 0 0 1 1403.58 696)">
   <path class="monochrome-0 multicolor-0:tintColor hierarchical-0:primary SFSymbolsPreviewWireframe" d="M46.6796-57C49.1557-57 51.5305-56.0163 53.2816-54.2653C55.0324-52.5143 56.0162-50.1395 56.0162-47.6635L56.0162-45.0096C56.0162-44.2502 55.4005-43.6346 54.6412-43.6346C53.8818-43.6346 52.2662-44.2502 52.2662-45.0096L52.2662-47.6635C52.2662-49.4102 51.6551-50.7647 50.42-52C49.1846-53.2353 48.4264-53.25 46.6796-53.25C44.9329-53.25 43.6553-53.2351 42.42-52C41.1848-50.7646 41.0931-49.4102 41.0931-47.6635L41.0931-45.0096C41.0931-44.2502 39.4775-43.6346 38.7181-43.6346C37.9587-43.6346 37.3431-44.2502 37.3431-45.0096L37.3431-47.6635C37.3431-50.1395 38.3268-52.5143 40.0777-54.2654C41.8288-56.0163 44.2035-57 46.6796-57ZM57.295-46.3847C57.7545-46.3847 58.1837-46.1551 58.4387-45.7728C60.1559-43.1996 61.1515-40.2128 61.3238-37.0481L61.3238-29.0865C61.3238-25.2027 59.7811-21.478 57.0348-18.7313C54.2882-15.9851 50.5635-14.4423 46.6796-14.4423C42.7958-14.4423 39.071-15.9851 36.3243-18.7314C33.5782-21.4779 32.0354-25.2027 32.0354-29.0865L32.0375-37.1238C32.2078-40.2128 33.2034-43.1996 34.9205-45.7728L34.9464-45.8076L34.9694-45.8416L34.9854-45.8596L35.0044-45.8858L35.0254-45.9086L35.049-45.937L35.0764-45.9646L35.0976-45.9878L35.1174-46.0056L35.1368-46.0248L35.1634-46.0466L35.1989-46.0786L35.2214-46.0956L35.2322-46.1044L35.2624-46.1246L35.3075-46.1581L35.3244-46.1676L35.3346-46.1753L35.3664-46.1926L35.4223-46.2259L35.4354-46.2326L35.4964-46.2606L35.5426-46.282L35.5504-46.2846C35.6365-46.3195 35.7184-46.3435 35.8029-46.3598L35.8614-46.3676L35.9257-46.3777C35.9695-46.3821 36.0135-46.3847 36.0576-46.3847L36.0604-46.3847L57.295-46.3847ZM55.7069-42.6346L37.6511-42.6346L37.5607-42.4813C36.58-40.7751 35.9828-38.8758 35.8148-36.9575L35.7854-36.5463L35.7854-29.1869C35.7854-26.2709 36.9331-23.4744 38.976-21.4125C41.0194-19.3506 43.7903-18.1923 46.6797-18.1923C49.5691-18.1923 52.3401-19.3506 54.3832-21.4123C56.4263-23.4744 57.574-26.2709 57.574-29.1869L57.5759-36.4763C57.4593-38.6109 56.8404-40.6827 55.7753-42.5217L55.7069-42.6346ZM33.4104-35.7693C34.1698-35.7693 34.7854-35.1537 34.7854-34.3943C34.7854-33.6349 34.1698-33.0193 33.4104-33.0193L22.795-33.0193C22.0356-33.0193 21.42-33.6349 21.42-34.3943C21.42-35.1537 22.0356-35.7693 22.795-35.7693L33.4104-35.7693ZM70.5642-35.7693C71.3236-35.7693 71.9392-35.1537 71.9392-34.3943C71.9392-33.6349 71.3236-33.0193 70.5642-33.0193L59.9488-33.0193C59.1895-33.0193 58.5738-33.6349 58.5738-34.3943C58.5738-35.1537 59.1895-35.7693 59.9488-35.7693L70.5642-35.7693ZM47.1796-33.1154C48.2151-33.1154 49.0546-32.4998 49.0546-31.7404L49.0546-15.8173C49.0546-15.0579 48.2151-14.4423 47.1796-14.4423C46.144-14.4423 45.3046-15.0579 45.3046-15.8173L45.3046-31.7404C45.3046-32.4998 46.144-33.1154 47.1796-33.1154ZM33.6344-24.9595C34.2864-25.3487 35.1306-25.1357 35.5198-24.4837C35.9091-23.8317 35.6961-22.9875 35.0441-22.5982L26.1537-17.2905C25.5017-16.9013 24.6575-17.1143 24.2682-17.7663C23.879-18.4183 24.092-19.2625 24.744-19.6518L33.6344-24.9595ZM57.8394-24.4837C58.2287-25.1357 59.0728-25.3487 59.7248-24.9595L68.6152-19.6518C69.2673-19.2625 69.4803-18.4183 69.091-17.7663C68.7017-17.1143 67.8576-16.9013 67.2055-17.2905L58.3152-22.5982C57.6631-22.9875 57.4501-23.8317 57.8394-24.4837ZM24.2907-51.0585C24.7001-51.6981 25.5504-51.8848 26.19-51.4754L36.142-45.1062C36.7816-44.6968 36.9682-43.8465 36.5589-43.2069C36.1495-42.5673 35.2992-42.3806 34.6596-42.79L24.7076-49.1592C24.068-49.5685 23.8814-50.4189 24.2907-51.0585ZM67.1692-51.4754C67.8088-51.8848 68.6592-51.6981 69.0685-51.0585C69.4779-50.4189 69.2912-49.5685 68.6516-49.1592L58.6997-42.79C58.06-42.3806 57.2097-42.5673 56.8003-43.2069C56.391-43.8465 56.5776-44.6968 57.2173-45.1062L67.1692-51.4754Z"/>
   <path class="monochrome-1 multicolor-1:tintColor hierarchical-1:tertiary SFSymbolsPreviewWireframe" d="M46.4321-81.8365C52.4502-81.8377 58.4096-80.6532 63.9698-78.3508C69.53-76.0483 74.5822-72.6729 78.8374-68.4176C83.0928-64.1624 86.4682-59.1103 88.771-53.5496C91.0733-47.9892 92.2577-42.03 92.2566-36.0127C92.2566-10.693 71.744 9.83658 46.4328 9.83658C21.1173 9.83658 0.5835-10.6972 0.5835-36.0127C0.5835-61.3211 21.1145-81.8365 46.4321-81.8365ZM46.4328-75.0865C24.8413-75.0865 7.3335-57.592 7.3335-36.0127C7.3335-14.4252 24.8452 3.08658 46.4328 3.08658C68.0148 3.08658 85.5066-14.4197 85.5066-36.0133C85.5076-41.1447 84.4976-46.226 82.5345-50.9672C80.571-55.7085 77.693-60.0162 74.0644-63.6446C70.4361-67.273 66.1283-70.1511 61.3873-72.1143C56.6463-74.0776 51.5649-75.0875 46.4328-75.0865Z"/>
  </g>
  <g id="Ultralight-S" transform="matrix(1 0 0 1 515.649 696)">
   <path class="monochrome-0 multicolor-0:tintColor hierarchical-0:primary SFSymbolsPreviewWireframe" d="M44.8126-56.4903C47.2887-56.4903 49.6635-55.5066 51.4146-53.7556C53.1654-52.0046 54.1492-49.6298 54.1492-47.1538L54.1492-44.4999C54.1492-43.7405 53.5335-43.1249 52.7742-43.1249C52.0148-43.1249 51.3992-43.7405 51.3992-44.4999L51.3992-47.1538C51.3992-48.9005 50.7052-50.5758 49.4701-51.8111C48.2347-53.0464 46.5594-53.7403 44.8126-53.7403C43.0659-53.7403 41.3905-53.0464 40.1553-51.8112C38.9201-50.5758 38.2261-48.9005 38.2261-47.1538L38.2261-44.4999C38.2261-43.7405 37.6105-43.1249 36.8511-43.1249C36.0917-43.1249 35.4761-43.7405 35.4761-44.4999L35.4761-47.1538C35.4761-49.6298 36.4598-52.0046 38.2107-53.7557C39.9618-55.5066 42.3365-56.4903 44.8126-56.4903ZM55.428-45.875C55.8875-45.875 56.3167-45.6454 56.5717-45.2631C58.2889-42.6899 59.2845-39.7031 59.4568-36.5384L59.4568-28.5768C59.4568-24.693 57.9141-20.9683 55.1678-18.2216C52.4212-15.4754 48.6965-13.9326 44.8126-13.9326C40.9288-13.9326 37.204-15.4754 34.4573-18.2217C31.7112-20.9682 30.1684-24.693 30.1684-28.5768L30.1705-36.6141C30.3408-39.7031 31.3364-42.6899 33.0535-45.2631L33.0794-45.2979L33.1024-45.3319L33.1184-45.3499L33.1374-45.3761L33.1584-45.3989L33.182-45.4273L33.2094-45.4549L33.2306-45.4781L33.2504-45.4959L33.2698-45.5151L33.2964-45.5369L33.3319-45.5689L33.3544-45.5859L33.3652-45.5947L33.3954-45.6149L33.4405-45.6484L33.4574-45.6579L33.4676-45.6656L33.4994-45.6829L33.5553-45.7162L33.5684-45.7229L33.6294-45.7509L33.6756-45.7723L33.6834-45.7749C33.7695-45.8098 33.8514-45.8338 33.9359-45.8501L33.9944-45.8579L34.0587-45.868C34.1025-45.8724 34.1465-45.875 34.1906-45.875L34.1934-45.875L55.428-45.875ZM54.6684-43.1249L34.9554-43.1249L34.8566-42.959C33.7859-41.1133 33.1339-39.0585 32.9505-36.9833L32.9184-36.5384L32.9184-28.5768C32.9184-25.4223 34.1715-22.3969 36.4019-20.1662C38.6327-17.9357 41.6581-16.6826 44.8126-16.6826C47.9672-16.6826 50.9925-17.9357 53.2232-20.1661C55.4538-22.397 56.7068-25.4223 56.7068-28.5768L56.7089-36.4627C56.5816-38.772 55.9059-41.0133 54.7431-43.0028L54.6684-43.1249ZM31.5434-35.2596C32.3028-35.2596 32.9184-34.644 32.9184-33.8846C32.9184-33.1252 32.3028-32.5096 31.5434-32.5096L20.928-32.5096C20.1686-32.5096 19.553-33.1252 19.553-33.8846C19.553-34.644 20.1686-35.2596 20.928-35.2596L31.5434-35.2596ZM68.6972-35.2596C69.4566-35.2596 70.0722-34.644 70.0722-33.8846C70.0722-33.1252 69.4566-32.5096 68.6972-32.5096L58.0818-32.5096C57.3225-32.5096 56.7068-33.1252 56.7068-33.8846C56.7068-34.644 57.3225-35.2596 58.0818-35.2596L68.6972-35.2596ZM44.8126-32.6057C45.572-32.6057 46.1876-31.9901 46.1876-31.2307L46.1876-15.3076C46.1876-14.5482 45.572-13.9326 44.8126-13.9326C44.0532-13.9326 43.4376-14.5482 43.4376-15.3076L43.4376-31.2307C43.4376-31.9901 44.0532-32.6057 44.8126-32.6057ZM31.7674-24.4498C32.4194-24.839 33.2636-24.626 33.6528-23.974C34.0421-23.322 33.8291-22.4778 33.1771-22.0885L24.2867-16.7808C23.6347-16.3916 22.7905-16.6046 22.4012-17.2566C22.012-17.9086 22.225-18.7528 22.877-19.1421L31.7674-24.4498ZM55.9724-23.974C56.3617-24.626 57.2058-24.839 57.8578-24.4498L66.7482-19.1421C67.4003-18.7528 67.6133-17.9086 67.224-17.2566C66.8347-16.6046 65.9906-16.3916 65.3385-16.7808L56.4482-22.0885C55.7961-22.4778 55.5831-23.322 55.9724-23.974ZM22.4237-50.5488C22.8331-51.1884 23.6834-51.3751 24.323-50.9657L34.275-44.5965C34.9146-44.1871 35.1012-43.3368 34.6919-42.6972C34.2825-42.0576 33.4322-41.8709 32.7926-42.2803L22.8406-48.6495C22.201-49.0588 22.0144-49.9092 22.4237-50.5488ZM65.3022-50.9657C65.9418-51.3751 66.7922-51.1884 67.2015-50.5488C67.6109-49.9092 67.4242-49.0588 66.7846-48.6495L56.8327-42.2803C56.193-41.8709 55.3427-42.0576 54.9333-42.6972C54.524-43.3368 54.7106-44.1871 55.3503-44.5965L65.3022-50.9657Z"/>
   <path class="monochrome-1 multicolor-1:tintColor hierarchical-1:tertiary SFSymbolsPreviewWireframe" d="M44.3636-80.5865C50.0861-80.5876 55.7528-79.4613 61.04-77.272C66.3271-75.0826 71.1312-71.8729 75.1774-67.8265C79.2239-63.7803 82.4335-58.9764 84.6232-53.6889C86.8124-48.4015 87.9387-42.7349 87.9376-37.0127C87.9376-12.9352 68.432 6.58658 44.3638 6.58658C20.2909 6.58658 0.7645-12.9399 0.7645-37.0127C0.7645-61.0781 20.2877-80.5865 44.3636-80.5865ZM44.3638-78.3365C21.53-78.3365 3.0145-59.8351 3.0145-37.0127C3.0145-14.1825 21.5336 4.33658 44.3638 4.33658C67.1889 4.33658 85.6876-14.1774 85.6876-37.0129C85.6886-42.4398 84.6205-47.8138 82.5443-52.828C80.4678-57.8425 77.4239-62.3983 73.5865-66.2355C69.7491-70.073 65.1932-73.1168 60.1791-75.1931C55.1651-77.2695 49.791-78.3376 44.3638-78.3365Z"/>
  </g>
 </g>
</svg>
