<?xml version="1.0" encoding="UTF-8"?>
<svg width="3300px" height="2200px" viewBox="0 0 3300 2200" version="1.1" xmlns="http://www.w3.org/2000/svg" xmlns:xlink="http://www.w3.org/1999/xlink">
    <!-- Generator: Sketch 59.1 (86144) - https://sketch.com -->
    <title>filter</title>
    <desc>Created with Sketch.</desc>
    <g id="Page-1" stroke="none" stroke-width="1" fill="none" fill-rule="evenodd">
        <g id="filter">
            <g id="Notes">
                <rect id="artboard" fill="#FFFFFF" fill-rule="nonzero" x="0" y="0" width="3300" height="2200"></rect>
                <line x1="263" y1="292" x2="3036" y2="292" id="Path" stroke="#000000" stroke-width="0.5"></line>
                <text id="Weight/Scale-Variations" fill="#000000" font-family="Helvetica-Bold, Helvetica" font-size="13" font-weight="bold">
                    <tspan x="263" y="322">Weight/Scale Variations</tspan>
                </text>
                <text id="Ultralight" fill="#000000" font-family="Helvetica" font-size="13" font-weight="normal">
                    <tspan x="533.711" y="322">Ultralight</tspan>
                </text>
                <text id="Thin" fill="#000000" font-family="Helvetica" font-size="13" font-weight="normal">
                    <tspan x="843.422" y="322">Thin</tspan>
                </text>
                <text id="Light" fill="#000000" font-family="Helvetica" font-size="13" font-weight="normal">
                    <tspan x="1138.63" y="322">Light</tspan>
                </text>
                <text id="Regular" fill="#000000" font-family="Helvetica" font-size="13" font-weight="normal">
                    <tspan x="1426.84" y="322">Regular</tspan>
                </text>
                <text id="Medium" fill="#000000" font-family="Helvetica" font-size="13" font-weight="normal">
                    <tspan x="1723.06" y="322">Medium</tspan>
                </text>
                <text id="Semibold" fill="#000000" font-family="Helvetica" font-size="13" font-weight="normal">
                    <tspan x="2015.77" y="322">Semibold</tspan>
                </text>
                <text id="Bold" fill="#000000" font-family="Helvetica" font-size="13" font-weight="normal">
                    <tspan x="2326.48" y="322">Bold</tspan>
                </text>
                <text id="Heavy" fill="#000000" font-family="Helvetica" font-size="13" font-weight="normal">
                    <tspan x="2618.19" y="322">Heavy</tspan>
                </text>
                <text id="Black" fill="#000000" font-family="Helvetica" font-size="13" font-weight="normal">
                    <tspan x="2917.4" y="322">Black</tspan>
                </text>
                <line x1="263" y1="1903" x2="3036" y2="1903" id="Path" stroke="#000000" stroke-width="0.5"></line>
                <g id="Group" transform="translate(264.000000, 1918.000000)" fill="#000000" fill-rule="nonzero">
                    <path d="M8.24805,15.830078 C12.5547,15.830078 16.1387,12.25586 16.1387,7.94922 C16.1387,3.6426 12.5449,0.0684 8.23828,0.0684 C3.94141,0.0684 0.36719,3.6426 0.36719,7.94922 C0.36719,12.25586 3.95117,15.830078 8.24805,15.830078 Z M8.24805,14.345703 C4.70312,14.345703 1.87109,11.50391 1.87109,7.94922 C1.87109,4.3945 4.69336,1.5527 8.23828,1.5527 C11.793,1.5527 14.6348,4.3945 14.6445503,7.94922 C14.6543,11.50391 11.8027,14.345703 8.24805,14.345703 Z M8.22852,11.57227 C8.69727,11.57227 8.9707,11.25977 8.9707,10.74219 L8.9707,8.68164 L11.1973,8.68164 C11.6953,8.68164 12.0371,8.42773 12.0371,7.95898 C12.0371,7.48047 11.7148,7.2168 11.1973,7.2168 L8.9707,7.2168 L8.9707,4.9902 C8.9707,4.4727 8.69727,4.1504 8.22852,4.1504 C7.75977,4.1504 7.50586,4.4922 7.50586,4.9902 L7.50586,7.2168 L5.29883,7.2168 C4.78125,7.2168 4.44922,7.48047 4.44922,7.95898 C4.44922,8.42773 4.80078,8.68164 5.29883,8.68164 L7.50586,8.68164 L7.50586,10.74219 C7.50586,11.24023 7.75977,11.57227 8.22852,11.57227 Z" id="Shape"></path>
                </g>
                <g id="Group" transform="translate(282.506000, 1915.000000)" fill="#000000" fill-rule="nonzero">
                    <path d="M10.709,20.91016 C16.1582,20.91016 20.6699,16.39844 20.6699,10.94922 C20.6699,5.5098 16.1484,0.9883 10.6992,0.9883 C5.25977,0.9883 0.74805,5.5098 0.74805,10.94922 C0.74805,16.39844 5.26953,20.91016 10.709,20.91016 Z M10.709,19.25 C6.09961,19.25 2.41797,15.55859 2.41797,10.94922 C2.41797,6.3496 6.08984,2.6484 10.6992,2.6484 C15.3086,2.6484 19,6.3496 19.0098379,10.94922 C19.0195,15.55859 15.3184,19.25 10.709,19.25 Z M10.6895,15.58789 C11.207,15.58789 11.5195,15.22656 11.5195,14.66016 L11.5195,11.76953 L14.5762,11.76953 C15.123,11.76953 15.5039,11.48633 15.5039,10.96875 C15.5039,10.44141 15.1426,10.13867 14.5762,10.13867 L11.5195,10.13867 L11.5195,7.0723 C11.5195,6.4961 11.207,6.1445 10.6895,6.1445 C10.1719,6.1445 9.8789,6.5156 9.8789,7.0723 L9.8789,10.13867 L6.83203,10.13867 C6.26562,10.13867 5.89453,10.44141 5.89453,10.96875 C5.89453,11.48633 6.28516,11.76953 6.83203,11.76953 L9.8789,11.76953 L9.8789,14.66016 C9.8789,15.20703 10.1719,15.58789 10.6895,15.58789 Z" id="Shape"></path>
                </g>
                <g id="Group" transform="translate(306.924000, 1913.000000)" fill="#000000" fill-rule="nonzero">
                    <path d="M12.9707,25.67383 C19.9336,25.67383 25.6953,19.921875 25.6953,12.95898 C25.6953,5.9961 19.9238,0.2441 12.9609,0.2441 C6.00781,0.2441 0.25586,5.9961 0.25586,12.95898 C0.25586,19.921875 6.01758,25.67383 12.9707,25.67383 Z M12.9707,23.85742 C6.93555,23.85742 2.08203,18.99414 2.08203,12.95898 C2.08203,6.9238 6.92578,2.0605 12.9609,2.0605 C19.0059,2.0605 23.8594,6.9238 23.8691295,12.95898 C23.8789,18.99414 19.0156,23.85742 12.9707,23.85742 Z M12.9512,18.93555 C13.5176,18.93555 13.8691,18.54492 13.8691,17.93945 L13.8691,13.86719 L18.1074,13.86719 C18.6934,13.86719 19.1133,13.53516 19.1133,12.97852 C19.1133,12.40234 18.7227,12.06055 18.1074,12.06055 L13.8691,12.06055 L13.8691,7.8125 C13.8691,7.1973 13.5176,6.8066 12.9512,6.8066 C12.3848,6.8066 12.0625,7.2168 12.0625,7.8125 L12.0625,12.06055 L7.83398,12.06055 C7.21875,12.06055 6.80859,12.40234 6.80859,12.97852 C6.80859,13.53516 7.23828,13.86719 7.83398,13.86719 L12.0625,13.86719 L12.0625,17.93945 C12.0625,18.52539 12.3848,18.93555 12.9512,18.93555 Z" id="Shape"></path>
                </g>
                <text id="Design-Variations" fill="#000000" font-family="Helvetica-Bold, Helvetica" font-size="13" font-weight="bold">
                    <tspan x="263" y="1953">Design Variations</tspan>
                </text>
                <text id="Symbols-are-supported-in-up-to-nine-weights-and-three-scales." fill="#000000" font-family="Helvetica" font-size="13" font-weight="normal">
                    <tspan x="263" y="1971">Symbols are supported in up to nine weights and three scales.</tspan>
                </text>
                <text id="For-optimal-layout-with-text-and-other-symbols,-vertically-align" fill="#000000" font-family="Helvetica" font-size="13" font-weight="normal">
                    <tspan x="263" y="1989">For optimal layout with text and other symbols, vertically align</tspan>
                </text>
                <text id="symbols-with-the-adjacent-text." fill="#000000" font-family="Helvetica" font-size="13" font-weight="normal">
                    <tspan x="263" y="2007">symbols with the adjacent text.</tspan>
                </text>
                <rect id="Rectangle" fill="#00AEEF" fill-rule="nonzero" opacity="0.4" x="776" y="1919" width="3" height="14"></rect>
                <g id="Group" transform="translate(779.000000, 1918.000000)" fill="#000000" fill-rule="nonzero">
                    <path d="M10.5273,15 L12.373,15 L7.17773,0.9082 L5.43945,0.9082 L0.244141,15 L2.08984,15 L3.50586,10.9668 L9.11133,10.9668 L10.5273,15 Z M6.2793,3.0469 L6.33789,3.0469 L8.59375,9.47266 L4.02344,9.47266 L6.2793,3.0469 Z" id="Shape"></path>
                </g>
                <rect id="Rectangle" fill="#00AEEF" fill-rule="nonzero" opacity="0.4" x="791.617" y="1919" width="3" height="14"></rect>
                <text id="Margins" fill="#000000" font-family="Helvetica-Bold, Helvetica" font-size="13" font-weight="bold">
                    <tspan x="776" y="1953">Margins</tspan>
                </text>
                <text id="Leading-and-trailing-margins-on-the-left-and-right-side-of-each-symbol" fill="#000000" font-family="Helvetica" font-size="13" font-weight="normal">
                    <tspan x="776" y="1971">Leading and trailing margins on the left and right side of each symbol</tspan>
                </text>
                <text id="can-be-adjusted-by-modifying-the-width-of-the-blue-rectangles." fill="#000000" font-family="Helvetica" font-size="13" font-weight="normal">
                    <tspan x="776" y="1989">can be adjusted by modifying the width of the blue rectangles.</tspan>
                </text>
                <text id="Modifications-are-automatically-applied-proportionally-to-all" fill="#000000" font-family="Helvetica" font-size="13" font-weight="normal">
                    <tspan x="776" y="2007">Modifications are automatically applied proportionally to all</tspan>
                </text>
                <text id="scales-and-weights." fill="#000000" font-family="Helvetica" font-size="13" font-weight="normal">
                    <tspan x="776" y="2025">scales and weights.</tspan>
                </text>
                <g id="Group" transform="translate(1291.000000, 1915.000000)" fill="#000000" fill-rule="nonzero">
                    <path d="M0.83203,21.11523 L2.375,22.6582 C3.22461,23.48828 4.19141,23.41992 5.06055,22.46289 L15.2754,11.33984 C15.7051,11.63281 16.0957,11.62305 16.5645,11.52539 L17.6094,11.31055 L18.3027,12.00391 L18.2539,12.52148 C18.1855,13.04883 18.3516,13.46875 18.8496,13.9668 L19.6602,14.77734 C20.168,15.28516 20.8223,15.31445 21.3008,14.83594 L24.5527,11.58398 C25.0312,11.10547 25.0117,10.45117 24.5039,9.94336 L23.6836,9.12305 C23.1855,8.625 22.7754,8.44922 22.2383,8.52734 L21.7109,8.58594 L21.0566,7.9219 L21.3398,6.7793 C21.4863,6.2129 21.3398,5.7441 20.7148,5.1387 L18.3027,2.7461 C14.7578,-0.7793 10.2266,-0.6719 7.11133,2.4629 C6.69141,2.8926 6.64258,3.4785 6.91602,3.9082 C7.15039,4.2793 7.62891,4.5039 8.2734,4.3379 C9.7871,3.957 11.3008,4.0742 12.7852,5.0801 L12.1602,6.6621 C11.9258,7.248 11.9453,7.7266 12.1797,8.16602 L1.01758,18.439453 C0.08008,19.30859 -0.02734,20.25586 0.83203,21.11523 Z M8.6738,2.8535 C11.3398,0.8613 14.6504,1.1738 17.0527,3.5859 L19.6797,6.1934 C19.9141,6.4277 19.9434,6.6133 19.8848,6.9062 L19.5039,8.46875 L21.0762,10.04102 L22.043,9.95312 C22.3262,9.92383 22.4141,9.94336 22.6387,10.16797 L23.2637,10.79297 L20.5098,13.53711 L19.8848,12.92188 C19.6602,12.69727 19.6406,12.59961 19.6699,12.31641 L19.7578,11.35938 L18.1953,9.79688 L16.5742,10.10938 C16.291,10.16797 16.1445,10.16797 15.9102,9.92383 L13.7324,7.7461 C13.5078,7.5117 13.4785,7.375 13.6055,7.0527 L14.5527,4.7773 C12.9512,3.2441 10.8418,2.3945 8.8008,3.0488 C8.7129,3.0781 8.6445,3.0586 8.6152,3.0195 C8.5859,2.9707 8.5859,2.9219 8.6738,2.8535 Z M2.10156,20.41211 C1.61328,19.91406 1.78906,19.61133 2.12109,19.30859 L13.0781,9.19141 L14.3086,10.42188 L4.15234,21.34961 C3.84961,21.68164 3.46875,21.7793 3.06836,21.37891 L2.10156,20.41211 Z" id="Shape"></path>
                </g>
                <text id="Exporting" fill="#000000" font-family="Helvetica-Bold, Helvetica" font-size="13" font-weight="bold">
                    <tspan x="1289" y="1953">Exporting</tspan>
                </text>
                <text id="Symbols-should-be-outlined-when-exporting-to-ensure-the" fill="#000000" font-family="Helvetica" font-size="13" font-weight="normal">
                    <tspan x="1289" y="1971">Symbols should be outlined when exporting to ensure the</tspan>
                </text>
                <text id="design-is-preserved-when-submitting-to-Xcode." fill="#000000" font-family="Helvetica" font-size="13" font-weight="normal">
                    <tspan x="1289" y="1989">design is preserved when submitting to Xcode.</tspan>
                </text>
                <text id="Template-v.1.0" fill="#000000" font-family="Helvetica" font-size="13" font-weight="normal">
                    <tspan x="2952" y="1933">Template v.1.0</tspan>
                </text>
                <text id="Generated-from-circle" fill="#000000" font-family="Helvetica" font-size="13" font-weight="normal">
                    <tspan x="2911" y="1951">Generated from circle</tspan>
                </text>
                <text id="Typeset-at-100-points" fill="#000000" font-family="Helvetica" font-size="13" font-weight="normal">
                    <tspan x="2912" y="1969">Typeset at 100 points</tspan>
                </text>
                <text id="Small" fill="#000000" font-family="Helvetica" font-size="13" font-weight="normal">
                    <tspan x="263" y="726">Small</tspan>
                </text>
                <text id="Medium" fill="#000000" font-family="Helvetica" font-size="13" font-weight="normal">
                    <tspan x="263" y="1156">Medium</tspan>
                </text>
                <text id="Large" fill="#000000" font-family="Helvetica" font-size="13" font-weight="normal">
                    <tspan x="263" y="1586">Large</tspan>
                </text>
            </g>
            <g id="Guides" transform="translate(263.000000, 625.000000)">
                <g id="H-reference" transform="translate(76.000000, 0.000000)" fill="#27AAE1" fill-rule="nonzero">
                    <path d="M54.9316,71 L57.666,71 L30.5664,0.541 L28.0762,0.541 L0.976562,71 L3.66211,71 L12.9395,46.5371 L45.7031,46.5371 L54.9316,71 Z M29.1992,3.9102 L29.4434,3.9102 L44.8242,44.291 L13.8184,44.291 L29.1992,3.9102 Z" id="Shape"></path>
                </g>
                <line x1="0" y1="71" x2="2773" y2="71" id="Baseline-S" stroke="#27AAE1" stroke-width="0.577"></line>
                <line x1="0" y1="0.541" x2="2773" y2="0.541" id="Capline-S" stroke="#27AAE1" stroke-width="0.577"></line>
                <g id="H-reference" transform="translate(76.000000, 430.000000)" fill="#27AAE1" fill-rule="nonzero">
                    <path d="M54.9316,71 L57.666,71 L30.5664,0.541 L28.0762,0.541 L0.976562,71 L3.66211,71 L12.9395,46.5371 L45.7031,46.5371 L54.9316,71 Z M29.1992,3.9102 L29.4434,3.9102 L44.8242,44.291 L13.8184,44.291 L29.1992,3.9102 Z" id="Shape"></path>
                </g>
                <line x1="0" y1="501" x2="2773" y2="501" id="Baseline-M" stroke="#27AAE1" stroke-width="0.577"></line>
                <line x1="0" y1="430.54" x2="2773" y2="430.54" id="Capline-M" stroke="#27AAE1" stroke-width="0.577"></line>
                <g id="H-reference" transform="translate(76.000000, 860.000000)" fill="#27AAE1" fill-rule="nonzero">
                    <path d="M54.9316,71 L57.666,71 L30.5664,0.541 L28.0762,0.541 L0.976562,71 L3.66211,71 L12.9395,46.5371 L45.7031,46.5371 L54.9316,71 Z M29.1992,3.9102 L29.4434,3.9102 L44.8242,44.291 L13.8184,44.291 L29.1992,3.9102 Z" id="Shape"></path>
                </g>
                <line x1="0" y1="931" x2="2773" y2="931" id="Baseline-L" stroke="#27AAE1" stroke-width="0.577"></line>
                <line x1="0" y1="860.54" x2="2773" y2="860.54" id="Capline-L" stroke="#27AAE1" stroke-width="0.577"></line>
                <rect id="left-margin" fill="#00AEEF" fill-rule="nonzero" opacity="0.4" x="1128.3" y="405.79" width="8.74023" height="119.336"></rect>
                <rect id="right-margin" fill="#00AEEF" fill-rule="nonzero" opacity="0.4" x="1236.65" y="405.79" width="8.74023" height="119.336"></rect>
            </g>
            <g id="Symbols" transform="translate(1399.000000, 1040.000000)" fill="#000000" fill-rule="nonzero">
                <g id="Regular-M" transform="translate(0.300000, 0.000000)">
                    <!-- <path d="M50.5449,100.5508 C77.791,100.5508 100.35,77.99219 100.35,50.7461 C100.35,23.5488 77.7422,0.9414 50.4961,0.9414 C23.2988,0.9414 0.74023,23.5488 0.74023,50.7461 C0.74023,77.99219 23.3477,100.5508 50.5449,100.5508 Z M50.1551,92.0078 C27.1082,92.0078 8.7,73.5508 8.7,50.5039 C8.7,27.5058 27.0594,9 50.1063,9 C73.1532,9 91.6102,27.5058 91.6593938,50.5039 C91.7082,73.5508 73.202,92.0078 50.1551,92.0078 Z" id="Shape"></path> -->
                    <path d="M62.3002492,20.5062569 C62.8395421,20.563425 63.4270645,20.4051133 64.0233559,20.2555967 C64.2645031,20.1940311 64.5363418,20.2072237 64.795027,20.1764409 C65.1282487,20.1412605 65.4614703,20.0884899 65.794692,20.0533095 C66.2071818,20.0153035 66.6212872,19.997692 67.0355042,20.0002418 C67.4958762,20.0049365 67.9562482,20.0181292 68.4122357,20.0269243 L68.5350015,20.0401169 C69.0392185,20.048912 69.5434355,20.0533095 70.0476524,20.0796948 C70.3107221,20.0928875 70.5737919,20.145658 70.8368616,20.1896335 C71.2139282,20.2555967 71.5953793,20.3127648 71.9592924,20.4095109 C72.3670505,20.5194496 72.7485015,20.6733637 73.1474906,20.8052901 C73.2877945,20.8492656 73.4237138,20.9064337 73.5684022,20.9284215 C73.8533944,20.9636018 73.9980827,21.117516 74.1822315,21.2626351 C74.4759927,21.5001026 74.8618283,21.6672094 75.159974,21.9002794 C75.5107336,22.1729274 75.8088793,22.4895508 76.1333319,22.7797889 L77.0584604,23.6021303 C77.123578,23.6583836 77.1837235,23.7201795 77.2382247,23.7868273 C77.3785286,23.9627292 77.5144479,24.1430286 77.6459828,24.3277256 C77.6985967,24.3980864 77.7336727,24.4772422 77.7687487,24.5563981 C77.8125936,24.6663368 77.8169781,24.7982632 77.9002835,24.8862141 C78.1984292,25.2160302 78.1370463,25.5986168 78.2422742,25.9592157 C78.3036571,26.1483102 78.417654,26.3374048 78.4308075,26.5308968 C78.4571144,26.9046884 78.8385655,27.2520946 78.6193408,27.6522714 C78.6061873,27.6742592 78.5974183,27.705042 78.6105718,27.7270297 C78.851719,28.2503379 78.5184974,28.7692485 78.6105718,29.2925566 C78.7201842,29.9477912 78.5798803,30.5986282 78.5711113,31.2538627 C78.5623423,31.7463881 78.417654,32.2389134 78.3387331,32.7358362 C78.2948881,33.0436645 78.2773501,33.3514929 78.2203517,33.6593212 C78.1677377,33.9363667 78.0625099,34.2090146 78.0011269,34.4860601 C77.9704355,34.6003963 77.9879734,34.7191301 77.97482,34.8378639 C77.9669464,34.9160839 77.9552402,34.9938679 77.939744,35.0709339 L77.8301316,35.6646028 C77.7731332,35.9768286 77.7424417,36.2934521 77.6679053,36.6056779 C77.6036501,36.8653985 77.5155852,37.1186027 77.4048356,37.3620561 C77.2557627,37.6874746 77.0803829,37.9997004 76.9181566,38.3207214 C76.8982336,38.3591923 76.8806631,38.3988435 76.8655426,38.4394552 C76.7120853,38.8660173 76.549859,39.2925794 76.4051706,39.723539 C76.3306342,39.9522115 76.2867893,40.1852815 76.2297908,40.413954 C76.2122528,40.4711221 76.2210218,40.5326877 76.2034838,40.5898559 C76.1377164,40.7965406 76.089487,41.0120204 75.9974126,41.20991 C75.8658777,41.4913531 75.6773444,41.7552059 75.5545785,42.036649 C75.4098902,42.3796577 75.1117445,42.6611007 74.9670562,43.0129045 C74.8311368,43.3427205 74.6952175,43.668139 74.5899896,44.0023526 C74.5154532,44.2398202 74.3049974,44.4509025 74.1559245,44.6751774 C73.9191618,45.0269812 73.691168,45.3875801 73.4412518,45.7349863 C73.3535619,45.8625152 73.1869511,45.9548637 73.0904922,46.077995 C72.9151124,46.2934748 72.787962,46.5309424 72.5994287,46.7376271 C72.1829016,47.1905745 71.7356831,47.6259317 71.3147716,48.0788791 C71.2183127,48.1844202 71.1963902,48.3207442 71.1218538,48.439478 C71.0122414,48.6153799 70.8807065,48.7912818 70.7798631,48.9671836 C70.5080244,49.4377212 70.2537237,49.9126563 69.981885,50.3831939 C69.8240432,50.6558418 69.6486634,50.9196947 69.468899,51.1879451 L68.7059969,52.3093197 C68.6709209,52.3620902 68.618307,52.4280534 68.5525395,52.4500412 C68.2368559,52.5599799 68.140397,52.7886523 67.9737861,52.986542 C67.8554048,53.131661 67.6668715,53.2503948 67.5090296,53.3779237 C66.9127383,53.8396662 66.3252159,54.3189988 65.7070021,54.7631511 C65.3474735,55.0182089 64.9221774,55.220496 64.5319573,55.4491685 C64.3828845,55.5371195 64.2557341,55.6426606 64.1066613,55.7218164 C63.7120567,55.9328987 63.3174521,56.1483785 62.9053096,56.3374731 C62.2432508,56.6453014 61.5592695,56.9223469 60.8972107,57.2301752 C60.5464511,57.3884869 60.2307674,57.5907741 59.8887768,57.7578809 C59.5950156,57.9073975 59.2749475,58.0261313 58.9811863,58.1756479 C58.5427367,58.3955253 58.1042872,58.6198002 57.6833757,58.8616653 C57.4647588,58.9692818 57.2660639,59.1135414 57.0958533,59.2882274 C56.8327836,59.6004532 56.9029355,59.9610521 57.0081634,60.2996633 C57.0476238,60.4315897 57.0958533,60.5723112 57.1747742,60.691045 C57.367692,60.9636929 57.5825323,61.2319433 57.7886035,61.5001937 L58.3805104,62.2477768 C58.4024329,62.2785596 58.4243554,62.31374 58.4550468,62.3269326 C58.8891119,62.5116296 58.9022654,62.8810236 59.0995676,63.1624666 C59.2398715,63.3691514 59.4152513,63.5582459 59.5818621,63.7473404 C59.9106993,64.1255295 60.2351519,64.5081161 60.5815271,64.8731126 C60.8840572,65.1985311 61.1822029,65.5283471 61.5417315,65.8141877 C61.8135702,66.0340651 62.2213283,65.9461141 62.5764724,65.9153313 C62.8132352,65.8933436 63.0456134,65.8185853 63.2823762,65.7965975 C63.7295947,65.7526221 64.1198148,65.8361755 64.4661899,66.0868357 C64.795027,66.3243032 65.2553991,66.4694223 65.5272378,66.7376727 C66.1235291,67.326944 66.7022825,67.9601908 66.4479818,68.7693396 C66.3865988,68.9584341 66.0884532,69.1123483 65.8736129,69.2530698 C65.6938486,69.3762011 65.4614703,69.4509594 65.272937,69.5608981 C65.2290921,69.5872834 65.2027851,69.6928245 65.2378611,69.7280049 C65.5184688,70.0578209 65.7113866,70.4140223 65.6763106,70.805404 C65.6631571,70.9637157 65.5053153,71.1572078 65.3387045,71.2583514 C64.9440999,71.4914214 64.5758023,71.7596718 64.0496628,71.8432252 C63.8216691,71.8784056 63.6155978,72.0015369 63.3919885,72.0718977 C63.3262211,72.0938854 63.2385312,72.0718977 63.1596103,72.0718977 C63.1596103,72.010332 63.1420723,71.9443688 63.1727638,71.8959958 C63.4533715,71.4298557 63.7515172,70.9725108 64.0233559,70.5063708 C64.0672008,70.4316125 64.0145869,70.2864934 63.9400505,70.2161327 C63.7559017,70.0226406 63.5717529,69.8027632 63.3130676,69.6840294 C62.9053096,69.4993324 62.8483111,69.0683728 62.3397097,68.9584341 C62.1950213,68.9276513 62.0985624,68.7517494 61.997719,68.6330156 C61.8574152,68.4571137 61.6776509,68.4395235 61.4452726,68.5098843 C60.9585937,68.6594009 60.8445968,68.9936145 60.7481379,69.3322256 C60.6746467,69.6018073 60.6073997,69.8730623 60.5464511,70.1457719 C60.5126242,70.293859 60.4862836,70.4435667 60.4675302,70.5943217 C60.4412232,70.8141991 60.3009194,70.9813059 59.9983892,70.9769084 C59.6563985,70.9769084 59.4064823,71.1000397 59.1434126,71.2275686 C59.0288002,71.2837803 58.9026902,71.3123901 58.775115,71.311122 C58.6830406,71.3067244 58.5558902,71.2363637 58.5208143,71.1704004 C58.4901228,71.1132323 58.5295832,70.9988961 58.5953507,70.9549206 C58.7475716,70.8520963 58.9090381,70.7637614 59.0776452,70.6910678 C59.5687086,70.4711904 59.7265505,70.0973989 59.5073257,69.7016196 C59.2924854,69.3146354 59.0995676,68.9232537 58.9022654,68.5274745 C58.8706587,68.4553951 58.8542391,68.3775441 58.8540359,68.298802 C58.8321134,67.8150718 58.2840515,67.560014 57.7096826,67.7623012 C57.4466129,67.8546497 57.1747742,67.9382031 56.9204735,68.0437442 C56.403103,68.2592241 56.2934906,68.7297616 56.6793262,69.0727703 C56.7407092,69.1299384 56.8459371,69.1783115 56.863475,69.2398771 C56.889782,69.3278281 56.8941665,69.4861398 56.8327836,69.5125251 C56.7363247,69.5565005 56.5170999,69.5565005 56.446948,69.50373 C56.1759974,69.2911255 55.9263615,69.052529 55.7015838,68.7913273 C55.6138939,68.6901837 55.5963559,68.4966916 55.6665078,68.3911505 C56.1048852,67.7786267 56.7045394,67.3005204 57.3983835,67.0103206 C57.4773044,66.9751402 57.5737633,66.9663451 57.6439152,66.9223697 C57.7009136,66.8915868 57.7754501,66.8212261 57.7710656,66.7772506 C57.7622966,66.7332751 57.6570687,66.6673119 57.5956857,66.6673119 C57.376461,66.6585168 57.1396982,66.6365291 56.9423959,66.6936972 C56.5565604,66.8080334 56.1882628,66.95755 55.8243496,67.1114642 C55.7244462,67.1591973 55.6439473,67.2399359 55.5963559,67.3401367 C55.3771311,67.7974816 55.1754443,68.2636216 54.9693731,68.7209665 C54.9518351,68.7517494 54.9342971,68.8001224 54.8992211,68.813315 C54.4388491,68.9892169 54.3774662,69.3937913 54.0705515,69.648849 C53.8836674,69.7661468 53.6683857,69.8300113 53.4479532,69.833546 C53.2725734,69.8467387 53.2418819,69.6180662 53.3909547,69.4685496 C53.4874136,69.3762011 53.579488,69.2750575 53.667178,69.1739139 C53.7899438,69.0331924 53.9214787,68.8968684 53.623333,68.7605445 C53.5575656,68.7253641 53.5444121,68.5714499 53.5663346,68.483499 C53.7066384,67.9206129 53.8644802,67.3621244 53.9960151,66.7992383 C54.0091686,66.7596604 53.8688647,66.6541193 53.8074818,66.6585168 C53.4260307,66.676107 53.2506509,66.8256236 53.1498075,67.0982716 C53.0577331,67.3445342 52.8998913,67.5732067 52.7990479,67.8194693 C52.711358,68.017359 52.667513,68.2240437 52.6061301,68.4307284 C52.5957963,68.4604385 52.5942733,68.4925164 52.6017456,68.5230769 C52.720127,68.8748807 52.8297393,69.2266845 52.9656587,69.5696932 C53.0226571,69.7192098 53.0533486,69.8467387 52.8560463,69.9302921 C52.7902789,69.9522798 52.6368216,69.9346896 52.5929766,69.8951117 C52.4395193,69.7499926 52.3255224,69.5784883 52.180834,69.4245741 C52.0098387,69.2486722 51.8519969,69.0595777 51.6459256,68.9100611 C51.3496881,68.6680969 51.1214919,68.3528247 50.9838668,67.9953712 C50.9287814,67.8664857 50.8447525,67.752107 50.7383351,67.6611576 C50.3963444,67.3885097 50.4051134,67.0894765 50.5454173,66.7684555 C50.5585708,66.7376727 50.5848777,66.7068898 50.5848777,66.6805046 C50.5848777,66.3287008 50.9049459,66.1308111 51.2206296,65.9329215 C51.2654057,65.9044406 51.3005564,65.863054 51.321473,65.8141877 C51.4990622,65.4312154 51.8113058,65.1274374 52.198372,64.9610635 C52.4040164,64.882641 52.6229623,64.8452945 52.8428928,64.8511248 C53.119116,64.8423297 53.3953392,64.8863052 53.6759469,64.8951003 C53.8864027,64.8951003 54.0003996,64.8555224 53.9039407,64.6576327 C53.8118663,64.4729358 53.7987128,64.266251 53.7154074,64.0771565 C53.6847159,63.9980006 53.5838725,63.9232423 53.4830291,63.8748693 C53.1585765,63.7121601 52.8122014,63.567041 52.4877487,63.4087293 C52.3915483,63.359939 52.3121341,63.283352 52.259755,63.1888519 C52.0317612,62.7359045 51.8213054,62.2785596 51.6020807,61.8256122 C51.5774625,61.7691233 51.5511435,61.7133954 51.5231597,61.6585054 C51.303935,61.2495335 51.303935,61.2495335 50.808487,61.5089888 L48.506627,62.7227119 C47.9497961,63.01295 47.3929652,63.3075857 46.8185963,63.5758361 C46.4020692,63.7737257 45.9504662,63.9188448 45.5251702,64.1035418 C44.7666525,64.4377554 43.9949813,64.7631739 43.2627706,65.1281703 C42.4297165,65.5459373 41.7413507,66.0868357 41.1143679,66.6717095 C40.7548393,67.0015255 40.3733882,67.3181489 40.062089,67.6655552 C39.566641,68.2284412 39.1106535,68.8089175 38.645897,69.3849962 C38.4266723,69.6532466 38.211832,69.9258945 38.0013762,70.1985425 C37.7821514,70.484383 37.5760802,70.7790187 37.3393174,71.0560642 C37.0148648,71.4430484 36.6684896,71.8212375 36.3308835,72.1994265 C35.6775937,72.9470096 34.9585365,73.6462196 33.9150266,74.1123596 C33.3538112,74.3586223 32.1173835,74.2662738 31.617551,73.9452528 C31.3481041,73.7650242 31.0684912,73.6005746 30.7801124,73.4527275 C30.5017751,73.3266493 30.2954004,73.0808499 30.218897,72.7843003 C30.1575141,72.564423 30.0259792,72.4852671 29.8155235,72.6347837 C29.3463825,72.9558047 28.8947794,73.2988134 28.4870214,73.6682074 C28.1231083,73.9936259 27.8249626,74.3410321 27.2812852,74.5433193 C26.7858372,74.7280163 26.3605412,75.0182544 25.9045536,75.2601195 C25.0408081,75.721862 24.1507555,76.1088462 23.0283247,75.9725222 C22.3180365,75.8889688 21.7524366,75.4272263 21.7217451,74.8423525 C21.6888801,74.1859332 21.6932717,73.5281703 21.7348986,72.8722513 C21.7524366,72.5864107 21.9541234,72.3005701 21.9891993,72.0147295 C22.0418133,71.5573846 22.4276489,71.2099784 22.6074132,70.8010065 C22.9274813,70.0754111 23.4886967,69.4465619 23.9227618,68.7693396 C24.4620547,67.9206129 25.2556483,67.2126078 26.005397,66.4782174 C26.3194529,66.2050356 26.5758597,65.8716116 26.7595302,65.4975643 C26.8472201,65.2776869 27.0489069,65.189736 27.1979798,65.0446169 C27.465434,64.7807641 27.7811176,64.538899 28.0748788,64.2838412 C28.2677966,64.1167344 28.4475609,63.9452301 28.6360942,63.7781233 C28.8333965,63.6110165 29.0306988,63.4483072 29.2367701,63.2899955 C29.6971421,62.916204 30.1706676,62.5556051 30.6178861,62.177416 C30.7669589,62.0498871 30.8151884,61.8607926 30.9598767,61.7288662 C31.2229465,61.4870011 31.5254766,61.2627262 31.8104688,61.0340537 C31.8499293,61.0032709 31.9156967,60.9812831 31.9288502,60.9461027 C32.0296936,60.6646597 32.121768,60.3832167 32.2138424,60.0973761 C32.2486174,59.9875098 32.277884,59.8759656 32.3015323,59.7631625 C32.3103013,59.7147895 32.3278393,59.6532238 32.3015323,59.6092483 C32.1644989,59.351989 32.124049,59.0539533 32.1875354,58.7693168 C32.2094579,58.5934149 32.130537,58.4043204 32.139306,58.2240209 C32.1500315,58.027947 32.1868969,57.8341977 32.2489184,57.6479422 C32.3892222,57.2081875 32.555833,56.7728303 32.7136749,56.3330755 C32.8189027,56.0340423 32.8978237,55.726214 33.0205895,55.4315783 C33.1959693,54.9918236 33.3845026,54.5520688 33.5993429,54.1211092 C33.7966452,53.7297275 34.0509459,53.3559359 34.2570172,52.9645542 C34.5069334,52.480824 34.7349272,51.9926963 34.9760744,51.5045685 C35.0988403,51.2627034 35.2391442,51.0208383 35.353141,50.7789732 C35.5285208,50.3875915 35.6688247,49.9874146 35.8617425,49.604828 C36.0985052,49.1430855 36.3834974,48.6989333 36.6290292,48.2415883 C36.9184059,47.6962925 37.1858601,47.146599 37.4708523,46.6013032 C37.5497732,46.4429914 37.6462321,46.2934748 37.7383065,46.1395607 C37.9750692,45.7613716 38.194294,45.3743874 38.4617482,45.009391 C39.2991868,43.852836 40.1585479,42.7094737 40.9959865,41.5529187 C41.1494438,41.346234 41.2327492,41.113164 41.3905911,40.9108768 C41.7983491,40.4051589 42.2367987,39.9126336 42.6489412,39.4069156 C42.859397,39.1518579 43.0303923,38.8792099 43.2320791,38.6153571 C43.3549232,38.4581065 43.4836262,38.3055501 43.6179147,38.1580122 C43.9423674,37.7930157 44.2536665,37.4192242 44.6088106,37.0718179 C44.8543424,36.8343504 45.178795,36.6408583 45.4550182,36.4209809 C45.6698585,36.2538741 45.8627763,36.0691771 46.0820011,35.9020703 C46.2705344,35.7701439 46.4853746,35.6558077 46.6826769,35.5326764 L47.8226457,34.8114786 L48.1690208,34.5916012 C48.5636254,34.340941 48.9626145,34.0902808 49.3703725,33.8440182 C49.6290578,33.690104 49.922819,33.5669727 50.1595817,33.3954683 C50.5278793,33.1316155 50.861101,32.8413774 51.2118606,32.5643319 C51.2337831,32.5511392 51.242552,32.5203564 51.2644745,32.5159588 C51.8037674,32.436803 51.9923007,31.9794581 52.4965177,31.8563267 C52.641206,31.8167488 52.7508184,31.7024126 52.8823533,31.6232567 C53.0401951,31.5265107 53.2068059,31.4341622 53.3646478,31.3330186 C53.8030973,31.0647682 54.2634693,30.8053129 54.6799964,30.5106772 C54.8316801,30.3906064 54.9395738,30.2236463 54.986911,30.0357421 C55.0965234,29.6531555 55.1228304,29.2573762 55.2412118,28.8747896 C55.3552086,28.4878054 55.5437419,28.1184115 55.6884303,27.7358248 C55.7936582,27.4631769 55.8813481,27.1817339 55.969038,26.9002908 C56.1268798,26.3901753 56.2759527,25.8712647 56.4425635,25.3611492 C56.6091743,24.8598288 56.8020921,24.362906 56.9906254,23.8659831 C57.0169324,23.7956224 57.1002378,23.7384543 57.1440827,23.6680935 C57.2624641,23.4921916 57.3633075,23.3162897 57.4860734,23.1403878 C57.5737633,23.0172565 57.6877602,22.9029202 57.801757,22.788584 C57.9245229,22.6566576 58.0429043,22.5247312 58.1875926,22.4147925 C58.297205,22.3356366 58.4506623,22.2916612 58.5734282,22.2256979 C58.6692859,22.1755932 58.7629113,22.1213048 58.8540359,22.0629887 C58.9110343,22.0278083 58.9504948,21.9750377 59.0118777,21.9442549 C59.4152513,21.7551604 59.8230094,21.5660658 60.2351519,21.3813688 C60.3140728,21.3461885 60.4105317,21.3373934 60.4982216,21.3066105 C61.068206,21.1219136 61.6294214,20.9460117 62.1862523,20.748122 C62.2432508,20.7305318 62.2476353,20.6161956 62.3002492,20.5062569 L62.3002492,20.5062569 Z M54.7,61.2649331 C54.7092282,61.4065353 54.7046141,61.453736 54.7184564,61.5056568 C54.9399333,62.4402313 55.1337256,63.3748058 55.3967294,64.3046603 C55.4751691,64.5925847 55.6274344,64.93243 55.9042806,65.1212329 C56.4810433,65.508279 57.1547021,65.8198038 57.8052905,66.1502089 C58.2759288,66.3909327 58.7511813,66.6316564 59.2541184,66.8298995 C59.5339921,66.9616699 59.8420117,67.0185167 60.1492542,66.995102 C60.5276105,66.9148608 60.8182989,66.3248516 60.6521912,66.1030082 C60.1077272,65.3902771 59.641703,64.6209052 58.9449736,63.9931354 C57.8468174,62.9972 56.5917817,62.0909459 55.3921153,61.1610915 C55.2449824,61.0515561 55.0664554,60.9951077 54.8845641,61.000609 C54.7876679,61.0147692 54.7276846,61.2177323 54.7,61.2649331 L54.7,61.2649331 Z M62.9694908,67.0002418 C62.9602556,67.0049551 62.7432296,67.0709409 62.7109066,67.2029127 C62.6788181,67.406491 62.7180577,67.6150998 62.8217284,67.7920721 C62.9510205,68.0041695 63.1541938,68.1549944 63.3296617,68.3246723 C64.8211384,69.7810745 66.3033801,71.2469032 67.8133272,72.6703125 C68.0303532,72.8776966 68.3674362,72.8965497 68.6491083,73.0002418 C68.662961,72.6797391 68.7368422,72.3403832 68.6768137,72.0434468 C68.478258,71.0772253 68.1873508,70.1392834 68.0118829,69.1730619 C67.8410326,68.2256935 67.3100115,67.7496526 66.6266104,67.5988278 C65.467599,67.3395977 64.2854997,67.2076259 62.9694908,67.0002418 L62.9694908,67.0002418 Z" id="Shape"></path>
                </g>
            </g>
        </g>
    </g>
</svg>