<?xml version="1.0" encoding="UTF-8"?>
<svg width="3300px" height="2200px" viewBox="0 0 3300 2200" version="1.1" xmlns="http://www.w3.org/2000/svg" xmlns:xlink="http://www.w3.org/1999/xlink">
    <!-- Generator: Sketch 59.1 (86144) - https://sketch.com -->
    <title>filter</title>
    <desc>Created with Sketch.</desc>
    <g id="Page-1" stroke="none" stroke-width="1" fill="none" fill-rule="evenodd">
        <g id="filter">
            <g id="Notes">
                <rect id="artboard" fill="#FFFFFF" fill-rule="nonzero" x="0" y="0" width="3300" height="2200"></rect>
                <line x1="263" y1="292" x2="3036" y2="292" id="Path" stroke="#000000" stroke-width="0.5"></line>
                <text id="Weight/Scale-Variations" fill="#000000" font-family="Helvetica-Bold, Helvetica" font-size="13" font-weight="bold">
                    <tspan x="263" y="322">Weight/Scale Variations</tspan>
                </text>
                <text id="Ultralight" fill="#000000" font-family="Helvetica" font-size="13" font-weight="normal">
                    <tspan x="533.711" y="322">Ultralight</tspan>
                </text>
                <text id="Thin" fill="#000000" font-family="Helvetica" font-size="13" font-weight="normal">
                    <tspan x="843.422" y="322">Thin</tspan>
                </text>
                <text id="Light" fill="#000000" font-family="Helvetica" font-size="13" font-weight="normal">
                    <tspan x="1138.63" y="322">Light</tspan>
                </text>
                <text id="Regular" fill="#000000" font-family="Helvetica" font-size="13" font-weight="normal">
                    <tspan x="1426.84" y="322">Regular</tspan>
                </text>
                <text id="Medium" fill="#000000" font-family="Helvetica" font-size="13" font-weight="normal">
                    <tspan x="1723.06" y="322">Medium</tspan>
                </text>
                <text id="Semibold" fill="#000000" font-family="Helvetica" font-size="13" font-weight="normal">
                    <tspan x="2015.77" y="322">Semibold</tspan>
                </text>
                <text id="Bold" fill="#000000" font-family="Helvetica" font-size="13" font-weight="normal">
                    <tspan x="2326.48" y="322">Bold</tspan>
                </text>
                <text id="Heavy" fill="#000000" font-family="Helvetica" font-size="13" font-weight="normal">
                    <tspan x="2618.19" y="322">Heavy</tspan>
                </text>
                <text id="Black" fill="#000000" font-family="Helvetica" font-size="13" font-weight="normal">
                    <tspan x="2917.4" y="322">Black</tspan>
                </text>
                <line x1="263" y1="1903" x2="3036" y2="1903" id="Path" stroke="#000000" stroke-width="0.5"></line>
                <g id="Group" transform="translate(264.000000, 1918.000000)" fill="#000000" fill-rule="nonzero">
                    <path d="M8.24805,15.830078 C12.5547,15.830078 16.1387,12.25586 16.1387,7.94922 C16.1387,3.6426 12.5449,0.0684 8.23828,0.0684 C3.94141,0.0684 0.36719,3.6426 0.36719,7.94922 C0.36719,12.25586 3.95117,15.830078 8.24805,15.830078 Z M8.24805,14.345703 C4.70312,14.345703 1.87109,11.50391 1.87109,7.94922 C1.87109,4.3945 4.69336,1.5527 8.23828,1.5527 C11.793,1.5527 14.6348,4.3945 14.6445503,7.94922 C14.6543,11.50391 11.8027,14.345703 8.24805,14.345703 Z M8.22852,11.57227 C8.69727,11.57227 8.9707,11.25977 8.9707,10.74219 L8.9707,8.68164 L11.1973,8.68164 C11.6953,8.68164 12.0371,8.42773 12.0371,7.95898 C12.0371,7.48047 11.7148,7.2168 11.1973,7.2168 L8.9707,7.2168 L8.9707,4.9902 C8.9707,4.4727 8.69727,4.1504 8.22852,4.1504 C7.75977,4.1504 7.50586,4.4922 7.50586,4.9902 L7.50586,7.2168 L5.29883,7.2168 C4.78125,7.2168 4.44922,7.48047 4.44922,7.95898 C4.44922,8.42773 4.80078,8.68164 5.29883,8.68164 L7.50586,8.68164 L7.50586,10.74219 C7.50586,11.24023 7.75977,11.57227 8.22852,11.57227 Z" id="Shape"></path>
                </g>
                <g id="Group" transform="translate(282.506000, 1915.000000)" fill="#000000" fill-rule="nonzero">
                    <path d="M10.709,20.91016 C16.1582,20.91016 20.6699,16.39844 20.6699,10.94922 C20.6699,5.5098 16.1484,0.9883 10.6992,0.9883 C5.25977,0.9883 0.74805,5.5098 0.74805,10.94922 C0.74805,16.39844 5.26953,20.91016 10.709,20.91016 Z M10.709,19.25 C6.09961,19.25 2.41797,15.55859 2.41797,10.94922 C2.41797,6.3496 6.08984,2.6484 10.6992,2.6484 C15.3086,2.6484 19,6.3496 19.0098379,10.94922 C19.0195,15.55859 15.3184,19.25 10.709,19.25 Z M10.6895,15.58789 C11.207,15.58789 11.5195,15.22656 11.5195,14.66016 L11.5195,11.76953 L14.5762,11.76953 C15.123,11.76953 15.5039,11.48633 15.5039,10.96875 C15.5039,10.44141 15.1426,10.13867 14.5762,10.13867 L11.5195,10.13867 L11.5195,7.0723 C11.5195,6.4961 11.207,6.1445 10.6895,6.1445 C10.1719,6.1445 9.8789,6.5156 9.8789,7.0723 L9.8789,10.13867 L6.83203,10.13867 C6.26562,10.13867 5.89453,10.44141 5.89453,10.96875 C5.89453,11.48633 6.28516,11.76953 6.83203,11.76953 L9.8789,11.76953 L9.8789,14.66016 C9.8789,15.20703 10.1719,15.58789 10.6895,15.58789 Z" id="Shape"></path>
                </g>
                <g id="Group" transform="translate(306.924000, 1913.000000)" fill="#000000" fill-rule="nonzero">
                    <path d="M12.9707,25.67383 C19.9336,25.67383 25.6953,19.921875 25.6953,12.95898 C25.6953,5.9961 19.9238,0.2441 12.9609,0.2441 C6.00781,0.2441 0.25586,5.9961 0.25586,12.95898 C0.25586,19.921875 6.01758,25.67383 12.9707,25.67383 Z M12.9707,23.85742 C6.93555,23.85742 2.08203,18.99414 2.08203,12.95898 C2.08203,6.9238 6.92578,2.0605 12.9609,2.0605 C19.0059,2.0605 23.8594,6.9238 23.8691295,12.95898 C23.8789,18.99414 19.0156,23.85742 12.9707,23.85742 Z M12.9512,18.93555 C13.5176,18.93555 13.8691,18.54492 13.8691,17.93945 L13.8691,13.86719 L18.1074,13.86719 C18.6934,13.86719 19.1133,13.53516 19.1133,12.97852 C19.1133,12.40234 18.7227,12.06055 18.1074,12.06055 L13.8691,12.06055 L13.8691,7.8125 C13.8691,7.1973 13.5176,6.8066 12.9512,6.8066 C12.3848,6.8066 12.0625,7.2168 12.0625,7.8125 L12.0625,12.06055 L7.83398,12.06055 C7.21875,12.06055 6.80859,12.40234 6.80859,12.97852 C6.80859,13.53516 7.23828,13.86719 7.83398,13.86719 L12.0625,13.86719 L12.0625,17.93945 C12.0625,18.52539 12.3848,18.93555 12.9512,18.93555 Z" id="Shape"></path>
                </g>
                <text id="Design-Variations" fill="#000000" font-family="Helvetica-Bold, Helvetica" font-size="13" font-weight="bold">
                    <tspan x="263" y="1953">Design Variations</tspan>
                </text>
                <text id="Symbols-are-supported-in-up-to-nine-weights-and-three-scales." fill="#000000" font-family="Helvetica" font-size="13" font-weight="normal">
                    <tspan x="263" y="1971">Symbols are supported in up to nine weights and three scales.</tspan>
                </text>
                <text id="For-optimal-layout-with-text-and-other-symbols,-vertically-align" fill="#000000" font-family="Helvetica" font-size="13" font-weight="normal">
                    <tspan x="263" y="1989">For optimal layout with text and other symbols, vertically align</tspan>
                </text>
                <text id="symbols-with-the-adjacent-text." fill="#000000" font-family="Helvetica" font-size="13" font-weight="normal">
                    <tspan x="263" y="2007">symbols with the adjacent text.</tspan>
                </text>
                <rect id="Rectangle" fill="#00AEEF" fill-rule="nonzero" opacity="0.4" x="776" y="1919" width="3" height="14"></rect>
                <g id="Group" transform="translate(779.000000, 1918.000000)" fill="#000000" fill-rule="nonzero">
                    <path d="M10.5273,15 L12.373,15 L7.17773,0.9082 L5.43945,0.9082 L0.244141,15 L2.08984,15 L3.50586,10.9668 L9.11133,10.9668 L10.5273,15 Z M6.2793,3.0469 L6.33789,3.0469 L8.59375,9.47266 L4.02344,9.47266 L6.2793,3.0469 Z" id="Shape"></path>
                </g>
                <rect id="Rectangle" fill="#00AEEF" fill-rule="nonzero" opacity="0.4" x="791.617" y="1919" width="3" height="14"></rect>
                <text id="Margins" fill="#000000" font-family="Helvetica-Bold, Helvetica" font-size="13" font-weight="bold">
                    <tspan x="776" y="1953">Margins</tspan>
                </text>
                <text id="Leading-and-trailing-margins-on-the-left-and-right-side-of-each-symbol" fill="#000000" font-family="Helvetica" font-size="13" font-weight="normal">
                    <tspan x="776" y="1971">Leading and trailing margins on the left and right side of each symbol</tspan>
                </text>
                <text id="can-be-adjusted-by-modifying-the-width-of-the-blue-rectangles." fill="#000000" font-family="Helvetica" font-size="13" font-weight="normal">
                    <tspan x="776" y="1989">can be adjusted by modifying the width of the blue rectangles.</tspan>
                </text>
                <text id="Modifications-are-automatically-applied-proportionally-to-all" fill="#000000" font-family="Helvetica" font-size="13" font-weight="normal">
                    <tspan x="776" y="2007">Modifications are automatically applied proportionally to all</tspan>
                </text>
                <text id="scales-and-weights." fill="#000000" font-family="Helvetica" font-size="13" font-weight="normal">
                    <tspan x="776" y="2025">scales and weights.</tspan>
                </text>
                <g id="Group" transform="translate(1291.000000, 1915.000000)" fill="#000000" fill-rule="nonzero">
                    <path d="M0.83203,21.11523 L2.375,22.6582 C3.22461,23.48828 4.19141,23.41992 5.06055,22.46289 L15.2754,11.33984 C15.7051,11.63281 16.0957,11.62305 16.5645,11.52539 L17.6094,11.31055 L18.3027,12.00391 L18.2539,12.52148 C18.1855,13.04883 18.3516,13.46875 18.8496,13.9668 L19.6602,14.77734 C20.168,15.28516 20.8223,15.31445 21.3008,14.83594 L24.5527,11.58398 C25.0312,11.10547 25.0117,10.45117 24.5039,9.94336 L23.6836,9.12305 C23.1855,8.625 22.7754,8.44922 22.2383,8.52734 L21.7109,8.58594 L21.0566,7.9219 L21.3398,6.7793 C21.4863,6.2129 21.3398,5.7441 20.7148,5.1387 L18.3027,2.7461 C14.7578,-0.7793 10.2266,-0.6719 7.11133,2.4629 C6.69141,2.8926 6.64258,3.4785 6.91602,3.9082 C7.15039,4.2793 7.62891,4.5039 8.2734,4.3379 C9.7871,3.957 11.3008,4.0742 12.7852,5.0801 L12.1602,6.6621 C11.9258,7.248 11.9453,7.7266 12.1797,8.16602 L1.01758,18.439453 C0.08008,19.30859 -0.02734,20.25586 0.83203,21.11523 Z M8.6738,2.8535 C11.3398,0.8613 14.6504,1.1738 17.0527,3.5859 L19.6797,6.1934 C19.9141,6.4277 19.9434,6.6133 19.8848,6.9062 L19.5039,8.46875 L21.0762,10.04102 L22.043,9.95312 C22.3262,9.92383 22.4141,9.94336 22.6387,10.16797 L23.2637,10.79297 L20.5098,13.53711 L19.8848,12.92188 C19.6602,12.69727 19.6406,12.59961 19.6699,12.31641 L19.7578,11.35938 L18.1953,9.79688 L16.5742,10.10938 C16.291,10.16797 16.1445,10.16797 15.9102,9.92383 L13.7324,7.7461 C13.5078,7.5117 13.4785,7.375 13.6055,7.0527 L14.5527,4.7773 C12.9512,3.2441 10.8418,2.3945 8.8008,3.0488 C8.7129,3.0781 8.6445,3.0586 8.6152,3.0195 C8.5859,2.9707 8.5859,2.9219 8.6738,2.8535 Z M2.10156,20.41211 C1.61328,19.91406 1.78906,19.61133 2.12109,19.30859 L13.0781,9.19141 L14.3086,10.42188 L4.15234,21.34961 C3.84961,21.68164 3.46875,21.7793 3.06836,21.37891 L2.10156,20.41211 Z" id="Shape"></path>
                </g>
                <text id="Exporting" fill="#000000" font-family="Helvetica-Bold, Helvetica" font-size="13" font-weight="bold">
                    <tspan x="1289" y="1953">Exporting</tspan>
                </text>
                <text id="Symbols-should-be-outlined-when-exporting-to-ensure-the" fill="#000000" font-family="Helvetica" font-size="13" font-weight="normal">
                    <tspan x="1289" y="1971">Symbols should be outlined when exporting to ensure the</tspan>
                </text>
                <text id="design-is-preserved-when-submitting-to-Xcode." fill="#000000" font-family="Helvetica" font-size="13" font-weight="normal">
                    <tspan x="1289" y="1989">design is preserved when submitting to Xcode.</tspan>
                </text>
                <text id="Template-v.1.0" fill="#000000" font-family="Helvetica" font-size="13" font-weight="normal">
                    <tspan x="2952" y="1933">Template v.1.0</tspan>
                </text>
                <text id="Generated-from-circle" fill="#000000" font-family="Helvetica" font-size="13" font-weight="normal">
                    <tspan x="2911" y="1951">Generated from circle</tspan>
                </text>
                <text id="Typeset-at-100-points" fill="#000000" font-family="Helvetica" font-size="13" font-weight="normal">
                    <tspan x="2912" y="1969">Typeset at 100 points</tspan>
                </text>
                <text id="Small" fill="#000000" font-family="Helvetica" font-size="13" font-weight="normal">
                    <tspan x="263" y="726">Small</tspan>
                </text>
                <text id="Medium" fill="#000000" font-family="Helvetica" font-size="13" font-weight="normal">
                    <tspan x="263" y="1156">Medium</tspan>
                </text>
                <text id="Large" fill="#000000" font-family="Helvetica" font-size="13" font-weight="normal">
                    <tspan x="263" y="1586">Large</tspan>
                </text>
            </g>
            <g id="Guides" transform="translate(263.000000, 625.000000)">
                <g id="H-reference" transform="translate(76.000000, 0.000000)" fill="#27AAE1" fill-rule="nonzero">
                    <path d="M54.9316,71 L57.666,71 L30.5664,0.541 L28.0762,0.541 L0.976562,71 L3.66211,71 L12.9395,46.5371 L45.7031,46.5371 L54.9316,71 Z M29.1992,3.9102 L29.4434,3.9102 L44.8242,44.291 L13.8184,44.291 L29.1992,3.9102 Z" id="Shape"></path>
                </g>
                <line x1="0" y1="71" x2="2773" y2="71" id="Baseline-S" stroke="#27AAE1" stroke-width="0.577"></line>
                <line x1="0" y1="0.541" x2="2773" y2="0.541" id="Capline-S" stroke="#27AAE1" stroke-width="0.577"></line>
                <g id="H-reference" transform="translate(76.000000, 430.000000)" fill="#27AAE1" fill-rule="nonzero">
                    <path d="M54.9316,71 L57.666,71 L30.5664,0.541 L28.0762,0.541 L0.976562,71 L3.66211,71 L12.9395,46.5371 L45.7031,46.5371 L54.9316,71 Z M29.1992,3.9102 L29.4434,3.9102 L44.8242,44.291 L13.8184,44.291 L29.1992,3.9102 Z" id="Shape"></path>
                </g>
                <line x1="0" y1="501" x2="2773" y2="501" id="Baseline-M" stroke="#27AAE1" stroke-width="0.577"></line>
                <line x1="0" y1="430.54" x2="2773" y2="430.54" id="Capline-M" stroke="#27AAE1" stroke-width="0.577"></line>
                <g id="H-reference" transform="translate(76.000000, 860.000000)" fill="#27AAE1" fill-rule="nonzero">
                    <path d="M54.9316,71 L57.666,71 L30.5664,0.541 L28.0762,0.541 L0.976562,71 L3.66211,71 L12.9395,46.5371 L45.7031,46.5371 L54.9316,71 Z M29.1992,3.9102 L29.4434,3.9102 L44.8242,44.291 L13.8184,44.291 L29.1992,3.9102 Z" id="Shape"></path>
                </g>
                <line x1="0" y1="931" x2="2773" y2="931" id="Baseline-L" stroke="#27AAE1" stroke-width="0.577"></line>
                <line x1="0" y1="860.54" x2="2773" y2="860.54" id="Capline-L" stroke="#27AAE1" stroke-width="0.577"></line>
                <rect id="left-margin" fill="#00AEEF" fill-rule="nonzero" opacity="0.4" x="1128.3" y="405.79" width="8.74023" height="119.336"></rect>
                <rect id="right-margin" fill="#00AEEF" fill-rule="nonzero" opacity="0.4" x="1236.65" y="405.79" width="8.74023" height="119.336"></rect>
            </g>
            <g id="Symbols" transform="translate(1399.000000, 1040.000000)" fill="#000000" fill-rule="nonzero">
                <g id="Regular-M" transform="translate(0.300000, 0.000000)">
                    <path d="M50.5449,100.5508 C77.791,100.5508 100.35,77.99219 100.35,50.7461 C100.35,23.5488 77.7422,0.9414 50.4961,0.9414 C23.2988,0.9414 0.74023,23.5488 0.74023,50.7461 C0.74023,77.99219 23.3477,100.5508 50.5449,100.5508 Z M50.1551,92.0078 C27.1082,92.0078 8.7,73.5508 8.7,50.5039 C8.7,27.5058 27.0594,9 50.1063,9 C73.1532,9 91.6102,27.5058 91.6593938,50.5039 C91.7082,73.5508 73.202,92.0078 50.1551,92.0078 Z" id="Shape"></path>
                    <path d="M55.9842675,78.9094447 C56.0950327,79.3156164 56.2242588,79.6525543 56.2750262,80.0264168 C56.2918457,80.3146459 56.2669747,80.6037939 56.2011827,80.884916 C56.187337,80.963381 56.0442653,81.0233836 55.9796523,80.9910745 C55.9335001,80.963381 55.9011936,80.7649108 55.887348,80.6356743 C55.8596567,80.4510508 55.8735023,80.2341182 55.8273501,80.0725727 C55.8042741,79.9941077 55.6796632,79.9894921 55.6058197,79.9941077 C55.4304415,79.9987233 55.2135263,80.1648844 55.0889155,80.0264168 C54.7335438,79.6294763 54.4104786,79.1217617 54.0735678,78.6509718 C53.9812634,78.526351 53.8889591,78.4017301 53.80127,78.2632625 C53.4009235,77.649083 53.0024745,77.0336684 52.6059289,76.4170276 C52.3382463,76.0016248 52.0659485,75.5769908 51.8028811,75.1431256 C51.6551942,74.8938839 51.544429,74.5430992 51.3782812,74.3723225 C51.1229086,74.1206565 50.8321597,73.9076309 50.5152357,73.7399871 C50.2706292,73.6015195 50.118327,73.3984336 50.0998662,72.8999502 C50.0958104,72.6648695 50.0648404,72.4310273 50.0075618,72.2029966 C49.8367988,71.6122014 49.6244988,71.5291208 49.1537467,71.7691314 C49.0799033,71.8106716 48.9414468,71.7691314 48.9091403,71.672204 C48.8762667,71.5130684 48.8826026,71.3483233 48.9276011,71.192183 C49.0337511,70.8275516 49.6429597,70.4675358 49.8737206,70.5644631 C50.4455146,70.8180761 50.9073295,71.2684637 51.1752117,71.8337496 C51.2213638,71.9260613 51.2998225,71.9537548 51.4059725,72.0599133 C51.2721312,71.5152741 51.1752117,71.0537153 51.0413704,70.6290813 C50.8890682,70.1490603 50.7044596,69.7059639 50.5336965,69.2490208 C50.4875444,69.1382467 50.436777,69.0459349 50.3906248,68.9397764 C50.3121661,68.7505373 50.2198618,68.5705294 50.159864,68.362828 C49.9844858,67.7628017 49.8506445,67.1304662 49.6614206,66.5535178 C49.1306707,64.9472935 48.5860751,63.3641471 48.0460947,61.7671539 C47.8394688,61.1681865 47.7886452,60.5264866 47.8984078,59.9024567 C47.9814817,59.4270512 47.9768665,58.9054899 48.0230186,58.4070065 C48.0368643,58.2546921 48.0968621,58.1162245 48.1199382,57.9639101 C48.1568599,57.7331308 48.244549,57.4561955 48.2030121,57.2761876 C48.0645556,56.6669301 47.8937926,56.076135 47.4784231,55.9376673 C47.0399775,55.7899686 46.5969167,55.6791945 46.1677015,55.4576463 C45.7292559,55.2268669 45.3092712,54.8853135 44.8754408,54.5899159 C44.4693018,54.3129807 44.0631627,54.0452766 43.6570236,53.7591102 C43.4608796,53.6172312 43.2714504,53.4662918 43.0893519,53.3067827 C42.3924542,52.7067563 41.7047869,52.0744209 40.9940436,51.5205504 C40.5739916,51.1673787 40.1082822,50.8724058 39.6094785,50.6435889 C38.6541287,50.2512639 37.6895484,49.9512508 36.7295833,49.6143129 C35.8526921,49.3050686 34.9850314,48.9265904 34.0989097,48.7050422 C33.2450936,48.503672 32.3759492,48.3739846 31.5005427,48.3173329 C31.1590167,48.2896394 30.8082602,48.4881096 30.462119,48.561959 C30.3651994,48.5804214 30.2590494,48.4696473 30.1575147,48.4927252 C29.7790669,48.561959 29.4006191,48.6819643 29.0175561,48.7419669 C28.5837257,48.8065852 28.1452802,48.8112007 27.7114498,48.8665878 C27.1022412,48.9450528 26.4930326,49.0512113 25.8884392,49.1296763 C25.6853696,49.1527542 25.4869153,49.0835204 25.288461,49.1019827 C24.522335,49.166601 23.756209,49.2450659 22.9900831,49.3189153 C22.3762592,49.3743024 21.7624354,49.4019959 21.1532268,49.4896921 C20.6132464,49.5635415 20.0732661,49.7297026 19.5379009,49.803552 C19.0874576,49.8714649 18.6315576,49.8961937 18.176412,49.8774014 C17.5902795,49.8497079 17.004147,49.7620117 16.4133992,49.6835467 C16.0395667,49.6373908 15.6611189,49.591235 15.2919015,49.4943076 C15.1119081,49.4481518 14.9411451,49.3096842 14.7703821,49.1942945 C14.7380755,49.1712165 14.6965386,49.0558269 14.7011538,49.0050554 C14.7565364,48.6727331 14.5857734,48.1834809 14.8719168,48.0173198 C15.5272857,47.6193998 16.2580163,47.3616591 17.0179926,47.2603635 C18.0241099,47.0942023 19.0302271,46.9649659 20.0317291,46.7988047 C20.5301725,46.7157242 21.0193855,46.5541786 21.5178289,46.494176 C22.265494,46.4064798 23.0131591,46.4018642 23.7608243,46.3233993 C24.6423307,46.2264719 25.5284523,46.0926199 26.4099587,45.9633835 C27.1714694,45.8526094 27.9329802,45.7649132 28.6898757,45.6125988 C29.2575474,45.4972092 29.8206038,45.2802766 30.3836603,45.1233466 C31.0897884,44.9248763 31.7959166,44.7356373 32.50666,44.5417826 C32.7512665,44.4725488 33.0004882,44.3894682 33.2450947,44.3110032 L33.2543251,44.1356109 C33.0512555,44.0063745 32.8435708,43.8771381 32.6451165,43.7340549 C32.5622249,43.6780791 32.4915678,43.6058461 32.4374317,43.5217378 C32.3035904,43.3048052 32.3174361,43.0555635 32.4743535,42.9447894 C32.783573,42.7232413 33.1020229,42.5570801 33.4158577,42.3816878 C33.849688,42.1416773 34.2881336,41.9108979 34.721964,41.675503 C34.7681162,41.652425 34.8050379,41.6016536 34.8511901,41.5831912 C35.4742443,41.361643 36.0972986,41.1677884 36.7157376,40.9093155 C37.0388028,40.7754635 37.3387919,40.5031438 37.6572419,40.3323671 C38.1787613,40.0554319 38.7002808,39.796959 39.2264155,39.5477173 C39.7617807,39.3030912 40.2971458,39.0953897 40.832511,38.8553792 C41.5847913,38.5138258 42.3370716,38.1861191 43.0801215,37.7937942 C43.9754736,37.3322354 44.85698,36.755287 45.7569472,36.3260374 C46.3892319,36.0214087 47.007671,35.6890864 47.5845731,35.0982912 C48.0507099,34.6136546 48.5030012,34.050553 48.9922142,33.6489969 C49.5368097,33.2012849 50.118327,32.9151185 50.6767683,32.518178 C51.0921378,32.227396 51.4844312,31.8627646 51.885955,31.5304424 C52.3474767,31.1473486 52.8089984,30.741177 53.2797505,30.3811612 C53.9028048,29.9103713 54.525859,29.4072723 55.1719894,29.0426409 C55.7719675,28.7010874 56.3950218,28.5026172 57.0180761,28.281069 C57.825739,27.9856714 58.6334019,27.7133518 59.3718366,26.9517799 C59.9256626,26.3840627 60.5071799,25.899426 61.0379298,25.262475 C61.3148428,24.9301527 61.4948363,24.3255108 61.744058,23.8962612 C62.1363514,23.2177699 62.5194144,22.511585 62.95786,21.9484834 C63.3593839,21.4315376 63.8347512,21.1638336 64.3470402,21.1546024 C64.9054815,21.1453712 65.4685379,20.9422854 66.0223639,21.0161348 C66.5669595,21.080753 67.1207855,21.3115324 67.6515354,21.6023143 C68.0945962,21.8515561 68.5053505,22.2946524 68.9345657,22.6362059 C69.8068416,23.3239284 70.4437415,24.5424434 71.0760262,25.7748052 C71.242174,26.0978963 71.3621697,26.4948367 71.5329327,26.8086967 C71.6021609,26.9379331 71.7406174,26.984089 71.8467674,26.984089 C72.4144391,26.9933202 72.9728803,27.0764007 73.5174759,27.3994918 C73.8220802,27.5841153 74.1405302,27.6856582 74.435904,27.911822 C74.5558997,28.0041338 74.6343583,28.3272249 74.6989714,28.571851 C74.712817,28.6318536 74.583591,28.9134044 74.5097475,28.9318668 C74.0482258,29.0380253 73.5913194,29.0887967 73.1344129,29.1718773 C72.880576,29.2180332 72.6175086,29.2041864 72.391363,29.365732 C72.0641475,29.589931 71.795166,29.8889992 71.6067762,30.2380779 C71.0667958,31.2812007 70.5868133,32.4304819 70.0560633,33.4966825 C69.6730004,34.26287 69.7791503,35.1213692 69.8206873,35.9983307 C69.8668395,37.1153028 69.9222221,38.2368905 69.9268373,39.3584782 C69.9314525,40.1985151 69.9037612,41.0523987 69.8114569,41.8739732 C69.7191525,42.7509348 69.5530047,43.6186652 69.3776265,44.458702 C69.1837874,45.409513 68.9991787,46.3972487 68.7084201,47.2465167 C68.3807397,48.21579 67.9469093,49.0604425 67.5453854,49.937404 C67.3515463,50.3666536 67.1069398,50.7174382 66.917716,51.1466879 C66.7792595,51.4513166 66.7423377,51.9036442 66.5946508,52.162117 C66.1238987,52.979076 65.6577618,53.8237284 65.1223966,54.4837574 C64.3931924,55.3884125 63.5855295,56.076135 62.8470948,56.9623277 C62.1086601,57.8392893 61.2640755,58.1162245 60.465643,58.647017 C59.9210474,59.0070328 59.3579909,59.3116616 58.7857041,59.5239786 C58.3887954,59.6716774 57.9595803,59.5701345 57.5534412,59.6670618 C56.9119261,59.8193762 56.293487,59.5055162 55.6612023,59.4639759 C55.485411,59.4618082 55.3105578,59.4899119 55.1442981,59.5470565 C55.1152512,59.6490646 55.1089493,59.7562061 55.1258372,59.8609164 C55.5550524,60.5947948 55.9796523,61.3379043 56.4227131,62.0302424 C57.0042304,62.9256663 57.5442108,63.8764773 58.0241933,64.9703714 C58.3103367,65.6257848 58.6103258,66.3319697 59.104154,66.5119776 C59.2841475,66.5812114 59.487217,66.6596764 59.65798,66.5765958 C60.0318126,66.3873567 60.3964147,66.1150371 60.7610168,65.8381018 C60.9594712,65.6857875 61.1302342,65.2980781 61.3240733,65.2934625 C61.5409885,65.2842314 61.7717493,65.5611666 61.9840493,65.7550213 C62.0671232,65.8334862 62.1040449,66.0734968 62.191734,66.1704241 C62.3578818,66.3596632 62.5332601,66.585827 62.7178687,66.641214 C62.9301687,66.7012166 63.128623,66.6873699 63.2855404,67.0427701 C63.3455382,67.1766221 63.4886099,67.1812377 63.576299,67.2320092 C63.6639882,67.435095 63.7609077,67.6289497 63.8393664,67.8412667 C63.9132099,68.0305057 63.9685925,68.2382072 64.0332055,68.4366774 C63.894749,68.4597554 63.7378316,68.5843762 63.6316816,68.4920645 C63.2855404,68.1874357 62.9393991,68.1320487 62.574797,68.307441 C62.361261,68.4224609 62.1628278,68.5635458 61.9840493,68.7274594 C61.9471275,68.7597685 61.9332819,68.9674699 61.9425123,69.0874752 C61.9655884,69.3182546 62.0348167,69.5351872 62.0440471,69.7659665 C62.0486623,70.0752109 61.9378971,70.2182941 61.7671341,70.1813694 C61.6640821,70.1558486 61.5624127,70.1250372 61.4625298,70.0890576 C61.4348385,70.0752109 61.3840711,70.0336706 61.3840711,70.0105926 C61.3933015,69.5951898 61.2271537,69.7613509 61.1210037,69.7336574 C60.6133299,69.5951898 60.1102713,69.4798001 59.6164431,69.2813299 C59.3302996,69.1659402 59.0626171,68.8843894 58.7857041,68.7228438 C58.1211129,68.3397501 57.4657521,67.9474252 56.7919304,67.6427964 C56.5519392,67.5320223 56.2657957,67.7351082 56.016574,67.6612588 C55.6935089,67.568947 55.3842893,67.3381677 55.0750698,67.144313 C55.0289176,67.1120039 54.973535,66.9689207 54.9643046,66.8581466 C54.9181524,66.4104346 54.7796959,66.3042761 54.567396,66.5812114 C54.5202206,66.6527966 54.458982,66.7140401 54.3874025,66.7612193 C54.1658721,66.876609 53.9443417,66.9919986 53.7135809,67.065848 C53.5658939,67.1166195 53.4458983,66.9781519 53.5612787,66.7012166 C53.7320417,66.2904294 53.9304961,65.8934889 54.1520265,65.579629 C54.2885163,65.3718072 54.4947453,65.2195783 54.7335438,65.1503793 C54.9458437,65.1042235 55.1766046,65.1826885 55.3796741,65.3026937 C55.7350458,65.5057796 56.0719566,65.7873304 56.4273283,66.0227253 C56.4734805,66.0550344 56.5427087,66.0088786 56.6027066,65.9996474 C56.5888609,65.8934889 56.5888609,65.768868 56.5565544,65.690403 C56.2519501,65.0165273 55.9427306,64.3518828 55.633511,63.6872382 C55.4258263,63.2164483 55.2366024,62.7087337 55.0058416,62.2794841 C54.7150829,61.7348448 54.5997025,60.9317327 54.1981786,60.5440233 C54.0597221,60.4101713 53.9951091,60.0732335 53.8751135,59.8747632 C53.784515,59.7122987 53.6522991,59.576886 53.4920505,59.4824383 C52.948185,59.2384274 52.3971929,59.0106247 51.8398029,58.7993314 C51.3967421,58.6285547 50.9582965,58.3931597 50.5106205,58.3516194 C50.0029466,58.300848 49.5968075,58.7670223 49.3429706,59.6116747 C49.2339468,60.0485658 49.2483263,60.5071472 49.3845076,60.9363483 C49.6937271,62.0440892 50.0260227,63.1287522 50.3813944,64.1903372 C50.8244552,65.5288575 51.309053,66.8212219 51.7613442,68.150511 C52.1490224,69.3044078 52.5413158,70.4629202 52.8782266,71.672204 C53.1182179,72.5168565 53.247444,73.4584363 53.459744,74.3261667 C53.630507,74.9954268 53.8151156,75.6785337 54.078183,76.223173 C54.2074091,76.5047238 54.5166286,76.5831888 54.7473894,76.6154979 C55.1073763,76.6616538 55.4719785,76.5462641 55.8319654,76.5970355 C56.1088784,76.6339602 56.3765609,76.8139681 56.6442435,76.9432046 C57.0457674,77.1324437 57.3826782,77.5155374 57.6042086,78.1524884 C57.7199818,78.5188683 57.7973186,78.8963019 57.8349694,79.2786917 C57.8441999,79.4033125 57.7426651,79.6571698 57.6642064,79.7033257 C57.6088238,79.7402504 57.4888282,79.5602425 57.4334456,79.4263905 C57.3734477,79.2786917 57.3596021,79.0709903 57.3226804,78.8909824 C57.2672978,78.5863536 57.0549978,78.4571172 56.9488478,78.6971277 C56.7457783,79.1586864 56.5196327,79.2048423 56.2427196,78.9925253 C56.1688762,78.9371382 56.0904175,78.9417538 55.9842675,78.9094447 L55.9842675,78.9094447 Z M70.465,71.0509814 L70.7,69.7609814 C69.6,68.8759814 68.485,67.3109814 67.415,67.3759814 C66.805,67.4159814 66.265,70.1259814 65.7,71.6259814 L70.465,71.0509814 L70.465,71.0509814 Z" id="Shape"></path>
                </g>
            </g>
        </g>
    </g>
</svg>