<?xml version="1.0" encoding="UTF-8"?>
<svg width="3300px" height="2200px" viewBox="0 0 3300 2200" version="1.1" xmlns="http://www.w3.org/2000/svg" xmlns:xlink="http://www.w3.org/1999/xlink">
    <!-- Generator: Sketch 59.1 (86144) - https://sketch.com -->
    <title>filter</title>
    <desc>Created with Sketch.</desc>
    <g id="Page-1" stroke="none" stroke-width="1" fill="none" fill-rule="evenodd">
        <g id="filter">
            <g id="Notes">
                <rect id="artboard" fill="#FFFFFF" fill-rule="nonzero" x="0" y="0" width="3300" height="2200"></rect>
                <line x1="263" y1="292" x2="3036" y2="292" id="Path" stroke="#000000" stroke-width="0.5"></line>
                <text id="Weight/Scale-Variations" fill="#000000" font-family="Helvetica-Bold, Helvetica" font-size="13" font-weight="bold">
                    <tspan x="263" y="322">Weight/Scale Variations</tspan>
                </text>
                <text id="Ultralight" fill="#000000" font-family="Helvetica" font-size="13" font-weight="normal">
                    <tspan x="533.711" y="322">Ultralight</tspan>
                </text>
                <text id="Thin" fill="#000000" font-family="Helvetica" font-size="13" font-weight="normal">
                    <tspan x="843.422" y="322">Thin</tspan>
                </text>
                <text id="Light" fill="#000000" font-family="Helvetica" font-size="13" font-weight="normal">
                    <tspan x="1138.63" y="322">Light</tspan>
                </text>
                <text id="Regular" fill="#000000" font-family="Helvetica" font-size="13" font-weight="normal">
                    <tspan x="1426.84" y="322">Regular</tspan>
                </text>
                <text id="Medium" fill="#000000" font-family="Helvetica" font-size="13" font-weight="normal">
                    <tspan x="1723.06" y="322">Medium</tspan>
                </text>
                <text id="Semibold" fill="#000000" font-family="Helvetica" font-size="13" font-weight="normal">
                    <tspan x="2015.77" y="322">Semibold</tspan>
                </text>
                <text id="Bold" fill="#000000" font-family="Helvetica" font-size="13" font-weight="normal">
                    <tspan x="2326.48" y="322">Bold</tspan>
                </text>
                <text id="Heavy" fill="#000000" font-family="Helvetica" font-size="13" font-weight="normal">
                    <tspan x="2618.19" y="322">Heavy</tspan>
                </text>
                <text id="Black" fill="#000000" font-family="Helvetica" font-size="13" font-weight="normal">
                    <tspan x="2917.4" y="322">Black</tspan>
                </text>
                <line x1="263" y1="1903" x2="3036" y2="1903" id="Path" stroke="#000000" stroke-width="0.5"></line>
                <g id="Group" transform="translate(264.000000, 1918.000000)" fill="#000000" fill-rule="nonzero">
                    <path d="M8.24805,15.830078 C12.5547,15.830078 16.1387,12.25586 16.1387,7.94922 C16.1387,3.6426 12.5449,0.0684 8.23828,0.0684 C3.94141,0.0684 0.36719,3.6426 0.36719,7.94922 C0.36719,12.25586 3.95117,15.830078 8.24805,15.830078 Z M8.24805,14.345703 C4.70312,14.345703 1.87109,11.50391 1.87109,7.94922 C1.87109,4.3945 4.69336,1.5527 8.23828,1.5527 C11.793,1.5527 14.6348,4.3945 14.6445503,7.94922 C14.6543,11.50391 11.8027,14.345703 8.24805,14.345703 Z M8.22852,11.57227 C8.69727,11.57227 8.9707,11.25977 8.9707,10.74219 L8.9707,8.68164 L11.1973,8.68164 C11.6953,8.68164 12.0371,8.42773 12.0371,7.95898 C12.0371,7.48047 11.7148,7.2168 11.1973,7.2168 L8.9707,7.2168 L8.9707,4.9902 C8.9707,4.4727 8.69727,4.1504 8.22852,4.1504 C7.75977,4.1504 7.50586,4.4922 7.50586,4.9902 L7.50586,7.2168 L5.29883,7.2168 C4.78125,7.2168 4.44922,7.48047 4.44922,7.95898 C4.44922,8.42773 4.80078,8.68164 5.29883,8.68164 L7.50586,8.68164 L7.50586,10.74219 C7.50586,11.24023 7.75977,11.57227 8.22852,11.57227 Z" id="Shape"></path>
                </g>
                <g id="Group" transform="translate(282.506000, 1915.000000)" fill="#000000" fill-rule="nonzero">
                    <path d="M10.709,20.91016 C16.1582,20.91016 20.6699,16.39844 20.6699,10.94922 C20.6699,5.5098 16.1484,0.9883 10.6992,0.9883 C5.25977,0.9883 0.74805,5.5098 0.74805,10.94922 C0.74805,16.39844 5.26953,20.91016 10.709,20.91016 Z M10.709,19.25 C6.09961,19.25 2.41797,15.55859 2.41797,10.94922 C2.41797,6.3496 6.08984,2.6484 10.6992,2.6484 C15.3086,2.6484 19,6.3496 19.0098379,10.94922 C19.0195,15.55859 15.3184,19.25 10.709,19.25 Z M10.6895,15.58789 C11.207,15.58789 11.5195,15.22656 11.5195,14.66016 L11.5195,11.76953 L14.5762,11.76953 C15.123,11.76953 15.5039,11.48633 15.5039,10.96875 C15.5039,10.44141 15.1426,10.13867 14.5762,10.13867 L11.5195,10.13867 L11.5195,7.0723 C11.5195,6.4961 11.207,6.1445 10.6895,6.1445 C10.1719,6.1445 9.8789,6.5156 9.8789,7.0723 L9.8789,10.13867 L6.83203,10.13867 C6.26562,10.13867 5.89453,10.44141 5.89453,10.96875 C5.89453,11.48633 6.28516,11.76953 6.83203,11.76953 L9.8789,11.76953 L9.8789,14.66016 C9.8789,15.20703 10.1719,15.58789 10.6895,15.58789 Z" id="Shape"></path>
                </g>
                <g id="Group" transform="translate(306.924000, 1913.000000)" fill="#000000" fill-rule="nonzero">
                    <path d="M12.9707,25.67383 C19.9336,25.67383 25.6953,19.921875 25.6953,12.95898 C25.6953,5.9961 19.9238,0.2441 12.9609,0.2441 C6.00781,0.2441 0.25586,5.9961 0.25586,12.95898 C0.25586,19.921875 6.01758,25.67383 12.9707,25.67383 Z M12.9707,23.85742 C6.93555,23.85742 2.08203,18.99414 2.08203,12.95898 C2.08203,6.9238 6.92578,2.0605 12.9609,2.0605 C19.0059,2.0605 23.8594,6.9238 23.8691295,12.95898 C23.8789,18.99414 19.0156,23.85742 12.9707,23.85742 Z M12.9512,18.93555 C13.5176,18.93555 13.8691,18.54492 13.8691,17.93945 L13.8691,13.86719 L18.1074,13.86719 C18.6934,13.86719 19.1133,13.53516 19.1133,12.97852 C19.1133,12.40234 18.7227,12.06055 18.1074,12.06055 L13.8691,12.06055 L13.8691,7.8125 C13.8691,7.1973 13.5176,6.8066 12.9512,6.8066 C12.3848,6.8066 12.0625,7.2168 12.0625,7.8125 L12.0625,12.06055 L7.83398,12.06055 C7.21875,12.06055 6.80859,12.40234 6.80859,12.97852 C6.80859,13.53516 7.23828,13.86719 7.83398,13.86719 L12.0625,13.86719 L12.0625,17.93945 C12.0625,18.52539 12.3848,18.93555 12.9512,18.93555 Z" id="Shape"></path>
                </g>
                <text id="Design-Variations" fill="#000000" font-family="Helvetica-Bold, Helvetica" font-size="13" font-weight="bold">
                    <tspan x="263" y="1953">Design Variations</tspan>
                </text>
                <text id="Symbols-are-supported-in-up-to-nine-weights-and-three-scales." fill="#000000" font-family="Helvetica" font-size="13" font-weight="normal">
                    <tspan x="263" y="1971">Symbols are supported in up to nine weights and three scales.</tspan>
                </text>
                <text id="For-optimal-layout-with-text-and-other-symbols,-vertically-align" fill="#000000" font-family="Helvetica" font-size="13" font-weight="normal">
                    <tspan x="263" y="1989">For optimal layout with text and other symbols, vertically align</tspan>
                </text>
                <text id="symbols-with-the-adjacent-text." fill="#000000" font-family="Helvetica" font-size="13" font-weight="normal">
                    <tspan x="263" y="2007">symbols with the adjacent text.</tspan>
                </text>
                <rect id="Rectangle" fill="#00AEEF" fill-rule="nonzero" opacity="0.4" x="776" y="1919" width="3" height="14"></rect>
                <g id="Group" transform="translate(779.000000, 1918.000000)" fill="#000000" fill-rule="nonzero">
                    <path d="M10.5273,15 L12.373,15 L7.17773,0.9082 L5.43945,0.9082 L0.244141,15 L2.08984,15 L3.50586,10.9668 L9.11133,10.9668 L10.5273,15 Z M6.2793,3.0469 L6.33789,3.0469 L8.59375,9.47266 L4.02344,9.47266 L6.2793,3.0469 Z" id="Shape"></path>
                </g>
                <rect id="Rectangle" fill="#00AEEF" fill-rule="nonzero" opacity="0.4" x="791.617" y="1919" width="3" height="14"></rect>
                <text id="Margins" fill="#000000" font-family="Helvetica-Bold, Helvetica" font-size="13" font-weight="bold">
                    <tspan x="776" y="1953">Margins</tspan>
                </text>
                <text id="Leading-and-trailing-margins-on-the-left-and-right-side-of-each-symbol" fill="#000000" font-family="Helvetica" font-size="13" font-weight="normal">
                    <tspan x="776" y="1971">Leading and trailing margins on the left and right side of each symbol</tspan>
                </text>
                <text id="can-be-adjusted-by-modifying-the-width-of-the-blue-rectangles." fill="#000000" font-family="Helvetica" font-size="13" font-weight="normal">
                    <tspan x="776" y="1989">can be adjusted by modifying the width of the blue rectangles.</tspan>
                </text>
                <text id="Modifications-are-automatically-applied-proportionally-to-all" fill="#000000" font-family="Helvetica" font-size="13" font-weight="normal">
                    <tspan x="776" y="2007">Modifications are automatically applied proportionally to all</tspan>
                </text>
                <text id="scales-and-weights." fill="#000000" font-family="Helvetica" font-size="13" font-weight="normal">
                    <tspan x="776" y="2025">scales and weights.</tspan>
                </text>
                <g id="Group" transform="translate(1291.000000, 1915.000000)" fill="#000000" fill-rule="nonzero">
                    <path d="M0.83203,21.11523 L2.375,22.6582 C3.22461,23.48828 4.19141,23.41992 5.06055,22.46289 L15.2754,11.33984 C15.7051,11.63281 16.0957,11.62305 16.5645,11.52539 L17.6094,11.31055 L18.3027,12.00391 L18.2539,12.52148 C18.1855,13.04883 18.3516,13.46875 18.8496,13.9668 L19.6602,14.77734 C20.168,15.28516 20.8223,15.31445 21.3008,14.83594 L24.5527,11.58398 C25.0312,11.10547 25.0117,10.45117 24.5039,9.94336 L23.6836,9.12305 C23.1855,8.625 22.7754,8.44922 22.2383,8.52734 L21.7109,8.58594 L21.0566,7.9219 L21.3398,6.7793 C21.4863,6.2129 21.3398,5.7441 20.7148,5.1387 L18.3027,2.7461 C14.7578,-0.7793 10.2266,-0.6719 7.11133,2.4629 C6.69141,2.8926 6.64258,3.4785 6.91602,3.9082 C7.15039,4.2793 7.62891,4.5039 8.2734,4.3379 C9.7871,3.957 11.3008,4.0742 12.7852,5.0801 L12.1602,6.6621 C11.9258,7.248 11.9453,7.7266 12.1797,8.16602 L1.01758,18.439453 C0.08008,19.30859 -0.02734,20.25586 0.83203,21.11523 Z M8.6738,2.8535 C11.3398,0.8613 14.6504,1.1738 17.0527,3.5859 L19.6797,6.1934 C19.9141,6.4277 19.9434,6.6133 19.8848,6.9062 L19.5039,8.46875 L21.0762,10.04102 L22.043,9.95312 C22.3262,9.92383 22.4141,9.94336 22.6387,10.16797 L23.2637,10.79297 L20.5098,13.53711 L19.8848,12.92188 C19.6602,12.69727 19.6406,12.59961 19.6699,12.31641 L19.7578,11.35938 L18.1953,9.79688 L16.5742,10.10938 C16.291,10.16797 16.1445,10.16797 15.9102,9.92383 L13.7324,7.7461 C13.5078,7.5117 13.4785,7.375 13.6055,7.0527 L14.5527,4.7773 C12.9512,3.2441 10.8418,2.3945 8.8008,3.0488 C8.7129,3.0781 8.6445,3.0586 8.6152,3.0195 C8.5859,2.9707 8.5859,2.9219 8.6738,2.8535 Z M2.10156,20.41211 C1.61328,19.91406 1.78906,19.61133 2.12109,19.30859 L13.0781,9.19141 L14.3086,10.42188 L4.15234,21.34961 C3.84961,21.68164 3.46875,21.7793 3.06836,21.37891 L2.10156,20.41211 Z" id="Shape"></path>
                </g>
                <text id="Exporting" fill="#000000" font-family="Helvetica-Bold, Helvetica" font-size="13" font-weight="bold">
                    <tspan x="1289" y="1953">Exporting</tspan>
                </text>
                <text id="Symbols-should-be-outlined-when-exporting-to-ensure-the" fill="#000000" font-family="Helvetica" font-size="13" font-weight="normal">
                    <tspan x="1289" y="1971">Symbols should be outlined when exporting to ensure the</tspan>
                </text>
                <text id="design-is-preserved-when-submitting-to-Xcode." fill="#000000" font-family="Helvetica" font-size="13" font-weight="normal">
                    <tspan x="1289" y="1989">design is preserved when submitting to Xcode.</tspan>
                </text>
                <text id="Template-v.1.0" fill="#000000" font-family="Helvetica" font-size="13" font-weight="normal">
                    <tspan x="2952" y="1933">Template v.1.0</tspan>
                </text>
                <text id="Generated-from-circle" fill="#000000" font-family="Helvetica" font-size="13" font-weight="normal">
                    <tspan x="2911" y="1951">Generated from circle</tspan>
                </text>
                <text id="Typeset-at-100-points" fill="#000000" font-family="Helvetica" font-size="13" font-weight="normal">
                    <tspan x="2912" y="1969">Typeset at 100 points</tspan>
                </text>
                <text id="Small" fill="#000000" font-family="Helvetica" font-size="13" font-weight="normal">
                    <tspan x="263" y="726">Small</tspan>
                </text>
                <text id="Medium" fill="#000000" font-family="Helvetica" font-size="13" font-weight="normal">
                    <tspan x="263" y="1156">Medium</tspan>
                </text>
                <text id="Large" fill="#000000" font-family="Helvetica" font-size="13" font-weight="normal">
                    <tspan x="263" y="1586">Large</tspan>
                </text>
            </g>
            <g id="Guides" transform="translate(263.000000, 625.000000)">
                <g id="H-reference" transform="translate(76.000000, 0.000000)" fill="#27AAE1" fill-rule="nonzero">
                    <path d="M54.9316,71 L57.666,71 L30.5664,0.541 L28.0762,0.541 L0.976562,71 L3.66211,71 L12.9395,46.5371 L45.7031,46.5371 L54.9316,71 Z M29.1992,3.9102 L29.4434,3.9102 L44.8242,44.291 L13.8184,44.291 L29.1992,3.9102 Z" id="Shape"></path>
                </g>
                <line x1="0" y1="71" x2="2773" y2="71" id="Baseline-S" stroke="#27AAE1" stroke-width="0.577"></line>
                <line x1="0" y1="0.541" x2="2773" y2="0.541" id="Capline-S" stroke="#27AAE1" stroke-width="0.577"></line>
                <g id="H-reference" transform="translate(76.000000, 430.000000)" fill="#27AAE1" fill-rule="nonzero">
                    <path d="M54.9316,71 L57.666,71 L30.5664,0.541 L28.0762,0.541 L0.976562,71 L3.66211,71 L12.9395,46.5371 L45.7031,46.5371 L54.9316,71 Z M29.1992,3.9102 L29.4434,3.9102 L44.8242,44.291 L13.8184,44.291 L29.1992,3.9102 Z" id="Shape"></path>
                </g>
                <line x1="0" y1="501" x2="2773" y2="501" id="Baseline-M" stroke="#27AAE1" stroke-width="0.577"></line>
                <line x1="0" y1="430.54" x2="2773" y2="430.54" id="Capline-M" stroke="#27AAE1" stroke-width="0.577"></line>
                <g id="H-reference" transform="translate(76.000000, 860.000000)" fill="#27AAE1" fill-rule="nonzero">
                    <path d="M54.9316,71 L57.666,71 L30.5664,0.541 L28.0762,0.541 L0.976562,71 L3.66211,71 L12.9395,46.5371 L45.7031,46.5371 L54.9316,71 Z M29.1992,3.9102 L29.4434,3.9102 L44.8242,44.291 L13.8184,44.291 L29.1992,3.9102 Z" id="Shape"></path>
                </g>
                <line x1="0" y1="931" x2="2773" y2="931" id="Baseline-L" stroke="#27AAE1" stroke-width="0.577"></line>
                <line x1="0" y1="860.54" x2="2773" y2="860.54" id="Capline-L" stroke="#27AAE1" stroke-width="0.577"></line>
                <rect id="left-margin" fill="#00AEEF" fill-rule="nonzero" opacity="0.4" x="1128.3" y="405.79" width="8.74023" height="119.336"></rect>
                <rect id="right-margin" fill="#00AEEF" fill-rule="nonzero" opacity="0.4" x="1236.65" y="405.79" width="8.74023" height="119.336"></rect>
            </g>
            <g id="Symbols" transform="translate(1399.000000, 1040.000000)" fill-rule="nonzero">
                <g id="Regular-M" transform="translate(0.300000, 0.000000)">
                    <!-- <path d="M50.5449,100.5508 C77.791,100.5508 100.35,77.99219 100.35,50.7461 C100.35,23.5488 77.7422,0.9414 50.4961,0.9414 C23.2988,0.9414 0.74023,23.5488 0.74023,50.7461 C0.74023,77.99219 23.3477,100.5508 50.5449,100.5508 Z M50.1551,92.0078 C27.1082,92.0078 8.7,73.5508 8.7,50.5039 C8.7,27.5058 27.0594,9 50.1063,9 C73.1532,9 91.6102,27.5058 91.6593938,50.5039 C91.7082,73.5508 73.202,92.0078 50.1551,92.0078 Z" id="Shape" fill="#000000"></path> -->
                    <path d="M31.3845691,45.571702 C31.3845691,45.571702 30.2771953,42.3494097 30.2771953,39.8578061 C30.2771953,37.3707411 30.458732,35.6597492 30.4950393,34.9199835 C30.5222698,34.1802178 30.3089642,33.8080657 29.9685829,32.9684543 C29.7302909,32.3883037 29.4729747,31.8161507 29.197052,31.252924 L28.9519774,31.4208463 C28.9519774,31.4208463 28.6479035,31.6931527 28.588904,31.5252304 C28.5253662,31.3573081 28.4935973,31.2211549 28.4935973,31.2211549 C28.4935973,31.2211549 28.1849849,31.2892315 28.1259855,31.0532327 C28.0624476,30.8172338 27.9081414,30.0774681 27.9081414,30.0774681 C27.9081414,30.0774681 27.5087607,30.4813892 27.5087607,30.0093915 C27.5087607,29.5419322 27.4452228,28.9201659 27.4452228,28.9201659 C27.4452228,28.9201659 26.3423874,28.5888598 24.4498674,28.1214005 C23.3749503,27.8350661 22.2712166,27.670647 21.1595148,27.6312489 C20.9416707,27.6312489 20.705673,27.9670935 20.705673,27.9670935 C20.705673,27.9670935 20.6149047,27.3997885 21.1595148,26.7507916 C21.7041248,26.1063331 22.6254236,25.588951 24.7811718,25.0443382 C26.9323817,24.4997254 27.8582188,24.4997254 27.8582188,24.4997254 C27.8582188,24.4997254 28.6615187,22.8205026 29.8687377,22.0489678 C31.0759568,21.2683561 31.8338725,21.2184333 32.4510972,21.0868185 C33.0637836,20.9597422 33.0864757,21.0096651 33.0864757,21.0096651 L32.8277859,21.2955868 C32.8277859,21.2955868 33.3043197,21.2456639 33.6583163,21.1912027 C34.0123128,21.1412798 33.9896207,21.2683561 33.894314,21.3999709 C33.7990072,21.5270472 33.753623,21.6314313 34.3209252,21.5542779 C34.8882274,21.4771244 36.4539814,21.5542779 38.037889,22.225967 C39.6263351,22.8976561 41.4235484,23.7781134 42.462846,25.5117975 C43.506682,27.2409431 43.4113752,27.7855559 43.3387606,28.1440927 C44.0739842,30.7627725 44.9498987,33.9169883 45.6079693,34.3027557 C46.2751166,34.6930615 50.8906871,37.7701238 53.9677341,41.6731821 C57.0447811,45.5762405 57.8753115,47.2554633 59.935753,51.2946748 C61.9961945,55.3338864 61.8055809,55.4065014 62.8494169,56.6772646 C63.8887145,57.9434893 64.0747896,58.2021804 64.8826279,59.2868675 C65.6859278,60.3760931 65.6632357,61.0205516 65.6632357,61.0205516 C65.6632357,61.0205516 66.0444628,61.3836268 67.6283704,62.7542357 C69.2168165,64.1248445 70.7054174,65.2367623 71.3680264,66.1399119 C72.0351737,67.0475999 72.0578658,67.8463653 71.5359478,67.6920583 C71.0140298,67.5377514 69.6888119,66.8887545 69.6888119,66.8887545 C69.6888119,66.8887545 70.3060367,67.8463653 70.5874186,68.3410552 C70.8733389,68.8312067 70.6827253,68.8811296 70.2788062,68.7767455 C69.8794255,68.6768998 69.3121233,68.5180544 69.3121233,68.5180544 C69.3121233,68.5180544 69.3393538,68.6496692 69.5798899,68.8947449 C70.1245,69.4575115 71.38618,70.628429 73.147086,72.2985749 C75.6795229,74.703948 79.0651823,78.1395471 79.3964867,78.6070064 C79.7277912,79.0699273 79.8684821,79.0971579 79.3964867,78.7613133 C78.9244913,78.4254688 78.3980349,78.0623936 78.2346519,78.0896242 C78.0712689,78.1168549 78.1665756,78.5298529 77.6900418,78.6569292 C77.2180464,78.788544 77.2407385,78.788544 77.2407385,78.788544 C77.2407385,78.788544 77.3133531,79.1743114 77.3814294,79.696232 C77.4540441,80.2090757 77.2452769,80.0275381 76.5781295,79.4874637 C75.9155206,78.9428509 74.7309937,77.726549 72.0079432,75.2939452 C69.2848928,72.8658799 67.6510625,71.1594264 65.7812346,70.0747393 C63.9114066,68.9855137 62.5589582,68.132287 59.935753,66.9931386 C57.3080093,65.8585286 57.0720116,65.7768367 56.9040901,65.8585286 C56.7407071,65.9356821 56.7860913,66.0128355 56.7633992,66.244296 C56.7407071,66.4757564 56.5500936,66.2942188 56.2414812,66.1943731 C55.9328688,66.089989 55.1295689,65.5998375 54.7755724,65.5998375 C54.4215758,65.5998375 54.4442679,65.4455306 54.5168826,65.7541445 C54.5849589,66.0627584 54.4714984,66.1626041 54.1129634,66.0627584 C53.7589669,65.9583743 53.477585,65.7269138 53.0464354,65.5726069 C52.6198241,65.4182999 52.433749,65.4409921 52.4564411,65.7269138 C52.4791332,66.0128355 52.2658276,65.9583743 51.9844457,65.8812208 C51.6985254,65.8040673 51.4852198,65.6724525 51.1085311,65.7269138 C50.7273041,65.7768367 50.7499962,65.676991 50.704612,65.8312979 C50.6592278,65.9856049 50.704612,65.8812208 50.2326166,65.8312979 C49.7560827,65.7768367 50.0646951,65.9356821 50.1872324,66.0627584 C50.3006928,66.1943731 50.2553087,66.3214495 49.8513895,66.244296 C49.4520088,66.1671425 49.5427771,66.3486801 49.6380839,66.3986029 C49.7333907,66.4485258 49.6653144,66.4757564 49.356702,66.4757564 C49.0176739,66.4794347 48.6803508,66.4273027 48.3582502,66.3214495 C47.9361774,66.1898347 47.5776424,66.244296 47.5776424,66.244296 C47.5776424,66.244296 47.5095661,66.5029871 47.2009538,66.7616781 C46.8923414,67.0203692 46.5610369,67.2291374 46.5610369,67.2291374 C46.5610369,67.2291374 53.259741,72.1669601 53.640968,72.402959 C54.0176567,72.629881 54.1855781,72.7614957 54.3943453,73.1472631 C54.6076509,73.537569 54.2309623,74.1865659 54.2309623,74.1865659 C54.2309623,74.1865659 54.303577,74.2637194 54.5395747,74.3681035 C54.7755724,74.4679492 54.6802656,74.5950255 54.7982645,74.8037937 C54.9162633,75.012562 54.9661859,75.0897154 54.6076509,75.0624848 C54.2843258,75.0117236 53.9676934,74.9249538 53.6636601,74.8037937 C53.6636601,74.8037937 53.7090443,74.9354085 53.4049703,74.9853313 C53.0963579,75.0352542 52.6198241,74.4951798 51.1992995,73.5103383 C49.7787748,72.5300353 46.583729,70.2290463 46.583729,70.2290463 C46.583729,70.2290463 46.420346,70.5104295 45.8485054,70.773659 C45.2812032,71.0278117 45.0678976,71.0550423 45.0225134,71.2865028 C44.9771292,71.5225016 45.2539727,71.908269 45.6760455,71.5905782 C46.0935799,71.2728874 46.1616562,71.2365799 46.1616562,71.2365799 C46.1616562,71.2365799 45.9982731,71.8175002 45.6261229,71.9445765 C45.2539727,72.0671144 44.9453603,72.0671144 44.6095174,71.6768086 C44.2691361,71.2910412 43.9605237,70.7963512 43.9605237,70.7963512 C43.9605237,70.7963512 43.6382961,70.8326588 43.4612978,70.4786604 C43.2797611,70.1246621 43.3932216,70.0021243 43.4612978,70.1065084 C43.5248357,70.2154309 43.865217,70.4060454 43.865217,70.4060454 C43.865217,70.4060454 43.8788322,70.0883546 43.7971407,69.7525101 C43.7154492,69.4212039 43.7154492,69.1715897 43.7154492,69.1715897 C43.7154492,69.1715897 42.8939957,69.3985117 42.7805352,68.7631301 C42.6670748,68.1277486 42.8259194,67.3698291 42.8259194,67.3698291 C42.8259194,67.3698291 41.0196293,66.0491431 39.7851797,65.2186086 C39.1407245,64.7829183 38.6551138,64.5605348 38.6551138,64.5605348 C38.6551138,64.5605348 38.5416534,65.1233013 37.9108134,65.2322239 C37.2799733,65.336608 37.298127,65.0189172 37.298127,65.0189172 C37.298127,65.0189172 37.1528976,65.1596088 36.6854407,65.1777626 C36.2134452,65.1959164 36.0863696,65.0552247 35.9411402,64.9145331 C35.7959108,64.7738414 35.9411402,64.841918 36.0546006,64.8600718 C36.1680611,64.8782256 36.6355181,64.9326868 36.6854407,64.8283027 C36.7308248,64.7193802 36.6990559,64.6694573 36.4403661,64.542381 C36.1816763,64.4198431 35.6960657,63.4667707 35.6960657,63.4667707 C35.6960657,63.4667707 35.0198415,63.5257705 34.5478461,62.6044671 C34.0758507,61.674087 34.3209252,61.2157045 34.3209252,61.2157045 C34.3209252,61.2157045 27.9626024,56.2778819 27.2909167,55.7196538 C26.6237693,55.1705025 26.5920004,55.1160412 26.9959195,55.2794251 C27.4043771,55.4382705 27.5541449,55.4382705 27.599529,55.20681 C27.6494516,54.9753496 28.1895233,55.1886563 28.2848301,55.2612713 C28.3846752,55.3293479 28.3665216,55.2431176 28.3665216,54.9435805 C28.3665216,54.6349666 28.7568255,54.7075816 28.9202085,54.7438892 C29.0835915,54.7801967 28.8884396,54.4761212 28.7931328,54.1901995 C28.6932876,53.9088162 28.7114413,53.8543549 28.9383622,53.9950466 C29.165283,54.1357382 35.5417595,58.9646383 35.5417595,58.9646383 C35.5417595,58.9646383 35.7550651,58.7831007 36.4902887,58.7377163 C37.2255123,58.6787166 37.6793541,58.6197169 37.6793541,58.6197169 C37.6793541,58.6197169 34.5569229,54.8891192 33.6583163,52.9012825 C32.7597096,50.904369 32.6870949,50.5412938 32.2377916,48.7349947 C31.7839499,46.9196187 31.3845691,45.5671636 31.3845691,45.5671636 L31.3845691,45.571702 Z" id="Path" fill="#020102"></path>
                </g>
            </g>
        </g>
    </g>
</svg>