<?xml version="1.0" encoding="UTF-8"?>
<!--Generator: Apple Native CoreSVG 341-->
<!DOCTYPE svg
PUBLIC "-//W3C//DTD SVG 1.1//EN"
       "http://www.w3.org/Graphics/SVG/1.1/DTD/svg11.dtd">
<svg version="1.1" xmlns="http://www.w3.org/2000/svg" xmlns:xlink="http://www.w3.org/1999/xlink" viewBox="0 0 3300 2200">
 <!--glyph: "", point size: 100.0, font version: "20.0d10e1", template writer version: "138.0.0"-->
 <style>.monochrome-0 {-sfsymbols-motion-group:1;-sfsymbols-layer-tags:-581fcaea006515c2}
.monochrome-1 {-sfsymbols-motion-group:0;-sfsymbols-layer-tags:-581fcaea006515c2}

.multicolor-0:tintColor {-sfsymbols-motion-group:1;-sfsymbols-layer-tags:-581fcaea006515c2}
.multicolor-1:tintColor {-sfsymbols-motion-group:0;-sfsymbols-layer-tags:-581fcaea006515c2}

.hierarchical-0:primary {-sfsymbols-motion-group:1;-sfsymbols-layer-tags:-581fcaea006515c2}
.hierarchical-1:tertiary {-sfsymbols-motion-group:0;-sfsymbols-layer-tags:-581fcaea006515c2}

.SFSymbolsPreviewWireframe {fill:none;opacity:1.0;stroke:black;stroke-width:0.5}
</style>
 <g id="Notes">
  <rect height="2200" id="artboard" style="fill:white;opacity:1" width="3300" x="0" y="0"/>
  <line style="fill:none;stroke:black;opacity:1;stroke-width:0.5;" x1="263" x2="3036" y1="292" y2="292"/>
  <text style="stroke:none;fill:black;font-family:sans-serif;font-size:13;font-weight:bold;" transform="matrix(1 0 0 1 263 322)">Weight/Scale Variations</text>
  <text style="stroke:none;fill:black;font-family:sans-serif;font-size:13;text-anchor:middle;" transform="matrix(1 0 0 1 559.711 322)">Ultralight</text>
  <text style="stroke:none;fill:black;font-family:sans-serif;font-size:13;text-anchor:middle;" transform="matrix(1 0 0 1 856.422 322)">Thin</text>
  <text style="stroke:none;fill:black;font-family:sans-serif;font-size:13;text-anchor:middle;" transform="matrix(1 0 0 1 1153.13 322)">Light</text>
  <text style="stroke:none;fill:black;font-family:sans-serif;font-size:13;text-anchor:middle;" transform="matrix(1 0 0 1 1449.84 322)">Regular</text>
  <text style="stroke:none;fill:black;font-family:sans-serif;font-size:13;text-anchor:middle;" transform="matrix(1 0 0 1 1746.56 322)">Medium</text>
  <text style="stroke:none;fill:black;font-family:sans-serif;font-size:13;text-anchor:middle;" transform="matrix(1 0 0 1 2043.27 322)">Semibold</text>
  <text style="stroke:none;fill:black;font-family:sans-serif;font-size:13;text-anchor:middle;" transform="matrix(1 0 0 1 2339.98 322)">Bold</text>
  <text style="stroke:none;fill:black;font-family:sans-serif;font-size:13;text-anchor:middle;" transform="matrix(1 0 0 1 2636.69 322)">Heavy</text>
  <text style="stroke:none;fill:black;font-family:sans-serif;font-size:13;text-anchor:middle;" transform="matrix(1 0 0 1 2933.4 322)">Black</text>
  <line style="fill:none;stroke:black;opacity:1;stroke-width:0.5;" x1="263" x2="3036" y1="1903" y2="1903"/>
  <g transform="matrix(0.2 0 0 0.2 263 1933)">
   <path d="m46.2402 4.15039c21.7773 0 39.4531-17.627 39.4531-39.4043s-17.6758-39.4043-39.4531-39.4043c-21.7285 0-39.4043 17.627-39.4043 39.4043s17.6758 39.4043 39.4043 39.4043Zm0-7.42188c-17.6758 0-31.9336-14.3066-31.9336-31.9824s14.2578-31.9824 31.9336-31.9824 31.9824 14.3066 31.9824 31.9824-14.3066 31.9824-31.9824 31.9824Zm-17.9688-31.9824c0 2.14844 1.51367 3.61328 3.75977 3.61328h10.498v10.5957c0 2.19727 1.46484 3.71094 3.61328 3.71094 2.24609 0 3.71094-1.51367 3.71094-3.71094v-10.5957h10.5957c2.19727 0 3.71094-1.46484 3.71094-3.61328 0-2.19727-1.51367-3.71094-3.71094-3.71094h-10.5957v-10.5469c0-2.24609-1.46484-3.75977-3.71094-3.75977-2.14844 0-3.61328 1.51367-3.61328 3.75977v10.5469h-10.498c-2.24609 0-3.75977 1.51367-3.75977 3.71094Z"/>
  </g>
  <g transform="matrix(0.2 0 0 0.2 281.506 1933)">
   <path d="m58.5449 14.5508c27.4902 0 49.8047-22.3145 49.8047-49.8047s-22.3145-49.8047-49.8047-49.8047-49.8047 22.3145-49.8047 49.8047 22.3145 49.8047 49.8047 49.8047Zm0-8.30078c-22.9492 0-41.5039-18.5547-41.5039-41.5039s18.5547-41.5039 41.5039-41.5039 41.5039 18.5547 41.5039 41.5039-18.5547 41.5039-41.5039 41.5039Zm-22.6562-41.5039c0 2.39258 1.66016 4.00391 4.15039 4.00391h14.3555v14.4043c0 2.44141 1.66016 4.15039 4.05273 4.15039 2.44141 0 4.15039-1.66016 4.15039-4.15039v-14.4043h14.4043c2.44141 0 4.15039-1.61133 4.15039-4.00391 0-2.44141-1.70898-4.15039-4.15039-4.15039h-14.4043v-14.3555c0-2.49023-1.70898-4.19922-4.15039-4.19922-2.39258 0-4.05273 1.70898-4.05273 4.19922v14.3555h-14.3555c-2.49023 0-4.15039 1.70898-4.15039 4.15039Z"/>
  </g>
  <g transform="matrix(0.2 0 0 0.2 304.924 1933)">
   <path d="m74.8535 28.3203c35.1074 0 63.623-28.4668 63.623-63.5742s-28.5156-63.623-63.623-63.623-63.5742 28.5156-63.5742 63.623 28.4668 63.5742 63.5742 63.5742Zm0-9.08203c-30.127 0-54.4922-24.3652-54.4922-54.4922s24.3652-54.4922 54.4922-54.4922 54.4922 24.3652 54.4922 54.4922-24.3652 54.4922-54.4922 54.4922Zm-28.8574-54.4922c0 2.58789 1.85547 4.39453 4.58984 4.39453h19.7266v19.7754c0 2.68555 1.85547 4.58984 4.44336 4.58984 2.68555 0 4.54102-1.85547 4.54102-4.58984v-19.7754h19.7754c2.68555 0 4.58984-1.80664 4.58984-4.39453 0-2.73438-1.85547-4.58984-4.58984-4.58984h-19.7754v-19.7266c0-2.73438-1.85547-4.63867-4.54102-4.63867-2.58789 0-4.44336 1.9043-4.44336 4.63867v19.7266h-19.7266c-2.73438 0-4.58984 1.85547-4.58984 4.58984Z"/>
  </g>
  <text style="stroke:none;fill:black;font-family:sans-serif;font-size:13;font-weight:bold;" transform="matrix(1 0 0 1 263 1953)">Design Variations</text>
  <text style="stroke:none;fill:black;font-family:sans-serif;font-size:13;" transform="matrix(1 0 0 1 263 1971)">Symbols are supported in up to nine weights and three scales.</text>
  <text style="stroke:none;fill:black;font-family:sans-serif;font-size:13;" transform="matrix(1 0 0 1 263 1989)">For optimal layout with text and other symbols, vertically align</text>
  <text style="stroke:none;fill:black;font-family:sans-serif;font-size:13;" transform="matrix(1 0 0 1 263 2007)">symbols with the adjacent text.</text>
  <line style="fill:none;stroke:#00AEEF;stroke-width:0.5;opacity:1.0;" x1="776" x2="776" y1="1919" y2="1933"/>
  <g transform="matrix(0.2 0 0 0.2 776 1933)">
   <path d="m16.5527 0.78125c2.58789 0 3.85742-0.976562 4.78516-3.71094l6.29883-17.2363h28.8086l6.29883 17.2363c0.927734 2.73438 2.19727 3.71094 4.73633 3.71094 2.58789 0 4.24805-1.5625 4.24805-4.00391 0-0.830078-0.146484-1.61133-0.537109-2.63672l-22.9004-60.9863c-1.12305-2.97852-3.125-4.49219-6.25-4.49219-3.02734 0-5.07812 1.46484-6.15234 4.44336l-22.9004 61.084c-0.390625 1.02539-0.537109 1.80664-0.537109 2.63672 0 2.44141 1.5625 3.95508 4.10156 3.95508Zm13.4766-28.3691 11.8652-32.8613h0.244141l11.8652 32.8613Z"/>
  </g>
  <line style="fill:none;stroke:#00AEEF;stroke-width:0.5;opacity:1.0;" x1="792.836" x2="792.836" y1="1919" y2="1933"/>
  <text style="stroke:none;fill:black;font-family:sans-serif;font-size:13;font-weight:bold;" transform="matrix(1 0 0 1 776 1953)">Margins</text>
  <text style="stroke:none;fill:black;font-family:sans-serif;font-size:13;" transform="matrix(1 0 0 1 776 1971)">Leading and trailing margins on the left and right side of each symbol</text>
  <text style="stroke:none;fill:black;font-family:sans-serif;font-size:13;" transform="matrix(1 0 0 1 776 1989)">can be adjusted by modifying the x-location of the margin guidelines.</text>
  <text style="stroke:none;fill:black;font-family:sans-serif;font-size:13;" transform="matrix(1 0 0 1 776 2007)">Modifications are automatically applied proportionally to all</text>
  <text style="stroke:none;fill:black;font-family:sans-serif;font-size:13;" transform="matrix(1 0 0 1 776 2025)">scales and weights.</text>
  <g transform="matrix(0.2 0 0 0.2 1289 1933)">
   <path d="m14.209 9.32617 8.49609 8.54492c4.29688 4.3457 9.22852 4.05273 13.8672-1.07422l53.4668-58.9355-4.83398-4.88281-53.0762 58.3984c-1.75781 2.00195-3.41797 2.49023-5.76172 0.146484l-5.85938-5.81055c-2.34375-2.29492-1.80664-4.00391 0.195312-5.81055l57.373-54.0039-4.88281-4.83398-57.959 54.4434c-4.93164 4.58984-5.32227 9.47266-1.02539 13.8184Zm32.0801-90.9668c-2.09961 2.05078-2.24609 4.93164-1.07422 6.88477 1.17188 1.80664 3.4668 2.97852 6.68945 2.14844 7.32422-1.70898 14.9414-2.00195 22.0703 2.68555l-2.92969 7.27539c-1.70898 4.15039-0.830078 7.08008 1.85547 9.81445l11.4746 11.5723c2.44141 2.44141 4.49219 2.53906 7.32422 2.05078l5.32227-0.976562 3.32031 3.36914-0.195312 2.7832c-0.195312 2.49023 0.439453 4.39453 2.88086 6.78711l3.80859 3.71094c2.39258 2.39258 5.46875 2.53906 7.8125 0.195312l14.5508-14.5996c2.34375-2.34375 2.24609-5.32227-0.146484-7.71484l-3.85742-3.80859c-2.39258-2.39258-4.24805-3.17383-6.64062-2.97852l-2.88086 0.244141-3.22266-3.17383 1.2207-5.61523c0.634766-2.83203-0.146484-5.0293-3.07617-7.95898l-10.9863-10.9375c-16.6992-16.6016-38.8672-16.2109-53.3203-1.75781Zm7.4707 1.85547c12.1582-8.88672 28.6133-7.37305 39.7461 3.75977l12.1582 12.0605c1.17188 1.17188 1.36719 2.09961 1.02539 3.80859l-1.61133 7.42188 7.51953 7.42188 4.93164-0.292969c1.26953-0.0488281 1.66016 0.0488281 2.63672 1.02539l2.88086 2.88086-12.207 12.207-2.88086-2.88086c-0.976562-0.976562-1.12305-1.36719-1.07422-2.68555l0.341797-4.88281-7.4707-7.42188-7.61719 1.26953c-1.61133 0.341797-2.34375 0.195312-3.56445-0.976562l-10.0098-10.0098c-1.26953-1.17188-1.41602-2.00195-0.634766-3.85742l4.39453-10.4492c-7.8125-7.27539-17.9688-10.4004-28.125-7.42188-0.78125 0.195312-1.07422-0.439453-0.439453-0.976562Z"/>
  </g>
  <text style="stroke:none;fill:black;font-family:sans-serif;font-size:13;font-weight:bold;" transform="matrix(1 0 0 1 1289 1953)">Exporting</text>
  <text style="stroke:none;fill:black;font-family:sans-serif;font-size:13;" transform="matrix(1 0 0 1 1289 1971)">Symbols should be outlined when exporting to ensure the</text>
  <text style="stroke:none;fill:black;font-family:sans-serif;font-size:13;" transform="matrix(1 0 0 1 1289 1989)">design is preserved when submitting to Xcode.</text>
  <text id="template-version" style="stroke:none;fill:black;font-family:sans-serif;font-size:13;text-anchor:end;" transform="matrix(1 0 0 1 3036 1933)">Template v.6.0</text>
  <text style="stroke:none;fill:black;font-family:sans-serif;font-size:13;text-anchor:end;" transform="matrix(1 0 0 1 3036 1951)">Requires Xcode 16 or greater</text>
  <text id="descriptive-name" style="stroke:none;fill:black;font-family:sans-serif;font-size:13;text-anchor:end;" transform="matrix(1 0 0 1 3036 1969)">Generated from filternahrung-3</text>
  <text style="stroke:none;fill:black;font-family:sans-serif;font-size:13;text-anchor:end;" transform="matrix(1 0 0 1 3036 1987)">Typeset at 100.0 points</text>
  <text style="stroke:none;fill:black;font-family:sans-serif;font-size:13;" transform="matrix(1 0 0 1 263 726)">Small</text>
  <text style="stroke:none;fill:black;font-family:sans-serif;font-size:13;" transform="matrix(1 0 0 1 263 1156)">Medium</text>
  <text style="stroke:none;fill:black;font-family:sans-serif;font-size:13;" transform="matrix(1 0 0 1 263 1586)">Large</text>
 </g>
 <g id="Guides">
  <g id="H-reference" style="fill:#27AAE1;stroke:none;" transform="matrix(1 0 0 1 339 696)">
   <path d="M0.993654 0L3.63775 0L29.3281-67.1323L30.0303-67.1323L30.0303-70.459L28.1226-70.459ZM11.6885-24.4799L46.9815-24.4799L46.2315-26.7285L12.4385-26.7285ZM55.1196 0L57.7637 0L30.6382-70.459L29.4326-70.459L29.4326-67.1323Z"/>
  </g>
  <line id="Baseline-S" style="fill:none;stroke:#27AAE1;opacity:1;stroke-width:0.5;" x1="263" x2="3036" y1="696" y2="696"/>
  <line id="Capline-S" style="fill:none;stroke:#27AAE1;opacity:1;stroke-width:0.5;" x1="263" x2="3036" y1="625.541" y2="625.541"/>
  <g id="H-reference" style="fill:#27AAE1;stroke:none;" transform="matrix(1 0 0 1 339 1126)">
   <path d="M0.993654 0L3.63775 0L29.3281-67.1323L30.0303-67.1323L30.0303-70.459L28.1226-70.459ZM11.6885-24.4799L46.9815-24.4799L46.2315-26.7285L12.4385-26.7285ZM55.1196 0L57.7637 0L30.6382-70.459L29.4326-70.459L29.4326-67.1323Z"/>
  </g>
  <line id="Baseline-M" style="fill:none;stroke:#27AAE1;opacity:1;stroke-width:0.5;" x1="263" x2="3036" y1="1126" y2="1126"/>
  <line id="Capline-M" style="fill:none;stroke:#27AAE1;opacity:1;stroke-width:0.5;" x1="263" x2="3036" y1="1055.54" y2="1055.54"/>
  <g id="H-reference" style="fill:#27AAE1;stroke:none;" transform="matrix(1 0 0 1 339 1556)">
   <path d="M0.993654 0L3.63775 0L29.3281-67.1323L30.0303-67.1323L30.0303-70.459L28.1226-70.459ZM11.6885-24.4799L46.9815-24.4799L46.2315-26.7285L12.4385-26.7285ZM55.1196 0L57.7637 0L30.6382-70.459L29.4326-70.459L29.4326-67.1323Z"/>
  </g>
  <line id="Baseline-L" style="fill:none;stroke:#27AAE1;opacity:1;stroke-width:0.5;" x1="263" x2="3036" y1="1556" y2="1556"/>
  <line id="Capline-L" style="fill:none;stroke:#27AAE1;opacity:1;stroke-width:0.5;" x1="263" x2="3036" y1="1485.54" y2="1485.54"/>
  <line id="right-margin-Black-S" style="fill:none;stroke:#00AEEF;stroke-width:0.5;opacity:1.0;" x1="2982.23" x2="2982.23" y1="600.785" y2="720.121"/>
  <line id="left-margin-Black-S" style="fill:none;stroke:#00AEEF;stroke-width:0.5;opacity:1.0;" x1="2884.57" x2="2884.57" y1="600.785" y2="720.121"/>
  <line id="right-margin-Regular-S" style="fill:none;stroke:#00AEEF;stroke-width:0.5;opacity:1.0;" x1="1496.11" x2="1496.11" y1="600.785" y2="720.121"/>
  <line id="left-margin-Regular-S" style="fill:none;stroke:#00AEEF;stroke-width:0.5;opacity:1.0;" x1="1403.58" x2="1403.58" y1="600.785" y2="720.121"/>
  <line id="right-margin-Ultralight-S" style="fill:none;stroke:#00AEEF;stroke-width:0.5;opacity:1.0;" x1="603.773" x2="603.773" y1="600.785" y2="720.121"/>
  <line id="left-margin-Ultralight-S" style="fill:none;stroke:#00AEEF;stroke-width:0.5;opacity:1.0;" x1="515.649" x2="515.649" y1="600.785" y2="720.121"/>
 </g>
 <g id="Symbols">
  <g id="Black-S" transform="matrix(1 0 0 1 2884.57 696)">
   <path class="monochrome-0 multicolor-0:tintColor hierarchical-0:primary SFSymbolsPreviewWireframe" d="M59.551-48.7353C62.3196-49.2666 65.1882-48.9944 67.799-47.9515C70.423-46.9038 72.673-45.1233 74.2626-42.8294C75.862-40.5205 76.7185-37.7981 76.7185-35.0096C76.7185-32.221 75.862-29.4986 74.2623-27.1894C72.673-24.8959 70.423-23.1154 67.7995-22.0678C65.1883-21.0247 62.3198-20.7526 59.551-21.2838C56.7761-21.8164 54.2208-23.1341 52.2083-25.0754L52.295-24.994L51.8494-25.393C50.7403-26.405 49.7117-27.4935 48.7712-28.6492L48.574-28.897L48.3773-28.6492C47.4368-27.4935 46.4082-26.405 45.2991-25.393L44.871-25.011L44.6342-24.7889C42.7748-23.0982 40.4889-21.9192 38.0118-21.3696L37.5972-21.2838C34.8286-20.7525 31.96-21.0247 29.3493-22.0676C26.7254-23.1154 24.4753-24.896 22.8861-27.1895C21.2864-29.4983 20.43-32.2208 20.43-35.0096C20.43-37.7983 21.2864-40.5208 22.8861-42.8296C24.4753-45.1232 26.7254-46.9037 29.3488-47.9513C31.9601-48.9944 34.8288-49.2666 37.5972-48.7353C40.3723-48.2028 42.9276-46.8851 44.9402-44.9437L44.871-45.009L45.2991-44.6262C46.4082-43.6142 47.4368-42.5256 48.3773-41.3699L48.574-41.123L48.7712-41.3699C49.7117-42.5256 50.7403-43.6142 51.8494-44.6262L52.295-45.026L52.5142-45.2302C54.3736-46.9209 56.6595-48.0999 59.1365-48.6495L59.551-48.7353ZM36.2-39.9103C35.1624-40.1095 34.0864-40.0074 33.1114-39.6179C32.1451-39.232 31.3243-38.5825 30.7511-37.7551C30.185-36.9381 29.8847-35.9837 29.8847-35.0096C29.8847-34.0355 30.185-33.081 30.7511-32.264C31.3243-31.4366 32.1451-30.7871 33.1117-30.4011C34.0864-30.0118 35.1624-29.9097 36.2001-30.1088C37.2324-30.3069 38.1768-30.794 38.9132-31.5043L38.997-31.5812C40.079-32.5275 41.0243-33.6045 41.8102-34.783L41.9573-35.0099L41.8102-35.2361C41.0958-36.3075 40.2496-37.295 39.2887-38.1766L38.997-38.4379L38.9132-38.5149C38.1768-39.2252 37.2324-39.7122 36.2-39.9103ZM64.0366-39.618C63.0619-40.0074 61.9859-40.1095 60.9482-39.9103C59.916-39.7122 58.9715-39.2252 58.2352-38.5149L58.1514-38.4379C57.0693-37.4916 56.1241-36.4147 55.3382-35.2361L55.1908-35.0099L55.3382-34.783C56.0526-33.7116 56.8988-32.7242 57.8597-31.8425L58.1514-31.5812L58.2352-31.5043C58.9715-30.794 59.916-30.3069 60.9482-30.1088C61.986-29.9097 63.0619-30.0118 64.037-30.4013C65.0032-30.7871 65.8241-31.4366 66.3973-32.2639C66.9634-33.081 67.2637-34.0356 67.2637-35.0096C67.2637-35.9836 66.9634-36.9381 66.3975-37.755C65.8241-38.5825 65.0032-39.232 64.0366-39.618Z"/>
   <path class="monochrome-1 multicolor-1:tintColor hierarchical-1:tertiary SFSymbolsPreviewWireframe" d="M48.9411-84C55.3091-84.0013 61.615-82.7479 67.4985-80.3116C73.382-77.8752 78.7279-74.3036 83.2305-69.8009C87.7334-65.2983 91.305-59.9524 93.7418-54.0682C96.1779-48.1846 97.4312-41.8789 97.43-35.5124C97.43-8.72255 75.7254 13 48.9424 13C22.156 13 0.43-8.726 0.43-35.5124C0.43-62.2926 22.1539-84 48.9411-84ZM48.9424-70C29.8835-70 14.43-54.5582 14.43-35.5124C14.43-16.458 29.888-0.999999 48.9424-0.999999C67.9909-0.999999 83.43-16.4519 83.43-35.5138C83.4309-40.0428 82.5395-44.5276 80.8069-48.7121C79.0739-52.8969 76.5337-56.6989 73.3311-59.9013C70.1287-63.1038 66.3266-65.644 62.1422-67.3767C57.9578-69.1095 53.4729-70.0009 48.9424-70Z"/>
  </g>
  <g id="Regular-S" transform="matrix(1 0 0 1 1403.58 696)">
   <path class="monochrome-0 multicolor-0:tintColor hierarchical-0:primary SFSymbolsPreviewWireframe" d="M57.166-50.1103C59.9347-50.6416 62.8033-50.3694 65.4141-49.3265C68.038-48.2787 70.2881-46.4982 71.8776-44.2043C73.4771-41.8955 74.3335-39.173 74.3335-36.3845C74.3335-33.596 73.4771-30.8736 71.8774-28.5643C70.2881-26.2708 68.038-24.4903 65.4145-23.4428C62.8034-22.3997 59.9348-22.1275 57.166-22.6588C54.3911-23.1913 51.8359-24.5091 49.8233-26.4504L49.91-26.369L49.4644-26.7679C48.3553-27.7799 47.3267-28.8685 46.3862-30.0242L46.189-30.272L45.9923-30.0242C45.0518-28.8685 44.0232-27.7799 42.9141-26.7679L42.486-26.386L42.2493-26.1639C40.3898-24.4731 38.1039-23.2941 35.6268-22.7445L35.2123-22.6588C32.4437-22.1275 29.575-22.3997 26.9644-23.4426C24.3404-24.4904 22.0903-26.2709 20.5012-28.5645C18.9015-30.8733 18.045-33.5958 18.045-36.3845C18.045-39.1733 18.9015-41.8957 20.5012-44.2046C22.0903-46.4981 24.3404-48.2787 26.9639-49.3262C29.5751-50.3694 32.4438-50.6416 35.2123-50.1103C37.9874-49.5777 40.5426-48.26 42.5552-46.3187L42.486-46.384L42.9141-46.0011C44.0232-44.9891 45.0518-43.9006 45.9923-42.7449L46.189-42.498L46.3862-42.7449C47.3267-43.9006 48.3553-44.9891 49.4644-46.0011L49.91-46.401L50.1292-46.6052C51.9887-48.2959 54.2745-49.4749 56.7515-50.0245L57.166-50.1103ZM33.9401-43.4812C32.4375-43.7696 30.8794-43.6218 29.4675-43.0577C28.0683-42.499 26.8797-41.5585 26.0495-40.3603C25.2298-39.1773 24.795-37.7951 24.795-36.3845C24.795-34.974 25.2298-33.5918 26.0495-32.4088C26.8797-31.2106 28.0683-30.2701 29.468-29.7111C30.8794-29.1473 32.4375-28.9995 33.9402-29.2878C35.435-29.5747 36.8027-30.28 37.869-31.3085L37.9903-31.42C39.5572-32.7903 40.9261-34.3498 42.064-36.0564L42.277-36.385L42.064-36.7126C41.0295-38.2641 39.8042-39.694 38.4127-40.9707L37.9903-41.3491L37.869-41.4605C36.8027-42.4891 35.435-43.1944 33.9401-43.4812ZM62.9105-43.0579C61.499-43.6218 59.941-43.7696 58.4382-43.4812C56.9435-43.1944 55.5758-42.4891 54.5095-41.4605L54.3882-41.3491C52.8213-39.9787 51.4525-38.4192 50.3145-36.7126L50.101-36.385L50.3145-36.0564C51.349-34.505 52.5743-33.0751 53.9658-31.7984L54.3882-31.42L54.5095-31.3085C55.5758-30.28 56.9435-29.5747 58.4381-29.2878C59.941-28.9995 61.499-29.1473 62.911-29.7113C64.3103-30.2701 65.4989-31.2106 66.329-32.4085C67.1487-33.5918 67.5835-34.9741 67.5835-36.3845C67.5835-37.795 67.1487-39.1773 66.3292-40.3602C65.4989-41.5584 64.3103-42.499 62.9105-43.0579Z"/>
   <path class="monochrome-1 multicolor-1:tintColor hierarchical-1:tertiary SFSymbolsPreviewWireframe" d="M46.4321-81.8365C52.4502-81.8377 58.4096-80.6532 63.9698-78.3508C69.53-76.0483 74.5822-72.6729 78.8374-68.4176C83.0928-64.1624 86.4682-59.1103 88.771-53.5496C91.0733-47.9892 92.2577-42.03 92.2566-36.0127C92.2566-10.693 71.744 9.83658 46.4328 9.83658C21.1173 9.83658 0.5835-10.6972 0.5835-36.0127C0.5835-61.3211 21.1145-81.8365 46.4321-81.8365ZM46.4328-75.0865C24.8413-75.0865 7.3335-57.592 7.3335-36.0127C7.3335-14.4252 24.8452 3.08658 46.4328 3.08658C68.0148 3.08658 85.5066-14.4197 85.5066-36.0133C85.5076-41.1447 84.4976-46.226 82.5345-50.9672C80.571-55.7085 77.693-60.0162 74.0644-63.6446C70.4361-67.273 66.1283-70.1511 61.3873-72.1143C56.6463-74.0776 51.5649-75.0875 46.4328-75.0865Z"/>
  </g>
  <g id="Ultralight-S" transform="matrix(1 0 0 1 515.649 696)">
   <path class="monochrome-0 multicolor-0:tintColor hierarchical-0:primary SFSymbolsPreviewWireframe" d="M55.472-50.7353C58.2407-51.2666 61.1093-50.9944 63.7201-49.9514C66.344-48.9037 68.5941-47.1232 70.1836-44.8293C71.7831-42.5205 72.6395-39.798 72.6395-37.0095C72.6395-34.221 71.7831-31.4986 70.1834-29.1893C68.5941-26.8958 66.344-25.1153 63.7205-24.0678C61.1094-23.0247 58.2408-22.7525 55.472-23.2838C52.6971-23.8163 50.1419-25.1341 48.1293-27.0753L48.216-26.994L47.7704-27.3929C46.6613-28.4049 45.6327-29.4935 44.6922-30.6492L44.495-30.897L44.2983-30.6492C43.3578-29.4935 42.3292-28.4049 41.2201-27.3929L40.792-27.011L40.5553-26.7888C38.6958-25.0981 36.4099-23.9191 33.9328-23.3695L33.5183-23.2838C30.7497-22.7525 27.881-23.0247 25.2704-24.0676C22.6464-25.1154 20.3963-26.8959 18.8072-29.1895C17.2075-31.4983 16.351-34.2208 16.351-37.0095C16.351-39.7982 17.2075-42.5207 18.8072-44.8296C20.3963-47.1231 22.6464-48.9037 25.2699-49.9512C27.8811-50.9944 30.7498-51.2666 33.5183-50.7353C36.2934-50.2027 38.8486-48.885 40.8612-46.9437L40.792-47.009L41.2201-46.6261C42.3292-45.6141 43.3578-44.5255 44.2983-43.3699L44.495-43.123L44.6922-43.3699C45.6327-44.5255 46.6613-45.6141 47.7704-46.6261L48.216-47.026L48.4352-47.2302C50.2947-48.9209 52.5805-50.0999 55.0575-50.6495L55.472-50.7353ZM32.3443-45.8309C30.4766-46.1894 28.5398-46.0056 26.7847-45.3045C25.0455-44.6099 23.568-43.4408 22.5361-41.9515C21.5172-40.4809 20.9768-38.7629 20.9768-37.0095C20.9768-35.2561 21.5172-33.5381 22.5361-32.0675C23.568-30.5782 25.0455-29.4091 26.7854-28.7143C28.5397-28.0135 30.4765-27.8297 32.3444-28.1882C34.2025-28.5447 35.9025-29.4214 37.228-30.7L37.3788-30.8385C39.3265-32.5418 41.028-34.4803 42.4425-36.6017L42.7073-37.0101L42.4425-37.4173C41.1566-39.3459 39.6335-41.1232 37.9039-42.7102L37.3788-43.1806L37.228-43.3191C35.9025-44.5976 34.2025-45.4743 32.3443-45.8309ZM62.2052-45.3047C60.4506-46.0056 58.514-46.1894 56.6461-45.8309C54.7881-45.4743 53.088-44.5976 51.7626-43.3191L51.6118-43.1806C49.6641-41.4772 47.9626-39.5387 46.548-37.4173L46.2827-37.0101L46.548-36.6017C47.834-34.6732 49.3571-32.8958 51.0867-31.3088L51.6118-30.8385L51.7626-30.7C53.088-29.4214 54.7881-28.5447 56.6459-28.1882C58.514-27.8297 60.4507-28.0135 62.2058-28.7146C63.9451-29.4091 65.4226-30.5782 66.4544-32.0672C67.4733-33.5381 68.0138-35.2563 68.0138-37.0095C68.0138-38.7627 67.4733-40.4809 66.4547-41.9513C65.4226-43.4408 63.9451-44.6099 62.2052-45.3047Z"/>
   <path class="monochrome-1 multicolor-1:tintColor hierarchical-1:tertiary SFSymbolsPreviewWireframe" d="M44.3636-80.5865C50.0861-80.5876 55.7528-79.4613 61.04-77.272C66.3271-75.0826 71.1312-71.8729 75.1774-67.8265C79.2239-63.7803 82.4335-58.9764 84.6232-53.6889C86.8124-48.4015 87.9387-42.7349 87.9376-37.0127C87.9376-12.9352 68.432 6.58658 44.3638 6.58658C20.2909 6.58658 0.7645-12.9399 0.7645-37.0127C0.7645-61.0781 20.2877-80.5865 44.3636-80.5865ZM44.3638-78.3365C21.53-78.3365 3.0145-59.8351 3.0145-37.0127C3.0145-14.1825 21.5336 4.33658 44.3638 4.33658C67.1889 4.33658 85.6876-14.1774 85.6876-37.0129C85.6886-42.4398 84.6205-47.8138 82.5443-52.828C80.4678-57.8425 77.4239-62.3983 73.5865-66.2355C69.7491-70.073 65.1932-73.1168 60.1791-75.1931C55.1651-77.2695 49.791-78.3376 44.3638-78.3365Z"/>
  </g>
 </g>
</svg>
