<?xml version="1.0" encoding="UTF-8"?>
<svg width="3300px" height="2200px" viewBox="0 0 3300 2200" version="1.1" xmlns="http://www.w3.org/2000/svg" xmlns:xlink="http://www.w3.org/1999/xlink">
    <!-- Generator: Sketch 59.1 (86144) - https://sketch.com -->
    <title>filter</title>
    <desc>Created with Sketch.</desc>
    <g id="Page-1" stroke="none" stroke-width="1" fill="none" fill-rule="evenodd">
        <g id="filter">
            <g id="Notes">
                <rect id="artboard" fill="#FFFFFF" fill-rule="nonzero" x="0" y="0" width="3300" height="2200"></rect>
                <line x1="263" y1="292" x2="3036" y2="292" id="Path" stroke="#000000" stroke-width="0.5"></line>
                <text id="Weight/Scale-Variations" fill="#000000" font-family="Helvetica-Bold, Helvetica" font-size="13" font-weight="bold">
                    <tspan x="263" y="322">Weight/Scale Variations</tspan>
                </text>
                <text id="Ultralight" fill="#000000" font-family="Helvetica" font-size="13" font-weight="normal">
                    <tspan x="533.711" y="322">Ultralight</tspan>
                </text>
                <text id="Thin" fill="#000000" font-family="Helvetica" font-size="13" font-weight="normal">
                    <tspan x="843.422" y="322">Thin</tspan>
                </text>
                <text id="Light" fill="#000000" font-family="Helvetica" font-size="13" font-weight="normal">
                    <tspan x="1138.63" y="322">Light</tspan>
                </text>
                <text id="Regular" fill="#000000" font-family="Helvetica" font-size="13" font-weight="normal">
                    <tspan x="1426.84" y="322">Regular</tspan>
                </text>
                <text id="Medium" fill="#000000" font-family="Helvetica" font-size="13" font-weight="normal">
                    <tspan x="1723.06" y="322">Medium</tspan>
                </text>
                <text id="Semibold" fill="#000000" font-family="Helvetica" font-size="13" font-weight="normal">
                    <tspan x="2015.77" y="322">Semibold</tspan>
                </text>
                <text id="Bold" fill="#000000" font-family="Helvetica" font-size="13" font-weight="normal">
                    <tspan x="2326.48" y="322">Bold</tspan>
                </text>
                <text id="Heavy" fill="#000000" font-family="Helvetica" font-size="13" font-weight="normal">
                    <tspan x="2618.19" y="322">Heavy</tspan>
                </text>
                <text id="Black" fill="#000000" font-family="Helvetica" font-size="13" font-weight="normal">
                    <tspan x="2917.4" y="322">Black</tspan>
                </text>
                <line x1="263" y1="1903" x2="3036" y2="1903" id="Path" stroke="#000000" stroke-width="0.5"></line>
                <g id="Group" transform="translate(264.000000, 1918.000000)" fill="#000000" fill-rule="nonzero">
                    <path d="M8.24805,15.830078 C12.5547,15.830078 16.1387,12.25586 16.1387,7.94922 C16.1387,3.6426 12.5449,0.0684 8.23828,0.0684 C3.94141,0.0684 0.36719,3.6426 0.36719,7.94922 C0.36719,12.25586 3.95117,15.830078 8.24805,15.830078 Z M8.24805,14.345703 C4.70312,14.345703 1.87109,11.50391 1.87109,7.94922 C1.87109,4.3945 4.69336,1.5527 8.23828,1.5527 C11.793,1.5527 14.6348,4.3945 14.6445503,7.94922 C14.6543,11.50391 11.8027,14.345703 8.24805,14.345703 Z M8.22852,11.57227 C8.69727,11.57227 8.9707,11.25977 8.9707,10.74219 L8.9707,8.68164 L11.1973,8.68164 C11.6953,8.68164 12.0371,8.42773 12.0371,7.95898 C12.0371,7.48047 11.7148,7.2168 11.1973,7.2168 L8.9707,7.2168 L8.9707,4.9902 C8.9707,4.4727 8.69727,4.1504 8.22852,4.1504 C7.75977,4.1504 7.50586,4.4922 7.50586,4.9902 L7.50586,7.2168 L5.29883,7.2168 C4.78125,7.2168 4.44922,7.48047 4.44922,7.95898 C4.44922,8.42773 4.80078,8.68164 5.29883,8.68164 L7.50586,8.68164 L7.50586,10.74219 C7.50586,11.24023 7.75977,11.57227 8.22852,11.57227 Z" id="Shape"></path>
                </g>
                <g id="Group" transform="translate(282.506000, 1915.000000)" fill="#000000" fill-rule="nonzero">
                    <path d="M10.709,20.91016 C16.1582,20.91016 20.6699,16.39844 20.6699,10.94922 C20.6699,5.5098 16.1484,0.9883 10.6992,0.9883 C5.25977,0.9883 0.74805,5.5098 0.74805,10.94922 C0.74805,16.39844 5.26953,20.91016 10.709,20.91016 Z M10.709,19.25 C6.09961,19.25 2.41797,15.55859 2.41797,10.94922 C2.41797,6.3496 6.08984,2.6484 10.6992,2.6484 C15.3086,2.6484 19,6.3496 19.0098379,10.94922 C19.0195,15.55859 15.3184,19.25 10.709,19.25 Z M10.6895,15.58789 C11.207,15.58789 11.5195,15.22656 11.5195,14.66016 L11.5195,11.76953 L14.5762,11.76953 C15.123,11.76953 15.5039,11.48633 15.5039,10.96875 C15.5039,10.44141 15.1426,10.13867 14.5762,10.13867 L11.5195,10.13867 L11.5195,7.0723 C11.5195,6.4961 11.207,6.1445 10.6895,6.1445 C10.1719,6.1445 9.8789,6.5156 9.8789,7.0723 L9.8789,10.13867 L6.83203,10.13867 C6.26562,10.13867 5.89453,10.44141 5.89453,10.96875 C5.89453,11.48633 6.28516,11.76953 6.83203,11.76953 L9.8789,11.76953 L9.8789,14.66016 C9.8789,15.20703 10.1719,15.58789 10.6895,15.58789 Z" id="Shape"></path>
                </g>
                <g id="Group" transform="translate(306.924000, 1913.000000)" fill="#000000" fill-rule="nonzero">
                    <path d="M12.9707,25.67383 C19.9336,25.67383 25.6953,19.921875 25.6953,12.95898 C25.6953,5.9961 19.9238,0.2441 12.9609,0.2441 C6.00781,0.2441 0.25586,5.9961 0.25586,12.95898 C0.25586,19.921875 6.01758,25.67383 12.9707,25.67383 Z M12.9707,23.85742 C6.93555,23.85742 2.08203,18.99414 2.08203,12.95898 C2.08203,6.9238 6.92578,2.0605 12.9609,2.0605 C19.0059,2.0605 23.8594,6.9238 23.8691295,12.95898 C23.8789,18.99414 19.0156,23.85742 12.9707,23.85742 Z M12.9512,18.93555 C13.5176,18.93555 13.8691,18.54492 13.8691,17.93945 L13.8691,13.86719 L18.1074,13.86719 C18.6934,13.86719 19.1133,13.53516 19.1133,12.97852 C19.1133,12.40234 18.7227,12.06055 18.1074,12.06055 L13.8691,12.06055 L13.8691,7.8125 C13.8691,7.1973 13.5176,6.8066 12.9512,6.8066 C12.3848,6.8066 12.0625,7.2168 12.0625,7.8125 L12.0625,12.06055 L7.83398,12.06055 C7.21875,12.06055 6.80859,12.40234 6.80859,12.97852 C6.80859,13.53516 7.23828,13.86719 7.83398,13.86719 L12.0625,13.86719 L12.0625,17.93945 C12.0625,18.52539 12.3848,18.93555 12.9512,18.93555 Z" id="Shape"></path>
                </g>
                <text id="Design-Variations" fill="#000000" font-family="Helvetica-Bold, Helvetica" font-size="13" font-weight="bold">
                    <tspan x="263" y="1953">Design Variations</tspan>
                </text>
                <text id="Symbols-are-supported-in-up-to-nine-weights-and-three-scales." fill="#000000" font-family="Helvetica" font-size="13" font-weight="normal">
                    <tspan x="263" y="1971">Symbols are supported in up to nine weights and three scales.</tspan>
                </text>
                <text id="For-optimal-layout-with-text-and-other-symbols,-vertically-align" fill="#000000" font-family="Helvetica" font-size="13" font-weight="normal">
                    <tspan x="263" y="1989">For optimal layout with text and other symbols, vertically align</tspan>
                </text>
                <text id="symbols-with-the-adjacent-text." fill="#000000" font-family="Helvetica" font-size="13" font-weight="normal">
                    <tspan x="263" y="2007">symbols with the adjacent text.</tspan>
                </text>
                <rect id="Rectangle" fill="#00AEEF" fill-rule="nonzero" opacity="0.4" x="776" y="1919" width="3" height="14"></rect>
                <g id="Group" transform="translate(779.000000, 1918.000000)" fill="#000000" fill-rule="nonzero">
                    <path d="M10.5273,15 L12.373,15 L7.17773,0.9082 L5.43945,0.9082 L0.244141,15 L2.08984,15 L3.50586,10.9668 L9.11133,10.9668 L10.5273,15 Z M6.2793,3.0469 L6.33789,3.0469 L8.59375,9.47266 L4.02344,9.47266 L6.2793,3.0469 Z" id="Shape"></path>
                </g>
                <rect id="Rectangle" fill="#00AEEF" fill-rule="nonzero" opacity="0.4" x="791.617" y="1919" width="3" height="14"></rect>
                <text id="Margins" fill="#000000" font-family="Helvetica-Bold, Helvetica" font-size="13" font-weight="bold">
                    <tspan x="776" y="1953">Margins</tspan>
                </text>
                <text id="Leading-and-trailing-margins-on-the-left-and-right-side-of-each-symbol" fill="#000000" font-family="Helvetica" font-size="13" font-weight="normal">
                    <tspan x="776" y="1971">Leading and trailing margins on the left and right side of each symbol</tspan>
                </text>
                <text id="can-be-adjusted-by-modifying-the-width-of-the-blue-rectangles." fill="#000000" font-family="Helvetica" font-size="13" font-weight="normal">
                    <tspan x="776" y="1989">can be adjusted by modifying the width of the blue rectangles.</tspan>
                </text>
                <text id="Modifications-are-automatically-applied-proportionally-to-all" fill="#000000" font-family="Helvetica" font-size="13" font-weight="normal">
                    <tspan x="776" y="2007">Modifications are automatically applied proportionally to all</tspan>
                </text>
                <text id="scales-and-weights." fill="#000000" font-family="Helvetica" font-size="13" font-weight="normal">
                    <tspan x="776" y="2025">scales and weights.</tspan>
                </text>
                <g id="Group" transform="translate(1291.000000, 1915.000000)" fill="#000000" fill-rule="nonzero">
                    <path d="M0.83203,21.11523 L2.375,22.6582 C3.22461,23.48828 4.19141,23.41992 5.06055,22.46289 L15.2754,11.33984 C15.7051,11.63281 16.0957,11.62305 16.5645,11.52539 L17.6094,11.31055 L18.3027,12.00391 L18.2539,12.52148 C18.1855,13.04883 18.3516,13.46875 18.8496,13.9668 L19.6602,14.77734 C20.168,15.28516 20.8223,15.31445 21.3008,14.83594 L24.5527,11.58398 C25.0312,11.10547 25.0117,10.45117 24.5039,9.94336 L23.6836,9.12305 C23.1855,8.625 22.7754,8.44922 22.2383,8.52734 L21.7109,8.58594 L21.0566,7.9219 L21.3398,6.7793 C21.4863,6.2129 21.3398,5.7441 20.7148,5.1387 L18.3027,2.7461 C14.7578,-0.7793 10.2266,-0.6719 7.11133,2.4629 C6.69141,2.8926 6.64258,3.4785 6.91602,3.9082 C7.15039,4.2793 7.62891,4.5039 8.2734,4.3379 C9.7871,3.957 11.3008,4.0742 12.7852,5.0801 L12.1602,6.6621 C11.9258,7.248 11.9453,7.7266 12.1797,8.16602 L1.01758,18.439453 C0.08008,19.30859 -0.02734,20.25586 0.83203,21.11523 Z M8.6738,2.8535 C11.3398,0.8613 14.6504,1.1738 17.0527,3.5859 L19.6797,6.1934 C19.9141,6.4277 19.9434,6.6133 19.8848,6.9062 L19.5039,8.46875 L21.0762,10.04102 L22.043,9.95312 C22.3262,9.92383 22.4141,9.94336 22.6387,10.16797 L23.2637,10.79297 L20.5098,13.53711 L19.8848,12.92188 C19.6602,12.69727 19.6406,12.59961 19.6699,12.31641 L19.7578,11.35938 L18.1953,9.79688 L16.5742,10.10938 C16.291,10.16797 16.1445,10.16797 15.9102,9.92383 L13.7324,7.7461 C13.5078,7.5117 13.4785,7.375 13.6055,7.0527 L14.5527,4.7773 C12.9512,3.2441 10.8418,2.3945 8.8008,3.0488 C8.7129,3.0781 8.6445,3.0586 8.6152,3.0195 C8.5859,2.9707 8.5859,2.9219 8.6738,2.8535 Z M2.10156,20.41211 C1.61328,19.91406 1.78906,19.61133 2.12109,19.30859 L13.0781,9.19141 L14.3086,10.42188 L4.15234,21.34961 C3.84961,21.68164 3.46875,21.7793 3.06836,21.37891 L2.10156,20.41211 Z" id="Shape"></path>
                </g>
                <text id="Exporting" fill="#000000" font-family="Helvetica-Bold, Helvetica" font-size="13" font-weight="bold">
                    <tspan x="1289" y="1953">Exporting</tspan>
                </text>
                <text id="Symbols-should-be-outlined-when-exporting-to-ensure-the" fill="#000000" font-family="Helvetica" font-size="13" font-weight="normal">
                    <tspan x="1289" y="1971">Symbols should be outlined when exporting to ensure the</tspan>
                </text>
                <text id="design-is-preserved-when-submitting-to-Xcode." fill="#000000" font-family="Helvetica" font-size="13" font-weight="normal">
                    <tspan x="1289" y="1989">design is preserved when submitting to Xcode.</tspan>
                </text>
                <text id="Template-v.1.0" fill="#000000" font-family="Helvetica" font-size="13" font-weight="normal">
                    <tspan x="2952" y="1933">Template v.1.0</tspan>
                </text>
                <text id="Generated-from-circle" fill="#000000" font-family="Helvetica" font-size="13" font-weight="normal">
                    <tspan x="2911" y="1951">Generated from circle</tspan>
                </text>
                <text id="Typeset-at-100-points" fill="#000000" font-family="Helvetica" font-size="13" font-weight="normal">
                    <tspan x="2912" y="1969">Typeset at 100 points</tspan>
                </text>
                <text id="Small" fill="#000000" font-family="Helvetica" font-size="13" font-weight="normal">
                    <tspan x="263" y="726">Small</tspan>
                </text>
                <text id="Medium" fill="#000000" font-family="Helvetica" font-size="13" font-weight="normal">
                    <tspan x="263" y="1156">Medium</tspan>
                </text>
                <text id="Large" fill="#000000" font-family="Helvetica" font-size="13" font-weight="normal">
                    <tspan x="263" y="1586">Large</tspan>
                </text>
            </g>
            <g id="Guides" transform="translate(263.000000, 625.000000)">
                <g id="H-reference" transform="translate(76.000000, 0.000000)" fill="#27AAE1" fill-rule="nonzero">
                    <path d="M54.9316,71 L57.666,71 L30.5664,0.541 L28.0762,0.541 L0.976562,71 L3.66211,71 L12.9395,46.5371 L45.7031,46.5371 L54.9316,71 Z M29.1992,3.9102 L29.4434,3.9102 L44.8242,44.291 L13.8184,44.291 L29.1992,3.9102 Z" id="Shape"></path>
                </g>
                <line x1="0" y1="71" x2="2773" y2="71" id="Baseline-S" stroke="#27AAE1" stroke-width="0.577"></line>
                <line x1="0" y1="0.541" x2="2773" y2="0.541" id="Capline-S" stroke="#27AAE1" stroke-width="0.577"></line>
                <g id="H-reference" transform="translate(76.000000, 430.000000)" fill="#27AAE1" fill-rule="nonzero">
                    <path d="M54.9316,71 L57.666,71 L30.5664,0.541 L28.0762,0.541 L0.976562,71 L3.66211,71 L12.9395,46.5371 L45.7031,46.5371 L54.9316,71 Z M29.1992,3.9102 L29.4434,3.9102 L44.8242,44.291 L13.8184,44.291 L29.1992,3.9102 Z" id="Shape"></path>
                </g>
                <line x1="0" y1="501" x2="2773" y2="501" id="Baseline-M" stroke="#27AAE1" stroke-width="0.577"></line>
                <line x1="0" y1="430.54" x2="2773" y2="430.54" id="Capline-M" stroke="#27AAE1" stroke-width="0.577"></line>
                <g id="H-reference" transform="translate(76.000000, 860.000000)" fill="#27AAE1" fill-rule="nonzero">
                    <path d="M54.9316,71 L57.666,71 L30.5664,0.541 L28.0762,0.541 L0.976562,71 L3.66211,71 L12.9395,46.5371 L45.7031,46.5371 L54.9316,71 Z M29.1992,3.9102 L29.4434,3.9102 L44.8242,44.291 L13.8184,44.291 L29.1992,3.9102 Z" id="Shape"></path>
                </g>
                <line x1="0" y1="931" x2="2773" y2="931" id="Baseline-L" stroke="#27AAE1" stroke-width="0.577"></line>
                <line x1="0" y1="860.54" x2="2773" y2="860.54" id="Capline-L" stroke="#27AAE1" stroke-width="0.577"></line>
                <rect id="left-margin" fill="#00AEEF" fill-rule="nonzero" opacity="0.4" x="1128.3" y="405.79" width="8.74023" height="119.336"></rect>
                <rect id="right-margin" fill="#00AEEF" fill-rule="nonzero" opacity="0.4" x="1236.65" y="405.79" width="8.74023" height="119.336"></rect>
            </g>
            <g id="Symbols" transform="translate(1399.000000, 1040.000000)" fill="#000000" fill-rule="nonzero">
                <g id="Regular-M" transform="translate(0.300000, 0.000000)">
                    <!-- <path d="M50.5449,100.5508 C77.791,100.5508 100.35,77.99219 100.35,50.7461 C100.35,23.5488 77.7422,0.9414 50.4961,0.9414 C23.2988,0.9414 0.74023,23.5488 0.74023,50.7461 C0.74023,77.99219 23.3477,100.5508 50.5449,100.5508 Z M50.1551,92.0078 C27.1082,92.0078 8.7,73.5508 8.7,50.5039 C8.7,27.5058 27.0594,9 50.1063,9 C73.1532,9 91.6102,27.5058 91.6593938,50.5039 C91.7082,73.5508 73.202,92.0078 50.1551,92.0078 Z" id="Shape"></path> -->
                    <path d="M66.588,43.9468756 C66.5795,44.0185201 66.5625,44.0901647 66.55825,44.1575948 C66.54975,44.608534 66.56675,45.0594732 66.537,45.506198 C66.503,45.9655659 66.4265,46.4165051 66.367,46.8716586 C66.32875,47.2298813 66.31175,47.588104 66.248,47.937898 C66.1885,48.3003351 66.0865,48.6543434 65.99725,49.0083517 C65.9845,49.0631387 65.93775,49.1347833 65.8995,49.1474264 C65.4745,49.2485716 65.5,49.6868677 65.432,50.0745911 C65.398,50.2726671 65.3045,50.4538857 65.245,50.643533 C65.143,50.9469687 65.0495,51.2588332 64.94325,51.5622689 C64.84975,51.815132 64.68825,51.8446327 64.531,51.6381278 C64.446,51.520125 64.3695,51.5116963 64.3185,51.6676285 C64.24625,51.8867765 64.1995,52.1101389 64.12725,52.3250725 C63.953,52.8307987 63.77025,53.3280961 63.5875,53.8296079 C63.5875,53.8380367 63.579,53.842251 63.57475,53.8464654 C63.03925,54.0192552 63.05625,54.7567725 62.746,55.1613535 C62.5675,55.3889303 62.4145,55.6502221 62.24875,55.8988708 C61.84925,56.5015278 61.46675,57.1210424 61.05025,57.7026275 C60.61675,58.3221421 60.14925,58.9037271 59.69875,59.5063842 C59.57125,59.6749596 59.4735,59.8814644 59.33325,60.0289679 C58.89975,60.4841214 58.479,60.9561325 58.0115,61.3564991 C57.70125,61.6177909 57.323,61.7652944 56.97025,61.9507273 C56.6685,62.1150883 56.34975,62.2373055 56.048,62.4143097 C55.8525,62.5238837 55.67825,62.6882447 55.4955,62.8357481 C55.419,62.8905351 55.351,62.9790372 55.27025,63.0211811 C54.66675,63.3372599 54.0675,63.6701963 53.45125,63.9483457 C53.02625,64.137993 52.5715,64.2517814 52.1295,64.411928 C52.05725,64.433 51.93825,64.521502 51.9425,64.5636459 C51.9517498,64.6680724 51.9967397,64.7662207 52.07,64.8417953 C52.42275,65.1368022 52.77125,65.4233804 53.13675,65.6846722 C53.515,65.9586073 53.91025,66.186184 54.2885,66.4516903 C54.6285,66.6919102 54.943,67.0122034 55.3,67.2102795 C55.759,67.4589282 56.2435,67.6232892 56.7195,67.8087222 C56.79175,67.8382229 56.8895,67.7707927 56.9745,67.7455064 C57.272,67.6485755 57.54825,67.522144 57.8755,67.6401468 C58.1638842,67.7486857 58.4745041,67.786284 58.78075,67.7497208 C59.601,67.6359324 60.4085,67.4294275 61.22875,67.3282823 C61.66225,67.2692809 62.10425,67.3619974 62.54625,67.3662118 C62.83525,67.3662118 63.13275,67.3914981 63.26875,67.7497208 C63.43875,68.179588 63.5535,68.6473847 63.681,69.0983239 C63.6895,69.1236102 63.62575,69.2163267 63.613,69.2121123 C63.54925,69.186826 63.477,69.1531109 63.443,69.0856808 C63.29425,68.8328177 63.188,68.5251676 63.0095,68.3144483 C62.7885,68.0531565 62.508,67.8930099 62.168,67.9520112 C61.4285,68.0784428 60.6805,68.1669449 59.9325,68.2723045 C59.23125,68.3692353 58.53,68.453523 57.833,68.5673114 C57.74375,68.584169 57.62475,68.7443156 57.6035,68.8623184 C57.5695,69.0519657 57.66725,69.1741828 57.83725,69.1826116 C58.25375,69.2078979 58.6745,69.2753281 59.091,69.2542561 C59.3885,69.241613 59.686,69.1278246 59.975,69.0308938 C60.622521,68.8119007 61.324979,68.8119007 61.9725,69.0308938 C62.1255,69.0814664 62.27,69.2163267 62.40175,69.3469726 C62.45275,69.3975452 62.45275,69.5408343 62.474,69.6419795 C62.389,69.6588371 62.2785,69.7262672 62.2275,69.6841234 C61.95975,69.4439035 61.70475,69.5281912 61.42,69.6124788 C61.03325,69.7262672 60.62525,69.7136241 60.23,69.7979118 C59.87725,69.8737707 59.52875,70.0212742 59.176,70.0971331 C58.89125,70.1603489 58.598,70.1687776 58.30475,70.1856352 C57.8415,70.2151359 57.37825,70.2446366 56.915,70.2446366 C56.5665,70.2446366 56.218,70.2024927 55.86525,70.1814208 C55.46575,70.1561345 55.06625,70.1055619 54.66675,70.1308482 C54.17375,70.1603489 53.68925,70.2488509 53.19625,70.3289243 C52.77125,70.4047832 52.35475,70.522786 51.92975,70.5902161 C51.58975,70.6407887 51.24975,70.6492175 50.9055,70.6745038 C50.8715,70.6745038 50.829,70.6745038 50.80775,70.6534319 C50.5315,70.3542106 50.2595,70.5691442 49.98325,70.6492175 C49.7809469,70.7037262 49.5723831,70.7320572 49.36275,70.7335052 C49.09075,70.7377196 49.078,70.4637846 49.095,70.227779 C49.11625,69.9707016 49.2395,69.8569132 49.4775,69.8484844 C50.4975,69.7979118 51.51325,69.7220529 52.529,69.625122 C52.733,69.6040501 52.92425,69.4396891 53.124,69.351187 C53.209,69.3132575 53.29825,69.3006144 53.4215,69.2668993 C53.4555,69.1362534 53.277,68.9381773 53.056,68.9718924 C52.767,69.0140362 52.48225,69.0983239 52.19325,69.1278246 C51.662,69.1783972 51.13075,69.186826 50.5995,69.2373986 C50.12775,69.2837568 49.656,69.3554014 49.18425,69.4270459 C48.9564818,69.456559 48.7317794,69.5059177 48.51275,69.5745494 C48.4065,69.6124788 48.32575,69.7431248 48.2195,69.8021262 C48.12175,69.8569132 47.9985,69.9201289 47.905,69.8906282 C47.837,69.8737707 47.7435,69.7009809 47.752,69.6082645 C47.7734053,69.4852464 47.8328074,69.3718558 47.922,69.2837568 C48.3632502,68.8133034 49.0120159,68.5920109 49.65175,68.693743 C49.7881814,68.7011584 49.9235018,68.6657686 50.0385,68.5925977 C50.3595882,68.3846826 50.763322,68.3468542 51.118,68.4914525 C51.30925,68.5588827 51.526,68.5125244 51.73425,68.4998813 C52.053,68.4872381 52.37175,68.4703806 52.6905,68.4366655 C52.75425,68.4324511 52.818,68.365021 52.8775,68.3270915 C52.8435,68.2638757 52.818,68.1838024 52.7755,68.1332298 C52.512,67.8213653 52.24,67.5179296 51.98075,67.2018508 C51.73425,66.8984151 51.51325,66.5570499 51.25825,66.2704717 C50.89275,65.8658908 50.47625,65.5329544 50.1405,65.0946584 C49.83875,64.7027206 49.5455,64.8249378 49.23525,64.9597981 C48.5236318,65.277615 47.7271262,65.3574855 46.96575,65.1873748 C46.018,64.9850844 45.0575,64.871296 44.1055,64.7111494 C43.73575,64.652148 43.3745,64.5552171 43.00475,64.5172877 C42.23975,64.4414287 41.55125,64.7490788 40.884,65.2042324 C40.25075,65.638314 39.60475,66.0428949 38.9715,66.4769766 C38.51675,66.7930554 38.079,67.1428494 37.6285,67.4757858 C37.4755,67.5895742 37.30975,67.6822906 37.161,67.8045078 C36.41725,68.3945217 35.648,68.9508204 34.9425,69.6166932 C34.2965,70.2193503 33.7695,71.0074402 33.2935,71.837674 C33.132,72.1242522 32.93225,72.3771153 32.741,72.6384071 C32.367,73.1820627 31.98025,73.7130752 31.6105,74.2567309 C30.7427612,75.536675 29.8940858,76.8292266 29.06475,78.1339649 C28.80975,78.5385458 28.56325,78.9515555 28.32525,79.3687796 C28.24875,79.5036399 28.2275,79.6975016 28.14675,79.8239331 C28.0915,79.9166496 27.93425,80.030438 27.8875,79.9925085 C27.6024202,79.8019264 27.3388231,79.5815126 27.10125,79.3350645 C27.03325,79.2592056 27.04175,78.9979137 27.08425,78.8504103 C27.24575,78.2730396 27.403,77.6872401 27.62825,77.1477988 C27.91725,76.4608541 28.27425,75.8160532 28.59725,75.1543948 C28.8395,74.652883 29.07325,74.1429425 29.31975,73.6498595 C29.52375,73.2368498 29.749,72.8364832 29.95725,72.4234735 C30.04225,72.2422549 30.0975,72.0273213 30.1825,71.8418884 C30.23775,71.7238856 30.36525,71.6480267 30.395,71.5258095 C30.582,70.8177929 30.9985,70.2867804 31.262,69.6419795 C31.49575,69.0646088 31.70825,68.4661662 31.92925,67.8761523 C32.078,67.4757858 32.231,67.0754192 32.367,66.6666239 C32.45625,66.4011177 32.52,66.1187539 32.60075,65.8490332 L33.1405,64.0368478 C33.32325,63.4131189 33.4975,62.7893899 33.67175,62.1572322 C33.69725,62.0645157 33.6845,61.9549417 33.68875,61.8537965 C33.60375,61.8453677 33.51025,61.8032239 33.44225,61.8369389 C33.10225,62.0097287 32.76225,62.2035904 32.4265,62.3890234 C32.27775,62.473311 32.13325,62.5575987 31.9845,62.6292433 C31.483,62.8694632 30.973,63.0843968 30.48,63.3499031 C29.9275,63.64491 29.38775,63.9778464 28.848,64.3107828 C28.28275,64.6563624 27.73025,65.0272282 27.165,65.3854509 C26.7655,65.6340996 26.366,65.8911771 25.95375,66.1018963 C25.72566,66.2184088 25.4748254,66.2845457 25.2185,66.295758 C25.06975,66.3041868 24.887,66.1903984 24.768,66.0597525 C24.7,65.9796792 24.683,65.747888 24.717,65.6130277 C24.8105,65.254805 24.95075,64.9134398 25.06125,64.5594315 C25.244,63.9820608 25.61375,63.5859086 25.96225,63.1981852 C26.82075,62.2583774 27.71325,61.3733566 28.58875,60.4546207 C29.0945,59.9193939 29.5875,59.3588807 30.089,58.8236538 C30.8455,58.014492 31.619,57.2306164 32.367,56.4088114 C32.93225,55.780868 33.472,55.1149952 34.0245,54.4617656 C34.07975,54.4027642 34.1265,54.3184765 34.19025,54.2763327 C34.6025,54.006612 34.8065,53.4924571 35.07,53.0499467 C35.09975,52.9993741 35.07,52.8392275 35.0275,52.7844405 C34.6595289,52.3018385 34.5635146,51.6671067 34.7725,51.0986866 C35.22725,50.0450904 35.7245,49.0504956 36.379,48.1781179 C36.9315,47.4490293 37.41175,46.6356531 37.95575,45.9023501 C38.538,45.1142602 39.1585,44.3725285 39.762,43.6181536 C39.9745,43.348433 40.1785,43.0618548 40.4165,42.8258493 C41.05825,42.176834 41.71275,41.5488907 42.3715,40.9209473 C42.822,40.4910801 43.2895,40.0949279 43.7315,39.6566319 C44.267,39.1298338 44.77275,38.5608919 45.3125,38.0425225 C45.7176378,37.6551505 46.1432372,37.2893887 46.5875,36.9467825 C47.123,36.525344 47.684,36.1671213 48.22375,35.7498972 C48.58925,35.4633191 48.9335,35.1303827 49.28625,34.8185182 C49.63475,34.5066537 49.996,34.2074324 50.3275,33.8702816 C50.9225,33.2760534 51.628,32.8799012 52.16775,32.1845277 C52.45675,31.8094475 52.80525,31.5102261 53.1495,31.223648 C53.40875,31.0045 53.4725,30.730565 53.45125,30.3723423 C53.447,30.2627683 53.49375,30.1489799 53.532,30.0436202 C53.73175,29.4831071 53.9825,28.9394514 54.127,28.3578663 C54.3055,27.6161346 54.5435,26.9460474 54.97275,26.3855343 C55.18525,26.1031705 55.3595,25.7786629 55.572,25.5005135 C56.0565,24.859927 56.5325,24.2193405 57.0425,23.6166835 C57.3995,23.1868162 57.7905,22.7906641 58.1985,22.4366557 C58.4705,22.2006502 58.79775,22.0573611 59.108,21.8761426 C59.54575,21.6232795 59.97925,21.3493445 60.42975,21.1301965 C60.6519222,21.0297765 60.8959723,20.9863026 61.1395,21.0037649 C61.58575,21.0290512 62.02775,21.1596972 62.46975,21.1554828 C62.80125,21.1554828 62.9925,21.4420609 63.24325,21.5937788 C63.75325,21.8972145 64.23775,22.2680803 64.73925,22.6010167 C65.143,22.8707374 65.55525,23.1278148 65.96325,23.3933211 C66.37125,23.6588273 66.792,23.9116904 67.19575,24.1940542 C67.44225,24.3626296 67.676,24.56492 67.90125,24.7756393 C68.24125,25.0959325 68.62375,25.1633627 69.03175,25.1296476 C69.4695,25.0875038 69.90725,25.0875038 70.34925,25.0453599 C70.889,25.0032161 71.42875,24.9189284 71.9685,24.8767845 C72.29575,24.8557126 72.62725,24.8767845 72.95875,24.8852133 C73.34975,24.8978564 73.74075,24.8894277 74.13175,24.9357859 C74.59925,24.9905729 75.0625,25.079075 75.52575,25.1802202 C75.5895,25.1928634 75.6405,25.3277237 75.7,25.407797 C75.64475,25.4710128 75.60225,25.5637292 75.5385,25.5932299 C75.105,25.7786629 74.663,25.9388095 74.2295,26.1284568 C73.592,26.4108206 72.9545,26.7100419 72.317,26.9881913 C72.028,27.1146228 71.722,27.1651954 71.4415,27.3211277 C70.99525,27.5739908 70.583,27.9111416 70.1325,28.1513615 C69.6225,28.4252965 69.41,29.0026672 69.11675,29.5126078 C68.85325,29.9761901 68.8575,30.5156313 68.80225,31.0382151 C68.7385,31.6745872 68.72575,32.3236024 68.69175,32.9641889 C68.69175,33.031619 68.68325,33.0948348 68.6875,33.1580506 C68.75975,33.9798556 68.475,34.7089442 68.31775,35.4717478 C68.3135,35.4886054 68.30075,35.5096773 68.30075,35.5307492 C68.2965,36.2682666 67.8375,36.7950646 67.73975,37.4946525 C67.65475,38.0678088 67.51025,38.6325364 67.47625,39.2141215 C67.43375,40.073856 67.46775,40.9420193 67.45075,41.8101825 C67.43375,42.61513 67.3955,43.4200775 67.36575,44.2292394 C67.353,44.4483874 67.27225,44.6169628 67.08525,44.6380347 C66.894,44.6591066 66.80475,44.5116032 66.7665,44.2882408 C66.74525,44.1618092 66.69,44.0522352 66.65175,43.9342324 L66.588,43.9468756 L66.588,43.9468756 Z M57.392,70.9992973 C57.644,70.8952973 57.952,70.7912973 58.256,70.6392973 C58.412,70.5592973 58.552,70.3992973 58.7,70.2792973 C58.54,70.0912973 58.388,69.8952973 58.22,69.7272973 C58.172,69.6792973 58.1,69.7072973 58.036,69.6992973 C57.892,69.6752973 57.724,69.7192973 57.608,69.6112973 C57.04,69.0872973 56.488,68.5152973 55.928,67.9672973 C55.5949367,67.641183 55.2534891,67.3237434 54.904,67.0152973 C54.852,66.9712973 54.768,67.0392973 54.7,67.0552973 L54.808,67.3272973 C54.836,67.3952973 54.864,67.4632973 54.888,67.5392973 C54.932,67.6792973 54.956,67.8592973 55.024,67.9592973 C55.432,68.6072973 55.864,69.2112973 56.256,69.8792973 C56.568,70.4112973 56.868,70.9192973 57.392,70.9992973 Z" id="Shape"></path>
                </g>
            </g>
        </g>
    </g>
</svg>