<?xml version="1.0" encoding="UTF-8"?>
<svg width="3300px" height="2200px" viewBox="0 0 3300 2200" version="1.1" xmlns="http://www.w3.org/2000/svg" xmlns:xlink="http://www.w3.org/1999/xlink">
    <!-- Generator: Sketch 59.1 (86144) - https://sketch.com -->
    <title>filter</title>
    <desc>Created with Sketch.</desc>
    <g id="Page-1" stroke="none" stroke-width="1" fill="none" fill-rule="evenodd">
        <g id="filter">
            <g id="Notes">
                <rect id="artboard" fill="#FFFFFF" fill-rule="nonzero" x="0" y="0" width="3300" height="2200"></rect>
                <line x1="263" y1="292" x2="3036" y2="292" id="Path" stroke="#000000" stroke-width="0.5"></line>
                <text id="Weight/Scale-Variations" fill="#000000" font-family="Helvetica-Bold, Helvetica" font-size="13" font-weight="bold">
                    <tspan x="263" y="322">Weight/Scale Variations</tspan>
                </text>
                <text id="Ultralight" fill="#000000" font-family="Helvetica" font-size="13" font-weight="normal">
                    <tspan x="533.711" y="322">Ultralight</tspan>
                </text>
                <text id="Thin" fill="#000000" font-family="Helvetica" font-size="13" font-weight="normal">
                    <tspan x="843.422" y="322">Thin</tspan>
                </text>
                <text id="Light" fill="#000000" font-family="Helvetica" font-size="13" font-weight="normal">
                    <tspan x="1138.63" y="322">Light</tspan>
                </text>
                <text id="Regular" fill="#000000" font-family="Helvetica" font-size="13" font-weight="normal">
                    <tspan x="1426.84" y="322">Regular</tspan>
                </text>
                <text id="Medium" fill="#000000" font-family="Helvetica" font-size="13" font-weight="normal">
                    <tspan x="1723.06" y="322">Medium</tspan>
                </text>
                <text id="Semibold" fill="#000000" font-family="Helvetica" font-size="13" font-weight="normal">
                    <tspan x="2015.77" y="322">Semibold</tspan>
                </text>
                <text id="Bold" fill="#000000" font-family="Helvetica" font-size="13" font-weight="normal">
                    <tspan x="2326.48" y="322">Bold</tspan>
                </text>
                <text id="Heavy" fill="#000000" font-family="Helvetica" font-size="13" font-weight="normal">
                    <tspan x="2618.19" y="322">Heavy</tspan>
                </text>
                <text id="Black" fill="#000000" font-family="Helvetica" font-size="13" font-weight="normal">
                    <tspan x="2917.4" y="322">Black</tspan>
                </text>
                <line x1="263" y1="1903" x2="3036" y2="1903" id="Path" stroke="#000000" stroke-width="0.5"></line>
                <g id="Group" transform="translate(264.000000, 1918.000000)" fill="#000000" fill-rule="nonzero">
                    <path d="M8.24805,15.830078 C12.5547,15.830078 16.1387,12.25586 16.1387,7.94922 C16.1387,3.6426 12.5449,0.0684 8.23828,0.0684 C3.94141,0.0684 0.36719,3.6426 0.36719,7.94922 C0.36719,12.25586 3.95117,15.830078 8.24805,15.830078 Z M8.24805,14.345703 C4.70312,14.345703 1.87109,11.50391 1.87109,7.94922 C1.87109,4.3945 4.69336,1.5527 8.23828,1.5527 C11.793,1.5527 14.6348,4.3945 14.6445503,7.94922 C14.6543,11.50391 11.8027,14.345703 8.24805,14.345703 Z M8.22852,11.57227 C8.69727,11.57227 8.9707,11.25977 8.9707,10.74219 L8.9707,8.68164 L11.1973,8.68164 C11.6953,8.68164 12.0371,8.42773 12.0371,7.95898 C12.0371,7.48047 11.7148,7.2168 11.1973,7.2168 L8.9707,7.2168 L8.9707,4.9902 C8.9707,4.4727 8.69727,4.1504 8.22852,4.1504 C7.75977,4.1504 7.50586,4.4922 7.50586,4.9902 L7.50586,7.2168 L5.29883,7.2168 C4.78125,7.2168 4.44922,7.48047 4.44922,7.95898 C4.44922,8.42773 4.80078,8.68164 5.29883,8.68164 L7.50586,8.68164 L7.50586,10.74219 C7.50586,11.24023 7.75977,11.57227 8.22852,11.57227 Z" id="Shape"></path>
                </g>
                <g id="Group" transform="translate(282.506000, 1915.000000)" fill="#000000" fill-rule="nonzero">
                    <path d="M10.709,20.91016 C16.1582,20.91016 20.6699,16.39844 20.6699,10.94922 C20.6699,5.5098 16.1484,0.9883 10.6992,0.9883 C5.25977,0.9883 0.74805,5.5098 0.74805,10.94922 C0.74805,16.39844 5.26953,20.91016 10.709,20.91016 Z M10.709,19.25 C6.09961,19.25 2.41797,15.55859 2.41797,10.94922 C2.41797,6.3496 6.08984,2.6484 10.6992,2.6484 C15.3086,2.6484 19,6.3496 19.0098379,10.94922 C19.0195,15.55859 15.3184,19.25 10.709,19.25 Z M10.6895,15.58789 C11.207,15.58789 11.5195,15.22656 11.5195,14.66016 L11.5195,11.76953 L14.5762,11.76953 C15.123,11.76953 15.5039,11.48633 15.5039,10.96875 C15.5039,10.44141 15.1426,10.13867 14.5762,10.13867 L11.5195,10.13867 L11.5195,7.0723 C11.5195,6.4961 11.207,6.1445 10.6895,6.1445 C10.1719,6.1445 9.8789,6.5156 9.8789,7.0723 L9.8789,10.13867 L6.83203,10.13867 C6.26562,10.13867 5.89453,10.44141 5.89453,10.96875 C5.89453,11.48633 6.28516,11.76953 6.83203,11.76953 L9.8789,11.76953 L9.8789,14.66016 C9.8789,15.20703 10.1719,15.58789 10.6895,15.58789 Z" id="Shape"></path>
                </g>
                <g id="Group" transform="translate(306.924000, 1913.000000)" fill="#000000" fill-rule="nonzero">
                    <path d="M12.9707,25.67383 C19.9336,25.67383 25.6953,19.921875 25.6953,12.95898 C25.6953,5.9961 19.9238,0.2441 12.9609,0.2441 C6.00781,0.2441 0.25586,5.9961 0.25586,12.95898 C0.25586,19.921875 6.01758,25.67383 12.9707,25.67383 Z M12.9707,23.85742 C6.93555,23.85742 2.08203,18.99414 2.08203,12.95898 C2.08203,6.9238 6.92578,2.0605 12.9609,2.0605 C19.0059,2.0605 23.8594,6.9238 23.8691295,12.95898 C23.8789,18.99414 19.0156,23.85742 12.9707,23.85742 Z M12.9512,18.93555 C13.5176,18.93555 13.8691,18.54492 13.8691,17.93945 L13.8691,13.86719 L18.1074,13.86719 C18.6934,13.86719 19.1133,13.53516 19.1133,12.97852 C19.1133,12.40234 18.7227,12.06055 18.1074,12.06055 L13.8691,12.06055 L13.8691,7.8125 C13.8691,7.1973 13.5176,6.8066 12.9512,6.8066 C12.3848,6.8066 12.0625,7.2168 12.0625,7.8125 L12.0625,12.06055 L7.83398,12.06055 C7.21875,12.06055 6.80859,12.40234 6.80859,12.97852 C6.80859,13.53516 7.23828,13.86719 7.83398,13.86719 L12.0625,13.86719 L12.0625,17.93945 C12.0625,18.52539 12.3848,18.93555 12.9512,18.93555 Z" id="Shape"></path>
                </g>
                <text id="Design-Variations" fill="#000000" font-family="Helvetica-Bold, Helvetica" font-size="13" font-weight="bold">
                    <tspan x="263" y="1953">Design Variations</tspan>
                </text>
                <text id="Symbols-are-supported-in-up-to-nine-weights-and-three-scales." fill="#000000" font-family="Helvetica" font-size="13" font-weight="normal">
                    <tspan x="263" y="1971">Symbols are supported in up to nine weights and three scales.</tspan>
                </text>
                <text id="For-optimal-layout-with-text-and-other-symbols,-vertically-align" fill="#000000" font-family="Helvetica" font-size="13" font-weight="normal">
                    <tspan x="263" y="1989">For optimal layout with text and other symbols, vertically align</tspan>
                </text>
                <text id="symbols-with-the-adjacent-text." fill="#000000" font-family="Helvetica" font-size="13" font-weight="normal">
                    <tspan x="263" y="2007">symbols with the adjacent text.</tspan>
                </text>
                <rect id="Rectangle" fill="#00AEEF" fill-rule="nonzero" opacity="0.4" x="776" y="1919" width="3" height="14"></rect>
                <g id="Group" transform="translate(779.000000, 1918.000000)" fill="#000000" fill-rule="nonzero">
                    <path d="M10.5273,15 L12.373,15 L7.17773,0.9082 L5.43945,0.9082 L0.244141,15 L2.08984,15 L3.50586,10.9668 L9.11133,10.9668 L10.5273,15 Z M6.2793,3.0469 L6.33789,3.0469 L8.59375,9.47266 L4.02344,9.47266 L6.2793,3.0469 Z" id="Shape"></path>
                </g>
                <rect id="Rectangle" fill="#00AEEF" fill-rule="nonzero" opacity="0.4" x="791.617" y="1919" width="3" height="14"></rect>
                <text id="Margins" fill="#000000" font-family="Helvetica-Bold, Helvetica" font-size="13" font-weight="bold">
                    <tspan x="776" y="1953">Margins</tspan>
                </text>
                <text id="Leading-and-trailing-margins-on-the-left-and-right-side-of-each-symbol" fill="#000000" font-family="Helvetica" font-size="13" font-weight="normal">
                    <tspan x="776" y="1971">Leading and trailing margins on the left and right side of each symbol</tspan>
                </text>
                <text id="can-be-adjusted-by-modifying-the-width-of-the-blue-rectangles." fill="#000000" font-family="Helvetica" font-size="13" font-weight="normal">
                    <tspan x="776" y="1989">can be adjusted by modifying the width of the blue rectangles.</tspan>
                </text>
                <text id="Modifications-are-automatically-applied-proportionally-to-all" fill="#000000" font-family="Helvetica" font-size="13" font-weight="normal">
                    <tspan x="776" y="2007">Modifications are automatically applied proportionally to all</tspan>
                </text>
                <text id="scales-and-weights." fill="#000000" font-family="Helvetica" font-size="13" font-weight="normal">
                    <tspan x="776" y="2025">scales and weights.</tspan>
                </text>
                <g id="Group" transform="translate(1291.000000, 1915.000000)" fill="#000000" fill-rule="nonzero">
                    <path d="M0.83203,21.11523 L2.375,22.6582 C3.22461,23.48828 4.19141,23.41992 5.06055,22.46289 L15.2754,11.33984 C15.7051,11.63281 16.0957,11.62305 16.5645,11.52539 L17.6094,11.31055 L18.3027,12.00391 L18.2539,12.52148 C18.1855,13.04883 18.3516,13.46875 18.8496,13.9668 L19.6602,14.77734 C20.168,15.28516 20.8223,15.31445 21.3008,14.83594 L24.5527,11.58398 C25.0312,11.10547 25.0117,10.45117 24.5039,9.94336 L23.6836,9.12305 C23.1855,8.625 22.7754,8.44922 22.2383,8.52734 L21.7109,8.58594 L21.0566,7.9219 L21.3398,6.7793 C21.4863,6.2129 21.3398,5.7441 20.7148,5.1387 L18.3027,2.7461 C14.7578,-0.7793 10.2266,-0.6719 7.11133,2.4629 C6.69141,2.8926 6.64258,3.4785 6.91602,3.9082 C7.15039,4.2793 7.62891,4.5039 8.2734,4.3379 C9.7871,3.957 11.3008,4.0742 12.7852,5.0801 L12.1602,6.6621 C11.9258,7.248 11.9453,7.7266 12.1797,8.16602 L1.01758,18.439453 C0.08008,19.30859 -0.02734,20.25586 0.83203,21.11523 Z M8.6738,2.8535 C11.3398,0.8613 14.6504,1.1738 17.0527,3.5859 L19.6797,6.1934 C19.9141,6.4277 19.9434,6.6133 19.8848,6.9062 L19.5039,8.46875 L21.0762,10.04102 L22.043,9.95312 C22.3262,9.92383 22.4141,9.94336 22.6387,10.16797 L23.2637,10.79297 L20.5098,13.53711 L19.8848,12.92188 C19.6602,12.69727 19.6406,12.59961 19.6699,12.31641 L19.7578,11.35938 L18.1953,9.79688 L16.5742,10.10938 C16.291,10.16797 16.1445,10.16797 15.9102,9.92383 L13.7324,7.7461 C13.5078,7.5117 13.4785,7.375 13.6055,7.0527 L14.5527,4.7773 C12.9512,3.2441 10.8418,2.3945 8.8008,3.0488 C8.7129,3.0781 8.6445,3.0586 8.6152,3.0195 C8.5859,2.9707 8.5859,2.9219 8.6738,2.8535 Z M2.10156,20.41211 C1.61328,19.91406 1.78906,19.61133 2.12109,19.30859 L13.0781,9.19141 L14.3086,10.42188 L4.15234,21.34961 C3.84961,21.68164 3.46875,21.7793 3.06836,21.37891 L2.10156,20.41211 Z" id="Shape"></path>
                </g>
                <text id="Exporting" fill="#000000" font-family="Helvetica-Bold, Helvetica" font-size="13" font-weight="bold">
                    <tspan x="1289" y="1953">Exporting</tspan>
                </text>
                <text id="Symbols-should-be-outlined-when-exporting-to-ensure-the" fill="#000000" font-family="Helvetica" font-size="13" font-weight="normal">
                    <tspan x="1289" y="1971">Symbols should be outlined when exporting to ensure the</tspan>
                </text>
                <text id="design-is-preserved-when-submitting-to-Xcode." fill="#000000" font-family="Helvetica" font-size="13" font-weight="normal">
                    <tspan x="1289" y="1989">design is preserved when submitting to Xcode.</tspan>
                </text>
                <text id="Template-v.1.0" fill="#000000" font-family="Helvetica" font-size="13" font-weight="normal">
                    <tspan x="2952" y="1933">Template v.1.0</tspan>
                </text>
                <text id="Generated-from-circle" fill="#000000" font-family="Helvetica" font-size="13" font-weight="normal">
                    <tspan x="2911" y="1951">Generated from circle</tspan>
                </text>
                <text id="Typeset-at-100-points" fill="#000000" font-family="Helvetica" font-size="13" font-weight="normal">
                    <tspan x="2912" y="1969">Typeset at 100 points</tspan>
                </text>
                <text id="Small" fill="#000000" font-family="Helvetica" font-size="13" font-weight="normal">
                    <tspan x="263" y="726">Small</tspan>
                </text>
                <text id="Medium" fill="#000000" font-family="Helvetica" font-size="13" font-weight="normal">
                    <tspan x="263" y="1156">Medium</tspan>
                </text>
                <text id="Large" fill="#000000" font-family="Helvetica" font-size="13" font-weight="normal">
                    <tspan x="263" y="1586">Large</tspan>
                </text>
            </g>
            <g id="Guides" transform="translate(263.000000, 625.000000)">
                <g id="H-reference" transform="translate(76.000000, 0.000000)" fill="#27AAE1" fill-rule="nonzero">
                    <path d="M54.9316,71 L57.666,71 L30.5664,0.541 L28.0762,0.541 L0.976562,71 L3.66211,71 L12.9395,46.5371 L45.7031,46.5371 L54.9316,71 Z M29.1992,3.9102 L29.4434,3.9102 L44.8242,44.291 L13.8184,44.291 L29.1992,3.9102 Z" id="Shape"></path>
                </g>
                <line x1="0" y1="71" x2="2773" y2="71" id="Baseline-S" stroke="#27AAE1" stroke-width="0.577"></line>
                <line x1="0" y1="0.541" x2="2773" y2="0.541" id="Capline-S" stroke="#27AAE1" stroke-width="0.577"></line>
                <g id="H-reference" transform="translate(76.000000, 430.000000)" fill="#27AAE1" fill-rule="nonzero">
                    <path d="M54.9316,71 L57.666,71 L30.5664,0.541 L28.0762,0.541 L0.976562,71 L3.66211,71 L12.9395,46.5371 L45.7031,46.5371 L54.9316,71 Z M29.1992,3.9102 L29.4434,3.9102 L44.8242,44.291 L13.8184,44.291 L29.1992,3.9102 Z" id="Shape"></path>
                </g>
                <line x1="0" y1="501" x2="2773" y2="501" id="Baseline-M" stroke="#27AAE1" stroke-width="0.577"></line>
                <line x1="0" y1="430.54" x2="2773" y2="430.54" id="Capline-M" stroke="#27AAE1" stroke-width="0.577"></line>
                <g id="H-reference" transform="translate(76.000000, 860.000000)" fill="#27AAE1" fill-rule="nonzero">
                    <path d="M54.9316,71 L57.666,71 L30.5664,0.541 L28.0762,0.541 L0.976562,71 L3.66211,71 L12.9395,46.5371 L45.7031,46.5371 L54.9316,71 Z M29.1992,3.9102 L29.4434,3.9102 L44.8242,44.291 L13.8184,44.291 L29.1992,3.9102 Z" id="Shape"></path>
                </g>
                <line x1="0" y1="931" x2="2773" y2="931" id="Baseline-L" stroke="#27AAE1" stroke-width="0.577"></line>
                <line x1="0" y1="860.54" x2="2773" y2="860.54" id="Capline-L" stroke="#27AAE1" stroke-width="0.577"></line>
                <rect id="left-margin" fill="#00AEEF" fill-rule="nonzero" opacity="0.4" x="1128.3" y="405.79" width="8.74023" height="119.336"></rect>
                <rect id="right-margin" fill="#00AEEF" fill-rule="nonzero" opacity="0.4" x="1236.65" y="405.79" width="8.74023" height="119.336"></rect>
            </g>
            <g id="Symbols" transform="translate(1399.000000, 1040.000000)" fill-rule="nonzero">
                <g id="Regular-M" transform="translate(0.300000, 0.000000)">
                    <!-- <path d="M50.5449,100.5508 C77.791,100.5508 100.35,77.99219 100.35,50.7461 C100.35,23.5488 77.7422,0.9414 50.4961,0.9414 C23.2988,0.9414 0.74023,23.5488 0.74023,50.7461 C0.74023,77.99219 23.3477,100.5508 50.5449,100.5508 Z M50.1551,92.0078 C27.1082,92.0078 8.7,73.5508 8.7,50.5039 C8.7,27.5058 27.0594,9 50.1063,9 C73.1532,9 91.6102,27.5058 91.6593938,50.5039 C91.7082,73.5508 73.202,92.0078 50.1551,92.0078 Z" id="Shape" fill="#000000"></path> -->
                    <path d="M28.5595131,32.9682009 C29.3810437,31.2235479 29.9533459,30.7989234 30.4194953,29.9681363 C30.8810294,29.1373492 31.0287203,28.9988847 30.2025743,28.5927221 C29.3810437,28.1957905 28.4856677,27.4526975 27.7333672,27.3650033 C26.9810667,27.2819246 24.3318613,27.5080834 22.4026489,27.7665505 C20.4688213,28.0250176 20.288823,27.6927027 21.3272746,27.0419195 C22.3703416,26.3957517 23.7041749,25.3803452 25.2041606,24.8311027 C26.6995309,24.2864756 26.9256826,24.2357052 27.1195269,23.9772381 C27.3179865,23.7141555 28.5872052,21.8448845 29.4964272,21.3279503 C30.3271885,20.84794 30.7333385,21.0140974 32.8471644,21.0925607 C34.9656057,21.1710239 35.9394425,21.5171852 36.7978958,21.9695026 C37.6609645,22.42182 39.8117132,23.728002 40.6978585,25.8788175 C41.5840039,28.0250176 40.2686319,31.9527944 39.728637,32.7512731 C39.1932575,33.5451364 39.1932575,34.0159157 39.7055603,34.1451493 C40.2132478,34.2743828 42.045538,34.2236125 46.5639563,35.1882487 C51.0823746,36.1575003 53.6761959,36.7021274 59.1361437,39.2960294 C64.5914761,41.8899314 65.7637726,42.8222591 67.6283701,44.6222979 C70.0184805,46.9337259 72.3574848,49.2974248 74.6436876,51.7116812 C76.5036699,53.7148013 76.2452108,54.1301948 76.8128977,54.9979058 C77.3713539,55.8610013 76.9836653,55.9994658 76.9836653,55.9994658 C76.9836653,55.9994658 77.8513493,57.4164194 78.0682703,57.9702775 C78.2851913,58.5241355 77.8928873,59.110302 77.8928873,59.110302 C77.8928873,59.110302 78.3267293,59.6964685 78.4098055,60.2826349 C78.4666518,60.6196985 78.4380891,60.9656359 78.3267293,61.2888104 C78.3267293,61.2888104 78.4790356,61.8518995 78.8390321,62.3965266 C79.3190275,63.1119266 80.0667127,63.8780969 80.3620945,64.0581008 C80.883628,64.3673382 80.8374746,64.5381111 79.9697905,64.5381111 C79.1021065,64.5381111 78.4513435,64.3673382 77.8467339,64.2611821 C77.2421243,64.1596414 76.2867489,64.2611821 75.3775268,64.1596414 C74.697605,64.0454654 74.0003573,64.0928987 73.3421616,64.298106 C72.5621691,64.5058027 72.520631,64.7134995 72.520631,64.7134995 C72.520631,64.7134995 73.5590826,65.4058221 73.3421616,65.8858324 C73.1252406,66.3704583 72.696014,66.4027666 71.436026,66.4027666 C70.1806534,66.4027666 68.1868263,66.301226 68.1868263,66.301226 C68.1868263,66.301226 65.9760783,67.3397099 63.3361035,67.5104828 C60.6915134,67.6812557 57.9176938,67.9258764 57.9176938,67.9258764 C57.9176938,67.9258764 57.4838518,69.2043654 57.2715461,71.1382532 C57.0546251,73.0767564 56.9669337,75.3568055 56.9669337,75.3568055 L58.7438397,76.2937488 C59.3899874,76.6399101 59.4822942,76.7091423 59.4822942,76.7091423 C59.4822942,76.7091423 60.2438254,76.8429914 60.5715146,77.230692 C60.8945884,77.6230081 60.7330515,78.089172 60.603822,77.8537823 C60.4745924,77.6230081 59.791522,77.1522288 59.4038334,77.1799217 C59.0115295,77.2076146 58.8776846,77.1799217 58.5546108,76.9491475 C58.231537,76.7137578 58.231537,76.7368352 57.839233,76.658372 C57.4469291,76.5799088 56.6992439,76.2429784 56.6992439,76.2429784 C56.6992439,76.2429784 56.4084775,77.0276107 56.2423252,77.1522288 C56.0807883,77.2860778 55.0746441,77.1291514 54.4515731,77.230692 C53.8331175,77.3368481 53.8331175,77.3876185 53.8331175,77.3876185 C53.8331175,77.3876185 55.3331031,77.9876314 55.8500213,78.2737914 C56.3715548,78.5599514 56.5653991,78.5322585 57.1192399,78.6891849 C57.6730808,78.8461114 58.1946142,79.4692017 58.1946142,79.6492056 C58.1946142,79.833825 58.1299995,79.6215127 57.608466,79.4415088 C57.0869325,79.2568895 56.9900104,79.1045785 56.6346292,79.2107346 C56.2746326,79.3122753 55.8223292,79.1276559 55.3977179,78.9984224 L54.9777219,78.8691888 C54.9777219,78.8691888 54.6546481,79.0261153 53.8054255,78.7399553 C53.4395879,78.64141 53.0887297,78.4939208 52.7623585,78.3014843 C52.7623585,78.3014843 52.5223608,78.5691824 52.1392875,78.8091875 C51.8684384,78.9728871 51.5720054,79.0899037 51.2623729,79.1553488 C50.7454547,79.233812 49.8316173,79.1553488 49.8316173,79.1553488 C49.8316173,79.1553488 48.7285509,79.6261282 48.0777879,79.6999759 C47.4270249,79.7784392 46.9377988,79.7553617 46.9377988,79.7553617 C46.9377988,79.7553617 46.0931915,80.2999888 45.2162768,80.4015295 C44.3393622,80.5076856 43.7162912,80.3553746 43.7162912,80.3553746 C43.7162912,80.3553746 43.3932174,80.6092263 42.6778396,80.7153824 C41.9624618,80.8215385 40.6932432,80.6646121 40.6932432,80.6646121 C40.6932432,80.6646121 39.6824836,80.8953863 38.3163429,80.9738495 C36.9502021,81.0523127 36.9502021,80.9507721 36.9502021,80.7153824 C36.9502021,80.4846082 36.7563578,80.4292224 36.5625135,80.4846082 C36.3640538,80.530763 36.2348243,80.6646121 35.9440579,80.8215385 C35.6486761,80.9738495 35.6163687,80.9738495 35.6163687,80.9738495 C35.6163687,80.9738495 35.6486761,80.6646121 36.1702095,80.2722959 C36.6871277,79.8845953 37.1763538,79.8061321 38.3486502,79.6492056 C39.5209467,79.4922791 40.0424802,79.4645862 40.365554,79.3399682 C40.6886279,79.2107346 40.6563205,79.1322714 40.6563205,79.1322714 C40.6563205,79.1322714 39.456332,78.8184185 39.064028,78.7399553 C38.6717241,78.661492 37.6009651,78.8968817 37.2409685,79.0538082 C36.8855873,79.2107346 36.04098,79.1830417 34.508687,79.1322714 C32.9810093,79.0768856 32.556398,79.1045785 32.556398,78.7953411 C32.556398,78.4814882 32.4917832,78.250714 32.4917832,78.250714 C32.4917832,78.250714 30.8948754,78.5876443 30.4748794,78.8184185 C30.0502681,79.0538082 30.1148829,78.7953411 30.9317981,78.4030249 C31.744098,78.0153243 32.7179349,77.9091682 32.7179349,77.9091682 C32.7179349,77.9091682 33.0410087,77.5722378 33.9917688,77.5722378 C34.9332983,77.5722378 35.9763652,77.7291643 37.3055833,77.678394 C38.644032,77.6276236 38.8378763,77.5491604 39.064028,77.3414636 C39.294795,77.1337668 39.294795,77.0553036 39.294795,77.0553036 C39.294795,77.0553036 38.7086468,76.9491475 38.7086468,76.6860649 C38.7086468,76.4275978 38.7409542,76.4045204 38.7409542,76.4045204 C38.7409542,76.4045204 38.0255764,76.4045204 37.3378907,76.6352946 C36.6548203,76.8706843 36.5255908,76.6122172 37.6332725,76.2983642 C38.7409542,75.9891268 38.7040315,76.0122042 39.9409427,75.9383565 C41.1778539,75.8598933 44.5008991,75.9845113 44.5008991,75.9845113 C44.5008991,75.9845113 45.1193547,75.4444997 45.9962694,75.3891139 C46.8731841,75.3429591 50.1962292,75.4444997 50.1962292,75.4444997 C50.1962292,75.4444997 51.6869842,70.4551616 51.6269848,69.7028377 C51.5577546,68.9458983 51.3639103,68.9182054 51.331603,68.3735783 C51.2992956,67.8289512 51.2992956,67.5427912 51.2992956,67.5427912 C51.2992956,67.5427912 50.1269991,66.3473808 49.4439287,66.0658363 C48.7608583,65.7796763 44.5332065,64.6350363 41.2147767,63.2042363 C37.8917315,61.7734362 34.9656057,60.3749446 31.744098,55.9856194 C28.5225904,51.5916786 28.2272086,49.5931741 26.5703014,45.8500166 C24.9087788,42.1114746 25.2687754,38.9914074 25.6241566,37.5883003 C25.9841531,36.1851932 28.5595131,32.9728164 28.5595131,32.9728164 L28.5595131,32.9682009 Z" id="Path" fill="#020102"></path>
                </g>
            </g>
        </g>
    </g>
</svg>