<?xml version="1.0" encoding="UTF-8"?>
<!--Generator: Apple Native CoreSVG 341-->
<!DOCTYPE svg
PUBLIC "-//W3C//DTD SVG 1.1//EN"
       "http://www.w3.org/Graphics/SVG/1.1/DTD/svg11.dtd">
<svg version="1.1" xmlns="http://www.w3.org/2000/svg" xmlns:xlink="http://www.w3.org/1999/xlink" viewBox="0 0 3300 2200">
 <!--glyph: "", point size: 100.0, font version: "20.0d10e1", template writer version: "138.0.0"-->
 <style>.monochrome-0 {-sfsymbols-motion-group:1;-sfsymbols-layer-tags:5f41e05f21188541}
.monochrome-1 {-sfsymbols-motion-group:0;-sfsymbols-layer-tags:5f41e05f21188541}

.multicolor-0:tintColor {-sfsymbols-motion-group:1;-sfsymbols-layer-tags:5f41e05f21188541}
.multicolor-1:tintColor {-sfsymbols-motion-group:0;-sfsymbols-layer-tags:5f41e05f21188541}

.hierarchical-0:primary {-sfsymbols-motion-group:1;-sfsymbols-layer-tags:5f41e05f21188541}
.hierarchical-1:tertiary {-sfsymbols-motion-group:0;-sfsymbols-layer-tags:5f41e05f21188541}

.SFSymbolsPreviewWireframe {fill:none;opacity:1.0;stroke:black;stroke-width:0.5}
</style>
 <g id="Notes">
  <rect height="2200" id="artboard" style="fill:white;opacity:1" width="3300" x="0" y="0"/>
  <line style="fill:none;stroke:black;opacity:1;stroke-width:0.5;" x1="263" x2="3036" y1="292" y2="292"/>
  <text style="stroke:none;fill:black;font-family:sans-serif;font-size:13;font-weight:bold;" transform="matrix(1 0 0 1 263 322)">Weight/Scale Variations</text>
  <text style="stroke:none;fill:black;font-family:sans-serif;font-size:13;text-anchor:middle;" transform="matrix(1 0 0 1 559.711 322)">Ultralight</text>
  <text style="stroke:none;fill:black;font-family:sans-serif;font-size:13;text-anchor:middle;" transform="matrix(1 0 0 1 856.422 322)">Thin</text>
  <text style="stroke:none;fill:black;font-family:sans-serif;font-size:13;text-anchor:middle;" transform="matrix(1 0 0 1 1153.13 322)">Light</text>
  <text style="stroke:none;fill:black;font-family:sans-serif;font-size:13;text-anchor:middle;" transform="matrix(1 0 0 1 1449.84 322)">Regular</text>
  <text style="stroke:none;fill:black;font-family:sans-serif;font-size:13;text-anchor:middle;" transform="matrix(1 0 0 1 1746.56 322)">Medium</text>
  <text style="stroke:none;fill:black;font-family:sans-serif;font-size:13;text-anchor:middle;" transform="matrix(1 0 0 1 2043.27 322)">Semibold</text>
  <text style="stroke:none;fill:black;font-family:sans-serif;font-size:13;text-anchor:middle;" transform="matrix(1 0 0 1 2339.98 322)">Bold</text>
  <text style="stroke:none;fill:black;font-family:sans-serif;font-size:13;text-anchor:middle;" transform="matrix(1 0 0 1 2636.69 322)">Heavy</text>
  <text style="stroke:none;fill:black;font-family:sans-serif;font-size:13;text-anchor:middle;" transform="matrix(1 0 0 1 2933.4 322)">Black</text>
  <line style="fill:none;stroke:black;opacity:1;stroke-width:0.5;" x1="263" x2="3036" y1="1903" y2="1903"/>
  <g transform="matrix(0.2 0 0 0.2 263 1933)">
   <path d="m46.2402 4.15039c21.7773 0 39.4531-17.627 39.4531-39.4043s-17.6758-39.4043-39.4531-39.4043c-21.7285 0-39.4043 17.627-39.4043 39.4043s17.6758 39.4043 39.4043 39.4043Zm0-7.42188c-17.6758 0-31.9336-14.3066-31.9336-31.9824s14.2578-31.9824 31.9336-31.9824 31.9824 14.3066 31.9824 31.9824-14.3066 31.9824-31.9824 31.9824Zm-17.9688-31.9824c0 2.14844 1.51367 3.61328 3.75977 3.61328h10.498v10.5957c0 2.19727 1.46484 3.71094 3.61328 3.71094 2.24609 0 3.71094-1.51367 3.71094-3.71094v-10.5957h10.5957c2.19727 0 3.71094-1.46484 3.71094-3.61328 0-2.19727-1.51367-3.71094-3.71094-3.71094h-10.5957v-10.5469c0-2.24609-1.46484-3.75977-3.71094-3.75977-2.14844 0-3.61328 1.51367-3.61328 3.75977v10.5469h-10.498c-2.24609 0-3.75977 1.51367-3.75977 3.71094Z"/>
  </g>
  <g transform="matrix(0.2 0 0 0.2 281.506 1933)">
   <path d="m58.5449 14.5508c27.4902 0 49.8047-22.3145 49.8047-49.8047s-22.3145-49.8047-49.8047-49.8047-49.8047 22.3145-49.8047 49.8047 22.3145 49.8047 49.8047 49.8047Zm0-8.30078c-22.9492 0-41.5039-18.5547-41.5039-41.5039s18.5547-41.5039 41.5039-41.5039 41.5039 18.5547 41.5039 41.5039-18.5547 41.5039-41.5039 41.5039Zm-22.6562-41.5039c0 2.39258 1.66016 4.00391 4.15039 4.00391h14.3555v14.4043c0 2.44141 1.66016 4.15039 4.05273 4.15039 2.44141 0 4.15039-1.66016 4.15039-4.15039v-14.4043h14.4043c2.44141 0 4.15039-1.61133 4.15039-4.00391 0-2.44141-1.70898-4.15039-4.15039-4.15039h-14.4043v-14.3555c0-2.49023-1.70898-4.19922-4.15039-4.19922-2.39258 0-4.05273 1.70898-4.05273 4.19922v14.3555h-14.3555c-2.49023 0-4.15039 1.70898-4.15039 4.15039Z"/>
  </g>
  <g transform="matrix(0.2 0 0 0.2 304.924 1933)">
   <path d="m74.8535 28.3203c35.1074 0 63.623-28.4668 63.623-63.5742s-28.5156-63.623-63.623-63.623-63.5742 28.5156-63.5742 63.623 28.4668 63.5742 63.5742 63.5742Zm0-9.08203c-30.127 0-54.4922-24.3652-54.4922-54.4922s24.3652-54.4922 54.4922-54.4922 54.4922 24.3652 54.4922 54.4922-24.3652 54.4922-54.4922 54.4922Zm-28.8574-54.4922c0 2.58789 1.85547 4.39453 4.58984 4.39453h19.7266v19.7754c0 2.68555 1.85547 4.58984 4.44336 4.58984 2.68555 0 4.54102-1.85547 4.54102-4.58984v-19.7754h19.7754c2.68555 0 4.58984-1.80664 4.58984-4.39453 0-2.73438-1.85547-4.58984-4.58984-4.58984h-19.7754v-19.7266c0-2.73438-1.85547-4.63867-4.54102-4.63867-2.58789 0-4.44336 1.9043-4.44336 4.63867v19.7266h-19.7266c-2.73438 0-4.58984 1.85547-4.58984 4.58984Z"/>
  </g>
  <text style="stroke:none;fill:black;font-family:sans-serif;font-size:13;font-weight:bold;" transform="matrix(1 0 0 1 263 1953)">Design Variations</text>
  <text style="stroke:none;fill:black;font-family:sans-serif;font-size:13;" transform="matrix(1 0 0 1 263 1971)">Symbols are supported in up to nine weights and three scales.</text>
  <text style="stroke:none;fill:black;font-family:sans-serif;font-size:13;" transform="matrix(1 0 0 1 263 1989)">For optimal layout with text and other symbols, vertically align</text>
  <text style="stroke:none;fill:black;font-family:sans-serif;font-size:13;" transform="matrix(1 0 0 1 263 2007)">symbols with the adjacent text.</text>
  <line style="fill:none;stroke:#00AEEF;stroke-width:0.5;opacity:1.0;" x1="776" x2="776" y1="1919" y2="1933"/>
  <g transform="matrix(0.2 0 0 0.2 776 1933)">
   <path d="m16.5527 0.78125c2.58789 0 3.85742-0.976562 4.78516-3.71094l6.29883-17.2363h28.8086l6.29883 17.2363c0.927734 2.73438 2.19727 3.71094 4.73633 3.71094 2.58789 0 4.24805-1.5625 4.24805-4.00391 0-0.830078-0.146484-1.61133-0.537109-2.63672l-22.9004-60.9863c-1.12305-2.97852-3.125-4.49219-6.25-4.49219-3.02734 0-5.07812 1.46484-6.15234 4.44336l-22.9004 61.084c-0.390625 1.02539-0.537109 1.80664-0.537109 2.63672 0 2.44141 1.5625 3.95508 4.10156 3.95508Zm13.4766-28.3691 11.8652-32.8613h0.244141l11.8652 32.8613Z"/>
  </g>
  <line style="fill:none;stroke:#00AEEF;stroke-width:0.5;opacity:1.0;" x1="792.836" x2="792.836" y1="1919" y2="1933"/>
  <text style="stroke:none;fill:black;font-family:sans-serif;font-size:13;font-weight:bold;" transform="matrix(1 0 0 1 776 1953)">Margins</text>
  <text style="stroke:none;fill:black;font-family:sans-serif;font-size:13;" transform="matrix(1 0 0 1 776 1971)">Leading and trailing margins on the left and right side of each symbol</text>
  <text style="stroke:none;fill:black;font-family:sans-serif;font-size:13;" transform="matrix(1 0 0 1 776 1989)">can be adjusted by modifying the x-location of the margin guidelines.</text>
  <text style="stroke:none;fill:black;font-family:sans-serif;font-size:13;" transform="matrix(1 0 0 1 776 2007)">Modifications are automatically applied proportionally to all</text>
  <text style="stroke:none;fill:black;font-family:sans-serif;font-size:13;" transform="matrix(1 0 0 1 776 2025)">scales and weights.</text>
  <g transform="matrix(0.2 0 0 0.2 1289 1933)">
   <path d="m14.209 9.32617 8.49609 8.54492c4.29688 4.3457 9.22852 4.05273 13.8672-1.07422l53.4668-58.9355-4.83398-4.88281-53.0762 58.3984c-1.75781 2.00195-3.41797 2.49023-5.76172 0.146484l-5.85938-5.81055c-2.34375-2.29492-1.80664-4.00391 0.195312-5.81055l57.373-54.0039-4.88281-4.83398-57.959 54.4434c-4.93164 4.58984-5.32227 9.47266-1.02539 13.8184Zm32.0801-90.9668c-2.09961 2.05078-2.24609 4.93164-1.07422 6.88477 1.17188 1.80664 3.4668 2.97852 6.68945 2.14844 7.32422-1.70898 14.9414-2.00195 22.0703 2.68555l-2.92969 7.27539c-1.70898 4.15039-0.830078 7.08008 1.85547 9.81445l11.4746 11.5723c2.44141 2.44141 4.49219 2.53906 7.32422 2.05078l5.32227-0.976562 3.32031 3.36914-0.195312 2.7832c-0.195312 2.49023 0.439453 4.39453 2.88086 6.78711l3.80859 3.71094c2.39258 2.39258 5.46875 2.53906 7.8125 0.195312l14.5508-14.5996c2.34375-2.34375 2.24609-5.32227-0.146484-7.71484l-3.85742-3.80859c-2.39258-2.39258-4.24805-3.17383-6.64062-2.97852l-2.88086 0.244141-3.22266-3.17383 1.2207-5.61523c0.634766-2.83203-0.146484-5.0293-3.07617-7.95898l-10.9863-10.9375c-16.6992-16.6016-38.8672-16.2109-53.3203-1.75781Zm7.4707 1.85547c12.1582-8.88672 28.6133-7.37305 39.7461 3.75977l12.1582 12.0605c1.17188 1.17188 1.36719 2.09961 1.02539 3.80859l-1.61133 7.42188 7.51953 7.42188 4.93164-0.292969c1.26953-0.0488281 1.66016 0.0488281 2.63672 1.02539l2.88086 2.88086-12.207 12.207-2.88086-2.88086c-0.976562-0.976562-1.12305-1.36719-1.07422-2.68555l0.341797-4.88281-7.4707-7.42188-7.61719 1.26953c-1.61133 0.341797-2.34375 0.195312-3.56445-0.976562l-10.0098-10.0098c-1.26953-1.17188-1.41602-2.00195-0.634766-3.85742l4.39453-10.4492c-7.8125-7.27539-17.9688-10.4004-28.125-7.42188-0.78125 0.195312-1.07422-0.439453-0.439453-0.976562Z"/>
  </g>
  <text style="stroke:none;fill:black;font-family:sans-serif;font-size:13;font-weight:bold;" transform="matrix(1 0 0 1 1289 1953)">Exporting</text>
  <text style="stroke:none;fill:black;font-family:sans-serif;font-size:13;" transform="matrix(1 0 0 1 1289 1971)">Symbols should be outlined when exporting to ensure the</text>
  <text style="stroke:none;fill:black;font-family:sans-serif;font-size:13;" transform="matrix(1 0 0 1 1289 1989)">design is preserved when submitting to Xcode.</text>
  <text id="template-version" style="stroke:none;fill:black;font-family:sans-serif;font-size:13;text-anchor:end;" transform="matrix(1 0 0 1 3036 1933)">Template v.6.0</text>
  <text style="stroke:none;fill:black;font-family:sans-serif;font-size:13;text-anchor:end;" transform="matrix(1 0 0 1 3036 1951)">Requires Xcode 16 or greater</text>
  <text id="descriptive-name" style="stroke:none;fill:black;font-family:sans-serif;font-size:13;text-anchor:end;" transform="matrix(1 0 0 1 3036 1969)">Generated from filtervogelgruppe-31</text>
  <text style="stroke:none;fill:black;font-family:sans-serif;font-size:13;text-anchor:end;" transform="matrix(1 0 0 1 3036 1987)">Typeset at 100.0 points</text>
  <text style="stroke:none;fill:black;font-family:sans-serif;font-size:13;" transform="matrix(1 0 0 1 263 726)">Small</text>
  <text style="stroke:none;fill:black;font-family:sans-serif;font-size:13;" transform="matrix(1 0 0 1 263 1156)">Medium</text>
  <text style="stroke:none;fill:black;font-family:sans-serif;font-size:13;" transform="matrix(1 0 0 1 263 1586)">Large</text>
 </g>
 <g id="Guides">
  <g id="H-reference" style="fill:#27AAE1;stroke:none;" transform="matrix(1 0 0 1 339 696)">
   <path d="M0.993654 0L3.63775 0L29.3281-67.1323L30.0303-67.1323L30.0303-70.459L28.1226-70.459ZM11.6885-24.4799L46.9815-24.4799L46.2315-26.7285L12.4385-26.7285ZM55.1196 0L57.7637 0L30.6382-70.459L29.4326-70.459L29.4326-67.1323Z"/>
  </g>
  <line id="Baseline-S" style="fill:none;stroke:#27AAE1;opacity:1;stroke-width:0.5;" x1="263" x2="3036" y1="696" y2="696"/>
  <line id="Capline-S" style="fill:none;stroke:#27AAE1;opacity:1;stroke-width:0.5;" x1="263" x2="3036" y1="625.541" y2="625.541"/>
  <g id="H-reference" style="fill:#27AAE1;stroke:none;" transform="matrix(1 0 0 1 339 1126)">
   <path d="M0.993654 0L3.63775 0L29.3281-67.1323L30.0303-67.1323L30.0303-70.459L28.1226-70.459ZM11.6885-24.4799L46.9815-24.4799L46.2315-26.7285L12.4385-26.7285ZM55.1196 0L57.7637 0L30.6382-70.459L29.4326-70.459L29.4326-67.1323Z"/>
  </g>
  <line id="Baseline-M" style="fill:none;stroke:#27AAE1;opacity:1;stroke-width:0.5;" x1="263" x2="3036" y1="1126" y2="1126"/>
  <line id="Capline-M" style="fill:none;stroke:#27AAE1;opacity:1;stroke-width:0.5;" x1="263" x2="3036" y1="1055.54" y2="1055.54"/>
  <g id="H-reference" style="fill:#27AAE1;stroke:none;" transform="matrix(1 0 0 1 339 1556)">
   <path d="M0.993654 0L3.63775 0L29.3281-67.1323L30.0303-67.1323L30.0303-70.459L28.1226-70.459ZM11.6885-24.4799L46.9815-24.4799L46.2315-26.7285L12.4385-26.7285ZM55.1196 0L57.7637 0L30.6382-70.459L29.4326-70.459L29.4326-67.1323Z"/>
  </g>
  <line id="Baseline-L" style="fill:none;stroke:#27AAE1;opacity:1;stroke-width:0.5;" x1="263" x2="3036" y1="1556" y2="1556"/>
  <line id="Capline-L" style="fill:none;stroke:#27AAE1;opacity:1;stroke-width:0.5;" x1="263" x2="3036" y1="1485.54" y2="1485.54"/>
  <line id="right-margin-Black-S" style="fill:none;stroke:#00AEEF;stroke-width:0.5;opacity:1.0;" x1="2982.23" x2="2982.23" y1="600.785" y2="720.121"/>
  <line id="left-margin-Black-S" style="fill:none;stroke:#00AEEF;stroke-width:0.5;opacity:1.0;" x1="2884.57" x2="2884.57" y1="600.785" y2="720.121"/>
  <line id="right-margin-Regular-S" style="fill:none;stroke:#00AEEF;stroke-width:0.5;opacity:1.0;" x1="1496.11" x2="1496.11" y1="600.785" y2="720.121"/>
  <line id="left-margin-Regular-S" style="fill:none;stroke:#00AEEF;stroke-width:0.5;opacity:1.0;" x1="1403.58" x2="1403.58" y1="600.785" y2="720.121"/>
  <line id="right-margin-Ultralight-S" style="fill:none;stroke:#00AEEF;stroke-width:0.5;opacity:1.0;" x1="603.773" x2="603.773" y1="600.785" y2="720.121"/>
  <line id="left-margin-Ultralight-S" style="fill:none;stroke:#00AEEF;stroke-width:0.5;opacity:1.0;" x1="515.649" x2="515.649" y1="600.785" y2="720.121"/>
 </g>
 <g id="Symbols">
  <g id="Black-S" transform="matrix(1 0 0 1 2884.57 696)">
   <path class="monochrome-0 multicolor-0:tintColor hierarchical-0:primary SFSymbolsPreviewWireframe" d="M38.6332-15.2401C38.476-15.0575 38.3274-14.8621 38.1576-14.6881C38.0727-14.6031 37.9325-14.5692 37.8306-14.497C37.7397-14.4389 37.6604-14.3639 37.5971-14.2762C37.3381-13.8685 37.1088-13.4439 36.8328-13.0448C36.6842-12.8197 36.4635-12.6372 36.2852-12.4291C36.1323-12.2423 35.988-12.0469 35.8436-11.8516C35.7714-11.7497 35.7375-11.6223 35.661-11.5332C35.5973-11.461 35.4742-11.3761 35.4062-11.3973C35.3562-11.4164 35.3112-11.4465 35.2744-11.4854C35.2376-11.5247 35.2102-11.5714 35.1939-11.6223C35.0791-12.168 35.0476-12.7277 35.1005-13.2826C35.1642-14.0469 35.1727-14.8112 35.2279-15.567C35.2534-15.9152 35.3383-16.2549 35.3893-16.5988C35.4615-17.1126 35.5167-17.6306 35.6058-18.1402C35.678-18.5223 35.6695-18.9045 35.6483-19.2909C35.6143-19.8259 35.6186-20.3652 35.6101-20.9044C35.6101-21.0828 35.5634-21.2314 35.3723-21.3163C35.1855-21.397 35.1642-21.5711 35.16-21.7452L35.1303-22.5392C35.126-22.7218 35.075-22.8661 34.8755-22.9341C34.7056-22.9893 34.6886-23.1379 34.7056-23.2865C34.7311-23.4988 34.7778-23.7154 34.7906-23.9319C34.8245-24.3905 34.8373-24.8533 34.8712-25.3119C34.9264-26.0762 34.9901-26.8321 35.0496-27.5921C35.0666-27.8639 35.0835-28.1399 35.0793-28.4116C35.0793-28.5093 35.0368-28.6239 34.9731-28.6919C34.816-28.849 34.7948-29.0273 34.7693-29.2311C34.6504-30.2757 34.8373-31.299 34.9816-32.3223C34.9986-32.4497 34.9859-32.5601 34.8457-32.5941C34.5188-32.679 34.4763-32.921 34.5103-33.197C34.5867-33.7915 34.6632-34.3945 34.7481-34.9932C34.7863-35.2352 34.7821-35.4433 34.5783-35.6386C34.3829-35.8297 34.4169-36.0929 34.4763-36.3392C34.5613-36.6959 34.6547-37.0525 34.7523-37.4092C34.816-37.6555 34.9095-37.8933 34.6547-38.1098C34.5995-38.1523 34.5825-38.2882 34.5952-38.3731C34.6504-38.6576 34.7099-38.9463 34.7991-39.2223C34.9137-39.5833 35.0581-39.9314 35.1897-40.2881C35.2197-40.3578 35.2342-40.4332 35.2322-40.5089C35.16-41.1628 35.3935-41.753 35.6398-42.3348C35.9413-43.0481 36.2597-43.7572 36.5823-44.4621C36.6714-44.6574 36.8158-44.8273 36.9304-45.0141C37.0706-45.2561 37.2659-45.4897 37.3296-45.7529C37.4927-46.3407 37.7825-46.8856 38.1788-47.3495C38.5949-47.8675 38.8794-48.4534 39.2106-49.0139C39.58-49.6466 39.9749-50.2538 40.5057-50.7761C40.8836-51.1497 41.2445-51.5404 41.6097-51.9268C41.667-51.9884 41.7052-52.065 41.7201-52.1476C41.8984-53.3025 42.0683-54.4617 42.2424-55.6167C42.3231-56.156 42.3825-56.7037 42.4972-57.2345C42.5821-57.6294 42.7392-58.0115 42.8708-58.3937C43.0746-58.9839 43.2784-59.5741 43.5077-60.1516C43.8474-61.022 44.2508-61.8543 44.9939-62.4742C45.0703-62.5379 45.1255-62.6228 45.2189-62.7332L44.9896-62.7884C44.841-62.8224 44.6797-62.8309 44.548-62.8988C43.5017-63.4189 42.6143-64.2109 41.9791-65.1918C41.8517-65.3828 41.9112-65.5442 42.1447-65.5569C43.0746-65.5994 44.0003-65.9518 44.9387-65.6079C45.0703-65.5654 45.2232-65.5739 45.3633-65.5484C46.3569-65.3828 47.308-65.0984 48.1997-64.644C48.3823-64.5548 48.5352-64.5591 48.722-64.6228C49.6119-64.9621 50.5457-65.1723 51.4948-65.247C51.8514-65.2682 52.2039-65.3319 52.5563-65.3361C53.0828-65.3446 53.6178-65.3531 54.1401-65.3064C54.4968-65.2767 54.8492-65.1536 55.2016-65.0644C55.4069-65.0096 55.6096-64.9459 55.8088-64.8733C56.0424-64.7884 56.1825-64.8733 56.3014-65.0814C56.4617-65.35 56.6344-65.6107 56.8194-65.8627C57.0597-66.2013 57.4196-66.4365 57.8258-66.5208C57.9563-66.5562 58.0809-66.6106 58.1952-66.6822C58.5858-66.9072 58.985-67.0686 59.452-66.9709C59.4818-66.9624 59.5115-66.9667 59.537-66.9709C59.8554-67.0304 59.8767-67.0219 59.8767-66.6907C59.8682-65.9816 59.6474-65.3192 59.3586-64.6737C59.1888-64.2873 58.9935-63.9094 58.8066-63.5273C58.7217-63.3574 58.7217-63.2046 58.8236-63.0432L59.0444-62.678C59.7323-61.5868 60.2461-60.4276 60.4626-59.1537C60.5688-58.5465 60.607-57.9224 60.607-57.2982C60.607-56.8438 60.5008-56.3852 60.4287-55.9309C60.3777-55.6167 60.297-55.3067 60.2503-54.9883C60.2376-54.9033 60.2885-54.8014 60.3352-54.7208C60.3777-54.6613 60.4626-54.6358 60.5221-54.5849C60.9325-54.3081 61.2598-53.925 61.469-53.4766C61.7577-52.7803 62.1059-52.1051 62.4498-51.43C62.6197-51.103 62.8532-50.81 63.0103-50.4788C63.1292-50.2283 63.1759-49.9438 63.2439-49.6721C63.3288-49.3154 63.4052-48.9587 63.4859-48.5978C63.5114-48.4916 63.5538-48.3855 63.5708-48.2708C63.6982-47.549 63.8256-46.8272 63.9275-46.1011C63.9494-45.8761 63.9307-45.6489 63.8723-45.4302C63.8029-45.1464 63.8072-44.8495 63.885-44.5682C64.1313-43.6681 64.2587-42.7551 64.0379-41.8295C63.9997-41.6554 64.0124-41.4728 63.9954-41.2945C63.9275-40.7127 63.8511-40.131 63.7874-39.5535C63.7322-39.0185 63.694-38.4835 63.6345-37.9485C63.626-37.8466 63.5496-37.7532 63.4986-37.6513C63.4052-37.7149 63.3118-37.7744 63.1759-37.8551C63.1589-37.7489 63.1292-37.6513 63.1165-37.5493C63.0885-37.3063 63.0659-37.0628 63.0485-36.819C63.0316-36.5557 63.0485-36.2882 63.0103-36.0292C62.9127-35.3286 62.8023-34.628 62.6791-33.9316C62.6324-33.6514 62.5602-33.3796 62.2503-33.2353C62.1781-33.2013 62.1314-33.0484 62.1229-32.9465C62.0974-32.3138 62.0974-31.6812 62.0677-31.0527C62.0549-30.7597 61.9997-30.4753 61.9573-30.1865C61.9191-29.9402 61.8511-29.7109 61.6261-29.5496C61.5539-29.4986 61.5157-29.3755 61.4987-29.2778C61.4626-29.1105 61.4456-28.9396 61.4477-28.7683C61.4608-28.0585 61.3515-27.3519 61.125-26.6792C60.8388-25.6803 60.6484-24.6566 60.556-23.622C60.5178-23.3077 60.4499-22.9893 60.365-22.6836C60.3055-22.5073 60.2103-22.3453 60.0847-22.208C59.8469-22.6114 60.0168-23.036 59.9658-23.4394L59.8809-23.4649C59.8215-23.2993 59.762-23.1379 59.7111-22.9723C59.6176-22.7048 59.5412-22.433 59.4351-22.174C59.4011-22.0891 59.2907-22.0339 59.2228-21.9702C59.1548-22.0551 59.0699-22.1273 59.0317-22.225C58.9892-22.3226 58.9935-22.4458 58.9595-22.5519C58.9298-22.6453 58.8746-22.726 58.8151-22.8322C58.6028-22.6751 58.5519-22.4755 58.5009-22.2802C58.3608-21.7197 58.3013-21.1422 57.9999-20.6327C57.9192-20.501 57.9744-20.3991 58.1145-20.3354C58.2546-20.276 58.3905-20.1996 58.5306-20.1444C58.7787-20.0435 59.0034-19.8928 59.1902-19.7013C59.3774-19.5099 59.5228-19.282 59.6176-19.0319C59.6813-18.8875 59.796-18.7686 59.8724-18.6327C60.0083-18.3949 60.1484-18.1572 60.2631-17.9109C60.2928-17.8472 60.2631-17.741 60.2248-17.6689C60.1824-17.5967 60.0975-17.55 60.0338-17.4905C59.9913-17.5542 59.9319-17.6179 59.9149-17.6901C59.8583-17.9151 59.7344-18.1175 59.56-18.2707C59.3855-18.424 59.169-18.5206 58.9383-18.5478C58.8406-18.5563 58.6708-18.5053 58.6453-18.4417C58.5975-18.3153 58.6007-18.1752 58.6538-18.051C58.8024-17.7708 58.9765-17.499 59.1718-17.2442C59.4818-16.8409 59.3926-16.3993 59.2992-15.9704C59.2525-15.7326 59.0996-15.5118 58.9807-15.291C58.9468-15.2316 58.8703-15.1976 58.8151-15.1509L58.7599-15.1764C58.7812-15.3037 58.7896-15.4311 58.8364-15.5458C58.9298-15.7581 58.9213-15.9492 58.7854-16.136C58.7228-16.2124 58.6796-16.303 58.6605-16.4003C58.641-16.4973 58.646-16.5978 58.675-16.6922C58.6962-16.7729 58.6665-16.8833 58.624-16.9597C58.4287-17.2782 57.9022-17.482 57.5498-17.3504C57.0657-17.1721 56.6411-17.3249 56.2335-17.5627C56.0084-17.6986 55.8173-17.8981 55.588-18.0383C55.4171-18.137 55.2328-18.2099 55.0403-18.2548C54.8874-18.2973 54.8025-18.1996 54.8322-18.0425C54.9766-17.2867 54.8407-16.5139 55.0233-15.7623C55.1082-15.4184 55.0318-15.032 55.0021-14.6668C54.9762-14.5292 54.9179-14.3997 54.8322-14.2889C54.7983-14.2422 54.6879-14.204 54.6327-14.2252C54.5817-14.2465 54.5392-14.3399 54.5308-14.4036C54.5223-14.4757 54.5605-14.5479 54.5732-14.6244C54.5987-14.8537 54.6284-15.0872 54.6454-15.3207C54.6581-15.5033 54.552-15.618 54.3694-15.618C53.7325-15.6052 53.3248-16.0001 52.9172-16.3865C52.8323-16.4629 52.7898-16.6158 52.7941-16.7347C52.8026-17.0065 52.845-17.2782 52.879-17.55C52.9597-18.1105 52.2845-18.4204 51.9024-18.2336C51.7325-18.1487 51.5627-18.0553 51.4056-17.9533C50.9428-17.6561 50.4799-17.5117 49.9407-17.792C49.6647-17.9364 49.4948-17.8557 49.3887-17.5457C49.3126-17.3507 49.2839-17.1409 49.3044-16.9329C49.325-16.7244 49.3947-16.5242 49.5076-16.3483C49.5925-16.2209 49.6604-16.0765 49.7368-15.9407L49.6477-15.8812C49.4439-16.1827 49.2231-16.4757 49.049-16.7899C48.9471-16.9767 48.9258-17.206 48.8579-17.4141C48.7602-17.6943 48.6286-17.7241 48.4333-17.5075C48.3399-17.3971 48.2804-17.2527 48.1955-17.1296C47.9025-16.7007 47.6138-16.2676 47.3165-15.843L46.4248-14.5946C46.1956-14.2592 45.9153-13.9407 45.7624-13.5756C45.5077-12.9811 45.3378-12.3612 45.134-11.754C45.0576-11.5332 44.9599-11.3166 44.8792-11.0916L43.9196-8.28061C43.8474-8.07679 43.7243-7.88996 43.6564-7.68614C43.529-7.31248 43.4568-6.92184 43.3167-6.56091C43.1086-6.04288 42.8878-5.52485 42.616-5.03654C42.425-4.68411 42.1575-4.36565 41.8984-4.05144C41.7286-3.84762 41.5163-3.75421 41.236-3.90707C41.1766-3.94104 41.0407-3.89008 40.9728-3.83488C40.8539-3.74147 40.7732-3.60559 40.6628-3.50368C40.3486-3.21919 40.1108-3.24891 39.8348-3.57162C39.7216-3.70856 39.5754-3.81507 39.4102-3.88159C39.2665-3.92617 39.1119-3.91839 38.9728-3.86036C38.1958-3.50793 37.5716-3.91556 37.3381-4.65439C37.2415-4.92756 37.2001-5.21736 37.216-5.50645C37.2319-5.7959 37.3055-6.07933 37.4315-6.34011C37.5338-6.57224 37.5776-6.82594 37.5589-7.07894C37.5546-7.43562 37.6396-7.7923 37.7075-8.14048C37.8221-8.73494 37.9538-9.32516 38.0769-9.91537C38.1618-10.34 38.2552-10.7646 38.3317-11.1892C38.4081-11.5926 38.4676-11.996 38.5312-12.4036C38.584-12.7543 38.5695-13.1113 38.4888-13.4567C38.4166-13.7751 38.5312-14.1403 38.5992-14.4757C38.6459-14.722 38.752-14.9556 38.7181-15.2061C38.6901-15.2192 38.6618-15.2319 38.6332-15.2443L38.6332-15.2401Z"/>
   <path class="monochrome-1 multicolor-1:tintColor hierarchical-1:tertiary SFSymbolsPreviewWireframe" d="M48.9411-84C55.3091-84.0013 61.615-82.7479 67.4985-80.3116C73.382-77.8752 78.7279-74.3036 83.2305-69.8009C87.7334-65.2983 91.305-59.9524 93.7418-54.0682C96.1779-48.1846 97.4312-41.8789 97.43-35.5124C97.43-8.72255 75.7254 13 48.9424 13C22.156 13 0.43-8.726 0.43-35.5124C0.43-62.2926 22.1539-84 48.9411-84ZM48.9424-70C29.8835-70 14.43-54.5582 14.43-35.5124C14.43-16.458 29.888-0.999999 48.9424-0.999999C67.9909-0.999999 83.43-16.4519 83.43-35.5138C83.4309-40.0428 82.5395-44.5276 80.8069-48.7121C79.0739-52.8969 76.5337-56.6989 73.3311-59.9013C70.1287-63.1038 66.3266-65.644 62.1422-67.3767C57.9578-69.1095 53.4729-70.0009 48.9424-70Z"/>
  </g>
  <g id="Regular-S" transform="matrix(1 0 0 1 1403.58 696)">
   <path class="monochrome-0 multicolor-0:tintColor hierarchical-0:primary SFSymbolsPreviewWireframe" d="M35.6232-16.24C35.4661-16.0574 35.3175-15.8621 35.1476-15.688C35.0627-15.6031 34.9226-15.5691 34.8207-15.4969C34.7297-15.4389 34.6505-15.3639 34.5871-15.2761C34.3281-14.8685 34.0988-14.4439 33.8228-14.0448C33.6742-13.8197 33.4536-13.6371 33.2752-13.4291C33.1224-13.2422 32.978-13.0469 32.8336-12.8516C32.7615-12.7497 32.7275-12.6223 32.6511-12.5331C32.5874-12.4609 32.4642-12.376 32.3963-12.3972C32.3463-12.4164 32.3012-12.4464 32.2645-12.4854C32.2277-12.5246 32.2002-12.5713 32.184-12.6223C32.0692-13.1679 32.0377-13.7277 32.0906-14.2825C32.1543-15.0468 32.1628-15.8112 32.218-16.567C32.2434-16.9152 32.3284-17.2548 32.3793-17.5988C32.4515-18.1126 32.5067-18.6306 32.5959-19.1401C32.668-19.5223 32.6596-19.9044 32.6383-20.2908C32.6044-20.8259 32.6086-21.3651 32.6001-21.9044C32.6001-22.0827 32.5534-22.2313 32.3623-22.3163C32.1755-22.3969 32.1543-22.571 32.15-22.7451L32.1203-23.5392C32.116-23.7217 32.0651-23.8661 31.8655-23.934C31.6956-23.9892 31.6787-24.1379 31.6956-24.2865C31.7211-24.4988 31.7679-24.7153 31.7806-24.9319C31.8146-25.3905 31.8273-25.8533 31.8613-26.3119C31.9165-27.0762 31.9802-27.832 32.0396-28.5921C32.0566-28.8638 32.0736-29.1398 32.0693-29.4116C32.0693-29.5092 32.0269-29.6239 31.9632-29.6918C31.8061-29.8489 31.7848-30.0273 31.7594-30.2311C31.6405-31.2756 31.8273-32.299 31.9717-33.3223C31.9887-33.4497 31.9759-33.5601 31.8358-33.594C31.5088-33.679 31.4664-33.921 31.5004-34.197C31.5768-34.7915 31.6532-35.3944 31.7381-35.9931C31.7764-36.2352 31.7721-36.4432 31.5683-36.6385C31.373-36.8296 31.4069-37.0929 31.4664-37.3392C31.5513-37.6958 31.6447-38.0525 31.7424-38.4092C31.8061-38.6555 31.8995-38.8932 31.6447-39.1098C31.5895-39.1523 31.5725-39.2881 31.5852-39.3731C31.6404-39.6576 31.6999-39.9463 31.7891-40.2223C31.9037-40.5832 32.0481-40.9314 32.1797-41.2881C32.2097-41.3578 32.2242-41.4332 32.2222-41.5089C32.15-42.1628 32.3836-42.753 32.6298-43.3347C32.9313-44.0481 33.2498-44.7572 33.5723-45.462C33.6615-45.6574 33.8058-45.8272 33.9205-46.014C34.0606-46.2561 34.2559-46.4896 34.3196-46.7529C34.4827-47.3406 34.7725-47.8855 35.1689-48.3494C35.585-48.8675 35.8695-49.4534 36.2007-50.0139C36.5701-50.6466 36.965-51.2538 37.4957-51.776C37.8737-52.1497 38.2346-52.5403 38.5997-52.9267C38.6571-52.9884 38.6953-53.065 38.7101-53.1475C38.8885-54.3025 39.0583-55.4617 39.2324-56.6167C39.3131-57.1559 39.3725-57.7037 39.4872-58.2344C39.5721-58.6293 39.7292-59.0115 39.8609-59.3936C40.0647-59.9839 40.2685-60.5741 40.4978-61.1515C40.8375-62.022 41.2409-62.8543 41.9839-63.4742C42.0604-63.5379 42.1156-63.6228 42.209-63.7332L41.9797-63.7884C41.8311-63.8224 41.6697-63.8309 41.5381-63.8988C40.4918-64.4188 39.6043-65.2108 38.9692-66.1917C38.8418-66.3828 38.9012-66.5442 39.1348-66.5569C40.0647-66.5994 40.9903-66.9518 41.9287-66.6079C42.0604-66.5654 42.2132-66.5739 42.3533-66.5484C43.3469-66.3828 44.2981-66.0983 45.1898-65.644C45.3724-65.5548 45.5252-65.5591 45.7121-65.6227C46.602-65.962 47.5358-66.1722 48.4848-66.2469C48.8415-66.2682 49.1939-66.3319 49.5463-66.3361C50.0729-66.3446 50.6079-66.3531 51.1301-66.3064C51.4868-66.2767 51.8393-66.1535 52.1917-66.0643C52.3969-66.0096 52.5997-65.9458 52.7989-65.8733C53.0324-65.7883 53.1725-65.8733 53.2914-66.0813C53.4517-66.3499 53.6244-66.6107 53.8095-66.8626C54.0497-67.2013 54.4096-67.4364 54.8158-67.5208C54.9464-67.5562 55.0709-67.6105 55.1852-67.6821C55.5759-67.9072 55.975-68.0685 56.4421-67.9709C56.4718-67.9624 56.5015-67.9666 56.527-67.9709C56.8455-68.0303 56.8667-68.0218 56.8667-67.6906C56.8582-66.9815 56.6374-66.3191 56.3487-65.6737C56.1788-65.2873 55.9835-64.9094 55.7967-64.5272C55.7117-64.3574 55.7117-64.2045 55.8137-64.0432L56.0345-63.678C56.7223-62.5867 57.2361-61.4275 57.4527-60.1537C57.5588-59.5465 57.597-58.9223 57.597-58.2981C57.597-57.8438 57.4909-57.3852 57.4187-56.9309C57.3677-56.6167 57.2871-56.3067 57.2404-55.9882C57.2276-55.9033 57.2786-55.8014 57.3253-55.7207C57.3677-55.6613 57.4527-55.6358 57.5121-55.5848C57.9226-55.3081 58.2499-54.925 58.459-54.4766C58.7477-53.7802 59.0959-53.1051 59.4399-52.4299C59.6097-52.103 59.8433-51.81 60.0004-51.4788C60.1193-51.2283 60.166-50.9438 60.2339-50.672C60.3188-50.3154 60.3953-49.9587 60.4759-49.5978C60.5014-49.4916 60.5439-49.3855 60.5609-49.2708C60.6882-48.549 60.8156-47.8272 60.9175-47.1011C60.9395-46.876 60.9207-46.6488 60.8623-46.4302C60.793-46.1464 60.7972-45.8495 60.8751-45.5682C61.1213-44.668 61.2487-43.7551 61.0279-42.8294C60.9897-42.6553 61.0025-42.4728 60.9855-42.2944C60.9175-41.7127 60.8411-41.131 60.7774-40.5535C60.7222-40.0185 60.684-39.4835 60.6245-38.9484C60.6161-38.8465 60.5396-38.7531 60.4887-38.6512C60.3953-38.7149 60.3018-38.7744 60.166-38.855C60.149-38.7489 60.1193-38.6512 60.1065-38.5493C60.0786-38.3062 60.0559-38.0628 60.0386-37.819C60.0216-37.5557 60.0386-37.2882 60.0004-37.0292C59.9027-36.3286 59.7923-35.628 59.6692-34.9316C59.6225-34.6513 59.5503-34.3796 59.2403-34.2352C59.1681-34.2012 59.1214-34.0484 59.1129-33.9465C59.0874-33.3138 59.0874-32.6811 59.0577-32.0527C59.045-31.7597 58.9898-31.4752 58.9473-31.1865C58.9091-30.9402 58.8412-30.7109 58.6161-30.5496C58.5439-30.4986 58.5057-30.3755 58.4887-30.2778C58.4526-30.1104 58.4357-29.9395 58.4378-29.7683C58.4509-29.0584 58.3415-28.3518 58.1151-27.6792C57.8288-26.6802 57.6384-25.6566 57.5461-24.6219C57.5079-24.3077 57.4399-23.9892 57.355-23.6835C57.2956-23.5073 57.2004-23.3452 57.0748-23.208C56.837-23.6113 57.0068-24.036 56.9559-24.4393L56.8709-24.4648C56.8115-24.2992 56.7521-24.1379 56.7011-23.9723C56.6077-23.7048 56.5313-23.433 56.4251-23.174C56.3911-23.0891 56.2807-23.0339 56.2128-22.9702C56.1449-23.0551 56.0599-23.1273 56.0217-23.2249C55.9793-23.3226 55.9835-23.4457 55.9495-23.5519C55.9198-23.6453 55.8646-23.726 55.8052-23.8321C55.5929-23.675 55.5419-23.4755 55.4909-23.2801C55.3508-22.7196 55.2914-22.1422 54.9899-21.6326C54.9092-21.501 54.9644-21.3991 55.1045-21.3354C55.2447-21.276 55.3805-21.1995 55.5207-21.1443C55.7687-21.0435 55.9934-20.8927 56.1802-20.7013C56.3674-20.5099 56.5129-20.282 56.6077-20.0318C56.6714-19.8875 56.786-19.7686 56.8625-19.6327C56.9983-19.3949 57.1385-19.1571 57.2531-18.9108C57.2828-18.8472 57.2531-18.741 57.2149-18.6688C57.1724-18.5966 57.0875-18.5499 57.0238-18.4905C56.9813-18.5542 56.9219-18.6179 56.9049-18.69C56.8483-18.9151 56.7245-19.1175 56.55-19.2707C56.3756-19.4239 56.159-19.5205 55.9283-19.5478C55.8306-19.5563 55.6608-19.5053 55.6353-19.4416C55.5875-19.3153 55.5907-19.1752 55.6438-19.051C55.7924-18.7707 55.9665-18.499 56.1618-18.2442C56.4718-17.8408 56.3826-17.3992 56.2892-16.9704C56.2425-16.7326 56.0897-16.5118 55.9708-16.291C55.9368-16.2315 55.8604-16.1976 55.8052-16.1508L55.75-16.1763C55.7712-16.3037 55.7797-16.4311 55.8264-16.5457C55.9198-16.758 55.9113-16.9491 55.7754-17.136C55.7128-17.2124 55.6696-17.303 55.6505-17.4003C55.6311-17.4972 55.636-17.5977 55.665-17.6922C55.6863-17.7729 55.6565-17.8833 55.6141-17.9597C55.4188-18.2782 54.8922-18.482 54.5398-18.3504C54.0557-18.172 53.6311-18.3249 53.2235-18.5627C52.9985-18.6985 52.8074-18.8981 52.5781-19.0382C52.4072-19.137 52.2228-19.2098 52.0303-19.2548C51.8775-19.2972 51.7925-19.1996 51.8223-19.0425C51.9666-18.2867 51.8308-17.5139 52.0133-16.7623C52.0983-16.4184 52.0218-16.032 51.9921-15.6668C51.9663-15.5291 51.9079-15.3996 51.8223-15.2889C51.7883-15.2422 51.6779-15.204 51.6227-15.2252C51.5717-15.2464 51.5293-15.3398 51.5208-15.4035C51.5123-15.4757 51.5505-15.5479 51.5633-15.6243C51.5887-15.8536 51.6185-16.0872 51.6354-16.3207C51.6482-16.5033 51.542-16.6179 51.3594-16.6179C50.7225-16.6052 50.3149-17.0001 49.9073-17.3865C49.8223-17.4629 49.7799-17.6158 49.7841-17.7347C49.7926-18.0064 49.8351-18.2782 49.869-18.5499C49.9497-19.1104 49.2746-19.4204 48.8924-19.2336C48.7226-19.1486 48.5527-19.0552 48.3956-18.9533C47.9328-18.6561 47.47-18.5117 46.9307-18.792C46.6547-18.9363 46.4849-18.8556 46.3787-18.5457C46.3026-18.3507 46.274-18.1409 46.2945-17.9328C46.315-17.7244 46.3847-17.5241 46.4976-17.3483C46.5825-17.2209 46.6505-17.0765 46.7269-16.9406L46.6377-16.8812C46.4339-17.1827 46.2131-17.4756 46.039-17.7899C45.9371-17.9767 45.9159-18.206 45.8479-18.414C45.7503-18.6943 45.6186-18.724 45.4233-18.5075C45.3299-18.3971 45.2705-18.2527 45.1855-18.1296C44.8925-17.7007 44.6038-17.2676 44.3066-16.843L43.4149-15.5946C43.1856-15.2592 42.9053-14.9407 42.7525-14.5755C42.4977-13.9811 42.3279-13.3611 42.1241-12.7539C42.0476-12.5331 41.95-12.3166 41.8693-12.0915L40.9097-9.28057C40.8375-9.07675 40.7143-8.88992 40.6464-8.6861C40.519-8.31244 40.4468-7.9218 40.3067-7.56087C40.0986-7.04284 39.8778-6.52481 39.6061-6.0365C39.415-5.68407 39.1475-5.36561 38.8885-5.0514C38.7186-4.84758 38.5063-4.75417 38.2261-4.90703C38.1666-4.941 38.0308-4.89004 37.9628-4.83484C37.8439-4.74143 37.7633-4.60555 37.6529-4.50364C37.3386-4.21915 37.1009-4.24887 36.8249-4.57158C36.7116-4.70852 36.5655-4.81503 36.4002-4.88155C36.2566-4.92614 36.1019-4.91835 35.9629-4.86032C35.1858-4.50789 34.5617-4.91552 34.3281-5.65435C34.2315-5.92752 34.1901-6.21732 34.206-6.50641C34.222-6.79586 34.2956-7.07929 34.4215-7.34007C34.5238-7.5722 34.5677-7.8259 34.5489-8.0789C34.5447-8.43558 34.6296-8.79226 34.6975-9.14044C34.8122-9.7349 34.9438-10.3251 35.0669-10.9153C35.1519-11.34 35.2453-11.7646 35.3217-12.1892C35.3981-12.5926 35.4576-12.996 35.5213-13.4036C35.574-13.7542 35.5595-14.1113 35.4788-14.4566C35.4066-14.7751 35.5213-15.1403 35.5892-15.4757C35.6359-15.722 35.7421-15.9555 35.7081-16.206C35.6802-16.2191 35.6519-16.2319 35.6232-16.2443L35.6232-16.24Z"/>
   <path class="monochrome-1 multicolor-1:tintColor hierarchical-1:tertiary SFSymbolsPreviewWireframe" d="M46.4321-81.8365C52.4502-81.8377 58.4096-80.6532 63.9698-78.3508C69.53-76.0483 74.5822-72.6729 78.8374-68.4176C83.0928-64.1624 86.4682-59.1103 88.771-53.5496C91.0733-47.9892 92.2577-42.03 92.2566-36.0127C92.2566-10.693 71.744 9.83658 46.4328 9.83658C21.1173 9.83658 0.5835-10.6972 0.5835-36.0127C0.5835-61.3211 21.1145-81.8365 46.4321-81.8365ZM46.4328-75.0865C24.8413-75.0865 7.3335-57.592 7.3335-36.0127C7.3335-14.4252 24.8452 3.08658 46.4328 3.08658C68.0148 3.08658 85.5066-14.4197 85.5066-36.0133C85.5076-41.1447 84.4976-46.226 82.5345-50.9672C80.571-55.7085 77.693-60.0162 74.0644-63.6446C70.4361-67.273 66.1283-70.1511 61.3873-72.1143C56.6463-74.0776 51.5649-75.0875 46.4328-75.0865Z"/>
  </g>
  <g id="Ultralight-S" transform="matrix(1 0 0 1 515.649 696)">
   <path class="monochrome-0 multicolor-0:tintColor hierarchical-0:primary SFSymbolsPreviewWireframe" d="M33.5542-17.24C33.3971-17.0574 33.2485-16.8621 33.0786-16.688C32.9937-16.6031 32.8536-16.5691 32.7517-16.4969C32.6607-16.4389 32.5815-16.3639 32.5181-16.2761C32.2591-15.8685 32.0298-15.4439 31.7538-15.0448C31.6052-14.8197 31.3846-14.6371 31.2062-14.4291C31.0534-14.2422 30.909-14.0469 30.7646-13.8516C30.6925-13.7497 30.6585-13.6223 30.5821-13.5331C30.5184-13.4609 30.3952-13.376 30.3273-13.3972C30.2773-13.4164 30.2322-13.4464 30.1955-13.4854C30.1587-13.5246 30.1312-13.5713 30.115-13.6223C30.0002-14.1679 29.9687-14.7277 30.0216-15.2825C30.0853-16.0468 30.0938-16.8112 30.149-17.567C30.1744-17.9152 30.2594-18.2548 30.3103-18.5988C30.3825-19.1126 30.4377-19.6306 30.5269-20.1401C30.599-20.5223 30.5906-20.9044 30.5693-21.2908C30.5354-21.8259 30.5396-22.3651 30.5311-22.9044C30.5311-23.0827 30.4844-23.2313 30.2933-23.3163C30.1065-23.3969 30.0853-23.571 30.081-23.7451L30.0513-24.5392C30.047-24.7217 29.9961-24.8661 29.7965-24.934C29.6266-24.9892 29.6097-25.1379 29.6266-25.2865C29.6521-25.4988 29.6989-25.7153 29.7116-25.9319C29.7456-26.3905 29.7583-26.8533 29.7923-27.3119C29.8475-28.0762 29.9112-28.832 29.9706-29.5921C29.9876-29.8638 30.0046-30.1398 30.0003-30.4116C30.0003-30.5092 29.9579-30.6239 29.8942-30.6918C29.7371-30.8489 29.7158-31.0273 29.6904-31.2311C29.5715-32.2756 29.7583-33.299 29.9027-34.3223C29.9197-34.4497 29.9069-34.5601 29.7668-34.594C29.4398-34.679 29.3974-34.921 29.4314-35.197C29.5078-35.7915 29.5842-36.3944 29.6691-36.9931C29.7074-37.2352 29.7031-37.4432 29.4993-37.6385C29.304-37.8296 29.3379-38.0929 29.3974-38.3392C29.4823-38.6958 29.5757-39.0525 29.6734-39.4092C29.7371-39.6555 29.8305-39.8932 29.5757-40.1098C29.5205-40.1523 29.5035-40.2881 29.5162-40.3731C29.5714-40.6576 29.6309-40.9463 29.7201-41.2223C29.8347-41.5832 29.9791-41.9314 30.1107-42.2881C30.1407-42.3578 30.1552-42.4332 30.1532-42.5089C30.081-43.1628 30.3146-43.753 30.5608-44.3347C30.8623-45.0481 31.1808-45.7572 31.5033-46.462C31.5925-46.6574 31.7368-46.8272 31.8515-47.014C31.9916-47.2561 32.1869-47.4896 32.2506-47.7529C32.4137-48.3406 32.7035-48.8855 33.0999-49.3494C33.516-49.8675 33.8005-50.4534 34.1317-51.0139C34.5011-51.6466 34.896-52.2538 35.4267-52.776C35.8047-53.1497 36.1656-53.5403 36.5307-53.9267C36.5881-53.9884 36.6263-54.065 36.6411-54.1475C36.8195-55.3025 36.9893-56.4617 37.1634-57.6167C37.2441-58.1559 37.3035-58.7037 37.4182-59.2344C37.5031-59.6293 37.6602-60.0115 37.7919-60.3936C37.9957-60.9839 38.1995-61.5741 38.4288-62.1515C38.7685-63.022 39.1719-63.8543 39.9149-64.4742C39.9914-64.5379 40.0466-64.6228 40.14-64.7332L39.9107-64.7884C39.7621-64.8224 39.6007-64.8309 39.4691-64.8988C38.4228-65.4188 37.5353-66.2108 36.9002-67.1917C36.7728-67.3828 36.8322-67.5442 37.0658-67.5569C37.9957-67.5994 38.9213-67.9518 39.8597-67.6079C39.9914-67.5654 40.1442-67.5739 40.2843-67.5484C41.2779-67.3828 42.2291-67.0983 43.1208-66.644C43.3034-66.5548 43.4562-66.5591 43.6431-66.6227C44.533-66.962 45.4668-67.1722 46.4158-67.2469C46.7725-67.2682 47.1249-67.3319 47.4773-67.3361C48.0039-67.3446 48.5389-67.3531 49.0611-67.3064C49.4178-67.2767 49.7703-67.1535 50.1227-67.0643C50.3279-67.0096 50.5307-66.9458 50.7299-66.8733C50.9634-66.7883 51.1035-66.8733 51.2224-67.0813C51.3827-67.3499 51.5554-67.6107 51.7405-67.8626C51.9807-68.2013 52.3406-68.4364 52.7468-68.5208C52.8774-68.5562 53.0019-68.6105 53.1162-68.6821C53.5069-68.9072 53.906-69.0685 54.3731-68.9709C54.4028-68.9624 54.4325-68.9666 54.458-68.9709C54.7765-69.0303 54.7977-69.0218 54.7977-68.6906C54.7892-67.9815 54.5684-67.3191 54.2797-66.6737C54.1098-66.2873 53.9145-65.9094 53.7277-65.5272C53.6427-65.3574 53.6427-65.2045 53.7447-65.0432L53.9655-64.678C54.6533-63.5867 55.1671-62.4275 55.3837-61.1537C55.4898-60.5465 55.528-59.9223 55.528-59.2981C55.528-58.8438 55.4219-58.3852 55.3497-57.9309C55.2987-57.6167 55.2181-57.3067 55.1714-56.9882C55.1586-56.9033 55.2096-56.8014 55.2563-56.7207C55.2987-56.6613 55.3837-56.6358 55.4431-56.5848C55.8536-56.3081 56.1809-55.925 56.39-55.4766C56.6787-54.7802 57.0269-54.1051 57.3709-53.4299C57.5407-53.103 57.7743-52.81 57.9314-52.4788C58.0503-52.2283 58.097-51.9438 58.1649-51.672C58.2498-51.3154 58.3263-50.9587 58.4069-50.5978C58.4324-50.4916 58.4749-50.3855 58.4919-50.2708C58.6192-49.549 58.7466-48.8272 58.8485-48.1011C58.8705-47.876 58.8517-47.6488 58.7933-47.4302C58.724-47.1464 58.7282-46.8495 58.8061-46.5682C59.0523-45.668 59.1797-44.7551 58.9589-43.8294C58.9207-43.6553 58.9335-43.4728 58.9165-43.2944C58.8485-42.7127 58.7721-42.131 58.7084-41.5535C58.6532-41.0185 58.615-40.4835 58.5555-39.9484C58.5471-39.8465 58.4706-39.7531 58.4197-39.6512C58.3263-39.7149 58.2328-39.7744 58.097-39.855C58.08-39.7489 58.0503-39.6512 58.0375-39.5493C58.0096-39.3062 57.9869-39.0628 57.9696-38.819C57.9526-38.5557 57.9696-38.2882 57.9314-38.0292C57.8337-37.3286 57.7233-36.628 57.6002-35.9316C57.5535-35.6513 57.4813-35.3796 57.1713-35.2352C57.0991-35.2012 57.0524-35.0484 57.0439-34.9465C57.0184-34.3138 57.0184-33.6811 56.9887-33.0527C56.976-32.7597 56.9208-32.4752 56.8783-32.1865C56.8401-31.9402 56.7722-31.7109 56.5471-31.5496C56.4749-31.4986 56.4367-31.3755 56.4197-31.2778C56.3836-31.1104 56.3667-30.9395 56.3688-30.7683C56.3819-30.0584 56.2725-29.3518 56.0461-28.6792C55.7598-27.6802 55.5694-26.6566 55.4771-25.6219C55.4389-25.3077 55.3709-24.9892 55.286-24.6835C55.2266-24.5073 55.1314-24.3452 55.0058-24.208C54.768-24.6113 54.9378-25.036 54.8869-25.4393L54.8019-25.4648C54.7425-25.2992 54.6831-25.1379 54.6321-24.9723C54.5387-24.7048 54.4623-24.433 54.3561-24.174C54.3221-24.0891 54.2117-24.0339 54.1438-23.9702C54.0759-24.0551 53.9909-24.1273 53.9527-24.2249C53.9103-24.3226 53.9145-24.4457 53.8805-24.5519C53.8508-24.6453 53.7956-24.726 53.7362-24.8321C53.5239-24.675 53.4729-24.4755 53.4219-24.2801C53.2818-23.7196 53.2224-23.1422 52.9209-22.6326C52.8402-22.501 52.8954-22.3991 53.0355-22.3354C53.1757-22.276 53.3115-22.1995 53.4517-22.1443C53.6997-22.0435 53.9244-21.8927 54.1112-21.7013C54.2984-21.5099 54.4439-21.282 54.5387-21.0318C54.6024-20.8875 54.717-20.7686 54.7935-20.6327C54.9293-20.3949 55.0695-20.1571 55.1841-19.9108C55.2138-19.8472 55.1841-19.741 55.1459-19.6688C55.1034-19.5966 55.0185-19.5499 54.9548-19.4905C54.9123-19.5542 54.8529-19.6179 54.8359-19.69C54.7793-19.9151 54.6555-20.1175 54.481-20.2707C54.3066-20.4239 54.09-20.5205 53.8593-20.5478C53.7616-20.5563 53.5918-20.5053 53.5663-20.4416C53.5185-20.3153 53.5217-20.1752 53.5748-20.051C53.7234-19.7707 53.8975-19.499 54.0928-19.2442C54.4028-18.8408 54.3136-18.3992 54.2202-17.9704C54.1735-17.7326 54.0207-17.5118 53.9018-17.291C53.8678-17.2315 53.7914-17.1976 53.7362-17.1508L53.681-17.1763C53.7022-17.3037 53.7107-17.4311 53.7574-17.5457C53.8508-17.758 53.8423-17.9491 53.7064-18.136C53.6438-18.2124 53.6006-18.303 53.5815-18.4003C53.5621-18.4972 53.567-18.5977 53.596-18.6922C53.6173-18.7729 53.5875-18.8833 53.5451-18.9597C53.3498-19.2782 52.8232-19.482 52.4708-19.3504C51.9867-19.172 51.5621-19.3249 51.1545-19.5627C50.9295-19.6985 50.7384-19.8981 50.5091-20.0382C50.3382-20.137 50.1538-20.2098 49.9613-20.2548C49.8085-20.2972 49.7235-20.1996 49.7533-20.0425C49.8976-19.2867 49.7618-18.5139 49.9443-17.7623C50.0293-17.4184 49.9528-17.032 49.9231-16.6668C49.8973-16.5291 49.8389-16.3996 49.7533-16.2889C49.7193-16.2422 49.6089-16.204 49.5537-16.2252C49.5027-16.2464 49.4603-16.3398 49.4518-16.4035C49.4433-16.4757 49.4815-16.5479 49.4943-16.6243C49.5197-16.8536 49.5495-17.0872 49.5664-17.3207C49.5792-17.5033 49.473-17.6179 49.2904-17.6179C48.6535-17.6052 48.2459-18.0001 47.8383-18.3865C47.7533-18.4629 47.7109-18.6158 47.7151-18.7347C47.7236-19.0064 47.7661-19.2782 47.8-19.5499C47.8807-20.1104 47.2056-20.4204 46.8234-20.2336C46.6536-20.1486 46.4837-20.0552 46.3266-19.9533C45.8638-19.6561 45.401-19.5117 44.8617-19.792C44.5857-19.9363 44.4159-19.8556 44.3097-19.5457C44.2336-19.3507 44.205-19.1409 44.2255-18.9328C44.246-18.7244 44.3157-18.5241 44.4286-18.3483C44.5135-18.2209 44.5815-18.0765 44.6579-17.9406L44.5687-17.8812C44.3649-18.1827 44.1441-18.4756 43.97-18.7899C43.8681-18.9767 43.8469-19.206 43.7789-19.414C43.6813-19.6943 43.5496-19.724 43.3543-19.5075C43.2609-19.3971 43.2015-19.2527 43.1165-19.1296C42.8235-18.7007 42.5348-18.2676 42.2376-17.843L41.3459-16.5946C41.1166-16.2592 40.8363-15.9407 40.6835-15.5755C40.4287-14.9811 40.2589-14.3611 40.0551-13.7539C39.9786-13.5331 39.881-13.3166 39.8003-13.0915L38.8407-10.2806C38.7685-10.0768 38.6453-9.88992 38.5774-9.6861C38.45-9.31244 38.3778-8.9218 38.2377-8.56087C38.0296-8.04284 37.8088-7.52481 37.5371-7.0365C37.346-6.68407 37.0785-6.36561 36.8195-6.0514C36.6496-5.84758 36.4373-5.75417 36.1571-5.90703C36.0976-5.941 35.9618-5.89004 35.8938-5.83484C35.7749-5.74143 35.6943-5.60555 35.5839-5.50364C35.2696-5.21915 35.0319-5.24887 34.7559-5.57158C34.6426-5.70852 34.4965-5.81503 34.3312-5.88155C34.1876-5.92614 34.0329-5.91835 33.8939-5.86032C33.1168-5.50789 32.4927-5.91552 32.2591-6.65435C32.1625-6.92752 32.1211-7.21732 32.137-7.50641C32.153-7.79586 32.2266-8.07929 32.3525-8.34007C32.4548-8.5722 32.4987-8.8259 32.4799-9.0789C32.4757-9.43558 32.5606-9.79226 32.6285-10.1404C32.7432-10.7349 32.8748-11.3251 32.9979-11.9153C33.0829-12.34 33.1763-12.7646 33.2527-13.1892C33.3291-13.5926 33.3886-13.996 33.4523-14.4036C33.505-14.7542 33.4905-15.1113 33.4098-15.4566C33.3376-15.7751 33.4523-16.1403 33.5202-16.4757C33.5669-16.722 33.6731-16.9555 33.6391-17.206C33.6112-17.2191 33.5829-17.2319 33.5542-17.2443L33.5542-17.24Z"/>
   <path class="monochrome-1 multicolor-1:tintColor hierarchical-1:tertiary SFSymbolsPreviewWireframe" d="M44.3636-80.5865C50.0861-80.5876 55.7528-79.4613 61.04-77.272C66.3271-75.0826 71.1312-71.8729 75.1774-67.8265C79.2239-63.7803 82.4335-58.9764 84.6232-53.6889C86.8124-48.4015 87.9387-42.7349 87.9376-37.0127C87.9376-12.9352 68.432 6.58658 44.3638 6.58658C20.2909 6.58658 0.7645-12.9399 0.7645-37.0127C0.7645-61.0781 20.2877-80.5865 44.3636-80.5865ZM44.3638-78.3365C21.53-78.3365 3.0145-59.8351 3.0145-37.0127C3.0145-14.1825 21.5336 4.33658 44.3638 4.33658C67.1889 4.33658 85.6876-14.1774 85.6876-37.0129C85.6886-42.4398 84.6205-47.8138 82.5443-52.828C80.4678-57.8425 77.4239-62.3983 73.5865-66.2355C69.7491-70.073 65.1932-73.1168 60.1791-75.1931C55.1651-77.2695 49.791-78.3376 44.3638-78.3365Z"/>
  </g>
 </g>
</svg>
