<?xml version="1.0" encoding="UTF-8"?>
<!--Generator: Apple Native CoreSVG 341-->
<!DOCTYPE svg
PUBLIC "-//W3C//DTD SVG 1.1//EN"
       "http://www.w3.org/Graphics/SVG/1.1/DTD/svg11.dtd">
<svg version="1.1" xmlns="http://www.w3.org/2000/svg" xmlns:xlink="http://www.w3.org/1999/xlink" viewBox="0 0 3300 2200">
 <!--glyph: "", point size: 100.0, font version: "20.0d10e1", template writer version: "138.0.0"-->
 <style>.monochrome-0 {-sfsymbols-motion-group:1;-sfsymbols-layer-tags:42d43cd21ef8bf39}
.monochrome-1 {-sfsymbols-motion-group:0;-sfsymbols-layer-tags:42d43cd21ef8bf39}

.multicolor-0:tintColor {-sfsymbols-motion-group:1;-sfsymbols-layer-tags:42d43cd21ef8bf39}
.multicolor-1:tintColor {-sfsymbols-motion-group:0;-sfsymbols-layer-tags:42d43cd21ef8bf39}

.hierarchical-0:primary {-sfsymbols-motion-group:1;-sfsymbols-layer-tags:42d43cd21ef8bf39}
.hierarchical-1:tertiary {-sfsymbols-motion-group:0;-sfsymbols-layer-tags:42d43cd21ef8bf39}

.SFSymbolsPreviewWireframe {fill:none;opacity:1.0;stroke:black;stroke-width:0.5}
</style>
 <g id="Notes">
  <rect height="2200" id="artboard" style="fill:white;opacity:1" width="3300" x="0" y="0"/>
  <line style="fill:none;stroke:black;opacity:1;stroke-width:0.5;" x1="263" x2="3036" y1="292" y2="292"/>
  <text style="stroke:none;fill:black;font-family:sans-serif;font-size:13;font-weight:bold;" transform="matrix(1 0 0 1 263 322)">Weight/Scale Variations</text>
  <text style="stroke:none;fill:black;font-family:sans-serif;font-size:13;text-anchor:middle;" transform="matrix(1 0 0 1 559.711 322)">Ultralight</text>
  <text style="stroke:none;fill:black;font-family:sans-serif;font-size:13;text-anchor:middle;" transform="matrix(1 0 0 1 856.422 322)">Thin</text>
  <text style="stroke:none;fill:black;font-family:sans-serif;font-size:13;text-anchor:middle;" transform="matrix(1 0 0 1 1153.13 322)">Light</text>
  <text style="stroke:none;fill:black;font-family:sans-serif;font-size:13;text-anchor:middle;" transform="matrix(1 0 0 1 1449.84 322)">Regular</text>
  <text style="stroke:none;fill:black;font-family:sans-serif;font-size:13;text-anchor:middle;" transform="matrix(1 0 0 1 1746.56 322)">Medium</text>
  <text style="stroke:none;fill:black;font-family:sans-serif;font-size:13;text-anchor:middle;" transform="matrix(1 0 0 1 2043.27 322)">Semibold</text>
  <text style="stroke:none;fill:black;font-family:sans-serif;font-size:13;text-anchor:middle;" transform="matrix(1 0 0 1 2339.98 322)">Bold</text>
  <text style="stroke:none;fill:black;font-family:sans-serif;font-size:13;text-anchor:middle;" transform="matrix(1 0 0 1 2636.69 322)">Heavy</text>
  <text style="stroke:none;fill:black;font-family:sans-serif;font-size:13;text-anchor:middle;" transform="matrix(1 0 0 1 2933.4 322)">Black</text>
  <line style="fill:none;stroke:black;opacity:1;stroke-width:0.5;" x1="263" x2="3036" y1="1903" y2="1903"/>
  <g transform="matrix(0.2 0 0 0.2 263 1933)">
   <path d="m46.2402 4.15039c21.7773 0 39.4531-17.627 39.4531-39.4043s-17.6758-39.4043-39.4531-39.4043c-21.7285 0-39.4043 17.627-39.4043 39.4043s17.6758 39.4043 39.4043 39.4043Zm0-7.42188c-17.6758 0-31.9336-14.3066-31.9336-31.9824s14.2578-31.9824 31.9336-31.9824 31.9824 14.3066 31.9824 31.9824-14.3066 31.9824-31.9824 31.9824Zm-17.9688-31.9824c0 2.14844 1.51367 3.61328 3.75977 3.61328h10.498v10.5957c0 2.19727 1.46484 3.71094 3.61328 3.71094 2.24609 0 3.71094-1.51367 3.71094-3.71094v-10.5957h10.5957c2.19727 0 3.71094-1.46484 3.71094-3.61328 0-2.19727-1.51367-3.71094-3.71094-3.71094h-10.5957v-10.5469c0-2.24609-1.46484-3.75977-3.71094-3.75977-2.14844 0-3.61328 1.51367-3.61328 3.75977v10.5469h-10.498c-2.24609 0-3.75977 1.51367-3.75977 3.71094Z"/>
  </g>
  <g transform="matrix(0.2 0 0 0.2 281.506 1933)">
   <path d="m58.5449 14.5508c27.4902 0 49.8047-22.3145 49.8047-49.8047s-22.3145-49.8047-49.8047-49.8047-49.8047 22.3145-49.8047 49.8047 22.3145 49.8047 49.8047 49.8047Zm0-8.30078c-22.9492 0-41.5039-18.5547-41.5039-41.5039s18.5547-41.5039 41.5039-41.5039 41.5039 18.5547 41.5039 41.5039-18.5547 41.5039-41.5039 41.5039Zm-22.6562-41.5039c0 2.39258 1.66016 4.00391 4.15039 4.00391h14.3555v14.4043c0 2.44141 1.66016 4.15039 4.05273 4.15039 2.44141 0 4.15039-1.66016 4.15039-4.15039v-14.4043h14.4043c2.44141 0 4.15039-1.61133 4.15039-4.00391 0-2.44141-1.70898-4.15039-4.15039-4.15039h-14.4043v-14.3555c0-2.49023-1.70898-4.19922-4.15039-4.19922-2.39258 0-4.05273 1.70898-4.05273 4.19922v14.3555h-14.3555c-2.49023 0-4.15039 1.70898-4.15039 4.15039Z"/>
  </g>
  <g transform="matrix(0.2 0 0 0.2 304.924 1933)">
   <path d="m74.8535 28.3203c35.1074 0 63.623-28.4668 63.623-63.5742s-28.5156-63.623-63.623-63.623-63.5742 28.5156-63.5742 63.623 28.4668 63.5742 63.5742 63.5742Zm0-9.08203c-30.127 0-54.4922-24.3652-54.4922-54.4922s24.3652-54.4922 54.4922-54.4922 54.4922 24.3652 54.4922 54.4922-24.3652 54.4922-54.4922 54.4922Zm-28.8574-54.4922c0 2.58789 1.85547 4.39453 4.58984 4.39453h19.7266v19.7754c0 2.68555 1.85547 4.58984 4.44336 4.58984 2.68555 0 4.54102-1.85547 4.54102-4.58984v-19.7754h19.7754c2.68555 0 4.58984-1.80664 4.58984-4.39453 0-2.73438-1.85547-4.58984-4.58984-4.58984h-19.7754v-19.7266c0-2.73438-1.85547-4.63867-4.54102-4.63867-2.58789 0-4.44336 1.9043-4.44336 4.63867v19.7266h-19.7266c-2.73438 0-4.58984 1.85547-4.58984 4.58984Z"/>
  </g>
  <text style="stroke:none;fill:black;font-family:sans-serif;font-size:13;font-weight:bold;" transform="matrix(1 0 0 1 263 1953)">Design Variations</text>
  <text style="stroke:none;fill:black;font-family:sans-serif;font-size:13;" transform="matrix(1 0 0 1 263 1971)">Symbols are supported in up to nine weights and three scales.</text>
  <text style="stroke:none;fill:black;font-family:sans-serif;font-size:13;" transform="matrix(1 0 0 1 263 1989)">For optimal layout with text and other symbols, vertically align</text>
  <text style="stroke:none;fill:black;font-family:sans-serif;font-size:13;" transform="matrix(1 0 0 1 263 2007)">symbols with the adjacent text.</text>
  <line style="fill:none;stroke:#00AEEF;stroke-width:0.5;opacity:1.0;" x1="776" x2="776" y1="1919" y2="1933"/>
  <g transform="matrix(0.2 0 0 0.2 776 1933)">
   <path d="m16.5527 0.78125c2.58789 0 3.85742-0.976562 4.78516-3.71094l6.29883-17.2363h28.8086l6.29883 17.2363c0.927734 2.73438 2.19727 3.71094 4.73633 3.71094 2.58789 0 4.24805-1.5625 4.24805-4.00391 0-0.830078-0.146484-1.61133-0.537109-2.63672l-22.9004-60.9863c-1.12305-2.97852-3.125-4.49219-6.25-4.49219-3.02734 0-5.07812 1.46484-6.15234 4.44336l-22.9004 61.084c-0.390625 1.02539-0.537109 1.80664-0.537109 2.63672 0 2.44141 1.5625 3.95508 4.10156 3.95508Zm13.4766-28.3691 11.8652-32.8613h0.244141l11.8652 32.8613Z"/>
  </g>
  <line style="fill:none;stroke:#00AEEF;stroke-width:0.5;opacity:1.0;" x1="792.836" x2="792.836" y1="1919" y2="1933"/>
  <text style="stroke:none;fill:black;font-family:sans-serif;font-size:13;font-weight:bold;" transform="matrix(1 0 0 1 776 1953)">Margins</text>
  <text style="stroke:none;fill:black;font-family:sans-serif;font-size:13;" transform="matrix(1 0 0 1 776 1971)">Leading and trailing margins on the left and right side of each symbol</text>
  <text style="stroke:none;fill:black;font-family:sans-serif;font-size:13;" transform="matrix(1 0 0 1 776 1989)">can be adjusted by modifying the x-location of the margin guidelines.</text>
  <text style="stroke:none;fill:black;font-family:sans-serif;font-size:13;" transform="matrix(1 0 0 1 776 2007)">Modifications are automatically applied proportionally to all</text>
  <text style="stroke:none;fill:black;font-family:sans-serif;font-size:13;" transform="matrix(1 0 0 1 776 2025)">scales and weights.</text>
  <g transform="matrix(0.2 0 0 0.2 1289 1933)">
   <path d="m14.209 9.32617 8.49609 8.54492c4.29688 4.3457 9.22852 4.05273 13.8672-1.07422l53.4668-58.9355-4.83398-4.88281-53.0762 58.3984c-1.75781 2.00195-3.41797 2.49023-5.76172 0.146484l-5.85938-5.81055c-2.34375-2.29492-1.80664-4.00391 0.195312-5.81055l57.373-54.0039-4.88281-4.83398-57.959 54.4434c-4.93164 4.58984-5.32227 9.47266-1.02539 13.8184Zm32.0801-90.9668c-2.09961 2.05078-2.24609 4.93164-1.07422 6.88477 1.17188 1.80664 3.4668 2.97852 6.68945 2.14844 7.32422-1.70898 14.9414-2.00195 22.0703 2.68555l-2.92969 7.27539c-1.70898 4.15039-0.830078 7.08008 1.85547 9.81445l11.4746 11.5723c2.44141 2.44141 4.49219 2.53906 7.32422 2.05078l5.32227-0.976562 3.32031 3.36914-0.195312 2.7832c-0.195312 2.49023 0.439453 4.39453 2.88086 6.78711l3.80859 3.71094c2.39258 2.39258 5.46875 2.53906 7.8125 0.195312l14.5508-14.5996c2.34375-2.34375 2.24609-5.32227-0.146484-7.71484l-3.85742-3.80859c-2.39258-2.39258-4.24805-3.17383-6.64062-2.97852l-2.88086 0.244141-3.22266-3.17383 1.2207-5.61523c0.634766-2.83203-0.146484-5.0293-3.07617-7.95898l-10.9863-10.9375c-16.6992-16.6016-38.8672-16.2109-53.3203-1.75781Zm7.4707 1.85547c12.1582-8.88672 28.6133-7.37305 39.7461 3.75977l12.1582 12.0605c1.17188 1.17188 1.36719 2.09961 1.02539 3.80859l-1.61133 7.42188 7.51953 7.42188 4.93164-0.292969c1.26953-0.0488281 1.66016 0.0488281 2.63672 1.02539l2.88086 2.88086-12.207 12.207-2.88086-2.88086c-0.976562-0.976562-1.12305-1.36719-1.07422-2.68555l0.341797-4.88281-7.4707-7.42188-7.61719 1.26953c-1.61133 0.341797-2.34375 0.195312-3.56445-0.976562l-10.0098-10.0098c-1.26953-1.17188-1.41602-2.00195-0.634766-3.85742l4.39453-10.4492c-7.8125-7.27539-17.9688-10.4004-28.125-7.42188-0.78125 0.195312-1.07422-0.439453-0.439453-0.976562Z"/>
  </g>
  <text style="stroke:none;fill:black;font-family:sans-serif;font-size:13;font-weight:bold;" transform="matrix(1 0 0 1 1289 1953)">Exporting</text>
  <text style="stroke:none;fill:black;font-family:sans-serif;font-size:13;" transform="matrix(1 0 0 1 1289 1971)">Symbols should be outlined when exporting to ensure the</text>
  <text style="stroke:none;fill:black;font-family:sans-serif;font-size:13;" transform="matrix(1 0 0 1 1289 1989)">design is preserved when submitting to Xcode.</text>
  <text id="template-version" style="stroke:none;fill:black;font-family:sans-serif;font-size:13;text-anchor:end;" transform="matrix(1 0 0 1 3036 1933)">Template v.6.0</text>
  <text style="stroke:none;fill:black;font-family:sans-serif;font-size:13;text-anchor:end;" transform="matrix(1 0 0 1 3036 1951)">Requires Xcode 16 or greater</text>
  <text id="descriptive-name" style="stroke:none;fill:black;font-family:sans-serif;font-size:13;text-anchor:end;" transform="matrix(1 0 0 1 3036 1969)">Generated from filtervogelgruppe-24</text>
  <text style="stroke:none;fill:black;font-family:sans-serif;font-size:13;text-anchor:end;" transform="matrix(1 0 0 1 3036 1987)">Typeset at 100.0 points</text>
  <text style="stroke:none;fill:black;font-family:sans-serif;font-size:13;" transform="matrix(1 0 0 1 263 726)">Small</text>
  <text style="stroke:none;fill:black;font-family:sans-serif;font-size:13;" transform="matrix(1 0 0 1 263 1156)">Medium</text>
  <text style="stroke:none;fill:black;font-family:sans-serif;font-size:13;" transform="matrix(1 0 0 1 263 1586)">Large</text>
 </g>
 <g id="Guides">
  <g id="H-reference" style="fill:#27AAE1;stroke:none;" transform="matrix(1 0 0 1 339 696)">
   <path d="M0.993654 0L3.63775 0L29.3281-67.1323L30.0303-67.1323L30.0303-70.459L28.1226-70.459ZM11.6885-24.4799L46.9815-24.4799L46.2315-26.7285L12.4385-26.7285ZM55.1196 0L57.7637 0L30.6382-70.459L29.4326-70.459L29.4326-67.1323Z"/>
  </g>
  <line id="Baseline-S" style="fill:none;stroke:#27AAE1;opacity:1;stroke-width:0.5;" x1="263" x2="3036" y1="696" y2="696"/>
  <line id="Capline-S" style="fill:none;stroke:#27AAE1;opacity:1;stroke-width:0.5;" x1="263" x2="3036" y1="625.541" y2="625.541"/>
  <g id="H-reference" style="fill:#27AAE1;stroke:none;" transform="matrix(1 0 0 1 339 1126)">
   <path d="M0.993654 0L3.63775 0L29.3281-67.1323L30.0303-67.1323L30.0303-70.459L28.1226-70.459ZM11.6885-24.4799L46.9815-24.4799L46.2315-26.7285L12.4385-26.7285ZM55.1196 0L57.7637 0L30.6382-70.459L29.4326-70.459L29.4326-67.1323Z"/>
  </g>
  <line id="Baseline-M" style="fill:none;stroke:#27AAE1;opacity:1;stroke-width:0.5;" x1="263" x2="3036" y1="1126" y2="1126"/>
  <line id="Capline-M" style="fill:none;stroke:#27AAE1;opacity:1;stroke-width:0.5;" x1="263" x2="3036" y1="1055.54" y2="1055.54"/>
  <g id="H-reference" style="fill:#27AAE1;stroke:none;" transform="matrix(1 0 0 1 339 1556)">
   <path d="M0.993654 0L3.63775 0L29.3281-67.1323L30.0303-67.1323L30.0303-70.459L28.1226-70.459ZM11.6885-24.4799L46.9815-24.4799L46.2315-26.7285L12.4385-26.7285ZM55.1196 0L57.7637 0L30.6382-70.459L29.4326-70.459L29.4326-67.1323Z"/>
  </g>
  <line id="Baseline-L" style="fill:none;stroke:#27AAE1;opacity:1;stroke-width:0.5;" x1="263" x2="3036" y1="1556" y2="1556"/>
  <line id="Capline-L" style="fill:none;stroke:#27AAE1;opacity:1;stroke-width:0.5;" x1="263" x2="3036" y1="1485.54" y2="1485.54"/>
  <line id="right-margin-Black-S" style="fill:none;stroke:#00AEEF;stroke-width:0.5;opacity:1.0;" x1="2982.23" x2="2982.23" y1="600.785" y2="720.121"/>
  <line id="left-margin-Black-S" style="fill:none;stroke:#00AEEF;stroke-width:0.5;opacity:1.0;" x1="2884.57" x2="2884.57" y1="600.785" y2="720.121"/>
  <line id="right-margin-Regular-S" style="fill:none;stroke:#00AEEF;stroke-width:0.5;opacity:1.0;" x1="1496.11" x2="1496.11" y1="600.785" y2="720.121"/>
  <line id="left-margin-Regular-S" style="fill:none;stroke:#00AEEF;stroke-width:0.5;opacity:1.0;" x1="1403.58" x2="1403.58" y1="600.785" y2="720.121"/>
  <line id="right-margin-Ultralight-S" style="fill:none;stroke:#00AEEF;stroke-width:0.5;opacity:1.0;" x1="603.773" x2="603.773" y1="600.785" y2="720.121"/>
  <line id="left-margin-Ultralight-S" style="fill:none;stroke:#00AEEF;stroke-width:0.5;opacity:1.0;" x1="515.649" x2="515.649" y1="600.785" y2="720.121"/>
 </g>
 <g id="Symbols">
  <g id="Black-S" transform="matrix(1 0 0 1 2884.57 696)">
   <path class="monochrome-0 multicolor-0:tintColor hierarchical-0:primary SFSymbolsPreviewWireframe" d="M73.9745-15.7053C73.7085-15.7298 73.3234-15.7858 72.9419-15.7893C72.4518-15.7963 71.9618-15.7893 71.4752-15.7368C71.1252-15.7018 70.7825-15.5618 70.4324-15.5093C70.1139-15.4673 69.7919-15.4848 69.4733-15.4708C68.8363-15.4428 68.1954-15.5618 67.5584-15.4008C67.5339-15.4008 67.5097-15.3903 67.4887-15.3973C67.1736-15.5093 66.8831-15.3028 66.5821-15.2293C66.253-15.1523 65.9205-15.1068 65.588-15.0893C64.9089-15.0613 64.226-15.0648 63.547-15.0508C63.1619-15.0403 62.7769-14.9983 62.3922-15.0158C62.0036-15.0298 61.6116-15.1138 61.223-15.1383C60.901-15.1593 60.5825-15.1173 60.264-15.1348C59.9577-15.1429 59.6529-15.0896 59.3679-14.9773C59.2384-14.9318 59.0981-14.9668 58.965-14.9633L57.2257-14.9388C57.0025-14.9358 56.7794-14.9265 56.5571-14.9108C56.1126-14.8757 55.6715-14.8407 55.227-14.7987C54.9434-14.7742 54.6564-14.7322 54.3694-14.7147C53.9038-14.6867 53.4383-14.7252 52.9693-14.6272C52.5842-14.5432 52.1887-14.6027 51.7966-14.6027C51.4571-14.6027 51.1211-14.6167 50.7815-14.6062C50.554-14.5992 50.3265-14.5572 50.1025-14.5362C50.057-14.5292 50.0115-14.5537 49.9625-14.5572C49.7734-14.5642 49.5844-14.5747 49.3954-14.5712C49.2939-14.5712 49.1959-14.5222 49.0944-14.5255C48.7863-14.5432 48.4783-14.5957 48.1668-14.5992C47.6662-14.5992 47.1622-14.5712 46.6616-14.5572C46.5015-14.5511 46.3414-14.5546 46.1821-14.5677C45.8041-14.6027 45.426-14.6552 45.048-14.6902C44.9185-14.7007 44.7925-14.6657 44.6629-14.6657C44.2254-14.6622 43.7879-14.6447 43.3468-14.6692C42.7728-14.7042 42.1986-14.7742 41.6245-14.8197C41.411-14.8372 41.1975-14.8197 40.9804-14.8267C40.8964-14.8267 40.8089-14.8407 40.7249-14.8547C40.6234-14.8687 40.5254-14.9003 40.4239-14.9003C40.0599-14.9073 39.6923-14.9003 39.3283-14.9038C39.2583-14.9038 39.1848-14.8827 39.1218-14.9178C38.8277-15.0858 38.5372-14.9388 38.2432-14.9213C37.8791-14.9003 37.5081-14.9283 37.1476-14.9423C36.4545-14.9738 35.7649-15.0123 35.0754-15.0473C34.9878-15.0481 34.9009-15.0312 34.8199-14.9983C34.5958-14.9178 34.4383-15.0543 34.3543-15.4323C34.2787-15.7412 34.248-16.0597 34.2633-16.3774C34.3018-17.123 34.2878-17.872 34.3123-18.6176C34.3228-18.9676 34.3823-19.3107 34.4033-19.6572C34.4383-20.1893 34.4523-20.7213 34.4838-21.2499C34.5188-21.7574 34.5573-22.2615 34.5993-22.7655C34.6098-22.9405 34.6343-23.112 34.6448-23.2836C34.6763-23.8961 34.6903-24.5087 34.7323-25.1177C34.7673-25.6463 34.8304-26.1713 34.8829-26.6964C34.9669-27.5225 35.0404-28.352 35.1419-29.1676C35.2294-29.8677 35.3519-30.5573 35.4569-31.2503C35.4674-31.3413 35.4674-31.4393 35.4744-31.5339C35.4919-31.7544 35.4884-31.9889 35.5304-32.1884C35.6144-32.598 35.6249-33.0145 35.6354-33.438C35.6529-33.9001 35.6704-34.3621 35.6949-34.8242L35.7999-36.7494C35.856-37.7925 35.919-38.8321 35.9575-39.8717C35.9782-40.467 35.9383-41.0627 35.8385-41.6498C35.8174-41.7898 35.7229-41.9019 35.6529-42.0069C35.5829-42.1119 35.5024-42.1819 35.4289-42.2764C35.3134-42.4269 35.1944-42.5214 35.0369-42.4864C34.9246-42.4704 34.8103-42.4952 34.7148-42.5564C34.2336-42.828 33.7586-43.1104 33.2902-43.4035C32.9717-43.603 32.6601-43.8375 32.3451-44.0616L31.134-44.9472C31.099-44.9717 31.064-44.9857 31.036-45.0277C30.777-45.4127 30.4339-45.5177 30.1434-45.7978C29.7339-46.1828 29.3173-46.5468 28.9078-46.9319C28.7608-47.0719 28.6103-47.1664 28.4387-47.1559C28.0922-47.1384 27.7457-47.1069 27.3991-47.1139C26.8873-47.1273 26.376-47.1565 25.866-47.2014C25.481-47.2364 25.0959-47.2609 24.7179-47.3589C24.3573-47.4499 24.0038-47.6284 23.6503-47.7685L23.4368-47.849C23.3212-47.8945 23.2057-47.933 23.0937-47.9995C23.0097-48.045 22.9957-48.2515 23.0797-48.3495C23.2197-48.507 23.3632-48.6855 23.5208-48.7626C23.9554-48.9685 24.4019-49.1486 24.8579-49.3016C25.6455-49.5676 26.426-49.9071 27.2346-49.9981C27.7492-50.0541 28.2602-50.1767 28.7748-50.2782C28.9498-50.3132 29.1038-50.4532 29.2298-50.6772C29.5798-51.2828 29.9334-51.8779 30.2869-52.4799C30.91-53.544 31.6275-54.3981 32.3766-55.1647C32.5621-55.3537 32.7477-55.5462 32.9402-55.7072C33.0627-55.8122 33.2027-55.8542 33.3287-55.9417C33.783-56.2525 34.3185-56.423 34.8689-56.4318C35.0964-56.4353 35.3239-56.4598 35.5549-56.4983C36.065-56.5744 36.5861-56.49 37.0461-56.2567C37.2526-56.1622 37.4661-56.1168 37.6761-56.0223C38.0822-55.8402 38.4812-55.6407 38.8907-55.4552C39.2816-55.2469 39.7185-55.1398 40.1614-55.1437C40.2104-55.1472 40.2594-55.1576 40.3119-55.1541C40.7607-55.1573 41.2061-55.2317 41.6315-55.3747C41.8065-55.4237 41.866-55.3327 41.9325-55.0947C42.0305-54.7551 42.0656-54.3981 42.0761-54.0341C42.0971-53.3095 42.0831-52.5849 42.0025-51.8638C41.964-51.5313 41.8625-51.2828 41.677-51.1533C41.5294-51.054 41.3858-50.9489 41.2465-50.8383C41.117-50.7332 41.0925-50.6387 41.1345-50.4007C41.2465-49.7706 41.3305-49.1406 41.3795-48.486C41.4005-48.171 41.4635-47.8665 41.502-47.5549C41.544-47.2119 41.572-46.8654 41.6105-46.5223C41.649-46.1863 41.698-45.8538 41.733-45.5177C41.8041-44.8466 41.8462-44.1727 41.859-43.498C41.859-42.1714 41.859-40.8483 41.852-39.5216C41.852-38.9861 41.8415-38.454 41.838-37.9185C41.8345-37.5614 41.8415-37.2009 41.8345-36.8439C41.8135-36.0388 41.782-35.2372 41.7575-34.4321L41.754-34.3376C41.733-33.6201 41.726-32.9025 41.6945-32.1884C41.6735-31.7614 41.621-31.3378 41.5825-30.9143C41.537-30.3612 41.4985-29.8082 41.4495-29.2551C41.411-28.8106 41.3585-28.3661 41.3095-27.918C41.306-27.848 41.292-27.778 41.285-27.708C41.2325-27.1339 41.18-26.5599 41.1345-25.9823C41.1205-25.7863 41.1345-25.5833 41.124-25.3873C41.103-25.0162 41.075-24.6452 41.04-24.2742C41.0084-23.9171 41.0575-23.8296 41.257-23.8996C41.5963-24.0093 41.9105-24.1855 42.1811-24.4177C42.6083-24.7852 43.0493-25.1177 43.4903-25.4328C43.9034-25.7338 44.3234-25.9998 44.74-26.2728C44.845-26.3429 44.95-26.3709 45.0585-26.4199C45.4015-26.5809 45.7446-26.7524 46.0911-26.8994C46.3606-27.0149 46.6336-27.1129 46.9067-27.1969C47.1517-27.2669 47.4037-27.3019 47.6522-27.365C47.8028-27.4 47.9533-27.4245 48.0968-27.498C48.4083-27.6625 48.7268-27.6835 49.0419-27.743C49.3569-27.799 49.6684-27.897 49.98-27.9705C50.176-28.016 50.372-28.0475 50.568-28.0755C50.834-28.121 51.1036-28.163 51.3731-28.1945C51.6496-28.2295 51.9262-28.24 52.2062-28.2715L54.0089-28.4816C54.0544-28.4886 54.0999-28.4816 54.1454-28.4816C54.4079-28.4606 54.6704-28.4186 54.9364-28.4851C55.1885-28.5516 55.4475-28.5026 55.7065-28.5131C55.9655-28.5201 56.2246-28.5586 56.4836-28.5481C56.7951-28.5376 57.1032-28.4921 57.4147-28.4536C57.5302-28.4396 57.6492-28.4116 57.7647-28.3871L58.9093-28.142L59.4484-28.023C59.4589-28.023 59.4656-28.016 59.4761-28.0195C59.8261-28.1245 60.1554-27.869 60.4985-27.834C60.691-27.813 60.8835-27.82 61.069-27.7465C61.6011-27.5365 62.1261-27.2844 62.6512-27.0534C62.9487-26.9239 63.2497-26.8259 63.5438-26.6684C63.9393-26.4619 64.3346-26.2273 64.7266-25.9823C65.1151-25.7373 65.5005-25.4608 65.889-25.1947C66.2985-24.9147 66.7113-24.6347 67.1208-24.3372C67.4814-24.0711 67.8384-23.7771 68.1954-23.4901C68.5385-23.2136 68.885-22.9405 69.2245-22.657C69.3759-22.5377 69.5165-22.4053 69.6449-22.2615C70.1104-21.7189 70.604-21.2604 71.031-20.6233C71.08-20.5428 71.1602-20.5113 71.2302-20.4833C71.5733-20.3468 71.9201-20.2383 72.2596-20.0808C72.5816-19.9372 72.8999-19.7657 73.2114-19.5732C73.3928-19.4516 73.5577-19.3069 73.7018-19.1427C74.0448-18.7716 74.4155-18.4671 74.7271-17.998C74.9861-17.6025 75.2069-17.165 75.3539-16.6189C75.3889-16.4929 75.4481-16.3844 75.4831-16.2549C75.519-16.142 75.5321-16.023 75.5216-15.9048C75.5076-15.8348 75.4131-15.7788 75.3501-15.7753C74.9301-15.7473 74.51-15.7298 73.9745-15.7053L73.9745-15.7053Z"/>
   <path class="monochrome-1 multicolor-1:tintColor hierarchical-1:tertiary SFSymbolsPreviewWireframe" d="M48.9411-84C55.3091-84.0013 61.615-82.7479 67.4985-80.3116C73.382-77.8752 78.7279-74.3036 83.2305-69.8009C87.7334-65.2983 91.305-59.9524 93.7418-54.0682C96.1779-48.1846 97.4312-41.8789 97.43-35.5124C97.43-8.72255 75.7254 13 48.9424 13C22.156 13 0.43-8.726 0.43-35.5124C0.43-62.2926 22.1539-84 48.9411-84ZM48.9424-70C29.8835-70 14.43-54.5582 14.43-35.5124C14.43-16.458 29.888-0.999999 48.9424-0.999999C67.9909-0.999999 83.43-16.4519 83.43-35.5138C83.4309-40.0428 82.5395-44.5276 80.8069-48.7121C79.0739-52.8969 76.5337-56.6989 73.3311-59.9013C70.1287-63.1038 66.3266-65.644 62.1422-67.3767C57.9578-69.1095 53.4729-70.0009 48.9424-70Z"/>
  </g>
  <g id="Regular-S" transform="matrix(1 0 0 1 1403.58 696)">
   <path class="monochrome-0 multicolor-0:tintColor hierarchical-0:primary SFSymbolsPreviewWireframe" d="M76.2274-11.4822C75.9047-11.5119 75.4376-11.5799 74.9748-11.5841C74.3803-11.5926 73.7859-11.5841 73.1957-11.5204C72.771-11.478 72.3553-11.3081 71.9307-11.2444C71.5443-11.1935 71.1536-11.2147 70.7672-11.1977C69.9944-11.1637 69.217-11.3081 68.4442-11.1128C68.4145-11.1128 68.3851-11.1001 68.3596-11.1085C67.9775-11.2444 67.6251-10.9939 67.2599-10.9047C66.8607-10.8113 66.4574-10.7561 66.054-10.7349C65.2302-10.7009 64.4019-10.7052 63.5781-10.6882C63.111-10.6754 62.644-10.6245 62.1772-10.6457C61.7059-10.6627 61.2303-10.7646 60.759-10.7943C60.3684-10.8198 59.982-10.7689 59.5956-10.7901C59.224-10.8 58.8543-10.7352 58.5086-10.599C58.3515-10.5438 58.1813-10.5863 58.0199-10.582L55.9099-10.5523C55.6392-10.5488 55.3685-10.5374 55.0989-10.5183C54.5596-10.4759 54.0246-10.4334 53.4854-10.3825C53.1414-10.3527 52.7932-10.3018 52.4451-10.2805C51.8803-10.2466 51.3156-10.2933 50.7466-10.1744C50.2795-10.0725 49.7997-10.1447 49.3241-10.1447C48.9123-10.1447 48.5046-10.1617 48.0927-10.1489C47.8167-10.1404 47.5407-10.0895 47.269-10.064C47.2138-10.0555 47.1586-10.0852 47.0991-10.0895C46.8699-10.098 46.6406-10.1107 46.4113-10.1065C46.2881-10.1065 46.1692-10.047 46.0461-10.051C45.6724-10.0725 45.2988-10.1362 44.9209-10.1404C44.3137-10.1404 43.7022-10.1065 43.095-10.0895C42.9008-10.082 42.7065-10.0863 42.5133-10.1022C42.0547-10.1447 41.5961-10.2084 41.1375-10.2508C40.9804-10.2636 40.8276-10.2211 40.6705-10.2211C40.1397-10.2169 39.6089-10.1956 39.0739-10.2253C38.3775-10.2678 37.681-10.3527 36.9846-10.4079C36.7256-10.4292 36.4666-10.4079 36.2033-10.4164C36.1014-10.4164 35.9953-10.4334 35.8934-10.4504C35.7702-10.4674 35.6513-10.5056 35.5282-10.5056C35.0866-10.5141 34.6408-10.5056 34.1992-10.5098C34.1142-10.5098 34.0251-10.4844 33.9486-10.5268C33.592-10.7306 33.2395-10.5523 32.8828-10.5311C32.4412-10.5056 31.9912-10.5396 31.5538-10.5565C30.7131-10.5948 29.8766-10.6415 29.0401-10.6839C28.9338-10.685 28.8285-10.6645 28.7301-10.6245C28.4584-10.5268 28.2673-10.6924 28.1654-11.151C28.0736-11.5257 28.0365-11.9121 28.055-12.2975C28.1017-13.2019 28.0847-14.1106 28.1144-15.015C28.1272-15.4396 28.1993-15.8557 28.2248-16.2761C28.2673-16.9215 28.2843-17.5669 28.3225-18.2081C28.3649-18.8238 28.4116-19.4353 28.4626-20.0467C28.4753-20.259 28.5051-20.4671 28.5178-20.6751C28.556-21.4182 28.573-22.1613 28.624-22.9001C28.6664-23.5413 28.7428-24.1782 28.8065-24.8151C28.9084-25.8172 28.9976-26.8236 29.1208-27.8129C29.2269-28.6621 29.3755-29.4986 29.5029-30.3394C29.5156-30.4498 29.5156-30.5687 29.5241-30.6833C29.5454-30.9508 29.5411-31.2353 29.5921-31.4773C29.694-31.9741 29.7067-32.4794 29.7195-32.9932C29.7407-33.5537 29.7619-34.1142 29.7916-34.6747L29.919-37.0101C29.987-38.2754 30.0634-39.5365 30.1101-40.7977C30.1353-41.5199 30.0869-42.2424 29.9657-42.9547C29.9403-43.1245 29.8256-43.2604 29.7407-43.3878C29.6558-43.5152 29.5581-43.6001 29.4689-43.7148C29.3288-43.8973 29.1844-44.012 28.9934-43.9695C28.8572-43.9501 28.7185-43.9801 28.6027-44.0545C28.0189-44.3839 27.4427-44.7264 26.8745-45.082C26.4881-45.3241 26.1102-45.6085 25.7281-45.8803L24.2589-46.9546C24.2164-46.9843 24.174-47.0013 24.14-47.0522C23.8258-47.5193 23.4097-47.6467 23.0572-47.9864C22.5604-48.4535 22.0552-48.8951 21.5584-49.3622C21.38-49.532 21.1974-49.6467 20.9894-49.6339C20.569-49.6127 20.1486-49.5745 19.7283-49.583C19.1074-49.5993 18.4871-49.6347 17.8684-49.6891C17.4014-49.7316 16.9343-49.7613 16.4757-49.8802C16.0384-49.9906 15.6095-50.2072 15.1806-50.377L14.9216-50.4747C14.7815-50.5299 14.6414-50.5766 14.5055-50.6573C14.4036-50.7125 14.3866-50.963 14.4885-51.0819C14.6584-51.2729 14.8324-51.4895 15.0235-51.5829C15.5508-51.8328 16.0924-52.0512 16.6456-52.2368C17.6009-52.5595 18.5478-52.9714 19.5287-53.0818C20.1529-53.1497 20.7728-53.2984 21.397-53.4215C21.6093-53.464 21.7961-53.6338 21.949-53.9056C22.3736-54.6401 22.8025-55.362 23.2313-56.0923C23.9872-57.3832 24.8576-58.4192 25.7663-59.3491C25.9913-59.5784 26.2164-59.8119 26.4499-60.0073C26.5985-60.1346 26.7684-60.1856 26.9212-60.2917C27.4723-60.6688 28.122-60.8755 28.7896-60.8862C29.0656-60.8905 29.3416-60.9202 29.6218-60.9669C30.2405-61.0593 30.8727-60.9569 31.4307-60.6739C31.6812-60.5593 31.9402-60.5041 32.195-60.3894C32.6875-60.1686 33.1716-59.9266 33.6684-59.7015C34.1426-59.4489 34.6725-59.319 35.2097-59.3237C35.2692-59.3279 35.3286-59.3406 35.3923-59.3364C35.9367-59.3402 36.4771-59.4305 36.9931-59.6039C37.2054-59.6633 37.2776-59.5529 37.3583-59.2642C37.4772-58.8523 37.5196-58.4192 37.5324-57.9776C37.5579-57.0987 37.5409-56.2197 37.4432-55.345C37.3965-54.9416 37.2734-54.6401 37.0483-54.483C36.8693-54.3626 36.695-54.2351 36.526-54.1009C36.3689-53.9735 36.3392-53.8589 36.3902-53.5701C36.526-52.8058 36.628-52.0415 36.6874-51.2475C36.7129-50.8653 36.7893-50.4959 36.836-50.118C36.887-49.7019 36.9209-49.2815 36.9676-48.8654C37.0144-48.4577 37.0738-48.0544 37.1163-47.6467C37.2025-46.8326 37.2535-46.0151 37.2691-45.1967C37.2691-43.5874 37.2691-41.9823 37.2606-40.373C37.2606-39.7234 37.2479-39.078 37.2436-38.4283C37.2394-37.9952 37.2479-37.5578 37.2394-37.1247C37.2139-36.1481 37.1757-35.1757 37.146-34.1991L37.1417-34.0845C37.1163-33.214 37.1078-32.3436 37.0696-31.4773C37.0441-30.9593 36.9804-30.4455 36.9337-29.9317C36.8785-29.2609 36.8318-28.59 36.7723-27.9191C36.7256-27.3798 36.6619-26.8405 36.6025-26.297C36.5982-26.2121 36.5812-26.1272 36.5728-26.0423C36.5091-25.3459 36.4454-24.6495 36.3902-23.9489C36.3732-23.7111 36.3902-23.4649 36.3774-23.2271C36.352-22.777 36.318-22.3269 36.2755-21.8768C36.2373-21.4437 36.2968-21.3375 36.5388-21.4225C36.9504-21.5555 37.3315-21.7692 37.6598-22.0509C38.178-22.4967 38.713-22.9001 39.248-23.2823C39.7491-23.6474 40.2586-23.9701 40.7639-24.3013C40.8913-24.3863 41.0187-24.4202 41.1503-24.4797C41.5664-24.675 41.9825-24.8831 42.4029-25.0614C42.7299-25.2015 43.0611-25.3204 43.3923-25.4223C43.6895-25.5073 43.9952-25.5497 44.2967-25.6261C44.4793-25.6686 44.6619-25.6983 44.8359-25.7875C45.2139-25.9871 45.6003-26.0125 45.9824-26.0847C46.3646-26.1527 46.7425-26.2716 47.1204-26.3607C47.3582-26.4159 47.5959-26.4541 47.8337-26.4881C48.1564-26.5433 48.4834-26.5943 48.8103-26.6325C49.1458-26.6749 49.4812-26.6877 49.8209-26.7259L52.0077-26.9807C52.0629-26.9892 52.1181-26.9807 52.1733-26.9807C52.4918-26.9552 52.8102-26.9042 53.1329-26.9849C53.4387-27.0656 53.7529-27.0061 54.0671-27.0189C54.3813-27.0274 54.6955-27.0741 55.0097-27.0613C55.3876-27.0486 55.7613-26.9934 56.1392-26.9467C56.2793-26.9297 56.4237-26.8957 56.5638-26.866L57.9523-26.5688L58.6062-26.4244C58.619-26.4244 58.6271-26.4159 58.6398-26.4202C59.0645-26.5476 59.4639-26.2376 59.8801-26.1951C60.1136-26.1697 60.3471-26.1781 60.5722-26.089C61.2176-25.8342 61.8545-25.5285 62.4915-25.2482C62.8524-25.0911 63.2175-24.9722 63.5742-24.7812C64.054-24.5306 64.5335-24.2461 65.0091-23.9489C65.4804-23.6517 65.9478-23.3162 66.4191-22.9935C66.9159-22.6538 67.4166-22.3141 67.9134-21.9532C68.3508-21.6305 68.7839-21.2738 69.217-20.9257C69.6331-20.5902 70.0535-20.259 70.4654-19.9151C70.649-19.7703 70.8196-19.6097 70.9753-19.4353C71.54-18.7771 72.1387-18.2209 72.6567-17.4481C72.7162-17.3504 72.8135-17.3122 72.8984-17.2782C73.3145-17.1126 73.7353-16.981 74.1471-16.7899C74.5378-16.6158 74.9238-16.4077 75.3017-16.1742C75.5218-16.0267 75.7218-15.8511 75.8966-15.6519C76.3127-15.2018 76.7624-14.8324 77.1403-14.2634C77.4545-13.7836 77.7224-13.2529 77.9007-12.5905C77.9432-12.4376 78.015-12.306 78.0575-12.1489C78.101-12.0119 78.1169-11.8675 78.1042-11.7242C78.0872-11.6393 77.9726-11.5714 77.8961-11.5671C77.3866-11.5332 76.8771-11.5119 76.2274-11.4822L76.2274-11.4822Z"/>
   <path class="monochrome-1 multicolor-1:tintColor hierarchical-1:tertiary SFSymbolsPreviewWireframe" d="M46.4321-81.8365C52.4502-81.8377 58.4096-80.6532 63.9698-78.3508C69.53-76.0483 74.5822-72.6729 78.8374-68.4176C83.0928-64.1624 86.4682-59.1103 88.771-53.5496C91.0733-47.9892 92.2577-42.03 92.2566-36.0127C92.2566-10.693 71.744 9.83658 46.4328 9.83658C21.1173 9.83658 0.5835-10.6972 0.5835-36.0127C0.5835-61.3211 21.1145-81.8365 46.4321-81.8365ZM46.4328-75.0865C24.8413-75.0865 7.3335-57.592 7.3335-36.0127C7.3335-14.4252 24.8452 3.08658 46.4328 3.08658C68.0148 3.08658 85.5066-14.4197 85.5066-36.0133C85.5076-41.1447 84.4976-46.226 82.5345-50.9672C80.571-55.7085 77.693-60.0162 74.0644-63.6446C70.4361-67.273 66.1283-70.1511 61.3873-72.1143C56.6463-74.0776 51.5649-75.0875 46.4328-75.0865Z"/>
  </g>
  <g id="Ultralight-S" transform="matrix(1 0 0 1 515.649 696)">
   <path class="monochrome-0 multicolor-0:tintColor hierarchical-0:primary SFSymbolsPreviewWireframe" d="M74.1584-12.4822C73.8357-12.5119 73.3686-12.5799 72.9058-12.5841C72.3113-12.5926 71.7169-12.5841 71.1267-12.5204C70.702-12.478 70.2863-12.3081 69.8617-12.2444C69.4753-12.1935 69.0846-12.2147 68.6982-12.1977C67.9254-12.1637 67.148-12.3081 66.3752-12.1128C66.3455-12.1128 66.3161-12.1001 66.2906-12.1085C65.9085-12.2444 65.5561-11.9939 65.1909-11.9047C64.7917-11.8113 64.3884-11.7561 63.985-11.7349C63.1612-11.7009 62.3329-11.7052 61.5091-11.6882C61.042-11.6754 60.575-11.6245 60.1082-11.6457C59.6369-11.6627 59.1613-11.7646 58.69-11.7943C58.2994-11.8198 57.913-11.7689 57.5266-11.7901C57.155-11.8 56.7853-11.7352 56.4396-11.599C56.2825-11.5438 56.1123-11.5863 55.9509-11.582L53.8409-11.5523C53.5702-11.5488 53.2995-11.5374 53.0299-11.5183C52.4906-11.4759 51.9556-11.4334 51.4164-11.3825C51.0724-11.3527 50.7242-11.3018 50.3761-11.2805C49.8113-11.2466 49.2466-11.2933 48.6776-11.1744C48.2105-11.0725 47.7307-11.1447 47.2551-11.1447C46.8433-11.1447 46.4356-11.1617 46.0237-11.1489C45.7477-11.1404 45.4717-11.0895 45.2-11.064C45.1448-11.0555 45.0896-11.0852 45.0301-11.0895C44.8009-11.098 44.5716-11.1107 44.3423-11.1065C44.2191-11.1065 44.1002-11.047 43.9771-11.051C43.6034-11.0725 43.2298-11.1362 42.8519-11.1404C42.2447-11.1404 41.6332-11.1065 41.026-11.0895C40.8318-11.082 40.6375-11.0863 40.4443-11.1022C39.9857-11.1447 39.5271-11.2084 39.0685-11.2508C38.9114-11.2636 38.7586-11.2211 38.6015-11.2211C38.0707-11.2169 37.5399-11.1956 37.0049-11.2253C36.3085-11.2678 35.612-11.3527 34.9156-11.4079C34.6566-11.4292 34.3976-11.4079 34.1343-11.4164C34.0324-11.4164 33.9263-11.4334 33.8244-11.4504C33.7012-11.4674 33.5823-11.5056 33.4592-11.5056C33.0176-11.5141 32.5718-11.5056 32.1302-11.5098C32.0452-11.5098 31.9561-11.4844 31.8796-11.5268C31.523-11.7306 31.1705-11.5523 30.8138-11.5311C30.3722-11.5056 29.9222-11.5396 29.4848-11.5565C28.6441-11.5948 27.8076-11.6415 26.9711-11.6839C26.8648-11.685 26.7595-11.6645 26.6611-11.6245C26.3894-11.5268 26.1983-11.6924 26.0964-12.151C26.0046-12.5257 25.9675-12.9121 25.986-13.2975C26.0327-14.2019 26.0157-15.1106 26.0454-16.015C26.0582-16.4396 26.1303-16.8557 26.1558-17.2761C26.1983-17.9215 26.2153-18.5669 26.2535-19.2081C26.2959-19.8238 26.3426-20.4353 26.3936-21.0467C26.4063-21.259 26.4361-21.4671 26.4488-21.6751C26.487-22.4182 26.504-23.1613 26.555-23.9001C26.5974-24.5413 26.6738-25.1782 26.7375-25.8151C26.8394-26.8172 26.9286-27.8236 27.0518-28.8129C27.1579-29.6621 27.3065-30.4986 27.4339-31.3394C27.4466-31.4498 27.4466-31.5687 27.4551-31.6833C27.4764-31.9508 27.4721-32.2353 27.5231-32.4773C27.625-32.9741 27.6377-33.4794 27.6505-33.9932C27.6717-34.5537 27.6929-35.1142 27.7226-35.6747L27.85-38.0101C27.918-39.2754 27.9944-40.5365 28.0411-41.7977C28.0663-42.5199 28.0179-43.2424 27.8967-43.9547C27.8713-44.1245 27.7566-44.2604 27.6717-44.3878C27.5868-44.5152 27.4891-44.6001 27.3999-44.7148C27.2598-44.8973 27.1154-45.012 26.9244-44.9695C26.7882-44.9501 26.6495-44.9801 26.5337-45.0545C25.9499-45.3839 25.3737-45.7264 24.8055-46.082C24.4191-46.3241 24.0412-46.6085 23.6591-46.8803L22.1899-47.9546C22.1474-47.9843 22.105-48.0013 22.071-48.0522C21.7568-48.5193 21.3407-48.6467 20.9882-48.9864C20.4914-49.4535 19.9862-49.8951 19.4894-50.3622C19.311-50.532 19.1284-50.6467 18.9204-50.6339C18.5-50.6127 18.0796-50.5745 17.6593-50.583C17.0384-50.5993 16.4181-50.6347 15.7994-50.6891C15.3324-50.7316 14.8653-50.7613 14.4067-50.8802C13.9694-50.9906 13.5405-51.2072 13.1116-51.377L12.8526-51.4747C12.7125-51.5299 12.5724-51.5766 12.4365-51.6573C12.3346-51.7125 12.3176-51.963 12.4195-52.0819C12.5894-52.2729 12.7634-52.4895 12.9545-52.5829C13.4818-52.8328 14.0234-53.0512 14.5766-53.2368C15.5319-53.5595 16.4788-53.9714 17.4597-54.0818C18.0839-54.1497 18.7038-54.2984 19.328-54.4215C19.5403-54.464 19.7271-54.6338 19.88-54.9056C20.3046-55.6401 20.7335-56.362 21.1623-57.0923C21.9182-58.3832 22.7886-59.4192 23.6973-60.3491C23.9223-60.5784 24.1474-60.8119 24.3809-61.0073C24.5295-61.1346 24.6994-61.1856 24.8522-61.2917C25.4033-61.6688 26.053-61.8755 26.7206-61.8862C26.9966-61.8905 27.2726-61.9202 27.5528-61.9669C28.1715-62.0593 28.8037-61.9569 29.3617-61.6739C29.6122-61.5593 29.8712-61.5041 30.126-61.3894C30.6185-61.1686 31.1026-60.9266 31.5994-60.7015C32.0736-60.4489 32.6035-60.319 33.1407-60.3237C33.2002-60.3279 33.2596-60.3406 33.3233-60.3364C33.8677-60.3402 34.4081-60.4305 34.9241-60.6039C35.1364-60.6633 35.2086-60.5529 35.2893-60.2642C35.4082-59.8523 35.4506-59.4192 35.4634-58.9776C35.4889-58.0987 35.4719-57.2197 35.3742-56.345C35.3275-55.9416 35.2044-55.6401 34.9793-55.483C34.8003-55.3626 34.626-55.2351 34.457-55.1009C34.2999-54.9735 34.2702-54.8589 34.3212-54.5701C34.457-53.8058 34.559-53.0415 34.6184-52.2475C34.6439-51.8653 34.7203-51.4959 34.767-51.118C34.818-50.7019 34.8519-50.2815 34.8986-49.8654C34.9454-49.4577 35.0048-49.0544 35.0473-48.6467C35.1335-47.8326 35.1845-47.0151 35.2001-46.1967C35.2001-44.5874 35.2001-42.9823 35.1916-41.373C35.1916-40.7234 35.1789-40.078 35.1746-39.4283C35.1704-38.9952 35.1789-38.5578 35.1704-38.1247C35.1449-37.1481 35.1067-36.1757 35.077-35.1991L35.0727-35.0845C35.0473-34.214 35.0388-33.3436 35.0006-32.4773C34.9751-31.9593 34.9114-31.4455 34.8647-30.9317C34.8095-30.2609 34.7628-29.59 34.7033-28.9191C34.6566-28.3798 34.5929-27.8405 34.5335-27.297C34.5292-27.2121 34.5122-27.1272 34.5038-27.0423C34.4401-26.3459 34.3764-25.6495 34.3212-24.9489C34.3042-24.7111 34.3212-24.4649 34.3084-24.2271C34.283-23.777 34.249-23.3269 34.2065-22.8768C34.1683-22.4437 34.2278-22.3375 34.4698-22.4225C34.8814-22.5555 35.2625-22.7692 35.5908-23.0509C36.109-23.4967 36.644-23.9001 37.179-24.2823C37.6801-24.6474 38.1896-24.9701 38.6949-25.3013C38.8223-25.3863 38.9497-25.4202 39.0813-25.4797C39.4974-25.675 39.9135-25.8831 40.3339-26.0614C40.6609-26.2015 40.9921-26.3204 41.3233-26.4223C41.6205-26.5073 41.9262-26.5497 42.2277-26.6261C42.4103-26.6686 42.5929-26.6983 42.7669-26.7875C43.1449-26.9871 43.5313-27.0125 43.9134-27.0847C44.2956-27.1527 44.6735-27.2716 45.0514-27.3607C45.2892-27.4159 45.5269-27.4541 45.7647-27.4881C46.0874-27.5433 46.4144-27.5943 46.7413-27.6325C47.0768-27.6749 47.4122-27.6877 47.7519-27.7259L49.9387-27.9807C49.9939-27.9892 50.0491-27.9807 50.1043-27.9807C50.4228-27.9552 50.7412-27.9042 51.0639-27.9849C51.3697-28.0656 51.6839-28.0061 51.9981-28.0189C52.3123-28.0274 52.6265-28.0741 52.9407-28.0613C53.3186-28.0486 53.6923-27.9934 54.0702-27.9467C54.2103-27.9297 54.3547-27.8957 54.4948-27.866L55.8833-27.5688L56.5372-27.4244C56.55-27.4244 56.5581-27.4159 56.5708-27.4202C56.9955-27.5476 57.3949-27.2376 57.8111-27.1951C58.0446-27.1697 58.2781-27.1781 58.5032-27.089C59.1486-26.8342 59.7855-26.5285 60.4225-26.2482C60.7834-26.0911 61.1485-25.9722 61.5052-25.7812C61.985-25.5306 62.4645-25.2461 62.9401-24.9489C63.4114-24.6517 63.8788-24.3162 64.3501-23.9935C64.8469-23.6538 65.3476-23.3141 65.8444-22.9532C66.2818-22.6305 66.7149-22.2738 67.148-21.9257C67.5641-21.5902 67.9845-21.259 68.3964-20.9151C68.58-20.7703 68.7506-20.6097 68.9063-20.4353C69.471-19.7771 70.0697-19.2209 70.5877-18.4481C70.6472-18.3504 70.7445-18.3122 70.8294-18.2782C71.2455-18.1126 71.6663-17.981 72.0781-17.7899C72.4688-17.6158 72.8548-17.4077 73.2327-17.1742C73.4528-17.0267 73.6528-16.8511 73.8276-16.6519C74.2437-16.2018 74.6934-15.8324 75.0713-15.2634C75.3855-14.7836 75.6534-14.2529 75.8317-13.5905C75.8742-13.4376 75.946-13.306 75.9885-13.1489C76.032-13.0119 76.0479-12.8675 76.0352-12.7242C76.0182-12.6393 75.9036-12.5714 75.8271-12.5671C75.3176-12.5332 74.8081-12.5119 74.1584-12.4822L74.1584-12.4822Z"/>
   <path class="monochrome-1 multicolor-1:tintColor hierarchical-1:tertiary SFSymbolsPreviewWireframe" d="M44.3636-80.5865C50.0861-80.5876 55.7528-79.4613 61.04-77.272C66.3271-75.0826 71.1312-71.8729 75.1774-67.8265C79.2239-63.7803 82.4335-58.9764 84.6232-53.6889C86.8124-48.4015 87.9387-42.7349 87.9376-37.0127C87.9376-12.9352 68.432 6.58658 44.3638 6.58658C20.2909 6.58658 0.7645-12.9399 0.7645-37.0127C0.7645-61.0781 20.2877-80.5865 44.3636-80.5865ZM44.3638-78.3365C21.53-78.3365 3.0145-59.8351 3.0145-37.0127C3.0145-14.1825 21.5336 4.33658 44.3638 4.33658C67.1889 4.33658 85.6876-14.1774 85.6876-37.0129C85.6886-42.4398 84.6205-47.8138 82.5443-52.828C80.4678-57.8425 77.4239-62.3983 73.5865-66.2355C69.7491-70.073 65.1932-73.1168 60.1791-75.1931C55.1651-77.2695 49.791-78.3376 44.3638-78.3365Z"/>
  </g>
 </g>
</svg>
