<?xml version="1.0" encoding="UTF-8"?>
<svg width="3300px" height="2200px" viewBox="0 0 3300 2200" version="1.1" xmlns="http://www.w3.org/2000/svg" xmlns:xlink="http://www.w3.org/1999/xlink">
    <!-- Generator: Sketch 59.1 (86144) - https://sketch.com -->
    <title>filter</title>
    <desc>Created with Sketch.</desc>
    <g id="Page-1" stroke="none" stroke-width="1" fill="none" fill-rule="evenodd">
        <g id="filter">
            <g id="Notes">
                <rect id="artboard" fill="#FFFFFF" fill-rule="nonzero" x="0" y="0" width="3300" height="2200"></rect>
                <line x1="263" y1="292" x2="3036" y2="292" id="Path" stroke="#000000" stroke-width="0.5"></line>
                <text id="Weight/Scale-Variations" fill="#000000" font-family="Helvetica-Bold, Helvetica" font-size="13" font-weight="bold">
                    <tspan x="263" y="322">Weight/Scale Variations</tspan>
                </text>
                <text id="Ultralight" fill="#000000" font-family="Helvetica" font-size="13" font-weight="normal">
                    <tspan x="533.711" y="322">Ultralight</tspan>
                </text>
                <text id="Thin" fill="#000000" font-family="Helvetica" font-size="13" font-weight="normal">
                    <tspan x="843.422" y="322">Thin</tspan>
                </text>
                <text id="Light" fill="#000000" font-family="Helvetica" font-size="13" font-weight="normal">
                    <tspan x="1138.63" y="322">Light</tspan>
                </text>
                <text id="Regular" fill="#000000" font-family="Helvetica" font-size="13" font-weight="normal">
                    <tspan x="1426.84" y="322">Regular</tspan>
                </text>
                <text id="Medium" fill="#000000" font-family="Helvetica" font-size="13" font-weight="normal">
                    <tspan x="1723.06" y="322">Medium</tspan>
                </text>
                <text id="Semibold" fill="#000000" font-family="Helvetica" font-size="13" font-weight="normal">
                    <tspan x="2015.77" y="322">Semibold</tspan>
                </text>
                <text id="Bold" fill="#000000" font-family="Helvetica" font-size="13" font-weight="normal">
                    <tspan x="2326.48" y="322">Bold</tspan>
                </text>
                <text id="Heavy" fill="#000000" font-family="Helvetica" font-size="13" font-weight="normal">
                    <tspan x="2618.19" y="322">Heavy</tspan>
                </text>
                <text id="Black" fill="#000000" font-family="Helvetica" font-size="13" font-weight="normal">
                    <tspan x="2917.4" y="322">Black</tspan>
                </text>
                <line x1="263" y1="1903" x2="3036" y2="1903" id="Path" stroke="#000000" stroke-width="0.5"></line>
                <g id="Group" transform="translate(264.000000, 1918.000000)" fill="#000000" fill-rule="nonzero">
                    <path d="M8.24805,15.830078 C12.5547,15.830078 16.1387,12.25586 16.1387,7.94922 C16.1387,3.6426 12.5449,0.0684 8.23828,0.0684 C3.94141,0.0684 0.36719,3.6426 0.36719,7.94922 C0.36719,12.25586 3.95117,15.830078 8.24805,15.830078 Z M8.24805,14.345703 C4.70312,14.345703 1.87109,11.50391 1.87109,7.94922 C1.87109,4.3945 4.69336,1.5527 8.23828,1.5527 C11.793,1.5527 14.6348,4.3945 14.6445503,7.94922 C14.6543,11.50391 11.8027,14.345703 8.24805,14.345703 Z M8.22852,11.57227 C8.69727,11.57227 8.9707,11.25977 8.9707,10.74219 L8.9707,8.68164 L11.1973,8.68164 C11.6953,8.68164 12.0371,8.42773 12.0371,7.95898 C12.0371,7.48047 11.7148,7.2168 11.1973,7.2168 L8.9707,7.2168 L8.9707,4.9902 C8.9707,4.4727 8.69727,4.1504 8.22852,4.1504 C7.75977,4.1504 7.50586,4.4922 7.50586,4.9902 L7.50586,7.2168 L5.29883,7.2168 C4.78125,7.2168 4.44922,7.48047 4.44922,7.95898 C4.44922,8.42773 4.80078,8.68164 5.29883,8.68164 L7.50586,8.68164 L7.50586,10.74219 C7.50586,11.24023 7.75977,11.57227 8.22852,11.57227 Z" id="Shape"></path>
                </g>
                <g id="Group" transform="translate(282.506000, 1915.000000)" fill="#000000" fill-rule="nonzero">
                    <path d="M10.709,20.91016 C16.1582,20.91016 20.6699,16.39844 20.6699,10.94922 C20.6699,5.5098 16.1484,0.9883 10.6992,0.9883 C5.25977,0.9883 0.74805,5.5098 0.74805,10.94922 C0.74805,16.39844 5.26953,20.91016 10.709,20.91016 Z M10.709,19.25 C6.09961,19.25 2.41797,15.55859 2.41797,10.94922 C2.41797,6.3496 6.08984,2.6484 10.6992,2.6484 C15.3086,2.6484 19,6.3496 19.0098379,10.94922 C19.0195,15.55859 15.3184,19.25 10.709,19.25 Z M10.6895,15.58789 C11.207,15.58789 11.5195,15.22656 11.5195,14.66016 L11.5195,11.76953 L14.5762,11.76953 C15.123,11.76953 15.5039,11.48633 15.5039,10.96875 C15.5039,10.44141 15.1426,10.13867 14.5762,10.13867 L11.5195,10.13867 L11.5195,7.0723 C11.5195,6.4961 11.207,6.1445 10.6895,6.1445 C10.1719,6.1445 9.8789,6.5156 9.8789,7.0723 L9.8789,10.13867 L6.83203,10.13867 C6.26562,10.13867 5.89453,10.44141 5.89453,10.96875 C5.89453,11.48633 6.28516,11.76953 6.83203,11.76953 L9.8789,11.76953 L9.8789,14.66016 C9.8789,15.20703 10.1719,15.58789 10.6895,15.58789 Z" id="Shape"></path>
                </g>
                <g id="Group" transform="translate(306.924000, 1913.000000)" fill="#000000" fill-rule="nonzero">
                    <path d="M12.9707,25.67383 C19.9336,25.67383 25.6953,19.921875 25.6953,12.95898 C25.6953,5.9961 19.9238,0.2441 12.9609,0.2441 C6.00781,0.2441 0.25586,5.9961 0.25586,12.95898 C0.25586,19.921875 6.01758,25.67383 12.9707,25.67383 Z M12.9707,23.85742 C6.93555,23.85742 2.08203,18.99414 2.08203,12.95898 C2.08203,6.9238 6.92578,2.0605 12.9609,2.0605 C19.0059,2.0605 23.8594,6.9238 23.8691295,12.95898 C23.8789,18.99414 19.0156,23.85742 12.9707,23.85742 Z M12.9512,18.93555 C13.5176,18.93555 13.8691,18.54492 13.8691,17.93945 L13.8691,13.86719 L18.1074,13.86719 C18.6934,13.86719 19.1133,13.53516 19.1133,12.97852 C19.1133,12.40234 18.7227,12.06055 18.1074,12.06055 L13.8691,12.06055 L13.8691,7.8125 C13.8691,7.1973 13.5176,6.8066 12.9512,6.8066 C12.3848,6.8066 12.0625,7.2168 12.0625,7.8125 L12.0625,12.06055 L7.83398,12.06055 C7.21875,12.06055 6.80859,12.40234 6.80859,12.97852 C6.80859,13.53516 7.23828,13.86719 7.83398,13.86719 L12.0625,13.86719 L12.0625,17.93945 C12.0625,18.52539 12.3848,18.93555 12.9512,18.93555 Z" id="Shape"></path>
                </g>
                <text id="Design-Variations" fill="#000000" font-family="Helvetica-Bold, Helvetica" font-size="13" font-weight="bold">
                    <tspan x="263" y="1953">Design Variations</tspan>
                </text>
                <text id="Symbols-are-supported-in-up-to-nine-weights-and-three-scales." fill="#000000" font-family="Helvetica" font-size="13" font-weight="normal">
                    <tspan x="263" y="1971">Symbols are supported in up to nine weights and three scales.</tspan>
                </text>
                <text id="For-optimal-layout-with-text-and-other-symbols,-vertically-align" fill="#000000" font-family="Helvetica" font-size="13" font-weight="normal">
                    <tspan x="263" y="1989">For optimal layout with text and other symbols, vertically align</tspan>
                </text>
                <text id="symbols-with-the-adjacent-text." fill="#000000" font-family="Helvetica" font-size="13" font-weight="normal">
                    <tspan x="263" y="2007">symbols with the adjacent text.</tspan>
                </text>
                <rect id="Rectangle" fill="#00AEEF" fill-rule="nonzero" opacity="0.4" x="776" y="1919" width="3" height="14"></rect>
                <g id="Group" transform="translate(779.000000, 1918.000000)" fill="#000000" fill-rule="nonzero">
                    <path d="M10.5273,15 L12.373,15 L7.17773,0.9082 L5.43945,0.9082 L0.244141,15 L2.08984,15 L3.50586,10.9668 L9.11133,10.9668 L10.5273,15 Z M6.2793,3.0469 L6.33789,3.0469 L8.59375,9.47266 L4.02344,9.47266 L6.2793,3.0469 Z" id="Shape"></path>
                </g>
                <rect id="Rectangle" fill="#00AEEF" fill-rule="nonzero" opacity="0.4" x="791.617" y="1919" width="3" height="14"></rect>
                <text id="Margins" fill="#000000" font-family="Helvetica-Bold, Helvetica" font-size="13" font-weight="bold">
                    <tspan x="776" y="1953">Margins</tspan>
                </text>
                <text id="Leading-and-trailing-margins-on-the-left-and-right-side-of-each-symbol" fill="#000000" font-family="Helvetica" font-size="13" font-weight="normal">
                    <tspan x="776" y="1971">Leading and trailing margins on the left and right side of each symbol</tspan>
                </text>
                <text id="can-be-adjusted-by-modifying-the-width-of-the-blue-rectangles." fill="#000000" font-family="Helvetica" font-size="13" font-weight="normal">
                    <tspan x="776" y="1989">can be adjusted by modifying the width of the blue rectangles.</tspan>
                </text>
                <text id="Modifications-are-automatically-applied-proportionally-to-all" fill="#000000" font-family="Helvetica" font-size="13" font-weight="normal">
                    <tspan x="776" y="2007">Modifications are automatically applied proportionally to all</tspan>
                </text>
                <text id="scales-and-weights." fill="#000000" font-family="Helvetica" font-size="13" font-weight="normal">
                    <tspan x="776" y="2025">scales and weights.</tspan>
                </text>
                <g id="Group" transform="translate(1291.000000, 1915.000000)" fill="#000000" fill-rule="nonzero">
                    <path d="M0.83203,21.11523 L2.375,22.6582 C3.22461,23.48828 4.19141,23.41992 5.06055,22.46289 L15.2754,11.33984 C15.7051,11.63281 16.0957,11.62305 16.5645,11.52539 L17.6094,11.31055 L18.3027,12.00391 L18.2539,12.52148 C18.1855,13.04883 18.3516,13.46875 18.8496,13.9668 L19.6602,14.77734 C20.168,15.28516 20.8223,15.31445 21.3008,14.83594 L24.5527,11.58398 C25.0312,11.10547 25.0117,10.45117 24.5039,9.94336 L23.6836,9.12305 C23.1855,8.625 22.7754,8.44922 22.2383,8.52734 L21.7109,8.58594 L21.0566,7.9219 L21.3398,6.7793 C21.4863,6.2129 21.3398,5.7441 20.7148,5.1387 L18.3027,2.7461 C14.7578,-0.7793 10.2266,-0.6719 7.11133,2.4629 C6.69141,2.8926 6.64258,3.4785 6.91602,3.9082 C7.15039,4.2793 7.62891,4.5039 8.2734,4.3379 C9.7871,3.957 11.3008,4.0742 12.7852,5.0801 L12.1602,6.6621 C11.9258,7.248 11.9453,7.7266 12.1797,8.16602 L1.01758,18.439453 C0.08008,19.30859 -0.02734,20.25586 0.83203,21.11523 Z M8.6738,2.8535 C11.3398,0.8613 14.6504,1.1738 17.0527,3.5859 L19.6797,6.1934 C19.9141,6.4277 19.9434,6.6133 19.8848,6.9062 L19.5039,8.46875 L21.0762,10.04102 L22.043,9.95312 C22.3262,9.92383 22.4141,9.94336 22.6387,10.16797 L23.2637,10.79297 L20.5098,13.53711 L19.8848,12.92188 C19.6602,12.69727 19.6406,12.59961 19.6699,12.31641 L19.7578,11.35938 L18.1953,9.79688 L16.5742,10.10938 C16.291,10.16797 16.1445,10.16797 15.9102,9.92383 L13.7324,7.7461 C13.5078,7.5117 13.4785,7.375 13.6055,7.0527 L14.5527,4.7773 C12.9512,3.2441 10.8418,2.3945 8.8008,3.0488 C8.7129,3.0781 8.6445,3.0586 8.6152,3.0195 C8.5859,2.9707 8.5859,2.9219 8.6738,2.8535 Z M2.10156,20.41211 C1.61328,19.91406 1.78906,19.61133 2.12109,19.30859 L13.0781,9.19141 L14.3086,10.42188 L4.15234,21.34961 C3.84961,21.68164 3.46875,21.7793 3.06836,21.37891 L2.10156,20.41211 Z" id="Shape"></path>
                </g>
                <text id="Exporting" fill="#000000" font-family="Helvetica-Bold, Helvetica" font-size="13" font-weight="bold">
                    <tspan x="1289" y="1953">Exporting</tspan>
                </text>
                <text id="Symbols-should-be-outlined-when-exporting-to-ensure-the" fill="#000000" font-family="Helvetica" font-size="13" font-weight="normal">
                    <tspan x="1289" y="1971">Symbols should be outlined when exporting to ensure the</tspan>
                </text>
                <text id="design-is-preserved-when-submitting-to-Xcode." fill="#000000" font-family="Helvetica" font-size="13" font-weight="normal">
                    <tspan x="1289" y="1989">design is preserved when submitting to Xcode.</tspan>
                </text>
                <text id="Template-v.1.0" fill="#000000" font-family="Helvetica" font-size="13" font-weight="normal">
                    <tspan x="2952" y="1933">Template v.1.0</tspan>
                </text>
                <text id="Generated-from-circle" fill="#000000" font-family="Helvetica" font-size="13" font-weight="normal">
                    <tspan x="2911" y="1951">Generated from circle</tspan>
                </text>
                <text id="Typeset-at-100-points" fill="#000000" font-family="Helvetica" font-size="13" font-weight="normal">
                    <tspan x="2912" y="1969">Typeset at 100 points</tspan>
                </text>
                <text id="Small" fill="#000000" font-family="Helvetica" font-size="13" font-weight="normal">
                    <tspan x="263" y="726">Small</tspan>
                </text>
                <text id="Medium" fill="#000000" font-family="Helvetica" font-size="13" font-weight="normal">
                    <tspan x="263" y="1156">Medium</tspan>
                </text>
                <text id="Large" fill="#000000" font-family="Helvetica" font-size="13" font-weight="normal">
                    <tspan x="263" y="1586">Large</tspan>
                </text>
            </g>
            <g id="Guides" transform="translate(263.000000, 625.000000)">
                <g id="H-reference" transform="translate(76.000000, 0.000000)" fill="#27AAE1" fill-rule="nonzero">
                    <path d="M54.9316,71 L57.666,71 L30.5664,0.541 L28.0762,0.541 L0.976562,71 L3.66211,71 L12.9395,46.5371 L45.7031,46.5371 L54.9316,71 Z M29.1992,3.9102 L29.4434,3.9102 L44.8242,44.291 L13.8184,44.291 L29.1992,3.9102 Z" id="Shape"></path>
                </g>
                <line x1="0" y1="71" x2="2773" y2="71" id="Baseline-S" stroke="#27AAE1" stroke-width="0.577"></line>
                <line x1="0" y1="0.541" x2="2773" y2="0.541" id="Capline-S" stroke="#27AAE1" stroke-width="0.577"></line>
                <g id="H-reference" transform="translate(76.000000, 430.000000)" fill="#27AAE1" fill-rule="nonzero">
                    <path d="M54.9316,71 L57.666,71 L30.5664,0.541 L28.0762,0.541 L0.976562,71 L3.66211,71 L12.9395,46.5371 L45.7031,46.5371 L54.9316,71 Z M29.1992,3.9102 L29.4434,3.9102 L44.8242,44.291 L13.8184,44.291 L29.1992,3.9102 Z" id="Shape"></path>
                </g>
                <line x1="0" y1="501" x2="2773" y2="501" id="Baseline-M" stroke="#27AAE1" stroke-width="0.577"></line>
                <line x1="0" y1="430.54" x2="2773" y2="430.54" id="Capline-M" stroke="#27AAE1" stroke-width="0.577"></line>
                <g id="H-reference" transform="translate(76.000000, 860.000000)" fill="#27AAE1" fill-rule="nonzero">
                    <path d="M54.9316,71 L57.666,71 L30.5664,0.541 L28.0762,0.541 L0.976562,71 L3.66211,71 L12.9395,46.5371 L45.7031,46.5371 L54.9316,71 Z M29.1992,3.9102 L29.4434,3.9102 L44.8242,44.291 L13.8184,44.291 L29.1992,3.9102 Z" id="Shape"></path>
                </g>
                <line x1="0" y1="931" x2="2773" y2="931" id="Baseline-L" stroke="#27AAE1" stroke-width="0.577"></line>
                <line x1="0" y1="860.54" x2="2773" y2="860.54" id="Capline-L" stroke="#27AAE1" stroke-width="0.577"></line>
                <rect id="left-margin" fill="#00AEEF" fill-rule="nonzero" opacity="0.4" x="1128.3" y="405.79" width="8.74023" height="119.336"></rect>
                <rect id="right-margin" fill="#00AEEF" fill-rule="nonzero" opacity="0.4" x="1236.65" y="405.79" width="8.74023" height="119.336"></rect>
            </g>
            <g id="Symbols" transform="translate(1399.000000, 1040.000000)" fill="#000000" fill-rule="nonzero">
                <g id="Regular-M" transform="translate(0.300000, 0.000000)">
                    <!-- <path d="M50.5449,100.5508 C77.791,100.5508 100.35,77.99219 100.35,50.7461 C100.35,23.5488 77.7422,0.9414 50.4961,0.9414 C23.2988,0.9414 0.74023,23.5488 0.74023,50.7461 C0.74023,77.99219 23.3477,100.5508 50.5449,100.5508 Z M50.1551,92.0078 C27.1082,92.0078 8.7,73.5508 8.7,50.5039 C8.7,27.5058 27.0594,9 50.1063,9 C73.1532,9 91.6102,27.5058 91.6593938,50.5039 C91.7082,73.5508 73.202,92.0078 50.1551,92.0078 Z" id="Shape"></path> -->
                    <path d="M21.708923,27.0465972 L21.7,27.0198286 C21.7044615,26.3595358 21.7669223,26.3059985 22.6369116,26.1855397 C22.8376784,26.1543096 23.0429066,26.1632325 23.2436734,26.1409253 C23.3462875,26.127541 23.4444402,26.0695423 23.5559773,26.0293894 C23.5916691,26.1409253 23.6541299,26.1409253 23.8147433,26.056158 C23.9485878,25.984775 24.1448931,26.0472351 24.309968,26.0383122 C24.7561164,26.0070822 25.2022648,25.9490835 25.6484132,25.9490835 C26.5094795,25.9401606 27.3705459,25.9580064 28.2271508,25.9758521 C28.6108384,25.984775 28.9900645,26.0338508 29.3737521,26.0249279 C29.4719048,26.0249279 29.6057493,25.9089305 29.6548256,25.8107789 C29.8199005,25.4984783 29.953745,25.1727933 30.0965125,24.8471083 C30.2169726,24.5660377 30.3106637,24.2671214 30.4534312,23.9994351 C30.6095831,23.7183645 30.7880425,23.4551397 30.9888093,23.214222 C31.118387,23.0684129 31.2782703,22.9526891 31.4572651,22.8751527 C31.881106,22.6833109 32.304947,22.4736233 32.7510954,22.3531645 C33.3087808,22.1970142 33.8932352,22.103324 34.4687666,22.0096338 C34.647226,21.9784037 34.8435313,22.031941 35.0353751,22.0453253 C35.2138344,22.063171 35.4369086,22.0230181 35.5796761,22.1077854 C36.1864379,22.4647005 36.8735064,22.4200861 37.5204215,22.5494678 C37.819341,22.6074665 38.1227219,22.6476194 38.4261028,22.6877724 C38.8856356,22.7546939 39.3496299,22.7770011 39.8047013,22.8751527 C40.5631535,23.0313031 41.3082213,23.2320678 42.0622121,23.4194482 C42.5931286,23.5488299 43.0482,23.8432848 43.4006572,24.2358913 C43.6907275,24.5945738 43.9198333,24.9985193 44.0788027,25.4315567 C44.1992628,25.7215502 44.3018769,25.9580064 44.5874119,26.1409253 C45.3681715,26.6450678 46.2158535,27.0421358 46.9073835,27.6845829 C47.0858428,27.8541175 47.2598407,28.0370364 47.4293771,28.2199554 C47.6836816,28.4787188 47.9335247,28.7464051 48.1833678,29.0096299 C48.2815205,29.112243 48.3618272,29.2327018 48.4778258,29.3219306 C48.7767452,29.5628482 49.0667416,29.8260731 49.3968914,30.0179149 C49.642273,30.1651423 49.9545769,30.1963724 50.2178044,30.3123698 C50.7174906,30.5354417 51.2082538,30.7808208 51.6900941,31.0440456 C52.002398,31.2091188 52.2879329,31.4188064 52.5823908,31.6151097 C52.6448516,31.6597241 52.6939279,31.7132613 52.7519272,31.7623371 L53.8405293,32.7438535 C53.8539137,32.7616992 53.8762211,32.7884679 53.8940671,32.7840064 C54.197448,32.7527764 54.3848303,32.9847711 54.5766741,33.1409215 C54.8286754,33.3632487 55.0479718,33.6200933 55.2280507,33.9038273 C55.3797412,34.1358221 55.4511249,34.4213541 55.5760465,34.6756561 C55.6295843,34.7916535 55.7678903,34.8898051 55.7812747,35.0013411 C55.8348125,35.5545594 56.1560394,35.9917803 56.3523447,36.4825385 C56.4728047,36.7769934 56.5486499,37.0937555 56.678033,37.3882104 C56.807416,37.6871267 56.9858754,37.9681973 57.1152584,38.2671137 C57.3294096,38.748949 57.5212534,39.2441686 57.7175587,39.7393882 C57.913864,40.2479921 58.1190922,40.756596 58.2930901,41.2785843 C58.4269346,41.693498 58.4893954,42.1351804 58.6277014,42.5500941 C58.7972378,43.0497751 59.0292349,43.5316104 59.2076943,44.0223686 C59.3638462,44.4685124 59.4843063,44.9280405 59.6315352,45.3786457 C59.7519953,45.7400222 59.8858398,46.0969372 60.0107614,46.4583137 L60.5907543,48.2116588 C60.7647521,48.7381085 60.929827,49.2690196 61.1172094,49.7910079 C61.2956687,50.2951504 61.4741281,50.8037543 61.7061252,51.2855896 C61.9559683,51.8165007 62.2638107,52.3117203 62.5448842,52.8292471 C62.6162679,52.9630902 62.6921131,53.0880105 62.7590354,53.2218536 C63.1784149,54.0829112 63.5844099,54.9528916 64.0260968,55.8005648 C64.4900911,56.6928524 64.9942388,57.5583713 65.4716175,58.4372746 C65.7393066,58.9235713 65.9757652,59.4232524 66.2568387,59.9006262 C66.5245277,60.34677 66.8323701,60.7661452 67.1089821,61.2078276 C67.3766711,61.6316642 67.6086683,62.077808 67.8942032,62.4927217 C68.3760435,63.1976289 68.8444993,63.9203818 69.3888003,64.5762132 C69.9063324,65.2008145 70.4729409,65.7852629 71.1421634,66.2581753 C71.5080051,66.5258616 71.8560009,66.8247779 72.1816892,67.1460015 C72.9490644,67.895523 73.6985937,68.6628904 74.4436615,69.4347191 C74.8808869,69.8897858 75.3091893,70.3582368 75.6973384,70.8534564 C76.0096423,71.2416015 76.2728698,71.674361 76.5182514,72.1071205 C76.6388494,72.3325378 76.7131761,72.5797854 76.7368641,72.8343348 C76.7350601,73.0115044 76.6874118,73.1851884 76.5985581,73.3384773 C76.4780981,73.5927793 76.2996387,73.8203126 76.1925631,74.079076 C76.1424475,74.2171897 76.1488606,74.3695005 76.210409,74.5029126 C76.366561,74.7929061 76.5539433,75.0650538 76.7457871,75.3282787 C77.1116288,75.8279597 77.4908549,76.3187179 77.861158,76.8183989 C78.01731,77.0280865 78.155616,77.246697 78.3206909,77.4519231 C78.6106873,77.817761 78.9319142,78.1657532 79.2129876,78.540514 C79.4053754,78.7845563 79.5616418,79.0550146 79.676982,79.3435728 C79.7349812,79.4997231 79.676982,79.7540251 79.5743678,79.8878682 C79.5029841,79.9860199 79.2486795,80.0306343 79.1192965,79.977097 C78.8239188,79.8456881 78.5428514,79.6842255 78.2805375,79.4952617 C77.6302957,79.016163 77.0387869,78.4620972 76.5182514,77.8445297 C76.1301023,77.4162316 75.683954,77.0503937 75.2868819,76.6399414 C75.0325773,76.3722551 74.8318105,76.0510316 74.5864289,75.7833453 C74.3722777,75.5468891 74.144742,75.30151 73.877053,75.1453597 C73.6985937,75.0427466 73.4309046,75.0695153 73.1989075,75.0739767 C72.8553732,75.0828996 72.5073775,75.1676669 72.1727662,75.1275139 C71.7489252,75.0828996 71.3429302,74.9356721 70.9235507,74.8375205 C70.7093995,74.7839832 70.4907868,74.7393688 70.2543282,74.690293 C70.2275593,74.6724473 70.1740215,74.61891 70.1160222,74.6010643 C69.736796,74.476144 69.3531084,74.3690695 68.9783438,74.2307649 C68.1279121,73.9000982 67.3799199,73.3506529 66.8100627,72.6380316 C66.4397595,72.1874263 66.1140712,71.6922067 65.7482295,71.2371401 C65.4493101,70.8579178 65.1191603,70.5054642 64.8113179,70.1351649 C64.6105512,69.8942472 64.4320918,69.6310224 64.2268636,69.3901048 C64.0171738,69.1447257 63.7807152,68.9216538 63.5754869,68.6762747 C63.4862572,68.5736616 63.4416424,68.4308956 63.3524127,68.332744 C63.1694919,68.1275178 63.0445704,67.8464472 62.727805,67.8062943 C62.7054976,67.8018328 62.6698057,67.7706028 62.6698057,67.752757 C62.6608827,67.3824577 62.2995026,67.2307688 62.1790425,66.9184681 C62.0675054,66.6373975 61.7819704,66.4366328 61.5990496,66.1823309 C61.2644383,65.7272642 60.7379832,65.6737269 60.2739889,65.5354224 C59.3995381,65.276659 58.5206258,65.022357 57.7130972,64.5985204 C57.0260287,64.2460668 56.3032683,63.9293047 55.7411214,63.3493178 C55.3543463,62.9503474 54.9509695,62.5678132 54.5320593,62.2027282 C54.2325479,61.9094343 53.8457601,61.7215231 53.4300728,61.6673557 C53.0106933,61.6227413 52.6002368,61.5067439 52.1808573,61.4442838 C51.6722482,61.3773622 51.154716,61.3372093 50.6461069,61.283672 C50.5881076,61.2792106 50.5301083,61.2524419 50.4453401,61.2256733 C50.4141629,61.2480549 50.3829325,61.2703622 50.3516489,61.2925949 C50.2534963,61.1587517 49.4102759,61.0606001 49.2005861,61.1498289 C48.4465954,61.4710524 48.4465954,61.4710524 48.4644413,61.5959727 C48.4109035,61.5959727 48.3439812,61.5647426 48.3082894,61.5870498 C47.8799869,61.8368903 47.4159926,61.7387387 46.9698442,61.7030472 C46.3006217,61.6539714 45.9080111,61.2658263 45.7250903,60.5876877 C45.6626295,60.3556929 45.4217094,60.3378472 45.1450974,60.4449217 C44.8506394,60.5609191 44.5963348,60.7795295 44.3197229,60.9401413 C44.0921872,61.0739844 43.869113,61.2524419 43.6192699,61.3104406 C43.1365538,61.4111214 42.6476924,61.4796806 42.1559032,61.5156668 C41.8748297,61.5424354 41.6606785,61.3327478 41.5759103,61.0962916 C41.4509888,60.7170694 41.1520694,60.6501478 40.8486885,60.5609191 C40.5988454,60.4939975 40.3356178,60.4716903 40.0902362,60.3824615 C39.7645479,60.2620027 39.4567055,60.0880066 39.1354787,59.9497021 C38.7964059,59.7980132 38.4484102,59.6775543 38.1137989,59.521404 C37.4445763,59.2180262 36.7753538,58.9235713 36.1329001,58.5755792 C35.6952315,58.3340766 35.2775042,58.0580811 34.8836846,57.7502132 C34.6739949,57.5940628 34.5312274,57.3576066 34.361691,57.1568419 C33.9780034,56.719621 33.5764699,56.2957844 33.2195512,55.8362563 C32.7555569,55.2384236 32.3272544,54.6138223 31.881106,53.9981438 C31.5464947,53.5341543 31.1940375,53.0746262 30.8861951,52.5883295 C30.6631209,52.2403373 30.4891231,51.8611151 30.3062022,51.4863543 C29.9805139,50.8171386 29.6057493,50.1613072 29.4719048,49.4028628 C29.409444,49.0459477 29.262215,48.6979556 29.1774468,48.3365791 C29.0882172,47.9305882 29.0168334,47.5112131 28.9409882,47.1007608 C28.9052963,46.9133804 28.8517585,46.7304614 28.8294511,46.5386196 C28.7580674,45.9764784 28.7045296,45.4143372 28.6286843,44.8521961 C28.5751465,44.4551281 28.4903783,44.0625215 28.450225,43.6609921 C28.4234561,43.415613 28.4546865,43.1613111 28.459148,42.9070091 C28.459148,42.5322483 28.4546865,42.1485647 28.4680709,41.7738039 C28.4814554,41.3633516 28.5037628,40.9484379 28.5528391,40.542447 C28.579608,40.328298 28.7045296,40.1319947 28.7402214,39.9178457 C28.8294511,39.3690888 28.8963734,38.8158705 28.9722186,38.2626522 C29.0257564,37.8165084 29.0703712,37.3703646 29.132832,36.9242208 C29.1819083,36.5717672 29.2845225,36.2237751 29.2934454,35.8757829 C29.3023041,35.5071901 29.2678637,35.1388316 29.1908313,34.7782692 C29.0703712,34.2116666 28.8606815,33.6629097 28.7669903,33.1007685 C28.6976371,32.6057551 28.6796956,32.1048937 28.7134525,31.6061868 C28.7491444,30.9235868 28.9499112,30.2811397 29.2309847,29.6565384 C29.3202143,29.4557737 29.1863698,29.3085463 28.9454497,29.2103946 C28.5082243,29.0230142 28.0977678,28.7687123 27.6605424,28.6036391 C27.4017763,28.5099489 27.214394,28.2422626 26.8797827,28.2913384 C26.7147078,28.318107 26.522864,28.1708796 26.3444046,28.1128809 C25.9514713,27.9843165 25.5573567,27.8593909 25.1621114,27.7381201 C24.7382705,27.604277 24.3233525,27.4168966 23.8593582,27.4525881 C23.7344366,27.4659724 23.6050536,27.3767436 23.4756706,27.349975 C23.3329031,27.3142835 23.1856741,27.2964377 23.0429066,27.2696691 L21.9186127,27.0599815 L21.708923,27.0376743 L21.708923,27.0465972 Z" id="Path"></path>
                </g>
            </g>
        </g>
    </g>
</svg>