<?xml version="1.0" encoding="UTF-8"?>
<svg width="3300px" height="2200px" viewBox="0 0 3300 2200" version="1.1" xmlns="http://www.w3.org/2000/svg" xmlns:xlink="http://www.w3.org/1999/xlink">
    <!-- Generator: Sketch 59.1 (86144) - https://sketch.com -->
    <title>filter</title>
    <desc>Created with Sketch.</desc>
    <g id="Page-1" stroke="none" stroke-width="1" fill="none" fill-rule="evenodd">
        <g id="filter">
            <g id="Notes">
                <rect id="artboard" fill="#FFFFFF" fill-rule="nonzero" x="0" y="0" width="3300" height="2200"></rect>
                <line x1="263" y1="292" x2="3036" y2="292" id="Path" stroke="#000000" stroke-width="0.5"></line>
                <text id="Weight/Scale-Variations" fill="#000000" font-family="Helvetica-Bold, Helvetica" font-size="13" font-weight="bold">
                    <tspan x="263" y="322">Weight/Scale Variations</tspan>
                </text>
                <text id="Ultralight" fill="#000000" font-family="Helvetica" font-size="13" font-weight="normal">
                    <tspan x="533.711" y="322">Ultralight</tspan>
                </text>
                <text id="Thin" fill="#000000" font-family="Helvetica" font-size="13" font-weight="normal">
                    <tspan x="843.422" y="322">Thin</tspan>
                </text>
                <text id="Light" fill="#000000" font-family="Helvetica" font-size="13" font-weight="normal">
                    <tspan x="1138.63" y="322">Light</tspan>
                </text>
                <text id="Regular" fill="#000000" font-family="Helvetica" font-size="13" font-weight="normal">
                    <tspan x="1426.84" y="322">Regular</tspan>
                </text>
                <text id="Medium" fill="#000000" font-family="Helvetica" font-size="13" font-weight="normal">
                    <tspan x="1723.06" y="322">Medium</tspan>
                </text>
                <text id="Semibold" fill="#000000" font-family="Helvetica" font-size="13" font-weight="normal">
                    <tspan x="2015.77" y="322">Semibold</tspan>
                </text>
                <text id="Bold" fill="#000000" font-family="Helvetica" font-size="13" font-weight="normal">
                    <tspan x="2326.48" y="322">Bold</tspan>
                </text>
                <text id="Heavy" fill="#000000" font-family="Helvetica" font-size="13" font-weight="normal">
                    <tspan x="2618.19" y="322">Heavy</tspan>
                </text>
                <text id="Black" fill="#000000" font-family="Helvetica" font-size="13" font-weight="normal">
                    <tspan x="2917.4" y="322">Black</tspan>
                </text>
                <line x1="263" y1="1903" x2="3036" y2="1903" id="Path" stroke="#000000" stroke-width="0.5"></line>
                <g id="Group" transform="translate(264.000000, 1918.000000)" fill="#000000" fill-rule="nonzero">
                    <path d="M8.24805,15.830078 C12.5547,15.830078 16.1387,12.25586 16.1387,7.94922 C16.1387,3.6426 12.5449,0.0684 8.23828,0.0684 C3.94141,0.0684 0.36719,3.6426 0.36719,7.94922 C0.36719,12.25586 3.95117,15.830078 8.24805,15.830078 Z M8.24805,14.345703 C4.70312,14.345703 1.87109,11.50391 1.87109,7.94922 C1.87109,4.3945 4.69336,1.5527 8.23828,1.5527 C11.793,1.5527 14.6348,4.3945 14.6445503,7.94922 C14.6543,11.50391 11.8027,14.345703 8.24805,14.345703 Z M8.22852,11.57227 C8.69727,11.57227 8.9707,11.25977 8.9707,10.74219 L8.9707,8.68164 L11.1973,8.68164 C11.6953,8.68164 12.0371,8.42773 12.0371,7.95898 C12.0371,7.48047 11.7148,7.2168 11.1973,7.2168 L8.9707,7.2168 L8.9707,4.9902 C8.9707,4.4727 8.69727,4.1504 8.22852,4.1504 C7.75977,4.1504 7.50586,4.4922 7.50586,4.9902 L7.50586,7.2168 L5.29883,7.2168 C4.78125,7.2168 4.44922,7.48047 4.44922,7.95898 C4.44922,8.42773 4.80078,8.68164 5.29883,8.68164 L7.50586,8.68164 L7.50586,10.74219 C7.50586,11.24023 7.75977,11.57227 8.22852,11.57227 Z" id="Shape"></path>
                </g>
                <g id="Group" transform="translate(282.506000, 1915.000000)" fill="#000000" fill-rule="nonzero">
                    <path d="M10.709,20.91016 C16.1582,20.91016 20.6699,16.39844 20.6699,10.94922 C20.6699,5.5098 16.1484,0.9883 10.6992,0.9883 C5.25977,0.9883 0.74805,5.5098 0.74805,10.94922 C0.74805,16.39844 5.26953,20.91016 10.709,20.91016 Z M10.709,19.25 C6.09961,19.25 2.41797,15.55859 2.41797,10.94922 C2.41797,6.3496 6.08984,2.6484 10.6992,2.6484 C15.3086,2.6484 19,6.3496 19.0098379,10.94922 C19.0195,15.55859 15.3184,19.25 10.709,19.25 Z M10.6895,15.58789 C11.207,15.58789 11.5195,15.22656 11.5195,14.66016 L11.5195,11.76953 L14.5762,11.76953 C15.123,11.76953 15.5039,11.48633 15.5039,10.96875 C15.5039,10.44141 15.1426,10.13867 14.5762,10.13867 L11.5195,10.13867 L11.5195,7.0723 C11.5195,6.4961 11.207,6.1445 10.6895,6.1445 C10.1719,6.1445 9.8789,6.5156 9.8789,7.0723 L9.8789,10.13867 L6.83203,10.13867 C6.26562,10.13867 5.89453,10.44141 5.89453,10.96875 C5.89453,11.48633 6.28516,11.76953 6.83203,11.76953 L9.8789,11.76953 L9.8789,14.66016 C9.8789,15.20703 10.1719,15.58789 10.6895,15.58789 Z" id="Shape"></path>
                </g>
                <g id="Group" transform="translate(306.924000, 1913.000000)" fill="#000000" fill-rule="nonzero">
                    <path d="M12.9707,25.67383 C19.9336,25.67383 25.6953,19.921875 25.6953,12.95898 C25.6953,5.9961 19.9238,0.2441 12.9609,0.2441 C6.00781,0.2441 0.25586,5.9961 0.25586,12.95898 C0.25586,19.921875 6.01758,25.67383 12.9707,25.67383 Z M12.9707,23.85742 C6.93555,23.85742 2.08203,18.99414 2.08203,12.95898 C2.08203,6.9238 6.92578,2.0605 12.9609,2.0605 C19.0059,2.0605 23.8594,6.9238 23.8691295,12.95898 C23.8789,18.99414 19.0156,23.85742 12.9707,23.85742 Z M12.9512,18.93555 C13.5176,18.93555 13.8691,18.54492 13.8691,17.93945 L13.8691,13.86719 L18.1074,13.86719 C18.6934,13.86719 19.1133,13.53516 19.1133,12.97852 C19.1133,12.40234 18.7227,12.06055 18.1074,12.06055 L13.8691,12.06055 L13.8691,7.8125 C13.8691,7.1973 13.5176,6.8066 12.9512,6.8066 C12.3848,6.8066 12.0625,7.2168 12.0625,7.8125 L12.0625,12.06055 L7.83398,12.06055 C7.21875,12.06055 6.80859,12.40234 6.80859,12.97852 C6.80859,13.53516 7.23828,13.86719 7.83398,13.86719 L12.0625,13.86719 L12.0625,17.93945 C12.0625,18.52539 12.3848,18.93555 12.9512,18.93555 Z" id="Shape"></path>
                </g>
                <text id="Design-Variations" fill="#000000" font-family="Helvetica-Bold, Helvetica" font-size="13" font-weight="bold">
                    <tspan x="263" y="1953">Design Variations</tspan>
                </text>
                <text id="Symbols-are-supported-in-up-to-nine-weights-and-three-scales." fill="#000000" font-family="Helvetica" font-size="13" font-weight="normal">
                    <tspan x="263" y="1971">Symbols are supported in up to nine weights and three scales.</tspan>
                </text>
                <text id="For-optimal-layout-with-text-and-other-symbols,-vertically-align" fill="#000000" font-family="Helvetica" font-size="13" font-weight="normal">
                    <tspan x="263" y="1989">For optimal layout with text and other symbols, vertically align</tspan>
                </text>
                <text id="symbols-with-the-adjacent-text." fill="#000000" font-family="Helvetica" font-size="13" font-weight="normal">
                    <tspan x="263" y="2007">symbols with the adjacent text.</tspan>
                </text>
                <rect id="Rectangle" fill="#00AEEF" fill-rule="nonzero" opacity="0.4" x="776" y="1919" width="3" height="14"></rect>
                <g id="Group" transform="translate(779.000000, 1918.000000)" fill="#000000" fill-rule="nonzero">
                    <path d="M10.5273,15 L12.373,15 L7.17773,0.9082 L5.43945,0.9082 L0.244141,15 L2.08984,15 L3.50586,10.9668 L9.11133,10.9668 L10.5273,15 Z M6.2793,3.0469 L6.33789,3.0469 L8.59375,9.47266 L4.02344,9.47266 L6.2793,3.0469 Z" id="Shape"></path>
                </g>
                <rect id="Rectangle" fill="#00AEEF" fill-rule="nonzero" opacity="0.4" x="791.617" y="1919" width="3" height="14"></rect>
                <text id="Margins" fill="#000000" font-family="Helvetica-Bold, Helvetica" font-size="13" font-weight="bold">
                    <tspan x="776" y="1953">Margins</tspan>
                </text>
                <text id="Leading-and-trailing-margins-on-the-left-and-right-side-of-each-symbol" fill="#000000" font-family="Helvetica" font-size="13" font-weight="normal">
                    <tspan x="776" y="1971">Leading and trailing margins on the left and right side of each symbol</tspan>
                </text>
                <text id="can-be-adjusted-by-modifying-the-width-of-the-blue-rectangles." fill="#000000" font-family="Helvetica" font-size="13" font-weight="normal">
                    <tspan x="776" y="1989">can be adjusted by modifying the width of the blue rectangles.</tspan>
                </text>
                <text id="Modifications-are-automatically-applied-proportionally-to-all" fill="#000000" font-family="Helvetica" font-size="13" font-weight="normal">
                    <tspan x="776" y="2007">Modifications are automatically applied proportionally to all</tspan>
                </text>
                <text id="scales-and-weights." fill="#000000" font-family="Helvetica" font-size="13" font-weight="normal">
                    <tspan x="776" y="2025">scales and weights.</tspan>
                </text>
                <g id="Group" transform="translate(1291.000000, 1915.000000)" fill="#000000" fill-rule="nonzero">
                    <path d="M0.83203,21.11523 L2.375,22.6582 C3.22461,23.48828 4.19141,23.41992 5.06055,22.46289 L15.2754,11.33984 C15.7051,11.63281 16.0957,11.62305 16.5645,11.52539 L17.6094,11.31055 L18.3027,12.00391 L18.2539,12.52148 C18.1855,13.04883 18.3516,13.46875 18.8496,13.9668 L19.6602,14.77734 C20.168,15.28516 20.8223,15.31445 21.3008,14.83594 L24.5527,11.58398 C25.0312,11.10547 25.0117,10.45117 24.5039,9.94336 L23.6836,9.12305 C23.1855,8.625 22.7754,8.44922 22.2383,8.52734 L21.7109,8.58594 L21.0566,7.9219 L21.3398,6.7793 C21.4863,6.2129 21.3398,5.7441 20.7148,5.1387 L18.3027,2.7461 C14.7578,-0.7793 10.2266,-0.6719 7.11133,2.4629 C6.69141,2.8926 6.64258,3.4785 6.91602,3.9082 C7.15039,4.2793 7.62891,4.5039 8.2734,4.3379 C9.7871,3.957 11.3008,4.0742 12.7852,5.0801 L12.1602,6.6621 C11.9258,7.248 11.9453,7.7266 12.1797,8.16602 L1.01758,18.439453 C0.08008,19.30859 -0.02734,20.25586 0.83203,21.11523 Z M8.6738,2.8535 C11.3398,0.8613 14.6504,1.1738 17.0527,3.5859 L19.6797,6.1934 C19.9141,6.4277 19.9434,6.6133 19.8848,6.9062 L19.5039,8.46875 L21.0762,10.04102 L22.043,9.95312 C22.3262,9.92383 22.4141,9.94336 22.6387,10.16797 L23.2637,10.79297 L20.5098,13.53711 L19.8848,12.92188 C19.6602,12.69727 19.6406,12.59961 19.6699,12.31641 L19.7578,11.35938 L18.1953,9.79688 L16.5742,10.10938 C16.291,10.16797 16.1445,10.16797 15.9102,9.92383 L13.7324,7.7461 C13.5078,7.5117 13.4785,7.375 13.6055,7.0527 L14.5527,4.7773 C12.9512,3.2441 10.8418,2.3945 8.8008,3.0488 C8.7129,3.0781 8.6445,3.0586 8.6152,3.0195 C8.5859,2.9707 8.5859,2.9219 8.6738,2.8535 Z M2.10156,20.41211 C1.61328,19.91406 1.78906,19.61133 2.12109,19.30859 L13.0781,9.19141 L14.3086,10.42188 L4.15234,21.34961 C3.84961,21.68164 3.46875,21.7793 3.06836,21.37891 L2.10156,20.41211 Z" id="Shape"></path>
                </g>
                <text id="Exporting" fill="#000000" font-family="Helvetica-Bold, Helvetica" font-size="13" font-weight="bold">
                    <tspan x="1289" y="1953">Exporting</tspan>
                </text>
                <text id="Symbols-should-be-outlined-when-exporting-to-ensure-the" fill="#000000" font-family="Helvetica" font-size="13" font-weight="normal">
                    <tspan x="1289" y="1971">Symbols should be outlined when exporting to ensure the</tspan>
                </text>
                <text id="design-is-preserved-when-submitting-to-Xcode." fill="#000000" font-family="Helvetica" font-size="13" font-weight="normal">
                    <tspan x="1289" y="1989">design is preserved when submitting to Xcode.</tspan>
                </text>
                <text id="Template-v.1.0" fill="#000000" font-family="Helvetica" font-size="13" font-weight="normal">
                    <tspan x="2952" y="1933">Template v.1.0</tspan>
                </text>
                <text id="Generated-from-circle" fill="#000000" font-family="Helvetica" font-size="13" font-weight="normal">
                    <tspan x="2911" y="1951">Generated from circle</tspan>
                </text>
                <text id="Typeset-at-100-points" fill="#000000" font-family="Helvetica" font-size="13" font-weight="normal">
                    <tspan x="2912" y="1969">Typeset at 100 points</tspan>
                </text>
                <text id="Small" fill="#000000" font-family="Helvetica" font-size="13" font-weight="normal">
                    <tspan x="263" y="726">Small</tspan>
                </text>
                <text id="Medium" fill="#000000" font-family="Helvetica" font-size="13" font-weight="normal">
                    <tspan x="263" y="1156">Medium</tspan>
                </text>
                <text id="Large" fill="#000000" font-family="Helvetica" font-size="13" font-weight="normal">
                    <tspan x="263" y="1586">Large</tspan>
                </text>
            </g>
            <g id="Guides" transform="translate(263.000000, 625.000000)">
                <g id="H-reference" transform="translate(76.000000, 0.000000)" fill="#27AAE1" fill-rule="nonzero">
                    <path d="M54.9316,71 L57.666,71 L30.5664,0.541 L28.0762,0.541 L0.976562,71 L3.66211,71 L12.9395,46.5371 L45.7031,46.5371 L54.9316,71 Z M29.1992,3.9102 L29.4434,3.9102 L44.8242,44.291 L13.8184,44.291 L29.1992,3.9102 Z" id="Shape"></path>
                </g>
                <line x1="0" y1="71" x2="2773" y2="71" id="Baseline-S" stroke="#27AAE1" stroke-width="0.577"></line>
                <line x1="0" y1="0.541" x2="2773" y2="0.541" id="Capline-S" stroke="#27AAE1" stroke-width="0.577"></line>
                <g id="H-reference" transform="translate(76.000000, 430.000000)" fill="#27AAE1" fill-rule="nonzero">
                    <path d="M54.9316,71 L57.666,71 L30.5664,0.541 L28.0762,0.541 L0.976562,71 L3.66211,71 L12.9395,46.5371 L45.7031,46.5371 L54.9316,71 Z M29.1992,3.9102 L29.4434,3.9102 L44.8242,44.291 L13.8184,44.291 L29.1992,3.9102 Z" id="Shape"></path>
                </g>
                <line x1="0" y1="501" x2="2773" y2="501" id="Baseline-M" stroke="#27AAE1" stroke-width="0.577"></line>
                <line x1="0" y1="430.54" x2="2773" y2="430.54" id="Capline-M" stroke="#27AAE1" stroke-width="0.577"></line>
                <g id="H-reference" transform="translate(76.000000, 860.000000)" fill="#27AAE1" fill-rule="nonzero">
                    <path d="M54.9316,71 L57.666,71 L30.5664,0.541 L28.0762,0.541 L0.976562,71 L3.66211,71 L12.9395,46.5371 L45.7031,46.5371 L54.9316,71 Z M29.1992,3.9102 L29.4434,3.9102 L44.8242,44.291 L13.8184,44.291 L29.1992,3.9102 Z" id="Shape"></path>
                </g>
                <line x1="0" y1="931" x2="2773" y2="931" id="Baseline-L" stroke="#27AAE1" stroke-width="0.577"></line>
                <line x1="0" y1="860.54" x2="2773" y2="860.54" id="Capline-L" stroke="#27AAE1" stroke-width="0.577"></line>
                <rect id="left-margin" fill="#00AEEF" fill-rule="nonzero" opacity="0.4" x="1128.3" y="405.79" width="8.74023" height="119.336"></rect>
                <rect id="right-margin" fill="#00AEEF" fill-rule="nonzero" opacity="0.4" x="1236.65" y="405.79" width="8.74023" height="119.336"></rect>
            </g>
            <g id="Symbols" transform="translate(1399.000000, 1040.000000)" fill="#000000" fill-rule="nonzero">
                <g id="Regular-M" transform="translate(0.300000, 0.000000)">
                    <path d="M50.5449,100.5508 C77.791,100.5508 100.35,77.99219 100.35,50.7461 C100.35,23.5488 77.7422,0.9414 50.4961,0.9414 C23.2988,0.9414 0.74023,23.5488 0.74023,50.7461 C0.74023,77.99219 23.3477,100.5508 50.5449,100.5508 Z M50.1551,92.0078 C27.1082,92.0078 8.7,73.5508 8.7,50.5039 C8.7,27.5058 27.0594,9 50.1063,9 C73.1532,9 91.6102,27.5058 91.6593938,50.5039 C91.7082,73.5508 73.202,92.0078 50.1551,92.0078 Z" id="Shape"></path>
                    <path d="M40.4164937,75.3602671 C40.3201244,75.3699592 40.233392,75.3941894 40.1370227,75.3941894 C40.0840196,75.3941894 40.0310165,75.3602671 39.973195,75.3408829 C39.9828319,75.2245778 39.9780134,75.0888885 40.0069242,74.9968136 C40.1177489,74.6478983 40.2767582,74.4492104 40.4984076,74.4734406 C40.8212447,74.512209 41.1392633,74.5364392 41.4621004,74.5558234 C41.5584697,74.5606694 41.6452021,74.5412852 41.7512083,74.410442 C41.6066543,74.308675 41.4524635,74.2456764 41.3320019,74.0906029 C41.2452695,73.9791439 41.1970849,73.7416876 41.1344448,73.5575379 C41.2259957,73.4848472 41.3175465,73.3540039 41.4090973,73.3540039 C41.7753006,73.363696 42.1415039,73.4121565 42.5173441,73.4509248 L42.1752331,72.2830277 C41.985439,71.5298551 41.5429075,70.8656817 40.9224324,70.4027617 C40.7393308,70.2622264 40.5851399,69.9472334 40.4068567,69.7727757 C40.1225674,69.5110892 39.8238226,69.3366316 39.5395332,69.0749451 C39.2793361,68.8326428 39.0384129,68.5321879 38.7830343,68.2608093 C38.4601972,67.911894 38.1373601,67.5775168 37.8193414,67.2189094 C37.366817,66.7054087 36.9218635,66.1852096 36.4846269,65.6584825 C35.8485896,64.8976532 35.2029154,64.1562081 34.5909704,63.3323803 C33.9805155,62.4937493 33.4018845,61.63215 32.8563233,60.7494376 C32.4033876,60.0176846 31.9215412,59.3004698 31.545701,58.4233354 C31.0638546,57.2845145 30.6591036,56.0003123 30.2447157,54.7597244 C29.933049,53.8316422 29.6438558,52.8960791 29.3773921,51.9538637 C28.991915,50.5969707 28.5919824,49.2497699 28.2739638,47.8347243 C28.0812252,46.9769742 28.0523144,45.9883807 27.9029421,45.0821701 C27.6775144,43.576642 27.609685,42.0514897 27.7005666,40.5317326 C27.7342958,39.7902876 27.7342958,39.0439964 27.7872989,38.3025514 C27.8354836,37.5998747 27.9222159,36.897198 28.0282221,36.2139054 C28.1007237,35.6530915 28.0379205,35.0829653 27.8451205,34.5517116 C27.6392477,33.7828772 27.2275864,33.0855841 26.6549598,32.5357563 C26.2983935,32.2013791 25.8743686,32.1286884 25.484073,31.9445387 C25.0359558,31.7264666 24.5782017,31.5520089 24.134903,31.2757843 C23.9102654,31.1065321 23.7558037,30.8597049 23.7012412,30.5827997 C23.6893836,30.2685732 23.7626663,29.9570138 23.9132537,29.6814351 C24.5011063,28.7025337 25.1660544,27.999857 25.9273717,27.5830971 C26.2164796,27.4231775 26.5730459,27.369871 26.7561476,26.739885 C26.7657845,26.7011166 26.8043322,26.6768864 26.833243,26.6671943 C27.2909971,26.5024287 27.507828,25.8433665 27.6523819,25.0970753 C27.9270344,23.6820298 28.4329731,22.7370508 29.1123766,22.0489122 C29.5749491,21.5788458 30.0037925,20.977936 30.4615466,20.5078695 C30.9096637,20.0523412 31.3529624,19.6065049 31.8974489,19.6355812 C32.2732891,19.6549654 32.6443109,19.3448184 33.0249695,19.2624356 C33.6031852,19.1412845 34.1862194,19.0782859 34.7692536,19.0104412 C35.0246322,18.986211 35.2800108,19.0104412 35.5402079,19.0201333 C36.2485221,19.0443636 36.8845594,19.5338142 37.5157782,20.1008016 C38.3060063,20.8083244 38.8986774,21.9616834 39.5202593,23.066582 C40.368309,24.5688563 40.9657986,26.3861236 41.447645,28.3826947 C41.5921989,28.9739123 41.7656637,29.5360537 41.9294914,30.1030411 C41.9567193,30.1810626 42.0071949,30.2487485 42.0740454,30.296883 C42.8931843,30.9656373 43.7315971,31.5956234 44.5459175,32.3031461 C45.3024164,32.9622084 46.0540968,33.6600391 46.7913219,34.4160223 C47.4225407,35.0557004 48.0344856,35.7826073 48.6464306,36.485284 C48.9981785,36.8923519 49.3740187,37.2558054 49.6872189,37.7597942 C50.3377115,38.8162323 50.954475,39.940515 51.5760568,41.0647977 C51.9133493,41.6657075 52.2410049,42.2860014 52.5445682,42.9402176 C52.8047652,43.4926669 52.9975038,44.1614213 53.2721563,44.6847943 C53.6383595,45.3777789 54.0623844,45.9641505 54.4478615,46.6232128 C54.7176955,47.0884332 54.9586187,47.6069602 55.2188158,48.0915648 C55.4693759,48.5664773 55.729573,49.0268517 55.9849516,49.4969182 L57.1799307,51.7357916 C57.5943187,52.511159 57.9990697,53.3204487 58.4230945,54.0667398 C58.957944,55.0020268 59.5120674,55.8936993 60.0613724,56.7950639 C60.6733173,57.8030415 61.2852623,58.8158652 61.9116626,59.7899205 C62.1525858,60.1776042 62.4561491,60.4295986 62.7067092,60.8124362 C62.8464447,61.0305083 62.8994478,61.4472683 63.0440017,61.6653404 C63.2463772,61.9803334 63.472845,62.2662501 63.7137683,62.4407078 C64.291984,62.8574677 64.8701997,63.3129961 65.4773262,63.5504523 C66.171185,63.826677 66.7301269,64.6408128 67.3902565,65.0672648 C67.9058321,65.4064881 68.402134,65.8571704 68.9032542,66.2593922 C69.4525592,66.6955364 70.011501,67.1122963 70.551169,67.5920549 C71.1775694,68.1493502 71.7798774,68.7987204 72.4062777,69.3560158 C72.8495764,69.7533915 73.3217859,70.0199241 73.7650846,70.4221459 C74.4589435,71.0666701 75.1913501,71.5997352 75.7888396,72.6028667 L76.4971539,73.8095323 C76.8055356,74.3377513 76.7573509,75.0937345 76.3863292,75.457188 C76.3290978,75.5191186 76.262407,75.5714679 76.1887722,75.6122615 C75.9623043,75.7237205 75.8322058,75.873948 75.9478489,76.4263972 C76.0391005,76.8004231 75.9336462,77.1953975 75.668378,77.4731432 C75.4515471,77.6766772 75.3648148,78.0159004 75.3262671,78.4229683 C75.1817131,79.8477059 74.7191406,80.8266072 74.1409249,81.6310509 C73.8759093,81.9993504 73.6012569,81.7279718 73.3362413,81.53413 C72.8833057,81.1949068 72.4207331,80.904144 71.972616,80.5503826 C71.4907695,80.177237 71.028197,79.755631 70.5559875,79.3534092 C70.4130276,79.2364136 70.2778225,79.1101474 70.1512365,78.9754176 C69.4862884,78.2388185 68.8261588,77.4634511 68.1515738,76.7559284 C67.4528965,76.0290214 66.7349453,75.3796512 66.0314495,74.6575904 C65.2942245,73.891915 64.5810918,73.0244728 63.8294114,72.3072579 C63.4184052,71.885494 62.9078109,71.5753831 62.3453244,71.4058933 C61.7719272,71.2605119 61.2756253,71.6966561 60.7407758,71.7693468 C59.912,71.8856519 59.0976795,71.9777268 58.2689037,71.5609668 C57.7099618,71.2750501 57.1124722,71.2944343 56.5342565,71.1781291 C55.8596715,71.0472859 55.1947235,70.8389059 54.524957,70.8098296 C54.0816582,70.7904454 53.6094487,70.6062957 53.175787,71.1005924 C53.0697808,71.2362817 52.9155899,71.2120515 52.7806729,71.2798961 C51.9415034,71.7258731 50.9789339,71.879266 50.0437852,71.7160403 C49.5860311,71.6481956 49.1764617,71.9195742 48.8391692,72.5640984 C48.7813476,72.6852495 48.6801598,72.7240179 48.5982459,72.8160928 C48.4392366,73.0099346 48.2609534,73.1940844 48.1163995,73.4315407 C47.7116485,74.0809109 47.3261714,74.7593573 46.9310573,75.4184196 C46.772048,75.6801061 46.8250511,75.8933322 46.9840604,75.9660228 C47.3165345,76.1210963 47.6586454,76.1598647 47.9911194,76.3294763 C48.2802273,76.4845498 48.5596982,76.7656205 48.8488061,76.9691544 C48.9451754,77.0418451 49.056,77.0660753 49.1620063,77.1242279 C49.4511141,77.2841474 49.7498589,77.448913 50.0389667,77.6233707 C50.0871514,77.6476009 50.1256991,77.7348297 50.1738837,77.7832902 C50.3377115,77.9674399 50.5015393,78.1903581 50.6798225,78.3212013 C50.9303826,78.5053511 51.0749366,79.0287241 50.9641119,79.5181747 C50.9496565,79.5763273 50.7906472,79.5714813 50.7231887,79.5036366 C50.6460932,79.4260999 50.5979086,79.2419501 50.5304501,79.1062608 C50.1931576,78.3793539 49.7354035,78.4278143 49.2921048,78.3793539 C48.6175198,78.3018171 47.9332979,78.3357395 47.2635313,78.1564358 C46.6853156,78.0013623 46.1215553,77.5749102 45.5481581,77.3423 C45.1144963,77.1726884 44.6711976,77.1290739 44.2327173,77.032153 C43.7364155,76.92554 43.2401137,76.7946968 42.7389934,76.7316982 C42.5944395,76.712314 42.4354302,76.8722335 42.2860578,76.9546163 C42.0788638,77.0660753 41.8716699,77.1678423 41.6741128,77.3035316 C41.4235527,77.4779893 41.1826295,77.7105995 40.9320693,77.870519 C40.7393308,78.0013623 40.5273183,78.0255925 40.3345798,78.1612818 C40.2189366,78.2436646 40.1273858,78.4520446 40.0261981,78.597426 C40.1370227,78.7331153 40.243029,78.9463413 40.3634906,78.9851097 C40.8164262,79.130491 41.2789988,79.1692594 41.7271159,79.3437171 C42.0779085,79.4910827 42.3982168,79.7031046 42.6715349,79.9688571 C42.9394246,80.226352 43.2936504,80.3733498 43.6641386,80.380771 C44.0496157,80.4001552 44.3049943,80.9138361 44.2423543,81.6310509 C44.2237213,81.7620738 44.1741538,81.8867019 44.0978003,81.9945044 C44.0785265,82.0235807 43.9773387,81.9315058 43.9580649,81.853969 C43.7075047,80.8459914 43.2063845,81.2724435 42.8209073,81.1658305 C42.0210423,80.9526044 41.2115403,80.8799137 40.4068567,80.7733007 C40.1803889,80.7393784 39.9539211,80.8120691 39.7274533,80.7781468 C39.226333,80.7103021 38.7252127,80.6036891 38.2289109,80.5164603 C38.0891754,80.49223 37.9542584,80.4970761 37.8193414,80.4679998 C36.9667696,80.2800227 36.1154877,80.0861763 35.2655554,79.8864743 C34.908989,79.7992454 34.5572412,79.644172 34.1958563,79.6005575 C34.0513024,79.5811734 33.8922931,79.7604771 33.7621946,79.9349347 C33.6513699,80.0124715 33.5212713,80.2063133 33.4393575,80.1433147 C33.2321635,79.9785491 33.2128896,79.6199417 33.3526251,79.2904106 C33.4232556,79.1226879 33.5245958,78.9698076 33.6513699,78.8397283 C33.8103792,78.6798087 33.9790255,78.5731957 34.1814009,78.4084302 C33.9356593,78.1370516 33.7381022,78.0401306 33.4779052,78.1176674 C33.0249695,78.2436646 32.562397,78.2436646 32.1046429,78.2485106 C31.950452,78.2485106 31.9070858,77.8123665 32.0468213,77.6088325 C32.1857523,77.3829685 32.3694599,77.1883115 32.5864893,77.0369991 C33.3146521,76.5762628 34.1651731,76.3497367 35.0246322,76.3876289 C35.1836415,76.397321 35.3378324,76.5475484 35.4968417,76.605701 C35.7377649,76.6977758 35.9786881,76.7656205 36.267796,76.8625414 C36.1473344,76.5911628 36.0750574,76.3537065 35.9642327,76.2034791 C35.6751249,75.7867191 35.386017,75.3214987 35.0631799,75.0501201 C34.8656229,74.8853545 34.5909704,75.0210438 34.3500472,75.0695043 C34.2006748,75.0985806 34.0561209,75.253654 33.9067485,75.2730382 C33.83929,75.2827303 33.7429207,75.1082727 33.7140099,74.9774294 C33.6899176,74.8853545 33.7381022,74.6430522 33.7911053,74.5945918 C34.306681,74.0906029 34.8174382,73.4896932 35.4293832,74.0809109 C35.4920232,74.1439095 35.5739371,74.1632936 35.6510325,74.1875239 C36.3882576,74.4298262 37.0242948,75.0549662 37.5687813,76.0484056 C37.7365703,76.3904462 37.9766729,76.6914655 38.2722771,76.930386 C38.416831,77.027307 38.6336619,76.7995428 38.8119451,76.6880837 C39.2841546,76.3730907 39.7563641,76.0387135 40.2285736,75.7091824 C40.3008505,75.6607219 40.3634906,75.5831852 40.4309491,75.5153405 L40.4164937,75.355421 L40.4164937,75.3602671 Z M42.7020325,77 C42.9520325,76.8900046 43.1720325,76.7800093 43.3970325,76.7000126 C43.8420325,76.52502 44.3120325,76.4600227 44.7220325,76.1800345 C45.0770325,75.9350448 45.3720325,75.480064 45.6770325,75.0800808 C46.3320325,74.2151173 46.9770325,73.3351543 47.6170325,72.4551914 C47.6755138,72.3665108 47.7035905,72.2612276 47.6970325,72.155204 C47.6820325,72.0802072 47.5770325,71.9952107 47.5120325,72.0002105 C47.0320325,72.0402088 46.5520325,72.1152057 46.0770325,72.1502042 C45.4770325,72.1852027 44.8870325,72.2502 44.2970325,72.1902025 C43.7970325,72.1402046 43.0020325,73.0051682 43.0720325,73.7501368 C43.1720325,74.8000926 43.0370325,75.7500526 42.7470325,76.6800135 C42.7170325,76.7800093 42.7170325,76.905004 42.7020325,77 L42.7020325,77 Z" id="Shape"></path>
                </g>
            </g>
        </g>
    </g>
</svg>