<?xml version="1.0" encoding="UTF-8"?>
<svg width="3300px" height="2200px" viewBox="0 0 3300 2200" version="1.1" xmlns="http://www.w3.org/2000/svg" xmlns:xlink="http://www.w3.org/1999/xlink">
    <!-- Generator: Sketch 59.1 (86144) - https://sketch.com -->
    <title>filter</title>
    <desc>Created with Sketch.</desc>
    <g id="Page-1" stroke="none" stroke-width="1" fill="none" fill-rule="evenodd">
        <g id="filter">
            <g id="Notes">
                <rect id="artboard" fill="#FFFFFF" fill-rule="nonzero" x="0" y="0" width="3300" height="2200"></rect>
                <line x1="263" y1="292" x2="3036" y2="292" id="Path" stroke="#000000" stroke-width="0.5"></line>
                <text id="Weight/Scale-Variations" fill="#000000" font-family="Helvetica-Bold, Helvetica" font-size="13" font-weight="bold">
                    <tspan x="263" y="322">Weight/Scale Variations</tspan>
                </text>
                <text id="Ultralight" fill="#000000" font-family="Helvetica" font-size="13" font-weight="normal">
                    <tspan x="533.711" y="322">Ultralight</tspan>
                </text>
                <text id="Thin" fill="#000000" font-family="Helvetica" font-size="13" font-weight="normal">
                    <tspan x="843.422" y="322">Thin</tspan>
                </text>
                <text id="Light" fill="#000000" font-family="Helvetica" font-size="13" font-weight="normal">
                    <tspan x="1138.63" y="322">Light</tspan>
                </text>
                <text id="Regular" fill="#000000" font-family="Helvetica" font-size="13" font-weight="normal">
                    <tspan x="1426.84" y="322">Regular</tspan>
                </text>
                <text id="Medium" fill="#000000" font-family="Helvetica" font-size="13" font-weight="normal">
                    <tspan x="1723.06" y="322">Medium</tspan>
                </text>
                <text id="Semibold" fill="#000000" font-family="Helvetica" font-size="13" font-weight="normal">
                    <tspan x="2015.77" y="322">Semibold</tspan>
                </text>
                <text id="Bold" fill="#000000" font-family="Helvetica" font-size="13" font-weight="normal">
                    <tspan x="2326.48" y="322">Bold</tspan>
                </text>
                <text id="Heavy" fill="#000000" font-family="Helvetica" font-size="13" font-weight="normal">
                    <tspan x="2618.19" y="322">Heavy</tspan>
                </text>
                <text id="Black" fill="#000000" font-family="Helvetica" font-size="13" font-weight="normal">
                    <tspan x="2917.4" y="322">Black</tspan>
                </text>
                <line x1="263" y1="1903" x2="3036" y2="1903" id="Path" stroke="#000000" stroke-width="0.5"></line>
                <g id="Group" transform="translate(264.000000, 1918.000000)" fill="#000000" fill-rule="nonzero">
                    <path d="M8.24805,15.830078 C12.5547,15.830078 16.1387,12.25586 16.1387,7.94922 C16.1387,3.6426 12.5449,0.0684 8.23828,0.0684 C3.94141,0.0684 0.36719,3.6426 0.36719,7.94922 C0.36719,12.25586 3.95117,15.830078 8.24805,15.830078 Z M8.24805,14.345703 C4.70312,14.345703 1.87109,11.50391 1.87109,7.94922 C1.87109,4.3945 4.69336,1.5527 8.23828,1.5527 C11.793,1.5527 14.6348,4.3945 14.6445503,7.94922 C14.6543,11.50391 11.8027,14.345703 8.24805,14.345703 Z M8.22852,11.57227 C8.69727,11.57227 8.9707,11.25977 8.9707,10.74219 L8.9707,8.68164 L11.1973,8.68164 C11.6953,8.68164 12.0371,8.42773 12.0371,7.95898 C12.0371,7.48047 11.7148,7.2168 11.1973,7.2168 L8.9707,7.2168 L8.9707,4.9902 C8.9707,4.4727 8.69727,4.1504 8.22852,4.1504 C7.75977,4.1504 7.50586,4.4922 7.50586,4.9902 L7.50586,7.2168 L5.29883,7.2168 C4.78125,7.2168 4.44922,7.48047 4.44922,7.95898 C4.44922,8.42773 4.80078,8.68164 5.29883,8.68164 L7.50586,8.68164 L7.50586,10.74219 C7.50586,11.24023 7.75977,11.57227 8.22852,11.57227 Z" id="Shape"></path>
                </g>
                <g id="Group" transform="translate(282.506000, 1915.000000)" fill="#000000" fill-rule="nonzero">
                    <path d="M10.709,20.91016 C16.1582,20.91016 20.6699,16.39844 20.6699,10.94922 C20.6699,5.5098 16.1484,0.9883 10.6992,0.9883 C5.25977,0.9883 0.74805,5.5098 0.74805,10.94922 C0.74805,16.39844 5.26953,20.91016 10.709,20.91016 Z M10.709,19.25 C6.09961,19.25 2.41797,15.55859 2.41797,10.94922 C2.41797,6.3496 6.08984,2.6484 10.6992,2.6484 C15.3086,2.6484 19,6.3496 19.0098379,10.94922 C19.0195,15.55859 15.3184,19.25 10.709,19.25 Z M10.6895,15.58789 C11.207,15.58789 11.5195,15.22656 11.5195,14.66016 L11.5195,11.76953 L14.5762,11.76953 C15.123,11.76953 15.5039,11.48633 15.5039,10.96875 C15.5039,10.44141 15.1426,10.13867 14.5762,10.13867 L11.5195,10.13867 L11.5195,7.0723 C11.5195,6.4961 11.207,6.1445 10.6895,6.1445 C10.1719,6.1445 9.8789,6.5156 9.8789,7.0723 L9.8789,10.13867 L6.83203,10.13867 C6.26562,10.13867 5.89453,10.44141 5.89453,10.96875 C5.89453,11.48633 6.28516,11.76953 6.83203,11.76953 L9.8789,11.76953 L9.8789,14.66016 C9.8789,15.20703 10.1719,15.58789 10.6895,15.58789 Z" id="Shape"></path>
                </g>
                <g id="Group" transform="translate(306.924000, 1913.000000)" fill="#000000" fill-rule="nonzero">
                    <path d="M12.9707,25.67383 C19.9336,25.67383 25.6953,19.921875 25.6953,12.95898 C25.6953,5.9961 19.9238,0.2441 12.9609,0.2441 C6.00781,0.2441 0.25586,5.9961 0.25586,12.95898 C0.25586,19.921875 6.01758,25.67383 12.9707,25.67383 Z M12.9707,23.85742 C6.93555,23.85742 2.08203,18.99414 2.08203,12.95898 C2.08203,6.9238 6.92578,2.0605 12.9609,2.0605 C19.0059,2.0605 23.8594,6.9238 23.8691295,12.95898 C23.8789,18.99414 19.0156,23.85742 12.9707,23.85742 Z M12.9512,18.93555 C13.5176,18.93555 13.8691,18.54492 13.8691,17.93945 L13.8691,13.86719 L18.1074,13.86719 C18.6934,13.86719 19.1133,13.53516 19.1133,12.97852 C19.1133,12.40234 18.7227,12.06055 18.1074,12.06055 L13.8691,12.06055 L13.8691,7.8125 C13.8691,7.1973 13.5176,6.8066 12.9512,6.8066 C12.3848,6.8066 12.0625,7.2168 12.0625,7.8125 L12.0625,12.06055 L7.83398,12.06055 C7.21875,12.06055 6.80859,12.40234 6.80859,12.97852 C6.80859,13.53516 7.23828,13.86719 7.83398,13.86719 L12.0625,13.86719 L12.0625,17.93945 C12.0625,18.52539 12.3848,18.93555 12.9512,18.93555 Z" id="Shape"></path>
                </g>
                <text id="Design-Variations" fill="#000000" font-family="Helvetica-Bold, Helvetica" font-size="13" font-weight="bold">
                    <tspan x="263" y="1953">Design Variations</tspan>
                </text>
                <text id="Symbols-are-supported-in-up-to-nine-weights-and-three-scales." fill="#000000" font-family="Helvetica" font-size="13" font-weight="normal">
                    <tspan x="263" y="1971">Symbols are supported in up to nine weights and three scales.</tspan>
                </text>
                <text id="For-optimal-layout-with-text-and-other-symbols,-vertically-align" fill="#000000" font-family="Helvetica" font-size="13" font-weight="normal">
                    <tspan x="263" y="1989">For optimal layout with text and other symbols, vertically align</tspan>
                </text>
                <text id="symbols-with-the-adjacent-text." fill="#000000" font-family="Helvetica" font-size="13" font-weight="normal">
                    <tspan x="263" y="2007">symbols with the adjacent text.</tspan>
                </text>
                <rect id="Rectangle" fill="#00AEEF" fill-rule="nonzero" opacity="0.4" x="776" y="1919" width="3" height="14"></rect>
                <g id="Group" transform="translate(779.000000, 1918.000000)" fill="#000000" fill-rule="nonzero">
                    <path d="M10.5273,15 L12.373,15 L7.17773,0.9082 L5.43945,0.9082 L0.244141,15 L2.08984,15 L3.50586,10.9668 L9.11133,10.9668 L10.5273,15 Z M6.2793,3.0469 L6.33789,3.0469 L8.59375,9.47266 L4.02344,9.47266 L6.2793,3.0469 Z" id="Shape"></path>
                </g>
                <rect id="Rectangle" fill="#00AEEF" fill-rule="nonzero" opacity="0.4" x="791.617" y="1919" width="3" height="14"></rect>
                <text id="Margins" fill="#000000" font-family="Helvetica-Bold, Helvetica" font-size="13" font-weight="bold">
                    <tspan x="776" y="1953">Margins</tspan>
                </text>
                <text id="Leading-and-trailing-margins-on-the-left-and-right-side-of-each-symbol" fill="#000000" font-family="Helvetica" font-size="13" font-weight="normal">
                    <tspan x="776" y="1971">Leading and trailing margins on the left and right side of each symbol</tspan>
                </text>
                <text id="can-be-adjusted-by-modifying-the-width-of-the-blue-rectangles." fill="#000000" font-family="Helvetica" font-size="13" font-weight="normal">
                    <tspan x="776" y="1989">can be adjusted by modifying the width of the blue rectangles.</tspan>
                </text>
                <text id="Modifications-are-automatically-applied-proportionally-to-all" fill="#000000" font-family="Helvetica" font-size="13" font-weight="normal">
                    <tspan x="776" y="2007">Modifications are automatically applied proportionally to all</tspan>
                </text>
                <text id="scales-and-weights." fill="#000000" font-family="Helvetica" font-size="13" font-weight="normal">
                    <tspan x="776" y="2025">scales and weights.</tspan>
                </text>
                <g id="Group" transform="translate(1291.000000, 1915.000000)" fill="#000000" fill-rule="nonzero">
                    <path d="M0.83203,21.11523 L2.375,22.6582 C3.22461,23.48828 4.19141,23.41992 5.06055,22.46289 L15.2754,11.33984 C15.7051,11.63281 16.0957,11.62305 16.5645,11.52539 L17.6094,11.31055 L18.3027,12.00391 L18.2539,12.52148 C18.1855,13.04883 18.3516,13.46875 18.8496,13.9668 L19.6602,14.77734 C20.168,15.28516 20.8223,15.31445 21.3008,14.83594 L24.5527,11.58398 C25.0312,11.10547 25.0117,10.45117 24.5039,9.94336 L23.6836,9.12305 C23.1855,8.625 22.7754,8.44922 22.2383,8.52734 L21.7109,8.58594 L21.0566,7.9219 L21.3398,6.7793 C21.4863,6.2129 21.3398,5.7441 20.7148,5.1387 L18.3027,2.7461 C14.7578,-0.7793 10.2266,-0.6719 7.11133,2.4629 C6.69141,2.8926 6.64258,3.4785 6.91602,3.9082 C7.15039,4.2793 7.62891,4.5039 8.2734,4.3379 C9.7871,3.957 11.3008,4.0742 12.7852,5.0801 L12.1602,6.6621 C11.9258,7.248 11.9453,7.7266 12.1797,8.16602 L1.01758,18.439453 C0.08008,19.30859 -0.02734,20.25586 0.83203,21.11523 Z M8.6738,2.8535 C11.3398,0.8613 14.6504,1.1738 17.0527,3.5859 L19.6797,6.1934 C19.9141,6.4277 19.9434,6.6133 19.8848,6.9062 L19.5039,8.46875 L21.0762,10.04102 L22.043,9.95312 C22.3262,9.92383 22.4141,9.94336 22.6387,10.16797 L23.2637,10.79297 L20.5098,13.53711 L19.8848,12.92188 C19.6602,12.69727 19.6406,12.59961 19.6699,12.31641 L19.7578,11.35938 L18.1953,9.79688 L16.5742,10.10938 C16.291,10.16797 16.1445,10.16797 15.9102,9.92383 L13.7324,7.7461 C13.5078,7.5117 13.4785,7.375 13.6055,7.0527 L14.5527,4.7773 C12.9512,3.2441 10.8418,2.3945 8.8008,3.0488 C8.7129,3.0781 8.6445,3.0586 8.6152,3.0195 C8.5859,2.9707 8.5859,2.9219 8.6738,2.8535 Z M2.10156,20.41211 C1.61328,19.91406 1.78906,19.61133 2.12109,19.30859 L13.0781,9.19141 L14.3086,10.42188 L4.15234,21.34961 C3.84961,21.68164 3.46875,21.7793 3.06836,21.37891 L2.10156,20.41211 Z" id="Shape"></path>
                </g>
                <text id="Exporting" fill="#000000" font-family="Helvetica-Bold, Helvetica" font-size="13" font-weight="bold">
                    <tspan x="1289" y="1953">Exporting</tspan>
                </text>
                <text id="Symbols-should-be-outlined-when-exporting-to-ensure-the" fill="#000000" font-family="Helvetica" font-size="13" font-weight="normal">
                    <tspan x="1289" y="1971">Symbols should be outlined when exporting to ensure the</tspan>
                </text>
                <text id="design-is-preserved-when-submitting-to-Xcode." fill="#000000" font-family="Helvetica" font-size="13" font-weight="normal">
                    <tspan x="1289" y="1989">design is preserved when submitting to Xcode.</tspan>
                </text>
                <text id="Template-v.1.0" fill="#000000" font-family="Helvetica" font-size="13" font-weight="normal">
                    <tspan x="2952" y="1933">Template v.1.0</tspan>
                </text>
                <text id="Generated-from-circle" fill="#000000" font-family="Helvetica" font-size="13" font-weight="normal">
                    <tspan x="2911" y="1951">Generated from circle</tspan>
                </text>
                <text id="Typeset-at-100-points" fill="#000000" font-family="Helvetica" font-size="13" font-weight="normal">
                    <tspan x="2912" y="1969">Typeset at 100 points</tspan>
                </text>
                <text id="Small" fill="#000000" font-family="Helvetica" font-size="13" font-weight="normal">
                    <tspan x="263" y="726">Small</tspan>
                </text>
                <text id="Medium" fill="#000000" font-family="Helvetica" font-size="13" font-weight="normal">
                    <tspan x="263" y="1156">Medium</tspan>
                </text>
                <text id="Large" fill="#000000" font-family="Helvetica" font-size="13" font-weight="normal">
                    <tspan x="263" y="1586">Large</tspan>
                </text>
            </g>
            <g id="Guides" transform="translate(263.000000, 625.000000)">
                <g id="H-reference" transform="translate(76.000000, 0.000000)" fill="#27AAE1" fill-rule="nonzero">
                    <path d="M54.9316,71 L57.666,71 L30.5664,0.541 L28.0762,0.541 L0.976562,71 L3.66211,71 L12.9395,46.5371 L45.7031,46.5371 L54.9316,71 Z M29.1992,3.9102 L29.4434,3.9102 L44.8242,44.291 L13.8184,44.291 L29.1992,3.9102 Z" id="Shape"></path>
                </g>
                <line x1="0" y1="71" x2="2773" y2="71" id="Baseline-S" stroke="#27AAE1" stroke-width="0.577"></line>
                <line x1="0" y1="0.541" x2="2773" y2="0.541" id="Capline-S" stroke="#27AAE1" stroke-width="0.577"></line>
                <g id="H-reference" transform="translate(76.000000, 430.000000)" fill="#27AAE1" fill-rule="nonzero">
                    <path d="M54.9316,71 L57.666,71 L30.5664,0.541 L28.0762,0.541 L0.976562,71 L3.66211,71 L12.9395,46.5371 L45.7031,46.5371 L54.9316,71 Z M29.1992,3.9102 L29.4434,3.9102 L44.8242,44.291 L13.8184,44.291 L29.1992,3.9102 Z" id="Shape"></path>
                </g>
                <line x1="0" y1="501" x2="2773" y2="501" id="Baseline-M" stroke="#27AAE1" stroke-width="0.577"></line>
                <line x1="0" y1="430.54" x2="2773" y2="430.54" id="Capline-M" stroke="#27AAE1" stroke-width="0.577"></line>
                <g id="H-reference" transform="translate(76.000000, 860.000000)" fill="#27AAE1" fill-rule="nonzero">
                    <path d="M54.9316,71 L57.666,71 L30.5664,0.541 L28.0762,0.541 L0.976562,71 L3.66211,71 L12.9395,46.5371 L45.7031,46.5371 L54.9316,71 Z M29.1992,3.9102 L29.4434,3.9102 L44.8242,44.291 L13.8184,44.291 L29.1992,3.9102 Z" id="Shape"></path>
                </g>
                <line x1="0" y1="931" x2="2773" y2="931" id="Baseline-L" stroke="#27AAE1" stroke-width="0.577"></line>
                <line x1="0" y1="860.54" x2="2773" y2="860.54" id="Capline-L" stroke="#27AAE1" stroke-width="0.577"></line>
                <rect id="left-margin" fill="#00AEEF" fill-rule="nonzero" opacity="0.4" x="1128.3" y="405.79" width="8.74023" height="119.336"></rect>
                <rect id="right-margin" fill="#00AEEF" fill-rule="nonzero" opacity="0.4" x="1236.65" y="405.79" width="8.74023" height="119.336"></rect>
            </g>
            <g id="Symbols" transform="translate(1399.000000, 1040.000000)" fill="#000000" fill-rule="nonzero">
                <g id="Regular-M" transform="translate(0.300000, 0.000000)">
                    <!-- <path d="M50.5449,100.5508 C77.791,100.5508 100.35,77.99219 100.35,50.7461 C100.35,23.5488 77.7422,0.9414 50.4961,0.9414 C23.2988,0.9414 0.74023,23.5488 0.74023,50.7461 C0.74023,77.99219 23.3477,100.5508 50.5449,100.5508 Z M50.1551,92.0078 C27.1082,92.0078 8.7,73.5508 8.7,50.5039 C8.7,27.5058 27.0594,9 50.1063,9 C73.1532,9 91.6102,27.5058 91.6593938,50.5039 C91.7082,73.5508 73.202,92.0078 50.1551,92.0078 Z" id="Shape"></path> -->
                    <path d="M39.2262532,79.9171756 C38.8039526,79.9589622 38.4004208,80.0100347 38.2455773,80.622905 C38.2315006,80.6693345 38.1141948,80.729693 38.1141948,80.72505 C38.0531958,80.622905 37.9405823,80.4836163 37.9640435,80.4000431 C38.0297347,80.1075368 38.0907337,79.7035996 38.2549617,79.5921686 C38.4801887,79.4343081 38.4191897,79.3089483 38.3816519,79.1185871 C38.3441141,78.9235829 38.240885,78.9235829 38.1470404,79.0257279 C37.9593512,79.2393039 37.7716621,79.3321631 37.5182817,79.2021603 C37.4572827,79.1696596 37.3587459,79.2950194 37.2695935,79.341449 C37.2039023,79.3739497 37.1288266,79.3925215 37.0584432,79.4157363 C37.0396742,79.3228771 36.9927519,79.2114462 37.0068286,79.12323 C37.0772121,78.6589344 37.3775148,78.4453583 37.6496641,78.2224964 C37.806265,78.0751537 38.0012357,77.9738689 38.2127316,77.9299902 C38.4834915,77.8942526 38.758982,77.9311335 39.0104107,78.0367782 C39.3388667,78.1946387 39.6485539,78.4221436 40.01924,78.4360724 C40.2210059,78.4453583 40.4180796,78.5289316 40.6198454,78.593933 C40.8263035,78.6589344 40.9764549,78.6589344 41.0937606,78.3478563 C41.3612177,77.6514128 41.8445174,77.4006931 42.4310461,77.516767 C42.7313487,77.5771255 43.0269592,77.7071283 43.3272619,77.7860585 C43.3882609,77.7999874 43.4914899,77.739629 43.53372,77.6653416 C43.7824082,77.2660474 44.0357886,76.8667531 44.2563234,76.4442441 C44.4205514,76.1378089 44.5519338,75.8035161 44.678624,75.4692232 C44.8944666,74.8888536 45.1103092,74.308484 45.3026906,73.7141856 C45.6029933,72.7855943 45.8939115,71.8430741 46.1660608,70.9005539 C46.256444,70.5871605 46.3115215,70.2648371 46.3302889,69.9394619 C46.3443655,69.7073141 46.2552132,69.4751663 46.2364443,69.2430184 C46.1942142,68.862296 46.1942142,68.4769306 46.1425997,68.1008511 C46.0860585,67.6866842 46.0140619,67.2747274 45.9267571,66.8658247 C45.9126804,66.8008233 45.8329125,66.726536 45.7766058,66.7079642 C45.4997642,66.5965332 45.2135382,66.5222459 44.9413889,66.3922431 C44.1437099,66.0208066 43.3319541,65.6493701 42.5483518,65.222218 C41.8825409,64.8561104 41.2372013,64.4546837 40.6151532,64.0196923 C40.2210059,63.7457579 39.8643965,63.3789643 39.4890181,63.0632432 C39.3154056,62.9239545 39.1230242,62.8125236 38.9587961,62.659306 C38.7194924,62.4364441 38.4942654,62.1857245 38.2596539,61.9535766 C38.1188871,61.8142879 37.9687357,61.698214 37.8373533,61.5496394 C37.6112158,61.3106957 37.3966948,61.0612417 37.1945178,60.8021234 C36.7525555,60.2163039 36.3223503,59.6218892 35.9041547,59.0192281 C35.6883121,58.70815 35.5146996,58.3506423 35.317626,58.0209924 C35.0642456,57.6170552 34.8014807,57.2316898 34.5527926,56.8231096 C34.3181811,56.4331013 34.0835696,56.03845 33.8724193,55.6345127 C33.552845,55.0374872 33.2462158,54.4337647 32.9527423,53.8237597 C32.6430551,53.1737458 32.3568291,52.509803 32.0659109,51.8458602 C31.9277061,51.5327908 31.8040153,51.2136423 31.6952247,50.8894111 C31.6295335,50.689764 31.6295335,50.4529732 31.5638423,50.2533261 C31.3386153,49.5708115 31.0758504,48.9115116 30.8787768,48.2197111 C30.6640328,47.4353875 30.4762356,46.6440823 30.3157092,45.8471603 C30.1749423,45.1507168 30.0341755,44.4542733 29.9497153,43.7485439 C29.8670939,43.0347077 29.8201145,42.3172726 29.8089484,41.598855 C29.7901795,40.5541898 29.7854873,39.5095246 29.8277173,38.4648594 C29.8511785,37.9355623 29.9684842,37.4062653 30.0810977,36.8908971 C30.2453258,36.1248093 30.4283227,35.3587214 30.6347808,34.6112054 C30.7990089,34.0215499 31.0101592,33.4504663 31.2025406,32.8747397 C31.4089987,32.2525835 31.5544578,31.5979266 31.5309967,30.9246979 C31.5122278,30.3489713 31.3996143,29.7732447 31.3057697,29.206804 C31.2215049,28.6811637 31.1229322,28.1578671 31.0101592,27.6374847 C30.8889218,27.1195042 30.6480066,26.6363766 30.3063248,26.2260259 C29.9919454,25.8220886 29.6024903,25.8592323 29.227112,25.7895879 C28.8311873,25.7194739 28.4338251,25.6575543 28.0352856,25.6038697 C27.4393725,25.5202965 26.8434593,25.464581 26.2522384,25.3670789 C25.815861,25.2974345 25.3841759,25.1813606 24.9524908,25.0885015 C24.8821073,25.0792156 24.8070317,25.0699297 24.731956,25.0513578 L23.0239844,24.6334918 C22.8550642,24.5870622 22.7330662,24.4942031 22.709605,24.2341975 C22.6814517,23.9184764 22.7049128,23.6584709 22.9207554,23.4448949 C23.2726726,23.0920302 23.6011287,22.7020218 23.9624303,22.3677289 C24.2158107,22.1262952 24.4926523,21.935934 24.7694938,21.7362869 C24.9853364,21.5737834 25.2105634,21.4344947 25.4357904,21.2812771 C25.4827127,21.2534194 25.529635,21.2209187 25.5765573,21.2023469 C26.2100083,20.9562702 26.8669205,20.7751948 27.4816025,20.4594738 C27.9545997,20.2277225 28.463887,20.0770117 28.9878082,20.01375 C29.3491099,19.9626774 29.7197961,19.9533915 30.0764055,19.8512465 C30.2312491,19.8048169 30.3814004,19.6144557 30.4987062,19.4519522 C30.7781773,19.0886725 31.1176671,18.774724 31.5028433,18.5233609 C31.8125305,18.3097849 32.0799876,18.0126357 32.3849825,17.7897738 C32.9011277,17.4183373 33.417273,17.0561866 33.9428027,16.7033219 C34.214952,16.5176037 34.4871013,16.3272425 34.7780196,16.2111685 C35.0549371,16.1026508 35.3484588,16.0414231 35.6460821,16.0300932 C36.1903807,16.0068785 36.7440638,15.9697348 37.2883624,16.0440221 C37.9640435,16.1368812 38.6350323,16.3179565 39.2966367,16.5222466 C39.6157083,16.6151058 39.9066265,16.8611825 40.2116215,17.019043 C40.4509252,17.1444028 40.7089978,17.2140472 40.9436093,17.3486929 C41.2482449,17.5093114 41.533213,17.7040459 41.7929028,17.9290625 C41.9524386,18.0729941 42.041591,18.3469286 42.1588967,18.5651475 C42.3465859,18.9272981 42.5342751,19.2940917 42.7172721,19.6655282 C42.9424991,20.1391098 43.1677261,20.6219773 43.3835687,21.1048448 C43.6510257,21.6898573 43.9090984,22.2795128 44.1718632,22.8645253 C44.3783213,23.328821 44.6035484,23.7791877 44.7771609,24.2620552 C44.9460811,24.7309938 45.0586946,25.2370761 45.1994615,25.7199436 C45.2463838,25.891733 45.3261517,26.0449505 45.3777662,26.2213829 C45.5654554,26.8249673 45.7296835,27.4471234 45.9361416,28.0460648 C46.0581395,28.4082154 46.2176753,28.7517942 46.3865956,29.0860871 C46.6212071,29.5503828 46.8276652,30.0471791 47.1185834,30.4325445 C47.5408841,30.9989852 48.0335682,31.4818527 48.4980989,31.9925779 C48.8218628,32.3454426 49.1362422,32.7075932 49.4740827,33.0279572 C49.7978465,33.3343924 50.1591482,33.5758261 50.4782198,33.8822612 C50.8817516,34.2629837 51.2618222,34.6854927 51.6512772,35.0894299 C52.2049603,35.6651566 52.7539512,36.2408832 53.3170187,36.8026809 C53.6220137,37.109116 53.9598542,37.3691216 54.2648491,37.6755567 C54.4384616,37.8427032 54.5839207,38.0562792 54.7340721,38.2559263 C54.9217612,38.4973601 55.1047582,38.7573656 55.2971396,38.9987994 C55.8555149,39.7045288 56.4232747,40.4056152 56.98165,41.1206305 C57.2725683,41.492067 57.5447176,41.8960043 57.8262514,42.2813697 C58.2579365,42.8663822 58.6990061,43.4421088 59.1213067,44.0364072 C59.4450706,44.491417 59.7172199,45.0114281 60.0597527,45.4385801 C60.5242834,46.0235927 60.9794297,46.622534 61.5800351,47.0171854 C61.946029,47.2493332 62.2463317,47.6439845 62.57948,47.9643485 C62.7202468,48.0989942 62.8703982,48.2197111 63.0158573,48.3450709 C63.4850803,48.762937 63.9543032,49.1808031 64.4235262,49.5800974 C64.869288,49.9515339 65.3291265,50.2997556 65.7701961,50.6804781 C66.1737278,51.0240569 66.5725673,51.3769216 66.9526379,51.7669299 C67.3749386,52.1987249 67.7690859,52.6723065 68.1726176,53.1319592 C68.4776126,53.4755379 68.8295298,53.7819731 69.0641413,54.1905532 C69.3222139,54.645563 69.6835156,55.0634291 69.7257456,55.6855853 C69.7632835,56.2288112 70.0870473,56.3820287 70.4061189,56.567747 C70.6407304,56.6931068 70.8612652,56.8463244 71.0864922,56.9856131 C71.4618706,57.213118 71.837249,57.4313369 72.2032429,57.6588418 C72.4143932,57.7888446 72.6208513,57.9467051 72.8366939,58.0767079 C73.024383,58.1881389 73.2261489,58.2624262 73.4138381,58.3738571 C73.8079854,58.6060049 74.1927482,58.8613676 74.5868955,59.0935154 C74.8027381,59.2188752 75.0279651,59.3117343 75.2438076,59.4417371 C75.5065725,59.6042406 75.7599529,59.7992448 76.02741,59.9571053 C76.2010225,60.0638933 76.3980961,60.1103229 76.5670164,60.2217538 C76.9330103,60.4539017 77.2896198,60.7278361 77.6556137,60.9599839 C77.9089941,61.1224874 78.2046045,61.2014177 78.439216,61.3964218 C78.9553613,61.8235738 79.4480454,62.2925125 79.9360372,62.766094 C80.1284187,62.9518123 80.2973389,63.193246 80.461567,63.4253939 C80.5225659,63.51361 80.5882572,63.6807565 80.5554116,63.7643297 C80.5272582,63.8664747 80.400568,63.9871916 80.3114156,63.9871916 C80.005839,63.9988098 79.7,63.9722909 79.4011231,63.9082613 C78.9365923,63.7921874 78.4861383,63.625041 78.030992,63.4718234 C77.702536,63.3603925 77.3787721,63.2257467 77.0456238,63.1328876 C76.6314444,63.0136556 76.2047718,62.941992 75.7740296,62.9193116 C76.0508711,63.086458 76.3183282,63.2721763 76.6045542,63.4161079 C77.7895751,63.9834563 78.9847193,64.5298643 80.1894176,65.0550716 C80.8134842,65.3243631 81.4469352,65.5657968 82.0663095,65.8536601 C82.4979946,66.0533073 82.9202953,66.294741 83.3332115,66.5501036 C83.4739784,66.6429628 83.5818996,66.828681 83.671052,67.0051134 C83.7132821,67.0794007 83.7085898,67.2790478 83.6616676,67.3301203 C83.2393669,67.7804871 82.8921419,68.3701426 82.3196899,68.537289 C82.2070764,68.5697897 82.0850784,68.5651468 81.9818494,68.6115763 C81.8598514,68.6626489 81.7472379,68.750865 81.6299321,68.8297953 C81.5220109,68.9040826 81.423474,69.0155136 81.3061683,69.0480143 C80.9307899,69.1687311 80.5554116,69.2569473 80.175341,69.3590923 L80.156572,69.3590923 C79.7342714,69.1594452 79.4527376,69.5912402 79.1008204,69.721243 C78.8333633,69.823388 78.5424451,69.8512457 78.2656035,69.8791035 C77.6884593,69.9394619 77.1066228,70.0091063 76.5294786,70.0183922 C76.2291759,70.0276781 75.9288732,69.9069612 75.6238782,69.8883894 C75.1452708,69.8558887 74.6619712,69.9162471 74.1927482,69.8419598 C73.7469864,69.7676725 73.3106091,69.5865972 72.8789239,69.4380226 C72.5853265,69.3454403 72.2971007,69.2369406 72.0155537,69.1130157 C71.4759473,68.8715819 70.9410331,68.6022904 70.4061189,68.3376419 L68.8905288,67.5947689 C68.4412395,67.3772654 67.990779,67.1621387 67.5391666,66.9493979 C67.3655541,66.8658247 67.1825572,66.8008233 67.0089447,66.7079642 C66.5115684,66.4526015 66.0235765,66.1600953 65.5215079,65.9372334 C65.0992073,65.7515151 64.6534454,65.6493701 64.2217603,65.5054384 C64.113839,65.4729377 64.0153022,65.4218652 63.9073809,65.4032934 C63.8346025,65.3931151 63.7604072,65.4010951 63.6915384,65.4265081 C63.5320026,65.4729377 63.3724668,65.5982975 63.212931,65.5843687 C62.8938593,65.5611539 62.57948,65.4636518 62.2557161,65.4172222 C62.1994094,65.4079363 62.1337181,65.4775807 62.0774114,65.5193673 C62.049258,65.5379391 62.0304891,65.5982975 62.0117202,65.5982975 L61.1483499,65.6354412 C61.0873509,65.6354412 60.9981986,65.6215123 60.9700452,65.6632989 C60.8339705,65.872232 60.7072803,65.8025876 60.5383601,65.7283003 C60.4022854,65.6725848 60.2333652,65.7422292 60.0785216,65.7468721 C59.9659081,65.7468721 59.8486023,65.7283003 59.7359888,65.7422292 C59.5952219,65.7515151 59.4591473,65.7840158 59.3183804,65.8072306 C59.1776135,65.8350883 59.0368466,65.8815179 58.8866953,65.8908038 C58.7537102,65.8948145 58.6208647,65.8791656 58.492548,65.8443742 C58.3517811,65.8118735 58.2157064,65.7283003 58.0702473,65.7050855 C57.8027902,65.6493701 57.5259487,65.6447271 57.2584916,65.5704398 C57.0473413,65.5147243 56.8831132,65.4218652 56.6485017,65.5611539 C56.4467359,65.6725848 56.1792788,65.5797257 55.9446673,65.5750827 C55.7663626,65.5750827 55.6490568,65.5843687 55.7663626,65.8861608 C55.8508227,66.0950939 55.9071295,66.3504565 55.9071295,66.5826043 C55.9071295,67.2790478 56.0854342,67.9151329 56.2825078,68.541932 C56.5171193,69.3033769 56.7845764,70.0555358 57.0473413,70.8076948 C57.1881081,71.211632 57.3617206,71.5969974 57.5071798,72.0055776 C57.5869477,72.2377254 57.615101,72.497731 57.7089456,72.7159499 C57.9764027,73.3195343 58.2532443,73.9138327 58.553547,74.4895594 C58.6802372,74.744922 58.8726186,74.8842107 59.1494601,74.8934966 C59.5576841,74.9074254 59.9612158,75.0467141 60.3694398,75.0792148 C60.7917405,75.1163585 61.2234256,75.0838578 61.6504185,75.0838578 C61.6644952,75.0838578 61.6879563,75.0838578 61.6973408,75.0745719 C62.1571793,74.7263501 62.6686323,74.85171 63.1425475,74.8934966 C63.9167654,74.9631409 64.5173708,75.4738661 64.7379056,76.5417462 C64.766059,76.6717489 64.70506,76.8296095 64.686291,76.9688982 C64.6159076,76.9363975 64.5173708,76.9271116 64.4751407,76.8621102 C64.3343738,76.6438912 64.2311448,76.3792427 64.0809934,76.1749526 C63.9770711,76.0351212 63.8379426,75.924667 63.6774617,75.8545886 C63.499157,75.7803013 63.3067755,75.7710154 63.1237786,75.7385147 C62.7859381,75.6827992 62.6686323,75.8313738 62.7202468,76.2631688 C62.7577847,76.5881757 62.6545556,76.8110376 62.4387131,76.9271116 C61.9601056,77.1824742 61.4908827,77.196403 61.0310442,76.8342524 C60.9790467,76.7909989 60.9098057,76.7738705 60.843355,76.7878229 C60.4109053,76.9107924 59.946147,76.8484646 59.5623763,76.6160335 C59.4188458,76.5351888 59.2612885,76.4816464 59.0978456,76.4581729 C59.0509233,76.4581729 58.9383098,76.6253194 58.943002,76.6996067 C58.9993088,77.1731882 59.065,77.6421269 59.1494601,78.1110655 C59.2377624,78.5093619 59.0531347,78.9180579 58.6943138,79.1185871 C58.4221645,79.2903764 58.1406308,79.2114462 57.9717105,78.909654 C57.9482493,78.8771533 57.9247882,78.8400097 57.9154037,78.798223 C57.8872504,78.6775062 57.8684814,78.5521463 57.8450203,78.4267865 C57.7136379,78.487145 57.572871,78.5196457 57.4602575,78.6125048 C57.1505703,78.8771533 56.8502676,79.0442997 56.4514281,79.0303709 C55.9962818,79.016442 55.5411356,79.1882314 55.0859893,79.234661 C54.7059187,79.2718046 54.3211559,79.234661 53.9410853,79.2625187 C53.7768572,79.2718046 53.6126292,79.3646637 53.4484012,79.3878785 C53.0730228,79.448237 52.8290268,79.1835884 52.7680279,78.700721 C52.7539512,78.5985759 52.6788755,78.4685731 52.6037998,78.4221436 C52.2659593,78.2039246 51.8342742,78.3292844 51.5715093,78.6775062 C51.5574326,78.696078 51.5527404,78.7239357 51.5386637,78.7285787 L51.2571299,78.8678674 C51.2571299,78.7146498 51.2195921,78.5150027 51.2805911,78.4175006 C51.5433559,77.9810627 51.8905809,77.6142691 52.3175738,77.5492677 C52.6554144,77.4981952 53.0073316,77.6746276 53.3498643,77.7257001 C53.7252427,77.7767726 54.1053133,77.8557029 54.4759994,77.8185592 C54.8076259,77.7600464 55.124694,77.63865 55.4097531,77.4610516 C55.6819024,77.307834 55.9258984,77.0524714 56.1933555,76.8853249 C56.592195,76.6299623 56.7658075,76.2167392 56.8127298,75.6735133 C56.8598688,75.1724436 56.8218037,74.6670997 56.7001163,74.1784813 C56.531196,73.5052526 56.3904291,72.8273809 56.2215088,72.1541522 C56.1652021,71.9220044 56.0478964,71.7084284 55.9728207,71.4809235 C55.8132849,71.0259138 55.6819024,70.5523322 55.5035977,70.1066084 C55.1567865,69.2124031 54.7875502,68.3268721 54.3962315,67.4508372 C54.2179268,67.0561859 53.9457775,66.7358219 53.7205505,66.3690283 C53.5516302,66.0904509 53.321711,66.1275946 53.1105606,66.2065248 C52.5474931,66.4108149 52.0031944,66.6568916 51.4448191,66.8426099 C51.2758988,66.8983254 51.0788252,66.8518958 50.9052127,66.7961803 C50.7081391,66.7311789 50.56268,66.726536 50.3562218,66.8611817 C50.1779171,66.9772556 49.91046,66.8751106 49.6805408,66.8611817 C49.6148496,66.8518958 49.5538506,66.8101092 49.4646982,66.7683226 C49.5303894,67.1769028 49.3849303,67.0654718 49.2160101,67.0097563 C49.0298775,66.9473155 48.8295062,66.9392558 48.6388658,66.9865415 C48.5825591,67.0051134 48.5544057,67.2976196 48.5450212,67.4647661 C48.5356368,67.7433435 48.5544057,68.0172779 48.5450212,68.2912123 C48.5262523,68.9551551 48.2306418,69.4798092 47.9819537,70.0230351 C47.7332655,70.5662611 47.4658084,71.0909151 47.2593503,71.6619988 C46.9918932,72.4048719 46.7760507,73.1709597 46.5508236,73.9370475 C46.3772111,74.5174171 46.189522,75.0977867 46.0769085,75.6967281 C45.9361416,76.448887 45.6546078,77.1685453 45.7062223,77.9857056 C45.7437602,78.5475034 45.9549105,78.8400097 46.3912878,78.9003681 C46.6587449,78.9328688 46.9168176,79.1046582 47.1795824,79.1046582 C47.6488054,79.0953723 48.1180283,79.011799 48.5825591,78.9421547 C49.0283209,78.8771533 49.4740827,78.7610794 49.9245367,78.7332217 C50.440682,78.700721 50.8535982,79.0303709 51.1679776,79.5318102 C51.3190996,79.8044816 51.4357186,80.0945268 51.5152026,80.3954001 C51.5433559,80.4882592 51.4729725,80.6414768 51.4495113,80.7668366 C51.3791279,80.6832634 51.2805911,80.6136191 51.2430532,80.511474 C51.1116708,80.1168227 50.6893701,79.7175284 50.3515296,79.6989566 C50.2811462,79.6989566 50.2060705,79.6989566 50.1309948,79.6896707 C49.91046,79.65717 49.746232,79.9171756 49.8025388,80.195753 C49.8306921,80.3489705 49.8213077,80.5207599 49.8306921,80.6275479 C49.7556165,80.729693 49.7086942,80.8132662 49.6430029,80.8829105 C49.6054651,80.9293401 49.5491584,80.9757697 49.5022361,80.9757697 C49.2113178,80.9943415 48.9203996,81.0082704 48.6341736,80.9943415 C48.540329,80.9943415 48.4558689,80.8736246 48.3620243,80.8504098 C48.2024885,80.8086232 48.028876,80.7389789 47.8834168,80.7900514 C47.3531949,80.9757697 46.822973,81.0036274 46.3631345,80.5950472 C46.0018328,80.2746832 45.6686845,80.3350417 45.2886139,80.4371867 C45.1243858,80.4836163 44.8944666,80.4186149 44.7536997,80.297898 C44.4346281,80.0239636 44.1530943,80.0100347 43.8480994,80.3303987 C43.6463335,80.5439747 43.4398754,80.831838 43.1489572,80.7018352 C42.8533467,80.5625465 42.5905819,80.618262 42.3043559,80.7343359 C42.1776657,80.7807655 41.9946687,80.6879064 41.858594,80.6043332 C41.6521359,80.4743304 41.4832157,80.5254029 41.286142,80.6368338 C41.1531909,80.7188084 40.9958632,80.7532208 40.8403802,80.7343359 C40.3899262,80.6507627 39.9394721,80.5254029 39.4937103,80.409329 C39.2403299,80.3396846 39.1511776,80.1678952 39.2262532,79.9125326 L39.2262532,79.9171756 Z M50.7,79.079 L49.0506771,77 C47.906147,78.98 46.6816498,80.87 45.7120479,83.03 C45.5721053,83.336 46.6866477,84.974 47.2214282,86 L50.7,79.0835 L50.7,79.079 Z" id="Shape"></path>
                </g>
            </g>
        </g>
    </g>
</svg>