<?xml version="1.0" encoding="UTF-8"?>
<svg width="3300px" height="2200px" viewBox="0 0 3300 2200" version="1.1" xmlns="http://www.w3.org/2000/svg" xmlns:xlink="http://www.w3.org/1999/xlink">
    <!-- Generator: Sketch 59.1 (86144) - https://sketch.com -->
    <title>filter</title>
    <desc>Created with Sketch.</desc>
    <g id="Page-1" stroke="none" stroke-width="1" fill="none" fill-rule="evenodd">
        <g id="filter">
            <g id="Notes">
                <rect id="artboard" fill="#FFFFFF" fill-rule="nonzero" x="0" y="0" width="3300" height="2200"></rect>
                <line x1="263" y1="292" x2="3036" y2="292" id="Path" stroke="#000000" stroke-width="0.5"></line>
                <text id="Weight/Scale-Variations" fill="#000000" font-family="Helvetica-Bold, Helvetica" font-size="13" font-weight="bold">
                    <tspan x="263" y="322">Weight/Scale Variations</tspan>
                </text>
                <text id="Ultralight" fill="#000000" font-family="Helvetica" font-size="13" font-weight="normal">
                    <tspan x="533.711" y="322">Ultralight</tspan>
                </text>
                <text id="Thin" fill="#000000" font-family="Helvetica" font-size="13" font-weight="normal">
                    <tspan x="843.422" y="322">Thin</tspan>
                </text>
                <text id="Light" fill="#000000" font-family="Helvetica" font-size="13" font-weight="normal">
                    <tspan x="1138.63" y="322">Light</tspan>
                </text>
                <text id="Regular" fill="#000000" font-family="Helvetica" font-size="13" font-weight="normal">
                    <tspan x="1426.84" y="322">Regular</tspan>
                </text>
                <text id="Medium" fill="#000000" font-family="Helvetica" font-size="13" font-weight="normal">
                    <tspan x="1723.06" y="322">Medium</tspan>
                </text>
                <text id="Semibold" fill="#000000" font-family="Helvetica" font-size="13" font-weight="normal">
                    <tspan x="2015.77" y="322">Semibold</tspan>
                </text>
                <text id="Bold" fill="#000000" font-family="Helvetica" font-size="13" font-weight="normal">
                    <tspan x="2326.48" y="322">Bold</tspan>
                </text>
                <text id="Heavy" fill="#000000" font-family="Helvetica" font-size="13" font-weight="normal">
                    <tspan x="2618.19" y="322">Heavy</tspan>
                </text>
                <text id="Black" fill="#000000" font-family="Helvetica" font-size="13" font-weight="normal">
                    <tspan x="2917.4" y="322">Black</tspan>
                </text>
                <line x1="263" y1="1903" x2="3036" y2="1903" id="Path" stroke="#000000" stroke-width="0.5"></line>
                <g id="Group" transform="translate(264.000000, 1918.000000)" fill="#000000" fill-rule="nonzero">
                    <path d="M8.24805,15.830078 C12.5547,15.830078 16.1387,12.25586 16.1387,7.94922 C16.1387,3.6426 12.5449,0.0684 8.23828,0.0684 C3.94141,0.0684 0.36719,3.6426 0.36719,7.94922 C0.36719,12.25586 3.95117,15.830078 8.24805,15.830078 Z M8.24805,14.345703 C4.70312,14.345703 1.87109,11.50391 1.87109,7.94922 C1.87109,4.3945 4.69336,1.5527 8.23828,1.5527 C11.793,1.5527 14.6348,4.3945 14.6445503,7.94922 C14.6543,11.50391 11.8027,14.345703 8.24805,14.345703 Z M8.22852,11.57227 C8.69727,11.57227 8.9707,11.25977 8.9707,10.74219 L8.9707,8.68164 L11.1973,8.68164 C11.6953,8.68164 12.0371,8.42773 12.0371,7.95898 C12.0371,7.48047 11.7148,7.2168 11.1973,7.2168 L8.9707,7.2168 L8.9707,4.9902 C8.9707,4.4727 8.69727,4.1504 8.22852,4.1504 C7.75977,4.1504 7.50586,4.4922 7.50586,4.9902 L7.50586,7.2168 L5.29883,7.2168 C4.78125,7.2168 4.44922,7.48047 4.44922,7.95898 C4.44922,8.42773 4.80078,8.68164 5.29883,8.68164 L7.50586,8.68164 L7.50586,10.74219 C7.50586,11.24023 7.75977,11.57227 8.22852,11.57227 Z" id="Shape"></path>
                </g>
                <g id="Group" transform="translate(282.506000, 1915.000000)" fill="#000000" fill-rule="nonzero">
                    <path d="M10.709,20.91016 C16.1582,20.91016 20.6699,16.39844 20.6699,10.94922 C20.6699,5.5098 16.1484,0.9883 10.6992,0.9883 C5.25977,0.9883 0.74805,5.5098 0.74805,10.94922 C0.74805,16.39844 5.26953,20.91016 10.709,20.91016 Z M10.709,19.25 C6.09961,19.25 2.41797,15.55859 2.41797,10.94922 C2.41797,6.3496 6.08984,2.6484 10.6992,2.6484 C15.3086,2.6484 19,6.3496 19.0098379,10.94922 C19.0195,15.55859 15.3184,19.25 10.709,19.25 Z M10.6895,15.58789 C11.207,15.58789 11.5195,15.22656 11.5195,14.66016 L11.5195,11.76953 L14.5762,11.76953 C15.123,11.76953 15.5039,11.48633 15.5039,10.96875 C15.5039,10.44141 15.1426,10.13867 14.5762,10.13867 L11.5195,10.13867 L11.5195,7.0723 C11.5195,6.4961 11.207,6.1445 10.6895,6.1445 C10.1719,6.1445 9.8789,6.5156 9.8789,7.0723 L9.8789,10.13867 L6.83203,10.13867 C6.26562,10.13867 5.89453,10.44141 5.89453,10.96875 C5.89453,11.48633 6.28516,11.76953 6.83203,11.76953 L9.8789,11.76953 L9.8789,14.66016 C9.8789,15.20703 10.1719,15.58789 10.6895,15.58789 Z" id="Shape"></path>
                </g>
                <g id="Group" transform="translate(306.924000, 1913.000000)" fill="#000000" fill-rule="nonzero">
                    <path d="M12.9707,25.67383 C19.9336,25.67383 25.6953,19.921875 25.6953,12.95898 C25.6953,5.9961 19.9238,0.2441 12.9609,0.2441 C6.00781,0.2441 0.25586,5.9961 0.25586,12.95898 C0.25586,19.921875 6.01758,25.67383 12.9707,25.67383 Z M12.9707,23.85742 C6.93555,23.85742 2.08203,18.99414 2.08203,12.95898 C2.08203,6.9238 6.92578,2.0605 12.9609,2.0605 C19.0059,2.0605 23.8594,6.9238 23.8691295,12.95898 C23.8789,18.99414 19.0156,23.85742 12.9707,23.85742 Z M12.9512,18.93555 C13.5176,18.93555 13.8691,18.54492 13.8691,17.93945 L13.8691,13.86719 L18.1074,13.86719 C18.6934,13.86719 19.1133,13.53516 19.1133,12.97852 C19.1133,12.40234 18.7227,12.06055 18.1074,12.06055 L13.8691,12.06055 L13.8691,7.8125 C13.8691,7.1973 13.5176,6.8066 12.9512,6.8066 C12.3848,6.8066 12.0625,7.2168 12.0625,7.8125 L12.0625,12.06055 L7.83398,12.06055 C7.21875,12.06055 6.80859,12.40234 6.80859,12.97852 C6.80859,13.53516 7.23828,13.86719 7.83398,13.86719 L12.0625,13.86719 L12.0625,17.93945 C12.0625,18.52539 12.3848,18.93555 12.9512,18.93555 Z" id="Shape"></path>
                </g>
                <text id="Design-Variations" fill="#000000" font-family="Helvetica-Bold, Helvetica" font-size="13" font-weight="bold">
                    <tspan x="263" y="1953">Design Variations</tspan>
                </text>
                <text id="Symbols-are-supported-in-up-to-nine-weights-and-three-scales." fill="#000000" font-family="Helvetica" font-size="13" font-weight="normal">
                    <tspan x="263" y="1971">Symbols are supported in up to nine weights and three scales.</tspan>
                </text>
                <text id="For-optimal-layout-with-text-and-other-symbols,-vertically-align" fill="#000000" font-family="Helvetica" font-size="13" font-weight="normal">
                    <tspan x="263" y="1989">For optimal layout with text and other symbols, vertically align</tspan>
                </text>
                <text id="symbols-with-the-adjacent-text." fill="#000000" font-family="Helvetica" font-size="13" font-weight="normal">
                    <tspan x="263" y="2007">symbols with the adjacent text.</tspan>
                </text>
                <rect id="Rectangle" fill="#00AEEF" fill-rule="nonzero" opacity="0.4" x="776" y="1919" width="3" height="14"></rect>
                <g id="Group" transform="translate(779.000000, 1918.000000)" fill="#000000" fill-rule="nonzero">
                    <path d="M10.5273,15 L12.373,15 L7.17773,0.9082 L5.43945,0.9082 L0.244141,15 L2.08984,15 L3.50586,10.9668 L9.11133,10.9668 L10.5273,15 Z M6.2793,3.0469 L6.33789,3.0469 L8.59375,9.47266 L4.02344,9.47266 L6.2793,3.0469 Z" id="Shape"></path>
                </g>
                <rect id="Rectangle" fill="#00AEEF" fill-rule="nonzero" opacity="0.4" x="791.617" y="1919" width="3" height="14"></rect>
                <text id="Margins" fill="#000000" font-family="Helvetica-Bold, Helvetica" font-size="13" font-weight="bold">
                    <tspan x="776" y="1953">Margins</tspan>
                </text>
                <text id="Leading-and-trailing-margins-on-the-left-and-right-side-of-each-symbol" fill="#000000" font-family="Helvetica" font-size="13" font-weight="normal">
                    <tspan x="776" y="1971">Leading and trailing margins on the left and right side of each symbol</tspan>
                </text>
                <text id="can-be-adjusted-by-modifying-the-width-of-the-blue-rectangles." fill="#000000" font-family="Helvetica" font-size="13" font-weight="normal">
                    <tspan x="776" y="1989">can be adjusted by modifying the width of the blue rectangles.</tspan>
                </text>
                <text id="Modifications-are-automatically-applied-proportionally-to-all" fill="#000000" font-family="Helvetica" font-size="13" font-weight="normal">
                    <tspan x="776" y="2007">Modifications are automatically applied proportionally to all</tspan>
                </text>
                <text id="scales-and-weights." fill="#000000" font-family="Helvetica" font-size="13" font-weight="normal">
                    <tspan x="776" y="2025">scales and weights.</tspan>
                </text>
                <g id="Group" transform="translate(1291.000000, 1915.000000)" fill="#000000" fill-rule="nonzero">
                    <path d="M0.83203,21.11523 L2.375,22.6582 C3.22461,23.48828 4.19141,23.41992 5.06055,22.46289 L15.2754,11.33984 C15.7051,11.63281 16.0957,11.62305 16.5645,11.52539 L17.6094,11.31055 L18.3027,12.00391 L18.2539,12.52148 C18.1855,13.04883 18.3516,13.46875 18.8496,13.9668 L19.6602,14.77734 C20.168,15.28516 20.8223,15.31445 21.3008,14.83594 L24.5527,11.58398 C25.0312,11.10547 25.0117,10.45117 24.5039,9.94336 L23.6836,9.12305 C23.1855,8.625 22.7754,8.44922 22.2383,8.52734 L21.7109,8.58594 L21.0566,7.9219 L21.3398,6.7793 C21.4863,6.2129 21.3398,5.7441 20.7148,5.1387 L18.3027,2.7461 C14.7578,-0.7793 10.2266,-0.6719 7.11133,2.4629 C6.69141,2.8926 6.64258,3.4785 6.91602,3.9082 C7.15039,4.2793 7.62891,4.5039 8.2734,4.3379 C9.7871,3.957 11.3008,4.0742 12.7852,5.0801 L12.1602,6.6621 C11.9258,7.248 11.9453,7.7266 12.1797,8.16602 L1.01758,18.439453 C0.08008,19.30859 -0.02734,20.25586 0.83203,21.11523 Z M8.6738,2.8535 C11.3398,0.8613 14.6504,1.1738 17.0527,3.5859 L19.6797,6.1934 C19.9141,6.4277 19.9434,6.6133 19.8848,6.9062 L19.5039,8.46875 L21.0762,10.04102 L22.043,9.95312 C22.3262,9.92383 22.4141,9.94336 22.6387,10.16797 L23.2637,10.79297 L20.5098,13.53711 L19.8848,12.92188 C19.6602,12.69727 19.6406,12.59961 19.6699,12.31641 L19.7578,11.35938 L18.1953,9.79688 L16.5742,10.10938 C16.291,10.16797 16.1445,10.16797 15.9102,9.92383 L13.7324,7.7461 C13.5078,7.5117 13.4785,7.375 13.6055,7.0527 L14.5527,4.7773 C12.9512,3.2441 10.8418,2.3945 8.8008,3.0488 C8.7129,3.0781 8.6445,3.0586 8.6152,3.0195 C8.5859,2.9707 8.5859,2.9219 8.6738,2.8535 Z M2.10156,20.41211 C1.61328,19.91406 1.78906,19.61133 2.12109,19.30859 L13.0781,9.19141 L14.3086,10.42188 L4.15234,21.34961 C3.84961,21.68164 3.46875,21.7793 3.06836,21.37891 L2.10156,20.41211 Z" id="Shape"></path>
                </g>
                <text id="Exporting" fill="#000000" font-family="Helvetica-Bold, Helvetica" font-size="13" font-weight="bold">
                    <tspan x="1289" y="1953">Exporting</tspan>
                </text>
                <text id="Symbols-should-be-outlined-when-exporting-to-ensure-the" fill="#000000" font-family="Helvetica" font-size="13" font-weight="normal">
                    <tspan x="1289" y="1971">Symbols should be outlined when exporting to ensure the</tspan>
                </text>
                <text id="design-is-preserved-when-submitting-to-Xcode." fill="#000000" font-family="Helvetica" font-size="13" font-weight="normal">
                    <tspan x="1289" y="1989">design is preserved when submitting to Xcode.</tspan>
                </text>
                <text id="Template-v.1.0" fill="#000000" font-family="Helvetica" font-size="13" font-weight="normal">
                    <tspan x="2952" y="1933">Template v.1.0</tspan>
                </text>
                <text id="Generated-from-circle" fill="#000000" font-family="Helvetica" font-size="13" font-weight="normal">
                    <tspan x="2911" y="1951">Generated from circle</tspan>
                </text>
                <text id="Typeset-at-100-points" fill="#000000" font-family="Helvetica" font-size="13" font-weight="normal">
                    <tspan x="2912" y="1969">Typeset at 100 points</tspan>
                </text>
                <text id="Small" fill="#000000" font-family="Helvetica" font-size="13" font-weight="normal">
                    <tspan x="263" y="726">Small</tspan>
                </text>
                <text id="Medium" fill="#000000" font-family="Helvetica" font-size="13" font-weight="normal">
                    <tspan x="263" y="1156">Medium</tspan>
                </text>
                <text id="Large" fill="#000000" font-family="Helvetica" font-size="13" font-weight="normal">
                    <tspan x="263" y="1586">Large</tspan>
                </text>
            </g>
            <g id="Guides" transform="translate(263.000000, 625.000000)">
                <g id="H-reference" transform="translate(76.000000, 0.000000)" fill="#27AAE1" fill-rule="nonzero">
                    <path d="M54.9316,71 L57.666,71 L30.5664,0.541 L28.0762,0.541 L0.976562,71 L3.66211,71 L12.9395,46.5371 L45.7031,46.5371 L54.9316,71 Z M29.1992,3.9102 L29.4434,3.9102 L44.8242,44.291 L13.8184,44.291 L29.1992,3.9102 Z" id="Shape"></path>
                </g>
                <line x1="0" y1="71" x2="2773" y2="71" id="Baseline-S" stroke="#27AAE1" stroke-width="0.577"></line>
                <line x1="0" y1="0.541" x2="2773" y2="0.541" id="Capline-S" stroke="#27AAE1" stroke-width="0.577"></line>
                <g id="H-reference" transform="translate(76.000000, 430.000000)" fill="#27AAE1" fill-rule="nonzero">
                    <path d="M54.9316,71 L57.666,71 L30.5664,0.541 L28.0762,0.541 L0.976562,71 L3.66211,71 L12.9395,46.5371 L45.7031,46.5371 L54.9316,71 Z M29.1992,3.9102 L29.4434,3.9102 L44.8242,44.291 L13.8184,44.291 L29.1992,3.9102 Z" id="Shape"></path>
                </g>
                <line x1="0" y1="501" x2="2773" y2="501" id="Baseline-M" stroke="#27AAE1" stroke-width="0.577"></line>
                <line x1="0" y1="430.54" x2="2773" y2="430.54" id="Capline-M" stroke="#27AAE1" stroke-width="0.577"></line>
                <g id="H-reference" transform="translate(76.000000, 860.000000)" fill="#27AAE1" fill-rule="nonzero">
                    <path d="M54.9316,71 L57.666,71 L30.5664,0.541 L28.0762,0.541 L0.976562,71 L3.66211,71 L12.9395,46.5371 L45.7031,46.5371 L54.9316,71 Z M29.1992,3.9102 L29.4434,3.9102 L44.8242,44.291 L13.8184,44.291 L29.1992,3.9102 Z" id="Shape"></path>
                </g>
                <line x1="0" y1="931" x2="2773" y2="931" id="Baseline-L" stroke="#27AAE1" stroke-width="0.577"></line>
                <line x1="0" y1="860.54" x2="2773" y2="860.54" id="Capline-L" stroke="#27AAE1" stroke-width="0.577"></line>
                <rect id="left-margin" fill="#00AEEF" fill-rule="nonzero" opacity="0.4" x="1128.3" y="405.79" width="8.74023" height="119.336"></rect>
                <rect id="right-margin" fill="#00AEEF" fill-rule="nonzero" opacity="0.4" x="1236.65" y="405.79" width="8.74023" height="119.336"></rect>
            </g>
            <g id="Symbols" transform="translate(1399.000000, 1040.000000)" fill="#000000" fill-rule="nonzero">
                <g id="Regular-M" transform="translate(0.300000, 0.000000)">
                    <path d="M50.5449,100.5508 C77.791,100.5508 100.35,77.99219 100.35,50.7461 C100.35,23.5488 77.7422,0.9414 50.4961,0.9414 C23.2988,0.9414 0.74023,23.5488 0.74023,50.7461 C0.74023,77.99219 23.3477,100.5508 50.5449,100.5508 Z M50.1551,92.0078 C27.1082,92.0078 8.7,73.5508 8.7,50.5039 C8.7,27.5058 27.0594,9 50.1063,9 C73.1532,9 91.6102,27.5058 91.6593938,50.5039 C91.7082,73.5508 73.202,92.0078 50.1551,92.0078 Z" id="Shape"></path>
                    <path d="M60.1077937,70.6369617 L59.5643298,71.0984553 C59.2233843,71.3831375 58.8818626,71.6671342 58.5397668,71.9504436 C58.4774021,71.9992554 58.4150374,72.0968791 58.3615819,72.0835668 C58.0720315,71.9992554 57.9161197,72.3409382 57.6978432,72.4918112 C57.3459281,72.7358703 56.9851037,72.9355551 56.628734,73.1618645 C56.5084592,73.2373009 56.4060029,73.3482369 56.2901827,73.4281108 C55.7333549,73.8052931 55.1854364,74.1957878 54.6196995,74.5330331 C54.3969684,74.6661563 54.1475095,74.6661563 53.9114146,74.723843 C53.7198658,74.7682174 53.5283171,74.8436538 53.341223,74.8480913 C53.1452196,74.8480913 52.9492162,74.7593425 52.7532129,74.7504676 C52.174112,74.7327179 51.5950111,74.6306568 51.0337288,74.7637799 C50.583812,74.8702785 50.1428044,74.8170292 49.6973422,74.8525287 C49.1716968,74.8969031 48.6415968,74.8214667 48.1114968,74.8081543 C48.0224043,74.8081543 47.9333119,74.8436538 47.8486741,74.8969031 C47.5813968,75.0744007 47.3408472,74.9279652 47.0913884,74.7904046 C46.9280006,74.6956812 46.7481668,74.6324553 46.5612883,74.6040321 C46.0801892,74.5463454 45.6124539,74.3377858 45.1135362,74.4797838 C44.8997144,74.541908 44.6547101,74.3377858 44.4230698,74.3510981 C44.1001037,74.3899408 43.7782002,74.2709323 43.5588731,74.0316025 C43.4341437,73.9073542 43.2470496,73.925104 43.1000471,73.8363552 C42.8550429,73.6943571 42.6234025,73.521297 42.3873076,73.3659867 C42.2926137,73.3042937 42.1927575,73.2508466 42.0888479,73.2062389 C41.8794807,73.1174901 41.6567496,73.0819906 41.5587479,72.7181206 C41.5409294,72.6604339 41.4696555,72.6293718 41.4251092,72.5938723 C40.8950092,72.2388771 40.3693638,71.8705697 39.8348092,71.5288869 C39.5853504,71.3735765 39.318073,71.2759529 39.0730688,71.1206425 C38.8859747,71.0008317 38.7122445,70.832209 38.5385142,70.6768986 C38.2890554,70.4594641 38.0395965,70.246467 37.8035016,70.0112828 C37.476128,69.6952271 37.1596661,69.3681458 36.8546671,69.0306087 C36.5339343,68.6667387 36.23102,68.2762441 35.9191965,67.8901869 C35.7543755,67.6949396 35.5895545,67.5041297 35.4470066,67.2822578 C35.2242755,66.9450124 35.0327267,66.5633926 34.8099956,66.2261473 C34.7030847,66.0663995 34.5560822,65.9687758 34.4313528,65.8267778 C34.3199872,65.698092 34.2219855,65.5516565 34.1195292,65.4140959 C34.0170729,65.2809728 33.9368897,65.0901629 33.8166149,65.0147264 C33.473609,64.7928545 33.1172393,64.6242318 32.7653242,64.4334219 L32.7029595,64.3979224 C32.3599536,64.2958613 32.0214023,64.1982376 31.6783964,64.0873017 C31.353209,63.9763657 31.0369308,63.8210553 30.7072888,63.7278691 C30.1593703,63.5725587 29.6025426,63.4483104 29.0501695,63.3196247 C28.7205274,63.2441882 28.3908854,63.190939 28.0612434,63.11994 C27.7895114,63.0622532 27.499961,62.8891931 27.2415929,62.9601922 C26.9164055,63.0489409 26.6491282,62.7471951 26.3373047,62.8137567 C26.2259391,62.8359439 26.1056643,62.6628837 25.9809349,62.6318217 C25.4062887,62.4898236 24.8360971,62.3655753 24.2614509,62.2457645 C23.7135324,62.1303911 23.1656139,62.0549546 22.6266046,61.8996442 C22.3281449,61.8108954 22.0029575,61.7398964 21.7935903,61.3494018 C21.6376785,61.0654057 21.7089525,60.7503475 21.7757718,60.4574765 C21.8425911,60.1779179 22.0118668,60.1557307 22.1945063,60.1113563 C22.5241483,60.0226075 22.8448811,59.84511 23.1745231,59.7119868 C23.2858886,59.6676124 23.3972542,59.6543001 23.517529,59.623238 C23.7224416,59.5699887 23.9318088,59.4989897 24.1411761,59.4634902 C24.3282702,59.4324281 24.5153643,59.4457404 24.7024584,59.4191158 C24.849461,59.4013661 24.9920089,59.3614291 25.1345568,59.330367 C25.2325584,59.3081798 25.3261055,59.2771178 25.4241072,59.259368 C25.5131996,59.2460557 25.6112013,59.2771178 25.6913845,59.2371808 C26.3640324,58.9132478 27.0723173,59.1040576 27.7583291,58.9265601 C27.8117845,58.9132478 27.8607854,58.8821857 27.9142409,58.8644359 C28.1236081,58.8111867 28.3285207,58.7313128 28.5378879,58.7180004 C29.0546241,58.6736261 29.5000863,58.38963 29.9099115,57.9547609 C30.1460065,57.7062644 30.3999199,57.4888298 30.6360149,57.2403333 C30.8765645,56.9873992 31.0948409,56.6856534 31.3398451,56.4415942 C31.5848493,56.1930976 31.8565813,55.9801006 32.1149494,55.7582286 C32.1951325,55.6872296 32.284225,55.6295429 32.3644082,55.5585439 C32.5381384,55.3943586 32.6985048,55.185799 32.885599,55.0615507 C33.3310611,54.7686797 33.7854326,54.529058 34.2308948,54.236187 C34.3645334,54.1518757 34.4536259,53.9255663 34.5872645,53.8545673 C35.0683637,53.5883209 35.5806452,53.4285731 36.0439259,53.1002026 C36.5161158,52.7629573 37.0239427,52.7052706 37.5139512,52.5055858 C37.8836848,52.3547129 38.2445092,52.1550281 38.6142428,51.9864055 C38.7033352,51.9464685 38.8102461,51.9686557 38.894884,51.9242813 C39.1131604,51.8089079 39.3269823,51.6713473 39.5408041,51.5382241 C39.9818117,51.2586655 40.4317285,51.0101689 40.8549176,50.6817984 C41.2691975,50.3623028 41.652295,49.9451835 42.0532109,49.5857509 C42.1868496,49.4703775 42.347216,49.4260031 42.4808546,49.3106297 C43.0020454,48.8668858 43.5276908,48.4231419 44.0399723,47.9527734 C44.2832289,47.7265144 44.5067627,47.4800912 44.7081656,47.2161585 C44.8551681,47.0297861 44.9665337,46.7857269 45.0912631,46.563855 L45.8841858,45.1172498 C46.1470085,44.6468813 46.4098312,44.1765128 46.6815631,43.7194566 C46.9132035,43.320087 47.1537531,42.9384673 47.3943026,42.5524101 C47.4388489,42.4858485 47.5056682,42.4459116 47.5635783,42.3970997 C47.6081245,42.3571628 47.6749438,42.339413 47.7061262,42.2817263 C47.955585,41.8468573 48.1827707,41.3942385 48.4411388,40.9682444 C48.6059598,40.6931231 48.8197817,40.4801261 48.9935119,40.2138797 C49.1850607,39.9210088 49.3365178,39.5704511 49.5280666,39.2820175 C49.7240699,38.9891466 49.9557103,38.7539623 50.1517136,38.4744036 C50.3209893,38.2436568 50.4590826,37.9685356 50.6239036,37.7422262 C51.0292742,37.1831089 51.4524632,36.6550536 51.8578338,36.0959363 C52.044928,35.8385649 52.2008397,35.536819 52.3701154,35.2572603 C52.4458439,35.1330121 52.5304818,35.0176386 52.610665,34.8933903 C53.0383087,34.2277745 53.4570431,33.5488463 53.8935961,32.8965428 C54.1742373,32.4749861 54.4905154,32.1022412 54.766702,31.6762471 C55.1711991,31.0727602 55.5472791,30.4508458 55.8937213,29.8125227 C56.0354224,29.5181689 56.2086758,29.2399498 56.4104575,28.9827216 C56.5485508,28.8185363 56.6331886,28.5567274 56.7400995,28.3437304 L57.1187424,27.6115529 L57.6087508,26.6841282 C57.8760281,26.1826975 58.1343962,25.6635172 58.4150374,25.1753989 C58.584313,24.8780905 58.7936802,24.6295939 58.9718651,24.3455978 C59.0921399,24.1547879 59.1945962,23.9462283 59.3015071,23.7421061 C59.5910576,23.1829888 59.8761534,22.619434 60.1701584,22.0647541 C60.3617071,21.709759 60.5710744,21.3813885 60.7626231,21.0308308 L61.8762786,19.0251084 C62.1613744,18.5192404 62.4241971,17.9778728 62.7404753,17.5163791 C63.1191181,16.9705741 63.5200341,16.4380815 63.9610417,16.0076499 C64.3396846,15.6393424 64.7762375,15.3952833 65.2038812,15.1556616 C65.4266123,15.0314133 65.6760711,15.0314133 65.9166207,15 C66.0413501,14.9870389 66.1616249,15.3553463 66.0814417,15.563906 C65.9121661,15.9810252 65.725072,16.3803948 65.5379779,16.7842017 C65.4043392,17.0948224 65.2484274,17.3921308 65.1192434,17.7116265 C64.8697846,18.3328679 64.629235,18.9541094 64.3842308,19.5797883 C64.3753215,19.6108504 64.3530484,19.6330376 64.3485938,19.6640996 L64.0902257,21.1817038 L64.027861,21.5233866 C63.9833148,21.7630083 63.9031316,22.0070674 63.9031316,22.2466891 C63.9075862,22.7214951 63.9744056,23.1918636 63.9833148,23.6666696 C64.0011333,24.6029693 64.0144971,25.5392689 63.992224,26.4711311 C63.9654963,27.4429302 63.8853131,28.4102919 63.8452215,29.3776536 C63.8140392,30.149768 63.8006753,30.9218824 63.7873114,31.6939968 C63.7784022,32.5060482 63.7962207,33.3180995 63.7828568,34.1345883 C63.7739476,34.6937056 63.7249467,35.2528229 63.6937644,35.8119402 C63.6670366,36.2689964 63.6403089,36.7260527 63.6046719,37.1875463 C63.569035,37.7777257 63.5022156,38.3679051 63.5022156,38.9580845 C63.5022156,39.3352668 63.6046719,39.7124491 63.6581274,40.0940689 C63.7204921,40.5511251 63.7561291,41.0259311 63.8496761,41.4652375 C63.9075862,41.7270464 64.0456795,41.9533558 64.1614997,42.1752278 C64.5312333,42.9074052 64.8876031,43.6484575 65.2751552,44.3451355 C65.6582526,45.0196262 65.725072,45.8538647 65.8854384,46.6437289 C65.9121661,46.7679772 65.8676199,46.9321624 65.8408921,47.069723 C65.7963459,47.322657 65.8587106,47.4469053 66.0324409,47.4646551 C66.2818997,47.4912797 66.45563,47.3492817 66.656088,47.10966 C67.0748224,46.6037919 67.5247392,46.1201111 68.0147477,45.7784283 C68.2597519,45.6098056 68.6161216,45.7695534 68.9234905,45.8094903 C69.0214922,45.8183652 69.1506763,46.5327929 69.1016754,46.7236028 C69.0259468,47.0164737 68.8878536,47.1495969 68.6695771,47.0830353 C68.04593,46.8966629 67.5915586,47.3049073 67.4222829,48.1923951 C67.4156291,48.2244978 67.4126403,48.257247 67.4133737,48.2900187 C67.4401014,48.8136366 67.4222829,49.3461292 67.5069208,49.8431224 C67.6049224,50.4244269 67.7875619,50.9702319 67.9434737,51.5293492 C68.1216586,52.1505907 68.3132073,52.7718322 68.482483,53.3975111 C68.5359384,53.5883209 68.5225746,53.8146303 68.5582115,54.0187525 C68.647304,54.529058 68.7363964,55.0393635 68.8388527,55.5407941 C68.941309,56.0289124 69.1150393,56.5125933 69.1462216,57.0095864 C69.1684947,57.4178308 69.4045897,57.8305126 69.1016754,58.3053186 C68.8967628,58.6292517 68.8343981,59.1928064 68.776488,59.663175 C68.740851,59.9737957 68.8210342,60.3243534 68.8655805,60.6527239 C68.9101267,61.007719 68.941309,61.3804639 69.0437653,61.7043969 C69.1328578,61.988393 69.2932242,62.2546393 69.4624998,62.4410118 C69.6317754,62.6318217 69.8545065,62.7072581 70.0505099,62.8448187 C70.2286948,62.9735045 70.4068796,63.1066276 70.567246,63.2663754 C70.7454309,63.4483104 70.7276124,63.7544937 70.6117923,63.9319913 C70.5316091,64.0695519 70.3311511,64.1316761 70.1975124,64.100614 C69.9658721,64.0518022 69.743141,63.9053667 69.5159553,63.7899932 C69.2620418,63.6701824 69.012583,63.5414967 68.7586695,63.4172484 C68.740851,63.4039361 68.7052141,63.3906237 68.7007594,63.372874 C68.6517586,62.8625685 68.1973872,62.9779419 68.0904762,62.4321369 C68.0370208,62.6673212 67.9924746,62.8004443 67.9746561,62.9424424 C67.916746,63.4571853 68.1216586,64.0651145 68.4334821,64.3002987 C68.8032157,64.5798574 69.177404,64.8461037 69.5560469,65.0990378 C69.6451393,65.1611619 69.7520502,65.1567245 69.8500519,65.1789117 C70.0416006,65.2232861 70.2197855,65.3164723 70.2064217,65.6492802 C70.201967,65.9865256 69.9257805,66.2261473 69.7030494,66.2083975 C69.4884341,66.1930329 69.2727817,66.2155665 69.0660384,66.2749591 C68.8522166,66.3326458 68.6651225,66.3415207 68.4602099,66.1507108 C68.1973872,65.8933393 67.8900182,65.738029 67.6361048,65.4673452 C67.2911997,65.1273895 66.9985013,64.7386304 66.7674535,64.3136111 C66.5892686,63.9497411 66.5447224,63.4305607 66.45563,62.9735045 C66.4066291,62.6939458 66.3799014,62.4010748 66.3487191,62.1170787 C66.3387565,62.0137763 66.3387565,61.9097604 66.3487191,61.806458 C66.3665375,61.6200856 66.384356,61.4337131 66.4155384,61.2517781 C66.470317,60.8916037 66.5297168,60.5321418 66.5937233,60.1734804 C66.6961796,59.5833011 66.8164544,58.9975591 66.914456,58.4073797 C66.9876278,57.9167658 66.9001525,57.415723 66.6649972,56.9785244 C66.5001762,56.6235292 66.4957216,56.1176612 66.4110838,55.6827922 C66.3799014,55.5230444 66.3219913,55.3721714 66.2774451,55.2168611 C66.2106258,55.3943586 66.0992602,55.5674187 66.0814417,55.7493537 C66.0368955,56.4948435 66.0769871,57.2447707 65.8052552,57.9458861 C65.6805258,58.278694 65.6716165,58.7091256 65.6047972,59.0951828 C65.560251,59.3348045 65.5157047,59.5833011 65.4488854,59.8096104 C65.0584811,61.194937 64.6216841,62.5668722 64.1392266,63.9231164 C63.969977,64.4013758 63.7766994,64.8708577 63.5601257,65.3297846 C63.3730316,65.7291541 63.1503005,66.0841492 62.9364786,66.4480192 C62.8652047,66.5678301 62.7582938,66.6388291 62.6959291,66.75864 C62.6156029,66.9006866 62.5598823,67.0552023 62.531108,67.2156962 C62.6469282,67.3710065 62.7983854,67.557379 62.9409333,67.5706913 C63.3596677,67.6017534 63.7828568,67.5263169 64.2015913,67.557379 C64.3263207,67.5706913 64.464414,67.7748135 64.5535064,67.9389987 C64.5846888,68.0011229 64.5000509,68.2052451 64.464414,68.3428057 C64.4555047,68.3783052 64.428777,68.4138047 64.4020493,68.4182421 C64.1347719,68.4892412 63.8674946,68.609052 63.6002173,68.5957397 C63.3062123,68.5868648 63.0344803,68.9196728 63.0923904,69.3634167 C63.168119,69.9580335 63.2794845,70.539338 63.3552131,71.1339548 C63.4131232,71.5865736 63.4532148,72.0480673 63.4799425,72.5095609 C63.5155795,73.1219275 63.5289434,73.7342941 63.5423072,74.3466607 C63.5423072,74.4664715 63.5066702,74.5862824 63.4843971,74.7016558 C63.33294,75.5758313 63.1725736,76.4411319 63.0300257,77.3197448 C62.9721156,77.6836148 62.8072946,78.0563597 62.9854795,78.4468543 C63.0478442,78.5799775 63.1191181,78.7486002 63.2126652,78.8107243 C63.5022156,79.0059717 63.8184938,79.1213451 64.1035896,79.3299047 C64.3583226,79.500816 64.5726522,79.7249182 64.7316913,79.9866457 C64.9143308,80.3150162 64.7673283,80.6966359 64.4777778,80.6655738 C64.1532762,80.6177819 63.836031,80.5298325 63.533398,80.4037649 C63.3552131,80.3416408 63.2215744,80.292829 63.168119,80.616762 C63.1574647,80.6603028 63.1377341,80.7011238 63.1102089,80.7365729 C62.6647467,81.3800015 62.4420156,82.2453021 62.1168282,83.0085416 C62.072282,83.1194776 62.0945551,83.2969752 62.072282,83.4389732 C62.036645,83.6209082 61.9831895,83.7939684 61.9520072,83.9803408 C61.9297341,84.1312137 61.8896425,84.3042738 61.9163702,84.437397 C61.9831895,84.7391429 62.072282,85.0364513 62.1836475,85.3115725 C62.3083769,85.6221932 62.1836475,85.8706898 62.0455542,85.9727509 C61.9386433,86.0481874 61.7337307,85.9550012 61.6134559,85.8396277 C61.4386612,85.6578683 61.2915778,85.4515498 61.176903,85.2272612 C61.0201393,84.9493866 60.8846317,84.6601332 60.7715324,84.3619605 C60.6378937,84.0158403 60.5443466,83.638658 60.4329811,83.2703506 C60.4196172,83.2259762 60.4017987,83.1727269 60.4062534,83.1327899 C60.4597088,82.6801712 60.5087097,82.2319898 60.5710744,81.7882459 C60.5978021,81.597436 60.6824399,81.4243759 60.7002584,81.233566 C60.7520915,80.78462 60.896144,80.3511086 61.1234475,79.960021 C61.1562452,79.9057462 61.1774741,79.8453261 61.1858122,79.7825235 C61.2214492,79.3032801 61.2971778,78.8151618 61.2793593,78.3403558 C61.2570862,77.7546138 61.1457206,77.1777468 61.0878105,76.5964423 C61.0388097,76.0994491 61.0165366,75.5980185 60.976445,75.1010253 C60.9452626,74.7371553 60.9007164,74.3777228 60.8650794,74.0182902 C60.8294425,73.6810448 60.7804416,73.3437995 60.7537139,73.0065541 L60.5621651,70.5171508 C60.5532559,70.428402 60.5176189,70.3440907 60.4908912,70.2597793 L60.3572525,70.4461518 L60.1612492,70.681336 C60.1427332,70.6673988 60.1248945,70.6525905 60.1077937,70.6369617 L60.1077937,70.6369617 Z" id="Path"></path>
                </g>
            </g>
        </g>
    </g>
</svg>