<?xml version="1.0" encoding="UTF-8"?>
<!--Generator: Apple Native CoreSVG 341-->
<!DOCTYPE svg
PUBLIC "-//W3C//DTD SVG 1.1//EN"
       "http://www.w3.org/Graphics/SVG/1.1/DTD/svg11.dtd">
<svg version="1.1" xmlns="http://www.w3.org/2000/svg" xmlns:xlink="http://www.w3.org/1999/xlink" viewBox="0 0 3300 2200">
 <!--glyph: "", point size: 100.0, font version: "20.0d10e1", template writer version: "138.0.0"-->
 <style>.monochrome-0 {-sfsymbols-motion-group:1;-sfsymbols-layer-tags:-76c76222e954203}
.monochrome-1 {-sfsymbols-motion-group:0;-sfsymbols-layer-tags:-76c76222e954203}

.multicolor-0:tintColor {-sfsymbols-motion-group:1;-sfsymbols-layer-tags:-76c76222e954203}
.multicolor-1:tintColor {-sfsymbols-motion-group:0;-sfsymbols-layer-tags:-76c76222e954203}

.hierarchical-0:primary {-sfsymbols-motion-group:1;-sfsymbols-layer-tags:-76c76222e954203}
.hierarchical-1:tertiary {-sfsymbols-motion-group:0;-sfsymbols-layer-tags:-76c76222e954203}

.SFSymbolsPreviewWireframe {fill:none;opacity:1.0;stroke:black;stroke-width:0.5}
</style>
 <g id="Notes">
  <rect height="2200" id="artboard" style="fill:white;opacity:1" width="3300" x="0" y="0"/>
  <line style="fill:none;stroke:black;opacity:1;stroke-width:0.5;" x1="263" x2="3036" y1="292" y2="292"/>
  <text style="stroke:none;fill:black;font-family:sans-serif;font-size:13;font-weight:bold;" transform="matrix(1 0 0 1 263 322)">Weight/Scale Variations</text>
  <text style="stroke:none;fill:black;font-family:sans-serif;font-size:13;text-anchor:middle;" transform="matrix(1 0 0 1 559.711 322)">Ultralight</text>
  <text style="stroke:none;fill:black;font-family:sans-serif;font-size:13;text-anchor:middle;" transform="matrix(1 0 0 1 856.422 322)">Thin</text>
  <text style="stroke:none;fill:black;font-family:sans-serif;font-size:13;text-anchor:middle;" transform="matrix(1 0 0 1 1153.13 322)">Light</text>
  <text style="stroke:none;fill:black;font-family:sans-serif;font-size:13;text-anchor:middle;" transform="matrix(1 0 0 1 1449.84 322)">Regular</text>
  <text style="stroke:none;fill:black;font-family:sans-serif;font-size:13;text-anchor:middle;" transform="matrix(1 0 0 1 1746.56 322)">Medium</text>
  <text style="stroke:none;fill:black;font-family:sans-serif;font-size:13;text-anchor:middle;" transform="matrix(1 0 0 1 2043.27 322)">Semibold</text>
  <text style="stroke:none;fill:black;font-family:sans-serif;font-size:13;text-anchor:middle;" transform="matrix(1 0 0 1 2339.98 322)">Bold</text>
  <text style="stroke:none;fill:black;font-family:sans-serif;font-size:13;text-anchor:middle;" transform="matrix(1 0 0 1 2636.69 322)">Heavy</text>
  <text style="stroke:none;fill:black;font-family:sans-serif;font-size:13;text-anchor:middle;" transform="matrix(1 0 0 1 2933.4 322)">Black</text>
  <line style="fill:none;stroke:black;opacity:1;stroke-width:0.5;" x1="263" x2="3036" y1="1903" y2="1903"/>
  <g transform="matrix(0.2 0 0 0.2 263 1933)">
   <path d="m46.2402 4.15039c21.7773 0 39.4531-17.627 39.4531-39.4043s-17.6758-39.4043-39.4531-39.4043c-21.7285 0-39.4043 17.627-39.4043 39.4043s17.6758 39.4043 39.4043 39.4043Zm0-7.42188c-17.6758 0-31.9336-14.3066-31.9336-31.9824s14.2578-31.9824 31.9336-31.9824 31.9824 14.3066 31.9824 31.9824-14.3066 31.9824-31.9824 31.9824Zm-17.9688-31.9824c0 2.14844 1.51367 3.61328 3.75977 3.61328h10.498v10.5957c0 2.19727 1.46484 3.71094 3.61328 3.71094 2.24609 0 3.71094-1.51367 3.71094-3.71094v-10.5957h10.5957c2.19727 0 3.71094-1.46484 3.71094-3.61328 0-2.19727-1.51367-3.71094-3.71094-3.71094h-10.5957v-10.5469c0-2.24609-1.46484-3.75977-3.71094-3.75977-2.14844 0-3.61328 1.51367-3.61328 3.75977v10.5469h-10.498c-2.24609 0-3.75977 1.51367-3.75977 3.71094Z"/>
  </g>
  <g transform="matrix(0.2 0 0 0.2 281.506 1933)">
   <path d="m58.5449 14.5508c27.4902 0 49.8047-22.3145 49.8047-49.8047s-22.3145-49.8047-49.8047-49.8047-49.8047 22.3145-49.8047 49.8047 22.3145 49.8047 49.8047 49.8047Zm0-8.30078c-22.9492 0-41.5039-18.5547-41.5039-41.5039s18.5547-41.5039 41.5039-41.5039 41.5039 18.5547 41.5039 41.5039-18.5547 41.5039-41.5039 41.5039Zm-22.6562-41.5039c0 2.39258 1.66016 4.00391 4.15039 4.00391h14.3555v14.4043c0 2.44141 1.66016 4.15039 4.05273 4.15039 2.44141 0 4.15039-1.66016 4.15039-4.15039v-14.4043h14.4043c2.44141 0 4.15039-1.61133 4.15039-4.00391 0-2.44141-1.70898-4.15039-4.15039-4.15039h-14.4043v-14.3555c0-2.49023-1.70898-4.19922-4.15039-4.19922-2.39258 0-4.05273 1.70898-4.05273 4.19922v14.3555h-14.3555c-2.49023 0-4.15039 1.70898-4.15039 4.15039Z"/>
  </g>
  <g transform="matrix(0.2 0 0 0.2 304.924 1933)">
   <path d="m74.8535 28.3203c35.1074 0 63.623-28.4668 63.623-63.5742s-28.5156-63.623-63.623-63.623-63.5742 28.5156-63.5742 63.623 28.4668 63.5742 63.5742 63.5742Zm0-9.08203c-30.127 0-54.4922-24.3652-54.4922-54.4922s24.3652-54.4922 54.4922-54.4922 54.4922 24.3652 54.4922 54.4922-24.3652 54.4922-54.4922 54.4922Zm-28.8574-54.4922c0 2.58789 1.85547 4.39453 4.58984 4.39453h19.7266v19.7754c0 2.68555 1.85547 4.58984 4.44336 4.58984 2.68555 0 4.54102-1.85547 4.54102-4.58984v-19.7754h19.7754c2.68555 0 4.58984-1.80664 4.58984-4.39453 0-2.73438-1.85547-4.58984-4.58984-4.58984h-19.7754v-19.7266c0-2.73438-1.85547-4.63867-4.54102-4.63867-2.58789 0-4.44336 1.9043-4.44336 4.63867v19.7266h-19.7266c-2.73438 0-4.58984 1.85547-4.58984 4.58984Z"/>
  </g>
  <text style="stroke:none;fill:black;font-family:sans-serif;font-size:13;font-weight:bold;" transform="matrix(1 0 0 1 263 1953)">Design Variations</text>
  <text style="stroke:none;fill:black;font-family:sans-serif;font-size:13;" transform="matrix(1 0 0 1 263 1971)">Symbols are supported in up to nine weights and three scales.</text>
  <text style="stroke:none;fill:black;font-family:sans-serif;font-size:13;" transform="matrix(1 0 0 1 263 1989)">For optimal layout with text and other symbols, vertically align</text>
  <text style="stroke:none;fill:black;font-family:sans-serif;font-size:13;" transform="matrix(1 0 0 1 263 2007)">symbols with the adjacent text.</text>
  <line style="fill:none;stroke:#00AEEF;stroke-width:0.5;opacity:1.0;" x1="776" x2="776" y1="1919" y2="1933"/>
  <g transform="matrix(0.2 0 0 0.2 776 1933)">
   <path d="m16.5527 0.78125c2.58789 0 3.85742-0.976562 4.78516-3.71094l6.29883-17.2363h28.8086l6.29883 17.2363c0.927734 2.73438 2.19727 3.71094 4.73633 3.71094 2.58789 0 4.24805-1.5625 4.24805-4.00391 0-0.830078-0.146484-1.61133-0.537109-2.63672l-22.9004-60.9863c-1.12305-2.97852-3.125-4.49219-6.25-4.49219-3.02734 0-5.07812 1.46484-6.15234 4.44336l-22.9004 61.084c-0.390625 1.02539-0.537109 1.80664-0.537109 2.63672 0 2.44141 1.5625 3.95508 4.10156 3.95508Zm13.4766-28.3691 11.8652-32.8613h0.244141l11.8652 32.8613Z"/>
  </g>
  <line style="fill:none;stroke:#00AEEF;stroke-width:0.5;opacity:1.0;" x1="792.836" x2="792.836" y1="1919" y2="1933"/>
  <text style="stroke:none;fill:black;font-family:sans-serif;font-size:13;font-weight:bold;" transform="matrix(1 0 0 1 776 1953)">Margins</text>
  <text style="stroke:none;fill:black;font-family:sans-serif;font-size:13;" transform="matrix(1 0 0 1 776 1971)">Leading and trailing margins on the left and right side of each symbol</text>
  <text style="stroke:none;fill:black;font-family:sans-serif;font-size:13;" transform="matrix(1 0 0 1 776 1989)">can be adjusted by modifying the x-location of the margin guidelines.</text>
  <text style="stroke:none;fill:black;font-family:sans-serif;font-size:13;" transform="matrix(1 0 0 1 776 2007)">Modifications are automatically applied proportionally to all</text>
  <text style="stroke:none;fill:black;font-family:sans-serif;font-size:13;" transform="matrix(1 0 0 1 776 2025)">scales and weights.</text>
  <g transform="matrix(0.2 0 0 0.2 1289 1933)">
   <path d="m14.209 9.32617 8.49609 8.54492c4.29688 4.3457 9.22852 4.05273 13.8672-1.07422l53.4668-58.9355-4.83398-4.88281-53.0762 58.3984c-1.75781 2.00195-3.41797 2.49023-5.76172 0.146484l-5.85938-5.81055c-2.34375-2.29492-1.80664-4.00391 0.195312-5.81055l57.373-54.0039-4.88281-4.83398-57.959 54.4434c-4.93164 4.58984-5.32227 9.47266-1.02539 13.8184Zm32.0801-90.9668c-2.09961 2.05078-2.24609 4.93164-1.07422 6.88477 1.17188 1.80664 3.4668 2.97852 6.68945 2.14844 7.32422-1.70898 14.9414-2.00195 22.0703 2.68555l-2.92969 7.27539c-1.70898 4.15039-0.830078 7.08008 1.85547 9.81445l11.4746 11.5723c2.44141 2.44141 4.49219 2.53906 7.32422 2.05078l5.32227-0.976562 3.32031 3.36914-0.195312 2.7832c-0.195312 2.49023 0.439453 4.39453 2.88086 6.78711l3.80859 3.71094c2.39258 2.39258 5.46875 2.53906 7.8125 0.195312l14.5508-14.5996c2.34375-2.34375 2.24609-5.32227-0.146484-7.71484l-3.85742-3.80859c-2.39258-2.39258-4.24805-3.17383-6.64062-2.97852l-2.88086 0.244141-3.22266-3.17383 1.2207-5.61523c0.634766-2.83203-0.146484-5.0293-3.07617-7.95898l-10.9863-10.9375c-16.6992-16.6016-38.8672-16.2109-53.3203-1.75781Zm7.4707 1.85547c12.1582-8.88672 28.6133-7.37305 39.7461 3.75977l12.1582 12.0605c1.17188 1.17188 1.36719 2.09961 1.02539 3.80859l-1.61133 7.42188 7.51953 7.42188 4.93164-0.292969c1.26953-0.0488281 1.66016 0.0488281 2.63672 1.02539l2.88086 2.88086-12.207 12.207-2.88086-2.88086c-0.976562-0.976562-1.12305-1.36719-1.07422-2.68555l0.341797-4.88281-7.4707-7.42188-7.61719 1.26953c-1.61133 0.341797-2.34375 0.195312-3.56445-0.976562l-10.0098-10.0098c-1.26953-1.17188-1.41602-2.00195-0.634766-3.85742l4.39453-10.4492c-7.8125-7.27539-17.9688-10.4004-28.125-7.42188-0.78125 0.195312-1.07422-0.439453-0.439453-0.976562Z"/>
  </g>
  <text style="stroke:none;fill:black;font-family:sans-serif;font-size:13;font-weight:bold;" transform="matrix(1 0 0 1 1289 1953)">Exporting</text>
  <text style="stroke:none;fill:black;font-family:sans-serif;font-size:13;" transform="matrix(1 0 0 1 1289 1971)">Symbols should be outlined when exporting to ensure the</text>
  <text style="stroke:none;fill:black;font-family:sans-serif;font-size:13;" transform="matrix(1 0 0 1 1289 1989)">design is preserved when submitting to Xcode.</text>
  <text id="template-version" style="stroke:none;fill:black;font-family:sans-serif;font-size:13;text-anchor:end;" transform="matrix(1 0 0 1 3036 1933)">Template v.6.0</text>
  <text style="stroke:none;fill:black;font-family:sans-serif;font-size:13;text-anchor:end;" transform="matrix(1 0 0 1 3036 1951)">Requires Xcode 16 or greater</text>
  <text id="descriptive-name" style="stroke:none;fill:black;font-family:sans-serif;font-size:13;text-anchor:end;" transform="matrix(1 0 0 1 3036 1969)">Generated from filtervogelgruppe-11</text>
  <text style="stroke:none;fill:black;font-family:sans-serif;font-size:13;text-anchor:end;" transform="matrix(1 0 0 1 3036 1987)">Typeset at 100.0 points</text>
  <text style="stroke:none;fill:black;font-family:sans-serif;font-size:13;" transform="matrix(1 0 0 1 263 726)">Small</text>
  <text style="stroke:none;fill:black;font-family:sans-serif;font-size:13;" transform="matrix(1 0 0 1 263 1156)">Medium</text>
  <text style="stroke:none;fill:black;font-family:sans-serif;font-size:13;" transform="matrix(1 0 0 1 263 1586)">Large</text>
 </g>
 <g id="Guides">
  <g id="H-reference" style="fill:#27AAE1;stroke:none;" transform="matrix(1 0 0 1 339 696)">
   <path d="M0.993654 0L3.63775 0L29.3281-67.1323L30.0303-67.1323L30.0303-70.459L28.1226-70.459ZM11.6885-24.4799L46.9815-24.4799L46.2315-26.7285L12.4385-26.7285ZM55.1196 0L57.7637 0L30.6382-70.459L29.4326-70.459L29.4326-67.1323Z"/>
  </g>
  <line id="Baseline-S" style="fill:none;stroke:#27AAE1;opacity:1;stroke-width:0.5;" x1="263" x2="3036" y1="696" y2="696"/>
  <line id="Capline-S" style="fill:none;stroke:#27AAE1;opacity:1;stroke-width:0.5;" x1="263" x2="3036" y1="625.541" y2="625.541"/>
  <g id="H-reference" style="fill:#27AAE1;stroke:none;" transform="matrix(1 0 0 1 339 1126)">
   <path d="M0.993654 0L3.63775 0L29.3281-67.1323L30.0303-67.1323L30.0303-70.459L28.1226-70.459ZM11.6885-24.4799L46.9815-24.4799L46.2315-26.7285L12.4385-26.7285ZM55.1196 0L57.7637 0L30.6382-70.459L29.4326-70.459L29.4326-67.1323Z"/>
  </g>
  <line id="Baseline-M" style="fill:none;stroke:#27AAE1;opacity:1;stroke-width:0.5;" x1="263" x2="3036" y1="1126" y2="1126"/>
  <line id="Capline-M" style="fill:none;stroke:#27AAE1;opacity:1;stroke-width:0.5;" x1="263" x2="3036" y1="1055.54" y2="1055.54"/>
  <g id="H-reference" style="fill:#27AAE1;stroke:none;" transform="matrix(1 0 0 1 339 1556)">
   <path d="M0.993654 0L3.63775 0L29.3281-67.1323L30.0303-67.1323L30.0303-70.459L28.1226-70.459ZM11.6885-24.4799L46.9815-24.4799L46.2315-26.7285L12.4385-26.7285ZM55.1196 0L57.7637 0L30.6382-70.459L29.4326-70.459L29.4326-67.1323Z"/>
  </g>
  <line id="Baseline-L" style="fill:none;stroke:#27AAE1;opacity:1;stroke-width:0.5;" x1="263" x2="3036" y1="1556" y2="1556"/>
  <line id="Capline-L" style="fill:none;stroke:#27AAE1;opacity:1;stroke-width:0.5;" x1="263" x2="3036" y1="1485.54" y2="1485.54"/>
  <line id="right-margin-Black-S" style="fill:none;stroke:#00AEEF;stroke-width:0.5;opacity:1.0;" x1="2982.23" x2="2982.23" y1="600.785" y2="720.121"/>
  <line id="left-margin-Black-S" style="fill:none;stroke:#00AEEF;stroke-width:0.5;opacity:1.0;" x1="2884.57" x2="2884.57" y1="600.785" y2="720.121"/>
  <line id="right-margin-Regular-S" style="fill:none;stroke:#00AEEF;stroke-width:0.5;opacity:1.0;" x1="1496.11" x2="1496.11" y1="600.785" y2="720.121"/>
  <line id="left-margin-Regular-S" style="fill:none;stroke:#00AEEF;stroke-width:0.5;opacity:1.0;" x1="1403.58" x2="1403.58" y1="600.785" y2="720.121"/>
  <line id="right-margin-Ultralight-S" style="fill:none;stroke:#00AEEF;stroke-width:0.5;opacity:1.0;" x1="603.773" x2="603.773" y1="600.785" y2="720.121"/>
  <line id="left-margin-Ultralight-S" style="fill:none;stroke:#00AEEF;stroke-width:0.5;opacity:1.0;" x1="515.649" x2="515.649" y1="600.785" y2="720.121"/>
 </g>
 <g id="Symbols">
  <g id="Black-S" transform="matrix(1 0 0 1 2884.57 696)">
   <path class="monochrome-0 multicolor-0:tintColor hierarchical-0:primary SFSymbolsPreviewWireframe" d="M39.2181-9.00946C39.1537-8.90476 39.0852-8.80813 39.0248-8.69135C38.8879-8.43365 38.7671-8.15179 38.6222-7.89812C38.461-7.61122 38.2891-7.3307 38.1067-7.05656C37.99-6.88341 37.8329-6.78678 37.7444-6.57739C37.6316-6.29956 37.4625-6.49283 37.3336-6.33982C37.3095-6.31164 37.1524-6.54921 37.1162-6.71027C37.0597-7.03475 37.0903-7.36795 37.2048-7.67665C37.3659-8.20011 37.5189-8.7437 37.692-9.25508C37.8813-9.81477 38.1027-10.3342 38.296-10.8858C38.4611-11.3489 38.6101-11.8321 38.7671-12.3032L39.3711-14.1635C39.5443-14.7031 39.7094-15.2507 39.8785-15.7983C40.0114-16.2412 40.1402-16.6962 40.2811-17.1351C40.4623-17.7069 40.6596-18.2626 40.8328-18.8424C40.9938-19.3618 41.1267-19.9094 41.2757-20.4369C41.4287-20.9564 41.5898-21.4637 41.7388-21.9831C41.7992-22.1885 41.8394-22.414 41.8878-22.6314C41.9039-22.6999 41.9159-22.7764 41.9401-22.8328C42.03-23.0452 42.0908-23.2686 42.1213-23.4971C42.1616-23.779 42.2542-24.0407 42.3226-24.3145L42.5199-25.1319C42.5803-25.3615 42.6568-25.5789 42.7052-25.8165C42.7776-26.1627 42.7897-26.5412 42.8984-26.8755C43.0031-27.1976 43.0716-27.5761 43.1199-27.9425C43.1763-28.4056 43.3011-28.8606 43.2206-29.3639C43.2128-29.4404 43.2226-29.5172 43.2487-29.5894C43.3333-29.8068 43.2769-29.992 43.2447-30.2135C43.1763-30.6484 43.0796-31.1034 43.0957-31.5423C43.1199-32.1624 43.14-32.8066 43.285-33.4026C43.3655-33.7408 43.3856-34.1274 43.446-34.4736C43.5064-34.7756 43.6031-35.0535 43.6554-35.3595C43.736-35.8145 43.7923-36.2856 43.8648-36.7446C43.897-36.946 43.9373-37.1392 43.9776-37.3325C44.1306-38.0654 44.2957-38.7901 44.4406-39.531C44.505-39.8491 44.5292-40.1954 44.5775-40.5216C44.5977-40.6424 44.646-40.7471 44.6742-40.8679C44.7668-41.2423 44.8554-41.6168 44.9399-41.9953C45.1292-42.849 45.3224-43.7026 45.5036-44.5643C45.5842-44.9428 45.6365-45.3455 45.717-45.724C45.7895-46.0662 45.8942-46.3843 45.9667-46.7306C46.0392-47.0528 46.0875-47.4031 46.1519-47.7332C46.3522-48.713 46.5764-49.6877 46.8244-50.6566C46.9089-50.9908 47.0257-51.3008 47.1143-51.6229C47.1868-51.8726 47.2351-52.1343 47.2995-52.384C47.3273-52.4893 47.3649-52.5918 47.4122-52.69C47.6176-53.1208 47.827-53.5517 48.0404-53.9745C48.1572-54.208 48.282-54.4335 48.4028-54.659C48.592-55.0013 48.7773-55.3516 48.9746-55.6737C49.2081-56.0562 49.4457-56.4186 49.6873-56.773C49.8322-56.9864 49.9893-57.1756 50.1423-57.3689L50.8268-58.2427L51.3583-58.9151C51.9308-59.7332 52.376-60.6333 52.679-61.5847C52.8763-62.2451 53.0253-62.9498 53.2105-63.6182C53.3072-63.9806 53.4239-64.3228 53.5528-64.6449C53.7676-65.2219 54.1454-65.724 54.64-66.0905C54.9822-66.3442 55.3245-66.614 55.6748-66.8274C55.9184-66.9764 56.1852-67.0839 56.464-67.1455C56.8127-67.2391 57.1751-67.2732 57.5351-67.2461C57.8911-67.1875 58.2304-67.053 58.5297-66.8515C58.7793-66.6945 59.0048-66.3885 59.2343-66.1348C59.3873-65.9737 59.5403-65.8127 59.6772-65.6113C59.8142-65.4261 59.935-65.2087 60.0437-64.9751C60.2249-64.5966 60.4061-64.2181 60.551-63.8034C60.6436-63.5457 60.6718-63.2155 60.7322-62.9175C60.8047-62.5793 60.8893-62.2491 60.9577-61.9109C61.0302-61.5565 61.1067-61.2062 61.151-60.8438C61.2033-60.4412 61.2355-60.0224 61.2436-59.6117C61.2537-59.2361 61.2322-58.8603 61.1792-58.4883C61.151-58.3192 61.0181-58.1823 60.9134-58.0977C60.8731-58.0655 60.7644-58.2024 60.7362-58.3111C60.6154-58.7339 60.4101-58.8547 60.1846-58.899C60.1363-58.907 60.0557-58.746 60.0195-58.6332C59.9229-58.3514 59.8262-58.0574 59.7538-57.7474C59.7091-57.5407 59.6819-57.3306 59.6732-57.1192C59.645-56.6441 59.6168-56.1609 59.6128-55.6817C59.6128-55.3153 59.645-54.9449 59.6732-54.5785C59.6974-54.2241 59.7417-53.8738 59.7538-53.5154C59.7658-53.2175 59.7457-52.9115 59.7376-52.6135C59.7376-52.5813 59.7376-52.537 59.7457-52.5128C59.798-52.3679 59.786-52.2189 59.7779-52.0498C59.7699-51.8887 59.8262-51.7156 59.8303-51.5464C59.8343-51.0753 59.8343-50.6002 59.8182-50.1291C59.8061-49.7949 59.7578-49.4647 59.7376-49.1305C59.7336-48.9976 59.7779-48.8486 59.7699-48.7198C59.7457-48.4218 59.6974-48.1319 59.6692-47.8339C59.641-47.5641 59.6289-47.2903 59.6048-47.0205C59.5685-46.5172 59.5363-46.0139 59.488-45.5146C59.4558-45.1441 59.3914-44.7817 59.3511-44.4153C59.3028-43.9724 59.2706-43.5295 59.2222-43.0865C59.2021-42.9174 59.1618-42.7563 59.1417-42.5832C59.1055-42.3013 59.0652-42.0155 59.0531-41.7255C59.037-41.4437 59.0531-41.1538 59.0491-40.8719C59.0491-40.7833 59.0209-40.6988 59.0169-40.6102C58.9968-40.2478 58.9605-39.9055 58.8961-39.5552C58.8276-39.1686 58.8156-38.7418 58.7833-38.3311C58.7592-38.013 58.7471-37.6949 58.731-37.3768C58.7149-37.0869 58.7189-36.7809 58.6706-36.5151C58.4961-35.583 58.2716-34.6609 57.9982-33.7529C57.9337-33.5435 57.829-33.3824 57.7646-33.173C57.5697-32.5929 57.3046-32.0382 56.9754-31.5221C56.7741-31.1839 56.5647-30.8739 56.3754-30.5155C56.2385-30.2457 56.0573-30.1008 55.9124-29.8632C55.7956-29.6739 55.6829-29.4807 55.558-29.3035C55.4775-29.1827 55.3607-29.1142 55.2883-28.9733C55.1272-28.6552 54.9017-28.5787 54.7165-28.3492C54.648-28.2606 54.5876-28.1479 54.5192-28.0552L54.0722-27.4794C54.0561-27.4633 54.036-27.4593 54.0199-27.4472C53.9434-27.3989 53.8508-27.3828 53.7984-27.2902C53.684-27.0946 53.5924-26.8865 53.5246-26.6701C53.428-26.3601 53.4521-26.2835 53.6132-26.0258C53.73-25.8366 53.8467-25.6473 53.9595-25.45C53.994-25.3883 54.0132-25.3195 54.0159-25.2487C54.0159-24.9507 53.9957-24.6528 53.9877-24.3508L53.9836-24.3387C54.0642-24.0891 53.9836-23.8152 54.0239-23.5535C54.0467-23.3448 54.0467-23.1341 54.0239-22.9254C54.0159-22.7442 54.0722-22.4905 54.1769-22.41C54.2293-22.3697 54.3058-22.3536 54.2293-22.1966C54.2172-22.1724 54.2373-22.0677 54.2575-22.0234C54.3541-21.8019 54.4709-21.6046 54.5514-21.3671C54.644-21.1013 54.6964-20.7993 54.7769-20.5215C54.8171-20.3886 54.8735-20.2799 54.9178-20.1551C54.9581-20.0423 54.9782-19.9094 55.0225-19.8007C55.1675-19.4263 55.3164-19.0598 55.4654-18.6934C55.554-18.472 55.6507-18.2626 55.7352-18.0371C55.8037-17.8519 55.856-17.6505 55.9124-17.4653C55.8882-17.421 55.86-17.3566 55.8238-17.3123C55.7956-17.272 55.7594-17.2277 55.7312-17.2318C55.5725-17.2677 55.4161-17.315 55.2641-17.3727C54.8171-17.5499 54.5635-18.2223 54.2655-18.7699C54.1447-18.9914 54.04-19.2451 53.9192-19.4665C53.8387-19.6115 53.7783-19.4665 53.73-19.3659L53.4481-18.7578C53.4327-18.7273 53.4072-18.7028 53.3756-18.6894C53.0277-18.5233 52.6787-18.3595 52.3287-18.1981C52.1354-18.1096 51.9703-18.3189 51.9341-18.6894C51.9341-18.7095 51.9341-18.7377 51.9261-18.7538C51.7811-19.1847 51.922-19.5068 52.0469-19.8209C52.1603-20.1094 52.228-20.4134 52.2482-20.7228C52.2603-20.8758 52.2643-21.0329 52.2723-21.1859C52.2844-21.4154 52.22-21.5281 52.0791-21.5201C52.062-21.5208 52.0452-21.5251 52.0301-21.5328C52.0146-21.5406 52.0012-21.5513 51.9905-21.5644C51.8784-21.6922 51.771-21.8238 51.6684-21.959C51.6348-22.0147 51.6116-22.0761 51.5999-22.1402C51.521-22.4519 51.4831-22.773 51.4872-23.0945C51.4952-23.2878 51.4549-23.4005 51.3664-23.5012C51.1808-23.731 50.9556-23.926 50.702-24.077C50.5812-24.1374 50.4886-24.383 50.404-24.5763C50.3476-24.7132 50.3033-24.7615 50.2429-24.6085C50.106-24.234 49.9732-23.8475 49.8322-23.473C49.792-23.3522 49.7316-23.2555 49.6832-23.1388L49.341-22.3335L49.2604-22.1563C49.2356-22.0932 49.2209-22.0268 49.2162-21.959L49.1155-21.7456C49.0309-21.5523 48.9464-21.363 48.8658-21.1657C48.8135-21.0449 48.7612-20.9161 48.7169-20.7832C48.6242-20.5295 48.5316-20.2759 48.4471-20.0141C48.2981-19.5632 48.1612-19.1041 48.0042-18.6572C47.9438-18.4679 47.8471-18.3189 47.7827-18.1337C47.7142-17.9324 47.6699-17.7109 47.6095-17.5015C47.5773-17.3969 47.529-17.3083 47.4968-17.1995C47.38-16.7969 47.2713-16.3942 47.1505-15.9956C47.0982-15.8184 47.0096-15.6735 46.9572-15.5003C46.8002-14.9688 46.6432-14.4373 46.5022-13.8937C46.4217-13.5877 46.3814-13.2495 46.313-12.9354C46.2875-12.8005 46.2455-12.6696 46.1882-12.5448C46.0271-12.2348 45.9868-11.8321 45.9143-11.4415C45.8902-11.3046 45.8217-11.1919 45.7855-11.059L45.4674-9.81075C45.3426-9.32756 45.2016-8.85242 45.0768-8.36117C44.9319-7.7894 44.803-7.20151 44.6581-6.62168C44.6218-6.48478 44.5574-6.37204 44.5091-6.24318C44.493-6.18681 44.4889-6.11031 44.4688-6.04991C44.4446-5.94924 44.4084-5.85663 44.3802-5.75597C44.3104-5.45364 44.1772-5.16943 43.9896-4.92246C43.9615-4.89025 43.9413-4.83388 43.9212-4.78153C43.8769-4.66073 43.8286-4.57215 43.74-4.65268C43.7239-4.66879 43.6917-4.66073 43.6756-4.6406C43.5427-4.4594 43.3816-4.31847 43.289-4.0809C43.1602-3.75878 42.987-3.60577 42.8179-3.41652C42.7857-3.38028 42.7535-3.33598 42.7172-3.33196C42.4998-3.27961 42.2783-3.187 42.0569-3.33598C41.8757-3.45678 41.8274-3.75072 41.771-4.03258C41.68-4.51041 41.6384-4.99595 41.6462-5.48216C41.6462-5.62309 41.6945-5.76402 41.7106-5.90092C41.7589-6.28748 41.7911-6.68208 41.8475-7.06461C41.9039-7.43506 41.9924-7.78537 42.0488-8.15179C42.1455-8.75578 42.226-9.35977 42.3226-9.96376C42.3709-10.2658 42.4434-10.5557 42.4958-10.8577C42.536-11.0912 42.5602-11.3409 42.5924-11.5784C42.6327-11.812 42.681-12.0334 42.7132-12.271C42.7696-12.7703 42.8058-13.2817 42.8743-13.7769C42.9387-14.2158 43.0353-14.6346 43.1159-15.0655C43.14-15.2024 43.1441-15.3473 43.1682-15.5688C43.0474-15.3674 42.9548-15.2024 42.8582-15.0534C42.7535-14.8843 42.6367-14.7353 42.528-14.5662C42.3428-14.2642 42.1575-13.9622 41.9804-13.6481C41.8193-13.3542 41.6582-13.0522 41.5173-12.722C41.4086-12.4643 41.3281-12.1583 41.2354-11.8724C41.2153-11.824 41.2113-11.7516 41.1871-11.7234C40.9697-11.4657 40.9375-10.9986 40.8207-10.6241C40.6999-10.2376 40.563-9.87115 40.4301-9.49667C40.3576-9.28326 40.2932-9.0618 40.2167-8.85242C40.1442-8.65914 40.0798-8.44976 39.9872-8.29272C39.7738-7.93033 39.6651-7.45116 39.5121-7.02434C39.3832-6.66598 39.2141-6.36398 39.0651-6.0338C39.0329-5.96535 39.0087-5.88079 38.9765-5.81637C38.9523-5.76402 38.9-5.67946 38.8839-5.69557C38.8394-5.74758 38.8125-5.81267 38.8074-5.88079C38.8033-6.13044 38.7832-6.3962 38.8195-6.62571C38.9-7.1532 39.0127-7.66457 39.1094-8.184L39.2463-8.98932C39.2379-8.99536 39.2295-9.00207 39.2221-9.00946L39.2181-9.00946Z"/>
   <path class="monochrome-1 multicolor-1:tintColor hierarchical-1:tertiary SFSymbolsPreviewWireframe" d="M48.9411-84C55.3091-84.0013 61.615-82.7479 67.4985-80.3116C73.382-77.8752 78.7279-74.3036 83.2305-69.8009C87.7334-65.2983 91.305-59.9524 93.7418-54.0682C96.1779-48.1846 97.4312-41.8789 97.43-35.5124C97.43-8.72255 75.7254 13 48.9424 13C22.156 13 0.43-8.726 0.43-35.5124C0.43-62.2926 22.1539-84 48.9411-84ZM48.9424-70C29.8835-70 14.43-54.5582 14.43-35.5124C14.43-16.458 29.888-0.999999 48.9424-0.999999C67.9909-0.999999 83.43-16.4519 83.43-35.5138C83.4309-40.0428 82.5395-44.5276 80.8069-48.7121C79.0739-52.8969 76.5337-56.6989 73.3311-59.9013C70.1287-63.1038 66.3266-65.644 62.1422-67.3767C57.9578-69.1095 53.4729-70.0009 48.9424-70Z"/>
  </g>
  <g id="Regular-S" transform="matrix(1 0 0 1 1403.58 696)">
   <path class="monochrome-0 multicolor-0:tintColor hierarchical-0:primary SFSymbolsPreviewWireframe" d="M36.6657-5.57831C36.5977-5.46791 36.5255-5.366 36.4618-5.24287C36.3174-4.97111 36.1901-4.67388 36.0372-4.40637C35.8673-4.10383 35.686-3.80802 35.4937-3.51893C35.3705-3.33634 35.2049-3.23443 35.1115-3.01363C34.9926-2.72065 34.8143-2.92447 34.6784-2.76311C34.6529-2.73339 34.4873-2.98391 34.4491-3.15376C34.3896-3.49593 34.4218-3.8473 34.5425-4.17283C34.7124-4.72483 34.8737-5.29807 35.0563-5.83733C35.2559-6.42754 35.4894-6.9753 35.6933-7.55702C35.8673-8.04533 36.0245-8.55487 36.1901-9.05167L36.827-11.0134C37.0096-11.5824 37.1837-12.1599 37.362-12.7373C37.5022-13.2044 37.638-13.6842 37.7866-14.1471C37.9777-14.75 38.1858-15.336 38.3684-15.9474C38.5382-16.4952 38.6783-17.0727 38.8354-17.6289C38.9968-18.1766 39.1666-18.7117 39.3238-19.2594C39.3874-19.476 39.4299-19.7138 39.4809-19.943C39.4978-20.0152 39.5106-20.0959 39.5361-20.1554C39.6309-20.3793 39.6949-20.615 39.7271-20.856C39.7696-21.1532 39.8673-21.4292 39.9394-21.7179L40.1475-22.5799C40.2112-22.8219 40.2919-23.0512 40.3428-23.3018C40.4193-23.6669 40.432-24.0661 40.5466-24.4185C40.657-24.7582 40.7292-25.1573 40.7802-25.5437C40.8396-26.032 40.9713-26.5118 40.8863-27.0426C40.8782-27.1233 40.8885-27.2043 40.9161-27.2804C41.0052-27.5097 40.9458-27.705 40.9118-27.9386C40.8396-28.3971 40.7377-28.877 40.7547-29.3398C40.7802-29.9937 40.8014-30.6731 40.9543-31.3015C41.0392-31.6582 41.0604-32.0658 41.1241-32.431C41.1878-32.7495 41.2897-33.0424 41.3449-33.3651C41.4298-33.845 41.4893-34.3418 41.5657-34.8258C41.5997-35.0381 41.6422-35.2419 41.6846-35.4458C41.846-36.2186 42.0201-36.9829 42.1729-37.7642C42.2409-38.0996 42.2663-38.4648 42.3173-38.8087C42.3385-38.9361 42.3895-39.0465 42.4192-39.1739C42.5169-39.5688 42.6103-39.9637 42.6994-40.3628C42.899-41.263 43.1028-42.1632 43.2939-43.0718C43.3788-43.471 43.434-43.8956 43.519-44.2948C43.5954-44.6557 43.7058-44.9911 43.7822-45.3563C43.8586-45.696 43.9096-46.0654 43.9775-46.4136C44.1888-47.4468 44.4252-48.4747 44.6866-49.4963C44.7758-49.8487 44.899-50.1757 44.9924-50.5154C45.0688-50.7787 45.1198-51.0547 45.1877-51.3179C45.2171-51.429 45.2567-51.5371 45.3066-51.6406C45.5231-52.095 45.7439-52.5493 45.969-52.9951C46.0921-53.2414 46.2238-53.4792 46.3511-53.717C46.5507-54.0779 46.746-54.4473 46.9541-54.787C47.2004-55.1904 47.4509-55.5726 47.7057-55.9462C47.8585-56.1713 48.0241-56.3708 48.1855-56.5747L48.9073-57.4961L49.4678-58.2052C50.0715-59.0679 50.541-60.0171 50.8606-61.0204C51.0686-61.7167 51.2257-62.4598 51.421-63.1647C51.523-63.5468 51.6461-63.9078 51.782-64.2475C52.0084-64.8558 52.4069-65.3854 52.9284-65.7718C53.2894-66.0393 53.6503-66.3238 54.0197-66.5489C54.2766-66.706 54.5579-66.8194 54.8519-66.8843C55.2196-66.9831 55.6017-67.019 55.9814-66.9905C56.3568-66.9287 56.7146-66.7868 57.0302-66.5743C57.2935-66.4087 57.5313-66.086 57.7733-65.8185C57.9346-65.6487 58.096-65.4788 58.2404-65.2665C58.3847-65.0712 58.5121-64.8419 58.6268-64.5956C58.8178-64.1965 59.0089-63.7974 59.1618-63.36C59.2594-63.0883 59.2892-62.7401 59.3529-62.4259C59.4293-62.0692 59.5185-61.721 59.5906-61.3643C59.6671-60.9907 59.7478-60.6212 59.7945-60.2391C59.8497-59.8145 59.8836-59.3729 59.8921-58.9398C59.9027-58.5437 59.8801-58.1474 59.8242-57.7551C59.7945-57.5767 59.6543-57.4324 59.5439-57.3432C59.5015-57.3092 59.3868-57.4536 59.3571-57.5683C59.2297-58.0141 59.0132-58.1415 58.7754-58.1882C58.7244-58.1967 58.6395-58.0268 58.6013-57.9079C58.4994-57.6107 58.3975-57.3007 58.321-56.9738C58.274-56.7558 58.2453-56.5342 58.2361-56.3114C58.2064-55.8103 58.1767-55.3008 58.1724-54.7955C58.1724-54.4091 58.2064-54.0185 58.2361-53.6321C58.2616-53.2584 58.3083-52.889 58.321-52.5111C58.3338-52.1969 58.3126-51.8742 58.3041-51.5599C58.3041-51.526 58.3041-51.4793 58.3126-51.4538C58.3678-51.3009 58.355-51.1438 58.3465-50.9655C58.338-50.7956 58.3975-50.6131 58.4017-50.4347C58.406-49.9379 58.406-49.4369 58.389-48.9401C58.3762-48.5876 58.3253-48.2395 58.3041-47.887C58.2998-47.7469 58.3465-47.5898 58.338-47.4539C58.3126-47.1397 58.2616-46.834 58.2319-46.5198C58.2022-46.2353 58.1894-45.9465 58.1639-45.662C58.1257-45.1313 58.0918-44.6005 58.0408-44.074C58.0068-43.6833 57.9389-43.3011 57.8964-42.9147C57.8455-42.4477 57.8115-41.9806 57.7606-41.5135C57.7393-41.3352 57.6969-41.1653 57.6756-40.9827C57.6374-40.6855 57.595-40.384 57.5822-40.0783C57.5652-39.7811 57.5822-39.4754 57.578-39.1781C57.578-39.0847 57.5482-38.9955 57.544-38.9021C57.5228-38.52 57.4846-38.1591 57.4166-37.7896C57.3444-37.382 57.3317-36.9319 57.2977-36.4988C57.2722-36.1634 57.2595-35.8279 57.2425-35.4925C57.2255-35.1867 57.2298-34.864 57.1788-34.5838C56.9948-33.6008 56.7581-32.6284 56.4697-31.6709C56.4018-31.4501 56.2914-31.2803 56.2234-31.0595C56.0179-30.4477 55.7383-29.8628 55.3912-29.3186C55.1789-28.9619 54.9581-28.6349 54.7585-28.257C54.6142-27.9725 54.4231-27.8197 54.2702-27.5691C54.1471-27.3696 54.0282-27.1658 53.8966-26.9789C53.8116-26.8515 53.6885-26.7794 53.6121-26.6307C53.4422-26.2953 53.2044-26.2146 53.0091-25.9726C52.9369-25.8792 52.8732-25.7603 52.801-25.6626L52.3297-25.0554C52.3127-25.0384 52.2915-25.0342 52.2745-25.0215C52.1938-24.9705 52.0962-24.9535 52.041-24.8559C51.9203-24.6496 51.8237-24.4302 51.7522-24.2019C51.6503-23.875 51.6758-23.7943 51.8457-23.5226C51.9688-23.323 52.0919-23.1234 52.2108-22.9154C52.2473-22.8503 52.2674-22.7777 52.2703-22.7031C52.2703-22.3888 52.249-22.0746 52.2406-21.7562L52.2363-21.7434C52.3212-21.4802 52.2363-21.1914 52.2788-20.9154C52.3028-20.6953 52.3028-20.4731 52.2788-20.253C52.2703-20.0619 52.3297-19.7944 52.4401-19.7095C52.4953-19.6671 52.576-19.6501 52.4953-19.4845C52.4826-19.459 52.5038-19.3486 52.525-19.3019C52.627-19.0683 52.7501-18.8603 52.835-18.6098C52.9327-18.3295 52.9879-18.0111 53.0728-17.7181C53.1153-17.5779 53.1747-17.4633 53.2214-17.3317C53.2639-17.2128 53.2851-17.0727 53.3318-16.958C53.4847-16.5631 53.6418-16.1767 53.7989-15.7903C53.8923-15.5568 53.9942-15.336 54.0834-15.0982C54.1556-14.9029 54.2108-14.6906 54.2702-14.4952C54.2447-14.4485 54.215-14.3806 54.1768-14.3339C54.1471-14.2914 54.1089-14.2447 54.0791-14.249C53.9118-14.2868 53.7469-14.3367 53.5866-14.3976C53.1153-14.5844 52.8478-15.2935 52.5335-15.871C52.4062-16.1045 52.2958-16.372 52.1684-16.6056C52.0834-16.7584 52.0198-16.6056 51.9688-16.4994L51.6716-15.8582C51.6553-15.8261 51.6284-15.8002 51.5951-15.7861C51.2282-15.6109 50.8602-15.4382 50.4911-15.268C50.2873-15.1746 50.1132-15.3954 50.075-15.7861C50.075-15.8073 50.075-15.837 50.0665-15.854C49.9137-16.3083 50.0623-16.648 50.1939-16.9792C50.3135-17.2835 50.385-17.6041 50.4062-17.9304C50.419-18.0917 50.4232-18.2573 50.4317-18.4187C50.4444-18.6607 50.3765-18.7796 50.2279-18.7711C50.2098-18.7718 50.1921-18.7764 50.1762-18.7846C50.1599-18.7927 50.1458-18.804 50.1345-18.8178C50.0163-18.9526 49.903-19.0913 49.7948-19.2339C49.7594-19.2927 49.735-19.3574 49.7226-19.425C49.6394-19.7537 49.5994-20.0924 49.6037-20.4314C49.6122-20.6352 49.5697-20.7541 49.4763-20.8602C49.2806-21.1026 49.0432-21.3082 48.7757-21.4674C48.6483-21.5311 48.5506-21.7901 48.4615-21.9939C48.402-22.1383 48.3553-22.1893 48.2916-22.0279C48.1473-21.633 48.0071-21.2254 47.8585-20.8305C47.8161-20.7031 47.7524-20.6012 47.7014-20.4781L47.3405-19.6288L47.2556-19.442C47.2294-19.3755 47.2138-19.3054 47.2089-19.2339L47.1027-19.0089C47.0135-18.8051 46.9244-18.6055 46.8394-18.3974C46.7842-18.2701 46.729-18.1342 46.6823-17.9941C46.5847-17.7266 46.487-17.459 46.3978-17.183C46.2407-16.7075 46.0964-16.2234 45.9308-15.7521C45.8671-15.5525 45.7652-15.3954 45.6972-15.2001C45.625-14.9878 45.5783-14.7543 45.5146-14.5335C45.4807-14.423 45.4297-14.3296 45.3958-14.215C45.2726-13.7904 45.158-13.3658 45.0306-12.9454C44.9754-12.7586 44.882-12.6057 44.8268-12.4231C44.6612-11.8626 44.4956-11.3021 44.347-10.7289C44.262-10.4062 44.2196-10.0495 44.1474-9.71831C44.1205-9.57607 44.0763-9.43807 44.0158-9.30643C43.8459-8.97948 43.8034-8.55487 43.727-8.14299C43.7015-7.99862 43.6294-7.87973 43.5911-7.7396L43.2557-6.4233C43.1241-5.91376 42.9754-5.41271 42.8438-4.89468C42.691-4.29173 42.5551-3.67179 42.4022-3.06034C42.364-2.91597 42.2961-2.79708 42.2451-2.6612C42.2281-2.60176 42.2239-2.52108 42.2026-2.45739C42.1772-2.35123 42.139-2.25357 42.1092-2.14742C42.0356-1.8286 41.8952-1.5289 41.6974-1.26847C41.6676-1.2345 41.6464-1.17505 41.6252-1.11985C41.5785-0.992465 41.5275-0.89905 41.4341-0.983973C41.4171-1.00096 41.3831-0.992465 41.3662-0.971235C41.226-0.780158 41.0562-0.631542 40.9585-0.381019C40.8226-0.0413269 40.6401 0.120027 40.4617 0.319596C40.4278 0.357812 40.3938 0.404519 40.3556 0.408765C40.1263 0.463965 39.8927 0.561627 39.6592 0.404519C39.4681 0.277135 39.4172-0.0328346 39.3577-0.330065C39.2618-0.833942 39.218-1.34596 39.2261-1.85868C39.2261-2.0073 39.277-2.15591 39.294-2.30028C39.345-2.70791 39.379-3.12403 39.4384-3.52742C39.4978-3.91807 39.5913-4.28748 39.6507-4.67388C39.7526-5.3108 39.8375-5.94773 39.9394-6.58465C39.9904-6.90311 40.0668-7.20883 40.122-7.5273C40.1645-7.77357 40.19-8.03683 40.2239-8.28736C40.2664-8.53363 40.3174-8.76717 40.3513-9.0177C40.4108-9.54422 40.449-10.0835 40.5212-10.6058C40.5891-11.0686 40.691-11.5102 40.7759-11.9645C40.8014-12.1089 40.8057-12.2618 40.8311-12.4953C40.7038-12.283 40.6061-12.1089 40.5042-11.9518C40.3938-11.7735 40.2706-11.6163 40.156-11.438C39.9607-11.1195 39.7654-10.8011 39.5785-10.4699C39.4087-10.1599 39.2388-9.84145 39.0902-9.49327C38.9756-9.22151 38.8906-8.8988 38.793-8.59733C38.7718-8.54637 38.7675-8.46994 38.742-8.44022C38.5127-8.16847 38.4788-7.67591 38.3556-7.28102C38.2282-6.87339 38.0839-6.48699 37.9438-6.0921C37.8673-5.86705 37.7994-5.63351 37.7187-5.41271C37.6423-5.2089 37.5743-4.9881 37.4767-4.8225C37.2516-4.44034 37.137-3.93505 36.9756-3.48496C36.8398-3.10705 36.6614-2.78859 36.5043-2.4404C36.4703-2.36822 36.4448-2.27905 36.4109-2.21111C36.3854-2.15591 36.3302-2.06674 36.3132-2.08373C36.2662-2.13857 36.238-2.20722 36.2325-2.27905C36.2283-2.54231 36.207-2.82256 36.2453-3.06459C36.3302-3.62083 36.4491-4.1601 36.551-4.70785L36.6954-5.55708C36.6865-5.56345 36.6777-5.57053 36.6699-5.57831L36.6657-5.57831Z"/>
   <path class="monochrome-1 multicolor-1:tintColor hierarchical-1:tertiary SFSymbolsPreviewWireframe" d="M46.4321-81.8365C52.4502-81.8377 58.4096-80.6532 63.9698-78.3508C69.53-76.0483 74.5822-72.6729 78.8374-68.4176C83.0928-64.1624 86.4682-59.1103 88.771-53.5496C91.0733-47.9892 92.2577-42.03 92.2566-36.0127C92.2566-10.693 71.744 9.83658 46.4328 9.83658C21.1173 9.83658 0.5835-10.6972 0.5835-36.0127C0.5835-61.3211 21.1145-81.8365 46.4321-81.8365ZM46.4328-75.0865C24.8413-75.0865 7.3335-57.592 7.3335-36.0127C7.3335-14.4252 24.8452 3.08658 46.4328 3.08658C68.0148 3.08658 85.5066-14.4197 85.5066-36.0133C85.5076-41.1447 84.4976-46.226 82.5345-50.9672C80.571-55.7085 77.693-60.0162 74.0644-63.6446C70.4361-67.273 66.1283-70.1511 61.3873-72.1143C56.6463-74.0776 51.5649-75.0875 46.4328-75.0865Z"/>
  </g>
  <g id="Ultralight-S" transform="matrix(1 0 0 1 515.649 696)">
   <path class="monochrome-0 multicolor-0:tintColor hierarchical-0:primary SFSymbolsPreviewWireframe" d="M33.5967-5.57831C33.5287-5.46791 33.4565-5.366 33.3928-5.24287C33.2484-4.97111 33.1211-4.67388 32.9682-4.40637C32.7983-4.10383 32.617-3.80802 32.4247-3.51893C32.3015-3.33634 32.1359-3.23443 32.0425-3.01363C31.9236-2.72065 31.7453-2.92447 31.6094-2.76311C31.5839-2.73339 31.4183-2.98391 31.3801-3.15376C31.3206-3.49593 31.3528-3.8473 31.4735-4.17283C31.6434-4.72483 31.8047-5.29807 31.9873-5.83733C32.1869-6.42754 32.4204-6.9753 32.6243-7.55702C32.7983-8.04533 32.9555-8.55487 33.1211-9.05167L33.758-11.0134C33.9406-11.5824 34.1147-12.1599 34.293-12.7373C34.4332-13.2044 34.569-13.6842 34.7176-14.1471C34.9087-14.75 35.1168-15.336 35.2994-15.9474C35.4692-16.4952 35.6093-17.0727 35.7664-17.6289C35.9278-18.1767 36.0976-18.7117 36.2548-19.2594C36.3184-19.476 36.3609-19.7138 36.4119-19.9431C36.4288-20.0152 36.4416-20.0959 36.4671-20.1554C36.5619-20.3793 36.6259-20.615 36.6581-20.856C36.7006-21.1532 36.7983-21.4292 36.8704-21.7179L37.0785-22.5799C37.1422-22.8219 37.2229-23.0512 37.2738-23.3018C37.3503-23.6669 37.363-24.0661 37.4776-24.4185C37.588-24.7582 37.6602-25.1573 37.7112-25.5437C37.7706-26.032 37.9023-26.5119 37.8173-27.0426C37.8092-27.1233 37.8195-27.2043 37.8471-27.2804C37.9362-27.5097 37.8768-27.705 37.8428-27.9386C37.7706-28.3971 37.6687-28.877 37.6857-29.3398C37.7112-29.9937 37.7324-30.6731 37.8853-31.3015C37.9702-31.6582 37.9914-32.0658 38.0551-32.431C38.1188-32.7495 38.2207-33.0424 38.2759-33.3651C38.3608-33.845 38.4203-34.3418 38.4967-34.8258C38.5307-35.0381 38.5732-35.2419 38.6156-35.4458C38.777-36.2186 38.9511-36.9829 39.1039-37.7642C39.1719-38.0996 39.1973-38.4648 39.2483-38.8087C39.2695-38.9361 39.3205-39.0465 39.3502-39.1739C39.4479-39.5688 39.5413-39.9637 39.6304-40.3628C39.83-41.263 40.0338-42.1632 40.2249-43.0719C40.3098-43.471 40.365-43.8956 40.45-44.2948C40.5264-44.6557 40.6368-44.9911 40.7132-45.3563C40.7896-45.696 40.8406-46.0654 40.9085-46.4136C41.1198-47.4468 41.3562-48.4747 41.6176-49.4963C41.7068-49.8487 41.83-50.1757 41.9234-50.5154C41.9998-50.7787 42.0508-51.0547 42.1187-51.3179C42.1481-51.429 42.1877-51.5371 42.2376-51.6406C42.4541-52.095 42.6749-52.5493 42.9-52.9951C43.0231-53.2414 43.1548-53.4792 43.2821-53.717C43.4817-54.0779 43.677-54.4473 43.8851-54.787C44.1314-55.1904 44.3819-55.5726 44.6367-55.9462C44.7895-56.1713 44.9551-56.3708 45.1165-56.5747L45.8383-57.4961L46.3988-58.2052C47.0025-59.0679 47.472-60.0171 47.7916-61.0204C47.9996-61.7167 48.1567-62.4598 48.352-63.1647C48.454-63.5468 48.5771-63.9078 48.713-64.2475C48.9394-64.8558 49.3379-65.3854 49.8594-65.7718C50.2204-66.0393 50.5813-66.3238 50.9507-66.5489C51.2076-66.706 51.4889-66.8194 51.7829-66.8843C52.1506-66.9831 52.5327-67.019 52.9124-66.9905C53.2878-66.9287 53.6456-66.7868 53.9612-66.5743C54.2245-66.4087 54.4623-66.086 54.7043-65.8185C54.8656-65.6487 55.027-65.4788 55.1714-65.2665C55.3157-65.0712 55.4431-64.8419 55.5578-64.5956C55.7488-64.1965 55.9399-63.7974 56.0928-63.36C56.1904-63.0883 56.2202-62.7401 56.2839-62.4259C56.3603-62.0692 56.4495-61.721 56.5216-61.3643C56.5981-60.9907 56.6788-60.6212 56.7255-60.2391C56.7807-59.8145 56.8146-59.3729 56.8231-58.9398C56.8337-58.5437 56.8111-58.1474 56.7552-57.7551C56.7255-57.5767 56.5853-57.4324 56.4749-57.3432C56.4325-57.3092 56.3178-57.4536 56.2881-57.5683C56.1607-58.0141 55.9442-58.1415 55.7064-58.1882C55.6554-58.1967 55.5705-58.0268 55.5323-57.9079C55.4304-57.6107 55.3285-57.3007 55.252-56.9738C55.205-56.7558 55.1763-56.5342 55.1671-56.3114C55.1374-55.8103 55.1077-55.3008 55.1034-54.7955C55.1034-54.4091 55.1374-54.0185 55.1671-53.6321C55.1926-53.2584 55.2393-52.889 55.252-52.5111C55.2648-52.1969 55.2436-51.8742 55.2351-51.5599C55.2351-51.526 55.2351-51.4793 55.2436-51.4538C55.2988-51.3009 55.286-51.1438 55.2775-50.9655C55.269-50.7956 55.3285-50.6131 55.3327-50.4347C55.337-49.9379 55.337-49.4369 55.32-48.9401C55.3072-48.5876 55.2563-48.2395 55.2351-47.887C55.2308-47.7469 55.2775-47.5898 55.269-47.4539C55.2436-47.1397 55.1926-46.834 55.1629-46.5198C55.1332-46.2353 55.1204-45.9465 55.0949-45.662C55.0567-45.1313 55.0228-44.6005 54.9718-44.074C54.9378-43.6833 54.8699-43.3011 54.8274-42.9147C54.7765-42.4477 54.7425-41.9806 54.6916-41.5135C54.6703-41.3352 54.6279-41.1653 54.6066-40.9827C54.5684-40.6855 54.526-40.384 54.5132-40.0783C54.4962-39.7811 54.5132-39.4754 54.509-39.1781C54.509-39.0847 54.4792-38.9955 54.475-38.9021C54.4538-38.52 54.4156-38.1591 54.3476-37.7896C54.2754-37.382 54.2627-36.9319 54.2287-36.4988C54.2032-36.1634 54.1905-35.8279 54.1735-35.4925C54.1565-35.1867 54.1608-34.864 54.1098-34.5838C53.9258-33.6008 53.6891-32.6284 53.4007-31.6709C53.3328-31.4501 53.2224-31.2803 53.1544-31.0595C52.9489-30.4477 52.6693-29.8628 52.3222-29.3186C52.1099-28.9619 51.8891-28.6349 51.6895-28.257C51.5452-27.9725 51.3541-27.8197 51.2012-27.5691C51.0781-27.3696 50.9592-27.1658 50.8276-26.9789C50.7426-26.8515 50.6195-26.7794 50.5431-26.6307C50.3732-26.2953 50.1354-26.2146 49.9401-25.9726C49.8679-25.8792 49.8042-25.7603 49.732-25.6626L49.2607-25.0554C49.2437-25.0384 49.2225-25.0342 49.2055-25.0215C49.1248-24.9705 49.0272-24.9535 48.972-24.8559C48.8513-24.6496 48.7547-24.4302 48.6832-24.2019C48.5813-23.875 48.6068-23.7943 48.7767-23.5226C48.8998-23.323 49.0229-23.1234 49.1418-22.9154C49.1783-22.8503 49.1984-22.7777 49.2013-22.7031C49.2013-22.3888 49.18-22.0746 49.1716-21.7562L49.1673-21.7434C49.2522-21.4802 49.1673-21.1914 49.2098-20.9154C49.2338-20.6953 49.2338-20.4731 49.2098-20.253C49.2013-20.0619 49.2607-19.7944 49.3711-19.7095C49.4263-19.6671 49.507-19.6501 49.4263-19.4845C49.4136-19.459 49.4348-19.3486 49.456-19.3019C49.558-19.0683 49.6811-18.8603 49.766-18.6098C49.8637-18.3295 49.9189-18.0111 50.0038-17.7181C50.0463-17.5779 50.1057-17.4633 50.1524-17.3317C50.1949-17.2128 50.2161-17.0727 50.2628-16.958C50.4157-16.5631 50.5728-16.1767 50.7299-15.7903C50.8233-15.5568 50.9252-15.336 51.0144-15.0982C51.0866-14.9029 51.1418-14.6906 51.2012-14.4952C51.1757-14.4485 51.146-14.3806 51.1078-14.3339C51.0781-14.2914 51.0399-14.2447 51.0101-14.249C50.8428-14.2868 50.6779-14.3367 50.5176-14.3976C50.0463-14.5844 49.7788-15.2935 49.4645-15.871C49.3372-16.1045 49.2268-16.372 49.0994-16.6056C49.0144-16.7584 48.9508-16.6056 48.8998-16.4994L48.6026-15.8583C48.5863-15.8261 48.5594-15.8002 48.5261-15.7861C48.1592-15.6109 47.7912-15.4382 47.4221-15.268C47.2183-15.1746 47.0442-15.3954 47.006-15.7861C47.006-15.8073 47.006-15.837 46.9975-15.854C46.8447-16.3083 46.9933-16.648 47.1249-16.9792C47.2445-17.2835 47.316-17.6041 47.3372-17.9304C47.35-18.0917 47.3542-18.2573 47.3627-18.4187C47.3754-18.6607 47.3075-18.7796 47.1589-18.7711C47.1408-18.7718 47.1231-18.7764 47.1072-18.7846C47.0909-18.7927 47.0768-18.804 47.0655-18.8178C46.9473-18.9526 46.834-19.0913 46.7258-19.2339C46.6904-19.2927 46.666-19.3574 46.6536-19.425C46.5704-19.7537 46.5304-20.0924 46.5347-20.4314C46.5432-20.6352 46.5007-20.7541 46.4073-20.8602C46.2116-21.1026 45.9742-21.3082 45.7067-21.4674C45.5793-21.5311 45.4816-21.7901 45.3925-21.9939C45.333-22.1383 45.2863-22.1893 45.2226-22.0279C45.0783-21.633 44.9381-21.2254 44.7895-20.8305C44.7471-20.7031 44.6834-20.6012 44.6324-20.4781L44.2715-19.6288L44.1866-19.442C44.1604-19.3755 44.1448-19.3054 44.1399-19.2339L44.0337-19.0089C43.9445-18.8051 43.8554-18.6055 43.7704-18.3975C43.7152-18.2701 43.66-18.1342 43.6133-17.9941C43.5157-17.7266 43.418-17.4591 43.3288-17.1831C43.1717-16.7075 43.0274-16.2234 42.8618-15.7521C42.7981-15.5525 42.6962-15.3954 42.6282-15.2001C42.556-14.9878 42.5093-14.7543 42.4456-14.5335C42.4117-14.4231 42.3607-14.3296 42.3268-14.215C42.2036-13.7904 42.089-13.3658 41.9616-12.9454C41.9064-12.7586 41.813-12.6057 41.7578-12.4231C41.5922-11.8626 41.4266-11.3021 41.278-10.7289C41.193-10.4062 41.1506-10.0495 41.0784-9.71831C41.0515-9.57607 41.0073-9.43807 40.9468-9.30643C40.7769-8.97948 40.7344-8.55487 40.658-8.14299C40.6325-7.99862 40.5604-7.87973 40.5221-7.7396L40.1867-6.4233C40.0551-5.91376 39.9064-5.41271 39.7748-4.89468C39.622-4.29173 39.4861-3.67179 39.3332-3.06034C39.295-2.91597 39.2271-2.79708 39.1761-2.6612C39.1591-2.60176 39.1549-2.52108 39.1336-2.45739C39.1082-2.35123 39.07-2.25357 39.0402-2.14742C38.9666-1.8286 38.8262-1.5289 38.6284-1.26847C38.5986-1.2345 38.5774-1.17505 38.5562-1.11985C38.5095-0.992465 38.4585-0.89905 38.3651-0.983973C38.3481-1.00096 38.3141-0.992465 38.2972-0.971235C38.157-0.780158 37.9872-0.631542 37.8895-0.381019C37.7536-0.041327 37.5711 0.120027 37.3927 0.319596C37.3588 0.357812 37.3248 0.404519 37.2866 0.408765C37.0573 0.463965 36.8237 0.561627 36.5902 0.404519C36.3991 0.277135 36.3482-0.0328347 36.2887-0.330065C36.1928-0.833942 36.149-1.34596 36.1571-1.85868C36.1571-2.0073 36.208-2.15591 36.225-2.30028C36.276-2.70791 36.31-3.12403 36.3694-3.52742C36.4288-3.91807 36.5223-4.28748 36.5817-4.67388C36.6836-5.3108 36.7685-5.94773 36.8704-6.58465C36.9214-6.90311 36.9978-7.20883 37.053-7.5273C37.0955-7.77357 37.121-8.03683 37.1549-8.28736C37.1974-8.53363 37.2484-8.76717 37.2823-9.0177C37.3418-9.54422 37.38-10.0835 37.4522-10.6058C37.5201-11.0686 37.622-11.5102 37.7069-11.9645C37.7324-12.1089 37.7367-12.2618 37.7621-12.4953C37.6348-12.283 37.5371-12.1089 37.4352-11.9518C37.3248-11.7735 37.2016-11.6163 37.087-11.438C36.8917-11.1195 36.6964-10.8011 36.5095-10.4699C36.3397-10.1599 36.1698-9.84145 36.0212-9.49327C35.9066-9.22151 35.8216-8.8988 35.724-8.59733C35.7028-8.54637 35.6985-8.46994 35.673-8.44022C35.4437-8.16847 35.4098-7.67591 35.2866-7.28102C35.1592-6.87339 35.0149-6.48699 34.8748-6.0921C34.7983-5.86705 34.7304-5.63351 34.6497-5.41271C34.5733-5.2089 34.5053-4.9881 34.4077-4.8225C34.1826-4.44034 34.068-3.93505 33.9066-3.48496C33.7708-3.10705 33.5924-2.78859 33.4353-2.4404C33.4013-2.36822 33.3758-2.27905 33.3419-2.21111C33.3164-2.15591 33.2612-2.06674 33.2442-2.08373C33.1972-2.13857 33.169-2.20722 33.1635-2.27905C33.1593-2.54231 33.138-2.82256 33.1763-3.06459C33.2612-3.62083 33.3801-4.1601 33.482-4.70785L33.6264-5.55708C33.6175-5.56345 33.6087-5.57053 33.6009-5.57831L33.5967-5.57831Z"/>
   <path class="monochrome-1 multicolor-1:tintColor hierarchical-1:tertiary SFSymbolsPreviewWireframe" d="M44.3636-80.5865C50.0861-80.5876 55.7528-79.4613 61.04-77.272C66.3271-75.0826 71.1312-71.8729 75.1774-67.8265C79.2239-63.7803 82.4335-58.9764 84.6232-53.6889C86.8124-48.4015 87.9387-42.7349 87.9376-37.0127C87.9376-12.9352 68.432 6.58658 44.3638 6.58658C20.2909 6.58658 0.7645-12.9399 0.7645-37.0127C0.7645-61.0781 20.2877-80.5865 44.3636-80.5865ZM44.3638-78.3365C21.53-78.3365 3.0145-59.8351 3.0145-37.0127C3.0145-14.1825 21.5336 4.33658 44.3638 4.33658C67.1889 4.33658 85.6876-14.1774 85.6876-37.0129C85.6886-42.4398 84.6205-47.8138 82.5443-52.828C80.4678-57.8425 77.4239-62.3983 73.5865-66.2355C69.7491-70.073 65.1932-73.1168 60.1791-75.1931C55.1651-77.2695 49.791-78.3376 44.3638-78.3365Z"/>
  </g>
 </g>
</svg>
