<?xml version="1.0" encoding="UTF-8"?>
<svg width="3300px" height="2200px" viewBox="0 0 3300 2200" version="1.1" xmlns="http://www.w3.org/2000/svg" xmlns:xlink="http://www.w3.org/1999/xlink">
    <!-- Generator: Sketch 59.1 (86144) - https://sketch.com -->
    <title>filter</title>
    <desc>Created with Sketch.</desc>
    <g id="Page-1" stroke="none" stroke-width="1" fill="none" fill-rule="evenodd">
        <g id="filter">
            <g id="Notes">
                <rect id="artboard" fill="#FFFFFF" fill-rule="nonzero" x="0" y="0" width="3300" height="2200"></rect>
                <line x1="263" y1="292" x2="3036" y2="292" id="Path" stroke="#000000" stroke-width="0.5"></line>
                <text id="Weight/Scale-Variations" fill="#000000" font-family="Helvetica-Bold, Helvetica" font-size="13" font-weight="bold">
                    <tspan x="263" y="322">Weight/Scale Variations</tspan>
                </text>
                <text id="Ultralight" fill="#000000" font-family="Helvetica" font-size="13" font-weight="normal">
                    <tspan x="533.711" y="322">Ultralight</tspan>
                </text>
                <text id="Thin" fill="#000000" font-family="Helvetica" font-size="13" font-weight="normal">
                    <tspan x="843.422" y="322">Thin</tspan>
                </text>
                <text id="Light" fill="#000000" font-family="Helvetica" font-size="13" font-weight="normal">
                    <tspan x="1138.63" y="322">Light</tspan>
                </text>
                <text id="Regular" fill="#000000" font-family="Helvetica" font-size="13" font-weight="normal">
                    <tspan x="1426.84" y="322">Regular</tspan>
                </text>
                <text id="Medium" fill="#000000" font-family="Helvetica" font-size="13" font-weight="normal">
                    <tspan x="1723.06" y="322">Medium</tspan>
                </text>
                <text id="Semibold" fill="#000000" font-family="Helvetica" font-size="13" font-weight="normal">
                    <tspan x="2015.77" y="322">Semibold</tspan>
                </text>
                <text id="Bold" fill="#000000" font-family="Helvetica" font-size="13" font-weight="normal">
                    <tspan x="2326.48" y="322">Bold</tspan>
                </text>
                <text id="Heavy" fill="#000000" font-family="Helvetica" font-size="13" font-weight="normal">
                    <tspan x="2618.19" y="322">Heavy</tspan>
                </text>
                <text id="Black" fill="#000000" font-family="Helvetica" font-size="13" font-weight="normal">
                    <tspan x="2917.4" y="322">Black</tspan>
                </text>
                <line x1="263" y1="1903" x2="3036" y2="1903" id="Path" stroke="#000000" stroke-width="0.5"></line>
                <g id="Group" transform="translate(264.000000, 1918.000000)" fill="#000000" fill-rule="nonzero">
                    <path d="M8.24805,15.830078 C12.5547,15.830078 16.1387,12.25586 16.1387,7.94922 C16.1387,3.6426 12.5449,0.0684 8.23828,0.0684 C3.94141,0.0684 0.36719,3.6426 0.36719,7.94922 C0.36719,12.25586 3.95117,15.830078 8.24805,15.830078 Z M8.24805,14.345703 C4.70312,14.345703 1.87109,11.50391 1.87109,7.94922 C1.87109,4.3945 4.69336,1.5527 8.23828,1.5527 C11.793,1.5527 14.6348,4.3945 14.6445503,7.94922 C14.6543,11.50391 11.8027,14.345703 8.24805,14.345703 Z M8.22852,11.57227 C8.69727,11.57227 8.9707,11.25977 8.9707,10.74219 L8.9707,8.68164 L11.1973,8.68164 C11.6953,8.68164 12.0371,8.42773 12.0371,7.95898 C12.0371,7.48047 11.7148,7.2168 11.1973,7.2168 L8.9707,7.2168 L8.9707,4.9902 C8.9707,4.4727 8.69727,4.1504 8.22852,4.1504 C7.75977,4.1504 7.50586,4.4922 7.50586,4.9902 L7.50586,7.2168 L5.29883,7.2168 C4.78125,7.2168 4.44922,7.48047 4.44922,7.95898 C4.44922,8.42773 4.80078,8.68164 5.29883,8.68164 L7.50586,8.68164 L7.50586,10.74219 C7.50586,11.24023 7.75977,11.57227 8.22852,11.57227 Z" id="Shape"></path>
                </g>
                <g id="Group" transform="translate(282.506000, 1915.000000)" fill="#000000" fill-rule="nonzero">
                    <path d="M10.709,20.91016 C16.1582,20.91016 20.6699,16.39844 20.6699,10.94922 C20.6699,5.5098 16.1484,0.9883 10.6992,0.9883 C5.25977,0.9883 0.74805,5.5098 0.74805,10.94922 C0.74805,16.39844 5.26953,20.91016 10.709,20.91016 Z M10.709,19.25 C6.09961,19.25 2.41797,15.55859 2.41797,10.94922 C2.41797,6.3496 6.08984,2.6484 10.6992,2.6484 C15.3086,2.6484 19,6.3496 19.0098379,10.94922 C19.0195,15.55859 15.3184,19.25 10.709,19.25 Z M10.6895,15.58789 C11.207,15.58789 11.5195,15.22656 11.5195,14.66016 L11.5195,11.76953 L14.5762,11.76953 C15.123,11.76953 15.5039,11.48633 15.5039,10.96875 C15.5039,10.44141 15.1426,10.13867 14.5762,10.13867 L11.5195,10.13867 L11.5195,7.0723 C11.5195,6.4961 11.207,6.1445 10.6895,6.1445 C10.1719,6.1445 9.8789,6.5156 9.8789,7.0723 L9.8789,10.13867 L6.83203,10.13867 C6.26562,10.13867 5.89453,10.44141 5.89453,10.96875 C5.89453,11.48633 6.28516,11.76953 6.83203,11.76953 L9.8789,11.76953 L9.8789,14.66016 C9.8789,15.20703 10.1719,15.58789 10.6895,15.58789 Z" id="Shape"></path>
                </g>
                <g id="Group" transform="translate(306.924000, 1913.000000)" fill="#000000" fill-rule="nonzero">
                    <path d="M12.9707,25.67383 C19.9336,25.67383 25.6953,19.921875 25.6953,12.95898 C25.6953,5.9961 19.9238,0.2441 12.9609,0.2441 C6.00781,0.2441 0.25586,5.9961 0.25586,12.95898 C0.25586,19.921875 6.01758,25.67383 12.9707,25.67383 Z M12.9707,23.85742 C6.93555,23.85742 2.08203,18.99414 2.08203,12.95898 C2.08203,6.9238 6.92578,2.0605 12.9609,2.0605 C19.0059,2.0605 23.8594,6.9238 23.8691295,12.95898 C23.8789,18.99414 19.0156,23.85742 12.9707,23.85742 Z M12.9512,18.93555 C13.5176,18.93555 13.8691,18.54492 13.8691,17.93945 L13.8691,13.86719 L18.1074,13.86719 C18.6934,13.86719 19.1133,13.53516 19.1133,12.97852 C19.1133,12.40234 18.7227,12.06055 18.1074,12.06055 L13.8691,12.06055 L13.8691,7.8125 C13.8691,7.1973 13.5176,6.8066 12.9512,6.8066 C12.3848,6.8066 12.0625,7.2168 12.0625,7.8125 L12.0625,12.06055 L7.83398,12.06055 C7.21875,12.06055 6.80859,12.40234 6.80859,12.97852 C6.80859,13.53516 7.23828,13.86719 7.83398,13.86719 L12.0625,13.86719 L12.0625,17.93945 C12.0625,18.52539 12.3848,18.93555 12.9512,18.93555 Z" id="Shape"></path>
                </g>
                <text id="Design-Variations" fill="#000000" font-family="Helvetica-Bold, Helvetica" font-size="13" font-weight="bold">
                    <tspan x="263" y="1953">Design Variations</tspan>
                </text>
                <text id="Symbols-are-supported-in-up-to-nine-weights-and-three-scales." fill="#000000" font-family="Helvetica" font-size="13" font-weight="normal">
                    <tspan x="263" y="1971">Symbols are supported in up to nine weights and three scales.</tspan>
                </text>
                <text id="For-optimal-layout-with-text-and-other-symbols,-vertically-align" fill="#000000" font-family="Helvetica" font-size="13" font-weight="normal">
                    <tspan x="263" y="1989">For optimal layout with text and other symbols, vertically align</tspan>
                </text>
                <text id="symbols-with-the-adjacent-text." fill="#000000" font-family="Helvetica" font-size="13" font-weight="normal">
                    <tspan x="263" y="2007">symbols with the adjacent text.</tspan>
                </text>
                <rect id="Rectangle" fill="#00AEEF" fill-rule="nonzero" opacity="0.4" x="776" y="1919" width="3" height="14"></rect>
                <g id="Group" transform="translate(779.000000, 1918.000000)" fill="#000000" fill-rule="nonzero">
                    <path d="M10.5273,15 L12.373,15 L7.17773,0.9082 L5.43945,0.9082 L0.244141,15 L2.08984,15 L3.50586,10.9668 L9.11133,10.9668 L10.5273,15 Z M6.2793,3.0469 L6.33789,3.0469 L8.59375,9.47266 L4.02344,9.47266 L6.2793,3.0469 Z" id="Shape"></path>
                </g>
                <rect id="Rectangle" fill="#00AEEF" fill-rule="nonzero" opacity="0.4" x="791.617" y="1919" width="3" height="14"></rect>
                <text id="Margins" fill="#000000" font-family="Helvetica-Bold, Helvetica" font-size="13" font-weight="bold">
                    <tspan x="776" y="1953">Margins</tspan>
                </text>
                <text id="Leading-and-trailing-margins-on-the-left-and-right-side-of-each-symbol" fill="#000000" font-family="Helvetica" font-size="13" font-weight="normal">
                    <tspan x="776" y="1971">Leading and trailing margins on the left and right side of each symbol</tspan>
                </text>
                <text id="can-be-adjusted-by-modifying-the-width-of-the-blue-rectangles." fill="#000000" font-family="Helvetica" font-size="13" font-weight="normal">
                    <tspan x="776" y="1989">can be adjusted by modifying the width of the blue rectangles.</tspan>
                </text>
                <text id="Modifications-are-automatically-applied-proportionally-to-all" fill="#000000" font-family="Helvetica" font-size="13" font-weight="normal">
                    <tspan x="776" y="2007">Modifications are automatically applied proportionally to all</tspan>
                </text>
                <text id="scales-and-weights." fill="#000000" font-family="Helvetica" font-size="13" font-weight="normal">
                    <tspan x="776" y="2025">scales and weights.</tspan>
                </text>
                <g id="Group" transform="translate(1291.000000, 1915.000000)" fill="#000000" fill-rule="nonzero">
                    <path d="M0.83203,21.11523 L2.375,22.6582 C3.22461,23.48828 4.19141,23.41992 5.06055,22.46289 L15.2754,11.33984 C15.7051,11.63281 16.0957,11.62305 16.5645,11.52539 L17.6094,11.31055 L18.3027,12.00391 L18.2539,12.52148 C18.1855,13.04883 18.3516,13.46875 18.8496,13.9668 L19.6602,14.77734 C20.168,15.28516 20.8223,15.31445 21.3008,14.83594 L24.5527,11.58398 C25.0312,11.10547 25.0117,10.45117 24.5039,9.94336 L23.6836,9.12305 C23.1855,8.625 22.7754,8.44922 22.2383,8.52734 L21.7109,8.58594 L21.0566,7.9219 L21.3398,6.7793 C21.4863,6.2129 21.3398,5.7441 20.7148,5.1387 L18.3027,2.7461 C14.7578,-0.7793 10.2266,-0.6719 7.11133,2.4629 C6.69141,2.8926 6.64258,3.4785 6.91602,3.9082 C7.15039,4.2793 7.62891,4.5039 8.2734,4.3379 C9.7871,3.957 11.3008,4.0742 12.7852,5.0801 L12.1602,6.6621 C11.9258,7.248 11.9453,7.7266 12.1797,8.16602 L1.01758,18.439453 C0.08008,19.30859 -0.02734,20.25586 0.83203,21.11523 Z M8.6738,2.8535 C11.3398,0.8613 14.6504,1.1738 17.0527,3.5859 L19.6797,6.1934 C19.9141,6.4277 19.9434,6.6133 19.8848,6.9062 L19.5039,8.46875 L21.0762,10.04102 L22.043,9.95312 C22.3262,9.92383 22.4141,9.94336 22.6387,10.16797 L23.2637,10.79297 L20.5098,13.53711 L19.8848,12.92188 C19.6602,12.69727 19.6406,12.59961 19.6699,12.31641 L19.7578,11.35938 L18.1953,9.79688 L16.5742,10.10938 C16.291,10.16797 16.1445,10.16797 15.9102,9.92383 L13.7324,7.7461 C13.5078,7.5117 13.4785,7.375 13.6055,7.0527 L14.5527,4.7773 C12.9512,3.2441 10.8418,2.3945 8.8008,3.0488 C8.7129,3.0781 8.6445,3.0586 8.6152,3.0195 C8.5859,2.9707 8.5859,2.9219 8.6738,2.8535 Z M2.10156,20.41211 C1.61328,19.91406 1.78906,19.61133 2.12109,19.30859 L13.0781,9.19141 L14.3086,10.42188 L4.15234,21.34961 C3.84961,21.68164 3.46875,21.7793 3.06836,21.37891 L2.10156,20.41211 Z" id="Shape"></path>
                </g>
                <text id="Exporting" fill="#000000" font-family="Helvetica-Bold, Helvetica" font-size="13" font-weight="bold">
                    <tspan x="1289" y="1953">Exporting</tspan>
                </text>
                <text id="Symbols-should-be-outlined-when-exporting-to-ensure-the" fill="#000000" font-family="Helvetica" font-size="13" font-weight="normal">
                    <tspan x="1289" y="1971">Symbols should be outlined when exporting to ensure the</tspan>
                </text>
                <text id="design-is-preserved-when-submitting-to-Xcode." fill="#000000" font-family="Helvetica" font-size="13" font-weight="normal">
                    <tspan x="1289" y="1989">design is preserved when submitting to Xcode.</tspan>
                </text>
                <text id="Template-v.1.0" fill="#000000" font-family="Helvetica" font-size="13" font-weight="normal">
                    <tspan x="2952" y="1933">Template v.1.0</tspan>
                </text>
                <text id="Generated-from-circle" fill="#000000" font-family="Helvetica" font-size="13" font-weight="normal">
                    <tspan x="2911" y="1951">Generated from circle</tspan>
                </text>
                <text id="Typeset-at-100-points" fill="#000000" font-family="Helvetica" font-size="13" font-weight="normal">
                    <tspan x="2912" y="1969">Typeset at 100 points</tspan>
                </text>
                <text id="Small" fill="#000000" font-family="Helvetica" font-size="13" font-weight="normal">
                    <tspan x="263" y="726">Small</tspan>
                </text>
                <text id="Medium" fill="#000000" font-family="Helvetica" font-size="13" font-weight="normal">
                    <tspan x="263" y="1156">Medium</tspan>
                </text>
                <text id="Large" fill="#000000" font-family="Helvetica" font-size="13" font-weight="normal">
                    <tspan x="263" y="1586">Large</tspan>
                </text>
            </g>
            <g id="Guides" transform="translate(263.000000, 625.000000)">
                <g id="H-reference" transform="translate(76.000000, 0.000000)" fill="#27AAE1" fill-rule="nonzero">
                    <path d="M54.9316,71 L57.666,71 L30.5664,0.541 L28.0762,0.541 L0.976562,71 L3.66211,71 L12.9395,46.5371 L45.7031,46.5371 L54.9316,71 Z M29.1992,3.9102 L29.4434,3.9102 L44.8242,44.291 L13.8184,44.291 L29.1992,3.9102 Z" id="Shape"></path>
                </g>
                <line x1="0" y1="71" x2="2773" y2="71" id="Baseline-S" stroke="#27AAE1" stroke-width="0.577"></line>
                <line x1="0" y1="0.541" x2="2773" y2="0.541" id="Capline-S" stroke="#27AAE1" stroke-width="0.577"></line>
                <g id="H-reference" transform="translate(76.000000, 430.000000)" fill="#27AAE1" fill-rule="nonzero">
                    <path d="M54.9316,71 L57.666,71 L30.5664,0.541 L28.0762,0.541 L0.976562,71 L3.66211,71 L12.9395,46.5371 L45.7031,46.5371 L54.9316,71 Z M29.1992,3.9102 L29.4434,3.9102 L44.8242,44.291 L13.8184,44.291 L29.1992,3.9102 Z" id="Shape"></path>
                </g>
                <line x1="0" y1="501" x2="2773" y2="501" id="Baseline-M" stroke="#27AAE1" stroke-width="0.577"></line>
                <line x1="0" y1="430.54" x2="2773" y2="430.54" id="Capline-M" stroke="#27AAE1" stroke-width="0.577"></line>
                <g id="H-reference" transform="translate(76.000000, 860.000000)" fill="#27AAE1" fill-rule="nonzero">
                    <path d="M54.9316,71 L57.666,71 L30.5664,0.541 L28.0762,0.541 L0.976562,71 L3.66211,71 L12.9395,46.5371 L45.7031,46.5371 L54.9316,71 Z M29.1992,3.9102 L29.4434,3.9102 L44.8242,44.291 L13.8184,44.291 L29.1992,3.9102 Z" id="Shape"></path>
                </g>
                <line x1="0" y1="931" x2="2773" y2="931" id="Baseline-L" stroke="#27AAE1" stroke-width="0.577"></line>
                <line x1="0" y1="860.54" x2="2773" y2="860.54" id="Capline-L" stroke="#27AAE1" stroke-width="0.577"></line>
                <rect id="left-margin" fill="#00AEEF" fill-rule="nonzero" opacity="0.4" x="1128.3" y="405.79" width="8.74023" height="119.336"></rect>
                <rect id="right-margin" fill="#00AEEF" fill-rule="nonzero" opacity="0.4" x="1236.65" y="405.79" width="8.74023" height="119.336"></rect>
            </g>
            <g id="Symbols" transform="translate(1399.000000, 1040.000000)" fill="#000000" fill-rule="nonzero">
                <g id="Regular-M" transform="translate(0.300000, 0.000000)">
                    <!-- <path d="M50.5449,100.5508 C77.791,100.5508 100.35,77.99219 100.35,50.7461 C100.35,23.5488 77.7422,0.9414 50.4961,0.9414 C23.2988,0.9414 0.74023,23.5488 0.74023,50.7461 C0.74023,77.99219 23.3477,100.5508 50.5449,100.5508 Z M50.1551,92.0078 C27.1082,92.0078 8.7,73.5508 8.7,50.5039 C8.7,27.5058 27.0594,9 50.1063,9 C73.1532,9 91.6102,27.5058 91.6593938,50.5039 C91.7082,73.5508 73.202,92.0078 50.1551,92.0078 Z" id="Shape"></path> -->
                    <path d="M37.99633,67.9886981 C38.1602666,67.8831585 38.2517661,67.7889268 38.3508906,67.7738498 C38.4271402,67.7587727 38.552952,67.8115424 38.5910768,67.8944664 C38.6292016,67.9698517 38.5987018,68.1470073 38.5682019,68.2563161 C38.5224522,68.4146254 38.4500151,68.5540883 38.3890154,68.7010898 L38.4538276,68.7802445 C38.5453271,68.6671664 38.6520765,68.5653962 38.7245136,68.4297025 C38.8085761,68.2600773 38.8774635,68.0835046 38.9303875,67.9020049 C39.0142621,67.6419254 39.3764477,67.5401551 39.5022595,67.762542 C39.5365718,67.8153117 39.5480093,67.9510054 39.5251344,68.0037751 C39.2849481,68.5201649 39.0485744,69.0440933 38.7778883,69.5227904 C38.6902013,69.6735611 38.4919524,69.6810996 38.3470781,69.7640236 C38.2365162,69.8243319 38.1335792,69.9147943 38.0230173,69.9637948 C37.8705181,70.0278724 37.7065815,70.0693343 37.5502698,70.1221041 C37.4968951,70.1409504 37.4358954,70.1447197 37.3977706,70.1861816 C37.1194596,70.4424919 36.852586,70.7138792 36.574275,70.9588817 C36.5132753,71.0116514 36.4065259,71.0116514 36.3379013,70.9701895 C36.0336544,70.7938132 35.7384587,70.6026012 35.4534059,70.3972607 C35.2665944,70.261567 35.0835954,70.2125665 34.9387212,70.4387226 C34.8014719,70.6573402 34.6413477,70.7515719 34.4621612,70.7025714 C34.1731088,70.6208001 33.8952719,70.5043425 33.6348531,70.3557987 C33.4007407,70.2059056 33.1856996,70.0287358 32.9943565,69.8281011 C32.8188483,69.6590199 32.6651811,69.469113 32.5368589,69.2627108 C32.4522982,69.113065 32.4089175,68.9441083 32.4110471,68.7727059 C32.4415469,68.0829298 32.4758592,67.3893844 32.5635463,66.710916 C32.5892547,66.3614821 32.753717,66.0362856 33.0210438,65.8062916 C33.7072902,65.2597476 34.4621612,64.8602052 35.0607205,64.0799666 C35.2665944,63.8161178 35.4534059,63.5183456 35.6554674,63.243189 C35.7774667,63.0773411 35.9185285,62.9416475 36.0290904,62.7607226 C36.1863013,62.4972374 36.331325,62.2268278 36.4637131,61.9503298 C36.4751505,61.923945 36.4179633,61.7731742 36.383651,61.7618664 C36.1126857,61.6742412 35.8363588,61.6037393 35.5563429,61.5507874 C34.9387212,61.4452479 34.3134745,61.3887088 33.6996652,61.2530152 C33.4404166,61.1964761 33.2002304,60.9740893 32.9447942,60.8610112 C32.32336,60.5896239 31.6943009,60.3333136 31.0690542,60.0807726 C30.9013051,60.0166951 30.7335559,59.9676946 30.5658068,59.9149248 C30.5448461,59.9094558 30.5261668,59.8975837 30.5124321,59.8810014 C30.154059,59.3909965 29.6660616,59.3156111 29.2466888,59.0140696 C28.9645653,58.8142984 28.6976917,58.5617574 28.4193807,58.3393706 C28.2656181,58.2135291 28.1066273,58.0940656 27.9428207,57.9812901 C27.1536374,57.4460539 26.3263293,56.997511 25.6553328,56.1531948 C25.4456465,55.889346 25.3007722,55.523727 25.1101482,55.2259548 C24.9309617,54.9507981 24.7289003,54.7057957 24.5420887,54.4419469 C24.4925265,54.3665615 24.4620267,54.2534835 24.4162769,54.1705596 L24.0655288,53.5109376 C24.0464664,53.4807834 24.0159665,53.4657063 24.0007166,53.4317829 C23.6804683,52.7683917 23.3259077,52.1313853 23.0475967,51.4303013 C22.7235267,50.599155 22.4335419,49.7554077 22.1783513,48.9011221 C22.0029772,48.3357318 21.8809778,47.7326489 21.7513535,47.1408737 C21.6026668,46.4397898 21.476855,45.7236287 21.3396057,45.0150062 C21.329985,44.9677429 21.3236163,44.9198891 21.3205433,44.871774 C21.3045786,44.5790643 21.2893286,44.286317 21.2747936,43.9935345 C21.2442937,43.3942208 21.2023564,42.7949071 21.190919,42.1955934 C21.1794816,41.8073587 21.2214188,41.4191241 21.2290438,41.0308894 C21.2328563,40.5144996 21.2023564,39.9943405 21.2366688,39.48172 C21.2824185,38.7730975 21.381543,38.0757828 21.4501676,37.3709296 C21.4654175,37.2050818 21.4463551,37.0316955 21.4501676,36.8658476 C21.4654175,36.632153 21.4806675,36.4022276 21.5073548,36.1723022 C21.5531046,35.8066832 21.6217292,35.4448334 21.6522291,35.0754451 C21.6911256,34.6669218 21.7127485,34.2569708 21.7170412,33.8466635 C21.7170412,33.5903533 21.6789164,33.3265045 21.6407916,33.0739635 C21.6293542,33.0098859 21.5531046,32.9495776 21.4997299,32.926962 C21.0803571,32.7498064 20.6495469,32.6254205 20.2416115,32.3917259 C20.0509875,32.2786478 19.8832384,31.9921834 19.7421767,31.7434117 C19.6354272,31.5624868 19.7421767,31.2270219 19.9404256,31.102636 C20.2606739,30.9028648 20.5885472,30.7257092 20.9164205,30.5334765 C21.1318699,30.4048999 21.3959292,30.3839588 21.6293542,30.4769374 C21.8161657,30.541015 21.9114777,30.4128599 21.9343526,30.1263955 C21.9724774,29.6665447 22.033477,29.2104632 22.0601644,28.7506125 C22.0716018,28.5508412 21.9915398,28.3359929 22.0144146,28.1399909 C22.0601644,27.7404485 22.1249766,27.3371367 22.2279135,26.9639792 C22.510037,25.9462767 22.9599096,25.0793449 23.4860318,24.3028756 C23.8024677,23.8505633 24.0922161,23.3492506 24.4315268,22.9459389 C24.6402459,22.6897999 24.9101421,22.4890243 25.2168977,22.3617023 C25.6629578,22.1883159 26.1280803,22.0790071 26.5893904,22.0224681 C26.9706384,21.9696983 27.3556988,22.0224681 27.7407593,22.0526222 C28.0533826,22.0752378 28.3698185,22.1016227 28.6786293,22.1657003 C29.4144379,22.3315481 30.1578715,22.4860881 30.8860551,22.7160135 C31.3702401,22.8705535 31.8468001,23.1193252 32.3081101,23.3907126 C32.6283584,23.579176 32.9219194,23.8807175 33.2269177,24.1332585 C33.4175417,24.2915678 33.6081657,24.449877 33.7911648,24.6232634 C34.2105375,25.0039595 34.6413477,25.3771171 35.0492831,25.7879674 C35.413842,26.1632862 35.7599077,26.5557447 36.0862776,26.9639792 C36.56665,27.5557543 37.0165227,28.2078378 37.512145,28.7694588 C37.8972055,29.2029247 38.3318282,29.5421588 38.7588259,29.8927008 C39.1019491,30.175396 39.4565097,30.4128599 39.8110704,30.6654009 C40.3295676,31.0272507 40.8480649,31.3928697 41.3741871,31.7471809 C42.1061832,32.2447244 42.8305544,32.7648835 43.5778004,33.2096571 C44.0505479,33.4923523 44.5537952,33.6808157 45.0494176,33.8655099 C45.5488525,34.0539733 46.0559123,34.2160519 46.5667846,34.344207 C46.9289702,34.4346694 47.2987807,34.4384387 47.6609663,34.5062855 C48.1870885,34.6005172 48.7093982,34.7135953 49.231708,34.8342119 C49.795955,34.962367 50.360202,35.1131378 50.924449,35.2488314 L52.9717506,35.7275285 C54.2374939,36.02907 55.4994248,36.3645349 56.7689805,36.6208452 C57.2188531,36.7150769 57.6877882,36.6585379 58.1452857,36.6057681 C59.0107187,36.5115364 59.8723391,36.379612 60.737772,36.2439183 C61.2677067,36.1572252 61.7938289,36.0215315 62.3199511,35.9122227 L65.8045577,35.1960617 C66.7881775,34.9925212 67.7641723,34.7663651 68.7477921,34.5854402 C69.4340384,34.457285 70.1279098,34.3969767 70.8141561,34.2952065 C71.4432153,34.2009748 72.0722745,34.0728196 72.7013336,33.993665 C73.3303928,33.9107411 73.959452,33.8655099 74.5846987,33.8127401 C75.644568,33.7222777 76.7006249,33.628046 77.7566819,33.5601991 C78.2942415,33.5262757 78.8356136,33.5225064 79.3731733,33.5526606 C79.6629218,33.5715069 79.9564827,33.6883543 80.2424187,33.7863552 C80.5436046,33.8843562 80.5436046,34.3140528 80.6389166,34.6269021 C80.6808539,34.7588265 80.6846663,34.9246743 80.6961038,35.0754451 C80.7189787,35.4259871 80.6465415,35.5579115 80.3339182,35.6559124 C79.3159861,35.9838388 78.2942415,36.2891496 77.2763094,36.6208452 C76.590063,36.8470013 75.9038167,37.0995423 75.2175703,37.3370062 C74.7753226,37.487777 74.3292625,37.6385477 73.8832024,37.7780106 C72.9910821,38.0531672 72.0951493,38.3320931 71.1992166,38.5808648 C70.7950937,38.6901736 70.3833459,38.7052507 69.9792231,38.7957131 C69.3158516,38.9464839 68.6562926,39.1500244 67.9967336,39.2894873 C67.5849857,39.3761805 67.165613,39.3874883 66.7538651,39.4402581 L64.1346915,39.7983386 C63.4026954,39.8925703 62.6706993,39.9679557 61.9425156,40.0810337 C61.3706437,40.1677269 60.8102091,40.3071898 60.2421496,40.4127293 C59.6474028,40.5182689 59.0488435,40.6011928 58.4502841,40.7142708 C57.9622867,40.8047333 57.4742893,40.9291191 56.9862919,41.0346587 C56.3305454,41.1778909 55.6709863,41.2683533 55.0228648,41.4643553 C54.5653672,41.6038182 54.1383695,41.9392831 53.6808719,42.078746 C53.2271868,42.2144397 53.1509372,42.7044446 53.0327503,43.2019881 C52.9256078,43.6519189 52.9256078,44.1203017 53.0327503,44.5702326 C53.0705737,44.7070491 53.1457565,44.8309336 53.2500617,44.9283131 C53.4788105,45.1544692 53.7266216,45.3429326 53.9668079,45.5540117 C54.222244,45.7801678 54.4814926,46.0138624 54.7331163,46.2513263 C54.9351777,46.4397898 55.1258017,46.6433303 55.3240507,46.8317937 C55.8387355,47.3217986 56.3572327,47.7929572 56.868105,48.2905006 C57.3256026,48.7428128 57.7678502,49.2177407 58.2215353,49.6775914 C58.3435347,49.8057466 58.4960339,49.8886705 58.6027833,50.0394412 C58.6793913,50.1638995 58.7153353,50.3086785 58.7057203,50.4540608 C58.6942828,50.5407539 58.5494086,50.6425242 58.4617216,50.6425242 C57.4285395,50.6990632 56.3953575,50.7405252 55.3621755,50.7782179 C55.1258017,50.7857564 54.8856155,50.7480637 54.6492418,50.7593715 C54.3328059,50.7706793 54.0163701,50.8159105 53.6961218,50.8272184 C53.5436226,50.8347569 53.3834985,50.8008335 53.2271868,50.7819871 C53.1509372,50.7744486 53.0746876,50.751833 52.998438,50.751833 C52.3770038,50.7669101 51.7517571,50.7631408 51.1303229,50.808372 C50.5127012,50.8573725 49.8950794,50.9591428 49.2774577,51.0345281 C49.1935832,51.0458359 49.0982712,51.0081432 49.0220216,51.0496052 C48.9100891,51.1195004 48.8119156,51.2088984 48.7322731,51.313454 C48.6064613,51.4642247 48.4958994,51.6376111 48.3777125,51.8034589 C48.1565887,52.1238467 47.9392773,52.4555424 47.714341,52.7646224 C47.4894047,53.0661639 47.2415935,53.3300127 47.0242822,53.6390927 C46.7230962,54.06502 46.4524102,54.5324093 46.1474118,54.9470289 C45.7471014,55.4898036 45.3239162,55.987347 44.9236058,56.5188139 C44.6529197,56.8768944 44.4051085,57.2764368 44.13061,57.6269788 C43.9247361,57.8908276 43.6959873,58.1056759 43.471051,58.3356013 C43.2880519,58.5240647 43.089803,58.6861433 42.9220539,58.8896838 C42.4531189,59.4437663 41.9041218,59.7377692 41.3436872,60.0242336 C40.9853141,60.2089278 40.6536284,60.5067 40.2990678,60.7215483 C40.0970063,60.8459342 39.8606326,60.8685498 39.6623837,61.011782 C39.147923,61.3931325 38.6456991,61.7903578 38.1564541,62.2028708 C37.8922327,62.4295915 37.6402607,62.6699005 37.4015831,62.9228011 C36.9860859,63.308675 36.6944248,63.8067434 36.5628376,64.3551232 C36.5522652,64.5371555 36.6032316,64.7174941 36.7077118,64.8677437 C37.0698974,65.3502101 37.4549578,65.7912145 37.8285809,66.2548345 C37.9467677,66.4056053 38.0573297,66.5714531 38.1602666,66.7486087 C38.267016,66.9370721 38.1983914,67.1142278 38.1373917,67.3064605 C38.0725796,67.4949239 38.0497047,67.7173107 37.99633,67.9886981 L37.99633,67.9886981 Z M30.7,65.8243042 L31.032,65.9443171 C31.096,66.5203792 30.992,67.1204438 31.272,67.6685028 C31.592,68.3085718 31.5,69.0806549 32.848,69.5007002 C34.424,69.9887527 35.968,70.5088088 37.564,70.9728587 C37.832,71.0528674 38.316,70.9328544 38.7,70.9088519 C38.564,70.7008294 38.552,70.4047976 38.276,70.3047868 C36.876,69.7927316 36.58,69.0966567 36.74,68.2805688 C36.7823328,68.104767 36.7581103,67.9195163 36.672,67.7605127 C35.968,66.5403813 36.072,65.3682551 37.412,64.2561353 C37.572,64.1281215 37.72,63.9601034 37.7,63.8160879 C37.668,63.5400582 37.508,63.2720293 37.404,63 C36.896,63.0800086 36.296,63.0960103 35.9,63.2520271 C34.624,63.7560814 33.392,64.2921392 32.212,64.8561999 C31.632,65.1362301 31.2,65.5002693 30.7,65.8243042 L30.7,65.8243042 Z M46.6990926,66.7486619 C46.7270908,65.9126413 46.1071303,65.2286245 44.8472105,64.7686132 C43.2556913,64.1798237 41.655621,63.6144156 40.047516,63.0725714 C39.6828037,62.9863878 39.304174,62.9768531 38.9355868,63.0445707 C38.791596,63.0685713 38.6676039,63.3365779 38.7076013,63.4845815 C39.011582,64.560608 39.3395611,65.6366345 39.6915387,66.7086609 C39.9995191,67.6486841 40.3074995,68.5887072 40.691475,69.5207302 C41.0354531,70.3527507 42.6353513,71.0807686 44.0752596,70.9927664 C45.5991626,70.9047642 46.0351348,70.1287451 46.2671201,69.4607287 C46.5831,68.5767069 46.5711007,67.6566843 46.6990926,66.7486619 L46.6990926,66.7486619 Z M39.0720285,67.9688993 L38.7,68.0369015 C39.0440263,68.6289212 39.3040462,69.2489418 39.7720821,69.8009601 C40.0401026,70.1209708 40.7321556,70.2929765 41.0761819,70.6009867 C41.6962293,71.1650055 42.292275,71.0690023 42.9803276,70.6969899 C44.0964131,70.09697 45.2565019,69.5329512 46.3045821,68.8969301 C46.6046051,68.712924 46.7566167,68.3089106 46.6806109,68.0369015 C46.3205833,66.756859 45.8805496,65.4848167 45.4165141,64.2127744 C45.2955623,63.9561771 45.0807987,63.7557397 44.8164682,63.6527558 C42.4962906,62.7007242 42.4922903,62.7087244 41.1761895,64.2207747 C41.05218,64.3687796 40.8961681,64.500784 40.7761589,64.652789 C39.9080925,65.6928236 38.7720055,66.6808565 39.0720285,67.9688993 L39.0720285,67.9688993 Z M38.7,75.6877267 C41.42,77.2360036 43.044,78.4162147 44.772,78.988317 C45.268,79.1523463 46.048,77.5480594 46.7,76.7559177 C45.488,74.7675621 44.436,72.4511478 42.96,71.0308938 C42.6,70.6868323 40.848,73.279296 38.7,75.683726 L38.7,75.6877267 Z" id="Shape"></path>
                </g>
            </g>
        </g>
    </g>
</svg>