<?xml version="1.0" encoding="UTF-8"?>
<svg width="3300px" height="2200px" viewBox="0 0 3300 2200" version="1.1" xmlns="http://www.w3.org/2000/svg" xmlns:xlink="http://www.w3.org/1999/xlink">
    <!-- Generator: Sketch 59.1 (86144) - https://sketch.com -->
    <title>filter</title>
    <desc>Created with Sketch.</desc>
    <g id="Page-1" stroke="none" stroke-width="1" fill="none" fill-rule="evenodd">
        <g id="filter">
            <g id="Notes">
                <rect id="artboard" fill="#FFFFFF" fill-rule="nonzero" x="0" y="0" width="3300" height="2200"></rect>
                <line x1="263" y1="292" x2="3036" y2="292" id="Path" stroke="#000000" stroke-width="0.5"></line>
                <text id="Weight/Scale-Variations" fill="#000000" font-family="Helvetica-Bold, Helvetica" font-size="13" font-weight="bold">
                    <tspan x="263" y="322">Weight/Scale Variations</tspan>
                </text>
                <text id="Ultralight" fill="#000000" font-family="Helvetica" font-size="13" font-weight="normal">
                    <tspan x="533.711" y="322">Ultralight</tspan>
                </text>
                <text id="Thin" fill="#000000" font-family="Helvetica" font-size="13" font-weight="normal">
                    <tspan x="843.422" y="322">Thin</tspan>
                </text>
                <text id="Light" fill="#000000" font-family="Helvetica" font-size="13" font-weight="normal">
                    <tspan x="1138.63" y="322">Light</tspan>
                </text>
                <text id="Regular" fill="#000000" font-family="Helvetica" font-size="13" font-weight="normal">
                    <tspan x="1426.84" y="322">Regular</tspan>
                </text>
                <text id="Medium" fill="#000000" font-family="Helvetica" font-size="13" font-weight="normal">
                    <tspan x="1723.06" y="322">Medium</tspan>
                </text>
                <text id="Semibold" fill="#000000" font-family="Helvetica" font-size="13" font-weight="normal">
                    <tspan x="2015.77" y="322">Semibold</tspan>
                </text>
                <text id="Bold" fill="#000000" font-family="Helvetica" font-size="13" font-weight="normal">
                    <tspan x="2326.48" y="322">Bold</tspan>
                </text>
                <text id="Heavy" fill="#000000" font-family="Helvetica" font-size="13" font-weight="normal">
                    <tspan x="2618.19" y="322">Heavy</tspan>
                </text>
                <text id="Black" fill="#000000" font-family="Helvetica" font-size="13" font-weight="normal">
                    <tspan x="2917.4" y="322">Black</tspan>
                </text>
                <line x1="263" y1="1903" x2="3036" y2="1903" id="Path" stroke="#000000" stroke-width="0.5"></line>
                <g id="Group" transform="translate(264.000000, 1918.000000)" fill="#000000" fill-rule="nonzero">
                    <path d="M8.24805,15.830078 C12.5547,15.830078 16.1387,12.25586 16.1387,7.94922 C16.1387,3.6426 12.5449,0.0684 8.23828,0.0684 C3.94141,0.0684 0.36719,3.6426 0.36719,7.94922 C0.36719,12.25586 3.95117,15.830078 8.24805,15.830078 Z M8.24805,14.345703 C4.70312,14.345703 1.87109,11.50391 1.87109,7.94922 C1.87109,4.3945 4.69336,1.5527 8.23828,1.5527 C11.793,1.5527 14.6348,4.3945 14.6445503,7.94922 C14.6543,11.50391 11.8027,14.345703 8.24805,14.345703 Z M8.22852,11.57227 C8.69727,11.57227 8.9707,11.25977 8.9707,10.74219 L8.9707,8.68164 L11.1973,8.68164 C11.6953,8.68164 12.0371,8.42773 12.0371,7.95898 C12.0371,7.48047 11.7148,7.2168 11.1973,7.2168 L8.9707,7.2168 L8.9707,4.9902 C8.9707,4.4727 8.69727,4.1504 8.22852,4.1504 C7.75977,4.1504 7.50586,4.4922 7.50586,4.9902 L7.50586,7.2168 L5.29883,7.2168 C4.78125,7.2168 4.44922,7.48047 4.44922,7.95898 C4.44922,8.42773 4.80078,8.68164 5.29883,8.68164 L7.50586,8.68164 L7.50586,10.74219 C7.50586,11.24023 7.75977,11.57227 8.22852,11.57227 Z" id="Shape"></path>
                </g>
                <g id="Group" transform="translate(282.506000, 1915.000000)" fill="#000000" fill-rule="nonzero">
                    <path d="M10.709,20.91016 C16.1582,20.91016 20.6699,16.39844 20.6699,10.94922 C20.6699,5.5098 16.1484,0.9883 10.6992,0.9883 C5.25977,0.9883 0.74805,5.5098 0.74805,10.94922 C0.74805,16.39844 5.26953,20.91016 10.709,20.91016 Z M10.709,19.25 C6.09961,19.25 2.41797,15.55859 2.41797,10.94922 C2.41797,6.3496 6.08984,2.6484 10.6992,2.6484 C15.3086,2.6484 19,6.3496 19.0098379,10.94922 C19.0195,15.55859 15.3184,19.25 10.709,19.25 Z M10.6895,15.58789 C11.207,15.58789 11.5195,15.22656 11.5195,14.66016 L11.5195,11.76953 L14.5762,11.76953 C15.123,11.76953 15.5039,11.48633 15.5039,10.96875 C15.5039,10.44141 15.1426,10.13867 14.5762,10.13867 L11.5195,10.13867 L11.5195,7.0723 C11.5195,6.4961 11.207,6.1445 10.6895,6.1445 C10.1719,6.1445 9.8789,6.5156 9.8789,7.0723 L9.8789,10.13867 L6.83203,10.13867 C6.26562,10.13867 5.89453,10.44141 5.89453,10.96875 C5.89453,11.48633 6.28516,11.76953 6.83203,11.76953 L9.8789,11.76953 L9.8789,14.66016 C9.8789,15.20703 10.1719,15.58789 10.6895,15.58789 Z" id="Shape"></path>
                </g>
                <g id="Group" transform="translate(306.924000, 1913.000000)" fill="#000000" fill-rule="nonzero">
                    <path d="M12.9707,25.67383 C19.9336,25.67383 25.6953,19.921875 25.6953,12.95898 C25.6953,5.9961 19.9238,0.2441 12.9609,0.2441 C6.00781,0.2441 0.25586,5.9961 0.25586,12.95898 C0.25586,19.921875 6.01758,25.67383 12.9707,25.67383 Z M12.9707,23.85742 C6.93555,23.85742 2.08203,18.99414 2.08203,12.95898 C2.08203,6.9238 6.92578,2.0605 12.9609,2.0605 C19.0059,2.0605 23.8594,6.9238 23.8691295,12.95898 C23.8789,18.99414 19.0156,23.85742 12.9707,23.85742 Z M12.9512,18.93555 C13.5176,18.93555 13.8691,18.54492 13.8691,17.93945 L13.8691,13.86719 L18.1074,13.86719 C18.6934,13.86719 19.1133,13.53516 19.1133,12.97852 C19.1133,12.40234 18.7227,12.06055 18.1074,12.06055 L13.8691,12.06055 L13.8691,7.8125 C13.8691,7.1973 13.5176,6.8066 12.9512,6.8066 C12.3848,6.8066 12.0625,7.2168 12.0625,7.8125 L12.0625,12.06055 L7.83398,12.06055 C7.21875,12.06055 6.80859,12.40234 6.80859,12.97852 C6.80859,13.53516 7.23828,13.86719 7.83398,13.86719 L12.0625,13.86719 L12.0625,17.93945 C12.0625,18.52539 12.3848,18.93555 12.9512,18.93555 Z" id="Shape"></path>
                </g>
                <text id="Design-Variations" fill="#000000" font-family="Helvetica-Bold, Helvetica" font-size="13" font-weight="bold">
                    <tspan x="263" y="1953">Design Variations</tspan>
                </text>
                <text id="Symbols-are-supported-in-up-to-nine-weights-and-three-scales." fill="#000000" font-family="Helvetica" font-size="13" font-weight="normal">
                    <tspan x="263" y="1971">Symbols are supported in up to nine weights and three scales.</tspan>
                </text>
                <text id="For-optimal-layout-with-text-and-other-symbols,-vertically-align" fill="#000000" font-family="Helvetica" font-size="13" font-weight="normal">
                    <tspan x="263" y="1989">For optimal layout with text and other symbols, vertically align</tspan>
                </text>
                <text id="symbols-with-the-adjacent-text." fill="#000000" font-family="Helvetica" font-size="13" font-weight="normal">
                    <tspan x="263" y="2007">symbols with the adjacent text.</tspan>
                </text>
                <rect id="Rectangle" fill="#00AEEF" fill-rule="nonzero" opacity="0.4" x="776" y="1919" width="3" height="14"></rect>
                <g id="Group" transform="translate(779.000000, 1918.000000)" fill="#000000" fill-rule="nonzero">
                    <path d="M10.5273,15 L12.373,15 L7.17773,0.9082 L5.43945,0.9082 L0.244141,15 L2.08984,15 L3.50586,10.9668 L9.11133,10.9668 L10.5273,15 Z M6.2793,3.0469 L6.33789,3.0469 L8.59375,9.47266 L4.02344,9.47266 L6.2793,3.0469 Z" id="Shape"></path>
                </g>
                <rect id="Rectangle" fill="#00AEEF" fill-rule="nonzero" opacity="0.4" x="791.617" y="1919" width="3" height="14"></rect>
                <text id="Margins" fill="#000000" font-family="Helvetica-Bold, Helvetica" font-size="13" font-weight="bold">
                    <tspan x="776" y="1953">Margins</tspan>
                </text>
                <text id="Leading-and-trailing-margins-on-the-left-and-right-side-of-each-symbol" fill="#000000" font-family="Helvetica" font-size="13" font-weight="normal">
                    <tspan x="776" y="1971">Leading and trailing margins on the left and right side of each symbol</tspan>
                </text>
                <text id="can-be-adjusted-by-modifying-the-width-of-the-blue-rectangles." fill="#000000" font-family="Helvetica" font-size="13" font-weight="normal">
                    <tspan x="776" y="1989">can be adjusted by modifying the width of the blue rectangles.</tspan>
                </text>
                <text id="Modifications-are-automatically-applied-proportionally-to-all" fill="#000000" font-family="Helvetica" font-size="13" font-weight="normal">
                    <tspan x="776" y="2007">Modifications are automatically applied proportionally to all</tspan>
                </text>
                <text id="scales-and-weights." fill="#000000" font-family="Helvetica" font-size="13" font-weight="normal">
                    <tspan x="776" y="2025">scales and weights.</tspan>
                </text>
                <g id="Group" transform="translate(1291.000000, 1915.000000)" fill="#000000" fill-rule="nonzero">
                    <path d="M0.83203,21.11523 L2.375,22.6582 C3.22461,23.48828 4.19141,23.41992 5.06055,22.46289 L15.2754,11.33984 C15.7051,11.63281 16.0957,11.62305 16.5645,11.52539 L17.6094,11.31055 L18.3027,12.00391 L18.2539,12.52148 C18.1855,13.04883 18.3516,13.46875 18.8496,13.9668 L19.6602,14.77734 C20.168,15.28516 20.8223,15.31445 21.3008,14.83594 L24.5527,11.58398 C25.0312,11.10547 25.0117,10.45117 24.5039,9.94336 L23.6836,9.12305 C23.1855,8.625 22.7754,8.44922 22.2383,8.52734 L21.7109,8.58594 L21.0566,7.9219 L21.3398,6.7793 C21.4863,6.2129 21.3398,5.7441 20.7148,5.1387 L18.3027,2.7461 C14.7578,-0.7793 10.2266,-0.6719 7.11133,2.4629 C6.69141,2.8926 6.64258,3.4785 6.91602,3.9082 C7.15039,4.2793 7.62891,4.5039 8.2734,4.3379 C9.7871,3.957 11.3008,4.0742 12.7852,5.0801 L12.1602,6.6621 C11.9258,7.248 11.9453,7.7266 12.1797,8.16602 L1.01758,18.439453 C0.08008,19.30859 -0.02734,20.25586 0.83203,21.11523 Z M8.6738,2.8535 C11.3398,0.8613 14.6504,1.1738 17.0527,3.5859 L19.6797,6.1934 C19.9141,6.4277 19.9434,6.6133 19.8848,6.9062 L19.5039,8.46875 L21.0762,10.04102 L22.043,9.95312 C22.3262,9.92383 22.4141,9.94336 22.6387,10.16797 L23.2637,10.79297 L20.5098,13.53711 L19.8848,12.92188 C19.6602,12.69727 19.6406,12.59961 19.6699,12.31641 L19.7578,11.35938 L18.1953,9.79688 L16.5742,10.10938 C16.291,10.16797 16.1445,10.16797 15.9102,9.92383 L13.7324,7.7461 C13.5078,7.5117 13.4785,7.375 13.6055,7.0527 L14.5527,4.7773 C12.9512,3.2441 10.8418,2.3945 8.8008,3.0488 C8.7129,3.0781 8.6445,3.0586 8.6152,3.0195 C8.5859,2.9707 8.5859,2.9219 8.6738,2.8535 Z M2.10156,20.41211 C1.61328,19.91406 1.78906,19.61133 2.12109,19.30859 L13.0781,9.19141 L14.3086,10.42188 L4.15234,21.34961 C3.84961,21.68164 3.46875,21.7793 3.06836,21.37891 L2.10156,20.41211 Z" id="Shape"></path>
                </g>
                <text id="Exporting" fill="#000000" font-family="Helvetica-Bold, Helvetica" font-size="13" font-weight="bold">
                    <tspan x="1289" y="1953">Exporting</tspan>
                </text>
                <text id="Symbols-should-be-outlined-when-exporting-to-ensure-the" fill="#000000" font-family="Helvetica" font-size="13" font-weight="normal">
                    <tspan x="1289" y="1971">Symbols should be outlined when exporting to ensure the</tspan>
                </text>
                <text id="design-is-preserved-when-submitting-to-Xcode." fill="#000000" font-family="Helvetica" font-size="13" font-weight="normal">
                    <tspan x="1289" y="1989">design is preserved when submitting to Xcode.</tspan>
                </text>
                <text id="Template-v.1.0" fill="#000000" font-family="Helvetica" font-size="13" font-weight="normal">
                    <tspan x="2952" y="1933">Template v.1.0</tspan>
                </text>
                <text id="Generated-from-circle" fill="#000000" font-family="Helvetica" font-size="13" font-weight="normal">
                    <tspan x="2911" y="1951">Generated from circle</tspan>
                </text>
                <text id="Typeset-at-100-points" fill="#000000" font-family="Helvetica" font-size="13" font-weight="normal">
                    <tspan x="2912" y="1969">Typeset at 100 points</tspan>
                </text>
                <text id="Small" fill="#000000" font-family="Helvetica" font-size="13" font-weight="normal">
                    <tspan x="263" y="726">Small</tspan>
                </text>
                <text id="Medium" fill="#000000" font-family="Helvetica" font-size="13" font-weight="normal">
                    <tspan x="263" y="1156">Medium</tspan>
                </text>
                <text id="Large" fill="#000000" font-family="Helvetica" font-size="13" font-weight="normal">
                    <tspan x="263" y="1586">Large</tspan>
                </text>
            </g>
            <g id="Guides" transform="translate(263.000000, 625.000000)">
                <g id="H-reference" transform="translate(76.000000, 0.000000)" fill="#27AAE1" fill-rule="nonzero">
                    <path d="M54.9316,71 L57.666,71 L30.5664,0.541 L28.0762,0.541 L0.976562,71 L3.66211,71 L12.9395,46.5371 L45.7031,46.5371 L54.9316,71 Z M29.1992,3.9102 L29.4434,3.9102 L44.8242,44.291 L13.8184,44.291 L29.1992,3.9102 Z" id="Shape"></path>
                </g>
                <line x1="0" y1="71" x2="2773" y2="71" id="Baseline-S" stroke="#27AAE1" stroke-width="0.577"></line>
                <line x1="0" y1="0.541" x2="2773" y2="0.541" id="Capline-S" stroke="#27AAE1" stroke-width="0.577"></line>
                <g id="H-reference" transform="translate(76.000000, 430.000000)" fill="#27AAE1" fill-rule="nonzero">
                    <path d="M54.9316,71 L57.666,71 L30.5664,0.541 L28.0762,0.541 L0.976562,71 L3.66211,71 L12.9395,46.5371 L45.7031,46.5371 L54.9316,71 Z M29.1992,3.9102 L29.4434,3.9102 L44.8242,44.291 L13.8184,44.291 L29.1992,3.9102 Z" id="Shape"></path>
                </g>
                <line x1="0" y1="501" x2="2773" y2="501" id="Baseline-M" stroke="#27AAE1" stroke-width="0.577"></line>
                <line x1="0" y1="430.54" x2="2773" y2="430.54" id="Capline-M" stroke="#27AAE1" stroke-width="0.577"></line>
                <g id="H-reference" transform="translate(76.000000, 860.000000)" fill="#27AAE1" fill-rule="nonzero">
                    <path d="M54.9316,71 L57.666,71 L30.5664,0.541 L28.0762,0.541 L0.976562,71 L3.66211,71 L12.9395,46.5371 L45.7031,46.5371 L54.9316,71 Z M29.1992,3.9102 L29.4434,3.9102 L44.8242,44.291 L13.8184,44.291 L29.1992,3.9102 Z" id="Shape"></path>
                </g>
                <line x1="0" y1="931" x2="2773" y2="931" id="Baseline-L" stroke="#27AAE1" stroke-width="0.577"></line>
                <line x1="0" y1="860.54" x2="2773" y2="860.54" id="Capline-L" stroke="#27AAE1" stroke-width="0.577"></line>
                <rect id="left-margin" fill="#00AEEF" fill-rule="nonzero" opacity="0.4" x="1128.3" y="405.79" width="8.74023" height="119.336"></rect>
                <rect id="right-margin" fill="#00AEEF" fill-rule="nonzero" opacity="0.4" x="1236.65" y="405.79" width="8.74023" height="119.336"></rect>
            </g>
            <g id="Symbols" transform="translate(1399.000000, 1040.000000)" fill="#000000" fill-rule="nonzero">
                <g id="Regular-M" transform="translate(0.300000, 0.000000)">
                    <path d="M50.5449,100.5508 C77.791,100.5508 100.35,77.99219 100.35,50.7461 C100.35,23.5488 77.7422,0.9414 50.4961,0.9414 C23.2988,0.9414 0.74023,23.5488 0.74023,50.7461 C0.74023,77.99219 23.3477,100.5508 50.5449,100.5508 Z M50.1551,92.0078 C27.1082,92.0078 8.7,73.5508 8.7,50.5039 C8.7,27.5058 27.0594,9 50.1063,9 C73.1532,9 91.6102,27.5058 91.6593938,50.5039 C91.7082,73.5508 73.202,92.0078 50.1551,92.0078 Z" id="Shape"></path>
                    <path d="M37.074209,76.0661737 C36.7981961,76.056943 36.5451843,76.0846352 36.3151735,76.0246354 C35.574539,75.8354054 34.8707061,75.8400208 34.1944745,76.2646345 C33.9644638,76.4030954 33.6746503,76.4630952 33.412438,76.5184796 C33.3434348,76.5369411 33.1732269,76.3938647 33.1824273,76.347711 C33.2054284,76.2184808 33.2652311,76.0338662 33.3664359,75.9877125 C33.8310576,75.7707903 34.3140801,75.6000217 34.7925024,75.4061764 C34.8109033,75.401561 34.824704,75.3784842 34.7879022,75.4107917 C34.7649012,75.2031003 34.6774971,74.9815627 34.7465003,74.8800246 C34.9627104,74.5754105 35.3123267,74.4784878 35.6665433,74.5107954 C36.0805626,74.556949 36.4853815,74.6631024 36.8948006,74.7184868 C37.6584362,74.8292556 38.4128715,74.7554098 39.153506,74.5615644 C39.3973174,74.4969493 39.6779305,74.5015646 39.88034,74.3769497 C40.4875683,73.9984897 40.7865823,73.3708 41.122398,72.7615716 C41.3892104,72.2769582 41.7618278,71.8477292 42.0884431,71.3954233 C42.5024624,70.8323486 42.9256821,70.269274 43.330501,69.6969686 C43.9607305,68.8154337 44.6185612,67.9523602 45.1843876,67.0200563 C45.4373994,66.6046734 45.4788013,66.0508294 45.6168078,65.5569853 C45.6398088,65.464678 45.6444091,65.3631399 45.6674101,65.2662172 C45.7456138,64.9569877 45.6122076,64.7585269 45.299393,64.6939118 C44.3057466,64.4769896 43.3028998,64.292375 42.323054,64.015453 C41.6574936,63.8108234 41.0110093,63.5482893 40.3909638,63.2308408 C39.4433196,62.7693042 38.5048758,62.2800754 37.5848328,61.7631544 C36.9463838,61.4185184 36.334397,61.0266676 35.7539473,60.5908514 C34.7511005,59.8154699 33.775855,58.9985501 32.8282107,58.1539382 C32.1655054,57.5519184 31.5329657,56.9172954 30.9329223,56.2524074 C30.6385085,55.9385625 30.4360991,55.5370256 30.1830873,55.1816424 C30.091083,55.0524122 29.962277,54.9508741 29.8840733,54.8216439 C29.5160561,54.2078002 29.1480389,53.5985719 28.7938224,52.9754975 C28.4534065,52.3754999 28.1083904,51.7662716 27.8047762,51.1478125 C27.1792475,49.8927639 26.5765197,48.6264058 25.9968918,47.3493663 C25.5222146,46.2674283 25.0758409,45.173212 24.6582293,44.067841 C24.3362143,43.2186137 24.0372003,42.3601556 23.7611875,41.4970822 C23.687584,41.2663139 23.7335862,40.9986226 23.7105851,40.7493929 C23.6967845,40.6340087 23.6415819,40.5186246 23.6507823,40.4263172 C23.664583,40.1493953 23.6415819,39.8632426 23.7059849,39.5955514 C23.7795883,39.263245 23.9543965,38.9494001 24.0372003,38.6170938 C24.131594,38.3028355 24.1781213,37.9760721 24.1752068,37.6478669 C24.1292046,36.8817161 24.0233997,36.1155654 23.9543965,35.3494146 C23.8669924,34.4171107 23.2321628,33.715575 22.3213202,33.6232677 C21.8981005,33.5771141 21.4748807,33.6232677 21.051661,33.6094216 C20.922855,33.6048063 20.7986492,33.5171143 20.6744434,33.4709606 C20.7480468,33.3417304 20.7894487,33.1755772 20.8952537,33.1017314 C21.6910908,32.529426 22.6433353,32.3171191 23.5265765,31.961736 C24.0556012,31.7494291 24.3316141,31.2878925 24.478821,30.7709715 C24.5156227,30.6371259 24.3132132,30.3509732 24.1522057,30.2632813 C23.4111952,29.8699151 22.656268,29.503524 21.8889001,29.1648241 C21.438079,28.9663634 20.9596567,28.8279024 20.4904348,28.6755953 C20.3432279,28.6294417 20.1776202,28.6432878 20.0350135,28.583288 C19.9062075,28.5279036 19.7590006,28.4309809 19.703798,28.3109814 C19.6761968,28.2509817 19.8050028,28.0294441 19.8970071,28.0063673 C20.4720339,27.8494448 21.0470608,27.6971377 21.6358882,27.6094458 C22.1143106,27.5402153 22.6065336,27.5771382 23.0895561,27.5448307 C23.2274841,27.5298318 23.359108,27.4789181 23.4713739,27.397139 C23.8439913,27.1386785 24.2396098,26.8894487 24.566225,26.5756038 C25.5414706,25.6386845 26.5213163,24.7017652 27.4413593,23.7140769 C28.2509971,22.846388 29.17104,22.1679292 30.2290894,21.6833158 C30.4913017,21.5679317 30.8041163,21.5633163 31.0755289,21.4663936 C31.2963392,21.3879324 31.4895483,21.2356253 31.7057583,21.1387026 C31.8437648,21.0740875 32.018573,20.9771648 32.147379,21.004857 C32.2945858,21.0417799 32.4233918,21.1894716 32.5383972,21.3187019 C32.5567981,21.332548 32.4325923,21.4848551 32.3727895,21.572547 L32.2531839,21.7433156 C32.3221871,21.761777 32.3911903,21.7940846 32.4509931,21.7848539 C32.6810039,21.7433156 32.9110146,21.6556236 33.1410254,21.6510082 C33.2422301,21.6510082 33.3434348,21.8171614 33.4446395,21.9048534 C33.5366438,21.98793 33.6286481,22.1171602 33.7298528,22.1356217 C33.9460629,22.1679292 34.2128754,22.1817753 34.1990747,22.4402358 C34.1898743,22.6248505 34.0012655,22.8048498 33.8770597,22.9710029 C33.8310576,23.0310027 33.7390533,23.0540795 33.647049,23.1048485 C33.904661,23.2156173 34.139272,23.3033093 34.355482,23.4279242 C34.4796878,23.50177 34.6314949,23.6263849 34.6498958,23.7509998 C34.6728969,23.8709993 34.5486911,24.0279218 34.4796878,24.157152 C34.3738829,24.3556127 34.2588775,24.5448427 34.1438722,24.7386881 L34.2358765,24.812534 C34.396884,24.775611 34.5532913,24.7017652 34.7096986,24.7063806 C34.8845067,24.7063806 35.1099173,24.724842 35.2157222,24.8309954 C35.2893256,24.914072 35.2433235,25.1633018 35.1881209,25.3202242 C35.0961166,25.5740694 35.2893256,25.9386833 35.5561381,25.9525294 C36.0161596,25.9848369 36.0759624,26.1048365 35.8643525,26.5294501 C35.8229506,26.6125267 35.8459516,26.8063721 35.9103546,26.8525258 C36.6877909,27.4340619 37.138612,28.2509817 37.5526313,29.100209 C37.7136388,29.4325154 37.888447,29.755591 38.0264534,30.0971281 C38.1000569,30.2771274 38.1000569,30.4802035 38.1506592,30.6694335 C38.3346678,31.3432769 38.4910751,32.0355818 38.7440869,32.6863484 C38.8820934,33.0325009 39.1443056,33.3648072 39.4341191,33.6048063 C39.9309423,34.0109585 40.4875683,34.3524956 41.0303937,34.698648 C41.573219,35.0448005 42.1160443,35.3955683 42.6818708,35.6909517 C43.6525161,36.198642 44.6507627,36.6601786 45.6306084,37.1540227 C45.9388228,37.3063298 46.2194359,37.5094059 46.5230501,37.6755591 C46.9646707,37.9155581 47.4246922,38.1186342 47.8525121,38.3770947 C48.4137383,38.7140165 48.9611639,39.0786304 49.5085895,39.452475 C50.313627,40.0063189 51.1186646,40.5601629 51.9053013,41.1370836 C52.7885426,41.7740041 53.676384,42.3970785 54.5228235,43.0847681 C55.3600626,43.7632269 56.1605,44.4924547 56.9471367,45.2355286 C57.5681657,45.8216801 58.1109911,46.5001389 58.7412205,47.067829 C59.417452,47.6678265 60.1396858,48.2216705 60.8803203,48.7339761 C61.7589614,49.3478198 62.6836045,49.8970483 63.5898468,50.4739691 C63.6605822,50.5184198 63.7203502,50.5783846 63.764655,50.649353 C64.3074803,51.5678108 65.1769209,51.9831938 66.1567667,52.1908853 C66.8145974,52.3293462 67.4816285,52.4216536 68.1486597,52.5370377 C69.054902,52.7031909 69.9519438,52.8970363 70.8627864,53.0354972 C71.5114166,53.1370353 72.1784478,53.1416507 72.8270781,53.2385733 C73.9909324,53.4139573 75.1455863,53.6308795 76.3048404,53.8201095 C76.5394514,53.8616478 76.7786625,53.8662631 77.0178737,53.9031861 L81.158067,54.4477992 C82.0321078,54.5677988 82.9061486,54.6785675 83.7801894,54.8170285 C84.9578444,55.0062585 86.1446998,55.1862578 87.3131543,55.4354876 C87.9111823,55.5601025 87.9249829,55.7401017 87.4695616,56.2062537 C87.6811715,56.2708688 87.8697803,56.3262532 88.0537889,56.3908683 C88.2101962,56.437022 88.3850044,56.4693296 88.5138104,56.5662522 C88.6150151,56.6447135 88.7162198,56.815482 88.697819,56.9262508 C88.6886185,57.0139428 88.4908093,57.1247115 88.3712037,57.1293269 C88.0271739,57.1400083 87.6828224,57.1261272 87.3407556,57.0877886 C87.1245455,57.0647118 87.0371414,57.0877886 87.1107449,57.3370184 C87.1797481,57.5677867 87.0417417,57.7339399 86.8255316,57.7293245 C86.0335639,57.7055161 85.2421625,57.6655079 84.4518208,57.609325 C83.8537928,57.572402 83.2649653,57.5031716 82.6715376,57.4524025 C82.2023157,57.4062489 81.7330938,57.3647106 81.2638719,57.3462491 C80.9786586,57.332403 80.6934453,57.383172 80.4128322,57.3693259 C79.4697882,57.3231723 78.5221439,57.2908647 77.5790999,57.1985574 C76.7188597,57.1154808 75.86782,56.9631737 75.0121801,56.8477896 C74.860373,56.8293281 74.690165,56.8847125 74.5475584,56.8477896 C73.7195197,56.6631749 72.8914811,56.6354827 72.054242,56.7554823 C71.5804199,56.815482 71.5482184,56.8431742 71.5482184,57.3093262 C71.5482184,57.6231711 71.3596096,57.7570167 71.0743962,57.6416325 C70.7293801,57.5031716 70.3935645,57.3647106 69.9381432,57.5308637 C70.0945505,57.6231711 70.1957552,57.6924016 70.3061604,57.7385552 C71.2262033,58.1723996 72.1462463,58.606244 73.0708894,59.0308577 C73.5217105,59.2339338 73.9863322,59.4139331 74.4417534,59.6031631 C74.6211618,59.677009 74.7821693,59.778547 74.6947653,60.0046999 C74.6165616,60.2170068 74.4647545,60.2539297 74.2439442,60.1800838 C73.7241199,60.0139307 73.1950952,59.8754697 72.6706708,59.7231626 L72.6292688,59.8200853 C72.9512839,60.0093153 73.2824993,60.1893146 73.5999141,60.3923907 C73.8437255,60.5446978 74.0599356,60.724697 74.2991468,60.8816195 C74.7775691,61.1862336 75.2651919,61.4816171 75.739014,61.795462 C75.8494192,61.8739232 75.9046217,62.0262303 75.9874256,62.1462298 C75.8494192,62.2154603 75.6976121,62.363152 75.5734063,62.3446905 C74.3263568,62.1374427 73.1039112,61.8018256 71.925436,61.3431561 C71.3187048,61.1092157 70.7050625,60.8937335 70.0853501,60.6970048 C69.5011228,60.5123902 68.8984947,60.3508524 68.3096672,60.1662378 C67.4862287,59.9031619 66.6765909,59.6123938 65.8485523,59.3631641 C65.3093033,59.2084057 64.7627407,59.0805571 64.2108758,58.9800887 C63.7849263,58.8997758 63.3549377,58.8427687 62.9228157,58.8093201 C62.7601329,58.8059748 62.5986067,58.8374425 62.4489936,58.9016275 C61.8969678,59.1139343 61.3357416,59.3077797 60.8067169,59.5662402 C59.9786782,59.967777 59.1782409,60.4246982 58.3548024,60.8400812 C57.5405644,61.2554641 56.717126,61.6431549 55.8982878,62.0493071 C55.2726585,62.3585366 54.66083,62.6954583 54.0306006,62.981611 C53.5015759,63.2216101 52.9541503,63.4108401 52.4159252,63.6231469 C52.3193207,63.6600698 52.2273164,63.7154542 52.1261117,63.7477618 C51.4084782,63.9462225 51.4544803,63.9508379 51.3578758,64.7077579 C51.298073,65.2016021 51.1278651,65.704677 50.9162552,66.1569829 C50.4562337,67.1262097 49.9042079,68.0492829 49.4533869,69.0185098 C49.1405723,69.6831225 48.9289624,70.3892735 48.6713504,71.0723477 C48.4781414,71.5708072 48.2481306,72.0508053 48.0917233,72.5584955 C47.8939141,73.2231082 47.7467072,73.9061824 47.5856997,74.5800259 C47.5304971,74.7877173 47.6363021,74.8523325 47.8295111,74.8431017 C48.2619313,74.8246403 48.6943514,74.8107942 49.1313718,74.8015634 C49.1865744,74.8015634 49.2509774,74.8061788 49.30618,74.8246403 C49.5453912,74.8938707 49.8398049,74.9400244 49.8490054,75.2400232 C49.8490054,75.3184844 49.5453912,75.4477147 49.3659828,75.4938683 C49.0899699,75.5630988 48.790956,75.5769449 48.5057426,75.6323293 C48.4045379,75.6554061 48.3125336,75.7246366 48.2205293,75.7846364 C48.2113289,75.7938671 48.2481306,75.9230974 48.2803321,75.9323281 C48.3803495,75.9688436 48.4871048,75.9830196 48.5931467,75.9738664 C48.9933654,75.9138666 49.3935841,75.8446361 49.798403,75.7754057 C50.4700343,75.6600215 51.1416657,75.5123298 51.8224975,75.4246378 C52.282519,75.3692534 52.7517409,75.3738688 53.2163626,75.3692534 C53.9293958,75.3646381 54.6424291,75.3600227 55.346262,75.3969456 C55.4934689,75.401561 55.7510809,75.5861756 55.7418805,75.6738676 C55.7280798,75.9138666 55.4980691,75.8907898 55.3002598,75.8815591 C54.7574345,75.867713 54.2054087,75.816944 53.6717838,75.8861744 C53.1565598,75.9507896 52.6643368,76.2138654 52.1537129,76.2646345 C51.6338887,76.3107881 51.3486754,76.6384791 50.9852584,76.9246318 C50.419432,77.3677069 49.7570011,77.2384767 49.1037706,77.1554001 C48.4689409,77.0769389 47.8157104,76.9477086 47.185481,77.0123238 C46.6184714,77.0865467 46.0714646,77.2715736 45.5754058,77.5569369 C44.8393715,77.9584738 44.1723403,78.4661641 43.4823081,78.9415468 C42.8842802,79.347699 42.5438643,79.966158 42.194248,80.5753863 C42.1528461,80.6446168 42.1482458,80.7369241 42.1022437,80.7830778 C42.001039,80.8707698 41.8768332,80.9307695 41.766428,81 C41.6974248,80.8430776 41.5548181,80.6861551 41.5686188,80.5384634 C41.6468224,79.5415443 42.258651,78.9046238 43.0176864,78.3600106 C43.4409062,78.0553965 43.8319244,77.7046287 44.2275429,77.3630916 C44.2919459,77.3077072 44.3517487,77.1323233 44.3195472,77.0954003 C44.2321431,76.9846316 44.0895365,76.8507859 43.9745311,76.8507859 C43.0406875,76.8600167 42.1114441,76.8784781 41.1776005,76.9292472 C40.5519713,76.9615547 40.0137462,76.7307864 39.4755211,76.4630952 C39.3835168,76.4169415 39.2363099,76.435403 39.1397054,76.4723259 C38.7256861,76.6430945 38.3254674,76.8230937 37.8608457,76.7030942 C37.7688414,76.6800174 37.6630365,76.7769401 37.5618317,76.7769401 C37.4238253,76.7815555 37.2536173,76.7954015 37.161613,76.7215557 C37.1018103,76.6707867 37.1570128,76.4769413 37.1432122,76.3523264 C37.1248113,76.246173 37.0926098,76.1400196 37.074209,76.0661737 L37.074209,76.0661737 Z M51.7,67.8144342 C51.6500116,67.5624428 51.6200185,67.3374504 51.5550335,67.1214578 C51.5100439,66.9729628 51.4050682,66.9549635 51.3200878,67.0989586 C51.185119,67.3149512 51.0351537,67.5219441 50.9251791,67.7514363 C50.5002773,68.6694051 49.8054378,69.3443821 49.2155742,70.1138559 C48.8006701,70.6448378 48.3457752,71.1443208 47.9558653,71.6933021 C47.4559808,72.3952782 47.1010629,73.1872512 46.8761148,74.0467219 C46.8211275,74.2672144 46.6861587,74.4877069 46.7011553,74.6946999 C46.7511437,75.3696769 47.1910421,75.6981657 47.7109219,75.9321577 C47.7759069,75.9636567 47.8508896,76.0041553 47.9208734,75.9996554 C48.1409505,75.9782855 48.3584445,75.9391289 48.5707232,75.8826594 C48.6557036,75.8601602 48.7456828,75.7701633 48.7906724,75.6801663 C49.0756065,75.0951862 49.3605407,74.5192059 49.6154817,73.9207262 C49.9803974,73.0702552 50.3403142,72.2197842 50.6602403,71.3513137 C50.9251791,70.6313383 51.1401294,69.8888635 51.3600786,69.1463888 C51.4900485,68.7054038 51.5900254,68.2464195 51.7,67.8144342 L51.7,67.8144342 Z" id="Shape"></path>
                </g>
            </g>
        </g>
    </g>
</svg>