<?xml version="1.0" encoding="UTF-8"?>
<svg width="3300px" height="2200px" viewBox="0 0 3300 2200" version="1.1" xmlns="http://www.w3.org/2000/svg" xmlns:xlink="http://www.w3.org/1999/xlink">
    <!-- Generator: Sketch 59.1 (86144) - https://sketch.com -->
    <title>filter</title>
    <desc>Created with Sketch.</desc>
    <g id="Page-1" stroke="none" stroke-width="1" fill="none" fill-rule="evenodd">
        <g id="filter">
            <g id="Notes">
                <rect id="artboard" fill="#FFFFFF" fill-rule="nonzero" x="0" y="0" width="3300" height="2200"></rect>
                <line x1="263" y1="292" x2="3036" y2="292" id="Path" stroke="#000000" stroke-width="0.5"></line>
                <text id="Weight/Scale-Variations" fill="#000000" font-family="Helvetica-Bold, Helvetica" font-size="13" font-weight="bold">
                    <tspan x="263" y="322">Weight/Scale Variations</tspan>
                </text>
                <text id="Ultralight" fill="#000000" font-family="Helvetica" font-size="13" font-weight="normal">
                    <tspan x="533.711" y="322">Ultralight</tspan>
                </text>
                <text id="Thin" fill="#000000" font-family="Helvetica" font-size="13" font-weight="normal">
                    <tspan x="843.422" y="322">Thin</tspan>
                </text>
                <text id="Light" fill="#000000" font-family="Helvetica" font-size="13" font-weight="normal">
                    <tspan x="1138.63" y="322">Light</tspan>
                </text>
                <text id="Regular" fill="#000000" font-family="Helvetica" font-size="13" font-weight="normal">
                    <tspan x="1426.84" y="322">Regular</tspan>
                </text>
                <text id="Medium" fill="#000000" font-family="Helvetica" font-size="13" font-weight="normal">
                    <tspan x="1723.06" y="322">Medium</tspan>
                </text>
                <text id="Semibold" fill="#000000" font-family="Helvetica" font-size="13" font-weight="normal">
                    <tspan x="2015.77" y="322">Semibold</tspan>
                </text>
                <text id="Bold" fill="#000000" font-family="Helvetica" font-size="13" font-weight="normal">
                    <tspan x="2326.48" y="322">Bold</tspan>
                </text>
                <text id="Heavy" fill="#000000" font-family="Helvetica" font-size="13" font-weight="normal">
                    <tspan x="2618.19" y="322">Heavy</tspan>
                </text>
                <text id="Black" fill="#000000" font-family="Helvetica" font-size="13" font-weight="normal">
                    <tspan x="2917.4" y="322">Black</tspan>
                </text>
                <line x1="263" y1="1903" x2="3036" y2="1903" id="Path" stroke="#000000" stroke-width="0.5"></line>
                <g id="Group" transform="translate(264.000000, 1918.000000)" fill="#000000" fill-rule="nonzero">
                    <path d="M8.24805,15.830078 C12.5547,15.830078 16.1387,12.25586 16.1387,7.94922 C16.1387,3.6426 12.5449,0.0684 8.23828,0.0684 C3.94141,0.0684 0.36719,3.6426 0.36719,7.94922 C0.36719,12.25586 3.95117,15.830078 8.24805,15.830078 Z M8.24805,14.345703 C4.70312,14.345703 1.87109,11.50391 1.87109,7.94922 C1.87109,4.3945 4.69336,1.5527 8.23828,1.5527 C11.793,1.5527 14.6348,4.3945 14.6445503,7.94922 C14.6543,11.50391 11.8027,14.345703 8.24805,14.345703 Z M8.22852,11.57227 C8.69727,11.57227 8.9707,11.25977 8.9707,10.74219 L8.9707,8.68164 L11.1973,8.68164 C11.6953,8.68164 12.0371,8.42773 12.0371,7.95898 C12.0371,7.48047 11.7148,7.2168 11.1973,7.2168 L8.9707,7.2168 L8.9707,4.9902 C8.9707,4.4727 8.69727,4.1504 8.22852,4.1504 C7.75977,4.1504 7.50586,4.4922 7.50586,4.9902 L7.50586,7.2168 L5.29883,7.2168 C4.78125,7.2168 4.44922,7.48047 4.44922,7.95898 C4.44922,8.42773 4.80078,8.68164 5.29883,8.68164 L7.50586,8.68164 L7.50586,10.74219 C7.50586,11.24023 7.75977,11.57227 8.22852,11.57227 Z" id="Shape"></path>
                </g>
                <g id="Group" transform="translate(282.506000, 1915.000000)" fill="#000000" fill-rule="nonzero">
                    <path d="M10.709,20.91016 C16.1582,20.91016 20.6699,16.39844 20.6699,10.94922 C20.6699,5.5098 16.1484,0.9883 10.6992,0.9883 C5.25977,0.9883 0.74805,5.5098 0.74805,10.94922 C0.74805,16.39844 5.26953,20.91016 10.709,20.91016 Z M10.709,19.25 C6.09961,19.25 2.41797,15.55859 2.41797,10.94922 C2.41797,6.3496 6.08984,2.6484 10.6992,2.6484 C15.3086,2.6484 19,6.3496 19.0098379,10.94922 C19.0195,15.55859 15.3184,19.25 10.709,19.25 Z M10.6895,15.58789 C11.207,15.58789 11.5195,15.22656 11.5195,14.66016 L11.5195,11.76953 L14.5762,11.76953 C15.123,11.76953 15.5039,11.48633 15.5039,10.96875 C15.5039,10.44141 15.1426,10.13867 14.5762,10.13867 L11.5195,10.13867 L11.5195,7.0723 C11.5195,6.4961 11.207,6.1445 10.6895,6.1445 C10.1719,6.1445 9.8789,6.5156 9.8789,7.0723 L9.8789,10.13867 L6.83203,10.13867 C6.26562,10.13867 5.89453,10.44141 5.89453,10.96875 C5.89453,11.48633 6.28516,11.76953 6.83203,11.76953 L9.8789,11.76953 L9.8789,14.66016 C9.8789,15.20703 10.1719,15.58789 10.6895,15.58789 Z" id="Shape"></path>
                </g>
                <g id="Group" transform="translate(306.924000, 1913.000000)" fill="#000000" fill-rule="nonzero">
                    <path d="M12.9707,25.67383 C19.9336,25.67383 25.6953,19.921875 25.6953,12.95898 C25.6953,5.9961 19.9238,0.2441 12.9609,0.2441 C6.00781,0.2441 0.25586,5.9961 0.25586,12.95898 C0.25586,19.921875 6.01758,25.67383 12.9707,25.67383 Z M12.9707,23.85742 C6.93555,23.85742 2.08203,18.99414 2.08203,12.95898 C2.08203,6.9238 6.92578,2.0605 12.9609,2.0605 C19.0059,2.0605 23.8594,6.9238 23.8691295,12.95898 C23.8789,18.99414 19.0156,23.85742 12.9707,23.85742 Z M12.9512,18.93555 C13.5176,18.93555 13.8691,18.54492 13.8691,17.93945 L13.8691,13.86719 L18.1074,13.86719 C18.6934,13.86719 19.1133,13.53516 19.1133,12.97852 C19.1133,12.40234 18.7227,12.06055 18.1074,12.06055 L13.8691,12.06055 L13.8691,7.8125 C13.8691,7.1973 13.5176,6.8066 12.9512,6.8066 C12.3848,6.8066 12.0625,7.2168 12.0625,7.8125 L12.0625,12.06055 L7.83398,12.06055 C7.21875,12.06055 6.80859,12.40234 6.80859,12.97852 C6.80859,13.53516 7.23828,13.86719 7.83398,13.86719 L12.0625,13.86719 L12.0625,17.93945 C12.0625,18.52539 12.3848,18.93555 12.9512,18.93555 Z" id="Shape"></path>
                </g>
                <text id="Design-Variations" fill="#000000" font-family="Helvetica-Bold, Helvetica" font-size="13" font-weight="bold">
                    <tspan x="263" y="1953">Design Variations</tspan>
                </text>
                <text id="Symbols-are-supported-in-up-to-nine-weights-and-three-scales." fill="#000000" font-family="Helvetica" font-size="13" font-weight="normal">
                    <tspan x="263" y="1971">Symbols are supported in up to nine weights and three scales.</tspan>
                </text>
                <text id="For-optimal-layout-with-text-and-other-symbols,-vertically-align" fill="#000000" font-family="Helvetica" font-size="13" font-weight="normal">
                    <tspan x="263" y="1989">For optimal layout with text and other symbols, vertically align</tspan>
                </text>
                <text id="symbols-with-the-adjacent-text." fill="#000000" font-family="Helvetica" font-size="13" font-weight="normal">
                    <tspan x="263" y="2007">symbols with the adjacent text.</tspan>
                </text>
                <rect id="Rectangle" fill="#00AEEF" fill-rule="nonzero" opacity="0.4" x="776" y="1919" width="3" height="14"></rect>
                <g id="Group" transform="translate(779.000000, 1918.000000)" fill="#000000" fill-rule="nonzero">
                    <path d="M10.5273,15 L12.373,15 L7.17773,0.9082 L5.43945,0.9082 L0.244141,15 L2.08984,15 L3.50586,10.9668 L9.11133,10.9668 L10.5273,15 Z M6.2793,3.0469 L6.33789,3.0469 L8.59375,9.47266 L4.02344,9.47266 L6.2793,3.0469 Z" id="Shape"></path>
                </g>
                <rect id="Rectangle" fill="#00AEEF" fill-rule="nonzero" opacity="0.4" x="791.617" y="1919" width="3" height="14"></rect>
                <text id="Margins" fill="#000000" font-family="Helvetica-Bold, Helvetica" font-size="13" font-weight="bold">
                    <tspan x="776" y="1953">Margins</tspan>
                </text>
                <text id="Leading-and-trailing-margins-on-the-left-and-right-side-of-each-symbol" fill="#000000" font-family="Helvetica" font-size="13" font-weight="normal">
                    <tspan x="776" y="1971">Leading and trailing margins on the left and right side of each symbol</tspan>
                </text>
                <text id="can-be-adjusted-by-modifying-the-width-of-the-blue-rectangles." fill="#000000" font-family="Helvetica" font-size="13" font-weight="normal">
                    <tspan x="776" y="1989">can be adjusted by modifying the width of the blue rectangles.</tspan>
                </text>
                <text id="Modifications-are-automatically-applied-proportionally-to-all" fill="#000000" font-family="Helvetica" font-size="13" font-weight="normal">
                    <tspan x="776" y="2007">Modifications are automatically applied proportionally to all</tspan>
                </text>
                <text id="scales-and-weights." fill="#000000" font-family="Helvetica" font-size="13" font-weight="normal">
                    <tspan x="776" y="2025">scales and weights.</tspan>
                </text>
                <g id="Group" transform="translate(1291.000000, 1915.000000)" fill="#000000" fill-rule="nonzero">
                    <path d="M0.83203,21.11523 L2.375,22.6582 C3.22461,23.48828 4.19141,23.41992 5.06055,22.46289 L15.2754,11.33984 C15.7051,11.63281 16.0957,11.62305 16.5645,11.52539 L17.6094,11.31055 L18.3027,12.00391 L18.2539,12.52148 C18.1855,13.04883 18.3516,13.46875 18.8496,13.9668 L19.6602,14.77734 C20.168,15.28516 20.8223,15.31445 21.3008,14.83594 L24.5527,11.58398 C25.0312,11.10547 25.0117,10.45117 24.5039,9.94336 L23.6836,9.12305 C23.1855,8.625 22.7754,8.44922 22.2383,8.52734 L21.7109,8.58594 L21.0566,7.9219 L21.3398,6.7793 C21.4863,6.2129 21.3398,5.7441 20.7148,5.1387 L18.3027,2.7461 C14.7578,-0.7793 10.2266,-0.6719 7.11133,2.4629 C6.69141,2.8926 6.64258,3.4785 6.91602,3.9082 C7.15039,4.2793 7.62891,4.5039 8.2734,4.3379 C9.7871,3.957 11.3008,4.0742 12.7852,5.0801 L12.1602,6.6621 C11.9258,7.248 11.9453,7.7266 12.1797,8.16602 L1.01758,18.439453 C0.08008,19.30859 -0.02734,20.25586 0.83203,21.11523 Z M8.6738,2.8535 C11.3398,0.8613 14.6504,1.1738 17.0527,3.5859 L19.6797,6.1934 C19.9141,6.4277 19.9434,6.6133 19.8848,6.9062 L19.5039,8.46875 L21.0762,10.04102 L22.043,9.95312 C22.3262,9.92383 22.4141,9.94336 22.6387,10.16797 L23.2637,10.79297 L20.5098,13.53711 L19.8848,12.92188 C19.6602,12.69727 19.6406,12.59961 19.6699,12.31641 L19.7578,11.35938 L18.1953,9.79688 L16.5742,10.10938 C16.291,10.16797 16.1445,10.16797 15.9102,9.92383 L13.7324,7.7461 C13.5078,7.5117 13.4785,7.375 13.6055,7.0527 L14.5527,4.7773 C12.9512,3.2441 10.8418,2.3945 8.8008,3.0488 C8.7129,3.0781 8.6445,3.0586 8.6152,3.0195 C8.5859,2.9707 8.5859,2.9219 8.6738,2.8535 Z M2.10156,20.41211 C1.61328,19.91406 1.78906,19.61133 2.12109,19.30859 L13.0781,9.19141 L14.3086,10.42188 L4.15234,21.34961 C3.84961,21.68164 3.46875,21.7793 3.06836,21.37891 L2.10156,20.41211 Z" id="Shape"></path>
                </g>
                <text id="Exporting" fill="#000000" font-family="Helvetica-Bold, Helvetica" font-size="13" font-weight="bold">
                    <tspan x="1289" y="1953">Exporting</tspan>
                </text>
                <text id="Symbols-should-be-outlined-when-exporting-to-ensure-the" fill="#000000" font-family="Helvetica" font-size="13" font-weight="normal">
                    <tspan x="1289" y="1971">Symbols should be outlined when exporting to ensure the</tspan>
                </text>
                <text id="design-is-preserved-when-submitting-to-Xcode." fill="#000000" font-family="Helvetica" font-size="13" font-weight="normal">
                    <tspan x="1289" y="1989">design is preserved when submitting to Xcode.</tspan>
                </text>
                <text id="Template-v.1.0" fill="#000000" font-family="Helvetica" font-size="13" font-weight="normal">
                    <tspan x="2952" y="1933">Template v.1.0</tspan>
                </text>
                <text id="Generated-from-circle" fill="#000000" font-family="Helvetica" font-size="13" font-weight="normal">
                    <tspan x="2911" y="1951">Generated from circle</tspan>
                </text>
                <text id="Typeset-at-100-points" fill="#000000" font-family="Helvetica" font-size="13" font-weight="normal">
                    <tspan x="2912" y="1969">Typeset at 100 points</tspan>
                </text>
                <text id="Small" fill="#000000" font-family="Helvetica" font-size="13" font-weight="normal">
                    <tspan x="263" y="726">Small</tspan>
                </text>
                <text id="Medium" fill="#000000" font-family="Helvetica" font-size="13" font-weight="normal">
                    <tspan x="263" y="1156">Medium</tspan>
                </text>
                <text id="Large" fill="#000000" font-family="Helvetica" font-size="13" font-weight="normal">
                    <tspan x="263" y="1586">Large</tspan>
                </text>
            </g>
            <g id="Guides" transform="translate(263.000000, 625.000000)">
                <g id="H-reference" transform="translate(76.000000, 0.000000)" fill="#27AAE1" fill-rule="nonzero">
                    <path d="M54.9316,71 L57.666,71 L30.5664,0.541 L28.0762,0.541 L0.976562,71 L3.66211,71 L12.9395,46.5371 L45.7031,46.5371 L54.9316,71 Z M29.1992,3.9102 L29.4434,3.9102 L44.8242,44.291 L13.8184,44.291 L29.1992,3.9102 Z" id="Shape"></path>
                </g>
                <line x1="0" y1="71" x2="2773" y2="71" id="Baseline-S" stroke="#27AAE1" stroke-width="0.577"></line>
                <line x1="0" y1="0.541" x2="2773" y2="0.541" id="Capline-S" stroke="#27AAE1" stroke-width="0.577"></line>
                <g id="H-reference" transform="translate(76.000000, 430.000000)" fill="#27AAE1" fill-rule="nonzero">
                    <path d="M54.9316,71 L57.666,71 L30.5664,0.541 L28.0762,0.541 L0.976562,71 L3.66211,71 L12.9395,46.5371 L45.7031,46.5371 L54.9316,71 Z M29.1992,3.9102 L29.4434,3.9102 L44.8242,44.291 L13.8184,44.291 L29.1992,3.9102 Z" id="Shape"></path>
                </g>
                <line x1="0" y1="501" x2="2773" y2="501" id="Baseline-M" stroke="#27AAE1" stroke-width="0.577"></line>
                <line x1="0" y1="430.54" x2="2773" y2="430.54" id="Capline-M" stroke="#27AAE1" stroke-width="0.577"></line>
                <g id="H-reference" transform="translate(76.000000, 860.000000)" fill="#27AAE1" fill-rule="nonzero">
                    <path d="M54.9316,71 L57.666,71 L30.5664,0.541 L28.0762,0.541 L0.976562,71 L3.66211,71 L12.9395,46.5371 L45.7031,46.5371 L54.9316,71 Z M29.1992,3.9102 L29.4434,3.9102 L44.8242,44.291 L13.8184,44.291 L29.1992,3.9102 Z" id="Shape"></path>
                </g>
                <line x1="0" y1="931" x2="2773" y2="931" id="Baseline-L" stroke="#27AAE1" stroke-width="0.577"></line>
                <line x1="0" y1="860.54" x2="2773" y2="860.54" id="Capline-L" stroke="#27AAE1" stroke-width="0.577"></line>
                <rect id="left-margin" fill="#00AEEF" fill-rule="nonzero" opacity="0.4" x="1128.3" y="405.79" width="8.74023" height="119.336"></rect>
                <rect id="right-margin" fill="#00AEEF" fill-rule="nonzero" opacity="0.4" x="1236.65" y="405.79" width="8.74023" height="119.336"></rect>
            </g>
            <g id="Symbols" transform="translate(1399.000000, 1040.000000)" fill="#000000" fill-rule="nonzero">
                <g id="Regular-M" transform="translate(0.300000, 0.000000)">
                    <!-- <path d="M50.5449,100.5508 C77.791,100.5508 100.35,77.99219 100.35,50.7461 C100.35,23.5488 77.7422,0.9414 50.4961,0.9414 C23.2988,0.9414 0.74023,23.5488 0.74023,50.7461 C0.74023,77.99219 23.3477,100.5508 50.5449,100.5508 Z M50.1551,92.0078 C27.1082,92.0078 8.7,73.5508 8.7,50.5039 C8.7,27.5058 27.0594,9 50.1063,9 C73.1532,9 91.6102,27.5058 91.6593938,50.5039 C91.7082,73.5508 73.202,92.0078 50.1551,92.0078 Z" id="Shape"></path> -->
                    <path d="M75.1712211,77.9268947 L74.0100374,77.9268947 C73.3425854,77.9268947 72.6751334,78.0047973 72.0168245,77.9085646 C71.6648121,77.8627395 71.3310861,77.5282163 70.9882169,77.2990908 C70.6224898,77.0562178 70.2796206,76.7354421 69.8727491,76.7308596 C69.6715992,76.7262771 69.4750208,76.4834041 69.2738709,76.3642589 C69.0041471,76.203871 68.7298518,76.0755608 68.4646996,75.9060079 C68.1766895,75.72729 67.8978225,75.5119121 67.614384,75.3331942 C67.3309455,75.1590588 67.0429353,75.0261661 66.7594968,74.8474482 C66.56749,74.7328854 66.3891981,74.5633326 66.2017629,74.4350223 C66.0188993,74.3021295 65.8360358,74.1921493 65.6486006,74.0821691 C65.3514473,73.9034512 65.054294,73.7476459 64.7662839,73.5551805 C64.0159437,73.0448903 63.2825682,72.5099744 62.5673494,71.9513021 C62.1879075,71.6580215 61.8176088,71.3418283 61.4427384,71.0531302 C61.1318704,70.8148397 60.8210023,70.6086268 60.5147058,70.3749188 C60.3775581,70.2741036 60.2358389,70.1870359 60.1261207,70.0220655 C59.8289674,69.5729796 59.4632403,69.5729796 59.1203711,69.4080092 C58.964937,69.3346891 58.8232178,69.1697187 58.6769269,69.0414085 C58.4117747,68.821448 58.1466226,68.5831575 57.8768988,68.3815271 C57.7580375,68.2944594 57.6208898,68.2898769 57.4928853,68.2532168 C57.195732,68.1661491 56.9900105,67.8087134 56.8025753,67.4421126 C56.7150167,67.2510363 56.5715088,67.0912022 56.3911323,66.9838617 C56.071121,66.7913962 55.7465382,66.6218434 55.4402417,66.2919027 C55.052351,65.8856671 54.6919196,65.4539532 54.3613466,64.999635 C54.2607717,64.8529947 54.0733365,64.8346646 53.9316172,64.8575772 C53.6290624,64.8884787 53.333033,64.9657538 53.0538721,65.0867027 C52.7110029,65.251673 52.3818484,65.5220411 52.0389793,65.6915939 C51.8881168,65.7694966 51.718968,65.719089 51.5543908,65.709924 C51.307525,65.6961764 51.0652307,65.6549339 50.8183649,65.6595164 C50.663719,65.6693694 50.5120369,65.7066047 50.3703492,65.7694966 C49.9131902,65.952797 49.4651745,66.1681749 49.0080155,66.3285628 C48.7108622,66.429378 48.4045658,66.420213 48.1074125,66.5118632 C47.7279705,66.6355909 47.3485286,66.8188913 46.9690867,66.9563666 C46.8822265,66.9884442 46.7862231,66.9288715 46.6947914,66.9288715 L45.7804735,66.9563666 C45.3918884,66.9701141 45.0033033,67.0067742 44.6147182,67.0113567 C43.8329765,67.0205217 43.0466631,67.0067742 42.2603497,67.0205217 C41.7300454,67.0296868 41.199741,67.0251042 40.6740082,67.1259195 C40.3859981,67.1809096 40.097988,67.40087 39.8282642,67.616248 C39.5996848,67.7949659 39.4031064,68.0882465 39.1790985,68.2898769 C39.0419509,68.4136047 38.8773737,68.4731773 38.7265112,68.5510799 C38.6305078,68.6060701 38.5345045,68.6702252 38.4339295,68.6885552 C38.3242113,68.7160503 38.2099216,68.7023028 38.1002035,68.7023028 C37.949341,68.7068853 37.8030502,68.6885552 37.6567593,68.7252153 C37.0624527,68.8764381 36.4818609,68.7572929 35.8921258,68.6748077 C35.6772611,68.6427301 35.4578249,68.7206328 35.2383886,68.7252153 C34.9915227,68.7252153 34.7400853,68.6793902 34.4932195,68.6793902 C34.109206,68.6793902 33.7297641,68.7252153 33.3503222,68.7068853 C32.5137592,68.6175159 31.6873093,68.450297 30.881664,68.2073917 C30.5433664,68.0974115 30.2142119,67.9049461 29.8759143,67.7628883 C29.7159087,67.6941506 29.5467599,67.6804031 29.3867543,67.6025005 C29.2404634,67.5291803 29.0987441,67.4146176 28.9570249,67.3046373 C28.9021658,67.2633947 28.8610215,67.1717445 28.8015908,67.1442495 C28.5730114,67.0159392 28.3352887,66.9197065 28.1021377,66.7822312 C27.6449787,66.5072807 27.1878198,66.214 26.7260893,65.9390495 C26.2917883,65.6732639 25.8574873,65.4212259 25.4186147,65.1646053 C25.0346012,64.9354798 24.6414446,64.7384319 24.2665742,64.4772289 C24.1294266,64.3855787 24.0151368,64.1427057 23.8825607,63.9823178 C23.6448381,63.6890372 23.3888291,63.4369992 23.1648212,63.1162235 C22.858302,62.6821987 22.5744811,62.2325069 22.3145056,61.7689657 C22.1819295,61.5352577 22.1179273,61.1824045 21.9944944,60.9257839 C21.7842013,60.495028 21.5373354,60.1146797 21.3316139,59.6839238 C21.130464,59.2714979 20.952172,58.813247 20.7693084,58.3733261 C20.5224426,57.7867648 20.28472,57.1864561 20.0378541,56.6136424 C19.8778485,56.2470416 19.672127,55.9491785 19.5349793,55.5688302 C19.3818716,55.1648463 19.2730377,54.745373 19.2103965,54.317805 C19.137251,53.7816514 19.1326795,53.2134202 19.1189647,52.6589366 C19.1189647,52.3519084 19.1875385,52.0402978 19.1738238,51.7424346 C19.1554665,51.3183125 19.1096542,50.8958328 19.0366761,50.477662 C18.9452443,49.9781684 18.7669523,49.5199175 18.7166648,49.0112589 C18.6709489,48.5621729 18.7303796,48.0672619 18.7623807,47.5906809 C18.7943819,46.9766246 18.8126682,46.3717333 18.7760955,45.7439295 C18.7317002,45.087607 18.7378138,44.4288314 18.7943819,43.7734504 C18.8675273,43.0402488 19.0138181,42.3253773 19.1463942,41.6196709 C19.260684,41.0101971 19.4024032,40.4236358 19.5304077,39.8279096 C19.5395509,39.7820845 19.5441225,39.7179294 19.5624089,39.6904343 C19.9372792,39.1955233 20.0195678,38.375254 20.2252893,37.7016251 C20.362437,37.2571217 20.4812983,36.7851232 20.5910164,36.3177072 C20.6504471,36.0702517 20.6687335,35.7998836 20.7144494,35.5432631 C20.7314317,35.4195095 20.7668766,35.2990179 20.8195959,35.1858273 C20.9504147,34.9154184 21.0057084,34.6145358 20.9796015,34.3151505 C20.9750299,33.843152 21.029889,33.366571 21.052747,32.88999 C21.0801765,32.2988463 20.874455,31.8497603 20.5498721,31.68479 C20.1239387,31.4756434 19.6521436,31.3779061 19.1783954,31.4006744 C18.9498159,31.4006744 18.8949568,31.208209 18.9955318,30.8461907 C19.0851264,30.4470144 19.2978635,30.0862611 19.6035532,29.815126 C19.8412758,29.6180781 20.0607121,29.31105 20.3030063,29.1964872 C20.6230176,29.0544294 20.7190209,28.6282561 20.8607402,28.1975001 C21.107606,27.4368035 21.4687616,26.8960674 21.8847762,26.4149039 C22.5019408,25.7091974 23.1739644,25.3151016 23.8597028,24.9485008 C24.3168617,24.7010453 24.7603059,24.3894346 25.226608,24.1969692 C25.9352043,23.9036886 26.6529439,23.6562331 27.375255,23.4408551 C27.9558468,23.2667198 28.5455818,23.1292445 29.1398884,23.0605069 C29.9580675,22.9227704 30.7984566,23.0213149 31.5628308,23.3446224 C32.2759987,23.6791457 32.9708803,24.105319 33.674905,24.4994149 C33.9263424,24.6368902 34.1960662,24.7377054 34.4155025,24.9759959 C34.6486535,25.2326164 34.9320921,25.255529 35.1469568,25.6358773 C35.311534,25.9245754 35.5766862,26.0208081 35.7869793,26.236186 C35.9698429,26.4240689 36.1344201,26.6623594 36.3035689,26.8777374 C36.5230052,27.161853 36.7287267,27.4872112 36.9664493,27.7255017 C37.3870355,28.1470925 37.8030502,28.6145085 38.2556375,28.8848766 C38.9276611,29.2881374 39.6271143,29.5172629 40.3128527,29.8517861 C40.687723,30.0350865 41.0488786,30.291707 41.4191773,30.5116675 C42.0226271,30.8782683 42.6260769,31.226539 43.2295267,31.6023048 C43.7872606,31.955158 44.3404229,32.3355063 44.8981568,32.7112721 C45.2318828,32.9403976 45.5838952,33.123698 45.8993348,33.4215611 C46.342779,33.8385695 46.7679368,34.328898 47.188523,34.8283916 C47.5313922,35.2362349 47.8239739,35.8273787 48.1897011,36.1114943 C48.9531565,36.7072205 49.5383199,37.7703628 50.2286299,38.5402244 C50.9052251,39.291756 51.563534,40.0982777 52.2447008,40.8360617 C52.9852982,41.6334184 53.7304673,42.394115 54.4847795,43.131899 C54.9876543,43.6268101 55.5179587,44.0438184 56.0299767,44.5066519 C56.2585562,44.7174474 56.4734209,44.9832329 56.7020003,45.1894459 C57.0037252,45.4598139 57.3191649,45.6797744 57.6208898,45.9501425 C57.826614,46.1228438 58.0108076,46.3197863 58.1694805,46.5367037 C58.5032065,47.0178672 58.910078,47.1049349 59.2986631,47.2974003 C59.5043846,47.3982155 59.7055345,47.5402733 59.911256,47.6319235 C60.1855514,47.7464862 60.4689899,47.861049 60.7478569,47.9252041 C61.2278737,48.0397668 61.7124622,48.094757 62.1924791,48.2093197 C62.6130653,48.3147174 63.0245083,48.5163478 63.4496661,48.5942505 C63.851966,48.6721532 64.2588375,48.6400756 64.6657089,48.6675707 C65.38802,48.7133958 66.1149027,48.805046 66.8372138,48.7958809 C67.5778113,48.7867159 68.3001224,48.9104437 69.0270051,49.1487342 C69.4384481,49.2862095 69.8590343,49.3916072 70.2430478,49.6803053 C70.5127716,49.8773532 70.7184931,50.3585167 70.9516442,50.7067874 C71.4499474,51.439989 71.2533691,53.327983 70.6636341,53.7037487 C70.3161933,53.9282917 69.9870388,54.2078248 69.5938822,54.1619997 C69.429305,54.1436697 69.251013,54.3498826 69.0910073,54.4965229 C69.0544346,54.5286005 69.0452915,54.757726 69.0681494,54.8677062 C69.2235834,55.6054902 69.4247334,56.3157792 69.5390231,57.0718933 C69.6304549,57.6630371 69.6121685,58.3045884 69.6350265,58.9232272 C69.6441696,59.07445 69.6487412,59.2394204 69.6213117,59.3723132 C69.5390231,59.784739 69.4384481,60.1879999 69.3470163,60.5912607 C69.3104436,60.7562311 69.2372982,60.9303664 69.2464414,61.0815893 C69.2601561,61.2373946 69.3378732,61.4252775 69.4201618,61.5031801 C70.0236116,62.1172364 70.608775,62.7954479 71.2487975,63.2720289 C71.7973882,63.6890372 72.3916948,63.9319102 72.9860014,64.1472882 C73.8226023,64.4543163 74.6729179,64.6651118 75.5140903,64.9354798 C75.7380982,65.0088 75.9529629,65.1646053 76.1723992,65.2700031 C76.597557,65.467051 77.0272864,65.6228563 77.4478726,65.8473993 C77.8638872,66.0765247 78.2707587,66.3835529 78.6822017,66.6126784 C79.2216492,66.9105415 79.7062377,67.5154328 80.2868295,67.5658404 C80.3234023,67.5658404 80.3554034,67.607083 80.3919761,67.625413 C80.6525567,67.7766358 80.9131373,67.9186936 81.1691463,68.0744989 C81.5211587,68.2807119 81.8685994,68.5006723 82.2206118,68.7160503 C82.2571845,68.7389628 82.2937572,68.7802054 82.33033,68.8077005 C82.6686276,69.0689035 82.7646309,69.4492518 82.6594844,70.0816382 C82.5891795,70.546524 82.4440485,70.9968856 82.229755,71.4151485 C82.0991629,71.7292044 82.0278575,72.0648292 82.0194619,72.4049705 C81.9966039,72.8173964 82.0423198,73.2389873 82.0788925,73.6514132 C82.1063221,73.9721888 81.9554596,74.3479546 81.7268802,74.4029447 C81.5165871,74.4533524 81.3017224,74.4670999 81.0868577,74.50376 L79.8525286,74.7237204 C79.5325173,74.7695455 79.313081,75.0903212 79.0982163,75.5027471 C78.9290675,75.8189402 78.7187744,76.1397159 78.4947665,76.2588611 C78.0467508,76.5063167 77.5804487,76.6392094 77.1141466,76.7721022 C76.8718523,76.8408399 76.6204149,76.7721022 76.3781207,76.8179273 C76.1175401,76.8637524 76.0718242,77.1066254 76.2181151,77.4823912 C76.2455446,77.5419638 76.2181151,77.7710893 76.1815424,77.7940019 C76.0610822,77.8891776 75.9202462,77.955058 75.7700993,77.9864673 C75.573521,78.0139623 75.372371,77.9910498 75.1712211,77.9910498 L75.1712211,77.9268947 L75.1712211,77.9268947 Z M22.885,45.8646215 L23.515,46 L23.515,32 L22.885,32 L22.885,45.8692898 L22.885,45.8646215 Z" id="Shape"></path>
                </g>
            </g>
        </g>
    </g>
</svg>