<?xml version="1.0" encoding="UTF-8"?>
<!--Generator: Apple Native CoreSVG 341-->
<!DOCTYPE svg
PUBLIC "-//W3C//DTD SVG 1.1//EN"
       "http://www.w3.org/Graphics/SVG/1.1/DTD/svg11.dtd">
<svg version="1.1" xmlns="http://www.w3.org/2000/svg" xmlns:xlink="http://www.w3.org/1999/xlink" viewBox="0 0 3300 2200">
 <!--glyph: "", point size: 100.0, font version: "20.0d10e1", template writer version: "138.0.0"-->
 <style>.monochrome-0 {-sfsymbols-motion-group:1;-sfsymbols-layer-tags:7ded948bdf343823}
.monochrome-1 {-sfsymbols-motion-group:0;-sfsymbols-layer-tags:7ded948bdf343823}

.multicolor-0:tintColor {-sfsymbols-motion-group:1;-sfsymbols-layer-tags:7ded948bdf343823}
.multicolor-1:tintColor {-sfsymbols-motion-group:0;-sfsymbols-layer-tags:7ded948bdf343823}

.hierarchical-0:primary {-sfsymbols-motion-group:1;-sfsymbols-layer-tags:7ded948bdf343823}
.hierarchical-1:tertiary {-sfsymbols-motion-group:0;-sfsymbols-layer-tags:7ded948bdf343823}

.SFSymbolsPreviewWireframe {fill:none;opacity:1.0;stroke:black;stroke-width:0.5}
</style>
 <g id="Notes">
  <rect height="2200" id="artboard" style="fill:white;opacity:1" width="3300" x="0" y="0"/>
  <line style="fill:none;stroke:black;opacity:1;stroke-width:0.5;" x1="263" x2="3036" y1="292" y2="292"/>
  <text style="stroke:none;fill:black;font-family:sans-serif;font-size:13;font-weight:bold;" transform="matrix(1 0 0 1 263 322)">Weight/Scale Variations</text>
  <text style="stroke:none;fill:black;font-family:sans-serif;font-size:13;text-anchor:middle;" transform="matrix(1 0 0 1 559.711 322)">Ultralight</text>
  <text style="stroke:none;fill:black;font-family:sans-serif;font-size:13;text-anchor:middle;" transform="matrix(1 0 0 1 856.422 322)">Thin</text>
  <text style="stroke:none;fill:black;font-family:sans-serif;font-size:13;text-anchor:middle;" transform="matrix(1 0 0 1 1153.13 322)">Light</text>
  <text style="stroke:none;fill:black;font-family:sans-serif;font-size:13;text-anchor:middle;" transform="matrix(1 0 0 1 1449.84 322)">Regular</text>
  <text style="stroke:none;fill:black;font-family:sans-serif;font-size:13;text-anchor:middle;" transform="matrix(1 0 0 1 1746.56 322)">Medium</text>
  <text style="stroke:none;fill:black;font-family:sans-serif;font-size:13;text-anchor:middle;" transform="matrix(1 0 0 1 2043.27 322)">Semibold</text>
  <text style="stroke:none;fill:black;font-family:sans-serif;font-size:13;text-anchor:middle;" transform="matrix(1 0 0 1 2339.98 322)">Bold</text>
  <text style="stroke:none;fill:black;font-family:sans-serif;font-size:13;text-anchor:middle;" transform="matrix(1 0 0 1 2636.69 322)">Heavy</text>
  <text style="stroke:none;fill:black;font-family:sans-serif;font-size:13;text-anchor:middle;" transform="matrix(1 0 0 1 2933.4 322)">Black</text>
  <line style="fill:none;stroke:black;opacity:1;stroke-width:0.5;" x1="263" x2="3036" y1="1903" y2="1903"/>
  <g transform="matrix(0.2 0 0 0.2 263 1933)">
   <path d="m46.2402 4.15039c21.7773 0 39.4531-17.627 39.4531-39.4043s-17.6758-39.4043-39.4531-39.4043c-21.7285 0-39.4043 17.627-39.4043 39.4043s17.6758 39.4043 39.4043 39.4043Zm0-7.42188c-17.6758 0-31.9336-14.3066-31.9336-31.9824s14.2578-31.9824 31.9336-31.9824 31.9824 14.3066 31.9824 31.9824-14.3066 31.9824-31.9824 31.9824Zm-17.9688-31.9824c0 2.14844 1.51367 3.61328 3.75977 3.61328h10.498v10.5957c0 2.19727 1.46484 3.71094 3.61328 3.71094 2.24609 0 3.71094-1.51367 3.71094-3.71094v-10.5957h10.5957c2.19727 0 3.71094-1.46484 3.71094-3.61328 0-2.19727-1.51367-3.71094-3.71094-3.71094h-10.5957v-10.5469c0-2.24609-1.46484-3.75977-3.71094-3.75977-2.14844 0-3.61328 1.51367-3.61328 3.75977v10.5469h-10.498c-2.24609 0-3.75977 1.51367-3.75977 3.71094Z"/>
  </g>
  <g transform="matrix(0.2 0 0 0.2 281.506 1933)">
   <path d="m58.5449 14.5508c27.4902 0 49.8047-22.3145 49.8047-49.8047s-22.3145-49.8047-49.8047-49.8047-49.8047 22.3145-49.8047 49.8047 22.3145 49.8047 49.8047 49.8047Zm0-8.30078c-22.9492 0-41.5039-18.5547-41.5039-41.5039s18.5547-41.5039 41.5039-41.5039 41.5039 18.5547 41.5039 41.5039-18.5547 41.5039-41.5039 41.5039Zm-22.6562-41.5039c0 2.39258 1.66016 4.00391 4.15039 4.00391h14.3555v14.4043c0 2.44141 1.66016 4.15039 4.05273 4.15039 2.44141 0 4.15039-1.66016 4.15039-4.15039v-14.4043h14.4043c2.44141 0 4.15039-1.61133 4.15039-4.00391 0-2.44141-1.70898-4.15039-4.15039-4.15039h-14.4043v-14.3555c0-2.49023-1.70898-4.19922-4.15039-4.19922-2.39258 0-4.05273 1.70898-4.05273 4.19922v14.3555h-14.3555c-2.49023 0-4.15039 1.70898-4.15039 4.15039Z"/>
  </g>
  <g transform="matrix(0.2 0 0 0.2 304.924 1933)">
   <path d="m74.8535 28.3203c35.1074 0 63.623-28.4668 63.623-63.5742s-28.5156-63.623-63.623-63.623-63.5742 28.5156-63.5742 63.623 28.4668 63.5742 63.5742 63.5742Zm0-9.08203c-30.127 0-54.4922-24.3652-54.4922-54.4922s24.3652-54.4922 54.4922-54.4922 54.4922 24.3652 54.4922 54.4922-24.3652 54.4922-54.4922 54.4922Zm-28.8574-54.4922c0 2.58789 1.85547 4.39453 4.58984 4.39453h19.7266v19.7754c0 2.68555 1.85547 4.58984 4.44336 4.58984 2.68555 0 4.54102-1.85547 4.54102-4.58984v-19.7754h19.7754c2.68555 0 4.58984-1.80664 4.58984-4.39453 0-2.73438-1.85547-4.58984-4.58984-4.58984h-19.7754v-19.7266c0-2.73438-1.85547-4.63867-4.54102-4.63867-2.58789 0-4.44336 1.9043-4.44336 4.63867v19.7266h-19.7266c-2.73438 0-4.58984 1.85547-4.58984 4.58984Z"/>
  </g>
  <text style="stroke:none;fill:black;font-family:sans-serif;font-size:13;font-weight:bold;" transform="matrix(1 0 0 1 263 1953)">Design Variations</text>
  <text style="stroke:none;fill:black;font-family:sans-serif;font-size:13;" transform="matrix(1 0 0 1 263 1971)">Symbols are supported in up to nine weights and three scales.</text>
  <text style="stroke:none;fill:black;font-family:sans-serif;font-size:13;" transform="matrix(1 0 0 1 263 1989)">For optimal layout with text and other symbols, vertically align</text>
  <text style="stroke:none;fill:black;font-family:sans-serif;font-size:13;" transform="matrix(1 0 0 1 263 2007)">symbols with the adjacent text.</text>
  <line style="fill:none;stroke:#00AEEF;stroke-width:0.5;opacity:1.0;" x1="776" x2="776" y1="1919" y2="1933"/>
  <g transform="matrix(0.2 0 0 0.2 776 1933)">
   <path d="m16.5527 0.78125c2.58789 0 3.85742-0.976562 4.78516-3.71094l6.29883-17.2363h28.8086l6.29883 17.2363c0.927734 2.73438 2.19727 3.71094 4.73633 3.71094 2.58789 0 4.24805-1.5625 4.24805-4.00391 0-0.830078-0.146484-1.61133-0.537109-2.63672l-22.9004-60.9863c-1.12305-2.97852-3.125-4.49219-6.25-4.49219-3.02734 0-5.07812 1.46484-6.15234 4.44336l-22.9004 61.084c-0.390625 1.02539-0.537109 1.80664-0.537109 2.63672 0 2.44141 1.5625 3.95508 4.10156 3.95508Zm13.4766-28.3691 11.8652-32.8613h0.244141l11.8652 32.8613Z"/>
  </g>
  <line style="fill:none;stroke:#00AEEF;stroke-width:0.5;opacity:1.0;" x1="792.836" x2="792.836" y1="1919" y2="1933"/>
  <text style="stroke:none;fill:black;font-family:sans-serif;font-size:13;font-weight:bold;" transform="matrix(1 0 0 1 776 1953)">Margins</text>
  <text style="stroke:none;fill:black;font-family:sans-serif;font-size:13;" transform="matrix(1 0 0 1 776 1971)">Leading and trailing margins on the left and right side of each symbol</text>
  <text style="stroke:none;fill:black;font-family:sans-serif;font-size:13;" transform="matrix(1 0 0 1 776 1989)">can be adjusted by modifying the x-location of the margin guidelines.</text>
  <text style="stroke:none;fill:black;font-family:sans-serif;font-size:13;" transform="matrix(1 0 0 1 776 2007)">Modifications are automatically applied proportionally to all</text>
  <text style="stroke:none;fill:black;font-family:sans-serif;font-size:13;" transform="matrix(1 0 0 1 776 2025)">scales and weights.</text>
  <g transform="matrix(0.2 0 0 0.2 1289 1933)">
   <path d="m14.209 9.32617 8.49609 8.54492c4.29688 4.3457 9.22852 4.05273 13.8672-1.07422l53.4668-58.9355-4.83398-4.88281-53.0762 58.3984c-1.75781 2.00195-3.41797 2.49023-5.76172 0.146484l-5.85938-5.81055c-2.34375-2.29492-1.80664-4.00391 0.195312-5.81055l57.373-54.0039-4.88281-4.83398-57.959 54.4434c-4.93164 4.58984-5.32227 9.47266-1.02539 13.8184Zm32.0801-90.9668c-2.09961 2.05078-2.24609 4.93164-1.07422 6.88477 1.17188 1.80664 3.4668 2.97852 6.68945 2.14844 7.32422-1.70898 14.9414-2.00195 22.0703 2.68555l-2.92969 7.27539c-1.70898 4.15039-0.830078 7.08008 1.85547 9.81445l11.4746 11.5723c2.44141 2.44141 4.49219 2.53906 7.32422 2.05078l5.32227-0.976562 3.32031 3.36914-0.195312 2.7832c-0.195312 2.49023 0.439453 4.39453 2.88086 6.78711l3.80859 3.71094c2.39258 2.39258 5.46875 2.53906 7.8125 0.195312l14.5508-14.5996c2.34375-2.34375 2.24609-5.32227-0.146484-7.71484l-3.85742-3.80859c-2.39258-2.39258-4.24805-3.17383-6.64062-2.97852l-2.88086 0.244141-3.22266-3.17383 1.2207-5.61523c0.634766-2.83203-0.146484-5.0293-3.07617-7.95898l-10.9863-10.9375c-16.6992-16.6016-38.8672-16.2109-53.3203-1.75781Zm7.4707 1.85547c12.1582-8.88672 28.6133-7.37305 39.7461 3.75977l12.1582 12.0605c1.17188 1.17188 1.36719 2.09961 1.02539 3.80859l-1.61133 7.42188 7.51953 7.42188 4.93164-0.292969c1.26953-0.0488281 1.66016 0.0488281 2.63672 1.02539l2.88086 2.88086-12.207 12.207-2.88086-2.88086c-0.976562-0.976562-1.12305-1.36719-1.07422-2.68555l0.341797-4.88281-7.4707-7.42188-7.61719 1.26953c-1.61133 0.341797-2.34375 0.195312-3.56445-0.976562l-10.0098-10.0098c-1.26953-1.17188-1.41602-2.00195-0.634766-3.85742l4.39453-10.4492c-7.8125-7.27539-17.9688-10.4004-28.125-7.42188-0.78125 0.195312-1.07422-0.439453-0.439453-0.976562Z"/>
  </g>
  <text style="stroke:none;fill:black;font-family:sans-serif;font-size:13;font-weight:bold;" transform="matrix(1 0 0 1 1289 1953)">Exporting</text>
  <text style="stroke:none;fill:black;font-family:sans-serif;font-size:13;" transform="matrix(1 0 0 1 1289 1971)">Symbols should be outlined when exporting to ensure the</text>
  <text style="stroke:none;fill:black;font-family:sans-serif;font-size:13;" transform="matrix(1 0 0 1 1289 1989)">design is preserved when submitting to Xcode.</text>
  <text id="template-version" style="stroke:none;fill:black;font-family:sans-serif;font-size:13;text-anchor:end;" transform="matrix(1 0 0 1 3036 1933)">Template v.6.0</text>
  <text style="stroke:none;fill:black;font-family:sans-serif;font-size:13;text-anchor:end;" transform="matrix(1 0 0 1 3036 1951)">Requires Xcode 16 or greater</text>
  <text id="descriptive-name" style="stroke:none;fill:black;font-family:sans-serif;font-size:13;text-anchor:end;" transform="matrix(1 0 0 1 3036 1969)">Generated from filtervogelgruppe-53</text>
  <text style="stroke:none;fill:black;font-family:sans-serif;font-size:13;text-anchor:end;" transform="matrix(1 0 0 1 3036 1987)">Typeset at 100.0 points</text>
  <text style="stroke:none;fill:black;font-family:sans-serif;font-size:13;" transform="matrix(1 0 0 1 263 726)">Small</text>
  <text style="stroke:none;fill:black;font-family:sans-serif;font-size:13;" transform="matrix(1 0 0 1 263 1156)">Medium</text>
  <text style="stroke:none;fill:black;font-family:sans-serif;font-size:13;" transform="matrix(1 0 0 1 263 1586)">Large</text>
 </g>
 <g id="Guides">
  <g id="H-reference" style="fill:#27AAE1;stroke:none;" transform="matrix(1 0 0 1 339 696)">
   <path d="M0.993654 0L3.63775 0L29.3281-67.1323L30.0303-67.1323L30.0303-70.459L28.1226-70.459ZM11.6885-24.4799L46.9815-24.4799L46.2315-26.7285L12.4385-26.7285ZM55.1196 0L57.7637 0L30.6382-70.459L29.4326-70.459L29.4326-67.1323Z"/>
  </g>
  <line id="Baseline-S" style="fill:none;stroke:#27AAE1;opacity:1;stroke-width:0.5;" x1="263" x2="3036" y1="696" y2="696"/>
  <line id="Capline-S" style="fill:none;stroke:#27AAE1;opacity:1;stroke-width:0.5;" x1="263" x2="3036" y1="625.541" y2="625.541"/>
  <g id="H-reference" style="fill:#27AAE1;stroke:none;" transform="matrix(1 0 0 1 339 1126)">
   <path d="M0.993654 0L3.63775 0L29.3281-67.1323L30.0303-67.1323L30.0303-70.459L28.1226-70.459ZM11.6885-24.4799L46.9815-24.4799L46.2315-26.7285L12.4385-26.7285ZM55.1196 0L57.7637 0L30.6382-70.459L29.4326-70.459L29.4326-67.1323Z"/>
  </g>
  <line id="Baseline-M" style="fill:none;stroke:#27AAE1;opacity:1;stroke-width:0.5;" x1="263" x2="3036" y1="1126" y2="1126"/>
  <line id="Capline-M" style="fill:none;stroke:#27AAE1;opacity:1;stroke-width:0.5;" x1="263" x2="3036" y1="1055.54" y2="1055.54"/>
  <g id="H-reference" style="fill:#27AAE1;stroke:none;" transform="matrix(1 0 0 1 339 1556)">
   <path d="M0.993654 0L3.63775 0L29.3281-67.1323L30.0303-67.1323L30.0303-70.459L28.1226-70.459ZM11.6885-24.4799L46.9815-24.4799L46.2315-26.7285L12.4385-26.7285ZM55.1196 0L57.7637 0L30.6382-70.459L29.4326-70.459L29.4326-67.1323Z"/>
  </g>
  <line id="Baseline-L" style="fill:none;stroke:#27AAE1;opacity:1;stroke-width:0.5;" x1="263" x2="3036" y1="1556" y2="1556"/>
  <line id="Capline-L" style="fill:none;stroke:#27AAE1;opacity:1;stroke-width:0.5;" x1="263" x2="3036" y1="1485.54" y2="1485.54"/>
  <line id="right-margin-Black-S" style="fill:none;stroke:#00AEEF;stroke-width:0.5;opacity:1.0;" x1="2982.23" x2="2982.23" y1="600.785" y2="720.121"/>
  <line id="left-margin-Black-S" style="fill:none;stroke:#00AEEF;stroke-width:0.5;opacity:1.0;" x1="2884.57" x2="2884.57" y1="600.785" y2="720.121"/>
  <line id="right-margin-Regular-S" style="fill:none;stroke:#00AEEF;stroke-width:0.5;opacity:1.0;" x1="1496.11" x2="1496.11" y1="600.785" y2="720.121"/>
  <line id="left-margin-Regular-S" style="fill:none;stroke:#00AEEF;stroke-width:0.5;opacity:1.0;" x1="1403.58" x2="1403.58" y1="600.785" y2="720.121"/>
  <line id="right-margin-Ultralight-S" style="fill:none;stroke:#00AEEF;stroke-width:0.5;opacity:1.0;" x1="603.773" x2="603.773" y1="600.785" y2="720.121"/>
  <line id="left-margin-Ultralight-S" style="fill:none;stroke:#00AEEF;stroke-width:0.5;opacity:1.0;" x1="515.649" x2="515.649" y1="600.785" y2="720.121"/>
 </g>
 <g id="Symbols">
  <g id="Black-S" transform="matrix(1 0 0 1 2884.57 696)">
   <path class="monochrome-0 multicolor-0:tintColor hierarchical-0:primary SFSymbolsPreviewWireframe" d="M63.2113-40.9978C63.2036-40.9323 63.1883-40.8667 63.1845-40.805C63.1768-40.3922 63.1921-39.9795 63.1653-39.5707C63.1346-39.1502 63.0656-38.7375 63.012-38.3209C62.9775-37.993 62.9621-37.6652 62.9046-37.345C62.851-37.0133 62.759-36.6893 62.6785-36.3653C62.667-36.3151 62.6248-36.2496 62.5903-36.238C62.207-36.1454 62.23-35.7443 62.1686-35.3894C62.138-35.2081 62.0536-35.0423 62-34.8687C61.908-34.591 61.8236-34.3055 61.7278-34.0278C61.6435-33.7964 61.4978-33.7694 61.356-33.9584C61.2793-34.0664 61.2103-34.0741 61.1643-33.9314C61.0991-33.7308 61.057-33.5264 60.9918-33.3296C60.8346-32.8668 60.6698-32.4116 60.505-31.9526C60.505-31.9449 60.4973-31.941 60.4935-31.9372C60.0105-31.779 60.0258-31.104 59.746-30.7337C59.585-30.5254 59.447-30.2863 59.2975-30.0587C58.9371-29.5071 58.5921-28.9401 58.2165-28.4078C57.8255-27.8408 57.4038-27.3085 56.9974-26.7569C56.8824-26.6026 56.7943-26.4136 56.6678-26.2786C56.2768-25.862 55.8973-25.43 55.4756-25.0636C55.1958-24.8244 54.8546-24.6894 54.5364-24.5197C54.2643-24.3693 53.9768-24.2574 53.7046-24.0954C53.5283-23.9951 53.3711-23.8447 53.2063-23.7097C53.1373-23.6595 53.0759-23.5785 53.0031-23.54C52.4588-23.2507 51.9183-22.9459 51.3624-22.6914C50.9791-22.5178 50.5689-22.4136 50.1703-22.2671C50.1051-22.2478 49.9978-22.1668 50.0016-22.1282C50.0102-22.0324 50.0508-21.9427 50.1166-21.8736C50.4348-21.6036 50.7491-21.3413 51.0788-21.1022C51.4199-20.8515 51.7764-20.6432 52.1176-20.4002C52.4243-20.1803 52.7079-19.8872 53.0299-19.7059C53.4439-19.4783 53.8809-19.3279 54.3103-19.1581C54.3754-19.1311 54.4636-19.1929 54.5403-19.216C54.8086-19.3047 55.0578-19.4204 55.3529-19.3124C55.6133-19.2131 55.8934-19.1787 56.1694-19.2121C56.9093-19.3163 57.6376-19.5053 58.3775-19.5979C58.7685-19.6519 59.1671-19.567 59.5658-19.5631C59.8265-19.5631 60.0948-19.54 60.2175-19.2121C60.3708-18.8187 60.4743-18.3905 60.5893-17.9778C60.597-17.9547 60.5395-17.8698 60.528-17.8737C60.4705-17.8968 60.4053-17.9277 60.3746-17.9894C60.2405-18.2208 60.1446-18.5024 59.9836-18.6953C59.7843-18.9344 59.5313-19.081 59.2246-19.027C58.5576-18.9113 57.883-18.8303 57.2083-18.7338C56.5758-18.6451 55.9433-18.568 55.3146-18.4638C55.2341-18.4484 55.1268-18.3018 55.1076-18.1938C55.0769-18.0203 55.1651-17.9084 55.3184-17.9007C55.6941-17.8775 56.0736-17.8158 56.4493-17.8351C56.7176-17.8467 56.9859-17.9508 57.2466-18.0395C57.8309-18.2398 58.4643-18.2398 59.0483-18.0395C59.1863-17.9933 59.3166-17.8698 59.4355-17.7502C59.4815-17.704 59.4815-17.5728 59.5006-17.4802C59.424-17.4648 59.3243-17.4031 59.2783-17.4417C59.0368-17.6615 58.8068-17.5844 58.55-17.5072C58.2011-17.4031 57.8331-17.4147 57.4766-17.3375C57.1585-17.2681 56.8441-17.1331 56.5259-17.0637C56.2691-17.0058 56.0046-16.9981 55.7401-16.9827C55.3223-16.9557 54.9044-16.9287 54.4866-16.9287C54.1723-16.9287 53.8579-16.9672 53.5398-16.9865C53.1794-17.0097 52.8191-17.0559 52.4588-17.0328C52.0141-17.0058 51.5771-16.9248 51.1324-16.8515C50.7491-16.7821 50.3734-16.6741 49.9901-16.6124C49.6834-16.5661 49.3768-16.5584 49.0663-16.5352C49.0356-16.5352 48.9973-16.5352 48.9781-16.5545C48.7289-16.8284 48.4836-16.6316 48.2344-16.5584C48.052-16.5082 47.8639-16.4825 47.6748-16.4812C47.4294-16.4774 47.4179-16.7281 47.4332-16.9441C47.4524-17.1794 47.5636-17.2835 47.7783-17.2912C48.6983-17.3375 49.6144-17.407 50.5306-17.4957C50.7146-17.515 50.8871-17.6654 51.0673-17.7464C51.1439-17.7811 51.2244-17.7927 51.3356-17.8235C51.3663-17.9431 51.2053-18.1244 51.0059-18.0935C50.7453-18.055 50.4884-17.9778 50.2278-17.9508C49.7486-17.9045 49.2694-17.8968 48.7903-17.8505C48.3648-17.8081 47.9393-17.7425 47.5138-17.677C47.3083-17.65 47.1058-17.6046 46.9081-17.542C46.8122-17.5072 46.7394-17.3877 46.6436-17.3337C46.5554-17.2835 46.4442-17.2257 46.3599-17.2527C46.2986-17.2681 46.2142-17.4262 46.2219-17.5111C46.2414-17.6236 46.2951-17.7274 46.3752-17.8081C46.5714-18.0199 46.8161-18.1803 47.0882-18.2745C47.3604-18.3687 47.6514-18.3938 47.9354-18.3481C48.0587-18.3414 48.1808-18.3735 48.2843-18.4407C48.427-18.5342 48.5903-18.5918 48.7599-18.6078C48.9295-18.6239 49.1004-18.5985 49.2579-18.5333C49.4304-18.4715 49.6259-18.514 49.8138-18.5256C50.1013-18.5371 50.3888-18.5526 50.6763-18.5834C50.7338-18.5873 50.7913-18.649 50.8449-18.6837C50.8143-18.7416 50.7913-18.8148 50.7529-18.8611C50.5153-19.1466 50.2699-19.4243 50.0361-19.7136C49.8138-19.9913 49.6144-20.3037 49.3844-20.566C49.0548-20.9363 48.6791-21.241 48.3763-21.6422C48.1041-22.0009 47.8396-21.8891 47.5598-21.7656C46.918-21.4747 46.1996-21.4014 45.5127-21.5573C44.6579-21.7425 43.7916-21.8466 42.9329-21.9932C42.5994-22.0472 42.2736-22.1359 41.9401-22.1706C41.2501-22.2401 40.6291-21.9585 40.0272-21.5419C39.4561-21.1446 38.8734-20.7743 38.3024-20.377C37.8922-20.0877 37.4974-19.7676 37.091-19.4629C36.953-19.3587 36.8035-19.2739 36.6694-19.162C35.9985-18.622 35.3047-18.1128 34.6684-17.5034C34.0857-16.9518 33.6104-16.2305 33.181-15.4706C33.0354-15.2083 32.8552-14.9769 32.6827-14.7377C32.3454-14.2402 31.9965-13.7541 31.663-13.2566C30.8803-12.0849 30.1149-10.902 29.3668-9.7079C29.1368-9.3376 28.9145-8.95959 28.6998-8.57773C28.6308-8.45429 28.6117-8.27686 28.5388-8.16114C28.489-8.07629 28.3472-7.97214 28.305-8.00685C28.0479-8.18107 27.8101-8.38294 27.5958-8.60858C27.5345-8.67801 27.5422-8.91716 27.5805-9.05217C27.7262-9.58061 27.868-10.1168 28.0712-10.6105C28.3318-11.2392 28.6538-11.8294 28.9452-12.435C29.1637-12.894 29.3745-13.3607 29.5968-13.812C29.7808-14.19 29.984-14.5564 30.1718-14.9345C30.2485-15.1003 30.2984-15.297 30.375-15.4668C30.4249-15.5748 30.5399-15.6442 30.5667-15.7561C30.7354-16.4041 31.111-16.8901 31.3487-17.4802C31.5595-18.0087 31.7512-18.5564 31.9505-19.0964C32.0847-19.4629 32.2227-19.8293 32.3454-20.2034C32.4259-20.4465 32.4834-20.7049 32.5562-20.9518L33.043-22.6104C33.2079-23.1812 33.365-23.7521 33.5222-24.3307C33.5452-24.4156 33.5337-24.5158 33.5375-24.6084C33.4609-24.6161 33.3765-24.6547 33.3152-24.6238C33.0085-24.4657 32.7019-24.2883 32.399-24.1185C32.2649-24.0414 32.1345-23.9643 32.0004-23.8987C31.548-23.6788 31.088-23.4821 30.6434-23.2391C30.145-22.9691 29.6582-22.6644 29.1713-22.3596C28.6615-22.0434 28.1632-21.7039 27.6533-21.3761C27.293-21.1485 26.9327-20.9132 26.5608-20.7203C26.3551-20.6136 26.1289-20.5532 25.8977-20.5429C25.7635-20.5352 25.5987-20.6393 25.4913-20.7589C25.43-20.8322 25.4147-21.0443 25.4453-21.1678C25.5297-21.4956 25.6562-21.8081 25.7558-22.1321C25.9207-22.6605 26.2542-23.0231 26.5685-23.378C27.3428-24.2381 28.1478-25.0481 28.9375-25.889C29.3937-26.3789 29.8383-26.8919 30.2907-27.3818C30.973-28.1224 31.6707-28.8398 32.3454-29.592C32.8552-30.1667 33.342-30.7761 33.8404-31.374C33.8902-31.428 33.9324-31.5052 33.9899-31.5437C34.3617-31.7906 34.5457-32.2612 34.7834-32.6662C34.8102-32.7125 34.7834-32.8591 34.745-32.9092C34.5817-33.1265 34.4751-33.3817 34.4349-33.6511C34.3947-33.9208 34.4223-34.1959 34.515-34.4521C34.9252-35.4164 35.3737-36.3267 35.964-37.1252C36.4624-37.7925 36.8955-38.5369 37.3862-39.2081C37.9114-39.9294 38.471-40.6083 39.0152-41.2987C39.2069-41.5456 39.3909-41.8079 39.6056-42.0239C40.1844-42.6179 40.7747-43.1926 41.3689-43.7673C41.7752-44.1608 42.1969-44.5234 42.5956-44.9244C43.0786-45.4066 43.5347-45.9273 44.0216-46.4017C44.387-46.7563 44.771-47.0911 45.1716-47.4046C45.6546-47.7903 46.1606-48.1182 46.6474-48.5001C46.9771-48.7624 47.2876-49.0671 47.6058-49.3525C47.9201-49.638 48.2459-49.9118 48.5449-50.2204C49.0816-50.7643 49.7179-51.1269 50.2048-51.7633C50.4654-52.1066 50.7798-52.3805 51.0903-52.6427C51.3241-52.8433 51.3816-53.094 51.3624-53.4219C51.3586-53.5222 51.4008-53.6263 51.4353-53.7228C51.6154-54.2358 51.8416-54.7334 51.9719-55.2657C52.1329-55.9445 52.3476-56.5578 52.7348-57.0709C52.9264-57.3293 53.0836-57.6263 53.2753-57.8809C53.7123-58.4672 54.1416-59.0535 54.6016-59.6051C54.9236-59.9985 55.2763-60.3611 55.6443-60.6851C55.8896-60.9011 56.1848-61.0322 56.4646-61.1981C56.8594-61.4295 57.2505-61.6803 57.6568-61.8808C57.8574-61.9727 58.0775-62.0125 58.297-61.9966C58.6995-61.9734 59.0981-61.8538 59.4968-61.8577C59.7958-61.8577 59.9683-61.5954 60.1945-61.4565C60.6545-61.1788 61.0915-60.8394 61.5438-60.5347C61.908-60.2878 62.2798-60.0525 62.6478-59.8095C63.0158-59.5665 63.3953-59.3351 63.7595-59.0766C63.9818-58.9223 64.1926-58.7372 64.3958-58.5443C64.7025-58.2512 65.0475-58.1895 65.4155-58.2203C65.8103-58.2589 66.2051-58.2589 66.6038-58.2975C67.0907-58.336 67.5775-58.4132 68.0643-58.4518C68.3595-58.471 68.6585-58.4518 68.9575-58.444C69.3102-58.4325 69.6628-58.4402 70.0155-58.3977C70.4372-58.3476 70.855-58.2666 71.2728-58.174C71.3303-58.1625 71.3763-58.039 71.43-57.9657C71.3802-57.9079 71.3418-57.823 71.2843-57.796C70.8933-57.6263 70.4947-57.4797 70.1037-57.3062C69.5287-57.0477 68.9537-56.7739 68.3787-56.5193C68.118-56.4036 67.842-56.3573 67.589-56.2146C67.1865-55.9831 66.8147-55.6745 66.4083-55.4547C65.9483-55.204 65.7566-54.6755 65.4921-54.2088C65.2545-53.7845 65.2583-53.2908 65.2085-52.8125C65.151-52.23 65.1395-51.636 65.1088-51.0497C65.1088-50.988 65.1011-50.9301 65.105-50.8723C65.1701-50.1201 64.9133-49.4528 64.7715-48.7546C64.7676-48.7392 64.7561-48.7199 64.7561-48.7006C64.7523-48.0256 64.3383-47.5435 64.2501-46.9032C64.1735-46.3786 64.0431-45.8617 64.0125-45.3294C63.9741-44.5426 64.0048-43.748 63.9895-42.9535C63.9741-42.2167 63.9396-41.48 63.9128-40.7394C63.9013-40.5388 63.8285-40.3845 63.6598-40.3652C63.4873-40.346 63.4068-40.481 63.3723-40.6854C63.3531-40.8011 63.3033-40.9014 63.2688-41.0094L63.2113-40.9978L63.2113-40.9978ZM55.122-16C55.374-16.104 55.682-16.2081 55.986-16.3601C56.142-16.4402 56.282-16.6002 56.43-16.7203C56.27-16.9083 56.118-17.1044 55.95-17.2724C55.902-17.3205 55.83-17.2925 55.766-17.3005C55.622-17.3245 55.454-17.2804 55.338-17.3885C54.77-17.9127 54.218-18.4849 53.658-19.0331C53.325-19.3592 52.9837-19.6766 52.634-19.9854C52.582-20.0294 52.498-19.9614 52.43-19.9454L52.538-19.6733C52.566-19.6053 52.594-19.5372 52.618-19.4612C52.662-19.3212 52.686-19.1411 52.754-19.0411C53.162-18.3928 53.594-17.7886 53.986-17.1204C54.298-16.5882 54.598-16.08 55.122-16L55.122-16Z"/>
   <path class="monochrome-1 multicolor-1:tintColor hierarchical-1:tertiary SFSymbolsPreviewWireframe" d="M48.9411-84C55.3091-84.0013 61.615-82.7479 67.4985-80.3116C73.382-77.8752 78.7279-74.3036 83.2305-69.8009C87.7334-65.2983 91.305-59.9524 93.7418-54.0682C96.1779-48.1846 97.4312-41.8789 97.43-35.5124C97.43-8.72255 75.7254 13 48.9424 13C22.156 13 0.43-8.726 0.43-35.5124C0.43-62.2926 22.1539-84 48.9411-84ZM48.9424-70C29.8835-70 14.43-54.5582 14.43-35.5124C14.43-16.458 29.888-0.999999 48.9424-0.999999C67.9909-0.999999 83.43-16.4519 83.43-35.5138C83.4309-40.0428 82.5395-44.5276 80.8069-48.7121C79.0739-52.8969 76.5337-56.6989 73.3311-59.9013C70.1287-63.1038 66.3266-65.644 62.1422-67.3767C57.9578-69.1095 53.4729-70.0009 48.9424-70Z"/>
  </g>
  <g id="Regular-S" transform="matrix(1 0 0 1 1403.58 696)">
   <path class="monochrome-0 multicolor-0:tintColor hierarchical-0:primary SFSymbolsPreviewWireframe" d="M63.27-42.8802C63.2615-42.808 63.2445-42.7358 63.2402-42.6679C63.2317-42.2136 63.2487-41.7592 63.219-41.3091C63.185-40.8463 63.1086-40.392 63.0492-39.9334C63.0109-39.5725 62.994-39.2115 62.9303-38.8591C62.8708-38.4939 62.7689-38.1373 62.6797-37.7806C62.667-37.7254 62.6203-37.6532 62.5821-37.6405C62.1575-37.5386 62.1829-37.097 62.115-36.7063C62.081-36.5067 61.9876-36.3242 61.9282-36.1331C61.8263-35.8274 61.7328-35.5131 61.6267-35.2074C61.5333-34.9526 61.3719-34.9229 61.2148-35.131C61.1299-35.2499 61.0535-35.2584 61.0025-35.1013C60.9303-34.8805 60.8836-34.6554 60.8114-34.4389C60.6373-33.9293 60.4548-33.4283 60.2722-32.923C60.2722-32.9145 60.2637-32.9102 60.2594-32.906C59.7244-32.7319 59.7414-31.9888 59.4314-31.5812C59.2531-31.3519 59.1002-31.0886 58.9346-30.8381C58.5355-30.2309 58.1533-29.6067 57.7372-29.0208C57.3041-28.3966 56.837-27.8106 56.3869-27.2034C56.2596-27.0336 56.1619-26.8255 56.0218-26.6769C55.5887-26.2183 55.1683-25.7427 54.7012-25.3394C54.3912-25.0761 54.0133-24.9275 53.6609-24.7406C53.3594-24.575 53.041-24.4519 52.7395-24.2736C52.5442-24.1632 52.3701-23.9976 52.1875-23.849C52.1111-23.7938 52.0431-23.7046 51.9624-23.6621C51.3595-23.3437 50.7608-23.0082 50.1451-22.728C49.7205-22.5369 49.2661-22.4222 48.8245-22.2609C48.7524-22.2397 48.6335-22.1505 48.6377-22.108C48.6473-22.0026 48.6922-21.9039 48.7651-21.8278C49.1175-21.5306 49.4657-21.2418 49.8309-20.9786C50.2088-20.7026 50.6037-20.4733 50.9816-20.2058C51.3213-19.9637 51.6355-19.641 51.9922-19.4414C52.4508-19.1909 52.9348-19.0253 53.4104-18.8385C53.4826-18.8088 53.5802-18.8767 53.6652-18.9022C53.9624-18.9998 54.2384-19.1272 54.5653-19.0083C54.8537-18.899 55.164-18.8611 55.4698-18.8979C56.2893-19.0126 57.096-19.2206 57.9156-19.3226C58.3487-19.382 58.7903-19.2886 59.2319-19.2843C59.5206-19.2843 59.8178-19.2589 59.9537-18.8979C60.1236-18.4648 60.2382-17.9935 60.3656-17.5392C60.3741-17.5137 60.3104-17.4203 60.2976-17.4245C60.234-17.45 60.1618-17.484 60.1278-17.5519C59.9792-17.8067 59.873-18.1166 59.6947-18.329C59.4739-18.5922 59.1936-18.7536 58.854-18.6941C58.1151-18.5667 57.3678-18.4776 56.6205-18.3714C55.9199-18.2738 55.2192-18.1888 54.5229-18.0742C54.4337-18.0572 54.3148-17.8958 54.2936-17.777C54.2596-17.5859 54.3573-17.4627 54.5271-17.4542C54.9432-17.4288 55.3636-17.3608 55.7797-17.3821C56.077-17.3948 56.3742-17.5094 56.6629-17.6071C57.3101-17.8276 58.0118-17.8276 58.6586-17.6071C58.8115-17.5562 58.9559-17.4203 59.0875-17.2886C59.1384-17.2377 59.1384-17.0933 59.1597-16.9914C59.0748-16.9744 58.9644-16.9065 58.9134-16.949C58.6459-17.191 58.3911-17.1061 58.1066-17.0211C57.7202-16.9065 57.3126-16.9192 56.9177-16.8343C56.5653-16.7579 56.2171-16.6093 55.8647-16.5328C55.5802-16.4691 55.2872-16.4606 54.9942-16.4437C54.5314-16.4139 54.0685-16.3842 53.6057-16.3842C53.2575-16.3842 52.9093-16.4267 52.5569-16.4479C52.1578-16.4734 51.7586-16.5243 51.3595-16.4989C50.8669-16.4691 50.3829-16.38 49.8903-16.2993C49.4657-16.2229 49.0496-16.104 48.625-16.036C48.2853-15.9851 47.9456-15.9766 47.6016-15.9511C47.5677-15.9511 47.5252-15.9511 47.504-15.9723C47.228-16.2738 46.9562-16.0573 46.6802-15.9766C46.4782-15.9214 46.2698-15.8931 46.0603-15.8917C45.7885-15.8874 45.7758-16.1634 45.7928-16.4012C45.814-16.6602 45.9372-16.7749 46.1749-16.7834C47.194-16.8343 48.2088-16.9107 49.2237-17.0084C49.4275-17.0296 49.6186-17.1952 49.8181-17.2844C49.9031-17.3226 49.9922-17.3354 50.1154-17.3693C50.1493-17.501 49.971-17.7005 49.7502-17.6666C49.4615-17.6241 49.177-17.5392 48.8882-17.5094C48.3575-17.4585 47.8267-17.45 47.2959-17.399C46.8246-17.3523 46.3533-17.2802 45.882-17.208C45.6544-17.1782 45.4301-17.1284 45.2111-17.0594C45.1049-17.0211 45.0242-16.8895 44.9181-16.8301C44.8204-16.7749 44.6973-16.7112 44.6039-16.7409C44.5359-16.7579 44.4425-16.932 44.451-17.0254C44.4726-17.1492 44.532-17.2635 44.6208-17.3523C44.8381-17.5855 45.1092-17.7621 45.4106-17.8658C45.7121-17.9694 46.0345-17.997 46.349-17.9468C46.4856-17.9394 46.6208-17.9748 46.7354-18.0487C46.8936-18.1517 47.0744-18.215 47.2623-18.2327C47.4502-18.2504 47.6395-18.2224 47.814-18.1506C48.005-18.0827 48.2216-18.1294 48.4296-18.1421C48.7481-18.1549 49.0666-18.1718 49.385-18.2058C49.4487-18.2101 49.5124-18.278 49.5719-18.3162C49.5379-18.3799 49.5124-18.4606 49.47-18.5115C49.2067-18.8258 48.9349-19.1315 48.6759-19.4499C48.4296-19.7557 48.2088-20.0996 47.9541-20.3883C47.5889-20.796 47.1728-21.1314 46.8373-21.573C46.5359-21.9679 46.2429-21.8448 45.9329-21.7089C45.222-21.3887 44.4262-21.308 43.6655-21.4796C42.7186-21.6834 41.7589-21.7981 40.8078-21.9594C40.4384-22.0189 40.0775-22.1165 39.708-22.1547C38.9437-22.2312 38.2559-21.9212 37.5892-21.4626C36.9565-21.0253 36.3111-20.6176 35.6786-20.1803C35.2243-19.8618 34.7869-19.5094 34.3368-19.1739C34.184-19.0593 34.0184-18.9659 33.8698-18.8427C33.1267-18.2483 32.3581-17.6878 31.6533-17.0169C31.0079-16.4097 30.4813-15.6157 30.0058-14.7792C29.8444-14.4904 29.6448-14.2357 29.4538-13.9724C29.0801-13.4246 28.6937-12.8896 28.3243-12.3419C27.4573-11.0521 26.6094-9.74995 25.7808-8.43541C25.5261-8.02778 25.2798-7.61166 25.042-7.19129C24.9656-7.05541 24.9443-6.86009 24.8637-6.73271C24.8085-6.63929 24.6514-6.52464 24.6047-6.56286C24.3198-6.75464 24.0565-6.97686 23.8191-7.22526C23.7512-7.30169 23.7597-7.56495 23.8021-7.71357C23.9635-8.29529 24.1206-8.88551 24.3456-9.42901C24.6344-10.1211 24.9911-10.7708 25.3138-11.4374C25.5558-11.9427 25.7893-12.4565 26.0356-12.9533C26.2394-13.3694 26.4645-13.7728 26.6725-14.189C26.7575-14.3715 26.8127-14.5881 26.8976-14.7749C26.9528-14.8938 27.0802-14.9702 27.1099-15.0934C27.2967-15.8067 27.7128-16.3418 27.9761-16.9914C28.2096-17.5731 28.4219-18.1761 28.6427-18.7706C28.7914-19.1739 28.9442-19.5773 29.0801-19.9892C29.1693-20.2567 29.233-20.5412 29.3136-20.813L29.8529-22.6388C30.0355-23.2672 30.2096-23.8957 30.3837-24.5326C30.4091-24.626 30.3964-24.7364 30.4007-24.8383C30.3157-24.8468 30.2223-24.8893 30.1544-24.8553C29.8147-24.6812 29.475-24.4859 29.1395-24.299C28.9909-24.2141 28.8466-24.1292 28.6979-24.057C28.1969-23.815 27.6874-23.5984 27.1948-23.3309C26.6428-23.0337 26.1035-22.6982 25.5643-22.3628C24.9995-22.0146 24.4475-21.641 23.8828-21.28C23.4837-21.0295 23.0845-20.7705 22.6727-20.5582C22.4448-20.4407 22.1941-20.3742 21.9381-20.3629C21.7895-20.3544 21.6069-20.469 21.488-20.6006C21.42-20.6813 21.4031-20.9149 21.437-21.0507C21.5304-21.4117 21.6706-21.7556 21.781-22.1123C21.9635-22.694 22.333-23.0931 22.6811-23.4838C23.5389-24.4307 24.4306-25.3224 25.3053-26.248C25.8106-26.7873 26.3031-27.352 26.8042-27.8913C27.56-28.7066 28.3328-29.4963 29.0801-30.3243C29.6448-30.957 30.1841-31.6279 30.7361-32.2861C30.7913-32.3455 30.838-32.4304 30.9017-32.4729C31.3136-32.7446 31.5174-33.2627 31.7807-33.7085C31.8104-33.7595 31.7807-33.9208 31.7382-33.976C31.5572-34.2152 31.4392-34.4962 31.3946-34.7927C31.3501-35.0896 31.3807-35.3925 31.4834-35.6745C31.9378-36.736 32.4346-37.7381 33.0885-38.6171C33.6405-39.3517 34.1203-40.1712 34.6638-40.91C35.2455-41.704 35.8655-42.4514 36.4682-43.2114C36.6805-43.4832 36.8844-43.7719 37.1221-44.0097C37.7633-44.6636 38.4172-45.2963 39.0754-45.929C39.5255-46.3621 39.9925-46.7612 40.4341-47.2027C40.9692-47.7335 41.4744-48.3067 42.0137-48.829C42.4185-49.2193 42.8438-49.5878 43.2876-49.933C43.8226-50.3576 44.3831-50.7185 44.9223-51.1389C45.2875-51.4276 45.6314-51.7631 45.9839-52.0773C46.332-52.3915 46.693-52.693 47.0242-53.0327C47.6186-53.6314 48.3235-54.0305 48.8628-54.7311C49.1515-55.109 49.4997-55.4105 49.8436-55.6992C50.1026-55.92 50.1663-56.196 50.1451-56.557C50.1408-56.6674 50.1876-56.782 50.2258-56.8882C50.4253-57.4529 50.6759-58.0007 50.8202-58.5866C50.9986-59.334 51.2364-60.0091 51.6652-60.5738C51.8775-60.8583 52.0516-61.1853 52.2639-61.4655C52.748-62.1109 53.2236-62.7564 53.7331-63.3636C54.0898-63.7967 54.4804-64.1958 54.888-64.5525C55.1598-64.7903 55.4868-64.9346 55.7967-65.1172C56.2341-65.372 56.6672-65.648 57.1173-65.8688C57.3395-65.9699 57.5833-66.0138 57.8264-65.9962C58.2722-65.9707 58.7138-65.8391 59.1554-65.8433C59.4866-65.8433 59.6777-65.5546 59.9282-65.4017C60.4378-65.096 60.9218-64.7223 61.4229-64.3869C61.8263-64.1151 62.2381-63.8561 62.6458-63.5886C63.0534-63.3211 63.4738-63.0663 63.8772-62.7818C64.1234-62.612 64.357-62.4082 64.582-62.1959C64.9217-61.8732 65.3039-61.8052 65.7115-61.8392C66.1488-61.8816 66.5862-61.8816 67.0278-61.9241C67.5671-61.9666 68.1063-62.0515 68.6456-62.094C68.9725-62.1152 69.3037-62.094 69.6349-62.0855C70.0256-62.0727 70.4162-62.0812 70.8069-62.0345C71.274-61.9793 71.7368-61.8901 72.1996-61.7882C72.2633-61.7755 72.3143-61.6396 72.3737-61.5589C72.3185-61.4952 72.276-61.4018 72.2124-61.3721C71.7792-61.1853 71.3376-61.0239 70.9045-60.8328C70.2676-60.5484 69.6307-60.2469 68.9938-59.9666C68.705-59.8392 68.3993-59.7883 68.1191-59.6312C67.6732-59.3764 67.2613-59.0367 66.8112-58.7947C66.3017-58.5187 66.0894-57.937 65.7964-57.4232C65.5332-56.9561 65.5374-56.4126 65.4822-55.8861C65.4185-55.2449 65.4058-54.591 65.3718-53.9456C65.3718-53.8776 65.3633-53.814 65.3676-53.7503C65.4397-52.9223 65.1552-52.1877 64.9981-51.4191C64.9939-51.4021 64.9812-51.3809 64.9812-51.3597C64.9769-50.6166 64.5183-50.0858 64.4207-49.381C64.3357-48.8035 64.1914-48.2345 64.1574-47.6485C64.1149-46.7824 64.1489-45.9077 64.1319-45.033C64.1149-44.222 64.0767-43.411 64.047-42.5957C64.0343-42.3749 63.9536-42.2051 63.7668-42.1838C63.5757-42.1626 63.4865-42.3112 63.4483-42.5363C63.4271-42.6637 63.3719-42.7741 63.3336-42.893L63.27-42.8802L63.27-42.8802ZM54.0006-15.0467C54.2681-15.1571 54.5951-15.2675 54.9178-15.4288C55.0834-15.5138 55.232-15.6836 55.3891-15.811C55.2192-16.0106 55.0579-16.2186 54.8796-16.397C54.8286-16.4479 54.7522-16.4182 54.6842-16.4267C54.5314-16.4522 54.353-16.4054 54.2299-16.5201C53.6269-17.0763 53.041-17.6835 52.4465-18.2653C52.093-18.6113 51.7307-18.9482 51.3595-19.2758C51.3043-19.3226 51.2151-19.2504 51.1429-19.2334L51.2576-18.9446C51.2873-18.8725 51.317-18.8003 51.3425-18.7196C51.3892-18.571 51.4147-18.3799 51.4869-18.2738C51.92-17.5859 52.3786-16.9447 52.7947-16.2356C53.1259-15.6709 53.4444-15.1316 54.0006-15.0467L54.0006-15.0467Z"/>
   <path class="monochrome-1 multicolor-1:tintColor hierarchical-1:tertiary SFSymbolsPreviewWireframe" d="M46.4321-81.8365C52.4502-81.8377 58.4096-80.6532 63.9698-78.3508C69.53-76.0483 74.5822-72.6729 78.8374-68.4176C83.0928-64.1624 86.4682-59.1103 88.771-53.5496C91.0733-47.9892 92.2577-42.03 92.2566-36.0127C92.2566-10.693 71.744 9.83658 46.4328 9.83658C21.1173 9.83658 0.5835-10.6972 0.5835-36.0127C0.5835-61.3211 21.1145-81.8365 46.4321-81.8365ZM46.4328-75.0865C24.8413-75.0865 7.3335-57.592 7.3335-36.0127C7.3335-14.4252 24.8452 3.08658 46.4328 3.08658C68.0148 3.08658 85.5066-14.4197 85.5066-36.0133C85.5076-41.1447 84.4976-46.226 82.5345-50.9672C80.571-55.7085 77.693-60.0162 74.0644-63.6446C70.4361-67.273 66.1283-70.1511 61.3873-72.1143C56.6463-74.0776 51.5649-75.0875 46.4328-75.0865Z"/>
  </g>
  <g id="Ultralight-S" transform="matrix(1 0 0 1 515.649 696)">
   <path class="monochrome-0 multicolor-0:tintColor hierarchical-0:primary SFSymbolsPreviewWireframe" d="M61.201-43.8802C61.1925-43.808 61.1755-43.7358 61.1712-43.6679C61.1627-43.2136 61.1797-42.7592 61.15-42.3091C61.116-41.8463 61.0396-41.392 60.9802-40.9334C60.9419-40.5725 60.925-40.2115 60.8613-39.8591C60.8018-39.4939 60.6999-39.1373 60.6107-38.7806C60.598-38.7254 60.5513-38.6532 60.5131-38.6405C60.0885-38.5386 60.1139-38.097 60.046-37.7063C60.012-37.5067 59.9186-37.3242 59.8592-37.1331C59.7573-36.8274 59.6638-36.5131 59.5577-36.2074C59.4643-35.9526 59.3029-35.9229 59.1458-36.131C59.0609-36.2499 58.9845-36.2584 58.9335-36.1013C58.8613-35.8805 58.8146-35.6554 58.7424-35.4389C58.5683-34.9293 58.3858-34.4283 58.2032-33.923C58.2032-33.9145 58.1947-33.9102 58.1904-33.906C57.6554-33.7319 57.6724-32.9888 57.3624-32.5812C57.1841-32.3519 57.0312-32.0886 56.8656-31.8381C56.4665-31.2309 56.0843-30.6067 55.6682-30.0208C55.2351-29.3966 54.768-28.8106 54.3179-28.2034C54.1906-28.0336 54.0929-27.8255 53.9528-27.6769C53.5197-27.2183 53.0993-26.7427 52.6322-26.3394C52.3222-26.0761 51.9443-25.9275 51.5919-25.7406C51.2904-25.575 50.972-25.4519 50.6705-25.2736C50.4752-25.1632 50.3011-24.9976 50.1185-24.849C50.0421-24.7938 49.9741-24.7046 49.8934-24.6621C49.2905-24.3437 48.6918-24.0082 48.0761-23.728C47.6515-23.5369 47.1971-23.4222 46.7555-23.2609C46.6834-23.2397 46.5645-23.1505 46.5687-23.108C46.5783-23.0026 46.6232-22.9039 46.6961-22.8278C47.0485-22.5306 47.3967-22.2418 47.7619-21.9786C48.1398-21.7026 48.5347-21.4733 48.9126-21.2058C49.2523-20.9637 49.5665-20.641 49.9232-20.4414C50.3818-20.1909 50.8658-20.0253 51.3414-19.8385C51.4136-19.8088 51.5112-19.8767 51.5962-19.9022C51.8934-19.9998 52.1694-20.1272 52.4963-20.0083C52.7847-19.899 53.095-19.8611 53.4008-19.8979C54.2203-20.0126 55.027-20.2206 55.8466-20.3226C56.2797-20.382 56.7213-20.2886 57.1629-20.2843C57.4516-20.2843 57.7488-20.2589 57.8847-19.8979C58.0546-19.4648 58.1692-18.9935 58.2966-18.5392C58.3051-18.5137 58.2414-18.4203 58.2286-18.4245C58.165-18.45 58.0928-18.484 58.0588-18.5519C57.9102-18.8067 57.804-19.1166 57.6257-19.329C57.4049-19.5922 57.1246-19.7536 56.785-19.6941C56.0461-19.5667 55.2988-19.4776 54.5515-19.3714C53.8509-19.2738 53.1502-19.1888 52.4539-19.0742C52.3647-19.0572 52.2458-18.8958 52.2246-18.777C52.1906-18.5859 52.2883-18.4627 52.4581-18.4542C52.8742-18.4288 53.2946-18.3608 53.7107-18.3821C54.008-18.3948 54.3052-18.5094 54.5939-18.6071C55.2411-18.8276 55.9428-18.8276 56.5896-18.6071C56.7425-18.5562 56.8869-18.4203 57.0185-18.2886C57.0694-18.2377 57.0694-18.0933 57.0907-17.9914C57.0058-17.9744 56.8954-17.9065 56.8444-17.949C56.5769-18.191 56.3221-18.1061 56.0376-18.0211C55.6512-17.9065 55.2436-17.9192 54.8487-17.8343C54.4963-17.7579 54.1481-17.6093 53.7957-17.5328C53.5112-17.4691 53.2182-17.4606 52.9252-17.4437C52.4624-17.4139 51.9995-17.3842 51.5367-17.3842C51.1885-17.3842 50.8403-17.4267 50.4879-17.4479C50.0888-17.4734 49.6896-17.5243 49.2905-17.4989C48.7979-17.4691 48.3139-17.38 47.8213-17.2993C47.3967-17.2229 46.9806-17.104 46.556-17.036C46.2163-16.9851 45.8766-16.9766 45.5326-16.9511C45.4987-16.9511 45.4562-16.9511 45.435-16.9723C45.159-17.2738 44.8872-17.0573 44.6112-16.9766C44.4092-16.9214 44.2008-16.8931 43.9913-16.8917C43.7195-16.8874 43.7068-17.1634 43.7238-17.4012C43.745-17.6602 43.8682-17.7749 44.1059-17.7834C45.125-17.8343 46.1398-17.9107 47.1547-18.0084C47.3585-18.0296 47.5496-18.1952 47.7491-18.2844C47.8341-18.3226 47.9232-18.3354 48.0464-18.3693C48.0803-18.501 47.902-18.7005 47.6812-18.6666C47.3925-18.6241 47.108-18.5392 46.8192-18.5094C46.2885-18.4585 45.7577-18.45 45.2269-18.399C44.7556-18.3523 44.2843-18.2802 43.813-18.208C43.5854-18.1782 43.3611-18.1284 43.1421-18.0594C43.0359-18.0211 42.9552-17.8895 42.8491-17.8301C42.7514-17.7749 42.6283-17.7112 42.5349-17.7409C42.4669-17.7579 42.3735-17.932 42.382-18.0254C42.4036-18.1492 42.463-18.2635 42.5518-18.3523C42.7691-18.5855 43.0402-18.7621 43.3416-18.8658C43.6431-18.9694 43.9655-18.997 44.28-18.9468C44.4166-18.9394 44.5518-18.9748 44.6664-19.0487C44.8246-19.1517 45.0054-19.215 45.1933-19.2327C45.3812-19.2504 45.5705-19.2224 45.745-19.1506C45.936-19.0827 46.1526-19.1294 46.3606-19.1421C46.6791-19.1549 46.9976-19.1718 47.316-19.2058C47.3797-19.2101 47.4434-19.278 47.5029-19.3162C47.4689-19.3799 47.4434-19.4606 47.401-19.5115C47.1377-19.8258 46.8659-20.1315 46.6069-20.4499C46.3606-20.7557 46.1398-21.0996 45.8851-21.3883C45.5199-21.796 45.1038-22.1314 44.7683-22.573C44.4669-22.9679 44.1739-22.8448 43.8639-22.7089C43.153-22.3887 42.3572-22.308 41.5965-22.4796C40.6496-22.6834 39.6899-22.7981 38.7388-22.9594C38.3694-23.0189 38.0085-23.1165 37.639-23.1547C36.8747-23.2312 36.1869-22.9212 35.5202-22.4626C34.8875-22.0253 34.2421-21.6176 33.6096-21.1803C33.1553-20.8618 32.7179-20.5094 32.2678-20.1739C32.115-20.0593 31.9494-19.9659 31.8008-19.8427C31.0577-19.2483 30.2891-18.6878 29.5843-18.0169C28.9389-17.4097 28.4123-16.6157 27.9368-15.7792C27.7754-15.4904 27.5758-15.2357 27.3848-14.9724C27.0111-14.4246 26.6247-13.8896 26.2553-13.3419C25.3883-12.0521 24.5404-10.75 23.7118-9.43541C23.4571-9.02778 23.2108-8.61166 22.973-8.19129C22.8966-8.05541 22.8753-7.86009 22.7947-7.73271C22.7395-7.63929 22.5824-7.52464 22.5357-7.56286C22.2508-7.75464 21.9875-7.97686 21.7501-8.22526C21.6822-8.30169 21.6907-8.56495 21.7331-8.71357C21.8945-9.29529 22.0516-9.88551 22.2766-10.429C22.5654-11.1211 22.9221-11.7708 23.2448-12.4374C23.4868-12.9427 23.7203-13.4565 23.9666-13.9533C24.1704-14.3694 24.3955-14.7728 24.6035-15.189C24.6885-15.3715 24.7437-15.5881 24.8286-15.7749C24.8838-15.8938 25.0112-15.9702 25.0409-16.0934C25.2277-16.8067 25.6438-17.3418 25.9071-17.9914C26.1406-18.5731 26.3529-19.1761 26.5737-19.7706C26.7224-20.1739 26.8752-20.5773 27.0111-20.9892C27.1003-21.2567 27.164-21.5412 27.2446-21.813L27.7839-23.6388C27.9665-24.2672 28.1406-24.8957 28.3147-25.5326C28.3401-25.626 28.3274-25.7364 28.3317-25.8383C28.2467-25.8468 28.1533-25.8893 28.0854-25.8553C27.7457-25.6812 27.406-25.4859 27.0705-25.299C26.9219-25.2141 26.7776-25.1292 26.6289-25.057C26.1279-24.815 25.6184-24.5984 25.1258-24.3309C24.5738-24.0337 24.0345-23.6982 23.4953-23.3628C22.9305-23.0146 22.3785-22.641 21.8138-22.28C21.4147-22.0295 21.0155-21.7705 20.6037-21.5582C20.3758-21.4407 20.1251-21.3742 19.8691-21.3629C19.7205-21.3544 19.5379-21.469 19.419-21.6006C19.351-21.6813 19.3341-21.9149 19.368-22.0507C19.4614-22.4117 19.6016-22.7556 19.712-23.1123C19.8945-23.694 20.264-24.0931 20.6121-24.4838C21.4699-25.4307 22.3616-26.3224 23.2363-27.248C23.7416-27.7873 24.2341-28.352 24.7352-28.8913C25.491-29.7066 26.2638-30.4963 27.0111-31.3243C27.5758-31.957 28.1151-32.6279 28.6671-33.2861C28.7223-33.3455 28.769-33.4304 28.8327-33.4729C29.2446-33.7446 29.4484-34.2627 29.7117-34.7085C29.7414-34.7595 29.7117-34.9208 29.6692-34.976C29.4882-35.2152 29.3702-35.4962 29.3256-35.7927C29.2811-36.0896 29.3117-36.3925 29.4144-36.6745C29.8688-37.736 30.3656-38.7381 31.0195-39.6171C31.5715-40.3517 32.0513-41.1712 32.5948-41.91C33.1765-42.704 33.7965-43.4514 34.3992-44.2114C34.6115-44.4832 34.8154-44.7719 35.0531-45.0097C35.6943-45.6636 36.3482-46.2963 37.0064-46.929C37.4565-47.3621 37.9235-47.7612 38.3651-48.2027C38.9002-48.7335 39.4054-49.3067 39.9447-49.829C40.3495-50.2193 40.7748-50.5878 41.2186-50.933C41.7536-51.3576 42.3141-51.7185 42.8533-52.1389C43.2185-52.4276 43.5624-52.7631 43.9149-53.0773C44.263-53.3915 44.624-53.693 44.9552-54.0327C45.5496-54.6314 46.2545-55.0305 46.7938-55.7311C47.0825-56.109 47.4307-56.4105 47.7746-56.6992C48.0336-56.92 48.0973-57.196 48.0761-57.557C48.0718-57.6674 48.1186-57.782 48.1568-57.8882C48.3563-58.4529 48.6069-59.0007 48.7512-59.5866C48.9296-60.334 49.1674-61.0091 49.5962-61.5738C49.8085-61.8583 49.9826-62.1853 50.1949-62.4655C50.679-63.1109 51.1546-63.7564 51.6641-64.3636C52.0208-64.7967 52.4114-65.1958 52.819-65.5525C53.0908-65.7903 53.4178-65.9346 53.7277-66.1172C54.1651-66.372 54.5982-66.648 55.0483-66.8688C55.2705-66.9699 55.5143-67.0138 55.7574-66.9962C56.2032-66.9707 56.6448-66.8391 57.0864-66.8433C57.4176-66.8433 57.6087-66.5546 57.8592-66.4017C58.3688-66.096 58.8528-65.7223 59.3539-65.3869C59.7573-65.1151 60.1691-64.8561 60.5768-64.5886C60.9844-64.3211 61.4048-64.0663 61.8082-63.7818C62.0544-63.612 62.288-63.4082 62.513-63.1959C62.8527-62.8732 63.2349-62.8052 63.6425-62.8392C64.0798-62.8816 64.5172-62.8816 64.9588-62.9241C65.4981-62.9666 66.0373-63.0515 66.5766-63.094C66.9035-63.1152 67.2347-63.094 67.5659-63.0855C67.9566-63.0727 68.3472-63.0812 68.7379-63.0345C69.205-62.9793 69.6678-62.8901 70.1306-62.7882C70.1943-62.7755 70.2453-62.6396 70.3047-62.5589C70.2495-62.4952 70.207-62.4018 70.1434-62.3721C69.7102-62.1853 69.2686-62.0239 68.8355-61.8328C68.1986-61.5484 67.5617-61.2469 66.9248-60.9666C66.636-60.8392 66.3303-60.7883 66.0501-60.6312C65.6042-60.3764 65.1923-60.0367 64.7422-59.7947C64.2327-59.5187 64.0204-58.937 63.7274-58.4232C63.4642-57.9561 63.4684-57.4126 63.4132-56.8861C63.3495-56.2449 63.3368-55.591 63.3028-54.9456C63.3028-54.8776 63.2943-54.814 63.2986-54.7503C63.3707-53.9223 63.0862-53.1877 62.9291-52.4191C62.9249-52.4021 62.9122-52.3809 62.9122-52.3597C62.9079-51.6166 62.4493-51.0858 62.3517-50.381C62.2667-49.8035 62.1224-49.2345 62.0884-48.6485C62.0459-47.7824 62.0799-46.9077 62.0629-46.033C62.0459-45.222 62.0077-44.411 61.978-43.5957C61.9653-43.3749 61.8846-43.2051 61.6978-43.1838C61.5067-43.1626 61.4175-43.3112 61.3793-43.5363C61.3581-43.6637 61.3029-43.7741 61.2646-43.893L61.201-43.8802L61.201-43.8802ZM51.9316-16.0467C52.1991-16.1571 52.5261-16.2675 52.8488-16.4288C53.0144-16.5138 53.163-16.6836 53.3201-16.811C53.1502-17.0106 52.9889-17.2186 52.8106-17.397C52.7596-17.4479 52.6832-17.4182 52.6152-17.4267C52.4624-17.4522 52.284-17.4054 52.1609-17.5201C51.5579-18.0763 50.972-18.6835 50.3775-19.2653C50.024-19.6113 49.6617-19.9482 49.2905-20.2758C49.2353-20.3226 49.1461-20.2504 49.0739-20.2334L49.1886-19.9446C49.2183-19.8725 49.248-19.8003 49.2735-19.7196C49.3202-19.571 49.3457-19.3799 49.4179-19.2738C49.851-18.5859 50.3096-17.9447 50.7257-17.2356C51.0569-16.6709 51.3754-16.1316 51.9316-16.0467L51.9316-16.0467Z"/>
   <path class="monochrome-1 multicolor-1:tintColor hierarchical-1:tertiary SFSymbolsPreviewWireframe" d="M44.3636-80.5865C50.0861-80.5876 55.7528-79.4613 61.04-77.272C66.3271-75.0826 71.1312-71.8729 75.1774-67.8265C79.2239-63.7803 82.4335-58.9764 84.6232-53.6889C86.8124-48.4015 87.9387-42.7349 87.9376-37.0127C87.9376-12.9352 68.432 6.58658 44.3638 6.58658C20.2909 6.58658 0.7645-12.9399 0.7645-37.0127C0.7645-61.0781 20.2877-80.5865 44.3636-80.5865ZM44.3638-78.3365C21.53-78.3365 3.0145-59.8351 3.0145-37.0127C3.0145-14.1825 21.5336 4.33658 44.3638 4.33658C67.1889 4.33658 85.6876-14.1774 85.6876-37.0129C85.6886-42.4398 84.6205-47.8138 82.5443-52.828C80.4678-57.8425 77.4239-62.3983 73.5865-66.2355C69.7491-70.073 65.1932-73.1168 60.1791-75.1931C55.1651-77.2695 49.791-78.3376 44.3638-78.3365Z"/>
  </g>
 </g>
</svg>
