<?xml version="1.0" encoding="UTF-8"?>
<svg width="3300px" height="2200px" viewBox="0 0 3300 2200" version="1.1" xmlns="http://www.w3.org/2000/svg" xmlns:xlink="http://www.w3.org/1999/xlink">
    <!-- Generator: Sketch 59.1 (86144) - https://sketch.com -->
    <title>filter</title>
    <desc>Created with Sketch.</desc>
    <g id="Page-1" stroke="none" stroke-width="1" fill="none" fill-rule="evenodd">
        <g id="filter">
            <g id="Notes">
                <rect id="artboard" fill="#FFFFFF" fill-rule="nonzero" x="0" y="0" width="3300" height="2200"></rect>
                <line x1="263" y1="292" x2="3036" y2="292" id="Path" stroke="#000000" stroke-width="0.5"></line>
                <text id="Weight/Scale-Variations" fill="#000000" font-family="Helvetica-Bold, Helvetica" font-size="13" font-weight="bold">
                    <tspan x="263" y="322">Weight/Scale Variations</tspan>
                </text>
                <text id="Ultralight" fill="#000000" font-family="Helvetica" font-size="13" font-weight="normal">
                    <tspan x="533.711" y="322">Ultralight</tspan>
                </text>
                <text id="Thin" fill="#000000" font-family="Helvetica" font-size="13" font-weight="normal">
                    <tspan x="843.422" y="322">Thin</tspan>
                </text>
                <text id="Light" fill="#000000" font-family="Helvetica" font-size="13" font-weight="normal">
                    <tspan x="1138.63" y="322">Light</tspan>
                </text>
                <text id="Regular" fill="#000000" font-family="Helvetica" font-size="13" font-weight="normal">
                    <tspan x="1426.84" y="322">Regular</tspan>
                </text>
                <text id="Medium" fill="#000000" font-family="Helvetica" font-size="13" font-weight="normal">
                    <tspan x="1723.06" y="322">Medium</tspan>
                </text>
                <text id="Semibold" fill="#000000" font-family="Helvetica" font-size="13" font-weight="normal">
                    <tspan x="2015.77" y="322">Semibold</tspan>
                </text>
                <text id="Bold" fill="#000000" font-family="Helvetica" font-size="13" font-weight="normal">
                    <tspan x="2326.48" y="322">Bold</tspan>
                </text>
                <text id="Heavy" fill="#000000" font-family="Helvetica" font-size="13" font-weight="normal">
                    <tspan x="2618.19" y="322">Heavy</tspan>
                </text>
                <text id="Black" fill="#000000" font-family="Helvetica" font-size="13" font-weight="normal">
                    <tspan x="2917.4" y="322">Black</tspan>
                </text>
                <line x1="263" y1="1903" x2="3036" y2="1903" id="Path" stroke="#000000" stroke-width="0.5"></line>
                <g id="Group" transform="translate(264.000000, 1918.000000)" fill="#000000" fill-rule="nonzero">
                    <path d="M8.24805,15.830078 C12.5547,15.830078 16.1387,12.25586 16.1387,7.94922 C16.1387,3.6426 12.5449,0.0684 8.23828,0.0684 C3.94141,0.0684 0.36719,3.6426 0.36719,7.94922 C0.36719,12.25586 3.95117,15.830078 8.24805,15.830078 Z M8.24805,14.345703 C4.70312,14.345703 1.87109,11.50391 1.87109,7.94922 C1.87109,4.3945 4.69336,1.5527 8.23828,1.5527 C11.793,1.5527 14.6348,4.3945 14.6445503,7.94922 C14.6543,11.50391 11.8027,14.345703 8.24805,14.345703 Z M8.22852,11.57227 C8.69727,11.57227 8.9707,11.25977 8.9707,10.74219 L8.9707,8.68164 L11.1973,8.68164 C11.6953,8.68164 12.0371,8.42773 12.0371,7.95898 C12.0371,7.48047 11.7148,7.2168 11.1973,7.2168 L8.9707,7.2168 L8.9707,4.9902 C8.9707,4.4727 8.69727,4.1504 8.22852,4.1504 C7.75977,4.1504 7.50586,4.4922 7.50586,4.9902 L7.50586,7.2168 L5.29883,7.2168 C4.78125,7.2168 4.44922,7.48047 4.44922,7.95898 C4.44922,8.42773 4.80078,8.68164 5.29883,8.68164 L7.50586,8.68164 L7.50586,10.74219 C7.50586,11.24023 7.75977,11.57227 8.22852,11.57227 Z" id="Shape"></path>
                </g>
                <g id="Group" transform="translate(282.506000, 1915.000000)" fill="#000000" fill-rule="nonzero">
                    <path d="M10.709,20.91016 C16.1582,20.91016 20.6699,16.39844 20.6699,10.94922 C20.6699,5.5098 16.1484,0.9883 10.6992,0.9883 C5.25977,0.9883 0.74805,5.5098 0.74805,10.94922 C0.74805,16.39844 5.26953,20.91016 10.709,20.91016 Z M10.709,19.25 C6.09961,19.25 2.41797,15.55859 2.41797,10.94922 C2.41797,6.3496 6.08984,2.6484 10.6992,2.6484 C15.3086,2.6484 19,6.3496 19.0098379,10.94922 C19.0195,15.55859 15.3184,19.25 10.709,19.25 Z M10.6895,15.58789 C11.207,15.58789 11.5195,15.22656 11.5195,14.66016 L11.5195,11.76953 L14.5762,11.76953 C15.123,11.76953 15.5039,11.48633 15.5039,10.96875 C15.5039,10.44141 15.1426,10.13867 14.5762,10.13867 L11.5195,10.13867 L11.5195,7.0723 C11.5195,6.4961 11.207,6.1445 10.6895,6.1445 C10.1719,6.1445 9.8789,6.5156 9.8789,7.0723 L9.8789,10.13867 L6.83203,10.13867 C6.26562,10.13867 5.89453,10.44141 5.89453,10.96875 C5.89453,11.48633 6.28516,11.76953 6.83203,11.76953 L9.8789,11.76953 L9.8789,14.66016 C9.8789,15.20703 10.1719,15.58789 10.6895,15.58789 Z" id="Shape"></path>
                </g>
                <g id="Group" transform="translate(306.924000, 1913.000000)" fill="#000000" fill-rule="nonzero">
                    <path d="M12.9707,25.67383 C19.9336,25.67383 25.6953,19.921875 25.6953,12.95898 C25.6953,5.9961 19.9238,0.2441 12.9609,0.2441 C6.00781,0.2441 0.25586,5.9961 0.25586,12.95898 C0.25586,19.921875 6.01758,25.67383 12.9707,25.67383 Z M12.9707,23.85742 C6.93555,23.85742 2.08203,18.99414 2.08203,12.95898 C2.08203,6.9238 6.92578,2.0605 12.9609,2.0605 C19.0059,2.0605 23.8594,6.9238 23.8691295,12.95898 C23.8789,18.99414 19.0156,23.85742 12.9707,23.85742 Z M12.9512,18.93555 C13.5176,18.93555 13.8691,18.54492 13.8691,17.93945 L13.8691,13.86719 L18.1074,13.86719 C18.6934,13.86719 19.1133,13.53516 19.1133,12.97852 C19.1133,12.40234 18.7227,12.06055 18.1074,12.06055 L13.8691,12.06055 L13.8691,7.8125 C13.8691,7.1973 13.5176,6.8066 12.9512,6.8066 C12.3848,6.8066 12.0625,7.2168 12.0625,7.8125 L12.0625,12.06055 L7.83398,12.06055 C7.21875,12.06055 6.80859,12.40234 6.80859,12.97852 C6.80859,13.53516 7.23828,13.86719 7.83398,13.86719 L12.0625,13.86719 L12.0625,17.93945 C12.0625,18.52539 12.3848,18.93555 12.9512,18.93555 Z" id="Shape"></path>
                </g>
                <text id="Design-Variations" fill="#000000" font-family="Helvetica-Bold, Helvetica" font-size="13" font-weight="bold">
                    <tspan x="263" y="1953">Design Variations</tspan>
                </text>
                <text id="Symbols-are-supported-in-up-to-nine-weights-and-three-scales." fill="#000000" font-family="Helvetica" font-size="13" font-weight="normal">
                    <tspan x="263" y="1971">Symbols are supported in up to nine weights and three scales.</tspan>
                </text>
                <text id="For-optimal-layout-with-text-and-other-symbols,-vertically-align" fill="#000000" font-family="Helvetica" font-size="13" font-weight="normal">
                    <tspan x="263" y="1989">For optimal layout with text and other symbols, vertically align</tspan>
                </text>
                <text id="symbols-with-the-adjacent-text." fill="#000000" font-family="Helvetica" font-size="13" font-weight="normal">
                    <tspan x="263" y="2007">symbols with the adjacent text.</tspan>
                </text>
                <rect id="Rectangle" fill="#00AEEF" fill-rule="nonzero" opacity="0.4" x="776" y="1919" width="3" height="14"></rect>
                <g id="Group" transform="translate(779.000000, 1918.000000)" fill="#000000" fill-rule="nonzero">
                    <path d="M10.5273,15 L12.373,15 L7.17773,0.9082 L5.43945,0.9082 L0.244141,15 L2.08984,15 L3.50586,10.9668 L9.11133,10.9668 L10.5273,15 Z M6.2793,3.0469 L6.33789,3.0469 L8.59375,9.47266 L4.02344,9.47266 L6.2793,3.0469 Z" id="Shape"></path>
                </g>
                <rect id="Rectangle" fill="#00AEEF" fill-rule="nonzero" opacity="0.4" x="791.617" y="1919" width="3" height="14"></rect>
                <text id="Margins" fill="#000000" font-family="Helvetica-Bold, Helvetica" font-size="13" font-weight="bold">
                    <tspan x="776" y="1953">Margins</tspan>
                </text>
                <text id="Leading-and-trailing-margins-on-the-left-and-right-side-of-each-symbol" fill="#000000" font-family="Helvetica" font-size="13" font-weight="normal">
                    <tspan x="776" y="1971">Leading and trailing margins on the left and right side of each symbol</tspan>
                </text>
                <text id="can-be-adjusted-by-modifying-the-width-of-the-blue-rectangles." fill="#000000" font-family="Helvetica" font-size="13" font-weight="normal">
                    <tspan x="776" y="1989">can be adjusted by modifying the width of the blue rectangles.</tspan>
                </text>
                <text id="Modifications-are-automatically-applied-proportionally-to-all" fill="#000000" font-family="Helvetica" font-size="13" font-weight="normal">
                    <tspan x="776" y="2007">Modifications are automatically applied proportionally to all</tspan>
                </text>
                <text id="scales-and-weights." fill="#000000" font-family="Helvetica" font-size="13" font-weight="normal">
                    <tspan x="776" y="2025">scales and weights.</tspan>
                </text>
                <g id="Group" transform="translate(1291.000000, 1915.000000)" fill="#000000" fill-rule="nonzero">
                    <path d="M0.83203,21.11523 L2.375,22.6582 C3.22461,23.48828 4.19141,23.41992 5.06055,22.46289 L15.2754,11.33984 C15.7051,11.63281 16.0957,11.62305 16.5645,11.52539 L17.6094,11.31055 L18.3027,12.00391 L18.2539,12.52148 C18.1855,13.04883 18.3516,13.46875 18.8496,13.9668 L19.6602,14.77734 C20.168,15.28516 20.8223,15.31445 21.3008,14.83594 L24.5527,11.58398 C25.0312,11.10547 25.0117,10.45117 24.5039,9.94336 L23.6836,9.12305 C23.1855,8.625 22.7754,8.44922 22.2383,8.52734 L21.7109,8.58594 L21.0566,7.9219 L21.3398,6.7793 C21.4863,6.2129 21.3398,5.7441 20.7148,5.1387 L18.3027,2.7461 C14.7578,-0.7793 10.2266,-0.6719 7.11133,2.4629 C6.69141,2.8926 6.64258,3.4785 6.91602,3.9082 C7.15039,4.2793 7.62891,4.5039 8.2734,4.3379 C9.7871,3.957 11.3008,4.0742 12.7852,5.0801 L12.1602,6.6621 C11.9258,7.248 11.9453,7.7266 12.1797,8.16602 L1.01758,18.439453 C0.08008,19.30859 -0.02734,20.25586 0.83203,21.11523 Z M8.6738,2.8535 C11.3398,0.8613 14.6504,1.1738 17.0527,3.5859 L19.6797,6.1934 C19.9141,6.4277 19.9434,6.6133 19.8848,6.9062 L19.5039,8.46875 L21.0762,10.04102 L22.043,9.95312 C22.3262,9.92383 22.4141,9.94336 22.6387,10.16797 L23.2637,10.79297 L20.5098,13.53711 L19.8848,12.92188 C19.6602,12.69727 19.6406,12.59961 19.6699,12.31641 L19.7578,11.35938 L18.1953,9.79688 L16.5742,10.10938 C16.291,10.16797 16.1445,10.16797 15.9102,9.92383 L13.7324,7.7461 C13.5078,7.5117 13.4785,7.375 13.6055,7.0527 L14.5527,4.7773 C12.9512,3.2441 10.8418,2.3945 8.8008,3.0488 C8.7129,3.0781 8.6445,3.0586 8.6152,3.0195 C8.5859,2.9707 8.5859,2.9219 8.6738,2.8535 Z M2.10156,20.41211 C1.61328,19.91406 1.78906,19.61133 2.12109,19.30859 L13.0781,9.19141 L14.3086,10.42188 L4.15234,21.34961 C3.84961,21.68164 3.46875,21.7793 3.06836,21.37891 L2.10156,20.41211 Z" id="Shape"></path>
                </g>
                <text id="Exporting" fill="#000000" font-family="Helvetica-Bold, Helvetica" font-size="13" font-weight="bold">
                    <tspan x="1289" y="1953">Exporting</tspan>
                </text>
                <text id="Symbols-should-be-outlined-when-exporting-to-ensure-the" fill="#000000" font-family="Helvetica" font-size="13" font-weight="normal">
                    <tspan x="1289" y="1971">Symbols should be outlined when exporting to ensure the</tspan>
                </text>
                <text id="design-is-preserved-when-submitting-to-Xcode." fill="#000000" font-family="Helvetica" font-size="13" font-weight="normal">
                    <tspan x="1289" y="1989">design is preserved when submitting to Xcode.</tspan>
                </text>
                <text id="Template-v.1.0" fill="#000000" font-family="Helvetica" font-size="13" font-weight="normal">
                    <tspan x="2952" y="1933">Template v.1.0</tspan>
                </text>
                <text id="Generated-from-circle" fill="#000000" font-family="Helvetica" font-size="13" font-weight="normal">
                    <tspan x="2911" y="1951">Generated from circle</tspan>
                </text>
                <text id="Typeset-at-100-points" fill="#000000" font-family="Helvetica" font-size="13" font-weight="normal">
                    <tspan x="2912" y="1969">Typeset at 100 points</tspan>
                </text>
                <text id="Small" fill="#000000" font-family="Helvetica" font-size="13" font-weight="normal">
                    <tspan x="263" y="726">Small</tspan>
                </text>
                <text id="Medium" fill="#000000" font-family="Helvetica" font-size="13" font-weight="normal">
                    <tspan x="263" y="1156">Medium</tspan>
                </text>
                <text id="Large" fill="#000000" font-family="Helvetica" font-size="13" font-weight="normal">
                    <tspan x="263" y="1586">Large</tspan>
                </text>
            </g>
            <g id="Guides" transform="translate(263.000000, 625.000000)">
                <g id="H-reference" transform="translate(76.000000, 0.000000)" fill="#27AAE1" fill-rule="nonzero">
                    <path d="M54.9316,71 L57.666,71 L30.5664,0.541 L28.0762,0.541 L0.976562,71 L3.66211,71 L12.9395,46.5371 L45.7031,46.5371 L54.9316,71 Z M29.1992,3.9102 L29.4434,3.9102 L44.8242,44.291 L13.8184,44.291 L29.1992,3.9102 Z" id="Shape"></path>
                </g>
                <line x1="0" y1="71" x2="2773" y2="71" id="Baseline-S" stroke="#27AAE1" stroke-width="0.577"></line>
                <line x1="0" y1="0.541" x2="2773" y2="0.541" id="Capline-S" stroke="#27AAE1" stroke-width="0.577"></line>
                <g id="H-reference" transform="translate(76.000000, 430.000000)" fill="#27AAE1" fill-rule="nonzero">
                    <path d="M54.9316,71 L57.666,71 L30.5664,0.541 L28.0762,0.541 L0.976562,71 L3.66211,71 L12.9395,46.5371 L45.7031,46.5371 L54.9316,71 Z M29.1992,3.9102 L29.4434,3.9102 L44.8242,44.291 L13.8184,44.291 L29.1992,3.9102 Z" id="Shape"></path>
                </g>
                <line x1="0" y1="501" x2="2773" y2="501" id="Baseline-M" stroke="#27AAE1" stroke-width="0.577"></line>
                <line x1="0" y1="430.54" x2="2773" y2="430.54" id="Capline-M" stroke="#27AAE1" stroke-width="0.577"></line>
                <g id="H-reference" transform="translate(76.000000, 860.000000)" fill="#27AAE1" fill-rule="nonzero">
                    <path d="M54.9316,71 L57.666,71 L30.5664,0.541 L28.0762,0.541 L0.976562,71 L3.66211,71 L12.9395,46.5371 L45.7031,46.5371 L54.9316,71 Z M29.1992,3.9102 L29.4434,3.9102 L44.8242,44.291 L13.8184,44.291 L29.1992,3.9102 Z" id="Shape"></path>
                </g>
                <line x1="0" y1="931" x2="2773" y2="931" id="Baseline-L" stroke="#27AAE1" stroke-width="0.577"></line>
                <line x1="0" y1="860.54" x2="2773" y2="860.54" id="Capline-L" stroke="#27AAE1" stroke-width="0.577"></line>
                <rect id="left-margin" fill="#00AEEF" fill-rule="nonzero" opacity="0.4" x="1128.3" y="405.79" width="8.74023" height="119.336"></rect>
                <rect id="right-margin" fill="#00AEEF" fill-rule="nonzero" opacity="0.4" x="1236.65" y="405.79" width="8.74023" height="119.336"></rect>
            </g>
            <g id="Symbols" transform="translate(1399.000000, 1040.000000)" fill="#000000" fill-rule="nonzero">
                <g id="Regular-M" transform="translate(0.300000, 0.000000)">
                    <path d="M50.5449,100.5508 C77.791,100.5508 100.35,77.99219 100.35,50.7461 C100.35,23.5488 77.7422,0.9414 50.4961,0.9414 C23.2988,0.9414 0.74023,23.5488 0.74023,50.7461 C0.74023,77.99219 23.3477,100.5508 50.5449,100.5508 Z M50.1551,92.0078 C27.1082,92.0078 8.7,73.5508 8.7,50.5039 C8.7,27.5058 27.0594,9 50.1063,9 C73.1532,9 91.6102,27.5058 91.6593938,50.5039 C91.7082,73.5508 73.202,92.0078 50.1551,92.0078 Z" id="Shape"></path>
                    <path d="M39.7608223,75.7910556 C39.7232847,76.0069035 39.6669784,76.2133668 39.657594,76.4385995 C39.610672,77.3864536 39.5778267,78.3390001 39.5309047,79.2868542 C39.5121359,79.662242 39.4980593,80.0751686 39.4229842,80.3848635 C39.3666779,80.5960191 39.2071432,80.7602513 39.0898383,80.7696359 C38.9209193,80.7884053 38.7895378,80.5725574 38.8223832,80.0892456 L39.0288398,77.1330669 C39.0398329,77.0158062 39.0366822,76.8976489 39.0194554,76.7811408 C38.8693052,77.6492251 38.5126983,78.3436924 38.6300032,79.4229323 C38.6769252,79.9203211 38.6206188,80.1173997 38.4000856,80.2018619 C38.3578559,80.215939 38.3250105,80.3144783 38.2874729,80.3426324 C38.210862,80.3905697 38.1268239,80.4254546 38.0387866,80.445864 C37.9496349,80.4646334 37.8417144,80.3895558 37.7713315,80.4787104 C37.5648749,80.7274048 37.3490339,80.6194808 37.2458056,80.1408614 C37.2296511,80.0238298 37.2328214,79.9049397 37.25519,79.7889354 C37.4460712,78.7500855 37.4508375,77.6855804 37.2692666,76.6450628 C37.2364212,76.4385995 37.1425773,76.2790597 37.0675022,76.0819811 C36.80238,76.9476292 36.6865487,77.8520945 36.7249719,78.756619 C36.7471043,79.2568913 36.7471043,79.7578978 36.7249719,80.2581701 C36.7108953,80.6335579 36.6498968,81.0511768 36.4246714,80.9948686 C36.2275992,80.9479451 36.1666006,80.6007114 36.1572163,80.1971696 L36.1149865,78.8176195 C36.1149865,78.7143879 36.0962177,78.6064639 36.0821411,78.5032323 L36.007066,78.4703858 C35.9507597,78.8551583 35.8850689,79.2399308 35.838147,79.6387803 C35.791225,80.000091 35.7724562,80.3848635 35.7255343,80.7508666 C35.7161499,80.8447135 35.6316904,80.9854839 35.598845,80.9573298 C35.5190777,80.8869446 35.3876962,80.7461742 35.3876962,80.6241732 C35.3783118,80.0610915 35.406465,79.5027022 35.429926,78.9443129 C35.4393104,78.6862338 35.4674635,78.432847 35.4862323,78.1794603 L35.406465,78.0996904 C35.3689274,78.2545378 35.3220055,78.3953083 35.2938523,78.5595404 C35.1859318,79.216469 35.0967801,79.8968594 34.974783,80.5397109 C34.9278611,80.8071747 34.8246328,81.0511768 34.6604059,80.8822523 C34.4539493,80.675789 34.4586415,80.2347084 34.5196401,79.9062441 C34.6744825,79.0616216 34.829325,78.1841526 35.0592425,77.4427618 C35.3126211,76.6262934 35.6504592,75.9412107 35.9601441,75.2185892 C36.1806772,74.702431 36.415287,74.2050422 36.6498968,73.7217305 C37.0252724,72.9568779 37.4147246,72.2389487 37.7760237,71.4412497 C38.0069525,70.9066911 38.0974034,70.3219717 38.0387866,69.74262 C37.9730959,68.7853812 37.9590193,67.809373 37.9355583,66.8380571 C37.9214817,66.3218989 37.9496349,65.8057407 37.6540266,65.6321239 C37.5695671,65.5805081 37.5226451,65.2567361 37.4428778,65.106581 C37.2270368,64.7171162 36.9736582,64.4214983 36.7859704,63.9663406 C36.4950543,63.2484115 36.0962177,63.0372559 35.7489953,62.5914829 C35.453387,62.2160951 35.190624,61.6811676 34.9184767,61.2166252 C34.8609483,61.116493 34.7983028,61.0193893 34.7307889,60.9256997 C34.5431011,60.6770053 34.3460289,60.4658496 34.1677254,60.1796165 C33.8926698,59.7449101 33.6389896,59.2970404 33.4075898,58.8376052 C33.2339786,58.4809868 33.1025971,58.0117521 32.9242937,57.6551337 C32.6615307,57.1108214 32.3612302,56.6603561 32.1031595,56.1066591 C31.8075512,55.4731922 31.5447882,54.7693401 31.2773331,54.0889498 C30.9911092,53.3804054 30.7142697,52.6483992 30.4327379,51.9398548 C30.2168969,51.4190042 29.977595,50.9544619 29.7758306,50.4054573 C29.5601178,49.7820237 29.3660575,49.1513072 29.1939984,48.5144413 C28.9969262,47.8246663 28.7951618,47.1395836 28.6497037,46.3981928 C28.5277066,45.7975723 28.4901691,45.1077973 28.4057095,44.4743304 C28.2649437,43.4560911 28.0960246,42.4660058 27.9787198,41.4430741 C27.8567227,40.4248348 27.8191851,39.3549796 27.6737271,38.3648944 C27.4485017,36.8258045 27.2279685,35.2773299 26.688366,34.0901661 C26.4046925,33.3968122 26.1848135,32.6790412 26.0314587,31.9457634 C25.7593114,30.791446 25.534086,29.5761281 25.2900918,28.3889642 C25.2853996,28.3608101 25.2713231,28.3279637 25.2713231,28.2951173 C25.2994762,27.5068029 25.0460977,27.5021106 24.8255645,27.4833412 C24.2343479,27.4317254 23.6431313,27.4223407 23.0519147,27.3801096 C22.9346098,27.3707249 22.8173049,27.2721856 22.7,27.2158774 C22.7563063,26.9155672 22.7797673,26.4838713 22.8783034,26.3337162 C23.1598351,25.9067126 23.4789044,25.5829406 23.7838971,25.2357069 C24.285962,24.6632405 24.8255645,24.4614696 25.3792435,24.4849314 C25.5387782,24.4943161 25.6279299,24.2972375 25.6466987,23.9546961 C25.7405426,22.4156062 26.1534558,21.5146756 26.7259036,20.8999781 C27.176941,20.4334849 27.7720323,20.1326235 28.4150939,20.0459709 C28.968773,19.9380469 29.5318364,20.0459709 30.0902077,20.1069714 C30.5500428,20.1538949 31.0192624,20.1867413 31.4650209,20.4072816 C31.8591976,20.658772 32.1951393,20.991525 32.4503819,21.3832899 C32.8820639,21.9510639 33.2809005,22.6314542 33.6891215,23.2696134 C33.9988064,23.7529252 34.2991069,24.2690834 34.6181762,24.7195487 C34.805864,24.9729355 35.0123206,25.1137059 35.2093928,25.3201692 C35.5378465,25.6674028 35.8569158,26.0334059 36.1853694,26.3759473 C36.3730572,26.5636412 36.5607451,26.7513351 36.7484329,26.8967978 C37.2035758,27.2393392 37.6681032,27.52088 38.1091695,27.8915754 C38.5783891,28.2763479 39.0382242,28.1215004 39.5074437,28.0792693 C39.8539322,28.0677141 40.1998545,28.1153197 40.5303423,28.2200397 C41.2341716,28.4030413 41.9380009,28.5672734 42.637138,28.8488142 C43.3503517,29.1397398 44.054181,29.5385893 44.7580103,29.9374388 C45.6776806,30.4629817 46.6020431,30.9885246 47.512329,31.6079144 C48.1692363,32.0583797 48.8026827,32.6308461 49.3704384,33.6068543 C49.7645828,34.2731676 50.2760321,34.6063243 50.7452516,34.981712 C51.3364682,35.4509467 51.932377,35.8920274 52.5376702,36.2157993 C53.4714171,36.7178805 54.4145484,37.130807 55.3529874,37.5484259 C55.822207,37.7501969 56.2914265,37.8768902 56.7559538,38.0505071 C57.7882368,38.4258949 58.8205198,38.7027434 59.8715715,38.6886663 C60.5988618,38.6792816 61.3261521,38.7684362 62.0581346,38.7402821 C62.813578,38.7168204 63.5737137,38.5995117 64.3338493,38.5291265 C65.0564474,38.4587413 65.7790455,38.4212025 66.5016436,38.3226632 C66.8910958,38.2757398 67.280548,38.1162 67.6746924,38.022353 C67.9093022,37.9660448 68.1486041,37.9472755 68.3925983,37.8956596 C69.1902715,37.7173504 70.0020213,37.5718877 70.7996945,37.332578 C71.3627579,37.1683458 71.9211292,36.8774203 72.4748082,36.6193412 C73.0191029,36.3753391 73.5540132,36.0844136 74.0983078,35.8451039 C74.895981,35.4931779 75.6936543,35.1506365 76.5007119,34.8503263 C77.5799168,34.4420921 78.6685061,34.1652436 79.7430188,33.6725472 C80.3764652,33.3816216 80.9911428,33.5317767 81.619897,33.5130074 C81.7606628,33.5130074 81.9014287,33.4473145 82.0375024,33.5036227 C82.2537162,33.5952437 82.4462601,33.7348426 82.6005658,33.9118569 C82.6803331,34.0057038 82.7647926,34.3153987 82.7647926,34.521862 C82.7554082,35.0567896 82.8539444,35.1881753 83.0650931,35.2069447 C83.2246278,35.2210217 83.3935468,35.3477151 83.5436971,35.5025626 C83.7595381,35.7277952 83.7548459,36.778881 83.5108517,37.0416524 C83.2634845,37.3267837 82.9578862,37.5555899 82.6146424,37.7126581 C82.0375024,37.9613525 81.4556701,38.1068153 80.8785301,38.3132785 C80.7940706,38.3414326 80.7236877,38.4868954 80.5829218,38.6511275 C80.7096111,38.712128 80.7659174,38.7590515 80.8175316,38.7637439 L81.957735,38.8247444 C82.1923448,38.8388214 82.4316468,38.8153597 82.6615643,38.8904372 C82.7929458,38.9373607 82.9149429,39.143824 83.0322478,39.2986714 C83.0373538,39.3986568 83.0246435,39.4987536 82.9947102,39.5942893 C82.5114141,40.3309878 81.9671194,40.6406827 81.3993638,40.6922986 C80.7424564,40.7579914 80.0902413,40.8049149 79.4380261,40.8846848 C79.2503383,40.9081465 79.0673427,41.0160705 78.8843471,41.0864557 L78.8843471,41.2600726 C79.0110364,41.3023037 79.1377256,41.3726889 79.2644149,41.3773813 C79.5600232,41.3914583 79.8556315,41.3304578 80.1465476,41.3773813 C80.4843857,41.41492 80.8175316,41.5369211 81.1506774,41.6119986 C81.3242887,41.6589221 81.4462857,41.8888471 81.4228248,42.2595425 C81.4061588,42.4878421 81.3301374,42.7078259 81.2022916,42.8977017 C80.7706096,43.4467064 80.2779291,43.4701681 79.7993252,43.6015538 C79.2362617,43.7610936 78.6685061,43.995711 78.1007505,44.1270967 C77.4907651,44.2725595 76.8807797,44.3194829 76.2707943,44.455561 C76.1018752,44.4930998 75.9423406,44.7183325 75.7687294,44.8027947 C75.2385113,45.0749508 74.7082932,45.3893381 74.1686908,45.5441856 C73.6337805,45.699033 73.0894858,45.6708789 72.5498834,45.7318794 C72.2293802,45.7684724 71.9101441,45.8154205 71.5926755,45.8726499 C71.5598302,45.8773422 71.531677,45.9852662 71.4988316,46.0462667 C71.5457536,46.1025749 71.5926755,46.2058065 71.6349053,46.2104989 C72.0008965,46.2480376 72.3668878,46.2621147 72.7375712,46.2996535 C73.2677893,46.3465769 73.7980073,46.4122698 74.3329176,46.4638856 C74.4267615,46.4732703 74.5206054,46.4357315 74.6144493,46.4310392 C75.566965,46.360654 76.5194806,46.2433453 77.4719963,46.2574223 C77.7676046,46.2574223 78.0632129,46.5671172 78.354129,46.7970423 C78.4245119,46.8533504 78.5042793,47.1255066 78.5089715,47.3132005 C78.511424,47.5077067 78.4697111,47.7002341 78.3869744,47.8762821 C78.0115988,48.5144413 77.5705324,48.7959822 77.1200816,48.861675 C76.359946,48.9742914 75.5951181,48.9883684 74.8349825,49.0212148 C74.0326171,49.0587536 73.2302517,49.0540613 72.4231941,49.0869077 C71.6865194,49.1197541 70.9498448,49.2276781 70.2178623,49.2182934 C69.3122686,49.2089087 68.4160593,49.1103694 67.5151578,49.063446 C67.1679353,49.0493689 66.825405,49.0822153 66.4828748,49.063446 C66.1544211,49.0493689 65.8212752,48.9367526 65.4975138,48.9789837 C64.9156815,49.0493689 64.3244649,49.0822153 63.7614015,49.3590638 C63.2124146,49.6265276 62.6915809,50.2036863 62.1519785,50.6072282 C61.8049779,50.8588872 61.4430124,51.0892363 61.0680814,51.2970032 C60.6082462,51.5597747 60.1437189,51.794392 59.6791915,52.0477788 C59.3616662,52.2193294 59.0487433,52.3992658 58.7407525,52.5873987 C58.6581001,52.6512874 58.6014184,52.7429813 58.5812178,52.8454778 C58.487112,53.391037 58.2088945,53.88787 57.792929,54.253182 C57.7225461,54.3188748 57.6568553,54.4314911 57.5911646,54.5253381 C57.6380866,54.6661085 57.6709319,54.84911 57.7319305,54.9476493 C58.2227511,55.7691166 58.7391451,56.5750302 59.2803549,57.3642081 C59.6510384,57.8709816 60.0123374,58.3918322 60.387713,58.8282205 C61.0211594,59.564919 61.6639902,60.2640787 62.3115131,60.930392 C62.7666561,61.3996267 63.2358756,61.8078609 63.7004029,62.2301722 C64.1696225,62.6524834 64.638842,63.0701023 65.1127537,63.4689518 C65.4693606,63.7692621 65.8306596,64.0367259 66.1825743,64.3370361 C66.5297967,64.6279616 66.872327,64.9470412 67.2195495,65.2473514 C67.3026127,65.3243601 67.3938745,65.3920219 67.4916968,65.4491224 C68.0876056,65.768202 68.6882066,66.0685122 69.2794232,66.3969765 C69.706413,66.6315939 70.1334028,66.8755959 70.5557003,67.1805985 C70.7433882,67.3213689 70.9216916,67.6029097 71.099995,67.8375271 C71.2032233,67.9782975 71.2876828,68.1941455 71.4002955,68.2926848 C71.6818272,68.5554562 71.8601307,69.0763067 71.8507463,69.7097736 C71.8413619,70.4370874 71.8085165,71.2254018 71.4143721,71.5960972 C70.9826901,71.999639 70.5603925,71.8917151 70.1240184,71.7744064 C69.4577266,71.5914048 68.7867427,71.431865 68.120451,71.2676329 C67.8858412,71.2066324 67.6512314,71.1409395 67.4166217,71.1080931 C66.8629426,71.0330155 66.3139558,71.0095538 65.7649689,70.9063221 C65.3755167,70.8359369 64.9907567,70.6435507 64.6013045,70.5590885 C64.1977757,70.4699339 63.7942469,70.4417798 63.3907181,70.3854716 L63.3766415,70.5403191 C63.5737137,70.7655517 63.7801703,70.9532456 63.9631659,71.2300941 C64.1836991,71.5632508 64.3760791,71.985562 64.5919201,72.3421804 C64.6716874,72.4735661 64.7749157,72.5814901 64.8734518,72.6002595 C65.3473635,72.6894141 65.7462001,73.2337264 66.1684977,73.6935764 C66.4687982,74.0220407 66.8113285,74.1628111 67.1397821,74.3176586 C67.4541592,74.4771984 67.6700002,74.8338167 67.7497675,75.5845923 C67.8154583,76.2086745 67.6700002,76.6262934 67.4025451,76.8092949 C66.6940236,77.2926067 65.9901943,77.0251429 65.2816728,76.8562184 C64.6294576,76.6966786 63.9819347,76.5840622 63.3344117,76.3869837 C62.6775044,76.1899051 62.0252892,75.8989796 61.3730741,75.6690545 C60.7396277,75.4532066 60.1061813,75.2608203 59.4774271,75.0684341 C59.0504374,74.9370484 58.6187554,74.8666632 58.1917656,74.6930463 C57.7366227,74.5147371 57.2908641,74.2238116 56.8357212,74.026733 C56.399347,73.8390391 55.9582806,73.6982687 55.5172143,73.5434213 C55.0245337,73.3698044 54.5318532,73.2384187 54.0438649,73.0272631 C53.4901859,72.783261 52.9458912,72.4547967 52.3922122,72.1826406 C52.101296,72.0418702 51.8009955,71.9808697 51.5100794,71.8260222 C51.1581648,71.6383283 50.8156345,71.3849416 50.4684121,71.1690936 C50.130574,70.9673227 49.7880437,70.7796288 49.4502057,70.5919349 C49.1405208,70.418318 48.8308359,70.2775476 48.5258432,70.0757767 C47.8841708,69.6501421 47.2551452,69.2057414 46.6395807,68.7431501 C46.2172831,68.4240705 45.8184465,67.9736051 45.3961489,67.6779873 C44.9269294,67.349523 44.438941,67.1149056 43.9556449,66.8615189 C43.6600366,66.7113638 43.3644283,66.6175168 43.0641278,66.4955158 C43.0312824,66.4814387 42.9984371,66.457977 42.9608995,66.4485923 C42.5714473,66.3172066 42.5432941,66.350053 42.4822956,67.2369066 C42.4723674,67.7634874 42.3707469,68.2843093 42.1819951,68.7759965 C42.0412292,69.0856914 41.9755385,69.5549262 41.867618,69.9490833 C41.8274669,70.0962366 41.7772998,70.2404718 41.7174677,70.3807793 C41.3280155,71.3004793 40.9197945,72.20141 40.5397267,73.1398794 C40.310127,73.7562115 40.2612905,74.4252931 40.3989608,75.0684341 C40.6148018,76.3165985 40.8024896,77.5929169 40.9761009,78.8692353 C41.0324072,79.2821619 41.0089462,79.7513966 41.0089462,80.1924772 C41.0083419,80.2962532 40.9808597,80.3981021 40.9291789,80.4880951 C40.9010258,80.5209415 40.8259506,80.4505563 40.8024896,80.3754788 C40.6954126,80.0224748 40.6015038,79.6656097 40.5209579,79.3056236 C40.3332701,78.4140777 40.1455823,77.513147 39.9719711,76.6122163 C39.9156647,76.3353678 39.8781272,76.03975 39.8312052,75.7535168 L39.7608223,75.7910556 L39.7608223,75.7910556 Z M36.7184705,74.9859232 C36.7284708,75.2009289 36.6584693,75.4609358 36.7784718,75.6359404 C37.0834781,76.070952 37.3734842,76.6459672 37.8634943,76.8359722 C38.4535066,77.0709785 39.243523,76.9859762 39.9485377,76.9809761 C40.5485501,76.9709758 40.8085555,76.6809681 40.928558,76.1809549 C41.0935615,75.4809363 41.2585649,74.7059158 41.743575,74.1559012 C42.853598,72.9008679 44.4536313,71.9558429 45.2436477,70.4758036 C45.593655,69.8057859 46.3586709,69.2707717 46.6586771,68.5907537 C46.8186804,68.2307441 46.4836735,67.6457286 46.173667,67.2707187 C46.0036635,67.0707134 45.3036489,66.9207094 45.0386434,67.0457127 C44.0936238,67.4657239 43.1086033,67.9107356 42.3785882,68.5307521 C41.358567,69.395775 40.5585503,70.4308025 39.6535315,71.3808276 C39.0685194,72.0008441 38.5535087,72.6808621 37.8534941,73.1958757 C37.1634798,73.7008891 36.5884678,74.1709016 36.7184705,74.9859232 L36.7184705,74.9859232 Z" id="Shape"></path>
                </g>
            </g>
        </g>
    </g>
</svg>