<?xml version="1.0" encoding="UTF-8"?>
<!--Generator: Apple Native CoreSVG 341-->
<!DOCTYPE svg
PUBLIC "-//W3C//DTD SVG 1.1//EN"
       "http://www.w3.org/Graphics/SVG/1.1/DTD/svg11.dtd">
<svg version="1.1" xmlns="http://www.w3.org/2000/svg" xmlns:xlink="http://www.w3.org/1999/xlink" viewBox="0 0 3300 2200">
 <!--glyph: "", point size: 100.0, font version: "20.0d10e1", template writer version: "138.0.0"-->
 <style>.monochrome-0 {-sfsymbols-motion-group:1;-sfsymbols-layer-tags:-45cb2b750eb6ce08}
.monochrome-1 {-sfsymbols-motion-group:0;-sfsymbols-layer-tags:-45cb2b750eb6ce08}

.multicolor-0:tintColor {-sfsymbols-motion-group:1;-sfsymbols-layer-tags:-45cb2b750eb6ce08}
.multicolor-1:tintColor {-sfsymbols-motion-group:0;-sfsymbols-layer-tags:-45cb2b750eb6ce08}

.hierarchical-0:primary {-sfsymbols-motion-group:1;-sfsymbols-layer-tags:-45cb2b750eb6ce08}
.hierarchical-1:tertiary {-sfsymbols-motion-group:0;-sfsymbols-layer-tags:-45cb2b750eb6ce08}

.SFSymbolsPreviewWireframe {fill:none;opacity:1.0;stroke:black;stroke-width:0.5}
</style>
 <g id="Notes">
  <rect height="2200" id="artboard" style="fill:white;opacity:1" width="3300" x="0" y="0"/>
  <line style="fill:none;stroke:black;opacity:1;stroke-width:0.5;" x1="263" x2="3036" y1="292" y2="292"/>
  <text style="stroke:none;fill:black;font-family:sans-serif;font-size:13;font-weight:bold;" transform="matrix(1 0 0 1 263 322)">Weight/Scale Variations</text>
  <text style="stroke:none;fill:black;font-family:sans-serif;font-size:13;text-anchor:middle;" transform="matrix(1 0 0 1 559.711 322)">Ultralight</text>
  <text style="stroke:none;fill:black;font-family:sans-serif;font-size:13;text-anchor:middle;" transform="matrix(1 0 0 1 856.422 322)">Thin</text>
  <text style="stroke:none;fill:black;font-family:sans-serif;font-size:13;text-anchor:middle;" transform="matrix(1 0 0 1 1153.13 322)">Light</text>
  <text style="stroke:none;fill:black;font-family:sans-serif;font-size:13;text-anchor:middle;" transform="matrix(1 0 0 1 1449.84 322)">Regular</text>
  <text style="stroke:none;fill:black;font-family:sans-serif;font-size:13;text-anchor:middle;" transform="matrix(1 0 0 1 1746.56 322)">Medium</text>
  <text style="stroke:none;fill:black;font-family:sans-serif;font-size:13;text-anchor:middle;" transform="matrix(1 0 0 1 2043.27 322)">Semibold</text>
  <text style="stroke:none;fill:black;font-family:sans-serif;font-size:13;text-anchor:middle;" transform="matrix(1 0 0 1 2339.98 322)">Bold</text>
  <text style="stroke:none;fill:black;font-family:sans-serif;font-size:13;text-anchor:middle;" transform="matrix(1 0 0 1 2636.69 322)">Heavy</text>
  <text style="stroke:none;fill:black;font-family:sans-serif;font-size:13;text-anchor:middle;" transform="matrix(1 0 0 1 2933.4 322)">Black</text>
  <line style="fill:none;stroke:black;opacity:1;stroke-width:0.5;" x1="263" x2="3036" y1="1903" y2="1903"/>
  <g transform="matrix(0.2 0 0 0.2 263 1933)">
   <path d="m46.2402 4.15039c21.7773 0 39.4531-17.627 39.4531-39.4043s-17.6758-39.4043-39.4531-39.4043c-21.7285 0-39.4043 17.627-39.4043 39.4043s17.6758 39.4043 39.4043 39.4043Zm0-7.42188c-17.6758 0-31.9336-14.3066-31.9336-31.9824s14.2578-31.9824 31.9336-31.9824 31.9824 14.3066 31.9824 31.9824-14.3066 31.9824-31.9824 31.9824Zm-17.9688-31.9824c0 2.14844 1.51367 3.61328 3.75977 3.61328h10.498v10.5957c0 2.19727 1.46484 3.71094 3.61328 3.71094 2.24609 0 3.71094-1.51367 3.71094-3.71094v-10.5957h10.5957c2.19727 0 3.71094-1.46484 3.71094-3.61328 0-2.19727-1.51367-3.71094-3.71094-3.71094h-10.5957v-10.5469c0-2.24609-1.46484-3.75977-3.71094-3.75977-2.14844 0-3.61328 1.51367-3.61328 3.75977v10.5469h-10.498c-2.24609 0-3.75977 1.51367-3.75977 3.71094Z"/>
  </g>
  <g transform="matrix(0.2 0 0 0.2 281.506 1933)">
   <path d="m58.5449 14.5508c27.4902 0 49.8047-22.3145 49.8047-49.8047s-22.3145-49.8047-49.8047-49.8047-49.8047 22.3145-49.8047 49.8047 22.3145 49.8047 49.8047 49.8047Zm0-8.30078c-22.9492 0-41.5039-18.5547-41.5039-41.5039s18.5547-41.5039 41.5039-41.5039 41.5039 18.5547 41.5039 41.5039-18.5547 41.5039-41.5039 41.5039Zm-22.6562-41.5039c0 2.39258 1.66016 4.00391 4.15039 4.00391h14.3555v14.4043c0 2.44141 1.66016 4.15039 4.05273 4.15039 2.44141 0 4.15039-1.66016 4.15039-4.15039v-14.4043h14.4043c2.44141 0 4.15039-1.61133 4.15039-4.00391 0-2.44141-1.70898-4.15039-4.15039-4.15039h-14.4043v-14.3555c0-2.49023-1.70898-4.19922-4.15039-4.19922-2.39258 0-4.05273 1.70898-4.05273 4.19922v14.3555h-14.3555c-2.49023 0-4.15039 1.70898-4.15039 4.15039Z"/>
  </g>
  <g transform="matrix(0.2 0 0 0.2 304.924 1933)">
   <path d="m74.8535 28.3203c35.1074 0 63.623-28.4668 63.623-63.5742s-28.5156-63.623-63.623-63.623-63.5742 28.5156-63.5742 63.623 28.4668 63.5742 63.5742 63.5742Zm0-9.08203c-30.127 0-54.4922-24.3652-54.4922-54.4922s24.3652-54.4922 54.4922-54.4922 54.4922 24.3652 54.4922 54.4922-24.3652 54.4922-54.4922 54.4922Zm-28.8574-54.4922c0 2.58789 1.85547 4.39453 4.58984 4.39453h19.7266v19.7754c0 2.68555 1.85547 4.58984 4.44336 4.58984 2.68555 0 4.54102-1.85547 4.54102-4.58984v-19.7754h19.7754c2.68555 0 4.58984-1.80664 4.58984-4.39453 0-2.73438-1.85547-4.58984-4.58984-4.58984h-19.7754v-19.7266c0-2.73438-1.85547-4.63867-4.54102-4.63867-2.58789 0-4.44336 1.9043-4.44336 4.63867v19.7266h-19.7266c-2.73438 0-4.58984 1.85547-4.58984 4.58984Z"/>
  </g>
  <text style="stroke:none;fill:black;font-family:sans-serif;font-size:13;font-weight:bold;" transform="matrix(1 0 0 1 263 1953)">Design Variations</text>
  <text style="stroke:none;fill:black;font-family:sans-serif;font-size:13;" transform="matrix(1 0 0 1 263 1971)">Symbols are supported in up to nine weights and three scales.</text>
  <text style="stroke:none;fill:black;font-family:sans-serif;font-size:13;" transform="matrix(1 0 0 1 263 1989)">For optimal layout with text and other symbols, vertically align</text>
  <text style="stroke:none;fill:black;font-family:sans-serif;font-size:13;" transform="matrix(1 0 0 1 263 2007)">symbols with the adjacent text.</text>
  <line style="fill:none;stroke:#00AEEF;stroke-width:0.5;opacity:1.0;" x1="776" x2="776" y1="1919" y2="1933"/>
  <g transform="matrix(0.2 0 0 0.2 776 1933)">
   <path d="m16.5527 0.78125c2.58789 0 3.85742-0.976562 4.78516-3.71094l6.29883-17.2363h28.8086l6.29883 17.2363c0.927734 2.73438 2.19727 3.71094 4.73633 3.71094 2.58789 0 4.24805-1.5625 4.24805-4.00391 0-0.830078-0.146484-1.61133-0.537109-2.63672l-22.9004-60.9863c-1.12305-2.97852-3.125-4.49219-6.25-4.49219-3.02734 0-5.07812 1.46484-6.15234 4.44336l-22.9004 61.084c-0.390625 1.02539-0.537109 1.80664-0.537109 2.63672 0 2.44141 1.5625 3.95508 4.10156 3.95508Zm13.4766-28.3691 11.8652-32.8613h0.244141l11.8652 32.8613Z"/>
  </g>
  <line style="fill:none;stroke:#00AEEF;stroke-width:0.5;opacity:1.0;" x1="792.836" x2="792.836" y1="1919" y2="1933"/>
  <text style="stroke:none;fill:black;font-family:sans-serif;font-size:13;font-weight:bold;" transform="matrix(1 0 0 1 776 1953)">Margins</text>
  <text style="stroke:none;fill:black;font-family:sans-serif;font-size:13;" transform="matrix(1 0 0 1 776 1971)">Leading and trailing margins on the left and right side of each symbol</text>
  <text style="stroke:none;fill:black;font-family:sans-serif;font-size:13;" transform="matrix(1 0 0 1 776 1989)">can be adjusted by modifying the x-location of the margin guidelines.</text>
  <text style="stroke:none;fill:black;font-family:sans-serif;font-size:13;" transform="matrix(1 0 0 1 776 2007)">Modifications are automatically applied proportionally to all</text>
  <text style="stroke:none;fill:black;font-family:sans-serif;font-size:13;" transform="matrix(1 0 0 1 776 2025)">scales and weights.</text>
  <g transform="matrix(0.2 0 0 0.2 1289 1933)">
   <path d="m14.209 9.32617 8.49609 8.54492c4.29688 4.3457 9.22852 4.05273 13.8672-1.07422l53.4668-58.9355-4.83398-4.88281-53.0762 58.3984c-1.75781 2.00195-3.41797 2.49023-5.76172 0.146484l-5.85938-5.81055c-2.34375-2.29492-1.80664-4.00391 0.195312-5.81055l57.373-54.0039-4.88281-4.83398-57.959 54.4434c-4.93164 4.58984-5.32227 9.47266-1.02539 13.8184Zm32.0801-90.9668c-2.09961 2.05078-2.24609 4.93164-1.07422 6.88477 1.17188 1.80664 3.4668 2.97852 6.68945 2.14844 7.32422-1.70898 14.9414-2.00195 22.0703 2.68555l-2.92969 7.27539c-1.70898 4.15039-0.830078 7.08008 1.85547 9.81445l11.4746 11.5723c2.44141 2.44141 4.49219 2.53906 7.32422 2.05078l5.32227-0.976562 3.32031 3.36914-0.195312 2.7832c-0.195312 2.49023 0.439453 4.39453 2.88086 6.78711l3.80859 3.71094c2.39258 2.39258 5.46875 2.53906 7.8125 0.195312l14.5508-14.5996c2.34375-2.34375 2.24609-5.32227-0.146484-7.71484l-3.85742-3.80859c-2.39258-2.39258-4.24805-3.17383-6.64062-2.97852l-2.88086 0.244141-3.22266-3.17383 1.2207-5.61523c0.634766-2.83203-0.146484-5.0293-3.07617-7.95898l-10.9863-10.9375c-16.6992-16.6016-38.8672-16.2109-53.3203-1.75781Zm7.4707 1.85547c12.1582-8.88672 28.6133-7.37305 39.7461 3.75977l12.1582 12.0605c1.17188 1.17188 1.36719 2.09961 1.02539 3.80859l-1.61133 7.42188 7.51953 7.42188 4.93164-0.292969c1.26953-0.0488281 1.66016 0.0488281 2.63672 1.02539l2.88086 2.88086-12.207 12.207-2.88086-2.88086c-0.976562-0.976562-1.12305-1.36719-1.07422-2.68555l0.341797-4.88281-7.4707-7.42188-7.61719 1.26953c-1.61133 0.341797-2.34375 0.195312-3.56445-0.976562l-10.0098-10.0098c-1.26953-1.17188-1.41602-2.00195-0.634766-3.85742l4.39453-10.4492c-7.8125-7.27539-17.9688-10.4004-28.125-7.42188-0.78125 0.195312-1.07422-0.439453-0.439453-0.976562Z"/>
  </g>
  <text style="stroke:none;fill:black;font-family:sans-serif;font-size:13;font-weight:bold;" transform="matrix(1 0 0 1 1289 1953)">Exporting</text>
  <text style="stroke:none;fill:black;font-family:sans-serif;font-size:13;" transform="matrix(1 0 0 1 1289 1971)">Symbols should be outlined when exporting to ensure the</text>
  <text style="stroke:none;fill:black;font-family:sans-serif;font-size:13;" transform="matrix(1 0 0 1 1289 1989)">design is preserved when submitting to Xcode.</text>
  <text id="template-version" style="stroke:none;fill:black;font-family:sans-serif;font-size:13;text-anchor:end;" transform="matrix(1 0 0 1 3036 1933)">Template v.6.0</text>
  <text style="stroke:none;fill:black;font-family:sans-serif;font-size:13;text-anchor:end;" transform="matrix(1 0 0 1 3036 1951)">Requires Xcode 16 or greater</text>
  <text id="descriptive-name" style="stroke:none;fill:black;font-family:sans-serif;font-size:13;text-anchor:end;" transform="matrix(1 0 0 1 3036 1969)">Generated from filtervogelgruppe-32</text>
  <text style="stroke:none;fill:black;font-family:sans-serif;font-size:13;text-anchor:end;" transform="matrix(1 0 0 1 3036 1987)">Typeset at 100.0 points</text>
  <text style="stroke:none;fill:black;font-family:sans-serif;font-size:13;" transform="matrix(1 0 0 1 263 726)">Small</text>
  <text style="stroke:none;fill:black;font-family:sans-serif;font-size:13;" transform="matrix(1 0 0 1 263 1156)">Medium</text>
  <text style="stroke:none;fill:black;font-family:sans-serif;font-size:13;" transform="matrix(1 0 0 1 263 1586)">Large</text>
 </g>
 <g id="Guides">
  <g id="H-reference" style="fill:#27AAE1;stroke:none;" transform="matrix(1 0 0 1 339 696)">
   <path d="M0.993654 0L3.63775 0L29.3281-67.1323L30.0303-67.1323L30.0303-70.459L28.1226-70.459ZM11.6885-24.4799L46.9815-24.4799L46.2315-26.7285L12.4385-26.7285ZM55.1196 0L57.7637 0L30.6382-70.459L29.4326-70.459L29.4326-67.1323Z"/>
  </g>
  <line id="Baseline-S" style="fill:none;stroke:#27AAE1;opacity:1;stroke-width:0.5;" x1="263" x2="3036" y1="696" y2="696"/>
  <line id="Capline-S" style="fill:none;stroke:#27AAE1;opacity:1;stroke-width:0.5;" x1="263" x2="3036" y1="625.541" y2="625.541"/>
  <g id="H-reference" style="fill:#27AAE1;stroke:none;" transform="matrix(1 0 0 1 339 1126)">
   <path d="M0.993654 0L3.63775 0L29.3281-67.1323L30.0303-67.1323L30.0303-70.459L28.1226-70.459ZM11.6885-24.4799L46.9815-24.4799L46.2315-26.7285L12.4385-26.7285ZM55.1196 0L57.7637 0L30.6382-70.459L29.4326-70.459L29.4326-67.1323Z"/>
  </g>
  <line id="Baseline-M" style="fill:none;stroke:#27AAE1;opacity:1;stroke-width:0.5;" x1="263" x2="3036" y1="1126" y2="1126"/>
  <line id="Capline-M" style="fill:none;stroke:#27AAE1;opacity:1;stroke-width:0.5;" x1="263" x2="3036" y1="1055.54" y2="1055.54"/>
  <g id="H-reference" style="fill:#27AAE1;stroke:none;" transform="matrix(1 0 0 1 339 1556)">
   <path d="M0.993654 0L3.63775 0L29.3281-67.1323L30.0303-67.1323L30.0303-70.459L28.1226-70.459ZM11.6885-24.4799L46.9815-24.4799L46.2315-26.7285L12.4385-26.7285ZM55.1196 0L57.7637 0L30.6382-70.459L29.4326-70.459L29.4326-67.1323Z"/>
  </g>
  <line id="Baseline-L" style="fill:none;stroke:#27AAE1;opacity:1;stroke-width:0.5;" x1="263" x2="3036" y1="1556" y2="1556"/>
  <line id="Capline-L" style="fill:none;stroke:#27AAE1;opacity:1;stroke-width:0.5;" x1="263" x2="3036" y1="1485.54" y2="1485.54"/>
  <line id="right-margin-Black-S" style="fill:none;stroke:#00AEEF;stroke-width:0.5;opacity:1.0;" x1="2982.23" x2="2982.23" y1="600.785" y2="720.121"/>
  <line id="left-margin-Black-S" style="fill:none;stroke:#00AEEF;stroke-width:0.5;opacity:1.0;" x1="2884.57" x2="2884.57" y1="600.785" y2="720.121"/>
  <line id="right-margin-Regular-S" style="fill:none;stroke:#00AEEF;stroke-width:0.5;opacity:1.0;" x1="1496.11" x2="1496.11" y1="600.785" y2="720.121"/>
  <line id="left-margin-Regular-S" style="fill:none;stroke:#00AEEF;stroke-width:0.5;opacity:1.0;" x1="1403.58" x2="1403.58" y1="600.785" y2="720.121"/>
  <line id="right-margin-Ultralight-S" style="fill:none;stroke:#00AEEF;stroke-width:0.5;opacity:1.0;" x1="603.773" x2="603.773" y1="600.785" y2="720.121"/>
  <line id="left-margin-Ultralight-S" style="fill:none;stroke:#00AEEF;stroke-width:0.5;opacity:1.0;" x1="515.649" x2="515.649" y1="600.785" y2="720.121"/>
 </g>
 <g id="Symbols">
  <g id="Black-S" transform="matrix(1 0 0 1 2884.57 696)">
   <path class="monochrome-0 multicolor-0:tintColor hierarchical-0:primary SFSymbolsPreviewWireframe" d="M67.0763-19.5007C67.0763-19.5007 68.6883-19.0687 70.0363-19.2367C71.3802-19.4087 72.4402-19.9367 72.8842-19.9727C73.3242-20.0127 74.0682-20.1087 74.5842-19.3327C75.0962-18.5568 74.7602-18.0648 74.9522-17.6688C75.1522-17.2728 75.5402-17.1408 75.5722-16.6488C75.6122-16.1568 75.2362-15.1568 75.2362-15.1568L76.1562-15.0048C77.0242-14.9288 77.3762-14.7408 77.0042-14.5528C76.6322-14.3608 76.2082-14.2488 76.1242-14.0968C77.1122-13.7968 77.0602-13.6968 76.4202-13.6048C75.7842-13.5128 75.1642-13.6608 74.5642-13.6048C73.9642-13.5488 73.0762-13.4728 72.7242-13.3808C72.3722-13.2848 71.3802-13.1528 70.7083-13.3608C70.0363-13.5688 68.5683-14.1728 67.2923-13.8528C62.3724-12.2088 58.6404-11.3729 55.5965-11.5449C52.5525-11.7169 48.3766-13.2448 47.1926-13.3048C46.0046-13.3608 42.9366-13.2728 41.3767-13.3448C39.8167-13.4088 37.7047-14.7488 37.4647-15.7008C37.2247-16.6528 37.3567-17.9288 39.3567-19.2927C37.7167-19.2927 34.4688-18.7328 34.4688-18.7328C26.9569-17.4648 23.7809-16.9848 21.8529-17.1968C21.4849-16.8048 21.197-16.7048 21.157-17.0288C21.117-17.3488 21.4089-17.9448 22.4769-18.0848C27.1289-19.7327 31.5448-21.3447 34.6088-22.2727C37.8367-23.2967 39.0647-24.6327 39.7527-24.9727C40.4367-25.3167 40.8047-25.4287 41.4727-25.3807C42.1447-25.3327 45.9606-25.2807 46.1606-24.4287C47.0486-24.0807 47.0846-23.5967 46.9966-23.3647C46.9046-23.1327 46.7766-22.3567 46.7766-22.3567C47.0846-22.4367 48.0846-23.6767 48.0846-23.6767C47.7926-24.0607 46.3246-25.3567 44.1086-26.1166C41.8927-26.8686 42.4567-27.6446 43.2726-28.0126C44.0886-28.3846 45.4126-28.3846 47.5766-28.4606C49.7365-28.5406 51.0245-28.6166 51.0245-28.6166C51.0245-28.6166 52.3685-32.1006 52.4565-32.9366C52.5452-34.0962 52.4782-35.2629 52.2565-36.4045C52.0165-37.5445 50.1245-43.2004 49.7765-44.2684C49.4286-45.3404 49.4726-45.9884 50.4085-46.7084C51.3445-47.4323 54.5845-50.2163 58.0084-52.3283C64.2843-55.9842 67.2603-57.8922 69.7443-59.1802C70.8043-59.6202 71.1122-59.6602 70.8763-59.1602C70.6443-58.6602 69.4563-57.2602 67.6203-55.9882C71.3802-57.2402 71.9562-57.4122 72.4082-57.5282C72.8562-57.6442 73.0002-57.1802 72.1202-56.5282C71.2362-55.8762 70.5883-55.2402 70.5883-55.2402C73.9002-56.2802 74.0082-56.3922 74.0082-56.0482C74.0082-55.7002 71.1282-53.4323 71.0202-53.3563C73.3962-53.7203 74.3882-54.2203 74.6762-54.0843C74.9642-53.9523 74.4602-53.2603 73.9002-52.8563C73.3402-52.4523 70.8043-51.0083 70.7323-50.9323C74.7122-51.1043 74.8762-51.0843 74.8362-50.7003C74.8002-50.3163 71.8842-48.9923 71.8842-48.9923C73.7762-48.7603 73.6842-48.2723 73.0802-48.0283C72.3252-47.7663 71.5609-47.5328 70.7883-47.3283C70.7883-47.3283 69.9683-46.5084 69.5283-46.6484C69.4123-46.1924 68.5123-46.1764 68.5123-46.1764C68.4643-45.6004 67.6963-45.3884 67.6963-45.3884C68.6963-42.3684 69.7083-37.9165 69.7083-36.0805C69.7083-34.2405 69.5563-31.8206 68.7483-29.7526C67.9443-27.6806 67.0483-26.5646 67.0483-26.5646C67.7683-25.5407 67.1803-24.0967 67.1803-24.0967C67.9883-23.4967 67.4443-21.8407 67.1603-21.6327C68.0923-20.7247 67.0803-19.5007 67.0803-19.5007L67.0763-19.5007Z"/>
   <path class="monochrome-1 multicolor-1:tintColor hierarchical-1:tertiary SFSymbolsPreviewWireframe" d="M48.9411-84C55.3091-84.0013 61.615-82.7479 67.4985-80.3116C73.382-77.8752 78.7279-74.3036 83.2305-69.8009C87.7334-65.2983 91.305-59.9524 93.7418-54.0682C96.1779-48.1846 97.4312-41.8789 97.43-35.5124C97.43-8.72255 75.7254 13 48.9424 13C22.156 13 0.43-8.726 0.43-35.5124C0.43-62.2926 22.1539-84 48.9411-84ZM48.9424-70C29.8835-70 14.43-54.5582 14.43-35.5124C14.43-16.458 29.888-0.999999 48.9424-0.999999C67.9909-0.999999 83.43-16.4519 83.43-35.5138C83.4309-40.0428 82.5395-44.5276 80.8069-48.7121C79.0739-52.8969 76.5337-56.6989 73.3311-59.9013C70.1287-63.1038 66.3266-65.644 62.1422-67.3767C57.9578-69.1095 53.4729-70.0009 48.9424-70Z"/>
  </g>
  <g id="Regular-S" transform="matrix(1 0 0 1 1403.58 696)">
   <path class="monochrome-0 multicolor-0:tintColor hierarchical-0:primary SFSymbolsPreviewWireframe" d="M65.1696-18.5145C65.1696-18.5145 66.8808-18.0559 68.3118-18.2342C69.7385-18.4168 70.8637-18.9773 71.335-19.0155C71.8021-19.058 72.5919-19.1599 73.1397-18.3362C73.6832-17.5124 73.3265-16.9901 73.5303-16.5698C73.7426-16.1494 74.1545-16.0093 74.1885-15.487C74.2309-14.9647 73.8318-13.9032 73.8318-13.9032L74.8084-13.7418C75.7298-13.6611 76.1035-13.4616 75.7086-13.262C75.3137-13.0582 74.8636-12.9393 74.7744-12.7779C75.8232-12.4595 75.768-12.3533 75.0886-12.2557C74.4135-12.158 73.7553-12.3151 73.1184-12.2557C72.4815-12.1962 71.5389-12.1155 71.1652-12.0179C70.7915-11.916 69.7385-11.7758 69.0251-11.9966C68.3118-12.2174 66.7534-12.8586 65.3989-12.5189C60.1761-10.7738 56.2145-9.88631 52.9832-10.0689C49.7518-10.2515 45.3189-11.8735 44.062-11.9372C42.8009-11.9966 39.5441-11.9032 37.8881-11.9797C36.2321-12.0476 33.9901-13.4701 33.7353-14.4806C33.4806-15.4912 33.6207-16.8458 35.7438-18.2937C34.0029-18.2937 30.555-17.6992 30.555-17.6992C22.5807-16.3532 19.2093-15.8437 17.1626-16.0687C16.772-15.6526 16.4662-15.5464 16.4238-15.8904C16.3813-16.2301 16.6913-16.8627 17.825-17.0114C22.7633-18.7608 27.451-20.472 30.7036-21.4571C34.1302-22.5441 35.4338-23.9623 36.1641-24.3232C36.8902-24.6884 37.2809-24.8073 37.99-24.7563C38.7033-24.7054 42.7542-24.6502 42.9665-23.7458C43.9091-23.3763 43.9473-22.8626 43.8539-22.6163C43.7563-22.37 43.6204-21.5462 43.6204-21.5462C43.9473-21.6312 45.0089-22.9475 45.0089-22.9475C44.6989-23.3551 43.1406-24.7309 40.7882-25.5376C38.4358-26.3359 39.0345-27.1597 39.9008-27.5503C40.767-27.9452 42.1725-27.9452 44.4696-28.0259C46.7625-28.1108 48.1298-28.1915 48.1298-28.1915C48.1298-28.1915 49.5565-31.8899 49.6499-32.7773C49.7441-34.0084 49.6729-35.2468 49.4376-36.4587C49.1829-37.6689 47.1744-43.673 46.805-44.8067C46.4356-45.9446 46.4823-46.6325 47.4759-47.3968C48.4695-48.1654 51.9089-51.1207 55.5436-53.3627C62.2058-57.2437 65.3649-59.2691 68.0018-60.6363C69.127-61.1034 69.454-61.1459 69.2035-60.6151C68.9572-60.0843 67.6961-58.5982 65.7471-57.2479C69.7385-58.577 70.3499-58.7595 70.8297-58.8827C71.3053-59.0058 71.4582-58.5133 70.524-57.8211C69.5856-57.129 68.8977-56.4539 68.8977-56.4539C72.4136-57.5579 72.5282-57.6768 72.5282-57.3116C72.5282-56.9422 69.471-54.5346 69.3563-54.4539C71.8785-54.8403 72.9316-55.3711 73.2373-55.2267C73.543-55.0866 73.008-54.352 72.4136-53.9232C71.8191-53.4943 69.127-51.9614 69.0506-51.8808C73.2755-52.0634 73.4496-52.0421 73.4072-51.6345C73.3689-51.2269 70.2735-49.8214 70.2735-49.8214C72.2819-49.5751 72.1843-49.0571 71.5431-48.7981C70.7416-48.5199 69.9303-48.272 69.1101-48.055C69.1101-48.055 68.2396-47.1845 67.7725-47.3331C67.6494-46.8491 66.694-46.8321 66.694-46.8321C66.643-46.2206 65.8278-45.9956 65.8278-45.9956C66.8893-42.7898 67.9636-38.0638 67.9636-36.1148C67.9636-34.1616 67.8022-31.5926 66.9445-29.3974C66.091-27.1979 65.1399-26.0132 65.1399-26.0132C65.9042-24.9262 65.28-23.3933 65.28-23.3933C66.1377-22.7564 65.5603-20.9985 65.2588-20.7777C66.2481-19.8138 65.1739-18.5145 65.1739-18.5145L65.1696-18.5145Z"/>
   <path class="monochrome-1 multicolor-1:tintColor hierarchical-1:tertiary SFSymbolsPreviewWireframe" d="M46.4321-81.8365C52.4502-81.8377 58.4096-80.6532 63.9698-78.3508C69.53-76.0483 74.5822-72.6729 78.8374-68.4176C83.0928-64.1624 86.4682-59.1103 88.771-53.5496C91.0733-47.9892 92.2577-42.03 92.2566-36.0127C92.2566-10.693 71.744 9.83658 46.4328 9.83658C21.1173 9.83658 0.5835-10.6972 0.5835-36.0127C0.5835-61.3211 21.1145-81.8365 46.4321-81.8365ZM46.4328-75.0865C24.8413-75.0865 7.3335-57.592 7.3335-36.0127C7.3335-14.4252 24.8452 3.08658 46.4328 3.08658C68.0148 3.08658 85.5066-14.4197 85.5066-36.0133C85.5076-41.1447 84.4976-46.226 82.5345-50.9672C80.571-55.7085 77.693-60.0162 74.0644-63.6446C70.4361-67.273 66.1283-70.1511 61.3873-72.1143C56.6463-74.0776 51.5649-75.0875 46.4328-75.0865Z"/>
  </g>
  <g id="Ultralight-S" transform="matrix(1 0 0 1 515.649 696)">
   <path class="monochrome-0 multicolor-0:tintColor hierarchical-0:primary SFSymbolsPreviewWireframe" d="M63.1006-19.5145C63.1006-19.5145 64.8118-19.0559 66.2428-19.2342C67.6695-19.4168 68.7947-19.9773 69.266-20.0155C69.7331-20.058 70.5229-20.1599 71.0707-19.3362C71.6142-18.5124 71.2575-17.9901 71.4613-17.5698C71.6736-17.1494 72.0855-17.0093 72.1195-16.487C72.1619-15.9647 71.7628-14.9032 71.7628-14.9032L72.7394-14.7418C73.6608-14.6611 74.0345-14.4616 73.6396-14.262C73.2447-14.0582 72.7946-13.9393 72.7054-13.7779C73.7542-13.4595 73.699-13.3533 73.0196-13.2557C72.3445-13.158 71.6863-13.3151 71.0494-13.2557C70.4125-13.1962 69.4699-13.1155 69.0962-13.0179C68.7225-12.916 67.6695-12.7758 66.9561-12.9966C66.2428-13.2174 64.6844-13.8586 63.3299-13.5189C58.1071-11.7738 54.1455-10.8863 50.9142-11.0689C47.6828-11.2515 43.2499-12.8735 41.993-12.9372C40.7319-12.9966 37.4751-12.9032 35.8191-12.9797C34.1631-13.0476 31.9211-14.4701 31.6663-15.4806C31.4116-16.4912 31.5517-17.8458 33.6748-19.2937C31.9339-19.2937 28.486-18.6992 28.486-18.6992C20.5117-17.3532 17.1403-16.8437 15.0936-17.0687C14.703-16.6526 14.3972-16.5464 14.3548-16.8904C14.3123-17.2301 14.6223-17.8627 15.756-18.0114C20.6943-19.7608 25.382-21.472 28.6346-22.4571C32.0612-23.5441 33.3648-24.9623 34.0951-25.3232C34.8212-25.6884 35.2119-25.8073 35.921-25.7563C36.6343-25.7054 40.6852-25.6502 40.8975-24.7458C41.8401-24.3763 41.8783-23.8626 41.7849-23.6163C41.6873-23.37 41.5514-22.5462 41.5514-22.5462C41.8783-22.6312 42.9399-23.9475 42.9399-23.9475C42.6299-24.3551 41.0716-25.7309 38.7192-26.5376C36.3668-27.3359 36.9655-28.1597 37.8318-28.5503C38.698-28.9452 40.1035-28.9452 42.4006-29.0259C44.6935-29.1108 46.0608-29.1915 46.0608-29.1915C46.0608-29.1915 47.4875-32.8899 47.5809-33.7773C47.6751-35.0084 47.6039-36.2468 47.3686-37.4587C47.1139-38.6689 45.1054-44.673 44.736-45.8067C44.3666-46.9446 44.4133-47.6325 45.4069-48.3968C46.4005-49.1654 49.8399-52.1207 53.4746-54.3627C60.1368-58.2437 63.2959-60.2691 65.9328-61.6363C67.058-62.1034 67.385-62.1459 67.1345-61.6151C66.8882-61.0843 65.6271-59.5982 63.6781-58.2479C67.6695-59.577 68.2809-59.7595 68.7607-59.8827C69.2363-60.0058 69.3892-59.5133 68.455-58.8211C67.5166-58.129 66.8287-57.4539 66.8287-57.4539C70.3446-58.5579 70.4592-58.6768 70.4592-58.3116C70.4592-57.9422 67.402-55.5346 67.2873-55.4539C69.8095-55.8403 70.8626-56.3711 71.1683-56.2267C71.474-56.0866 70.939-55.352 70.3446-54.9232C69.7501-54.4943 67.058-52.9614 66.9816-52.8808C71.2065-53.0634 71.3806-53.0421 71.3382-52.6345C71.2999-52.2269 68.2045-50.8214 68.2045-50.8214C70.2129-50.5751 70.1153-50.0571 69.4741-49.7981C68.6726-49.5199 67.8613-49.272 67.0411-49.055C67.0411-49.055 66.1706-48.1845 65.7035-48.3331C65.5804-47.8491 64.625-47.8321 64.625-47.8321C64.574-47.2206 63.7588-46.9956 63.7588-46.9956C64.8203-43.7898 65.8946-39.0638 65.8946-37.1148C65.8946-35.1616 65.7332-32.5926 64.8755-30.3974C64.022-28.1979 63.0709-27.0132 63.0709-27.0132C63.8352-25.9262 63.211-24.3933 63.211-24.3933C64.0687-23.7564 63.4913-21.9985 63.1898-21.7777C64.1791-20.8138 63.1049-19.5145 63.1049-19.5145L63.1006-19.5145Z"/>
   <path class="monochrome-1 multicolor-1:tintColor hierarchical-1:tertiary SFSymbolsPreviewWireframe" d="M44.3636-80.5865C50.0861-80.5876 55.7528-79.4613 61.04-77.272C66.3271-75.0826 71.1312-71.8729 75.1774-67.8265C79.2239-63.7803 82.4335-58.9764 84.6232-53.6889C86.8124-48.4015 87.9387-42.7349 87.9376-37.0127C87.9376-12.9352 68.432 6.58658 44.3638 6.58658C20.2909 6.58658 0.7645-12.9399 0.7645-37.0127C0.7645-61.0781 20.2877-80.5865 44.3636-80.5865ZM44.3638-78.3365C21.53-78.3365 3.0145-59.8351 3.0145-37.0127C3.0145-14.1825 21.5336 4.33658 44.3638 4.33658C67.1889 4.33658 85.6876-14.1774 85.6876-37.0129C85.6886-42.4398 84.6205-47.8138 82.5443-52.828C80.4678-57.8425 77.4239-62.3983 73.5865-66.2355C69.7491-70.073 65.1932-73.1168 60.1791-75.1931C55.1651-77.2695 49.791-78.3376 44.3638-78.3365Z"/>
  </g>
 </g>
</svg>
