<?xml version="1.0" encoding="UTF-8"?>
<!--Generator: Apple Native CoreSVG 341-->
<!DOCTYPE svg
PUBLIC "-//W3C//DTD SVG 1.1//EN"
       "http://www.w3.org/Graphics/SVG/1.1/DTD/svg11.dtd">
<svg version="1.1" xmlns="http://www.w3.org/2000/svg" xmlns:xlink="http://www.w3.org/1999/xlink" viewBox="0 0 3300 2200">
 <!--glyph: "", point size: 100.0, font version: "20.0d10e1", template writer version: "138.0.0"-->
 <style>.monochrome-0 {-sfsymbols-motion-group:1;-sfsymbols-layer-tags:3fb5f4987277ec4a}
.monochrome-1 {-sfsymbols-motion-group:0;-sfsymbols-layer-tags:3fb5f4987277ec4a}

.multicolor-0:tintColor {-sfsymbols-motion-group:1;-sfsymbols-layer-tags:3fb5f4987277ec4a}
.multicolor-1:tintColor {-sfsymbols-motion-group:0;-sfsymbols-layer-tags:3fb5f4987277ec4a}

.hierarchical-0:primary {-sfsymbols-motion-group:1;-sfsymbols-layer-tags:3fb5f4987277ec4a}
.hierarchical-1:tertiary {-sfsymbols-motion-group:0;-sfsymbols-layer-tags:3fb5f4987277ec4a}

.SFSymbolsPreviewWireframe {fill:none;opacity:1.0;stroke:black;stroke-width:0.5}
</style>
 <g id="Notes">
  <rect height="2200" id="artboard" style="fill:white;opacity:1" width="3300" x="0" y="0"/>
  <line style="fill:none;stroke:black;opacity:1;stroke-width:0.5;" x1="263" x2="3036" y1="292" y2="292"/>
  <text style="stroke:none;fill:black;font-family:sans-serif;font-size:13;font-weight:bold;" transform="matrix(1 0 0 1 263 322)">Weight/Scale Variations</text>
  <text style="stroke:none;fill:black;font-family:sans-serif;font-size:13;text-anchor:middle;" transform="matrix(1 0 0 1 559.711 322)">Ultralight</text>
  <text style="stroke:none;fill:black;font-family:sans-serif;font-size:13;text-anchor:middle;" transform="matrix(1 0 0 1 856.422 322)">Thin</text>
  <text style="stroke:none;fill:black;font-family:sans-serif;font-size:13;text-anchor:middle;" transform="matrix(1 0 0 1 1153.13 322)">Light</text>
  <text style="stroke:none;fill:black;font-family:sans-serif;font-size:13;text-anchor:middle;" transform="matrix(1 0 0 1 1449.84 322)">Regular</text>
  <text style="stroke:none;fill:black;font-family:sans-serif;font-size:13;text-anchor:middle;" transform="matrix(1 0 0 1 1746.56 322)">Medium</text>
  <text style="stroke:none;fill:black;font-family:sans-serif;font-size:13;text-anchor:middle;" transform="matrix(1 0 0 1 2043.27 322)">Semibold</text>
  <text style="stroke:none;fill:black;font-family:sans-serif;font-size:13;text-anchor:middle;" transform="matrix(1 0 0 1 2339.98 322)">Bold</text>
  <text style="stroke:none;fill:black;font-family:sans-serif;font-size:13;text-anchor:middle;" transform="matrix(1 0 0 1 2636.69 322)">Heavy</text>
  <text style="stroke:none;fill:black;font-family:sans-serif;font-size:13;text-anchor:middle;" transform="matrix(1 0 0 1 2933.4 322)">Black</text>
  <line style="fill:none;stroke:black;opacity:1;stroke-width:0.5;" x1="263" x2="3036" y1="1903" y2="1903"/>
  <g transform="matrix(0.2 0 0 0.2 263 1933)">
   <path d="m46.2402 4.15039c21.7773 0 39.4531-17.627 39.4531-39.4043s-17.6758-39.4043-39.4531-39.4043c-21.7285 0-39.4043 17.627-39.4043 39.4043s17.6758 39.4043 39.4043 39.4043Zm0-7.42188c-17.6758 0-31.9336-14.3066-31.9336-31.9824s14.2578-31.9824 31.9336-31.9824 31.9824 14.3066 31.9824 31.9824-14.3066 31.9824-31.9824 31.9824Zm-17.9688-31.9824c0 2.14844 1.51367 3.61328 3.75977 3.61328h10.498v10.5957c0 2.19727 1.46484 3.71094 3.61328 3.71094 2.24609 0 3.71094-1.51367 3.71094-3.71094v-10.5957h10.5957c2.19727 0 3.71094-1.46484 3.71094-3.61328 0-2.19727-1.51367-3.71094-3.71094-3.71094h-10.5957v-10.5469c0-2.24609-1.46484-3.75977-3.71094-3.75977-2.14844 0-3.61328 1.51367-3.61328 3.75977v10.5469h-10.498c-2.24609 0-3.75977 1.51367-3.75977 3.71094Z"/>
  </g>
  <g transform="matrix(0.2 0 0 0.2 281.506 1933)">
   <path d="m58.5449 14.5508c27.4902 0 49.8047-22.3145 49.8047-49.8047s-22.3145-49.8047-49.8047-49.8047-49.8047 22.3145-49.8047 49.8047 22.3145 49.8047 49.8047 49.8047Zm0-8.30078c-22.9492 0-41.5039-18.5547-41.5039-41.5039s18.5547-41.5039 41.5039-41.5039 41.5039 18.5547 41.5039 41.5039-18.5547 41.5039-41.5039 41.5039Zm-22.6562-41.5039c0 2.39258 1.66016 4.00391 4.15039 4.00391h14.3555v14.4043c0 2.44141 1.66016 4.15039 4.05273 4.15039 2.44141 0 4.15039-1.66016 4.15039-4.15039v-14.4043h14.4043c2.44141 0 4.15039-1.61133 4.15039-4.00391 0-2.44141-1.70898-4.15039-4.15039-4.15039h-14.4043v-14.3555c0-2.49023-1.70898-4.19922-4.15039-4.19922-2.39258 0-4.05273 1.70898-4.05273 4.19922v14.3555h-14.3555c-2.49023 0-4.15039 1.70898-4.15039 4.15039Z"/>
  </g>
  <g transform="matrix(0.2 0 0 0.2 304.924 1933)">
   <path d="m74.8535 28.3203c35.1074 0 63.623-28.4668 63.623-63.5742s-28.5156-63.623-63.623-63.623-63.5742 28.5156-63.5742 63.623 28.4668 63.5742 63.5742 63.5742Zm0-9.08203c-30.127 0-54.4922-24.3652-54.4922-54.4922s24.3652-54.4922 54.4922-54.4922 54.4922 24.3652 54.4922 54.4922-24.3652 54.4922-54.4922 54.4922Zm-28.8574-54.4922c0 2.58789 1.85547 4.39453 4.58984 4.39453h19.7266v19.7754c0 2.68555 1.85547 4.58984 4.44336 4.58984 2.68555 0 4.54102-1.85547 4.54102-4.58984v-19.7754h19.7754c2.68555 0 4.58984-1.80664 4.58984-4.39453 0-2.73438-1.85547-4.58984-4.58984-4.58984h-19.7754v-19.7266c0-2.73438-1.85547-4.63867-4.54102-4.63867-2.58789 0-4.44336 1.9043-4.44336 4.63867v19.7266h-19.7266c-2.73438 0-4.58984 1.85547-4.58984 4.58984Z"/>
  </g>
  <text style="stroke:none;fill:black;font-family:sans-serif;font-size:13;font-weight:bold;" transform="matrix(1 0 0 1 263 1953)">Design Variations</text>
  <text style="stroke:none;fill:black;font-family:sans-serif;font-size:13;" transform="matrix(1 0 0 1 263 1971)">Symbols are supported in up to nine weights and three scales.</text>
  <text style="stroke:none;fill:black;font-family:sans-serif;font-size:13;" transform="matrix(1 0 0 1 263 1989)">For optimal layout with text and other symbols, vertically align</text>
  <text style="stroke:none;fill:black;font-family:sans-serif;font-size:13;" transform="matrix(1 0 0 1 263 2007)">symbols with the adjacent text.</text>
  <line style="fill:none;stroke:#00AEEF;stroke-width:0.5;opacity:1.0;" x1="776" x2="776" y1="1919" y2="1933"/>
  <g transform="matrix(0.2 0 0 0.2 776 1933)">
   <path d="m16.5527 0.78125c2.58789 0 3.85742-0.976562 4.78516-3.71094l6.29883-17.2363h28.8086l6.29883 17.2363c0.927734 2.73438 2.19727 3.71094 4.73633 3.71094 2.58789 0 4.24805-1.5625 4.24805-4.00391 0-0.830078-0.146484-1.61133-0.537109-2.63672l-22.9004-60.9863c-1.12305-2.97852-3.125-4.49219-6.25-4.49219-3.02734 0-5.07812 1.46484-6.15234 4.44336l-22.9004 61.084c-0.390625 1.02539-0.537109 1.80664-0.537109 2.63672 0 2.44141 1.5625 3.95508 4.10156 3.95508Zm13.4766-28.3691 11.8652-32.8613h0.244141l11.8652 32.8613Z"/>
  </g>
  <line style="fill:none;stroke:#00AEEF;stroke-width:0.5;opacity:1.0;" x1="792.836" x2="792.836" y1="1919" y2="1933"/>
  <text style="stroke:none;fill:black;font-family:sans-serif;font-size:13;font-weight:bold;" transform="matrix(1 0 0 1 776 1953)">Margins</text>
  <text style="stroke:none;fill:black;font-family:sans-serif;font-size:13;" transform="matrix(1 0 0 1 776 1971)">Leading and trailing margins on the left and right side of each symbol</text>
  <text style="stroke:none;fill:black;font-family:sans-serif;font-size:13;" transform="matrix(1 0 0 1 776 1989)">can be adjusted by modifying the x-location of the margin guidelines.</text>
  <text style="stroke:none;fill:black;font-family:sans-serif;font-size:13;" transform="matrix(1 0 0 1 776 2007)">Modifications are automatically applied proportionally to all</text>
  <text style="stroke:none;fill:black;font-family:sans-serif;font-size:13;" transform="matrix(1 0 0 1 776 2025)">scales and weights.</text>
  <g transform="matrix(0.2 0 0 0.2 1289 1933)">
   <path d="m14.209 9.32617 8.49609 8.54492c4.29688 4.3457 9.22852 4.05273 13.8672-1.07422l53.4668-58.9355-4.83398-4.88281-53.0762 58.3984c-1.75781 2.00195-3.41797 2.49023-5.76172 0.146484l-5.85938-5.81055c-2.34375-2.29492-1.80664-4.00391 0.195312-5.81055l57.373-54.0039-4.88281-4.83398-57.959 54.4434c-4.93164 4.58984-5.32227 9.47266-1.02539 13.8184Zm32.0801-90.9668c-2.09961 2.05078-2.24609 4.93164-1.07422 6.88477 1.17188 1.80664 3.4668 2.97852 6.68945 2.14844 7.32422-1.70898 14.9414-2.00195 22.0703 2.68555l-2.92969 7.27539c-1.70898 4.15039-0.830078 7.08008 1.85547 9.81445l11.4746 11.5723c2.44141 2.44141 4.49219 2.53906 7.32422 2.05078l5.32227-0.976562 3.32031 3.36914-0.195312 2.7832c-0.195312 2.49023 0.439453 4.39453 2.88086 6.78711l3.80859 3.71094c2.39258 2.39258 5.46875 2.53906 7.8125 0.195312l14.5508-14.5996c2.34375-2.34375 2.24609-5.32227-0.146484-7.71484l-3.85742-3.80859c-2.39258-2.39258-4.24805-3.17383-6.64062-2.97852l-2.88086 0.244141-3.22266-3.17383 1.2207-5.61523c0.634766-2.83203-0.146484-5.0293-3.07617-7.95898l-10.9863-10.9375c-16.6992-16.6016-38.8672-16.2109-53.3203-1.75781Zm7.4707 1.85547c12.1582-8.88672 28.6133-7.37305 39.7461 3.75977l12.1582 12.0605c1.17188 1.17188 1.36719 2.09961 1.02539 3.80859l-1.61133 7.42188 7.51953 7.42188 4.93164-0.292969c1.26953-0.0488281 1.66016 0.0488281 2.63672 1.02539l2.88086 2.88086-12.207 12.207-2.88086-2.88086c-0.976562-0.976562-1.12305-1.36719-1.07422-2.68555l0.341797-4.88281-7.4707-7.42188-7.61719 1.26953c-1.61133 0.341797-2.34375 0.195312-3.56445-0.976562l-10.0098-10.0098c-1.26953-1.17188-1.41602-2.00195-0.634766-3.85742l4.39453-10.4492c-7.8125-7.27539-17.9688-10.4004-28.125-7.42188-0.78125 0.195312-1.07422-0.439453-0.439453-0.976562Z"/>
  </g>
  <text style="stroke:none;fill:black;font-family:sans-serif;font-size:13;font-weight:bold;" transform="matrix(1 0 0 1 1289 1953)">Exporting</text>
  <text style="stroke:none;fill:black;font-family:sans-serif;font-size:13;" transform="matrix(1 0 0 1 1289 1971)">Symbols should be outlined when exporting to ensure the</text>
  <text style="stroke:none;fill:black;font-family:sans-serif;font-size:13;" transform="matrix(1 0 0 1 1289 1989)">design is preserved when submitting to Xcode.</text>
  <text id="template-version" style="stroke:none;fill:black;font-family:sans-serif;font-size:13;text-anchor:end;" transform="matrix(1 0 0 1 3036 1933)">Template v.6.0</text>
  <text style="stroke:none;fill:black;font-family:sans-serif;font-size:13;text-anchor:end;" transform="matrix(1 0 0 1 3036 1951)">Requires Xcode 16 or greater</text>
  <text id="descriptive-name" style="stroke:none;fill:black;font-family:sans-serif;font-size:13;text-anchor:end;" transform="matrix(1 0 0 1 3036 1969)">Generated from filtervogelgruppe-65</text>
  <text style="stroke:none;fill:black;font-family:sans-serif;font-size:13;text-anchor:end;" transform="matrix(1 0 0 1 3036 1987)">Typeset at 100.0 points</text>
  <text style="stroke:none;fill:black;font-family:sans-serif;font-size:13;" transform="matrix(1 0 0 1 263 726)">Small</text>
  <text style="stroke:none;fill:black;font-family:sans-serif;font-size:13;" transform="matrix(1 0 0 1 263 1156)">Medium</text>
  <text style="stroke:none;fill:black;font-family:sans-serif;font-size:13;" transform="matrix(1 0 0 1 263 1586)">Large</text>
 </g>
 <g id="Guides">
  <g id="H-reference" style="fill:#27AAE1;stroke:none;" transform="matrix(1 0 0 1 339 696)">
   <path d="M0.993654 0L3.63775 0L29.3281-67.1323L30.0303-67.1323L30.0303-70.459L28.1226-70.459ZM11.6885-24.4799L46.9815-24.4799L46.2315-26.7285L12.4385-26.7285ZM55.1196 0L57.7637 0L30.6382-70.459L29.4326-70.459L29.4326-67.1323Z"/>
  </g>
  <line id="Baseline-S" style="fill:none;stroke:#27AAE1;opacity:1;stroke-width:0.5;" x1="263" x2="3036" y1="696" y2="696"/>
  <line id="Capline-S" style="fill:none;stroke:#27AAE1;opacity:1;stroke-width:0.5;" x1="263" x2="3036" y1="625.541" y2="625.541"/>
  <g id="H-reference" style="fill:#27AAE1;stroke:none;" transform="matrix(1 0 0 1 339 1126)">
   <path d="M0.993654 0L3.63775 0L29.3281-67.1323L30.0303-67.1323L30.0303-70.459L28.1226-70.459ZM11.6885-24.4799L46.9815-24.4799L46.2315-26.7285L12.4385-26.7285ZM55.1196 0L57.7637 0L30.6382-70.459L29.4326-70.459L29.4326-67.1323Z"/>
  </g>
  <line id="Baseline-M" style="fill:none;stroke:#27AAE1;opacity:1;stroke-width:0.5;" x1="263" x2="3036" y1="1126" y2="1126"/>
  <line id="Capline-M" style="fill:none;stroke:#27AAE1;opacity:1;stroke-width:0.5;" x1="263" x2="3036" y1="1055.54" y2="1055.54"/>
  <g id="H-reference" style="fill:#27AAE1;stroke:none;" transform="matrix(1 0 0 1 339 1556)">
   <path d="M0.993654 0L3.63775 0L29.3281-67.1323L30.0303-67.1323L30.0303-70.459L28.1226-70.459ZM11.6885-24.4799L46.9815-24.4799L46.2315-26.7285L12.4385-26.7285ZM55.1196 0L57.7637 0L30.6382-70.459L29.4326-70.459L29.4326-67.1323Z"/>
  </g>
  <line id="Baseline-L" style="fill:none;stroke:#27AAE1;opacity:1;stroke-width:0.5;" x1="263" x2="3036" y1="1556" y2="1556"/>
  <line id="Capline-L" style="fill:none;stroke:#27AAE1;opacity:1;stroke-width:0.5;" x1="263" x2="3036" y1="1485.54" y2="1485.54"/>
  <line id="right-margin-Black-S" style="fill:none;stroke:#00AEEF;stroke-width:0.5;opacity:1.0;" x1="2982.23" x2="2982.23" y1="600.785" y2="720.121"/>
  <line id="left-margin-Black-S" style="fill:none;stroke:#00AEEF;stroke-width:0.5;opacity:1.0;" x1="2884.57" x2="2884.57" y1="600.785" y2="720.121"/>
  <line id="right-margin-Regular-S" style="fill:none;stroke:#00AEEF;stroke-width:0.5;opacity:1.0;" x1="1496.11" x2="1496.11" y1="600.785" y2="720.121"/>
  <line id="left-margin-Regular-S" style="fill:none;stroke:#00AEEF;stroke-width:0.5;opacity:1.0;" x1="1403.58" x2="1403.58" y1="600.785" y2="720.121"/>
  <line id="right-margin-Ultralight-S" style="fill:none;stroke:#00AEEF;stroke-width:0.5;opacity:1.0;" x1="603.773" x2="603.773" y1="600.785" y2="720.121"/>
  <line id="left-margin-Ultralight-S" style="fill:none;stroke:#00AEEF;stroke-width:0.5;opacity:1.0;" x1="515.649" x2="515.649" y1="600.785" y2="720.121"/>
 </g>
 <g id="Symbols">
  <g id="Black-S" transform="matrix(1 0 0 1 2884.57 696)">
   <path class="monochrome-0 multicolor-0:tintColor hierarchical-0:primary SFSymbolsPreviewWireframe" d="M59.9888-22.1007C59.8337-21.4323 59.8448-20.8157 60.3506-20.3172L60.7383-19.8151C60.8079-19.7988 60.8802-19.7975 60.9503-19.8114C61.0205-19.8255 61.0866-19.8544 61.1445-19.8963C61.3365-20.0514 61.499-20.0809 61.7057-19.9591C61.8165-19.8963 61.9494-19.8668 62.0307-20.0071C62.1636-20.2249 62.3482-20.2692 62.5587-20.2803C62.6802-20.2846 62.8002-20.3095 62.9132-20.3542C62.9722-20.38 63.0424-20.4908 63.035-20.5499C63.0055-20.7714 63.0867-20.9006 63.2492-21.004C63.4338-21.1148 63.4855-21.2994 63.4486-21.521C63.4153-21.7019 63.3636-21.8791 63.3267-22.0637C63.2602-22.4071 63.1569-22.7505 63.1384-23.0976C63.1089-23.7696 62.8172-24.2053 62.2264-24.294C61.7907-24.3641 61.366-24.4527 60.9414-24.5487C60.4798-24.6558 60.0368-24.7924 59.5937-24.9623C58.8404-25.2614 58.0761-25.5162 57.3265-25.8116C56.9831-25.9445 56.6619-26.1254 56.2926-26.1254C56.2483-26.1217 56.2114-26.1734 56.1376-26.2251L56.3628-26.3617C56.769-26.6276 57.2748-26.6091 57.6588-26.9304C57.6884-26.9525 57.7327-26.9414 57.7696-26.9562C57.8715-26.9987 57.9712-27.0454 58.0687-27.0965C58.1499-27.1408 58.2238-27.2036 58.305-27.2442C58.5709-27.3808 58.8478-27.4916 59.1026-27.6541C59.3795-27.8387 59.6306-28.0713 59.8964-28.2744C60.2952-28.5809 60.7014-28.8726 61.0928-29.1901C61.7759-29.7329 62.2596-30.4935 62.8098-31.184C63.1421-31.5976 63.4301-32.0517 63.7439-32.4838C63.8769-32.6647 64.043-32.8198 64.1686-33.0044C64.3347-33.2629 64.4714-33.5472 64.6301-33.8167C65.1397-34.6955 65.7046-35.5337 66.0333-36.5417C66.3028-37.3799 66.6905-38.1738 66.8567-39.0526C66.9084-39.3184 66.9674-39.5806 67.0044-39.8465C67.0967-40.5296 67.2185-41.209 67.2444-41.8957C67.2813-42.8632 67.2407-43.8343 67.2333-44.8017C67.2324-44.9448 67.2398-45.0878 67.2554-45.23L67.5508-47.7519C67.6321-48.4424 67.8388-49.0738 68.2081-49.6351C68.4703-50.0338 68.7213-50.44 68.9909-50.8314C69.3269-51.3188 69.6814-51.7877 70.0248-52.2678C70.1171-52.3933 70.2315-52.4155 70.3682-52.4007C70.9882-52.3689 71.6085-52.4554 72.1959-52.6555C72.4655-52.7478 72.7018-52.9878 73.0267-52.8512C73.0267-52.9176 73.0341-52.9546 73.0267-52.9804C72.8495-53.586 72.6058-54.1398 72.1184-54.5128C71.9891-54.6125 71.871-54.7417 71.7307-54.8192C71.3503-55.0371 70.9737-55.2771 70.5675-55.4248C70.3845-55.4805 70.2146-55.5731 70.0685-55.6969C69.9226-55.8208 69.8032-55.9732 69.7183-56.1448C69.6152-56.3746 69.4798-56.5885 69.3158-56.7799C68.7804-57.3596 68.1896-57.8839 67.4991-58.183C66.805-58.4858 66.144-58.9178 65.3834-59.0286C64.6449-59.132 63.9101-59.3129 63.1716-59.3794C62.1747-59.4717 61.1962-59.2612 60.2731-58.8514C59.6601-58.5781 59.0841-58.2052 58.5155-57.8359C58.2764-57.6663 58.0647-57.4608 57.8878-57.2267C57.4779-56.7208 57.0865-56.2002 56.6877-55.6869C56.6102-55.5836 56.5105-55.5023 56.4366-55.3952C56.1302-54.9485 55.8274-54.4943 55.5283-54.0438C55.4065-53.8555 55.2883-53.6598 55.1738-53.4678C55.1406-53.4124 55.1295-53.3423 55.0926-53.2906C54.8231-52.8512 54.5461-52.4265 54.2803-51.9834C53.9627-51.4517 53.6562-50.909 53.3387-50.3772C53.2101-50.1537 53.0682-49.9379 52.9141-49.7311C52.4451-49.1255 51.954-48.5421 51.4962-47.9255C50.9506-47.2141 50.3571-46.5405 49.7201-45.9094C49.41-45.5919 49.0998-45.2632 48.8413-44.894C48.3502-44.1998 47.9035-43.4687 47.4197-42.7672C46.792-41.8441 46.1385-40.9357 45.4997-40.02C45.2191-39.6175 44.9458-39.204 44.6689-38.7978C44.5987-38.6981 44.5101-38.6169 44.4363-38.5209C43.9747-37.9301 43.6239-37.2433 43.155-36.6525C42.7562-36.143 42.3981-35.5854 42.0177-35.0537C41.8294-34.7915 41.6154-34.5478 41.4529-34.2672C41.1575-33.7613 40.8658-33.2444 40.6221-32.7053C40.401-32.2727 40.2811-31.7954 40.2713-31.3096C40.2637-31.1283 40.202-30.9533 40.0941-30.8074C39.8334-30.4502 39.5561-30.1049 39.2633-29.7735C38.3203-28.683 37.3272-27.6368 36.2872-26.6387C35.6373-26.0109 34.969-25.4091 34.3191-24.7814C34.0095-24.5291 33.7724-24.1992 33.6323-23.825C33.5954-23.6958 33.5327-23.5481 33.6508-23.4558C33.7321-23.3967 33.8687-23.3598 33.9573-23.3967C34.2564-23.5075 34.5444-23.6552 34.8398-23.7881L35.0318-23.873L35.0687-23.814C35.0318-23.7475 34.9985-23.6773 34.9505-23.6219C34.7474-23.3819 34.5481-23.1419 34.3376-22.913C33.9167-22.4404 33.4957-21.9714 33.06-21.5173C32.6428-21.0779 32.1997-20.6717 31.7861-20.2286C31.1658-19.5677 30.5603-18.8846 29.951-18.2089C29.6999-17.9319 29.4119-17.7141 29.183-17.4076C28.8691-17.0014 28.4777-16.6728 28.1122-16.322C27.994-16.2076 27.839-16.1337 27.7282-16.0119C27.2629-15.4949 26.8198-14.9521 26.3472-14.45C25.8856-13.9589 25.5127-13.3866 25.1102-12.8401C25.0292-12.7293 24.9847-12.6148 25.0955-12.5078L25.11-12.4945C25.2898-12.3287 25.4717-12.1613 25.7306-12.1828C26.0555-12.205 26.0777-12.1791 26.0998-11.821C26.1183-11.544 26.5355-11.2893 26.7349-11.4517C27.3921-11.9871 28.0457-12.5262 28.6845-13.0875C29.1239-13.4715 29.5375-13.885 29.9584-14.2912C30.4961-14.8798 31.0327-15.4694 31.5683-16.0599C31.812-16.3294 32.052-16.61 32.2957-16.8833C32.7129-17.3448 33.1228-17.8175 33.5511-18.2679C34.1013-18.8513 34.6625-19.431 35.2312-19.9923C36.0657-20.8157 36.9112-21.6317 37.7605-22.4367C38.4988-23.1318 39.3811-23.5564 40.2567-23.9777L40.323-24.0097C40.7218-24.2017 41.1538-24.3124 41.5563-24.4971C42.1174-24.7592 42.6639-25.0657 43.2178-25.3426C43.4836-25.4755 43.7569-25.5937 44.0301-25.7045C44.2738-25.7968 44.5249-25.8559 44.7686-25.9519C45.3754-26.194 46.0372-26.2642 46.6813-26.1549C47.0025-26.1033 47.3201-26.0368 47.6413-25.9814C47.9219-25.9334 48.2062-25.9002 48.4905-25.8559C48.6419-25.83 48.7342-25.7229 48.7527-25.5531C48.7786-25.3611 48.8081-25.1654 48.8081-24.9734C48.8155-24.1573 48.8081-23.3376 48.8155-22.5216C48.8143-22.2684 48.8318-22.0154 48.8672-21.7647C48.9743-21.0926 48.7379-20.4871 48.5681-19.8741C48.5592-19.8501 48.5469-19.828 48.5312-19.8077C48.4462-19.6784 48.3576-19.6821 48.2985-19.8261C48.269-19.8889 48.2468-19.9554 48.2247-20.0181L48.1582-20.0108C48.0776-19.8692 48.0259-19.7132 48.0062-19.5514C47.9868-19.3898 47.9995-19.2258 48.0438-19.0692C48.1915-18.4636 48.5127-17.9615 48.8192-17.4519C48.9115-17.2968 49.3767-17.1713 49.4838-17.2747C49.6537-17.4334 49.8235-17.607 49.9749-17.7916C50.2334-18.1055 50.466-18.4452 50.7355-18.7516C50.9112-18.9498 51.0177-19.2003 51.0383-19.4643C51.0642-19.7227 51.1011-19.9849 51.09-20.2434C51.0826-20.428 51.0457-20.6385 50.9534-20.7862C50.6728-21.2329 50.3405-21.6391 49.9343-21.9604C49.7386-22.1191 49.661-22.3185 49.6647-22.5881C49.6721-23.2955 49.6684-23.9995 49.6647-24.7069L49.6647-24.7112C49.6647-24.9589 49.6577-25.2063 49.6503-25.4574L49.65-25.4682C49.65-25.6528 49.7386-25.7229 49.8974-25.7192C50.0672-25.7119 50.2408-25.6934 50.4143-25.7008L50.4149-25.7008C51.0534-25.7082 51.6922-25.7156 52.3344-25.7377C52.7399-25.7466 53.1445-25.7814 53.5455-25.8411C53.8209-25.8983 54.1067-25.8805 54.3726-25.7894C54.7898-25.6343 55.2218-25.5346 55.628-25.3131C55.9456-25.1395 56.3259-25.1063 56.673-24.9881C57.3007-24.7666 57.9358-24.5414 58.5561-24.2903C59.0435-24.0909 59.5161-23.8472 59.9961-23.6256C60.1623-23.5444 60.2177-23.4115 60.1845-23.2195C60.118-22.8465 60.0737-22.4699 59.9888-22.1007Z"/>
   <path class="monochrome-1 multicolor-1:tintColor hierarchical-1:tertiary SFSymbolsPreviewWireframe" d="M48.9411-84C55.3091-84.0013 61.615-82.7479 67.4985-80.3116C73.382-77.8752 78.7279-74.3036 83.2305-69.8009C87.7334-65.2983 91.305-59.9524 93.7418-54.0682C96.1779-48.1846 97.4312-41.8789 97.43-35.5124C97.43-8.72255 75.7254 13 48.9424 13C22.156 13 0.43-8.726 0.43-35.5124C0.43-62.2926 22.1539-84 48.9411-84ZM48.9424-70C29.8835-70 14.43-54.5582 14.43-35.5124C14.43-16.458 29.888-0.999999 48.9424-0.999999C67.9909-0.999999 83.43-16.4519 83.43-35.5138C83.4309-40.0428 82.5395-44.5276 80.8069-48.7121C79.0739-52.8969 76.5337-56.6989 73.3311-59.9013C70.1287-63.1038 66.3266-65.644 62.1422-67.3767C57.9578-69.1095 53.4729-70.0009 48.9424-70Z"/>
  </g>
  <g id="Regular-S" transform="matrix(1 0 0 1 1403.58 696)">
   <path class="monochrome-0 multicolor-0:tintColor hierarchical-0:primary SFSymbolsPreviewWireframe" d="M58.6223-21.1061C58.4439-20.3375 58.4567-19.6284 59.0384-19.0552L59.4842-18.4777C59.5642-18.459 59.6474-18.4575 59.728-18.4735C59.8087-18.4897 59.8848-18.523 59.9513-18.5711C60.1721-18.7495 60.359-18.7834 60.5967-18.6433C60.7241-18.5711 60.877-18.5372 60.9704-18.6985C61.1233-18.949 61.3356-19 61.5776-19.0127C61.7174-19.0177 61.8554-19.0463 61.9852-19.0976C62.0532-19.1274 62.1338-19.2548 62.1254-19.3227C62.0914-19.5775 62.1848-19.7261 62.3716-19.845C62.5839-19.9724 62.6434-20.1847 62.6009-20.4394C62.5627-20.6475 62.5033-20.8513 62.4608-21.0636C62.3844-21.4585 62.2655-21.8534 62.2442-22.2525C62.2103-23.0253 61.8748-23.5264 61.1954-23.6283C60.6944-23.709 60.2061-23.8109 59.7178-23.9213C59.187-24.0444 58.6775-24.2015 58.1679-24.3968C57.3017-24.7408 56.4228-25.0338 55.5608-25.3735C55.1659-25.5263 54.7965-25.7344 54.3719-25.7344C54.3209-25.7301 54.2785-25.7896 54.1935-25.849L54.4526-26.0061C54.9196-26.3119 55.5014-26.2906 55.943-26.66C55.9769-26.6855 56.0279-26.6728 56.0703-26.6898C56.1875-26.7386 56.3021-26.7924 56.4143-26.8511C56.5077-26.9021 56.5926-26.9743 56.686-27.021C56.9918-27.1781 57.3102-27.3055 57.6032-27.4923C57.9217-27.7046 58.2104-27.9721 58.5161-28.2056C58.9747-28.5581 59.4418-28.8935 59.8919-29.2587C60.6774-29.8829 61.2337-30.7576 61.8663-31.5516C62.2485-32.0272 62.5797-32.5495 62.9406-33.0463C63.0935-33.2543 63.2846-33.4327 63.4289-33.645C63.62-33.9422 63.7771-34.2692 63.9597-34.5791C64.5457-35.5897 65.1953-36.5536 65.5732-37.7128C65.8832-38.6767 66.329-39.5896 66.5201-40.6002C66.5796-40.9059 66.6475-41.2074 66.69-41.5131C66.7961-42.2986 66.9362-43.0799 66.966-43.8697C67.0084-44.9822 66.9617-46.0989 66.9532-47.2114C66.9522-47.376 66.9607-47.5404 66.9787-47.704L67.3184-50.6041C67.4118-51.3981 67.6496-52.1242 68.0742-52.7696C68.3757-53.2282 68.6644-53.6953 68.9744-54.1454C69.3608-54.7059 69.7684-55.2452 70.1633-55.7972C70.2695-55.9415 70.4011-55.967 70.5582-55.95C71.2712-55.9135 71.9846-56.0129 72.6601-56.243C72.97-56.3492 73.2418-56.6252 73.6154-56.468C73.6154-56.5445 73.6239-56.5869 73.6154-56.6167C73.4116-57.313 73.1314-57.95 72.5709-58.3788C72.4223-58.4935 72.2864-58.6421 72.125-58.7312C71.6877-58.9818 71.2546-59.2578 70.7875-59.4276C70.577-59.4917 70.3816-59.5982 70.2136-59.7406C70.0458-59.883 69.9086-60.0582 69.8109-60.2556C69.6924-60.5199 69.5367-60.7658 69.3481-60.986C68.7324-61.6526 68.053-62.2556 67.259-62.5995C66.4607-62.9477 65.7006-63.4445 64.8259-63.5719C63.9767-63.6908 63.1317-63.8988 62.2825-63.9752C61.136-64.0814 60.0108-63.8394 58.9492-63.368C58.2444-63.0538 57.582-62.625 56.9281-62.2004C56.6531-62.0053 56.4097-61.769 56.2062-61.4997C55.7349-60.918 55.2848-60.3193 54.8262-59.7291C54.737-59.6102 54.6224-59.5168 54.5375-59.3936C54.185-58.8799 53.8369-58.3576 53.4929-57.8396C53.3528-57.623 53.2169-57.398 53.0853-57.1772C53.0471-57.1135 53.0343-57.0328 52.9919-56.9733C52.6819-56.468 52.3634-55.9797 52.0577-55.4702C51.6926-54.8588 51.3401-54.2346 50.975-53.6231C50.827-53.3661 50.6639-53.1179 50.4866-52.88C49.9474-52.1837 49.3826-51.5128 48.8561-50.8037C48.2288-49.9856 47.5462-49.211 46.8137-48.4853C46.457-48.1201 46.1004-47.7422 45.8031-47.3176C45.2384-46.5193 44.7246-45.6786 44.1684-44.8718C43.4465-43.8103 42.695-42.7657 41.9604-41.7127C41.6377-41.2498 41.3234-40.7743 41.005-40.3072C40.9243-40.1925 40.8224-40.0991 40.7375-39.9887C40.2067-39.3093 39.8033-38.5196 39.2641-37.8402C38.8055-37.2542 38.3936-36.613 37.9562-36.0016C37.7397-35.7001 37.4936-35.4199 37.3067-35.0972C36.967-34.5154 36.6315-33.921 36.3513-33.301C36.0971-32.8035 35.9591-32.2547 35.948-31.696C35.9392-31.4876 35.8682-31.2862 35.7441-31.1185C35.4443-30.7077 35.1255-30.3107 34.7888-29.9296C33.7044-28.6756 32.5623-27.4725 31.3663-26.3246C30.619-25.6028 29.8504-24.9106 29.1031-24.1888C28.747-23.8986 28.4744-23.5193 28.3133-23.089C28.2709-22.9404 28.1987-22.7706 28.3346-22.6644C28.428-22.5965 28.5851-22.554 28.687-22.5965C29.031-22.7239 29.3622-22.8937 29.7019-23.0466L29.9227-23.1442L29.9651-23.0763C29.9226-22.9999 29.8844-22.9192 29.8292-22.8555C29.5957-22.5795 29.3664-22.3035 29.1244-22.0402C28.6403-21.4967 28.1563-20.9575 27.6552-20.4352C27.1754-19.9299 26.6658-19.4628 26.1903-18.9533C25.4769-18.1932 24.7806-17.4077 24.08-16.6306C23.7912-16.3122 23.46-16.0616 23.1968-15.7092C22.8358-15.2421 22.3857-14.8642 21.9654-14.4608C21.8295-14.3292 21.6512-14.2443 21.5238-14.1042C20.9888-13.5097 20.4792-12.8855 19.9357-12.308C19.4049-11.7433 18.976-11.0852 18.5132-10.4567C18.42-10.3293 18.3689-10.1977 18.4963-10.0746L18.513-10.0594C18.7198-9.86863 18.9289-9.67614 19.2266-9.70091C19.6003-9.72639 19.6257-9.69666 19.6512-9.28479C19.6724-8.96632 20.1522-8.67334 20.3815-8.86017C21.1373-9.47586 21.8889-10.0958 22.6235-10.7412C23.1288-11.1828 23.6044-11.6584 24.0884-12.1255C24.7068-12.8024 25.3239-13.4803 25.9397-14.1594C26.22-14.4693 26.496-14.792 26.7762-15.1063C27.256-15.637 27.7274-16.1805 28.22-16.6986C28.8526-17.3695 29.498-18.0361 30.152-18.6815C31.1116-19.6284 32.084-20.5668 33.0606-21.4925C33.9096-22.2918 34.9242-22.7801 35.9311-23.2645L36.0074-23.3013C36.466-23.5221 36.9628-23.6495 37.4256-23.8618C38.0709-24.1633 38.6993-24.5157 39.3362-24.8342C39.642-24.9871 39.9562-25.1229 40.2704-25.2503C40.5506-25.3565 40.8394-25.4244 41.1196-25.5348C41.8174-25.8133 42.5785-25.894 43.3191-25.7684C43.6886-25.7089 44.0537-25.6325 44.4231-25.5688C44.7458-25.5136 45.0728-25.4754 45.3998-25.4244C45.5738-25.3947 45.68-25.2716 45.7012-25.0762C45.731-24.8554 45.7649-24.6304 45.7649-24.4096C45.7734-23.4712 45.7649-22.5285 45.7734-21.5901C45.772-21.2989 45.7922-21.0081 45.8329-20.7197C45.956-19.9469 45.6842-19.2505 45.4889-18.5456C45.4787-18.518 45.4645-18.4926 45.4465-18.4692C45.3488-18.3206 45.2469-18.3248 45.179-18.4904C45.145-18.5626 45.1195-18.6391 45.094-18.7112L45.0176-18.7028C44.9249-18.54 44.8654-18.3606 44.8428-18.1745C44.8205-17.9887 44.835-17.8001 44.886-17.62C45.0558-16.9236 45.4252-16.3461 45.7777-15.7602C45.8838-15.5818 46.4188-15.4375 46.542-15.5564C46.7373-15.7389 46.9326-15.9385 47.1067-16.1508C47.4039-16.5117 47.6714-16.9024 47.9814-17.2548C48.1835-17.4827 48.3059-17.7707 48.3296-18.0743C48.3593-18.3716 48.4018-18.673 48.389-18.9703C48.3806-19.1826 48.3381-19.4246 48.2319-19.5944C47.9092-20.1082 47.5271-20.5753 47.06-20.9447C46.835-21.1273 46.7458-21.3566 46.75-21.6666C46.7585-22.4801 46.7543-23.2897 46.75-24.1032L46.75-24.1081C46.75-24.393 46.7419-24.6774 46.7334-24.9662L46.733-24.9786C46.733-25.1909 46.835-25.2716 47.0175-25.2673C47.2129-25.2588 47.4124-25.2376 47.612-25.2461L47.6127-25.2461C48.3469-25.2546 49.0815-25.2631 49.82-25.2885C50.2864-25.2988 50.7517-25.3388 51.2127-25.4074C51.5294-25.4732 51.8582-25.4527 52.1639-25.348C52.6437-25.1696 53.1405-25.055 53.6076-24.8002C53.9727-24.6007 54.4101-24.5624 54.8092-24.4266C55.5311-24.1718 56.2614-23.9128 56.9748-23.624C57.5353-23.3948 58.0788-23.1145 58.6308-22.8597C58.8218-22.7663 58.8855-22.6135 58.8473-22.3927C58.7709-21.9638 58.7199-21.5307 58.6223-21.1061Z"/>
   <path class="monochrome-1 multicolor-1:tintColor hierarchical-1:tertiary SFSymbolsPreviewWireframe" d="M46.4321-81.8365C52.4502-81.8377 58.4096-80.6532 63.9698-78.3508C69.53-76.0483 74.5822-72.6729 78.8374-68.4176C83.0928-64.1624 86.4682-59.1103 88.771-53.5496C91.0733-47.9892 92.2577-42.03 92.2566-36.0127C92.2566-10.693 71.744 9.83658 46.4328 9.83658C21.1173 9.83658 0.5835-10.6972 0.5835-36.0127C0.5835-61.3211 21.1145-81.8365 46.4321-81.8365ZM46.4328-75.0865C24.8413-75.0865 7.3335-57.592 7.3335-36.0127C7.3335-14.4252 24.8452 3.08658 46.4328 3.08658C68.0148 3.08658 85.5066-14.4197 85.5066-36.0133C85.5076-41.1447 84.4976-46.226 82.5345-50.9672C80.571-55.7085 77.693-60.0162 74.0644-63.6446C70.4361-67.273 66.1283-70.1511 61.3873-72.1143C56.6463-74.0776 51.5649-75.0875 46.4328-75.0865Z"/>
  </g>
  <g id="Ultralight-S" transform="matrix(1 0 0 1 515.649 696)">
   <path class="monochrome-0 multicolor-0:tintColor hierarchical-0:primary SFSymbolsPreviewWireframe" d="M56.5533-22.1061C56.3749-21.3375 56.3877-20.6284 56.9694-20.0552L57.4152-19.4777C57.4952-19.459 57.5784-19.4575 57.659-19.4735C57.7397-19.4897 57.8158-19.523 57.8823-19.5711C58.1031-19.7495 58.29-19.7834 58.5277-19.6433C58.6551-19.5711 58.808-19.5372 58.9014-19.6985C59.0543-19.949 59.2666-20 59.5086-20.0127C59.6484-20.0177 59.7864-20.0463 59.9162-20.0976C59.9842-20.1274 60.0648-20.2548 60.0564-20.3227C60.0224-20.5775 60.1158-20.7261 60.3026-20.845C60.5149-20.9724 60.5744-21.1847 60.5319-21.4394C60.4937-21.6475 60.4343-21.8513 60.3918-22.0636C60.3154-22.4585 60.1965-22.8534 60.1752-23.2525C60.1413-24.0253 59.8058-24.5264 59.1264-24.6283C58.6254-24.709 58.1371-24.8109 57.6488-24.9213C57.118-25.0444 56.6085-25.2015 56.0989-25.3968C55.2327-25.7408 54.3538-26.0338 53.4918-26.3735C53.0969-26.5263 52.7275-26.7344 52.3029-26.7344C52.2519-26.7301 52.2095-26.7896 52.1245-26.849L52.3836-27.0061C52.8506-27.3119 53.4324-27.2906 53.874-27.66C53.9079-27.6855 53.9589-27.6728 54.0013-27.6898C54.1185-27.7386 54.2331-27.7924 54.3453-27.8511C54.4387-27.9021 54.5236-27.9743 54.617-28.021C54.9228-28.1781 55.2412-28.3055 55.5342-28.4923C55.8527-28.7046 56.1414-28.9721 56.4471-29.2056C56.9057-29.5581 57.3728-29.8935 57.8229-30.2587C58.6084-30.8829 59.1647-31.7576 59.7973-32.5516C60.1795-33.0272 60.5107-33.5495 60.8716-34.0463C61.0245-34.2543 61.2156-34.4327 61.3599-34.645C61.551-34.9422 61.7081-35.2692 61.8907-35.5791C62.4767-36.5897 63.1263-37.5536 63.5042-38.7128C63.8142-39.6767 64.26-40.5896 64.4511-41.6002C64.5106-41.9059 64.5785-42.2074 64.621-42.5131C64.7271-43.2986 64.8672-44.0799 64.897-44.8697C64.9394-45.9822 64.8927-47.0989 64.8842-48.2114C64.8832-48.376 64.8917-48.5404 64.9097-48.704L65.2494-51.6041C65.3428-52.3981 65.5806-53.1242 66.0052-53.7696C66.3067-54.2282 66.5954-54.6953 66.9054-55.1454C67.2918-55.7059 67.6994-56.2452 68.0943-56.7972C68.2005-56.9415 68.3321-56.967 68.4892-56.95C69.2022-56.9135 69.9156-57.0129 70.5911-57.243C70.901-57.3492 71.1728-57.6252 71.5464-57.468C71.5464-57.5445 71.5549-57.5869 71.5464-57.6167C71.3426-58.313 71.0624-58.95 70.5019-59.3788C70.3533-59.4935 70.2174-59.6421 70.056-59.7312C69.6187-59.9818 69.1856-60.2578 68.7185-60.4276C68.508-60.4917 68.3126-60.5982 68.1446-60.7406C67.9768-60.883 67.8396-61.0582 67.7419-61.2556C67.6234-61.5199 67.4677-61.7658 67.2791-61.986C66.6634-62.6526 65.984-63.2556 65.19-63.5995C64.3917-63.9477 63.6316-64.4445 62.7569-64.5719C61.9077-64.6908 61.0627-64.8988 60.2135-64.9752C59.067-65.0814 57.9418-64.8394 56.8802-64.368C56.1754-64.0538 55.513-63.625 54.8591-63.2004C54.5841-63.0053 54.3407-62.769 54.1372-62.4997C53.6659-61.918 53.2158-61.3193 52.7572-60.7291C52.668-60.6102 52.5534-60.5168 52.4685-60.3936C52.116-59.8799 51.7679-59.3576 51.4239-58.8396C51.2838-58.623 51.1479-58.398 51.0163-58.1772C50.9781-58.1135 50.9653-58.0328 50.9229-57.9733C50.6129-57.468 50.2944-56.9797 49.9887-56.4702C49.6236-55.8588 49.2711-55.2346 48.906-54.6231C48.758-54.3661 48.5949-54.1179 48.4176-53.88C47.8784-53.1837 47.3136-52.5128 46.7871-51.8037C46.1598-50.9856 45.4772-50.211 44.7447-49.4853C44.388-49.1201 44.0314-48.7422 43.7341-48.3176C43.1694-47.5193 42.6556-46.6786 42.0994-45.8718C41.3775-44.8103 40.626-43.7657 39.8914-42.7127C39.5687-42.2498 39.2544-41.7743 38.936-41.3072C38.8553-41.1925 38.7534-41.0991 38.6685-40.9887C38.1377-40.3093 37.7343-39.5196 37.1951-38.8402C36.7365-38.2542 36.3246-37.613 35.8872-37.0016C35.6707-36.7001 35.4246-36.4199 35.2377-36.0972C34.898-35.5154 34.5625-34.921 34.2823-34.301C34.0281-33.8035 33.8901-33.2547 33.879-32.696C33.8702-32.4876 33.7992-32.2862 33.6751-32.1185C33.3753-31.7077 33.0565-31.3107 32.7198-30.9296C31.6354-29.6756 30.4933-28.4725 29.2973-27.3246C28.55-26.6028 27.7814-25.9106 27.0341-25.1888C26.678-24.8986 26.4054-24.5193 26.2443-24.089C26.2019-23.9404 26.1297-23.7706 26.2656-23.6644C26.359-23.5965 26.5161-23.554 26.618-23.5965C26.962-23.7239 27.2932-23.8937 27.6329-24.0466L27.8537-24.1442L27.8961-24.0763C27.8536-23.9999 27.8154-23.9192 27.7602-23.8555C27.5267-23.5795 27.2974-23.3035 27.0554-23.0402C26.5713-22.4967 26.0873-21.9575 25.5862-21.4352C25.1064-20.9299 24.5968-20.4628 24.1213-19.9533C23.4079-19.1932 22.7116-18.4077 22.011-17.6306C21.7222-17.3122 21.391-17.0616 21.1278-16.7092C20.7668-16.2421 20.3167-15.8642 19.8964-15.4608C19.7605-15.3292 19.5822-15.2443 19.4548-15.1042C18.9198-14.5097 18.4102-13.8855 17.8667-13.308C17.3359-12.7433 16.907-12.0852 16.4442-11.4567C16.351-11.3293 16.2999-11.1977 16.4273-11.0746L16.444-11.0594C16.6508-10.8686 16.8599-10.6761 17.1576-10.7009C17.5313-10.7264 17.5567-10.6967 17.5822-10.2848C17.6034-9.96632 18.0832-9.67334 18.3125-9.86017C19.0683-10.4759 19.8199-11.0958 20.5545-11.7412C21.0598-12.1828 21.5354-12.6584 22.0194-13.1255C22.6378-13.8024 23.2549-14.4803 23.8707-15.1594C24.151-15.4693 24.427-15.792 24.7072-16.1063C25.187-16.637 25.6584-17.1805 26.151-17.6986C26.7836-18.3695 27.429-19.0361 28.083-19.6815C29.0426-20.6284 30.015-21.5668 30.9916-22.4925C31.8406-23.2918 32.8552-23.7801 33.8621-24.2645L33.9384-24.3013C34.397-24.5221 34.8938-24.6495 35.3566-24.8618C36.0019-25.1633 36.6303-25.5157 37.2672-25.8342C37.573-25.9871 37.8872-26.1229 38.2014-26.2503C38.4816-26.3565 38.7704-26.4244 39.0506-26.5348C39.7484-26.8133 40.5095-26.894 41.2501-26.7684C41.6196-26.7089 41.9847-26.6325 42.3541-26.5688C42.6768-26.5136 43.0038-26.4754 43.3308-26.4244C43.5048-26.3947 43.611-26.2716 43.6322-26.0762C43.662-25.8554 43.6959-25.6304 43.6959-25.4096C43.7044-24.4712 43.6959-23.5285 43.7044-22.5901C43.703-22.2989 43.7232-22.0081 43.7639-21.7197C43.887-20.9469 43.6152-20.2505 43.4199-19.5456C43.4097-19.518 43.3955-19.4926 43.3775-19.4692C43.2798-19.3206 43.1779-19.3248 43.11-19.4904C43.076-19.5626 43.0505-19.6391 43.025-19.7112L42.9486-19.7028C42.8559-19.54 42.7964-19.3606 42.7738-19.1745C42.7515-18.9887 42.766-18.8001 42.817-18.62C42.9868-17.9236 43.3562-17.3461 43.7087-16.7602C43.8148-16.5818 44.3498-16.4375 44.473-16.5564C44.6683-16.7389 44.8636-16.9385 45.0377-17.1508C45.3349-17.5117 45.6024-17.9024 45.9124-18.2548C46.1145-18.4827 46.2369-18.7707 46.2606-19.0743C46.2903-19.3716 46.3328-19.673 46.32-19.9703C46.3116-20.1826 46.2691-20.4246 46.1629-20.5944C45.8402-21.1082 45.4581-21.5753 44.991-21.9447C44.766-22.1273 44.6768-22.3566 44.681-22.6666C44.6895-23.4801 44.6853-24.2897 44.681-25.1032L44.681-25.1081C44.681-25.393 44.6729-25.6774 44.6644-25.9662L44.664-25.9786C44.664-26.1909 44.766-26.2716 44.9485-26.2673C45.1439-26.2588 45.3434-26.2376 45.543-26.2461L45.5437-26.2461C46.2779-26.2546 47.0125-26.2631 47.751-26.2885C48.2174-26.2988 48.6827-26.3388 49.1437-26.4074C49.4604-26.4732 49.7892-26.4527 50.0949-26.348C50.5747-26.1696 51.0715-26.055 51.5386-25.8002C51.9037-25.6007 52.3411-25.5624 52.7402-25.4266C53.4621-25.1718 54.1924-24.9128 54.9058-24.624C55.4663-24.3948 56.0098-24.1145 56.5618-23.8597C56.7528-23.7663 56.8165-23.6135 56.7783-23.3927C56.7019-22.9638 56.6509-22.5307 56.5533-22.1061Z"/>
   <path class="monochrome-1 multicolor-1:tintColor hierarchical-1:tertiary SFSymbolsPreviewWireframe" d="M44.3636-80.5865C50.0861-80.5876 55.7528-79.4613 61.04-77.272C66.3271-75.0826 71.1312-71.8729 75.1774-67.8265C79.2239-63.7803 82.4335-58.9764 84.6232-53.6889C86.8124-48.4015 87.9387-42.7349 87.9376-37.0127C87.9376-12.9352 68.432 6.58658 44.3638 6.58658C20.2909 6.58658 0.7645-12.9399 0.7645-37.0127C0.7645-61.0781 20.2877-80.5865 44.3636-80.5865ZM44.3638-78.3365C21.53-78.3365 3.0145-59.8351 3.0145-37.0127C3.0145-14.1825 21.5336 4.33658 44.3638 4.33658C67.1889 4.33658 85.6876-14.1774 85.6876-37.0129C85.6886-42.4398 84.6205-47.8138 82.5443-52.828C80.4678-57.8425 77.4239-62.3983 73.5865-66.2355C69.7491-70.073 65.1932-73.1168 60.1791-75.1931C55.1651-77.2695 49.791-78.3376 44.3638-78.3365Z"/>
  </g>
 </g>
</svg>
