<?xml version="1.0" encoding="UTF-8"?>
<svg width="3300px" height="2200px" viewBox="0 0 3300 2200" version="1.1" xmlns="http://www.w3.org/2000/svg" xmlns:xlink="http://www.w3.org/1999/xlink">
    <!-- Generator: Sketch 59.1 (86144) - https://sketch.com -->
    <title>filter</title>
    <desc>Created with Sketch.</desc>
    <g id="Page-1" stroke="none" stroke-width="1" fill="none" fill-rule="evenodd">
        <g id="filter">
            <g id="Notes">
                <rect id="artboard" fill="#FFFFFF" fill-rule="nonzero" x="0" y="0" width="3300" height="2200"></rect>
                <line x1="263" y1="292" x2="3036" y2="292" id="Path" stroke="#000000" stroke-width="0.5"></line>
                <text id="Weight/Scale-Variations" fill="#000000" font-family="Helvetica-Bold, Helvetica" font-size="13" font-weight="bold">
                    <tspan x="263" y="322">Weight/Scale Variations</tspan>
                </text>
                <text id="Ultralight" fill="#000000" font-family="Helvetica" font-size="13" font-weight="normal">
                    <tspan x="533.711" y="322">Ultralight</tspan>
                </text>
                <text id="Thin" fill="#000000" font-family="Helvetica" font-size="13" font-weight="normal">
                    <tspan x="843.422" y="322">Thin</tspan>
                </text>
                <text id="Light" fill="#000000" font-family="Helvetica" font-size="13" font-weight="normal">
                    <tspan x="1138.63" y="322">Light</tspan>
                </text>
                <text id="Regular" fill="#000000" font-family="Helvetica" font-size="13" font-weight="normal">
                    <tspan x="1426.84" y="322">Regular</tspan>
                </text>
                <text id="Medium" fill="#000000" font-family="Helvetica" font-size="13" font-weight="normal">
                    <tspan x="1723.06" y="322">Medium</tspan>
                </text>
                <text id="Semibold" fill="#000000" font-family="Helvetica" font-size="13" font-weight="normal">
                    <tspan x="2015.77" y="322">Semibold</tspan>
                </text>
                <text id="Bold" fill="#000000" font-family="Helvetica" font-size="13" font-weight="normal">
                    <tspan x="2326.48" y="322">Bold</tspan>
                </text>
                <text id="Heavy" fill="#000000" font-family="Helvetica" font-size="13" font-weight="normal">
                    <tspan x="2618.19" y="322">Heavy</tspan>
                </text>
                <text id="Black" fill="#000000" font-family="Helvetica" font-size="13" font-weight="normal">
                    <tspan x="2917.4" y="322">Black</tspan>
                </text>
                <line x1="263" y1="1903" x2="3036" y2="1903" id="Path" stroke="#000000" stroke-width="0.5"></line>
                <g id="Group" transform="translate(264.000000, 1918.000000)" fill="#000000" fill-rule="nonzero">
                    <path d="M8.24805,15.830078 C12.5547,15.830078 16.1387,12.25586 16.1387,7.94922 C16.1387,3.6426 12.5449,0.0684 8.23828,0.0684 C3.94141,0.0684 0.36719,3.6426 0.36719,7.94922 C0.36719,12.25586 3.95117,15.830078 8.24805,15.830078 Z M8.24805,14.345703 C4.70312,14.345703 1.87109,11.50391 1.87109,7.94922 C1.87109,4.3945 4.69336,1.5527 8.23828,1.5527 C11.793,1.5527 14.6348,4.3945 14.6445503,7.94922 C14.6543,11.50391 11.8027,14.345703 8.24805,14.345703 Z M8.22852,11.57227 C8.69727,11.57227 8.9707,11.25977 8.9707,10.74219 L8.9707,8.68164 L11.1973,8.68164 C11.6953,8.68164 12.0371,8.42773 12.0371,7.95898 C12.0371,7.48047 11.7148,7.2168 11.1973,7.2168 L8.9707,7.2168 L8.9707,4.9902 C8.9707,4.4727 8.69727,4.1504 8.22852,4.1504 C7.75977,4.1504 7.50586,4.4922 7.50586,4.9902 L7.50586,7.2168 L5.29883,7.2168 C4.78125,7.2168 4.44922,7.48047 4.44922,7.95898 C4.44922,8.42773 4.80078,8.68164 5.29883,8.68164 L7.50586,8.68164 L7.50586,10.74219 C7.50586,11.24023 7.75977,11.57227 8.22852,11.57227 Z" id="Shape"></path>
                </g>
                <g id="Group" transform="translate(282.506000, 1915.000000)" fill="#000000" fill-rule="nonzero">
                    <path d="M10.709,20.91016 C16.1582,20.91016 20.6699,16.39844 20.6699,10.94922 C20.6699,5.5098 16.1484,0.9883 10.6992,0.9883 C5.25977,0.9883 0.74805,5.5098 0.74805,10.94922 C0.74805,16.39844 5.26953,20.91016 10.709,20.91016 Z M10.709,19.25 C6.09961,19.25 2.41797,15.55859 2.41797,10.94922 C2.41797,6.3496 6.08984,2.6484 10.6992,2.6484 C15.3086,2.6484 19,6.3496 19.0098379,10.94922 C19.0195,15.55859 15.3184,19.25 10.709,19.25 Z M10.6895,15.58789 C11.207,15.58789 11.5195,15.22656 11.5195,14.66016 L11.5195,11.76953 L14.5762,11.76953 C15.123,11.76953 15.5039,11.48633 15.5039,10.96875 C15.5039,10.44141 15.1426,10.13867 14.5762,10.13867 L11.5195,10.13867 L11.5195,7.0723 C11.5195,6.4961 11.207,6.1445 10.6895,6.1445 C10.1719,6.1445 9.8789,6.5156 9.8789,7.0723 L9.8789,10.13867 L6.83203,10.13867 C6.26562,10.13867 5.89453,10.44141 5.89453,10.96875 C5.89453,11.48633 6.28516,11.76953 6.83203,11.76953 L9.8789,11.76953 L9.8789,14.66016 C9.8789,15.20703 10.1719,15.58789 10.6895,15.58789 Z" id="Shape"></path>
                </g>
                <g id="Group" transform="translate(306.924000, 1913.000000)" fill="#000000" fill-rule="nonzero">
                    <path d="M12.9707,25.67383 C19.9336,25.67383 25.6953,19.921875 25.6953,12.95898 C25.6953,5.9961 19.9238,0.2441 12.9609,0.2441 C6.00781,0.2441 0.25586,5.9961 0.25586,12.95898 C0.25586,19.921875 6.01758,25.67383 12.9707,25.67383 Z M12.9707,23.85742 C6.93555,23.85742 2.08203,18.99414 2.08203,12.95898 C2.08203,6.9238 6.92578,2.0605 12.9609,2.0605 C19.0059,2.0605 23.8594,6.9238 23.8691295,12.95898 C23.8789,18.99414 19.0156,23.85742 12.9707,23.85742 Z M12.9512,18.93555 C13.5176,18.93555 13.8691,18.54492 13.8691,17.93945 L13.8691,13.86719 L18.1074,13.86719 C18.6934,13.86719 19.1133,13.53516 19.1133,12.97852 C19.1133,12.40234 18.7227,12.06055 18.1074,12.06055 L13.8691,12.06055 L13.8691,7.8125 C13.8691,7.1973 13.5176,6.8066 12.9512,6.8066 C12.3848,6.8066 12.0625,7.2168 12.0625,7.8125 L12.0625,12.06055 L7.83398,12.06055 C7.21875,12.06055 6.80859,12.40234 6.80859,12.97852 C6.80859,13.53516 7.23828,13.86719 7.83398,13.86719 L12.0625,13.86719 L12.0625,17.93945 C12.0625,18.52539 12.3848,18.93555 12.9512,18.93555 Z" id="Shape"></path>
                </g>
                <text id="Design-Variations" fill="#000000" font-family="Helvetica-Bold, Helvetica" font-size="13" font-weight="bold">
                    <tspan x="263" y="1953">Design Variations</tspan>
                </text>
                <text id="Symbols-are-supported-in-up-to-nine-weights-and-three-scales." fill="#000000" font-family="Helvetica" font-size="13" font-weight="normal">
                    <tspan x="263" y="1971">Symbols are supported in up to nine weights and three scales.</tspan>
                </text>
                <text id="For-optimal-layout-with-text-and-other-symbols,-vertically-align" fill="#000000" font-family="Helvetica" font-size="13" font-weight="normal">
                    <tspan x="263" y="1989">For optimal layout with text and other symbols, vertically align</tspan>
                </text>
                <text id="symbols-with-the-adjacent-text." fill="#000000" font-family="Helvetica" font-size="13" font-weight="normal">
                    <tspan x="263" y="2007">symbols with the adjacent text.</tspan>
                </text>
                <rect id="Rectangle" fill="#00AEEF" fill-rule="nonzero" opacity="0.4" x="776" y="1919" width="3" height="14"></rect>
                <g id="Group" transform="translate(779.000000, 1918.000000)" fill="#000000" fill-rule="nonzero">
                    <path d="M10.5273,15 L12.373,15 L7.17773,0.9082 L5.43945,0.9082 L0.244141,15 L2.08984,15 L3.50586,10.9668 L9.11133,10.9668 L10.5273,15 Z M6.2793,3.0469 L6.33789,3.0469 L8.59375,9.47266 L4.02344,9.47266 L6.2793,3.0469 Z" id="Shape"></path>
                </g>
                <rect id="Rectangle" fill="#00AEEF" fill-rule="nonzero" opacity="0.4" x="791.617" y="1919" width="3" height="14"></rect>
                <text id="Margins" fill="#000000" font-family="Helvetica-Bold, Helvetica" font-size="13" font-weight="bold">
                    <tspan x="776" y="1953">Margins</tspan>
                </text>
                <text id="Leading-and-trailing-margins-on-the-left-and-right-side-of-each-symbol" fill="#000000" font-family="Helvetica" font-size="13" font-weight="normal">
                    <tspan x="776" y="1971">Leading and trailing margins on the left and right side of each symbol</tspan>
                </text>
                <text id="can-be-adjusted-by-modifying-the-width-of-the-blue-rectangles." fill="#000000" font-family="Helvetica" font-size="13" font-weight="normal">
                    <tspan x="776" y="1989">can be adjusted by modifying the width of the blue rectangles.</tspan>
                </text>
                <text id="Modifications-are-automatically-applied-proportionally-to-all" fill="#000000" font-family="Helvetica" font-size="13" font-weight="normal">
                    <tspan x="776" y="2007">Modifications are automatically applied proportionally to all</tspan>
                </text>
                <text id="scales-and-weights." fill="#000000" font-family="Helvetica" font-size="13" font-weight="normal">
                    <tspan x="776" y="2025">scales and weights.</tspan>
                </text>
                <g id="Group" transform="translate(1291.000000, 1915.000000)" fill="#000000" fill-rule="nonzero">
                    <path d="M0.83203,21.11523 L2.375,22.6582 C3.22461,23.48828 4.19141,23.41992 5.06055,22.46289 L15.2754,11.33984 C15.7051,11.63281 16.0957,11.62305 16.5645,11.52539 L17.6094,11.31055 L18.3027,12.00391 L18.2539,12.52148 C18.1855,13.04883 18.3516,13.46875 18.8496,13.9668 L19.6602,14.77734 C20.168,15.28516 20.8223,15.31445 21.3008,14.83594 L24.5527,11.58398 C25.0312,11.10547 25.0117,10.45117 24.5039,9.94336 L23.6836,9.12305 C23.1855,8.625 22.7754,8.44922 22.2383,8.52734 L21.7109,8.58594 L21.0566,7.9219 L21.3398,6.7793 C21.4863,6.2129 21.3398,5.7441 20.7148,5.1387 L18.3027,2.7461 C14.7578,-0.7793 10.2266,-0.6719 7.11133,2.4629 C6.69141,2.8926 6.64258,3.4785 6.91602,3.9082 C7.15039,4.2793 7.62891,4.5039 8.2734,4.3379 C9.7871,3.957 11.3008,4.0742 12.7852,5.0801 L12.1602,6.6621 C11.9258,7.248 11.9453,7.7266 12.1797,8.16602 L1.01758,18.439453 C0.08008,19.30859 -0.02734,20.25586 0.83203,21.11523 Z M8.6738,2.8535 C11.3398,0.8613 14.6504,1.1738 17.0527,3.5859 L19.6797,6.1934 C19.9141,6.4277 19.9434,6.6133 19.8848,6.9062 L19.5039,8.46875 L21.0762,10.04102 L22.043,9.95312 C22.3262,9.92383 22.4141,9.94336 22.6387,10.16797 L23.2637,10.79297 L20.5098,13.53711 L19.8848,12.92188 C19.6602,12.69727 19.6406,12.59961 19.6699,12.31641 L19.7578,11.35938 L18.1953,9.79688 L16.5742,10.10938 C16.291,10.16797 16.1445,10.16797 15.9102,9.92383 L13.7324,7.7461 C13.5078,7.5117 13.4785,7.375 13.6055,7.0527 L14.5527,4.7773 C12.9512,3.2441 10.8418,2.3945 8.8008,3.0488 C8.7129,3.0781 8.6445,3.0586 8.6152,3.0195 C8.5859,2.9707 8.5859,2.9219 8.6738,2.8535 Z M2.10156,20.41211 C1.61328,19.91406 1.78906,19.61133 2.12109,19.30859 L13.0781,9.19141 L14.3086,10.42188 L4.15234,21.34961 C3.84961,21.68164 3.46875,21.7793 3.06836,21.37891 L2.10156,20.41211 Z" id="Shape"></path>
                </g>
                <text id="Exporting" fill="#000000" font-family="Helvetica-Bold, Helvetica" font-size="13" font-weight="bold">
                    <tspan x="1289" y="1953">Exporting</tspan>
                </text>
                <text id="Symbols-should-be-outlined-when-exporting-to-ensure-the" fill="#000000" font-family="Helvetica" font-size="13" font-weight="normal">
                    <tspan x="1289" y="1971">Symbols should be outlined when exporting to ensure the</tspan>
                </text>
                <text id="design-is-preserved-when-submitting-to-Xcode." fill="#000000" font-family="Helvetica" font-size="13" font-weight="normal">
                    <tspan x="1289" y="1989">design is preserved when submitting to Xcode.</tspan>
                </text>
                <text id="Template-v.1.0" fill="#000000" font-family="Helvetica" font-size="13" font-weight="normal">
                    <tspan x="2952" y="1933">Template v.1.0</tspan>
                </text>
                <text id="Generated-from-circle" fill="#000000" font-family="Helvetica" font-size="13" font-weight="normal">
                    <tspan x="2911" y="1951">Generated from circle</tspan>
                </text>
                <text id="Typeset-at-100-points" fill="#000000" font-family="Helvetica" font-size="13" font-weight="normal">
                    <tspan x="2912" y="1969">Typeset at 100 points</tspan>
                </text>
                <text id="Small" fill="#000000" font-family="Helvetica" font-size="13" font-weight="normal">
                    <tspan x="263" y="726">Small</tspan>
                </text>
                <text id="Medium" fill="#000000" font-family="Helvetica" font-size="13" font-weight="normal">
                    <tspan x="263" y="1156">Medium</tspan>
                </text>
                <text id="Large" fill="#000000" font-family="Helvetica" font-size="13" font-weight="normal">
                    <tspan x="263" y="1586">Large</tspan>
                </text>
            </g>
            <g id="Guides" transform="translate(263.000000, 625.000000)">
                <g id="H-reference" transform="translate(76.000000, 0.000000)" fill="#27AAE1" fill-rule="nonzero">
                    <path d="M54.9316,71 L57.666,71 L30.5664,0.541 L28.0762,0.541 L0.976562,71 L3.66211,71 L12.9395,46.5371 L45.7031,46.5371 L54.9316,71 Z M29.1992,3.9102 L29.4434,3.9102 L44.8242,44.291 L13.8184,44.291 L29.1992,3.9102 Z" id="Shape"></path>
                </g>
                <line x1="0" y1="71" x2="2773" y2="71" id="Baseline-S" stroke="#27AAE1" stroke-width="0.577"></line>
                <line x1="0" y1="0.541" x2="2773" y2="0.541" id="Capline-S" stroke="#27AAE1" stroke-width="0.577"></line>
                <g id="H-reference" transform="translate(76.000000, 430.000000)" fill="#27AAE1" fill-rule="nonzero">
                    <path d="M54.9316,71 L57.666,71 L30.5664,0.541 L28.0762,0.541 L0.976562,71 L3.66211,71 L12.9395,46.5371 L45.7031,46.5371 L54.9316,71 Z M29.1992,3.9102 L29.4434,3.9102 L44.8242,44.291 L13.8184,44.291 L29.1992,3.9102 Z" id="Shape"></path>
                </g>
                <line x1="0" y1="501" x2="2773" y2="501" id="Baseline-M" stroke="#27AAE1" stroke-width="0.577"></line>
                <line x1="0" y1="430.54" x2="2773" y2="430.54" id="Capline-M" stroke="#27AAE1" stroke-width="0.577"></line>
                <g id="H-reference" transform="translate(76.000000, 860.000000)" fill="#27AAE1" fill-rule="nonzero">
                    <path d="M54.9316,71 L57.666,71 L30.5664,0.541 L28.0762,0.541 L0.976562,71 L3.66211,71 L12.9395,46.5371 L45.7031,46.5371 L54.9316,71 Z M29.1992,3.9102 L29.4434,3.9102 L44.8242,44.291 L13.8184,44.291 L29.1992,3.9102 Z" id="Shape"></path>
                </g>
                <line x1="0" y1="931" x2="2773" y2="931" id="Baseline-L" stroke="#27AAE1" stroke-width="0.577"></line>
                <line x1="0" y1="860.54" x2="2773" y2="860.54" id="Capline-L" stroke="#27AAE1" stroke-width="0.577"></line>
                <rect id="left-margin" fill="#00AEEF" fill-rule="nonzero" opacity="0.4" x="1128.3" y="405.79" width="8.74023" height="119.336"></rect>
                <rect id="right-margin" fill="#00AEEF" fill-rule="nonzero" opacity="0.4" x="1236.65" y="405.79" width="8.74023" height="119.336"></rect>
            </g>
            <g id="Symbols" transform="translate(1399.000000, 1040.000000)" fill="#000000" fill-rule="nonzero">
                <g id="Regular-M" transform="translate(0.300000, 0.000000)">
                    <!-- <path d="M50.5449,100.5508 C77.791,100.5508 100.35,77.99219 100.35,50.7461 C100.35,23.5488 77.7422,0.9414 50.4961,0.9414 C23.2988,0.9414 0.74023,23.5488 0.74023,50.7461 C0.74023,77.99219 23.3477,100.5508 50.5449,100.5508 Z M50.1551,92.0078 C27.1082,92.0078 8.7,73.5508 8.7,50.5039 C8.7,27.5058 27.0594,9 50.1063,9 C73.1532,9 91.6102,27.5058 91.6593938,50.5039 C91.7082,73.5508 73.202,92.0078 50.1551,92.0078 Z" id="Shape"></path> -->
                    <path d="M18.9080423,45.5197477 C18.8120414,45.5077479 18.7160404,45.4797485 18.6280395,45.4957482 C18.3080363,45.5357474 17.9880331,45.5837464 17.6760299,45.6357453 C17.3680268,45.6877443 17.0680238,45.7837424 16.7640208,45.799742 C16.2919993,45.8185018 15.8193099,45.8118256 15.3480065,45.7797424 C15.2760058,45.7757425 15.1600046,45.6397453 15.1520045,45.551747 C15.1400044,45.3797505 15.1440045,45.1317555 15.2240053,45.0357574 C15.4440075,44.7637629 15.69201,44.5157679 15.9560126,44.3157719 C16.5960191,43.8437815 17.2560257,43.4077902 17.9080323,42.9158002 C17.780031,42.9277999 17.6560297,42.9397997 17.5320285,42.9597993 C17.4040272,42.9837988 17.2760259,43.0397977 17.1440246,43.0437976 C16.8080212,43.0557973 16.4680178,43.0637972 16.1320144,43.0437976 C15.8703648,43.0217388 15.61088,42.9789385 15.3560066,42.9158002 C15.196005,42.8798009 15.0120031,42.8478015 14.8840019,42.7278039 C14.7704954,42.597716 14.7054855,42.4323698 14.7,42.2598134 C14.7,42.1398158 14.8120011,41.9598194 14.9040021,41.8998206 C15.3440065,41.6238262 15.7800109,41.3558316 16.2320154,41.1318361 C16.6960201,40.9038407 17.1760249,40.7318442 17.6480297,40.5318482 C17.8480317,40.4518498 18.0440336,40.3638516 18.2400356,40.2758534 C18.2720359,40.2598537 18.3000362,40.2198545 18.3640369,40.1638556 L17.980033,39.9638597 C17.8349507,39.8962865 17.6882388,39.8322687 17.5400286,39.7718635 C17.2200253,39.6358663 16.8960221,39.5198686 16.5800189,39.3718716 C16.4099922,39.3004211 16.3108584,39.1219856 16.3400165,38.9398803 C16.3518971,38.8467353 16.3908382,38.7591205 16.4520176,38.6878854 C16.8520216,38.2558941 17.3560267,38.2998932 17.8280315,38.1878954 C18.1160344,38.1238967 18.4040373,38.0558981 18.6920402,38.0078991 C18.980043,37.9599 19.2680459,37.9319006 19.5560488,37.8999012 L21.2120655,37.6999053 C21.2720661,37.6919054 21.3320667,37.6519062 21.3960674,37.5599081 L20.9040624,37.3519123 C20.7160605,37.2799137 20.5200585,37.2319147 20.3360567,37.1359166 C20.1796666,37.0470798 20.0346094,36.9396333 19.9040523,36.8159231 C19.872052,36.7839237 19.8480518,36.6439266 19.8640519,36.6159271 C19.9840531,36.4559304 20.1000543,36.2199351 20.2400557,36.1919357 C20.6920603,36.0919377 21.1520649,36.0479386 21.6080695,36.0239391 C21.9680731,36.0079394 22.3360768,36.0439387 22.7000805,36.0719381 C23.348087,36.1159372 23.9960935,36.1799359 24.6441,36.2199351 C25.2201058,36.2559344 25.7961116,36.2599343 26.3761174,36.2999335 C26.6881206,36.323933 27.0001237,36.3999315 27.3161269,36.4199311 C27.9641334,36.4599303 28.6121399,36.4839298 29.2641465,36.5199291 L30.6841608,36.5999274 C30.9761637,36.6159271 31.2681666,36.6079273 31.5641696,36.6359267 C32.2361764,36.6999254 32.9121832,36.7479245 33.5801899,36.8599222 C34.1641958,36.9559203 34.7402016,37.1239169 35.3242074,37.2639141 C35.7482117,37.3719119 36.176216,37.4719099 36.6042203,37.5999073 C37.264227,37.7999033 37.9402338,37.9599 38.5842402,38.2398944 C39.4082485,38.5958872 40.256257,38.7238846 41.1042656,38.8638818 C41.7522721,38.9718796 42.3962786,39.0478781 43.0442851,39.1438762 C43.4682894,39.2118748 43.8922936,39.3398722 44.3202979,39.351872 C44.8483032,39.3678717 45.3803086,39.2918732 45.9123139,39.2638738 C46.1243161,39.2478741 46.3363182,39.2638738 46.5483203,39.2398742 C46.9763246,39.1958751 47.4043289,39.1398763 47.8283332,39.0678777 C47.908334,39.051878 47.9923349,38.9438802 48.0323353,38.8478821 C48.1403363,38.5838875 48.2283372,38.3038931 48.3243382,38.0318986 C48.4203392,37.7519042 48.5323403,37.4719099 48.6163411,37.1919155 C48.6963419,36.9239209 48.7483425,36.6439266 48.8283433,36.375932 C48.8603436,36.2639342 48.9363444,36.175936 48.9763448,36.0639383 C49.0683457,35.7999436 49.1083461,35.47995 49.2483475,35.2719542 C49.5283503,34.8439628 49.6123512,34.2119756 50.0363554,33.9319812 C50.1518465,33.8552966 50.2544537,33.7607928 50.3403585,33.6519869 C50.396359,33.5799883 50.4083592,33.4519909 50.4443595,33.3599927 L50.5963611,33 C50.6723618,33.0839983 50.8123632,33.1719965 50.8123632,33.2559948 C50.8083632,33.695986 51.0803659,33.791984 51.2643678,34.0159795 C51.5043702,34.3039737 51.7603728,34.5999678 51.9283745,34.9599605 C52.184377,35.4999496 52.3923791,36.0799379 52.580381,36.671926 C52.7163824,37.1039173 52.7683829,37.5799077 52.8923841,38.0238988 C52.9963852,38.4158909 53.1203864,38.8118829 53.2883881,39.1598759 C53.3563888,39.303873 53.5603909,39.351872 53.7083924,39.4038709 C54.4443998,39.6678656 55.1964073,39.7118647 55.9484149,39.7038649 C56.8404239,39.699865 57.7324328,39.7278644 58.6164417,39.6558659 C59.5564512,39.5758675 60.4964606,39.4238705 61.42847,39.2358743 C62.0364761,39.1158767 62.6284821,38.8678817 63.2284881,38.6798855 C63.6084919,38.5598879 63.9884958,38.4638899 64.3644995,38.3438923 C64.7245032,38.2238947 65.0845068,38.1198968 65.4365103,37.9639 C66.4365204,37.515909 67.4485306,37.4719099 68.4805409,37.7679039 C68.9205454,37.8959013 69.3725499,37.9239008 69.8205544,37.9958993 C70.4205604,38.0878975 71.0165664,38.1958953 71.6165725,38.2678938 C71.9485758,38.3038931 72.2885792,38.3038931 72.6205826,38.2518942 C73.1805882,38.1678958 73.7405938,38.0278987 74.2965994,37.9159009 C74.5606021,37.8599021 74.8286048,37.7759037 75.0966075,37.763904 C75.7806144,37.7319046 76.4686213,37.6999053 77.1526282,37.7239048 C77.8406351,37.7519042 78.528642,37.8279027 79.2166489,37.9199008 C79.716654,37.9878995 80.2126589,38.111897 80.7046639,38.2238947 C80.8416019,38.2572055 80.9706963,38.3169948 81.0846677,38.3998912 C81.1406683,38.4398904 81.1966688,38.5718877 81.1846687,38.6438863 C81.1699116,38.7429504 81.1185253,38.8328736 81.0406673,38.8958812 C80.8286651,39.0358784 80.6006628,39.1478761 80.3846607,39.2718736 L80.1566584,39.4158707 C80.412661,39.5238685 80.612663,39.6398662 80.8246651,39.6958651 C81.5046719,39.8678616 82.1926789,39.9878592 82.8686857,40.1798553 C83.4086911,40.3398521 83.9366964,40.5598476 84.4687017,40.7798432 C84.6207033,40.8438419 84.8207053,40.9478398 84.7487046,41.2558336 C84.711231,41.386763 84.6377814,41.504556 84.5367024,41.5958268 C84.2566996,41.8598214 83.9086961,41.831822 83.5886929,41.9158203 C82.9846868,42.0878168 82.3766807,41.9838189 81.7686746,41.9598194 L81.6726736,41.9638193 C81.6606735,41.9638193 81.6526734,41.9758191 81.608673,41.9998186 L81.7726746,42.0878168 C82.1126781,42.2358139 82.4526815,42.3958106 82.7966849,42.527808 C83.0526875,42.6198061 83.3206902,42.6638052 83.5806928,42.7478035 C83.8806958,42.8478015 84.1806989,42.975799 84.4807019,43.0797969 C84.8407055,43.1997944 85.2007091,43.2917926 85.5567127,43.4397896 C85.8967161,43.5797868 86.2647198,43.6637851 86.5287225,44.0237778 C86.6407236,44.1757748 86.7687249,44.3437714 86.6567238,44.5917664 C86.5607228,44.807762 86.4367215,44.9117599 86.2287195,44.9037601 C85.8927161,44.8957603 85.5527127,44.955759 85.2167093,44.9677588 C85.0527076,44.9717587 84.8847059,44.9197598 84.7207043,44.90776 C84.3727008,44.8797606 84.0246973,44.8677608 83.6806938,44.8397614 C83.5326923,44.8277616 83.3846908,44.7957623 83.2086891,44.8237617 L83.7406944,45.3157518 L85.092708,46.5277274 C85.188709,46.6077258 85.3047102,46.6517249 85.4087112,46.7277233 C85.6407135,46.89172 85.8767159,47.0477169 86.0927181,47.2477129 C86.1727189,47.3197114 86.2327195,47.4957079 86.2327195,47.6277052 C86.2327195,47.8197013 86.1127183,47.8837 85.9727169,47.8837 C85.5967131,47.8837 85.2047092,47.9716983 84.8407055,47.8837 C84.1806989,47.7237033 83.5326923,47.4677084 82.8806858,47.239713 C82.5806828,47.1317152 82.2846798,46.991718 81.9846768,46.8797203 C81.9286762,46.8557208 81.8646756,46.8717204 81.7446743,46.8717204 C81.9526764,47.1077157 82.1246782,47.2997118 82.30468,47.4917079 C82.6966839,47.9196993 83.0886879,48.3516906 83.4886919,48.7716821 C83.7406944,49.027677 84.000697,49.2636722 84.2646997,49.5036674 C84.3887009,49.6196651 84.3767008,49.9836577 84.2246993,50.0756559 C83.8766958,50.2716519 83.5166922,50.4276488 83.1326883,50.3436505 C82.8486855,50.2836517 82.5646826,50.2396526 82.3126801,50.0076572 C82.1446784,49.8516604 81.9766767,49.9076592 81.8366753,50.1276548 C81.7300101,50.2993079 81.6067511,50.4600757 81.4686716,50.6076451 C81.3966708,50.6876435 81.2926698,50.7516422 81.2006689,50.7476423 C80.9686665,50.7476423 80.7326642,50.6676439 80.5006618,50.6756438 C80.1926587,50.6876435 79.8886557,50.7476423 79.5806526,50.7956414 C79.5406522,50.7996413 79.5006518,50.8676399 79.4606514,50.9076391 C79.2326491,51.1556341 78.9886466,51.3356305 78.6806435,51.3316306 C78.432641,51.3276306 78.1886386,51.3716297 77.9406361,51.3916293 C77.8726354,51.3956293 77.7886346,51.4036291 77.7406341,51.3556301 C77.5646323,51.1836335 77.4606313,51.3156309 77.3126298,51.4556281 C77.1242643,51.6375029 76.8952717,51.7718777 76.6446231,51.8476202 C76.2166187,51.9676177 75.7766143,51.9996171 75.34861,52.0956152 C75.2075614,52.137395 75.0795162,52.2144951 74.9766063,52.3196106 C74.7206037,52.5596058 74.4366008,52.6036049 74.1365978,52.6316044 C73.8193199,52.6601836 73.5065026,52.7259672 73.2045885,52.8276004 C72.8365847,52.9515979 72.4805812,53.147594 72.1165775,53.295591 C71.8605749,53.3995889 71.5765721,53.4115886 71.3525698,53.5795852 C70.9845661,53.8595796 70.6005623,53.8795792 70.2045583,53.8995788 C70.044195,53.9125848 69.8885879,53.9603574 69.7485537,54.039576 C69.2405486,54.3075706 68.7085432,54.3275702 68.1765379,54.3595695 C68.0055338,54.3883916 67.8476415,54.4694312 67.7245333,54.5915649 C67.3600744,54.9117359 66.8710552,55.0512417 66.3925199,54.9715572 C66.2605186,54.9595574 66.1205172,55.0235561 65.9845158,55.0715552 C65.7605136,55.1515536 65.5445114,55.2835509 65.3245092,55.3235501 C64.8086075,55.416333 64.2896184,55.4910438 63.7684935,55.5475456 C63.5604914,55.5715451 63.3404892,55.5155462 63.1364872,55.5595453 C62.7695438,55.6360997 62.4086029,55.7390316 62.0564763,55.8675391 C61.6724725,56.0075363 61.3204689,55.9195381 61.0084658,55.6475436 C60.7444631,55.4115483 60.4964606,55.5035465 60.2404581,55.5795449 C59.9080868,55.663136 59.5563723,55.6173859 59.2564482,55.4515475 C59.0174279,55.3583953 58.7585108,55.3280974 58.5044406,55.3635493 C58.1164367,55.3915487 57.7324328,55.4635473 57.356429,55.2515516 C57.2924284,55.2195522 57.2244277,55.2235521 57.156427,55.1915528 C57.0764262,55.1515536 57.0004255,55.0835549 56.9164246,55.0555555 C56.8204237,55.0235561 56.6964224,54.9715572 56.6124216,55.0195562 C56.2524179,55.231552 55.8924143,55.1995526 55.5244106,55.1075545 C55.3124085,55.0555555 55.1084064,54.9195582 54.9004043,54.8275601 C54.7884032,54.7795611 54.6724021,54.7275621 54.5524008,54.7075625 C54.4443998,54.683563 54.3883992,54.7715612 54.4523998,54.9075585 C54.7004023,55.4395478 54.964405,55.9635372 55.2124075,56.4995264 C55.4004094,56.8995183 55.560411,57.3275097 55.756413,57.7235017 C56.1804172,58.5834844 56.6244217,59.4194676 57.0484259,60.2834501 C57.2804283,60.7554406 57.4804303,61.2634304 57.7044325,61.7514206 C57.8604341,62.0874138 58.0564361,62.3954076 58.1844374,62.7514004 C58.3800896,63.2056119 58.362484,63.7234954 58.1364369,64.1633719 C58.0365769,64.3791356 57.8855331,64.5672481 57.6964325,64.7113609 C57.5764313,64.7913593 57.4964305,65.003355 57.4364299,65.1793515 C57.3297757,65.5440163 57.1166729,65.8685356 56.8244237,66.1113327 C56.7164226,66.1873312 56.6044215,66.2513299 56.4924204,66.3193285 C56.1771328,66.5265068 55.9075969,66.7960345 55.7004124,67.1113125 C55.6164115,67.23531 55.4724101,67.2993087 55.3524089,67.3713073 C55.0582009,67.5396245 54.7608105,67.7023174 54.4603999,67.8592975 C54.3123984,67.9392958 54.1643969,68.0432938 54.0123954,68.0592934 C53.5963912,68.0992926 53.2243875,68.2912888 52.8403836,68.4832849 C52.5666071,68.6200955 52.2620035,68.6834952 51.9563747,68.6672812 C51.590963,68.6249576 51.2211461,68.6902992 50.892364,68.8552774 C50.5437832,69.0551828 50.1135739,69.0475007 49.7723528,68.8352778 C49.349673,68.5679546 48.8502581,68.44838 48.3523385,68.4952846 C48.0511164,68.5356896 47.7459192,68.458318 47.5003299,68.279289 C47.3403283,68.1752911 47.1603265,68.0232942 47.008325,68.0592934 C46.7723226,68.1112924 46.5803207,68.0032946 46.3803186,67.9272961 C46.2883177,67.8912968 46.212317,67.7912988 46.1243161,67.7392999 C45.8723135,67.5793031 45.6083109,67.4473058 45.3643084,67.2833091 C45.0789409,67.0937184 44.8026338,66.8908324 44.5363001,66.6753213 C44.4562993,66.6113226 44.4162989,66.4633256 44.3482982,66.3753274 C44.2482972,66.24333 44.1482962,66.0753334 44.0242949,66.0233345 C43.6026664,65.8623615 43.2743753,65.522356 43.1282859,65.0953532 C43.0437602,64.9002973 42.9049036,64.7336744 42.7282819,64.6153628 C42.6042807,64.5273646 42.5162798,64.4393664 42.4882795,64.2553701 C42.4162788,63.8673779 42.340278,63.4753858 42.4842795,63.0833937 C42.5002796,63.0353947 42.5202798,62.9793958 42.5522801,62.9473965 C42.9602842,62.5474045 43.0802855,61.8994176 43.3282879,61.3594285 L43.7882926,60.3474489 C44.0442952,59.7674605 44.2842976,59.1714726 44.5523003,58.603484 C44.8843036,57.9114979 45.2403072,57.2355116 45.5803106,56.5515254 C45.9003138,55.9115382 46.212317,55.2635513 46.5283201,54.6195643 L46.5363202,54.5875649 L46.6323212,54.2995707 C46.5283201,54.2915709 46.4323192,54.2795711 46.3283181,54.2795711 C46.2443173,54.2795711 46.1563164,54.2915709 46.0723155,54.2995707 C46.020315,54.2995707 45.9683145,54.2835711 45.9243141,54.3035707 C45.1643064,54.6755632 44.3642984,54.6235642 43.5842905,54.731562 C43.3682884,54.7635614 43.1442861,54.731562 42.9282839,54.7715612 C42.6762814,54.8115604 42.4242789,54.8915588 42.1722763,54.9555575 C42.0122747,54.9955567 41.8522731,55.0155563 41.6922715,55.0715552 C41.3882684,55.1715532 41.0962655,55.1035545 40.8002625,54.9995566 C40.6326333,54.9425531 40.4572698,54.9115282 40.2802573,54.9075585 C39.7922524,54.8915588 39.3002474,54.8955587 38.8122425,54.883559 C38.7297797,54.8801369 38.6491338,54.8582675 38.5762402,54.8195603 C38.264237,54.6555636 37.9762341,54.8995586 37.6762311,54.9195582 C37.4042284,54.9355579 37.1282256,54.8715592 36.8522228,54.8435598 C36.6819343,54.8257437 36.511207,54.812406 36.3402177,54.8035606 C36.0922152,54.7955607 35.8402126,54.8035606 35.5922101,54.783561 C35.4042082,54.7675613 35.2202064,54.7155624 35.0322045,54.683563 C34.7122013,54.6275641 34.3921981,54.6035646 34.0801949,54.5115665 C33.8561927,54.4475678 33.6481906,54.287571 33.4321884,54.1915729 C33.3001871,54.1315741 33.1481856,54.0435759 33.0241843,54.0835751 C32.6361804,54.2115725 32.3401774,53.9995768 32.0241743,53.739582 C31.7343979,53.4984213 31.4176083,53.2917089 31.0801648,53.1235944 C30.8281622,53.0035969 30.5481594,52.9715975 30.2801567,52.9235985 C29.9041529,52.8555998 29.6081499,52.5836053 29.3641475,52.2316124 C29.2041459,51.9916173 29.0281441,51.9636178 28.8361422,52.0196167 C28.4881387,52.1156148 28.1721355,51.9796175 27.8801326,51.7876214 C27.5470155,51.5612408 27.154842,51.4374735 26.7521212,51.4316285 C26.4481182,51.4316285 26.2161158,51.2316326 26.0281139,50.9396385 C25.9124894,50.7330624 25.6829184,50.6174887 25.4481081,50.6476443 C24.8194144,50.7260473 24.1985196,50.452493 23.8320919,49.9356587 C23.5560891,49.5636662 23.2960865,49.623665 23.0000835,49.6756639 C22.5280787,49.7556623 22.0800742,49.7836617 21.66007,49.3556704 C21.3320667,49.0116773 20.9200626,49.1196751 20.5280586,49.1156752 C20.2200555,49.1076754 19.9080524,49.027677 19.6040493,48.9516785 C19.4040473,48.8996796 19.2280455,48.7876818 19.1640449,48.4836879 C19.1560448,48.4396888 19.0680439,48.4076895 19.0160434,48.3956897 C18.5080383,48.2596925 18.0120333,48.4236892 17.5160283,48.5236871 C17.1934526,48.5921661 16.8569381,48.5225445 16.588019,48.331691 C16.3840169,48.1956938 16.3480166,47.8597005 16.5400185,47.6757042 C16.9720229,47.2517128 17.4200274,46.8357212 17.8680319,46.4397291 C18.2080353,46.1357353 18.5600388,45.8637407 18.9080423,45.5757466 L18.9080423,45.5157478 L18.9080423,45.5197477 Z" id="Path"></path>
                </g>
            </g>
        </g>
    </g>
</svg>