<?xml version="1.0" encoding="UTF-8"?>
<!--Generator: Apple Native CoreSVG 341-->
<!DOCTYPE svg
PUBLIC "-//W3C//DTD SVG 1.1//EN"
       "http://www.w3.org/Graphics/SVG/1.1/DTD/svg11.dtd">
<svg version="1.1" xmlns="http://www.w3.org/2000/svg" xmlns:xlink="http://www.w3.org/1999/xlink" viewBox="0 0 3300 2200">
 <!--glyph: "", point size: 100.0, font version: "20.0d10e1", template writer version: "138.0.0"-->
 <style>.monochrome-0 {-sfsymbols-motion-group:1;-sfsymbols-layer-tags:b5d04338c7c4a94}
.monochrome-1 {-sfsymbols-motion-group:0;-sfsymbols-layer-tags:b5d04338c7c4a94}

.multicolor-0:tintColor {-sfsymbols-motion-group:1;-sfsymbols-layer-tags:b5d04338c7c4a94}
.multicolor-1:tintColor {-sfsymbols-motion-group:0;-sfsymbols-layer-tags:b5d04338c7c4a94}

.hierarchical-0:primary {-sfsymbols-motion-group:1;-sfsymbols-layer-tags:b5d04338c7c4a94}
.hierarchical-1:tertiary {-sfsymbols-motion-group:0;-sfsymbols-layer-tags:b5d04338c7c4a94}

.SFSymbolsPreviewWireframe {fill:none;opacity:1.0;stroke:black;stroke-width:0.5}
</style>
 <g id="Notes">
  <rect height="2200" id="artboard" style="fill:white;opacity:1" width="3300" x="0" y="0"/>
  <line style="fill:none;stroke:black;opacity:1;stroke-width:0.5;" x1="263" x2="3036" y1="292" y2="292"/>
  <text style="stroke:none;fill:black;font-family:sans-serif;font-size:13;font-weight:bold;" transform="matrix(1 0 0 1 263 322)">Weight/Scale Variations</text>
  <text style="stroke:none;fill:black;font-family:sans-serif;font-size:13;text-anchor:middle;" transform="matrix(1 0 0 1 559.711 322)">Ultralight</text>
  <text style="stroke:none;fill:black;font-family:sans-serif;font-size:13;text-anchor:middle;" transform="matrix(1 0 0 1 856.422 322)">Thin</text>
  <text style="stroke:none;fill:black;font-family:sans-serif;font-size:13;text-anchor:middle;" transform="matrix(1 0 0 1 1153.13 322)">Light</text>
  <text style="stroke:none;fill:black;font-family:sans-serif;font-size:13;text-anchor:middle;" transform="matrix(1 0 0 1 1449.84 322)">Regular</text>
  <text style="stroke:none;fill:black;font-family:sans-serif;font-size:13;text-anchor:middle;" transform="matrix(1 0 0 1 1746.56 322)">Medium</text>
  <text style="stroke:none;fill:black;font-family:sans-serif;font-size:13;text-anchor:middle;" transform="matrix(1 0 0 1 2043.27 322)">Semibold</text>
  <text style="stroke:none;fill:black;font-family:sans-serif;font-size:13;text-anchor:middle;" transform="matrix(1 0 0 1 2339.98 322)">Bold</text>
  <text style="stroke:none;fill:black;font-family:sans-serif;font-size:13;text-anchor:middle;" transform="matrix(1 0 0 1 2636.69 322)">Heavy</text>
  <text style="stroke:none;fill:black;font-family:sans-serif;font-size:13;text-anchor:middle;" transform="matrix(1 0 0 1 2933.4 322)">Black</text>
  <line style="fill:none;stroke:black;opacity:1;stroke-width:0.5;" x1="263" x2="3036" y1="1903" y2="1903"/>
  <g transform="matrix(0.2 0 0 0.2 263 1933)">
   <path d="m46.2402 4.15039c21.7773 0 39.4531-17.627 39.4531-39.4043s-17.6758-39.4043-39.4531-39.4043c-21.7285 0-39.4043 17.627-39.4043 39.4043s17.6758 39.4043 39.4043 39.4043Zm0-7.42188c-17.6758 0-31.9336-14.3066-31.9336-31.9824s14.2578-31.9824 31.9336-31.9824 31.9824 14.3066 31.9824 31.9824-14.3066 31.9824-31.9824 31.9824Zm-17.9688-31.9824c0 2.14844 1.51367 3.61328 3.75977 3.61328h10.498v10.5957c0 2.19727 1.46484 3.71094 3.61328 3.71094 2.24609 0 3.71094-1.51367 3.71094-3.71094v-10.5957h10.5957c2.19727 0 3.71094-1.46484 3.71094-3.61328 0-2.19727-1.51367-3.71094-3.71094-3.71094h-10.5957v-10.5469c0-2.24609-1.46484-3.75977-3.71094-3.75977-2.14844 0-3.61328 1.51367-3.61328 3.75977v10.5469h-10.498c-2.24609 0-3.75977 1.51367-3.75977 3.71094Z"/>
  </g>
  <g transform="matrix(0.2 0 0 0.2 281.506 1933)">
   <path d="m58.5449 14.5508c27.4902 0 49.8047-22.3145 49.8047-49.8047s-22.3145-49.8047-49.8047-49.8047-49.8047 22.3145-49.8047 49.8047 22.3145 49.8047 49.8047 49.8047Zm0-8.30078c-22.9492 0-41.5039-18.5547-41.5039-41.5039s18.5547-41.5039 41.5039-41.5039 41.5039 18.5547 41.5039 41.5039-18.5547 41.5039-41.5039 41.5039Zm-22.6562-41.5039c0 2.39258 1.66016 4.00391 4.15039 4.00391h14.3555v14.4043c0 2.44141 1.66016 4.15039 4.05273 4.15039 2.44141 0 4.15039-1.66016 4.15039-4.15039v-14.4043h14.4043c2.44141 0 4.15039-1.61133 4.15039-4.00391 0-2.44141-1.70898-4.15039-4.15039-4.15039h-14.4043v-14.3555c0-2.49023-1.70898-4.19922-4.15039-4.19922-2.39258 0-4.05273 1.70898-4.05273 4.19922v14.3555h-14.3555c-2.49023 0-4.15039 1.70898-4.15039 4.15039Z"/>
  </g>
  <g transform="matrix(0.2 0 0 0.2 304.924 1933)">
   <path d="m74.8535 28.3203c35.1074 0 63.623-28.4668 63.623-63.5742s-28.5156-63.623-63.623-63.623-63.5742 28.5156-63.5742 63.623 28.4668 63.5742 63.5742 63.5742Zm0-9.08203c-30.127 0-54.4922-24.3652-54.4922-54.4922s24.3652-54.4922 54.4922-54.4922 54.4922 24.3652 54.4922 54.4922-24.3652 54.4922-54.4922 54.4922Zm-28.8574-54.4922c0 2.58789 1.85547 4.39453 4.58984 4.39453h19.7266v19.7754c0 2.68555 1.85547 4.58984 4.44336 4.58984 2.68555 0 4.54102-1.85547 4.54102-4.58984v-19.7754h19.7754c2.68555 0 4.58984-1.80664 4.58984-4.39453 0-2.73438-1.85547-4.58984-4.58984-4.58984h-19.7754v-19.7266c0-2.73438-1.85547-4.63867-4.54102-4.63867-2.58789 0-4.44336 1.9043-4.44336 4.63867v19.7266h-19.7266c-2.73438 0-4.58984 1.85547-4.58984 4.58984Z"/>
  </g>
  <text style="stroke:none;fill:black;font-family:sans-serif;font-size:13;font-weight:bold;" transform="matrix(1 0 0 1 263 1953)">Design Variations</text>
  <text style="stroke:none;fill:black;font-family:sans-serif;font-size:13;" transform="matrix(1 0 0 1 263 1971)">Symbols are supported in up to nine weights and three scales.</text>
  <text style="stroke:none;fill:black;font-family:sans-serif;font-size:13;" transform="matrix(1 0 0 1 263 1989)">For optimal layout with text and other symbols, vertically align</text>
  <text style="stroke:none;fill:black;font-family:sans-serif;font-size:13;" transform="matrix(1 0 0 1 263 2007)">symbols with the adjacent text.</text>
  <line style="fill:none;stroke:#00AEEF;stroke-width:0.5;opacity:1.0;" x1="776" x2="776" y1="1919" y2="1933"/>
  <g transform="matrix(0.2 0 0 0.2 776 1933)">
   <path d="m16.5527 0.78125c2.58789 0 3.85742-0.976562 4.78516-3.71094l6.29883-17.2363h28.8086l6.29883 17.2363c0.927734 2.73438 2.19727 3.71094 4.73633 3.71094 2.58789 0 4.24805-1.5625 4.24805-4.00391 0-0.830078-0.146484-1.61133-0.537109-2.63672l-22.9004-60.9863c-1.12305-2.97852-3.125-4.49219-6.25-4.49219-3.02734 0-5.07812 1.46484-6.15234 4.44336l-22.9004 61.084c-0.390625 1.02539-0.537109 1.80664-0.537109 2.63672 0 2.44141 1.5625 3.95508 4.10156 3.95508Zm13.4766-28.3691 11.8652-32.8613h0.244141l11.8652 32.8613Z"/>
  </g>
  <line style="fill:none;stroke:#00AEEF;stroke-width:0.5;opacity:1.0;" x1="792.836" x2="792.836" y1="1919" y2="1933"/>
  <text style="stroke:none;fill:black;font-family:sans-serif;font-size:13;font-weight:bold;" transform="matrix(1 0 0 1 776 1953)">Margins</text>
  <text style="stroke:none;fill:black;font-family:sans-serif;font-size:13;" transform="matrix(1 0 0 1 776 1971)">Leading and trailing margins on the left and right side of each symbol</text>
  <text style="stroke:none;fill:black;font-family:sans-serif;font-size:13;" transform="matrix(1 0 0 1 776 1989)">can be adjusted by modifying the x-location of the margin guidelines.</text>
  <text style="stroke:none;fill:black;font-family:sans-serif;font-size:13;" transform="matrix(1 0 0 1 776 2007)">Modifications are automatically applied proportionally to all</text>
  <text style="stroke:none;fill:black;font-family:sans-serif;font-size:13;" transform="matrix(1 0 0 1 776 2025)">scales and weights.</text>
  <g transform="matrix(0.2 0 0 0.2 1289 1933)">
   <path d="m14.209 9.32617 8.49609 8.54492c4.29688 4.3457 9.22852 4.05273 13.8672-1.07422l53.4668-58.9355-4.83398-4.88281-53.0762 58.3984c-1.75781 2.00195-3.41797 2.49023-5.76172 0.146484l-5.85938-5.81055c-2.34375-2.29492-1.80664-4.00391 0.195312-5.81055l57.373-54.0039-4.88281-4.83398-57.959 54.4434c-4.93164 4.58984-5.32227 9.47266-1.02539 13.8184Zm32.0801-90.9668c-2.09961 2.05078-2.24609 4.93164-1.07422 6.88477 1.17188 1.80664 3.4668 2.97852 6.68945 2.14844 7.32422-1.70898 14.9414-2.00195 22.0703 2.68555l-2.92969 7.27539c-1.70898 4.15039-0.830078 7.08008 1.85547 9.81445l11.4746 11.5723c2.44141 2.44141 4.49219 2.53906 7.32422 2.05078l5.32227-0.976562 3.32031 3.36914-0.195312 2.7832c-0.195312 2.49023 0.439453 4.39453 2.88086 6.78711l3.80859 3.71094c2.39258 2.39258 5.46875 2.53906 7.8125 0.195312l14.5508-14.5996c2.34375-2.34375 2.24609-5.32227-0.146484-7.71484l-3.85742-3.80859c-2.39258-2.39258-4.24805-3.17383-6.64062-2.97852l-2.88086 0.244141-3.22266-3.17383 1.2207-5.61523c0.634766-2.83203-0.146484-5.0293-3.07617-7.95898l-10.9863-10.9375c-16.6992-16.6016-38.8672-16.2109-53.3203-1.75781Zm7.4707 1.85547c12.1582-8.88672 28.6133-7.37305 39.7461 3.75977l12.1582 12.0605c1.17188 1.17188 1.36719 2.09961 1.02539 3.80859l-1.61133 7.42188 7.51953 7.42188 4.93164-0.292969c1.26953-0.0488281 1.66016 0.0488281 2.63672 1.02539l2.88086 2.88086-12.207 12.207-2.88086-2.88086c-0.976562-0.976562-1.12305-1.36719-1.07422-2.68555l0.341797-4.88281-7.4707-7.42188-7.61719 1.26953c-1.61133 0.341797-2.34375 0.195312-3.56445-0.976562l-10.0098-10.0098c-1.26953-1.17188-1.41602-2.00195-0.634766-3.85742l4.39453-10.4492c-7.8125-7.27539-17.9688-10.4004-28.125-7.42188-0.78125 0.195312-1.07422-0.439453-0.439453-0.976562Z"/>
  </g>
  <text style="stroke:none;fill:black;font-family:sans-serif;font-size:13;font-weight:bold;" transform="matrix(1 0 0 1 1289 1953)">Exporting</text>
  <text style="stroke:none;fill:black;font-family:sans-serif;font-size:13;" transform="matrix(1 0 0 1 1289 1971)">Symbols should be outlined when exporting to ensure the</text>
  <text style="stroke:none;fill:black;font-family:sans-serif;font-size:13;" transform="matrix(1 0 0 1 1289 1989)">design is preserved when submitting to Xcode.</text>
  <text id="template-version" style="stroke:none;fill:black;font-family:sans-serif;font-size:13;text-anchor:end;" transform="matrix(1 0 0 1 3036 1933)">Template v.6.0</text>
  <text style="stroke:none;fill:black;font-family:sans-serif;font-size:13;text-anchor:end;" transform="matrix(1 0 0 1 3036 1951)">Requires Xcode 16 or greater</text>
  <text id="descriptive-name" style="stroke:none;fill:black;font-family:sans-serif;font-size:13;text-anchor:end;" transform="matrix(1 0 0 1 3036 1969)">Generated from filtervogelgruppe-5</text>
  <text style="stroke:none;fill:black;font-family:sans-serif;font-size:13;text-anchor:end;" transform="matrix(1 0 0 1 3036 1987)">Typeset at 100.0 points</text>
  <text style="stroke:none;fill:black;font-family:sans-serif;font-size:13;" transform="matrix(1 0 0 1 263 726)">Small</text>
  <text style="stroke:none;fill:black;font-family:sans-serif;font-size:13;" transform="matrix(1 0 0 1 263 1156)">Medium</text>
  <text style="stroke:none;fill:black;font-family:sans-serif;font-size:13;" transform="matrix(1 0 0 1 263 1586)">Large</text>
 </g>
 <g id="Guides">
  <g id="H-reference" style="fill:#27AAE1;stroke:none;" transform="matrix(1 0 0 1 339 696)">
   <path d="M0.993654 0L3.63775 0L29.3281-67.1323L30.0303-67.1323L30.0303-70.459L28.1226-70.459ZM11.6885-24.4799L46.9815-24.4799L46.2315-26.7285L12.4385-26.7285ZM55.1196 0L57.7637 0L30.6382-70.459L29.4326-70.459L29.4326-67.1323Z"/>
  </g>
  <line id="Baseline-S" style="fill:none;stroke:#27AAE1;opacity:1;stroke-width:0.5;" x1="263" x2="3036" y1="696" y2="696"/>
  <line id="Capline-S" style="fill:none;stroke:#27AAE1;opacity:1;stroke-width:0.5;" x1="263" x2="3036" y1="625.541" y2="625.541"/>
  <g id="H-reference" style="fill:#27AAE1;stroke:none;" transform="matrix(1 0 0 1 339 1126)">
   <path d="M0.993654 0L3.63775 0L29.3281-67.1323L30.0303-67.1323L30.0303-70.459L28.1226-70.459ZM11.6885-24.4799L46.9815-24.4799L46.2315-26.7285L12.4385-26.7285ZM55.1196 0L57.7637 0L30.6382-70.459L29.4326-70.459L29.4326-67.1323Z"/>
  </g>
  <line id="Baseline-M" style="fill:none;stroke:#27AAE1;opacity:1;stroke-width:0.5;" x1="263" x2="3036" y1="1126" y2="1126"/>
  <line id="Capline-M" style="fill:none;stroke:#27AAE1;opacity:1;stroke-width:0.5;" x1="263" x2="3036" y1="1055.54" y2="1055.54"/>
  <g id="H-reference" style="fill:#27AAE1;stroke:none;" transform="matrix(1 0 0 1 339 1556)">
   <path d="M0.993654 0L3.63775 0L29.3281-67.1323L30.0303-67.1323L30.0303-70.459L28.1226-70.459ZM11.6885-24.4799L46.9815-24.4799L46.2315-26.7285L12.4385-26.7285ZM55.1196 0L57.7637 0L30.6382-70.459L29.4326-70.459L29.4326-67.1323Z"/>
  </g>
  <line id="Baseline-L" style="fill:none;stroke:#27AAE1;opacity:1;stroke-width:0.5;" x1="263" x2="3036" y1="1556" y2="1556"/>
  <line id="Capline-L" style="fill:none;stroke:#27AAE1;opacity:1;stroke-width:0.5;" x1="263" x2="3036" y1="1485.54" y2="1485.54"/>
  <line id="right-margin-Black-S" style="fill:none;stroke:#00AEEF;stroke-width:0.5;opacity:1.0;" x1="2982.23" x2="2982.23" y1="600.785" y2="720.121"/>
  <line id="left-margin-Black-S" style="fill:none;stroke:#00AEEF;stroke-width:0.5;opacity:1.0;" x1="2884.57" x2="2884.57" y1="600.785" y2="720.121"/>
  <line id="right-margin-Regular-S" style="fill:none;stroke:#00AEEF;stroke-width:0.5;opacity:1.0;" x1="1496.11" x2="1496.11" y1="600.785" y2="720.121"/>
  <line id="left-margin-Regular-S" style="fill:none;stroke:#00AEEF;stroke-width:0.5;opacity:1.0;" x1="1403.58" x2="1403.58" y1="600.785" y2="720.121"/>
  <line id="right-margin-Ultralight-S" style="fill:none;stroke:#00AEEF;stroke-width:0.5;opacity:1.0;" x1="603.773" x2="603.773" y1="600.785" y2="720.121"/>
  <line id="left-margin-Ultralight-S" style="fill:none;stroke:#00AEEF;stroke-width:0.5;opacity:1.0;" x1="515.649" x2="515.649" y1="600.785" y2="720.121"/>
 </g>
 <g id="Symbols">
  <g id="Black-S" transform="matrix(1 0 0 1 2884.57 696)">
   <path class="monochrome-0 multicolor-0:tintColor hierarchical-0:primary SFSymbolsPreviewWireframe" d="M67.5685-45.963C67.7162-45.9436 67.8581-45.8938 67.9851-45.8167C68.1124-45.7396 68.222-45.6369 68.307-45.5154C68.3531-45.4465 68.3878-45.37 68.457-45.3123C68.5255-45.2684 68.6031-45.2396 68.6839-45.2284C68.6416-45.4504 68.5916-45.6607 68.2608-45.7831C68.1855-45.8148 68.1193-45.8648 68.0685-45.9285C68.0493-45.9515 68.0685-46.0127 68.107-46.0357C68.1378-46.051 68.2262-46.051 68.2685-46.0357C68.7878-45.8137 69.157-45.5307 69.2301-45.1096C69.2455-45.0369 69.3185-44.9565 69.4032-44.9069C69.557-44.8073 69.6224-44.7042 69.5647-44.5661C69.5608-44.5577 69.5582-44.5488 69.557-44.5396C69.507-43.9653 69.1608-43.8392 68.3647-43.6861C67.9031-43.5942 67.4262-43.5407 66.9493-43.4757C66.6839-43.4377 66.5147-43.3419 66.3993-43.185C66.0531-42.7142 65.6993-42.2434 65.3378-41.7769C65.157-41.5434 64.9493-41.3177 64.7647-41.088C64.6608-40.9542 64.5916-40.8088 64.4839-40.6746C64.1647-40.2807 63.857-39.8788 63.4916-39.4961C63.0108-38.9911 62.5954-38.4515 61.9608-38.0076C61.6762-37.8126 61.4531-37.5753 61.1993-37.3611C60.8378-37.055 60.3647-36.8407 59.8531-36.6607C59.4262-36.5115 58.9762-36.393 58.5454-36.24C58.3185-36.1634 58.1224-36.0446 57.9031-35.953C57.4916-35.7769 57.0647-35.6084 56.657-35.4323C56.5501-35.383 56.4547-35.3126 56.3762-35.2257C56.042-34.8376 55.8189-34.3669 55.7301-33.8634C55.6339-33.4696 55.4531-33.083 55.3839-32.6888C55.3331-32.3988 55.2247-32.1215 55.0647-31.8738C54.9185-31.6442 54.7262-31.4338 54.5647-31.2119C54.3877-30.9746 54.2108-30.7411 54.0531-30.4999C53.8185-30.1326 53.5801-29.7653 53.3762-29.3903C53.207-29.0842 53.0877-28.763 52.9531-28.4492C52.9151-28.3638 52.8977-28.2711 52.9024-28.178C52.9074-28.0849 52.9335-27.9946 52.9801-27.9134C53.1454-27.5996 53.2801-27.2746 53.4762-26.9723C53.6954-26.6315 53.9724-26.3099 54.2185-25.9772C54.5377-25.5561 54.8147-25.1199 55.0031-24.6607C55.2416-24.083 55.6339-23.5472 56.0762-23.023C56.2416-22.8319 56.3762-22.6253 56.5608-22.4415C56.6762-22.323 56.8416-22.2196 57.0108-22.1238C57.3454-21.9403 57.6878-21.7642 58.0378-21.588C58.307-21.458 58.5916-21.3357 58.8685-21.2057L59.8685-20.7465L61.0301-20.2261L62.6993-19.4645C63.0916-19.2922 63.507-19.1353 63.8993-18.9557C64.7147-18.5845 65.5224-18.2057 66.3339-17.8307C66.5916-17.7157 66.8685-17.6088 67.1224-17.4861C68.0185-17.0692 68.9224-16.6595 69.7993-16.2234C70.3493-15.948 70.8532-15.6342 71.3839-15.3434C71.7339-15.1445 72.0955-14.9569 72.4416-14.7542C72.8647-14.5092 73.2608-14.2526 73.6839-14.008C73.9493-13.8549 74.2493-13.7322 74.5224-13.5868C74.7878-13.4492 75.0416-13.2999 75.2955-13.1584C75.3839-13.1088 75.4609-13.0515 75.5493-13.0015C75.7916-12.8676 75.9262-12.6953 76.0724-12.5157C76.307-12.2288 76.3224-11.9453 76.2032-11.6507C76.0416-11.2376 75.3301-10.9161 74.7032-11.0195C74.1732-11.1092 73.6566-11.2634 73.1647-11.4788C72.5493-11.7465 71.9339-12.0218 71.3185-12.2822C71.1378-12.3588 70.9339-12.4122 70.7416-12.4811C70.0762-12.7261 69.4839-13.0361 68.8801-13.3384C68.6951-13.4307 68.5155-13.5326 68.3416-13.6445C68.0185-13.8549 67.6031-13.9695 67.2224-14.1188C66.8147-14.2834 66.4147-14.4518 66.0147-14.6242C65.0608-15.0334 64.1031-15.4353 63.1608-15.8522C62.6608-16.0742 62.1916-16.3192 61.7031-16.5488C61.4531-16.6672 61.1954-16.7784 60.9493-16.893C60.2108-17.2453 59.4954-17.6126 58.7378-17.9415C57.9954-18.263 57.1993-18.5307 56.4454-18.8445C55.9954-19.0284 55.5877-19.2503 55.157-19.4569C54.8493-19.5984 54.5377-19.7361 54.2339-19.8815C53.6647-20.1611 53.1108-20.4557 52.5301-20.7311C52.1339-20.9146 51.707-21.0638 51.2954-21.2284L49.9874-21.7642C49.6874-21.8903 49.3912-22.0169 49.0874-22.1353C48.6835-22.2884 48.2643-22.4299 47.8681-22.5946C47.1066-22.9084 46.345-23.2222 45.6066-23.5626C44.9727-23.8357 44.3831-24.2007 43.8566-24.6457C43.7104-24.7757 43.5335-24.8903 43.3566-25.0053C43.3104-25.0357 43.2143-25.0665 43.1643-25.0549C43.1143-25.0434 43.0758-24.9746 43.072-24.9326C43.072-24.5115 43.0412-24.0907 43.0797-23.6776C43.1297-23.1722 43.2335-22.6672 43.322-22.1622C43.3873-21.7565 43.4758-21.3549 43.5258-20.9453C43.5331-20.8195 43.49-20.6957 43.4066-20.6011C43.2297-20.3869 42.9797-20.3792 42.6873-20.5284C42.4297-20.6661 42.3643-20.8688 42.2027-21.0372C41.9027-21.3472 41.6104-21.6611 41.3027-21.9669C40.9297-22.3457 40.5412-22.713 40.1604-23.088C39.7873-23.4519 39.4027-23.8153 39.0527-24.1865C38.695-24.5692 38.3796-24.9669 38.0373-25.3534C37.7413-25.6826 37.4259-26.0038 37.1259-26.333C36.9759-26.4976 36.8413-26.6661 36.6951-26.8303C36.3874-27.1826 36.0682-27.5269 35.772-27.8788C35.4259-28.2999 35.1105-28.7207 34.772-29.1419C34.522-29.4442 34.2528-29.7388 33.9951-30.0373C33.9143-30.1326 33.849-30.2361 33.7682-30.3319C33.522-30.638 33.2836-30.9403 33.0297-31.2388C32.7491-31.5657 32.4619-31.8873 32.1681-32.203C31.7797-32.6199 31.3451-33.0219 30.9912-33.4503C30.5412-33.9938 30.0566-34.5296 29.7912-35.1338C29.6874-35.3634 29.522-35.5819 29.3874-35.8073L28.8604-36.6492C28.8028-36.7411 28.7335-36.8292 28.6835-36.925C28.4451-37.3496 28.2143-37.778 27.9796-38.2026C27.9335-38.2907 27.8758-38.3711 27.8373-38.4592C27.6984-38.7769 27.5625-39.0957 27.4296-39.4157C27.3412-39.6261 27.2566-39.8369 27.1835-40.0473C27.0681-40.3688 26.9373-40.6938 26.8758-41.0192C26.7839-41.5323 26.7159-42.0496 26.6719-42.5688C26.6527-42.7907 26.7027-43.0127 26.7104-43.2346L26.7373-44.6277L26.7373-44.8838C26.7489-45.0638 26.7489-45.2473 26.7796-45.4273C26.8066-45.5727 26.8719-45.7181 26.9142-45.8635C26.9351-45.9264 26.953-45.9903 26.9681-46.0548C27.0104-46.2614 27.0335-46.468 27.0989-46.667C27.1989-47.0038 27.3258-47.3367 27.445-47.6734C27.6104-48.1517 27.7604-48.6377 27.9527-49.1122C28.0758-49.4145 28.2874-49.6976 28.4258-49.9961C28.5176-50.2051 28.5872-50.4232 28.6335-50.6466C28.672-50.8035 28.5489-50.9183 28.3528-51.0178C28.0329-51.1594 27.7452-51.3637 27.5066-51.6185C27.2066-51.9782 26.8835-52.3264 26.5719-52.6823C26.4342-52.8439 26.3249-53.0277 26.2489-53.2257C26.1642-53.4284 25.9758-53.6159 25.8142-53.8034C25.7835-53.8417 25.6642-53.857 25.5835-53.857C24.7866-53.8639 23.9906-53.9125 23.1988-54.0024C23.0642-54.0177 22.9219-54.0139 22.7873-54.0292C22.4411-54.0675 22.3257-54.2817 22.5334-54.4616C22.9719-54.8481 23.5219-55.1466 24.1873-55.3608C24.4069-55.4282 24.6184-55.5194 24.8181-55.6325C24.9412-55.7052 25.0489-55.8238 25.0642-55.9272C25.1142-56.3022 25.1219-56.681 25.145-57.056C25.1527-57.2926 25.2363-57.5205 25.3835-57.7065C25.7104-58.1198 26.1796-58.4488 26.6604-58.7741C26.9835-58.9884 27.3219-59.195 27.6835-59.3863C27.9527-59.5241 28.2681-59.6236 28.5681-59.7383C28.6258-59.7613 28.6912-59.7804 28.7451-59.8072C29.5566-60.1899 30.4758-60.4233 31.4258-60.5955C32.1804-60.7336 32.9399-60.8434 33.7028-60.9246C34.2451-60.9819 34.8066-60.9705 35.3605-60.9858C35.8066-60.9934 36.2528-61.0088 36.699-60.9934C37.2836-60.9781 37.8643-60.9437 38.445-60.9016C39.195-60.8442 39.9412-60.7677 40.6873-60.6988C40.7643-60.6911 40.8373-60.6758 40.9066-60.6605C41.522-60.4922 42.0797-60.2588 42.572-59.9603C42.645-59.9182 42.7181-59.8723 42.8027-59.834C43.2489-59.6427 43.6566-59.4131 44.0066-59.1453C44.3297-58.8965 44.6681-58.6554 44.972-58.3991C45.1566-58.246 45.2797-58.0623 45.4527-57.9016C46.0758-57.3353 46.5143-56.7001 46.9412-56.0649C47.3258-55.4833 47.672-54.8864 48.0297-54.2971C48.2604-53.9106 48.4874-53.5165 48.7143-53.1262L48.9374-52.7321C49.1143-52.4412 49.4874-52.2499 49.8143-52.0433C49.9835-51.9285 50.1643-51.829 50.3104-51.7027C50.695-51.3736 51.0839-51.0369 51.4416-50.6925C51.6762-50.4629 51.8608-50.2104 52.0685-49.9693C52.1801-49.843 52.2724-49.7053 52.4147-49.5943C52.6531-49.3953 52.6916-49.1466 52.8377-48.9285C52.9724-48.7295 53.1147-48.5344 53.2185-48.3315C53.3085-48.1544 53.3754-47.9667 53.4185-47.7729C53.507-47.3902 53.7108-47.0382 53.907-46.6785C53.9801-46.5408 54.0916-46.403 54.0993-46.2614C54.1262-45.8405 54.407-45.4846 54.6916-45.125C54.8839-44.8877 55.0877-44.6465 55.2954-44.4134C55.6954-43.9503 55.9224-43.4488 56.1031-42.9361C56.207-42.6453 56.2685-42.3507 56.3647-42.0638C56.4339-41.8534 56.5762-41.6503 56.6108-41.44C56.7108-40.8584 56.7647-40.2769 56.6185-39.6915C56.5354-39.3823 56.5027-39.0619 56.5224-38.7423C56.5377-38.5511 56.6762-38.3519 56.8301-38.18C56.9839-38.0115 57.2378-38.0534 57.3454-38.2411C57.4335-38.3953 57.4712-38.5734 57.4531-38.75C57.4378-39.0665 57.4858-39.3827 57.5954-39.68C57.7658-40.1392 57.8316-40.6307 57.7878-41.1188C57.7647-41.3634 57.7878-41.6123 57.7724-41.8573C57.7404-42.3011 57.6954-42.7438 57.6378-43.185C57.6147-43.3496 57.5224-43.5065 57.4762-43.6707C57.4281-43.8538 57.3893-44.0388 57.3608-44.2257C57.3193-44.48 57.2835-44.7354 57.2531-44.9911C57.2208-45.3527 57.2789-45.7169 57.4224-46.051C57.507-46.2691 57.5685-46.4949 57.6454-46.713C57.6608-46.7665 57.6839-46.8277 57.7378-46.8622C58.1454-47.1147 58.5454-47.3711 59.0878-47.5089C59.3724-47.5777 59.6262-47.5854 59.8647-47.4515C60.0878-47.3214 60.3224-47.1951 60.5416-47.0612C60.6762-46.977 60.6608-46.8622 60.5954-46.7627C60.5339-46.6632 60.5301-46.5944 60.7031-46.5446C60.7531-46.5293 60.8108-46.491 60.8185-46.4566C60.8647-46.3165 60.9004-46.1732 60.9262-46.028C60.9339-45.9897 60.9108-45.9247 60.8647-45.9017C60.6954-45.8137 60.7301-45.7104 60.7762-45.6034C60.8339-45.4542 60.8031-45.3088 60.6993-45.1746C60.6724-45.1365 60.5916-45.0869 60.5647-45.0942C60.5035-45.1077 60.4493-45.1415 60.4108-45.19C60.3839-45.2323 60.3993-45.2896 60.3916-45.3392C60.3801-45.4157 60.3878-45.5 60.3531-45.5765C60.257-45.787 60.0224-45.8444 59.7224-45.7487C59.5031-45.676 59.2685-45.6186 59.0531-45.5457C58.8262-45.4692 58.607-45.3854 58.4031-45.2896C58.3416-45.2588 58.2878-45.163 58.3147-45.1211C58.357-45.0561 58.457-44.9796 58.557-44.9642C58.8785-44.908 59.2097-44.9346 59.5185-45.0407C59.6551-45.0934 59.797-45.1319 59.9416-45.1557C60.0316-45.16 60.1208-45.1384 60.1993-45.0942C60.2262-45.0792 60.1839-44.995 60.1493-44.9488C59.997-44.7792 59.7847-44.675 59.557-44.658C59.4031-44.6388 59.2416-44.62 59.0839-44.5892C58.9058-44.5511 58.7208-44.563 58.5493-44.6238C58.4801-44.6465 58.3801-44.6354 58.2916-44.6388C58.2878-44.5892 58.2647-44.5357 58.2762-44.4861C58.3301-44.1646 58.3801-43.843 58.4531-43.5253C58.5031-43.3073 58.5993-43.093 58.6454-42.875C58.6954-42.6111 58.7147-42.3507 58.7454-42.0907C58.7724-41.838 58.807-41.5892 58.8224-41.3369C58.8378-41.1223 58.8339-40.9042 58.8301-40.6861L58.8262-39.1938C58.8262-38.8877 58.8454-38.5892 59.0839-38.3138C59.2378-38.13 59.6224-38.0842 59.8993-38.1953C60.1301-38.2907 60.3878-38.3596 60.6339-38.4438C61.1001-38.6077 61.5254-38.87 61.8801-39.213C62.1493-39.4619 62.4031-39.7103 62.6685-39.9592C63.0378-40.3034 63.4378-40.6365 63.7762-40.9961C64.0878-41.3292 64.3339-41.6927 64.6147-42.0407C64.7801-42.2434 64.9685-42.4427 65.1224-42.653C65.3262-42.9323 65.5185-43.2192 65.6993-43.5065C65.7205-43.5438 65.7343-43.585 65.7397-43.6277C65.7451-43.6703 65.7416-43.7138 65.7301-43.755C65.6608-44.0115 65.5378-44.2565 65.4993-44.5127C65.4416-44.8457 65.4224-45.19 65.8531-45.4504C65.9185-45.4884 65.9993-45.523 66.0801-45.5534C66.1955-45.5996 66.3262-45.6377 66.4339-45.6913C66.6597-45.7964 66.9139-45.8234 67.157-45.7678C67.2224-45.7602 67.2993-45.7219 67.3262-45.6836C67.3647-45.6339 67.3531-45.5688 67.3647-45.5115C67.2839-45.5115 67.1993-45.5038 67.1224-45.5192C66.8378-45.5688 66.8224-45.5688 66.6339-45.4196C66.5378-45.343 66.4185-45.2857 66.3262-45.2169C66.1224-45.0677 66.0185-44.9069 66.1339-44.7004C66.1801-44.62 66.1724-44.5242 66.1878-44.4323C66.207-44.3292 66.2108-44.2219 66.2416-44.1184C66.2801-44.0077 66.3724-43.9769 66.5108-44.0419C66.9493-44.245 67.3762-44.4553 67.807-44.6657C67.9801-44.75 68.0301-44.8761 67.9685-45.0065C67.8531-45.2665 67.7185-45.523 67.5916-45.7831L67.5108-45.9324L67.5685-45.963Z"/>
   <path class="monochrome-1 multicolor-1:tintColor hierarchical-1:tertiary SFSymbolsPreviewWireframe" d="M48.9411-84C55.3091-84.0013 61.615-82.7479 67.4985-80.3116C73.382-77.8752 78.7279-74.3036 83.2305-69.8009C87.7334-65.2983 91.305-59.9524 93.7418-54.0682C96.1779-48.1846 97.4312-41.8789 97.43-35.5124C97.43-8.72255 75.7254 13 48.9424 13C22.156 13 0.43-8.726 0.43-35.5124C0.43-62.2926 22.1539-84 48.9411-84ZM48.9424-70C29.8835-70 14.43-54.5582 14.43-35.5124C14.43-16.458 29.888-0.999999 48.9424-0.999999C67.9909-0.999999 83.43-16.4519 83.43-35.5138C83.4309-40.0428 82.5395-44.5276 80.8069-48.7121C79.0739-52.8969 76.5337-56.6989 73.3311-59.9013C70.1287-63.1038 66.3266-65.644 62.1422-67.3767C57.9578-69.1095 53.4729-70.0009 48.9424-70Z"/>
  </g>
  <g id="Regular-S" transform="matrix(1 0 0 1 1403.58 696)">
   <path class="monochrome-0 multicolor-0:tintColor hierarchical-0:primary SFSymbolsPreviewWireframe" d="M69.1333-46.3615C69.2869-46.3414 69.4345-46.2896 69.5665-46.2094C69.6989-46.1292 69.8129-46.0224 69.9013-45.896C69.9493-45.8244 69.9853-45.7448 70.0573-45.6848C70.1285-45.6392 70.2093-45.6092 70.2933-45.5976C70.2493-45.8284 70.1973-46.0471 69.8533-46.1744C69.7749-46.2074 69.7061-46.2594 69.6533-46.3257C69.6333-46.3496 69.6533-46.4132 69.6933-46.4371C69.7253-46.453 69.8173-46.453 69.8613-46.4371C70.4013-46.2063 70.7853-45.912 70.8613-45.474C70.8773-45.3984 70.9533-45.3148 71.0413-45.2632C71.2013-45.1596 71.2693-45.0524 71.2093-44.9088C71.2053-44.9 71.2025-44.8908 71.2013-44.8812C71.1493-44.284 70.7893-44.1528 69.9613-43.9936C69.4813-43.898 68.9853-43.8424 68.4893-43.7748C68.2133-43.7352 68.0373-43.6356 67.9173-43.4724C67.5573-42.9828 67.1893-42.4932 66.8133-42.008C66.6253-41.7652 66.4093-41.5304 66.2173-41.2916C66.1093-41.1523 66.0373-41.0011 65.9253-40.8615C65.5933-40.4519 65.2733-40.0339 64.8933-39.6359C64.3933-39.1107 63.9613-38.5495 63.3013-38.0879C63.0053-37.8851 62.7733-37.6383 62.5093-37.4155C62.1333-37.0971 61.6413-36.8743 61.1093-36.6871C60.6653-36.5319 60.1973-36.4087 59.7493-36.2495C59.5133-36.1699 59.3093-36.0463 59.0813-35.9511C58.6533-35.7679 58.2093-35.5927 57.7853-35.4095C57.6741-35.3583 57.5749-35.2851 57.4933-35.1947C57.1457-34.7911 56.9137-34.3015 56.8213-33.7779C56.7213-33.3683 56.5333-32.9663 56.4613-32.5563C56.4085-32.2547 56.2957-31.9663 56.1293-31.7087C55.9773-31.4699 55.7773-31.2511 55.6093-31.0203C55.4253-30.7735 55.2413-30.5307 55.0773-30.2799C54.8333-29.8979 54.5853-29.5159 54.3733-29.1259C54.1973-28.8075 54.0733-28.4735 53.9333-28.1471C53.8937-28.0583 53.8757-27.9619 53.8805-27.8651C53.8857-27.7683 53.9129-27.6743 53.9613-27.5899C54.1333-27.2635 54.2733-26.9255 54.4773-26.6111C54.7053-26.2567 54.9933-25.9223 55.2493-25.5763C55.5813-25.1383 55.8693-24.6847 56.0653-24.2071C56.3133-23.6063 56.7213-23.0491 57.1813-22.5039C57.3533-22.3051 57.4933-22.0903 57.6853-21.8991C57.8053-21.7759 57.9773-21.6683 58.1533-21.5687C58.5013-21.3779 58.8573-21.1947 59.2213-21.0115C59.5013-20.8763 59.7973-20.7491 60.0853-20.6139L61.1253-20.1363L62.3333-19.5951L64.0693-18.8031C64.4773-18.6239 64.9093-18.4607 65.3173-18.2739C66.1653-17.8879 67.0053-17.4939 67.8493-17.1039C68.1173-16.9843 68.4053-16.8731 68.6693-16.7455C69.6013-16.3119 70.5413-15.8859 71.4533-15.4323C72.0253-15.1459 72.5493-14.8195 73.1013-14.5171C73.4653-14.3103 73.8413-14.1151 74.2013-13.9043C74.6413-13.6495 75.0533-13.3827 75.4933-13.1283C75.7693-12.9691 76.0813-12.8415 76.3653-12.6903C76.6413-12.5471 76.9053-12.3919 77.1693-12.2447C77.2613-12.1931 77.3413-12.1335 77.4333-12.0815C77.6853-11.9423 77.8253-11.7631 77.9773-11.5763C78.2213-11.2779 78.2373-10.9831 78.1133-10.6767C77.9453-10.2471 77.2053-9.91271 76.5533-10.0203C76.0021-10.1135 75.4649-10.2739 74.9533-10.4979C74.3133-10.7763 73.6733-11.0627 73.0333-11.3335C72.8453-11.4131 72.6333-11.4687 72.4333-11.5403C71.7413-11.7951 71.1253-12.1175 70.4973-12.4319C70.3049-12.5279 70.1181-12.6339 69.9373-12.7503C69.6013-12.9691 69.1693-13.0883 68.7733-13.2435C68.3493-13.4147 67.9333-13.5899 67.5173-13.7691C66.5253-14.1947 65.5293-14.6127 64.5493-15.0463C64.0293-15.2771 63.5413-15.5319 63.0333-15.7707C62.7733-15.8939 62.5053-16.0095 62.2493-16.1287C61.4813-16.4951 60.7373-16.8771 59.9493-17.2191C59.1773-17.5535 58.3493-17.8319 57.5653-18.1583C57.0973-18.3495 56.6733-18.5803 56.2253-18.7951C55.9053-18.9423 55.5813-19.0855 55.2653-19.2367C54.6733-19.5275 54.0973-19.8339 53.4933-20.1203C53.0813-20.3111 52.6373-20.4663 52.2093-20.6375L50.8489-21.1947C50.5369-21.3259 50.2289-21.4575 49.9129-21.5807C49.4929-21.7399 49.0569-21.8871 48.6449-22.0583C47.8529-22.3847 47.0609-22.7111 46.2929-23.0651C45.6337-23.3491 45.0205-23.7287 44.4729-24.1915C44.3209-24.3267 44.1369-24.4459 43.9529-24.5655C43.9049-24.5971 43.8049-24.6291 43.7529-24.6171C43.7009-24.6051 43.6609-24.5335 43.6569-24.4899C43.6569-24.0519 43.6249-23.6143 43.6649-23.1847C43.7169-22.6591 43.8249-22.1339 43.9169-21.6087C43.9849-21.1867 44.0769-20.7691 44.1289-20.3431C44.1365-20.2123 44.0917-20.0835 44.0049-19.9851C43.8209-19.7623 43.5609-19.7543 43.2569-19.9095C42.9889-20.0527 42.9209-20.2635 42.7529-20.4387C42.4409-20.7611 42.1369-21.0875 41.8169-21.4055C41.4289-21.7995 41.0249-22.1815 40.6289-22.5715C40.2409-22.9499 39.8409-23.3279 39.4769-23.7139C39.1049-24.1119 38.7769-24.5255 38.4209-24.9275C38.1129-25.2699 37.7849-25.6039 37.4729-25.9463C37.3169-26.1175 37.1769-26.2927 37.0249-26.4635C36.7049-26.8299 36.3729-27.1879 36.0649-27.5539C35.7049-27.9919 35.3769-28.4295 35.0249-28.8675C34.7649-29.1819 34.4849-29.4883 34.2169-29.7987C34.1329-29.8979 34.0649-30.0055 33.9809-30.1051C33.7249-30.4235 33.4769-30.7379 33.2129-31.0483C32.9211-31.3883 32.6224-31.7227 32.3169-32.0511C31.9129-32.4847 31.4609-32.9027 31.0929-33.3483C30.6249-33.9135 30.1209-34.4707 29.8449-35.0991C29.7369-35.3379 29.5649-35.5651 29.4249-35.7995L28.8769-36.6751C28.8169-36.7707 28.7449-36.8623 28.6929-36.9619C28.4449-37.4035 28.2049-37.8491 27.9609-38.2907C27.9129-38.3823 27.8529-38.4659 27.8129-38.5575C27.6684-38.8879 27.527-39.2195 27.3889-39.5523C27.2969-39.7711 27.2089-39.9903 27.1329-40.2091C27.0129-40.5435 26.8769-40.8815 26.8129-41.22C26.7173-41.7536 26.6465-42.2916 26.6009-42.8316C26.5809-43.0624 26.6329-43.2932 26.6409-43.524L26.6689-44.9728L26.6689-45.2392C26.6809-45.4264 26.6809-45.6172 26.7129-45.8044C26.7409-45.9556 26.8089-46.1068 26.8529-46.258C26.8745-46.3235 26.8932-46.3899 26.9089-46.457C26.9529-46.6719 26.9769-46.8868 27.0449-47.0937C27.1489-47.4439 27.2809-47.7901 27.4049-48.1403C27.5769-48.6378 27.7329-49.1432 27.9329-49.6366C28.0609-49.951 28.2809-50.2455 28.4249-50.5559C28.5204-50.7733 28.5927-51.0001 28.6409-51.2324C28.6809-51.3956 28.5529-51.515 28.3489-51.6185C28.0163-51.7658 27.717-51.9783 27.4689-52.2432C27.1569-52.6173 26.8209-52.9795 26.4969-53.3496C26.3536-53.5177 26.2399-53.7088 26.1609-53.9147C26.0729-54.1256 25.8769-54.3206 25.7089-54.5156C25.6769-54.5554 25.5529-54.5713 25.4689-54.5713C24.6401-54.5785 23.8123-54.629 22.9888-54.7225C22.8488-54.7384 22.7008-54.7344 22.5608-54.7504C22.2008-54.7902 22.0808-55.013 22.2968-55.2C22.7528-55.602 23.3248-55.9124 24.0168-56.1352C24.2452-56.2054 24.4652-56.3001 24.6728-56.4178C24.8008-56.4934 24.9128-56.6168 24.9288-56.7243C24.9808-57.1143 24.9888-57.5082 25.0128-57.8982C25.0208-58.1443 25.1078-58.3813 25.2608-58.5747C25.6009-59.0045 26.0889-59.3468 26.5889-59.685C26.9249-59.9079 27.2769-60.1228 27.6529-60.3217C27.9329-60.465 28.2609-60.5685 28.5729-60.6879C28.6329-60.7117 28.7009-60.7317 28.7569-60.7595C29.6009-61.1575 30.5569-61.4002 31.5449-61.5793C32.3297-61.7229 33.1195-61.8371 33.9129-61.9215C34.4769-61.9812 35.0609-61.9693 35.6369-61.9852C36.1009-61.9932 36.5649-62.0091 37.0289-61.9932C37.6369-61.9773 38.2409-61.9414 38.8449-61.8977C39.6249-61.838 40.4009-61.7584 41.1769-61.6867C41.2569-61.6788 41.3329-61.6629 41.4049-61.6469C42.0449-61.4719 42.6249-61.2291 43.1369-60.9187C43.2129-60.8749 43.2889-60.8272 43.3769-60.7874C43.8409-60.5884 44.2649-60.3496 44.6289-60.0711C44.9649-59.8124 45.3169-59.5617 45.6329-59.295C45.8249-59.1359 45.9529-58.9448 46.1329-58.7777C46.7809-58.1887 47.2369-57.5281 47.6809-56.8675C48.0809-56.2626 48.4409-55.6418 48.8129-55.0289C49.0529-54.627 49.2889-54.2171 49.5249-53.8112L49.7569-53.4013C49.9409-53.0988 50.3289-52.8999 50.6689-52.685C50.8449-52.5656 51.0329-52.4621 51.1849-52.3308C51.5849-51.9886 51.9893-51.6384 52.3613-51.2802C52.6053-51.0414 52.7973-50.7788 53.0133-50.5281C53.1293-50.3968 53.2253-50.2535 53.3733-50.1381C53.6213-49.9311 53.6613-49.6725 53.8133-49.4456C53.9533-49.2387 54.1013-49.0357 54.2093-48.8248C54.3029-48.6406 54.3725-48.4454 54.4173-48.2438C54.5093-47.8458 54.7213-47.4797 54.9253-47.1056C55.0013-46.9624 55.1173-46.8191 55.1253-46.6719C55.1533-46.2341 55.4453-45.864 55.7413-45.49C55.9413-45.2432 56.1533-44.9924 56.3693-44.75C56.7853-44.2684 57.0213-43.7468 57.2093-43.2136C57.3173-42.9112 57.3813-42.6048 57.4813-42.3064C57.5533-42.0876 57.7013-41.8764 57.7373-41.6576C57.8413-41.0527 57.8973-40.4479 57.7453-39.8391C57.6589-39.5175 57.6249-39.1843 57.6453-38.8519C57.6613-38.6531 57.8053-38.4459 57.9653-38.2671C58.1253-38.0919 58.3893-38.1355 58.5013-38.3307C58.5929-38.4911 58.6321-38.6763 58.6133-38.8599C58.5973-39.1891 58.6473-39.5179 58.7613-39.8271C58.9385-40.3047 59.0069-40.8159 58.9613-41.3236C58.9373-41.578 58.9613-41.8368 58.9453-42.0916C58.9121-42.5532 58.8653-43.0136 58.8053-43.4724C58.7813-43.6436 58.6853-43.8068 58.6373-43.9776C58.5873-44.168 58.5469-44.3604 58.5173-44.5548C58.4741-44.8192 58.4369-45.0848 58.4053-45.3508C58.3717-45.7268 58.4321-46.1056 58.5813-46.453C58.6693-46.6798 58.7333-46.9146 58.8133-47.1415C58.8293-47.1972 58.8533-47.2608 58.9093-47.2967C59.3333-47.5593 59.7493-47.826 60.3133-47.9692C60.6093-48.0408 60.8733-48.0488 61.1213-47.9095C61.3533-47.7742 61.5973-47.6429 61.8253-47.5036C61.9653-47.4161 61.9493-47.2967 61.8813-47.1932C61.8173-47.0897 61.8133-47.0181 61.9933-46.9664C62.0453-46.9504 62.1053-46.9106 62.1133-46.8748C62.1613-46.7291 62.1985-46.5802 62.2253-46.4291C62.2333-46.3893 62.2093-46.3217 62.1613-46.2978C61.9853-46.2063 62.0213-46.0988 62.0693-45.9876C62.1293-45.8324 62.0973-45.6812 61.9893-45.5416C61.9613-45.502 61.8773-45.4504 61.8493-45.458C61.7857-45.472 61.7293-45.5072 61.6893-45.5576C61.6613-45.6016 61.6773-45.6612 61.6693-45.7128C61.6573-45.7924 61.6653-45.88 61.6293-45.9596C61.5293-46.1784 61.2853-46.2381 60.9733-46.1386C60.7453-46.063 60.5013-46.0033 60.2773-45.9276C60.0413-45.848 59.8133-45.7608 59.6013-45.6612C59.5373-45.6292 59.4813-45.5296 59.5093-45.486C59.5533-45.4184 59.6573-45.3388 59.7613-45.3228C60.0957-45.2644 60.4401-45.292 60.7613-45.4024C60.9033-45.4572 61.0509-45.4972 61.2013-45.522C61.2949-45.5264 61.3877-45.504 61.4693-45.458C61.4973-45.4424 61.4533-45.3548 61.4173-45.3068C61.2589-45.1304 61.0381-45.022 60.8013-45.0044C60.6413-44.9844 60.4733-44.9648 60.3093-44.9328C60.1241-44.8932 59.9317-44.9056 59.7533-44.9688C59.6813-44.9924 59.5773-44.9808 59.4853-44.9844C59.4813-44.9328 59.4573-44.8772 59.4693-44.8256C59.5253-44.4912 59.5773-44.1568 59.6533-43.8264C59.7053-43.5996 59.8053-43.3768 59.8533-43.15C59.9053-42.8756 59.9253-42.6048 59.9573-42.3344C59.9853-42.0716 60.0213-41.8128 60.0373-41.5504C60.0533-41.3272 60.0493-41.1003 60.0453-40.8735L60.0413-39.3215C60.0413-39.0031 60.0613-38.6927 60.3093-38.4063C60.4693-38.2151 60.8693-38.1675 61.1573-38.2831C61.3973-38.3823 61.6653-38.4539 61.9213-38.5415C62.4061-38.7119 62.8485-38.9847 63.2173-39.3415C63.4973-39.6003 63.7613-39.8587 64.0373-40.1175C64.4213-40.4755 64.8373-40.8219 65.1893-41.196C65.5133-41.5424 65.7693-41.9204 66.0613-42.2824C66.2333-42.4932 66.4293-42.7004 66.5893-42.9192C66.8013-43.2096 67.0013-43.508 67.1893-43.8068C67.2113-43.8456 67.2257-43.8884 67.2313-43.9328C67.2369-43.9772 67.2333-44.0224 67.2213-44.0652C67.1493-44.332 67.0213-44.5868 66.9813-44.8532C66.9213-45.1996 66.9013-45.5576 67.3493-45.8284C67.4173-45.868 67.5013-45.904 67.5853-45.9356C67.7053-45.9836 67.8413-46.0232 67.9533-46.0789C68.1881-46.1883 68.4525-46.2163 68.7053-46.1585C68.7733-46.1506 68.8533-46.1108 68.8813-46.071C68.9213-46.0192 68.9093-45.9516 68.9213-45.892C68.8373-45.892 68.7493-45.884 68.6693-45.9C68.3733-45.9516 68.3573-45.9516 68.1613-45.7964C68.0613-45.7168 67.9373-45.6572 67.8413-45.5856C67.6293-45.4304 67.5213-45.2632 67.6413-45.0484C67.6893-44.9648 67.6813-44.8652 67.6973-44.7696C67.7173-44.6624 67.7213-44.5508 67.7533-44.4432C67.7933-44.328 67.8893-44.296 68.0333-44.3636C68.4893-44.5748 68.9333-44.7936 69.3813-45.0124C69.5613-45.1 69.6133-45.2312 69.5493-45.3668C69.4293-45.6372 69.2893-45.904 69.1573-46.1744L69.0733-46.3296L69.1333-46.3615Z"/>
   <path class="monochrome-1 multicolor-1:tintColor hierarchical-1:tertiary SFSymbolsPreviewWireframe" d="M46.4321-81.8365C52.4502-81.8377 58.4096-80.6532 63.9698-78.3508C69.53-76.0483 74.5822-72.6729 78.8374-68.4176C83.0928-64.1624 86.4682-59.1103 88.771-53.5496C91.0733-47.9892 92.2577-42.03 92.2566-36.0127C92.2566-10.693 71.744 9.83658 46.4328 9.83658C21.1173 9.83658 0.5835-10.6972 0.5835-36.0127C0.5835-61.3211 21.1145-81.8365 46.4321-81.8365ZM46.4328-75.0865C24.8413-75.0865 7.3335-57.592 7.3335-36.0127C7.3335-14.4252 24.8452 3.08658 46.4328 3.08658C68.0148 3.08658 85.5066-14.4197 85.5066-36.0133C85.5076-41.1447 84.4976-46.226 82.5345-50.9672C80.571-55.7085 77.693-60.0162 74.0644-63.6446C70.4361-67.273 66.1283-70.1511 61.3873-72.1143C56.6463-74.0776 51.5649-75.0875 46.4328-75.0865Z"/>
  </g>
  <g id="Ultralight-S" transform="matrix(1 0 0 1 515.649 696)">
   <path class="monochrome-0 multicolor-0:tintColor hierarchical-0:primary SFSymbolsPreviewWireframe" d="M63.028-46.963C63.1757-46.9436 63.3176-46.8938 63.4445-46.8167C63.5718-46.7396 63.6814-46.6369 63.7664-46.5154C63.8126-46.4465 63.8472-46.37 63.9164-46.3123C63.9849-46.2684 64.0626-46.2396 64.1433-46.2284C64.101-46.4504 64.051-46.6607 63.7203-46.7831C63.6449-46.8148 63.5787-46.8648 63.528-46.9286C63.5087-46.9515 63.528-47.0127 63.5664-47.0357C63.5972-47.051 63.6857-47.051 63.728-47.0357C64.2472-46.8138 64.6164-46.5308 64.6895-46.1096C64.7049-46.0369 64.778-45.9565 64.8626-45.9069C65.0164-45.8073 65.0818-45.7042 65.0241-45.5661C65.0203-45.5577 65.0176-45.5488 65.0164-45.5396C64.9664-44.9654 64.6203-44.8392 63.8241-44.6861C63.3626-44.5942 62.8857-44.5408 62.4087-44.4758C62.1433-44.4377 61.9741-44.3419 61.8587-44.185C61.5126-43.7142 61.1587-43.2434 60.7972-42.7769C60.6164-42.5434 60.4087-42.3177 60.2241-42.0881C60.1203-41.9542 60.051-41.8088 59.9433-41.6746C59.6241-41.2807 59.3164-40.8788 58.951-40.4961C58.4703-39.9911 58.0549-39.4515 57.4203-39.0077C57.1356-38.8127 56.9126-38.5754 56.6587-38.3611C56.2972-38.055 55.8241-37.8407 55.3126-37.6607C54.8856-37.5115 54.4356-37.3931 54.0049-37.24C53.7779-37.1634 53.5818-37.0446 53.3626-36.9531C52.951-36.7769 52.5241-36.6084 52.1164-36.4323C52.0095-36.3831 51.9141-36.3127 51.8356-36.2257C51.5014-35.8377 51.2783-35.3669 51.1895-34.8634C51.0933-34.4696 50.9126-34.083 50.8433-33.6888C50.7926-33.3988 50.6841-33.1215 50.5241-32.8738C50.3779-32.6442 50.1856-32.4338 50.0241-32.2119C49.8472-31.9746 49.6703-31.7411 49.5126-31.5C49.2779-31.1327 49.0395-30.7654 48.8356-30.3904C48.6664-30.0842 48.5472-29.763 48.4126-29.4492C48.3745-29.3638 48.3572-29.2711 48.3618-29.178C48.3668-29.085 48.3929-28.9946 48.4395-28.9134C48.6049-28.5996 48.7395-28.2746 48.9356-27.9723C49.1549-27.6315 49.4318-27.31 49.6779-26.9773C49.9972-26.5561 50.2741-26.12 50.4626-25.6607C50.701-25.083 51.0933-24.5473 51.5356-24.023C51.701-23.8319 51.8356-23.6253 52.0203-23.4415C52.1356-23.323 52.301-23.2196 52.4703-23.1238C52.8049-22.9403 53.1472-22.7642 53.4972-22.588C53.7664-22.458 54.051-22.3357 54.3279-22.2057L55.3279-21.7465L56.4895-21.2261L58.1587-20.4646C58.551-20.2923 58.9664-20.1353 59.3587-19.9557C60.1741-19.5846 60.9818-19.2057 61.7933-18.8307C62.051-18.7157 62.328-18.6088 62.5818-18.4861C63.478-18.0692 64.3818-17.6596 65.2587-17.2234C65.8087-16.948 66.3126-16.6342 66.8433-16.3434C67.1934-16.1446 67.5549-15.9569 67.901-15.7542C68.3241-15.5092 68.7203-15.2526 69.1434-15.008C69.4087-14.8549 69.7087-14.7323 69.9818-14.5869C70.2472-14.4492 70.501-14.2999 70.7549-14.1584C70.8434-14.1088 70.9203-14.0515 71.0087-14.0015C71.251-13.8676 71.3857-13.6953 71.5318-13.5157C71.7664-13.2288 71.7818-12.9453 71.6626-12.6507C71.501-12.2376 70.7895-11.9161 70.1626-12.0196C69.6326-12.1092 69.116-12.2634 68.6241-12.4788C68.0087-12.7465 67.3934-13.0219 66.778-13.2823C66.5972-13.3588 66.3933-13.4123 66.201-13.4811C65.5357-13.7261 64.9433-14.0361 64.3395-14.3384C64.1545-14.4307 63.9749-14.5326 63.801-14.6446C63.478-14.8549 63.0626-14.9696 62.6818-15.1188C62.2741-15.2834 61.8741-15.4519 61.4741-15.6242C60.5203-16.0334 59.5626-16.4353 58.6203-16.8523C58.1203-17.0742 57.651-17.3192 57.1626-17.5488C56.9126-17.6673 56.6549-17.7784 56.4087-17.893C55.6703-18.2453 54.9549-18.6126 54.1972-18.9415C53.4549-19.263 52.6587-19.5307 51.9049-19.8446C51.4549-20.0284 51.0472-20.2503 50.6164-20.4569C50.3087-20.5984 49.9972-20.7361 49.6933-20.8815C49.1241-21.1611 48.5702-21.4557 47.9895-21.7311C47.5933-21.9146 47.1664-22.0638 46.7549-22.2284L45.4468-22.7642C45.1468-22.8903 44.8506-23.0169 44.5468-23.1353C44.1429-23.2884 43.7237-23.43 43.3275-23.5946C42.566-23.9084 41.8045-24.2223 41.066-24.5627C40.4322-24.8357 39.8425-25.2007 39.316-25.6457C39.1699-25.7757 38.9929-25.8903 38.816-26.0053C38.7699-26.0357 38.6737-26.0665 38.6237-26.055C38.5737-26.0434 38.5352-25.9746 38.5314-25.9327C38.5314-25.5115 38.5006-25.0907 38.5391-24.6777C38.5891-24.1723 38.6929-23.6673 38.7814-23.1623C38.8468-22.7565 38.9352-22.355 38.9852-21.9453C38.9925-21.8196 38.9495-21.6957 38.866-21.6011C38.6891-21.3869 38.4391-21.3792 38.1468-21.5284C37.8891-21.6661 37.8237-21.8688 37.6622-22.0373C37.3622-22.3473 37.0698-22.6611 36.7622-22.9669C36.3891-23.3457 36.0006-23.713 35.6198-24.088C35.2468-24.4519 34.8622-24.8153 34.5122-25.1865C34.1545-25.5692 33.8391-25.9669 33.4968-26.3534C33.2007-26.6827 32.8853-27.0038 32.5853-27.333C32.4353-27.4977 32.3007-27.6661 32.1545-27.8303C31.8468-28.1827 31.5276-28.5269 31.2315-28.8788C30.8853-29.3 30.5699-29.7207 30.2315-30.1419C29.9815-30.4442 29.7122-30.7388 29.4545-31.0373C29.3738-31.1327 29.3084-31.2361 29.2276-31.3319C28.9815-31.638 28.743-31.9404 28.4891-32.2388C28.2085-32.5657 27.9213-32.8873 27.6276-33.203C27.2391-33.62 26.8045-34.0219 26.4506-34.4504C26.0006-34.9938 25.516-35.5296 25.2506-36.1338C25.1468-36.3634 24.9814-36.5819 24.8468-36.8073L24.3199-37.6492C24.2622-37.7411 24.1929-37.8292 24.1429-37.925C23.9045-38.3496 23.6737-38.7781 23.4391-39.2027C23.3929-39.2907 23.3352-39.3711 23.2968-39.4592C23.1578-39.7769 23.0219-40.0957 22.8891-40.4157C22.8006-40.6261 22.716-40.8369 22.6429-41.0473C22.5275-41.3688 22.3968-41.6938 22.3352-42.0192C22.2433-42.5323 22.1753-43.0496 22.1314-43.5688C22.1121-43.7908 22.1621-44.0127 22.1698-44.2346L22.1968-45.6277L22.1968-45.8838C22.2083-46.0638 22.2083-46.2473 22.2391-46.4273C22.266-46.5727 22.3314-46.7181 22.3737-46.8635C22.3945-46.9264 22.4124-46.9903 22.4275-47.0548C22.4698-47.2614 22.4929-47.4681 22.5583-47.6671C22.6583-48.0038 22.7852-48.3367 22.9044-48.6734C23.0698-49.1518 23.2198-49.6377 23.4121-50.1122C23.5352-50.4145 23.7468-50.6976 23.8853-50.9961C23.9771-51.2051 24.0466-51.4232 24.0929-51.6466C24.1314-51.8035 24.0083-51.9183 23.8122-52.0178C23.4924-52.1594 23.2046-52.3638 22.966-52.6185C22.666-52.9782 22.3429-53.3265 22.0314-53.6823C21.8936-53.844 21.7843-54.0277 21.7083-54.2257C21.6237-54.4285 21.4352-54.616 21.2737-54.8035C21.2429-54.8417 21.1237-54.857 21.0429-54.857C20.246-54.864 19.4501-54.9125 18.6582-55.0025C18.5236-55.0178 18.3813-55.0139 18.2467-55.0292C17.9006-55.0675 17.7852-55.2818 17.9929-55.4616C18.4313-55.8481 18.9814-56.1466 19.6467-56.3608C19.8663-56.4283 20.0778-56.5194 20.2775-56.6325C20.4006-56.7052 20.5083-56.8238 20.5237-56.9272C20.5737-57.3022 20.5814-57.681 20.6044-58.056C20.6121-58.2926 20.6957-58.5205 20.8429-58.7065C21.1698-59.1198 21.6391-59.4489 22.1198-59.7741C22.4429-59.9884 22.7814-60.195 23.1429-60.3863C23.4121-60.5241 23.7276-60.6236 24.0276-60.7384C24.0853-60.7613 24.1506-60.7805 24.2045-60.8072C25.016-61.1899 25.9353-61.4233 26.8853-61.5955C27.6398-61.7336 28.3993-61.8434 29.1622-61.9246C29.7045-61.982 30.2661-61.9705 30.8199-61.9858C31.2661-61.9935 31.7122-62.0088 32.1584-61.9935C32.743-61.9782 33.3237-61.9437 33.9045-61.9016C34.6545-61.8442 35.4006-61.7677 36.1468-61.6988C36.2237-61.6912 36.2968-61.6759 36.366-61.6605C36.9814-61.4922 37.5391-61.2588 38.0314-60.9603C38.1045-60.9182 38.1775-60.8723 38.2622-60.834C38.7083-60.6427 39.116-60.4131 39.466-60.1453C39.7891-59.8965 40.1275-59.6555 40.4314-59.3991C40.616-59.246 40.7391-59.0623 40.9122-58.9017C41.5352-58.3353 41.9737-57.7001 42.4006-57.0649C42.7852-56.4833 43.1314-55.8864 43.4891-55.2971C43.7199-54.9106 43.9468-54.5165 44.1737-54.1262L44.3968-53.7321C44.5737-53.4412 44.9468-53.2499 45.2737-53.0433C45.4429-52.9285 45.6237-52.829 45.7699-52.7027C46.1545-52.3736 46.5433-52.0369 46.901-51.6925C47.1356-51.463 47.3202-51.2104 47.5279-50.9693C47.6395-50.8431 47.7318-50.7053 47.8741-50.5943C48.1126-50.3953 48.151-50.1466 48.2972-49.9285C48.4318-49.7295 48.5741-49.5344 48.6779-49.3316C48.7679-49.1545 48.8349-48.9668 48.8779-48.7729C48.9664-48.3903 49.1702-48.0382 49.3664-47.6785C49.4395-47.5408 49.551-47.403 49.5587-47.2614C49.5856-46.8405 49.8664-46.4846 50.151-46.125C50.3433-45.8877 50.5472-45.6465 50.7549-45.4134C51.1549-44.9504 51.3818-44.4488 51.5626-43.9361C51.6664-43.6454 51.7279-43.3508 51.8241-43.0638C51.8933-42.8534 52.0356-42.6504 52.0703-42.44C52.1703-41.8584 52.2241-41.2769 52.0779-40.6915C51.9949-40.3823 51.9622-40.0619 51.9818-39.7423C51.9972-39.5511 52.1356-39.3519 52.2895-39.18C52.4433-39.0115 52.6972-39.0534 52.8049-39.2411C52.8929-39.3954 52.9306-39.5734 52.9126-39.75C52.8972-40.0665 52.9453-40.3827 53.0549-40.68C53.2253-41.1392 53.291-41.6308 53.2472-42.1188C53.2241-42.3634 53.2472-42.6123 53.2318-42.8573C53.1999-43.3011 53.1549-43.7438 53.0972-44.185C53.0741-44.3496 52.9818-44.5065 52.9356-44.6708C52.8876-44.8538 52.8487-45.0388 52.8203-45.2258C52.7787-45.48 52.7429-45.7354 52.7126-45.9911C52.6803-46.3527 52.7383-46.7169 52.8818-47.051C52.9664-47.2691 53.0279-47.4949 53.1049-47.713C53.1203-47.7666 53.1433-47.8278 53.1972-47.8622C53.6049-48.1148 54.0049-48.3711 54.5472-48.5089C54.8318-48.5778 55.0856-48.5854 55.3241-48.4515C55.5472-48.3214 55.7818-48.1951 56.001-48.0612C56.1356-47.977 56.1203-47.8622 56.0549-47.7627C55.9933-47.6632 55.9895-47.5944 56.1626-47.5446C56.2126-47.5293 56.2703-47.491 56.278-47.4566C56.3241-47.3165 56.3599-47.1733 56.3856-47.028C56.3933-46.9898 56.3703-46.9247 56.3241-46.9018C56.1549-46.8138 56.1895-46.7104 56.2356-46.6034C56.2933-46.4542 56.2626-46.3088 56.1587-46.1746C56.1318-46.1365 56.051-46.0869 56.0241-46.0942C55.963-46.1077 55.9087-46.1415 55.8703-46.19C55.8433-46.2323 55.8587-46.2896 55.851-46.3392C55.8395-46.4158 55.8472-46.5 55.8126-46.5765C55.7164-46.787 55.4818-46.8444 55.1818-46.7487C54.9626-46.676 54.7279-46.6186 54.5126-46.5458C54.2856-46.4692 54.0664-46.3854 53.8626-46.2896C53.801-46.2588 53.7472-46.1631 53.7741-46.1211C53.8164-46.0561 53.9164-45.9796 54.0164-45.9642C54.3379-45.9081 54.6691-45.9346 54.9779-46.0408C55.1145-46.0934 55.2564-46.1319 55.401-46.1558C55.491-46.16 55.5803-46.1384 55.6587-46.0942C55.6856-46.0792 55.6433-45.995 55.6087-45.9488C55.4564-45.7792 55.2441-45.675 55.0164-45.6581C54.8626-45.6388 54.701-45.62 54.5433-45.5892C54.3653-45.5511 54.1803-45.5631 54.0087-45.6238C53.9395-45.6465 53.8395-45.6354 53.751-45.6388C53.7472-45.5892 53.7241-45.5358 53.7356-45.4861C53.7895-45.1646 53.8395-44.8431 53.9126-44.5254C53.9626-44.3073 54.0587-44.0931 54.1049-43.875C54.1549-43.6111 54.1741-43.3508 54.2049-43.0908C54.2318-42.8381 54.2664-42.5892 54.2818-42.3369C54.2972-42.1223 54.2933-41.9042 54.2895-41.6861L54.2856-40.1938C54.2856-39.8877 54.3049-39.5892 54.5433-39.3138C54.6972-39.13 55.0818-39.0842 55.3587-39.1954C55.5895-39.2907 55.8472-39.3596 56.0933-39.4438C56.5595-39.6077 56.9849-39.87 57.3395-40.2131C57.6087-40.4619 57.8626-40.7104 58.128-40.9592C58.4972-41.3034 58.8972-41.6365 59.2356-41.9961C59.5472-42.3292 59.7933-42.6927 60.0741-43.0408C60.2395-43.2434 60.428-43.4427 60.5818-43.6531C60.7856-43.9323 60.978-44.2192 61.1587-44.5065C61.1799-44.5438 61.1937-44.585 61.1991-44.6277C61.2045-44.6704 61.201-44.7138 61.1895-44.755C61.1203-45.0115 60.9972-45.2565 60.9587-45.5127C60.901-45.8458 60.8818-46.19 61.3126-46.4504C61.378-46.4884 61.4587-46.5231 61.5395-46.5534C61.6549-46.5996 61.7857-46.6377 61.8933-46.6913C62.1191-46.7964 62.3733-46.8234 62.6164-46.7678C62.6818-46.7602 62.7587-46.7219 62.7857-46.6836C62.8241-46.6339 62.8126-46.5688 62.8241-46.5115C62.7433-46.5115 62.6587-46.5038 62.5818-46.5192C62.2972-46.5688 62.2818-46.5688 62.0933-46.4196C61.9972-46.3431 61.878-46.2858 61.7857-46.2169C61.5818-46.0677 61.478-45.9069 61.5933-45.7004C61.6395-45.62 61.6318-45.5242 61.6472-45.4323C61.6664-45.3292 61.6703-45.2219 61.701-45.1184C61.7395-45.0077 61.8318-44.9769 61.9703-45.0419C62.4087-45.245 62.8357-45.4554 63.2664-45.6658C63.4395-45.75 63.4895-45.8761 63.428-46.0065C63.3126-46.2665 63.178-46.5231 63.051-46.7831L62.9703-46.9324L63.028-46.963Z"/>
   <path class="monochrome-1 multicolor-1:tintColor hierarchical-1:tertiary SFSymbolsPreviewWireframe" d="M44.3636-80.5865C50.0861-80.5876 55.7528-79.4613 61.04-77.272C66.3271-75.0826 71.1312-71.8729 75.1774-67.8265C79.2239-63.7803 82.4335-58.9764 84.6232-53.6889C86.8124-48.4015 87.9387-42.7349 87.9376-37.0127C87.9376-12.9352 68.432 6.58658 44.3638 6.58658C20.2909 6.58658 0.7645-12.9399 0.7645-37.0127C0.7645-61.0781 20.2877-80.5865 44.3636-80.5865ZM44.3638-78.3365C21.53-78.3365 3.0145-59.8351 3.0145-37.0127C3.0145-14.1825 21.5336 4.33658 44.3638 4.33658C67.1889 4.33658 85.6876-14.1774 85.6876-37.0129C85.6886-42.4398 84.6205-47.8138 82.5443-52.828C80.4678-57.8425 77.4239-62.3983 73.5865-66.2355C69.7491-70.073 65.1932-73.1168 60.1791-75.1931C55.1651-77.2695 49.791-78.3376 44.3638-78.3365Z"/>
  </g>
 </g>
</svg>
