<?xml version="1.0" encoding="UTF-8"?>
<!--Generator: Apple Native CoreSVG 341-->
<!DOCTYPE svg
PUBLIC "-//W3C//DTD SVG 1.1//EN"
       "http://www.w3.org/Graphics/SVG/1.1/DTD/svg11.dtd">
<svg version="1.1" xmlns="http://www.w3.org/2000/svg" xmlns:xlink="http://www.w3.org/1999/xlink" viewBox="0 0 3300 2200">
 <!--glyph: "", point size: 100.0, font version: "20.0d10e1", template writer version: "138.0.0"-->
 <style>.monochrome-0 {-sfsymbols-motion-group:1;-sfsymbols-layer-tags:4e52913e1998888e}
.monochrome-1 {-sfsymbols-motion-group:0;-sfsymbols-layer-tags:4e52913e1998888e}

.multicolor-0:tintColor {-sfsymbols-motion-group:1;-sfsymbols-layer-tags:4e52913e1998888e}
.multicolor-1:tintColor {-sfsymbols-motion-group:0;-sfsymbols-layer-tags:4e52913e1998888e}

.hierarchical-0:primary {-sfsymbols-motion-group:1;-sfsymbols-layer-tags:4e52913e1998888e}
.hierarchical-1:tertiary {-sfsymbols-motion-group:0;-sfsymbols-layer-tags:4e52913e1998888e}

.SFSymbolsPreviewWireframe {fill:none;opacity:1.0;stroke:black;stroke-width:0.5}
</style>
 <g id="Notes">
  <rect height="2200" id="artboard" style="fill:white;opacity:1" width="3300" x="0" y="0"/>
  <line style="fill:none;stroke:black;opacity:1;stroke-width:0.5;" x1="263" x2="3036" y1="292" y2="292"/>
  <text style="stroke:none;fill:black;font-family:sans-serif;font-size:13;font-weight:bold;" transform="matrix(1 0 0 1 263 322)">Weight/Scale Variations</text>
  <text style="stroke:none;fill:black;font-family:sans-serif;font-size:13;text-anchor:middle;" transform="matrix(1 0 0 1 559.711 322)">Ultralight</text>
  <text style="stroke:none;fill:black;font-family:sans-serif;font-size:13;text-anchor:middle;" transform="matrix(1 0 0 1 856.422 322)">Thin</text>
  <text style="stroke:none;fill:black;font-family:sans-serif;font-size:13;text-anchor:middle;" transform="matrix(1 0 0 1 1153.13 322)">Light</text>
  <text style="stroke:none;fill:black;font-family:sans-serif;font-size:13;text-anchor:middle;" transform="matrix(1 0 0 1 1449.84 322)">Regular</text>
  <text style="stroke:none;fill:black;font-family:sans-serif;font-size:13;text-anchor:middle;" transform="matrix(1 0 0 1 1746.56 322)">Medium</text>
  <text style="stroke:none;fill:black;font-family:sans-serif;font-size:13;text-anchor:middle;" transform="matrix(1 0 0 1 2043.27 322)">Semibold</text>
  <text style="stroke:none;fill:black;font-family:sans-serif;font-size:13;text-anchor:middle;" transform="matrix(1 0 0 1 2339.98 322)">Bold</text>
  <text style="stroke:none;fill:black;font-family:sans-serif;font-size:13;text-anchor:middle;" transform="matrix(1 0 0 1 2636.69 322)">Heavy</text>
  <text style="stroke:none;fill:black;font-family:sans-serif;font-size:13;text-anchor:middle;" transform="matrix(1 0 0 1 2933.4 322)">Black</text>
  <line style="fill:none;stroke:black;opacity:1;stroke-width:0.5;" x1="263" x2="3036" y1="1903" y2="1903"/>
  <g transform="matrix(0.2 0 0 0.2 263 1933)">
   <path d="m46.2402 4.15039c21.7773 0 39.4531-17.627 39.4531-39.4043s-17.6758-39.4043-39.4531-39.4043c-21.7285 0-39.4043 17.627-39.4043 39.4043s17.6758 39.4043 39.4043 39.4043Zm0-7.42188c-17.6758 0-31.9336-14.3066-31.9336-31.9824s14.2578-31.9824 31.9336-31.9824 31.9824 14.3066 31.9824 31.9824-14.3066 31.9824-31.9824 31.9824Zm-17.9688-31.9824c0 2.14844 1.51367 3.61328 3.75977 3.61328h10.498v10.5957c0 2.19727 1.46484 3.71094 3.61328 3.71094 2.24609 0 3.71094-1.51367 3.71094-3.71094v-10.5957h10.5957c2.19727 0 3.71094-1.46484 3.71094-3.61328 0-2.19727-1.51367-3.71094-3.71094-3.71094h-10.5957v-10.5469c0-2.24609-1.46484-3.75977-3.71094-3.75977-2.14844 0-3.61328 1.51367-3.61328 3.75977v10.5469h-10.498c-2.24609 0-3.75977 1.51367-3.75977 3.71094Z"/>
  </g>
  <g transform="matrix(0.2 0 0 0.2 281.506 1933)">
   <path d="m58.5449 14.5508c27.4902 0 49.8047-22.3145 49.8047-49.8047s-22.3145-49.8047-49.8047-49.8047-49.8047 22.3145-49.8047 49.8047 22.3145 49.8047 49.8047 49.8047Zm0-8.30078c-22.9492 0-41.5039-18.5547-41.5039-41.5039s18.5547-41.5039 41.5039-41.5039 41.5039 18.5547 41.5039 41.5039-18.5547 41.5039-41.5039 41.5039Zm-22.6562-41.5039c0 2.39258 1.66016 4.00391 4.15039 4.00391h14.3555v14.4043c0 2.44141 1.66016 4.15039 4.05273 4.15039 2.44141 0 4.15039-1.66016 4.15039-4.15039v-14.4043h14.4043c2.44141 0 4.15039-1.61133 4.15039-4.00391 0-2.44141-1.70898-4.15039-4.15039-4.15039h-14.4043v-14.3555c0-2.49023-1.70898-4.19922-4.15039-4.19922-2.39258 0-4.05273 1.70898-4.05273 4.19922v14.3555h-14.3555c-2.49023 0-4.15039 1.70898-4.15039 4.15039Z"/>
  </g>
  <g transform="matrix(0.2 0 0 0.2 304.924 1933)">
   <path d="m74.8535 28.3203c35.1074 0 63.623-28.4668 63.623-63.5742s-28.5156-63.623-63.623-63.623-63.5742 28.5156-63.5742 63.623 28.4668 63.5742 63.5742 63.5742Zm0-9.08203c-30.127 0-54.4922-24.3652-54.4922-54.4922s24.3652-54.4922 54.4922-54.4922 54.4922 24.3652 54.4922 54.4922-24.3652 54.4922-54.4922 54.4922Zm-28.8574-54.4922c0 2.58789 1.85547 4.39453 4.58984 4.39453h19.7266v19.7754c0 2.68555 1.85547 4.58984 4.44336 4.58984 2.68555 0 4.54102-1.85547 4.54102-4.58984v-19.7754h19.7754c2.68555 0 4.58984-1.80664 4.58984-4.39453 0-2.73438-1.85547-4.58984-4.58984-4.58984h-19.7754v-19.7266c0-2.73438-1.85547-4.63867-4.54102-4.63867-2.58789 0-4.44336 1.9043-4.44336 4.63867v19.7266h-19.7266c-2.73438 0-4.58984 1.85547-4.58984 4.58984Z"/>
  </g>
  <text style="stroke:none;fill:black;font-family:sans-serif;font-size:13;font-weight:bold;" transform="matrix(1 0 0 1 263 1953)">Design Variations</text>
  <text style="stroke:none;fill:black;font-family:sans-serif;font-size:13;" transform="matrix(1 0 0 1 263 1971)">Symbols are supported in up to nine weights and three scales.</text>
  <text style="stroke:none;fill:black;font-family:sans-serif;font-size:13;" transform="matrix(1 0 0 1 263 1989)">For optimal layout with text and other symbols, vertically align</text>
  <text style="stroke:none;fill:black;font-family:sans-serif;font-size:13;" transform="matrix(1 0 0 1 263 2007)">symbols with the adjacent text.</text>
  <line style="fill:none;stroke:#00AEEF;stroke-width:0.5;opacity:1.0;" x1="776" x2="776" y1="1919" y2="1933"/>
  <g transform="matrix(0.2 0 0 0.2 776 1933)">
   <path d="m16.5527 0.78125c2.58789 0 3.85742-0.976562 4.78516-3.71094l6.29883-17.2363h28.8086l6.29883 17.2363c0.927734 2.73438 2.19727 3.71094 4.73633 3.71094 2.58789 0 4.24805-1.5625 4.24805-4.00391 0-0.830078-0.146484-1.61133-0.537109-2.63672l-22.9004-60.9863c-1.12305-2.97852-3.125-4.49219-6.25-4.49219-3.02734 0-5.07812 1.46484-6.15234 4.44336l-22.9004 61.084c-0.390625 1.02539-0.537109 1.80664-0.537109 2.63672 0 2.44141 1.5625 3.95508 4.10156 3.95508Zm13.4766-28.3691 11.8652-32.8613h0.244141l11.8652 32.8613Z"/>
  </g>
  <line style="fill:none;stroke:#00AEEF;stroke-width:0.5;opacity:1.0;" x1="792.836" x2="792.836" y1="1919" y2="1933"/>
  <text style="stroke:none;fill:black;font-family:sans-serif;font-size:13;font-weight:bold;" transform="matrix(1 0 0 1 776 1953)">Margins</text>
  <text style="stroke:none;fill:black;font-family:sans-serif;font-size:13;" transform="matrix(1 0 0 1 776 1971)">Leading and trailing margins on the left and right side of each symbol</text>
  <text style="stroke:none;fill:black;font-family:sans-serif;font-size:13;" transform="matrix(1 0 0 1 776 1989)">can be adjusted by modifying the x-location of the margin guidelines.</text>
  <text style="stroke:none;fill:black;font-family:sans-serif;font-size:13;" transform="matrix(1 0 0 1 776 2007)">Modifications are automatically applied proportionally to all</text>
  <text style="stroke:none;fill:black;font-family:sans-serif;font-size:13;" transform="matrix(1 0 0 1 776 2025)">scales and weights.</text>
  <g transform="matrix(0.2 0 0 0.2 1289 1933)">
   <path d="m14.209 9.32617 8.49609 8.54492c4.29688 4.3457 9.22852 4.05273 13.8672-1.07422l53.4668-58.9355-4.83398-4.88281-53.0762 58.3984c-1.75781 2.00195-3.41797 2.49023-5.76172 0.146484l-5.85938-5.81055c-2.34375-2.29492-1.80664-4.00391 0.195312-5.81055l57.373-54.0039-4.88281-4.83398-57.959 54.4434c-4.93164 4.58984-5.32227 9.47266-1.02539 13.8184Zm32.0801-90.9668c-2.09961 2.05078-2.24609 4.93164-1.07422 6.88477 1.17188 1.80664 3.4668 2.97852 6.68945 2.14844 7.32422-1.70898 14.9414-2.00195 22.0703 2.68555l-2.92969 7.27539c-1.70898 4.15039-0.830078 7.08008 1.85547 9.81445l11.4746 11.5723c2.44141 2.44141 4.49219 2.53906 7.32422 2.05078l5.32227-0.976562 3.32031 3.36914-0.195312 2.7832c-0.195312 2.49023 0.439453 4.39453 2.88086 6.78711l3.80859 3.71094c2.39258 2.39258 5.46875 2.53906 7.8125 0.195312l14.5508-14.5996c2.34375-2.34375 2.24609-5.32227-0.146484-7.71484l-3.85742-3.80859c-2.39258-2.39258-4.24805-3.17383-6.64062-2.97852l-2.88086 0.244141-3.22266-3.17383 1.2207-5.61523c0.634766-2.83203-0.146484-5.0293-3.07617-7.95898l-10.9863-10.9375c-16.6992-16.6016-38.8672-16.2109-53.3203-1.75781Zm7.4707 1.85547c12.1582-8.88672 28.6133-7.37305 39.7461 3.75977l12.1582 12.0605c1.17188 1.17188 1.36719 2.09961 1.02539 3.80859l-1.61133 7.42188 7.51953 7.42188 4.93164-0.292969c1.26953-0.0488281 1.66016 0.0488281 2.63672 1.02539l2.88086 2.88086-12.207 12.207-2.88086-2.88086c-0.976562-0.976562-1.12305-1.36719-1.07422-2.68555l0.341797-4.88281-7.4707-7.42188-7.61719 1.26953c-1.61133 0.341797-2.34375 0.195312-3.56445-0.976562l-10.0098-10.0098c-1.26953-1.17188-1.41602-2.00195-0.634766-3.85742l4.39453-10.4492c-7.8125-7.27539-17.9688-10.4004-28.125-7.42188-0.78125 0.195312-1.07422-0.439453-0.439453-0.976562Z"/>
  </g>
  <text style="stroke:none;fill:black;font-family:sans-serif;font-size:13;font-weight:bold;" transform="matrix(1 0 0 1 1289 1953)">Exporting</text>
  <text style="stroke:none;fill:black;font-family:sans-serif;font-size:13;" transform="matrix(1 0 0 1 1289 1971)">Symbols should be outlined when exporting to ensure the</text>
  <text style="stroke:none;fill:black;font-family:sans-serif;font-size:13;" transform="matrix(1 0 0 1 1289 1989)">design is preserved when submitting to Xcode.</text>
  <text id="template-version" style="stroke:none;fill:black;font-family:sans-serif;font-size:13;text-anchor:end;" transform="matrix(1 0 0 1 3036 1933)">Template v.6.0</text>
  <text style="stroke:none;fill:black;font-family:sans-serif;font-size:13;text-anchor:end;" transform="matrix(1 0 0 1 3036 1951)">Requires Xcode 16 or greater</text>
  <text id="descriptive-name" style="stroke:none;fill:black;font-family:sans-serif;font-size:13;text-anchor:end;" transform="matrix(1 0 0 1 3036 1969)">Generated from filtervogelgruppe-17</text>
  <text style="stroke:none;fill:black;font-family:sans-serif;font-size:13;text-anchor:end;" transform="matrix(1 0 0 1 3036 1987)">Typeset at 100.0 points</text>
  <text style="stroke:none;fill:black;font-family:sans-serif;font-size:13;" transform="matrix(1 0 0 1 263 726)">Small</text>
  <text style="stroke:none;fill:black;font-family:sans-serif;font-size:13;" transform="matrix(1 0 0 1 263 1156)">Medium</text>
  <text style="stroke:none;fill:black;font-family:sans-serif;font-size:13;" transform="matrix(1 0 0 1 263 1586)">Large</text>
 </g>
 <g id="Guides">
  <g id="H-reference" style="fill:#27AAE1;stroke:none;" transform="matrix(1 0 0 1 339 696)">
   <path d="M0.993654 0L3.63775 0L29.3281-67.1323L30.0303-67.1323L30.0303-70.459L28.1226-70.459ZM11.6885-24.4799L46.9815-24.4799L46.2315-26.7285L12.4385-26.7285ZM55.1196 0L57.7637 0L30.6382-70.459L29.4326-70.459L29.4326-67.1323Z"/>
  </g>
  <line id="Baseline-S" style="fill:none;stroke:#27AAE1;opacity:1;stroke-width:0.5;" x1="263" x2="3036" y1="696" y2="696"/>
  <line id="Capline-S" style="fill:none;stroke:#27AAE1;opacity:1;stroke-width:0.5;" x1="263" x2="3036" y1="625.541" y2="625.541"/>
  <g id="H-reference" style="fill:#27AAE1;stroke:none;" transform="matrix(1 0 0 1 339 1126)">
   <path d="M0.993654 0L3.63775 0L29.3281-67.1323L30.0303-67.1323L30.0303-70.459L28.1226-70.459ZM11.6885-24.4799L46.9815-24.4799L46.2315-26.7285L12.4385-26.7285ZM55.1196 0L57.7637 0L30.6382-70.459L29.4326-70.459L29.4326-67.1323Z"/>
  </g>
  <line id="Baseline-M" style="fill:none;stroke:#27AAE1;opacity:1;stroke-width:0.5;" x1="263" x2="3036" y1="1126" y2="1126"/>
  <line id="Capline-M" style="fill:none;stroke:#27AAE1;opacity:1;stroke-width:0.5;" x1="263" x2="3036" y1="1055.54" y2="1055.54"/>
  <g id="H-reference" style="fill:#27AAE1;stroke:none;" transform="matrix(1 0 0 1 339 1556)">
   <path d="M0.993654 0L3.63775 0L29.3281-67.1323L30.0303-67.1323L30.0303-70.459L28.1226-70.459ZM11.6885-24.4799L46.9815-24.4799L46.2315-26.7285L12.4385-26.7285ZM55.1196 0L57.7637 0L30.6382-70.459L29.4326-70.459L29.4326-67.1323Z"/>
  </g>
  <line id="Baseline-L" style="fill:none;stroke:#27AAE1;opacity:1;stroke-width:0.5;" x1="263" x2="3036" y1="1556" y2="1556"/>
  <line id="Capline-L" style="fill:none;stroke:#27AAE1;opacity:1;stroke-width:0.5;" x1="263" x2="3036" y1="1485.54" y2="1485.54"/>
  <line id="right-margin-Black-S" style="fill:none;stroke:#00AEEF;stroke-width:0.5;opacity:1.0;" x1="2982.23" x2="2982.23" y1="600.785" y2="720.121"/>
  <line id="left-margin-Black-S" style="fill:none;stroke:#00AEEF;stroke-width:0.5;opacity:1.0;" x1="2884.57" x2="2884.57" y1="600.785" y2="720.121"/>
  <line id="right-margin-Regular-S" style="fill:none;stroke:#00AEEF;stroke-width:0.5;opacity:1.0;" x1="1496.11" x2="1496.11" y1="600.785" y2="720.121"/>
  <line id="left-margin-Regular-S" style="fill:none;stroke:#00AEEF;stroke-width:0.5;opacity:1.0;" x1="1403.58" x2="1403.58" y1="600.785" y2="720.121"/>
  <line id="right-margin-Ultralight-S" style="fill:none;stroke:#00AEEF;stroke-width:0.5;opacity:1.0;" x1="603.773" x2="603.773" y1="600.785" y2="720.121"/>
  <line id="left-margin-Ultralight-S" style="fill:none;stroke:#00AEEF;stroke-width:0.5;opacity:1.0;" x1="515.649" x2="515.649" y1="600.785" y2="720.121"/>
 </g>
 <g id="Symbols">
  <g id="Black-S" transform="matrix(1 0 0 1 2884.57 696)">
   <path class="monochrome-0 multicolor-0:tintColor hierarchical-0:primary SFSymbolsPreviewWireframe" d="M39.7641-30.6305C39.8601-30.8185 39.9521-30.9745 40.0241-31.1505C40.3041-31.8265 40.5761-32.5065 40.8481-33.1904C40.9761-33.5144 41.0881-33.8704 41.2201-34.1824C41.3721-34.5464 41.5161-34.9464 41.7121-35.2144C41.9641-35.5584 42.0681-36.0664 42.2521-36.4744C42.3121-36.6024 42.3961-36.6944 42.4641-36.8144C42.7201-37.2744 42.9681-37.7464 43.2241-38.1944C43.5041-38.6744 43.8001-39.1304 44.0841-39.6064C44.3081-39.9784 44.5241-40.3664 44.7441-40.7464C44.8081-40.8504 44.8841-40.9344 44.9441-41.0384C45.2281-41.5064 45.5121-41.9704 45.7841-42.4544C45.9721-42.7824 46.1321-43.1584 46.3161-43.4864C46.5041-43.8264 46.7081-44.1424 46.9121-44.4584C46.9601-44.5344 47.0281-44.5664 47.0721-44.6384L47.7641-45.7463L48.7241-47.2663C48.8921-47.5303 49.0561-47.8143 49.2321-48.0663C49.5081-48.4663 49.7921-48.8383 50.0721-49.2183C50.1921-49.3783 50.3121-49.5463 50.4401-49.6823C50.6721-49.9263 50.9201-50.1343 51.1441-50.3943C51.4681-50.7583 51.7801-51.1543 52.0961-51.5383C52.328-51.8183 52.568-52.0823 52.792-52.3863C53.032-52.7063 53.252-53.0663 53.476-53.4063C53.496-53.4343 53.508-53.4863 53.532-53.5103C53.868-53.8463 54.02-54.4703 54.24-54.9903C54.448-55.4943 54.696-55.9503 54.888-56.4703C55.048-56.9103 55.24-57.3303 55.308-57.8743C55.332-58.0823 55.412-58.2703 55.468-58.4663C55.488-58.5263 55.528-58.5783 55.528-58.6383C55.556-59.1783 55.828-59.4742 55.916-59.9502C55.98-60.3182 56.052-60.6822 56.108-61.0582C56.236-61.8822 56.292-62.7582 56.588-63.4702C56.708-63.7502 56.864-63.9822 57.004-64.2302C57.156-64.5102 57.304-64.7902 57.464-65.0502C57.632-65.3262 57.808-65.5982 57.992-65.8382C58.184-66.0862 58.396-66.2782 58.592-66.5182C58.856-66.8262 59.136-66.9662 59.452-66.9662C59.852-66.9662 60.252-67.0142 60.652-67.0306C60.84-67.0342 61.028-67.0062 61.212-66.9902C61.444-66.9742 61.676-66.9742 61.9-66.9262C62.012-66.9022 62.12-66.7942 62.224-66.7062C62.504-66.4742 62.784-66.2542 63.056-65.9862C63.3667-65.686 63.5847-65.3028 63.684-64.8822C63.716-64.7502 63.804-64.6262 63.88-64.5622C64.12-64.3622 64.368-64.2222 64.6-64.0022C64.808-63.8142 65.04-63.6262 65.176-63.3142C65.312-62.9942 65.356-62.5342 65.412-62.1222C65.436-61.9622 65.36-61.8262 65.236-61.8582C65.088-61.8982 64.932-61.9782 64.796-61.9222C64.428-61.7662 64.1-61.5382 63.876-60.8862C63.616-60.1222 63.296-59.4262 62.992-58.7103C62.64-57.8863 62.272-57.0863 61.936-56.2503C61.741-55.7683 61.6937-55.2392 61.8-54.7303C61.9-54.2903 62.056-53.8823 62.196-53.4743C62.396-52.8863 62.612-52.3223 62.804-51.7303C63.02-51.0743 63.24-50.4103 63.412-49.7183C63.572-49.0783 63.7-48.4103 63.784-47.7303C63.928-46.5703 64.028-45.3943 64.132-44.2184C64.176-43.7144 64.184-43.2024 64.212-42.6944C64.232-42.3424 64.284-41.9864 64.272-41.6384C64.248-40.6864 64.196-39.7344 64.16-38.7824C64.132-38.1064 64.12-37.4264 64.072-36.7624C64.032-36.2984 63.94-35.8504 63.86-35.4024C63.597-33.8974 63.2943-32.3995 62.952-30.9105C62.808-30.2985 62.632-29.7025 62.448-29.1305C62.328-28.7745 62.156-28.4825 62.024-28.1425C61.908-27.8545 61.824-27.5225 61.704-27.2345C61.516-26.7785 61.312-26.3465 61.112-25.9025C61.072-25.8105 61.024-25.7265 60.976-25.6385C60.696-25.0785 60.416-24.5185 60.144-23.9465C60.024-23.7065 59.94-23.4105 59.816-23.1825C59.644-22.8665 59.456-22.5825 59.272-22.3025C58.9883-21.8852 58.6947-21.4742 58.392-21.0705C58.152-20.7425 57.892-20.4465 57.64-20.1305C57.364-19.7865 57.096-19.4225 56.816-19.0905C56.516-18.7305 56.212-18.3785 55.896-18.0505C55.696-17.8385 55.488-17.6505 55.272-17.4905C55.06-17.3345 54.832-17.2305 54.612-17.0905C54.46-16.9985 54.3-16.9105 54.164-16.7665C53.984-16.5785 53.956-16.1185 54.04-15.6785C54.176-14.9705 54.296-14.2585 54.424-13.5465C54.436-13.4905 54.464-13.4425 54.472-13.3865C54.508-13.1385 54.56-12.8945 54.568-12.6465C54.576-12.3346 54.724-12.1346 54.896-12.1826C55.096-12.2306 55.208-12.4546 55.304-12.7105C55.3587-12.8732 55.446-13.0229 55.561-13.1502C55.676-13.2775 55.8157-13.3795 55.972-13.4505C56.212-13.5825 56.464-13.6265 56.712-13.7305C56.816-13.7705 56.908-13.8705 57.008-13.6905C57.072-13.5825 57.064-13.5505 56.992-13.4785C56.956-13.4385 56.936-13.3465 56.912-13.2785C56.88-13.1905 56.86-13.0785 56.82-13.0305C56.66-12.8625 56.5-12.7265 56.34-12.5625C56.304-12.5226 56.284-12.4346 56.26-12.3706C56.3-12.3426 56.356-12.2746 56.396-12.2906C56.5257-12.3549 56.6467-12.4356 56.756-12.5306C57.456-13.1305 58.156-13.7425 58.852-14.3505C58.9543-14.4389 59.0557-14.5282 59.156-14.6185C59.312-14.7625 59.528-14.6865 59.652-14.4585C59.7-14.3705 59.768-14.3145 59.788-14.2905C59.476-13.8785 59.16-13.4345 58.828-13.0225C58.532-12.6545 58.228-12.2986 57.92-11.9746C57.6444-11.6879 57.3504-11.4192 57.04-11.1706C56.776-10.9586 56.496-10.8026 56.228-10.6186C56.0757-10.5159 55.9264-10.4092 55.78-10.2986C55.756-10.2826 55.74-10.2146 55.724-10.1706C55.76-10.1506 55.796-10.1066 55.828-10.1146L56.56-10.3906L57.836-10.8306C58.076-10.9066 58.304-11.1106 58.576-10.9906C58.736-10.9266 58.92-11.0986 59.096-11.1466C59.136-11.1546 59.184-11.0946 59.232-11.0666C59.192-11.0026 59.16-10.9346 59.116-10.8866C59.04-10.7906 58.964-10.6626 58.876-10.6226C58.716-10.5426 58.544-10.5426 58.384-10.4586C58.224-10.3746 58.076-10.2186 57.924-10.0986C57.864-10.0526 57.7997-10.0126 57.732-9.97856C57.372-9.79456 57.012-9.60656 56.648-9.43057C56.344-9.28657 56.04-9.16257 55.74-9.02257C55.7-9.00257 55.66-8.94257 55.62-8.90257C55.58-8.87057 55.54-8.79457 55.5-8.80657C55.288-8.88657 55.08-8.76657 54.868-8.77457C54.848-8.77457 54.828-8.80657 54.808-8.81857C54.608-8.97057 54.42-9.18257 54.212-9.25857C53.912-9.36657 53.612-9.32657 53.344-8.95857C53.0907-8.60224 52.8127-8.2639 52.512-7.94657C52.376-7.80657 52.2001-7.78657 52.0361-7.73857C51.9561-7.71057 51.8761-7.73457 51.7761-7.78657C51.9121-7.92257 52.0441-8.07457 52.1841-8.19857C52.404-8.38657 52.556-8.63457 52.6-9.11057C52.634-9.3679 52.7167-9.61623 52.844-9.84256C53.0224-10.1682 53.2214-10.4822 53.44-10.7826C53.652-11.0826 53.552-11.4546 53.52-11.7866C53.483-12.1069 53.4217-12.4236 53.336-12.7345C53.284-12.9385 53.2-13.1185 53.128-13.3065C53.116-13.3385 53.088-13.3865 53.08-13.3865C52.92-13.3345 52.94-13.5865 52.884-13.7305C52.8337-13.8832 52.7534-14.0249 52.648-14.1465C52.468-14.3345 52.436-14.4665 52.488-14.8265C52.516-15.0305 52.508-15.2545 52.508-15.4745C52.508-15.5145 52.484-15.5825 52.464-15.5905C52.1641-15.6825 51.8641-15.8505 51.5641-15.8385C51.2441-15.8265 50.9241-15.6505 50.6121-15.5345C50.1974-15.3415 49.8394-15.0455 49.5721-14.6745C49.4841-14.5705 49.4361-14.3505 49.3841-14.1705C49.3241-13.9625 49.2761-13.7385 49.2241-13.5225C49.1281-13.1345 49.0161-12.7625 48.9401-12.3626C48.8617-11.9779 48.8057-11.5896 48.7721-11.1986C48.7281-10.6106 48.7561-9.99456 48.6721-9.43057C48.6001-8.93457 48.5881-8.44257 48.5641-7.95057C48.5441-7.55058 48.6241-7.35858 48.8361-7.37858C49.2281-7.41058 49.6241-7.45858 50.0121-7.54658C50.2681-7.60257 50.5201-7.73857 50.7721-7.82657C50.8521-7.85857 51.0681-7.53058 51.0601-7.38658C51.0601-7.33058 51.0201-7.25458 50.9881-7.23858C50.7601-7.10658 50.5241-6.99458 50.2961-6.86258C50.0041-6.69458 49.7161-6.51458 49.4241-6.34258C49.3641-6.31058 49.2961-6.30258 49.2401-6.24658C49.1881-6.19858 49.1441-6.11058 49.0961-6.03858C49.1441-5.95858 49.1881-5.81058 49.2401-5.79858C49.4321-5.76658 49.6321-5.75858 49.8241-5.76658C49.9761-5.77858 50.1281-5.85858 50.2801-5.87058C50.3681-5.87858 50.4601-5.78658 50.5481-5.79858C50.6841-5.81458 50.8161-5.89458 50.9521-5.91858C51.0321-5.93458 51.1281-5.94658 51.1801-5.87458C51.3281-5.66658 51.4721-5.67858 51.6481-5.71858C51.9921-5.79858 52.344-5.79858 52.696-5.82658C52.94-5.84658 53.184-5.86658 53.432-5.86658C53.472-5.87058 53.512-5.79458 53.54-5.76258L53.716-5.78658L53.74-5.67858C53.564-5.49459 53.396-5.25859 53.208-5.13859C52.384-4.61859 51.5281-4.35459 50.6561-4.35059C50.5561-4.35059 50.4561-4.32659 50.3601-4.31059C50.3481-4.31059 50.3321-4.29459 50.2641-4.25859C50.3721-4.20659 50.4281-4.16659 50.4921-4.15059C50.7001-4.09059 50.9201-4.08659 51.1161-3.96659C51.4081-3.78659 51.6841-3.5266 51.9641-3.2986C51.9841-3.2826 52.0121-3.2266 52.0081-3.1986C52.0081-3.1546 51.9801-3.0906 51.9601-3.0786C51.8981-3.04693 51.8297-3.0306 51.7601-3.0306C51.4041-3.0506 51.0521-3.0346 50.7041-3.1186C50.3721-3.1986 50.0521-3.3906 49.7281-3.5186C49.6481-3.55859 49.5521-3.5306 49.4721-3.5706C49.0161-3.78659 48.5601-4.01859 48.1041-4.24259C48.0761-4.25859 48.0361-4.29859 48.0201-4.28259C47.8801-4.09459 47.8201-4.32259 47.7561-4.45859C47.5974-4.78359 47.4481-5.11292 47.3081-5.44659C47.2761-5.53059 47.2801-5.67058 47.2641-5.78658C47.2361-5.98258 47.1601-6.01058 47.0681-5.95858C46.8561-5.83458 46.6481-5.70258 46.4361-5.58658C46.3761-5.55059 46.3041-5.53059 46.2441-5.54659C46.0174-5.61092 45.7954-5.69092 45.5801-5.78658C45.5121-5.82258 45.4521-5.94258 45.3961-6.04258C45.3881-6.06258 45.4201-6.21058 45.4481-6.23458C45.7201-6.45458 46.0001-6.64258 46.2681-6.87858C46.5207-7.10724 46.7574-7.35324 46.9761-7.61457C47.1667-7.80924 47.2854-8.06324 47.3121-8.33457C47.3361-8.57057 47.3601-8.80257 47.3641-9.03457C47.3641-9.45857 47.3321-9.88256 47.3521-10.2986C47.3634-10.6039 47.2961-10.9069 47.1561-11.1786C47.0081-11.5066 47.0361-12.0106 47.2521-12.1266C47.5481-12.2826 47.5921-12.7105 47.6041-13.1065C47.6201-13.9465 47.5801-14.7945 47.5801-15.6385C47.5801-15.9465 47.6201-16.2585 47.8081-16.4185C47.9241-16.5185 47.8721-16.6265 47.7961-16.6905C47.4961-16.9305 47.1961-17.1625 46.9001-17.4065C46.8201-17.4705 46.7401-17.5665 46.6641-17.6465C46.6441-17.6705 46.6281-17.7065 46.6081-17.7185C46.3481-17.8985 46.0961-18.1185 45.8281-18.2385C45.5361-18.3625 45.2281-18.3945 44.9241-18.4545C44.6121-18.5185 44.3001-18.5585 43.9881-18.6225C43.9161-18.6385 43.8481-18.7425 43.7761-18.7545C43.5558-18.7979 43.3324-18.8245 43.1081-18.8345C42.7641-18.8425 42.4241-18.8305 42.0801-18.8265L42.0121-18.8225C41.7321-18.7145 41.4481-18.6025 41.1641-18.5065C40.9721-18.4425 40.7761-18.4105 40.5841-18.3665C40.2241-18.2825 39.8641-18.2145 39.5041-18.1105C39.1521-18.0105 38.7962-17.8705 38.4442-17.7585C38.3922-17.7425 38.3362-17.7585 38.2842-17.7505C38.0442-17.7265 37.7962-17.7185 37.5522-17.6665C37.3555-17.6229 37.1647-17.5559 36.9842-17.4665C36.9042-17.4265 36.8242-17.3145 36.7482-17.2265C36.3882-16.8305 36.0242-16.4385 35.6682-16.0265C35.5802-15.9265 35.5202-15.7465 35.4362-15.6225C35.3534-15.4902 35.2539-15.3692 35.1402-15.2625C35.0002-15.1425 34.8442-15.0705 34.7002-14.9625C34.5002-14.8185 34.3122-14.6585 34.1162-14.5065C34.0805-14.4772 34.0377-14.4579 33.9922-14.4505C33.9442-14.4465 33.8922-14.4665 33.8442-14.4785C33.5642-14.5265 33.4682-14.6905 33.4162-15.2065C33.4106-15.2839 33.4215-15.3615 33.4482-15.4345C33.6562-15.9425 33.8722-16.4505 34.0842-16.9545L34.3482-17.5905C34.3602-17.6225 34.3722-17.6625 34.3882-17.6865C34.5682-17.9825 34.7482-18.2665 34.9242-18.5665C34.9962-18.6945 35.0362-18.8785 35.1082-19.0065C35.2202-19.2185 35.3482-19.4025 35.4642-19.6025C35.5442-19.7345 35.6242-19.8705 35.6962-20.0185C35.9962-20.6265 36.3002-21.2385 36.5962-21.8585C36.6762-22.0265 36.7362-22.2265 36.8042-22.4105C36.8202-22.4505 36.8242-22.5185 36.8442-22.5305C37.1562-22.7545 37.2322-23.3305 37.3962-23.7625C37.6122-24.3345 37.7842-24.9745 37.9842-25.5705C38.1162-25.9625 38.2722-26.3225 38.4082-26.7065C38.7282-27.5745 39.0361-28.4505 39.3481-29.3225L39.7481-30.4345C39.7681-30.5025 39.7601-30.6025 39.7641-30.6345L39.7641-30.6305Z"/>
   <path class="monochrome-1 multicolor-1:tintColor hierarchical-1:tertiary SFSymbolsPreviewWireframe" d="M48.9411-84C55.3091-84.0013 61.615-82.7479 67.4985-80.3116C73.382-77.8752 78.7279-74.3036 83.2305-69.8009C87.7334-65.2983 91.305-59.9524 93.7418-54.0682C96.1779-48.1846 97.4312-41.8789 97.43-35.5124C97.43-8.72255 75.7254 13 48.9424 13C22.156 13 0.43-8.726 0.43-35.5124C0.43-62.2926 22.1539-84 48.9411-84ZM48.9424-70C29.8835-70 14.43-54.5582 14.43-35.5124C14.43-16.458 29.888-0.999999 48.9424-0.999999C67.9909-0.999999 83.43-16.4519 83.43-35.5138C83.4309-40.0428 82.5395-44.5276 80.8069-48.7121C79.0739-52.8969 76.5337-56.6989 73.3311-59.9013C70.1287-63.1038 66.3266-65.644 62.1422-67.3767C57.9578-69.1095 53.4729-70.0009 48.9424-70Z"/>
  </g>
  <g id="Regular-S" transform="matrix(1 0 0 1 1403.58 696)">
   <path class="monochrome-0 multicolor-0:tintColor hierarchical-0:primary SFSymbolsPreviewWireframe" d="M36.1602-31.3596C36.2621-31.5592 36.3597-31.7248 36.4362-31.9116C36.7334-32.6292 37.0221-33.3511 37.3109-34.0772C37.4467-34.4211 37.5656-34.799 37.7058-35.1302C37.8671-35.5166 38.02-35.9412 38.228-36.2257C38.4955-36.5909 38.6059-37.1301 38.8013-37.5633C38.865-37.6991 38.9541-37.7968 39.0263-37.9242C39.2981-38.4125 39.5613-38.9135 39.8331-39.3891C40.1303-39.8986 40.4445-40.3827 40.746-40.888C40.9838-41.2829 41.2131-41.6948 41.4466-42.0981C41.5146-42.2085 41.5952-42.2977 41.6589-42.4081C41.9604-42.9049 42.2619-43.3975 42.5506-43.9113C42.7502-44.2594 42.92-44.6586 43.1154-45.0068C43.3149-45.3677 43.5315-45.7031 43.748-46.0386C43.799-46.1193 43.8712-46.1532 43.9179-46.2297L44.6525-47.4058L45.6715-49.0193C45.8499-49.2995 46.024-49.601 46.2108-49.8685C46.5038-50.2931 46.8053-50.688 47.1025-51.0914C47.2299-51.2613 47.3573-51.4396 47.4931-51.584C47.7394-51.843 48.0027-52.0638 48.2405-52.3398C48.5844-52.7262 48.9156-53.1466 49.2511-53.5542C49.4973-53.8514 49.7521-54.1317 49.9899-54.4544C50.2447-54.7941 50.4782-55.1762 50.716-55.5371C50.7372-55.5669 50.7499-55.6221 50.7754-55.6475C51.1321-56.0042 51.2935-56.6666 51.527-57.2186C51.7478-57.7536 52.0111-58.2377 52.2149-58.7897C52.3847-59.2568 52.5885-59.7026 52.6607-60.2801C52.6862-60.5009 52.7711-60.7005 52.8306-60.9085C52.8518-60.9722 52.8943-61.0274 52.8943-61.0911C52.924-61.6643 53.2127-61.9786 53.3061-62.4839C53.3741-62.8745 53.4505-63.2609 53.5099-63.66C53.6458-64.5347 53.7053-65.4647 54.0195-66.2205C54.1469-66.5177 54.3125-66.764 54.4611-67.0272C54.6224-67.3245 54.7795-67.6217 54.9494-67.8977C55.1277-68.1907 55.3146-68.4794 55.5099-68.7342C55.7137-68.9975 55.9387-69.2013 56.1468-69.456C56.4271-69.783 56.7243-69.9316 57.0597-69.9316C57.4843-69.9316 57.909-69.9826 58.3336-70C58.5331-70.0038 58.7327-69.9741 58.928-69.9571C59.1743-69.9401 59.4206-69.9401 59.6584-69.8891C59.7773-69.8637 59.8919-69.749 60.0023-69.6556C60.2995-69.4093 60.5968-69.1758 60.8855-68.8913C61.2153-68.5726 61.4467-68.1658 61.5522-67.7194C61.5861-67.5792 61.6795-67.4476 61.7602-67.3797C62.015-67.1674 62.2783-67.0187 62.5245-66.7852C62.7453-66.5856 62.9916-66.3861 63.136-66.0549C63.2803-65.7152 63.3271-65.2269 63.3865-64.7895C63.412-64.6197 63.3313-64.4753 63.1997-64.5093C63.0426-64.5517 62.877-64.6367 62.7326-64.5772C62.3419-64.4116 61.9938-64.1696 61.756-63.4775C61.48-62.6664 61.1403-61.9276 60.8176-61.1675C60.4439-60.2928 60.0533-59.4436 59.6966-58.5562C59.4896-58.0445 59.4393-57.4829 59.5522-56.9426C59.6584-56.4755 59.824-56.0424 59.9726-55.6093C60.1849-54.9851 60.4142-54.3864 60.618-53.758C60.8473-53.0616 61.0808-52.3568 61.2634-51.6222C61.4333-50.9428 61.5691-50.2337 61.6583-49.5119C61.8112-48.2805 61.9173-47.0321 62.0277-45.7838C62.0744-45.2488 62.0829-44.7053 62.1127-44.166C62.1339-43.7924 62.1891-43.4145 62.1763-43.045C62.1509-42.0345 62.0957-41.0239 62.0575-40.0133C62.0277-39.2957 62.015-38.5738 61.964-37.869C61.9216-37.3764 61.8239-36.9009 61.739-36.4253C61.4598-34.8277 61.1385-33.2375 60.7751-31.6569C60.6223-31.0072 60.4354-30.3745 60.2401-29.7673C60.1127-29.3894 59.9301-29.0794 59.79-28.7185C59.6669-28.4128 59.5777-28.0604 59.4503-27.7546C59.2507-27.2706 59.0342-26.812 58.8219-26.3407C58.7794-26.243 58.7285-26.1538 58.6775-26.0604C58.3803-25.466 58.0831-24.8715 57.7943-24.2643C57.6669-24.0095 57.5778-23.6953 57.4461-23.4533C57.2635-23.1178 57.064-22.8164 56.8687-22.5191C56.5675-22.0761 56.2558-21.6398 55.9345-21.2113C55.6797-20.8631 55.4037-20.5489 55.1362-20.2135C54.8432-19.8483 54.5587-19.4619 54.2615-19.1095C53.9431-18.7273 53.6203-18.3537 53.2849-18.0055C53.0726-17.7804 52.8518-17.5809 52.6225-17.411C52.3975-17.2454 52.1554-17.135 51.9219-16.9864C51.7605-16.8887 51.5907-16.7953 51.4463-16.6425C51.2552-16.4429 51.2255-15.9546 51.3147-15.4875C51.4591-14.7359 51.5864-13.9801 51.7223-13.2243C51.7351-13.1649 51.7648-13.1139 51.7733-13.0545C51.8115-12.7912 51.8667-12.5322 51.8752-12.2689C51.8837-11.9377 52.0408-11.7254 52.2234-11.7764C52.4357-11.8273 52.5546-12.0651 52.6565-12.3369C52.7145-12.5095 52.8072-12.6684 52.9293-12.8036C53.0514-12.9387 53.1996-13.047 53.3656-13.1224C53.6203-13.2625 53.8879-13.3092 54.1511-13.4196C54.2615-13.4621 54.3592-13.5682 54.4653-13.3772C54.5333-13.2625 54.5248-13.2285 54.4483-13.1521C54.4101-13.1097 54.3889-13.012 54.3634-12.9398C54.3295-12.8464 54.3082-12.7275 54.2658-12.6765C54.0959-12.4982 53.9261-12.3538 53.7562-12.1797C53.718-12.1373 53.6968-12.0439 53.6713-11.9759C53.7138-11.9462 53.7732-11.874 53.8157-11.891C53.9533-11.9593 54.0818-12.0449 54.1978-12.1458C54.9409-12.7827 55.684-13.4324 56.4228-14.0778C56.5314-14.1715 56.639-14.2664 56.7455-14.3623C56.9111-14.5151 57.1404-14.4345 57.272-14.1924C57.323-14.099 57.3952-14.0396 57.4164-14.0141C57.0852-13.5767 56.7498-13.1054 56.3973-12.6681C56.0831-12.2774 55.7604-11.8995 55.4335-11.5556C55.1408-11.2513 54.8287-10.9661 54.4993-10.7021C54.2191-10.477 53.9218-10.3114 53.6373-10.1161C53.4756-10.0071 53.3171-9.8939 53.1618-9.77642C53.1363-9.75943 53.1193-9.68725 53.1023-9.64054C53.1405-9.61931 53.1787-9.5726 53.2127-9.5811L53.9898-9.87408L55.3443-10.3412C55.5991-10.4218 55.8411-10.6384 56.1298-10.511C56.2997-10.4431 56.495-10.6257 56.6818-10.6766C56.7243-10.6851 56.7752-10.6214 56.8262-10.5917C56.7837-10.5237 56.7498-10.4516 56.7031-10.4006C56.6224-10.2987 56.5417-10.1628 56.4483-10.1204C56.2784-10.0354 56.0959-10.0354 55.926-9.94627C55.7562-9.8571 55.5991-9.6915 55.4377-9.56411C55.374-9.51528 55.3057-9.47282 55.2339-9.43673C54.8517-9.2414 54.4696-9.04183 54.0832-8.855C53.7605-8.70214 53.4378-8.57051 53.1193-8.4219C53.0768-8.40067 53.0344-8.33697 52.9919-8.29451C52.9495-8.26054 52.907-8.17987 52.8645-8.1926C52.6395-8.27753 52.4187-8.15014 52.1936-8.15863C52.1724-8.15863 52.1512-8.1926 52.1299-8.20534C51.9176-8.3667 51.7181-8.59174 51.4973-8.67242C51.1788-8.78707 50.8603-8.7446 50.5759-8.35396C50.3069-7.9757 50.0118-7.61654 49.6927-7.27968C49.5483-7.13107 49.3615-7.10983 49.1874-7.05888C49.1024-7.02916 49.0175-7.05463 48.9114-7.10983C49.0557-7.2542 49.1959-7.41556 49.3445-7.54719C49.578-7.74676 49.7394-8.01002 49.7861-8.51531C49.8222-8.78848 49.9099-9.0521 50.0451-9.29236C50.2344-9.63807 50.4456-9.97139 50.6778-10.2902C50.9028-10.6087 50.7967-11.0036 50.7627-11.356C50.7234-11.696 50.6583-12.0322 50.5674-12.3623C50.5122-12.5789 50.423-12.77 50.3466-12.9695C50.3338-13.0035 50.3041-13.0545 50.2956-13.0545C50.1258-12.9993 50.147-13.2668 50.0875-13.4196C50.0341-13.5817 49.9488-13.7321 49.837-13.8612C49.6459-14.0608 49.612-14.2009 49.6672-14.5831C49.6969-14.7996 49.6884-15.0374 49.6884-15.2709C49.6884-15.3134 49.6629-15.3856 49.6417-15.3941C49.3232-15.4917 49.0048-15.6701 48.6863-15.6573C48.3466-15.6446 48.0069-15.4578 47.6757-15.3346C47.2355-15.1298 46.8555-14.8155 46.5717-14.4217C46.4783-14.3113 46.4274-14.0778 46.3722-13.8867C46.3085-13.6659 46.2575-13.4281 46.2023-13.1988C46.1004-12.7869 45.9815-12.3921 45.9008-11.9674C45.8177-11.5591 45.7582-11.1469 45.7225-10.7318C45.6758-10.1076 45.7055-9.45371 45.6163-8.855C45.5399-8.32848 45.5272-7.8062 45.5017-7.28393C45.4805-6.85931 45.5654-6.6555 45.7904-6.67673C46.2066-6.7107 46.6269-6.76165 47.0388-6.85507C47.3106-6.91451 47.5781-7.05888 47.8456-7.1523C47.9305-7.18627 48.1598-6.83808 48.1513-6.68522C48.1513-6.62577 48.1088-6.5451 48.0749-6.52811C47.8328-6.38799 47.5823-6.2691 47.3403-6.12897C47.0303-5.95063 46.7246-5.75956 46.4146-5.57697C46.3509-5.543 46.2787-5.53451 46.2193-5.47507C46.1641-5.42411 46.1174-5.3307 46.0664-5.25427C46.1174-5.16934 46.1641-5.01223 46.2193-4.9995C46.4231-4.96553 46.6354-4.95703 46.8392-4.96553C47.0006-4.97827 47.1619-5.06319 47.3233-5.07593C47.4167-5.08442 47.5144-4.98676 47.6078-4.9995C47.7522-5.01648 47.8923-5.1014 48.0367-5.12688C48.1216-5.14387 48.2235-5.1566 48.2787-5.08017C48.4358-4.85937 48.5887-4.87211 48.7755-4.91457C49.1407-4.9995 49.5143-4.9995 49.888-5.02922C50.147-5.05045 50.406-5.07168 50.6693-5.07168C50.7117-5.07593 50.7542-4.99525 50.7839-4.96128L50.9707-4.98676L50.9962-4.87211C50.8094-4.67679 50.6311-4.42627 50.4315-4.29888C49.5568-3.74688 48.6481-3.46663 47.7224-3.46239C47.6163-3.46239 47.5101-3.43691 47.4082-3.41993C47.3955-3.41993 47.3785-3.40294 47.3063-3.36473C47.421-3.30953 47.4804-3.26707 47.5483-3.25008C47.7691-3.18639 48.0027-3.18214 48.2107-3.05476C48.5207-2.86368 48.8137-2.58768 49.1109-2.34565C49.1322-2.32867 49.1619-2.26922 49.1576-2.2395C49.1576-2.19279 49.1279-2.12485 49.1067-2.11211C49.0409-2.0785 48.9683-2.06116 48.8944-2.06116C48.5165-2.08239 48.1428-2.0654 47.7734-2.15457C47.421-2.2395 47.0813-2.44331 46.7373-2.57919C46.6524-2.62165 46.5505-2.59193 46.4656-2.63439C45.9815-2.86368 45.4975-3.10996 45.0134-3.34774C44.9837-3.36473 44.9412-3.40719 44.9242-3.3902C44.7756-3.19063 44.7119-3.43267 44.644-3.57703C44.4755-3.92203 44.317-4.27163 44.1684-4.62583C44.1344-4.715 44.1387-4.86362 44.1217-4.98676C44.092-5.19482 44.0113-5.22454 43.9136-5.16934C43.6886-5.03771 43.4678-4.89759 43.2427-4.77445C43.1791-4.73623 43.1026-4.715 43.0389-4.73199C42.7983-4.80028 42.5627-4.8852 42.3341-4.98676C42.2619-5.02497 42.1982-5.15236 42.1387-5.25851C42.1303-5.27974 42.1642-5.43685 42.1939-5.46233C42.4827-5.69587 42.7799-5.89543 43.0644-6.14596C43.3326-6.3887 43.5839-6.64983 43.816-6.92725C44.0184-7.1339 44.1443-7.40353 44.1727-7.69156C44.1981-7.94208 44.2236-8.18836 44.2279-8.43463C44.2279-8.88473 44.1939-9.33482 44.2151-9.77642C44.2271-10.1005 44.1557-10.4222 44.0071-10.7106C43.8499-11.0588 43.8797-11.5938 44.109-11.7169C44.4232-11.8825 44.4699-12.3369 44.4826-12.7572C44.4996-13.6489 44.4571-14.5491 44.4571-15.445C44.4571-15.772 44.4996-16.1032 44.6992-16.273C44.8223-16.3792 44.7671-16.4938 44.6864-16.5618C44.368-16.8165 44.0495-17.0628 43.7353-17.3218C43.6504-17.3898 43.5655-17.4917 43.4848-17.5766C43.4635-17.6021 43.4466-17.6403 43.4253-17.653C43.1493-17.8441 42.8818-18.0777 42.5973-18.205C42.2874-18.3367 41.9604-18.3706 41.6377-18.4343C41.3065-18.5023 40.9753-18.5447 40.6441-18.6127C40.5677-18.6297 40.4955-18.7401 40.4191-18.7528C40.1852-18.7988 39.9481-18.8271 39.7099-18.8377C39.3448-18.8462 38.9839-18.8335 38.6187-18.8292L38.5465-18.825C38.2493-18.7103 37.9478-18.5914 37.6463-18.4895C37.4425-18.4216 37.2344-18.3876 37.0306-18.3409C36.6485-18.2517 36.2663-18.1796 35.8842-18.0692C35.5105-17.963 35.1326-17.8144 34.759-17.6955C34.7038-17.6785 34.6443-17.6955 34.5891-17.687C34.3344-17.6615 34.0711-17.653 33.8121-17.5978C33.6033-17.5515 33.4008-17.4804 33.2091-17.3855C33.1242-17.3431 33.0393-17.2242 32.9586-17.1308C32.5764-16.7104 32.19-16.2943 31.8121-15.8569C31.7187-15.7508 31.655-15.5597 31.5659-15.4281C31.478-15.2876 31.3724-15.1591 31.2516-15.0459C31.103-14.9185 30.9374-14.8421 30.7846-14.7274C30.5723-14.5746 30.3727-14.4047 30.1646-14.2434C30.1268-14.2122 30.0814-14.1917 30.033-14.1839C29.982-14.1797 29.9268-14.2009 29.8759-14.2137C29.5787-14.2646 29.4768-14.4387 29.4216-14.9865C29.4156-15.0685 29.4272-15.151 29.4555-15.2285C29.6763-15.7677 29.9056-16.307 30.1307-16.842L30.4109-17.5172C30.4236-17.5511 30.4364-17.5936 30.4534-17.6191C30.6444-17.9333 30.8355-18.2348 31.0224-18.5532C31.0988-18.6891 31.1412-18.8844 31.2177-19.0203C31.3366-19.2453 31.4724-19.4407 31.5956-19.653C31.6805-19.7931 31.7654-19.9375 31.8419-20.0946C32.1603-20.74 32.483-21.3897 32.7972-22.0478C32.8822-22.2261 32.9459-22.4385 33.018-22.6338C33.035-22.6762 33.0393-22.7484 33.0605-22.7612C33.3917-22.9989 33.4724-23.6104 33.6465-24.069C33.8758-24.6762 34.0584-25.3556 34.2707-25.9882C34.4108-26.4044 34.5764-26.7865 34.7208-27.1941C35.0604-28.1156 35.3874-29.0455 35.7186-29.9711L36.1432-31.1516C36.1644-31.2237 36.1559-31.3299 36.1602-31.3639L36.1602-31.3596Z"/>
   <path class="monochrome-1 multicolor-1:tintColor hierarchical-1:tertiary SFSymbolsPreviewWireframe" d="M46.4321-81.8365C52.4502-81.8377 58.4096-80.6532 63.9698-78.3508C69.53-76.0483 74.5822-72.6729 78.8374-68.4176C83.0928-64.1624 86.4682-59.1103 88.771-53.5496C91.0733-47.9892 92.2577-42.03 92.2566-36.0127C92.2566-10.693 71.744 9.83658 46.4328 9.83658C21.1173 9.83658 0.5835-10.6972 0.5835-36.0127C0.5835-61.3211 21.1145-81.8365 46.4321-81.8365ZM46.4328-75.0865C24.8413-75.0865 7.3335-57.592 7.3335-36.0127C7.3335-14.4252 24.8452 3.08658 46.4328 3.08658C68.0148 3.08658 85.5066-14.4197 85.5066-36.0133C85.5076-41.1447 84.4976-46.226 82.5345-50.9672C80.571-55.7085 77.693-60.0162 74.0644-63.6446C70.4361-67.273 66.1283-70.1511 61.3873-72.1143C56.6463-74.0776 51.5649-75.0875 46.4328-75.0865Z"/>
  </g>
  <g id="Ultralight-S" transform="matrix(1 0 0 1 515.649 696)">
   <path class="monochrome-0 multicolor-0:tintColor hierarchical-0:primary SFSymbolsPreviewWireframe" d="M34.0912-32.3596C34.1931-32.5592 34.2907-32.7248 34.3672-32.9116C34.6644-33.6292 34.9531-34.3511 35.2419-35.0772C35.3777-35.4211 35.4966-35.799 35.6368-36.1302C35.7981-36.5166 35.951-36.9412 36.159-37.2257C36.4265-37.5909 36.5369-38.1301 36.7323-38.5633C36.796-38.6991 36.8851-38.7968 36.9573-38.9242C37.2291-39.4125 37.4923-39.9135 37.7641-40.3891C38.0613-40.8986 38.3755-41.3827 38.677-41.888C38.9148-42.2829 39.1441-42.6948 39.3776-43.0981C39.4456-43.2085 39.5262-43.2977 39.5899-43.4081C39.8914-43.9049 40.1929-44.3975 40.4816-44.9113C40.6812-45.2594 40.851-45.6586 41.0464-46.0068C41.2459-46.3677 41.4625-46.7031 41.679-47.0386C41.73-47.1193 41.8022-47.1532 41.8489-47.2297L42.5835-48.4058L43.6025-50.0193C43.7809-50.2995 43.955-50.601 44.1418-50.8685C44.4348-51.2931 44.7363-51.688 45.0335-52.0914C45.1609-52.2613 45.2883-52.4396 45.4241-52.584C45.6704-52.843 45.9337-53.0638 46.1715-53.3398C46.5154-53.7262 46.8466-54.1466 47.1821-54.5542C47.4283-54.8514 47.6831-55.1317 47.9209-55.4544C48.1757-55.7941 48.4092-56.1762 48.647-56.5371C48.6682-56.5669 48.6809-56.6221 48.7064-56.6475C49.0631-57.0042 49.2245-57.6666 49.458-58.2186C49.6788-58.7536 49.9421-59.2377 50.1459-59.7897C50.3157-60.2568 50.5195-60.7026 50.5917-61.2801C50.6172-61.5009 50.7021-61.7005 50.7616-61.9085C50.7828-61.9722 50.8253-62.0274 50.8253-62.0911C50.855-62.6643 51.1437-62.9786 51.2371-63.4839C51.3051-63.8745 51.3815-64.2609 51.4409-64.66C51.5768-65.5347 51.6363-66.4647 51.9505-67.2205C52.0779-67.5177 52.2435-67.764 52.3921-68.0272C52.5534-68.3245 52.7105-68.6217 52.8804-68.8977C53.0587-69.1907 53.2456-69.4794 53.4409-69.7342C53.6447-69.9975 53.8697-70.2013 54.0778-70.456C54.3581-70.783 54.6553-70.9316 54.9907-70.9316C55.4153-70.9316 55.84-70.9826 56.2646-71C56.4641-71.0038 56.6637-70.9741 56.859-70.9571C57.1053-70.9401 57.3516-70.9401 57.5894-70.8891C57.7083-70.8637 57.8229-70.749 57.9333-70.6556C58.2305-70.4093 58.5278-70.1758 58.8165-69.8913C59.1463-69.5726 59.3777-69.1658 59.4832-68.7194C59.5171-68.5792 59.6105-68.4476 59.6912-68.3797C59.946-68.1674 60.2093-68.0187 60.4555-67.7852C60.6763-67.5856 60.9226-67.3861 61.067-67.0549C61.2113-66.7152 61.2581-66.2269 61.3175-65.7895C61.343-65.6197 61.2623-65.4753 61.1307-65.5093C60.9736-65.5517 60.808-65.6367 60.6636-65.5772C60.2729-65.4116 59.9248-65.1696 59.687-64.4775C59.411-63.6664 59.0713-62.9276 58.7486-62.1675C58.3749-61.2928 57.9843-60.4436 57.6276-59.5562C57.4206-59.0445 57.3703-58.4829 57.4832-57.9426C57.5894-57.4755 57.755-57.0424 57.9036-56.6093C58.1159-55.9851 58.3452-55.3864 58.549-54.758C58.7783-54.0616 59.0118-53.3568 59.1944-52.6222C59.3643-51.9428 59.5001-51.2337 59.5893-50.5119C59.7422-49.2805 59.8483-48.0321 59.9587-46.7838C60.0054-46.2488 60.0139-45.7053 60.0437-45.166C60.0649-44.7924 60.1201-44.4145 60.1073-44.045C60.0819-43.0345 60.0267-42.0239 59.9885-41.0133C59.9587-40.2957 59.946-39.5738 59.895-38.869C59.8526-38.3764 59.7549-37.9009 59.67-37.4253C59.3908-35.8277 59.0695-34.2375 58.7061-32.6569C58.5533-32.0072 58.3664-31.3745 58.1711-30.7673C58.0437-30.3894 57.8611-30.0794 57.721-29.7185C57.5979-29.4128 57.5087-29.0604 57.3813-28.7546C57.1817-28.2706 56.9652-27.812 56.7529-27.3407C56.7104-27.243 56.6595-27.1538 56.6085-27.0604C56.3113-26.466 56.0141-25.8715 55.7253-25.2643C55.5979-25.0095 55.5088-24.6953 55.3771-24.4533C55.1945-24.1178 54.995-23.8164 54.7997-23.5191C54.4985-23.0761 54.1868-22.6398 53.8655-22.2113C53.6107-21.8631 53.3347-21.5489 53.0672-21.2135C52.7742-20.8483 52.4897-20.4619 52.1925-20.1095C51.8741-19.7273 51.5513-19.3537 51.2159-19.0055C51.0036-18.7804 50.7828-18.5809 50.5535-18.411C50.3285-18.2454 50.0864-18.135 49.8529-17.9864C49.6915-17.8887 49.5217-17.7953 49.3773-17.6425C49.1862-17.4429 49.1565-16.9546 49.2457-16.4875C49.3901-15.7359 49.5174-14.9801 49.6533-14.2243C49.6661-14.1649 49.6958-14.1139 49.7043-14.0545C49.7425-13.7912 49.7977-13.5322 49.8062-13.2689C49.8147-12.9377 49.9718-12.7254 50.1544-12.7764C50.3667-12.8273 50.4856-13.0651 50.5875-13.3369C50.6455-13.5095 50.7382-13.6684 50.8603-13.8036C50.9824-13.9387 51.1306-14.047 51.2966-14.1224C51.5513-14.2625 51.8189-14.3092 52.0821-14.4196C52.1925-14.4621 52.2902-14.5682 52.3963-14.3772C52.4643-14.2625 52.4558-14.2285 52.3793-14.1521C52.3411-14.1097 52.3199-14.012 52.2944-13.9398C52.2605-13.8464 52.2392-13.7275 52.1968-13.6765C52.0269-13.4982 51.8571-13.3538 51.6872-13.1797C51.649-13.1373 51.6278-13.0439 51.6023-12.9759C51.6448-12.9462 51.7042-12.874 51.7467-12.891C51.8843-12.9593 52.0128-13.0449 52.1288-13.1458C52.8719-13.7827 53.615-14.4324 54.3538-15.0778C54.4624-15.1715 54.57-15.2664 54.6765-15.3623C54.8421-15.5151 55.0714-15.4345 55.203-15.1924C55.254-15.099 55.3262-15.0396 55.3474-15.0141C55.0162-14.5767 54.6808-14.1054 54.3283-13.6681C54.0141-13.2774 53.6914-12.8995 53.3645-12.5556C53.0718-12.2513 52.7597-11.9661 52.4303-11.7021C52.1501-11.477 51.8528-11.3114 51.5683-11.1161C51.4066-11.0071 51.2481-10.8939 51.0928-10.7764C51.0673-10.7594 51.0503-10.6873 51.0333-10.6405C51.0715-10.6193 51.1097-10.5726 51.1437-10.5811L51.9208-10.8741L53.2753-11.3412C53.5301-11.4218 53.7721-11.6384 54.0608-11.511C54.2307-11.4431 54.426-11.6257 54.6128-11.6766C54.6553-11.6851 54.7062-11.6214 54.7572-11.5917C54.7147-11.5237 54.6808-11.4516 54.6341-11.4006C54.5534-11.2987 54.4727-11.1628 54.3793-11.1204C54.2094-11.0354 54.0269-11.0354 53.857-10.9463C53.6872-10.8571 53.5301-10.6915 53.3687-10.5641C53.305-10.5153 53.2367-10.4728 53.1649-10.4367C52.7827-10.2414 52.4006-10.0418 52.0142-9.855C51.6915-9.70214 51.3688-9.57051 51.0503-9.4219C51.0078-9.40067 50.9654-9.33697 50.9229-9.29451C50.8805-9.26054 50.838-9.17987 50.7955-9.1926C50.5705-9.27753 50.3497-9.15014 50.1246-9.15863C50.1034-9.15863 50.0822-9.1926 50.0609-9.20534C49.8486-9.3667 49.6491-9.59174 49.4283-9.67242C49.1098-9.78707 48.7913-9.7446 48.5069-9.35396C48.2379-8.9757 47.9428-8.61654 47.6237-8.27968C47.4793-8.13107 47.2925-8.10983 47.1184-8.05888C47.0334-8.02916 46.9485-8.05463 46.8424-8.10983C46.9867-8.2542 47.1269-8.41556 47.2755-8.54719C47.509-8.74676 47.6704-9.01002 47.7171-9.51531C47.7532-9.78848 47.8409-10.0521 47.9761-10.2924C48.1654-10.6381 48.3766-10.9714 48.6088-11.2902C48.8338-11.6087 48.7277-12.0036 48.6937-12.356C48.6544-12.696 48.5893-13.0322 48.4984-13.3623C48.4432-13.5789 48.354-13.77 48.2776-13.9695C48.2648-14.0035 48.2351-14.0545 48.2266-14.0545C48.0568-13.9993 48.078-14.2668 48.0185-14.4196C47.9651-14.5817 47.8798-14.7321 47.768-14.8612C47.5769-15.0608 47.543-15.2009 47.5982-15.5831C47.6279-15.7996 47.6194-16.0374 47.6194-16.2709C47.6194-16.3134 47.5939-16.3856 47.5727-16.3941C47.2542-16.4917 46.9358-16.6701 46.6173-16.6573C46.2776-16.6446 45.9379-16.4578 45.6067-16.3346C45.1665-16.1298 44.7865-15.8155 44.5027-15.4217C44.4093-15.3113 44.3584-15.0778 44.3032-14.8867C44.2395-14.6659 44.1885-14.4281 44.1333-14.1988C44.0314-13.7869 43.9125-13.3921 43.8318-12.9674C43.7487-12.5591 43.6892-12.1469 43.6535-11.7318C43.6068-11.1076 43.6365-10.4537 43.5473-9.855C43.4709-9.32848 43.4582-8.8062 43.4327-8.28393C43.4115-7.85931 43.4964-7.6555 43.7214-7.67673C44.1376-7.7107 44.5579-7.76165 44.9698-7.85507C45.2416-7.91451 45.5091-8.05888 45.7766-8.1523C45.8615-8.18627 46.0908-7.83808 46.0823-7.68522C46.0823-7.62577 46.0398-7.5451 46.0059-7.52811C45.7638-7.38799 45.5133-7.2691 45.2713-7.12897C44.9613-6.95063 44.6556-6.75956 44.3456-6.57697C44.2819-6.543 44.2097-6.53451 44.1503-6.47507C44.0951-6.42411 44.0484-6.3307 43.9974-6.25427C44.0484-6.16934 44.0951-6.01223 44.1503-5.9995C44.3541-5.96553 44.5664-5.95703 44.7702-5.96553C44.9316-5.97827 45.0929-6.06319 45.2543-6.07593C45.3477-6.08442 45.4454-5.98676 45.5388-5.9995C45.6832-6.01648 45.8233-6.1014 45.9677-6.12688C46.0526-6.14387 46.1545-6.1566 46.2097-6.08017C46.3668-5.85937 46.5197-5.87211 46.7065-5.91457C47.0717-5.9995 47.4453-5.9995 47.819-6.02922C48.078-6.05045 48.337-6.07168 48.6003-6.07168C48.6427-6.07593 48.6852-5.99525 48.7149-5.96128L48.9017-5.98676L48.9272-5.87211C48.7404-5.67679 48.5621-5.42627 48.3625-5.29888C47.4878-4.74688 46.5791-4.46663 45.6534-4.46239C45.5473-4.46239 45.4411-4.43691 45.3392-4.41993C45.3265-4.41993 45.3095-4.40294 45.2373-4.36473C45.352-4.30953 45.4114-4.26707 45.4793-4.25008C45.7001-4.18639 45.9337-4.18214 46.1417-4.05476C46.4517-3.86368 46.7447-3.58768 47.0419-3.34565C47.0632-3.32867 47.0929-3.26922 47.0886-3.2395C47.0886-3.19279 47.0589-3.12485 47.0377-3.11211C46.9719-3.0785 46.8993-3.06116 46.8254-3.06116C46.4475-3.08239 46.0738-3.0654 45.7044-3.15457C45.352-3.2395 45.0123-3.44331 44.6683-3.57919C44.5834-3.62165 44.4815-3.59193 44.3966-3.63439C43.9125-3.86368 43.4285-4.10996 42.9444-4.34774C42.9147-4.36473 42.8722-4.40719 42.8552-4.3902C42.7066-4.19063 42.6429-4.43267 42.575-4.57703C42.4065-4.92203 42.248-5.27163 42.0994-5.62583C42.0654-5.715 42.0697-5.86362 42.0527-5.98676C42.023-6.19482 41.9423-6.22454 41.8446-6.16934C41.6196-6.03771 41.3988-5.89759 41.1737-5.77445C41.1101-5.73623 41.0336-5.715 40.9699-5.73199C40.7293-5.80028 40.4937-5.8852 40.2651-5.98676C40.1929-6.02497 40.1292-6.15236 40.0697-6.25851C40.0613-6.27974 40.0952-6.43685 40.1249-6.46233C40.4137-6.69587 40.7109-6.89543 40.9954-7.14596C41.2636-7.3887 41.5149-7.64983 41.747-7.92725C41.9494-8.1339 42.0753-8.40353 42.1037-8.69156C42.1291-8.94208 42.1546-9.18836 42.1589-9.43463C42.1589-9.88473 42.1249-10.3348 42.1461-10.7764C42.1581-11.1005 42.0867-11.4222 41.9381-11.7106C41.7809-12.0588 41.8107-12.5938 42.04-12.7169C42.3542-12.8825 42.4009-13.3369 42.4136-13.7572C42.4306-14.6489 42.3881-15.5491 42.3881-16.445C42.3881-16.772 42.4306-17.1032 42.6302-17.273C42.7533-17.3792 42.6981-17.4938 42.6174-17.5618C42.299-17.8165 41.9805-18.0628 41.6663-18.3218C41.5814-18.3898 41.4965-18.4917 41.4158-18.5766C41.3945-18.6021 41.3776-18.6403 41.3563-18.653C41.0803-18.8441 40.8128-19.0777 40.5283-19.205C40.2184-19.3367 39.8914-19.3706 39.5687-19.4343C39.2375-19.5023 38.9063-19.5447 38.5751-19.6127C38.4987-19.6297 38.4265-19.7401 38.3501-19.7528C38.1162-19.7988 37.8791-19.8271 37.6409-19.8377C37.2758-19.8462 36.9149-19.8335 36.5497-19.8292L36.4775-19.825C36.1803-19.7103 35.8788-19.5914 35.5773-19.4895C35.3735-19.4216 35.1654-19.3876 34.9616-19.3409C34.5795-19.2517 34.1973-19.1796 33.8152-19.0692C33.4415-18.963 33.0636-18.8144 32.69-18.6955C32.6348-18.6785 32.5753-18.6955 32.5201-18.687C32.2654-18.6615 32.0021-18.653 31.7431-18.5978C31.5343-18.5515 31.3318-18.4804 31.1401-18.3855C31.0552-18.3431 30.9703-18.2242 30.8896-18.1308C30.5074-17.7104 30.121-17.2943 29.7431-16.8569C29.6497-16.7508 29.586-16.5597 29.4969-16.4281C29.409-16.2876 29.3034-16.1591 29.1826-16.0459C29.034-15.9185 28.8684-15.8421 28.7156-15.7274C28.5033-15.5746 28.3037-15.4047 28.0956-15.2434C28.0578-15.2122 28.0124-15.1917 27.964-15.1839C27.913-15.1797 27.8578-15.2009 27.8069-15.2137C27.5097-15.2646 27.4078-15.4387 27.3526-15.9865C27.3466-16.0685 27.3582-16.151 27.3865-16.2285C27.6073-16.7677 27.8366-17.307 28.0617-17.842L28.3419-18.5172C28.3546-18.5511 28.3674-18.5936 28.3844-18.6191C28.5754-18.9333 28.7665-19.2348 28.9534-19.5532C29.0298-19.6891 29.0722-19.8844 29.1487-20.0203C29.2676-20.2453 29.4034-20.4407 29.5266-20.653C29.6115-20.7931 29.6964-20.9375 29.7729-21.0946C30.0913-21.74 30.414-22.3897 30.7282-23.0478C30.8132-23.2261 30.8769-23.4385 30.949-23.6338C30.966-23.6762 30.9703-23.7484 30.9915-23.7612C31.3227-23.9989 31.4034-24.6104 31.5775-25.069C31.8068-25.6762 31.9894-26.3556 32.2017-26.9882C32.3418-27.4044 32.5074-27.7865 32.6518-28.1941C32.9914-29.1156 33.3184-30.0455 33.6496-30.9711L34.0742-32.1516C34.0954-32.2237 34.0869-32.3299 34.0912-32.3639L34.0912-32.3596Z"/>
   <path class="monochrome-1 multicolor-1:tintColor hierarchical-1:tertiary SFSymbolsPreviewWireframe" d="M44.3636-80.5865C50.0861-80.5876 55.7528-79.4613 61.04-77.272C66.3271-75.0826 71.1312-71.8729 75.1774-67.8265C79.2239-63.7803 82.4335-58.9764 84.6232-53.6889C86.8124-48.4015 87.9387-42.7349 87.9376-37.0127C87.9376-12.9352 68.432 6.58658 44.3638 6.58658C20.2909 6.58658 0.7645-12.9399 0.7645-37.0127C0.7645-61.0781 20.2877-80.5865 44.3636-80.5865ZM44.3638-78.3365C21.53-78.3365 3.0145-59.8351 3.0145-37.0127C3.0145-14.1825 21.5336 4.33658 44.3638 4.33658C67.1889 4.33658 85.6876-14.1774 85.6876-37.0129C85.6886-42.4398 84.6205-47.8138 82.5443-52.828C80.4678-57.8425 77.4239-62.3983 73.5865-66.2355C69.7491-70.073 65.1932-73.1168 60.1791-75.1931C55.1651-77.2695 49.791-78.3376 44.3638-78.3365Z"/>
  </g>
 </g>
</svg>
