<?xml version="1.0" encoding="UTF-8"?>
<!--Generator: Apple Native CoreSVG 341-->
<!DOCTYPE svg
PUBLIC "-//W3C//DTD SVG 1.1//EN"
       "http://www.w3.org/Graphics/SVG/1.1/DTD/svg11.dtd">
<svg version="1.1" xmlns="http://www.w3.org/2000/svg" xmlns:xlink="http://www.w3.org/1999/xlink" viewBox="0 0 3300 2200">
 <!--glyph: "", point size: 100.0, font version: "20.0d10e1", template writer version: "138.0.0"-->
 <style>.monochrome-0 {-sfsymbols-motion-group:1;-sfsymbols-layer-tags:3aa3fce75f95cf54}
.monochrome-1 {-sfsymbols-motion-group:0;-sfsymbols-layer-tags:3aa3fce75f95cf54}

.multicolor-0:tintColor {-sfsymbols-motion-group:1;-sfsymbols-layer-tags:3aa3fce75f95cf54}
.multicolor-1:tintColor {-sfsymbols-motion-group:0;-sfsymbols-layer-tags:3aa3fce75f95cf54}

.hierarchical-0:primary {-sfsymbols-motion-group:1;-sfsymbols-layer-tags:3aa3fce75f95cf54}
.hierarchical-1:tertiary {-sfsymbols-motion-group:0;-sfsymbols-layer-tags:3aa3fce75f95cf54}

.SFSymbolsPreviewWireframe {fill:none;opacity:1.0;stroke:black;stroke-width:0.5}
</style>
 <g id="Notes">
  <rect height="2200" id="artboard" style="fill:white;opacity:1" width="3300" x="0" y="0"/>
  <line style="fill:none;stroke:black;opacity:1;stroke-width:0.5;" x1="263" x2="3036" y1="292" y2="292"/>
  <text style="stroke:none;fill:black;font-family:sans-serif;font-size:13;font-weight:bold;" transform="matrix(1 0 0 1 263 322)">Weight/Scale Variations</text>
  <text style="stroke:none;fill:black;font-family:sans-serif;font-size:13;text-anchor:middle;" transform="matrix(1 0 0 1 559.711 322)">Ultralight</text>
  <text style="stroke:none;fill:black;font-family:sans-serif;font-size:13;text-anchor:middle;" transform="matrix(1 0 0 1 856.422 322)">Thin</text>
  <text style="stroke:none;fill:black;font-family:sans-serif;font-size:13;text-anchor:middle;" transform="matrix(1 0 0 1 1153.13 322)">Light</text>
  <text style="stroke:none;fill:black;font-family:sans-serif;font-size:13;text-anchor:middle;" transform="matrix(1 0 0 1 1449.84 322)">Regular</text>
  <text style="stroke:none;fill:black;font-family:sans-serif;font-size:13;text-anchor:middle;" transform="matrix(1 0 0 1 1746.56 322)">Medium</text>
  <text style="stroke:none;fill:black;font-family:sans-serif;font-size:13;text-anchor:middle;" transform="matrix(1 0 0 1 2043.27 322)">Semibold</text>
  <text style="stroke:none;fill:black;font-family:sans-serif;font-size:13;text-anchor:middle;" transform="matrix(1 0 0 1 2339.98 322)">Bold</text>
  <text style="stroke:none;fill:black;font-family:sans-serif;font-size:13;text-anchor:middle;" transform="matrix(1 0 0 1 2636.69 322)">Heavy</text>
  <text style="stroke:none;fill:black;font-family:sans-serif;font-size:13;text-anchor:middle;" transform="matrix(1 0 0 1 2933.4 322)">Black</text>
  <line style="fill:none;stroke:black;opacity:1;stroke-width:0.5;" x1="263" x2="3036" y1="1903" y2="1903"/>
  <g transform="matrix(0.2 0 0 0.2 263 1933)">
   <path d="m46.2402 4.15039c21.7773 0 39.4531-17.627 39.4531-39.4043s-17.6758-39.4043-39.4531-39.4043c-21.7285 0-39.4043 17.627-39.4043 39.4043s17.6758 39.4043 39.4043 39.4043Zm0-7.42188c-17.6758 0-31.9336-14.3066-31.9336-31.9824s14.2578-31.9824 31.9336-31.9824 31.9824 14.3066 31.9824 31.9824-14.3066 31.9824-31.9824 31.9824Zm-17.9688-31.9824c0 2.14844 1.51367 3.61328 3.75977 3.61328h10.498v10.5957c0 2.19727 1.46484 3.71094 3.61328 3.71094 2.24609 0 3.71094-1.51367 3.71094-3.71094v-10.5957h10.5957c2.19727 0 3.71094-1.46484 3.71094-3.61328 0-2.19727-1.51367-3.71094-3.71094-3.71094h-10.5957v-10.5469c0-2.24609-1.46484-3.75977-3.71094-3.75977-2.14844 0-3.61328 1.51367-3.61328 3.75977v10.5469h-10.498c-2.24609 0-3.75977 1.51367-3.75977 3.71094Z"/>
  </g>
  <g transform="matrix(0.2 0 0 0.2 281.506 1933)">
   <path d="m58.5449 14.5508c27.4902 0 49.8047-22.3145 49.8047-49.8047s-22.3145-49.8047-49.8047-49.8047-49.8047 22.3145-49.8047 49.8047 22.3145 49.8047 49.8047 49.8047Zm0-8.30078c-22.9492 0-41.5039-18.5547-41.5039-41.5039s18.5547-41.5039 41.5039-41.5039 41.5039 18.5547 41.5039 41.5039-18.5547 41.5039-41.5039 41.5039Zm-22.6562-41.5039c0 2.39258 1.66016 4.00391 4.15039 4.00391h14.3555v14.4043c0 2.44141 1.66016 4.15039 4.05273 4.15039 2.44141 0 4.15039-1.66016 4.15039-4.15039v-14.4043h14.4043c2.44141 0 4.15039-1.61133 4.15039-4.00391 0-2.44141-1.70898-4.15039-4.15039-4.15039h-14.4043v-14.3555c0-2.49023-1.70898-4.19922-4.15039-4.19922-2.39258 0-4.05273 1.70898-4.05273 4.19922v14.3555h-14.3555c-2.49023 0-4.15039 1.70898-4.15039 4.15039Z"/>
  </g>
  <g transform="matrix(0.2 0 0 0.2 304.924 1933)">
   <path d="m74.8535 28.3203c35.1074 0 63.623-28.4668 63.623-63.5742s-28.5156-63.623-63.623-63.623-63.5742 28.5156-63.5742 63.623 28.4668 63.5742 63.5742 63.5742Zm0-9.08203c-30.127 0-54.4922-24.3652-54.4922-54.4922s24.3652-54.4922 54.4922-54.4922 54.4922 24.3652 54.4922 54.4922-24.3652 54.4922-54.4922 54.4922Zm-28.8574-54.4922c0 2.58789 1.85547 4.39453 4.58984 4.39453h19.7266v19.7754c0 2.68555 1.85547 4.58984 4.44336 4.58984 2.68555 0 4.54102-1.85547 4.54102-4.58984v-19.7754h19.7754c2.68555 0 4.58984-1.80664 4.58984-4.39453 0-2.73438-1.85547-4.58984-4.58984-4.58984h-19.7754v-19.7266c0-2.73438-1.85547-4.63867-4.54102-4.63867-2.58789 0-4.44336 1.9043-4.44336 4.63867v19.7266h-19.7266c-2.73438 0-4.58984 1.85547-4.58984 4.58984Z"/>
  </g>
  <text style="stroke:none;fill:black;font-family:sans-serif;font-size:13;font-weight:bold;" transform="matrix(1 0 0 1 263 1953)">Design Variations</text>
  <text style="stroke:none;fill:black;font-family:sans-serif;font-size:13;" transform="matrix(1 0 0 1 263 1971)">Symbols are supported in up to nine weights and three scales.</text>
  <text style="stroke:none;fill:black;font-family:sans-serif;font-size:13;" transform="matrix(1 0 0 1 263 1989)">For optimal layout with text and other symbols, vertically align</text>
  <text style="stroke:none;fill:black;font-family:sans-serif;font-size:13;" transform="matrix(1 0 0 1 263 2007)">symbols with the adjacent text.</text>
  <line style="fill:none;stroke:#00AEEF;stroke-width:0.5;opacity:1.0;" x1="776" x2="776" y1="1919" y2="1933"/>
  <g transform="matrix(0.2 0 0 0.2 776 1933)">
   <path d="m16.5527 0.78125c2.58789 0 3.85742-0.976562 4.78516-3.71094l6.29883-17.2363h28.8086l6.29883 17.2363c0.927734 2.73438 2.19727 3.71094 4.73633 3.71094 2.58789 0 4.24805-1.5625 4.24805-4.00391 0-0.830078-0.146484-1.61133-0.537109-2.63672l-22.9004-60.9863c-1.12305-2.97852-3.125-4.49219-6.25-4.49219-3.02734 0-5.07812 1.46484-6.15234 4.44336l-22.9004 61.084c-0.390625 1.02539-0.537109 1.80664-0.537109 2.63672 0 2.44141 1.5625 3.95508 4.10156 3.95508Zm13.4766-28.3691 11.8652-32.8613h0.244141l11.8652 32.8613Z"/>
  </g>
  <line style="fill:none;stroke:#00AEEF;stroke-width:0.5;opacity:1.0;" x1="792.836" x2="792.836" y1="1919" y2="1933"/>
  <text style="stroke:none;fill:black;font-family:sans-serif;font-size:13;font-weight:bold;" transform="matrix(1 0 0 1 776 1953)">Margins</text>
  <text style="stroke:none;fill:black;font-family:sans-serif;font-size:13;" transform="matrix(1 0 0 1 776 1971)">Leading and trailing margins on the left and right side of each symbol</text>
  <text style="stroke:none;fill:black;font-family:sans-serif;font-size:13;" transform="matrix(1 0 0 1 776 1989)">can be adjusted by modifying the x-location of the margin guidelines.</text>
  <text style="stroke:none;fill:black;font-family:sans-serif;font-size:13;" transform="matrix(1 0 0 1 776 2007)">Modifications are automatically applied proportionally to all</text>
  <text style="stroke:none;fill:black;font-family:sans-serif;font-size:13;" transform="matrix(1 0 0 1 776 2025)">scales and weights.</text>
  <g transform="matrix(0.2 0 0 0.2 1289 1933)">
   <path d="m14.209 9.32617 8.49609 8.54492c4.29688 4.3457 9.22852 4.05273 13.8672-1.07422l53.4668-58.9355-4.83398-4.88281-53.0762 58.3984c-1.75781 2.00195-3.41797 2.49023-5.76172 0.146484l-5.85938-5.81055c-2.34375-2.29492-1.80664-4.00391 0.195312-5.81055l57.373-54.0039-4.88281-4.83398-57.959 54.4434c-4.93164 4.58984-5.32227 9.47266-1.02539 13.8184Zm32.0801-90.9668c-2.09961 2.05078-2.24609 4.93164-1.07422 6.88477 1.17188 1.80664 3.4668 2.97852 6.68945 2.14844 7.32422-1.70898 14.9414-2.00195 22.0703 2.68555l-2.92969 7.27539c-1.70898 4.15039-0.830078 7.08008 1.85547 9.81445l11.4746 11.5723c2.44141 2.44141 4.49219 2.53906 7.32422 2.05078l5.32227-0.976562 3.32031 3.36914-0.195312 2.7832c-0.195312 2.49023 0.439453 4.39453 2.88086 6.78711l3.80859 3.71094c2.39258 2.39258 5.46875 2.53906 7.8125 0.195312l14.5508-14.5996c2.34375-2.34375 2.24609-5.32227-0.146484-7.71484l-3.85742-3.80859c-2.39258-2.39258-4.24805-3.17383-6.64062-2.97852l-2.88086 0.244141-3.22266-3.17383 1.2207-5.61523c0.634766-2.83203-0.146484-5.0293-3.07617-7.95898l-10.9863-10.9375c-16.6992-16.6016-38.8672-16.2109-53.3203-1.75781Zm7.4707 1.85547c12.1582-8.88672 28.6133-7.37305 39.7461 3.75977l12.1582 12.0605c1.17188 1.17188 1.36719 2.09961 1.02539 3.80859l-1.61133 7.42188 7.51953 7.42188 4.93164-0.292969c1.26953-0.0488281 1.66016 0.0488281 2.63672 1.02539l2.88086 2.88086-12.207 12.207-2.88086-2.88086c-0.976562-0.976562-1.12305-1.36719-1.07422-2.68555l0.341797-4.88281-7.4707-7.42188-7.61719 1.26953c-1.61133 0.341797-2.34375 0.195312-3.56445-0.976562l-10.0098-10.0098c-1.26953-1.17188-1.41602-2.00195-0.634766-3.85742l4.39453-10.4492c-7.8125-7.27539-17.9688-10.4004-28.125-7.42188-0.78125 0.195312-1.07422-0.439453-0.439453-0.976562Z"/>
  </g>
  <text style="stroke:none;fill:black;font-family:sans-serif;font-size:13;font-weight:bold;" transform="matrix(1 0 0 1 1289 1953)">Exporting</text>
  <text style="stroke:none;fill:black;font-family:sans-serif;font-size:13;" transform="matrix(1 0 0 1 1289 1971)">Symbols should be outlined when exporting to ensure the</text>
  <text style="stroke:none;fill:black;font-family:sans-serif;font-size:13;" transform="matrix(1 0 0 1 1289 1989)">design is preserved when submitting to Xcode.</text>
  <text id="template-version" style="stroke:none;fill:black;font-family:sans-serif;font-size:13;text-anchor:end;" transform="matrix(1 0 0 1 3036 1933)">Template v.6.0</text>
  <text style="stroke:none;fill:black;font-family:sans-serif;font-size:13;text-anchor:end;" transform="matrix(1 0 0 1 3036 1951)">Requires Xcode 16 or greater</text>
  <text id="descriptive-name" style="stroke:none;fill:black;font-family:sans-serif;font-size:13;text-anchor:end;" transform="matrix(1 0 0 1 3036 1969)">Generated from filtervogelgruppe-25</text>
  <text style="stroke:none;fill:black;font-family:sans-serif;font-size:13;text-anchor:end;" transform="matrix(1 0 0 1 3036 1987)">Typeset at 100.0 points</text>
  <text style="stroke:none;fill:black;font-family:sans-serif;font-size:13;" transform="matrix(1 0 0 1 263 726)">Small</text>
  <text style="stroke:none;fill:black;font-family:sans-serif;font-size:13;" transform="matrix(1 0 0 1 263 1156)">Medium</text>
  <text style="stroke:none;fill:black;font-family:sans-serif;font-size:13;" transform="matrix(1 0 0 1 263 1586)">Large</text>
 </g>
 <g id="Guides">
  <g id="H-reference" style="fill:#27AAE1;stroke:none;" transform="matrix(1 0 0 1 339 696)">
   <path d="M0.993654 0L3.63775 0L29.3281-67.1323L30.0303-67.1323L30.0303-70.459L28.1226-70.459ZM11.6885-24.4799L46.9815-24.4799L46.2315-26.7285L12.4385-26.7285ZM55.1196 0L57.7637 0L30.6382-70.459L29.4326-70.459L29.4326-67.1323Z"/>
  </g>
  <line id="Baseline-S" style="fill:none;stroke:#27AAE1;opacity:1;stroke-width:0.5;" x1="263" x2="3036" y1="696" y2="696"/>
  <line id="Capline-S" style="fill:none;stroke:#27AAE1;opacity:1;stroke-width:0.5;" x1="263" x2="3036" y1="625.541" y2="625.541"/>
  <g id="H-reference" style="fill:#27AAE1;stroke:none;" transform="matrix(1 0 0 1 339 1126)">
   <path d="M0.993654 0L3.63775 0L29.3281-67.1323L30.0303-67.1323L30.0303-70.459L28.1226-70.459ZM11.6885-24.4799L46.9815-24.4799L46.2315-26.7285L12.4385-26.7285ZM55.1196 0L57.7637 0L30.6382-70.459L29.4326-70.459L29.4326-67.1323Z"/>
  </g>
  <line id="Baseline-M" style="fill:none;stroke:#27AAE1;opacity:1;stroke-width:0.5;" x1="263" x2="3036" y1="1126" y2="1126"/>
  <line id="Capline-M" style="fill:none;stroke:#27AAE1;opacity:1;stroke-width:0.5;" x1="263" x2="3036" y1="1055.54" y2="1055.54"/>
  <g id="H-reference" style="fill:#27AAE1;stroke:none;" transform="matrix(1 0 0 1 339 1556)">
   <path d="M0.993654 0L3.63775 0L29.3281-67.1323L30.0303-67.1323L30.0303-70.459L28.1226-70.459ZM11.6885-24.4799L46.9815-24.4799L46.2315-26.7285L12.4385-26.7285ZM55.1196 0L57.7637 0L30.6382-70.459L29.4326-70.459L29.4326-67.1323Z"/>
  </g>
  <line id="Baseline-L" style="fill:none;stroke:#27AAE1;opacity:1;stroke-width:0.5;" x1="263" x2="3036" y1="1556" y2="1556"/>
  <line id="Capline-L" style="fill:none;stroke:#27AAE1;opacity:1;stroke-width:0.5;" x1="263" x2="3036" y1="1485.54" y2="1485.54"/>
  <line id="right-margin-Black-S" style="fill:none;stroke:#00AEEF;stroke-width:0.5;opacity:1.0;" x1="2982.23" x2="2982.23" y1="600.785" y2="720.121"/>
  <line id="left-margin-Black-S" style="fill:none;stroke:#00AEEF;stroke-width:0.5;opacity:1.0;" x1="2884.57" x2="2884.57" y1="600.785" y2="720.121"/>
  <line id="right-margin-Regular-S" style="fill:none;stroke:#00AEEF;stroke-width:0.5;opacity:1.0;" x1="1496.11" x2="1496.11" y1="600.785" y2="720.121"/>
  <line id="left-margin-Regular-S" style="fill:none;stroke:#00AEEF;stroke-width:0.5;opacity:1.0;" x1="1403.58" x2="1403.58" y1="600.785" y2="720.121"/>
  <line id="right-margin-Ultralight-S" style="fill:none;stroke:#00AEEF;stroke-width:0.5;opacity:1.0;" x1="603.773" x2="603.773" y1="600.785" y2="720.121"/>
  <line id="left-margin-Ultralight-S" style="fill:none;stroke:#00AEEF;stroke-width:0.5;opacity:1.0;" x1="515.649" x2="515.649" y1="600.785" y2="720.121"/>
 </g>
 <g id="Symbols">
  <g id="Black-S" transform="matrix(1 0 0 1 2884.57 696)">
   <path class="monochrome-0 multicolor-0:tintColor hierarchical-0:primary SFSymbolsPreviewWireframe" d="M41.279-11.9471C41.059-11.9544 40.8573-11.9323 40.674-11.9803C40.0836-12.1317 39.5226-12.128 38.9836-11.7883C38.8002-11.6775 38.5692-11.6295 38.3602-11.5852C38.3052-11.5704 38.1695-11.6849 38.1769-11.7218C38.1952-11.8252 38.2429-11.9729 38.3235-12.0098C38.6939-12.1834 39.0789-12.32 39.4602-12.4751C39.4749-12.4787 39.4859-12.4972 39.4566-12.4714C39.4382-12.6375 39.3686-12.8147 39.4236-12.896C39.5959-13.1397 39.8746-13.2172 40.1569-13.1914C40.487-13.1544 40.8096-13.0695 41.136-13.0252C41.7447-12.9366 42.346-12.9957 42.9364-13.1507C43.1308-13.2024 43.3544-13.1987 43.5158-13.2984C43.9998-13.6012 44.2382-14.1034 44.5058-14.5907C44.7185-14.9784 45.0155-15.3218 45.2759-15.6837C45.6059-16.1341 45.9432-16.5846 46.2659-17.0424C46.7683-17.7476 47.2926-18.4381 47.7437-19.1839C47.9453-19.5163 47.9783-19.9593 48.0883-20.3544C48.1067-20.4282 48.1103-20.5095 48.1287-20.587C48.191-20.8344 48.0847-20.9932 47.8353-21.0449C47.0433-21.2184 46.2439-21.3661 45.4629-21.5876C44.9324-21.7513 44.4169-21.9615 43.9228-22.2153C43.1674-22.5845 42.4194-22.9759 41.686-23.3895C41.1771-23.6652 40.6893-23.9787 40.2266-24.3273C39.4272-24.9476 38.6499-25.6011 37.8945-26.2768C37.3663-26.7584 36.8621-27.2661 36.3838-27.7981C36.1491-28.0491 35.9878-28.3704 35.7861-28.6547C35.7127-28.7581 35.6101-28.8393 35.5477-28.9427C35.2544-29.4337 34.961-29.9211 34.6787-30.4196C34.4073-30.8996 34.1323-31.387 33.8903-31.8817C33.3917-32.8857 32.9113-33.899 32.4493-34.9205C32.0709-35.786 31.7151-36.6614 31.3822-37.5457C31.1255-38.2251 30.8872-38.9119 30.6672-39.6023C30.6085-39.7869 30.6452-40.0011 30.6268-40.2005C30.6158-40.2928 30.5718-40.3851 30.5792-40.4589C30.5902-40.6805 30.5718-40.9094 30.6232-41.1235C30.6818-41.3894 30.8212-41.6405 30.8872-41.9063C30.9624-42.1577 30.9995-42.4192 30.9972-42.6817C30.9605-43.2946 30.8762-43.9076 30.8212-44.5205C30.7515-45.2663 30.2455-45.8275 29.5195-45.9014C29.1821-45.9383 28.8448-45.9014 28.5074-45.9125C28.4047-45.9162 28.3057-45.9863 28.2067-46.0232C28.2654-46.1266 28.2984-46.2595 28.3827-46.3186C29.0171-46.7765 29.7761-46.9463 30.4802-47.2306C30.9019-47.4005 31.1219-47.7697 31.2392-48.1832C31.2685-48.2903 31.1072-48.5192 30.9789-48.5894C30.3882-48.9041 29.7864-49.1972 29.1748-49.4681C28.8154-49.6269 28.4341-49.7377 28.0601-49.8595C27.9427-49.8964 27.8107-49.8854 27.697-49.9334C27.5944-49.9777 27.477-50.0552 27.433-50.1512C27.411-50.1992 27.5137-50.3764 27.587-50.3949C28.0454-50.5204 28.5037-50.6423 28.9731-50.7124C29.3544-50.7678 29.7468-50.7383 30.1318-50.7641C30.2418-50.7761 30.3467-50.8169 30.4362-50.8823C30.7332-51.0891 31.0485-51.2884 31.3089-51.5395C32.0862-52.2891 32.8673-53.0386 33.6006-53.8287C34.246-54.5229 34.9794-55.0657 35.8227-55.4533C36.0318-55.5457 36.2811-55.5493 36.4974-55.6269C36.6735-55.6897 36.8275-55.8115 36.9998-55.889C37.1098-55.9407 37.2491-56.0183 37.3518-55.9961C37.4692-55.9666 37.5718-55.8484 37.6635-55.745C37.6782-55.734 37.5792-55.6121 37.5315-55.542L37.4362-55.4053C37.4912-55.3906 37.5462-55.3647 37.5938-55.3721C37.7772-55.4053 37.9605-55.4755 38.1439-55.4792C38.2245-55.4792 38.3052-55.3463 38.3859-55.2761C38.4592-55.2097 38.5325-55.1063 38.6132-55.0915C38.7856-55.0657 38.9982-55.0546 38.9872-54.8478C38.9799-54.7001 38.8296-54.5561 38.7305-54.4232C38.6939-54.3752 38.6205-54.3567 38.5472-54.3161C38.7525-54.2275 38.9396-54.1574 39.1119-54.0577C39.2109-53.9986 39.3319-53.8989 39.3466-53.7992C39.3649-53.7032 39.2659-53.5777 39.2109-53.4743C39.1266-53.3155 39.0349-53.1641 38.9432-53.009L39.0166-52.95C39.1449-52.9795 39.2696-53.0386 39.3942-53.0349C39.5336-53.0349 39.7133-53.0201 39.7976-52.9352C39.8563-52.8687 39.8196-52.6694 39.7756-52.5438C39.7023-52.3407 39.8563-52.0491 40.0689-52.038C40.4356-52.0121 40.4833-51.9161 40.3146-51.5764C40.2816-51.51 40.3-51.3549 40.3513-51.318C40.971-50.8528 41.3303-50.1992 41.6604-49.5198C41.7887-49.254 41.928-48.9955 42.038-48.7223C42.0967-48.5783 42.0967-48.4158 42.137-48.2645C42.2837-47.7254 42.4084-47.1715 42.6101-46.6509C42.7201-46.374 42.9291-46.1082 43.1601-45.9162C43.5561-45.5912 43.9998-45.318 44.4325-45.0411C44.8652-44.7642 45.2979-44.4836 45.7489-44.2472C46.5226-43.8411 47.3183-43.4719 48.0993-43.0768C48.345-42.9549 48.5687-42.7925 48.8107-42.6595C49.1627-42.4675 49.5294-42.3051 49.8704-42.0983C50.3178-41.8288 50.7541-41.5371 51.1905-41.238C51.8322-40.7949 52.4739-40.3518 53.1009-39.8903C53.8049-39.3808 54.5126-38.8823 55.1873-38.3322C55.8547-37.7894 56.4927-37.206 57.1198-36.6116C57.6148-36.1426 58.0475-35.5999 58.5498-35.1457C59.0889-34.6657 59.6645-34.2226 60.2549-33.8128C60.9553-33.3217 61.6923-32.8823 62.4147-32.4208C62.4709-32.3854 62.5186-32.3374 62.554-32.2805C62.9867-31.5457 63.6797-31.2134 64.4608-31.0473C64.9851-30.9365 65.5168-30.8627 66.0485-30.7704C66.7709-30.6374 67.4859-30.4824 68.2119-30.3716C68.729-30.2904 69.2607-30.2867 69.7777-30.2091C70.7054-30.0688 71.6258-29.8953 72.5498-29.7439C72.7368-29.7107 72.9275-29.707 73.1182-29.6774L76.4183-29.2417C77.115-29.1457 77.8117-29.0571 78.5084-28.9464C79.4471-28.795 80.3932-28.651 81.3245-28.4516C81.8012-28.3519 81.8122-28.2079 81.4492-27.835C81.6179-27.7833 81.7682-27.739 81.9149-27.6873C82.0396-27.6504 82.1789-27.6245 82.2816-27.547C82.3623-27.4842 82.4429-27.3476 82.4283-27.259C82.4209-27.1888 82.2633-27.1002 82.1679-27.0965C81.8935-27.0879 81.6191-27.099 81.3465-27.1298C81.1742-27.1482 81.1045-27.1298 81.1632-26.9304C81.2182-26.7458 81.1082-26.6128 80.9359-26.6165C80.3046-26.6356 79.6739-26.6676 79.0438-26.7125C78.5671-26.7421 78.0977-26.7974 77.6247-26.8381C77.2507-26.875 76.8767-26.9082 76.5027-26.923C76.2753-26.9341 76.048-26.8934 75.8243-26.9045C75.0726-26.9414 74.3172-26.9673 73.5655-27.0411C72.8798-27.1076 72.2015-27.2294 71.5194-27.3218C71.3984-27.3365 71.2627-27.2922 71.1491-27.3218C70.489-27.4694 69.829-27.4916 69.1616-27.3956C68.784-27.3476 68.7583-27.3254 68.7583-26.9525C68.7583-26.7014 68.608-26.5944 68.3806-26.6867C68.1056-26.7974 67.8379-26.9082 67.4749-26.7753C67.5996-26.7014 67.6802-26.6461 67.7683-26.6091C68.5016-26.2621 69.235-25.915 69.972-25.5753C70.3314-25.4128 70.7017-25.2688 71.0647-25.1175C71.2077-25.0584 71.3361-24.9771 71.2664-24.7962C71.2041-24.6264 71.0831-24.5968 70.9071-24.6559C70.4927-24.7888 70.071-24.8996 69.653-25.0215L69.62-24.9439C69.8767-24.7925 70.1407-24.6485 70.3937-24.4861C70.588-24.3642 70.7604-24.2202 70.9511-24.0947C71.3324-23.851 71.7211-23.6147 72.0988-23.3636C72.1868-23.3008 72.2308-23.179 72.2968-23.083C72.1868-23.0276 72.0658-22.9095 71.9668-22.9242C70.9728-23.0901 69.9983-23.3587 69.059-23.7255C68.5753-23.9125 68.086-24.0852 67.5922-24.2424C67.1266-24.3901 66.6462-24.5193 66.1768-24.667C65.5205-24.8775 64.8751-25.1101 64.2151-25.3095C63.7852-25.4331 63.3494-25.5356 62.9097-25.6159C62.5702-25.6802 62.2274-25.7258 61.883-25.7525C61.7534-25.7553 61.6245-25.7301 61.5053-25.6787C61.0653-25.5088 60.6179-25.3538 60.1962-25.147C59.5362-24.8258 58.8982-24.4602 58.2418-24.1279C57.5928-23.7956 56.9364-23.4855 56.2837-23.1605C55.785-22.9132 55.2973-22.6436 54.795-22.4147C54.3733-22.2227 53.9369-22.0713 53.5079-21.9015C53.4309-21.8719 53.3576-21.8276 53.2769-21.8018C52.7049-21.643 52.7416-21.6393 52.6646-21.0338C52.6169-20.6387 52.4812-20.2362 52.3125-19.8744C51.9459-19.099 51.5058-18.3606 51.1465-17.5852C50.8971-17.0535 50.7285-16.4886 50.5231-15.9421C50.3691-15.5433 50.1858-15.1593 50.0611-14.7532C49.9034-14.2215 49.7861-13.675 49.6577-13.136C49.6137-12.9698 49.6981-12.9181 49.8521-12.9255C50.1968-12.9403 50.5415-12.9514 50.8898-12.9587C50.9338-12.9587 50.9851-12.9551 51.0291-12.9403C51.2198-12.8849 51.4545-12.848 51.4618-12.608C51.4618-12.5452 51.2198-12.4418 51.0768-12.4049C50.8568-12.3495 50.6185-12.3384 50.3911-12.2941C50.3104-12.2757 50.2371-12.2203 50.1638-12.1723C50.1564-12.1649 50.1858-12.0615 50.2114-12.0541C50.2912-12.0249 50.3761-12.0135 50.4608-12.0209C50.7798-12.0689 51.0988-12.1243 51.4215-12.1797C51.9569-12.272 52.4922-12.3901 53.0349-12.4603C53.4016-12.5046 53.7756-12.5009 54.146-12.5046C54.7143-12.5083 55.2827-12.512 55.8437-12.4824C55.961-12.4787 56.1664-12.3311 56.159-12.2609C56.148-12.0689 55.9647-12.0874 55.807-12.0947C55.3743-12.1058 54.9343-12.1464 54.509-12.0911C54.0983-12.0394 53.7059-11.8289 53.2989-11.7883C52.8846-11.7514 52.6572-11.4892 52.3675-11.2603C51.9165-10.9058 51.3885-11.0092 50.8678-11.0757C50.3618-11.1384 49.8411-11.2418 49.3387-11.1901C48.8868-11.1308 48.4507-10.9828 48.0553-10.7544C47.4686-10.4332 46.937-10.0271 46.3869-9.64676C45.9102-9.32184 45.6389-8.82707 45.3602-8.33969C45.3272-8.2843 45.3235-8.21046 45.2869-8.17354C45.2062-8.10338 45.1072-8.05538 45.0192-8C44.9642-8.12554 44.8505-8.25107 44.8615-8.36923C44.9239-9.16676 45.4116-9.6763 46.0166-10.112C46.3539-10.3557 46.6656-10.6363 46.981-10.9095C47.0323-10.9538 47.08-11.0941 47.0543-11.1237C46.9846-11.2123 46.871-11.3194 46.7793-11.3194C46.0349-11.312 45.2942-11.2972 44.5498-11.2566C44.0512-11.2308 43.6221-11.4154 43.1931-11.6295C43.1198-11.6664 43.0024-11.6517 42.9254-11.6221C42.5954-11.4855 42.2764-11.3415 41.906-11.4375C41.8327-11.456 41.7484-11.3784 41.6677-11.3784C41.5577-11.3748 41.422-11.3637 41.3487-11.4228C41.301-11.4634 41.345-11.6184 41.334-11.7181C41.3193-11.8031 41.2937-11.888 41.279-11.9471L41.279-11.9471ZM53.43-18.3665C53.39-18.5625 53.366-18.7375 53.314-18.9055C53.278-19.021 53.1941-19.035 53.1261-18.923C53.0181-18.755 52.8981-18.594 52.8101-18.4155C52.4702-17.7016 51.9144-17.1766 51.4425-16.5781C51.1105-16.1651 50.7466-15.7766 50.4347-15.3497C50.0348-14.8037 49.7509-14.1877 49.5709-13.5192C49.5269-13.3477 49.4189-13.1762 49.4309-13.0152C49.4709-12.4902 49.8228-12.2348 50.2387-12.0528C50.2907-12.0283 50.3507-11.9968 50.4067-12.0003C50.5827-12.0169 50.7566-12.0472 50.9266-12.0913C50.9946-12.1088 51.0665-12.1788 51.1025-12.2488C51.3305-12.7037 51.5584-13.1517 51.7624-13.6172C52.0543-14.2787 52.3423-14.9402 52.5982-15.6156C52.8101-16.1756 52.9821-16.7531 53.1581-17.3306C53.262-17.6736 53.342-18.0306 53.43-18.3665L53.43-18.3665Z"/>
   <path class="monochrome-1 multicolor-1:tintColor hierarchical-1:tertiary SFSymbolsPreviewWireframe" d="M48.9411-84C55.3091-84.0013 61.615-82.7479 67.4985-80.3116C73.382-77.8752 78.7279-74.3036 83.2305-69.8009C87.7334-65.2983 91.305-59.9524 93.7418-54.0682C96.1779-48.1846 97.4312-41.8789 97.43-35.5124C97.43-8.72255 75.7254 13 48.9424 13C22.156 13 0.43-8.726 0.43-35.5124C0.43-62.2926 22.1539-84 48.9411-84ZM48.9424-70C29.8835-70 14.43-54.5582 14.43-35.5124C14.43-16.458 29.888-0.999999 48.9424-0.999999C67.9909-0.999999 83.43-16.4519 83.43-35.5138C83.4309-40.0428 82.5395-44.5276 80.8069-48.7121C79.0739-52.8969 76.5337-56.6989 73.3311-59.9013C70.1287-63.1038 66.3266-65.644 62.1422-67.3767C57.9578-69.1095 53.4729-70.0009 48.9424-70Z"/>
  </g>
  <g id="Regular-S" transform="matrix(1 0 0 1 1403.58 696)">
   <path class="monochrome-0 multicolor-0:tintColor hierarchical-0:primary SFSymbolsPreviewWireframe" d="M38.457-13.3388C38.2023-13.3473 37.9687-13.3219 37.7564-13.3771C37.0728-13.5511 36.4231-13.5469 35.7989-13.1563C35.5866-13.0289 35.3191-12.9737 35.0771-12.9227C35.0134-12.9057 34.8563-13.0374 34.8648-13.0798C34.886-13.1987 34.9412-13.3686 35.0346-13.411C35.4635-13.6106 35.9093-13.7677 36.3509-13.946C36.3679-13.9503 36.3807-13.9715 36.3467-13.9418C36.3255-14.1329 36.2448-14.3367 36.3085-14.4301C36.508-14.7103 36.8307-14.7995 37.1577-14.7698C37.5399-14.7273 37.9135-14.6297 38.2914-14.5787C38.9963-14.4768 39.6927-14.5447 40.3763-14.7231C40.6013-14.7825 40.8603-14.7783 41.0472-14.8929C41.6077-15.2411 41.8837-15.8186 42.1937-16.3791C42.4399-16.8249 42.7839-17.2198 43.0854-17.6359C43.4675-18.154 43.8582-18.672 44.2318-19.1985C44.8135-20.0095 45.4207-20.8036 45.943-21.6613C46.1766-22.0435 46.2148-22.553 46.3422-23.0073C46.3634-23.0923 46.3676-23.1857 46.3889-23.2748C46.4611-23.5593 46.3379-23.7419 46.0492-23.8014C45.132-24.0009 44.2063-24.1708 43.3019-24.4255C42.6876-24.6138 42.0907-24.8555 41.5185-25.1474C40.6438-25.572 39.7776-26.0221 38.9283-26.4977C38.339-26.8147 37.7741-27.1753 37.2384-27.5762C36.3127-28.2895 35.4125-29.0411 34.5378-29.8182C33.9261-30.3719 33.3422-30.9558 32.7884-31.5676C32.5167-31.8563 32.3298-32.2257 32.0963-32.5527C32.0114-32.6716 31.8925-32.765 31.8203-32.8839C31.4806-33.4486 31.1409-34.0091 30.8139-34.5823C30.4997-35.1343 30.1813-35.6948 29.901-36.2638C29.3236-37.4184 28.7673-38.5836 28.2323-39.7584C27.7942-40.7538 27.3821-41.7605 26.9967-42.7774C26.6994-43.5587 26.4234-44.3485 26.1687-45.1425C26.1007-45.3548 26.1432-45.6011 26.1219-45.8304C26.1092-45.9366 26.0583-46.0427 26.0667-46.1276C26.0795-46.3824 26.0583-46.6457 26.1177-46.8919C26.1856-47.1977 26.347-47.4864 26.4234-47.7921C26.5105-48.0812 26.5535-48.382 26.5508-48.6838C26.5083-49.3887 26.4107-50.0936 26.347-50.7984C26.2663-51.6562 25.6803-52.3016 24.8396-52.3865C24.449-52.429 24.0583-52.3865 23.6677-52.3992C23.5488-52.4035 23.4341-52.4842 23.3195-52.5266C23.3874-52.6455 23.4256-52.7984 23.5233-52.8663C24.2579-53.3928 25.1368-53.5882 25.9521-53.9151C26.4404-54.1104 26.6952-54.5351 26.8311-55.0106C26.865-55.1338 26.6782-55.397 26.5296-55.4777C25.8456-55.8396 25.1488-56.1767 24.4405-56.4883C24.0243-56.6709 23.5827-56.7983 23.1496-56.9384C23.0138-56.9808 22.8609-56.9681 22.7293-57.0233C22.6104-57.0743 22.4745-57.1634 22.4235-57.2738C22.3981-57.329 22.517-57.5328 22.6019-57.5541C23.1327-57.6984 23.6634-57.8386 24.2069-57.9192C24.6485-57.9829 25.1029-57.949 25.5487-57.9787C25.676-57.9925 25.7975-58.0393 25.9011-58.1146C26.2451-58.3524 26.6103-58.5816 26.9117-58.8704C27.8119-59.7324 28.7163-60.5943 29.5656-61.503C30.3129-62.3013 31.1621-62.9255 32.1387-63.3713C32.3808-63.4775 32.6695-63.4817 32.92-63.5709C33.1239-63.6431 33.3022-63.7832 33.5018-63.8724C33.6291-63.9318 33.7905-64.021 33.9094-63.9955C34.0453-63.9615 34.1642-63.8256 34.2703-63.7068C34.2873-63.694 34.1727-63.5539 34.1175-63.4732L34.0071-63.3161C34.0707-63.2991 34.1344-63.2694 34.1896-63.2779C34.4019-63.3161 34.6143-63.3968 34.8266-63.401C34.92-63.401 35.0134-63.2482 35.1068-63.1675C35.1917-63.0911 35.2767-62.9722 35.3701-62.9552C35.5696-62.9255 35.8159-62.9127 35.8032-62.6749C35.7947-62.5051 35.6206-62.3395 35.5059-62.1866C35.4635-62.1314 35.3786-62.1102 35.2936-62.0635C35.5314-61.9616 35.748-61.8809 35.9475-61.7663C36.0622-61.6983 36.2023-61.5837 36.2193-61.469C36.2405-61.3586 36.1259-61.2143 36.0622-61.0954C35.9645-60.9128 35.8584-60.7387 35.7522-60.5604L35.8371-60.4924C35.9858-60.5264 36.1301-60.5943 36.2745-60.5901C36.4359-60.5901 36.6439-60.5731 36.7416-60.4754C36.8095-60.399 36.7671-60.1697 36.7161-60.0253C36.6312-59.7918 36.8095-59.4564 37.0558-59.4436C37.4804-59.4139 37.5356-59.3035 37.3403-58.9128C37.3021-58.8364 37.3233-58.6581 37.3827-58.6156C38.1003-58.0806 38.5165-57.329 38.8986-56.5477C39.0472-56.242 39.2086-55.9448 39.336-55.6306C39.4039-55.465 39.4039-55.2781 39.4506-55.104C39.6205-54.4841 39.7648-53.8472 39.9984-53.2485C40.1258-52.93 40.3678-52.6243 40.6353-52.4035C41.0939-52.0298 41.6077-51.7156 42.1087-51.3972C42.6098-51.0787 43.1108-50.756 43.6331-50.4842C44.5291-50.0172 45.4505-49.5925 46.3549-49.1382C46.6394-48.998 46.8984-48.8112 47.1787-48.6583C47.5863-48.4375 48.0109-48.2507 48.4058-48.0129C48.9238-47.703 49.4291-47.3675 49.9344-47.0236C50.6775-46.514 51.4206-46.0045 52.1467-45.4737C52.9619-44.8878 53.7814-44.3145 54.5627-43.6819C55.3355-43.0577 56.0743-42.3868 56.8004-41.7031C57.3737-41.1639 57.8747-40.5397 58.4564-40.0174C59.0806-39.4654 59.7473-38.9559 60.4309-38.4846C61.2419-37.9198 62.0954-37.4145 62.9319-36.8838C62.997-36.8431 63.0522-36.7879 63.0932-36.7224C63.5943-35.8774 64.3968-35.4953 65.3012-35.3042C65.9084-35.1768 66.5241-35.0919 67.1398-34.9857C67.9763-34.8329 68.8043-34.6545 69.6451-34.5271C70.2438-34.4337 70.8595-34.4295 71.4582-34.3403C72.5324-34.179 73.5982-33.9794 74.6683-33.8053C74.8848-33.7671 75.1056-33.7628 75.3264-33.7289L79.1479-33.2278C79.9547-33.1174 80.7615-33.0155 81.5683-32.8881C82.6553-32.714 83.7508-32.5484 84.8293-32.3191C85.3813-32.2045 85.394-32.0389 84.9737-31.61C85.169-31.5506 85.3431-31.4996 85.5129-31.4402C85.6573-31.3977 85.8187-31.368 85.9375-31.2788C86.031-31.2067 86.1244-31.0495 86.1074-30.9476C86.0989-30.867 85.9163-30.7651 85.8059-30.7608C85.4882-30.7509 85.1704-30.7636 84.8548-30.799C84.6552-30.8203 84.5745-30.799 84.6425-30.5697C84.7062-30.3574 84.5788-30.2046 84.3792-30.2088C83.6482-30.2307 82.9178-30.2675 82.1882-30.3192C81.6362-30.3532 81.0927-30.4169 80.5449-30.4636C80.1118-30.506 79.6787-30.5443 79.2456-30.5612C78.9823-30.574 78.7191-30.5273 78.4601-30.54C77.5896-30.5825 76.7149-30.6122 75.8444-30.6971C75.0504-30.7735 74.2649-30.9137 73.4751-31.0198C73.335-31.0368 73.1779-30.9859 73.0462-31.0198C72.2819-31.1897 71.5176-31.2151 70.7448-31.1047C70.3075-31.0495 70.2777-31.0241 70.2777-30.5952C70.2777-30.3065 70.1036-30.1833 69.8404-30.2895C69.5219-30.4169 69.2119-30.5443 68.7916-30.3914C68.9359-30.3065 69.0294-30.2428 69.1313-30.2003C69.9805-29.8012 70.8297-29.402 71.6832-29.0114C72.0993-28.8246 72.5282-28.659 72.9486-28.4849C73.1142-28.4169 73.2628-28.3235 73.1821-28.1155C73.1099-27.9201 72.9698-27.8862 72.766-27.9541C72.2862-28.107 71.7979-28.2343 71.3138-28.3745L71.2756-28.2853C71.5728-28.1112 71.8785-27.9456 72.1715-27.7588C72.3966-27.6187 72.5961-27.4531 72.8169-27.3087C73.2585-27.0284 73.7086-26.7567 74.146-26.4679C74.2479-26.3958 74.2988-26.2556 74.3753-26.1452C74.2479-26.0815 74.1078-25.9457 73.9931-25.9627C72.8421-26.1534 71.7136-26.4623 70.6259-26.8841C70.0658-27.0992 69.4993-27.2977 68.9275-27.4785C68.3882-27.6484 67.8319-27.797 67.2884-27.9668C66.5284-28.2089 65.7811-28.4764 65.0167-28.7057C64.5189-28.8479 64.0143-28.9657 63.5051-29.0581C63.112-29.1321 62.715-29.1844 62.3162-29.2152C62.1662-29.2184 62.0168-29.1894 61.8788-29.1303C61.3693-28.935 60.8513-28.7566 60.363-28.5188C59.5987-28.1494 58.8598-27.7291 58.0998-27.3469C57.3482-26.9647 56.5881-26.6081 55.8323-26.2344C55.2548-25.9499 54.6901-25.6399 54.1084-25.3767C53.6201-25.1559 53.1148-24.9818 52.618-24.7865C52.5288-24.7525 52.4439-24.7015 52.3505-24.6718C51.6881-24.4892 51.7305-24.485 51.6414-23.7886C51.5862-23.3343 51.4291-22.8715 51.2337-22.4553C50.8091-21.5636 50.2996-20.7144 49.8835-19.8227C49.5947-19.2113 49.3994-18.5616 49.1616-17.9332C48.9833-17.4746 48.771-17.033 48.6266-16.5659C48.444-15.9545 48.3081-15.326 48.1595-14.7061C48.1086-14.515 48.2062-14.4556 48.3846-14.4641C48.7837-14.4811 49.1828-14.4938 49.5862-14.5023C49.6372-14.5023 49.6966-14.498 49.7476-14.4811C49.9684-14.4174 50.2401-14.3749 50.2486-14.0989C50.2486-14.0267 49.9684-13.9078 49.8028-13.8654C49.548-13.8017 49.272-13.7889 49.0087-13.738C48.9153-13.7167 48.8304-13.6531 48.7455-13.5979C48.737-13.5894 48.771-13.4705 48.8007-13.462C48.893-13.4284 48.9914-13.4153 49.0894-13.4238C49.4588-13.479 49.8283-13.5427 50.2019-13.6063C50.8219-13.7125 51.4418-13.8484 52.0702-13.9291C52.4948-13.98 52.9279-13.9758 53.3568-13.98C54.015-13.9843 54.6731-13.9885 55.3228-13.9545C55.4587-13.9503 55.6964-13.7804 55.6879-13.6998C55.6752-13.479 55.4629-13.5002 55.2803-13.5087C54.7793-13.5214 54.2697-13.5681 53.7772-13.5044C53.3016-13.445 52.8473-13.203 52.3759-13.1563C51.8961-13.1138 51.6329-12.8123 51.2974-12.5491C50.7751-12.1414 50.1637-12.2603 49.5607-12.3367C48.9748-12.4089 48.3718-12.5278 47.7901-12.4684C47.2668-12.4001 46.7618-12.2299 46.3039-11.9673C45.6246-11.5979 45.0089-11.1308 44.3719-10.6935C43.8199-10.3198 43.5057-9.75084 43.183-9.19035C43.1448-9.12666 43.1406-9.04173 43.0981-8.99927C43.0047-8.91859 42.89-8.86339 42.7881-8.7997C42.7244-8.94407 42.5928-9.08844 42.6055-9.22432C42.6777-10.1415 43.2425-10.7275 43.9431-11.2285C44.3337-11.5087 44.6947-11.8315 45.0598-12.1457C45.1193-12.1966 45.1745-12.358 45.1447-12.3919C45.0641-12.4939 44.9324-12.617 44.8263-12.617C43.9643-12.6085 43.1066-12.5915 42.2446-12.5448C41.6671-12.5151 41.1703-12.7274 40.6735-12.9737C40.5886-13.0161 40.4527-12.9991 40.3635-12.9652C39.9814-12.8081 39.612-12.6425 39.1831-12.7529C39.0982-12.7741 39.0005-12.6849 38.9071-12.6849C38.7797-12.6807 38.6226-12.6679 38.5377-12.7359C38.4825-12.7826 38.5335-12.9609 38.5207-13.0756C38.5037-13.1732 38.474-13.2709 38.457-13.3388L38.457-13.3388ZM52.1424-20.7696C52.0999-21.0074 52.0745-21.2197 52.0193-21.4235C51.9811-21.5636 51.8919-21.5806 51.8197-21.4447C51.7051-21.2409 51.5777-21.0456 51.4843-20.8291C51.1233-19.9628 50.5331-19.3259 50.0321-18.5998C49.6796-18.0988 49.2932-17.6275 48.962-17.1094C48.5374-16.447 48.2359-15.6997 48.0449-14.8887C47.9982-14.6806 47.8835-14.4726 47.8963-14.2772C47.9387-13.6403 48.3124-13.3303 48.754-13.1095C48.8092-13.0798 48.8729-13.0416 48.9323-13.0459C49.1191-13.066 49.3039-13.1028 49.4843-13.1563C49.5565-13.1775 49.6329-13.2624 49.6711-13.3473C49.9132-13.8993 50.1552-14.4428 50.3718-15.0076C50.6817-15.8101 50.9875-16.6126 51.2592-17.4321C51.4843-18.1115 51.6668-18.8121 51.8537-19.5127C51.9641-19.9289 52.049-20.362 52.1424-20.7696L52.1424-20.7696Z"/>
   <path class="monochrome-1 multicolor-1:tintColor hierarchical-1:tertiary SFSymbolsPreviewWireframe" d="M46.4321-81.8365C52.4502-81.8377 58.4096-80.6532 63.9698-78.3508C69.53-76.0483 74.5822-72.6729 78.8374-68.4176C83.0928-64.1624 86.4682-59.1103 88.771-53.5496C91.0733-47.9892 92.2577-42.03 92.2566-36.0127C92.2566-10.693 71.744 9.83658 46.4328 9.83658C21.1173 9.83658 0.5835-10.6972 0.5835-36.0127C0.5835-61.3211 21.1145-81.8365 46.4321-81.8365ZM46.4328-75.0865C24.8413-75.0865 7.3335-57.592 7.3335-36.0127C7.3335-14.4252 24.8452 3.08658 46.4328 3.08658C68.0148 3.08658 85.5066-14.4197 85.5066-36.0133C85.5076-41.1447 84.4976-46.226 82.5345-50.9672C80.571-55.7085 77.693-60.0162 74.0644-63.6446C70.4361-67.273 66.1283-70.1511 61.3873-72.1143C56.6463-74.0776 51.5649-75.0875 46.4328-75.0865Z"/>
  </g>
  <g id="Ultralight-S" transform="matrix(1 0 0 1 515.649 696)">
   <path class="monochrome-0 multicolor-0:tintColor hierarchical-0:primary SFSymbolsPreviewWireframe" d="M36.388-10.3388C36.1333-10.3473 35.8997-10.3219 35.6874-10.3771C35.0038-10.5511 34.3541-10.5469 33.7299-10.1563C33.5176-10.0289 33.2501-9.97367 33.0081-9.92272C32.9444-9.90573 32.7873-10.0374 32.7958-10.0798C32.817-10.1987 32.8722-10.3686 32.9656-10.411C33.3945-10.6106 33.8403-10.7677 34.2819-10.946C34.2989-10.9503 34.3117-10.9715 34.2777-10.9418C34.2565-11.1329 34.1758-11.3367 34.2395-11.4301C34.439-11.7103 34.7617-11.7995 35.0887-11.7698C35.4709-11.7273 35.8445-11.6297 36.2224-11.5787C36.9273-11.4768 37.6237-11.5447 38.3073-11.7231C38.5323-11.7825 38.7913-11.7783 38.9782-11.8929C39.5387-12.2411 39.8147-12.8186 40.1247-13.3791C40.3709-13.8249 40.7149-14.2198 41.0164-14.6359C41.3985-15.154 41.7892-15.672 42.1628-16.1985C42.7445-17.0095 43.3517-17.8036 43.874-18.6613C44.1076-19.0435 44.1458-19.553 44.2732-20.0073C44.2944-20.0923 44.2986-20.1857 44.3199-20.2748C44.3921-20.5593 44.2689-20.7419 43.9802-20.8014C43.063-21.0009 42.1373-21.1708 41.2329-21.4255C40.6186-21.6138 40.0217-21.8555 39.4495-22.1474C38.5748-22.572 37.7086-23.0221 36.8593-23.4977C36.27-23.8147 35.7051-24.1753 35.1694-24.5762C34.2437-25.2895 33.3435-26.0411 32.4688-26.8182C31.8571-27.3719 31.2732-27.9558 30.7194-28.5676C30.4477-28.8563 30.2608-29.2257 30.0273-29.5527C29.9424-29.6716 29.8235-29.765 29.7513-29.8839C29.4116-30.4486 29.0719-31.0091 28.7449-31.5823C28.4307-32.1343 28.1123-32.6948 27.832-33.2638C27.2546-34.4184 26.6983-35.5836 26.1633-36.7584C25.7252-37.7538 25.3131-38.7605 24.9277-39.7774C24.6304-40.5587 24.3544-41.3485 24.0997-42.1425C24.0317-42.3548 24.0742-42.6011 24.0529-42.8304C24.0402-42.9366 23.9893-43.0427 23.9977-43.1276C24.0105-43.3824 23.9893-43.6457 24.0487-43.8919C24.1166-44.1977 24.278-44.4864 24.3544-44.7921C24.4415-45.0812 24.4845-45.382 24.4818-45.6838C24.4393-46.3887 24.3417-47.0936 24.278-47.7984C24.1973-48.6562 23.6113-49.3016 22.7706-49.3865C22.38-49.429 21.9893-49.3865 21.5987-49.3992C21.4798-49.4035 21.3651-49.4842 21.2505-49.5266C21.3184-49.6455 21.3566-49.7984 21.4543-49.8663C22.1889-50.3928 23.0678-50.5882 23.8831-50.9151C24.3714-51.1104 24.6262-51.5351 24.7621-52.0106C24.796-52.1338 24.6092-52.397 24.4606-52.4777C23.7766-52.8396 23.0798-53.1767 22.3715-53.4883C21.9553-53.6709 21.5137-53.7983 21.0806-53.9384C20.9448-53.9808 20.7919-53.9681 20.6603-54.0233C20.5414-54.0743 20.4055-54.1634 20.3545-54.2738C20.3291-54.329 20.448-54.5328 20.5329-54.5541C21.0637-54.6984 21.5944-54.8386 22.1379-54.9192C22.5795-54.9829 23.0339-54.949 23.4797-54.9787C23.607-54.9925 23.7285-55.0393 23.8321-55.1146C24.1761-55.3524 24.5413-55.5816 24.8427-55.8704C25.7429-56.7324 26.6473-57.5943 27.4966-58.503C28.2439-59.3013 29.0931-59.9255 30.0697-60.3713C30.3118-60.4775 30.6005-60.4817 30.851-60.5709C31.0549-60.6431 31.2332-60.7832 31.4328-60.8724C31.5601-60.9318 31.7215-61.021 31.8404-60.9955C31.9763-60.9615 32.0952-60.8256 32.2013-60.7068C32.2183-60.694 32.1037-60.5539 32.0485-60.4732L31.9381-60.3161C32.0017-60.2991 32.0654-60.2694 32.1206-60.2779C32.3329-60.3161 32.5453-60.3968 32.7576-60.401C32.851-60.401 32.9444-60.2482 33.0378-60.1675C33.1227-60.0911 33.2077-59.9722 33.3011-59.9552C33.5006-59.9255 33.7469-59.9127 33.7342-59.6749C33.7257-59.5051 33.5516-59.3395 33.4369-59.1866C33.3945-59.1314 33.3096-59.1102 33.2246-59.0635C33.4624-58.9616 33.679-58.8809 33.8785-58.7663C33.9932-58.6983 34.1333-58.5837 34.1503-58.469C34.1715-58.3586 34.0569-58.2143 33.9932-58.0954C33.8955-57.9128 33.7894-57.7387 33.6832-57.5604L33.7681-57.4924C33.9168-57.5264 34.0611-57.5943 34.2055-57.5901C34.3669-57.5901 34.5749-57.5731 34.6726-57.4754C34.7405-57.399 34.6981-57.1697 34.6471-57.0253C34.5622-56.7918 34.7405-56.4564 34.9868-56.4436C35.4114-56.4139 35.4666-56.3035 35.2713-55.9128C35.2331-55.8364 35.2543-55.6581 35.3137-55.6156C36.0313-55.0806 36.4475-54.329 36.8296-53.5477C36.9782-53.242 37.1396-52.9448 37.267-52.6306C37.3349-52.465 37.3349-52.2781 37.3816-52.104C37.5515-51.4841 37.6958-50.8472 37.9294-50.2485C38.0568-49.93 38.2988-49.6243 38.5663-49.4035C39.0249-49.0298 39.5387-48.7156 40.0397-48.3972C40.5408-48.0787 41.0418-47.756 41.5641-47.4842C42.4601-47.0172 43.3815-46.5925 44.2859-46.1382C44.5704-45.998 44.8294-45.8112 45.1097-45.6583C45.5173-45.4375 45.9419-45.2507 46.3368-45.0129C46.8548-44.703 47.3601-44.3675 47.8654-44.0236C48.6085-43.514 49.3516-43.0045 50.0777-42.4737C50.8929-41.8878 51.7124-41.3145 52.4937-40.6819C53.2665-40.0577 54.0053-39.3868 54.7314-38.7031C55.3047-38.1639 55.8057-37.5397 56.3874-37.0174C57.0116-36.4654 57.6783-35.9559 58.3619-35.4846C59.1729-34.9198 60.0264-34.4145 60.8629-33.8838C60.928-33.8431 60.9832-33.7879 61.0242-33.7224C61.5253-32.8774 62.3278-32.4953 63.2322-32.3042C63.8394-32.1768 64.4551-32.0919 65.0708-31.9857C65.9073-31.8329 66.7353-31.6545 67.5761-31.5271C68.1748-31.4337 68.7905-31.4295 69.3892-31.3403C70.4634-31.179 71.5292-30.9794 72.5993-30.8053C72.8158-30.7671 73.0366-30.7628 73.2574-30.7289L77.0789-30.2278C77.8857-30.1174 78.6925-30.0155 79.4993-29.8881C80.5863-29.714 81.6818-29.5484 82.7603-29.3191C83.3123-29.2045 83.325-29.0389 82.9047-28.61C83.1-28.5506 83.2741-28.4996 83.4439-28.4402C83.5883-28.3977 83.7497-28.368 83.8685-28.2788C83.962-28.2067 84.0554-28.0495 84.0384-27.9476C84.0299-27.867 83.8473-27.7651 83.7369-27.7608C83.4192-27.7509 83.1014-27.7636 82.7858-27.799C82.5862-27.8203 82.5055-27.799 82.5735-27.5697C82.6372-27.3574 82.5098-27.2046 82.3102-27.2088C81.5792-27.2307 80.8488-27.2675 80.1192-27.3192C79.5672-27.3532 79.0237-27.4169 78.4759-27.4636C78.0428-27.506 77.6097-27.5443 77.1766-27.5612C76.9133-27.574 76.6501-27.5273 76.3911-27.54C75.5206-27.5825 74.6459-27.6122 73.7754-27.6971C72.9814-27.7735 72.1959-27.9137 71.4061-28.0198C71.266-28.0368 71.1089-27.9859 70.9772-28.0198C70.2129-28.1897 69.4486-28.2151 68.6758-28.1047C68.2385-28.0495 68.2087-28.0241 68.2087-27.5952C68.2087-27.3065 68.0346-27.1833 67.7714-27.2895C67.4529-27.4169 67.1429-27.5443 66.7226-27.3914C66.8669-27.3065 66.9604-27.2428 67.0623-27.2003C67.9115-26.8012 68.7607-26.402 69.6142-26.0114C70.0303-25.8246 70.4592-25.659 70.8796-25.4849C71.0452-25.4169 71.1938-25.3235 71.1131-25.1155C71.0409-24.9201 70.9008-24.8862 70.697-24.9541C70.2172-25.107 69.7289-25.2343 69.2448-25.3745L69.2066-25.2853C69.5038-25.1112 69.8095-24.9456 70.1025-24.7588C70.3276-24.6187 70.5271-24.4531 70.7479-24.3087C71.1895-24.0284 71.6396-23.7567 72.077-23.4679C72.1789-23.3958 72.2298-23.2556 72.3063-23.1452C72.1789-23.0815 72.0388-22.9457 71.9241-22.9627C70.7731-23.1534 69.6446-23.4623 68.5569-23.8841C67.9968-24.0992 67.4303-24.2977 66.8585-24.4785C66.3192-24.6484 65.7629-24.797 65.2194-24.9668C64.4594-25.2089 63.7121-25.4764 62.9477-25.7057C62.4499-25.8479 61.9453-25.9657 61.4361-26.0581C61.043-26.1321 60.646-26.1844 60.2472-26.2152C60.0972-26.2184 59.9478-26.1894 59.8098-26.1303C59.3003-25.935 58.7823-25.7566 58.294-25.5188C57.5297-25.1494 56.7908-24.7291 56.0308-24.3469C55.2792-23.9647 54.5191-23.6081 53.7633-23.2344C53.1858-22.9499 52.6211-22.6399 52.0394-22.3767C51.5511-22.1559 51.0458-21.9818 50.549-21.7865C50.4598-21.7525 50.3749-21.7015 50.2815-21.6718C49.6191-21.4892 49.6615-21.485 49.5724-20.7886C49.5172-20.3343 49.3601-19.8715 49.1647-19.4553C48.7401-18.5636 48.2306-17.7144 47.8145-16.8227C47.5257-16.2113 47.3304-15.5616 47.0926-14.9332C46.9143-14.4746 46.702-14.033 46.5576-13.5659C46.375-12.9545 46.2391-12.326 46.0905-11.7061C46.0396-11.515 46.1372-11.4556 46.3156-11.4641C46.7147-11.4811 47.1138-11.4938 47.5172-11.5023C47.5682-11.5023 47.6276-11.498 47.6786-11.4811C47.8994-11.4174 48.1711-11.3749 48.1796-11.0989C48.1796-11.0267 47.8994-10.9078 47.7338-10.8654C47.479-10.8017 47.203-10.7889 46.9397-10.738C46.8463-10.7167 46.7614-10.6531 46.6765-10.5979C46.668-10.5894 46.702-10.4705 46.7317-10.462C46.824-10.4284 46.9224-10.4153 47.0204-10.4238C47.3898-10.479 47.7593-10.5427 48.1329-10.6063C48.7529-10.7125 49.3728-10.8484 50.0012-10.9291C50.4258-10.98 50.8589-10.9758 51.2878-10.98C51.946-10.9843 52.6041-10.9885 53.2538-10.9545C53.3897-10.9503 53.6274-10.7804 53.6189-10.6998C53.6062-10.479 53.3939-10.5002 53.2113-10.5087C52.7103-10.5214 52.2007-10.5681 51.7082-10.5044C51.2326-10.445 50.7783-10.203 50.3069-10.1563C49.8271-10.1138 49.5639-9.81232 49.2284-9.54906C48.7061-9.14142 48.0947-9.26032 47.4917-9.33675C46.9058-9.40893 46.3028-9.52782 45.7211-9.46838C45.1978-9.40009 44.6928-9.22989 44.2349-8.96733C43.5556-8.59792 42.9399-8.13084 42.3029-7.69349C41.7509-7.31982 41.4367-6.75084 41.114-6.19035C41.0758-6.12666 41.0716-6.04173 41.0291-5.99927C40.9357-5.91859 40.821-5.86339 40.7191-5.7997C40.6554-5.94407 40.5238-6.08844 40.5365-6.22432C40.6087-7.14149 41.1735-7.72746 41.8741-8.2285C42.2647-8.50875 42.6257-8.83146 42.9908-9.14567C43.0503-9.19662 43.1055-9.35798 43.0757-9.39195C42.9951-9.49386 42.8634-9.61699 42.7573-9.61699C41.8953-9.6085 41.0376-9.59152 40.1756-9.54481C39.5981-9.51509 39.1013-9.72739 38.6045-9.97367C38.5196-10.0161 38.3837-9.99915 38.2945-9.96518C37.9124-9.80807 37.543-9.64247 37.1141-9.75287C37.0292-9.7741 36.9315-9.68493 36.8381-9.68493C36.7107-9.68069 36.5536-9.66795 36.4687-9.73589C36.4135-9.78259 36.4645-9.96093 36.4517-10.0756C36.4347-10.1732 36.405-10.2709 36.388-10.3388L36.388-10.3388ZM50.0734-17.7696C50.0309-18.0074 50.0055-18.2197 49.9503-18.4235C49.9121-18.5636 49.8229-18.5806 49.7507-18.4447C49.6361-18.2409 49.5087-18.0456 49.4153-17.8291C49.0543-16.9628 48.4641-16.3259 47.9631-15.5998C47.6106-15.0988 47.2242-14.6275 46.893-14.1094C46.4684-13.447 46.1669-12.6997 45.9759-11.8887C45.9292-11.6806 45.8145-11.4726 45.8273-11.2772C45.8697-10.6403 46.2434-10.3303 46.685-10.1095C46.7402-10.0798 46.8039-10.0416 46.8633-10.0459C47.0501-10.066 47.2349-10.1028 47.4153-10.1563C47.4875-10.1775 47.5639-10.2624 47.6021-10.3473C47.8442-10.8993 48.0862-11.4428 48.3028-12.0076C48.6127-12.8101 48.9185-13.6126 49.1902-14.4321C49.4153-15.1115 49.5978-15.8121 49.7847-16.5127C49.8951-16.9289 49.98-17.362 50.0734-17.7696L50.0734-17.7696Z"/>
   <path class="monochrome-1 multicolor-1:tintColor hierarchical-1:tertiary SFSymbolsPreviewWireframe" d="M44.3636-80.5865C50.0861-80.5876 55.7528-79.4613 61.04-77.272C66.3271-75.0826 71.1312-71.8729 75.1774-67.8265C79.2239-63.7803 82.4335-58.9764 84.6232-53.6889C86.8124-48.4015 87.9387-42.7349 87.9376-37.0127C87.9376-12.9352 68.432 6.58658 44.3638 6.58658C20.2909 6.58658 0.7645-12.9399 0.7645-37.0127C0.7645-61.0781 20.2877-80.5865 44.3636-80.5865ZM44.3638-78.3365C21.53-78.3365 3.0145-59.8351 3.0145-37.0127C3.0145-14.1825 21.5336 4.33658 44.3638 4.33658C67.1889 4.33658 85.6876-14.1774 85.6876-37.0129C85.6886-42.4398 84.6205-47.8138 82.5443-52.828C80.4678-57.8425 77.4239-62.3983 73.5865-66.2355C69.7491-70.073 65.1932-73.1168 60.1791-75.1931C55.1651-77.2695 49.791-78.3376 44.3638-78.3365Z"/>
  </g>
 </g>
</svg>
