<?xml version="1.0" encoding="UTF-8"?>
<svg width="3300px" height="2200px" viewBox="0 0 3300 2200" version="1.1" xmlns="http://www.w3.org/2000/svg" xmlns:xlink="http://www.w3.org/1999/xlink">
    <!-- Generator: Sketch 59.1 (86144) - https://sketch.com -->
    <title>filter</title>
    <desc>Created with Sketch.</desc>
    <g id="Page-1" stroke="none" stroke-width="1" fill="none" fill-rule="evenodd">
        <g id="filter">
            <g id="Notes">
                <rect id="artboard" fill="#FFFFFF" fill-rule="nonzero" x="0" y="0" width="3300" height="2200"></rect>
                <line x1="263" y1="292" x2="3036" y2="292" id="Path" stroke="#000000" stroke-width="0.5"></line>
                <text id="Weight/Scale-Variations" fill="#000000" font-family="Helvetica-Bold, Helvetica" font-size="13" font-weight="bold">
                    <tspan x="263" y="322">Weight/Scale Variations</tspan>
                </text>
                <text id="Ultralight" fill="#000000" font-family="Helvetica" font-size="13" font-weight="normal">
                    <tspan x="533.711" y="322">Ultralight</tspan>
                </text>
                <text id="Thin" fill="#000000" font-family="Helvetica" font-size="13" font-weight="normal">
                    <tspan x="843.422" y="322">Thin</tspan>
                </text>
                <text id="Light" fill="#000000" font-family="Helvetica" font-size="13" font-weight="normal">
                    <tspan x="1138.63" y="322">Light</tspan>
                </text>
                <text id="Regular" fill="#000000" font-family="Helvetica" font-size="13" font-weight="normal">
                    <tspan x="1426.84" y="322">Regular</tspan>
                </text>
                <text id="Medium" fill="#000000" font-family="Helvetica" font-size="13" font-weight="normal">
                    <tspan x="1723.06" y="322">Medium</tspan>
                </text>
                <text id="Semibold" fill="#000000" font-family="Helvetica" font-size="13" font-weight="normal">
                    <tspan x="2015.77" y="322">Semibold</tspan>
                </text>
                <text id="Bold" fill="#000000" font-family="Helvetica" font-size="13" font-weight="normal">
                    <tspan x="2326.48" y="322">Bold</tspan>
                </text>
                <text id="Heavy" fill="#000000" font-family="Helvetica" font-size="13" font-weight="normal">
                    <tspan x="2618.19" y="322">Heavy</tspan>
                </text>
                <text id="Black" fill="#000000" font-family="Helvetica" font-size="13" font-weight="normal">
                    <tspan x="2917.4" y="322">Black</tspan>
                </text>
                <line x1="263" y1="1903" x2="3036" y2="1903" id="Path" stroke="#000000" stroke-width="0.5"></line>
                <g id="Group" transform="translate(264.000000, 1918.000000)" fill="#000000" fill-rule="nonzero">
                    <path d="M8.24805,15.830078 C12.5547,15.830078 16.1387,12.25586 16.1387,7.94922 C16.1387,3.6426 12.5449,0.0684 8.23828,0.0684 C3.94141,0.0684 0.36719,3.6426 0.36719,7.94922 C0.36719,12.25586 3.95117,15.830078 8.24805,15.830078 Z M8.24805,14.345703 C4.70312,14.345703 1.87109,11.50391 1.87109,7.94922 C1.87109,4.3945 4.69336,1.5527 8.23828,1.5527 C11.793,1.5527 14.6348,4.3945 14.6445503,7.94922 C14.6543,11.50391 11.8027,14.345703 8.24805,14.345703 Z M8.22852,11.57227 C8.69727,11.57227 8.9707,11.25977 8.9707,10.74219 L8.9707,8.68164 L11.1973,8.68164 C11.6953,8.68164 12.0371,8.42773 12.0371,7.95898 C12.0371,7.48047 11.7148,7.2168 11.1973,7.2168 L8.9707,7.2168 L8.9707,4.9902 C8.9707,4.4727 8.69727,4.1504 8.22852,4.1504 C7.75977,4.1504 7.50586,4.4922 7.50586,4.9902 L7.50586,7.2168 L5.29883,7.2168 C4.78125,7.2168 4.44922,7.48047 4.44922,7.95898 C4.44922,8.42773 4.80078,8.68164 5.29883,8.68164 L7.50586,8.68164 L7.50586,10.74219 C7.50586,11.24023 7.75977,11.57227 8.22852,11.57227 Z" id="Shape"></path>
                </g>
                <g id="Group" transform="translate(282.506000, 1915.000000)" fill="#000000" fill-rule="nonzero">
                    <path d="M10.709,20.91016 C16.1582,20.91016 20.6699,16.39844 20.6699,10.94922 C20.6699,5.5098 16.1484,0.9883 10.6992,0.9883 C5.25977,0.9883 0.74805,5.5098 0.74805,10.94922 C0.74805,16.39844 5.26953,20.91016 10.709,20.91016 Z M10.709,19.25 C6.09961,19.25 2.41797,15.55859 2.41797,10.94922 C2.41797,6.3496 6.08984,2.6484 10.6992,2.6484 C15.3086,2.6484 19,6.3496 19.0098379,10.94922 C19.0195,15.55859 15.3184,19.25 10.709,19.25 Z M10.6895,15.58789 C11.207,15.58789 11.5195,15.22656 11.5195,14.66016 L11.5195,11.76953 L14.5762,11.76953 C15.123,11.76953 15.5039,11.48633 15.5039,10.96875 C15.5039,10.44141 15.1426,10.13867 14.5762,10.13867 L11.5195,10.13867 L11.5195,7.0723 C11.5195,6.4961 11.207,6.1445 10.6895,6.1445 C10.1719,6.1445 9.8789,6.5156 9.8789,7.0723 L9.8789,10.13867 L6.83203,10.13867 C6.26562,10.13867 5.89453,10.44141 5.89453,10.96875 C5.89453,11.48633 6.28516,11.76953 6.83203,11.76953 L9.8789,11.76953 L9.8789,14.66016 C9.8789,15.20703 10.1719,15.58789 10.6895,15.58789 Z" id="Shape"></path>
                </g>
                <g id="Group" transform="translate(306.924000, 1913.000000)" fill="#000000" fill-rule="nonzero">
                    <path d="M12.9707,25.67383 C19.9336,25.67383 25.6953,19.921875 25.6953,12.95898 C25.6953,5.9961 19.9238,0.2441 12.9609,0.2441 C6.00781,0.2441 0.25586,5.9961 0.25586,12.95898 C0.25586,19.921875 6.01758,25.67383 12.9707,25.67383 Z M12.9707,23.85742 C6.93555,23.85742 2.08203,18.99414 2.08203,12.95898 C2.08203,6.9238 6.92578,2.0605 12.9609,2.0605 C19.0059,2.0605 23.8594,6.9238 23.8691295,12.95898 C23.8789,18.99414 19.0156,23.85742 12.9707,23.85742 Z M12.9512,18.93555 C13.5176,18.93555 13.8691,18.54492 13.8691,17.93945 L13.8691,13.86719 L18.1074,13.86719 C18.6934,13.86719 19.1133,13.53516 19.1133,12.97852 C19.1133,12.40234 18.7227,12.06055 18.1074,12.06055 L13.8691,12.06055 L13.8691,7.8125 C13.8691,7.1973 13.5176,6.8066 12.9512,6.8066 C12.3848,6.8066 12.0625,7.2168 12.0625,7.8125 L12.0625,12.06055 L7.83398,12.06055 C7.21875,12.06055 6.80859,12.40234 6.80859,12.97852 C6.80859,13.53516 7.23828,13.86719 7.83398,13.86719 L12.0625,13.86719 L12.0625,17.93945 C12.0625,18.52539 12.3848,18.93555 12.9512,18.93555 Z" id="Shape"></path>
                </g>
                <text id="Design-Variations" fill="#000000" font-family="Helvetica-Bold, Helvetica" font-size="13" font-weight="bold">
                    <tspan x="263" y="1953">Design Variations</tspan>
                </text>
                <text id="Symbols-are-supported-in-up-to-nine-weights-and-three-scales." fill="#000000" font-family="Helvetica" font-size="13" font-weight="normal">
                    <tspan x="263" y="1971">Symbols are supported in up to nine weights and three scales.</tspan>
                </text>
                <text id="For-optimal-layout-with-text-and-other-symbols,-vertically-align" fill="#000000" font-family="Helvetica" font-size="13" font-weight="normal">
                    <tspan x="263" y="1989">For optimal layout with text and other symbols, vertically align</tspan>
                </text>
                <text id="symbols-with-the-adjacent-text." fill="#000000" font-family="Helvetica" font-size="13" font-weight="normal">
                    <tspan x="263" y="2007">symbols with the adjacent text.</tspan>
                </text>
                <rect id="Rectangle" fill="#00AEEF" fill-rule="nonzero" opacity="0.4" x="776" y="1919" width="3" height="14"></rect>
                <g id="Group" transform="translate(779.000000, 1918.000000)" fill="#000000" fill-rule="nonzero">
                    <path d="M10.5273,15 L12.373,15 L7.17773,0.9082 L5.43945,0.9082 L0.244141,15 L2.08984,15 L3.50586,10.9668 L9.11133,10.9668 L10.5273,15 Z M6.2793,3.0469 L6.33789,3.0469 L8.59375,9.47266 L4.02344,9.47266 L6.2793,3.0469 Z" id="Shape"></path>
                </g>
                <rect id="Rectangle" fill="#00AEEF" fill-rule="nonzero" opacity="0.4" x="791.617" y="1919" width="3" height="14"></rect>
                <text id="Margins" fill="#000000" font-family="Helvetica-Bold, Helvetica" font-size="13" font-weight="bold">
                    <tspan x="776" y="1953">Margins</tspan>
                </text>
                <text id="Leading-and-trailing-margins-on-the-left-and-right-side-of-each-symbol" fill="#000000" font-family="Helvetica" font-size="13" font-weight="normal">
                    <tspan x="776" y="1971">Leading and trailing margins on the left and right side of each symbol</tspan>
                </text>
                <text id="can-be-adjusted-by-modifying-the-width-of-the-blue-rectangles." fill="#000000" font-family="Helvetica" font-size="13" font-weight="normal">
                    <tspan x="776" y="1989">can be adjusted by modifying the width of the blue rectangles.</tspan>
                </text>
                <text id="Modifications-are-automatically-applied-proportionally-to-all" fill="#000000" font-family="Helvetica" font-size="13" font-weight="normal">
                    <tspan x="776" y="2007">Modifications are automatically applied proportionally to all</tspan>
                </text>
                <text id="scales-and-weights." fill="#000000" font-family="Helvetica" font-size="13" font-weight="normal">
                    <tspan x="776" y="2025">scales and weights.</tspan>
                </text>
                <g id="Group" transform="translate(1291.000000, 1915.000000)" fill="#000000" fill-rule="nonzero">
                    <path d="M0.83203,21.11523 L2.375,22.6582 C3.22461,23.48828 4.19141,23.41992 5.06055,22.46289 L15.2754,11.33984 C15.7051,11.63281 16.0957,11.62305 16.5645,11.52539 L17.6094,11.31055 L18.3027,12.00391 L18.2539,12.52148 C18.1855,13.04883 18.3516,13.46875 18.8496,13.9668 L19.6602,14.77734 C20.168,15.28516 20.8223,15.31445 21.3008,14.83594 L24.5527,11.58398 C25.0312,11.10547 25.0117,10.45117 24.5039,9.94336 L23.6836,9.12305 C23.1855,8.625 22.7754,8.44922 22.2383,8.52734 L21.7109,8.58594 L21.0566,7.9219 L21.3398,6.7793 C21.4863,6.2129 21.3398,5.7441 20.7148,5.1387 L18.3027,2.7461 C14.7578,-0.7793 10.2266,-0.6719 7.11133,2.4629 C6.69141,2.8926 6.64258,3.4785 6.91602,3.9082 C7.15039,4.2793 7.62891,4.5039 8.2734,4.3379 C9.7871,3.957 11.3008,4.0742 12.7852,5.0801 L12.1602,6.6621 C11.9258,7.248 11.9453,7.7266 12.1797,8.16602 L1.01758,18.439453 C0.08008,19.30859 -0.02734,20.25586 0.83203,21.11523 Z M8.6738,2.8535 C11.3398,0.8613 14.6504,1.1738 17.0527,3.5859 L19.6797,6.1934 C19.9141,6.4277 19.9434,6.6133 19.8848,6.9062 L19.5039,8.46875 L21.0762,10.04102 L22.043,9.95312 C22.3262,9.92383 22.4141,9.94336 22.6387,10.16797 L23.2637,10.79297 L20.5098,13.53711 L19.8848,12.92188 C19.6602,12.69727 19.6406,12.59961 19.6699,12.31641 L19.7578,11.35938 L18.1953,9.79688 L16.5742,10.10938 C16.291,10.16797 16.1445,10.16797 15.9102,9.92383 L13.7324,7.7461 C13.5078,7.5117 13.4785,7.375 13.6055,7.0527 L14.5527,4.7773 C12.9512,3.2441 10.8418,2.3945 8.8008,3.0488 C8.7129,3.0781 8.6445,3.0586 8.6152,3.0195 C8.5859,2.9707 8.5859,2.9219 8.6738,2.8535 Z M2.10156,20.41211 C1.61328,19.91406 1.78906,19.61133 2.12109,19.30859 L13.0781,9.19141 L14.3086,10.42188 L4.15234,21.34961 C3.84961,21.68164 3.46875,21.7793 3.06836,21.37891 L2.10156,20.41211 Z" id="Shape"></path>
                </g>
                <text id="Exporting" fill="#000000" font-family="Helvetica-Bold, Helvetica" font-size="13" font-weight="bold">
                    <tspan x="1289" y="1953">Exporting</tspan>
                </text>
                <text id="Symbols-should-be-outlined-when-exporting-to-ensure-the" fill="#000000" font-family="Helvetica" font-size="13" font-weight="normal">
                    <tspan x="1289" y="1971">Symbols should be outlined when exporting to ensure the</tspan>
                </text>
                <text id="design-is-preserved-when-submitting-to-Xcode." fill="#000000" font-family="Helvetica" font-size="13" font-weight="normal">
                    <tspan x="1289" y="1989">design is preserved when submitting to Xcode.</tspan>
                </text>
                <text id="Template-v.1.0" fill="#000000" font-family="Helvetica" font-size="13" font-weight="normal">
                    <tspan x="2952" y="1933">Template v.1.0</tspan>
                </text>
                <text id="Generated-from-circle" fill="#000000" font-family="Helvetica" font-size="13" font-weight="normal">
                    <tspan x="2911" y="1951">Generated from circle</tspan>
                </text>
                <text id="Typeset-at-100-points" fill="#000000" font-family="Helvetica" font-size="13" font-weight="normal">
                    <tspan x="2912" y="1969">Typeset at 100 points</tspan>
                </text>
                <text id="Small" fill="#000000" font-family="Helvetica" font-size="13" font-weight="normal">
                    <tspan x="263" y="726">Small</tspan>
                </text>
                <text id="Medium" fill="#000000" font-family="Helvetica" font-size="13" font-weight="normal">
                    <tspan x="263" y="1156">Medium</tspan>
                </text>
                <text id="Large" fill="#000000" font-family="Helvetica" font-size="13" font-weight="normal">
                    <tspan x="263" y="1586">Large</tspan>
                </text>
            </g>
            <g id="Guides" transform="translate(263.000000, 625.000000)">
                <g id="H-reference" transform="translate(76.000000, 0.000000)" fill="#27AAE1" fill-rule="nonzero">
                    <path d="M54.9316,71 L57.666,71 L30.5664,0.541 L28.0762,0.541 L0.976562,71 L3.66211,71 L12.9395,46.5371 L45.7031,46.5371 L54.9316,71 Z M29.1992,3.9102 L29.4434,3.9102 L44.8242,44.291 L13.8184,44.291 L29.1992,3.9102 Z" id="Shape"></path>
                </g>
                <line x1="0" y1="71" x2="2773" y2="71" id="Baseline-S" stroke="#27AAE1" stroke-width="0.577"></line>
                <line x1="0" y1="0.541" x2="2773" y2="0.541" id="Capline-S" stroke="#27AAE1" stroke-width="0.577"></line>
                <g id="H-reference" transform="translate(76.000000, 430.000000)" fill="#27AAE1" fill-rule="nonzero">
                    <path d="M54.9316,71 L57.666,71 L30.5664,0.541 L28.0762,0.541 L0.976562,71 L3.66211,71 L12.9395,46.5371 L45.7031,46.5371 L54.9316,71 Z M29.1992,3.9102 L29.4434,3.9102 L44.8242,44.291 L13.8184,44.291 L29.1992,3.9102 Z" id="Shape"></path>
                </g>
                <line x1="0" y1="501" x2="2773" y2="501" id="Baseline-M" stroke="#27AAE1" stroke-width="0.577"></line>
                <line x1="0" y1="430.54" x2="2773" y2="430.54" id="Capline-M" stroke="#27AAE1" stroke-width="0.577"></line>
                <g id="H-reference" transform="translate(76.000000, 860.000000)" fill="#27AAE1" fill-rule="nonzero">
                    <path d="M54.9316,71 L57.666,71 L30.5664,0.541 L28.0762,0.541 L0.976562,71 L3.66211,71 L12.9395,46.5371 L45.7031,46.5371 L54.9316,71 Z M29.1992,3.9102 L29.4434,3.9102 L44.8242,44.291 L13.8184,44.291 L29.1992,3.9102 Z" id="Shape"></path>
                </g>
                <line x1="0" y1="931" x2="2773" y2="931" id="Baseline-L" stroke="#27AAE1" stroke-width="0.577"></line>
                <line x1="0" y1="860.54" x2="2773" y2="860.54" id="Capline-L" stroke="#27AAE1" stroke-width="0.577"></line>
                <rect id="left-margin" fill="#00AEEF" fill-rule="nonzero" opacity="0.4" x="1128.3" y="405.79" width="8.74023" height="119.336"></rect>
                <rect id="right-margin" fill="#00AEEF" fill-rule="nonzero" opacity="0.4" x="1236.65" y="405.79" width="8.74023" height="119.336"></rect>
            </g>
            <g id="Symbols" transform="translate(1399.000000, 1040.000000)" fill="#000000" fill-rule="nonzero">
                <g id="Regular-M" transform="translate(0.300000, 0.000000)">
                    <path d="M50.5449,100.5508 C77.791,100.5508 100.35,77.99219 100.35,50.7461 C100.35,23.5488 77.7422,0.9414 50.4961,0.9414 C23.2988,0.9414 0.74023,23.5488 0.74023,50.7461 C0.74023,77.99219 23.3477,100.5508 50.5449,100.5508 Z M50.1551,92.0078 C27.1082,92.0078 8.7,73.5508 8.7,50.5039 C8.7,27.5058 27.0594,9 50.1063,9 C73.1532,9 91.6102,27.5058 91.6593938,50.5039 C91.7082,73.5508 73.202,92.0078 50.1551,92.0078 Z" id="Shape"></path>
                    <path d="M65.4245177,25.5360888 C65.4605186,25.6494227 65.4875193,25.7627566 65.5370205,25.8715571 C65.870029,26.6240943 66.2120378,27.3766315 66.2930399,28.1745022 C66.378542,29.0041064 66.3830422,29.8427773 66.5495464,30.6633149 C66.8015529,31.8827877 67.0265586,33.1113273 67.8860806,34.2129329 C68.2640902,34.7025354 68.6736007,35.2102713 68.8446051,35.7542741 C69.1596131,36.7606792 69.9561335,37.6582838 70.014635,38.7190892 C70.0236352,38.8505565 70.1226377,38.9729571 70.1631388,39.0998911 C70.21264,39.2721586 70.248641,39.4444262 70.289142,39.6166937 L70.1541385,39.6529606 C70.1001372,39.5668268 70.0281353,39.4852264 69.9831342,39.3945593 C69.7311277,38.8686899 69.4881215,38.3428206 69.231615,37.8214846 C69.1866138,37.7308175 69.0966115,37.6628171 69.0336099,37.5812167 L68.921107,37.6038835 L68.921107,37.8849516 L69.0021091,39.403626 C69.0021091,39.4534929 69.0021091,39.5078932 69.0156094,39.5577601 C69.1416127,40.1153629 69.2946166,40.6729658 69.3801188,41.235102 C69.4341201,41.5615036 69.3711185,41.896972 69.3576182,42.2324404 C69.3576182,42.3684411 69.3576182,42.5135085 69.3351176,42.6540425 C69.3036168,42.8580436 69.2901165,43.0711113 69.2091144,43.270579 C69.0021091,43.7465814 68.7141017,44.2135171 68.5520976,44.6985862 C68.3855933,45.1881887 68.3270918,45.6959247 68.214589,46.1991272 C68.1920884,46.2988611 68.1335869,46.3895282 68.0930859,46.489262 L67.9895832,46.475662 C67.8995809,46.0268597 67.7960783,45.5780574 67.7105761,45.1292551 C67.6205738,44.6804528 67.5485719,44.2361839 67.4630698,43.7465814 C67.3910679,43.805515 67.3505669,43.8236485 67.3460668,43.8463152 C67.1750624,44.6759195 67.004058,45.5055237 66.8510541,46.3396613 C66.7927593,46.6880864 66.6471617,47.0157604 66.4280433,47.2916661 L66.3110403,47.2916661 C66.2660392,47.1873989 66.1760369,47.0785984 66.1760369,46.9743312 C66.1625365,46.6116626 66.180537,46.2489941 66.180537,45.8817923 C66.180537,45.700458 66.1670366,45.5191238 66.1580364,45.3377895 L66.0185328,45.3241894 C65.9735317,45.3876564 65.9105301,45.4511234 65.8925296,45.5191238 C65.7800267,45.904459 65.6810242,46.2897943 65.5775216,46.679663 C65.5415206,46.8156637 65.5820217,46.9879312 65.2895142,46.9833979 C65.0195073,46.9743312 64.7269998,46.9743312 64.6594981,46.7113965 C64.5919964,46.4711286 64.5649957,46.2308607 64.5064942,45.9860595 C64.4704933,45.8409921 64.4119918,45.6913913 64.3624905,45.5463239 L64.2094866,45.5327238 C64.1284845,45.6596578 64.0204818,45.7775251 63.9664804,45.9135258 C63.7099738,46.5753958 63.4714677,47.2417992 63.2104611,47.9036692 C62.9674549,48.524739 62.7019481,49.1412755 62.4724422,49.7623453 C62.2834374,50.2746146 62.1664344,50.7959506 61.9594291,51.2991532 C61.60392,52.1695576 61.4284155,53.0898289 60.7893992,53.8831663 C60.2574117,54.5717272 59.5931827,55.145272 58.8363493,55.5695749 C58.0533293,55.9957104 57.30181,56.4626461 56.4827891,56.8479814 C55.7555683,57.1760386 55.0085727,57.4576634 54.2462319,57.6911857 C53.4407114,57.949587 52.6126902,58.1581214 51.784669,58.3711891 C51.3301574,58.4935898 51.1096518,58.7293243 51.0961514,59.0783927 C51.0826511,59.4546613 51.0421501,59.8309299 51.1051517,60.2026651 C51.2716559,61.1773367 51.0511503,62.147475 51.0826511,63.1176133 C51.0961514,63.5256154 51.1366525,63.9290841 51.1726534,64.3325528 C51.2176545,64.9309558 51.276156,65.5293589 51.3346575,66.1232286 C51.3571581,66.39523 51.4246598,66.6672313 51.4246598,66.9392327 C51.4156596,67.3019012 51.3976591,67.6736365 51.3166571,68.0272383 C51.0916513,68.9973765 51.0061491,69.9629814 51.0556504,70.9421864 C51.0826511,71.4408556 50.9836486,71.9349915 50.9431475,72.4291273 C50.8711457,73.3221985 50.7766433,74.2152697 50.7316421,75.1038076 C50.6686405,76.3006137 50.5876384,77.5019531 50.6236394,78.6987592 C50.6596403,79.7187644 50.8486451,80.7387696 50.9746483,81.7633081 C51.001649,81.9945093 51.2086543,82.0851764 51.4876614,82.1259766 C52.0321754,82.193977 52.5226879,82.0443762 53.0177005,81.9083755 C53.3957102,81.8086417 53.7737199,81.7043745 54.1652299,81.6363741 C54.4722096,81.5828561 54.787177,81.6654848 55.029252,81.863042 L53.895223,82.4523783 C54.0392267,82.4931785 54.1157286,82.5294454 54.1922306,82.5294454 C55.6457677,82.5430454 57.0993049,82.5339787 58.5483419,82.5747789 C59.0838556,82.5838456 59.6193693,82.6790461 60.1368825,82.7742466 C60.4635794,82.8259203 60.7599448,82.996984 60.9694038,83.2547824 L60.9244026,83.3318494 C60.7668986,83.2774492 60.6003944,83.2411823 60.4608908,83.1686486 C60.1998841,83.0326479 59.9523778,83.0326479 59.7228719,83.1913154 C59.4347864,83.3827562 59.0779017,83.4374299 58.746347,83.3409162 C58.668627,83.3199677 58.5882426,83.3108003 58.5078409,83.313716 C57.1713067,83.4270499 55.8212722,83.1958487 54.4892382,83.4043831 C54.2777328,83.44065 54.0482269,83.4905169 54.0617272,83.6673178 C54.0707275,83.7806517 54.2147311,83.9393192 54.3542347,83.9846528 C54.637742,84.08892 54.9662504,84.1297202 55.2722582,84.2022539 C55.7672708,84.3246545 56.2667836,84.4379884 56.7572961,84.5739891 C56.8832994,84.6102559 56.9733017,84.7054564 57.1353058,84.8097236 C56.2892842,84.9638577 55.537765,85.0726583 54.7502448,84.941191 C54.5432395,84.9049241 54.327234,84.9049241 54.1202287,84.8641239 C53.6927178,84.7825235 53.2652069,84.7054564 52.8556964,84.5921225 C52.5541887,84.5059887 52.2796817,84.3654547 52.0006746,84.2521208 C51.6395552,84.1130671 51.2517137,84.0588023 50.8666456,84.0934533 C50.1916283,84.1297202 49.6561146,83.9483859 49.3411066,83.4633168 C49.1881027,83.2275822 49.1116007,83.2321156 48.810093,83.3590496 C48.3735818,83.5403838 47.9235703,83.708118 47.4150573,83.9121191 C47.4327697,83.590371 47.5888792,83.2923997 47.8425683,83.0961149 C48.0720741,82.9147807 48.3195805,82.7425131 48.576087,82.5793123 C48.8010928,82.4387782 48.9090955,82.271044 48.9135957,82.0534429 C48.9360962,80.9881042 48.9810974,79.9227654 48.9945977,78.8528933 C49.0125982,77.4022193 48.9945977,75.9515452 49.0170983,74.5008712 C49.0260985,73.9840686 49.1521017,73.4672659 49.1476016,72.9504633 C49.1386014,72.1208591 49.0665996,71.2867215 49.0305986,70.4571173 C49.0170983,70.0491152 49.0395989,69.6411131 49.0170983,69.2376444 C48.9630969,68.2765729 48.8550942,67.3155013 48.8370937,66.3544297 C48.8370937,65.8330938 48.9720971,65.3072244 49.0530992,64.7813551 C49.1926028,63.852017 49.3321063,62.922679 49.4806101,61.9978742 C49.552612,61.5354719 49.6381142,61.0730695 49.7191162,60.6106672 C49.7776177,60.2706655 49.8361192,59.9306637 49.8811204,59.5861286 C49.9126212,59.3458608 49.9261215,59.1010595 49.9486221,58.8607916 C49.9756228,58.5117232 49.7551172,58.3303889 49.3006055,58.2941221 C48.8826712,58.2592659 48.4636849,58.347462 48.0945747,58.54799 C46.5960364,59.3095939 45.2460019,60.2162652 43.8554664,61.0776029 C42.8654411,61.689606 41.7944137,62.2200087 40.7638874,62.7912116 C40.2238735,63.0904131 39.6703594,63.3805479 39.1618464,63.7160163 C38.9053398,63.8837505 38.716335,64.1240184 38.5228301,64.3416195 C37.9828163,64.958156 37.4698032,65.5928259 36.9072888,66.2002956 C36.3177737,66.8394989 35.6967578,67.4696354 35.0532414,68.0771052 C34.8957374,68.2312393 34.5897295,68.303773 34.3377231,68.3853734 C34.1037171,68.4579071 33.8112096,68.444307 33.6132046,68.5485742 C32.9831885,68.8659092 32.3891733,69.2331111 31.7681574,69.5640461 C31.0083135,69.9719197 30.2129682,70.3087964 29.3920967,70.5704512 C29.0590882,70.6837851 28.7305798,70.8288525 28.3795708,70.8651194 C27.2995432,70.9739199 26.2195156,71.1053872 25.1304878,70.9285863 C24.9507166,70.9114358 24.7770004,70.8541351 24.6219748,70.7608522 C24.1764634,70.4208504 23.7264519,70.0581819 23.7174517,69.5413793 C23.6949511,68.3581733 23.613949,67.1749673 24.1674632,66.0189614 C24.5267489,65.3573939 24.5921162,64.5737769 24.3474678,63.8610837 C24.239465,63.5800156 24.3249672,63.2400139 24.4059693,62.936279 C24.5229722,62.5101435 24.6759762,62.084008 24.8739812,61.6805393 C25.2429906,60.9416022 25.6660015,60.2162652 26.0530114,59.4818615 C26.197015,59.2098601 26.2960176,58.9242586 26.4400212,58.6477239 C26.7550293,58.026654 27.1015382,57.4101176 27.4120461,56.7845144 C27.7765554,56.0501107 28.1365646,55.3202403 28.465073,54.5767698 C28.6180769,54.223168 28.3930712,53.9148998 28.0780631,53.6655652 C27.4930482,53.1940961 27.4660475,53.1396959 27.8350569,52.5458262 C28.4695731,51.5167543 29.0950891,50.4786157 29.7611061,49.4631438 C30.2696191,48.6788732 30.8321335,47.9127359 31.3721473,47.1465987 C31.4243218,47.071979 31.4847072,47.0035436 31.5521519,46.9425977 C32.0111636,46.5345956 32.4836757,46.1311269 32.9291871,45.7185914 C33.6492055,45.038588 34.3467233,44.3359177 35.0802421,43.6604476 C35.3952501,43.3748462 35.7777599,43.1300449 36.1197686,42.8625769 C37.0917935,42.0964397 38.2348227,41.5343035 39.4948549,41.0583011 C40.7008857,40.6049654 41.9294171,40.2150968 43.2389506,39.9612288 C45.1970776,39.5803341 47.1815775,39.3529847 49.1746023,39.2812254 C51.0151494,39.2177584 52.8601965,39.1996249 54.7007436,39.1724248 C55.2319426,39.1550419 55.7471627,38.9851789 56.1857815,38.6828223 C56.5619848,38.4489834 56.8978872,38.155003 57.1803069,37.8124179 C57.6303184,37.2366816 58.0218285,36.6382786 58.2603345,35.9809419 C58.6203437,34.9836035 59.1063562,34.0089319 59.4843658,33.0161268 C59.7813734,32.2454562 59.8983764,31.4430522 59.8173743,30.6361147 L59.6598703,29.1219737 C59.5608678,28.1019685 59.1738579,27.1182302 58.7508471,26.161692 C58.4313389,25.4363549 57.7878225,24.7835516 57.2568089,24.1126149 C56.8247979,23.5686121 56.2982844,23.0563428 55.8887739,22.49874 C55.3062495,21.7764118 55.1806861,20.7838095 55.5647656,19.9373936 C55.7627707,19.4749913 55.969776,19.0216556 56.3072846,18.5955201 C56.9103,17.8248495 57.7833224,17.4168475 58.9083511,17.1765796 C60.1008816,16.9227116 61.2574111,16.9363117 62.3959402,17.25818 C63.7774756,17.6435153 64.8260024,18.3552522 65.5685213,19.3208572 C65.9825319,19.8557932 66.1985374,20.4179294 66.1265356,21.0389992 C66.0815345,21.4016677 66.2390385,21.6827358 66.5900474,21.9366038 C66.8960553,22.1632716 67.1480617,22.435273 67.4270688,22.6800742 C68.6105991,23.7227462 69.7851291,24.7654182 70.9731595,25.7990234 C71.5716748,26.3203594 72.1971908,26.8280953 72.7957061,27.3494313 C73.5877263,28.0385015 74.3617461,28.7366384 75.1582664,29.4211752 C75.7162807,29.901711 76.3282963,30.3459799 76.8773104,30.8355824 C77.1878183,31.1075838 77.4443249,31.4249187 77.6648305,31.7422537 C77.7368324,31.8419875 77.6918312,32.0958555 77.5883286,32.141189 C77.3980358,32.2056737 77.1915471,32.2024735 77.0033136,32.1321223 C75.9457866,31.6515865 74.865759,31.1801175 73.8712335,30.6361147 C72.7417047,30.0150449 71.6841776,29.3214414 70.5996499,28.655038 C69.9453993,28.2531944 69.2958382,27.8436532 68.6511001,27.4264984 C67.7960783,26.8688956 66.9545568,26.302226 66.0950348,25.7446232 C65.9330307,25.6358226 65.7260254,25.5632889 65.5415206,25.4726218 L65.4245177,25.5360888 L65.4245177,25.5360888 Z M65.915,48.19 C65.94,48.51 65.915,48.94 66.015,49.11 C66.115,49.29 66.325,49.23 66.485,49.27 C66.435,48.76 66.395,48.24 66.34,47.73 C66.201042,47.8858139 66.0593534,48.0391709 65.915,48.19 L65.915,48.19 Z" id="Shape"></path>
                </g>
            </g>
        </g>
    </g>
</svg>