<?xml version="1.0" encoding="UTF-8"?>
<svg width="3300px" height="2200px" viewBox="0 0 3300 2200" version="1.1" xmlns="http://www.w3.org/2000/svg" xmlns:xlink="http://www.w3.org/1999/xlink">
    <!-- Generator: Sketch 59.1 (86144) - https://sketch.com -->
    <title>filter</title>
    <desc>Created with Sketch.</desc>
    <g id="Page-1" stroke="none" stroke-width="1" fill="none" fill-rule="evenodd">
        <g id="filter">
            <g id="Notes">
                <rect id="artboard" fill="#FFFFFF" fill-rule="nonzero" x="0" y="0" width="3300" height="2200"></rect>
                <line x1="263" y1="292" x2="3036" y2="292" id="Path" stroke="#000000" stroke-width="0.5"></line>
                <text id="Weight/Scale-Variations" fill="#000000" font-family="Helvetica-Bold, Helvetica" font-size="13" font-weight="bold">
                    <tspan x="263" y="322">Weight/Scale Variations</tspan>
                </text>
                <text id="Ultralight" fill="#000000" font-family="Helvetica" font-size="13" font-weight="normal">
                    <tspan x="533.711" y="322">Ultralight</tspan>
                </text>
                <text id="Thin" fill="#000000" font-family="Helvetica" font-size="13" font-weight="normal">
                    <tspan x="843.422" y="322">Thin</tspan>
                </text>
                <text id="Light" fill="#000000" font-family="Helvetica" font-size="13" font-weight="normal">
                    <tspan x="1138.63" y="322">Light</tspan>
                </text>
                <text id="Regular" fill="#000000" font-family="Helvetica" font-size="13" font-weight="normal">
                    <tspan x="1426.84" y="322">Regular</tspan>
                </text>
                <text id="Medium" fill="#000000" font-family="Helvetica" font-size="13" font-weight="normal">
                    <tspan x="1723.06" y="322">Medium</tspan>
                </text>
                <text id="Semibold" fill="#000000" font-family="Helvetica" font-size="13" font-weight="normal">
                    <tspan x="2015.77" y="322">Semibold</tspan>
                </text>
                <text id="Bold" fill="#000000" font-family="Helvetica" font-size="13" font-weight="normal">
                    <tspan x="2326.48" y="322">Bold</tspan>
                </text>
                <text id="Heavy" fill="#000000" font-family="Helvetica" font-size="13" font-weight="normal">
                    <tspan x="2618.19" y="322">Heavy</tspan>
                </text>
                <text id="Black" fill="#000000" font-family="Helvetica" font-size="13" font-weight="normal">
                    <tspan x="2917.4" y="322">Black</tspan>
                </text>
                <line x1="263" y1="1903" x2="3036" y2="1903" id="Path" stroke="#000000" stroke-width="0.5"></line>
                <g id="Group" transform="translate(264.000000, 1918.000000)" fill="#000000" fill-rule="nonzero">
                    <path d="M8.24805,15.830078 C12.5547,15.830078 16.1387,12.25586 16.1387,7.94922 C16.1387,3.6426 12.5449,0.0684 8.23828,0.0684 C3.94141,0.0684 0.36719,3.6426 0.36719,7.94922 C0.36719,12.25586 3.95117,15.830078 8.24805,15.830078 Z M8.24805,14.345703 C4.70312,14.345703 1.87109,11.50391 1.87109,7.94922 C1.87109,4.3945 4.69336,1.5527 8.23828,1.5527 C11.793,1.5527 14.6348,4.3945 14.6445503,7.94922 C14.6543,11.50391 11.8027,14.345703 8.24805,14.345703 Z M8.22852,11.57227 C8.69727,11.57227 8.9707,11.25977 8.9707,10.74219 L8.9707,8.68164 L11.1973,8.68164 C11.6953,8.68164 12.0371,8.42773 12.0371,7.95898 C12.0371,7.48047 11.7148,7.2168 11.1973,7.2168 L8.9707,7.2168 L8.9707,4.9902 C8.9707,4.4727 8.69727,4.1504 8.22852,4.1504 C7.75977,4.1504 7.50586,4.4922 7.50586,4.9902 L7.50586,7.2168 L5.29883,7.2168 C4.78125,7.2168 4.44922,7.48047 4.44922,7.95898 C4.44922,8.42773 4.80078,8.68164 5.29883,8.68164 L7.50586,8.68164 L7.50586,10.74219 C7.50586,11.24023 7.75977,11.57227 8.22852,11.57227 Z" id="Shape"></path>
                </g>
                <g id="Group" transform="translate(282.506000, 1915.000000)" fill="#000000" fill-rule="nonzero">
                    <path d="M10.709,20.91016 C16.1582,20.91016 20.6699,16.39844 20.6699,10.94922 C20.6699,5.5098 16.1484,0.9883 10.6992,0.9883 C5.25977,0.9883 0.74805,5.5098 0.74805,10.94922 C0.74805,16.39844 5.26953,20.91016 10.709,20.91016 Z M10.709,19.25 C6.09961,19.25 2.41797,15.55859 2.41797,10.94922 C2.41797,6.3496 6.08984,2.6484 10.6992,2.6484 C15.3086,2.6484 19,6.3496 19.0098379,10.94922 C19.0195,15.55859 15.3184,19.25 10.709,19.25 Z M10.6895,15.58789 C11.207,15.58789 11.5195,15.22656 11.5195,14.66016 L11.5195,11.76953 L14.5762,11.76953 C15.123,11.76953 15.5039,11.48633 15.5039,10.96875 C15.5039,10.44141 15.1426,10.13867 14.5762,10.13867 L11.5195,10.13867 L11.5195,7.0723 C11.5195,6.4961 11.207,6.1445 10.6895,6.1445 C10.1719,6.1445 9.8789,6.5156 9.8789,7.0723 L9.8789,10.13867 L6.83203,10.13867 C6.26562,10.13867 5.89453,10.44141 5.89453,10.96875 C5.89453,11.48633 6.28516,11.76953 6.83203,11.76953 L9.8789,11.76953 L9.8789,14.66016 C9.8789,15.20703 10.1719,15.58789 10.6895,15.58789 Z" id="Shape"></path>
                </g>
                <g id="Group" transform="translate(306.924000, 1913.000000)" fill="#000000" fill-rule="nonzero">
                    <path d="M12.9707,25.67383 C19.9336,25.67383 25.6953,19.921875 25.6953,12.95898 C25.6953,5.9961 19.9238,0.2441 12.9609,0.2441 C6.00781,0.2441 0.25586,5.9961 0.25586,12.95898 C0.25586,19.921875 6.01758,25.67383 12.9707,25.67383 Z M12.9707,23.85742 C6.93555,23.85742 2.08203,18.99414 2.08203,12.95898 C2.08203,6.9238 6.92578,2.0605 12.9609,2.0605 C19.0059,2.0605 23.8594,6.9238 23.8691295,12.95898 C23.8789,18.99414 19.0156,23.85742 12.9707,23.85742 Z M12.9512,18.93555 C13.5176,18.93555 13.8691,18.54492 13.8691,17.93945 L13.8691,13.86719 L18.1074,13.86719 C18.6934,13.86719 19.1133,13.53516 19.1133,12.97852 C19.1133,12.40234 18.7227,12.06055 18.1074,12.06055 L13.8691,12.06055 L13.8691,7.8125 C13.8691,7.1973 13.5176,6.8066 12.9512,6.8066 C12.3848,6.8066 12.0625,7.2168 12.0625,7.8125 L12.0625,12.06055 L7.83398,12.06055 C7.21875,12.06055 6.80859,12.40234 6.80859,12.97852 C6.80859,13.53516 7.23828,13.86719 7.83398,13.86719 L12.0625,13.86719 L12.0625,17.93945 C12.0625,18.52539 12.3848,18.93555 12.9512,18.93555 Z" id="Shape"></path>
                </g>
                <text id="Design-Variations" fill="#000000" font-family="Helvetica-Bold, Helvetica" font-size="13" font-weight="bold">
                    <tspan x="263" y="1953">Design Variations</tspan>
                </text>
                <text id="Symbols-are-supported-in-up-to-nine-weights-and-three-scales." fill="#000000" font-family="Helvetica" font-size="13" font-weight="normal">
                    <tspan x="263" y="1971">Symbols are supported in up to nine weights and three scales.</tspan>
                </text>
                <text id="For-optimal-layout-with-text-and-other-symbols,-vertically-align" fill="#000000" font-family="Helvetica" font-size="13" font-weight="normal">
                    <tspan x="263" y="1989">For optimal layout with text and other symbols, vertically align</tspan>
                </text>
                <text id="symbols-with-the-adjacent-text." fill="#000000" font-family="Helvetica" font-size="13" font-weight="normal">
                    <tspan x="263" y="2007">symbols with the adjacent text.</tspan>
                </text>
                <rect id="Rectangle" fill="#00AEEF" fill-rule="nonzero" opacity="0.4" x="776" y="1919" width="3" height="14"></rect>
                <g id="Group" transform="translate(779.000000, 1918.000000)" fill="#000000" fill-rule="nonzero">
                    <path d="M10.5273,15 L12.373,15 L7.17773,0.9082 L5.43945,0.9082 L0.244141,15 L2.08984,15 L3.50586,10.9668 L9.11133,10.9668 L10.5273,15 Z M6.2793,3.0469 L6.33789,3.0469 L8.59375,9.47266 L4.02344,9.47266 L6.2793,3.0469 Z" id="Shape"></path>
                </g>
                <rect id="Rectangle" fill="#00AEEF" fill-rule="nonzero" opacity="0.4" x="791.617" y="1919" width="3" height="14"></rect>
                <text id="Margins" fill="#000000" font-family="Helvetica-Bold, Helvetica" font-size="13" font-weight="bold">
                    <tspan x="776" y="1953">Margins</tspan>
                </text>
                <text id="Leading-and-trailing-margins-on-the-left-and-right-side-of-each-symbol" fill="#000000" font-family="Helvetica" font-size="13" font-weight="normal">
                    <tspan x="776" y="1971">Leading and trailing margins on the left and right side of each symbol</tspan>
                </text>
                <text id="can-be-adjusted-by-modifying-the-width-of-the-blue-rectangles." fill="#000000" font-family="Helvetica" font-size="13" font-weight="normal">
                    <tspan x="776" y="1989">can be adjusted by modifying the width of the blue rectangles.</tspan>
                </text>
                <text id="Modifications-are-automatically-applied-proportionally-to-all" fill="#000000" font-family="Helvetica" font-size="13" font-weight="normal">
                    <tspan x="776" y="2007">Modifications are automatically applied proportionally to all</tspan>
                </text>
                <text id="scales-and-weights." fill="#000000" font-family="Helvetica" font-size="13" font-weight="normal">
                    <tspan x="776" y="2025">scales and weights.</tspan>
                </text>
                <g id="Group" transform="translate(1291.000000, 1915.000000)" fill="#000000" fill-rule="nonzero">
                    <path d="M0.83203,21.11523 L2.375,22.6582 C3.22461,23.48828 4.19141,23.41992 5.06055,22.46289 L15.2754,11.33984 C15.7051,11.63281 16.0957,11.62305 16.5645,11.52539 L17.6094,11.31055 L18.3027,12.00391 L18.2539,12.52148 C18.1855,13.04883 18.3516,13.46875 18.8496,13.9668 L19.6602,14.77734 C20.168,15.28516 20.8223,15.31445 21.3008,14.83594 L24.5527,11.58398 C25.0312,11.10547 25.0117,10.45117 24.5039,9.94336 L23.6836,9.12305 C23.1855,8.625 22.7754,8.44922 22.2383,8.52734 L21.7109,8.58594 L21.0566,7.9219 L21.3398,6.7793 C21.4863,6.2129 21.3398,5.7441 20.7148,5.1387 L18.3027,2.7461 C14.7578,-0.7793 10.2266,-0.6719 7.11133,2.4629 C6.69141,2.8926 6.64258,3.4785 6.91602,3.9082 C7.15039,4.2793 7.62891,4.5039 8.2734,4.3379 C9.7871,3.957 11.3008,4.0742 12.7852,5.0801 L12.1602,6.6621 C11.9258,7.248 11.9453,7.7266 12.1797,8.16602 L1.01758,18.439453 C0.08008,19.30859 -0.02734,20.25586 0.83203,21.11523 Z M8.6738,2.8535 C11.3398,0.8613 14.6504,1.1738 17.0527,3.5859 L19.6797,6.1934 C19.9141,6.4277 19.9434,6.6133 19.8848,6.9062 L19.5039,8.46875 L21.0762,10.04102 L22.043,9.95312 C22.3262,9.92383 22.4141,9.94336 22.6387,10.16797 L23.2637,10.79297 L20.5098,13.53711 L19.8848,12.92188 C19.6602,12.69727 19.6406,12.59961 19.6699,12.31641 L19.7578,11.35938 L18.1953,9.79688 L16.5742,10.10938 C16.291,10.16797 16.1445,10.16797 15.9102,9.92383 L13.7324,7.7461 C13.5078,7.5117 13.4785,7.375 13.6055,7.0527 L14.5527,4.7773 C12.9512,3.2441 10.8418,2.3945 8.8008,3.0488 C8.7129,3.0781 8.6445,3.0586 8.6152,3.0195 C8.5859,2.9707 8.5859,2.9219 8.6738,2.8535 Z M2.10156,20.41211 C1.61328,19.91406 1.78906,19.61133 2.12109,19.30859 L13.0781,9.19141 L14.3086,10.42188 L4.15234,21.34961 C3.84961,21.68164 3.46875,21.7793 3.06836,21.37891 L2.10156,20.41211 Z" id="Shape"></path>
                </g>
                <text id="Exporting" fill="#000000" font-family="Helvetica-Bold, Helvetica" font-size="13" font-weight="bold">
                    <tspan x="1289" y="1953">Exporting</tspan>
                </text>
                <text id="Symbols-should-be-outlined-when-exporting-to-ensure-the" fill="#000000" font-family="Helvetica" font-size="13" font-weight="normal">
                    <tspan x="1289" y="1971">Symbols should be outlined when exporting to ensure the</tspan>
                </text>
                <text id="design-is-preserved-when-submitting-to-Xcode." fill="#000000" font-family="Helvetica" font-size="13" font-weight="normal">
                    <tspan x="1289" y="1989">design is preserved when submitting to Xcode.</tspan>
                </text>
                <text id="Template-v.1.0" fill="#000000" font-family="Helvetica" font-size="13" font-weight="normal">
                    <tspan x="2952" y="1933">Template v.1.0</tspan>
                </text>
                <text id="Generated-from-circle" fill="#000000" font-family="Helvetica" font-size="13" font-weight="normal">
                    <tspan x="2911" y="1951">Generated from circle</tspan>
                </text>
                <text id="Typeset-at-100-points" fill="#000000" font-family="Helvetica" font-size="13" font-weight="normal">
                    <tspan x="2912" y="1969">Typeset at 100 points</tspan>
                </text>
                <text id="Small" fill="#000000" font-family="Helvetica" font-size="13" font-weight="normal">
                    <tspan x="263" y="726">Small</tspan>
                </text>
                <text id="Medium" fill="#000000" font-family="Helvetica" font-size="13" font-weight="normal">
                    <tspan x="263" y="1156">Medium</tspan>
                </text>
                <text id="Large" fill="#000000" font-family="Helvetica" font-size="13" font-weight="normal">
                    <tspan x="263" y="1586">Large</tspan>
                </text>
            </g>
            <g id="Guides" transform="translate(263.000000, 625.000000)">
                <g id="H-reference" transform="translate(76.000000, 0.000000)" fill="#27AAE1" fill-rule="nonzero">
                    <path d="M54.9316,71 L57.666,71 L30.5664,0.541 L28.0762,0.541 L0.976562,71 L3.66211,71 L12.9395,46.5371 L45.7031,46.5371 L54.9316,71 Z M29.1992,3.9102 L29.4434,3.9102 L44.8242,44.291 L13.8184,44.291 L29.1992,3.9102 Z" id="Shape"></path>
                </g>
                <line x1="0" y1="71" x2="2773" y2="71" id="Baseline-S" stroke="#27AAE1" stroke-width="0.577"></line>
                <line x1="0" y1="0.541" x2="2773" y2="0.541" id="Capline-S" stroke="#27AAE1" stroke-width="0.577"></line>
                <g id="H-reference" transform="translate(76.000000, 430.000000)" fill="#27AAE1" fill-rule="nonzero">
                    <path d="M54.9316,71 L57.666,71 L30.5664,0.541 L28.0762,0.541 L0.976562,71 L3.66211,71 L12.9395,46.5371 L45.7031,46.5371 L54.9316,71 Z M29.1992,3.9102 L29.4434,3.9102 L44.8242,44.291 L13.8184,44.291 L29.1992,3.9102 Z" id="Shape"></path>
                </g>
                <line x1="0" y1="501" x2="2773" y2="501" id="Baseline-M" stroke="#27AAE1" stroke-width="0.577"></line>
                <line x1="0" y1="430.54" x2="2773" y2="430.54" id="Capline-M" stroke="#27AAE1" stroke-width="0.577"></line>
                <g id="H-reference" transform="translate(76.000000, 860.000000)" fill="#27AAE1" fill-rule="nonzero">
                    <path d="M54.9316,71 L57.666,71 L30.5664,0.541 L28.0762,0.541 L0.976562,71 L3.66211,71 L12.9395,46.5371 L45.7031,46.5371 L54.9316,71 Z M29.1992,3.9102 L29.4434,3.9102 L44.8242,44.291 L13.8184,44.291 L29.1992,3.9102 Z" id="Shape"></path>
                </g>
                <line x1="0" y1="931" x2="2773" y2="931" id="Baseline-L" stroke="#27AAE1" stroke-width="0.577"></line>
                <line x1="0" y1="860.54" x2="2773" y2="860.54" id="Capline-L" stroke="#27AAE1" stroke-width="0.577"></line>
                <rect id="left-margin" fill="#00AEEF" fill-rule="nonzero" opacity="0.4" x="1128.3" y="405.79" width="8.74023" height="119.336"></rect>
                <rect id="right-margin" fill="#00AEEF" fill-rule="nonzero" opacity="0.4" x="1236.65" y="405.79" width="8.74023" height="119.336"></rect>
            </g>
            <g id="Symbols" transform="translate(1399.000000, 1040.000000)" fill="#000000" fill-rule="nonzero">
                <g id="Regular-M" transform="translate(0.300000, 0.000000)">
                    <!-- <path d="M50.5449,100.5508 C77.791,100.5508 100.35,77.99219 100.35,50.7461 C100.35,23.5488 77.7422,0.9414 50.4961,0.9414 C23.2988,0.9414 0.74023,23.5488 0.74023,50.7461 C0.74023,77.99219 23.3477,100.5508 50.5449,100.5508 Z M50.1551,92.0078 C27.1082,92.0078 8.7,73.5508 8.7,50.5039 C8.7,27.5058 27.0594,9 50.1063,9 C73.1532,9 91.6102,27.5058 91.6593938,50.5039 C91.7082,73.5508 73.202,92.0078 50.1551,92.0078 Z" id="Shape"></path> -->
                    <path d="M51.6728318,83.1753801 C51.5820838,83.1712551 51.4913357,83.1547551 51.4005877,83.1588801 C51.1200938,83.1795051 50.835475,83.2166303 50.5549811,83.2331303 C50.1259904,83.2578804 49.6969997,83.2661304 49.268009,83.2867555 C49.0658884,83.2950055 48.8843924,83.0681298 48.8678927,82.8041289 C48.8596429,82.7216287 48.8018942,82.6391284 48.7688949,82.5648782 C48.715271,82.4370028 48.6740219,82.2926273 48.6038985,82.189502 C48.5443286,82.1008369 48.4634944,82.0285097 48.3687786,81.9791263 C48.1872825,81.884251 47.9975366,81.8223758 47.8119157,81.7316255 C47.7912911,81.7233755 47.7706666,81.6243752 47.7789164,81.5913751 C47.8779142,81.3438743 47.9769121,81.0963735 48.0841598,80.8571228 C48.3316544,80.300246 48.579149,79.7433692 48.5832739,79.054492 C48.5832739,78.9389917 48.624523,78.8234913 48.6410227,78.7079909 C48.6575223,78.5718655 48.6740219,78.4357401 48.6740219,78.2996146 C48.6533974,77.3508616 48.6410227,76.4021086 48.6080234,75.4533556 C48.5956486,75.0779794 48.5502746,74.7067282 48.5172753,74.331352 L48.4719013,73.9271007 L48.2739056,72.2605954 C48.2409063,71.9965946 48.4182775,71.6129683 48.5915237,71.518093 C48.7452027,71.4461578 48.8784828,71.3369789 48.9792653,71.200467 C49.5155037,70.3424643 50.0393673,69.4679615 50.5673558,68.5975838 C50.5921053,68.5563336 50.6168547,68.5068335 50.649854,68.4738334 C50.8684743,68.2098325 50.8560995,67.9994569 50.5921053,67.8839565 C50.1094908,67.6735808 49.6186264,67.4838302 49.131887,67.2858296 C48.3687786,66.9764536 47.6015452,66.6877027 46.8425617,66.3494516 C46.1330771,66.0277006 45.4442171,65.6151993 44.7306076,65.3181983 C44.3181166,65.1531978 44.0582472,64.7118214 43.6952551,64.4808207 C43.4766348,64.3405702 43.241515,64.26632 43.0228947,64.1219445 C42.5279055,63.7919435 42.0452909,63.4206923 41.5461768,63.1071913 C41.0264381,62.7854403 40.4860748,62.5379395 39.970461,62.1996884 C39.6074689,61.9686877 39.2733512,61.6510617 38.9268587,61.3664358 C38.728863,61.2055602 38.5308673,61.0364347 38.3287467,60.8796842 L37.5986375,60.3104324 C37.5408888,60.2650573 37.4913899,60.178432 37.4336411,60.1660569 C36.8066547,60.0258065 36.4024135,59.3493043 35.8826748,58.9491781 C35.5450365,58.6948787 35.2149028,58.4307651 34.8926963,58.1571756 C34.6864508,57.9798 34.5132046,57.7281742 34.3028341,57.5672987 C34.0553395,57.3816731 33.7830954,57.2579227 33.5191012,57.1135472 C32.7229935,56.6639208 31.9186359,56.2431695 31.1266531,55.768793 C30.5079166,55.3975418 29.88918,55.0015405 29.3034427,54.539539 C28.6711058,54.0474106 27.9653961,53.6576598 27.2121132,53.3845354 C26.6098763,53.1576596 26.0158892,52.8812838 25.4054024,52.6626581 C24.9145381,52.4894075 24.4154239,52.3821572 23.9204347,52.2336567 C23.5904418,52.1346564 23.2728237,51.9902809 22.9469558,51.9036557 C22.5986144,51.8025031 22.2427358,51.7293945 21.8827289,51.68503 C21.3217411,51.6272798 20.7648782,51.6025297 20.2038904,51.5777796 C19.6635272,51.5489045 19.1149141,51.5984047 18.5786757,51.4994044 C17.7000698,51.3385289 16.8297137,51.0869031 15.9552327,50.8765274 C15.7489872,50.8270272 15.5427417,50.8229022 15.3406211,50.752777 C15.0518773,50.6537767 14.7755083,50.5094012 14.4908895,50.3897758 C14.3217682,50.3196506 14.148522,50.2701505 13.9835255,50.1835252 C13.8927775,50.13815 13.7731551,50.0473998 13.7525306,49.9442744 C13.7360309,49.8535241 13.822654,49.6472735 13.8927775,49.6142734 C14.2805191,49.4327728 14.6765105,49.2760223 15.0725019,49.1357719 C15.2869972,49.0573966 15.5138673,49.0243965 15.7324875,48.9707713 L15.7366125,48.875896 L15.0312528,48.6696454 L15.2704976,48.1003936 C15.0395026,47.9642681 14.7755083,47.8157677 14.5280137,47.6507671 C14.3095294,47.5154148 14.1025821,47.36227 13.9092772,47.1928907 C13.8102793,47.1062654 13.6782822,46.8958897 13.7030316,46.8092645 C13.7401558,46.664889 13.8804028,46.4751384 13.9835255,46.4668884 C14.6723856,46.4215132 15.3653705,46.3678881 16.0542306,46.4132632 C16.7389657,46.4545133 17.4237008,46.6360139 18.1125608,46.7020141 C18.7725465,46.7721393 19.4325322,46.7680143 20.0925178,46.8133895 C21.0577469,46.8793897 22.0229759,46.97839 22.9923298,47.0278902 C23.7760628,47.0691403 24.5597958,47.1021404 25.3435288,47.0815153 C26.3541318,47.0567652 27.3647349,46.97014 28.371213,46.9247648 C28.6558318,46.9123898 28.9404506,46.9371399 29.2209445,46.97014 C29.9386789,47.0567652 30.6151642,46.7968894 31.2875246,46.5163885 C32.2692533,46.1038872 33.2468571,45.6625108 34.2327107,45.2747596 C34.8803216,45.0190088 35.5444322,44.8457582 36.196168,44.6147575 C36.8974028,44.3672567 37.5903877,44.0496307 38.2998723,43.84338 C38.959858,43.6495044 39.6404682,43.5463791 40.3128286,43.4308787 C41.4389291,43.2452531 42.5609047,43.0348775 43.6457562,42.564626 C44.2149938,42.3171252 44.759482,41.9871241 45.3287196,41.7313733 C45.9185818,41.4714975 46.5249436,41.2776219 47.1148058,41.0259961 C48.0965345,40.6052447 49.0700133,40.1432433 50.051742,39.7307419 C51.0705949,39.3017406 52.1018225,38.9181144 53.1248003,38.493238 C53.689913,38.2622373 54.2467759,37.9941114 54.8077637,37.7424856 C55.4100006,37.4784848 56.0246123,37.2681091 56.6062246,36.9422331 C57.0517149,36.6947323 57.4765807,36.3523562 57.8684472,35.96873 C58.6109311,35.2386027 59.3781644,34.5414754 59.9556519,33.5267222 C60.3103942,32.9079702 60.7682592,32.3882186 61.0693777,31.7282165 C61.3209972,31.1795897 61.4488694,30.5072126 61.5684918,29.8637106 C61.7747373,28.754082 61.9026096,27.6155784 62.2408522,26.559575 C62.4305981,25.9696982 62.620344,25.3880713 62.7894653,24.7858194 C62.8719635,24.4970685 62.8884632,24.1753175 62.9668364,23.8783165 C63.173082,23.090439 63.3875773,22.3066865 63.6144474,21.527059 C63.6721961,21.3208084 63.7835687,21.1558079 63.861942,20.9619322 C64.047563,20.4916807 64.2084345,20.0008042 64.4105551,19.5429277 C64.6660545,18.8571974 65.2277677,18.3305781 65.9285221,18.1197982 C66.852502,17.8434223 67.7393578,18.1074232 68.6385882,18.2889237 C68.8654583,18.3384239 69.1005782,18.3301739 69.3233234,18.3961741 C69.5914425,18.4786743 69.8595617,18.5817997 70.1070563,18.7220501 C70.6721691,19.0314261 71.229032,19.3655522 71.7858949,19.6996782 C72.2767592,19.9884291 72.6273766,20.5246809 72.93262,21.0898077 C73.3079868,21.7828099 73.6544793,22.5170622 73.9638476,23.2719396 C74.1370938,23.6968159 74.1989674,24.2041926 74.3227148,24.666194 C74.4217126,25.0250702 74.5578346,25.3220711 74.8507033,25.4623216 C75.6138117,25.8335727 76.3769201,26.1965739 77.119404,26.6462003 C77.5607694,26.9184512 77.9650106,27.3268275 78.361002,27.7187037 C78.9261148,28.2714555 79.3922296,28.9603327 79.6479741,29.8760856 C79.6982942,30.0782601 79.7122614,30.2877724 79.6892232,30.4948376 C79.6809734,30.5567128 79.4829777,30.6598381 79.4128542,30.618588 C78.5961219,30.1153364 77.7958893,29.5667096 76.9709072,29.0799581 C76.6079151,28.8654574 76.2119237,28.741707 75.8241821,28.6220816 C75.325326,28.4582179 74.8170388,28.3245998 74.3020902,28.2219553 C73.807101,28.12708 73.3946099,28.4612061 72.9944936,28.8242073 C72.4388741,29.3702612 71.7509131,29.7625793 70.998037,29.9627109 C70.2761777,30.1277114 70.0905567,30.6845882 70.1606802,31.4930907 C70.2308036,32.2768432 70.399925,33.0358456 70.490673,33.8154731 C70.5937958,34.6528508 70.6680441,35.4943535 70.721668,36.3399812 C70.7794167,37.2887342 70.7505424,38.2581123 70.8454153,39.1986152 C70.999229,40.6386266 71.0763363,42.0858008 71.0764103,43.534004 C71.0764103,44.0785058 71.0021619,44.6230075 70.9939121,45.1675092 C70.9815373,45.9100116 70.9650377,46.652514 71.0104117,47.3867663 C71.0722854,48.4056445 71.0351612,49.4038977 70.8619149,50.3980259 C70.7381676,51.1322782 70.6556694,51.8871556 70.4741734,52.6007829 C70.2679278,53.4216605 69.9874339,54.209538 69.7193148,54.9932905 C69.5130692,55.6079174 69.2820743,56.2101694 69.0304547,56.7876712 C68.8943327,57.1052972 68.6880872,57.361048 68.5230907,57.653924 C68.2260972,58.1819256 67.912604,58.6934273 67.6444848,59.250304 C67.2909564,59.9578609 66.8411987,60.6130799 66.3080139,61.1973102 C65.978021,61.5685614 65.6892773,62.0016878 65.3592845,62.3564389 C64.9055443,62.8349404 64.4270547,63.2639418 63.9568149,63.7053182 C63.680067,63.961728 63.3953068,64.2093517 63.1029585,64.4478206 C62.8554639,64.6499462 62.620344,64.8809469 62.3604746,65.0005723 C61.8036117,65.2521981 61.2302492,65.4419487 60.6692614,65.6605744 C60.1453977,65.8627001 59.6215341,66.0689507 59.1017954,66.2793264 C58.7223037,66.4319519 58.3469368,66.6010774 57.9633201,66.7454529 C57.4435814,66.9393285 56.9155929,67.116704 56.3917293,67.3064547 C56.1978585,67.3724549 55.9998628,67.430205 55.805992,67.5127053 C55.348127,67.6942059 55.1253818,68.2675827 54.8366381,68.7172091 C54.5767687,69.1173354 54.3416488,69.5587118 54.1436531,70.0165883 C53.8672841,70.6353402 53.6197895,71.2540922 53.5661657,72.0172196 C53.5249166,72.5947215 53.4176689,73.2134734 53.2196732,73.7208501 C52.9783361,74.4101067 52.8814529,75.1416633 52.9350544,75.8699819 C52.9474291,76.2536081 52.9556789,76.6413593 52.9391793,77.0249856 C52.9185547,77.4952371 53.0216775,77.9159884 53.137175,78.3449898 C53.2815468,78.8812415 53.3764198,79.4381182 53.4795425,79.99087 C53.5166667,80.1971207 53.549666,80.3249961 53.7394119,80.4033713 C54.1519029,80.5642468 54.5437694,80.8158726 54.9438857,81.0344983 C55.0181341,81.0757484 55.0965074,81.1169986 55.1748807,81.1458737 C55.4141255,81.2201239 55.6533703,81.2778741 55.7936173,81.5996251 C55.8101169,81.6326252 55.8389913,81.6656253 55.8678657,81.6738754 C56.2514823,81.8223758 56.635099,81.9832513 57.0228406,82.1152518 C57.3322089,82.2183771 57.649827,82.2678772 57.9633201,82.3627525 C58.2108148,82.4370028 58.4583094,82.5442531 58.7016791,82.6308784 C58.7429282,82.6432534 58.796552,82.6473784 58.8419261,82.6350034 C59.2255427,82.5566282 59.5390359,82.7587538 59.6999074,83.2537554 C59.7418151,83.4232916 59.7317544,83.6015145 59.671033,83.765257 C59.6009096,83.9385076 59.4812872,84.0416329 59.2832915,83.9838827 C58.9450488,83.8848824 58.5903065,83.8683823 58.2396891,83.8230072 C58.0540682,83.7982571 57.8684472,83.769382 57.6787013,83.765257 C57.4229569,83.752882 57.1713373,83.769382 56.9155929,83.765257 C56.7505965,83.757007 56.5773503,83.7322569 56.4082289,83.7198819 C55.7358685,83.6662567 55.0635081,83.5961315 54.3911477,83.5672564 C53.7064126,83.5466313 53.0216775,83.5878814 52.3369424,83.5672564 C52.1183221,83.5590063 51.8048289,83.6208815 51.8419531,83.0722548 C51.8419531,83.0516297 51.7883293,83.0062546 51.7842044,83.0145046 C51.7388304,83.0722548 51.7017062,83.138255 51.6728318,83.1795051 L51.6728318,83.1753801 Z M46.7090947,78.6950396 L46.7610876,78.6950396 L46.7610876,79.5193969 C46.7690865,79.8955599 46.9450624,80.0076085 47.5689769,79.999605 C48.2248871,79.999605 48.8807972,79.9595877 49.5367073,79.9555859 C50.2366115,79.9555859 50.816532,79.8115235 51.0684975,79.4033466 C51.2507506,79.1362657 51.3521241,78.8222452 51.3604575,78.4989546 C51.3230312,77.4827807 51.2483244,76.4683245 51.1364882,75.4576365 C51.0907537,75.0775287 50.9840657,74.7072856 50.8205315,74.3611613 C50.5165731,73.6968734 50.1126284,73.0485925 49.8286673,72.3803028 C49.6726887,72.016145 49.6366936,71.6359802 50.2686071,71.3478554 C52.0963567,70.5274998 53.3001918,69.3750003 54.5880153,68.2665199 C54.6600055,68.2104956 54.6640049,68.1184558 54.7,68.0424228 C54.5680181,68.0264159 54.4320367,67.9904003 54.3000548,68.0024055 C53.5521572,68.0424228 52.8002603,68.0744367 52.0563622,68.1464679 C51.7842569,68.1642666 51.5200084,68.2450933 51.2844679,68.3825702 C50.7485413,68.7747402 50.3245994,69.2229344 49.772675,69.6071009 C49.0554949,70.0690001 48.4358717,70.6672233 47.9489249,71.367864 C47.8289413,71.5519438 47.7809479,71.7560323 47.7249555,71.9521173 C47.5769758,72.4603375 47.5009862,72.9765612 47.2850158,73.4727763 C46.9730586,74.185085 46.5691139,74.8733833 46.7410903,75.6337128 C46.8610739,76.173947 46.8890701,76.7181828 46.8810712,77.2624187 C46.8770717,77.7426268 46.7690865,78.222835 46.7090947,78.7030431 L46.7090947,78.6950396 Z" id="Shape"></path>
                </g>
            </g>
        </g>
    </g>
</svg>