<?xml version="1.0" encoding="UTF-8"?>
<!--Generator: Apple Native CoreSVG 341-->
<!DOCTYPE svg
PUBLIC "-//W3C//DTD SVG 1.1//EN"
       "http://www.w3.org/Graphics/SVG/1.1/DTD/svg11.dtd">
<svg version="1.1" xmlns="http://www.w3.org/2000/svg" xmlns:xlink="http://www.w3.org/1999/xlink" viewBox="0 0 3300 2200">
 <!--glyph: "", point size: 100.0, font version: "20.0d10e1", template writer version: "138.0.0"-->
 <style>.monochrome-0 {-sfsymbols-motion-group:1;-sfsymbols-layer-tags:18c27cc33649ae4c}
.monochrome-1 {-sfsymbols-motion-group:0;-sfsymbols-layer-tags:18c27cc33649ae4c}

.multicolor-0:tintColor {-sfsymbols-motion-group:1;-sfsymbols-layer-tags:18c27cc33649ae4c}
.multicolor-1:tintColor {-sfsymbols-motion-group:0;-sfsymbols-layer-tags:18c27cc33649ae4c}

.hierarchical-0:primary {-sfsymbols-motion-group:1;-sfsymbols-layer-tags:18c27cc33649ae4c}
.hierarchical-1:tertiary {-sfsymbols-motion-group:0;-sfsymbols-layer-tags:18c27cc33649ae4c}

.SFSymbolsPreviewWireframe {fill:none;opacity:1.0;stroke:black;stroke-width:0.5}
</style>
 <g id="Notes">
  <rect height="2200" id="artboard" style="fill:white;opacity:1" width="3300" x="0" y="0"/>
  <line style="fill:none;stroke:black;opacity:1;stroke-width:0.5;" x1="263" x2="3036" y1="292" y2="292"/>
  <text style="stroke:none;fill:black;font-family:sans-serif;font-size:13;font-weight:bold;" transform="matrix(1 0 0 1 263 322)">Weight/Scale Variations</text>
  <text style="stroke:none;fill:black;font-family:sans-serif;font-size:13;text-anchor:middle;" transform="matrix(1 0 0 1 559.711 322)">Ultralight</text>
  <text style="stroke:none;fill:black;font-family:sans-serif;font-size:13;text-anchor:middle;" transform="matrix(1 0 0 1 856.422 322)">Thin</text>
  <text style="stroke:none;fill:black;font-family:sans-serif;font-size:13;text-anchor:middle;" transform="matrix(1 0 0 1 1153.13 322)">Light</text>
  <text style="stroke:none;fill:black;font-family:sans-serif;font-size:13;text-anchor:middle;" transform="matrix(1 0 0 1 1449.84 322)">Regular</text>
  <text style="stroke:none;fill:black;font-family:sans-serif;font-size:13;text-anchor:middle;" transform="matrix(1 0 0 1 1746.56 322)">Medium</text>
  <text style="stroke:none;fill:black;font-family:sans-serif;font-size:13;text-anchor:middle;" transform="matrix(1 0 0 1 2043.27 322)">Semibold</text>
  <text style="stroke:none;fill:black;font-family:sans-serif;font-size:13;text-anchor:middle;" transform="matrix(1 0 0 1 2339.98 322)">Bold</text>
  <text style="stroke:none;fill:black;font-family:sans-serif;font-size:13;text-anchor:middle;" transform="matrix(1 0 0 1 2636.69 322)">Heavy</text>
  <text style="stroke:none;fill:black;font-family:sans-serif;font-size:13;text-anchor:middle;" transform="matrix(1 0 0 1 2933.4 322)">Black</text>
  <line style="fill:none;stroke:black;opacity:1;stroke-width:0.5;" x1="263" x2="3036" y1="1903" y2="1903"/>
  <g transform="matrix(0.2 0 0 0.2 263 1933)">
   <path d="m46.2402 4.15039c21.7773 0 39.4531-17.627 39.4531-39.4043s-17.6758-39.4043-39.4531-39.4043c-21.7285 0-39.4043 17.627-39.4043 39.4043s17.6758 39.4043 39.4043 39.4043Zm0-7.42188c-17.6758 0-31.9336-14.3066-31.9336-31.9824s14.2578-31.9824 31.9336-31.9824 31.9824 14.3066 31.9824 31.9824-14.3066 31.9824-31.9824 31.9824Zm-17.9688-31.9824c0 2.14844 1.51367 3.61328 3.75977 3.61328h10.498v10.5957c0 2.19727 1.46484 3.71094 3.61328 3.71094 2.24609 0 3.71094-1.51367 3.71094-3.71094v-10.5957h10.5957c2.19727 0 3.71094-1.46484 3.71094-3.61328 0-2.19727-1.51367-3.71094-3.71094-3.71094h-10.5957v-10.5469c0-2.24609-1.46484-3.75977-3.71094-3.75977-2.14844 0-3.61328 1.51367-3.61328 3.75977v10.5469h-10.498c-2.24609 0-3.75977 1.51367-3.75977 3.71094Z"/>
  </g>
  <g transform="matrix(0.2 0 0 0.2 281.506 1933)">
   <path d="m58.5449 14.5508c27.4902 0 49.8047-22.3145 49.8047-49.8047s-22.3145-49.8047-49.8047-49.8047-49.8047 22.3145-49.8047 49.8047 22.3145 49.8047 49.8047 49.8047Zm0-8.30078c-22.9492 0-41.5039-18.5547-41.5039-41.5039s18.5547-41.5039 41.5039-41.5039 41.5039 18.5547 41.5039 41.5039-18.5547 41.5039-41.5039 41.5039Zm-22.6562-41.5039c0 2.39258 1.66016 4.00391 4.15039 4.00391h14.3555v14.4043c0 2.44141 1.66016 4.15039 4.05273 4.15039 2.44141 0 4.15039-1.66016 4.15039-4.15039v-14.4043h14.4043c2.44141 0 4.15039-1.61133 4.15039-4.00391 0-2.44141-1.70898-4.15039-4.15039-4.15039h-14.4043v-14.3555c0-2.49023-1.70898-4.19922-4.15039-4.19922-2.39258 0-4.05273 1.70898-4.05273 4.19922v14.3555h-14.3555c-2.49023 0-4.15039 1.70898-4.15039 4.15039Z"/>
  </g>
  <g transform="matrix(0.2 0 0 0.2 304.924 1933)">
   <path d="m74.8535 28.3203c35.1074 0 63.623-28.4668 63.623-63.5742s-28.5156-63.623-63.623-63.623-63.5742 28.5156-63.5742 63.623 28.4668 63.5742 63.5742 63.5742Zm0-9.08203c-30.127 0-54.4922-24.3652-54.4922-54.4922s24.3652-54.4922 54.4922-54.4922 54.4922 24.3652 54.4922 54.4922-24.3652 54.4922-54.4922 54.4922Zm-28.8574-54.4922c0 2.58789 1.85547 4.39453 4.58984 4.39453h19.7266v19.7754c0 2.68555 1.85547 4.58984 4.44336 4.58984 2.68555 0 4.54102-1.85547 4.54102-4.58984v-19.7754h19.7754c2.68555 0 4.58984-1.80664 4.58984-4.39453 0-2.73438-1.85547-4.58984-4.58984-4.58984h-19.7754v-19.7266c0-2.73438-1.85547-4.63867-4.54102-4.63867-2.58789 0-4.44336 1.9043-4.44336 4.63867v19.7266h-19.7266c-2.73438 0-4.58984 1.85547-4.58984 4.58984Z"/>
  </g>
  <text style="stroke:none;fill:black;font-family:sans-serif;font-size:13;font-weight:bold;" transform="matrix(1 0 0 1 263 1953)">Design Variations</text>
  <text style="stroke:none;fill:black;font-family:sans-serif;font-size:13;" transform="matrix(1 0 0 1 263 1971)">Symbols are supported in up to nine weights and three scales.</text>
  <text style="stroke:none;fill:black;font-family:sans-serif;font-size:13;" transform="matrix(1 0 0 1 263 1989)">For optimal layout with text and other symbols, vertically align</text>
  <text style="stroke:none;fill:black;font-family:sans-serif;font-size:13;" transform="matrix(1 0 0 1 263 2007)">symbols with the adjacent text.</text>
  <line style="fill:none;stroke:#00AEEF;stroke-width:0.5;opacity:1.0;" x1="776" x2="776" y1="1919" y2="1933"/>
  <g transform="matrix(0.2 0 0 0.2 776 1933)">
   <path d="m16.5527 0.78125c2.58789 0 3.85742-0.976562 4.78516-3.71094l6.29883-17.2363h28.8086l6.29883 17.2363c0.927734 2.73438 2.19727 3.71094 4.73633 3.71094 2.58789 0 4.24805-1.5625 4.24805-4.00391 0-0.830078-0.146484-1.61133-0.537109-2.63672l-22.9004-60.9863c-1.12305-2.97852-3.125-4.49219-6.25-4.49219-3.02734 0-5.07812 1.46484-6.15234 4.44336l-22.9004 61.084c-0.390625 1.02539-0.537109 1.80664-0.537109 2.63672 0 2.44141 1.5625 3.95508 4.10156 3.95508Zm13.4766-28.3691 11.8652-32.8613h0.244141l11.8652 32.8613Z"/>
  </g>
  <line style="fill:none;stroke:#00AEEF;stroke-width:0.5;opacity:1.0;" x1="792.836" x2="792.836" y1="1919" y2="1933"/>
  <text style="stroke:none;fill:black;font-family:sans-serif;font-size:13;font-weight:bold;" transform="matrix(1 0 0 1 776 1953)">Margins</text>
  <text style="stroke:none;fill:black;font-family:sans-serif;font-size:13;" transform="matrix(1 0 0 1 776 1971)">Leading and trailing margins on the left and right side of each symbol</text>
  <text style="stroke:none;fill:black;font-family:sans-serif;font-size:13;" transform="matrix(1 0 0 1 776 1989)">can be adjusted by modifying the x-location of the margin guidelines.</text>
  <text style="stroke:none;fill:black;font-family:sans-serif;font-size:13;" transform="matrix(1 0 0 1 776 2007)">Modifications are automatically applied proportionally to all</text>
  <text style="stroke:none;fill:black;font-family:sans-serif;font-size:13;" transform="matrix(1 0 0 1 776 2025)">scales and weights.</text>
  <g transform="matrix(0.2 0 0 0.2 1289 1933)">
   <path d="m14.209 9.32617 8.49609 8.54492c4.29688 4.3457 9.22852 4.05273 13.8672-1.07422l53.4668-58.9355-4.83398-4.88281-53.0762 58.3984c-1.75781 2.00195-3.41797 2.49023-5.76172 0.146484l-5.85938-5.81055c-2.34375-2.29492-1.80664-4.00391 0.195312-5.81055l57.373-54.0039-4.88281-4.83398-57.959 54.4434c-4.93164 4.58984-5.32227 9.47266-1.02539 13.8184Zm32.0801-90.9668c-2.09961 2.05078-2.24609 4.93164-1.07422 6.88477 1.17188 1.80664 3.4668 2.97852 6.68945 2.14844 7.32422-1.70898 14.9414-2.00195 22.0703 2.68555l-2.92969 7.27539c-1.70898 4.15039-0.830078 7.08008 1.85547 9.81445l11.4746 11.5723c2.44141 2.44141 4.49219 2.53906 7.32422 2.05078l5.32227-0.976562 3.32031 3.36914-0.195312 2.7832c-0.195312 2.49023 0.439453 4.39453 2.88086 6.78711l3.80859 3.71094c2.39258 2.39258 5.46875 2.53906 7.8125 0.195312l14.5508-14.5996c2.34375-2.34375 2.24609-5.32227-0.146484-7.71484l-3.85742-3.80859c-2.39258-2.39258-4.24805-3.17383-6.64062-2.97852l-2.88086 0.244141-3.22266-3.17383 1.2207-5.61523c0.634766-2.83203-0.146484-5.0293-3.07617-7.95898l-10.9863-10.9375c-16.6992-16.6016-38.8672-16.2109-53.3203-1.75781Zm7.4707 1.85547c12.1582-8.88672 28.6133-7.37305 39.7461 3.75977l12.1582 12.0605c1.17188 1.17188 1.36719 2.09961 1.02539 3.80859l-1.61133 7.42188 7.51953 7.42188 4.93164-0.292969c1.26953-0.0488281 1.66016 0.0488281 2.63672 1.02539l2.88086 2.88086-12.207 12.207-2.88086-2.88086c-0.976562-0.976562-1.12305-1.36719-1.07422-2.68555l0.341797-4.88281-7.4707-7.42188-7.61719 1.26953c-1.61133 0.341797-2.34375 0.195312-3.56445-0.976562l-10.0098-10.0098c-1.26953-1.17188-1.41602-2.00195-0.634766-3.85742l4.39453-10.4492c-7.8125-7.27539-17.9688-10.4004-28.125-7.42188-0.78125 0.195312-1.07422-0.439453-0.439453-0.976562Z"/>
  </g>
  <text style="stroke:none;fill:black;font-family:sans-serif;font-size:13;font-weight:bold;" transform="matrix(1 0 0 1 1289 1953)">Exporting</text>
  <text style="stroke:none;fill:black;font-family:sans-serif;font-size:13;" transform="matrix(1 0 0 1 1289 1971)">Symbols should be outlined when exporting to ensure the</text>
  <text style="stroke:none;fill:black;font-family:sans-serif;font-size:13;" transform="matrix(1 0 0 1 1289 1989)">design is preserved when submitting to Xcode.</text>
  <text id="template-version" style="stroke:none;fill:black;font-family:sans-serif;font-size:13;text-anchor:end;" transform="matrix(1 0 0 1 3036 1933)">Template v.6.0</text>
  <text style="stroke:none;fill:black;font-family:sans-serif;font-size:13;text-anchor:end;" transform="matrix(1 0 0 1 3036 1951)">Requires Xcode 16 or greater</text>
  <text id="descriptive-name" style="stroke:none;fill:black;font-family:sans-serif;font-size:13;text-anchor:end;" transform="matrix(1 0 0 1 3036 1969)">Generated from filtervogelgruppe-21</text>
  <text style="stroke:none;fill:black;font-family:sans-serif;font-size:13;text-anchor:end;" transform="matrix(1 0 0 1 3036 1987)">Typeset at 100.0 points</text>
  <text style="stroke:none;fill:black;font-family:sans-serif;font-size:13;" transform="matrix(1 0 0 1 263 726)">Small</text>
  <text style="stroke:none;fill:black;font-family:sans-serif;font-size:13;" transform="matrix(1 0 0 1 263 1156)">Medium</text>
  <text style="stroke:none;fill:black;font-family:sans-serif;font-size:13;" transform="matrix(1 0 0 1 263 1586)">Large</text>
 </g>
 <g id="Guides">
  <g id="H-reference" style="fill:#27AAE1;stroke:none;" transform="matrix(1 0 0 1 339 696)">
   <path d="M0.993654 0L3.63775 0L29.3281-67.1323L30.0303-67.1323L30.0303-70.459L28.1226-70.459ZM11.6885-24.4799L46.9815-24.4799L46.2315-26.7285L12.4385-26.7285ZM55.1196 0L57.7637 0L30.6382-70.459L29.4326-70.459L29.4326-67.1323Z"/>
  </g>
  <line id="Baseline-S" style="fill:none;stroke:#27AAE1;opacity:1;stroke-width:0.5;" x1="263" x2="3036" y1="696" y2="696"/>
  <line id="Capline-S" style="fill:none;stroke:#27AAE1;opacity:1;stroke-width:0.5;" x1="263" x2="3036" y1="625.541" y2="625.541"/>
  <g id="H-reference" style="fill:#27AAE1;stroke:none;" transform="matrix(1 0 0 1 339 1126)">
   <path d="M0.993654 0L3.63775 0L29.3281-67.1323L30.0303-67.1323L30.0303-70.459L28.1226-70.459ZM11.6885-24.4799L46.9815-24.4799L46.2315-26.7285L12.4385-26.7285ZM55.1196 0L57.7637 0L30.6382-70.459L29.4326-70.459L29.4326-67.1323Z"/>
  </g>
  <line id="Baseline-M" style="fill:none;stroke:#27AAE1;opacity:1;stroke-width:0.5;" x1="263" x2="3036" y1="1126" y2="1126"/>
  <line id="Capline-M" style="fill:none;stroke:#27AAE1;opacity:1;stroke-width:0.5;" x1="263" x2="3036" y1="1055.54" y2="1055.54"/>
  <g id="H-reference" style="fill:#27AAE1;stroke:none;" transform="matrix(1 0 0 1 339 1556)">
   <path d="M0.993654 0L3.63775 0L29.3281-67.1323L30.0303-67.1323L30.0303-70.459L28.1226-70.459ZM11.6885-24.4799L46.9815-24.4799L46.2315-26.7285L12.4385-26.7285ZM55.1196 0L57.7637 0L30.6382-70.459L29.4326-70.459L29.4326-67.1323Z"/>
  </g>
  <line id="Baseline-L" style="fill:none;stroke:#27AAE1;opacity:1;stroke-width:0.5;" x1="263" x2="3036" y1="1556" y2="1556"/>
  <line id="Capline-L" style="fill:none;stroke:#27AAE1;opacity:1;stroke-width:0.5;" x1="263" x2="3036" y1="1485.54" y2="1485.54"/>
  <line id="right-margin-Black-S" style="fill:none;stroke:#00AEEF;stroke-width:0.5;opacity:1.0;" x1="2982.23" x2="2982.23" y1="600.785" y2="720.121"/>
  <line id="left-margin-Black-S" style="fill:none;stroke:#00AEEF;stroke-width:0.5;opacity:1.0;" x1="2884.57" x2="2884.57" y1="600.785" y2="720.121"/>
  <line id="right-margin-Regular-S" style="fill:none;stroke:#00AEEF;stroke-width:0.5;opacity:1.0;" x1="1496.11" x2="1496.11" y1="600.785" y2="720.121"/>
  <line id="left-margin-Regular-S" style="fill:none;stroke:#00AEEF;stroke-width:0.5;opacity:1.0;" x1="1403.58" x2="1403.58" y1="600.785" y2="720.121"/>
  <line id="right-margin-Ultralight-S" style="fill:none;stroke:#00AEEF;stroke-width:0.5;opacity:1.0;" x1="603.773" x2="603.773" y1="600.785" y2="720.121"/>
  <line id="left-margin-Ultralight-S" style="fill:none;stroke:#00AEEF;stroke-width:0.5;opacity:1.0;" x1="515.649" x2="515.649" y1="600.785" y2="720.121"/>
 </g>
 <g id="Symbols">
  <g id="Black-S" transform="matrix(1 0 0 1 2884.57 696)">
   <path class="monochrome-0 multicolor-0:tintColor hierarchical-0:primary SFSymbolsPreviewWireframe" d="M41.684-46.1868C45.1339-44.3176 45.6993-43.7445 46.7839-43.1099C47.8646-42.4715 48.7415-42.1407 50.1069-41.5446C51.4723-40.9523 52.0915-40.4484 55.5683-37.5869C57.7837-35.6524 59.2029-34.0678 60.4913-31.3448C62.0105-28.791 61.8836-28.0871 62.5797-25.868C63.1951-24.0872 64.1758-22.1065 64.5374-21.4911C64.8951-20.8758 63.6874-21.1181 63.6874-21.1181C63.9451-20.3719 64.2528-19.6873 67.0873-17.6874C69.868-15.6451 72.2911-13.949 72.6795-13.399C73.0641-12.849 73.8141-11.7298 73.991-11.3336C74.1718-10.9375 73.6564-10.6298 73.2718-10.7837C72.8872-10.9375 72.0334-11.3336 72.0334-11.3336C72.5757-10.4298 72.0872-10.2567 71.5718-10.5183C71.0565-10.7837 70.7719-10.826 70.7719-10.826C70.8219-10.2106 70.1257-10.4106 69.9219-10.5183L69.5103-10.7375C69.3027-10.2991 68.9411-10.3644 68.0681-10.9375C67.2681-10.5414 66.3143-11.0913 65.0297-12.0798C63.7374-13.0682 61.1874-17.1181 60.5182-17.795C59.849-18.4796 59.7721-18.3912 58.9721-18.545C58.1721-18.6989 56.9106-19.1373 56.5222-19.2681C56.1375-19.4027 54.0491-19.7527 54.0491-19.7527C53.7414-18.3912 52.7607-17.6874 52.5299-17.4451C52.2992-17.2028 52.3492-16.7835 52.6838-16.5451C53.3799-16.0374 53.5607-15.7759 52.9415-15.7759C52.3261-15.7759 49.6454-15.9297 49.6454-15.9297C48.1762-14.4567 46.8839-13.6221 46.0108-13.4874C45.1339-13.3567 44.1801-13.3105 44.1801-13.3105C42.2955-12.8105 39.5647-12.6952 39.5647-12.6952C37.2725-12.4567 36.5533-12.1952 36.3456-12.1682C36.1379-12.1452 38.1763-13.4451 38.5879-13.6413C38.9994-13.8413 39.1032-14.699 39.1032-14.699C38.6917-15.0951 38.3571-15.1605 39.0263-15.1836C39.6955-15.2028 41.8878-15.4451 41.8878-15.4451C42.8878-15.8182 43.1224-15.8643 43.1224-15.8643C43.8455-15.8182 45.0839-15.8643 45.0839-15.8643C45.4416-15.9528 45.5185-16.1951 45.2109-16.2797C44.9032-16.3682 42.3494-16.3258 42.3494-16.3258C42.634-16.522 43.8186-16.6105 44.257-16.7643C44.6955-16.9181 45.3647-17.0297 45.3647-17.0297L48.0685-17.0951C48.3531-17.2489 48.6339-19.5566 48.6339-19.5566C47.0108-20.4373 45.957-23.5795 45.957-23.5795C43.4301-25.8256 41.9609-27.4718 41.084-28.5717C40.207-29.6717 36.2917-35.9408 35.3379-39.3254C34.3841-42.7099 33.7649-45.4406 34.6456-47.5521C35.5187-49.6636 38.0417-51.0252 38.0417-51.0252C38.2494-51.1559 38.4532-51.8598 37.7609-52.9597C37.0648-54.0597 36.6033-54.5212 35.3879-55.0712C31.6842-56.7866 30.7572-57.3789 30.7572-57.3789C29.288-57.5981 27.8458-58.0173 27.6381-58.0596C26.5591-58.1766 25.4764-58.2575 24.392-58.3019C24.1612-58.3019 24.0305-58.0827 24.0305-58.0827C24.0305-58.8288 24.7266-59.598 26.1689-59.4019C27.7419-59.0519 29.2611-58.8288 30.938-59.2057C32.5611-59.5788 33.411-60.2173 36.3225-60.3711C38.6917-60.548 41.1378-59.9096 42.6878-58.0635C44.1801-57.5558 45.8301-57.425 45.8301-57.425C45.6224-57.3558 44.8493-57.3135 44.8493-57.3135C45.3378-57.1173 45.7262-57.1366 45.7262-57.1366C45.1609-56.7404 44.7724-56.7635 44.7724-56.7635C45.6224-56.3904 46.3685-56.8058 46.3685-56.8058C46.2685-56.5443 45.8531-56.4789 45.8531-56.4789C46.2916-56.2789 46.3685-56.2558 46.3685-56.2558C45.6762-56.4327 44.9262-56.4327 44.9262-56.4327C46.3185-55.6866 47.3223-55.6635 47.3223-55.6635C46.7067-55.6643 46.0929-55.7313 45.4916-55.8635C45.6455-55.5981 46.857-55.2674 46.857-55.2674L45.4416-55.4866C46.1108-55.0058 46.7031-54.6751 48.1223-54.9597C47.6839-54.6097 46.0608-54.6982 45.6224-54.8712C46.5993-54.3212 47.63-54.1674 47.63-54.1674C47.2749-54.1717 46.9204-54.1974 46.5685-54.2443C46.8608-53.9828 47.6454-53.9212 47.6454-53.9212C47.4993-53.9059 47.007-53.8905 47.007-53.8905C47.106-53.7058 47.2275-53.534 47.3685-53.3789C47.2954-53.4097 46.9339-53.7482 46.2031-53.8751C46.5108-53.3136 47.607-52.9251 47.607-52.9251C46.9784-52.9723 46.3858-53.236 45.9301-53.6713C46.0913-53.3606 46.3076-53.0817 46.5685-52.8482C46.2762-52.9405 45.5108-53.6559 45.5108-53.6559C45.7842-53.0774 46.2217-52.592 46.7685-52.2597C46.1685-52.4136 45.6762-52.9751 45.6762-52.9751C45.8955-52.3213 46.1878-52.0905 46.1878-52.0905C46.0955-52.1021 45.6032-52.4444 45.6032-52.4444C45.6762-52.2136 45.9878-51.7444 45.9878-51.7444L45.6224-52.0405L45.6224-51.1098C45.5147-51.1252 45.1685-51.5598 45.1685-51.5598C44.9493-51.0598 44.7109-50.7521 44.657-50.6405C44.5993-50.5329 44.0378-50.3329 44.0378-50.3329C43.0147-48.6521 42.7801-48.1868 42.6532-47.7945C42.5263-47.4098 41.9225-46.9098 41.7763-46.7098C41.6302-46.506 41.6802-46.1868 41.6802-46.1868L41.684-46.1868Z"/>
   <path class="monochrome-1 multicolor-1:tintColor hierarchical-1:tertiary SFSymbolsPreviewWireframe" d="M48.9411-84C55.3091-84.0013 61.615-82.7479 67.4985-80.3116C73.382-77.8752 78.7279-74.3036 83.2305-69.8009C87.7334-65.2983 91.305-59.9524 93.7418-54.0682C96.1779-48.1846 97.4312-41.8789 97.43-35.5124C97.43-8.72255 75.7254 13 48.9424 13C22.156 13 0.43-8.726 0.43-35.5124C0.43-62.2926 22.1539-84 48.9411-84ZM48.9424-70C29.8835-70 14.43-54.5582 14.43-35.5124C14.43-16.458 29.888-0.999999 48.9424-0.999999C67.9909-0.999999 83.43-16.4519 83.43-35.5138C83.4309-40.0428 82.5395-44.5276 80.8069-48.7121C79.0739-52.8969 76.5337-56.6989 73.3311-59.9013C70.1287-63.1038 66.3266-65.644 62.1422-67.3767C57.9578-69.1095 53.4729-70.0009 48.9424-70Z"/>
  </g>
  <g id="Regular-S" transform="matrix(1 0 0 1 1403.58 696)">
   <path class="monochrome-0 multicolor-0:tintColor hierarchical-0:primary SFSymbolsPreviewWireframe" d="M37.91-48.3089C41.7188-46.2452 42.3429-45.6125 43.5404-44.9119C44.7335-44.2071 45.7016-43.8419 47.209-43.1837C48.7164-42.5298 49.4-41.9736 53.2386-38.8145C55.6844-36.6786 57.2512-34.9292 58.6736-31.9229C60.3509-29.1035 60.2108-28.3265 60.9793-25.8764C61.6587-23.9105 62.7415-21.7237 63.1406-21.0443C63.5355-20.3649 62.2022-20.6324 62.2022-20.6324C62.4867-19.8087 62.8264-19.0529 65.9558-16.8449C69.0258-14.5901 71.7008-12.7176 72.1297-12.1104C72.5543-11.5032 73.3823-10.2676 73.5776-9.83021C73.7772-9.39285 73.2082-9.05316 72.7836-9.22301C72.359-9.39285 71.4164-9.83021 71.4164-9.83021C72.0151-8.83236 71.4758-8.64129 70.9068-8.93002C70.3378-9.22301 70.0236-9.26972 70.0236-9.26972C70.0788-8.59033 69.3103-8.81113 69.0852-8.93002L68.6309-9.17205C68.4016-8.68799 68.0024-8.76018 67.0386-9.39285C66.1554-8.9555 65.1023-9.5627 63.6841-10.654C62.2574-11.7452 59.4422-16.2164 58.7034-16.9637C57.9645-17.7196 57.8796-17.6219 56.9964-17.7917C56.1132-17.9616 54.7205-18.4457 54.2916-18.59C53.867-18.7386 51.5613-19.125 51.5613-19.125C51.2216-17.6219 50.1389-16.8449 49.8841-16.5773C49.6293-16.3098 49.6845-15.847 50.054-15.5837C50.8225-15.0233 51.0221-14.7345 50.3384-14.7345C49.6591-14.7345 46.6995-14.9044 46.6995-14.9044C45.0775-13.2781 43.6508-12.3567 42.6869-12.2081C41.7188-12.0637 40.6657-12.0127 40.6657-12.0127C38.5851-11.4607 35.5702-11.3333 35.5702-11.3333C33.0395-11.0701 32.2455-10.7813 32.0162-10.7516C31.7869-10.7261 34.0374-12.1613 34.4917-12.3779C34.9461-12.5987 35.0607-13.5456 35.0607-13.5456C34.6064-13.9829 34.237-14.0551 34.9758-14.0806C35.7146-14.1018 38.135-14.3693 38.135-14.3693C39.239-14.7812 39.498-14.8322 39.498-14.8322C40.2963-14.7812 41.6636-14.8322 41.6636-14.8322C42.0584-14.9298 42.1434-15.1973 41.8037-15.2908C41.464-15.3884 38.6445-15.3417 38.6445-15.3417C38.9588-15.5583 40.2666-15.6559 40.7506-15.8258C41.2347-15.9956 41.9735-16.1188 41.9735-16.1188L44.9586-16.1909C45.2728-16.3608 45.5828-18.9085 45.5828-18.9085C43.7909-19.8809 42.6274-23.35 42.6274-23.35C39.8377-25.8297 38.2157-27.6471 37.2475-28.8615C36.2794-30.0759 31.9568-36.9971 30.9037-40.7337C29.8507-44.4703 29.1671-47.4851 30.1394-49.8163C31.1033-52.1474 33.8888-53.6506 33.8888-53.6506C34.1181-53.7949 34.3431-54.572 33.5788-55.7864C32.8103-57.0008 32.3007-57.5103 30.9589-58.1175C26.8699-60.0113 25.8466-60.6652 25.8466-60.6652C24.2245-60.9072 22.6322-61.3701 22.4029-61.4168C21.2117-61.546 20.0164-61.6352 18.8192-61.6843C18.5644-61.6843 18.42-61.4422 18.42-61.4422C18.42-62.266 19.1886-63.1152 20.7809-62.8987C22.5176-62.5123 24.1948-62.266 26.0461-62.6821C27.838-63.094 28.7764-63.7989 31.9907-63.9687C34.6064-64.164 37.3069-63.4592 39.0182-61.421C40.6657-60.8605 42.4873-60.7162 42.4873-60.7162C42.258-60.6397 41.4045-60.593 41.4045-60.593C41.9438-60.3765 42.3727-60.3977 42.3727-60.3977C41.7485-59.9603 41.3196-59.9858 41.3196-59.9858C42.258-59.5739 43.0818-60.0325 43.0818-60.0325C42.9714-59.7438 42.5128-59.6716 42.5128-59.6716C42.9968-59.4508 43.0818-59.4253 43.0818-59.4253C42.3175-59.6206 41.4895-59.6206 41.4895-59.6206C43.0266-58.7969 44.1348-58.7714 44.1348-58.7714C43.4551-58.7723 42.7775-58.8463 42.1136-58.9922C42.2835-58.6992 43.621-58.3341 43.621-58.3341L42.0584-58.5761C42.7973-58.0453 43.4512-57.6802 45.018-57.9944C44.534-57.608 42.7421-57.7056 42.258-57.8967C43.3365-57.2895 44.4745-57.1197 44.4745-57.1197C44.0824-57.1244 43.6911-57.1527 43.3026-57.2046C43.6253-56.9158 44.4915-56.8479 44.4915-56.8479C44.3301-56.8309 43.7866-56.8139 43.7866-56.8139C43.896-56.61 44.0301-56.4204 44.1858-56.2492C44.1051-56.2832 43.706-56.6568 42.8992-56.797C43.2389-56.177 44.449-55.7482 44.449-55.7482C43.7551-55.8002 43.1009-56.0913 42.5977-56.5719C42.7757-56.2289 43.0145-55.921 43.3026-55.6632C42.9799-55.7651 42.1349-56.5549 42.1349-56.5549C42.4367-55.9163 42.9197-55.3804 43.5234-55.0136C42.861-55.1834 42.3175-55.8034 42.3175-55.8034C42.5595-55.0815 42.8822-54.8267 42.8822-54.8267C42.7803-54.8395 42.2368-55.2174 42.2368-55.2174C42.3175-54.9626 42.6614-54.4446 42.6614-54.4446L42.258-54.7715L42.258-53.744C42.1391-53.761 41.757-54.2408 41.757-54.2408C41.5149-53.6888 41.2517-53.3491 41.1922-53.2259C41.1285-53.107 40.5086-52.8862 40.5086-52.8862C39.3791-51.0307 39.1201-50.5169 38.98-50.0838C38.8399-49.6592 38.1732-49.1071 38.0119-48.8863C37.8505-48.6613 37.9057-48.3089 37.9057-48.3089L37.91-48.3089Z"/>
   <path class="monochrome-1 multicolor-1:tintColor hierarchical-1:tertiary SFSymbolsPreviewWireframe" d="M46.4321-81.8365C52.4502-81.8377 58.4096-80.6532 63.9698-78.3508C69.53-76.0483 74.5822-72.6729 78.8374-68.4176C83.0928-64.1624 86.4682-59.1103 88.771-53.5496C91.0733-47.9892 92.2577-42.03 92.2566-36.0127C92.2566-10.693 71.744 9.83658 46.4328 9.83658C21.1173 9.83658 0.5835-10.6972 0.5835-36.0127C0.5835-61.3211 21.1145-81.8365 46.4321-81.8365ZM46.4328-75.0865C24.8413-75.0865 7.3335-57.592 7.3335-36.0127C7.3335-14.4252 24.8452 3.08658 46.4328 3.08658C68.0148 3.08658 85.5066-14.4197 85.5066-36.0133C85.5076-41.1447 84.4976-46.226 82.5345-50.9672C80.571-55.7085 77.693-60.0162 74.0644-63.6446C70.4361-67.273 66.1283-70.1511 61.3873-72.1143C56.6463-74.0776 51.5649-75.0875 46.4328-75.0865Z"/>
  </g>
  <g id="Ultralight-S" transform="matrix(1 0 0 1 515.649 696)">
   <path class="monochrome-0 multicolor-0:tintColor hierarchical-0:primary SFSymbolsPreviewWireframe" d="M35.841-49.3089C39.6498-47.2452 40.2739-46.6125 41.4714-45.9119C42.6645-45.2071 43.6326-44.8419 45.14-44.1837C46.6474-43.5298 47.331-42.9736 51.1696-39.8145C53.6154-37.6786 55.1822-35.9292 56.6046-32.9229C58.2819-30.1035 58.1418-29.3265 58.9103-26.8764C59.5897-24.9105 60.6725-22.7237 61.0716-22.0443C61.4665-21.3649 60.1332-21.6324 60.1332-21.6324C60.4177-20.8087 60.7574-20.0529 63.8868-17.8449C66.9568-15.5901 69.6318-13.7176 70.0607-13.1104C70.4853-12.5032 71.3133-11.2676 71.5086-10.8302C71.7082-10.3929 71.1392-10.0532 70.7146-10.223C70.29-10.3929 69.3474-10.8302 69.3474-10.8302C69.9461-9.83236 69.4068-9.64129 68.8378-9.93002C68.2688-10.223 67.9546-10.2697 67.9546-10.2697C68.0098-9.59033 67.2413-9.81113 67.0162-9.93002L66.5619-10.1721C66.3326-9.68799 65.9334-9.76018 64.9696-10.3929C64.0864-9.9555 63.0333-10.5627 61.6151-11.654C60.1884-12.7452 57.3732-17.2164 56.6344-17.9637C55.8955-18.7196 55.8106-18.6219 54.9274-18.7917C54.0442-18.9616 52.6515-19.4457 52.2226-19.59C51.798-19.7386 49.4923-20.125 49.4923-20.125C49.1526-18.6219 48.0699-17.8449 47.8151-17.5773C47.5603-17.3098 47.6155-16.847 47.985-16.5837C48.7535-16.0233 48.9531-15.7345 48.2694-15.7345C47.5901-15.7345 44.6305-15.9044 44.6305-15.9044C43.0085-14.2781 41.5818-13.3567 40.6179-13.2081C39.6498-13.0637 38.5967-13.0127 38.5967-13.0127C36.5161-12.4607 33.5012-12.3333 33.5012-12.3333C30.9705-12.0701 30.1765-11.7813 29.9472-11.7516C29.7179-11.7261 31.9684-13.1613 32.4227-13.3779C32.8771-13.5987 32.9917-14.5456 32.9917-14.5456C32.5374-14.9829 32.168-15.0551 32.9068-15.0806C33.6456-15.1018 36.066-15.3693 36.066-15.3693C37.17-15.7812 37.429-15.8322 37.429-15.8322C38.2273-15.7812 39.5946-15.8322 39.5946-15.8322C39.9894-15.9298 40.0744-16.1973 39.7347-16.2908C39.395-16.3884 36.5755-16.3417 36.5755-16.3417C36.8898-16.5583 38.1976-16.6559 38.6816-16.8258C39.1657-16.9956 39.9045-17.1188 39.9045-17.1188L42.8896-17.1909C43.2038-17.3608 43.5138-19.9085 43.5138-19.9085C41.7219-20.8809 40.5584-24.35 40.5584-24.35C37.7687-26.8297 36.1467-28.6471 35.1785-29.8615C34.2104-31.0759 29.8878-37.9971 28.8347-41.7337C27.7817-45.4703 27.0981-48.4851 28.0704-50.8163C29.0343-53.1474 31.8198-54.6506 31.8198-54.6506C32.0491-54.7949 32.2741-55.572 31.5098-56.7864C30.7413-58.0008 30.2317-58.5103 28.8899-59.1175C24.8009-61.0113 23.7776-61.6652 23.7776-61.6652C22.1555-61.9072 20.5632-62.3701 20.3339-62.4168C19.1427-62.546 17.9474-62.6352 16.7502-62.6843C16.4954-62.6843 16.351-62.4422 16.351-62.4422C16.351-63.266 17.1196-64.1152 18.7119-63.8987C20.4486-63.5123 22.1258-63.266 23.9771-63.6821C25.769-64.094 26.7074-64.7989 29.9217-64.9687C32.5374-65.164 35.2379-64.4592 36.9492-62.421C38.5967-61.8605 40.4183-61.7162 40.4183-61.7162C40.189-61.6397 39.3355-61.593 39.3355-61.593C39.8748-61.3765 40.3037-61.3977 40.3037-61.3977C39.6795-60.9603 39.2506-60.9858 39.2506-60.9858C40.189-60.5739 41.0128-61.0325 41.0128-61.0325C40.9024-60.7438 40.4438-60.6716 40.4438-60.6716C40.9278-60.4508 41.0128-60.4253 41.0128-60.4253C40.2485-60.6206 39.4205-60.6206 39.4205-60.6206C40.9576-59.7969 42.0658-59.7714 42.0658-59.7714C41.3861-59.7723 40.7085-59.8463 40.0446-59.9922C40.2145-59.6992 41.552-59.3341 41.552-59.3341L39.9894-59.5761C40.7283-59.0453 41.3822-58.6802 42.949-58.9944C42.465-58.608 40.6731-58.7056 40.189-58.8967C41.2675-58.2895 42.4055-58.1197 42.4055-58.1197C42.0134-58.1244 41.6221-58.1527 41.2336-58.2046C41.5563-57.9158 42.4225-57.8479 42.4225-57.8479C42.2611-57.8309 41.7176-57.8139 41.7176-57.8139C41.827-57.61 41.9611-57.4204 42.1168-57.2492C42.0361-57.2832 41.637-57.6568 40.8302-57.797C41.1699-57.177 42.38-56.7482 42.38-56.7482C41.6861-56.8002 41.0319-57.0913 40.5287-57.5719C40.7067-57.2289 40.9455-56.921 41.2336-56.6632C40.9109-56.7651 40.0659-57.5549 40.0659-57.5549C40.3677-56.9163 40.8507-56.3804 41.4544-56.0136C40.792-56.1834 40.2485-56.8034 40.2485-56.8034C40.4905-56.0815 40.8132-55.8267 40.8132-55.8267C40.7113-55.8395 40.1678-56.2174 40.1678-56.2174C40.2485-55.9626 40.5924-55.4446 40.5924-55.4446L40.189-55.7715L40.189-54.744C40.0701-54.761 39.688-55.2408 39.688-55.2408C39.4459-54.6888 39.1827-54.3491 39.1232-54.2259C39.0595-54.107 38.4396-53.8862 38.4396-53.8862C37.3101-52.0307 37.0511-51.5169 36.911-51.0838C36.7709-50.6592 36.1042-50.1071 35.9429-49.8863C35.7815-49.6613 35.8367-49.3089 35.8367-49.3089L35.841-49.3089Z"/>
   <path class="monochrome-1 multicolor-1:tintColor hierarchical-1:tertiary SFSymbolsPreviewWireframe" d="M44.3636-80.5865C50.0861-80.5876 55.7528-79.4613 61.04-77.272C66.3271-75.0826 71.1312-71.8729 75.1774-67.8265C79.2239-63.7803 82.4335-58.9764 84.6232-53.6889C86.8124-48.4015 87.9387-42.7349 87.9376-37.0127C87.9376-12.9352 68.432 6.58658 44.3638 6.58658C20.2909 6.58658 0.7645-12.9399 0.7645-37.0127C0.7645-61.0781 20.2877-80.5865 44.3636-80.5865ZM44.3638-78.3365C21.53-78.3365 3.0145-59.8351 3.0145-37.0127C3.0145-14.1825 21.5336 4.33658 44.3638 4.33658C67.1889 4.33658 85.6876-14.1774 85.6876-37.0129C85.6886-42.4398 84.6205-47.8138 82.5443-52.828C80.4678-57.8425 77.4239-62.3983 73.5865-66.2355C69.7491-70.073 65.1932-73.1168 60.1791-75.1931C55.1651-77.2695 49.791-78.3376 44.3638-78.3365Z"/>
  </g>
 </g>
</svg>
