<?xml version="1.0" encoding="UTF-8"?>
<!--Generator: Apple Native CoreSVG 341-->
<!DOCTYPE svg
PUBLIC "-//W3C//DTD SVG 1.1//EN"
       "http://www.w3.org/Graphics/SVG/1.1/DTD/svg11.dtd">
<svg version="1.1" xmlns="http://www.w3.org/2000/svg" xmlns:xlink="http://www.w3.org/1999/xlink" viewBox="0 0 3300 2200">
 <!--glyph: "", point size: 100.0, font version: "20.0d10e1", template writer version: "138.0.0"-->
 <style>.monochrome-0 {-sfsymbols-motion-group:1;-sfsymbols-layer-tags:30c1f462a4a85f49}
.monochrome-1 {-sfsymbols-motion-group:0;-sfsymbols-layer-tags:30c1f462a4a85f49}

.multicolor-0:tintColor {-sfsymbols-motion-group:1;-sfsymbols-layer-tags:30c1f462a4a85f49}
.multicolor-1:tintColor {-sfsymbols-motion-group:0;-sfsymbols-layer-tags:30c1f462a4a85f49}

.hierarchical-0:primary {-sfsymbols-motion-group:1;-sfsymbols-layer-tags:30c1f462a4a85f49}
.hierarchical-1:tertiary {-sfsymbols-motion-group:0;-sfsymbols-layer-tags:30c1f462a4a85f49}

.SFSymbolsPreviewWireframe {fill:none;opacity:1.0;stroke:black;stroke-width:0.5}
</style>
 <g id="Notes">
  <rect height="2200" id="artboard" style="fill:white;opacity:1" width="3300" x="0" y="0"/>
  <line style="fill:none;stroke:black;opacity:1;stroke-width:0.5;" x1="263" x2="3036" y1="292" y2="292"/>
  <text style="stroke:none;fill:black;font-family:sans-serif;font-size:13;font-weight:bold;" transform="matrix(1 0 0 1 263 322)">Weight/Scale Variations</text>
  <text style="stroke:none;fill:black;font-family:sans-serif;font-size:13;text-anchor:middle;" transform="matrix(1 0 0 1 559.711 322)">Ultralight</text>
  <text style="stroke:none;fill:black;font-family:sans-serif;font-size:13;text-anchor:middle;" transform="matrix(1 0 0 1 856.422 322)">Thin</text>
  <text style="stroke:none;fill:black;font-family:sans-serif;font-size:13;text-anchor:middle;" transform="matrix(1 0 0 1 1153.13 322)">Light</text>
  <text style="stroke:none;fill:black;font-family:sans-serif;font-size:13;text-anchor:middle;" transform="matrix(1 0 0 1 1449.84 322)">Regular</text>
  <text style="stroke:none;fill:black;font-family:sans-serif;font-size:13;text-anchor:middle;" transform="matrix(1 0 0 1 1746.56 322)">Medium</text>
  <text style="stroke:none;fill:black;font-family:sans-serif;font-size:13;text-anchor:middle;" transform="matrix(1 0 0 1 2043.27 322)">Semibold</text>
  <text style="stroke:none;fill:black;font-family:sans-serif;font-size:13;text-anchor:middle;" transform="matrix(1 0 0 1 2339.98 322)">Bold</text>
  <text style="stroke:none;fill:black;font-family:sans-serif;font-size:13;text-anchor:middle;" transform="matrix(1 0 0 1 2636.69 322)">Heavy</text>
  <text style="stroke:none;fill:black;font-family:sans-serif;font-size:13;text-anchor:middle;" transform="matrix(1 0 0 1 2933.4 322)">Black</text>
  <line style="fill:none;stroke:black;opacity:1;stroke-width:0.5;" x1="263" x2="3036" y1="1903" y2="1903"/>
  <g transform="matrix(0.2 0 0 0.2 263 1933)">
   <path d="m46.2402 4.15039c21.7773 0 39.4531-17.627 39.4531-39.4043s-17.6758-39.4043-39.4531-39.4043c-21.7285 0-39.4043 17.627-39.4043 39.4043s17.6758 39.4043 39.4043 39.4043Zm0-7.42188c-17.6758 0-31.9336-14.3066-31.9336-31.9824s14.2578-31.9824 31.9336-31.9824 31.9824 14.3066 31.9824 31.9824-14.3066 31.9824-31.9824 31.9824Zm-17.9688-31.9824c0 2.14844 1.51367 3.61328 3.75977 3.61328h10.498v10.5957c0 2.19727 1.46484 3.71094 3.61328 3.71094 2.24609 0 3.71094-1.51367 3.71094-3.71094v-10.5957h10.5957c2.19727 0 3.71094-1.46484 3.71094-3.61328 0-2.19727-1.51367-3.71094-3.71094-3.71094h-10.5957v-10.5469c0-2.24609-1.46484-3.75977-3.71094-3.75977-2.14844 0-3.61328 1.51367-3.61328 3.75977v10.5469h-10.498c-2.24609 0-3.75977 1.51367-3.75977 3.71094Z"/>
  </g>
  <g transform="matrix(0.2 0 0 0.2 281.506 1933)">
   <path d="m58.5449 14.5508c27.4902 0 49.8047-22.3145 49.8047-49.8047s-22.3145-49.8047-49.8047-49.8047-49.8047 22.3145-49.8047 49.8047 22.3145 49.8047 49.8047 49.8047Zm0-8.30078c-22.9492 0-41.5039-18.5547-41.5039-41.5039s18.5547-41.5039 41.5039-41.5039 41.5039 18.5547 41.5039 41.5039-18.5547 41.5039-41.5039 41.5039Zm-22.6562-41.5039c0 2.39258 1.66016 4.00391 4.15039 4.00391h14.3555v14.4043c0 2.44141 1.66016 4.15039 4.05273 4.15039 2.44141 0 4.15039-1.66016 4.15039-4.15039v-14.4043h14.4043c2.44141 0 4.15039-1.61133 4.15039-4.00391 0-2.44141-1.70898-4.15039-4.15039-4.15039h-14.4043v-14.3555c0-2.49023-1.70898-4.19922-4.15039-4.19922-2.39258 0-4.05273 1.70898-4.05273 4.19922v14.3555h-14.3555c-2.49023 0-4.15039 1.70898-4.15039 4.15039Z"/>
  </g>
  <g transform="matrix(0.2 0 0 0.2 304.924 1933)">
   <path d="m74.8535 28.3203c35.1074 0 63.623-28.4668 63.623-63.5742s-28.5156-63.623-63.623-63.623-63.5742 28.5156-63.5742 63.623 28.4668 63.5742 63.5742 63.5742Zm0-9.08203c-30.127 0-54.4922-24.3652-54.4922-54.4922s24.3652-54.4922 54.4922-54.4922 54.4922 24.3652 54.4922 54.4922-24.3652 54.4922-54.4922 54.4922Zm-28.8574-54.4922c0 2.58789 1.85547 4.39453 4.58984 4.39453h19.7266v19.7754c0 2.68555 1.85547 4.58984 4.44336 4.58984 2.68555 0 4.54102-1.85547 4.54102-4.58984v-19.7754h19.7754c2.68555 0 4.58984-1.80664 4.58984-4.39453 0-2.73438-1.85547-4.58984-4.58984-4.58984h-19.7754v-19.7266c0-2.73438-1.85547-4.63867-4.54102-4.63867-2.58789 0-4.44336 1.9043-4.44336 4.63867v19.7266h-19.7266c-2.73438 0-4.58984 1.85547-4.58984 4.58984Z"/>
  </g>
  <text style="stroke:none;fill:black;font-family:sans-serif;font-size:13;font-weight:bold;" transform="matrix(1 0 0 1 263 1953)">Design Variations</text>
  <text style="stroke:none;fill:black;font-family:sans-serif;font-size:13;" transform="matrix(1 0 0 1 263 1971)">Symbols are supported in up to nine weights and three scales.</text>
  <text style="stroke:none;fill:black;font-family:sans-serif;font-size:13;" transform="matrix(1 0 0 1 263 1989)">For optimal layout with text and other symbols, vertically align</text>
  <text style="stroke:none;fill:black;font-family:sans-serif;font-size:13;" transform="matrix(1 0 0 1 263 2007)">symbols with the adjacent text.</text>
  <line style="fill:none;stroke:#00AEEF;stroke-width:0.5;opacity:1.0;" x1="776" x2="776" y1="1919" y2="1933"/>
  <g transform="matrix(0.2 0 0 0.2 776 1933)">
   <path d="m16.5527 0.78125c2.58789 0 3.85742-0.976562 4.78516-3.71094l6.29883-17.2363h28.8086l6.29883 17.2363c0.927734 2.73438 2.19727 3.71094 4.73633 3.71094 2.58789 0 4.24805-1.5625 4.24805-4.00391 0-0.830078-0.146484-1.61133-0.537109-2.63672l-22.9004-60.9863c-1.12305-2.97852-3.125-4.49219-6.25-4.49219-3.02734 0-5.07812 1.46484-6.15234 4.44336l-22.9004 61.084c-0.390625 1.02539-0.537109 1.80664-0.537109 2.63672 0 2.44141 1.5625 3.95508 4.10156 3.95508Zm13.4766-28.3691 11.8652-32.8613h0.244141l11.8652 32.8613Z"/>
  </g>
  <line style="fill:none;stroke:#00AEEF;stroke-width:0.5;opacity:1.0;" x1="792.836" x2="792.836" y1="1919" y2="1933"/>
  <text style="stroke:none;fill:black;font-family:sans-serif;font-size:13;font-weight:bold;" transform="matrix(1 0 0 1 776 1953)">Margins</text>
  <text style="stroke:none;fill:black;font-family:sans-serif;font-size:13;" transform="matrix(1 0 0 1 776 1971)">Leading and trailing margins on the left and right side of each symbol</text>
  <text style="stroke:none;fill:black;font-family:sans-serif;font-size:13;" transform="matrix(1 0 0 1 776 1989)">can be adjusted by modifying the x-location of the margin guidelines.</text>
  <text style="stroke:none;fill:black;font-family:sans-serif;font-size:13;" transform="matrix(1 0 0 1 776 2007)">Modifications are automatically applied proportionally to all</text>
  <text style="stroke:none;fill:black;font-family:sans-serif;font-size:13;" transform="matrix(1 0 0 1 776 2025)">scales and weights.</text>
  <g transform="matrix(0.2 0 0 0.2 1289 1933)">
   <path d="m14.209 9.32617 8.49609 8.54492c4.29688 4.3457 9.22852 4.05273 13.8672-1.07422l53.4668-58.9355-4.83398-4.88281-53.0762 58.3984c-1.75781 2.00195-3.41797 2.49023-5.76172 0.146484l-5.85938-5.81055c-2.34375-2.29492-1.80664-4.00391 0.195312-5.81055l57.373-54.0039-4.88281-4.83398-57.959 54.4434c-4.93164 4.58984-5.32227 9.47266-1.02539 13.8184Zm32.0801-90.9668c-2.09961 2.05078-2.24609 4.93164-1.07422 6.88477 1.17188 1.80664 3.4668 2.97852 6.68945 2.14844 7.32422-1.70898 14.9414-2.00195 22.0703 2.68555l-2.92969 7.27539c-1.70898 4.15039-0.830078 7.08008 1.85547 9.81445l11.4746 11.5723c2.44141 2.44141 4.49219 2.53906 7.32422 2.05078l5.32227-0.976562 3.32031 3.36914-0.195312 2.7832c-0.195312 2.49023 0.439453 4.39453 2.88086 6.78711l3.80859 3.71094c2.39258 2.39258 5.46875 2.53906 7.8125 0.195312l14.5508-14.5996c2.34375-2.34375 2.24609-5.32227-0.146484-7.71484l-3.85742-3.80859c-2.39258-2.39258-4.24805-3.17383-6.64062-2.97852l-2.88086 0.244141-3.22266-3.17383 1.2207-5.61523c0.634766-2.83203-0.146484-5.0293-3.07617-7.95898l-10.9863-10.9375c-16.6992-16.6016-38.8672-16.2109-53.3203-1.75781Zm7.4707 1.85547c12.1582-8.88672 28.6133-7.37305 39.7461 3.75977l12.1582 12.0605c1.17188 1.17188 1.36719 2.09961 1.02539 3.80859l-1.61133 7.42188 7.51953 7.42188 4.93164-0.292969c1.26953-0.0488281 1.66016 0.0488281 2.63672 1.02539l2.88086 2.88086-12.207 12.207-2.88086-2.88086c-0.976562-0.976562-1.12305-1.36719-1.07422-2.68555l0.341797-4.88281-7.4707-7.42188-7.61719 1.26953c-1.61133 0.341797-2.34375 0.195312-3.56445-0.976562l-10.0098-10.0098c-1.26953-1.17188-1.41602-2.00195-0.634766-3.85742l4.39453-10.4492c-7.8125-7.27539-17.9688-10.4004-28.125-7.42188-0.78125 0.195312-1.07422-0.439453-0.439453-0.976562Z"/>
  </g>
  <text style="stroke:none;fill:black;font-family:sans-serif;font-size:13;font-weight:bold;" transform="matrix(1 0 0 1 1289 1953)">Exporting</text>
  <text style="stroke:none;fill:black;font-family:sans-serif;font-size:13;" transform="matrix(1 0 0 1 1289 1971)">Symbols should be outlined when exporting to ensure the</text>
  <text style="stroke:none;fill:black;font-family:sans-serif;font-size:13;" transform="matrix(1 0 0 1 1289 1989)">design is preserved when submitting to Xcode.</text>
  <text id="template-version" style="stroke:none;fill:black;font-family:sans-serif;font-size:13;text-anchor:end;" transform="matrix(1 0 0 1 3036 1933)">Template v.6.0</text>
  <text style="stroke:none;fill:black;font-family:sans-serif;font-size:13;text-anchor:end;" transform="matrix(1 0 0 1 3036 1951)">Requires Xcode 16 or greater</text>
  <text id="descriptive-name" style="stroke:none;fill:black;font-family:sans-serif;font-size:13;text-anchor:end;" transform="matrix(1 0 0 1 3036 1969)">Generated from filtervogelgruppe-12</text>
  <text style="stroke:none;fill:black;font-family:sans-serif;font-size:13;text-anchor:end;" transform="matrix(1 0 0 1 3036 1987)">Typeset at 100.0 points</text>
  <text style="stroke:none;fill:black;font-family:sans-serif;font-size:13;" transform="matrix(1 0 0 1 263 726)">Small</text>
  <text style="stroke:none;fill:black;font-family:sans-serif;font-size:13;" transform="matrix(1 0 0 1 263 1156)">Medium</text>
  <text style="stroke:none;fill:black;font-family:sans-serif;font-size:13;" transform="matrix(1 0 0 1 263 1586)">Large</text>
 </g>
 <g id="Guides">
  <g id="H-reference" style="fill:#27AAE1;stroke:none;" transform="matrix(1 0 0 1 339 696)">
   <path d="M0.993654 0L3.63775 0L29.3281-67.1323L30.0303-67.1323L30.0303-70.459L28.1226-70.459ZM11.6885-24.4799L46.9815-24.4799L46.2315-26.7285L12.4385-26.7285ZM55.1196 0L57.7637 0L30.6382-70.459L29.4326-70.459L29.4326-67.1323Z"/>
  </g>
  <line id="Baseline-S" style="fill:none;stroke:#27AAE1;opacity:1;stroke-width:0.5;" x1="263" x2="3036" y1="696" y2="696"/>
  <line id="Capline-S" style="fill:none;stroke:#27AAE1;opacity:1;stroke-width:0.5;" x1="263" x2="3036" y1="625.541" y2="625.541"/>
  <g id="H-reference" style="fill:#27AAE1;stroke:none;" transform="matrix(1 0 0 1 339 1126)">
   <path d="M0.993654 0L3.63775 0L29.3281-67.1323L30.0303-67.1323L30.0303-70.459L28.1226-70.459ZM11.6885-24.4799L46.9815-24.4799L46.2315-26.7285L12.4385-26.7285ZM55.1196 0L57.7637 0L30.6382-70.459L29.4326-70.459L29.4326-67.1323Z"/>
  </g>
  <line id="Baseline-M" style="fill:none;stroke:#27AAE1;opacity:1;stroke-width:0.5;" x1="263" x2="3036" y1="1126" y2="1126"/>
  <line id="Capline-M" style="fill:none;stroke:#27AAE1;opacity:1;stroke-width:0.5;" x1="263" x2="3036" y1="1055.54" y2="1055.54"/>
  <g id="H-reference" style="fill:#27AAE1;stroke:none;" transform="matrix(1 0 0 1 339 1556)">
   <path d="M0.993654 0L3.63775 0L29.3281-67.1323L30.0303-67.1323L30.0303-70.459L28.1226-70.459ZM11.6885-24.4799L46.9815-24.4799L46.2315-26.7285L12.4385-26.7285ZM55.1196 0L57.7637 0L30.6382-70.459L29.4326-70.459L29.4326-67.1323Z"/>
  </g>
  <line id="Baseline-L" style="fill:none;stroke:#27AAE1;opacity:1;stroke-width:0.5;" x1="263" x2="3036" y1="1556" y2="1556"/>
  <line id="Capline-L" style="fill:none;stroke:#27AAE1;opacity:1;stroke-width:0.5;" x1="263" x2="3036" y1="1485.54" y2="1485.54"/>
  <line id="right-margin-Black-S" style="fill:none;stroke:#00AEEF;stroke-width:0.5;opacity:1.0;" x1="2982.23" x2="2982.23" y1="600.785" y2="720.121"/>
  <line id="left-margin-Black-S" style="fill:none;stroke:#00AEEF;stroke-width:0.5;opacity:1.0;" x1="2884.57" x2="2884.57" y1="600.785" y2="720.121"/>
  <line id="right-margin-Regular-S" style="fill:none;stroke:#00AEEF;stroke-width:0.5;opacity:1.0;" x1="1496.11" x2="1496.11" y1="600.785" y2="720.121"/>
  <line id="left-margin-Regular-S" style="fill:none;stroke:#00AEEF;stroke-width:0.5;opacity:1.0;" x1="1403.58" x2="1403.58" y1="600.785" y2="720.121"/>
  <line id="right-margin-Ultralight-S" style="fill:none;stroke:#00AEEF;stroke-width:0.5;opacity:1.0;" x1="603.773" x2="603.773" y1="600.785" y2="720.121"/>
  <line id="left-margin-Ultralight-S" style="fill:none;stroke:#00AEEF;stroke-width:0.5;opacity:1.0;" x1="515.649" x2="515.649" y1="600.785" y2="720.121"/>
 </g>
 <g id="Symbols">
  <g id="Black-S" transform="matrix(1 0 0 1 2884.57 696)">
   <path class="monochrome-0 multicolor-0:tintColor hierarchical-0:primary SFSymbolsPreviewWireframe" d="M31.1962-20.2645C30.7715-19.8399 30.3469-19.8399 29.9223-20.2645C29.4977-20.6892 29.4977-21.1138 29.9223-21.5384L30.7715-22.3876C31.1962-22.8122 31.1962-23.2369 31.6208-23.6615L32.47-24.5107L32.8946-24.9353C33.3192-25.3599 33.3192-25.7845 33.7438-26.2092L34.1685-26.6338C34.5931-27.0584 35.0177-27.9076 35.4423-28.3322C35.8669-28.7569 35.8669-28.7569 35.4423-28.7569C35.0177-28.7569 35.0177-29.1815 35.4423-29.6061L35.4423-30.0307C35.4423-30.0307 35.4423-30.4553 35.8669-30.4553C36.2915-30.8799 36.7162-31.3045 36.7162-32.1538C37.1408-32.5784 37.5654-33.4276 37.99-33.8522C38.4146-34.2769 38.4146-34.7015 38.4146-35.1261C38.8394-35.5507 38.8394-35.9753 39.264-36.3999C39.264-36.3999 39.264-36.8245 39.6886-37.2492C40.5379-36.8245 40.9625-37.2492 41.3871-38.0984C41.3871-38.523 41.8117-38.523 41.8117-38.9476C42.2363-39.3722 42.6609-40.2215 43.0856-40.6461C43.5102-41.0707 43.9348-41.9199 43.9348-42.3445C43.9348-42.7692 44.3594-42.7692 44.3594-43.1938C44.784-44.043 45.2086-44.4677 45.6333-45.3169C46.0579-45.7415 46.0579-46.1662 46.4825-46.5908C46.9071-47.0154 47.3317-47.44 47.7563-48.2892C48.1809-48.7138 48.6056-49.5631 49.0302-49.9877L49.0302-50.4123L50.304-51.6862C50.304-52.1108 50.7286-52.1108 50.7286-52.1108C51.1533-52.5354 51.5779-53.3846 52.4271-53.8092L52.8517-54.2338C53.2763-54.6585 53.2763-55.0831 53.7009-55.5077C54.1256-56.3569 54.1256-57.2062 54.5502-58.0554C54.5502-58.48 54.9748-58.9046 54.9748-59.3292C54.9748-59.7538 55.3994-59.7538 55.824-60.1785L56.2486-60.6031L57.5225-61.8769C57.9471-62.3015 58.3717-62.7262 58.7963-62.7262C59.2209-62.7262 59.6456-63.1508 60.0702-63.1508C60.4948-63.1508 60.9194-63.5754 61.344-63.5754C61.7686-63.5754 62.6179-64 63.0425-64L63.8917-64C64.3163-64 64.7409-63.5754 65.1656-63.5754L66.0148-63.5754C66.4394-63.5754 66.864-63.1508 66.864-63.1508L67.2886-63.1508C67.7133-63.1508 68.1379-62.7262 68.1379-62.7262C68.1379-62.3015 68.5625-62.3015 68.9871-61.8769C68.9871-61.8769 69.4117-61.8769 69.4117-61.4523C70.2609-60.6031 70.2609-60.1785 70.6856-60.1785L70.6856-59.7538L71.1102-59.3292C71.5348-58.9046 71.5344-58.9046 71.9591-58.9046C72.3837-58.9046 72.8086-58.48 73.2333-58.48C73.6579-58.48 74.5071-58.0554 74.9317-58.0554C75.3563-58.0554 75.356-57.6308 75.7806-57.6308L75.3563-57.6308C74.9317-57.6308 74.9317-57.6308 74.5071-57.2062L74.0821-57.2062C73.6575-57.2062 73.6579-56.7815 73.2333-56.7815C72.8086-56.7815 72.384-56.3569 72.384-56.3569C71.9594-56.3569 71.9591-55.9323 71.5344-55.9323L71.1102-55.9323C70.6856-55.9323 70.6856-55.5077 70.6856-55.5077L70.6856-54.2338C71.1102-53.3846 71.1102-52.96 71.1102-52.1108L71.1102-51.6862C71.1102-51.2615 71.5344-50.4123 71.5344-49.9877C71.5344-49.5631 71.9591-48.7138 71.9591-48.2892C71.9591-47.8646 72.384-47.44 72.384-46.5908L72.384-43.1938C72.384-42.7692 72.3837-42.3445 71.9591-41.9199C71.9591-41.0707 71.5348-40.2215 71.1102-38.9476C71.1102-38.9476 71.1102-38.523 70.6856-38.523C70.6856-38.0984 70.2609-37.6738 70.2609-37.2492C70.6856-35.1261 70.2609-34.7015 70.2609-33.8522C69.8363-33.4276 69.4117-32.5784 68.9871-32.1538C68.5625-31.7292 68.1375-30.8799 67.7129-30.4553L66.4394-29.1815C66.0148-28.7569 65.5898-28.7569 65.5898-28.3322L64.7409-27.483L64.3163-27.483C63.8917-27.0584 63.4671-27.0584 63.0425-26.6338C62.6179-26.6338 62.6179-26.2092 62.1933-26.2092C61.7686-25.7845 61.344-25.7845 60.4948-25.3599C60.0702-24.9353 59.2209-24.9353 58.7963-24.5107C58.7963-24.5107 58.3717-24.5107 58.3717-24.0861L57.9471-24.0861L57.5225-24.0861L57.5225-23.6615C57.9471-23.2369 58.3717-22.8122 58.7963-22.8122C59.2209-22.3876 59.2209-22.3876 59.6456-22.3876C60.0702-22.3876 60.4948-21.963 60.9194-21.5384C61.344-21.5384 61.344-21.1138 61.7686-21.1138C62.1933-20.6892 62.6179-20.6892 63.0425-20.6892L64.3163-20.6892C64.7409-20.6892 65.1652-20.2645 65.5898-19.8399C66.0144-19.4153 66.0148-18.9907 66.4394-18.5661C66.4394-18.5661 66.4394-18.1415 66.864-18.1415L66.864-17.2922C66.864-16.8676 66.864-16.8676 66.4394-16.443C66.4394-16.0184 66.0144-16.0184 65.5898-15.5938C65.5898-15.5938 65.1656-15.5938 64.7409-15.1692L64.7409-14.3199C64.7409-13.8953 64.3163-13.4707 63.8917-13.0461L63.4671-12.6215L62.6179-12.6215L61.344-12.6215C60.9194-12.6215 60.4948-13.0461 60.4948-13.0461C60.4948-13.0461 60.4948-13.4707 60.0702-13.4707L60.4948-13.4707L60.9194-13.0461L61.7686-13.0461C61.7686-13.0461 62.1933-13.4707 62.1933-13.8953L61.7686-13.8953C61.344-13.8953 60.9194-13.8953 60.4948-14.3199L60.0702-14.7445C60.0702-15.1692 59.6456-15.1692 59.6456-15.5938L59.6456-16.0184C59.6456-16.443 59.6456-16.8676 60.0702-17.2922C60.0702-17.7169 60.4948-17.7169 60.4948-18.1415C60.9194-18.5661 60.4948-18.9907 60.4948-18.9907C60.0702-19.4153 59.6456-19.4153 59.6456-19.8399L58.3717-21.1138C57.9471-21.5384 57.5225-21.5384 57.0979-21.963L56.2486-22.8122C55.824-23.2369 55.3994-22.8122 54.9748-22.8122L53.2763-22.8122C53.2763-22.3876 53.2763-21.5384 53.7009-21.1138C53.7009-20.2645 54.1256-19.8399 54.5502-18.9907C54.5502-18.5661 54.9748-18.5661 54.9748-18.1415C54.9748-17.7169 55.3994-17.7169 55.3994-17.2922L55.3994-16.8676L56.6733-15.5938C57.0979-15.1692 57.0979-15.1692 57.0979-14.7445C57.0979-14.3199 57.5225-14.3199 57.9471-13.8953C58.3717-13.4707 58.3717-13.0461 58.7963-12.6215C58.7963-12.1969 58.7963-11.7722 58.3717-11.7722C57.9471-11.3476 57.5225-10.4984 57.0979-10.0738L56.6733-9.64916L56.2486-9.64916L56.2486-10.0738C56.2486-10.0738 56.2486-10.4984 56.6733-10.4984C56.6733-10.4984 56.6733-10.923 57.0979-10.923C57.5225-11.3476 57.5225-11.7722 57.5225-12.1969L57.5225-13.4707L56.2486-14.7445L56.2486-14.3199C56.2486-13.8953 56.6733-13.0461 56.2486-12.6215C56.2486-12.1969 56.2486-11.7722 55.824-11.3476C55.824-10.923 55.3994-10.923 55.3994-10.4984L55.3994-10.0738L54.9748-10.0738C54.9748-10.0738 54.5502-10.0738 54.5502-10.4984C54.5502-10.0738 54.1256-10.0738 53.7009-10.4984C53.7009-10.4984 53.2763-10.923 53.2763-10.4984C52.8517-10.4984 52.4271-10.923 52.4271-10.923C52.0025-11.7722 52.0025-12.1969 51.5779-13.0461C51.5779-13.4707 52.0025-13.8953 52.0025-14.3199C52.4271-15.1692 52.4271-15.5938 52.8517-16.443L52.8517-16.8676C52.8517-17.2922 52.4271-17.2922 52.4271-17.7169L52.4271-18.1415C52.4271-18.5661 52.4271-18.5661 52.0025-18.9907C52.0025-19.4153 51.5779-19.8399 51.5779-19.8399C51.5779-20.2645 51.1533-21.1138 51.1533-21.5384C51.1533-21.963 50.7286-22.3876 50.304-22.3876L46.4825-22.3876C46.0579-22.3876 45.6333-22.3876 45.2086-22.8122L43.9348-22.8122C43.5102-22.8122 43.0856-22.8122 43.0856-22.3876L42.6609-22.3876L42.2363-22.3876C41.8117-22.3876 41.3871-21.963 41.3871-21.5384L40.9625-21.5384C40.5379-21.5384 40.1133-21.1138 39.6886-21.1138C40.1133-21.1138 39.6886-21.1138 39.264-20.6892C39.264-20.6892 38.8394-20.6892 38.8394-20.2645C38.4146-20.2645 38.4146-19.8399 37.99-19.8399C37.5654-19.4153 37.1408-19.4153 36.7162-18.9907C36.2915-18.9907 35.8669-18.5661 35.8669-18.1415C35.4423-18.1415 35.4423-17.7169 35.4423-17.7169L34.1685-16.443C33.7438-16.443 33.7438-16.0184 33.3192-16.0184L32.47-15.1692L32.0454-14.7445C31.6208-14.7445 31.6208-14.3199 31.1962-14.3199L30.3469-13.4707C29.9223-13.0461 29.4977-12.6215 29.0731-11.7722C28.6485-11.3476 28.6485-11.3476 28.6485-10.923L27.7992-10.0738L26.5254-8.79993C26.1008-8.37531 26.1008-7.9507 25.6762-7.52608C25.6762-7.10147 25.2515-7.10147 24.8269-6.67685L23.9777-6.67685C23.9777-6.67685 23.5531-6.67685 23.5531-7.10147L23.5531-7.9507L23.5531-8.37531L23.1285-8.37531C22.7038-8.37531 22.7038-8.37531 22.2792-7.9507L21.8546-7.9507L21.43-8.37531L21.43-8.79993C21.43-9.22454 21.8546-9.22454 21.8546-9.22454C23.1285-9.64916 23.5531-10.0738 23.5531-10.4984L24.4023-11.3476C24.4023-11.3476 24.4023-11.7722 24.8269-11.7722L26.1008-13.0461C26.5254-13.4707 26.95-13.8953 27.3746-14.7445C27.7992-15.5938 28.2238-16.0184 28.6485-16.8676L29.0731-17.2922C29.4977-17.7169 29.9223-18.1415 30.3469-18.9907C30.7715-19.4153 31.1962-19.8399 31.1962-20.2645L31.1962-20.2645ZM54.9748-16.0184L54.5502-15.5938C54.5502-15.1692 54.1256-15.1692 54.1256-14.7445L54.1256-12.1969C54.1256-11.7722 54.1256-11.7722 54.5502-11.3476C54.5502-11.7722 54.1256-12.1969 54.5502-12.6215L54.5502-12.1969C54.5502-11.7722 54.5502-11.7722 54.9748-11.3476L55.3994-11.3476C55.824-12.1969 55.824-12.6215 55.3994-13.4707L55.3994-13.8953C55.3994-15.1692 55.3994-15.5938 54.9748-16.0184L54.9748-16.0184ZM65.5898-17.7169C65.1652-18.5661 64.7409-18.9907 64.3163-19.4153L63.0425-19.4153C63.0425-19.4153 62.6179-19.4153 63.0425-18.9907C63.4671-18.5661 63.4671-18.1415 63.8917-17.7169C64.3163-17.2922 64.3163-16.8676 64.7409-16.443C64.7409-16.443 65.1656-16.0184 65.1656-16.443L65.5898-16.8676L65.5898-17.7169L65.5898-17.7169ZM61.344-18.1415C61.344-17.7169 60.9194-17.7169 60.9194-17.2922L60.9194-16.0184C60.9194-16.0184 60.9194-15.5938 61.344-15.5938L61.7686-15.5938C61.7686-15.1692 62.1933-15.1692 62.1933-15.1692C62.1933-15.5938 61.7686-16.0184 61.7686-16.443L61.7686-16.8676C61.7686-17.7169 61.344-17.7169 61.344-18.1415ZM62.1933-18.5661C62.1933-18.1415 62.6179-17.7169 62.6179-17.2922C62.6179-16.8676 63.0425-16.443 63.0425-16.0184C63.0425-15.5938 63.4671-16.0184 63.4671-16.0184L63.4671-16.443C63.4671-16.8676 63.0425-16.8676 63.0425-17.2922C63.0425-18.1415 62.6179-18.5661 62.1933-18.5661L62.1933-18.5661ZM63.0425-13.8953C63.0425-13.8953 63.4671-13.8953 63.4671-14.3199C63.8917-14.7445 63.8917-15.1692 64.3163-15.5938L64.3163-16.0184L63.4671-16.0184C63.4671-15.1692 63.4671-14.3199 63.0425-13.8953ZM53.2763-13.0461C53.2763-13.4707 53.2763-13.8953 53.7009-14.3199C53.2763-13.8953 52.8517-13.4707 53.2763-13.0461Z"/>
   <path class="monochrome-1 multicolor-1:tintColor hierarchical-1:tertiary SFSymbolsPreviewWireframe" d="M48.9411-84C55.3091-84.0013 61.615-82.7479 67.4985-80.3116C73.382-77.8752 78.7279-74.3036 83.2305-69.8009C87.7334-65.2983 91.305-59.9524 93.7418-54.0682C96.1779-48.1846 97.4312-41.8789 97.43-35.5124C97.43-8.72255 75.7254 13 48.9424 13C22.156 13 0.43-8.726 0.43-35.5124C0.43-62.2926 22.1539-84 48.9411-84ZM48.9424-70C29.8835-70 14.43-54.5582 14.43-35.5124C14.43-16.458 29.888-0.999999 48.9424-0.999999C67.9909-0.999999 83.43-16.4519 83.43-35.5138C83.4309-40.0428 82.5395-44.5276 80.8069-48.7121C79.0739-52.8969 76.5337-56.6989 73.3311-59.9013C70.1287-63.1038 66.3266-65.644 62.1422-67.3767C57.9578-69.1095 53.4729-70.0009 48.9424-70Z"/>
  </g>
  <g id="Regular-S" transform="matrix(1 0 0 1 1403.58 696)">
   <path class="monochrome-0 multicolor-0:tintColor hierarchical-0:primary SFSymbolsPreviewWireframe" d="M29.1862-21.2645C28.7616-20.8399 28.337-20.8399 27.9123-21.2645C27.4877-21.6891 27.4877-22.1137 27.9123-22.5383L28.7616-23.3876C29.1862-23.8122 29.1862-24.2368 29.6108-24.6614L30.46-25.5107L30.8847-25.9353C31.3093-26.3599 31.3093-26.7845 31.7339-27.2091L32.1585-27.6337C32.5831-28.0583 33.0077-28.9076 33.4323-29.3322C33.857-29.7568 33.857-29.7568 33.4323-29.7568C33.0077-29.7568 33.0077-30.1814 33.4323-30.606L33.4323-31.0307C33.4323-31.0307 33.4323-31.4553 33.857-31.4553C34.2816-31.8799 34.7062-32.3045 34.7062-33.1537C35.1308-33.5783 35.5554-34.4276 35.98-34.8522C36.4047-35.2768 36.4047-35.7014 36.4047-36.126C36.8294-36.5507 36.8294-36.9753 37.2541-37.3999C37.2541-37.3999 37.2541-37.8245 37.6787-38.2491C38.5279-37.8245 38.9525-38.2491 39.3771-39.0983C39.3771-39.523 39.8018-39.523 39.8018-39.9476C40.2264-40.3722 40.651-41.2214 41.0756-41.646C41.5002-42.0707 41.9248-42.9199 41.9248-43.3445C41.9248-43.7691 42.3494-43.7691 42.3494-44.1937C42.7741-45.043 43.1987-45.4677 43.6233-46.3169C44.0479-46.7415 44.0479-47.1661 44.4725-47.5907C44.8971-48.0153 45.3218-48.44 45.7464-49.2892C46.171-49.7138 46.5956-50.563 47.0202-50.9877L47.0202-51.4123L48.2941-52.6861C48.2941-53.1107 48.7187-53.1107 48.7187-53.1107C49.1433-53.5353 49.5679-54.3846 50.4171-54.8092L50.8418-55.2338C51.2664-55.6584 51.2664-56.083 51.691-56.5077C52.1156-57.3569 52.1156-58.2061 52.5402-59.0553C52.5402-59.48 52.9648-59.9046 52.9648-60.3292C52.9648-60.7538 53.3894-60.7538 53.8141-61.1784L54.2387-61.603L55.5125-62.8769C55.9371-63.3015 56.3618-63.7261 56.7864-63.7261C57.211-63.7261 57.6356-64.1507 58.0602-64.1507C58.4848-64.1507 58.9094-64.5753 59.3341-64.5753C59.7587-64.5753 60.6079-65 61.0325-65L61.8818-65C62.3064-65 62.731-64.5753 63.1556-64.5753L64.0048-64.5753C64.4294-64.5753 64.8541-64.1507 64.8541-64.1507L65.2787-64.1507C65.7033-64.1507 66.1279-63.7261 66.1279-63.7261C66.1279-63.3015 66.5525-63.3015 66.9771-62.8769C66.9771-62.8769 67.4018-62.8769 67.4018-62.4523C68.251-61.603 68.251-61.1784 68.6756-61.1784L68.6756-60.7538L69.1002-60.3292C69.5248-59.9046 69.5245-59.9046 69.9491-59.9046C70.3737-59.9046 70.7987-59.48 71.2233-59.48C71.6479-59.48 72.4971-59.0553 72.9218-59.0553C73.3464-59.0553 73.346-58.6307 73.7706-58.6307L73.3464-58.6307C72.9218-58.6307 72.9218-58.6307 72.4971-58.2061L72.0722-58.2061C71.6476-58.2061 71.6479-57.7815 71.2233-57.7815C70.7987-57.7815 70.3741-57.3569 70.3741-57.3569C69.9494-57.3569 69.9491-56.9323 69.5245-56.9323L69.1002-56.9323C68.6756-56.9323 68.6756-56.5077 68.6756-56.5077L68.6756-55.2338C69.1002-54.3846 69.1002-53.96 69.1002-53.1107L69.1002-52.6861C69.1002-52.2615 69.5245-51.4123 69.5245-50.9877C69.5245-50.563 69.9491-49.7138 69.9491-49.2892C69.9491-48.8646 70.3741-48.44 70.3741-47.5907L70.3741-44.1937C70.3741-43.7691 70.3737-43.3445 69.9491-42.9199C69.9491-42.0707 69.5248-41.2214 69.1002-39.9476C69.1002-39.9476 69.1002-39.523 68.6756-39.523C68.6756-39.0983 68.251-38.6737 68.251-38.2491C68.6756-36.126 68.251-35.7014 68.251-34.8522C67.8264-34.4276 67.4018-33.5783 66.9771-33.1537C66.5525-32.7291 66.1276-31.8799 65.7029-31.4553L64.4294-30.1814C64.0048-29.7568 63.5799-29.7568 63.5799-29.3322L62.731-28.483L62.3064-28.483C61.8818-28.0583 61.4571-28.0583 61.0325-27.6337C60.6079-27.6337 60.6079-27.2091 60.1833-27.2091C59.7587-26.7845 59.3341-26.7845 58.4848-26.3599C58.0602-25.9353 57.211-25.9353 56.7864-25.5107C56.7864-25.5107 56.3618-25.5107 56.3618-25.086L55.9371-25.086L55.5125-25.086L55.5125-24.6614C55.9371-24.2368 56.3618-23.8122 56.7864-23.8122C57.211-23.3876 57.211-23.3876 57.6356-23.3876C58.0602-23.3876 58.4848-22.963 58.9094-22.5383C59.3341-22.5383 59.3341-22.1137 59.7587-22.1137C60.1833-21.6891 60.6079-21.6891 61.0325-21.6891L62.3064-21.6891C62.731-21.6891 63.1552-21.2645 63.5799-20.8399C64.0045-20.4153 64.0048-19.9907 64.4294-19.566C64.4294-19.566 64.4294-19.1414 64.8541-19.1414L64.8541-18.2922C64.8541-17.8676 64.8541-17.8676 64.4294-17.443C64.4294-17.0183 64.0045-17.0183 63.5799-16.5937C63.5799-16.5937 63.1556-16.5937 62.731-16.1691L62.731-15.3199C62.731-14.8953 62.3064-14.4707 61.8818-14.046L61.4571-13.6214L60.6079-13.6214L59.3341-13.6214C58.9094-13.6214 58.4848-14.046 58.4848-14.046C58.4848-14.046 58.4848-14.4707 58.0602-14.4707L58.4848-14.4707L58.9094-14.046L59.7587-14.046C59.7587-14.046 60.1833-14.4707 60.1833-14.8953L59.7587-14.8953C59.3341-14.8953 58.9094-14.8953 58.4848-15.3199L58.0602-15.7445C58.0602-16.1691 57.6356-16.1691 57.6356-16.5937L57.6356-17.0183C57.6356-17.443 57.6356-17.8676 58.0602-18.2922C58.0602-18.7168 58.4848-18.7168 58.4848-19.1414C58.9094-19.566 58.4848-19.9907 58.4848-19.9907C58.0602-20.4153 57.6356-20.4153 57.6356-20.8399L56.3618-22.1137C55.9371-22.5383 55.5125-22.5383 55.0879-22.963L54.2387-23.8122C53.8141-24.2368 53.3894-23.8122 52.9648-23.8122L51.2664-23.8122C51.2664-23.3876 51.2664-22.5383 51.691-22.1137C51.691-21.2645 52.1156-20.8399 52.5402-19.9907C52.5402-19.566 52.9648-19.566 52.9648-19.1414C52.9648-18.7168 53.3894-18.7168 53.3894-18.2922L53.3894-17.8676L54.6633-16.5937C55.0879-16.1691 55.0879-16.1691 55.0879-15.7445C55.0879-15.3199 55.5125-15.3199 55.9371-14.8953C56.3618-14.4707 56.3618-14.046 56.7864-13.6214C56.7864-13.1968 56.7864-12.7722 56.3618-12.7722C55.9371-12.3476 55.5125-11.4983 55.0879-11.0737L54.6633-10.6491L54.2387-10.6491L54.2387-11.0737C54.2387-11.0737 54.2387-11.4983 54.6633-11.4983C54.6633-11.4983 54.6633-11.923 55.0879-11.923C55.5125-12.3476 55.5125-12.7722 55.5125-13.1968L55.5125-14.4707L54.2387-15.7445L54.2387-15.3199C54.2387-14.8953 54.6633-14.046 54.2387-13.6214C54.2387-13.1968 54.2387-12.7722 53.8141-12.3476C53.8141-11.923 53.3894-11.923 53.3894-11.4983L53.3894-11.0737L52.9648-11.0737C52.9648-11.0737 52.5402-11.0737 52.5402-11.4983C52.5402-11.0737 52.1156-11.0737 51.691-11.4983C51.691-11.4983 51.2664-11.923 51.2664-11.4983C50.8418-11.4983 50.4171-11.923 50.4171-11.923C49.9925-12.7722 49.9925-13.1968 49.5679-14.046C49.5679-14.4707 49.9925-14.8953 49.9925-15.3199C50.4171-16.1691 50.4171-16.5937 50.8418-17.443L50.8418-17.8676C50.8418-18.2922 50.4171-18.2922 50.4171-18.7168L50.4171-19.1414C50.4171-19.566 50.4171-19.566 49.9925-19.9907C49.9925-20.4153 49.5679-20.8399 49.5679-20.8399C49.5679-21.2645 49.1433-22.1137 49.1433-22.5383C49.1433-22.963 48.7187-23.3876 48.2941-23.3876L44.4725-23.3876C44.0479-23.3876 43.6233-23.3876 43.1987-23.8122L41.9248-23.8122C41.5002-23.8122 41.0756-23.8122 41.0756-23.3876L40.651-23.3876L40.2264-23.3876C39.8018-23.3876 39.3771-22.963 39.3771-22.5383L38.9525-22.5383C38.5279-22.5383 38.1033-22.1137 37.6787-22.1137C38.1033-22.1137 37.6787-22.1137 37.2541-21.6891C37.2541-21.6891 36.8294-21.6891 36.8294-21.2645C36.4047-21.2645 36.4047-20.8399 35.98-20.8399C35.5554-20.4153 35.1308-20.4153 34.7062-19.9907C34.2816-19.9907 33.857-19.566 33.857-19.1414C33.4323-19.1414 33.4323-18.7168 33.4323-18.7168L32.1585-17.443C31.7339-17.443 31.7339-17.0183 31.3093-17.0183L30.46-16.1691L30.0354-15.7445C29.6108-15.7445 29.6108-15.3199 29.1862-15.3199L28.337-14.4707C27.9123-14.046 27.4877-13.6214 27.0631-12.7722C26.6385-12.3476 26.6385-12.3476 26.6385-11.923L25.7893-11.0737L24.5154-9.79989C24.0908-9.37527 24.0908-8.95066 23.6662-8.52604C23.6662-8.10143 23.2416-8.10143 22.817-7.67681L21.9677-7.67681C21.9677-7.67681 21.5431-7.67681 21.5431-8.10143L21.5431-8.95066L21.5431-9.37527L21.1185-9.37527C20.6939-9.37527 20.6939-9.37527 20.2693-8.95066L19.8447-8.95066L19.42-9.37527L19.42-9.79989C19.42-10.2245 19.8447-10.2245 19.8447-10.2245C21.1185-10.6491 21.5431-11.0737 21.5431-11.4983L22.3923-12.3476C22.3923-12.3476 22.3923-12.7722 22.817-12.7722L24.0908-14.046C24.5154-14.4707 24.94-14.8953 25.3647-15.7445C25.7893-16.5937 26.2139-17.0183 26.6385-17.8676L27.0631-18.2922C27.4877-18.7168 27.9123-19.1414 28.337-19.9907C28.7616-20.4153 29.1862-20.8399 29.1862-21.2645L29.1862-21.2645ZM52.9648-17.0183L52.5402-16.5937C52.5402-16.1691 52.1156-16.1691 52.1156-15.7445L52.1156-13.1968C52.1156-12.7722 52.1156-12.7722 52.5402-12.3476C52.5402-12.7722 52.1156-13.1968 52.5402-13.6214L52.5402-13.1968C52.5402-12.7722 52.5402-12.7722 52.9648-12.3476L53.3894-12.3476C53.8141-13.1968 53.8141-13.6214 53.3894-14.4707L53.3894-14.8953C53.3894-16.1691 53.3894-16.5937 52.9648-17.0183L52.9648-17.0183ZM63.5799-18.7168C63.1552-19.566 62.731-19.9907 62.3064-20.4153L61.0325-20.4153C61.0325-20.4153 60.6079-20.4153 61.0325-19.9907C61.4571-19.566 61.4571-19.1414 61.8818-18.7168C62.3064-18.2922 62.3064-17.8676 62.731-17.443C62.731-17.443 63.1556-17.0183 63.1556-17.443L63.5799-17.8676L63.5799-18.7168L63.5799-18.7168ZM59.3341-19.1414C59.3341-18.7168 58.9094-18.7168 58.9094-18.2922L58.9094-17.0183C58.9094-17.0183 58.9094-16.5937 59.3341-16.5937L59.7587-16.5937C59.7587-16.1691 60.1833-16.1691 60.1833-16.1691C60.1833-16.5937 59.7587-17.0183 59.7587-17.443L59.7587-17.8676C59.7587-18.7168 59.3341-18.7168 59.3341-19.1414ZM60.1833-19.566C60.1833-19.1414 60.6079-18.7168 60.6079-18.2922C60.6079-17.8676 61.0325-17.443 61.0325-17.0183C61.0325-16.5937 61.4571-17.0183 61.4571-17.0183L61.4571-17.443C61.4571-17.8676 61.0325-17.8676 61.0325-18.2922C61.0325-19.1414 60.6079-19.566 60.1833-19.566L60.1833-19.566ZM61.0325-14.8953C61.0325-14.8953 61.4571-14.8953 61.4571-15.3199C61.8818-15.7445 61.8818-16.1691 62.3064-16.5937L62.3064-17.0183L61.4571-17.0183C61.4571-16.1691 61.4571-15.3199 61.0325-14.8953ZM51.2664-14.046C51.2664-14.4707 51.2664-14.8953 51.691-15.3199C51.2664-14.8953 50.8418-14.4707 51.2664-14.046Z"/>
   <path class="monochrome-1 multicolor-1:tintColor hierarchical-1:tertiary SFSymbolsPreviewWireframe" d="M46.4321-81.8365C52.4502-81.8377 58.4096-80.6532 63.9698-78.3508C69.53-76.0483 74.5822-72.6729 78.8374-68.4176C83.0928-64.1624 86.4682-59.1103 88.771-53.5496C91.0733-47.9892 92.2577-42.03 92.2566-36.0127C92.2566-10.693 71.744 9.83658 46.4328 9.83658C21.1173 9.83658 0.5835-10.6972 0.5835-36.0127C0.5835-61.3211 21.1145-81.8365 46.4321-81.8365ZM46.4328-75.0865C24.8413-75.0865 7.3335-57.592 7.3335-36.0127C7.3335-14.4252 24.8452 3.08658 46.4328 3.08658C68.0148 3.08658 85.5066-14.4197 85.5066-36.0133C85.5076-41.1447 84.4976-46.226 82.5345-50.9672C80.571-55.7085 77.693-60.0162 74.0644-63.6446C70.4361-67.273 66.1283-70.1511 61.3873-72.1143C56.6463-74.0776 51.5649-75.0875 46.4328-75.0865Z"/>
  </g>
  <g id="Ultralight-S" transform="matrix(1 0 0 1 515.649 696)">
   <path class="monochrome-0 multicolor-0:tintColor hierarchical-0:primary SFSymbolsPreviewWireframe" d="M27.1172-22.2645C26.6926-21.8399 26.268-21.8399 25.8433-22.2645C25.4187-22.6891 25.4187-23.1137 25.8433-23.5383L26.6926-24.3876C27.1172-24.8122 27.1172-25.2368 27.5418-25.6614L28.391-26.5107L28.8157-26.9353C29.2403-27.3599 29.2403-27.7845 29.6649-28.2091L30.0895-28.6337C30.5141-29.0583 30.9387-29.9076 31.3633-30.3322C31.788-30.7568 31.788-30.7568 31.3633-30.7568C30.9387-30.7568 30.9387-31.1814 31.3633-31.606L31.3633-32.0307C31.3633-32.0307 31.3633-32.4553 31.788-32.4553C32.2126-32.8799 32.6372-33.3045 32.6372-34.1537C33.0618-34.5783 33.4864-35.4276 33.911-35.8522C34.3357-36.2768 34.3357-36.7014 34.3357-37.126C34.7604-37.5507 34.7604-37.9753 35.1851-38.3999C35.1851-38.3999 35.1851-38.8245 35.6097-39.2491C36.4589-38.8245 36.8835-39.2491 37.3081-40.0983C37.3081-40.523 37.7328-40.523 37.7328-40.9476C38.1574-41.3722 38.582-42.2214 39.0066-42.646C39.4312-43.0707 39.8558-43.9199 39.8558-44.3445C39.8558-44.7691 40.2804-44.7691 40.2804-45.1937C40.7051-46.043 41.1297-46.4677 41.5543-47.3169C41.9789-47.7415 41.9789-48.1661 42.4035-48.5907C42.8281-49.0153 43.2528-49.44 43.6774-50.2892C44.102-50.7138 44.5266-51.563 44.9512-51.9877L44.9512-52.4123L46.2251-53.6861C46.2251-54.1107 46.6497-54.1107 46.6497-54.1107C47.0743-54.5353 47.4989-55.3846 48.3481-55.8092L48.7728-56.2338C49.1974-56.6584 49.1974-57.083 49.622-57.5077C50.0466-58.3569 50.0466-59.2061 50.4712-60.0553C50.4712-60.48 50.8958-60.9046 50.8958-61.3292C50.8958-61.7538 51.3204-61.7538 51.7451-62.1784L52.1697-62.603L53.4435-63.8769C53.8681-64.3015 54.2928-64.7261 54.7174-64.7261C55.142-64.7261 55.5666-65.1507 55.9912-65.1507C56.4158-65.1507 56.8404-65.5753 57.2651-65.5753C57.6897-65.5753 58.5389-66 58.9635-66L59.8128-66C60.2374-66 60.662-65.5753 61.0866-65.5753L61.9358-65.5753C62.3604-65.5753 62.7851-65.1507 62.7851-65.1507L63.2097-65.1507C63.6343-65.1507 64.0589-64.7261 64.0589-64.7261C64.0589-64.3015 64.4835-64.3015 64.9081-63.8769C64.9081-63.8769 65.3328-63.8769 65.3328-63.4523C66.182-62.603 66.182-62.1784 66.6066-62.1784L66.6066-61.7538L67.0312-61.3292C67.4558-60.9046 67.4555-60.9046 67.8801-60.9046C68.3047-60.9046 68.7297-60.48 69.1543-60.48C69.5789-60.48 70.4281-60.0553 70.8528-60.0553C71.2774-60.0553 71.277-59.6307 71.7016-59.6307L71.2774-59.6307C70.8528-59.6307 70.8528-59.6307 70.4281-59.2061L70.0032-59.2061C69.5786-59.2061 69.5789-58.7815 69.1543-58.7815C68.7297-58.7815 68.3051-58.3569 68.3051-58.3569C67.8804-58.3569 67.8801-57.9323 67.4555-57.9323L67.0312-57.9323C66.6066-57.9323 66.6066-57.5077 66.6066-57.5077L66.6066-56.2338C67.0312-55.3846 67.0312-54.96 67.0312-54.1107L67.0312-53.6861C67.0312-53.2615 67.4555-52.4123 67.4555-51.9877C67.4555-51.563 67.8801-50.7138 67.8801-50.2892C67.8801-49.8646 68.3051-49.44 68.3051-48.5907L68.3051-45.1937C68.3051-44.7691 68.3047-44.3445 67.8801-43.9199C67.8801-43.0707 67.4558-42.2214 67.0312-40.9476C67.0312-40.9476 67.0312-40.523 66.6066-40.523C66.6066-40.0983 66.182-39.6737 66.182-39.2491C66.6066-37.126 66.182-36.7014 66.182-35.8522C65.7574-35.4276 65.3328-34.5783 64.9081-34.1537C64.4835-33.7291 64.0586-32.8799 63.6339-32.4553L62.3604-31.1814C61.9358-30.7568 61.5109-30.7568 61.5109-30.3322L60.662-29.483L60.2374-29.483C59.8128-29.0583 59.3881-29.0583 58.9635-28.6337C58.5389-28.6337 58.5389-28.2091 58.1143-28.2091C57.6897-27.7845 57.2651-27.7845 56.4158-27.3599C55.9912-26.9353 55.142-26.9353 54.7174-26.5107C54.7174-26.5107 54.2928-26.5107 54.2928-26.086L53.8681-26.086L53.4435-26.086L53.4435-25.6614C53.8681-25.2368 54.2928-24.8122 54.7174-24.8122C55.142-24.3876 55.142-24.3876 55.5666-24.3876C55.9912-24.3876 56.4158-23.963 56.8404-23.5383C57.2651-23.5383 57.2651-23.1137 57.6897-23.1137C58.1143-22.6891 58.5389-22.6891 58.9635-22.6891L60.2374-22.6891C60.662-22.6891 61.0862-22.2645 61.5109-21.8399C61.9355-21.4153 61.9358-20.9907 62.3604-20.566C62.3604-20.566 62.3604-20.1414 62.7851-20.1414L62.7851-19.2922C62.7851-18.8676 62.7851-18.8676 62.3604-18.443C62.3604-18.0183 61.9355-18.0183 61.5109-17.5937C61.5109-17.5937 61.0866-17.5937 60.662-17.1691L60.662-16.3199C60.662-15.8953 60.2374-15.4707 59.8128-15.046L59.3881-14.6214L58.5389-14.6214L57.2651-14.6214C56.8404-14.6214 56.4158-15.046 56.4158-15.046C56.4158-15.046 56.4158-15.4707 55.9912-15.4707L56.4158-15.4707L56.8404-15.046L57.6897-15.046C57.6897-15.046 58.1143-15.4707 58.1143-15.8953L57.6897-15.8953C57.2651-15.8953 56.8404-15.8953 56.4158-16.3199L55.9912-16.7445C55.9912-17.1691 55.5666-17.1691 55.5666-17.5937L55.5666-18.0183C55.5666-18.443 55.5666-18.8676 55.9912-19.2922C55.9912-19.7168 56.4158-19.7168 56.4158-20.1414C56.8404-20.566 56.4158-20.9907 56.4158-20.9907C55.9912-21.4153 55.5666-21.4153 55.5666-21.8399L54.2928-23.1137C53.8681-23.5383 53.4435-23.5383 53.0189-23.963L52.1697-24.8122C51.7451-25.2368 51.3204-24.8122 50.8958-24.8122L49.1974-24.8122C49.1974-24.3876 49.1974-23.5383 49.622-23.1137C49.622-22.2645 50.0466-21.8399 50.4712-20.9907C50.4712-20.566 50.8958-20.566 50.8958-20.1414C50.8958-19.7168 51.3204-19.7168 51.3204-19.2922L51.3204-18.8676L52.5943-17.5937C53.0189-17.1691 53.0189-17.1691 53.0189-16.7445C53.0189-16.3199 53.4435-16.3199 53.8681-15.8953C54.2928-15.4707 54.2928-15.046 54.7174-14.6214C54.7174-14.1968 54.7174-13.7722 54.2928-13.7722C53.8681-13.3476 53.4435-12.4983 53.0189-12.0737L52.5943-11.6491L52.1697-11.6491L52.1697-12.0737C52.1697-12.0737 52.1697-12.4983 52.5943-12.4983C52.5943-12.4983 52.5943-12.923 53.0189-12.923C53.4435-13.3476 53.4435-13.7722 53.4435-14.1968L53.4435-15.4707L52.1697-16.7445L52.1697-16.3199C52.1697-15.8953 52.5943-15.046 52.1697-14.6214C52.1697-14.1968 52.1697-13.7722 51.7451-13.3476C51.7451-12.923 51.3204-12.923 51.3204-12.4983L51.3204-12.0737L50.8958-12.0737C50.8958-12.0737 50.4712-12.0737 50.4712-12.4983C50.4712-12.0737 50.0466-12.0737 49.622-12.4983C49.622-12.4983 49.1974-12.923 49.1974-12.4983C48.7728-12.4983 48.3481-12.923 48.3481-12.923C47.9235-13.7722 47.9235-14.1968 47.4989-15.046C47.4989-15.4707 47.9235-15.8953 47.9235-16.3199C48.3481-17.1691 48.3481-17.5937 48.7728-18.443L48.7728-18.8676C48.7728-19.2922 48.3481-19.2922 48.3481-19.7168L48.3481-20.1414C48.3481-20.566 48.3481-20.566 47.9235-20.9907C47.9235-21.4153 47.4989-21.8399 47.4989-21.8399C47.4989-22.2645 47.0743-23.1137 47.0743-23.5383C47.0743-23.963 46.6497-24.3876 46.2251-24.3876L42.4035-24.3876C41.9789-24.3876 41.5543-24.3876 41.1297-24.8122L39.8558-24.8122C39.4312-24.8122 39.0066-24.8122 39.0066-24.3876L38.582-24.3876L38.1574-24.3876C37.7328-24.3876 37.3081-23.963 37.3081-23.5383L36.8835-23.5383C36.4589-23.5383 36.0343-23.1137 35.6097-23.1137C36.0343-23.1137 35.6097-23.1137 35.1851-22.6891C35.1851-22.6891 34.7604-22.6891 34.7604-22.2645C34.3357-22.2645 34.3357-21.8399 33.911-21.8399C33.4864-21.4153 33.0618-21.4153 32.6372-20.9907C32.2126-20.9907 31.788-20.566 31.788-20.1414C31.3633-20.1414 31.3633-19.7168 31.3633-19.7168L30.0895-18.443C29.6649-18.443 29.6649-18.0183 29.2403-18.0183L28.391-17.1691L27.9664-16.7445C27.5418-16.7445 27.5418-16.3199 27.1172-16.3199L26.268-15.4707C25.8433-15.046 25.4187-14.6214 24.9941-13.7722C24.5695-13.3476 24.5695-13.3476 24.5695-12.923L23.7203-12.0737L22.4464-10.7999C22.0218-10.3753 22.0218-9.95066 21.5972-9.52604C21.5972-9.10143 21.1726-9.10143 20.748-8.67681L19.8987-8.67681C19.8987-8.67681 19.4741-8.67681 19.4741-9.10143L19.4741-9.95066L19.4741-10.3753L19.0495-10.3753C18.6249-10.3753 18.6249-10.3753 18.2003-9.95066L17.7757-9.95066L17.351-10.3753L17.351-10.7999C17.351-11.2245 17.7757-11.2245 17.7757-11.2245C19.0495-11.6491 19.4741-12.0737 19.4741-12.4983L20.3233-13.3476C20.3233-13.3476 20.3233-13.7722 20.748-13.7722L22.0218-15.046C22.4464-15.4707 22.871-15.8953 23.2957-16.7445C23.7203-17.5937 24.1449-18.0183 24.5695-18.8676L24.9941-19.2922C25.4187-19.7168 25.8433-20.1414 26.268-20.9907C26.6926-21.4153 27.1172-21.8399 27.1172-22.2645L27.1172-22.2645ZM50.8958-18.0183L50.4712-17.5937C50.4712-17.1691 50.0466-17.1691 50.0466-16.7445L50.0466-14.1968C50.0466-13.7722 50.0466-13.7722 50.4712-13.3476C50.4712-13.7722 50.0466-14.1968 50.4712-14.6214L50.4712-14.1968C50.4712-13.7722 50.4712-13.7722 50.8958-13.3476L51.3204-13.3476C51.7451-14.1968 51.7451-14.6214 51.3204-15.4707L51.3204-15.8953C51.3204-17.1691 51.3204-17.5937 50.8958-18.0183L50.8958-18.0183ZM61.5109-19.7168C61.0862-20.566 60.662-20.9907 60.2374-21.4153L58.9635-21.4153C58.9635-21.4153 58.5389-21.4153 58.9635-20.9907C59.3881-20.566 59.3881-20.1414 59.8128-19.7168C60.2374-19.2922 60.2374-18.8676 60.662-18.443C60.662-18.443 61.0866-18.0183 61.0866-18.443L61.5109-18.8676L61.5109-19.7168L61.5109-19.7168ZM57.2651-20.1414C57.2651-19.7168 56.8404-19.7168 56.8404-19.2922L56.8404-18.0183C56.8404-18.0183 56.8404-17.5937 57.2651-17.5937L57.6897-17.5937C57.6897-17.1691 58.1143-17.1691 58.1143-17.1691C58.1143-17.5937 57.6897-18.0183 57.6897-18.443L57.6897-18.8676C57.6897-19.7168 57.2651-19.7168 57.2651-20.1414ZM58.1143-20.566C58.1143-20.1414 58.5389-19.7168 58.5389-19.2922C58.5389-18.8676 58.9635-18.443 58.9635-18.0183C58.9635-17.5937 59.3881-18.0183 59.3881-18.0183L59.3881-18.443C59.3881-18.8676 58.9635-18.8676 58.9635-19.2922C58.9635-20.1414 58.5389-20.566 58.1143-20.566L58.1143-20.566ZM58.9635-15.8953C58.9635-15.8953 59.3881-15.8953 59.3881-16.3199C59.8128-16.7445 59.8128-17.1691 60.2374-17.5937L60.2374-18.0183L59.3881-18.0183C59.3881-17.1691 59.3881-16.3199 58.9635-15.8953ZM49.1974-15.046C49.1974-15.4707 49.1974-15.8953 49.622-16.3199C49.1974-15.8953 48.7728-15.4707 49.1974-15.046Z"/>
   <path class="monochrome-1 multicolor-1:tintColor hierarchical-1:tertiary SFSymbolsPreviewWireframe" d="M44.3636-80.5865C50.0861-80.5876 55.7528-79.4613 61.04-77.272C66.3271-75.0826 71.1312-71.8729 75.1774-67.8265C79.2239-63.7803 82.4335-58.9764 84.6232-53.6889C86.8124-48.4015 87.9387-42.7349 87.9376-37.0127C87.9376-12.9352 68.432 6.58658 44.3638 6.58658C20.2909 6.58658 0.7645-12.9399 0.7645-37.0127C0.7645-61.0781 20.2877-80.5865 44.3636-80.5865ZM44.3638-78.3365C21.53-78.3365 3.0145-59.8351 3.0145-37.0127C3.0145-14.1825 21.5336 4.33658 44.3638 4.33658C67.1889 4.33658 85.6876-14.1774 85.6876-37.0129C85.6886-42.4398 84.6205-47.8138 82.5443-52.828C80.4678-57.8425 77.4239-62.3983 73.5865-66.2355C69.7491-70.073 65.1932-73.1168 60.1791-75.1931C55.1651-77.2695 49.791-78.3376 44.3638-78.3365Z"/>
  </g>
 </g>
</svg>
