<?xml version="1.0" encoding="UTF-8"?>
<!--Generator: Apple Native CoreSVG 341-->
<!DOCTYPE svg
PUBLIC "-//W3C//DTD SVG 1.1//EN"
       "http://www.w3.org/Graphics/SVG/1.1/DTD/svg11.dtd">
<svg version="1.1" xmlns="http://www.w3.org/2000/svg" xmlns:xlink="http://www.w3.org/1999/xlink" viewBox="0 0 3300 2200">
 <!--glyph: "", point size: 100.0, font version: "20.0d10e1", template writer version: "138.0.0"-->
 <style>.monochrome-0 {-sfsymbols-motion-group:1;-sfsymbols-layer-tags:-56cbc30ebef7b7e2}
.monochrome-1 {-sfsymbols-motion-group:0;-sfsymbols-layer-tags:-56cbc30ebef7b7e2}

.multicolor-0:tintColor {-sfsymbols-motion-group:1;-sfsymbols-layer-tags:-56cbc30ebef7b7e2}
.multicolor-1:tintColor {-sfsymbols-motion-group:0;-sfsymbols-layer-tags:-56cbc30ebef7b7e2}

.hierarchical-0:primary {-sfsymbols-motion-group:1;-sfsymbols-layer-tags:-56cbc30ebef7b7e2}
.hierarchical-1:tertiary {-sfsymbols-motion-group:0;-sfsymbols-layer-tags:-56cbc30ebef7b7e2}

.SFSymbolsPreviewWireframe {fill:none;opacity:1.0;stroke:black;stroke-width:0.5}
</style>
 <g id="Notes">
  <rect height="2200" id="artboard" style="fill:white;opacity:1" width="3300" x="0" y="0"/>
  <line style="fill:none;stroke:black;opacity:1;stroke-width:0.5;" x1="263" x2="3036" y1="292" y2="292"/>
  <text style="stroke:none;fill:black;font-family:sans-serif;font-size:13;font-weight:bold;" transform="matrix(1 0 0 1 263 322)">Weight/Scale Variations</text>
  <text style="stroke:none;fill:black;font-family:sans-serif;font-size:13;text-anchor:middle;" transform="matrix(1 0 0 1 559.711 322)">Ultralight</text>
  <text style="stroke:none;fill:black;font-family:sans-serif;font-size:13;text-anchor:middle;" transform="matrix(1 0 0 1 856.422 322)">Thin</text>
  <text style="stroke:none;fill:black;font-family:sans-serif;font-size:13;text-anchor:middle;" transform="matrix(1 0 0 1 1153.13 322)">Light</text>
  <text style="stroke:none;fill:black;font-family:sans-serif;font-size:13;text-anchor:middle;" transform="matrix(1 0 0 1 1449.84 322)">Regular</text>
  <text style="stroke:none;fill:black;font-family:sans-serif;font-size:13;text-anchor:middle;" transform="matrix(1 0 0 1 1746.56 322)">Medium</text>
  <text style="stroke:none;fill:black;font-family:sans-serif;font-size:13;text-anchor:middle;" transform="matrix(1 0 0 1 2043.27 322)">Semibold</text>
  <text style="stroke:none;fill:black;font-family:sans-serif;font-size:13;text-anchor:middle;" transform="matrix(1 0 0 1 2339.98 322)">Bold</text>
  <text style="stroke:none;fill:black;font-family:sans-serif;font-size:13;text-anchor:middle;" transform="matrix(1 0 0 1 2636.69 322)">Heavy</text>
  <text style="stroke:none;fill:black;font-family:sans-serif;font-size:13;text-anchor:middle;" transform="matrix(1 0 0 1 2933.4 322)">Black</text>
  <line style="fill:none;stroke:black;opacity:1;stroke-width:0.5;" x1="263" x2="3036" y1="1903" y2="1903"/>
  <g transform="matrix(0.2 0 0 0.2 263 1933)">
   <path d="m46.2402 4.15039c21.7773 0 39.4531-17.627 39.4531-39.4043s-17.6758-39.4043-39.4531-39.4043c-21.7285 0-39.4043 17.627-39.4043 39.4043s17.6758 39.4043 39.4043 39.4043Zm0-7.42188c-17.6758 0-31.9336-14.3066-31.9336-31.9824s14.2578-31.9824 31.9336-31.9824 31.9824 14.3066 31.9824 31.9824-14.3066 31.9824-31.9824 31.9824Zm-17.9688-31.9824c0 2.14844 1.51367 3.61328 3.75977 3.61328h10.498v10.5957c0 2.19727 1.46484 3.71094 3.61328 3.71094 2.24609 0 3.71094-1.51367 3.71094-3.71094v-10.5957h10.5957c2.19727 0 3.71094-1.46484 3.71094-3.61328 0-2.19727-1.51367-3.71094-3.71094-3.71094h-10.5957v-10.5469c0-2.24609-1.46484-3.75977-3.71094-3.75977-2.14844 0-3.61328 1.51367-3.61328 3.75977v10.5469h-10.498c-2.24609 0-3.75977 1.51367-3.75977 3.71094Z"/>
  </g>
  <g transform="matrix(0.2 0 0 0.2 281.506 1933)">
   <path d="m58.5449 14.5508c27.4902 0 49.8047-22.3145 49.8047-49.8047s-22.3145-49.8047-49.8047-49.8047-49.8047 22.3145-49.8047 49.8047 22.3145 49.8047 49.8047 49.8047Zm0-8.30078c-22.9492 0-41.5039-18.5547-41.5039-41.5039s18.5547-41.5039 41.5039-41.5039 41.5039 18.5547 41.5039 41.5039-18.5547 41.5039-41.5039 41.5039Zm-22.6562-41.5039c0 2.39258 1.66016 4.00391 4.15039 4.00391h14.3555v14.4043c0 2.44141 1.66016 4.15039 4.05273 4.15039 2.44141 0 4.15039-1.66016 4.15039-4.15039v-14.4043h14.4043c2.44141 0 4.15039-1.61133 4.15039-4.00391 0-2.44141-1.70898-4.15039-4.15039-4.15039h-14.4043v-14.3555c0-2.49023-1.70898-4.19922-4.15039-4.19922-2.39258 0-4.05273 1.70898-4.05273 4.19922v14.3555h-14.3555c-2.49023 0-4.15039 1.70898-4.15039 4.15039Z"/>
  </g>
  <g transform="matrix(0.2 0 0 0.2 304.924 1933)">
   <path d="m74.8535 28.3203c35.1074 0 63.623-28.4668 63.623-63.5742s-28.5156-63.623-63.623-63.623-63.5742 28.5156-63.5742 63.623 28.4668 63.5742 63.5742 63.5742Zm0-9.08203c-30.127 0-54.4922-24.3652-54.4922-54.4922s24.3652-54.4922 54.4922-54.4922 54.4922 24.3652 54.4922 54.4922-24.3652 54.4922-54.4922 54.4922Zm-28.8574-54.4922c0 2.58789 1.85547 4.39453 4.58984 4.39453h19.7266v19.7754c0 2.68555 1.85547 4.58984 4.44336 4.58984 2.68555 0 4.54102-1.85547 4.54102-4.58984v-19.7754h19.7754c2.68555 0 4.58984-1.80664 4.58984-4.39453 0-2.73438-1.85547-4.58984-4.58984-4.58984h-19.7754v-19.7266c0-2.73438-1.85547-4.63867-4.54102-4.63867-2.58789 0-4.44336 1.9043-4.44336 4.63867v19.7266h-19.7266c-2.73438 0-4.58984 1.85547-4.58984 4.58984Z"/>
  </g>
  <text style="stroke:none;fill:black;font-family:sans-serif;font-size:13;font-weight:bold;" transform="matrix(1 0 0 1 263 1953)">Design Variations</text>
  <text style="stroke:none;fill:black;font-family:sans-serif;font-size:13;" transform="matrix(1 0 0 1 263 1971)">Symbols are supported in up to nine weights and three scales.</text>
  <text style="stroke:none;fill:black;font-family:sans-serif;font-size:13;" transform="matrix(1 0 0 1 263 1989)">For optimal layout with text and other symbols, vertically align</text>
  <text style="stroke:none;fill:black;font-family:sans-serif;font-size:13;" transform="matrix(1 0 0 1 263 2007)">symbols with the adjacent text.</text>
  <line style="fill:none;stroke:#00AEEF;stroke-width:0.5;opacity:1.0;" x1="776" x2="776" y1="1919" y2="1933"/>
  <g transform="matrix(0.2 0 0 0.2 776 1933)">
   <path d="m16.5527 0.78125c2.58789 0 3.85742-0.976562 4.78516-3.71094l6.29883-17.2363h28.8086l6.29883 17.2363c0.927734 2.73438 2.19727 3.71094 4.73633 3.71094 2.58789 0 4.24805-1.5625 4.24805-4.00391 0-0.830078-0.146484-1.61133-0.537109-2.63672l-22.9004-60.9863c-1.12305-2.97852-3.125-4.49219-6.25-4.49219-3.02734 0-5.07812 1.46484-6.15234 4.44336l-22.9004 61.084c-0.390625 1.02539-0.537109 1.80664-0.537109 2.63672 0 2.44141 1.5625 3.95508 4.10156 3.95508Zm13.4766-28.3691 11.8652-32.8613h0.244141l11.8652 32.8613Z"/>
  </g>
  <line style="fill:none;stroke:#00AEEF;stroke-width:0.5;opacity:1.0;" x1="792.836" x2="792.836" y1="1919" y2="1933"/>
  <text style="stroke:none;fill:black;font-family:sans-serif;font-size:13;font-weight:bold;" transform="matrix(1 0 0 1 776 1953)">Margins</text>
  <text style="stroke:none;fill:black;font-family:sans-serif;font-size:13;" transform="matrix(1 0 0 1 776 1971)">Leading and trailing margins on the left and right side of each symbol</text>
  <text style="stroke:none;fill:black;font-family:sans-serif;font-size:13;" transform="matrix(1 0 0 1 776 1989)">can be adjusted by modifying the x-location of the margin guidelines.</text>
  <text style="stroke:none;fill:black;font-family:sans-serif;font-size:13;" transform="matrix(1 0 0 1 776 2007)">Modifications are automatically applied proportionally to all</text>
  <text style="stroke:none;fill:black;font-family:sans-serif;font-size:13;" transform="matrix(1 0 0 1 776 2025)">scales and weights.</text>
  <g transform="matrix(0.2 0 0 0.2 1289 1933)">
   <path d="m14.209 9.32617 8.49609 8.54492c4.29688 4.3457 9.22852 4.05273 13.8672-1.07422l53.4668-58.9355-4.83398-4.88281-53.0762 58.3984c-1.75781 2.00195-3.41797 2.49023-5.76172 0.146484l-5.85938-5.81055c-2.34375-2.29492-1.80664-4.00391 0.195312-5.81055l57.373-54.0039-4.88281-4.83398-57.959 54.4434c-4.93164 4.58984-5.32227 9.47266-1.02539 13.8184Zm32.0801-90.9668c-2.09961 2.05078-2.24609 4.93164-1.07422 6.88477 1.17188 1.80664 3.4668 2.97852 6.68945 2.14844 7.32422-1.70898 14.9414-2.00195 22.0703 2.68555l-2.92969 7.27539c-1.70898 4.15039-0.830078 7.08008 1.85547 9.81445l11.4746 11.5723c2.44141 2.44141 4.49219 2.53906 7.32422 2.05078l5.32227-0.976562 3.32031 3.36914-0.195312 2.7832c-0.195312 2.49023 0.439453 4.39453 2.88086 6.78711l3.80859 3.71094c2.39258 2.39258 5.46875 2.53906 7.8125 0.195312l14.5508-14.5996c2.34375-2.34375 2.24609-5.32227-0.146484-7.71484l-3.85742-3.80859c-2.39258-2.39258-4.24805-3.17383-6.64062-2.97852l-2.88086 0.244141-3.22266-3.17383 1.2207-5.61523c0.634766-2.83203-0.146484-5.0293-3.07617-7.95898l-10.9863-10.9375c-16.6992-16.6016-38.8672-16.2109-53.3203-1.75781Zm7.4707 1.85547c12.1582-8.88672 28.6133-7.37305 39.7461 3.75977l12.1582 12.0605c1.17188 1.17188 1.36719 2.09961 1.02539 3.80859l-1.61133 7.42188 7.51953 7.42188 4.93164-0.292969c1.26953-0.0488281 1.66016 0.0488281 2.63672 1.02539l2.88086 2.88086-12.207 12.207-2.88086-2.88086c-0.976562-0.976562-1.12305-1.36719-1.07422-2.68555l0.341797-4.88281-7.4707-7.42188-7.61719 1.26953c-1.61133 0.341797-2.34375 0.195312-3.56445-0.976562l-10.0098-10.0098c-1.26953-1.17188-1.41602-2.00195-0.634766-3.85742l4.39453-10.4492c-7.8125-7.27539-17.9688-10.4004-28.125-7.42188-0.78125 0.195312-1.07422-0.439453-0.439453-0.976562Z"/>
  </g>
  <text style="stroke:none;fill:black;font-family:sans-serif;font-size:13;font-weight:bold;" transform="matrix(1 0 0 1 1289 1953)">Exporting</text>
  <text style="stroke:none;fill:black;font-family:sans-serif;font-size:13;" transform="matrix(1 0 0 1 1289 1971)">Symbols should be outlined when exporting to ensure the</text>
  <text style="stroke:none;fill:black;font-family:sans-serif;font-size:13;" transform="matrix(1 0 0 1 1289 1989)">design is preserved when submitting to Xcode.</text>
  <text id="template-version" style="stroke:none;fill:black;font-family:sans-serif;font-size:13;text-anchor:end;" transform="matrix(1 0 0 1 3036 1933)">Template v.6.0</text>
  <text style="stroke:none;fill:black;font-family:sans-serif;font-size:13;text-anchor:end;" transform="matrix(1 0 0 1 3036 1951)">Requires Xcode 16 or greater</text>
  <text id="descriptive-name" style="stroke:none;fill:black;font-family:sans-serif;font-size:13;text-anchor:end;" transform="matrix(1 0 0 1 3036 1969)">Generated from filterlebensraum-3</text>
  <text style="stroke:none;fill:black;font-family:sans-serif;font-size:13;text-anchor:end;" transform="matrix(1 0 0 1 3036 1987)">Typeset at 100.0 points</text>
  <text style="stroke:none;fill:black;font-family:sans-serif;font-size:13;" transform="matrix(1 0 0 1 263 726)">Small</text>
  <text style="stroke:none;fill:black;font-family:sans-serif;font-size:13;" transform="matrix(1 0 0 1 263 1156)">Medium</text>
  <text style="stroke:none;fill:black;font-family:sans-serif;font-size:13;" transform="matrix(1 0 0 1 263 1586)">Large</text>
 </g>
 <g id="Guides">
  <g id="H-reference" style="fill:#27AAE1;stroke:none;" transform="matrix(1 0 0 1 339 696)">
   <path d="M0.993654 0L3.63775 0L29.3281-67.1323L30.0303-67.1323L30.0303-70.459L28.1226-70.459ZM11.6885-24.4799L46.9815-24.4799L46.2315-26.7285L12.4385-26.7285ZM55.1196 0L57.7637 0L30.6382-70.459L29.4326-70.459L29.4326-67.1323Z"/>
  </g>
  <line id="Baseline-S" style="fill:none;stroke:#27AAE1;opacity:1;stroke-width:0.5;" x1="263" x2="3036" y1="696" y2="696"/>
  <line id="Capline-S" style="fill:none;stroke:#27AAE1;opacity:1;stroke-width:0.5;" x1="263" x2="3036" y1="625.541" y2="625.541"/>
  <g id="H-reference" style="fill:#27AAE1;stroke:none;" transform="matrix(1 0 0 1 339 1126)">
   <path d="M0.993654 0L3.63775 0L29.3281-67.1323L30.0303-67.1323L30.0303-70.459L28.1226-70.459ZM11.6885-24.4799L46.9815-24.4799L46.2315-26.7285L12.4385-26.7285ZM55.1196 0L57.7637 0L30.6382-70.459L29.4326-70.459L29.4326-67.1323Z"/>
  </g>
  <line id="Baseline-M" style="fill:none;stroke:#27AAE1;opacity:1;stroke-width:0.5;" x1="263" x2="3036" y1="1126" y2="1126"/>
  <line id="Capline-M" style="fill:none;stroke:#27AAE1;opacity:1;stroke-width:0.5;" x1="263" x2="3036" y1="1055.54" y2="1055.54"/>
  <g id="H-reference" style="fill:#27AAE1;stroke:none;" transform="matrix(1 0 0 1 339 1556)">
   <path d="M0.993654 0L3.63775 0L29.3281-67.1323L30.0303-67.1323L30.0303-70.459L28.1226-70.459ZM11.6885-24.4799L46.9815-24.4799L46.2315-26.7285L12.4385-26.7285ZM55.1196 0L57.7637 0L30.6382-70.459L29.4326-70.459L29.4326-67.1323Z"/>
  </g>
  <line id="Baseline-L" style="fill:none;stroke:#27AAE1;opacity:1;stroke-width:0.5;" x1="263" x2="3036" y1="1556" y2="1556"/>
  <line id="Capline-L" style="fill:none;stroke:#27AAE1;opacity:1;stroke-width:0.5;" x1="263" x2="3036" y1="1485.54" y2="1485.54"/>
  <line id="right-margin-Black-S" style="fill:none;stroke:#00AEEF;stroke-width:0.5;opacity:1.0;" x1="2982.23" x2="2982.23" y1="600.785" y2="720.121"/>
  <line id="left-margin-Black-S" style="fill:none;stroke:#00AEEF;stroke-width:0.5;opacity:1.0;" x1="2884.57" x2="2884.57" y1="600.785" y2="720.121"/>
  <line id="right-margin-Regular-S" style="fill:none;stroke:#00AEEF;stroke-width:0.5;opacity:1.0;" x1="1496.11" x2="1496.11" y1="600.785" y2="720.121"/>
  <line id="left-margin-Regular-S" style="fill:none;stroke:#00AEEF;stroke-width:0.5;opacity:1.0;" x1="1403.58" x2="1403.58" y1="600.785" y2="720.121"/>
  <line id="right-margin-Ultralight-S" style="fill:none;stroke:#00AEEF;stroke-width:0.5;opacity:1.0;" x1="603.773" x2="603.773" y1="600.785" y2="720.121"/>
  <line id="left-margin-Ultralight-S" style="fill:none;stroke:#00AEEF;stroke-width:0.5;opacity:1.0;" x1="515.649" x2="515.649" y1="600.785" y2="720.121"/>
 </g>
 <g id="Symbols">
  <g id="Black-S" transform="matrix(1 0 0 1 2884.57 696)">
   <path class="monochrome-0 multicolor-0:tintColor hierarchical-0:primary SFSymbolsPreviewWireframe" d="M63.1677-56.8159C66.2215-56.1953 68.6223-54.1401 69.9244-52.5145C70.7202-51.5211 70.559-50.0714 69.5644-49.2766C68.5697-48.4817 67.1183-48.6427 66.3224-49.6362C65.4363-50.7425 63.8984-51.9657 62.2477-52.3012C60.8538-52.5844 58.9553-52.3328 56.7955-49.6363C53.7036-45.7762 50.1319-44.6619 46.8213-45.3348C43.8378-45.9411 41.4776-47.9165 40.1563-49.5231C39.3066-50.3402 37.7979-51.3087 36.0792-51.5881C34.4492-51.8531 32.4616-51.5381 30.3674-49.4464C29.4667-48.5468 28.0063-48.5468 27.1056-49.4464C26.2048-50.3461 26.2048-51.8046 27.1056-52.7042C30.2629-55.8578 33.7457-56.6355 36.8203-56.1357C39.7518-55.659 42.1412-54.0577 43.4963-52.7043C43.5565-52.6442 43.6133-52.5809 43.6664-52.5145C44.5526-51.4082 46.0905-50.185 47.7411-49.8495C49.1351-49.5663 51.0337-49.818 53.1934-52.5144C56.2852-56.3747 59.8571-57.4888 63.1677-56.8159ZM63.1677-22.6653C66.2215-22.0445 68.6223-19.9894 69.9244-18.3639C70.7202-17.3704 70.559-15.9207 69.5644-15.1259C68.5697-14.3311 67.1183-14.4921 66.3225-15.4855C65.4363-16.5918 63.8984-17.815 62.2477-18.1504C60.8538-18.4338 58.9553-18.1821 56.7955-15.4857C53.7036-11.6255 50.1319-10.5112 46.8213-11.184C43.8378-11.7903 41.4777-13.7657 40.1563-15.3724C39.3066-16.1895 37.7979-17.158 36.079-17.4374C34.4492-17.7025 32.4616-17.3874 30.3674-15.2957C29.4667-14.3961 28.0063-14.3961 27.1056-15.2957C26.2048-16.1954 26.2048-17.654 27.1056-18.5537C30.2629-21.7072 33.7457-22.4849 36.8203-21.9849C39.7518-21.5083 42.1412-19.907 43.4962-18.5538C43.5564-18.4937 43.6133-18.4302 43.6666-18.3637C44.5526-17.2574 46.0905-16.0343 47.7411-15.6989C49.1351-15.4155 51.0337-15.6673 53.1934-18.3637C56.2852-22.224 59.8571-23.3382 63.1677-22.6653ZM63.1677-39.7407C66.2215-39.1199 68.6223-37.0647 69.9244-35.4392C70.7202-34.4458 70.559-32.9961 69.5644-32.2012C68.5697-31.4064 67.1183-31.5675 66.3225-32.5609C65.4363-33.6671 63.8984-34.8903 62.2477-35.2258C60.8538-35.5092 58.9553-35.2574 56.7955-32.5609C53.7036-28.7008 50.1319-27.5865 46.8213-28.2594C43.8378-28.8657 41.4777-30.8411 40.1563-32.4478C39.3066-33.2648 37.7979-34.2333 36.079-34.5128C34.4492-34.7779 32.4616-34.4628 30.3674-32.3711C29.4667-31.4715 28.0063-31.4715 27.1056-32.3711C26.2048-33.2708 26.2048-34.7294 27.1056-35.629C30.2629-38.7826 33.7457-39.5602 36.8203-39.0603C39.7518-38.5835 42.1412-36.9824 43.4962-35.6291C43.5564-35.5689 43.6133-35.5056 43.6666-35.4391C44.5526-34.3328 46.0905-33.1097 47.7411-32.7742C49.1351-32.4909 51.0337-32.7427 53.1934-35.4391C56.2852-39.2993 59.8571-40.4134 63.1677-39.7407Z"/>
   <path class="monochrome-1 multicolor-1:tintColor hierarchical-1:tertiary SFSymbolsPreviewWireframe" d="M48.9411-84C55.3091-84.0013 61.615-82.7479 67.4985-80.3116C73.382-77.8752 78.7279-74.3036 83.2305-69.8009C87.7334-65.2983 91.305-59.9524 93.7418-54.0682C96.1779-48.1846 97.4312-41.8789 97.43-35.5124C97.43-8.72255 75.7254 13 48.9424 13C22.156 13 0.43-8.726 0.43-35.5124C0.43-62.2926 22.1539-84 48.9411-84ZM48.9424-70C29.8835-70 14.43-54.5582 14.43-35.5124C14.43-16.458 29.888-0.999999 48.9424-0.999999C67.9909-0.999999 83.43-16.4519 83.43-35.5138C83.4309-40.0428 82.5395-44.5276 80.8069-48.7121C79.0739-52.8969 76.5337-56.6989 73.3311-59.9013C70.1287-63.1038 66.3266-65.644 62.1422-67.3767C57.9578-69.1095 53.4729-70.0009 48.9424-70Z"/>
  </g>
  <g id="Regular-S" transform="matrix(1 0 0 1 1403.58 696)">
   <path class="monochrome-0 multicolor-0:tintColor hierarchical-0:primary SFSymbolsPreviewWireframe" d="M60.9927-57.8119C64.1159-57.1778 66.5713-55.0779 67.903-53.417C68.7169-52.4019 68.552-50.9207 67.5347-50.1086C66.5175-49.2965 65.033-49.461 64.2191-50.4761C63.3128-51.6065 61.7399-52.8562 60.0518-53.199C58.6262-53.4884 56.6845-53.2313 54.4757-50.4762C51.3135-46.5321 47.6606-45.3936 44.2748-46.0811C41.2235-46.7007 38.8097-48.719 37.4583-50.3605C36.5893-51.1954 35.0463-52.1849 33.2885-52.4704C31.6215-52.7412 29.5887-52.4193 27.4469-50.2821C26.5257-49.363 25.0321-49.363 24.111-50.2821C23.1897-51.2014 23.1897-52.6917 24.111-53.6108C27.34-56.833 30.902-57.6276 34.0465-57.1168C37.0446-56.6298 39.4883-54.9937 40.8743-53.6109C40.9358-53.5495 40.9938-53.4848 41.0482-53.417C41.9545-52.2866 43.5274-51.0369 45.2155-50.694C46.6412-50.4046 48.5829-50.6618 50.7917-53.4168C53.9538-57.361 57.6069-58.4994 60.9927-57.8119ZM60.9927-22.9188C64.1159-22.2846 66.5713-20.1848 67.903-18.5239C68.7169-17.5088 68.552-16.0276 67.5347-15.2156C66.5175-14.4034 65.033-14.568 64.2192-15.583C63.3128-16.7133 61.7399-17.9631 60.0518-18.3058C58.6262-18.5953 56.6845-18.3382 54.4757-15.5831C51.3135-11.6391 47.6606-10.5006 44.2748-11.188C41.2235-11.8075 38.8098-13.8258 37.4583-15.4674C36.5893-16.3023 35.0463-17.2918 33.2884-17.5773C31.6215-17.8481 29.5887-17.5263 27.4469-15.3891C26.5257-14.4699 25.0321-14.4699 24.111-15.3891C23.1897-16.3083 23.1897-17.7986 24.111-18.7179C27.34-21.9399 30.902-22.7345 34.0465-22.2236C37.0446-21.7367 39.4883-20.1006 40.8741-18.718C40.9357-18.6565 40.9938-18.5917 41.0483-18.5238C41.9545-17.3934 43.5274-16.1437 45.2155-15.801C46.6412-15.5115 48.5829-15.7687 50.7917-18.5238C53.9538-22.468 57.6069-23.6064 60.9927-22.9188ZM60.9927-40.3654C64.1159-39.7312 66.5713-37.6313 67.903-35.9705C68.7169-34.9554 68.552-33.4742 67.5347-32.6621C66.5175-31.85 65.033-32.0145 64.2192-33.0296C63.3128-34.1599 61.7399-35.4096 60.0518-35.7524C58.6262-36.0419 56.6845-35.7847 54.4757-33.0296C51.3135-29.0855 47.6606-27.947 44.2748-28.6346C41.2235-29.2541 38.8098-31.2724 37.4583-32.914C36.5893-33.7488 35.0463-34.7383 33.2884-35.0239C31.6215-35.2947 29.5887-34.9729 27.4469-32.8356C26.5257-31.9165 25.0321-31.9165 24.111-32.8356C23.1897-33.7549 23.1897-35.2452 24.111-36.1643C27.34-39.3865 30.902-40.181 34.0465-39.6702C37.0446-39.1831 39.4883-37.5472 40.8741-36.1644C40.9357-36.103 40.9938-36.0383 41.0483-35.9704C41.9545-34.84 43.5274-33.5903 45.2155-33.2476C46.6412-32.958 48.5829-33.2153 50.7917-35.9704C53.9538-39.9144 57.6069-41.0528 60.9927-40.3654Z"/>
   <path class="monochrome-1 multicolor-1:tintColor hierarchical-1:tertiary SFSymbolsPreviewWireframe" d="M46.4321-81.8365C52.4502-81.8377 58.4096-80.6532 63.9698-78.3508C69.53-76.0483 74.5822-72.6729 78.8374-68.4176C83.0928-64.1624 86.4682-59.1103 88.771-53.5496C91.0733-47.9892 92.2577-42.03 92.2566-36.0127C92.2566-10.693 71.744 9.83658 46.4328 9.83658C21.1173 9.83658 0.5835-10.6972 0.5835-36.0127C0.5835-61.3211 21.1145-81.8365 46.4321-81.8365ZM46.4328-75.0865C24.8413-75.0865 7.3335-57.592 7.3335-36.0127C7.3335-14.4252 24.8452 3.08658 46.4328 3.08658C68.0148 3.08658 85.5066-14.4197 85.5066-36.0133C85.5076-41.1447 84.4976-46.226 82.5345-50.9672C80.571-55.7085 77.693-60.0162 74.0644-63.6446C70.4361-67.273 66.1283-70.1511 61.3873-72.1143C56.6463-74.0776 51.5649-75.0875 46.4328-75.0865Z"/>
  </g>
  <g id="Ultralight-S" transform="matrix(1 0 0 1 515.649 696)">
   <path class="monochrome-0 multicolor-0:tintColor hierarchical-0:primary SFSymbolsPreviewWireframe" d="M58.9237-59.8119C62.0469-59.1778 64.5023-57.0779 65.834-55.417C66.6479-54.4019 66.483-52.9207 65.4657-52.1086C64.4485-51.2965 62.964-51.461 62.1501-52.4761C61.2438-53.6065 59.6709-54.8562 57.9828-55.199C56.5572-55.4884 54.6155-55.2313 52.4067-52.4762C49.2445-48.5321 45.5916-47.3936 42.2058-48.0811C39.1545-48.7007 36.7407-50.719 35.3893-52.3605C34.5203-53.1954 32.9773-54.1849 31.2195-54.4705C29.5525-54.7412 27.5197-54.4193 25.3779-52.2821C24.4567-51.363 22.9631-51.363 22.042-52.2821C21.1207-53.2014 21.1207-54.6917 22.042-55.6108C25.271-58.833 28.833-59.6276 31.9775-59.1168C34.9756-58.6298 37.4193-56.9937 38.8053-55.6109C38.8668-55.5495 38.9248-55.4848 38.9792-55.417C39.8855-54.2866 41.4584-53.0368 43.1465-52.6941C44.5722-52.4046 46.5139-52.6619 48.7227-55.417C51.8848-59.361 55.5379-60.4994 58.9237-59.8119ZM58.9237-24.9188C62.0469-24.2846 64.5023-22.1848 65.834-20.5239C66.6479-19.5088 66.483-18.0276 65.4657-17.2156C64.4485-16.4034 62.964-16.568 62.1502-17.583C61.2438-18.7133 59.6709-19.9631 57.9828-20.3058C56.5572-20.5953 54.6155-20.3382 52.4067-17.5831C49.2445-13.6391 45.5916-12.5006 42.2058-13.188C39.1545-13.8075 36.7408-15.8258 35.3893-17.4674C34.5203-18.3023 32.9773-19.2918 31.2194-19.5773C29.5525-19.8481 27.5197-19.5263 25.3779-17.3891C24.4567-16.4699 22.9631-16.4699 22.042-17.3891C21.1207-18.3083 21.1207-19.7986 22.042-20.7179C25.271-23.9399 28.833-24.7345 31.9775-24.2236C34.9756-23.7367 37.4193-22.1006 38.8051-20.718C38.8667-20.6565 38.9248-20.5917 38.9793-20.5238C39.8855-19.3934 41.4584-18.1437 43.1465-17.801C44.5722-17.5115 46.5139-17.7687 48.7227-20.5239C51.8848-24.468 55.5379-25.6064 58.9237-24.9188ZM58.9237-42.3654C62.0469-41.7312 64.5023-39.6314 65.834-37.9705C66.6479-36.9554 66.483-35.4742 65.4657-34.6621C64.4485-33.85 62.964-34.0145 62.1502-35.0296C61.2438-36.1599 59.6709-37.4096 57.9828-37.7524C56.5572-38.0419 54.6155-37.7847 52.4067-35.0296C49.2445-31.0855 45.5916-29.9471 42.2058-30.6346C39.1545-31.2541 36.7408-33.2724 35.3893-34.914C34.5203-35.7488 32.9773-36.7383 31.2194-37.0239C29.5525-37.2947 27.5197-36.9729 25.3779-34.8356C24.4567-33.9165 22.9631-33.9165 22.042-34.8356C21.1207-35.7549 21.1207-37.2452 22.042-38.1643C25.271-41.3865 28.833-42.181 31.9775-41.6702C34.9756-41.1831 37.4193-39.5472 38.8051-38.1644C38.8667-38.103 38.9248-38.0383 38.9793-37.9704C39.8855-36.84 41.4584-35.5903 43.1465-35.2476C44.5722-34.958 46.5139-35.2153 48.7227-37.9704C51.8848-41.9144 55.5379-43.0528 58.9237-42.3654Z"/>
   <path class="monochrome-1 multicolor-1:tintColor hierarchical-1:tertiary SFSymbolsPreviewWireframe" d="M44.3636-80.5865C50.0861-80.5876 55.7528-79.4613 61.04-77.272C66.3271-75.0826 71.1312-71.8729 75.1774-67.8265C79.2239-63.7803 82.4335-58.9764 84.6232-53.6889C86.8124-48.4015 87.9387-42.7349 87.9376-37.0127C87.9376-12.9352 68.432 6.58658 44.3638 6.58658C20.2909 6.58658 0.7645-12.9399 0.7645-37.0127C0.7645-61.0781 20.2877-80.5865 44.3636-80.5865ZM44.3638-78.3365C21.53-78.3365 3.0145-59.8351 3.0145-37.0127C3.0145-14.1825 21.5336 4.33658 44.3638 4.33658C67.1889 4.33658 85.6876-14.1774 85.6876-37.0129C85.6886-42.4398 84.6205-47.8138 82.5443-52.828C80.4678-57.8425 77.4239-62.3983 73.5865-66.2355C69.7491-70.073 65.1932-73.1168 60.1791-75.1931C55.1651-77.2695 49.791-78.3376 44.3638-78.3365Z"/>
  </g>
 </g>
</svg>
