<?xml version="1.0" encoding="UTF-8"?>
<svg width="3300px" height="2200px" viewBox="0 0 3300 2200" version="1.1" xmlns="http://www.w3.org/2000/svg" xmlns:xlink="http://www.w3.org/1999/xlink">
    <!-- Generator: Sketch 59.1 (86144) - https://sketch.com -->
    <title>filter</title>
    <desc>Created with Sketch.</desc>
    <g id="Page-1" stroke="none" stroke-width="1" fill="none" fill-rule="evenodd">
        <g id="filter">
            <g id="Notes">
                <rect id="artboard" fill="#FFFFFF" fill-rule="nonzero" x="0" y="0" width="3300" height="2200"></rect>
                <line x1="263" y1="292" x2="3036" y2="292" id="Path" stroke="#000000" stroke-width="0.5"></line>
                <text id="Weight/Scale-Variations" fill="#000000" font-family="Helvetica-Bold, Helvetica" font-size="13" font-weight="bold">
                    <tspan x="263" y="322">Weight/Scale Variations</tspan>
                </text>
                <text id="Ultralight" fill="#000000" font-family="Helvetica" font-size="13" font-weight="normal">
                    <tspan x="533.711" y="322">Ultralight</tspan>
                </text>
                <text id="Thin" fill="#000000" font-family="Helvetica" font-size="13" font-weight="normal">
                    <tspan x="843.422" y="322">Thin</tspan>
                </text>
                <text id="Light" fill="#000000" font-family="Helvetica" font-size="13" font-weight="normal">
                    <tspan x="1138.63" y="322">Light</tspan>
                </text>
                <text id="Regular" fill="#000000" font-family="Helvetica" font-size="13" font-weight="normal">
                    <tspan x="1426.84" y="322">Regular</tspan>
                </text>
                <text id="Medium" fill="#000000" font-family="Helvetica" font-size="13" font-weight="normal">
                    <tspan x="1723.06" y="322">Medium</tspan>
                </text>
                <text id="Semibold" fill="#000000" font-family="Helvetica" font-size="13" font-weight="normal">
                    <tspan x="2015.77" y="322">Semibold</tspan>
                </text>
                <text id="Bold" fill="#000000" font-family="Helvetica" font-size="13" font-weight="normal">
                    <tspan x="2326.48" y="322">Bold</tspan>
                </text>
                <text id="Heavy" fill="#000000" font-family="Helvetica" font-size="13" font-weight="normal">
                    <tspan x="2618.19" y="322">Heavy</tspan>
                </text>
                <text id="Black" fill="#000000" font-family="Helvetica" font-size="13" font-weight="normal">
                    <tspan x="2917.4" y="322">Black</tspan>
                </text>
                <line x1="263" y1="1903" x2="3036" y2="1903" id="Path" stroke="#000000" stroke-width="0.5"></line>
                <g id="Group" transform="translate(264.000000, 1918.000000)" fill="#000000" fill-rule="nonzero">
                    <path d="M8.24805,15.830078 C12.5547,15.830078 16.1387,12.25586 16.1387,7.94922 C16.1387,3.6426 12.5449,0.0684 8.23828,0.0684 C3.94141,0.0684 0.36719,3.6426 0.36719,7.94922 C0.36719,12.25586 3.95117,15.830078 8.24805,15.830078 Z M8.24805,14.345703 C4.70312,14.345703 1.87109,11.50391 1.87109,7.94922 C1.87109,4.3945 4.69336,1.5527 8.23828,1.5527 C11.793,1.5527 14.6348,4.3945 14.6445252,7.94922 C14.6543,11.50391 11.8027,14.345703 8.24805,14.345703 Z M8.22852,11.57227 C8.69727,11.57227 8.9707,11.25977 8.9707,10.74219 L8.9707,8.68164 L11.1973,8.68164 C11.6953,8.68164 12.0371,8.42773 12.0371,7.95898 C12.0371,7.48047 11.7148,7.2168 11.1973,7.2168 L8.9707,7.2168 L8.9707,4.9902 C8.9707,4.4727 8.69727,4.1504 8.22852,4.1504 C7.75977,4.1504 7.50586,4.4922 7.50586,4.9902 L7.50586,7.2168 L5.29883,7.2168 C4.78125,7.2168 4.44922,7.48047 4.44922,7.95898 C4.44922,8.42773 4.80078,8.68164 5.29883,8.68164 L7.50586,8.68164 L7.50586,10.74219 C7.50586,11.24023 7.75977,11.57227 8.22852,11.57227 Z" id="Shape"></path>
                </g>
                <g id="Group" transform="translate(282.506000, 1915.000000)" fill="#000000" fill-rule="nonzero">
                    <path d="M10.709,20.91016 C16.1582,20.91016 20.6699,16.39844 20.6699,10.94922 C20.6699,5.5098 16.1484,0.9883 10.6992,0.9883 C5.25977,0.9883 0.74805,5.5098 0.74805,10.94922 C0.74805,16.39844 5.26953,20.91016 10.709,20.91016 Z M10.709,19.25 C6.09961,19.25 2.41797,15.55859 2.41797,10.94922 C2.41797,6.3496 6.08984,2.6484 10.6992,2.6484 C15.3086,2.6484 19,6.3496 19.009819,10.94922 C19.0195,15.55859 15.3184,19.25 10.709,19.25 Z M10.6895,15.58789 C11.207,15.58789 11.5195,15.22656 11.5195,14.66016 L11.5195,11.76953 L14.5762,11.76953 C15.123,11.76953 15.5039,11.48633 15.5039,10.96875 C15.5039,10.44141 15.1426,10.13867 14.5762,10.13867 L11.5195,10.13867 L11.5195,7.0723 C11.5195,6.4961 11.207,6.1445 10.6895,6.1445 C10.1719,6.1445 9.8789,6.5156 9.8789,7.0723 L9.8789,10.13867 L6.83203,10.13867 C6.26562,10.13867 5.89453,10.44141 5.89453,10.96875 C5.89453,11.48633 6.28516,11.76953 6.83203,11.76953 L9.8789,11.76953 L9.8789,14.66016 C9.8789,15.20703 10.1719,15.58789 10.6895,15.58789 Z" id="Shape"></path>
                </g>
                <g id="Group" transform="translate(306.924000, 1913.000000)" fill="#000000" fill-rule="nonzero">
                    <path d="M12.9707,25.67383 C19.9336,25.67383 25.6953,19.921875 25.6953,12.95898 C25.6953,5.9961 19.9238,0.2441 12.9609,0.2441 C6.00781,0.2441 0.25586,5.9961 0.25586,12.95898 C0.25586,19.921875 6.01758,25.67383 12.9707,25.67383 Z M12.9707,23.85742 C6.93555,23.85742 2.08203,18.99414 2.08203,12.95898 C2.08203,6.9238 6.92578,2.0605 12.9609,2.0605 C19.0059,2.0605 23.8594,6.9238 23.8691148,12.95898 C23.8789,18.99414 19.0156,23.85742 12.9707,23.85742 Z M12.9512,18.93555 C13.5176,18.93555 13.8691,18.54492 13.8691,17.93945 L13.8691,13.86719 L18.1074,13.86719 C18.6934,13.86719 19.1133,13.53516 19.1133,12.97852 C19.1133,12.40234 18.7227,12.06055 18.1074,12.06055 L13.8691,12.06055 L13.8691,7.8125 C13.8691,7.1973 13.5176,6.8066 12.9512,6.8066 C12.3848,6.8066 12.0625,7.2168 12.0625,7.8125 L12.0625,12.06055 L7.83398,12.06055 C7.21875,12.06055 6.80859,12.40234 6.80859,12.97852 C6.80859,13.53516 7.23828,13.86719 7.83398,13.86719 L12.0625,13.86719 L12.0625,17.93945 C12.0625,18.52539 12.3848,18.93555 12.9512,18.93555 Z" id="Shape"></path>
                </g>
                <text id="Design-Variations" fill="#000000" font-family="Helvetica-Bold, Helvetica" font-size="13" font-weight="bold">
                    <tspan x="263" y="1953">Design Variations</tspan>
                </text>
                <text id="Symbols-are-supported-in-up-to-nine-weights-and-three-scales." fill="#000000" font-family="Helvetica" font-size="13" font-weight="normal">
                    <tspan x="263" y="1971">Symbols are supported in up to nine weights and three scales.</tspan>
                </text>
                <text id="For-optimal-layout-with-text-and-other-symbols,-vertically-align" fill="#000000" font-family="Helvetica" font-size="13" font-weight="normal">
                    <tspan x="263" y="1989">For optimal layout with text and other symbols, vertically align</tspan>
                </text>
                <text id="symbols-with-the-adjacent-text." fill="#000000" font-family="Helvetica" font-size="13" font-weight="normal">
                    <tspan x="263" y="2007">symbols with the adjacent text.</tspan>
                </text>
                <rect id="Rectangle" fill="#00AEEF" fill-rule="nonzero" opacity="0.4" x="776" y="1919" width="3" height="14"></rect>
                <g id="Group" transform="translate(779.000000, 1918.000000)" fill="#000000" fill-rule="nonzero">
                    <path d="M10.5273,15 L12.373,15 L7.17773,0.9082 L5.43945,0.9082 L0.244141,15 L2.08984,15 L3.50586,10.9668 L9.11133,10.9668 L10.5273,15 Z M6.2793,3.0469 L6.33789,3.0469 L8.59375,9.47266 L4.02344,9.47266 L6.2793,3.0469 Z" id="Shape"></path>
                </g>
                <rect id="Rectangle" fill="#00AEEF" fill-rule="nonzero" opacity="0.4" x="791.617" y="1919" width="3" height="14"></rect>
                <text id="Margins" fill="#000000" font-family="Helvetica-Bold, Helvetica" font-size="13" font-weight="bold">
                    <tspan x="776" y="1953">Margins</tspan>
                </text>
                <text id="Leading-and-trailing-margins-on-the-left-and-right-side-of-each-symbol" fill="#000000" font-family="Helvetica" font-size="13" font-weight="normal">
                    <tspan x="776" y="1971">Leading and trailing margins on the left and right side of each symbol</tspan>
                </text>
                <text id="can-be-adjusted-by-modifying-the-width-of-the-blue-rectangles." fill="#000000" font-family="Helvetica" font-size="13" font-weight="normal">
                    <tspan x="776" y="1989">can be adjusted by modifying the width of the blue rectangles.</tspan>
                </text>
                <text id="Modifications-are-automatically-applied-proportionally-to-all" fill="#000000" font-family="Helvetica" font-size="13" font-weight="normal">
                    <tspan x="776" y="2007">Modifications are automatically applied proportionally to all</tspan>
                </text>
                <text id="scales-and-weights." fill="#000000" font-family="Helvetica" font-size="13" font-weight="normal">
                    <tspan x="776" y="2025">scales and weights.</tspan>
                </text>
                <g id="Group" transform="translate(1291.000000, 1915.000000)" fill="#000000" fill-rule="nonzero">
                    <path d="M0.83203,21.11523 L2.375,22.6582 C3.22461,23.48828 4.19141,23.41992 5.06055,22.46289 L15.2754,11.33984 C15.7051,11.63281 16.0957,11.62305 16.5645,11.52539 L17.6094,11.31055 L18.3027,12.00391 L18.2539,12.52148 C18.1855,13.04883 18.3516,13.46875 18.8496,13.9668 L19.6602,14.77734 C20.168,15.28516 20.8223,15.31445 21.3008,14.83594 L24.5527,11.58398 C25.0312,11.10547 25.0117,10.45117 24.5039,9.94336 L23.6836,9.12305 C23.1855,8.625 22.7754,8.44922 22.2383,8.52734 L21.7109,8.58594 L21.0566,7.9219 L21.3398,6.7793 C21.4863,6.2129 21.3398,5.7441 20.7148,5.1387 L18.3027,2.7461 C14.7578,-0.7793 10.2266,-0.6719 7.11133,2.4629 C6.69141,2.8926 6.64258,3.4785 6.91602,3.9082 C7.15039,4.2793 7.62891,4.5039 8.2734,4.3379 C9.7871,3.957 11.3008,4.0742 12.7852,5.0801 L12.1602,6.6621 C11.9258,7.248 11.9453,7.7266 12.1797,8.16602 L1.01758,18.439453 C0.08008,19.30859 -0.02734,20.25586 0.83203,21.11523 Z M8.6738,2.8535 C11.3398,0.8613 14.6504,1.1738 17.0527,3.5859 L19.6797,6.1934 C19.9141,6.4277 19.9434,6.6133 19.8848,6.9062 L19.5039,8.46875 L21.0762,10.04102 L22.043,9.95312 C22.3262,9.92383 22.4141,9.94336 22.6387,10.16797 L23.2637,10.79297 L20.5098,13.53711 L19.8848,12.92188 C19.6602,12.69727 19.6406,12.59961 19.6699,12.31641 L19.7578,11.35938 L18.1953,9.79688 L16.5742,10.10938 C16.291,10.16797 16.1445,10.16797 15.9102,9.92383 L13.7324,7.7461 C13.5078,7.5117 13.4785,7.375 13.6055,7.0527 L14.5527,4.7773 C12.9512,3.2441 10.8418,2.3945 8.8008,3.0488 C8.7129,3.0781 8.6445,3.0586 8.6152,3.0195 C8.5859,2.9707 8.5859,2.9219 8.6738,2.8535 Z M2.10156,20.41211 C1.61328,19.91406 1.78906,19.61133 2.12109,19.30859 L13.0781,9.19141 L14.3086,10.42188 L4.15234,21.34961 C3.84961,21.68164 3.46875,21.7793 3.06836,21.37891 L2.10156,20.41211 Z" id="Shape"></path>
                </g>
                <text id="Exporting" fill="#000000" font-family="Helvetica-Bold, Helvetica" font-size="13" font-weight="bold">
                    <tspan x="1289" y="1953">Exporting</tspan>
                </text>
                <text id="Symbols-should-be-outlined-when-exporting-to-ensure-the" fill="#000000" font-family="Helvetica" font-size="13" font-weight="normal">
                    <tspan x="1289" y="1971">Symbols should be outlined when exporting to ensure the</tspan>
                </text>
                <text id="design-is-preserved-when-submitting-to-Xcode." fill="#000000" font-family="Helvetica" font-size="13" font-weight="normal">
                    <tspan x="1289" y="1989">design is preserved when submitting to Xcode.</tspan>
                </text>
                <text id="template-version" fill="#000000" font-family="Helvetica" font-size="13" font-weight="normal">
                    <tspan x="2952" y="1933">Template v.1.0</tspan>
                </text>
                <text id="Generated-from-circle" fill="#000000" font-family="Helvetica" font-size="13" font-weight="normal">
                    <tspan x="2911" y="1951">Generated from circle</tspan>
                </text>
                <text id="Typeset-at-100-points" fill="#000000" font-family="Helvetica" font-size="13" font-weight="normal">
                    <tspan x="2912" y="1969">Typeset at 100 points</tspan>
                </text>
                <text id="Small" fill="#000000" font-family="Helvetica" font-size="13" font-weight="normal">
                    <tspan x="263" y="726">Small</tspan>
                </text>
                <text id="Medium" fill="#000000" font-family="Helvetica" font-size="13" font-weight="normal">
                    <tspan x="263" y="1156">Medium</tspan>
                </text>
                <text id="Large" fill="#000000" font-family="Helvetica" font-size="13" font-weight="normal">
                    <tspan x="263" y="1586">Large</tspan>
                </text>
            </g>
            <g id="Guides" transform="translate(263.000000, 625.000000)">
                <g id="H-reference" transform="translate(76.000000, 0.000000)" fill="#27AAE1" fill-rule="nonzero">
                    <path d="M54.9316,71 L57.666,71 L30.5664,0.541 L28.0762,0.541 L0.976562,71 L3.66211,71 L12.9395,46.5371 L45.7031,46.5371 L54.9316,71 Z M29.1992,3.9102 L29.4434,3.9102 L44.8242,44.291 L13.8184,44.291 L29.1992,3.9102 Z" id="Shape"></path>
                </g>
                <line x1="0" y1="71" x2="2773" y2="71" id="Baseline-S" stroke="#27AAE1" stroke-width="0.577"></line>
                <line x1="0" y1="0.541" x2="2773" y2="0.541" id="Capline-S" stroke="#27AAE1" stroke-width="0.577"></line>
                <g id="H-reference" transform="translate(76.000000, 430.000000)" fill="#27AAE1" fill-rule="nonzero">
                    <path d="M54.9316,71 L57.666,71 L30.5664,0.541 L28.0762,0.541 L0.976562,71 L3.66211,71 L12.9395,46.5371 L45.7031,46.5371 L54.9316,71 Z M29.1992,3.9102 L29.4434,3.9102 L44.8242,44.291 L13.8184,44.291 L29.1992,3.9102 Z" id="Shape"></path>
                </g>
                <line x1="0" y1="501" x2="2773" y2="501" id="Baseline-M" stroke="#27AAE1" stroke-width="0.577"></line>
                <line x1="0" y1="430.54" x2="2773" y2="430.54" id="Capline-M" stroke="#27AAE1" stroke-width="0.577"></line>
                <g id="H-reference" transform="translate(76.000000, 860.000000)" fill="#27AAE1" fill-rule="nonzero">
                    <path d="M54.9316,71 L57.666,71 L30.5664,0.541 L28.0762,0.541 L0.976562,71 L3.66211,71 L12.9395,46.5371 L45.7031,46.5371 L54.9316,71 Z M29.1992,3.9102 L29.4434,3.9102 L44.8242,44.291 L13.8184,44.291 L29.1992,3.9102 Z" id="Shape"></path>
                </g>
                <line x1="0" y1="931" x2="2773" y2="931" id="Baseline-L" stroke="#27AAE1" stroke-width="0.577"></line>
                <line x1="0" y1="860.54" x2="2773" y2="860.54" id="Capline-L" stroke="#27AAE1" stroke-width="0.577"></line>
                <rect id="left-margin" fill="#00AEEF" fill-rule="nonzero" opacity="0.4" x="1128.3" y="405.79" width="8.74023" height="119.336"></rect>
                <rect id="right-margin" fill="#00AEEF" fill-rule="nonzero" opacity="0.4" x="1236.65" y="405.79" width="8.74023" height="119.336"></rect>
            </g>
            <g id="Symbols" transform="translate(1399.000000, 1040.000000)" fill="#000000" fill-rule="nonzero">
                <g id="Regular-M" transform="translate(0.300000, 0.000000)">
                    <path d="M50.5449,100.5508 C77.791,100.5508 100.35,77.99219 100.35,50.7461 C100.35,23.5488 77.7422,0.9414 50.4961,0.9414 C23.2988,0.9414 0.74023,23.5488 0.74023,50.7461 C0.74023,77.99219 23.3477,100.5508 50.5449,100.5508 Z M50.1551,92.0078 C27.1082,92.0078 8.7,73.5508 8.7,50.5039 C8.7,27.5058 27.0594,9 50.1063,9 C73.1532,9 91.6102,27.5058 91.6592971,50.5039 C91.7082,73.5508 73.202,92.0078 50.1551,92.0078 Z" id="Shape"></path>
                    <g id="np_swamp_1592639_000000" transform="translate(15.700000, 25.000000)">
                        <path d="M68.5171474,20.3682065 L63.4828522,20.3682065 C62.6635775,20.3682065 62,19.5321826 62,18.5 C62,17.4678174 62.6635775,16.6317935 63.4828522,16.6317935 L68.5171474,16.6317935 C69.3364221,16.6317935 70,17.4678174 70,18.5 C70,19.5321826 69.3364221,20.3682065 68.5171474,20.3682065 Z" id="Path"></path>
                        <path d="M43.4286136,20.3682065 L17.5713865,20.3682065 C16.7031967,20.3682065 16,19.5321826 16,18.5 C16,17.4678174 16.7031967,16.6317935 17.5713865,16.6317935 L43.4286136,16.6317935 C44.2968034,16.6317935 45,17.4678174 45,18.5 C45,19.5321826 44.2968034,20.3682065 43.4286136,20.3682065 Z" id="Path"></path>
                        <path d="M7.41479637,20.3682065 L1.58520364,20.3682065 C0.709379895,20.3682065 0,19.5321826 0,18.5 C0,17.4678174 0.709379895,16.6317935 1.58520364,16.6317935 L7.41479637,16.6317935 C8.29062011,16.6317935 9,17.4678174 9,18.5 C9,19.5321826 8.29062011,20.3682065 7.41479637,20.3682065 Z" id="Path"></path>
                        <path d="M40.4195508,30.3682065 L20.5764136,30.3682065 C19.7054463,30.3682065 19,29.5321826 19,28.5 C19,27.4678174 19.7054463,26.6317935 20.5764136,26.6317935 L40.4235864,26.6317935 C41.2945537,26.6317935 42,27.4678174 42,28.5 C41.9960582,29.5321826 41.2906189,30.3682065 40.4196517,30.3682065 L40.4195508,30.3682065 Z" id="Path"></path>
                        <path d="M52.4512566,40.3682065 L4.5487435,40.3682065 C3.69306396,40.3682065 3,39.5321826 3,38.5 C3,37.4678174 3.69306396,36.6317935 4.5487435,36.6317935 L52.4512566,36.6317935 C53.3069361,36.6317935 54,37.4678174 54,38.5 C54,39.5321826 53.3069361,40.3682065 52.4512566,40.3682065 Z" id="Path"></path>
                        <path d="M11.3847246,50.3682065 L3.61527546,50.3682065 C2.72283706,50.3682065 2,49.5321825 2,48.5 C2,47.467817 2.72283706,46.6317935 3.61527546,46.6317935 L11.3847246,46.6317935 C12.277163,46.6317935 13,47.467817 13,48.5 C13,49.5321825 12.277163,50.3682065 11.3847246,50.3682065 Z" id="Path"></path>
                        <path d="M47.4456174,50.3682065 L23.5543827,50.3682065 C22.6955875,50.3682065 22,49.5321825 22,48.5 C22,47.467817 22.6955875,46.6317935 23.5543827,46.6317935 L47.4456174,46.6317935 C48.3044126,46.6317935 49,47.467817 49,48.5 C49,49.5321825 48.3044126,50.3682065 47.4456174,50.3682065 Z" id="Path"></path>
                        <path d="M66.4654795,50.3682065 L60.5345205,50.3682065 C59.6866991,50.3682065 59,49.5321825 59,48.5 C59,47.467817 59.6866991,46.6317935 60.5345205,46.6317935 L66.4654795,46.6317935 C67.3133009,46.6317935 68,47.467817 68,48.5 C68,49.5321825 67.3133009,50.3682065 66.4654795,50.3682065 Z" id="Path"></path>
                        <path d="M66.4890111,40.3682065 L58.5109893,40.3682065 C57.6761691,40.3682065 57,39.5321826 57,38.5 C57,37.4678174 57.6761691,36.6317935 58.5109893,36.6317935 L66.4890111,36.6317935 C67.3238313,36.6317935 68,37.4678174 68,38.5 C68,39.5321826 67.3238313,40.3682065 66.4890111,40.3682065 Z" id="Path"></path>
                        <path d="M67.4144039,30.3682065 L47.5815472,30.3682065 C46.7077436,30.3682065 46,29.5321826 46,28.5 C46,27.4678174 46.7077436,26.6317935 47.5815472,26.6317935 L67.4184528,26.6317935 C68.2922564,26.6317935 69,27.4678174 69,28.5 C68.9960464,29.5321826 68.2883087,30.3682065 67.4145051,30.3682065 L67.4144039,30.3682065 Z" id="Path"></path>
                        <path d="M12.5,40 C11.5408,40 10.7638889,39.2489833 10.7638889,38.3217535 L10.7638889,9.67824655 C10.7638889,8.75101667 11.5408,8 12.5,8 C13.4592,8 14.2361111,8.75101667 14.2361111,9.67824655 L14.2361111,38.3217535 C14.2361111,39.2489833 13.4592,40 12.5,40 Z" id="Path"></path>
                        <path d="M53.5,30 C52.5407998,30 51.7638887,29.2421749 51.7638887,28.306539 L51.7638887,1.69346098 C51.7638887,0.757825143 52.5407998,0 53.5,0 C54.4591998,0 55.2361113,0.757825143 55.2361113,1.69346098 L55.2361113,28.306539 C55.2361113,29.2421749 54.4548553,30 53.5,30 Z" id="Path"></path>
                        <path d="M12.8039161,15.9998989 C12.4039134,15.9998989 12.0077606,15.8336666 11.7077365,15.5053618 L7.4423542,10.8301119 C6.84619514,10.1776514 6.85388506,9.12204177 7.45773793,8.4779648 C8.06158691,7.83381331 9.03854849,7.84212227 9.6346386,8.49458802 L12.8577001,12.0270109 L16.4231146,8.49043885 C17.0500432,7.86706512 18.0231253,7.91278031 18.5961753,8.59017824 C19.1692548,9.26757616 19.1269456,10.3189941 18.503867,10.9381761 L13.8461128,15.5594871 C13.5499583,15.8545454 13.1768752,16 12.8037921,16 L12.8039161,15.9998989 Z" id="Path"></path>
                        <path d="M12.8039161,29.999899 C12.4039134,29.999899 12.0077606,29.8336667 11.7077365,29.5053619 L7.4423542,24.8301118 C6.84619514,24.1776514 6.85388506,23.1220418 7.45773793,22.4779648 C8.06158691,21.8338133 9.03854849,21.8421223 9.6346386,22.494588 L12.8577001,26.027011 L16.4231146,22.4904389 C17.0500432,21.8670651 18.0231253,21.9169401 18.5961753,22.5901782 C19.1692548,23.2675761 19.1269456,24.3189941 18.503867,24.9381761 L13.8461128,29.5594871 C13.5499583,29.8545454 13.1768752,30 12.8037921,30 L12.8039161,29.999899 Z" id="Path"></path>
                        <path d="M52.8039156,8.99989896 C52.4039128,8.99989896 52.00776,8.83366609 51.707736,8.5053601 L47.4423538,3.83009363 C46.8461952,3.1776309 46.8538848,2.12201754 47.4577389,1.47793828 C48.0615925,0.83385901 49.038549,0.84209352 49.6346394,1.49456156 L52.8577006,5.02699697 L56.423115,1.49041239 C57.0500433,0.867036431 58.0231255,0.916911615 58.5961753,1.59015212 C59.1692548,2.26755243 59.1269456,3.31897407 58.5038672,3.9381583 L53.8461134,8.55948556 C53.5499588,8.85454491 53.1730357,9 52.8037924,9 L52.8039156,8.99989896 Z" id="Path"></path>
                        <path d="M52.8039156,22.9998989 C52.4039128,22.9998989 52.00776,22.833666 51.707736,22.5053601 L47.4423538,17.8300936 C46.8461952,17.1776309 46.8538848,16.1220175 47.4577389,15.4779383 C48.0615925,14.833859 49.038549,14.8420935 49.6346394,15.4945616 L52.8577006,19.0269969 L56.423115,15.4904124 C57.0500433,14.8670364 58.0231255,14.9169116 58.5961753,15.5901521 C59.1692548,16.2675524 59.1269456,17.318974 58.5038672,17.9381583 L53.8461134,22.5594855 C53.5461089,22.8545449 53.1730357,23 52.8037924,23 L52.8039156,22.9998989 Z" id="Path"></path>
                    </g>
                </g>
            </g>
        </g>
    </g>
</svg>