<?xml version="1.0" encoding="UTF-8"?>
<svg width="3300px" height="2200px" viewBox="0 0 3300 2200" version="1.1" xmlns="http://www.w3.org/2000/svg" xmlns:xlink="http://www.w3.org/1999/xlink">
    <!-- Generator: Sketch 59.1 (86144) - https://sketch.com -->
    <title>filter</title>
    <desc>Created with Sketch.</desc>
    <g id="Page-1" stroke="none" stroke-width="1" fill="none" fill-rule="evenodd">
        <g id="filter">
            <g id="Notes">
                <rect id="artboard" fill="#FFFFFF" fill-rule="nonzero" x="0" y="0" width="3300" height="2200"></rect>
                <line x1="263" y1="292" x2="3036" y2="292" id="Path" stroke="#000000" stroke-width="0.5"></line>
                <text id="Weight/Scale-Variations" fill="#000000" font-family="Helvetica-Bold, Helvetica" font-size="13" font-weight="bold">
                    <tspan x="263" y="322">Weight/Scale Variations</tspan>
                </text>
                <text id="Ultralight" fill="#000000" font-family="Helvetica" font-size="13" font-weight="normal">
                    <tspan x="533.711" y="322">Ultralight</tspan>
                </text>
                <text id="Thin" fill="#000000" font-family="Helvetica" font-size="13" font-weight="normal">
                    <tspan x="843.422" y="322">Thin</tspan>
                </text>
                <text id="Light" fill="#000000" font-family="Helvetica" font-size="13" font-weight="normal">
                    <tspan x="1138.63" y="322">Light</tspan>
                </text>
                <text id="Regular" fill="#000000" font-family="Helvetica" font-size="13" font-weight="normal">
                    <tspan x="1426.84" y="322">Regular</tspan>
                </text>
                <text id="Medium" fill="#000000" font-family="Helvetica" font-size="13" font-weight="normal">
                    <tspan x="1723.06" y="322">Medium</tspan>
                </text>
                <text id="Semibold" fill="#000000" font-family="Helvetica" font-size="13" font-weight="normal">
                    <tspan x="2015.77" y="322">Semibold</tspan>
                </text>
                <text id="Bold" fill="#000000" font-family="Helvetica" font-size="13" font-weight="normal">
                    <tspan x="2326.48" y="322">Bold</tspan>
                </text>
                <text id="Heavy" fill="#000000" font-family="Helvetica" font-size="13" font-weight="normal">
                    <tspan x="2618.19" y="322">Heavy</tspan>
                </text>
                <text id="Black" fill="#000000" font-family="Helvetica" font-size="13" font-weight="normal">
                    <tspan x="2917.4" y="322">Black</tspan>
                </text>
                <line x1="263" y1="1903" x2="3036" y2="1903" id="Path" stroke="#000000" stroke-width="0.5"></line>
                <g id="Group" transform="translate(264.000000, 1918.000000)" fill="#000000" fill-rule="nonzero">
                    <path d="M8.24805,15.830078 C12.5547,15.830078 16.1387,12.25586 16.1387,7.94922 C16.1387,3.6426 12.5449,0.0684 8.23828,0.0684 C3.94141,0.0684 0.36719,3.6426 0.36719,7.94922 C0.36719,12.25586 3.95117,15.830078 8.24805,15.830078 Z M8.24805,14.345703 C4.70312,14.345703 1.87109,11.50391 1.87109,7.94922 C1.87109,4.3945 4.69336,1.5527 8.23828,1.5527 C11.793,1.5527 14.6348,4.3945 14.6445503,7.94922 C14.6543,11.50391 11.8027,14.345703 8.24805,14.345703 Z M8.22852,11.57227 C8.69727,11.57227 8.9707,11.25977 8.9707,10.74219 L8.9707,8.68164 L11.1973,8.68164 C11.6953,8.68164 12.0371,8.42773 12.0371,7.95898 C12.0371,7.48047 11.7148,7.2168 11.1973,7.2168 L8.9707,7.2168 L8.9707,4.9902 C8.9707,4.4727 8.69727,4.1504 8.22852,4.1504 C7.75977,4.1504 7.50586,4.4922 7.50586,4.9902 L7.50586,7.2168 L5.29883,7.2168 C4.78125,7.2168 4.44922,7.48047 4.44922,7.95898 C4.44922,8.42773 4.80078,8.68164 5.29883,8.68164 L7.50586,8.68164 L7.50586,10.74219 C7.50586,11.24023 7.75977,11.57227 8.22852,11.57227 Z" id="Shape"></path>
                </g>
                <g id="Group" transform="translate(282.506000, 1915.000000)" fill="#000000" fill-rule="nonzero">
                    <path d="M10.709,20.91016 C16.1582,20.91016 20.6699,16.39844 20.6699,10.94922 C20.6699,5.5098 16.1484,0.9883 10.6992,0.9883 C5.25977,0.9883 0.74805,5.5098 0.74805,10.94922 C0.74805,16.39844 5.26953,20.91016 10.709,20.91016 Z M10.709,19.25 C6.09961,19.25 2.41797,15.55859 2.41797,10.94922 C2.41797,6.3496 6.08984,2.6484 10.6992,2.6484 C15.3086,2.6484 19,6.3496 19.0098379,10.94922 C19.0195,15.55859 15.3184,19.25 10.709,19.25 Z M10.6895,15.58789 C11.207,15.58789 11.5195,15.22656 11.5195,14.66016 L11.5195,11.76953 L14.5762,11.76953 C15.123,11.76953 15.5039,11.48633 15.5039,10.96875 C15.5039,10.44141 15.1426,10.13867 14.5762,10.13867 L11.5195,10.13867 L11.5195,7.0723 C11.5195,6.4961 11.207,6.1445 10.6895,6.1445 C10.1719,6.1445 9.8789,6.5156 9.8789,7.0723 L9.8789,10.13867 L6.83203,10.13867 C6.26562,10.13867 5.89453,10.44141 5.89453,10.96875 C5.89453,11.48633 6.28516,11.76953 6.83203,11.76953 L9.8789,11.76953 L9.8789,14.66016 C9.8789,15.20703 10.1719,15.58789 10.6895,15.58789 Z" id="Shape"></path>
                </g>
                <g id="Group" transform="translate(306.924000, 1913.000000)" fill="#000000" fill-rule="nonzero">
                    <path d="M12.9707,25.67383 C19.9336,25.67383 25.6953,19.921875 25.6953,12.95898 C25.6953,5.9961 19.9238,0.2441 12.9609,0.2441 C6.00781,0.2441 0.25586,5.9961 0.25586,12.95898 C0.25586,19.921875 6.01758,25.67383 12.9707,25.67383 Z M12.9707,23.85742 C6.93555,23.85742 2.08203,18.99414 2.08203,12.95898 C2.08203,6.9238 6.92578,2.0605 12.9609,2.0605 C19.0059,2.0605 23.8594,6.9238 23.8691295,12.95898 C23.8789,18.99414 19.0156,23.85742 12.9707,23.85742 Z M12.9512,18.93555 C13.5176,18.93555 13.8691,18.54492 13.8691,17.93945 L13.8691,13.86719 L18.1074,13.86719 C18.6934,13.86719 19.1133,13.53516 19.1133,12.97852 C19.1133,12.40234 18.7227,12.06055 18.1074,12.06055 L13.8691,12.06055 L13.8691,7.8125 C13.8691,7.1973 13.5176,6.8066 12.9512,6.8066 C12.3848,6.8066 12.0625,7.2168 12.0625,7.8125 L12.0625,12.06055 L7.83398,12.06055 C7.21875,12.06055 6.80859,12.40234 6.80859,12.97852 C6.80859,13.53516 7.23828,13.86719 7.83398,13.86719 L12.0625,13.86719 L12.0625,17.93945 C12.0625,18.52539 12.3848,18.93555 12.9512,18.93555 Z" id="Shape"></path>
                </g>
                <text id="Design-Variations" fill="#000000" font-family="Helvetica-Bold, Helvetica" font-size="13" font-weight="bold">
                    <tspan x="263" y="1953">Design Variations</tspan>
                </text>
                <text id="Symbols-are-supported-in-up-to-nine-weights-and-three-scales." fill="#000000" font-family="Helvetica" font-size="13" font-weight="normal">
                    <tspan x="263" y="1971">Symbols are supported in up to nine weights and three scales.</tspan>
                </text>
                <text id="For-optimal-layout-with-text-and-other-symbols,-vertically-align" fill="#000000" font-family="Helvetica" font-size="13" font-weight="normal">
                    <tspan x="263" y="1989">For optimal layout with text and other symbols, vertically align</tspan>
                </text>
                <text id="symbols-with-the-adjacent-text." fill="#000000" font-family="Helvetica" font-size="13" font-weight="normal">
                    <tspan x="263" y="2007">symbols with the adjacent text.</tspan>
                </text>
                <rect id="Rectangle" fill="#00AEEF" fill-rule="nonzero" opacity="0.4" x="776" y="1919" width="3" height="14"></rect>
                <g id="Group" transform="translate(779.000000, 1918.000000)" fill="#000000" fill-rule="nonzero">
                    <path d="M10.5273,15 L12.373,15 L7.17773,0.9082 L5.43945,0.9082 L0.244141,15 L2.08984,15 L3.50586,10.9668 L9.11133,10.9668 L10.5273,15 Z M6.2793,3.0469 L6.33789,3.0469 L8.59375,9.47266 L4.02344,9.47266 L6.2793,3.0469 Z" id="Shape"></path>
                </g>
                <rect id="Rectangle" fill="#00AEEF" fill-rule="nonzero" opacity="0.4" x="791.617" y="1919" width="3" height="14"></rect>
                <text id="Margins" fill="#000000" font-family="Helvetica-Bold, Helvetica" font-size="13" font-weight="bold">
                    <tspan x="776" y="1953">Margins</tspan>
                </text>
                <text id="Leading-and-trailing-margins-on-the-left-and-right-side-of-each-symbol" fill="#000000" font-family="Helvetica" font-size="13" font-weight="normal">
                    <tspan x="776" y="1971">Leading and trailing margins on the left and right side of each symbol</tspan>
                </text>
                <text id="can-be-adjusted-by-modifying-the-width-of-the-blue-rectangles." fill="#000000" font-family="Helvetica" font-size="13" font-weight="normal">
                    <tspan x="776" y="1989">can be adjusted by modifying the width of the blue rectangles.</tspan>
                </text>
                <text id="Modifications-are-automatically-applied-proportionally-to-all" fill="#000000" font-family="Helvetica" font-size="13" font-weight="normal">
                    <tspan x="776" y="2007">Modifications are automatically applied proportionally to all</tspan>
                </text>
                <text id="scales-and-weights." fill="#000000" font-family="Helvetica" font-size="13" font-weight="normal">
                    <tspan x="776" y="2025">scales and weights.</tspan>
                </text>
                <g id="Group" transform="translate(1291.000000, 1915.000000)" fill="#000000" fill-rule="nonzero">
                    <path d="M0.83203,21.11523 L2.375,22.6582 C3.22461,23.48828 4.19141,23.41992 5.06055,22.46289 L15.2754,11.33984 C15.7051,11.63281 16.0957,11.62305 16.5645,11.52539 L17.6094,11.31055 L18.3027,12.00391 L18.2539,12.52148 C18.1855,13.04883 18.3516,13.46875 18.8496,13.9668 L19.6602,14.77734 C20.168,15.28516 20.8223,15.31445 21.3008,14.83594 L24.5527,11.58398 C25.0312,11.10547 25.0117,10.45117 24.5039,9.94336 L23.6836,9.12305 C23.1855,8.625 22.7754,8.44922 22.2383,8.52734 L21.7109,8.58594 L21.0566,7.9219 L21.3398,6.7793 C21.4863,6.2129 21.3398,5.7441 20.7148,5.1387 L18.3027,2.7461 C14.7578,-0.7793 10.2266,-0.6719 7.11133,2.4629 C6.69141,2.8926 6.64258,3.4785 6.91602,3.9082 C7.15039,4.2793 7.62891,4.5039 8.2734,4.3379 C9.7871,3.957 11.3008,4.0742 12.7852,5.0801 L12.1602,6.6621 C11.9258,7.248 11.9453,7.7266 12.1797,8.16602 L1.01758,18.439453 C0.08008,19.30859 -0.02734,20.25586 0.83203,21.11523 Z M8.6738,2.8535 C11.3398,0.8613 14.6504,1.1738 17.0527,3.5859 L19.6797,6.1934 C19.9141,6.4277 19.9434,6.6133 19.8848,6.9062 L19.5039,8.46875 L21.0762,10.04102 L22.043,9.95312 C22.3262,9.92383 22.4141,9.94336 22.6387,10.16797 L23.2637,10.79297 L20.5098,13.53711 L19.8848,12.92188 C19.6602,12.69727 19.6406,12.59961 19.6699,12.31641 L19.7578,11.35938 L18.1953,9.79688 L16.5742,10.10938 C16.291,10.16797 16.1445,10.16797 15.9102,9.92383 L13.7324,7.7461 C13.5078,7.5117 13.4785,7.375 13.6055,7.0527 L14.5527,4.7773 C12.9512,3.2441 10.8418,2.3945 8.8008,3.0488 C8.7129,3.0781 8.6445,3.0586 8.6152,3.0195 C8.5859,2.9707 8.5859,2.9219 8.6738,2.8535 Z M2.10156,20.41211 C1.61328,19.91406 1.78906,19.61133 2.12109,19.30859 L13.0781,9.19141 L14.3086,10.42188 L4.15234,21.34961 C3.84961,21.68164 3.46875,21.7793 3.06836,21.37891 L2.10156,20.41211 Z" id="Shape"></path>
                </g>
                <text id="Exporting" fill="#000000" font-family="Helvetica-Bold, Helvetica" font-size="13" font-weight="bold">
                    <tspan x="1289" y="1953">Exporting</tspan>
                </text>
                <text id="Symbols-should-be-outlined-when-exporting-to-ensure-the" fill="#000000" font-family="Helvetica" font-size="13" font-weight="normal">
                    <tspan x="1289" y="1971">Symbols should be outlined when exporting to ensure the</tspan>
                </text>
                <text id="design-is-preserved-when-submitting-to-Xcode." fill="#000000" font-family="Helvetica" font-size="13" font-weight="normal">
                    <tspan x="1289" y="1989">design is preserved when submitting to Xcode.</tspan>
                </text>
                <text id="Template-v.1.0" fill="#000000" font-family="Helvetica" font-size="13" font-weight="normal">
                    <tspan x="2952" y="1933">Template v.1.0</tspan>
                </text>
                <text id="Generated-from-circle" fill="#000000" font-family="Helvetica" font-size="13" font-weight="normal">
                    <tspan x="2911" y="1951">Generated from circle</tspan>
                </text>
                <text id="Typeset-at-100-points" fill="#000000" font-family="Helvetica" font-size="13" font-weight="normal">
                    <tspan x="2912" y="1969">Typeset at 100 points</tspan>
                </text>
                <text id="Small" fill="#000000" font-family="Helvetica" font-size="13" font-weight="normal">
                    <tspan x="263" y="726">Small</tspan>
                </text>
                <text id="Medium" fill="#000000" font-family="Helvetica" font-size="13" font-weight="normal">
                    <tspan x="263" y="1156">Medium</tspan>
                </text>
                <text id="Large" fill="#000000" font-family="Helvetica" font-size="13" font-weight="normal">
                    <tspan x="263" y="1586">Large</tspan>
                </text>
            </g>
            <g id="Guides" transform="translate(263.000000, 625.000000)">
                <g id="H-reference" transform="translate(76.000000, 0.000000)" fill="#27AAE1" fill-rule="nonzero">
                    <path d="M54.9316,71 L57.666,71 L30.5664,0.541 L28.0762,0.541 L0.976562,71 L3.66211,71 L12.9395,46.5371 L45.7031,46.5371 L54.9316,71 Z M29.1992,3.9102 L29.4434,3.9102 L44.8242,44.291 L13.8184,44.291 L29.1992,3.9102 Z" id="Shape"></path>
                </g>
                <line x1="0" y1="71" x2="2773" y2="71" id="Baseline-S" stroke="#27AAE1" stroke-width="0.577"></line>
                <line x1="0" y1="0.541" x2="2773" y2="0.541" id="Capline-S" stroke="#27AAE1" stroke-width="0.577"></line>
                <g id="H-reference" transform="translate(76.000000, 430.000000)" fill="#27AAE1" fill-rule="nonzero">
                    <path d="M54.9316,71 L57.666,71 L30.5664,0.541 L28.0762,0.541 L0.976562,71 L3.66211,71 L12.9395,46.5371 L45.7031,46.5371 L54.9316,71 Z M29.1992,3.9102 L29.4434,3.9102 L44.8242,44.291 L13.8184,44.291 L29.1992,3.9102 Z" id="Shape"></path>
                </g>
                <line x1="0" y1="501" x2="2773" y2="501" id="Baseline-M" stroke="#27AAE1" stroke-width="0.577"></line>
                <line x1="0" y1="430.54" x2="2773" y2="430.54" id="Capline-M" stroke="#27AAE1" stroke-width="0.577"></line>
                <g id="H-reference" transform="translate(76.000000, 860.000000)" fill="#27AAE1" fill-rule="nonzero">
                    <path d="M54.9316,71 L57.666,71 L30.5664,0.541 L28.0762,0.541 L0.976562,71 L3.66211,71 L12.9395,46.5371 L45.7031,46.5371 L54.9316,71 Z M29.1992,3.9102 L29.4434,3.9102 L44.8242,44.291 L13.8184,44.291 L29.1992,3.9102 Z" id="Shape"></path>
                </g>
                <line x1="0" y1="931" x2="2773" y2="931" id="Baseline-L" stroke="#27AAE1" stroke-width="0.577"></line>
                <line x1="0" y1="860.54" x2="2773" y2="860.54" id="Capline-L" stroke="#27AAE1" stroke-width="0.577"></line>
                <rect id="left-margin" fill="#00AEEF" fill-rule="nonzero" opacity="0.4" x="1128.3" y="405.79" width="8.74023" height="119.336"></rect>
                <rect id="right-margin" fill="#00AEEF" fill-rule="nonzero" opacity="0.4" x="1236.65" y="405.79" width="8.74023" height="119.336"></rect>
            </g>
            <g id="Symbols" transform="translate(1399.000000, 1040.000000)" fill-rule="nonzero">
                <g id="Regular-M" transform="translate(0.300000, 0.000000)">
                    <path d="M50.5449,100.5508 C77.791,100.5508 100.35,77.99219 100.35,50.7461 C100.35,23.5488 77.7422,0.9414 50.4961,0.9414 C23.2988,0.9414 0.74023,23.5488 0.74023,50.7461 C0.74023,77.99219 23.3477,100.5508 50.5449,100.5508 Z M50.1551,92.0078 C27.1082,92.0078 8.7,73.5508 8.7,50.5039 C8.7,27.5058 27.0594,9 50.1063,9 C73.1532,9 91.6102,27.5058 91.6593938,50.5039 C91.7082,73.5508 73.202,92.0078 50.1551,92.0078 Z" id="Shape" fill="#000000"></path>
                    <path d="M42.1789521,38.4866573 C46.181048,40.6549209 46.8369099,41.3196766 48.0950938,42.0558154 C49.3488162,42.7964157 50.3660713,43.1801002 51.9499554,43.8716246 C53.5338395,44.5586876 54.2521644,45.1431372 58.2854918,48.4624543 C60.8553995,50.7065625 62.5017467,52.5446789 63.9963978,55.7033839 C65.7587478,58.6657851 65.6115135,59.4822301 66.4190713,62.0564854 C67.1329345,64.1221356 68.2706541,66.4197812 68.6900487,67.1336128 C69.1049818,67.8474445 67.7040251,67.5663732 67.7040251,67.5663732 C68.0029554,68.4318941 68.359887,69.2260318 71.6481196,71.5459846 C74.8738892,73.9150133 77.6847258,75.8825117 78.1353519,76.5204987 C78.5815165,77.1584858 79.4515373,78.456767 79.656773,78.9162961 C79.8664703,79.3758253 79.2686099,79.7327411 78.8224453,79.5542832 C78.3762808,79.3758253 77.3857955,78.9162961 77.3857955,78.9162961 C78.0148875,79.9647363 77.4482586,80.1655015 76.8503981,79.862123 C76.2525376,79.5542832 75.9223758,79.5052072 75.9223758,79.5052072 C75.9803772,80.2190389 75.1728194,79.9870436 74.9363522,79.862123 L74.4589562,79.6078205 C74.2180273,80.1164256 73.7986327,80.040581 72.7858392,79.3758253 C71.8578169,79.8353544 70.7513289,79.1973673 69.2611394,78.0507753 C67.7620265,76.9041832 64.8039557,72.2062788 64.0276294,71.421064 C63.2513031,70.6269264 63.1620702,70.7295397 62.2340479,70.5510817 C61.3060257,70.3726238 59.842606,69.8640188 59.3919799,69.7123296 C58.9458153,69.5561789 56.5231419,69.1501872 56.5231419,69.1501872 C56.1662103,70.7295397 55.0284907,71.5459846 54.760792,71.8270558 C54.4930933,72.108127 54.5510947,72.5944248 54.9392578,72.8710345 C55.7468156,73.4599456 55.9565129,73.7633241 55.238188,73.7633241 C54.5243248,73.7633241 51.414558,73.5848662 51.414558,73.5848662 C49.7102095,75.2936006 48.2110966,76.2617348 47.1983031,76.4178854 C46.181048,76.5695747 45.0745599,76.623112 45.0745599,76.623112 C42.8883537,77.2031002 39.7205855,77.3369437 39.7205855,77.3369437 C37.0614449,77.6135534 36.2271172,77.9169319 35.9861884,77.948162 C35.7452595,77.9749307 38.1099316,76.4669614 38.5873276,76.2394275 C39.0647237,76.0074323 39.1851881,75.0125294 39.1851881,75.0125294 C38.707792,74.5530003 38.3196289,74.4771557 39.0959552,74.450387 C39.8722815,74.4280798 42.4154193,74.1470086 42.4154193,74.1470086 C43.5754471,73.7142481 43.8476075,73.6607108 43.8476075,73.6607108 C44.6863968,73.7142481 46.1230466,73.6607108 46.1230466,73.6607108 C46.5379796,73.5580975 46.6272125,73.2770263 46.2702809,73.1788744 C45.9133493,73.0762611 42.9508168,73.1253371 42.9508168,73.1253371 C43.2809785,72.8978032 44.6551653,72.7951899 45.1637929,72.616732 C45.6724204,72.4382741 46.4487467,72.3088921 46.4487467,72.3088921 L49.5852834,72.2330475 C49.9154451,72.0545896 50.2411453,69.377721 50.2411453,69.377721 C48.3583309,68.3560495 47.1358401,64.7110467 47.1358401,64.7110467 C44.2045391,62.1055613 42.5001906,60.1960617 41.4829354,58.9200876 C40.4656803,57.6441136 35.9237254,50.3719539 34.8172373,46.4458799 C33.7107493,42.519806 32.9924244,39.3521781 34.0141411,36.9028434 C35.0269346,34.4535086 37.953774,32.8741561 37.953774,32.8741561 C38.1947028,32.7224669 38.43117,31.906022 37.6280739,30.6300479 C36.8205161,29.3540739 36.2851186,28.8187002 34.8752387,28.1807132 C30.5786742,26.1909075 29.5034177,25.5038445 29.5034177,25.5038445 C27.7990692,25.249542 26.1259522,24.7632442 25.8850233,24.7141683 C24.6333089,24.5784112 23.3773934,24.4846682 22.1193947,24.4330971 C21.8516959,24.4330971 21.7,24.6873996 21.7,24.6873996 C21.7,23.8218788 22.5075578,22.9295892 24.1806748,23.1571231 C26.0054878,23.5631148 27.7678377,23.8218788 29.713115,23.3846569 C31.5959294,22.9518965 32.581953,22.2112962 35.9594185,22.0328383 C38.707792,21.8276117 41.5453985,22.568212 43.3434416,24.7097069 C45.0745599,25.298618 46.9886058,25.4503072 46.9886058,25.4503072 C46.747677,25.5306132 45.8508862,25.5796892 45.8508862,25.5796892 C46.4175152,25.807223 46.8681414,25.7849157 46.8681414,25.7849157 C46.2122795,26.2444449 45.7616533,26.2176762 45.7616533,26.2176762 C46.747677,26.6504366 47.6132361,26.1686002 47.6132361,26.1686002 C47.4972334,26.4719787 47.0153757,26.5478233 47.0153757,26.5478233 C47.5240032,26.7798186 47.6132361,26.8065873 47.6132361,26.8065873 C46.81014,26.6013607 45.9401191,26.6013607 45.9401191,26.6013607 C47.5552348,27.4668815 48.7197242,27.4936502 48.7197242,27.4936502 C48.0055347,27.4927622 47.2935167,27.4149822 46.595981,27.2616549 C46.7744468,27.5694948 48.1798651,27.9531793 48.1798651,27.9531793 L46.5379796,27.6988768 C47.3143059,28.2565578 48.0013993,28.6402423 49.6477464,28.3100951 C49.1391189,28.7160869 47.2563045,28.6134736 46.747677,28.4127084 C47.8809349,29.0506954 49.0766558,29.2291534 49.0766558,29.2291534 C48.6647642,29.2241839 48.2535468,29.1943868 47.8452417,29.1399244 C48.1843268,29.4433028 49.0945024,29.514686 49.0945024,29.514686 C48.9249599,29.5325318 48.3538693,29.5503776 48.3538693,29.5503776 C48.4687879,29.764628 48.6096455,29.9639176 48.7732639,30.1437501 C48.6884927,30.1080585 48.269098,29.7154512 47.4213854,29.5682234 C47.778317,30.2195947 49.0498859,30.670201 49.0498859,30.670201 C48.3208331,30.6154909 47.633331,30.3095975 47.1046086,29.8046801 C47.2917509,30.1650753 47.5426867,30.4885565 47.8452417,30.7594299 C47.5061567,30.6523552 46.6182892,29.8225259 46.6182892,29.8225259 C46.9356346,30.4934985 47.4429125,31.0565985 48.0772473,31.4420314 C47.3812306,31.2635735 46.81014,30.6122021 46.81014,30.6122021 C47.0644538,31.3706482 47.4035388,31.6383351 47.4035388,31.6383351 C47.2964593,31.6249508 46.7253687,31.2278819 46.7253687,31.2278819 C46.81014,31.4955688 47.1715333,32.0398654 47.1715333,32.0398654 L46.747677,31.6963339 L46.747677,32.7760043 C46.6227509,32.7581585 46.2212028,32.2540149 46.2212028,32.2540149 C45.966889,32.8340031 45.690267,33.1909189 45.627804,33.3203009 C45.5608793,33.4452214 44.9094791,33.6772167 44.9094791,33.6772167 C43.7226814,35.6268693 43.450521,36.1667045 43.3032867,36.6217722 C43.1560525,37.0679169 42.4555741,37.6479051 42.2860316,37.8799004 C42.1164891,38.1163571 42.1744905,38.4866573 42.1744905,38.4866573 L42.1789521,38.4866573 Z" id="Path" fill="#020102"></path>
                </g>
            </g>
        </g>
    </g>
</svg>