<?xml version="1.0" encoding="UTF-8"?>
<!--Generator: Apple Native CoreSVG 341-->
<!DOCTYPE svg
PUBLIC "-//W3C//DTD SVG 1.1//EN"
       "http://www.w3.org/Graphics/SVG/1.1/DTD/svg11.dtd">
<svg version="1.1" xmlns="http://www.w3.org/2000/svg" xmlns:xlink="http://www.w3.org/1999/xlink" viewBox="0 0 3300 2200">
 <!--glyph: "", point size: 100.0, font version: "20.0d10e1", template writer version: "138.0.0"-->
 <style>.monochrome-0 {-sfsymbols-motion-group:1;-sfsymbols-layer-tags:7736a4e2d232e42d}
.monochrome-1 {-sfsymbols-motion-group:0;-sfsymbols-layer-tags:7736a4e2d232e42d}

.multicolor-0:tintColor {-sfsymbols-motion-group:1;-sfsymbols-layer-tags:7736a4e2d232e42d}
.multicolor-1:tintColor {-sfsymbols-motion-group:0;-sfsymbols-layer-tags:7736a4e2d232e42d}

.hierarchical-0:primary {-sfsymbols-motion-group:1;-sfsymbols-layer-tags:7736a4e2d232e42d}
.hierarchical-1:tertiary {-sfsymbols-motion-group:0;-sfsymbols-layer-tags:7736a4e2d232e42d}

.SFSymbolsPreviewWireframe {fill:none;opacity:1.0;stroke:black;stroke-width:0.5}
</style>
 <g id="Notes">
  <rect height="2200" id="artboard" style="fill:white;opacity:1" width="3300" x="0" y="0"/>
  <line style="fill:none;stroke:black;opacity:1;stroke-width:0.5;" x1="263" x2="3036" y1="292" y2="292"/>
  <text style="stroke:none;fill:black;font-family:sans-serif;font-size:13;font-weight:bold;" transform="matrix(1 0 0 1 263 322)">Weight/Scale Variations</text>
  <text style="stroke:none;fill:black;font-family:sans-serif;font-size:13;text-anchor:middle;" transform="matrix(1 0 0 1 559.711 322)">Ultralight</text>
  <text style="stroke:none;fill:black;font-family:sans-serif;font-size:13;text-anchor:middle;" transform="matrix(1 0 0 1 856.422 322)">Thin</text>
  <text style="stroke:none;fill:black;font-family:sans-serif;font-size:13;text-anchor:middle;" transform="matrix(1 0 0 1 1153.13 322)">Light</text>
  <text style="stroke:none;fill:black;font-family:sans-serif;font-size:13;text-anchor:middle;" transform="matrix(1 0 0 1 1449.84 322)">Regular</text>
  <text style="stroke:none;fill:black;font-family:sans-serif;font-size:13;text-anchor:middle;" transform="matrix(1 0 0 1 1746.56 322)">Medium</text>
  <text style="stroke:none;fill:black;font-family:sans-serif;font-size:13;text-anchor:middle;" transform="matrix(1 0 0 1 2043.27 322)">Semibold</text>
  <text style="stroke:none;fill:black;font-family:sans-serif;font-size:13;text-anchor:middle;" transform="matrix(1 0 0 1 2339.98 322)">Bold</text>
  <text style="stroke:none;fill:black;font-family:sans-serif;font-size:13;text-anchor:middle;" transform="matrix(1 0 0 1 2636.69 322)">Heavy</text>
  <text style="stroke:none;fill:black;font-family:sans-serif;font-size:13;text-anchor:middle;" transform="matrix(1 0 0 1 2933.4 322)">Black</text>
  <line style="fill:none;stroke:black;opacity:1;stroke-width:0.5;" x1="263" x2="3036" y1="1903" y2="1903"/>
  <g transform="matrix(0.2 0 0 0.2 263 1933)">
   <path d="m46.2402 4.15039c21.7773 0 39.4531-17.627 39.4531-39.4043s-17.6758-39.4043-39.4531-39.4043c-21.7285 0-39.4043 17.627-39.4043 39.4043s17.6758 39.4043 39.4043 39.4043Zm0-7.42188c-17.6758 0-31.9336-14.3066-31.9336-31.9824s14.2578-31.9824 31.9336-31.9824 31.9824 14.3066 31.9824 31.9824-14.3066 31.9824-31.9824 31.9824Zm-17.9688-31.9824c0 2.14844 1.51367 3.61328 3.75977 3.61328h10.498v10.5957c0 2.19727 1.46484 3.71094 3.61328 3.71094 2.24609 0 3.71094-1.51367 3.71094-3.71094v-10.5957h10.5957c2.19727 0 3.71094-1.46484 3.71094-3.61328 0-2.19727-1.51367-3.71094-3.71094-3.71094h-10.5957v-10.5469c0-2.24609-1.46484-3.75977-3.71094-3.75977-2.14844 0-3.61328 1.51367-3.61328 3.75977v10.5469h-10.498c-2.24609 0-3.75977 1.51367-3.75977 3.71094Z"/>
  </g>
  <g transform="matrix(0.2 0 0 0.2 281.506 1933)">
   <path d="m58.5449 14.5508c27.4902 0 49.8047-22.3145 49.8047-49.8047s-22.3145-49.8047-49.8047-49.8047-49.8047 22.3145-49.8047 49.8047 22.3145 49.8047 49.8047 49.8047Zm0-8.30078c-22.9492 0-41.5039-18.5547-41.5039-41.5039s18.5547-41.5039 41.5039-41.5039 41.5039 18.5547 41.5039 41.5039-18.5547 41.5039-41.5039 41.5039Zm-22.6562-41.5039c0 2.39258 1.66016 4.00391 4.15039 4.00391h14.3555v14.4043c0 2.44141 1.66016 4.15039 4.05273 4.15039 2.44141 0 4.15039-1.66016 4.15039-4.15039v-14.4043h14.4043c2.44141 0 4.15039-1.61133 4.15039-4.00391 0-2.44141-1.70898-4.15039-4.15039-4.15039h-14.4043v-14.3555c0-2.49023-1.70898-4.19922-4.15039-4.19922-2.39258 0-4.05273 1.70898-4.05273 4.19922v14.3555h-14.3555c-2.49023 0-4.15039 1.70898-4.15039 4.15039Z"/>
  </g>
  <g transform="matrix(0.2 0 0 0.2 304.924 1933)">
   <path d="m74.8535 28.3203c35.1074 0 63.623-28.4668 63.623-63.5742s-28.5156-63.623-63.623-63.623-63.5742 28.5156-63.5742 63.623 28.4668 63.5742 63.5742 63.5742Zm0-9.08203c-30.127 0-54.4922-24.3652-54.4922-54.4922s24.3652-54.4922 54.4922-54.4922 54.4922 24.3652 54.4922 54.4922-24.3652 54.4922-54.4922 54.4922Zm-28.8574-54.4922c0 2.58789 1.85547 4.39453 4.58984 4.39453h19.7266v19.7754c0 2.68555 1.85547 4.58984 4.44336 4.58984 2.68555 0 4.54102-1.85547 4.54102-4.58984v-19.7754h19.7754c2.68555 0 4.58984-1.80664 4.58984-4.39453 0-2.73438-1.85547-4.58984-4.58984-4.58984h-19.7754v-19.7266c0-2.73438-1.85547-4.63867-4.54102-4.63867-2.58789 0-4.44336 1.9043-4.44336 4.63867v19.7266h-19.7266c-2.73438 0-4.58984 1.85547-4.58984 4.58984Z"/>
  </g>
  <text style="stroke:none;fill:black;font-family:sans-serif;font-size:13;font-weight:bold;" transform="matrix(1 0 0 1 263 1953)">Design Variations</text>
  <text style="stroke:none;fill:black;font-family:sans-serif;font-size:13;" transform="matrix(1 0 0 1 263 1971)">Symbols are supported in up to nine weights and three scales.</text>
  <text style="stroke:none;fill:black;font-family:sans-serif;font-size:13;" transform="matrix(1 0 0 1 263 1989)">For optimal layout with text and other symbols, vertically align</text>
  <text style="stroke:none;fill:black;font-family:sans-serif;font-size:13;" transform="matrix(1 0 0 1 263 2007)">symbols with the adjacent text.</text>
  <line style="fill:none;stroke:#00AEEF;stroke-width:0.5;opacity:1.0;" x1="776" x2="776" y1="1919" y2="1933"/>
  <g transform="matrix(0.2 0 0 0.2 776 1933)">
   <path d="m16.5527 0.78125c2.58789 0 3.85742-0.976562 4.78516-3.71094l6.29883-17.2363h28.8086l6.29883 17.2363c0.927734 2.73438 2.19727 3.71094 4.73633 3.71094 2.58789 0 4.24805-1.5625 4.24805-4.00391 0-0.830078-0.146484-1.61133-0.537109-2.63672l-22.9004-60.9863c-1.12305-2.97852-3.125-4.49219-6.25-4.49219-3.02734 0-5.07812 1.46484-6.15234 4.44336l-22.9004 61.084c-0.390625 1.02539-0.537109 1.80664-0.537109 2.63672 0 2.44141 1.5625 3.95508 4.10156 3.95508Zm13.4766-28.3691 11.8652-32.8613h0.244141l11.8652 32.8613Z"/>
  </g>
  <line style="fill:none;stroke:#00AEEF;stroke-width:0.5;opacity:1.0;" x1="792.836" x2="792.836" y1="1919" y2="1933"/>
  <text style="stroke:none;fill:black;font-family:sans-serif;font-size:13;font-weight:bold;" transform="matrix(1 0 0 1 776 1953)">Margins</text>
  <text style="stroke:none;fill:black;font-family:sans-serif;font-size:13;" transform="matrix(1 0 0 1 776 1971)">Leading and trailing margins on the left and right side of each symbol</text>
  <text style="stroke:none;fill:black;font-family:sans-serif;font-size:13;" transform="matrix(1 0 0 1 776 1989)">can be adjusted by modifying the x-location of the margin guidelines.</text>
  <text style="stroke:none;fill:black;font-family:sans-serif;font-size:13;" transform="matrix(1 0 0 1 776 2007)">Modifications are automatically applied proportionally to all</text>
  <text style="stroke:none;fill:black;font-family:sans-serif;font-size:13;" transform="matrix(1 0 0 1 776 2025)">scales and weights.</text>
  <g transform="matrix(0.2 0 0 0.2 1289 1933)">
   <path d="m14.209 9.32617 8.49609 8.54492c4.29688 4.3457 9.22852 4.05273 13.8672-1.07422l53.4668-58.9355-4.83398-4.88281-53.0762 58.3984c-1.75781 2.00195-3.41797 2.49023-5.76172 0.146484l-5.85938-5.81055c-2.34375-2.29492-1.80664-4.00391 0.195312-5.81055l57.373-54.0039-4.88281-4.83398-57.959 54.4434c-4.93164 4.58984-5.32227 9.47266-1.02539 13.8184Zm32.0801-90.9668c-2.09961 2.05078-2.24609 4.93164-1.07422 6.88477 1.17188 1.80664 3.4668 2.97852 6.68945 2.14844 7.32422-1.70898 14.9414-2.00195 22.0703 2.68555l-2.92969 7.27539c-1.70898 4.15039-0.830078 7.08008 1.85547 9.81445l11.4746 11.5723c2.44141 2.44141 4.49219 2.53906 7.32422 2.05078l5.32227-0.976562 3.32031 3.36914-0.195312 2.7832c-0.195312 2.49023 0.439453 4.39453 2.88086 6.78711l3.80859 3.71094c2.39258 2.39258 5.46875 2.53906 7.8125 0.195312l14.5508-14.5996c2.34375-2.34375 2.24609-5.32227-0.146484-7.71484l-3.85742-3.80859c-2.39258-2.39258-4.24805-3.17383-6.64062-2.97852l-2.88086 0.244141-3.22266-3.17383 1.2207-5.61523c0.634766-2.83203-0.146484-5.0293-3.07617-7.95898l-10.9863-10.9375c-16.6992-16.6016-38.8672-16.2109-53.3203-1.75781Zm7.4707 1.85547c12.1582-8.88672 28.6133-7.37305 39.7461 3.75977l12.1582 12.0605c1.17188 1.17188 1.36719 2.09961 1.02539 3.80859l-1.61133 7.42188 7.51953 7.42188 4.93164-0.292969c1.26953-0.0488281 1.66016 0.0488281 2.63672 1.02539l2.88086 2.88086-12.207 12.207-2.88086-2.88086c-0.976562-0.976562-1.12305-1.36719-1.07422-2.68555l0.341797-4.88281-7.4707-7.42188-7.61719 1.26953c-1.61133 0.341797-2.34375 0.195312-3.56445-0.976562l-10.0098-10.0098c-1.26953-1.17188-1.41602-2.00195-0.634766-3.85742l4.39453-10.4492c-7.8125-7.27539-17.9688-10.4004-28.125-7.42188-0.78125 0.195312-1.07422-0.439453-0.439453-0.976562Z"/>
  </g>
  <text style="stroke:none;fill:black;font-family:sans-serif;font-size:13;font-weight:bold;" transform="matrix(1 0 0 1 1289 1953)">Exporting</text>
  <text style="stroke:none;fill:black;font-family:sans-serif;font-size:13;" transform="matrix(1 0 0 1 1289 1971)">Symbols should be outlined when exporting to ensure the</text>
  <text style="stroke:none;fill:black;font-family:sans-serif;font-size:13;" transform="matrix(1 0 0 1 1289 1989)">design is preserved when submitting to Xcode.</text>
  <text id="template-version" style="stroke:none;fill:black;font-family:sans-serif;font-size:13;text-anchor:end;" transform="matrix(1 0 0 1 3036 1933)">Template v.6.0</text>
  <text style="stroke:none;fill:black;font-family:sans-serif;font-size:13;text-anchor:end;" transform="matrix(1 0 0 1 3036 1951)">Requires Xcode 16 or greater</text>
  <text id="descriptive-name" style="stroke:none;fill:black;font-family:sans-serif;font-size:13;text-anchor:end;" transform="matrix(1 0 0 1 3036 1969)">Generated from filtervogelgruppe-33</text>
  <text style="stroke:none;fill:black;font-family:sans-serif;font-size:13;text-anchor:end;" transform="matrix(1 0 0 1 3036 1987)">Typeset at 100.0 points</text>
  <text style="stroke:none;fill:black;font-family:sans-serif;font-size:13;" transform="matrix(1 0 0 1 263 726)">Small</text>
  <text style="stroke:none;fill:black;font-family:sans-serif;font-size:13;" transform="matrix(1 0 0 1 263 1156)">Medium</text>
  <text style="stroke:none;fill:black;font-family:sans-serif;font-size:13;" transform="matrix(1 0 0 1 263 1586)">Large</text>
 </g>
 <g id="Guides">
  <g id="H-reference" style="fill:#27AAE1;stroke:none;" transform="matrix(1 0 0 1 339 696)">
   <path d="M0.993654 0L3.63775 0L29.3281-67.1323L30.0303-67.1323L30.0303-70.459L28.1226-70.459ZM11.6885-24.4799L46.9815-24.4799L46.2315-26.7285L12.4385-26.7285ZM55.1196 0L57.7637 0L30.6382-70.459L29.4326-70.459L29.4326-67.1323Z"/>
  </g>
  <line id="Baseline-S" style="fill:none;stroke:#27AAE1;opacity:1;stroke-width:0.5;" x1="263" x2="3036" y1="696" y2="696"/>
  <line id="Capline-S" style="fill:none;stroke:#27AAE1;opacity:1;stroke-width:0.5;" x1="263" x2="3036" y1="625.541" y2="625.541"/>
  <g id="H-reference" style="fill:#27AAE1;stroke:none;" transform="matrix(1 0 0 1 339 1126)">
   <path d="M0.993654 0L3.63775 0L29.3281-67.1323L30.0303-67.1323L30.0303-70.459L28.1226-70.459ZM11.6885-24.4799L46.9815-24.4799L46.2315-26.7285L12.4385-26.7285ZM55.1196 0L57.7637 0L30.6382-70.459L29.4326-70.459L29.4326-67.1323Z"/>
  </g>
  <line id="Baseline-M" style="fill:none;stroke:#27AAE1;opacity:1;stroke-width:0.5;" x1="263" x2="3036" y1="1126" y2="1126"/>
  <line id="Capline-M" style="fill:none;stroke:#27AAE1;opacity:1;stroke-width:0.5;" x1="263" x2="3036" y1="1055.54" y2="1055.54"/>
  <g id="H-reference" style="fill:#27AAE1;stroke:none;" transform="matrix(1 0 0 1 339 1556)">
   <path d="M0.993654 0L3.63775 0L29.3281-67.1323L30.0303-67.1323L30.0303-70.459L28.1226-70.459ZM11.6885-24.4799L46.9815-24.4799L46.2315-26.7285L12.4385-26.7285ZM55.1196 0L57.7637 0L30.6382-70.459L29.4326-70.459L29.4326-67.1323Z"/>
  </g>
  <line id="Baseline-L" style="fill:none;stroke:#27AAE1;opacity:1;stroke-width:0.5;" x1="263" x2="3036" y1="1556" y2="1556"/>
  <line id="Capline-L" style="fill:none;stroke:#27AAE1;opacity:1;stroke-width:0.5;" x1="263" x2="3036" y1="1485.54" y2="1485.54"/>
  <line id="right-margin-Black-S" style="fill:none;stroke:#00AEEF;stroke-width:0.5;opacity:1.0;" x1="2982.23" x2="2982.23" y1="600.785" y2="720.121"/>
  <line id="left-margin-Black-S" style="fill:none;stroke:#00AEEF;stroke-width:0.5;opacity:1.0;" x1="2884.57" x2="2884.57" y1="600.785" y2="720.121"/>
  <line id="right-margin-Regular-S" style="fill:none;stroke:#00AEEF;stroke-width:0.5;opacity:1.0;" x1="1496.11" x2="1496.11" y1="600.785" y2="720.121"/>
  <line id="left-margin-Regular-S" style="fill:none;stroke:#00AEEF;stroke-width:0.5;opacity:1.0;" x1="1403.58" x2="1403.58" y1="600.785" y2="720.121"/>
  <line id="right-margin-Ultralight-S" style="fill:none;stroke:#00AEEF;stroke-width:0.5;opacity:1.0;" x1="603.773" x2="603.773" y1="600.785" y2="720.121"/>
  <line id="left-margin-Ultralight-S" style="fill:none;stroke:#00AEEF;stroke-width:0.5;opacity:1.0;" x1="515.649" x2="515.649" y1="600.785" y2="720.121"/>
 </g>
 <g id="Symbols">
  <g id="Black-S" transform="matrix(1 0 0 1 2884.57 696)">
   <path class="monochrome-0 multicolor-0:tintColor hierarchical-0:primary SFSymbolsPreviewWireframe" d="M54.413-4.72561C54.515-4.35195 54.6338-4.04198 54.6806-3.69804C54.6958-3.43301 54.6731-3.16692 54.6126-2.90826C54.5999-2.83607 54.4682-2.78087 54.4088-2.8106C54.3663-2.83607 54.3366-3.01866 54.3239-3.13755C54.2984-3.3074 54.3111-3.50697 54.2687-3.65558C54.2474-3.72777 54.1328-3.73201 54.0649-3.72777C53.9035-3.72352 53.7039-3.57066 53.5893-3.69804C53.2623-4.06321 52.9651-4.53029 52.6551-4.9634C52.5702-5.07804 52.4853-5.19269 52.4046-5.32007C52.0363-5.88517 51.6697-6.45132 51.3049-7.01853C51.0586-7.40069 50.8081-7.79133 50.566-8.19047C50.4302-8.41977 50.3282-8.74247 50.1754-8.89958C49.9404-9.131 49.6729-9.32703 49.3814-9.4813C49.1563-9.60869 49.0162-9.79552 48.9992-10.2541C48.9953-10.4703 48.967-10.6854 48.9143-10.8953C48.7572-11.4388 48.5618-11.5152 48.1287-11.2944C48.0608-11.2562 47.9334-11.2944 47.9037-11.3836C47.8733-11.5301 47.8793-11.6815 47.9207-11.8252C48.0183-12.1606 48.5788-12.4918 48.7911-12.4027C49.317-12.1695 49.7419-11.7551 49.9886-11.235C50.031-11.15 50.1032-11.1246 50.2009-11.0269C50.0777-11.528 49.9886-11.9526 49.8654-12.3432C49.7253-12.7848 49.5554-13.1924 49.3983-13.6128C49.3559-13.7147 49.3092-13.7996 49.2667-13.8973C49.1945-14.0714 49.1096-14.237 49.0544-14.4281C48.893-14.9801 48.7699-15.5618 48.5958-16.0926C48.1075-17.5702 47.6065-19.0267 47.1097-20.4958C46.9193-21.0468 46.8726-21.6373 46.9738-22.2113C47.0502-22.6486 47.046-23.1284 47.0884-23.587C47.1012-23.7272 47.1564-23.8545 47.1776-23.9947C47.2116-24.207 47.2922-24.4617 47.254-24.6273C47.1266-25.1878 46.9695-25.7313 46.5874-25.8587C46.184-25.9946 45.7764-26.0965 45.3815-26.3003C44.9781-26.5126 44.5917-26.8268 44.1926-27.0986C43.8189-27.3534 43.4452-27.5996 43.0716-27.8629C42.8911-27.9935 42.7167-28.1322 42.5493-28.279C41.9081-28.831 41.2754-29.4128 40.6215-29.9223C40.2348-30.2471 39.8066-30.5185 39.3476-30.7291C38.4686-31.09 37.5812-31.366 36.698-31.676C35.8912-31.9604 35.0929-32.3086 34.2776-32.5124C33.4921-32.6979 32.6925-32.8171 31.8871-32.8691C31.5728-32.8946 31.2501-32.712 30.9317-32.6441C30.8425-32.6271 30.7448-32.729 30.6514-32.7078C30.3032-32.6441 29.9551-32.5337 29.6026-32.4785C29.2035-32.419 28.8001-32.4148 28.401-32.3638C27.8405-32.2916 27.28-32.194 26.7237-32.1218C26.5369-32.1006 26.3543-32.1643 26.1717-32.1473C25.4669-32.0878 24.762-32.0156 24.0572-31.9477C23.4924-31.8968 22.9277-31.8713 22.3672-31.7906C21.8704-31.7227 21.3736-31.5698 20.881-31.5019C20.4666-31.4396 20.0472-31.4166 19.6284-31.4339C19.0892-31.4594 18.5499-31.5401 18.0064-31.6123C17.6624-31.6547 17.3143-31.6972 16.9746-31.7864C16.809-31.8288 16.6519-31.9562 16.4948-32.0624C16.465-32.0836 16.4268-32.1897 16.4311-32.2364C16.482-32.5422 16.3249-32.9923 16.5882-33.1451C17.1911-33.5114 17.8634-33.7484 18.5626-33.8415C19.4883-33.9944 20.414-34.1132 21.3354-34.2661C21.794-34.3425 22.244-34.4912 22.7026-34.5464C23.3905-34.627 24.0784-34.6313 24.7663-34.7035C25.5773-34.7926 26.3925-34.9158 27.2036-35.0347C27.9042-35.1366 28.6048-35.2172 29.3012-35.3574C29.8234-35.4635 30.3415-35.6631 30.8595-35.8075C31.5092-35.99 32.1588-36.1641 32.8127-36.3425C33.0378-36.4062 33.2671-36.4826 33.4921-36.5548L33.5006-36.7161C33.3138-36.835 33.1227-36.9539 32.9401-37.0856C32.8639-37.1372 32.7988-37.2034 32.749-37.2809C32.6259-37.4804 32.6386-37.7097 32.783-37.8116C33.0675-38.0155 33.3605-38.1683 33.6492-38.3297C34.0484-38.5505 34.4517-38.7628 34.8509-38.9793C34.8933-39.0006 34.9273-39.0473 34.9698-39.0643C35.543-39.2681 36.1162-39.4464 36.6852-39.6842C36.9824-39.8073 37.2584-40.0579 37.5514-40.215C38.0312-40.4697 38.5111-40.7075 38.9951-40.9368C39.4877-41.1619 39.9804-41.3529 40.4729-41.5737C41.165-41.888 41.8572-42.1894 42.5408-42.5504C43.3646-42.975 44.1756-43.5058 45.0036-43.9007C45.5853-44.1809 46.1543-44.4866 46.685-45.0301C47.1139-45.476 47.53-45.994 47.9801-46.3634C48.4812-46.7753 49.0162-47.0386 49.53-47.4037C49.9121-47.6712 50.273-48.0067 50.6425-48.3124C51.0671-48.6648 51.4917-49.0385 51.9248-49.3697C52.498-49.8028 53.0713-50.2656 53.6657-50.6011C54.2177-50.9153 54.791-51.0979 55.3642-51.3017C56.1073-51.5735 56.8503-51.824 57.5297-52.5246C58.0393-53.0469 58.5743-53.4927 59.0626-54.0787C59.3174-54.3844 59.483-54.9407 59.7122-55.3356C60.0732-55.9597 60.4256-56.6094 60.829-57.1274C61.1984-57.603 61.6358-57.8493 62.1071-57.8578C62.6209-57.8663 63.1389-58.0531 63.6484-57.9852C64.1495-57.9257 64.659-57.7134 65.1473-57.4459C65.555-57.2166 65.9329-56.809 66.3278-56.4948C67.1303-55.8621 67.7162-54.7411 68.298-53.6074C68.4508-53.3101 68.5612-52.945 68.7183-52.6562C68.782-52.5373 68.9094-52.4949 69.0071-52.4949C69.5294-52.4864 70.0431-52.41 70.5442-52.1127C70.8244-51.9429 71.1174-51.8495 71.3892-51.6414C71.4996-51.5565 71.5718-51.2592 71.6312-51.0342C71.6439-50.979 71.525-50.72 71.4571-50.703C71.0325-50.6053 70.6121-50.5586 70.1918-50.4822C69.9582-50.4397 69.7162-50.4525 69.5081-50.3039C69.207-50.0976 68.9593-49.8225 68.7863-49.5013C68.2895-48.5417 67.8479-47.4844 67.3596-46.5036C67.0071-45.7987 67.1048-45.0089 67.143-44.2021C67.1855-43.1746 67.2364-42.1427 67.2407-41.1109C67.2449-40.3381 67.2194-39.5526 67.1345-38.7968C67.0496-37.99 66.8967-37.1917 66.7354-36.4189C66.557-35.5442 66.3872-34.6355 66.1197-33.8542C65.8182-32.9625 65.4191-32.1855 65.0497-31.3787C64.8713-30.9838 64.6463-30.6611 64.4722-30.2662C64.3448-29.986 64.3108-29.5699 64.175-29.3321C63.7418-28.5805 63.313-27.8035 62.8204-27.1963C62.1495-26.364 61.4065-25.7313 60.7271-24.9161C60.0477-24.1093 59.2706-23.8545 58.5361-23.3662C58.035-23.035 57.517-22.7548 56.9905-22.5595C56.6253-22.4236 56.2304-22.517 55.8567-22.4278C55.2665-22.2877 54.6975-22.5764 54.1158-22.6147C53.9541-22.6168 53.7931-22.591 53.6402-22.5382C53.6134-22.4445 53.6077-22.3457 53.6233-22.2495C54.0182-21.5744 54.4088-20.8907 54.8164-20.2538C55.3514-19.43 55.8482-18.5553 56.2898-17.549C56.5531-16.946 56.8291-16.2964 57.2834-16.1308C57.449-16.0671 57.6359-15.9949 57.793-16.0713C58.1369-16.2454 58.4724-16.496 58.8078-16.7507C58.9904-16.8908 59.1475-17.2475 59.3258-17.2518C59.5254-17.2603 59.7377-17.0055 59.933-16.8272C60.0095-16.755 60.0434-16.5342 60.1241-16.445C60.277-16.2709 60.4383-16.0628 60.6082-16.0119C60.8035-15.9567 60.9861-15.9694 61.1305-15.6425C61.1857-15.5193 61.3173-15.5151 61.398-15.4684C61.4786-15.2816 61.5678-15.1032 61.64-14.9079C61.7079-14.7338 61.7589-14.5427 61.8183-14.3601C61.691-14.3389 61.5466-14.2243 61.4489-14.3092C61.1305-14.5894 60.812-14.6404 60.4766-14.479C60.2798-14.3732 60.0972-14.2434 59.933-14.0926C59.8991-14.0629 59.8863-13.8718 59.8948-13.7614C59.9161-13.5491 59.9798-13.3496 59.9882-13.1372C59.9925-12.8528 59.8906-12.7211 59.7335-12.7551C59.6386-12.7784 59.5449-12.8071 59.4532-12.84C59.4278-12.8528 59.381-12.891 59.381-12.9122C59.3895-13.2944 59.2367-13.1415 59.139-13.167C58.6719-13.2944 58.2091-13.4005 57.7548-13.5831C57.4915-13.6892 57.2452-13.9483 56.9905-14.0969C56.379-14.4493 55.7761-14.8102 55.1561-15.0905C54.9353-15.1924 54.6721-15.0056 54.4428-15.0735C54.1455-15.1584 53.861-15.3707 53.5766-15.5491C53.5341-15.5788 53.4831-15.7104 53.4746-15.8123C53.4322-16.2242 53.3048-16.3219 53.1095-16.0671C53.066-16.0013 53.0097-15.945 52.9439-15.9015C52.7401-15.7953 52.5362-15.6892 52.3239-15.6212C52.1881-15.5745 52.0777-15.7019 52.1838-15.9567C52.3409-16.3346 52.5235-16.6998 52.7273-16.9885C52.8526-17.1796 53.0426-17.3197 53.2623-17.3834C53.4577-17.4259 53.67-17.3537 53.8568-17.2433C54.1838-17.0564 54.4937-16.7974 54.8207-16.5809C54.8631-16.5512 54.9268-16.5936 54.982-16.6021C54.9693-16.6998 54.9693-16.8144 54.9396-16.8866C54.6593-17.5065 54.3748-18.118 54.0903-18.7294C53.8993-19.1625 53.7252-19.6296 53.5129-20.0245C53.2454-20.5256 53.1392-21.2644 52.7698-21.6211C52.6424-21.7442 52.583-22.0542 52.4726-22.2368C52.389-22.3861 52.2673-22.511 52.1201-22.5977C51.6194-22.822 51.1127-23.0318 50.6-23.2261C50.1924-23.3832 49.789-23.5998 49.3771-23.638C48.91-23.6847 48.5364-23.2558 48.3028-22.4788C48.2023-22.0768 48.2158-21.655 48.341-21.2601C48.6255-20.2411 48.9313-19.2432 49.2582-18.2666C49.6658-17.0352 50.1117-15.8463 50.5278-14.6234C50.8845-13.5619 51.2454-12.4961 51.5554-11.3836C51.7762-10.6065 51.8951-9.74032 52.0904-8.94204C52.2475-8.32635 52.4174-7.69792 52.6594-7.19687C52.7783-6.93786 53.0628-6.86567 53.2751-6.83595C53.6063-6.79349 53.9417-6.89964 54.2729-6.85293C54.5277-6.81897 54.774-6.65337 55.0202-6.53447C55.3897-6.36038 55.6996-6.00795 55.9034-5.42198C56.01-5.08512 56.0811-4.73764 56.1158-4.38592C56.1242-4.27127 56.0308-4.03773 55.9586-3.99527C55.9077-3.9613 55.7973-4.1269 55.7463-4.25004C55.6911-4.38592 55.6784-4.577 55.6444-4.7426C55.5935-5.02284 55.3982-5.14173 55.3005-4.92093C55.1137-4.49632 54.9056-4.45386 54.6508-4.64918C54.5829-4.70013 54.5107-4.69589 54.413-4.72561Z"/>
   <path class="monochrome-1 multicolor-1:tintColor hierarchical-1:tertiary SFSymbolsPreviewWireframe" d="M48.9411-84C55.3091-84.0013 61.615-82.7479 67.4985-80.3116C73.382-77.8752 78.7279-74.3036 83.2305-69.8009C87.7334-65.2983 91.305-59.9524 93.7418-54.0682C96.1779-48.1846 97.4312-41.8789 97.43-35.5124C97.43-8.72255 75.7254 13 48.9424 13C22.156 13 0.43-8.726 0.43-35.5124C0.43-62.2926 22.1539-84 48.9411-84ZM48.9424-70C29.8835-70 14.43-54.5582 14.43-35.5124C14.43-16.458 29.888-0.999999 48.9424-0.999999C67.9909-0.999999 83.43-16.4519 83.43-35.5138C83.4309-40.0428 82.5395-44.5276 80.8069-48.7121C79.0739-52.8969 76.5337-56.6989 73.3311-59.9013C70.1287-63.1038 66.3266-65.644 62.1422-67.3767C57.9578-69.1095 53.4729-70.0009 48.9424-70Z"/>
  </g>
  <g id="Regular-S" transform="matrix(1 0 0 1 1403.58 696)">
   <path class="monochrome-0 multicolor-0:tintColor hierarchical-0:primary SFSymbolsPreviewWireframe" d="M53.4031-5.72557C53.505-5.35191 53.6239-5.04194 53.6706-4.698C53.6858-4.43297 53.6632-4.16688 53.6027-3.90822C53.5899-3.83603 53.4583-3.78083 53.3988-3.81056C53.3564-3.83603 53.3267-4.01862 53.3139-4.13751C53.2884-4.30736 53.3012-4.50693 53.2587-4.65554C53.2375-4.72773 53.1228-4.73197 53.0549-4.72773C52.8935-4.72348 52.694-4.57062 52.5793-4.698C52.2524-5.06317 51.9551-5.53025 51.6452-5.96336C51.5603-6.078 51.4753-6.19265 51.3947-6.32003C51.0263-6.88513 50.6597-7.45128 50.2949-8.0185C50.0486-8.40065 49.7981-8.7913 49.5561-9.19043C49.4202-9.41973 49.3183-9.74243 49.1654-9.89954C48.9305-10.131 48.663-10.327 48.3714-10.4813C48.1463-10.6086 48.0062-10.7955 47.9892-11.2541C47.9853-11.4703 47.957-11.6854 47.9043-11.8952C47.7472-12.4387 47.5519-12.5152 47.1188-12.2944C47.0508-12.2562 46.9235-12.2944 46.8937-12.3835C46.8633-12.53 46.8693-12.6815 46.9107-12.8251C47.0084-13.1606 47.5689-13.4918 47.7812-13.4026C48.307-13.1694 48.732-12.7551 48.9786-12.2349C49.0211-12.15 49.0932-12.1245 49.1909-12.0269C49.0678-12.5279 48.9786-12.9525 48.8555-13.3432C48.7153-13.7848 48.5455-14.1924 48.3884-14.6128C48.3459-14.7147 48.2992-14.7996 48.2567-14.8973C48.1846-15.0714 48.0996-15.237 48.0444-15.428C47.8831-15.98 47.7599-16.5618 47.5859-17.0925C47.0975-18.5702 46.5965-20.0266 46.0997-21.4958C45.9093-22.0467 45.8626-22.6373 45.9638-23.2112C46.0403-23.6486 46.036-24.1284 46.0785-24.587C46.0912-24.7271 46.1464-24.8545 46.1676-24.9946C46.2016-25.2069 46.2823-25.4617 46.2441-25.6273C46.1167-26.1878 45.9596-26.7313 45.5774-26.8587C45.174-26.9946 44.7664-27.0965 44.3715-27.3003C43.9681-27.5126 43.5817-27.8268 43.1826-28.0986C42.8089-28.3533 42.4353-28.5996 42.0616-28.8629C41.8811-28.9934 41.7067-29.1321 41.5393-29.279C40.8982-29.831 40.2655-30.4127 39.6116-30.9222C39.2248-31.2471 38.7967-31.5185 38.3376-31.729C37.4586-32.0899 36.5712-32.3659 35.688-32.6759C34.8812-32.9604 34.0829-33.3086 33.2677-33.5124C32.4821-33.6978 31.6825-33.8171 30.8771-33.8691C30.5629-33.8946 30.2402-33.712 29.9217-33.644C29.8325-33.627 29.7349-33.729 29.6415-33.7077C29.2933-33.644 28.9451-33.5336 28.5927-33.4784C28.1935-33.419 27.7901-33.4147 27.391-33.3638C26.8305-33.2916 26.27-33.1939 25.7138-33.1218C25.5269-33.1005 25.3444-33.1642 25.1618-33.1472C24.4569-33.0878 23.7521-33.0156 23.0472-32.9477C22.4825-32.8967 21.9177-32.8712 21.3572-32.7906C20.8604-32.7226 20.3636-32.5698 19.8711-32.5018C19.4566-32.4395 19.0372-32.4165 18.6185-32.4339C18.0792-32.4594 17.5399-32.54 16.9964-32.6122C16.6525-32.6547 16.3043-32.6971 15.9646-32.7863C15.799-32.8288 15.6419-32.9562 15.4848-33.0623C15.4551-33.0835 15.4169-33.1897 15.4211-33.2364C15.4721-33.5421 15.3149-33.9922 15.5782-34.1451C16.1812-34.5113 16.8535-34.7484 17.5527-34.8414C18.4783-34.9943 19.404-35.1132 20.3254-35.2661C20.784-35.3425 21.2341-35.4911 21.6927-35.5463C22.3805-35.627 23.0684-35.6312 23.7563-35.7034C24.5673-35.7926 25.3826-35.9157 26.1936-36.0346C26.8942-36.1365 27.5948-36.2172 28.2912-36.3573C28.8135-36.4635 29.3315-36.663 29.8495-36.8074C30.4992-36.99 31.1489-37.1641 31.8028-37.3424C32.0278-37.4061 32.2571-37.4826 32.4821-37.5547L32.4906-37.7161C32.3038-37.835 32.1127-37.9539 31.9301-38.0855C31.8539-38.1372 31.7889-38.2033 31.7391-38.2808C31.6159-38.4804 31.6287-38.7097 31.773-38.8116C32.0575-39.0154 32.3505-39.1683 32.6393-39.3296C33.0384-39.5504 33.4418-39.7627 33.8409-39.9793C33.8834-40.0005 33.9173-40.0472 33.9598-40.0642C34.533-40.268 35.1063-40.4464 35.6753-40.6842C35.9725-40.8073 36.2485-41.0578 36.5415-41.2149C37.0213-41.4697 37.5011-41.7075 37.9852-41.9368C38.4777-42.1618 38.9704-42.3529 39.463-42.5737C40.1551-42.8879 40.8472-43.1894 41.5308-43.5503C42.3546-43.9749 43.1656-44.5057 43.9936-44.9006C44.5753-45.1809 45.1443-45.4866 45.6751-46.0301C46.1039-46.4759 46.5201-46.994 46.9702-47.3634C47.4712-47.7753 48.0062-48.0385 48.52-48.4037C48.9022-48.6712 49.2631-49.0067 49.6325-49.3124C50.0571-49.6648 50.4817-50.0385 50.9148-50.3697C51.4881-50.8028 52.0613-51.2656 52.6558-51.6011C53.2078-51.9153 53.781-52.0979 54.3542-52.3017C55.0973-52.5734 55.8404-52.8239 56.5198-53.5246C57.0293-54.0468 57.5643-54.4927 58.0526-55.0787C58.3074-55.3844 58.473-55.9406 58.7023-56.3355C59.0632-56.9597 59.4156-57.6094 59.819-58.1274C60.1884-58.603 60.6258-58.8492 61.0971-58.8577C61.6109-58.8662 62.1289-59.0531 62.6385-58.9851C63.1395-58.9257 63.6491-58.7134 64.1374-58.4459C64.545-58.2166 64.9229-57.8089 65.3178-57.4947C66.1203-56.862 66.7063-55.7411 67.288-54.6073C67.4409-54.3101 67.5513-53.9449 67.7084-53.6562C67.7721-53.5373 67.8995-53.4948 67.9971-53.4948C68.5194-53.4863 69.0332-53.4099 69.5342-53.1127C69.8145-52.9428 70.1075-52.8494 70.3792-52.6414C70.4896-52.5564 70.5618-52.2592 70.6212-52.0342C70.634-51.979 70.5151-51.7199 70.4471-51.703C70.0225-51.6053 69.6022-51.5586 69.1818-51.4822C68.9483-51.4397 68.7062-51.4524 68.4982-51.3038C68.197-51.0976 67.9493-50.8224 67.7763-50.5013C67.2795-49.5417 66.8379-48.4844 66.3496-47.5035C65.9972-46.7987 66.0948-46.0089 66.1331-45.2021C66.1755-44.1745 66.2265-43.1427 66.2307-42.1109C66.235-41.3381 66.2095-40.5525 66.1246-39.7967C66.0396-38.9899 65.8868-38.1917 65.7254-37.4189C65.5471-36.5442 65.3772-35.6355 65.1097-34.8542C64.8083-33.9625 64.4091-33.1854 64.0397-32.3787C63.8614-31.9838 63.6363-31.6611 63.4622-31.2662C63.3348-30.9859 63.3009-30.5698 63.165-30.332C62.7319-29.5805 62.303-28.8034 61.8105-28.1962C61.1396-27.364 60.3965-26.7313 59.7171-25.916C59.0377-25.1093 58.2607-24.8545 57.5261-24.3662C57.0251-24.035 56.507-23.7547 55.9805-23.5594C55.6153-23.4235 55.2204-23.517 54.8468-23.4278C54.2566-23.2877 53.6876-23.5764 53.1059-23.6146C52.9441-23.6167 52.7831-23.5909 52.6303-23.5382C52.6034-23.4444 52.5977-23.3457 52.6133-23.2494C53.0082-22.5743 53.3988-21.8907 53.8065-21.2538C54.3415-20.43 54.8383-19.5553 55.2799-18.549C55.5431-17.946 55.8191-17.2963 56.2735-17.1307C56.4391-17.067 56.6259-16.9949 56.783-17.0713C57.127-17.2454 57.4624-17.4959 57.7979-17.7507C57.9804-17.8908 58.1375-18.2475 58.3159-18.2517C58.5155-18.2602 58.7278-18.0054 58.9231-17.8271C58.9995-17.7549 59.0335-17.5341 59.1142-17.445C59.267-17.2709 59.4284-17.0628 59.5982-17.0118C59.7935-16.9566 59.9761-16.9694 60.1205-16.6424C60.1757-16.5193 60.3073-16.515 60.388-16.4683C60.4687-16.2815 60.5579-16.1032 60.63-15.9078C60.698-15.7338 60.7489-15.5427 60.8084-15.3601C60.681-15.3389 60.5366-15.2242 60.439-15.3091C60.1205-15.5894 59.802-15.6403 59.4666-15.479C59.2699-15.3732 59.0873-15.2433 58.9231-15.0926C58.8891-15.0629 58.8764-14.8718 58.8849-14.7614C58.9061-14.5491 58.9698-14.3495 58.9783-14.1372C58.9825-13.8527 58.8806-13.7211 58.7235-13.755C58.6287-13.7784 58.5349-13.8071 58.4433-13.84C58.4178-13.8527 58.3711-13.8909 58.3711-13.9122C58.3796-14.2943 58.2267-14.1414 58.1291-14.1669C57.662-14.2943 57.1991-14.4005 56.7448-14.583C56.4815-14.6892 56.2353-14.9482 55.9805-15.0968C55.3691-15.4493 54.7661-15.8102 54.1462-16.0904C53.9254-16.1923 53.6621-16.0055 53.4328-16.0734C53.1356-16.1584 52.8511-16.3707 52.5666-16.549C52.5241-16.5787 52.4732-16.7104 52.4647-16.8123C52.4222-17.2242 52.2948-17.3218 52.0995-17.067C52.056-17.0012 51.9997-16.945 51.9339-16.9014C51.7301-16.7953 51.5263-16.6891 51.314-16.6212C51.1781-16.5745 51.0677-16.7019 51.1739-16.9566C51.331-17.3346 51.5135-17.6997 51.7174-17.9885C51.8426-18.1795 52.0326-18.3197 52.2524-18.3834C52.4477-18.4258 52.66-18.3536 52.8468-18.2432C53.1738-18.0564 53.4838-17.7974 53.8107-17.5808C53.8532-17.5511 53.9169-17.5936 53.9721-17.6021C53.9593-17.6997 53.9593-17.8144 53.9296-17.8866C53.6494-18.5065 53.3649-19.1179 53.0804-19.7294C52.8893-20.1625 52.7152-20.6296 52.5029-21.0245C52.2354-21.5255 52.1292-22.2643 51.7598-22.621C51.6324-22.7442 51.573-23.0541 51.4626-23.2367C51.3791-23.386 51.2574-23.5109 51.1102-23.5976C50.6095-23.822 50.1028-24.0318 49.59-24.2261C49.1824-24.3832 48.779-24.5997 48.3671-24.6379C47.9001-24.6846 47.5264-24.2558 47.2929-23.4787C47.1924-23.0768 47.2058-22.655 47.3311-22.2601C47.6156-21.241 47.9213-20.2432 48.2483-19.2666C48.6559-18.0352 49.1017-16.8462 49.5179-15.6234C49.8745-14.5618 50.2355-13.496 50.5454-12.3835C50.7662-11.6065 50.8851-10.7403 51.0804-9.942C51.2375-9.32631 51.4074-8.69788 51.6494-8.19683C51.7683-7.93782 52.0528-7.86563 52.2651-7.83591C52.5963-7.79345 52.9318-7.8996 53.263-7.8529C53.5177-7.81893 53.764-7.65333 54.0103-7.53443C54.3797-7.36034 54.6897-7.00791 54.8935-6.42194C55-6.08508 55.0711-5.7376 55.1058-5.38588C55.1143-5.27123 55.0209-5.0377 54.9487-4.99523C54.8977-4.96126 54.7873-5.12686 54.7364-5.25C54.6812-5.38588 54.6684-5.57696 54.6345-5.74256C54.5835-6.0228 54.3882-6.1417 54.2905-5.9209C54.1037-5.49628 53.8956-5.45382 53.6409-5.64914C53.5729-5.7001 53.5007-5.69585 53.4031-5.72557Z"/>
   <path class="monochrome-1 multicolor-1:tintColor hierarchical-1:tertiary SFSymbolsPreviewWireframe" d="M46.4321-81.8365C52.4502-81.8377 58.4096-80.6532 63.9698-78.3508C69.53-76.0483 74.5822-72.6729 78.8374-68.4176C83.0928-64.1624 86.4682-59.1103 88.771-53.5496C91.0733-47.9892 92.2577-42.03 92.2566-36.0127C92.2566-10.693 71.744 9.83658 46.4328 9.83658C21.1173 9.83658 0.5835-10.6972 0.5835-36.0127C0.5835-61.3211 21.1145-81.8365 46.4321-81.8365ZM46.4328-75.0865C24.8413-75.0865 7.3335-57.592 7.3335-36.0127C7.3335-14.4252 24.8452 3.08658 46.4328 3.08658C68.0148 3.08658 85.5066-14.4197 85.5066-36.0133C85.5076-41.1447 84.4976-46.226 82.5345-50.9672C80.571-55.7085 77.693-60.0162 74.0644-63.6446C70.4361-67.273 66.1283-70.1511 61.3873-72.1143C56.6463-74.0776 51.5649-75.0875 46.4328-75.0865Z"/>
  </g>
  <g id="Ultralight-S" transform="matrix(1 0 0 1 515.649 696)">
   <path class="monochrome-0 multicolor-0:tintColor hierarchical-0:primary SFSymbolsPreviewWireframe" d="M50.3341-6.72557C50.436-6.35191 50.5549-6.04194 50.6016-5.698C50.6168-5.43297 50.5942-5.16688 50.5337-4.90822C50.5209-4.83603 50.3893-4.78083 50.3298-4.81056C50.2874-4.83603 50.2577-5.01862 50.2449-5.13751C50.2194-5.30736 50.2322-5.50693 50.1897-5.65554C50.1685-5.72773 50.0538-5.73197 49.9859-5.72773C49.8245-5.72348 49.625-5.57062 49.5103-5.698C49.1834-6.06317 48.8861-6.53025 48.5762-6.96336C48.4913-7.078 48.4063-7.19265 48.3257-7.32003C47.9573-7.88513 47.5907-8.45128 47.2259-9.0185C46.9796-9.40065 46.7291-9.7913 46.4871-10.1904C46.3512-10.4197 46.2493-10.7424 46.0964-10.8995C45.8615-11.131 45.594-11.327 45.3024-11.4813C45.0773-11.6086 44.9372-11.7955 44.9202-12.2541C44.9163-12.4703 44.888-12.6854 44.8353-12.8952C44.6782-13.4387 44.4829-13.5152 44.0498-13.2944C43.9818-13.2562 43.8545-13.2944 43.8247-13.3835C43.7943-13.53 43.8003-13.6815 43.8417-13.8251C43.9394-14.1606 44.4999-14.4918 44.7122-14.4026C45.238-14.1694 45.663-13.7551 45.9096-13.2349C45.9521-13.15 46.0242-13.1245 46.1219-13.0269C45.9988-13.5279 45.9096-13.9525 45.7865-14.3432C45.6463-14.7848 45.4765-15.1924 45.3194-15.6128C45.2769-15.7147 45.2302-15.7996 45.1877-15.8973C45.1156-16.0714 45.0306-16.237 44.9754-16.428C44.8141-16.98 44.6909-17.5618 44.5169-18.0925C44.0285-19.5702 43.5275-21.0266 43.0307-22.4958C42.8403-23.0467 42.7936-23.6373 42.8948-24.2112C42.9713-24.6486 42.967-25.1284 43.0095-25.587C43.0222-25.7271 43.0774-25.8545 43.0986-25.9946C43.1326-26.2069 43.2133-26.4617 43.1751-26.6273C43.0477-27.1878 42.8906-27.7313 42.5084-27.8587C42.105-27.9946 41.6974-28.0965 41.3025-28.3003C40.8991-28.5126 40.5127-28.8268 40.1136-29.0986C39.7399-29.3533 39.3663-29.5996 38.9926-29.8629C38.8121-29.9934 38.6377-30.1321 38.4703-30.279C37.8292-30.831 37.1965-31.4127 36.5426-31.9222C36.1558-32.2471 35.7277-32.5185 35.2686-32.729C34.3896-33.0899 33.5022-33.3659 32.619-33.6759C31.8122-33.9604 31.0139-34.3086 30.1987-34.5124C29.4131-34.6978 28.6135-34.8171 27.8081-34.8691C27.4939-34.8946 27.1712-34.712 26.8527-34.644C26.7635-34.627 26.6659-34.729 26.5725-34.7077C26.2243-34.644 25.8761-34.5336 25.5237-34.4784C25.1245-34.419 24.7211-34.4147 24.322-34.3638C23.7615-34.2916 23.201-34.1939 22.6448-34.1218C22.4579-34.1005 22.2754-34.1642 22.0928-34.1472C21.3879-34.0878 20.6831-34.0156 19.9782-33.9477C19.4135-33.8967 18.8487-33.8712 18.2882-33.7906C17.7914-33.7226 17.2946-33.5698 16.8021-33.5018C16.3876-33.4395 15.9682-33.4165 15.5495-33.4339C15.0102-33.4594 14.4709-33.54 13.9274-33.6122C13.5835-33.6547 13.2353-33.6971 12.8956-33.7863C12.73-33.8288 12.5729-33.9562 12.4158-34.0623C12.3861-34.0835 12.3479-34.1897 12.3521-34.2364C12.4031-34.5421 12.2459-34.9922 12.5092-35.1451C13.1122-35.5113 13.7845-35.7484 14.4837-35.8414C15.4093-35.9943 16.335-36.1132 17.2564-36.2661C17.715-36.3425 18.1651-36.4911 18.6237-36.5463C19.3115-36.627 19.9994-36.6312 20.6873-36.7034C21.4983-36.7926 22.3136-36.9157 23.1246-37.0346C23.8252-37.1365 24.5258-37.2172 25.2222-37.3573C25.7445-37.4635 26.2625-37.663 26.7805-37.8074C27.4302-37.99 28.0799-38.1641 28.7338-38.3424C28.9588-38.4061 29.1881-38.4826 29.4131-38.5547L29.4216-38.7161C29.2348-38.835 29.0437-38.9539 28.8611-39.0855C28.7849-39.1372 28.7199-39.2033 28.6701-39.2808C28.5469-39.4804 28.5597-39.7097 28.704-39.8116C28.9885-40.0154 29.2815-40.1683 29.5703-40.3296C29.9694-40.5504 30.3728-40.7627 30.7719-40.9793C30.8144-41.0005 30.8483-41.0472 30.8908-41.0642C31.464-41.268 32.0373-41.4464 32.6063-41.6842C32.9035-41.8073 33.1795-42.0578 33.4725-42.2149C33.9523-42.4697 34.4321-42.7075 34.9162-42.9368C35.4087-43.1618 35.9014-43.3529 36.394-43.5737C37.0861-43.8879 37.7782-44.1894 38.4618-44.5503C39.2856-44.9749 40.0966-45.5057 40.9246-45.9006C41.5063-46.1809 42.0753-46.4866 42.6061-47.0301C43.0349-47.4759 43.4511-47.994 43.9012-48.3634C44.4022-48.7753 44.9372-49.0385 45.451-49.4037C45.8332-49.6712 46.1941-50.0067 46.5635-50.3124C46.9881-50.6648 47.4127-51.0385 47.8458-51.3697C48.4191-51.8028 48.9923-52.2656 49.5868-52.6011C50.1388-52.9153 50.712-53.0979 51.2852-53.3017C52.0283-53.5734 52.7714-53.8239 53.4508-54.5246C53.9603-55.0468 54.4953-55.4927 54.9836-56.0787C55.2384-56.3844 55.404-56.9406 55.6333-57.3355C55.9942-57.9597 56.3466-58.6094 56.75-59.1274C57.1194-59.603 57.5568-59.8492 58.0281-59.8577C58.5419-59.8662 59.0599-60.0531 59.5695-59.9851C60.0705-59.9257 60.5801-59.7134 61.0684-59.4459C61.476-59.2166 61.8539-58.8089 62.2488-58.4947C63.0513-57.862 63.6373-56.7411 64.219-55.6073C64.3719-55.3101 64.4823-54.9449 64.6394-54.6562C64.7031-54.5373 64.8305-54.4948 64.9281-54.4948C65.4504-54.4863 65.9642-54.4099 66.4652-54.1127C66.7455-53.9428 67.0385-53.8494 67.3102-53.6414C67.4206-53.5564 67.4928-53.2592 67.5522-53.0342C67.565-52.979 67.4461-52.7199 67.3781-52.703C66.9535-52.6053 66.5332-52.5586 66.1128-52.4822C65.8793-52.4397 65.6372-52.4524 65.4292-52.3038C65.128-52.0976 64.8803-51.8224 64.7073-51.5013C64.2105-50.5417 63.7689-49.4844 63.2806-48.5035C62.9282-47.7987 63.0258-47.0089 63.0641-46.2021C63.1065-45.1745 63.1575-44.1427 63.1617-43.1109C63.166-42.3381 63.1405-41.5525 63.0556-40.7967C62.9706-39.9899 62.8178-39.1917 62.6564-38.4189C62.4781-37.5442 62.3082-36.6355 62.0407-35.8542C61.7393-34.9625 61.3401-34.1854 60.9707-33.3787C60.7924-32.9838 60.5673-32.6611 60.3932-32.2662C60.2658-31.9859 60.2319-31.5698 60.096-31.332C59.6629-30.5805 59.234-29.8034 58.7415-29.1962C58.0706-28.364 57.3275-27.7313 56.6481-26.916C55.9687-26.1093 55.1917-25.8545 54.4571-25.3662C53.9561-25.035 53.438-24.7547 52.9115-24.5594C52.5463-24.4235 52.1514-24.517 51.7778-24.4278C51.1876-24.2877 50.6186-24.5764 50.0369-24.6146C49.8751-24.6167 49.7141-24.5909 49.5613-24.5382C49.5344-24.4444 49.5287-24.3457 49.5443-24.2494C49.9392-23.5743 50.3298-22.8907 50.7375-22.2538C51.2725-21.43 51.7693-20.5553 52.2109-19.549C52.4741-18.946 52.7501-18.2963 53.2045-18.1307C53.3701-18.067 53.5569-17.9949 53.714-18.0713C54.058-18.2454 54.3934-18.4959 54.7289-18.7507C54.9114-18.8908 55.0685-19.2475 55.2469-19.2517C55.4465-19.2602 55.6588-19.0054 55.8541-18.8271C55.9305-18.7549 55.9645-18.5341 56.0452-18.445C56.198-18.2709 56.3594-18.0628 56.5292-18.0118C56.7245-17.9566 56.9071-17.9694 57.0515-17.6424C57.1067-17.5193 57.2383-17.515 57.319-17.4683C57.3997-17.2815 57.4889-17.1032 57.561-16.9078C57.629-16.7338 57.6799-16.5427 57.7394-16.3601C57.612-16.3389 57.4676-16.2242 57.37-16.3091C57.0515-16.5894 56.733-16.6403 56.3976-16.479C56.2009-16.3732 56.0183-16.2433 55.8541-16.0926C55.8201-16.0629 55.8074-15.8718 55.8159-15.7614C55.8371-15.5491 55.9008-15.3495 55.9093-15.1372C55.9135-14.8527 55.8116-14.7211 55.6545-14.755C55.5597-14.7784 55.4659-14.8071 55.3743-14.84C55.3488-14.8527 55.3021-14.8909 55.3021-14.9122C55.3106-15.2943 55.1577-15.1414 55.0601-15.1669C54.593-15.2943 54.1301-15.4005 53.6758-15.583C53.4125-15.6892 53.1663-15.9482 52.9115-16.0968C52.3001-16.4493 51.6971-16.8102 51.0772-17.0904C50.8564-17.1923 50.5931-17.0055 50.3638-17.0734C50.0666-17.1584 49.7821-17.3707 49.4976-17.549C49.4551-17.5787 49.4042-17.7104 49.3957-17.8123C49.3532-18.2242 49.2258-18.3218 49.0305-18.067C48.987-18.0012 48.9307-17.945 48.8649-17.9014C48.6611-17.7953 48.4573-17.6891 48.245-17.6212C48.1091-17.5745 47.9987-17.7019 48.1049-17.9566C48.262-18.3346 48.4445-18.6997 48.6484-18.9885C48.7736-19.1795 48.9636-19.3197 49.1834-19.3834C49.3787-19.4258 49.591-19.3536 49.7778-19.2432C50.1048-19.0564 50.4148-18.7974 50.7417-18.5808C50.7842-18.5511 50.8479-18.5936 50.9031-18.6021C50.8903-18.6997 50.8903-18.8144 50.8606-18.8866C50.5804-19.5065 50.2959-20.1179 50.0114-20.7294C49.8203-21.1625 49.6462-21.6296 49.4339-22.0245C49.1664-22.5255 49.0602-23.2643 48.6908-23.621C48.5634-23.7442 48.504-24.0541 48.3936-24.2367C48.3101-24.386 48.1884-24.5109 48.0412-24.5976C47.5405-24.822 47.0338-25.0318 46.521-25.2261C46.1134-25.3832 45.71-25.5997 45.2981-25.6379C44.8311-25.6846 44.4574-25.2558 44.2239-24.4787C44.1234-24.0768 44.1368-23.655 44.2621-23.2601C44.5466-22.241 44.8523-21.2432 45.1793-20.2666C45.5869-19.0352 46.0327-17.8462 46.4489-16.6234C46.8055-15.5618 47.1665-14.496 47.4764-13.3835C47.6972-12.6065 47.8161-11.7403 48.0114-10.942C48.1685-10.3263 48.3384-9.69788 48.5804-9.19683C48.6993-8.93782 48.9838-8.86563 49.1961-8.83591C49.5273-8.79345 49.8628-8.8996 50.194-8.8529C50.4487-8.81893 50.695-8.65333 50.9413-8.53443C51.3107-8.36034 51.6207-8.00791 51.8245-7.42194C51.931-7.08508 52.0021-6.7376 52.0368-6.38588C52.0453-6.27123 51.9519-6.0377 51.8797-5.99523C51.8287-5.96126 51.7183-6.12686 51.6674-6.25C51.6122-6.38588 51.5994-6.57696 51.5655-6.74256C51.5145-7.0228 51.3192-7.1417 51.2215-6.9209C51.0347-6.49628 50.8266-6.45382 50.5719-6.64914C50.5039-6.7001 50.4317-6.69585 50.3341-6.72557Z"/>
   <path class="monochrome-1 multicolor-1:tintColor hierarchical-1:tertiary SFSymbolsPreviewWireframe" d="M44.3636-80.5865C50.0861-80.5876 55.7528-79.4613 61.04-77.272C66.3271-75.0826 71.1312-71.8729 75.1774-67.8265C79.2239-63.7803 82.4335-58.9764 84.6232-53.6889C86.8124-48.4015 87.9387-42.7349 87.9376-37.0127C87.9376-12.9352 68.432 6.58658 44.3638 6.58658C20.2909 6.58658 0.7645-12.9399 0.7645-37.0127C0.7645-61.0781 20.2877-80.5865 44.3636-80.5865ZM44.3638-78.3365C21.53-78.3365 3.0145-59.8351 3.0145-37.0127C3.0145-14.1825 21.5336 4.33658 44.3638 4.33658C67.1889 4.33658 85.6876-14.1774 85.6876-37.0129C85.6886-42.4398 84.6205-47.8138 82.5443-52.828C80.4678-57.8425 77.4239-62.3983 73.5865-66.2355C69.7491-70.073 65.1932-73.1168 60.1791-75.1931C55.1651-77.2695 49.791-78.3376 44.3638-78.3365Z"/>
  </g>
 </g>
</svg>
