<?xml version="1.0" encoding="UTF-8"?>
<svg width="3300px" height="2200px" viewBox="0 0 3300 2200" version="1.1" xmlns="http://www.w3.org/2000/svg" xmlns:xlink="http://www.w3.org/1999/xlink">
    <!-- Generator: Sketch 59.1 (86144) - https://sketch.com -->
    <title>filter</title>
    <desc>Created with Sketch.</desc>
    <g id="Page-1" stroke="none" stroke-width="1" fill="none" fill-rule="evenodd">
        <g id="filter">
            <g id="Notes">
                <rect id="artboard" fill="#FFFFFF" fill-rule="nonzero" x="0" y="0" width="3300" height="2200"></rect>
                <line x1="263" y1="292" x2="3036" y2="292" id="Path" stroke="#000000" stroke-width="0.5"></line>
                <text id="Weight/Scale-Variations" fill="#000000" font-family="Helvetica-Bold, Helvetica" font-size="13" font-weight="bold">
                    <tspan x="263" y="322">Weight/Scale Variations</tspan>
                </text>
                <text id="Ultralight" fill="#000000" font-family="Helvetica" font-size="13" font-weight="normal">
                    <tspan x="533.711" y="322">Ultralight</tspan>
                </text>
                <text id="Thin" fill="#000000" font-family="Helvetica" font-size="13" font-weight="normal">
                    <tspan x="843.422" y="322">Thin</tspan>
                </text>
                <text id="Light" fill="#000000" font-family="Helvetica" font-size="13" font-weight="normal">
                    <tspan x="1138.63" y="322">Light</tspan>
                </text>
                <text id="Regular" fill="#000000" font-family="Helvetica" font-size="13" font-weight="normal">
                    <tspan x="1426.84" y="322">Regular</tspan>
                </text>
                <text id="Medium" fill="#000000" font-family="Helvetica" font-size="13" font-weight="normal">
                    <tspan x="1723.06" y="322">Medium</tspan>
                </text>
                <text id="Semibold" fill="#000000" font-family="Helvetica" font-size="13" font-weight="normal">
                    <tspan x="2015.77" y="322">Semibold</tspan>
                </text>
                <text id="Bold" fill="#000000" font-family="Helvetica" font-size="13" font-weight="normal">
                    <tspan x="2326.48" y="322">Bold</tspan>
                </text>
                <text id="Heavy" fill="#000000" font-family="Helvetica" font-size="13" font-weight="normal">
                    <tspan x="2618.19" y="322">Heavy</tspan>
                </text>
                <text id="Black" fill="#000000" font-family="Helvetica" font-size="13" font-weight="normal">
                    <tspan x="2917.4" y="322">Black</tspan>
                </text>
                <line x1="263" y1="1903" x2="3036" y2="1903" id="Path" stroke="#000000" stroke-width="0.5"></line>
                <g id="Group" transform="translate(264.000000, 1918.000000)" fill="#000000" fill-rule="nonzero">
                    <path d="M8.24805,15.830078 C12.5547,15.830078 16.1387,12.25586 16.1387,7.94922 C16.1387,3.6426 12.5449,0.0684 8.23828,0.0684 C3.94141,0.0684 0.36719,3.6426 0.36719,7.94922 C0.36719,12.25586 3.95117,15.830078 8.24805,15.830078 Z M8.24805,14.345703 C4.70312,14.345703 1.87109,11.50391 1.87109,7.94922 C1.87109,4.3945 4.69336,1.5527 8.23828,1.5527 C11.793,1.5527 14.6348,4.3945 14.6445503,7.94922 C14.6543,11.50391 11.8027,14.345703 8.24805,14.345703 Z M8.22852,11.57227 C8.69727,11.57227 8.9707,11.25977 8.9707,10.74219 L8.9707,8.68164 L11.1973,8.68164 C11.6953,8.68164 12.0371,8.42773 12.0371,7.95898 C12.0371,7.48047 11.7148,7.2168 11.1973,7.2168 L8.9707,7.2168 L8.9707,4.9902 C8.9707,4.4727 8.69727,4.1504 8.22852,4.1504 C7.75977,4.1504 7.50586,4.4922 7.50586,4.9902 L7.50586,7.2168 L5.29883,7.2168 C4.78125,7.2168 4.44922,7.48047 4.44922,7.95898 C4.44922,8.42773 4.80078,8.68164 5.29883,8.68164 L7.50586,8.68164 L7.50586,10.74219 C7.50586,11.24023 7.75977,11.57227 8.22852,11.57227 Z" id="Shape"></path>
                </g>
                <g id="Group" transform="translate(282.506000, 1915.000000)" fill="#000000" fill-rule="nonzero">
                    <path d="M10.709,20.91016 C16.1582,20.91016 20.6699,16.39844 20.6699,10.94922 C20.6699,5.5098 16.1484,0.9883 10.6992,0.9883 C5.25977,0.9883 0.74805,5.5098 0.74805,10.94922 C0.74805,16.39844 5.26953,20.91016 10.709,20.91016 Z M10.709,19.25 C6.09961,19.25 2.41797,15.55859 2.41797,10.94922 C2.41797,6.3496 6.08984,2.6484 10.6992,2.6484 C15.3086,2.6484 19,6.3496 19.0098379,10.94922 C19.0195,15.55859 15.3184,19.25 10.709,19.25 Z M10.6895,15.58789 C11.207,15.58789 11.5195,15.22656 11.5195,14.66016 L11.5195,11.76953 L14.5762,11.76953 C15.123,11.76953 15.5039,11.48633 15.5039,10.96875 C15.5039,10.44141 15.1426,10.13867 14.5762,10.13867 L11.5195,10.13867 L11.5195,7.0723 C11.5195,6.4961 11.207,6.1445 10.6895,6.1445 C10.1719,6.1445 9.8789,6.5156 9.8789,7.0723 L9.8789,10.13867 L6.83203,10.13867 C6.26562,10.13867 5.89453,10.44141 5.89453,10.96875 C5.89453,11.48633 6.28516,11.76953 6.83203,11.76953 L9.8789,11.76953 L9.8789,14.66016 C9.8789,15.20703 10.1719,15.58789 10.6895,15.58789 Z" id="Shape"></path>
                </g>
                <g id="Group" transform="translate(306.924000, 1913.000000)" fill="#000000" fill-rule="nonzero">
                    <path d="M12.9707,25.67383 C19.9336,25.67383 25.6953,19.921875 25.6953,12.95898 C25.6953,5.9961 19.9238,0.2441 12.9609,0.2441 C6.00781,0.2441 0.25586,5.9961 0.25586,12.95898 C0.25586,19.921875 6.01758,25.67383 12.9707,25.67383 Z M12.9707,23.85742 C6.93555,23.85742 2.08203,18.99414 2.08203,12.95898 C2.08203,6.9238 6.92578,2.0605 12.9609,2.0605 C19.0059,2.0605 23.8594,6.9238 23.8691295,12.95898 C23.8789,18.99414 19.0156,23.85742 12.9707,23.85742 Z M12.9512,18.93555 C13.5176,18.93555 13.8691,18.54492 13.8691,17.93945 L13.8691,13.86719 L18.1074,13.86719 C18.6934,13.86719 19.1133,13.53516 19.1133,12.97852 C19.1133,12.40234 18.7227,12.06055 18.1074,12.06055 L13.8691,12.06055 L13.8691,7.8125 C13.8691,7.1973 13.5176,6.8066 12.9512,6.8066 C12.3848,6.8066 12.0625,7.2168 12.0625,7.8125 L12.0625,12.06055 L7.83398,12.06055 C7.21875,12.06055 6.80859,12.40234 6.80859,12.97852 C6.80859,13.53516 7.23828,13.86719 7.83398,13.86719 L12.0625,13.86719 L12.0625,17.93945 C12.0625,18.52539 12.3848,18.93555 12.9512,18.93555 Z" id="Shape"></path>
                </g>
                <text id="Design-Variations" fill="#000000" font-family="Helvetica-Bold, Helvetica" font-size="13" font-weight="bold">
                    <tspan x="263" y="1953">Design Variations</tspan>
                </text>
                <text id="Symbols-are-supported-in-up-to-nine-weights-and-three-scales." fill="#000000" font-family="Helvetica" font-size="13" font-weight="normal">
                    <tspan x="263" y="1971">Symbols are supported in up to nine weights and three scales.</tspan>
                </text>
                <text id="For-optimal-layout-with-text-and-other-symbols,-vertically-align" fill="#000000" font-family="Helvetica" font-size="13" font-weight="normal">
                    <tspan x="263" y="1989">For optimal layout with text and other symbols, vertically align</tspan>
                </text>
                <text id="symbols-with-the-adjacent-text." fill="#000000" font-family="Helvetica" font-size="13" font-weight="normal">
                    <tspan x="263" y="2007">symbols with the adjacent text.</tspan>
                </text>
                <rect id="Rectangle" fill="#00AEEF" fill-rule="nonzero" opacity="0.4" x="776" y="1919" width="3" height="14"></rect>
                <g id="Group" transform="translate(779.000000, 1918.000000)" fill="#000000" fill-rule="nonzero">
                    <path d="M10.5273,15 L12.373,15 L7.17773,0.9082 L5.43945,0.9082 L0.244141,15 L2.08984,15 L3.50586,10.9668 L9.11133,10.9668 L10.5273,15 Z M6.2793,3.0469 L6.33789,3.0469 L8.59375,9.47266 L4.02344,9.47266 L6.2793,3.0469 Z" id="Shape"></path>
                </g>
                <rect id="Rectangle" fill="#00AEEF" fill-rule="nonzero" opacity="0.4" x="791.617" y="1919" width="3" height="14"></rect>
                <text id="Margins" fill="#000000" font-family="Helvetica-Bold, Helvetica" font-size="13" font-weight="bold">
                    <tspan x="776" y="1953">Margins</tspan>
                </text>
                <text id="Leading-and-trailing-margins-on-the-left-and-right-side-of-each-symbol" fill="#000000" font-family="Helvetica" font-size="13" font-weight="normal">
                    <tspan x="776" y="1971">Leading and trailing margins on the left and right side of each symbol</tspan>
                </text>
                <text id="can-be-adjusted-by-modifying-the-width-of-the-blue-rectangles." fill="#000000" font-family="Helvetica" font-size="13" font-weight="normal">
                    <tspan x="776" y="1989">can be adjusted by modifying the width of the blue rectangles.</tspan>
                </text>
                <text id="Modifications-are-automatically-applied-proportionally-to-all" fill="#000000" font-family="Helvetica" font-size="13" font-weight="normal">
                    <tspan x="776" y="2007">Modifications are automatically applied proportionally to all</tspan>
                </text>
                <text id="scales-and-weights." fill="#000000" font-family="Helvetica" font-size="13" font-weight="normal">
                    <tspan x="776" y="2025">scales and weights.</tspan>
                </text>
                <g id="Group" transform="translate(1291.000000, 1915.000000)" fill="#000000" fill-rule="nonzero">
                    <path d="M0.83203,21.11523 L2.375,22.6582 C3.22461,23.48828 4.19141,23.41992 5.06055,22.46289 L15.2754,11.33984 C15.7051,11.63281 16.0957,11.62305 16.5645,11.52539 L17.6094,11.31055 L18.3027,12.00391 L18.2539,12.52148 C18.1855,13.04883 18.3516,13.46875 18.8496,13.9668 L19.6602,14.77734 C20.168,15.28516 20.8223,15.31445 21.3008,14.83594 L24.5527,11.58398 C25.0312,11.10547 25.0117,10.45117 24.5039,9.94336 L23.6836,9.12305 C23.1855,8.625 22.7754,8.44922 22.2383,8.52734 L21.7109,8.58594 L21.0566,7.9219 L21.3398,6.7793 C21.4863,6.2129 21.3398,5.7441 20.7148,5.1387 L18.3027,2.7461 C14.7578,-0.7793 10.2266,-0.6719 7.11133,2.4629 C6.69141,2.8926 6.64258,3.4785 6.91602,3.9082 C7.15039,4.2793 7.62891,4.5039 8.2734,4.3379 C9.7871,3.957 11.3008,4.0742 12.7852,5.0801 L12.1602,6.6621 C11.9258,7.248 11.9453,7.7266 12.1797,8.16602 L1.01758,18.439453 C0.08008,19.30859 -0.02734,20.25586 0.83203,21.11523 Z M8.6738,2.8535 C11.3398,0.8613 14.6504,1.1738 17.0527,3.5859 L19.6797,6.1934 C19.9141,6.4277 19.9434,6.6133 19.8848,6.9062 L19.5039,8.46875 L21.0762,10.04102 L22.043,9.95312 C22.3262,9.92383 22.4141,9.94336 22.6387,10.16797 L23.2637,10.79297 L20.5098,13.53711 L19.8848,12.92188 C19.6602,12.69727 19.6406,12.59961 19.6699,12.31641 L19.7578,11.35938 L18.1953,9.79688 L16.5742,10.10938 C16.291,10.16797 16.1445,10.16797 15.9102,9.92383 L13.7324,7.7461 C13.5078,7.5117 13.4785,7.375 13.6055,7.0527 L14.5527,4.7773 C12.9512,3.2441 10.8418,2.3945 8.8008,3.0488 C8.7129,3.0781 8.6445,3.0586 8.6152,3.0195 C8.5859,2.9707 8.5859,2.9219 8.6738,2.8535 Z M2.10156,20.41211 C1.61328,19.91406 1.78906,19.61133 2.12109,19.30859 L13.0781,9.19141 L14.3086,10.42188 L4.15234,21.34961 C3.84961,21.68164 3.46875,21.7793 3.06836,21.37891 L2.10156,20.41211 Z" id="Shape"></path>
                </g>
                <text id="Exporting" fill="#000000" font-family="Helvetica-Bold, Helvetica" font-size="13" font-weight="bold">
                    <tspan x="1289" y="1953">Exporting</tspan>
                </text>
                <text id="Symbols-should-be-outlined-when-exporting-to-ensure-the" fill="#000000" font-family="Helvetica" font-size="13" font-weight="normal">
                    <tspan x="1289" y="1971">Symbols should be outlined when exporting to ensure the</tspan>
                </text>
                <text id="design-is-preserved-when-submitting-to-Xcode." fill="#000000" font-family="Helvetica" font-size="13" font-weight="normal">
                    <tspan x="1289" y="1989">design is preserved when submitting to Xcode.</tspan>
                </text>
                <text id="Template-v.1.0" fill="#000000" font-family="Helvetica" font-size="13" font-weight="normal">
                    <tspan x="2952" y="1933">Template v.1.0</tspan>
                </text>
                <text id="Generated-from-circle" fill="#000000" font-family="Helvetica" font-size="13" font-weight="normal">
                    <tspan x="2911" y="1951">Generated from circle</tspan>
                </text>
                <text id="Typeset-at-100-points" fill="#000000" font-family="Helvetica" font-size="13" font-weight="normal">
                    <tspan x="2912" y="1969">Typeset at 100 points</tspan>
                </text>
                <text id="Small" fill="#000000" font-family="Helvetica" font-size="13" font-weight="normal">
                    <tspan x="263" y="726">Small</tspan>
                </text>
                <text id="Medium" fill="#000000" font-family="Helvetica" font-size="13" font-weight="normal">
                    <tspan x="263" y="1156">Medium</tspan>
                </text>
                <text id="Large" fill="#000000" font-family="Helvetica" font-size="13" font-weight="normal">
                    <tspan x="263" y="1586">Large</tspan>
                </text>
            </g>
            <g id="Guides" transform="translate(263.000000, 625.000000)">
                <g id="H-reference" transform="translate(76.000000, 0.000000)" fill="#27AAE1" fill-rule="nonzero">
                    <path d="M54.9316,71 L57.666,71 L30.5664,0.541 L28.0762,0.541 L0.976562,71 L3.66211,71 L12.9395,46.5371 L45.7031,46.5371 L54.9316,71 Z M29.1992,3.9102 L29.4434,3.9102 L44.8242,44.291 L13.8184,44.291 L29.1992,3.9102 Z" id="Shape"></path>
                </g>
                <line x1="0" y1="71" x2="2773" y2="71" id="Baseline-S" stroke="#27AAE1" stroke-width="0.577"></line>
                <line x1="0" y1="0.541" x2="2773" y2="0.541" id="Capline-S" stroke="#27AAE1" stroke-width="0.577"></line>
                <g id="H-reference" transform="translate(76.000000, 430.000000)" fill="#27AAE1" fill-rule="nonzero">
                    <path d="M54.9316,71 L57.666,71 L30.5664,0.541 L28.0762,0.541 L0.976562,71 L3.66211,71 L12.9395,46.5371 L45.7031,46.5371 L54.9316,71 Z M29.1992,3.9102 L29.4434,3.9102 L44.8242,44.291 L13.8184,44.291 L29.1992,3.9102 Z" id="Shape"></path>
                </g>
                <line x1="0" y1="501" x2="2773" y2="501" id="Baseline-M" stroke="#27AAE1" stroke-width="0.577"></line>
                <line x1="0" y1="430.54" x2="2773" y2="430.54" id="Capline-M" stroke="#27AAE1" stroke-width="0.577"></line>
                <g id="H-reference" transform="translate(76.000000, 860.000000)" fill="#27AAE1" fill-rule="nonzero">
                    <path d="M54.9316,71 L57.666,71 L30.5664,0.541 L28.0762,0.541 L0.976562,71 L3.66211,71 L12.9395,46.5371 L45.7031,46.5371 L54.9316,71 Z M29.1992,3.9102 L29.4434,3.9102 L44.8242,44.291 L13.8184,44.291 L29.1992,3.9102 Z" id="Shape"></path>
                </g>
                <line x1="0" y1="931" x2="2773" y2="931" id="Baseline-L" stroke="#27AAE1" stroke-width="0.577"></line>
                <line x1="0" y1="860.54" x2="2773" y2="860.54" id="Capline-L" stroke="#27AAE1" stroke-width="0.577"></line>
                <rect id="left-margin" fill="#00AEEF" fill-rule="nonzero" opacity="0.4" x="1128.3" y="405.79" width="8.74023" height="119.336"></rect>
                <rect id="right-margin" fill="#00AEEF" fill-rule="nonzero" opacity="0.4" x="1236.65" y="405.79" width="8.74023" height="119.336"></rect>
            </g>
            <g id="Symbols" transform="translate(1399.000000, 1040.000000)" fill="#000000" fill-rule="nonzero">
                <g id="Regular-M" transform="translate(0.300000, 0.000000)">
                    <path d="M50.5449,100.5508 C77.791,100.5508 100.35,77.99219 100.35,50.7461 C100.35,23.5488 77.7422,0.9414 50.4961,0.9414 C23.2988,0.9414 0.74023,23.5488 0.74023,50.7461 C0.74023,77.99219 23.3477,100.5508 50.5449,100.5508 Z M50.1551,92.0078 C27.1082,92.0078 8.7,73.5508 8.7,50.5039 C8.7,27.5058 27.0594,9 50.1063,9 C73.1532,9 91.6102,27.5058 91.6593938,50.5039 C91.7082,73.5508 73.202,92.0078 50.1551,92.0078 Z" id="Shape"></path>
                    <path d="M63.2817586,67.9398719 C63.2479121,67.8891011 63.2182963,67.8256375 63.1717573,67.7833285 C62.5921346,67.2121568 62.5794421,66.5055963 62.7571367,65.7398032 C62.8544456,65.316713 62.9052155,64.8851611 62.9813703,64.45784 C63.0194477,64.2378332 62.9559853,64.0855207 62.7655983,63.9924409 C62.2155914,63.7385868 61.6740461,63.4593473 61.1155776,63.2308786 C60.4047994,62.9431773 59.677098,62.6850924 58.9578582,62.4312383 C58.5601609,62.2958494 58.1243862,62.2577713 57.7605355,62.0589189 C57.295145,61.8050649 56.8001388,61.6908305 56.3220559,61.5131327 C56.0171687,61.408825 55.6898537,61.3883674 55.3743517,61.4539001 C54.9147249,61.522461 54.4512389,61.5620276 53.986642,61.5723653 C53.2504789,61.5977507 52.5185466,61.6062125 51.7866143,61.6146743 C51.5877657,61.6231361 51.388917,61.6019816 51.1942992,61.5935198 C51.0123738,61.5892889 50.9108341,61.669676 50.9108341,61.8812211 C50.9192958,62.1731533 50.9277574,62.4608546 50.9277574,62.7485559 C50.9319882,63.5608889 50.936219,64.3689911 50.9277574,65.1813242 C50.9235266,65.49018 51.0123738,65.7186487 51.2366074,65.9005774 C51.7019979,66.2686658 52.0827719,66.734065 52.4043144,67.2460041 C52.510085,67.4152401 52.5523932,67.6564015 52.5608548,67.8679466 C52.5735473,68.1641097 52.5312391,68.4645037 52.5016233,68.7606668 C52.4778356,69.0633355 52.3560415,69.3500025 52.1546959,69.5772307 C51.8458459,69.9283955 51.579304,70.3176385 51.2831465,70.6772651 C51.1096828,70.8888101 50.9150649,71.0876625 50.7204471,71.2695913 C50.5977533,71.3880565 50.0646696,71.2442059 49.9588991,71.066508 C49.6077408,70.4826436 49.2396593,69.907241 49.0704264,69.2133732 C48.9676144,68.850716 49.0148748,68.4619535 49.2015819,68.1344933 L49.2777367,68.1260315 C49.3031216,68.1979569 49.3285066,68.2741131 49.3623531,68.3460384 C49.4300463,68.5110436 49.531586,68.5152745 49.6288949,68.3671929 C49.6467274,68.3440666 49.6609889,68.3183954 49.6712032,68.2910367 C49.865821,67.5887071 50.1365936,66.8948392 50.0138998,66.1248152 C49.9730737,65.8375305 49.9532772,65.5476483 49.9546683,65.2574804 C49.9462066,64.3224512 49.9546683,63.3831911 49.9462066,62.4481619 C49.9462066,62.228155 49.91236,62.0039172 49.8827443,61.7839104 C49.8615902,61.5892889 49.7558196,61.4665928 49.5823559,61.4369764 C49.2565826,61.3862056 48.9308093,61.3481275 48.6092668,61.2931258 C48.2411852,61.2296623 47.8773345,61.1535061 47.509253,61.0942734 C46.7712258,60.9690324 46.0129605,61.0495447 45.317687,61.326973 C45.0384527,61.4369764 44.7507568,61.5046709 44.4715225,61.6104434 C44.1584417,61.7373704 43.8453608,61.8727593 43.5407416,62.0250717 C42.9061182,62.3423893 42.2799565,62.6935542 41.6368715,62.9939482 C41.1757119,63.2054932 40.6807057,63.3324203 40.2237769,63.5524271 C39.1956871,64.0474426 38.1549048,64.5382272 37.2875862,65.3547911 C36.314497,66.2771276 35.3456387,67.2121568 34.3894729,68.1556479 C33.7379262,68.7987449 33.0948412,69.4629964 32.4644487,70.1314788 C31.9736733,70.6476488 31.504052,71.1892041 31.0259691,71.7180668 C30.7467348,72.0311535 30.4717314,72.352702 30.1924971,72.6615578 C29.5788524,73.3382147 28.9639718,74.0137497 28.3478586,74.6881596 C27.8655448,75.1535588 27.3916927,75.6274197 26.8882249,76.0674335 C26.1562926,76.7105305 25.407437,77.3282421 24.6543507,77.9417228 C24.4258863,78.1278824 23.9478033,77.8359502 23.9266492,77.5186326 C23.9012643,77.1082352 23.8758794,77.0786189 23.503567,77.1040043 C23.1989478,77.1293897 22.9874067,76.9263064 22.7758655,76.731685 C22.6489409,76.6089888 22.6999311,76.4778309 22.7927888,76.3509038 C23.2539485,75.7247304 23.6812615,75.0689407 24.2101143,74.5062308 C24.7516596,73.9308282 25.2593583,73.3088857 25.7924419,72.7165595 C25.9193665,72.5769398 26.0970611,72.4923218 26.2324474,72.3611638 C26.6512988,71.9592282 27.099766,71.582678 27.4593859,71.1172788 C27.7216969,70.766114 28.051701,70.5164908 28.3393969,70.1991732 C29.0374826,69.4249183 29.7313375,68.6422015 30.4421156,67.8848702 C30.9159677,67.377162 31.4236664,66.9117628 31.9017493,66.4082856 C32.4009864,65.8878847 32.8833001,65.3505602 33.3656139,64.8090049 C33.6067707,64.546689 33.8352351,64.2716804 34.0679304,63.9966718 C34.1229311,63.9332083 34.1610085,63.8528211 34.2033167,63.7766649 L34.1610085,63.7089705 L33.9410057,63.8062812 C33.6025399,63.9585937 33.2725358,64.1278297 32.9298392,64.2547568 C32.8282994,64.2970658 32.671759,64.2547568 32.5786809,64.1870623 C32.4432946,64.0812898 32.5152186,63.9120538 32.5575268,63.7639722 C32.7180422,63.3353916 32.9896325,62.9572023 33.3444598,62.6681687 C34.0890845,61.9489155 34.8548633,61.2592786 35.5994881,60.5400253 C36.7911458,59.3961004 37.9290519,58.1974648 39.0095309,56.9479901 C39.3450536,56.5680922 39.6627091,56.1727802 39.9614659,55.7633377 C40.0851238,55.5961334 40.1558574,55.3957178 40.1645454,55.1879351 C40.1757046,54.631285 40.313137,54.0844387 40.5664735,53.5886544 C40.8457078,52.9709428 41.1799427,52.3786166 41.5184085,51.7989831 C41.7045647,51.4774346 41.9499524,51.1981951 42.1657243,50.8978011 C42.601499,50.2885513 43.0118888,49.6496852 43.4688176,49.0658208 C44.0061321,48.3888766 44.4080602,47.6019289 44.936913,46.9249847 C45.0215294,46.8149812 45.1230692,46.7219014 45.2034548,46.6076671 C45.5207665,46.1422679 45.8338473,45.668407 46.1553898,45.2072387 C46.8873221,44.1579752 47.6361776,43.1171734 48.3554174,42.0594481 C48.9096551,41.2555768 49.4215846,40.4178583 49.984284,39.6224489 C50.2804416,39.1993587 50.6358307,38.8228085 50.9912197,38.458951 C51.7210107,37.7358251 52.400913,36.9640296 53.0262453,36.1488788 C53.5508673,35.4423183 54.1135666,34.7738359 54.6508811,34.0799681 C54.8274516,33.8429275 54.9899142,33.5956972 55.1374256,33.3395603 C55.5012764,32.7303105 55.8524346,32.108368 56.2162853,31.4991182 C56.5209045,30.99141 56.8382162,30.5048564 57.1470662,30.0013791 C57.1893745,29.9421465 57.2020669,29.8617594 57.2401443,29.7982959 C57.3712998,29.578289 57.5066861,29.3540512 57.6463033,29.1382752 C57.9889999,28.6221053 58.3359273,28.1017044 58.6870856,27.5897653 C58.771702,27.4670692 58.8859342,27.3739894 58.9747815,27.2555241 C59.4317103,26.6674288 59.8801775,26.0708717 60.3497988,25.4912382 C60.5522514,25.2229636 60.7948464,24.9874993 61.0690386,24.7931395 C61.7205852,24.3700494 62.3805935,23.9427283 63.08291,23.6296416 C64.1406156,23.1600116 65.2617835,22.9188502 66.4041055,23.0246227 C67.25027,23.100779 68.0922036,23.3080931 68.9383681,23.4265584 C69.8099175,23.5534854 70.5672347,24.0485009 71.3626293,24.3954348 C72.1537931,24.7381378 72.8307247,25.3389258 73.4441939,26.0031773 C73.6318446,26.2225047 73.787139,26.467561 73.9053535,26.7308923 C74.1020556,27.1283362 74.454181,27.4268829 74.8784427,27.5559181 C75.3438331,27.7251542 75.775377,28.0001628 76.2111517,28.2497859 C76.371923,28.3386349 76.5073093,28.4867164 76.6553881,28.6009508 C77.2138566,29.0282718 77.4930909,29.662907 77.6961704,30.3567748 C77.704632,30.3863911 77.6961704,30.4287002 77.6961704,30.5048564 C77.323858,30.348313 77.0530854,30.6233216 76.7442353,30.7290942 C76.0709887,30.9583762 75.3602619,31.0574491 74.6499783,31.0210264 C74.4934378,31.0041027 74.3622824,31.0294882 74.2565118,31.1733388 C73.8630453,31.723356 73.4568864,32.2606805 73.0718815,32.8191594 C72.7630315,33.267635 72.4753356,33.7330341 72.1749472,34.1899715 C71.751865,34.8330685 71.5149389,35.5565526 71.4218608,36.3477312 L71.083395,39.2374369 C71.0651373,39.4003777 71.0566605,39.5642663 71.0580101,39.7282214 C71.0664717,40.8367176 71.1130108,41.9494446 71.0707026,43.0579408 C71.0410868,43.8448885 70.9014697,44.6233743 70.7956991,45.4060911 C70.7533909,45.710716 70.6856977,46.01111 70.6264662,46.3157349 C70.4360792,47.3226894 69.9918429,48.2323332 69.6829928,49.1927478 C69.3064497,50.3477839 68.6591338,51.3081985 68.0752804,52.315153 C67.893355,52.6240088 67.7368146,52.9497883 67.5464276,53.2459514 C67.4025796,53.4574964 67.2121926,53.6351943 67.059883,53.8425084 C66.7002631,54.3375239 66.3702589,54.8579248 65.9894849,55.3317857 C65.3590924,56.1229643 64.8048547,56.99453 64.0221525,57.6164725 C63.5736854,57.98033 63.1082949,58.3145712 62.6513661,58.665736 C62.3467469,58.8984356 62.059051,59.1649824 61.7417393,59.3765275 C61.4498126,59.5626871 61.1325009,59.6896142 60.8278817,59.8461575 C60.7348036,59.8926974 60.6501871,59.9646228 60.5571091,60.0153936 C60.4452221,60.0738483 60.3308854,60.1274888 60.2144124,60.1761678 C60.1721042,60.1930914 60.1213344,60.1803987 60.0874878,60.2057841 C59.6474822,60.5738726 59.0678596,60.5527181 58.6024691,60.857343 L58.344389,61.0138863 C58.4290054,61.0731189 58.4713136,61.1323515 58.5220835,61.1281206 C58.9451657,61.1281206 59.3132473,61.3354348 59.7067138,61.4877473 C60.5655707,61.8262194 61.4413509,62.1181516 62.3044387,62.4608546 C62.8121374,62.655476 63.319836,62.8120194 63.8486888,62.9347155 C64.3352334,63.044719 64.821778,63.1462606 65.321015,63.2266477 C65.9979466,63.3281894 66.3321815,63.8274357 66.3660281,64.5974598 C66.3871822,64.9951645 66.5056453,65.3886383 66.5818001,65.7821122 C66.6241083,65.9936572 66.6833398,66.1967405 66.7214172,66.4040547 C66.7637254,66.6579088 66.7044939,66.8694538 66.4929528,66.9963809 C66.3067966,67.1148461 66.2137185,67.2629277 66.2475651,67.5167817 C66.2560267,67.5844762 66.1756411,67.7114032 66.107948,67.7410195 C65.9783703,67.7921568 65.841007,67.8207747 65.701789,67.8256375 C65.4606321,67.8383302 65.249091,67.8891011 65.0967814,68.1387242 C65.0037033,68.2994985 64.8513937,68.2656513 64.7244691,68.193726 C64.487543,68.0541062 64.3013868,68.0879534 64.0813841,68.2656513 C63.9470981,68.3627143 63.7772811,68.3966783 63.6159936,68.3587311 C63.164102,68.2305676 62.7679943,67.955074 62.4905949,67.5760144 C62.4482866,67.5167817 62.4229017,67.4321637 62.3848243,67.3517766 C62.5879038,67.2375423 62.6555969,67.3940856 62.7571367,67.4913963 L63.273297,67.9525646 L63.4509915,68.0541062 L63.4721456,67.9864118 C63.4085053,67.973122 63.3450378,67.9590179 63.2817586,67.9441028 L63.2817586,67.9398719 Z M61.7111271,61 C60.9709474,62.5079182 59.9346958,63.7558505 61.5710931,65.0717791 C61.8791679,65.3197656 62.1072233,65.6317487 62.2392553,65.939732 C62.839401,67.3716543 64.6998527,68.0516174 66.4042666,68.8115762 C67.2124628,69.1715566 67.9086318,69.0035658 68.308729,68.4115979 C68.9088747,67.5116467 68.8528611,66.6516934 67.9006299,65.8517368 C66.2562306,64.4798112 64.6158323,63.0998861 62.9514282,61.7319603 C62.6873641,61.515972 62.3152738,61.3519809 61.7111271,61 L61.7111271,61 Z M60.6999311,61 C61.1000152,61.4399098 61.2880547,61.7758352 61.6721355,62.0477748 C64.2646805,63.9113606 66.017049,65.754951 62.6763466,67.8864773 C61.7161447,68.5063396 62.8803895,69.1661929 64.4887276,68.9622383 C65.3289043,68.8542622 66.4171331,68.5063396 66.6491819,68.1544178 C67.501361,66.8747021 68.1735023,65.5549954 68.6496024,64.2352887 C69.2497286,62.5716583 64.3566999,60.9960085 60.6999311,61 L60.6999311,61 Z M53.3519688,70 C52.7718482,70.5998817 52.2477392,71.0237981 51.9516777,71.4677106 C50.8114406,73.1793731 49.6311952,74.8910356 48.7390097,76.618695 C48.5389681,76.9986201 49.1310912,77.602501 49.9632642,77.8344553 C51.371557,78.2343764 52.8158574,77.8464529 53.251948,77.3425523 C54.5522184,75.862844 55.9605112,74.3751374 56.6206485,72.8474386 C57.0247325,71.9076239 55.8764937,70.9358155 53.3519688,70 L53.3519688,70 Z M68.6996784,69 C68.7156779,65.824 67.9717014,64.208 66.5317469,63.54 C65.1717898,62.9 63.835832,62.084 62.475875,61.424 C61.9438918,61.168 61.3759097,61.136 60.8239272,61 L60.6999311,61.752 L68.6996784,69 Z M67.8232887,69 C67.967281,68.9199991 68.6632437,68.7439971 68.695242,68.4879943 C68.7432394,68.1279903 68.415257,67.5279836 68.0552763,67.3519816 C65.7194015,66.1919687 64.4594691,64.2239467 63.2555336,62.191924 C63.1115082,61.9255666 62.9311213,61.6805476 62.7195623,61.4639159 C61.9516035,60.7399078 61.1236479,60.8639092 60.8356633,61.83192 C60.655673,62.4319267 60.6676724,63.1239344 60.7956655,63.7439413 C61.1836447,65.6719628 65.1154339,68.7039967 67.8232887,69 L67.8232887,69 Z M48.6999311,78 C59.7235488,76.24 59.0035738,71.372 48.6999311,70 L48.6999311,78 Z M35.5759311,72.8839624 C35.2159311,73.2999624 34.8559311,73.7159624 34.4879311,74.1319624 C34.9359311,74.4919624 35.3839311,75.1239624 35.8239311,75.1159624 C36.1919311,75.1159624 36.5519311,74.3559624 36.9119311,73.9399624 C36.4719311,73.5879624 36.0319311,73.2359624 35.5759311,72.8839624 Z M52.8673455,75.108 C53.1633455,74.7 53.7473455,74.22 53.6753455,73.892 C53.5873455,73.492 52.9393455,73.22 52.5313455,72.892 C52.2353455,73.3 51.6593455,73.772 51.7233455,74.108 C51.8113455,74.5 52.4593455,74.78 52.8673455,75.108 Z M43.2359311,56.76 C43.2839311,57.016 43.2439311,57.36 43.3959311,57.504 C43.5559311,57.648 43.8999311,57.592 44.1639311,57.624 L43.9239311,56.376 L43.2359311,56.76 L43.2359311,56.76 Z" id="Shape"></path>
                </g>
            </g>
        </g>
    </g>
</svg>