<?xml version="1.0" encoding="UTF-8"?>
<!--Generator: Apple Native CoreSVG 341-->
<!DOCTYPE svg
PUBLIC "-//W3C//DTD SVG 1.1//EN"
       "http://www.w3.org/Graphics/SVG/1.1/DTD/svg11.dtd">
<svg version="1.1" xmlns="http://www.w3.org/2000/svg" xmlns:xlink="http://www.w3.org/1999/xlink" viewBox="0 0 3300 2200">
 <!--glyph: "", point size: 100.0, font version: "20.0d10e1", template writer version: "138.0.0"-->
 <style>.monochrome-0 {-sfsymbols-motion-group:1;-sfsymbols-layer-tags:395b47b23f91844}
.monochrome-1 {-sfsymbols-motion-group:0;-sfsymbols-layer-tags:395b47b23f91844}

.multicolor-0:tintColor {-sfsymbols-motion-group:1;-sfsymbols-layer-tags:395b47b23f91844}
.multicolor-1:tintColor {-sfsymbols-motion-group:0;-sfsymbols-layer-tags:395b47b23f91844}

.hierarchical-0:primary {-sfsymbols-motion-group:1;-sfsymbols-layer-tags:395b47b23f91844}
.hierarchical-1:tertiary {-sfsymbols-motion-group:0;-sfsymbols-layer-tags:395b47b23f91844}

.SFSymbolsPreviewWireframe {fill:none;opacity:1.0;stroke:black;stroke-width:0.5}
</style>
 <g id="Notes">
  <rect height="2200" id="artboard" style="fill:white;opacity:1" width="3300" x="0" y="0"/>
  <line style="fill:none;stroke:black;opacity:1;stroke-width:0.5;" x1="263" x2="3036" y1="292" y2="292"/>
  <text style="stroke:none;fill:black;font-family:sans-serif;font-size:13;font-weight:bold;" transform="matrix(1 0 0 1 263 322)">Weight/Scale Variations</text>
  <text style="stroke:none;fill:black;font-family:sans-serif;font-size:13;text-anchor:middle;" transform="matrix(1 0 0 1 559.711 322)">Ultralight</text>
  <text style="stroke:none;fill:black;font-family:sans-serif;font-size:13;text-anchor:middle;" transform="matrix(1 0 0 1 856.422 322)">Thin</text>
  <text style="stroke:none;fill:black;font-family:sans-serif;font-size:13;text-anchor:middle;" transform="matrix(1 0 0 1 1153.13 322)">Light</text>
  <text style="stroke:none;fill:black;font-family:sans-serif;font-size:13;text-anchor:middle;" transform="matrix(1 0 0 1 1449.84 322)">Regular</text>
  <text style="stroke:none;fill:black;font-family:sans-serif;font-size:13;text-anchor:middle;" transform="matrix(1 0 0 1 1746.56 322)">Medium</text>
  <text style="stroke:none;fill:black;font-family:sans-serif;font-size:13;text-anchor:middle;" transform="matrix(1 0 0 1 2043.27 322)">Semibold</text>
  <text style="stroke:none;fill:black;font-family:sans-serif;font-size:13;text-anchor:middle;" transform="matrix(1 0 0 1 2339.98 322)">Bold</text>
  <text style="stroke:none;fill:black;font-family:sans-serif;font-size:13;text-anchor:middle;" transform="matrix(1 0 0 1 2636.69 322)">Heavy</text>
  <text style="stroke:none;fill:black;font-family:sans-serif;font-size:13;text-anchor:middle;" transform="matrix(1 0 0 1 2933.4 322)">Black</text>
  <line style="fill:none;stroke:black;opacity:1;stroke-width:0.5;" x1="263" x2="3036" y1="1903" y2="1903"/>
  <g transform="matrix(0.2 0 0 0.2 263 1933)">
   <path d="m46.2402 4.15039c21.7773 0 39.4531-17.627 39.4531-39.4043s-17.6758-39.4043-39.4531-39.4043c-21.7285 0-39.4043 17.627-39.4043 39.4043s17.6758 39.4043 39.4043 39.4043Zm0-7.42188c-17.6758 0-31.9336-14.3066-31.9336-31.9824s14.2578-31.9824 31.9336-31.9824 31.9824 14.3066 31.9824 31.9824-14.3066 31.9824-31.9824 31.9824Zm-17.9688-31.9824c0 2.14844 1.51367 3.61328 3.75977 3.61328h10.498v10.5957c0 2.19727 1.46484 3.71094 3.61328 3.71094 2.24609 0 3.71094-1.51367 3.71094-3.71094v-10.5957h10.5957c2.19727 0 3.71094-1.46484 3.71094-3.61328 0-2.19727-1.51367-3.71094-3.71094-3.71094h-10.5957v-10.5469c0-2.24609-1.46484-3.75977-3.71094-3.75977-2.14844 0-3.61328 1.51367-3.61328 3.75977v10.5469h-10.498c-2.24609 0-3.75977 1.51367-3.75977 3.71094Z"/>
  </g>
  <g transform="matrix(0.2 0 0 0.2 281.506 1933)">
   <path d="m58.5449 14.5508c27.4902 0 49.8047-22.3145 49.8047-49.8047s-22.3145-49.8047-49.8047-49.8047-49.8047 22.3145-49.8047 49.8047 22.3145 49.8047 49.8047 49.8047Zm0-8.30078c-22.9492 0-41.5039-18.5547-41.5039-41.5039s18.5547-41.5039 41.5039-41.5039 41.5039 18.5547 41.5039 41.5039-18.5547 41.5039-41.5039 41.5039Zm-22.6562-41.5039c0 2.39258 1.66016 4.00391 4.15039 4.00391h14.3555v14.4043c0 2.44141 1.66016 4.15039 4.05273 4.15039 2.44141 0 4.15039-1.66016 4.15039-4.15039v-14.4043h14.4043c2.44141 0 4.15039-1.61133 4.15039-4.00391 0-2.44141-1.70898-4.15039-4.15039-4.15039h-14.4043v-14.3555c0-2.49023-1.70898-4.19922-4.15039-4.19922-2.39258 0-4.05273 1.70898-4.05273 4.19922v14.3555h-14.3555c-2.49023 0-4.15039 1.70898-4.15039 4.15039Z"/>
  </g>
  <g transform="matrix(0.2 0 0 0.2 304.924 1933)">
   <path d="m74.8535 28.3203c35.1074 0 63.623-28.4668 63.623-63.5742s-28.5156-63.623-63.623-63.623-63.5742 28.5156-63.5742 63.623 28.4668 63.5742 63.5742 63.5742Zm0-9.08203c-30.127 0-54.4922-24.3652-54.4922-54.4922s24.3652-54.4922 54.4922-54.4922 54.4922 24.3652 54.4922 54.4922-24.3652 54.4922-54.4922 54.4922Zm-28.8574-54.4922c0 2.58789 1.85547 4.39453 4.58984 4.39453h19.7266v19.7754c0 2.68555 1.85547 4.58984 4.44336 4.58984 2.68555 0 4.54102-1.85547 4.54102-4.58984v-19.7754h19.7754c2.68555 0 4.58984-1.80664 4.58984-4.39453 0-2.73438-1.85547-4.58984-4.58984-4.58984h-19.7754v-19.7266c0-2.73438-1.85547-4.63867-4.54102-4.63867-2.58789 0-4.44336 1.9043-4.44336 4.63867v19.7266h-19.7266c-2.73438 0-4.58984 1.85547-4.58984 4.58984Z"/>
  </g>
  <text style="stroke:none;fill:black;font-family:sans-serif;font-size:13;font-weight:bold;" transform="matrix(1 0 0 1 263 1953)">Design Variations</text>
  <text style="stroke:none;fill:black;font-family:sans-serif;font-size:13;" transform="matrix(1 0 0 1 263 1971)">Symbols are supported in up to nine weights and three scales.</text>
  <text style="stroke:none;fill:black;font-family:sans-serif;font-size:13;" transform="matrix(1 0 0 1 263 1989)">For optimal layout with text and other symbols, vertically align</text>
  <text style="stroke:none;fill:black;font-family:sans-serif;font-size:13;" transform="matrix(1 0 0 1 263 2007)">symbols with the adjacent text.</text>
  <line style="fill:none;stroke:#00AEEF;stroke-width:0.5;opacity:1.0;" x1="776" x2="776" y1="1919" y2="1933"/>
  <g transform="matrix(0.2 0 0 0.2 776 1933)">
   <path d="m16.5527 0.78125c2.58789 0 3.85742-0.976562 4.78516-3.71094l6.29883-17.2363h28.8086l6.29883 17.2363c0.927734 2.73438 2.19727 3.71094 4.73633 3.71094 2.58789 0 4.24805-1.5625 4.24805-4.00391 0-0.830078-0.146484-1.61133-0.537109-2.63672l-22.9004-60.9863c-1.12305-2.97852-3.125-4.49219-6.25-4.49219-3.02734 0-5.07812 1.46484-6.15234 4.44336l-22.9004 61.084c-0.390625 1.02539-0.537109 1.80664-0.537109 2.63672 0 2.44141 1.5625 3.95508 4.10156 3.95508Zm13.4766-28.3691 11.8652-32.8613h0.244141l11.8652 32.8613Z"/>
  </g>
  <line style="fill:none;stroke:#00AEEF;stroke-width:0.5;opacity:1.0;" x1="792.836" x2="792.836" y1="1919" y2="1933"/>
  <text style="stroke:none;fill:black;font-family:sans-serif;font-size:13;font-weight:bold;" transform="matrix(1 0 0 1 776 1953)">Margins</text>
  <text style="stroke:none;fill:black;font-family:sans-serif;font-size:13;" transform="matrix(1 0 0 1 776 1971)">Leading and trailing margins on the left and right side of each symbol</text>
  <text style="stroke:none;fill:black;font-family:sans-serif;font-size:13;" transform="matrix(1 0 0 1 776 1989)">can be adjusted by modifying the x-location of the margin guidelines.</text>
  <text style="stroke:none;fill:black;font-family:sans-serif;font-size:13;" transform="matrix(1 0 0 1 776 2007)">Modifications are automatically applied proportionally to all</text>
  <text style="stroke:none;fill:black;font-family:sans-serif;font-size:13;" transform="matrix(1 0 0 1 776 2025)">scales and weights.</text>
  <g transform="matrix(0.2 0 0 0.2 1289 1933)">
   <path d="m14.209 9.32617 8.49609 8.54492c4.29688 4.3457 9.22852 4.05273 13.8672-1.07422l53.4668-58.9355-4.83398-4.88281-53.0762 58.3984c-1.75781 2.00195-3.41797 2.49023-5.76172 0.146484l-5.85938-5.81055c-2.34375-2.29492-1.80664-4.00391 0.195312-5.81055l57.373-54.0039-4.88281-4.83398-57.959 54.4434c-4.93164 4.58984-5.32227 9.47266-1.02539 13.8184Zm32.0801-90.9668c-2.09961 2.05078-2.24609 4.93164-1.07422 6.88477 1.17188 1.80664 3.4668 2.97852 6.68945 2.14844 7.32422-1.70898 14.9414-2.00195 22.0703 2.68555l-2.92969 7.27539c-1.70898 4.15039-0.830078 7.08008 1.85547 9.81445l11.4746 11.5723c2.44141 2.44141 4.49219 2.53906 7.32422 2.05078l5.32227-0.976562 3.32031 3.36914-0.195312 2.7832c-0.195312 2.49023 0.439453 4.39453 2.88086 6.78711l3.80859 3.71094c2.39258 2.39258 5.46875 2.53906 7.8125 0.195312l14.5508-14.5996c2.34375-2.34375 2.24609-5.32227-0.146484-7.71484l-3.85742-3.80859c-2.39258-2.39258-4.24805-3.17383-6.64062-2.97852l-2.88086 0.244141-3.22266-3.17383 1.2207-5.61523c0.634766-2.83203-0.146484-5.0293-3.07617-7.95898l-10.9863-10.9375c-16.6992-16.6016-38.8672-16.2109-53.3203-1.75781Zm7.4707 1.85547c12.1582-8.88672 28.6133-7.37305 39.7461 3.75977l12.1582 12.0605c1.17188 1.17188 1.36719 2.09961 1.02539 3.80859l-1.61133 7.42188 7.51953 7.42188 4.93164-0.292969c1.26953-0.0488281 1.66016 0.0488281 2.63672 1.02539l2.88086 2.88086-12.207 12.207-2.88086-2.88086c-0.976562-0.976562-1.12305-1.36719-1.07422-2.68555l0.341797-4.88281-7.4707-7.42188-7.61719 1.26953c-1.61133 0.341797-2.34375 0.195312-3.56445-0.976562l-10.0098-10.0098c-1.26953-1.17188-1.41602-2.00195-0.634766-3.85742l4.39453-10.4492c-7.8125-7.27539-17.9688-10.4004-28.125-7.42188-0.78125 0.195312-1.07422-0.439453-0.439453-0.976562Z"/>
  </g>
  <text style="stroke:none;fill:black;font-family:sans-serif;font-size:13;font-weight:bold;" transform="matrix(1 0 0 1 1289 1953)">Exporting</text>
  <text style="stroke:none;fill:black;font-family:sans-serif;font-size:13;" transform="matrix(1 0 0 1 1289 1971)">Symbols should be outlined when exporting to ensure the</text>
  <text style="stroke:none;fill:black;font-family:sans-serif;font-size:13;" transform="matrix(1 0 0 1 1289 1989)">design is preserved when submitting to Xcode.</text>
  <text id="template-version" style="stroke:none;fill:black;font-family:sans-serif;font-size:13;text-anchor:end;" transform="matrix(1 0 0 1 3036 1933)">Template v.6.0</text>
  <text style="stroke:none;fill:black;font-family:sans-serif;font-size:13;text-anchor:end;" transform="matrix(1 0 0 1 3036 1951)">Requires Xcode 16 or greater</text>
  <text id="descriptive-name" style="stroke:none;fill:black;font-family:sans-serif;font-size:13;text-anchor:end;" transform="matrix(1 0 0 1 3036 1969)">Generated from filtervogelgruppe-27</text>
  <text style="stroke:none;fill:black;font-family:sans-serif;font-size:13;text-anchor:end;" transform="matrix(1 0 0 1 3036 1987)">Typeset at 100.0 points</text>
  <text style="stroke:none;fill:black;font-family:sans-serif;font-size:13;" transform="matrix(1 0 0 1 263 726)">Small</text>
  <text style="stroke:none;fill:black;font-family:sans-serif;font-size:13;" transform="matrix(1 0 0 1 263 1156)">Medium</text>
  <text style="stroke:none;fill:black;font-family:sans-serif;font-size:13;" transform="matrix(1 0 0 1 263 1586)">Large</text>
 </g>
 <g id="Guides">
  <g id="H-reference" style="fill:#27AAE1;stroke:none;" transform="matrix(1 0 0 1 339 696)">
   <path d="M0.993654 0L3.63775 0L29.3281-67.1323L30.0303-67.1323L30.0303-70.459L28.1226-70.459ZM11.6885-24.4799L46.9815-24.4799L46.2315-26.7285L12.4385-26.7285ZM55.1196 0L57.7637 0L30.6382-70.459L29.4326-70.459L29.4326-67.1323Z"/>
  </g>
  <line id="Baseline-S" style="fill:none;stroke:#27AAE1;opacity:1;stroke-width:0.5;" x1="263" x2="3036" y1="696" y2="696"/>
  <line id="Capline-S" style="fill:none;stroke:#27AAE1;opacity:1;stroke-width:0.5;" x1="263" x2="3036" y1="625.541" y2="625.541"/>
  <g id="H-reference" style="fill:#27AAE1;stroke:none;" transform="matrix(1 0 0 1 339 1126)">
   <path d="M0.993654 0L3.63775 0L29.3281-67.1323L30.0303-67.1323L30.0303-70.459L28.1226-70.459ZM11.6885-24.4799L46.9815-24.4799L46.2315-26.7285L12.4385-26.7285ZM55.1196 0L57.7637 0L30.6382-70.459L29.4326-70.459L29.4326-67.1323Z"/>
  </g>
  <line id="Baseline-M" style="fill:none;stroke:#27AAE1;opacity:1;stroke-width:0.5;" x1="263" x2="3036" y1="1126" y2="1126"/>
  <line id="Capline-M" style="fill:none;stroke:#27AAE1;opacity:1;stroke-width:0.5;" x1="263" x2="3036" y1="1055.54" y2="1055.54"/>
  <g id="H-reference" style="fill:#27AAE1;stroke:none;" transform="matrix(1 0 0 1 339 1556)">
   <path d="M0.993654 0L3.63775 0L29.3281-67.1323L30.0303-67.1323L30.0303-70.459L28.1226-70.459ZM11.6885-24.4799L46.9815-24.4799L46.2315-26.7285L12.4385-26.7285ZM55.1196 0L57.7637 0L30.6382-70.459L29.4326-70.459L29.4326-67.1323Z"/>
  </g>
  <line id="Baseline-L" style="fill:none;stroke:#27AAE1;opacity:1;stroke-width:0.5;" x1="263" x2="3036" y1="1556" y2="1556"/>
  <line id="Capline-L" style="fill:none;stroke:#27AAE1;opacity:1;stroke-width:0.5;" x1="263" x2="3036" y1="1485.54" y2="1485.54"/>
  <line id="right-margin-Black-S" style="fill:none;stroke:#00AEEF;stroke-width:0.5;opacity:1.0;" x1="2982.23" x2="2982.23" y1="600.785" y2="720.121"/>
  <line id="left-margin-Black-S" style="fill:none;stroke:#00AEEF;stroke-width:0.5;opacity:1.0;" x1="2884.57" x2="2884.57" y1="600.785" y2="720.121"/>
  <line id="right-margin-Regular-S" style="fill:none;stroke:#00AEEF;stroke-width:0.5;opacity:1.0;" x1="1496.11" x2="1496.11" y1="600.785" y2="720.121"/>
  <line id="left-margin-Regular-S" style="fill:none;stroke:#00AEEF;stroke-width:0.5;opacity:1.0;" x1="1403.58" x2="1403.58" y1="600.785" y2="720.121"/>
  <line id="right-margin-Ultralight-S" style="fill:none;stroke:#00AEEF;stroke-width:0.5;opacity:1.0;" x1="603.773" x2="603.773" y1="600.785" y2="720.121"/>
  <line id="left-margin-Ultralight-S" style="fill:none;stroke:#00AEEF;stroke-width:0.5;opacity:1.0;" x1="515.649" x2="515.649" y1="600.785" y2="720.121"/>
 </g>
 <g id="Symbols">
  <g id="Black-S" transform="matrix(1 0 0 1 2884.57 696)">
   <path class="monochrome-0 multicolor-0:tintColor hierarchical-0:primary SFSymbolsPreviewWireframe" d="M62.7536-49.8907C63.402-49.5341 64.0773-49.185 64.7257-48.795C65.0731-48.587 65.3549-48.2898 65.6753-48.0447C66.2077-47.6398 66.7521-47.2498 67.2808-46.845C67.6975-46.5255 68.1028-46.1876 68.5194-45.8644C69.0752-45.441 69.5926-44.9545 70.2949-44.739C71.5725-44.349 72.8497-43.9441 74.1273-43.5541C74.517-43.439 74.9261-43.3834 75.3083-43.246C75.7328-43.0935 76.1303-42.882 76.543-42.6961L76.8287-42.5661C77.1683-42.399 77.5544-42.284 77.8323-42.05C78.2142-41.7305 78.5424-41.3441 78.8356-40.9394C79.0208-40.6905 79.1057-40.3674 79.2217-40.0701C79.4108-39.5725 79.5961-39.071 79.7618-38.566C79.8122-38.4174 79.7696-38.239 79.7888-38.0755C79.897-37.2029 79.9741-36.3264 79.874-35.446C79.8044-34.807 79.7079-34.172 79.6305-33.533C79.6075-33.3325 79.6153-33.1245 79.5883-32.9204C79.5109-32.3149 79.4222-31.7059 79.3335-31.1004C79.2565-30.5394 78.9747-30.3425 78.3881-30.1939C77.6701-30.0119 77.1531-30.3425 76.6126-30.6844C76.2846-30.8924 75.9372-31.0705 75.6132-31.2859C75.2736-31.5089 74.957-31.7579 74.6213-31.988C74.4513-32.103 74.2739-32.2034 74.0964-32.311C73.4672-32.69 72.8344-33.065 72.213-33.4589C71.7808-33.7339 71.3638-34.0345 70.9316-34.313C70.8389-34.3689 70.708-34.365 70.5958-34.3874C70.565-34.2464 70.4879-34.0979 70.511-33.9679C70.6306-33.2249 70.5032-32.5119 70.237-31.817C70.1665-31.6405 70.1148-31.4576 70.0827-31.2713C69.9822-30.6584 69.8435-30.0529 69.9592-29.4253C70.0092-29.1354 70.0131-28.8384 70.0131-28.5449C70.0131-28.0509 70.2832-27.6609 70.6075-27.3453C71.0937-26.8698 71.1402-26.3313 71.032-25.7333C71.0115-25.6306 71.0024-25.526 71.005-25.4213C71.0167-25.2244 71.0707-25.0794 71.3138-25.0199C71.6342-24.9458 71.6534-24.6228 71.7151-24.3813C71.8503-23.8538 71.9543-23.3153 72.0317-22.7768C72.0665-22.5538 72.0047-22.3163 71.9738-22.0858C71.9543-21.9188 72.0008-21.8444 72.1861-21.8554C72.3177-21.8593 72.4483-21.8346 72.5689-21.7836C72.6895-21.7322 72.7964-21.6559 72.8822-21.5597C72.968-21.4635 73.0304-21.3504 73.0649-21.2278C73.0993-21.1056 73.1048-20.9773 73.0814-20.8528C73.0197-20.5184 72.9076-20.1843 72.9001-19.8498C72.9102-19.6168 72.9833-19.3903 73.1123-19.1923C73.3245-18.8397 73.6525-18.5424 73.8068-18.1709C74.1312-17.3873 74.1582-16.9157 73.4981-16.2284C73.3015-16.0168 72.7958-15.9684 72.5332-16.0948C72.2709-16.2173 71.993-16.3028 71.6456-16.4292C71.9774-16.0798 72.2631-15.7938 72.5332-15.4932C72.7057-15.3135 72.8396-15.1032 72.9271-14.8734C73.0145-14.644 73.0538-14.4002 73.0428-14.1558C72.9963-13.7177 72.8728-13.1828 72.3404-12.9673C72.2091-12.9192 72.0431-12.9598 71.8926-12.9562L71.696-12.9562L71.7073-12.7892C71.7577-12.1837 71.8848-11.5337 71.1786-11.1362C70.9933-11.0322 70.7154-10.9432 70.5419-11.0027C70.0788-11.1697 69.6426-11.4148 69.1987-11.6338C69.0521-11.7082 68.9133-11.7937 68.7664-11.8642C68.7472-11.8753 68.6972-11.8197 68.6585-11.7937C68.7589-11.6858 68.8707-11.5857 68.9595-11.4668C69.0284-11.3849 69.0748-11.288 69.0947-11.1847C69.1099-11.0212 69.0947-10.8502 69.0791-10.6832C69.0599-10.4378 69.0521-10.1853 68.9942-9.94772C68.9442-9.74719 68.5581-9.67667 68.2071-9.69519C67.4736-9.73582 66.8908-10.1222 66.2772-10.4378C65.7634-10.7072 65.2525-10.9822 64.7452-11.2627C64.3913-11.4567 64.0412-11.6572 63.6954-11.8642C63.5024-11.9832 63.4059-11.9497 63.3867-11.7232C63.375-11.5487 63.2941-11.4817 63.1166-11.4632C62.4536-11.405 61.789-11.5506 61.2176-11.8792C60.7392-12.1392 60.2452-12.3618 59.7665-12.6218C59.0872-12.9822 58.4041-13.3352 57.7482-13.7362C57.1925-14.0817 56.6829-14.4938 56.1463-14.8692C55.4827-15.3258 54.8151-15.7753 54.1472-16.2248C53.6727-16.5478 53.194-16.8709 52.7078-17.1829C52.2717-17.4617 51.8046-17.7029 51.388-18.0077C50.9223-18.3594 50.4777-18.7364 50.0565-19.1368C49.8056-19.3708 49.6047-19.6568 49.3772-19.9168C49.0298-20.3143 48.6632-20.6968 48.3388-21.1164C47.8757-21.7108 47.4435-22.3234 46.9998-22.9289C46.475-23.6384 45.9501-24.3478 45.433-25.0648C44.8734-25.8409 44.3251-26.6173 43.7732-27.3973C43.6107-27.6225 43.4534-27.8517 43.3026-28.0844C43.0322-28.5039 42.6851-28.6304 42.1986-28.4779C41.8954-28.3873 41.5905-28.3018 41.284-28.2218C41.0292-28.1513 40.8441-28.3593 40.9135-28.6304C40.9252-28.6859 40.9213-28.7418 40.9291-28.8013C40.8518-28.7938 40.763-28.8124 40.7167-28.7789C40.5778-28.6785 40.4157-28.5745 40.3347-28.4373C40.2073-28.2144 40.1417-27.9618 40.0336-27.7278C39.9873-27.6238 39.9178-27.5309 39.8561-27.4344C39.7789-27.5608 39.6014-27.7129 39.6284-27.8058C39.8214-28.4373 39.995-29.1019 40.6936-29.4029C40.8788-29.4809 41.1066-29.4698 41.3149-29.5033C41.5466-29.5404 41.7702-29.5664 41.9942-29.6219C42.0406-29.6333 42.106-29.7705 42.0907-29.7818C42.025-29.8524 41.9363-29.9489 41.8554-29.9453C41.5041-29.9378 41.1527-29.8969 40.8017-29.8709C40.6357-29.8598 40.4697-29.8374 40.3076-29.8524C40.0182-29.8745 39.8059-29.7409 39.5628-29.6073C39.3196-29.4773 39.007-29.4585 38.7253-29.3993C38.6264-29.3782 38.5234-29.3847 38.4281-29.4178C38.3046-29.4659 38.1348-29.5365 38.104-29.6333C38.0152-29.9193 37.8338-30.1085 37.5636-30.1718C37.1816-30.2609 36.8689-30.0864 36.6528-29.7818C36.5753-29.6827 36.5287-29.5644 36.5185-29.4406C36.5082-29.3171 36.5348-29.1933 36.5949-29.0834C36.6413-28.9905 36.5409-28.8309 36.51-28.7009C36.402-28.7639 36.2901-28.8198 36.1936-28.8939C36.155-28.9238 36.1473-28.9905 36.1164-29.0425C35.9955-29.2524 35.9622-29.4984 36.0231-29.7308C36.084-29.9635 36.2347-30.165 36.4444-30.2944C36.6258-30.4058 36.784-30.5839 36.9809-30.6473C37.2576-30.7533 37.5564-30.7952 37.8531-30.7698C38.2892-30.6954 38.7098-30.6509 39.1498-30.7253C39.528-30.7919 39.9217-30.7734 40.2999-30.8105C40.5508-30.8365 40.7978-30.8924 41.0331-30.9629C41.0835-30.9778 41.1375-31.1485 41.1105-31.2118C41.0162-31.3906 40.8995-31.558 40.763-31.7094C40.7129-31.7689 40.5778-31.8134 40.5083-31.791C40.2883-31.7169 40.0799-31.6165 39.8715-31.5164C39.6168-31.3974 39.4161-31.5274 39.3698-31.869C39.3505-32.04 39.3814-32.2145 39.366-32.389C39.3621-32.4485 39.3158-32.5414 39.2656-32.5674C38.899-32.727 38.3239-32.5119 38.1232-32.17C38.0615-32.0734 37.9534-32.0029 37.8647-31.921C37.8029-32.0474 37.664-32.196 37.691-32.3C37.7875-32.664 37.911-33.0429 38.2969-33.21C38.4667-33.2844 38.6828-33.262 38.8797-33.262C39.1421-33.2584 39.4045-33.2249 39.667-33.221C39.6979-33.221 39.775-33.34 39.7596-33.377C39.5744-33.8044 39.3544-34.2204 39.1807-34.6549C39.0148-35.0634 38.8913-35.4869 38.7446-35.9029C38.6018-36.3114 38.5015-36.746 38.2969-37.121C38.1734-37.344 37.8878-37.4889 37.6678-37.656C37.0658-38.1165 36.4406-38.5474 35.8578-39.0301C35.5413-39.294 35.2943-39.6355 35.0203-39.944C34.8505-40.1295 34.7077-40.3525 34.5147-40.5121C33.8046-41.1029 33.0984-41.7009 32.3535-42.2394C31.723-42.6909 31.063-43.1026 30.3775-43.4725C29.6905-43.844 28.9881-44.2115 28.2471-44.4605C27.7647-44.624 27.2051-44.5905 26.6802-44.609C26.2943-44.6275 25.9084-44.5606 25.5301-44.5755C24.9022-44.5892 24.2781-44.478 23.6969-44.2486C23.1489-44.052 22.5932-43.8774 22.0529-43.662C20.9491-43.22 19.7295-43.0935 18.6875-42.4806C18.672-42.4734 18.6566-42.4621 18.6373-42.4585L18.1703-42.4065C18.2244-42.57 18.2475-42.752 18.3402-42.8894C18.6489-43.3461 19.1545-43.5726 19.6137-43.8401C20.0923-44.1186 20.594-44.3601 21.0996-44.583C21.9487-44.962 22.8016-45.3185 23.6584-45.6713C24.0713-45.8384 24.5229-45.9238 24.9088-46.1318C25.2334-46.3209 25.5208-46.5636 25.7578-46.8487C26.0936-47.235 26.3445-47.6918 26.6918-48.067C27.2707-48.691 27.8843-49.289 28.5057-49.8758C28.8376-50.1878 29.1927-50.4887 29.5786-50.7375C29.9645-50.9901 30.3968-51.1869 30.829-51.3764C31.3269-51.5918 31.8402-51.7775 32.3535-51.9706C32.5177-52.0282 32.6869-52.0716 32.8591-52.1006C33.4032-52.2009 33.9474-52.3012 34.4954-52.3866C34.7-52.4138 34.9069-52.4213 35.1129-52.4089C35.6764-52.3866 36.2437-52.3792 36.8072-52.3123C37.3089-52.2529 37.8029-52.1266 38.3008-52.0189C38.378-52.0041 38.4551-51.9558 38.5323-51.9409C38.6095-51.9261 38.6867-51.9298 38.7639-51.9261L38.7176-52.1489C38.6645-52.3271 38.6485-52.5136 38.6703-52.6978C38.6922-52.882 38.7515-53.0602 38.845-53.2223C39.0765-53.6049 39.3235-54.0023 39.6515-54.3069C40.1764-54.7935 40.7669-55.2169 41.338-55.6552C41.7124-55.9375 42.0751-56.242 42.4843-56.4612C42.9705-56.7249 43.5071-56.9032 44.0163-57.1297C44.6647-57.412 45.3017-57.7203 45.9462-57.9951C46.3245-58.1548 46.7103-58.2811 47.1003-58.4037C47.7948-58.6265 48.4896-58.8494 49.1881-59.0463C49.7129-59.1911 50.2531-59.2877 50.7819-59.4177C51.0906-59.492 51.3841-59.5997 51.6889-59.6814L53.5414-60.194C54.6221-60.4837 55.7105-60.7883 56.7986-61.052C57.2078-61.1523 57.6361-61.1708 58.0531-61.2228C58.9559-61.3343 59.863-61.4605 60.7701-61.5497C61.3567-61.6091 61.9469-61.6165 62.5375-61.6425C62.7461-61.6537 62.9583-61.6203 63.1589-61.6537C63.869-61.7763 64.5369-61.5794 65.2161-61.4531C65.768-61.3491 66.3351-61.286 66.8869-61.1894C67.1804-61.1374 67.4736-61.078 67.7475-60.9777C68.1798-60.818 68.6738-60.7808 69.0098-60.3983C69.2182-60.1568 69.4265-59.9377 69.2991-59.5811C69.2799-59.5291 69.3186-59.4548 69.33-59.388C69.3501-59.2611 69.3417-59.1316 69.3059-59.008C69.2698-58.8844 69.2071-58.7696 69.1216-58.6711C68.8824-58.3591 68.6738-58.0248 68.4268-57.7166C68.1606-57.3823 67.8905-57.048 67.5818-56.7546C67.3618-56.5429 67.4274-56.3312 67.4892-56.1157C67.6513-55.5846 67.8171-55.0572 67.9984-54.5372C68.1453-54.1101 68.3459-53.6941 68.4811-53.2632C68.6085-52.8546 68.6894-52.4386 68.782-52.0226C68.8207-51.8183 68.8863-51.6066 68.859-51.4061C68.8246-51.1089 68.7242-50.8118 68.6429-50.5184C68.6276-50.4627 68.5776-50.4181 68.5467-50.3661C68.238-49.8684 67.7092-49.6567 67.1882-49.5564C66.8021-49.4821 66.3699-49.6344 65.9571-49.6752C65.1196-49.7495 64.2821-49.8238 63.4406-49.887C63.2092-49.9055 62.9775-49.887 62.7536-49.887L62.7536-49.8907Z"/>
   <path class="monochrome-1 multicolor-1:tintColor hierarchical-1:tertiary SFSymbolsPreviewWireframe" d="M48.9411-84C55.3091-84.0013 61.615-82.7479 67.4985-80.3116C73.382-77.8752 78.7279-74.3036 83.2305-69.8009C87.7334-65.2983 91.305-59.9524 93.7418-54.0682C96.1779-48.1846 97.4312-41.8789 97.43-35.5124C97.43-8.72255 75.7254 13 48.9424 13C22.156 13 0.43-8.726 0.43-35.5124C0.43-62.2926 22.1539-84 48.9411-84ZM48.9424-70C29.8835-70 14.43-54.5582 14.43-35.5124C14.43-16.458 29.888-0.999999 48.9424-0.999999C67.9909-0.999999 83.43-16.4519 83.43-35.5138C83.4309-40.0428 82.5395-44.5276 80.8069-48.7121C79.0739-52.8969 76.5337-56.6989 73.3311-59.9013C70.1287-63.1038 66.3266-65.644 62.1422-67.3767C57.9578-69.1095 53.4729-70.0009 48.9424-70Z"/>
  </g>
  <g id="Regular-S" transform="matrix(1 0 0 1 1403.58 696)">
   <path class="monochrome-0 multicolor-0:tintColor hierarchical-0:primary SFSymbolsPreviewWireframe" d="M60.9603-51.1508C61.6662-50.7626 62.4015-50.3825 63.1074-49.9579C63.4857-49.7314 63.7925-49.4079 64.1414-49.141C64.721-48.7002 65.3137-48.2756 65.8894-47.8348C66.343-47.487 66.7843-47.1191 67.2379-46.7672C67.843-46.3062 68.4063-45.7765 69.1709-45.5419C70.5619-45.1173 71.9525-44.6764 73.3435-44.2518C73.7678-44.1265 74.2133-44.066 74.6294-43.9164C75.0915-43.7504 75.5243-43.52 75.9736-43.3176L76.2847-43.1761C76.6544-42.9942 77.0748-42.869 77.3773-42.6142C77.7931-42.2664 78.1505-41.8456 78.4697-41.4051C78.6714-41.1341 78.7637-40.7823 78.89-40.4586C79.096-39.9168 79.2977-39.3708 79.4781-38.821C79.533-38.6593 79.4866-38.465 79.5075-38.287C79.6253-37.3369 79.7092-36.3826 79.6002-35.424C79.5245-34.7284 79.4194-34.037 79.3352-33.3413C79.3101-33.123 79.3185-32.8965 79.2892-32.6743C79.205-32.0151 79.1084-31.352 79.0118-30.6928C78.9279-30.082 78.6211-29.8676 77.9824-29.7059C77.2008-29.5077 76.6378-29.8676 76.0494-30.2398C75.6923-30.4663 75.3141-30.6602 74.9613-30.8948C74.5915-31.1376 74.2469-31.4086 73.8813-31.6591C73.6963-31.7844 73.5031-31.8937 73.3099-32.0108C72.6248-32.4234 71.9359-32.8318 71.2593-33.2606C70.7887-33.56 70.3347-33.8873 69.8641-34.1905C69.7633-34.2514 69.6207-34.2472 69.4986-34.2716C69.465-34.118 69.3811-33.9563 69.4063-33.8148C69.5365-33.0059 69.3978-32.2295 69.108-31.473C69.0312-31.2809 68.9749-31.0816 68.9399-30.8789C68.8305-30.2115 68.6795-29.5523 68.8054-28.869C68.8599-28.5534 68.8642-28.23 68.8642-27.9105C68.8642-27.3726 69.1582-26.948 69.5113-26.6044C70.0407-26.0868 70.0913-25.5004 69.9735-24.8494C69.9512-24.7375 69.9413-24.6236 69.9441-24.5097C69.9568-24.2952 70.0156-24.1374 70.2803-24.0727C70.6291-23.992 70.65-23.6403 70.7173-23.3774C70.8645-22.8031 70.9777-22.2167 71.0619-21.6304C71.0998-21.3877 71.0325-21.129 70.9989-20.8781C70.9777-20.6963 71.0283-20.6152 71.23-20.6273C71.3733-20.6315 71.5155-20.6046 71.6468-20.5491C71.7781-20.4932 71.8945-20.41 71.9879-20.3053C72.0813-20.2005 72.1493-20.0774 72.1868-19.944C72.2243-19.8109 72.2303-19.6712 72.2048-19.5356C72.1376-19.1715 72.0155-18.8078 72.0074-18.4437C72.0183-18.19 72.098-17.9433 72.2384-17.7278C72.4695-17.3439 72.8265-17.0202 72.9946-16.6157C73.3477-15.7626 73.3771-15.2492 72.6585-14.5008C72.4444-14.2704 71.8938-14.2177 71.6079-14.3553C71.3223-14.4887 71.0198-14.5818 70.6415-14.7194C71.0028-14.3391 71.3138-14.0277 71.6079-13.7004C71.7958-13.5047 71.9416-13.2758 72.0367-13.0256C72.1319-12.7758 72.1747-12.5104 72.1627-12.2443C72.1121-11.7673 71.9777-11.1849 71.3981-10.9503C71.2551-10.8979 71.0743-10.9421 70.9105-10.9382L70.6964-10.9382L70.7088-10.7564C70.7636-10.0972 70.902-9.38946 70.1331-8.95671C69.9314-8.84348 69.6288-8.74652 69.4399-8.81128C68.9356-8.99316 68.4608-9.25996 67.9774-9.49845C67.8178-9.57948 67.6667-9.67254 67.5068-9.74932C67.4859-9.76136 67.4314-9.70085 67.3893-9.67254C67.4987-9.55506 67.6204-9.44608 67.717-9.31657C67.792-9.2274 67.8426-9.12196 67.8642-9.00943C67.8808-8.83145 67.8642-8.64532 67.8472-8.46345C67.8263-8.19629 67.8178-7.92136 67.7549-7.66269C67.7004-7.44437 67.28-7.36759 66.8978-7.38776C66.0992-7.43199 65.4648-7.85271 64.7967-8.19629C64.2373-8.48963 63.681-8.78899 63.1287-9.09436C62.7433-9.3056 62.3622-9.52392 61.9857-9.74932C61.7756-9.87883 61.6705-9.84239 61.6496-9.59576C61.6369-9.40574 61.5487-9.33285 61.3555-9.31268C60.6337-9.24934 59.9101-9.40786 59.288-9.7656C58.7672-10.0487 58.2293-10.2911 57.7081-10.5741C56.9686-10.9666 56.2248-11.3508 55.5107-11.7875C54.9056-12.1636 54.3508-12.6123 53.7666-13.021C53.0441-13.5181 52.3173-14.0075 51.5901-14.4969C51.0735-14.8486 50.5523-15.2003 50.0229-15.54C49.5481-15.8436 49.0396-16.1062 48.5859-16.4381C48.0789-16.8209 47.5948-17.2314 47.1362-17.6673C46.8631-17.9221 46.6444-18.2335 46.3967-18.5166C46.0184-18.9493 45.6193-19.3658 45.2662-19.8226C44.7619-20.4698 44.2913-21.1368 43.8083-21.796C43.2369-22.5685 42.6654-23.3409 42.1024-24.1215C41.4931-24.9665 40.8962-25.8118 40.2953-26.661C40.1184-26.9063 39.9471-27.1557 39.783-27.4091C39.4886-27.8659 39.1107-28.0035 38.5809-27.8376C38.2508-27.7389 37.9189-27.6458 37.5852-27.5588C37.3078-27.482 37.1062-27.7084 37.1818-28.0035C37.1946-28.064 37.1903-28.1249 37.1988-28.1897C37.1146-28.1815 37.018-28.2017 36.9675-28.1652C36.8163-28.0559 36.6398-27.9427 36.5516-27.7934C36.4129-27.5506 36.3415-27.2757 36.2238-27.0209C36.1734-26.9077 36.0978-26.8065 36.0305-26.7014C35.9465-26.839 35.7532-27.0046 35.7826-27.1058C35.9927-27.7934 36.1818-28.517 36.9424-28.8446C37.144-28.9296 37.392-28.9175 37.6188-28.954C37.8711-28.9943 38.1146-29.0226 38.3584-29.0831C38.409-29.0955 38.4801-29.2448 38.4635-29.2572C38.392-29.334 38.2954-29.4391 38.2073-29.4352C37.8248-29.4271 37.4423-29.3825 37.06-29.3542C36.8793-29.3421 36.6986-29.3177 36.5222-29.334C36.207-29.3581 35.9759-29.2126 35.7112-29.0672C35.4465-28.9257 35.1061-28.9051 34.7994-28.8407C34.6917-28.8177 34.5795-28.8248 34.4758-28.8609C34.3414-28.9133 34.1565-28.9901 34.1229-29.0955C34.0262-29.4069 33.8287-29.6128 33.5346-29.6818C33.1186-29.7788 32.7783-29.5888 32.543-29.2572C32.4586-29.1493 32.4079-29.0205 32.3967-28.8857C32.3855-28.7512 32.4144-28.6164 32.4799-28.4968C32.5304-28.3956 32.4211-28.2219 32.3875-28.0803C32.2698-28.149 32.148-28.2098 32.0429-28.2905C32.0009-28.3231 31.9925-28.3956 31.9589-28.4522C31.8273-28.6808 31.791-28.9487 31.8573-29.2017C31.9237-29.455 32.0877-29.6744 32.316-29.8152C32.5135-29.9366 32.6858-30.1305 32.9001-30.1995C33.2014-30.3149 33.5267-30.3605 33.8497-30.3329C34.3246-30.2519 34.7825-30.2034 35.2616-30.2844C35.6734-30.357 36.102-30.3368 36.5137-30.3771C36.7869-30.4054 37.0558-30.4663 37.3121-30.5431C37.3669-30.5594 37.4256-30.7451 37.3963-30.8141C37.2937-31.0088 37.1666-31.191 37.018-31.3559C36.9633-31.4206 36.8163-31.4691 36.7407-31.4447C36.5011-31.364 36.2742-31.2547 36.0473-31.1457C35.77-31.0162 35.5515-31.1577 35.5011-31.5296C35.4801-31.7157 35.5137-31.9058 35.4969-32.0958C35.4927-32.1605 35.4423-32.2617 35.3876-32.29C34.9885-32.4638 34.3624-32.2295 34.1439-31.8573C34.0766-31.7522 33.959-31.6754 33.8623-31.5862C33.7951-31.7239 33.6438-31.8856 33.6732-31.9988C33.7783-32.3951 33.9128-32.8077 34.333-32.9896C34.5178-33.0706 34.7531-33.0462 34.9674-33.0462C35.2532-33.0423 35.5389-33.0059 35.8246-33.0016C35.8582-33.0016 35.9423-33.1311 35.9255-33.1715C35.7238-33.6368 35.4843-34.0897 35.2952-34.5628C35.1145-35.0076 34.9801-35.4686 34.8204-35.9216C34.6649-36.3663 34.5557-36.8394 34.333-37.2478C34.1985-37.4905 33.8876-37.6483 33.648-37.8302C32.9925-38.3316 32.3119-38.8008 31.6774-39.3263C31.3328-39.6136 31.0639-39.9855 30.7655-40.3213C30.5807-40.5233 30.4252-40.7661 30.2151-40.9398C29.4419-41.5831 28.673-42.2342 27.862-42.8205C27.1756-43.312 26.457-43.7603 25.7106-44.163C24.9627-44.5674 24.198-44.9676 23.3912-45.2387C22.866-45.4167 22.2567-45.3802 21.6852-45.4004C21.2651-45.4206 20.8449-45.3477 20.4331-45.3639C19.7494-45.3788 19.0699-45.2578 18.4372-45.008C17.8405-44.7939 17.2354-44.6039 16.6472-44.3693C15.4454-43.888 14.1176-43.7504 12.9831-43.083C12.9663-43.0753 12.9495-43.0629 12.9285-43.059L12.42-43.0024C12.4788-43.1804 12.5041-43.3785 12.6049-43.5282C12.9411-44.0253 13.4915-44.272 13.9915-44.5632C14.5126-44.8664 15.0588-45.1293 15.6093-45.3721C16.5337-45.7847 17.4623-46.1728 18.3952-46.5569C18.8448-46.7389 19.3364-46.8319 19.7565-47.0584C20.11-47.2642 20.4229-47.5284 20.681-47.8388C21.0466-48.2594 21.3197-48.7568 21.6978-49.1652C22.3281-49.8446 22.9962-50.4957 23.6727-51.1346C24.0341-51.4743 24.4207-51.8019 24.8409-52.0728C25.261-52.3478 25.7317-52.5621 26.2023-52.7684C26.7443-53.0029 27.3032-53.2051 27.862-53.4154C28.0409-53.478 28.225-53.5254 28.4125-53.5569C29.0049-53.6661 29.5974-53.7753 30.1941-53.8683C30.4168-53.8979 30.642-53.9061 30.8664-53.8926C31.4799-53.8683 32.0976-53.8602 32.711-53.7874C33.2573-53.7227 33.7951-53.5852 34.3372-53.468C34.4212-53.4518 34.5052-53.3992 34.5893-53.383C34.6733-53.3669 34.7574-53.3709 34.8414-53.3669L34.791-53.6095C34.7332-53.8035 34.7157-54.0066 34.7395-54.2071C34.7633-54.4076 34.8279-54.6017 34.9296-54.7782C35.1818-55.1947 35.4507-55.6274 35.8078-55.959C36.3793-56.4888 37.0222-56.9498 37.644-57.4269C38.0516-57.7343 38.4465-58.0659 38.892-58.3045C39.4213-58.5916 40.0055-58.7857 40.56-59.0324C41.2659-59.3397 41.9595-59.6754 42.6611-59.9746C43.073-60.1485 43.493-60.286 43.9177-60.4194C44.6738-60.6621 45.4303-60.9047 46.1908-61.119C46.7622-61.2768 47.3503-61.3819 47.926-61.5234C48.2622-61.6043 48.5817-61.7216 48.9136-61.8105L50.9305-62.3686C52.1071-62.684 53.2921-63.0156 54.4768-63.3027C54.9223-63.4119 55.3886-63.4321 55.8426-63.4888C56.8256-63.6101 57.8132-63.7476 58.8008-63.8446C59.4395-63.9093 60.0821-63.9174 60.725-63.9457C60.9522-63.9578 61.1832-63.9215 61.4015-63.9578C62.1747-64.0913 62.9019-63.877 63.6414-63.7395C64.2422-63.6263 64.8597-63.5575 65.4605-63.4524C65.78-63.3958 66.0992-63.331 66.3975-63.2218C66.8681-63.048 67.406-63.0075 67.7718-62.591C67.9987-62.3282 68.2255-62.0896 68.0868-61.7014C68.0659-61.6448 68.108-61.5639 68.1204-61.4911C68.1423-61.3529 68.1331-61.2119 68.0942-61.0774C68.0549-60.9428 67.9866-60.8178 67.8936-60.7106C67.6331-60.3709 67.406-60.0069 67.137-59.6713C66.8472-59.3074 66.5532-58.9434 66.217-58.6239C65.9775-58.3934 66.049-58.1629 66.1162-57.9284C66.2928-57.3501 66.4732-56.7759 66.6707-56.2097C66.8306-55.7447 67.0489-55.2918 67.1961-54.8227C67.3348-54.3779 67.4229-53.9249 67.5238-53.472C67.5659-53.2496 67.6374-53.0191 67.6077-52.8007C67.5701-52.4772 67.4608-52.1537 67.3723-51.8342C67.3557-51.7736 67.3012-51.725 67.2676-51.6684C66.9315-51.1265 66.3557-50.896 65.7885-50.7868C65.3682-50.706 64.8975-50.8718 64.4482-50.9162C63.5363-50.9971 62.6244-51.078 61.7083-51.1468C61.4564-51.167 61.2041-51.1468 60.9603-51.1468L60.9603-51.1508Z"/>
   <path class="monochrome-1 multicolor-1:tintColor hierarchical-1:tertiary SFSymbolsPreviewWireframe" d="M46.4321-81.8365C52.4502-81.8377 58.4096-80.6532 63.9698-78.3508C69.53-76.0483 74.5822-72.6729 78.8374-68.4176C83.0928-64.1624 86.4682-59.1103 88.771-53.5496C91.0733-47.9892 92.2577-42.03 92.2566-36.0127C92.2566-10.693 71.744 9.83658 46.4328 9.83658C21.1173 9.83658 0.5835-10.6972 0.5835-36.0127C0.5835-61.3211 21.1145-81.8365 46.4321-81.8365ZM46.4328-75.0865C24.8413-75.0865 7.3335-57.592 7.3335-36.0127C7.3335-14.4252 24.8452 3.08658 46.4328 3.08658C68.0148 3.08658 85.5066-14.4197 85.5066-36.0133C85.5076-41.1447 84.4976-46.226 82.5345-50.9672C80.571-55.7085 77.693-60.0162 74.0644-63.6446C70.4361-67.273 66.1283-70.1511 61.3873-72.1143C56.6463-74.0776 51.5649-75.0875 46.4328-75.0865Z"/>
  </g>
  <g id="Ultralight-S" transform="matrix(1 0 0 1 515.649 696)">
   <path class="monochrome-0 multicolor-0:tintColor hierarchical-0:primary SFSymbolsPreviewWireframe" d="M58.8913-52.1508C59.5972-51.7626 60.3325-51.3825 61.0384-50.9579C61.4167-50.7314 61.7235-50.4079 62.0724-50.141C62.652-49.7002 63.2447-49.2756 63.8204-48.8348C64.274-48.487 64.7153-48.1191 65.1689-47.7672C65.774-47.3062 66.3373-46.7765 67.1019-46.5419C68.4929-46.1173 69.8835-45.6764 71.2745-45.2518C71.6988-45.1265 72.1443-45.066 72.5604-44.9164C73.0225-44.7504 73.4553-44.52 73.9046-44.3176L74.2157-44.1761C74.5854-43.9942 75.0058-43.869 75.3083-43.6142C75.7241-43.2664 76.0815-42.8456 76.4007-42.4051C76.6024-42.1341 76.6947-41.7823 76.821-41.4586C77.027-40.9168 77.2287-40.3708 77.4091-39.821C77.464-39.6593 77.4176-39.465 77.4385-39.287C77.5563-38.3369 77.6402-37.3826 77.5312-36.424C77.4555-35.7284 77.3504-35.037 77.2662-34.3413C77.2411-34.123 77.2495-33.8965 77.2202-33.6743C77.136-33.0151 77.0394-32.352 76.9428-31.6928C76.8589-31.082 76.5521-30.8676 75.9134-30.7059C75.1318-30.5077 74.5688-30.8676 73.9804-31.2398C73.6233-31.4663 73.2451-31.6602 72.8923-31.8948C72.5225-32.1376 72.1779-32.4086 71.8123-32.6591C71.6273-32.7844 71.4341-32.8937 71.2409-33.0108C70.5558-33.4234 69.8669-33.8318 69.1903-34.2606C68.7197-34.56 68.2657-34.8873 67.7951-35.1905C67.6943-35.2514 67.5517-35.2472 67.4296-35.2716C67.396-35.118 67.3121-34.9563 67.3373-34.8148C67.4675-34.0059 67.3288-33.2295 67.039-32.473C66.9622-32.2809 66.9059-32.0816 66.8709-31.8789C66.7615-31.2115 66.6105-30.5523 66.7364-29.869C66.7909-29.5534 66.7952-29.23 66.7952-28.9105C66.7952-28.3726 67.0892-27.948 67.4423-27.6044C67.9717-27.0868 68.0223-26.5004 67.9045-25.8494C67.8822-25.7375 67.8723-25.6236 67.8751-25.5097C67.8878-25.2952 67.9466-25.1374 68.2113-25.0727C68.5601-24.992 68.581-24.6403 68.6483-24.3774C68.7955-23.8031 68.9087-23.2167 68.9929-22.6304C69.0308-22.3877 68.9635-22.129 68.9299-21.8781C68.9087-21.6963 68.9593-21.6152 69.161-21.6273C69.3043-21.6315 69.4465-21.6046 69.5778-21.5491C69.7091-21.4932 69.8255-21.41 69.9189-21.3053C70.0123-21.2005 70.0803-21.0774 70.1178-20.944C70.1553-20.8109 70.1613-20.6712 70.1358-20.5356C70.0686-20.1715 69.9465-19.8078 69.9384-19.4437C69.9493-19.19 70.029-18.9433 70.1694-18.7278C70.4005-18.3439 70.7575-18.0202 70.9256-17.6157C71.2787-16.7626 71.3081-16.2492 70.5895-15.5008C70.3754-15.2704 69.8248-15.2177 69.5389-15.3553C69.2533-15.4887 68.9508-15.5818 68.5725-15.7194C68.9338-15.3391 69.2448-15.0277 69.5389-14.7004C69.7268-14.5047 69.8726-14.2758 69.9677-14.0256C70.0629-13.7758 70.1057-13.5104 70.0937-13.2443C70.0431-12.7673 69.9087-12.1849 69.3291-11.9503C69.1861-11.8979 69.0053-11.9421 68.8415-11.9382L68.6274-11.9382L68.6398-11.7564C68.6946-11.0972 68.833-10.3895 68.0641-9.95671C67.8624-9.84348 67.5598-9.74652 67.3709-9.81128C66.8666-9.99316 66.3918-10.26 65.9084-10.4984C65.7488-10.5795 65.5977-10.6725 65.4378-10.7493C65.4169-10.7614 65.3624-10.7008 65.3203-10.6725C65.4297-10.5551 65.5514-10.4461 65.648-10.3166C65.723-10.2274 65.7736-10.122 65.7952-10.0094C65.8118-9.83145 65.7952-9.64532 65.7782-9.46345C65.7573-9.19629 65.7488-8.92136 65.6859-8.66269C65.6314-8.44437 65.211-8.36759 64.8288-8.38776C64.0302-8.43199 63.3958-8.85271 62.7277-9.19629C62.1683-9.48963 61.612-9.78899 61.0597-10.0944C60.6743-10.3056 60.2932-10.5239 59.9167-10.7493C59.7066-10.8788 59.6015-10.8424 59.5806-10.5958C59.5679-10.4057 59.4797-10.3328 59.2865-10.3127C58.5647-10.2493 57.8411-10.4079 57.219-10.7656C56.6982-11.0487 56.1603-11.2911 55.6391-11.5741C54.8996-11.9666 54.1558-12.3508 53.4417-12.7875C52.8366-13.1636 52.2818-13.6123 51.6976-14.021C50.9751-14.5181 50.2483-15.0075 49.5211-15.4969C49.0045-15.8486 48.4833-16.2003 47.9539-16.54C47.4791-16.8436 46.9706-17.1062 46.5169-17.4381C46.0099-17.8209 45.5258-18.2314 45.0672-18.6673C44.7941-18.9221 44.5754-19.2335 44.3277-19.5166C43.9494-19.9493 43.5503-20.3658 43.1972-20.8226C42.6929-21.4698 42.2223-22.1368 41.7393-22.796C41.1679-23.5685 40.5964-24.3409 40.0334-25.1215C39.4241-25.9665 38.8272-26.8118 38.2263-27.661C38.0494-27.9063 37.8781-28.1557 37.714-28.4091C37.4196-28.8659 37.0417-29.0035 36.5119-28.8376C36.1818-28.7389 35.8499-28.6458 35.5162-28.5588C35.2388-28.482 35.0372-28.7084 35.1128-29.0035C35.1256-29.064 35.1213-29.1249 35.1298-29.1897C35.0456-29.1815 34.949-29.2017 34.8985-29.1652C34.7473-29.0559 34.5708-28.9427 34.4826-28.7934C34.3439-28.5506 34.2725-28.2757 34.1548-28.0209C34.1044-27.9077 34.0288-27.8065 33.9615-27.7014C33.8775-27.839 33.6842-28.0046 33.7136-28.1058C33.9237-28.7934 34.1128-29.517 34.8734-29.8446C35.075-29.9296 35.323-29.9175 35.5498-29.954C35.8021-29.9943 36.0456-30.0226 36.2894-30.0831C36.34-30.0955 36.4111-30.2448 36.3945-30.2572C36.323-30.334 36.2264-30.4391 36.1383-30.4352C35.7558-30.4271 35.3733-30.3825 34.991-30.3542C34.8103-30.3421 34.6296-30.3177 34.4532-30.334C34.138-30.3581 33.9069-30.2126 33.6422-30.0672C33.3775-29.9257 33.0371-29.9051 32.7304-29.8407C32.6227-29.8177 32.5105-29.8248 32.4068-29.8609C32.2724-29.9133 32.0875-29.9901 32.0539-30.0955C31.9572-30.4069 31.7597-30.6128 31.4656-30.6818C31.0496-30.7788 30.7093-30.5888 30.474-30.2572C30.3896-30.1493 30.3389-30.0205 30.3277-29.8857C30.3165-29.7512 30.3454-29.6164 30.4109-29.4968C30.4614-29.3956 30.3521-29.2219 30.3185-29.0803C30.2008-29.149 30.079-29.2098 29.9739-29.2905C29.9319-29.3231 29.9235-29.3956 29.8899-29.4522C29.7583-29.6808 29.722-29.9487 29.7883-30.2017C29.8547-30.455 30.0187-30.6744 30.247-30.8152C30.4445-30.9366 30.6168-31.1305 30.8311-31.1995C31.1324-31.3149 31.4577-31.3605 31.7807-31.3329C32.2556-31.2519 32.7135-31.2034 33.1926-31.2844C33.6044-31.357 34.033-31.3368 34.4447-31.3771C34.7179-31.4054 34.9868-31.4663 35.2431-31.5431C35.2979-31.5594 35.3566-31.7451 35.3273-31.8141C35.2247-32.0088 35.0976-32.191 34.949-32.3559C34.8943-32.4206 34.7473-32.4691 34.6717-32.4447C34.4321-32.364 34.2052-32.2547 33.9783-32.1457C33.701-32.0162 33.4825-32.1577 33.4321-32.5296C33.4111-32.7157 33.4447-32.9058 33.4279-33.0958C33.4237-33.1605 33.3733-33.2617 33.3186-33.29C32.9195-33.4638 32.2934-33.2295 32.0749-32.8573C32.0076-32.7522 31.89-32.6754 31.7933-32.5862C31.7261-32.7239 31.5748-32.8856 31.6042-32.9988C31.7093-33.3951 31.8438-33.8077 32.264-33.9896C32.4488-34.0706 32.6841-34.0462 32.8984-34.0462C33.1842-34.0423 33.4699-34.0059 33.7556-34.0016C33.7892-34.0016 33.8733-34.1311 33.8565-34.1715C33.6548-34.6368 33.4153-35.0897 33.2262-35.5628C33.0455-36.0076 32.9111-36.4686 32.7514-36.9216C32.5959-37.3663 32.4867-37.8394 32.264-38.2478C32.1295-38.4905 31.8186-38.6483 31.579-38.8302C30.9235-39.3316 30.2429-39.8008 29.6084-40.3263C29.2638-40.6136 28.9949-40.9855 28.6965-41.3213C28.5117-41.5233 28.3562-41.7661 28.1461-41.9398C27.3729-42.5831 26.604-43.2342 25.793-43.8205C25.1066-44.312 24.388-44.7603 23.6416-45.163C22.8937-45.5674 22.129-45.9676 21.3222-46.2387C20.797-46.4167 20.1877-46.3802 19.6162-46.4004C19.1961-46.4206 18.7759-46.3477 18.3641-46.3639C17.6804-46.3788 17.0009-46.2578 16.3682-46.008C15.7715-45.7939 15.1664-45.6039 14.5782-45.3693C13.3764-44.888 12.0486-44.7504 10.9141-44.083C10.8973-44.0753 10.8805-44.0629 10.8595-44.059L10.351-44.0024C10.4098-44.1804 10.4351-44.3785 10.5359-44.5282C10.8721-45.0253 11.4225-45.272 11.9225-45.5632C12.4436-45.8664 12.9898-46.1293 13.5403-46.3721C14.4647-46.7847 15.3933-47.1728 16.3262-47.5569C16.7758-47.7389 17.2674-47.8319 17.6875-48.0584C18.041-48.2642 18.3539-48.5284 18.612-48.8388C18.9776-49.2594 19.2507-49.7568 19.6288-50.1652C20.2591-50.8446 20.9272-51.4957 21.6037-52.1346C21.9651-52.4743 22.3517-52.8019 22.7719-53.0728C23.192-53.3478 23.6627-53.5621 24.1333-53.7684C24.6753-54.0029 25.2342-54.2051 25.793-54.4154C25.9719-54.478 26.156-54.5254 26.3435-54.5569C26.9359-54.6661 27.5284-54.7753 28.1251-54.8683C28.3478-54.8979 28.573-54.9061 28.7974-54.8926C29.4109-54.8683 30.0286-54.8602 30.642-54.7874C31.1883-54.7227 31.7261-54.5852 32.2682-54.468C32.3522-54.4518 32.4362-54.3992 32.5203-54.383C32.6043-54.3669 32.6884-54.3709 32.7724-54.3669L32.722-54.6095C32.6642-54.8035 32.6467-55.0066 32.6705-55.2071C32.6943-55.4076 32.7589-55.6017 32.8606-55.7782C33.1128-56.1947 33.3817-56.6274 33.7388-56.959C34.3103-57.4888 34.9532-57.9498 35.575-58.4269C35.9826-58.7343 36.3775-59.0659 36.823-59.3045C37.3523-59.5916 37.9365-59.7857 38.491-60.0324C39.1969-60.3397 39.8905-60.6754 40.5921-60.9746C41.004-61.1485 41.424-61.286 41.8487-61.4194C42.6048-61.6621 43.3613-61.9047 44.1218-62.119C44.6932-62.2768 45.2813-62.3819 45.857-62.5234C46.1932-62.6043 46.5127-62.7216 46.8446-62.8105L48.8615-63.3686C50.0381-63.684 51.2231-64.0156 52.4078-64.3027C52.8533-64.4119 53.3196-64.4321 53.7736-64.4888C54.7566-64.6101 55.7442-64.7476 56.7318-64.8446C57.3705-64.9093 58.0131-64.9174 58.656-64.9457C58.8832-64.9578 59.1142-64.9215 59.3325-64.9578C60.1057-65.0913 60.8329-64.877 61.5724-64.7395C62.1732-64.6263 62.7907-64.5575 63.3915-64.4524C63.711-64.3958 64.0302-64.331 64.3285-64.2218C64.7991-64.048 65.337-64.0075 65.7028-63.591C65.9297-63.3282 66.1565-63.0896 66.0178-62.7014C65.9969-62.6448 66.039-62.5639 66.0514-62.4911C66.0733-62.3529 66.0641-62.2119 66.0252-62.0774C65.9859-61.9428 65.9176-61.8178 65.8246-61.7106C65.5641-61.3709 65.337-61.0069 65.068-60.6713C64.7782-60.3074 64.4842-59.9434 64.148-59.6239C63.9085-59.3934 63.98-59.1629 64.0472-58.9284C64.2238-58.3501 64.4042-57.7759 64.6017-57.2097C64.7616-56.7447 64.9799-56.2918 65.1271-55.8227C65.2658-55.3779 65.3539-54.9249 65.4548-54.472C65.4969-54.2496 65.5684-54.0191 65.5387-53.8007C65.5011-53.4772 65.3918-53.1537 65.3033-52.8342C65.2867-52.7736 65.2322-52.725 65.1986-52.6684C64.8625-52.1265 64.2867-51.896 63.7195-51.7868C63.2992-51.706 62.8285-51.8718 62.3792-51.9162C61.4673-51.9971 60.5554-52.078 59.6393-52.1468C59.3874-52.167 59.1351-52.1468 58.8913-52.1468L58.8913-52.1508Z"/>
   <path class="monochrome-1 multicolor-1:tintColor hierarchical-1:tertiary SFSymbolsPreviewWireframe" d="M44.3636-80.5865C50.0861-80.5876 55.7528-79.4613 61.04-77.272C66.3271-75.0826 71.1312-71.8729 75.1774-67.8265C79.2239-63.7803 82.4335-58.9764 84.6232-53.6889C86.8124-48.4015 87.9387-42.7349 87.9376-37.0127C87.9376-12.9352 68.432 6.58658 44.3638 6.58658C20.2909 6.58658 0.7645-12.9399 0.7645-37.0127C0.7645-61.0781 20.2877-80.5865 44.3636-80.5865ZM44.3638-78.3365C21.53-78.3365 3.0145-59.8351 3.0145-37.0127C3.0145-14.1825 21.5336 4.33658 44.3638 4.33658C67.1889 4.33658 85.6876-14.1774 85.6876-37.0129C85.6886-42.4398 84.6205-47.8138 82.5443-52.828C80.4678-57.8425 77.4239-62.3983 73.5865-66.2355C69.7491-70.073 65.1932-73.1168 60.1791-75.1931C55.1651-77.2695 49.791-78.3376 44.3638-78.3365Z"/>
  </g>
 </g>
</svg>
