<?xml version="1.0" encoding="UTF-8"?>
<svg width="3300px" height="2200px" viewBox="0 0 3300 2200" version="1.1" xmlns="http://www.w3.org/2000/svg" xmlns:xlink="http://www.w3.org/1999/xlink">
    <!-- Generator: Sketch 59.1 (86144) - https://sketch.com -->
    <title>filter</title>
    <desc>Created with Sketch.</desc>
    <g id="Page-1" stroke="none" stroke-width="1" fill="none" fill-rule="evenodd">
        <g id="filter">
            <g id="Notes">
                <rect id="artboard" fill="#FFFFFF" fill-rule="nonzero" x="0" y="0" width="3300" height="2200"></rect>
                <line x1="263" y1="292" x2="3036" y2="292" id="Path" stroke="#000000" stroke-width="0.5"></line>
                <text id="Weight/Scale-Variations" fill="#000000" font-family="Helvetica-Bold, Helvetica" font-size="13" font-weight="bold">
                    <tspan x="263" y="322">Weight/Scale Variations</tspan>
                </text>
                <text id="Ultralight" fill="#000000" font-family="Helvetica" font-size="13" font-weight="normal">
                    <tspan x="533.711" y="322">Ultralight</tspan>
                </text>
                <text id="Thin" fill="#000000" font-family="Helvetica" font-size="13" font-weight="normal">
                    <tspan x="843.422" y="322">Thin</tspan>
                </text>
                <text id="Light" fill="#000000" font-family="Helvetica" font-size="13" font-weight="normal">
                    <tspan x="1138.63" y="322">Light</tspan>
                </text>
                <text id="Regular" fill="#000000" font-family="Helvetica" font-size="13" font-weight="normal">
                    <tspan x="1426.84" y="322">Regular</tspan>
                </text>
                <text id="Medium" fill="#000000" font-family="Helvetica" font-size="13" font-weight="normal">
                    <tspan x="1723.06" y="322">Medium</tspan>
                </text>
                <text id="Semibold" fill="#000000" font-family="Helvetica" font-size="13" font-weight="normal">
                    <tspan x="2015.77" y="322">Semibold</tspan>
                </text>
                <text id="Bold" fill="#000000" font-family="Helvetica" font-size="13" font-weight="normal">
                    <tspan x="2326.48" y="322">Bold</tspan>
                </text>
                <text id="Heavy" fill="#000000" font-family="Helvetica" font-size="13" font-weight="normal">
                    <tspan x="2618.19" y="322">Heavy</tspan>
                </text>
                <text id="Black" fill="#000000" font-family="Helvetica" font-size="13" font-weight="normal">
                    <tspan x="2917.4" y="322">Black</tspan>
                </text>
                <line x1="263" y1="1903" x2="3036" y2="1903" id="Path" stroke="#000000" stroke-width="0.5"></line>
                <g id="Group" transform="translate(264.000000, 1918.000000)" fill="#000000" fill-rule="nonzero">
                    <path d="M8.24805,15.830078 C12.5547,15.830078 16.1387,12.25586 16.1387,7.94922 C16.1387,3.6426 12.5449,0.0684 8.23828,0.0684 C3.94141,0.0684 0.36719,3.6426 0.36719,7.94922 C0.36719,12.25586 3.95117,15.830078 8.24805,15.830078 Z M8.24805,14.345703 C4.70312,14.345703 1.87109,11.50391 1.87109,7.94922 C1.87109,4.3945 4.69336,1.5527 8.23828,1.5527 C11.793,1.5527 14.6348,4.3945 14.6445503,7.94922 C14.6543,11.50391 11.8027,14.345703 8.24805,14.345703 Z M8.22852,11.57227 C8.69727,11.57227 8.9707,11.25977 8.9707,10.74219 L8.9707,8.68164 L11.1973,8.68164 C11.6953,8.68164 12.0371,8.42773 12.0371,7.95898 C12.0371,7.48047 11.7148,7.2168 11.1973,7.2168 L8.9707,7.2168 L8.9707,4.9902 C8.9707,4.4727 8.69727,4.1504 8.22852,4.1504 C7.75977,4.1504 7.50586,4.4922 7.50586,4.9902 L7.50586,7.2168 L5.29883,7.2168 C4.78125,7.2168 4.44922,7.48047 4.44922,7.95898 C4.44922,8.42773 4.80078,8.68164 5.29883,8.68164 L7.50586,8.68164 L7.50586,10.74219 C7.50586,11.24023 7.75977,11.57227 8.22852,11.57227 Z" id="Shape"></path>
                </g>
                <g id="Group" transform="translate(282.506000, 1915.000000)" fill="#000000" fill-rule="nonzero">
                    <path d="M10.709,20.91016 C16.1582,20.91016 20.6699,16.39844 20.6699,10.94922 C20.6699,5.5098 16.1484,0.9883 10.6992,0.9883 C5.25977,0.9883 0.74805,5.5098 0.74805,10.94922 C0.74805,16.39844 5.26953,20.91016 10.709,20.91016 Z M10.709,19.25 C6.09961,19.25 2.41797,15.55859 2.41797,10.94922 C2.41797,6.3496 6.08984,2.6484 10.6992,2.6484 C15.3086,2.6484 19,6.3496 19.0098379,10.94922 C19.0195,15.55859 15.3184,19.25 10.709,19.25 Z M10.6895,15.58789 C11.207,15.58789 11.5195,15.22656 11.5195,14.66016 L11.5195,11.76953 L14.5762,11.76953 C15.123,11.76953 15.5039,11.48633 15.5039,10.96875 C15.5039,10.44141 15.1426,10.13867 14.5762,10.13867 L11.5195,10.13867 L11.5195,7.0723 C11.5195,6.4961 11.207,6.1445 10.6895,6.1445 C10.1719,6.1445 9.8789,6.5156 9.8789,7.0723 L9.8789,10.13867 L6.83203,10.13867 C6.26562,10.13867 5.89453,10.44141 5.89453,10.96875 C5.89453,11.48633 6.28516,11.76953 6.83203,11.76953 L9.8789,11.76953 L9.8789,14.66016 C9.8789,15.20703 10.1719,15.58789 10.6895,15.58789 Z" id="Shape"></path>
                </g>
                <g id="Group" transform="translate(306.924000, 1913.000000)" fill="#000000" fill-rule="nonzero">
                    <path d="M12.9707,25.67383 C19.9336,25.67383 25.6953,19.921875 25.6953,12.95898 C25.6953,5.9961 19.9238,0.2441 12.9609,0.2441 C6.00781,0.2441 0.25586,5.9961 0.25586,12.95898 C0.25586,19.921875 6.01758,25.67383 12.9707,25.67383 Z M12.9707,23.85742 C6.93555,23.85742 2.08203,18.99414 2.08203,12.95898 C2.08203,6.9238 6.92578,2.0605 12.9609,2.0605 C19.0059,2.0605 23.8594,6.9238 23.8691295,12.95898 C23.8789,18.99414 19.0156,23.85742 12.9707,23.85742 Z M12.9512,18.93555 C13.5176,18.93555 13.8691,18.54492 13.8691,17.93945 L13.8691,13.86719 L18.1074,13.86719 C18.6934,13.86719 19.1133,13.53516 19.1133,12.97852 C19.1133,12.40234 18.7227,12.06055 18.1074,12.06055 L13.8691,12.06055 L13.8691,7.8125 C13.8691,7.1973 13.5176,6.8066 12.9512,6.8066 C12.3848,6.8066 12.0625,7.2168 12.0625,7.8125 L12.0625,12.06055 L7.83398,12.06055 C7.21875,12.06055 6.80859,12.40234 6.80859,12.97852 C6.80859,13.53516 7.23828,13.86719 7.83398,13.86719 L12.0625,13.86719 L12.0625,17.93945 C12.0625,18.52539 12.3848,18.93555 12.9512,18.93555 Z" id="Shape"></path>
                </g>
                <text id="Design-Variations" fill="#000000" font-family="Helvetica-Bold, Helvetica" font-size="13" font-weight="bold">
                    <tspan x="263" y="1953">Design Variations</tspan>
                </text>
                <text id="Symbols-are-supported-in-up-to-nine-weights-and-three-scales." fill="#000000" font-family="Helvetica" font-size="13" font-weight="normal">
                    <tspan x="263" y="1971">Symbols are supported in up to nine weights and three scales.</tspan>
                </text>
                <text id="For-optimal-layout-with-text-and-other-symbols,-vertically-align" fill="#000000" font-family="Helvetica" font-size="13" font-weight="normal">
                    <tspan x="263" y="1989">For optimal layout with text and other symbols, vertically align</tspan>
                </text>
                <text id="symbols-with-the-adjacent-text." fill="#000000" font-family="Helvetica" font-size="13" font-weight="normal">
                    <tspan x="263" y="2007">symbols with the adjacent text.</tspan>
                </text>
                <rect id="Rectangle" fill="#00AEEF" fill-rule="nonzero" opacity="0.4" x="776" y="1919" width="3" height="14"></rect>
                <g id="Group" transform="translate(779.000000, 1918.000000)" fill="#000000" fill-rule="nonzero">
                    <path d="M10.5273,15 L12.373,15 L7.17773,0.9082 L5.43945,0.9082 L0.244141,15 L2.08984,15 L3.50586,10.9668 L9.11133,10.9668 L10.5273,15 Z M6.2793,3.0469 L6.33789,3.0469 L8.59375,9.47266 L4.02344,9.47266 L6.2793,3.0469 Z" id="Shape"></path>
                </g>
                <rect id="Rectangle" fill="#00AEEF" fill-rule="nonzero" opacity="0.4" x="791.617" y="1919" width="3" height="14"></rect>
                <text id="Margins" fill="#000000" font-family="Helvetica-Bold, Helvetica" font-size="13" font-weight="bold">
                    <tspan x="776" y="1953">Margins</tspan>
                </text>
                <text id="Leading-and-trailing-margins-on-the-left-and-right-side-of-each-symbol" fill="#000000" font-family="Helvetica" font-size="13" font-weight="normal">
                    <tspan x="776" y="1971">Leading and trailing margins on the left and right side of each symbol</tspan>
                </text>
                <text id="can-be-adjusted-by-modifying-the-width-of-the-blue-rectangles." fill="#000000" font-family="Helvetica" font-size="13" font-weight="normal">
                    <tspan x="776" y="1989">can be adjusted by modifying the width of the blue rectangles.</tspan>
                </text>
                <text id="Modifications-are-automatically-applied-proportionally-to-all" fill="#000000" font-family="Helvetica" font-size="13" font-weight="normal">
                    <tspan x="776" y="2007">Modifications are automatically applied proportionally to all</tspan>
                </text>
                <text id="scales-and-weights." fill="#000000" font-family="Helvetica" font-size="13" font-weight="normal">
                    <tspan x="776" y="2025">scales and weights.</tspan>
                </text>
                <g id="Group" transform="translate(1291.000000, 1915.000000)" fill="#000000" fill-rule="nonzero">
                    <path d="M0.83203,21.11523 L2.375,22.6582 C3.22461,23.48828 4.19141,23.41992 5.06055,22.46289 L15.2754,11.33984 C15.7051,11.63281 16.0957,11.62305 16.5645,11.52539 L17.6094,11.31055 L18.3027,12.00391 L18.2539,12.52148 C18.1855,13.04883 18.3516,13.46875 18.8496,13.9668 L19.6602,14.77734 C20.168,15.28516 20.8223,15.31445 21.3008,14.83594 L24.5527,11.58398 C25.0312,11.10547 25.0117,10.45117 24.5039,9.94336 L23.6836,9.12305 C23.1855,8.625 22.7754,8.44922 22.2383,8.52734 L21.7109,8.58594 L21.0566,7.9219 L21.3398,6.7793 C21.4863,6.2129 21.3398,5.7441 20.7148,5.1387 L18.3027,2.7461 C14.7578,-0.7793 10.2266,-0.6719 7.11133,2.4629 C6.69141,2.8926 6.64258,3.4785 6.91602,3.9082 C7.15039,4.2793 7.62891,4.5039 8.2734,4.3379 C9.7871,3.957 11.3008,4.0742 12.7852,5.0801 L12.1602,6.6621 C11.9258,7.248 11.9453,7.7266 12.1797,8.16602 L1.01758,18.439453 C0.08008,19.30859 -0.02734,20.25586 0.83203,21.11523 Z M8.6738,2.8535 C11.3398,0.8613 14.6504,1.1738 17.0527,3.5859 L19.6797,6.1934 C19.9141,6.4277 19.9434,6.6133 19.8848,6.9062 L19.5039,8.46875 L21.0762,10.04102 L22.043,9.95312 C22.3262,9.92383 22.4141,9.94336 22.6387,10.16797 L23.2637,10.79297 L20.5098,13.53711 L19.8848,12.92188 C19.6602,12.69727 19.6406,12.59961 19.6699,12.31641 L19.7578,11.35938 L18.1953,9.79688 L16.5742,10.10938 C16.291,10.16797 16.1445,10.16797 15.9102,9.92383 L13.7324,7.7461 C13.5078,7.5117 13.4785,7.375 13.6055,7.0527 L14.5527,4.7773 C12.9512,3.2441 10.8418,2.3945 8.8008,3.0488 C8.7129,3.0781 8.6445,3.0586 8.6152,3.0195 C8.5859,2.9707 8.5859,2.9219 8.6738,2.8535 Z M2.10156,20.41211 C1.61328,19.91406 1.78906,19.61133 2.12109,19.30859 L13.0781,9.19141 L14.3086,10.42188 L4.15234,21.34961 C3.84961,21.68164 3.46875,21.7793 3.06836,21.37891 L2.10156,20.41211 Z" id="Shape"></path>
                </g>
                <text id="Exporting" fill="#000000" font-family="Helvetica-Bold, Helvetica" font-size="13" font-weight="bold">
                    <tspan x="1289" y="1953">Exporting</tspan>
                </text>
                <text id="Symbols-should-be-outlined-when-exporting-to-ensure-the" fill="#000000" font-family="Helvetica" font-size="13" font-weight="normal">
                    <tspan x="1289" y="1971">Symbols should be outlined when exporting to ensure the</tspan>
                </text>
                <text id="design-is-preserved-when-submitting-to-Xcode." fill="#000000" font-family="Helvetica" font-size="13" font-weight="normal">
                    <tspan x="1289" y="1989">design is preserved when submitting to Xcode.</tspan>
                </text>
                <text id="Template-v.1.0" fill="#000000" font-family="Helvetica" font-size="13" font-weight="normal">
                    <tspan x="2952" y="1933">Template v.1.0</tspan>
                </text>
                <text id="Generated-from-circle" fill="#000000" font-family="Helvetica" font-size="13" font-weight="normal">
                    <tspan x="2911" y="1951">Generated from circle</tspan>
                </text>
                <text id="Typeset-at-100-points" fill="#000000" font-family="Helvetica" font-size="13" font-weight="normal">
                    <tspan x="2912" y="1969">Typeset at 100 points</tspan>
                </text>
                <text id="Small" fill="#000000" font-family="Helvetica" font-size="13" font-weight="normal">
                    <tspan x="263" y="726">Small</tspan>
                </text>
                <text id="Medium" fill="#000000" font-family="Helvetica" font-size="13" font-weight="normal">
                    <tspan x="263" y="1156">Medium</tspan>
                </text>
                <text id="Large" fill="#000000" font-family="Helvetica" font-size="13" font-weight="normal">
                    <tspan x="263" y="1586">Large</tspan>
                </text>
            </g>
            <g id="Guides" transform="translate(263.000000, 625.000000)">
                <g id="H-reference" transform="translate(76.000000, 0.000000)" fill="#27AAE1" fill-rule="nonzero">
                    <path d="M54.9316,71 L57.666,71 L30.5664,0.541 L28.0762,0.541 L0.976562,71 L3.66211,71 L12.9395,46.5371 L45.7031,46.5371 L54.9316,71 Z M29.1992,3.9102 L29.4434,3.9102 L44.8242,44.291 L13.8184,44.291 L29.1992,3.9102 Z" id="Shape"></path>
                </g>
                <line x1="0" y1="71" x2="2773" y2="71" id="Baseline-S" stroke="#27AAE1" stroke-width="0.577"></line>
                <line x1="0" y1="0.541" x2="2773" y2="0.541" id="Capline-S" stroke="#27AAE1" stroke-width="0.577"></line>
                <g id="H-reference" transform="translate(76.000000, 430.000000)" fill="#27AAE1" fill-rule="nonzero">
                    <path d="M54.9316,71 L57.666,71 L30.5664,0.541 L28.0762,0.541 L0.976562,71 L3.66211,71 L12.9395,46.5371 L45.7031,46.5371 L54.9316,71 Z M29.1992,3.9102 L29.4434,3.9102 L44.8242,44.291 L13.8184,44.291 L29.1992,3.9102 Z" id="Shape"></path>
                </g>
                <line x1="0" y1="501" x2="2773" y2="501" id="Baseline-M" stroke="#27AAE1" stroke-width="0.577"></line>
                <line x1="0" y1="430.54" x2="2773" y2="430.54" id="Capline-M" stroke="#27AAE1" stroke-width="0.577"></line>
                <g id="H-reference" transform="translate(76.000000, 860.000000)" fill="#27AAE1" fill-rule="nonzero">
                    <path d="M54.9316,71 L57.666,71 L30.5664,0.541 L28.0762,0.541 L0.976562,71 L3.66211,71 L12.9395,46.5371 L45.7031,46.5371 L54.9316,71 Z M29.1992,3.9102 L29.4434,3.9102 L44.8242,44.291 L13.8184,44.291 L29.1992,3.9102 Z" id="Shape"></path>
                </g>
                <line x1="0" y1="931" x2="2773" y2="931" id="Baseline-L" stroke="#27AAE1" stroke-width="0.577"></line>
                <line x1="0" y1="860.54" x2="2773" y2="860.54" id="Capline-L" stroke="#27AAE1" stroke-width="0.577"></line>
                <rect id="left-margin" fill="#00AEEF" fill-rule="nonzero" opacity="0.4" x="1128.3" y="405.79" width="8.74023" height="119.336"></rect>
                <rect id="right-margin" fill="#00AEEF" fill-rule="nonzero" opacity="0.4" x="1236.65" y="405.79" width="8.74023" height="119.336"></rect>
            </g>
            <g id="Symbols" transform="translate(1399.000000, 1040.000000)" fill-rule="nonzero">
                <g id="Regular-M" transform="translate(0.300000, 0.000000)">
                    <!-- <path d="M50.5449,100.5508 C77.791,100.5508 100.35,77.99219 100.35,50.7461 C100.35,23.5488 77.7422,0.9414 50.4961,0.9414 C23.2988,0.9414 0.74023,23.5488 0.74023,50.7461 C0.74023,77.99219 23.3477,100.5508 50.5449,100.5508 Z M50.1551,92.0078 C27.1082,92.0078 8.7,73.5508 8.7,50.5039 C8.7,27.5058 27.0594,9 50.1063,9 C73.1532,9 91.6102,27.5058 91.6593938,50.5039 C91.7082,73.5508 73.202,92.0078 50.1551,92.0078 Z" id="Shape" fill="#000000"></path> -->
                    <path d="M19.7,26.1079408 C19.7089321,26.238656 21.2600694,26.513158 22.7414927,26.613373 C24.2229159,26.7223023 27.9264741,26.8704462 27.9264741,26.8704462 C27.9264741,26.8704462 30.1311806,27.5109508 31.1507483,27.7593097 C32.165959,28.0120258 33.3815975,28.2255274 33.8303816,28.6525304 C34.2791657,29.0795335 34.1397377,30.5740442 33.294455,31.7069094 C32.4491723,32.8397747 32.2051731,33.4802793 31.5080328,35.9072252 C30.8065353,38.3385283 30.6758215,39.5106081 31.3293906,42.3994145 C31.9829597,45.2925781 33.259598,47.5888088 33.6517394,49.1486772 C34.0438809,50.7041883 34.5318791,51.1399057 35.2638765,52.0766981 C35.9915168,53.0134905 36.8106567,54.1681417 37.9478669,55.5101513 C39.08072,56.8608752 41.3159263,58.5514588 42.775564,59.3313929 C44.2395588,60.1113271 45.4551973,60.4904012 45.9998382,61.1134771 C46.5357648,61.736553 47.773189,64.8475753 47.7862604,65.0610768 C47.7949746,65.2745783 48.2219731,68.3071715 48.1435448,69.1350345 C48.0651165,69.9585404 47.5466184,70.1807563 47.4289759,70.6600454 C47.3113335,71.1393346 47.738332,71.0391196 47.7862604,71.8059822 C47.8298316,72.577202 47.158834,75.1610062 46.1741233,77.6620241 C45.1937696,80.1630421 44.8146996,82.2370569 44.2090589,82.8819187 C43.599061,83.5224232 41.7298534,83.5180661 40.8104996,83.5180661 C40.3200889,83.4987471 39.8312452,83.5849271 39.3770047,83.7707822 C39.3770047,83.7707822 37.1025842,83.8143539 36.1570876,83.9014974 C35.2159481,83.9842837 34.8935207,84.4156439 34.9065921,84.5376448 C34.9196635,84.6552885 35.2203052,84.441787 35.4425187,84.4069296 C35.6603751,84.3764294 35.9784454,84.4069296 35.9784454,84.4069296 C35.9784454,84.4069296 36.2137303,84.66836 36.514372,84.6640028 C36.819371,84.6552885 37.2027982,84.4287154 37.4119403,84.4069296 C37.6210824,84.3851437 38.2615801,84.3590007 38.4837936,84.4069296 C38.70165,84.4592157 39.5817897,84.5332876 39.9129313,84.5376448 C40.2484301,84.5376448 40.1961446,84.4287154 40.6318573,84.4069296 C41.0675701,84.3851437 40.9891418,84.4069296 40.9891418,84.4069296 C40.9891418,84.4069296 40.5752147,84.5158589 40.6318573,84.7903609 C40.6841429,85.0648629 40.9586419,85.0256483 41.167784,84.9210761 C41.3769261,84.8077896 41.4248545,84.7119318 41.5250684,84.7903609 C41.6252824,84.86879 41.7952103,84.8165039 42.2396373,84.6596457 C42.6840643,84.5115018 43.1807768,84.4287154 43.8517744,84.4069296 C44.4231058,84.384394 44.9780956,84.2099238 45.4595544,83.9014974 C45.6991964,83.7054246 45.5728397,83.5137089 45.8168388,83.5180661 C46.060838,83.5180661 46.1828375,83.7577106 46.1741233,83.9014974 C46.165409,84.0452841 46.0695522,84.4200011 46.1741233,84.4069296 C46.2786943,84.3982152 46.7144071,84.1890709 47.0716915,84.1542135 C47.3094031,84.1328711 47.5485488,84.1328711 47.7862604,84.1542135 C47.7862604,84.1542135 47.8167603,84.3067146 47.9605455,84.2849287 C48.1086878,84.2544285 48.0389738,84.2108567 48.6794715,84.1542135 C49.3199692,84.0975702 49.7513248,84.1542135 49.7513248,84.1542135 C49.7513248,84.1542135 49.7077535,84.5027874 49.5770397,84.6640028 C49.4463259,84.8295755 49.860253,84.5899309 50.2916086,84.5332876 C50.5376645,84.4985295 50.78836,84.5443889 51.0061774,84.6640028 C51.0061774,84.6640028 51.2676051,84.5942881 51.5421041,84.4069296 C51.8166031,84.2239283 53.1542412,84.4069296 53.1542412,84.4069296 C53.1542412,84.4069296 53.1716697,84.3764294 53.6901679,84.2805715 C54.2043089,84.1847137 55.0713772,84.367715 55.4765901,84.2805715 C55.8818029,84.193428 55.8774458,83.7054246 56.1911589,83.7707822 C56.5092292,83.840497 56.7314427,84.0278554 56.7314427,84.0278554 C56.7314427,84.0278554 56.9405848,83.5485663 56.5484434,83.0082767 C56.160659,82.4679871 55.8556601,82.3852008 55.8338745,81.3525506 C55.8120889,80.3242575 55.3894475,73.0869914 55.2979478,71.9323403 C55.2108053,70.7820463 55.4286617,70.1763991 55.1193056,69.5141087 C54.8099496,68.8561754 54.0605237,67.2570925 53.8688101,66.0762983 C53.6727394,64.8998613 53.7511676,64.0632839 54.0430952,63.7844248 C54.3393798,63.5099228 54.6095217,63.2746354 56.1911589,63.7844248 C57.7771533,64.2985713 59.2324338,64.4249294 59.2324338,64.4249294 C59.2324338,64.4249294 61.1364984,65.0785055 61.9164242,65.1874348 C62.7007071,65.3007214 62.8009211,65.2222922 62.9882775,65.3181501 C63.1799911,65.4052935 64.5132721,65.8279394 64.9576991,65.9499403 C65.4064832,66.0762983 66.3868368,66.7603747 66.9271206,67.0958771 C67.4674044,67.4313795 67.5196899,67.7320245 67.4630473,68.1154558 C67.4312444,68.4108902 67.4312444,68.7088849 67.4630473,69.0043193 C67.4630473,69.0043193 68.7745426,68.0980271 68.892185,68.3681719 C69.0098275,68.6383167 68.5349006,69.3877506 68.5349006,69.3877506 C68.5349006,69.3877506 69.1448984,69.047891 69.611111,69.0043193 C70.0686094,68.9607476 70.8049639,68.5293873 70.8616066,68.7516032 C70.9182492,68.9694619 71.0402488,70.023898 71.0402488,70.023898 C71.0402488,70.023898 72.4040296,68.6165308 72.4693865,68.6252452 C72.5391006,68.6252452 73.2972407,68.7603176 73.545597,69.2613926 C73.7939532,69.7581104 74.5172364,70.4596154 74.6174503,70.7864035 C74.7176642,71.1175487 74.9616633,72.1240559 74.4388081,72.6992029 C73.9159528,73.2699927 74.2601659,73.3353503 74.2601659,73.3353503 C74.2601659,73.3353503 75.5716612,71.9410546 75.6893036,72.0586983 C75.8113032,72.1850564 75.5150185,73.5880664 75.5150185,73.5880664 C75.5150185,73.5880664 76.3690155,72.1240559 76.4082296,72.3157716 C76.4430866,72.5074872 76.6478716,73.927926 76.5825147,73.8407825 C76.5215149,73.753639 76.865728,72.9039901 76.9441563,72.4464868 C77.0182274,71.9802692 77.1184414,71.4225509 77.1184414,71.4225509 C77.1184414,71.4225509 77.8678673,72.9301331 77.8373674,73.078277 C77.8068675,73.226421 77.9680812,72.0935557 78.0160096,71.2961929 C78.063938,70.5031872 78.0552237,70.198185 78.1946518,70.1502561 C78.338437,70.1066843 78.543222,70.6382596 78.5519362,71.5532661 C78.5606505,72.4639155 78.5519362,72.951919 78.5519362,72.951919 C78.5519362,72.951919 78.8830779,72.2939857 79.0878629,71.0434768 C79.297005,69.7929678 79.741432,68.9389617 79.6281467,68.4945299 C79.5105042,68.0588125 78.8351495,66.6645168 79.0878629,66.5860877 C79.3449334,66.5120157 79.9854311,67.6056664 79.9854311,67.6056664 C79.9854311,67.6056664 80.0202881,66.3856577 79.9854311,65.9499403 C79.9505741,65.5142229 79.8067889,64.9303616 79.8067889,64.9303616 C79.8067889,64.9303616 79.9200742,64.3944292 79.981074,64.5512874 C80.050788,64.7037885 80.7,65.0610768 80.7,65.0610768 C80.7,65.0610768 80.5823576,64.6297166 80.3427156,64.4249294 C80.0987164,64.215785 79.6455752,63.8410681 79.8067889,63.91514 C79.9680026,63.989212 80.4167867,64.0066407 80.3427156,63.91514 C80.2686444,63.8192822 79.6804322,63.013205 79.8067889,63.0219193 C79.9331456,63.0306337 80.3427156,63.4053506 80.3427156,63.4053506 C80.3427156,63.4053506 80.3209299,62.9522045 79.9854311,62.6428452 C79.6320539,62.2580929 79.3303238,61.8289285 79.0878629,61.3661932 C79.0617201,61.2659782 79.9854311,62.0023406 79.9854311,62.0023406 L79.4495045,60.7300458 C79.4495045,60.7300458 79.5061471,60.4511866 79.0878629,59.9675403 C78.8680315,59.6967698 78.6292407,59.4419598 78.373294,59.2050349 C78.338437,59.1876062 78.1249378,59.1178914 78.373294,59.0743196 C78.6216503,59.0307479 79.2708622,58.9479616 79.2708622,58.9479616 C79.2708622,58.9479616 79.1401484,58.8695325 78.5519362,58.5688875 C77.9680812,58.2638853 78.0160096,58.1854561 78.0160096,58.1854561 C78.0160096,58.1854561 78.9092207,58.2943855 78.7305785,58.1854561 C78.5562934,58.0765268 77.8286531,57.6843811 77.4800829,57.4229507 C77.1315127,57.1571631 76.8570137,57.1223057 76.9441563,56.9131613 C77.0312988,56.704017 76.1773019,55.8717967 75.5106614,55.5101513 C74.848378,55.1485058 73.8418816,55.0657195 73.7242392,54.8740039 C73.6065968,54.6866454 73.9464527,54.3947147 73.3669548,54.3685717 C72.7830997,54.3380714 71.698175,54.1202127 71.7548177,53.9851403 C71.8114603,53.850068 71.7548177,53.501494 71.218891,53.601709 C70.6873215,53.7062812 70.3997511,53.6452808 69.7897532,53.601709 C69.1797554,53.5581373 69.2494695,53.4971369 68.892185,53.475351 C68.5392577,53.4535651 67.9989739,53.3446358 67.9989739,53.3446358 C67.9989739,53.3446358 67.3976904,53.0178477 64.2431302,51.1834774 C61.08857,49.3534643 56.6573716,47.3273784 53.1498841,46.3470142 C49.6467537,45.3666501 49.0977557,45.4232933 44.5663433,43.2926352 C40.0349309,41.1576199 36.8672994,39.3101781 36.3357298,38.456172 C35.8041603,37.5978087 35.1157342,36.2078702 35.7998032,33.998783 C36.4838722,31.7896957 36.7540141,31.5326225 37.4119403,30.6873307 C38.0655094,29.8420389 38.6755072,28.617673 38.6624358,27.3758784 C38.6493644,26.138441 37.4206545,24.4522146 34.5493076,24.0687833 C31.6736036,23.6897092 30.4928221,24.9968614 30.0745379,25.088362 C29.6606108,25.1755055 24.1139878,25.5110079 22.0269238,25.7245094 C19.9355027,25.938011 19.6915035,25.9685112 19.7,26.1079408 L19.7,26.1079408 Z" id="Path" fill="#020102"></path>
                </g>
            </g>
        </g>
    </g>
</svg>