<?xml version="1.0" encoding="UTF-8"?>
<svg width="3300px" height="2200px" viewBox="0 0 3300 2200" version="1.1" xmlns="http://www.w3.org/2000/svg" xmlns:xlink="http://www.w3.org/1999/xlink">
    <!-- Generator: Sketch 59.1 (86144) - https://sketch.com -->
    <title>filter</title>
    <desc>Created with Sketch.</desc>
    <g id="Page-1" stroke="none" stroke-width="1" fill="none" fill-rule="evenodd">
        <g id="filter">
            <g id="Notes">
                <rect id="artboard" fill="#FFFFFF" fill-rule="nonzero" x="0" y="0" width="3300" height="2200"></rect>
                <line x1="263" y1="292" x2="3036" y2="292" id="Path" stroke="#000000" stroke-width="0.5"></line>
                <text id="Weight/Scale-Variations" fill="#000000" font-family="Helvetica-Bold, Helvetica" font-size="13" font-weight="bold">
                    <tspan x="263" y="322">Weight/Scale Variations</tspan>
                </text>
                <text id="Ultralight" fill="#000000" font-family="Helvetica" font-size="13" font-weight="normal">
                    <tspan x="533.711" y="322">Ultralight</tspan>
                </text>
                <text id="Thin" fill="#000000" font-family="Helvetica" font-size="13" font-weight="normal">
                    <tspan x="843.422" y="322">Thin</tspan>
                </text>
                <text id="Light" fill="#000000" font-family="Helvetica" font-size="13" font-weight="normal">
                    <tspan x="1138.63" y="322">Light</tspan>
                </text>
                <text id="Regular" fill="#000000" font-family="Helvetica" font-size="13" font-weight="normal">
                    <tspan x="1426.84" y="322">Regular</tspan>
                </text>
                <text id="Medium" fill="#000000" font-family="Helvetica" font-size="13" font-weight="normal">
                    <tspan x="1723.06" y="322">Medium</tspan>
                </text>
                <text id="Semibold" fill="#000000" font-family="Helvetica" font-size="13" font-weight="normal">
                    <tspan x="2015.77" y="322">Semibold</tspan>
                </text>
                <text id="Bold" fill="#000000" font-family="Helvetica" font-size="13" font-weight="normal">
                    <tspan x="2326.48" y="322">Bold</tspan>
                </text>
                <text id="Heavy" fill="#000000" font-family="Helvetica" font-size="13" font-weight="normal">
                    <tspan x="2618.19" y="322">Heavy</tspan>
                </text>
                <text id="Black" fill="#000000" font-family="Helvetica" font-size="13" font-weight="normal">
                    <tspan x="2917.4" y="322">Black</tspan>
                </text>
                <line x1="263" y1="1903" x2="3036" y2="1903" id="Path" stroke="#000000" stroke-width="0.5"></line>
                <g id="Group" transform="translate(264.000000, 1918.000000)" fill="#000000" fill-rule="nonzero">
                    <path d="M8.24805,15.830078 C12.5547,15.830078 16.1387,12.25586 16.1387,7.94922 C16.1387,3.6426 12.5449,0.0684 8.23828,0.0684 C3.94141,0.0684 0.36719,3.6426 0.36719,7.94922 C0.36719,12.25586 3.95117,15.830078 8.24805,15.830078 Z M8.24805,14.345703 C4.70312,14.345703 1.87109,11.50391 1.87109,7.94922 C1.87109,4.3945 4.69336,1.5527 8.23828,1.5527 C11.793,1.5527 14.6348,4.3945 14.6445503,7.94922 C14.6543,11.50391 11.8027,14.345703 8.24805,14.345703 Z M8.22852,11.57227 C8.69727,11.57227 8.9707,11.25977 8.9707,10.74219 L8.9707,8.68164 L11.1973,8.68164 C11.6953,8.68164 12.0371,8.42773 12.0371,7.95898 C12.0371,7.48047 11.7148,7.2168 11.1973,7.2168 L8.9707,7.2168 L8.9707,4.9902 C8.9707,4.4727 8.69727,4.1504 8.22852,4.1504 C7.75977,4.1504 7.50586,4.4922 7.50586,4.9902 L7.50586,7.2168 L5.29883,7.2168 C4.78125,7.2168 4.44922,7.48047 4.44922,7.95898 C4.44922,8.42773 4.80078,8.68164 5.29883,8.68164 L7.50586,8.68164 L7.50586,10.74219 C7.50586,11.24023 7.75977,11.57227 8.22852,11.57227 Z" id="Shape"></path>
                </g>
                <g id="Group" transform="translate(282.506000, 1915.000000)" fill="#000000" fill-rule="nonzero">
                    <path d="M10.709,20.91016 C16.1582,20.91016 20.6699,16.39844 20.6699,10.94922 C20.6699,5.5098 16.1484,0.9883 10.6992,0.9883 C5.25977,0.9883 0.74805,5.5098 0.74805,10.94922 C0.74805,16.39844 5.26953,20.91016 10.709,20.91016 Z M10.709,19.25 C6.09961,19.25 2.41797,15.55859 2.41797,10.94922 C2.41797,6.3496 6.08984,2.6484 10.6992,2.6484 C15.3086,2.6484 19,6.3496 19.0098379,10.94922 C19.0195,15.55859 15.3184,19.25 10.709,19.25 Z M10.6895,15.58789 C11.207,15.58789 11.5195,15.22656 11.5195,14.66016 L11.5195,11.76953 L14.5762,11.76953 C15.123,11.76953 15.5039,11.48633 15.5039,10.96875 C15.5039,10.44141 15.1426,10.13867 14.5762,10.13867 L11.5195,10.13867 L11.5195,7.0723 C11.5195,6.4961 11.207,6.1445 10.6895,6.1445 C10.1719,6.1445 9.8789,6.5156 9.8789,7.0723 L9.8789,10.13867 L6.83203,10.13867 C6.26562,10.13867 5.89453,10.44141 5.89453,10.96875 C5.89453,11.48633 6.28516,11.76953 6.83203,11.76953 L9.8789,11.76953 L9.8789,14.66016 C9.8789,15.20703 10.1719,15.58789 10.6895,15.58789 Z" id="Shape"></path>
                </g>
                <g id="Group" transform="translate(306.924000, 1913.000000)" fill="#000000" fill-rule="nonzero">
                    <path d="M12.9707,25.67383 C19.9336,25.67383 25.6953,19.921875 25.6953,12.95898 C25.6953,5.9961 19.9238,0.2441 12.9609,0.2441 C6.00781,0.2441 0.25586,5.9961 0.25586,12.95898 C0.25586,19.921875 6.01758,25.67383 12.9707,25.67383 Z M12.9707,23.85742 C6.93555,23.85742 2.08203,18.99414 2.08203,12.95898 C2.08203,6.9238 6.92578,2.0605 12.9609,2.0605 C19.0059,2.0605 23.8594,6.9238 23.8691295,12.95898 C23.8789,18.99414 19.0156,23.85742 12.9707,23.85742 Z M12.9512,18.93555 C13.5176,18.93555 13.8691,18.54492 13.8691,17.93945 L13.8691,13.86719 L18.1074,13.86719 C18.6934,13.86719 19.1133,13.53516 19.1133,12.97852 C19.1133,12.40234 18.7227,12.06055 18.1074,12.06055 L13.8691,12.06055 L13.8691,7.8125 C13.8691,7.1973 13.5176,6.8066 12.9512,6.8066 C12.3848,6.8066 12.0625,7.2168 12.0625,7.8125 L12.0625,12.06055 L7.83398,12.06055 C7.21875,12.06055 6.80859,12.40234 6.80859,12.97852 C6.80859,13.53516 7.23828,13.86719 7.83398,13.86719 L12.0625,13.86719 L12.0625,17.93945 C12.0625,18.52539 12.3848,18.93555 12.9512,18.93555 Z" id="Shape"></path>
                </g>
                <text id="Design-Variations" fill="#000000" font-family="Helvetica-Bold, Helvetica" font-size="13" font-weight="bold">
                    <tspan x="263" y="1953">Design Variations</tspan>
                </text>
                <text id="Symbols-are-supported-in-up-to-nine-weights-and-three-scales." fill="#000000" font-family="Helvetica" font-size="13" font-weight="normal">
                    <tspan x="263" y="1971">Symbols are supported in up to nine weights and three scales.</tspan>
                </text>
                <text id="For-optimal-layout-with-text-and-other-symbols,-vertically-align" fill="#000000" font-family="Helvetica" font-size="13" font-weight="normal">
                    <tspan x="263" y="1989">For optimal layout with text and other symbols, vertically align</tspan>
                </text>
                <text id="symbols-with-the-adjacent-text." fill="#000000" font-family="Helvetica" font-size="13" font-weight="normal">
                    <tspan x="263" y="2007">symbols with the adjacent text.</tspan>
                </text>
                <rect id="Rectangle" fill="#00AEEF" fill-rule="nonzero" opacity="0.4" x="776" y="1919" width="3" height="14"></rect>
                <g id="Group" transform="translate(779.000000, 1918.000000)" fill="#000000" fill-rule="nonzero">
                    <path d="M10.5273,15 L12.373,15 L7.17773,0.9082 L5.43945,0.9082 L0.244141,15 L2.08984,15 L3.50586,10.9668 L9.11133,10.9668 L10.5273,15 Z M6.2793,3.0469 L6.33789,3.0469 L8.59375,9.47266 L4.02344,9.47266 L6.2793,3.0469 Z" id="Shape"></path>
                </g>
                <rect id="Rectangle" fill="#00AEEF" fill-rule="nonzero" opacity="0.4" x="791.617" y="1919" width="3" height="14"></rect>
                <text id="Margins" fill="#000000" font-family="Helvetica-Bold, Helvetica" font-size="13" font-weight="bold">
                    <tspan x="776" y="1953">Margins</tspan>
                </text>
                <text id="Leading-and-trailing-margins-on-the-left-and-right-side-of-each-symbol" fill="#000000" font-family="Helvetica" font-size="13" font-weight="normal">
                    <tspan x="776" y="1971">Leading and trailing margins on the left and right side of each symbol</tspan>
                </text>
                <text id="can-be-adjusted-by-modifying-the-width-of-the-blue-rectangles." fill="#000000" font-family="Helvetica" font-size="13" font-weight="normal">
                    <tspan x="776" y="1989">can be adjusted by modifying the width of the blue rectangles.</tspan>
                </text>
                <text id="Modifications-are-automatically-applied-proportionally-to-all" fill="#000000" font-family="Helvetica" font-size="13" font-weight="normal">
                    <tspan x="776" y="2007">Modifications are automatically applied proportionally to all</tspan>
                </text>
                <text id="scales-and-weights." fill="#000000" font-family="Helvetica" font-size="13" font-weight="normal">
                    <tspan x="776" y="2025">scales and weights.</tspan>
                </text>
                <g id="Group" transform="translate(1291.000000, 1915.000000)" fill="#000000" fill-rule="nonzero">
                    <path d="M0.83203,21.11523 L2.375,22.6582 C3.22461,23.48828 4.19141,23.41992 5.06055,22.46289 L15.2754,11.33984 C15.7051,11.63281 16.0957,11.62305 16.5645,11.52539 L17.6094,11.31055 L18.3027,12.00391 L18.2539,12.52148 C18.1855,13.04883 18.3516,13.46875 18.8496,13.9668 L19.6602,14.77734 C20.168,15.28516 20.8223,15.31445 21.3008,14.83594 L24.5527,11.58398 C25.0312,11.10547 25.0117,10.45117 24.5039,9.94336 L23.6836,9.12305 C23.1855,8.625 22.7754,8.44922 22.2383,8.52734 L21.7109,8.58594 L21.0566,7.9219 L21.3398,6.7793 C21.4863,6.2129 21.3398,5.7441 20.7148,5.1387 L18.3027,2.7461 C14.7578,-0.7793 10.2266,-0.6719 7.11133,2.4629 C6.69141,2.8926 6.64258,3.4785 6.91602,3.9082 C7.15039,4.2793 7.62891,4.5039 8.2734,4.3379 C9.7871,3.957 11.3008,4.0742 12.7852,5.0801 L12.1602,6.6621 C11.9258,7.248 11.9453,7.7266 12.1797,8.16602 L1.01758,18.439453 C0.08008,19.30859 -0.02734,20.25586 0.83203,21.11523 Z M8.6738,2.8535 C11.3398,0.8613 14.6504,1.1738 17.0527,3.5859 L19.6797,6.1934 C19.9141,6.4277 19.9434,6.6133 19.8848,6.9062 L19.5039,8.46875 L21.0762,10.04102 L22.043,9.95312 C22.3262,9.92383 22.4141,9.94336 22.6387,10.16797 L23.2637,10.79297 L20.5098,13.53711 L19.8848,12.92188 C19.6602,12.69727 19.6406,12.59961 19.6699,12.31641 L19.7578,11.35938 L18.1953,9.79688 L16.5742,10.10938 C16.291,10.16797 16.1445,10.16797 15.9102,9.92383 L13.7324,7.7461 C13.5078,7.5117 13.4785,7.375 13.6055,7.0527 L14.5527,4.7773 C12.9512,3.2441 10.8418,2.3945 8.8008,3.0488 C8.7129,3.0781 8.6445,3.0586 8.6152,3.0195 C8.5859,2.9707 8.5859,2.9219 8.6738,2.8535 Z M2.10156,20.41211 C1.61328,19.91406 1.78906,19.61133 2.12109,19.30859 L13.0781,9.19141 L14.3086,10.42188 L4.15234,21.34961 C3.84961,21.68164 3.46875,21.7793 3.06836,21.37891 L2.10156,20.41211 Z" id="Shape"></path>
                </g>
                <text id="Exporting" fill="#000000" font-family="Helvetica-Bold, Helvetica" font-size="13" font-weight="bold">
                    <tspan x="1289" y="1953">Exporting</tspan>
                </text>
                <text id="Symbols-should-be-outlined-when-exporting-to-ensure-the" fill="#000000" font-family="Helvetica" font-size="13" font-weight="normal">
                    <tspan x="1289" y="1971">Symbols should be outlined when exporting to ensure the</tspan>
                </text>
                <text id="design-is-preserved-when-submitting-to-Xcode." fill="#000000" font-family="Helvetica" font-size="13" font-weight="normal">
                    <tspan x="1289" y="1989">design is preserved when submitting to Xcode.</tspan>
                </text>
                <text id="Template-v.1.0" fill="#000000" font-family="Helvetica" font-size="13" font-weight="normal">
                    <tspan x="2952" y="1933">Template v.1.0</tspan>
                </text>
                <text id="Generated-from-circle" fill="#000000" font-family="Helvetica" font-size="13" font-weight="normal">
                    <tspan x="2911" y="1951">Generated from circle</tspan>
                </text>
                <text id="Typeset-at-100-points" fill="#000000" font-family="Helvetica" font-size="13" font-weight="normal">
                    <tspan x="2912" y="1969">Typeset at 100 points</tspan>
                </text>
                <text id="Small" fill="#000000" font-family="Helvetica" font-size="13" font-weight="normal">
                    <tspan x="263" y="726">Small</tspan>
                </text>
                <text id="Medium" fill="#000000" font-family="Helvetica" font-size="13" font-weight="normal">
                    <tspan x="263" y="1156">Medium</tspan>
                </text>
                <text id="Large" fill="#000000" font-family="Helvetica" font-size="13" font-weight="normal">
                    <tspan x="263" y="1586">Large</tspan>
                </text>
            </g>
            <g id="Guides" transform="translate(263.000000, 625.000000)">
                <g id="H-reference" transform="translate(76.000000, 0.000000)" fill="#27AAE1" fill-rule="nonzero">
                    <path d="M54.9316,71 L57.666,71 L30.5664,0.541 L28.0762,0.541 L0.976562,71 L3.66211,71 L12.9395,46.5371 L45.7031,46.5371 L54.9316,71 Z M29.1992,3.9102 L29.4434,3.9102 L44.8242,44.291 L13.8184,44.291 L29.1992,3.9102 Z" id="Shape"></path>
                </g>
                <line x1="0" y1="71" x2="2773" y2="71" id="Baseline-S" stroke="#27AAE1" stroke-width="0.577"></line>
                <line x1="0" y1="0.541" x2="2773" y2="0.541" id="Capline-S" stroke="#27AAE1" stroke-width="0.577"></line>
                <g id="H-reference" transform="translate(76.000000, 430.000000)" fill="#27AAE1" fill-rule="nonzero">
                    <path d="M54.9316,71 L57.666,71 L30.5664,0.541 L28.0762,0.541 L0.976562,71 L3.66211,71 L12.9395,46.5371 L45.7031,46.5371 L54.9316,71 Z M29.1992,3.9102 L29.4434,3.9102 L44.8242,44.291 L13.8184,44.291 L29.1992,3.9102 Z" id="Shape"></path>
                </g>
                <line x1="0" y1="501" x2="2773" y2="501" id="Baseline-M" stroke="#27AAE1" stroke-width="0.577"></line>
                <line x1="0" y1="430.54" x2="2773" y2="430.54" id="Capline-M" stroke="#27AAE1" stroke-width="0.577"></line>
                <g id="H-reference" transform="translate(76.000000, 860.000000)" fill="#27AAE1" fill-rule="nonzero">
                    <path d="M54.9316,71 L57.666,71 L30.5664,0.541 L28.0762,0.541 L0.976562,71 L3.66211,71 L12.9395,46.5371 L45.7031,46.5371 L54.9316,71 Z M29.1992,3.9102 L29.4434,3.9102 L44.8242,44.291 L13.8184,44.291 L29.1992,3.9102 Z" id="Shape"></path>
                </g>
                <line x1="0" y1="931" x2="2773" y2="931" id="Baseline-L" stroke="#27AAE1" stroke-width="0.577"></line>
                <line x1="0" y1="860.54" x2="2773" y2="860.54" id="Capline-L" stroke="#27AAE1" stroke-width="0.577"></line>
                <rect id="left-margin" fill="#00AEEF" fill-rule="nonzero" opacity="0.4" x="1128.3" y="405.79" width="8.74023" height="119.336"></rect>
                <rect id="right-margin" fill="#00AEEF" fill-rule="nonzero" opacity="0.4" x="1236.65" y="405.79" width="8.74023" height="119.336"></rect>
            </g>
            <g id="Symbols" transform="translate(1399.000000, 1040.000000)" fill="#000000" fill-rule="nonzero">
                <g id="Regular-M" transform="translate(0.300000, 0.000000)">
                    <path d="M50.5449,100.5508 C77.791,100.5508 100.35,77.99219 100.35,50.7461 C100.35,23.5488 77.7422,0.9414 50.4961,0.9414 C23.2988,0.9414 0.74023,23.5488 0.74023,50.7461 C0.74023,77.99219 23.3477,100.5508 50.5449,100.5508 Z M50.1551,92.0078 C27.1082,92.0078 8.7,73.5508 8.7,50.5039 C8.7,27.5058 27.0594,9 50.1063,9 C73.1532,9 91.6102,27.5058 91.6593938,50.5039 C91.7082,73.5508 73.202,92.0078 50.1551,92.0078 Z" id="Shape"></path>
                    <g id="np_gecko_1048681_000000" transform="translate(15.700000, 34.000000)">
                        <path d="M34.2712512,27.4125065 C34.718752,27.4125065 35.4362432,26.6025225 35.4362432,26.6025225 C34.7087552,26.3825225 33.9487552,26.2900233 33.1887552,26.3325193 C32.5637568,26.5100169 32.5637568,27.6775433 32.5637568,27.6775433 C32.83376,26.9725193 33.8212288,27.4125449 34.2712768,27.4125449 L34.2712512,27.4125065 Z" id="Path"></path>
                        <path d="M9.81097772,19.0877512 C11.0299701,18.3211229 12.1088558,17.3420731 13,16.1964673 C12.2041254,16.1964673 9.91464085,14 9.91464085,14 C9.27010726,17.0377003 8.06513276,17.0377003 8.06513276,17.0377003 C7.19924071,17.4052115 6.29970299,17.677971 5.38050873,17.8560007 C3.63466377,17.718184 4.04099455,19.4897349 4.04099455,19.4897349 C4.58184349,18.5996963 5.46738489,19.0561893 6.08950716,19.2686549 C5.59630022,20.0840887 6.45661095,21 6.45661095,21 C6.18478398,20.6066454 7.53829448,19.914666 7.53829448,19.914666 C7.53829448,19.914666 7.94463244,19.2284565 8.33416907,19.2284565 C8.72370571,19.2284565 10.214525,20.7387069 10.214525,20.7387069 C10.7273455,19.9146734 9.81099207,19.0877732 9.81099207,19.0877732 L9.81097772,19.0877512 Z" id="Path"></path>
                        <path d="M70,23.1631474 L68.7637945,22.3857498 L68.6626001,22.1667694 C68.4355937,21.7397543 68.1757707,21.3346442 67.8831101,20.9514111 L67.9378111,19.5198054 L65.8756248,18.8573917 C65.2575151,18.3509971 64.6065817,17.8884125 63.9228038,17.4723149 L63.4250308,16.2569566 L61.4421729,16.0461889 C60.758423,15.7122457 60.0582333,15.4001934 59.3580716,15.0963398 L58.983373,14.2696804 L56.7735226,14.0698582 L55.0395022,13.3937591 L54.6128446,12.4439101 L52.263452,12.2085045 C51.3444898,11.8170798 50.4747489,11.3216517 49.6706832,10.7276369 L49.3041906,10.4484352 L48.6204406,8.7732533 L47.0259624,8.95938307 C46.7251099,8.79241145 46.4160585,8.63365247 46.1015389,8.47762636 L45.1059789,7.16374444 L44.0393526,7.5852798 C43.6455115,7.43473346 43.2352867,7.28691999 42.8113388,7.14184641 L41.8322327,5.84982748 L40.4018023,6.41917631 L39.0780766,6.09344571 L38.3013172,5.06700611 L36.9009938,5.61992967 L35.6920946,5.35715329 L34.7430254,4.11173337 L32.8066582,4.88913103 L31.389951,4.68657598 L30.3780073,3.90917832 L29.6012479,4.50042519 C28.6056879,4.43746817 27.6320431,4.43746817 26.6912358,4.50042519 L25.7886573,3.79968816 L24.7685217,4.57708582 C23.7429248,4.64004284 22.7610181,4.72489929 21.8502477,4.77142823 L21.2977781,4.21850467 L20.2119673,4.82617681 C18.6557179,4.82617681 17.3401841,4.57708582 16.5087421,3.78326989 C13.5521692,0.941991471 11.459946,-0.0160561929 7.17418619,0.000202973957 L7.17145136,0.000202973957 C6.02276606,0.00862306446 4.89046455,0.293298182 3.87305958,0.832536347 C3.03888692,1.30060766 2.13630846,1.63452987 1.19823181,1.8207157 C0.700458845,1.92199322 0.290192092,2.26688898 0.104229142,2.74043305 C-0.0817478101,3.21124424 -0.0161146517,3.74500965 0.279269569,4.15830435 C0.932933537,4.93570201 0.410549889,5.71583254 1.83551899,6.64921426 C3.2604881,7.58259598 6.16230829,8.87734779 7.86349119,10.1912297 C9.56740472,11.5078445 11.6596979,14.121944 12.8412208,14.9102731 L12.8439564,14.9102731 C14.1102688,15.6493405 15.423072,16.3062815 16.7714434,16.881096 C16.7714434,16.881096 18.6066373,18.0635898 18.3276929,18.9751085 L18.1800008,19.1776635 C18.2757269,19.1995616 18.371453,19.2296715 18.4617038,19.2707284 C18.9512709,20.0481261 18.3605094,20.54628 17.6849444,20.54628 L17.6822096,20.54628 C17.5317868,20.554492 17.3868254,20.4887979 17.2938369,20.3683559 C16.2107567,21.7698299 15.2042743,23.2314973 14.2825814,24.7424966 C14.2825814,24.7424966 12.5786679,25.9249903 11.6597057,25.5198942 C10.7407434,25.1147981 9.8245118,26.8283104 9.8245118,26.8283104 L9.8245118,26.8310475 C10.2730494,26.6093273 10.7845035,26.5627983 11.2631341,26.6969194 C12.0070559,26.8118823 12.7646308,26.7653506 13.4894382,26.5655312 C13.4894382,26.5655312 12.7126788,27.2197323 12.9670546,27.6166368 C13.224147,28.0135412 12.8357743,28.5363541 13.4894382,29.0564411 C13.6371303,28.6677493 13.8231073,28.289975 14.0419078,27.9368736 C14.0419078,27.9368736 15.7458214,26.7543798 16.6647836,26.7543798 C16.6647836,26.7543798 17.8463065,27.1512843 17.7150262,27.8054854 C17.7150262,27.8054854 18.4917856,26.365681 17.1926425,25.7114729 L17.1926425,25.7087351 C17.3129863,25.1065428 17.5782776,24.5453715 17.9694019,24.0746164 C17.8736758,24.0828283 17.7779497,24.0828283 17.6822236,24.0746164 C16.9984737,24.0746164 17.0914621,23.0947057 17.4880407,22.7990648 L17.4880407,22.796327 C17.7943615,22.637568 18.1608541,22.637568 18.4671469,22.796327 C18.6230449,23.0043618 18.6777415,23.2698711 18.6230449,23.52173 C19.9987226,22.3529006 23.5405606,18.7890222 22.2633256,17.1603692 C21.4072379,16.0408016 20.7153381,14.8035803 20.2120619,13.4842327 C20.2120619,13.4842327 23.8769883,16.8948599 23.8769883,18.2032761 C23.8769883,18.2032761 29.5876472,17.798166 30.8157309,17.9377598 C30.8157309,17.9377598 36.0587518,18.2032761 38.2850559,19.9085827 C38.2850559,19.9085827 39.7236782,16.4979555 40.5113601,15.9778684 C41.2963114,15.4550555 46.1427609,14.1411666 46.1427609,14.1411666 C46.1427609,14.1411666 40.7739208,16.2351791 40.2460688,18.3373901 C40.1831635,18.5782685 40.1065826,18.860203 40.0053883,19.155851 L40.0026534,19.1531139 C40.1776939,19.1668 40.3499966,19.2105961 40.5086323,19.2845021 C40.9981994,20.0618998 40.4074379,20.5600537 39.7318729,20.5600537 L39.7291381,20.5627908 C39.6580296,20.5627908 39.5869212,20.5491047 39.5185434,20.5244696 C38.6789095,22.7279372 37.5028479,25.2818433 37.5028479,25.2818433 C37.5028479,25.2818433 35.9465985,27.5099769 34.8799721,27.6166991 C33.8133458,27.7261893 32.125816,28.0136036 32.2570963,29.4534009 L32.262566,29.4534009 C32.9791115,29.0756616 33.7859778,28.8950046 34.5955048,28.9333209 C35.7770277,29.0647091 38.6570028,27.6249047 39.1766629,27.7508272 C39.6990465,27.8767426 39.9534223,28.6705445 41.402967,28.6705445 L41.402967,28.6678075 C42.2152947,28.6431717 43.0084378,28.9196383 43.6265406,29.4452051 C43.4487625,28.5802153 42.8716963,27.8494167 42.0702912,27.4771151 C40.7629492,26.9543022 40.2350973,26.4260096 40.7629492,25.2489816 C41.2908081,24.0719536 43.251814,22.1339953 43.7742049,20.39855 C43.7742049,20.39855 48.8859455,19.2160562 50.1932874,18.1704164 L50.1932874,18.1731535 C51.9956437,19.4158406 53.9292802,20.4614803 55.958699,21.2854069 C58.2916378,22.0628046 64.3445357,24.6960342 64.8668563,27.0555559 C65.38924,29.4150776 60.4169786,31.2517795 60.4169786,34 C60.4169786,34 62.9058434,31.9059875 64.2131854,31.9059875 C65.3345644,31.9059875 70.2192425,29.4917383 69.5108889,24.6659726 L70,23.1631474 Z M6.55064598,1.82920864 L6.64363446,1.82920864 C6.42757156,2.51899314 6.47953056,3.26354726 6.79132657,3.91775534 C6.12945671,3.80279243 5.51955284,3.49074021 5.0409223,3.01997107 C5.0409223,3.01997107 5.67818148,1.95520115 6.55061097,1.82927871 L6.55064598,1.82920864 Z M7.17969927,3.91502247 L7.17969927,3.91775955 C7.37935738,3.24166044 7.36294559,2.51901837 7.13320433,1.85387878 C7.76498824,1.98800686 8.33664227,2.31373746 8.77424334,2.7872605 C8.4433049,3.38398013 7.8552811,3.79730285 7.17976508,3.90956093 L7.17969927,3.91502247 Z M13.9078332,6.40593238 C13.2541692,7.18333004 13.1310738,6.00902792 12.0726393,5.48621503 C11.0142049,4.96340214 10.5163899,4.70881737 10.7652974,4.3037213 L10.7652974,4.30645838 C10.8856342,4.16959743 11.0524757,4.0820053 11.2329844,4.06558002 C11.7362256,3.98072778 12.2476587,4.15043227 12.6032009,4.51722606 C12.7344812,4.67872492 12.9231958,4.79094796 13.1310598,4.82653839 C13.5112266,4.83475033 14.5614901,5.6203333 13.9105498,6.40866245 L13.9078332,6.40593238 Z M16.0794547,9.9725437 C15.3957048,9.9725437 15.4886933,8.99263304 15.8852719,8.69699209 C16.1915926,8.53549323 16.5580853,8.53549323 16.864378,8.69699209 C17.3566757,9.48258837 16.7713895,9.97527657 16.0794267,9.97527657 L16.0794547,9.9725437 Z M43.1204,18.2034008 C42.4366501,18.2034008 42.5296386,17.2234902 42.9262171,16.9278492 C43.2352755,16.7663503 43.5990305,16.7663503 43.9080539,16.9278492 C44.397621,17.7134455 43.8068595,18.2034008 43.120372,18.2034008 L43.1204,18.2034008 Z M18.6560498,15.6796263 C17.9722999,15.6796263 18.0652884,14.6997157 18.461867,14.4040747 C18.7681877,14.2425759 19.1346803,14.2425759 19.4409731,14.4040747 C19.9004542,15.189671 19.3096928,15.6796263 18.6560218,15.6796263 L18.6560498,15.6796263 Z M26.3193197,8.02617653 C26.2099194,9.04715038 25.4468482,8.13566669 24.2817091,8.27526753 C23.1138394,8.41760123 22.544958,8.47234981 22.544958,8.01249114 C22.5695729,7.834567 22.6625641,7.67306814 22.8020503,7.5608451 C23.1740113,7.21321647 23.6963669,7.06814289 24.1941819,7.17762604 C24.3911023,7.25153277 24.6044346,7.25153277 24.8013551,7.17762604 C25.0967393,6.91484965 26.4341322,7.00791454 26.2864681,8.0261485 L26.3193197,8.02617653 Z M29.0023393,10.3610323 C28.0833771,10.3610323 28.2255799,9.05261613 28.7370411,8.65571868 L28.7370411,8.65845576 C29.1472938,8.44221532 29.6340882,8.44221532 30.044383,8.65845576 C30.6734363,9.68489536 29.888485,10.3391034 28.9694948,10.3391034 L29.0023393,10.3610323 Z M35.6292299,8.80350412 C34.9454799,8.80350412 35.0384684,7.82359346 35.435047,7.52795251 C35.7413678,7.36919353 36.1078604,7.36919353 36.4168838,7.52795251 C36.8736273,8.29988442 36.2828658,8.79803837 35.5990949,8.79803837 L35.6292299,8.80350412 Z M40.7956531,11.792568 C40.1119032,11.792568 40.2048916,10.8126573 40.6014702,10.5170164 L40.6014702,10.5197534 C40.907791,10.3582546 41.2742836,10.3582546 41.5805764,10.5197534 C42.0400575,11.2889525 41.449296,11.7789078 40.7655181,11.7789078 L40.7956531,11.792568 Z M48.2019636,11.543477 C48.0925633,12.5644508 47.3294921,11.6529672 46.164353,11.792568 C44.9964833,11.9321688 44.4221406,12.0033357 44.4221406,11.5352644 L44.4194056,11.5380014 C44.4467557,11.3600773 44.5397494,11.2013183 44.676498,11.0863554 C45.0511965,10.7387268 45.5708146,10.5963861 46.0686295,10.7058762 C46.26555,10.7770431 46.4816129,10.7770431 46.6758028,10.7058762 C46.971187,10.4403599 48.2785429,10.5197464 48.1691076,11.5380014 L48.2019636,11.543477 Z M54.815201,16.2159915 C54.0384416,16.8701926 54.6839207,18.3100039 53.507859,18.5508473 C52.3317974,18.7917256 53.1112804,17.1110429 52.5888968,16.4568348 C52.0665132,15.8026337 52.8541951,15.6794371 52.8541951,15.1484186 C52.8541951,14.620126 54.4104445,14.371021 54.4104445,14.371021 C55.0394978,14.1383553 55.5618604,15.5863793 54.7741995,16.2569846 L54.815201,16.2159915 Z M58.2996257,17.6886604 C57.6158758,17.6886604 57.7088643,16.7087498 58.1054429,16.4131088 C58.4117636,16.2516099 58.7782563,16.2516099 59.084549,16.4131088 C59.5358242,17.2151023 58.9450628,17.7133264 58.2612989,17.7133264 L58.2996257,17.6886604 Z M62.5717324,20.3656861 C61.9180684,21.340131 61.5926263,21.8218877 61.2342835,21.5098495 L61.2315481,21.5125866 C61.1139419,21.3784585 61.0483017,21.2032743 61.05377,21.0226172 C61.0346245,20.5134897 61.2671023,20.0262393 61.6746174,19.7223997 C61.8551261,19.6101696 61.9864064,19.4404652 62.0493159,19.2379031 C62.1040161,18.8492113 63.0147689,17.9076239 63.7067387,18.6630815 C64.3987085,19.4185391 63.192554,19.4185461 62.5306771,20.3902581 L62.5717324,20.3656861 Z M65.8947699,21.7507629 C65.21102,21.7507629 65.3040084,20.7708522 65.700587,20.4752113 L65.697852,20.4779491 C66.0041728,20.3164502 66.3706654,20.3164502 66.6769581,20.4779491 C67.1364393,21.2799426 66.5456778,21.769968 65.8618999,21.769968 L65.8947699,21.7507629 Z M67.9870631,26.0811075 C67.3033132,26.0811075 67.3963017,25.1011968 67.7928803,24.8055559 L67.7901452,24.8055559 C68.096466,24.644057 68.4629586,24.644057 68.771982,24.8055559 C69.2232572,25.5993508 68.6379641,26.0975748 67.9541931,26.0975748 L67.9870631,26.0811075 Z" id="Shape"></path>
                    </g>
                </g>
            </g>
        </g>
    </g>
</svg>