<?xml version="1.0" encoding="UTF-8"?>
<!--Generator: Apple Native CoreSVG 341-->
<!DOCTYPE svg
PUBLIC "-//W3C//DTD SVG 1.1//EN"
       "http://www.w3.org/Graphics/SVG/1.1/DTD/svg11.dtd">
<svg version="1.1" xmlns="http://www.w3.org/2000/svg" xmlns:xlink="http://www.w3.org/1999/xlink" viewBox="0 0 3300 2200">
 <!--glyph: "", point size: 100.0, font version: "20.0d10e1", template writer version: "138.0.0"-->
 <style>.monochrome-0 {-sfsymbols-motion-group:1;-sfsymbols-layer-tags:-49a21af162cd8162}
.monochrome-1 {-sfsymbols-motion-group:0;-sfsymbols-layer-tags:-49a21af162cd8162}

.multicolor-0:tintColor {-sfsymbols-motion-group:1;-sfsymbols-layer-tags:-49a21af162cd8162}
.multicolor-1:tintColor {-sfsymbols-motion-group:0;-sfsymbols-layer-tags:-49a21af162cd8162}

.hierarchical-0:primary {-sfsymbols-motion-group:1;-sfsymbols-layer-tags:-49a21af162cd8162}
.hierarchical-1:tertiary {-sfsymbols-motion-group:0;-sfsymbols-layer-tags:-49a21af162cd8162}

.SFSymbolsPreviewWireframe {fill:none;opacity:1.0;stroke:black;stroke-width:0.5}
</style>
 <g id="Notes">
  <rect height="2200" id="artboard" style="fill:white;opacity:1" width="3300" x="0" y="0"/>
  <line style="fill:none;stroke:black;opacity:1;stroke-width:0.5;" x1="263" x2="3036" y1="292" y2="292"/>
  <text style="stroke:none;fill:black;font-family:sans-serif;font-size:13;font-weight:bold;" transform="matrix(1 0 0 1 263 322)">Weight/Scale Variations</text>
  <text style="stroke:none;fill:black;font-family:sans-serif;font-size:13;text-anchor:middle;" transform="matrix(1 0 0 1 559.711 322)">Ultralight</text>
  <text style="stroke:none;fill:black;font-family:sans-serif;font-size:13;text-anchor:middle;" transform="matrix(1 0 0 1 856.422 322)">Thin</text>
  <text style="stroke:none;fill:black;font-family:sans-serif;font-size:13;text-anchor:middle;" transform="matrix(1 0 0 1 1153.13 322)">Light</text>
  <text style="stroke:none;fill:black;font-family:sans-serif;font-size:13;text-anchor:middle;" transform="matrix(1 0 0 1 1449.84 322)">Regular</text>
  <text style="stroke:none;fill:black;font-family:sans-serif;font-size:13;text-anchor:middle;" transform="matrix(1 0 0 1 1746.56 322)">Medium</text>
  <text style="stroke:none;fill:black;font-family:sans-serif;font-size:13;text-anchor:middle;" transform="matrix(1 0 0 1 2043.27 322)">Semibold</text>
  <text style="stroke:none;fill:black;font-family:sans-serif;font-size:13;text-anchor:middle;" transform="matrix(1 0 0 1 2339.98 322)">Bold</text>
  <text style="stroke:none;fill:black;font-family:sans-serif;font-size:13;text-anchor:middle;" transform="matrix(1 0 0 1 2636.69 322)">Heavy</text>
  <text style="stroke:none;fill:black;font-family:sans-serif;font-size:13;text-anchor:middle;" transform="matrix(1 0 0 1 2933.4 322)">Black</text>
  <line style="fill:none;stroke:black;opacity:1;stroke-width:0.5;" x1="263" x2="3036" y1="1903" y2="1903"/>
  <g transform="matrix(0.2 0 0 0.2 263 1933)">
   <path d="m46.2402 4.15039c21.7773 0 39.4531-17.627 39.4531-39.4043s-17.6758-39.4043-39.4531-39.4043c-21.7285 0-39.4043 17.627-39.4043 39.4043s17.6758 39.4043 39.4043 39.4043Zm0-7.42188c-17.6758 0-31.9336-14.3066-31.9336-31.9824s14.2578-31.9824 31.9336-31.9824 31.9824 14.3066 31.9824 31.9824-14.3066 31.9824-31.9824 31.9824Zm-17.9688-31.9824c0 2.14844 1.51367 3.61328 3.75977 3.61328h10.498v10.5957c0 2.19727 1.46484 3.71094 3.61328 3.71094 2.24609 0 3.71094-1.51367 3.71094-3.71094v-10.5957h10.5957c2.19727 0 3.71094-1.46484 3.71094-3.61328 0-2.19727-1.51367-3.71094-3.71094-3.71094h-10.5957v-10.5469c0-2.24609-1.46484-3.75977-3.71094-3.75977-2.14844 0-3.61328 1.51367-3.61328 3.75977v10.5469h-10.498c-2.24609 0-3.75977 1.51367-3.75977 3.71094Z"/>
  </g>
  <g transform="matrix(0.2 0 0 0.2 281.506 1933)">
   <path d="m58.5449 14.5508c27.4902 0 49.8047-22.3145 49.8047-49.8047s-22.3145-49.8047-49.8047-49.8047-49.8047 22.3145-49.8047 49.8047 22.3145 49.8047 49.8047 49.8047Zm0-8.30078c-22.9492 0-41.5039-18.5547-41.5039-41.5039s18.5547-41.5039 41.5039-41.5039 41.5039 18.5547 41.5039 41.5039-18.5547 41.5039-41.5039 41.5039Zm-22.6562-41.5039c0 2.39258 1.66016 4.00391 4.15039 4.00391h14.3555v14.4043c0 2.44141 1.66016 4.15039 4.05273 4.15039 2.44141 0 4.15039-1.66016 4.15039-4.15039v-14.4043h14.4043c2.44141 0 4.15039-1.61133 4.15039-4.00391 0-2.44141-1.70898-4.15039-4.15039-4.15039h-14.4043v-14.3555c0-2.49023-1.70898-4.19922-4.15039-4.19922-2.39258 0-4.05273 1.70898-4.05273 4.19922v14.3555h-14.3555c-2.49023 0-4.15039 1.70898-4.15039 4.15039Z"/>
  </g>
  <g transform="matrix(0.2 0 0 0.2 304.924 1933)">
   <path d="m74.8535 28.3203c35.1074 0 63.623-28.4668 63.623-63.5742s-28.5156-63.623-63.623-63.623-63.5742 28.5156-63.5742 63.623 28.4668 63.5742 63.5742 63.5742Zm0-9.08203c-30.127 0-54.4922-24.3652-54.4922-54.4922s24.3652-54.4922 54.4922-54.4922 54.4922 24.3652 54.4922 54.4922-24.3652 54.4922-54.4922 54.4922Zm-28.8574-54.4922c0 2.58789 1.85547 4.39453 4.58984 4.39453h19.7266v19.7754c0 2.68555 1.85547 4.58984 4.44336 4.58984 2.68555 0 4.54102-1.85547 4.54102-4.58984v-19.7754h19.7754c2.68555 0 4.58984-1.80664 4.58984-4.39453 0-2.73438-1.85547-4.58984-4.58984-4.58984h-19.7754v-19.7266c0-2.73438-1.85547-4.63867-4.54102-4.63867-2.58789 0-4.44336 1.9043-4.44336 4.63867v19.7266h-19.7266c-2.73438 0-4.58984 1.85547-4.58984 4.58984Z"/>
  </g>
  <text style="stroke:none;fill:black;font-family:sans-serif;font-size:13;font-weight:bold;" transform="matrix(1 0 0 1 263 1953)">Design Variations</text>
  <text style="stroke:none;fill:black;font-family:sans-serif;font-size:13;" transform="matrix(1 0 0 1 263 1971)">Symbols are supported in up to nine weights and three scales.</text>
  <text style="stroke:none;fill:black;font-family:sans-serif;font-size:13;" transform="matrix(1 0 0 1 263 1989)">For optimal layout with text and other symbols, vertically align</text>
  <text style="stroke:none;fill:black;font-family:sans-serif;font-size:13;" transform="matrix(1 0 0 1 263 2007)">symbols with the adjacent text.</text>
  <line style="fill:none;stroke:#00AEEF;stroke-width:0.5;opacity:1.0;" x1="776" x2="776" y1="1919" y2="1933"/>
  <g transform="matrix(0.2 0 0 0.2 776 1933)">
   <path d="m16.5527 0.78125c2.58789 0 3.85742-0.976562 4.78516-3.71094l6.29883-17.2363h28.8086l6.29883 17.2363c0.927734 2.73438 2.19727 3.71094 4.73633 3.71094 2.58789 0 4.24805-1.5625 4.24805-4.00391 0-0.830078-0.146484-1.61133-0.537109-2.63672l-22.9004-60.9863c-1.12305-2.97852-3.125-4.49219-6.25-4.49219-3.02734 0-5.07812 1.46484-6.15234 4.44336l-22.9004 61.084c-0.390625 1.02539-0.537109 1.80664-0.537109 2.63672 0 2.44141 1.5625 3.95508 4.10156 3.95508Zm13.4766-28.3691 11.8652-32.8613h0.244141l11.8652 32.8613Z"/>
  </g>
  <line style="fill:none;stroke:#00AEEF;stroke-width:0.5;opacity:1.0;" x1="792.836" x2="792.836" y1="1919" y2="1933"/>
  <text style="stroke:none;fill:black;font-family:sans-serif;font-size:13;font-weight:bold;" transform="matrix(1 0 0 1 776 1953)">Margins</text>
  <text style="stroke:none;fill:black;font-family:sans-serif;font-size:13;" transform="matrix(1 0 0 1 776 1971)">Leading and trailing margins on the left and right side of each symbol</text>
  <text style="stroke:none;fill:black;font-family:sans-serif;font-size:13;" transform="matrix(1 0 0 1 776 1989)">can be adjusted by modifying the x-location of the margin guidelines.</text>
  <text style="stroke:none;fill:black;font-family:sans-serif;font-size:13;" transform="matrix(1 0 0 1 776 2007)">Modifications are automatically applied proportionally to all</text>
  <text style="stroke:none;fill:black;font-family:sans-serif;font-size:13;" transform="matrix(1 0 0 1 776 2025)">scales and weights.</text>
  <g transform="matrix(0.2 0 0 0.2 1289 1933)">
   <path d="m14.209 9.32617 8.49609 8.54492c4.29688 4.3457 9.22852 4.05273 13.8672-1.07422l53.4668-58.9355-4.83398-4.88281-53.0762 58.3984c-1.75781 2.00195-3.41797 2.49023-5.76172 0.146484l-5.85938-5.81055c-2.34375-2.29492-1.80664-4.00391 0.195312-5.81055l57.373-54.0039-4.88281-4.83398-57.959 54.4434c-4.93164 4.58984-5.32227 9.47266-1.02539 13.8184Zm32.0801-90.9668c-2.09961 2.05078-2.24609 4.93164-1.07422 6.88477 1.17188 1.80664 3.4668 2.97852 6.68945 2.14844 7.32422-1.70898 14.9414-2.00195 22.0703 2.68555l-2.92969 7.27539c-1.70898 4.15039-0.830078 7.08008 1.85547 9.81445l11.4746 11.5723c2.44141 2.44141 4.49219 2.53906 7.32422 2.05078l5.32227-0.976562 3.32031 3.36914-0.195312 2.7832c-0.195312 2.49023 0.439453 4.39453 2.88086 6.78711l3.80859 3.71094c2.39258 2.39258 5.46875 2.53906 7.8125 0.195312l14.5508-14.5996c2.34375-2.34375 2.24609-5.32227-0.146484-7.71484l-3.85742-3.80859c-2.39258-2.39258-4.24805-3.17383-6.64062-2.97852l-2.88086 0.244141-3.22266-3.17383 1.2207-5.61523c0.634766-2.83203-0.146484-5.0293-3.07617-7.95898l-10.9863-10.9375c-16.6992-16.6016-38.8672-16.2109-53.3203-1.75781Zm7.4707 1.85547c12.1582-8.88672 28.6133-7.37305 39.7461 3.75977l12.1582 12.0605c1.17188 1.17188 1.36719 2.09961 1.02539 3.80859l-1.61133 7.42188 7.51953 7.42188 4.93164-0.292969c1.26953-0.0488281 1.66016 0.0488281 2.63672 1.02539l2.88086 2.88086-12.207 12.207-2.88086-2.88086c-0.976562-0.976562-1.12305-1.36719-1.07422-2.68555l0.341797-4.88281-7.4707-7.42188-7.61719 1.26953c-1.61133 0.341797-2.34375 0.195312-3.56445-0.976562l-10.0098-10.0098c-1.26953-1.17188-1.41602-2.00195-0.634766-3.85742l4.39453-10.4492c-7.8125-7.27539-17.9688-10.4004-28.125-7.42188-0.78125 0.195312-1.07422-0.439453-0.439453-0.976562Z"/>
  </g>
  <text style="stroke:none;fill:black;font-family:sans-serif;font-size:13;font-weight:bold;" transform="matrix(1 0 0 1 1289 1953)">Exporting</text>
  <text style="stroke:none;fill:black;font-family:sans-serif;font-size:13;" transform="matrix(1 0 0 1 1289 1971)">Symbols should be outlined when exporting to ensure the</text>
  <text style="stroke:none;fill:black;font-family:sans-serif;font-size:13;" transform="matrix(1 0 0 1 1289 1989)">design is preserved when submitting to Xcode.</text>
  <text id="template-version" style="stroke:none;fill:black;font-family:sans-serif;font-size:13;text-anchor:end;" transform="matrix(1 0 0 1 3036 1933)">Template v.6.0</text>
  <text style="stroke:none;fill:black;font-family:sans-serif;font-size:13;text-anchor:end;" transform="matrix(1 0 0 1 3036 1951)">Requires Xcode 16 or greater</text>
  <text id="descriptive-name" style="stroke:none;fill:black;font-family:sans-serif;font-size:13;text-anchor:end;" transform="matrix(1 0 0 1 3036 1969)">Generated from filtervogelgruppe-63</text>
  <text style="stroke:none;fill:black;font-family:sans-serif;font-size:13;text-anchor:end;" transform="matrix(1 0 0 1 3036 1987)">Typeset at 100.0 points</text>
  <text style="stroke:none;fill:black;font-family:sans-serif;font-size:13;" transform="matrix(1 0 0 1 263 726)">Small</text>
  <text style="stroke:none;fill:black;font-family:sans-serif;font-size:13;" transform="matrix(1 0 0 1 263 1156)">Medium</text>
  <text style="stroke:none;fill:black;font-family:sans-serif;font-size:13;" transform="matrix(1 0 0 1 263 1586)">Large</text>
 </g>
 <g id="Guides">
  <g id="H-reference" style="fill:#27AAE1;stroke:none;" transform="matrix(1 0 0 1 339 696)">
   <path d="M0.993654 0L3.63775 0L29.3281-67.1323L30.0303-67.1323L30.0303-70.459L28.1226-70.459ZM11.6885-24.4799L46.9815-24.4799L46.2315-26.7285L12.4385-26.7285ZM55.1196 0L57.7637 0L30.6382-70.459L29.4326-70.459L29.4326-67.1323Z"/>
  </g>
  <line id="Baseline-S" style="fill:none;stroke:#27AAE1;opacity:1;stroke-width:0.5;" x1="263" x2="3036" y1="696" y2="696"/>
  <line id="Capline-S" style="fill:none;stroke:#27AAE1;opacity:1;stroke-width:0.5;" x1="263" x2="3036" y1="625.541" y2="625.541"/>
  <g id="H-reference" style="fill:#27AAE1;stroke:none;" transform="matrix(1 0 0 1 339 1126)">
   <path d="M0.993654 0L3.63775 0L29.3281-67.1323L30.0303-67.1323L30.0303-70.459L28.1226-70.459ZM11.6885-24.4799L46.9815-24.4799L46.2315-26.7285L12.4385-26.7285ZM55.1196 0L57.7637 0L30.6382-70.459L29.4326-70.459L29.4326-67.1323Z"/>
  </g>
  <line id="Baseline-M" style="fill:none;stroke:#27AAE1;opacity:1;stroke-width:0.5;" x1="263" x2="3036" y1="1126" y2="1126"/>
  <line id="Capline-M" style="fill:none;stroke:#27AAE1;opacity:1;stroke-width:0.5;" x1="263" x2="3036" y1="1055.54" y2="1055.54"/>
  <g id="H-reference" style="fill:#27AAE1;stroke:none;" transform="matrix(1 0 0 1 339 1556)">
   <path d="M0.993654 0L3.63775 0L29.3281-67.1323L30.0303-67.1323L30.0303-70.459L28.1226-70.459ZM11.6885-24.4799L46.9815-24.4799L46.2315-26.7285L12.4385-26.7285ZM55.1196 0L57.7637 0L30.6382-70.459L29.4326-70.459L29.4326-67.1323Z"/>
  </g>
  <line id="Baseline-L" style="fill:none;stroke:#27AAE1;opacity:1;stroke-width:0.5;" x1="263" x2="3036" y1="1556" y2="1556"/>
  <line id="Capline-L" style="fill:none;stroke:#27AAE1;opacity:1;stroke-width:0.5;" x1="263" x2="3036" y1="1485.54" y2="1485.54"/>
  <line id="right-margin-Black-S" style="fill:none;stroke:#00AEEF;stroke-width:0.5;opacity:1.0;" x1="2982.23" x2="2982.23" y1="600.785" y2="720.121"/>
  <line id="left-margin-Black-S" style="fill:none;stroke:#00AEEF;stroke-width:0.5;opacity:1.0;" x1="2884.57" x2="2884.57" y1="600.785" y2="720.121"/>
  <line id="right-margin-Regular-S" style="fill:none;stroke:#00AEEF;stroke-width:0.5;opacity:1.0;" x1="1496.11" x2="1496.11" y1="600.785" y2="720.121"/>
  <line id="left-margin-Regular-S" style="fill:none;stroke:#00AEEF;stroke-width:0.5;opacity:1.0;" x1="1403.58" x2="1403.58" y1="600.785" y2="720.121"/>
  <line id="right-margin-Ultralight-S" style="fill:none;stroke:#00AEEF;stroke-width:0.5;opacity:1.0;" x1="603.773" x2="603.773" y1="600.785" y2="720.121"/>
  <line id="left-margin-Ultralight-S" style="fill:none;stroke:#00AEEF;stroke-width:0.5;opacity:1.0;" x1="515.649" x2="515.649" y1="600.785" y2="720.121"/>
 </g>
 <g id="Symbols">
  <g id="Black-S" transform="matrix(1 0 0 1 2884.57 696)">
   <path class="monochrome-0 multicolor-0:tintColor hierarchical-0:primary SFSymbolsPreviewWireframe" d="M29.819-59.8723C30.3158-59.8723 30.8084-59.8468 31.3009-59.8808C31.6491-59.902 32.0016-60.0591 32.3497-60.0421C32.7361-60.0209 33.0291-60.3479 33.2839-60.7003C33.5387-61.057 33.7255-61.5835 33.8699-62.093C33.9675-62.4285 34.0057-62.7936 34.2138-63.006C34.2517-63.0445 34.2807-63.0908 34.2987-63.1418C34.596-63.9826 35.1226-64.3477 35.5727-64.8828C36.095-65.5154 36.7192-65.6895 37.3264-65.8848C37.7213-66.008 38.1416-65.9018 38.5493-65.9528C39.2117-66.0377 39.8741-66.0122 40.528-65.8424C40.8592-65.7575 41.1819-65.5452 41.5131-65.4432C41.9802-65.2989 42.4133-64.9974 42.8591-64.7384C43.2498-64.5048 43.6489-64.2883 44.0183-63.9826C44.324-63.7278 44.6-63.3711 44.8803-63.0314C45.2285-62.6111 45.5767-62.1864 45.9079-61.7279C46.2603-61.2396 46.5872-60.6791 46.9482-60.2035C47.135-59.9572 47.377-59.8213 47.5978-59.6388L48.2008-59.1292C48.3112-59.04 48.4258-58.9594 48.532-58.8447C48.9523-58.3861 49.36-57.8978 49.7888-57.4562C49.9162-57.3246 50.0946-57.3119 50.2389-57.2184C50.5064-57.0486 50.7655-56.8448 51.033-56.6919C51.241-56.573 51.4618-56.5348 51.6699-56.4202C52.3801-56.0225 53.069-55.5874 53.7335-55.1166C54.1581-54.8194 54.5785-54.5391 54.9861-54.1994C55.5042-53.7621 56.0052-53.278 56.5147-52.8152C57.071-52.3056 57.6272-51.7876 58.1877-51.2908C58.6675-50.8662 59.1559-50.4798 59.6399-50.0722C59.9456-49.8132 60.2556-49.5414 60.5656-49.2909C60.7524-49.1423 60.9477-48.9767 61.1473-48.9087C61.5931-48.7474 62.0475-48.654 62.4976-48.5266C62.6292-48.4841 62.7608-48.3864 62.8882-48.3864C63.0581-48.3949 63.2067-48.293 63.3638-48.2166C63.6355-48.0892 63.9243-48.068 64.2003-47.9618C64.6079-47.8047 65.0155-47.6136 65.4232-47.4396C65.4656-47.4226 65.5081-47.3928 65.5506-47.3971C66.0389-47.4905 66.5314-47.5372 67.0112-47.6986C67.3297-47.809 67.6312-48.0892 67.9454-48.276C68.2341-48.4544 68.5314-48.5988 68.8243-48.7728C69.1725-48.9852 69.5207-49.1975 69.8647-49.4225C70.0939-49.5711 70.3147-49.7495 70.5355-49.9151C71.0706-50.3184 71.5886-50.7813 72.1406-51.1082C72.5992-51.3842 73.0875-51.5328 73.5715-51.673C74.0599-51.8088 74.5142-51.5838 74.8411-50.9511C74.977-50.6879 75.0237-50.2845 75.0832-49.932C75.2318-49.0404 75.0577-48.2166 74.8581-47.4098C74.7562-46.9895 74.6288-46.5606 74.459-46.2124C74.3146-45.9152 74.0938-45.7114 73.9027-45.4821C73.6607-45.1976 73.4102-44.9343 73.1639-44.6626C72.9941-44.48 72.8242-44.3059 72.6671-44.1106C72.2637-43.618 71.8603-43.1255 71.4612-42.6243C71.1937-42.2804 70.9559-41.8515 70.6672-41.5798C70.2001-41.1424 69.8562-40.4758 69.4358-39.9663C69.1173-39.5756 68.7776-39.2274 68.4719-38.8155C68.2851-38.5608 68.1407-38.2126 67.9751-37.9111C67.8223-37.6436 67.6609-37.3888 67.5165-37.1171C67.4199-36.9317 67.3318-36.7417 67.2533-36.5481C67.2405-36.5141 67.249-36.4122 67.266-36.3952C67.4019-36.2424 67.5335-36.0386 67.6821-35.9706C68.0349-35.7962 68.3081-35.4943 68.4464-35.1256C68.6927-34.5821 68.5526-34.0344 68.1492-33.9877C67.7161-33.9452 67.2787-33.9877 66.8414-33.941C66.5909-33.9155 66.3488-33.7966 66.0983-33.7202C66.0813-33.7117 66.0559-33.6904 66.0431-33.6989C65.6525-33.8391 65.4062-33.4017 65.1642-33.0493C64.8415-32.5695 64.5527-32.0175 64.247-31.5079C63.9328-30.9771 63.6271-30.4294 63.2916-29.9411C62.9632-29.474 62.6101-29.0246 62.2343-28.5951C61.9328-28.2384 61.6101-27.9327 61.2917-27.6099C60.8628-27.1768 60.4424-26.7183 60.0008-26.3276C59.7715-26.1238 59.5125-26.0049 59.262-25.886C58.9053-25.7162 58.5402-25.5973 58.1835-25.4317C57.6485-25.1769 57.1177-24.9136 56.5869-24.6461C56.0944-24.4041 55.6103-24.1366 55.1178-23.9115C54.8941-23.8096 54.6588-23.7353 54.4171-23.6907C54.0053-23.6101 54.035-23.4912 54.1199-22.9095C54.2006-22.3914 54.2176-21.8819 54.2048-21.3639C54.2048-21.2365 54.1496-21.1048 54.1114-20.9817C53.8949-20.2599 53.6868-19.5338 53.4448-18.8374C53.2962-18.4043 53.0881-18.0221 52.9055-17.6187C52.7781-17.33 52.6507-17.0328 52.5106-16.7483C52.4512-16.6209 52.3747-16.5147 52.3068-16.4001C52.2771-16.3534 52.2474-16.3152 52.2261-16.26C51.9968-15.6655 51.776-15.0626 51.5383-14.4766C51.2962-13.8609 51.0415-13.2579 50.7867-12.655C50.6168-12.2516 50.4173-11.8779 50.2644-11.4576C50.0521-10.8674 49.8738-10.2474 49.6827-9.63597C49.653-9.54256 49.6147-9.45764 49.585-9.35997C49.5256-9.15616 49.4789-8.94385 49.4152-8.74004C49.3727-8.61265 49.3133-8.5065 49.2666-8.38336C49.1944-8.19653 49.1052-8.01819 49.0712-7.81437C49.0075-7.46194 49.0967-7.31333 49.3133-7.2921C49.3982-7.2836 49.4831-7.26237 49.5638-7.21991C50.1031-6.93542 50.6551-6.88022 51.1816-7.19868C51.5255-7.41099 51.8227-7.81437 52.1582-8.09037C52.5234-8.3876 52.8673-8.85044 53.3047-8.74004C53.7505-8.63388 54.069-8.17954 54.3195-7.57659C54.3407-7.52139 54.3492-7.38551 54.328-7.35579C54.2983-7.30484 54.2346-7.31333 54.1836-7.29634L54.1666-7.30059C53.5637-7.79739 53.0796-7.24114 52.638-6.71037C52.3415-6.359 51.9774-6.07027 51.568-5.86114C51.016-5.56816 50.464-5.25819 49.912-4.99068C49.7103-4.90788 49.4927-4.87144 49.2751-4.88453C48.7231-4.88453 48.3579-4.39622 48.0904-3.68287C47.67-2.55339 47.2454-1.41967 46.8887-0.234989C46.7231 0.317011 46.5448 0.537811 46.1881 0.580272C45.9758 0.605749 45.755 0.762857 45.6149 1.13227C45.5045 1.41676 45.3346 1.64606 45.1818 1.8796C45.1393 1.94329 45.0459 1.92206 44.9779 1.93904C44.9822 1.8244 44.9652 1.68427 44.9949 1.59935C45.2837 0.826549 45.5682 0.049503 45.8824-0.693574C46.0098-0.995051 46.2306-1.18613 46.3452-1.4961C46.6807-2.3793 47.084-3.19456 47.2794-4.21364C47.3218-4.41745 47.4237-4.58305 47.4619-4.78262C47.4973-4.96344 47.4973-5.14956 47.4619-5.33037C47.4492-5.39831 47.2751-5.44077 47.2029-5.38557C46.9694-5.20724 46.7443-4.98644 46.5235-4.77413L45.0926-3.40262C44.6383-2.96527 44.1839-2.53216 43.7253-2.10754C43.4748-1.874 43.2285-1.69567 42.9186-1.82305C42.426-2.01837 41.9589-1.8825 41.5343-1.39844C41.5216-1.3772 41.5046-1.34748 41.4876-1.33899C41.3305-1.27105 41.1479-1.08422 41.029-1.3857C41.012-1.43665 41.1776-1.75511 41.288-1.86976C41.874-2.46422 42.4642-3.0417 43.0629-3.61068C43.3219-3.85271 43.6022-4.03954 43.8655-4.27733C44.1797-4.55757 44.5024-4.82508 44.7911-5.16902C45.1648-5.62336 45.5045-6.15837 45.8611-6.64668C46.0013-6.83351 46.0013-6.98637 45.8357-7.08828C45.6708-7.1817 45.4974-7.25848 45.3176-7.31757C45.1053-7.394 44.8888-7.43647 44.6722-7.5129C44.5024-7.57234 44.4387-7.76342 44.4557-8.04791C44.4854-8.6169 44.3835-8.79099 44.0395-8.68484C43.8357-8.6169 43.6489-8.43856 43.4536-8.32816C43.3687-8.2857 43.2752-8.22625 43.1988-8.26447C43.0417-8.34939 43.029-8.58293 43.1691-8.74004C43.2406-8.83062 43.3319-8.90351 43.4366-8.95234C43.806-9.07973 44.1754-9.26656 44.5491-9.29204C44.9082-9.30124 45.2642-9.22091 45.5851-9.0585C46.1669-8.78674 46.7274-8.67634 47.2836-9.19437C47.394-9.30053 47.5384-9.34299 47.6488-9.45764C47.7804-9.59776 47.9035-9.77185 48.0182-9.9417C48.1795-10.1795 48.3664-10.3918 48.4853-10.6805C48.7315-11.292 48.9396-11.9501 49.1731-12.5786C49.3218-12.9692 49.5001-13.3301 49.6445-13.725C49.9459-14.5318 50.2304-15.364 50.5319-16.1793C50.7739-16.8375 50.999-17.5211 51.2792-18.1283C51.5977-18.8204 51.7506-19.6272 51.9501-20.4085C52.1412-21.1728 52.0096-21.9159 51.8525-22.6462C51.8312-22.7439 51.7378-22.85 51.6699-22.8712C51.2877-22.9859 50.9013-23.0751 50.5149-23.1685C50.43-23.1897 50.3323-23.2109 50.2517-23.177C50.1243-23.126 50.0266-23.1218 49.9332-23.3128C49.9035-23.368 49.7634-23.3426 49.7124-23.2704C49.4916-22.9434 49.2835-22.591 49.0712-22.2386C48.7655-21.7333 48.4428-21.2577 48.1668-20.7099C47.8271-20.0433 47.5299-19.3087 47.1987-18.6208C47.0034-18.2005 46.7826-17.8141 46.5703-17.4149C46.2943-16.9011 46.014-16.3959 45.7338-15.8863C45.7083-15.8354 45.6743-15.7674 45.6446-15.7589C45.3516-15.6952 45.2624-15.2367 45.0883-14.9607C44.9015-14.6719 44.961-14.3492 45.203-14.2473C45.2879-14.2133 45.3813-14.1963 45.4705-14.1921C45.8229-14.1751 46.1711-14.1454 46.5235-14.1666C46.7744-14.1741 47.0214-14.2321 47.2496-14.3365C47.6488-14.5318 48.3961-14.4214 48.7231-13.6189C48.7443-13.5722 48.7443-13.5042 48.757-13.4448C48.7146-13.4193 48.6636-13.3683 48.6211-13.3811C48.481-13.432 48.3239-13.449 48.205-13.5764C47.9375-13.8736 47.7167-13.6401 47.4619-13.5085C47.0766-13.3213 46.6761-13.1677 46.2645-13.0499C45.755-12.8928 45.2285-12.8631 44.7444-12.5913C44.4344-12.4215 44.048-12.4427 43.8145-11.9501C43.6701-11.6444 43.5385-11.3302 43.3941-11.0245C43.3092-10.8546 43.237-10.6381 43.1266-10.5404C42.7275-10.1837 42.5831-9.5468 42.4345-8.91413C42.3793-8.6721 42.3029-8.62539 42.1755-8.71456C42.0608-8.79524 41.9929-8.86317 42.0481-9.13917C42.1886-9.8037 42.3103-10.4721 42.4133-11.1434C42.4642-11.4703 42.4982-11.8227 42.4982-12.1582C42.4982-12.655 42.3453-12.7824 42.0991-12.5234C41.6617-12.0563 41.2328-11.5722 40.7955-11.0967C40.7226-11.0156 40.6476-10.936 40.5704-10.8589C40.1458-10.4385 39.7085-10.0309 39.2881-9.59351C39.0206-9.31327 38.7913-9.35148 38.596-9.76336C38.3964-10.1795 38.0695-10.2856 37.8019-9.97567C37.6024-9.74637 37.424-9.46613 37.2415-9.19862C37.2025-9.14342 37.1788-9.07902 37.1735-9.01179C37.1693-8.71031 37.0716-8.54896 36.9145-8.4428C36.872-8.41308 36.8593-8.28994 36.8211-8.2305C36.7701-8.13708 36.7107-8.06065 36.6512-7.97573C36.6088-8.12859 36.4941-8.3324 36.5239-8.43431C36.6258-8.82496 36.7447-9.21985 36.906-9.5468C37.1013-9.94594 37.3434-10.2856 37.5727-10.6338C37.6406-10.7357 37.7425-10.7782 37.8274-10.8419C38.1756-11.0882 38.5323-11.3132 38.8805-11.5807C39.0503-11.7081 39.0461-12.0903 38.8507-12.3111C38.5111-12.7017 38.1629-13.1093 37.7213-12.8376C37.5642-12.7442 37.4283-12.5531 37.2967-12.379C37.2245-12.2941 37.1905-12.1242 37.1183-12.052C37.0461-11.9756 36.8848-11.9119 36.872-11.9544C36.8168-12.103 36.7447-12.3493 36.7871-12.4682C36.8901-12.8439 37.1293-13.1677 37.458-13.3768C37.5854-13.4533 37.6873-13.6189 37.8104-13.725C37.8954-13.8099 38.0058-13.9416 38.0822-13.9119C38.4389-13.7845 38.7531-14.0307 39.0758-14.1581C39.6448-14.3832 40.2095-14.6252 40.7658-14.9097C41.288-15.1815 41.7976-15.5551 42.3241-15.8141C43.1054-16.2048 43.8103-16.8459 44.4557-17.657C44.5746-17.8056 44.6595-18.0391 44.7614-18.2259C44.8293-18.3448 44.9015-18.4595 44.9737-18.5699C45.2837-19.0242 45.6276-19.4319 45.9036-19.9371C46.3707-20.7864 46.7826-21.712 47.2327-22.5825C47.4619-23.0199 47.7167-23.4147 47.9672-23.8266C48.0607-23.9795 48.0819-24.0389 47.9672-24.264C47.7549-24.7056 47.4492-24.7735 47.1732-24.9816C47.0203-25.092 46.8887-25.2746 46.7443-25.4062C46.6106-25.5311 46.4719-25.65 46.3282-25.7629C46.1074-25.9327 45.8781-26.0728 45.6701-26.2724C45.4079-26.5289 45.1584-26.7982 44.9227-27.0792C44.116-28.0133 43.305-28.9432 42.5109-29.9071C42.2392-30.2426 42.0226-30.7054 41.7636-31.0663C41.5513-31.3551 41.305-31.5674 41.0885-31.8434C40.9399-32.0302 40.821-32.285 40.6723-32.476C40.2477-33.0195 39.8104-33.5376 39.39-34.0896C38.8975-34.7477 38.4176-35.4399 37.9293-36.1023C37.5589-36.6129 37.2655-37.1751 37.0589-37.771C36.9103-38.1786 36.6852-38.5056 36.5154-38.892C36.337-39.3081 36.1842-39.7539 36.0143-40.1828C35.9803-40.2762 35.9294-40.3611 35.8869-40.4418C35.8445-40.5225 35.7808-40.5819 35.7553-40.6711C35.4453-41.8091 35.1566-42.9641 34.8381-44.0978C34.6702-44.7447 34.5762-45.4085 34.5577-46.0765C34.5408-46.4587 34.4219-46.8239 34.4049-47.2018C34.3582-48.327 34.2053-49.4607 34.4219-50.5775C34.5323-51.1549 34.6851-51.7069 34.8169-52.2759C34.8378-52.3664 34.8406-52.4602 34.8254-52.5519C34.74-52.9501 34.6466-53.3465 34.545-53.7408C34.3794-54.365 34.2053-54.9892 34.0355-55.6092C33.993-55.7535 33.942-55.8894 33.9123-56.0338C33.8769-56.3102 33.739-56.5632 33.5259-56.7429C33.3051-56.9255 33.114-57.21 32.889-57.384C32.6899-57.5461 32.4582-57.6634 32.2096-57.728C31.6873-57.8426 31.1651-57.8978 30.6385-57.9828C30.3965-58.0167 30.1502-58.1186 29.9167-58.0677C29.5388-57.9955 29.25-58.297 28.9401-58.5305C28.8254-58.6154 28.698-58.6749 28.5834-58.7853C28.5052-58.8661 28.4521-58.9679 28.4305-59.0783C28.422-59.142 28.5155-59.2651 28.5664-59.333C28.9443-59.7746 29.3562-59.9997 29.819-59.868L29.819-59.8723Z"/>
   <path class="monochrome-1 multicolor-1:tintColor hierarchical-1:tertiary SFSymbolsPreviewWireframe" d="M48.9411-84C55.3091-84.0013 61.615-82.7479 67.4985-80.3116C73.382-77.8752 78.7279-74.3036 83.2305-69.8009C87.7334-65.2983 91.305-59.9524 93.7418-54.0682C96.1779-48.1846 97.4312-41.8789 97.43-35.5124C97.43-8.72255 75.7254 13 48.9424 13C22.156 13 0.43-8.726 0.43-35.5124C0.43-62.2926 22.1539-84 48.9411-84ZM48.9424-70C29.8835-70 14.43-54.5582 14.43-35.5124C14.43-16.458 29.888-0.999999 48.9424-0.999999C67.9909-0.999999 83.43-16.4519 83.43-35.5138C83.4309-40.0428 82.5395-44.5276 80.8069-48.7121C79.0739-52.8969 76.5337-56.6989 73.3311-59.9013C70.1287-63.1038 66.3266-65.644 62.1422-67.3767C57.9578-69.1095 53.4729-70.0009 48.9424-70Z"/>
  </g>
  <g id="Regular-S" transform="matrix(1 0 0 1 1403.58 696)">
   <path class="monochrome-0 multicolor-0:tintColor hierarchical-0:primary SFSymbolsPreviewWireframe" d="M28.8091-58.8723C29.3059-58.8723 29.7984-58.8468 30.291-58.8807C30.6392-58.902 30.9916-59.0591 31.3398-59.0421C31.7262-59.0209 32.0192-59.3478 32.2739-59.7003C32.5287-60.0569 32.7155-60.5835 32.8599-61.093C32.9576-61.4284 32.9958-61.7936 33.2038-62.0059C33.2417-62.0444 33.2708-62.0908 33.2888-62.1418C33.586-62.9825 34.1127-63.3477 34.5628-63.8827C35.085-64.5154 35.7092-64.6895 36.3164-64.8848C36.7113-65.0079 37.1317-64.9018 37.5393-64.9527C38.2017-65.0377 38.8641-65.0122 39.518-64.8423C39.8492-64.7574 40.1719-64.5451 40.5031-64.4432C40.9702-64.2988 41.4033-63.9974 41.8492-63.7383C42.2398-63.5048 42.6389-63.2883 43.0084-62.9825C43.3141-62.7278 43.5901-62.3711 43.8703-62.0314C44.2185-61.611 44.5667-61.1864 44.8979-60.7278C45.2503-60.2395 45.5773-59.679 45.9382-59.2035C46.125-58.9572 46.3671-58.8213 46.5879-58.6387L47.1908-58.1292C47.3012-58.04 47.4159-57.9593 47.522-57.8447C47.9424-57.3861 48.35-56.8978 48.7789-56.4562C48.9063-56.3246 49.0846-56.3118 49.229-56.2184C49.4965-56.0486 49.7555-55.8447 50.023-55.6919C50.2311-55.573 50.4519-55.5348 50.6599-55.4201C51.3701-55.0224 52.059-54.5873 52.7236-54.1166C53.1482-53.8193 53.5685-53.5391 53.9762-53.1994C54.4942-52.762 54.9952-52.278 55.5048-51.8151C56.061-51.3056 56.6173-50.7876 57.1778-50.2908C57.6576-49.8662 58.1459-49.4798 58.63-49.0721C58.9357-48.8131 59.2456-48.5414 59.5556-48.2908C59.7424-48.1422 59.9378-47.9766 60.1373-47.9087C60.5832-47.7473 61.0375-47.6539 61.4876-47.5265C61.6192-47.4841 61.7509-47.3864 61.8783-47.3864C62.0481-47.3949 62.1967-47.293 62.3538-47.2166C62.6256-47.0892 62.9143-47.0679 63.1903-46.9618C63.598-46.8047 64.0056-46.6136 64.4132-46.4395C64.4557-46.4225 64.4981-46.3928 64.5406-46.3971C65.0289-46.4905 65.5215-46.5372 66.0013-46.6985C66.3197-46.8089 66.6212-47.0892 66.9354-47.276C67.2242-47.4543 67.5214-47.5987 67.8144-47.7728C68.1626-47.9851 68.5108-48.1974 68.8547-48.4225C69.084-48.5711 69.3048-48.7494 69.5256-48.915C70.0606-49.3184 70.5786-49.7812 71.1306-50.1082C71.5892-50.3842 72.0775-50.5328 72.5616-50.6729C73.0499-50.8088 73.5042-50.5838 73.8312-49.9511C73.9671-49.6878 74.0138-49.2844 74.0732-48.932C74.2218-48.0403 74.0477-47.2166 73.8482-46.4098C73.7463-45.9894 73.6189-45.5606 73.449-45.2124C73.3047-44.9151 73.0839-44.7113 72.8928-44.482C72.6508-44.1975 72.4002-43.9343 72.154-43.6625C71.9841-43.4799 71.8143-43.3059 71.6572-43.1105C71.2538-42.618 70.8504-42.1254 70.4512-41.6243C70.1837-41.2804 69.946-40.8515 69.6572-40.5797C69.1901-40.1424 68.8462-39.4758 68.4258-38.9662C68.1074-38.5756 67.7677-38.2274 67.462-37.8155C67.2751-37.5607 67.1308-37.2125 66.9652-36.9111C66.8123-36.6436 66.6509-36.3888 66.5066-36.117C66.41-35.9316 66.3219-35.7416 66.2433-35.5481C66.2306-35.5141 66.2391-35.4122 66.256-35.3952C66.3919-35.2423 66.5236-35.0385 66.6722-34.9706C67.025-34.7961 67.2981-34.4943 67.4365-34.1256C67.6828-33.5821 67.5426-33.0343 67.1392-32.9876C66.7061-32.9452 66.2688-32.9876 65.8314-32.9409C65.5809-32.9154 65.3389-32.7966 65.0884-32.7201C65.0714-32.7116 65.0459-32.6904 65.0332-32.6989C64.6425-32.839 64.3962-32.4017 64.1542-32.0492C63.8315-31.5694 63.5428-31.0174 63.237-30.5079C62.9228-29.9771 62.6171-29.4293 62.2816-28.941C61.9533-28.474 61.6001-28.0246 61.2244-27.595C60.9229-27.2383 60.6002-26.9326 60.2817-26.6099C59.8528-26.1768 59.4325-25.7182 58.9909-25.3276C58.7616-25.1237 58.5026-25.0049 58.252-24.886C57.8954-24.7161 57.5302-24.5972 57.1735-24.4316C56.6385-24.1769 56.1077-23.9136 55.577-23.6461C55.0844-23.4041 54.6004-23.1365 54.1078-22.9115C53.8842-22.8096 53.6489-22.7353 53.4072-22.6907C52.9953-22.61 53.025-22.4911 53.11-21.9094C53.1906-21.3914 53.2076-20.8818 53.1949-20.3638C53.1949-20.2364 53.1397-20.1048 53.1015-19.9817C52.8849-19.2598 52.6768-18.5337 52.4348-17.8374C52.2862-17.4042 52.0781-17.0221 51.8956-16.6187C51.7682-16.33 51.6408-16.0327 51.5007-15.7482C51.4412-15.6209 51.3648-15.5147 51.2968-15.4001C51.2671-15.3533 51.2374-15.3151 51.2162-15.2599C50.9869-14.6655 50.7661-14.0625 50.5283-13.4765C50.2863-12.8609 50.0315-12.2579 49.7767-11.6549C49.6069-11.2516 49.4073-10.8779 49.2544-10.4575C49.0421-9.86732 48.8638-9.24738 48.6727-8.63593C48.643-8.54252 48.6048-8.4576 48.5751-8.35993C48.5156-8.15612 48.4689-7.94381 48.4052-7.74C48.3628-7.61261 48.3033-7.50646 48.2566-7.38332C48.1844-7.19649 48.0952-7.01815 48.0613-6.81433C47.9976-6.4619 48.0868-6.31329 48.3033-6.29206C48.3882-6.28357 48.4732-6.26233 48.5538-6.21987C49.0931-5.93538 49.6451-5.88018 50.1716-6.19864C50.5156-6.41095 50.8128-6.81433 51.1482-7.09033C51.5134-7.38757 51.8573-7.8504 52.2947-7.74C52.7405-7.63384 53.059-7.1795 53.3095-6.57655C53.3308-6.52135 53.3392-6.38547 53.318-6.35575C53.2883-6.3048 53.2246-6.31329 53.1736-6.2963L53.1567-6.30055C52.5537-6.79735 52.0696-6.2411 51.628-5.71033C51.3315-5.35897 50.9674-5.07023 50.558-4.8611C50.006-4.56812 49.454-4.25815 48.902-3.99064C48.7003-3.90784 48.4827-3.8714 48.2651-3.88449C47.7131-3.88449 47.3479-3.39618 47.0804-2.68283C46.66-1.55335 46.2354-0.419627 45.8788 0.76505C45.7132 1.31705 45.5348 1.53785 45.1781 1.58031C44.9658 1.60579 44.745 1.7629 44.6049 2.13231C44.4945 2.4168 44.3247 2.6461 44.1718 2.87963C44.1293 2.94333 44.0359 2.9221 43.968 2.93908C43.9722 2.82443 43.9552 2.68431 43.985 2.59939C44.2737 1.82659 44.5582 1.04954 44.8724 0.306465C44.9998 0.0049884 45.2206-0.186088 45.3352-0.496058C45.6707-1.37926 46.0741-2.19452 46.2694-3.2136C46.3119-3.41741 46.4138-3.58301 46.452-3.78258C46.4874-3.9634 46.4874-4.14952 46.452-4.33033C46.4392-4.39827 46.2652-4.44073 46.193-4.38553C45.9594-4.2072 45.7344-3.9864 45.5136-3.77409L44.0826-2.40258C43.6283-1.96523 43.174-1.53212 42.7154-1.1075C42.4648-0.873965 42.2186-0.695627 41.9086-0.823012C41.416-1.01833 40.949-0.882458 40.5244-0.398396C40.5116-0.377165 40.4946-0.347442 40.4776-0.33895C40.3205-0.271012 40.138-0.0841808 40.0191-0.385658C40.0021-0.436612 40.1677-0.755073 40.2781-0.869719C40.864-1.46418 41.4543-2.04166 42.053-2.61064C42.312-2.85267 42.5922-3.0395 42.8555-3.27729C43.1697-3.55753 43.4924-3.82504 43.7812-4.16898C44.1548-4.62332 44.4945-5.15833 44.8512-5.64664C44.9913-5.83347 44.9913-5.98633 44.8257-6.08824C44.6608-6.18166 44.4874-6.25844 44.3077-6.31753C44.0954-6.39397 43.8788-6.43643 43.6623-6.51286C43.4924-6.5723 43.4287-6.76338 43.4457-7.04787C43.4754-7.61686 43.3735-7.79095 43.0296-7.6848C42.8258-7.61686 42.6389-7.43852 42.4436-7.32812C42.3587-7.28566 42.2653-7.22621 42.1888-7.26443C42.0317-7.34935 42.019-7.58289 42.1591-7.74C42.2306-7.83058 42.3219-7.90347 42.4266-7.9523C42.796-8.07969 43.1655-8.26652 43.5391-8.292C43.8983-8.3012 44.2542-8.22087 44.5752-8.05846C45.1569-7.7867 45.7174-7.6763 46.2736-8.19433C46.384-8.30049 46.5284-8.34295 46.6388-8.4576C46.7704-8.59772 46.8936-8.77181 47.0082-8.94166C47.1696-9.17944 47.3564-9.39175 47.4753-9.68049C47.7216-10.2919 47.9296-10.9501 48.1632-11.5785C48.3118-11.9692 48.4901-12.3301 48.6345-12.725C48.936-13.5317 49.2205-14.364 49.522-15.1793C49.764-15.8374 49.989-16.521 50.2693-17.1282C50.5877-17.8204 50.7406-18.6271 50.9402-19.4084C51.1312-20.1727 50.9996-20.9158 50.8425-21.6461C50.8213-21.7438 50.7279-21.85 50.6599-21.8712C50.2778-21.9858 49.8914-22.075 49.505-22.1684C49.42-22.1897 49.3224-22.2109 49.2417-22.1769C49.1143-22.126 49.0167-22.1217 48.9232-22.3128C48.8935-22.368 48.7534-22.3425 48.7024-22.2703C48.4816-21.9434 48.2736-21.591 48.0613-21.2385C47.7556-20.7332 47.4328-20.2577 47.1568-19.7099C46.8172-19.0433 46.5199-18.3087 46.1887-17.6208C45.9934-17.2004 45.7726-16.814 45.5603-16.4149C45.2843-15.9011 45.004-15.3958 44.7238-14.8863C44.6983-14.8353 44.6644-14.7674 44.6346-14.7589C44.3416-14.6952 44.2525-14.2366 44.0784-13.9606C43.8916-13.6719 43.951-13.3492 44.193-13.2473C44.278-13.2133 44.3714-13.1963 44.4605-13.1921C44.813-13.1751 45.1612-13.1454 45.5136-13.1666C45.7645-13.174 46.0114-13.232 46.2397-13.3364C46.6388-13.5317 47.3861-13.4214 47.7131-12.6188C47.7343-12.5721 47.7343-12.5042 47.7471-12.4447C47.7046-12.4193 47.6536-12.3683 47.6112-12.381C47.4711-12.432 47.314-12.449 47.1951-12.5764C46.9276-12.8736 46.7068-12.6401 46.452-12.5084C46.0666-12.3212 45.6661-12.1677 45.2546-12.0498C44.745-11.8927 44.2185-11.863 43.7344-11.5913C43.4245-11.4214 43.0381-11.4426 42.8045-10.9501C42.6602-10.6444 42.5285-10.3302 42.3842-10.0244C42.2992-9.85458 42.2271-9.63803 42.1167-9.54037C41.7175-9.18369 41.5732-8.54677 41.4245-7.91409C41.3693-7.67206 41.2929-7.62535 41.1655-7.71452C41.0509-7.7952 40.9829-7.86313 41.0381-8.13913C41.1786-8.80366 41.3003-9.47207 41.4033-10.1433C41.4543-10.4703 41.4882-10.8227 41.4882-11.1581C41.4882-11.6549 41.3354-11.7823 41.0891-11.5233C40.6517-11.0562 40.2229-10.5722 39.7855-10.0966C39.7126-10.0156 39.6376-9.93597 39.5605-9.85883C39.1359-9.43846 38.6985-9.03083 38.2781-8.59347C38.0106-8.31323 37.7813-8.35144 37.586-8.76332C37.3864-9.17944 37.0595-9.2856 36.792-8.97563C36.5924-8.74633 36.4141-8.46609 36.2315-8.19858C36.1926-8.14338 36.1689-8.07898 36.1636-8.01175C36.1593-7.71027 36.0616-7.54892 35.9045-7.44277C35.8621-7.41304 35.8493-7.2899 35.8111-7.23046C35.7602-7.13704 35.7007-7.06061 35.6413-6.97569C35.5988-7.12855 35.4842-7.33237 35.5139-7.43427C35.6158-7.82492 35.7347-8.21981 35.896-8.54677C36.0914-8.9459 36.3334-9.2856 36.5627-9.63378C36.6306-9.73569 36.7325-9.77815 36.8175-9.84184C37.1656-10.0881 37.5223-10.3132 37.8705-10.5807C38.0404-10.7081 38.0361-11.0902 37.8408-11.311C37.5011-11.7017 37.1529-12.1093 36.7113-11.8375C36.5542-11.7441 36.4183-11.553 36.2867-11.379C36.2145-11.294 36.1805-11.1242 36.1084-11.052C36.0362-10.9756 35.8748-10.9119 35.8621-10.9543C35.8069-11.103 35.7347-11.3492 35.7772-11.4681C35.8801-11.8439 36.1193-12.1677 36.448-12.3768C36.5754-12.4532 36.6773-12.6188 36.8005-12.725C36.8854-12.8099 36.9958-12.9415 37.0722-12.9118C37.4289-12.7844 37.7431-13.0307 38.0658-13.1581C38.6348-13.3831 39.1996-13.6252 39.7558-13.9097C40.2781-14.1814 40.7876-14.5551 41.3141-14.8141C42.0954-15.2047 42.8003-15.8459 43.4457-16.6569C43.5646-16.8055 43.6495-17.0391 43.7514-17.2259C43.8194-17.3448 43.8916-17.4594 43.9637-17.5698C44.2737-18.0242 44.6176-18.4318 44.8936-18.9371C45.3607-19.7863 45.7726-20.712 46.2227-21.5825C46.452-22.0198 46.7068-22.4147 46.9573-22.8266C47.0507-22.9794 47.0719-23.0389 46.9573-23.2639C46.745-23.7055 46.4392-23.7735 46.1632-23.9815C46.0104-24.0919 45.8788-24.2745 45.7344-24.4062C45.6006-24.5311 45.4619-24.6499 45.3183-24.7628C45.0975-24.9327 44.8682-25.0728 44.6601-25.2724C44.3979-25.5289 44.1484-25.7982 43.9128-26.0791C43.106-27.0133 42.295-27.9432 41.501-28.9071C41.2292-29.2425 41.0127-29.7054 40.7536-30.0663C40.5413-30.355 40.2951-30.5673 40.0785-30.8433C39.9299-31.0301 39.811-31.2849 39.6624-31.476C39.2378-32.0195 38.8004-32.5375 38.38-33.0895C37.8875-33.7477 37.4077-34.4398 36.9194-35.1022C36.5489-35.6128 36.2556-36.1751 36.0489-36.7709C35.9003-37.1786 35.6752-37.5055 35.5054-37.8919C35.3271-38.3081 35.1742-38.7539 35.0044-39.1828C34.9704-39.2762 34.9194-39.3611 34.877-39.4418C34.8345-39.5225 34.7708-39.5819 34.7453-39.6711C34.4354-40.809 34.1466-41.9641 33.8282-43.0978C33.6602-43.7447 33.5662-44.4084 33.5478-45.0765C33.5308-45.4587 33.4119-45.8238 33.3949-46.2017C33.3482-47.327 33.1953-48.4607 33.4119-49.5774C33.5223-50.1549 33.6752-50.7069 33.8069-51.2759C33.8278-51.3664 33.8306-51.4602 33.8154-51.5519C33.7301-51.9501 33.6366-52.3464 33.535-52.7408C33.3694-53.365 33.1953-53.9892 33.0255-54.6091C32.983-54.7535 32.9321-54.8894 32.9024-55.0337C32.8669-55.3102 32.7291-55.5632 32.516-55.7428C32.2952-55.9254 32.1041-56.2099 31.879-56.384C31.6799-56.5461 31.4482-56.6634 31.1997-56.7279C30.6774-56.8426 30.1551-56.8978 29.6286-56.9827C29.3865-57.0167 29.1403-57.1186 28.9067-57.0676C28.5288-56.9955 28.2401-57.2969 27.9301-57.5305C27.8155-57.6154 27.6881-57.6748 27.5734-57.7852C27.4952-57.8661 27.4421-57.9678 27.4206-58.0782C27.4121-58.1419 27.5055-58.2651 27.5565-58.333C27.9344-58.7746 28.3462-58.9996 28.8091-58.868L28.8091-58.8723Z"/>
   <path class="monochrome-1 multicolor-1:tintColor hierarchical-1:tertiary SFSymbolsPreviewWireframe" d="M46.4321-81.8365C52.4502-81.8377 58.4096-80.6532 63.9698-78.3508C69.53-76.0483 74.5822-72.6729 78.8374-68.4176C83.0928-64.1624 86.4682-59.1103 88.771-53.5496C91.0733-47.9892 92.2577-42.03 92.2566-36.0127C92.2566-10.693 71.744 9.83658 46.4328 9.83658C21.1173 9.83658 0.5835-10.6972 0.5835-36.0127C0.5835-61.3211 21.1145-81.8365 46.4321-81.8365ZM46.4328-75.0865C24.8413-75.0865 7.3335-57.592 7.3335-36.0127C7.3335-14.4252 24.8452 3.08658 46.4328 3.08658C68.0148 3.08658 85.5066-14.4197 85.5066-36.0133C85.5076-41.1447 84.4976-46.226 82.5345-50.9672C80.571-55.7085 77.693-60.0162 74.0644-63.6446C70.4361-67.273 66.1283-70.1511 61.3873-72.1143C56.6463-74.0776 51.5649-75.0875 46.4328-75.0865Z"/>
  </g>
  <g id="Ultralight-S" transform="matrix(1 0 0 1 515.649 696)">
   <path class="monochrome-0 multicolor-0:tintColor hierarchical-0:primary SFSymbolsPreviewWireframe" d="M25.7401-62.8723C26.2369-62.8723 26.7294-62.8468 27.222-62.8807C27.5702-62.902 27.9226-63.0591 28.2708-63.0421C28.6572-63.0209 28.9502-63.3478 29.2049-63.7003C29.4597-64.0569 29.6465-64.5835 29.7909-65.093C29.8886-65.4284 29.9268-65.7936 30.1348-66.0059C30.1727-66.0444 30.2018-66.0908 30.2198-66.1418C30.517-66.9825 31.0437-67.3477 31.4938-67.8827C32.016-68.5154 32.6402-68.6895 33.2474-68.8848C33.6423-69.0079 34.0627-68.9018 34.4703-68.9527C35.1327-69.0377 35.7951-69.0122 36.449-68.8423C36.7802-68.7574 37.1029-68.5451 37.4341-68.4432C37.9012-68.2988 38.3343-67.9974 38.7802-67.7383C39.1708-67.5048 39.5699-67.2883 39.9394-66.9825C40.2451-66.7278 40.5211-66.3711 40.8013-66.0314C41.1495-65.611 41.4977-65.1864 41.8289-64.7278C42.1813-64.2395 42.5083-63.679 42.8692-63.2035C43.056-62.9572 43.2981-62.8213 43.5189-62.6387L44.1218-62.1292C44.2322-62.04 44.3469-61.9593 44.453-61.8447C44.8734-61.3861 45.281-60.8978 45.7099-60.4562C45.8373-60.3246 46.0156-60.3118 46.16-60.2184C46.4275-60.0486 46.6865-59.8447 46.954-59.6919C47.1621-59.573 47.3829-59.5348 47.5909-59.4201C48.3011-59.0224 48.99-58.5873 49.6546-58.1166C50.0792-57.8193 50.4995-57.5391 50.9072-57.1994C51.4252-56.762 51.9262-56.278 52.4358-55.8151C52.992-55.3056 53.5483-54.7876 54.1088-54.2908C54.5886-53.8662 55.0769-53.4798 55.561-53.0721C55.8667-52.8131 56.1766-52.5414 56.4866-52.2908C56.6734-52.1422 56.8688-51.9766 57.0683-51.9087C57.5142-51.7473 57.9685-51.6539 58.4186-51.5265C58.5502-51.4841 58.6819-51.3864 58.8093-51.3864C58.9791-51.3949 59.1277-51.293 59.2848-51.2166C59.5566-51.0892 59.8453-51.0679 60.1213-50.9618C60.529-50.8047 60.9366-50.6136 61.3442-50.4395C61.3867-50.4225 61.4291-50.3928 61.4716-50.3971C61.9599-50.4905 62.4525-50.5372 62.9323-50.6985C63.2507-50.8089 63.5522-51.0892 63.8664-51.276C64.1552-51.4543 64.4524-51.5987 64.7454-51.7728C65.0936-51.9851 65.4418-52.1974 65.7857-52.4225C66.015-52.5711 66.2358-52.7494 66.4566-52.915C66.9916-53.3184 67.5096-53.7812 68.0616-54.1082C68.5202-54.3842 69.0085-54.5328 69.4926-54.6729C69.9809-54.8088 70.4352-54.5838 70.7622-53.9511C70.8981-53.6878 70.9448-53.2844 71.0042-52.932C71.1528-52.0403 70.9787-51.2166 70.7792-50.4098C70.6773-49.9894 70.5499-49.5606 70.38-49.2124C70.2357-48.9151 70.0149-48.7113 69.8238-48.482C69.5818-48.1975 69.3312-47.9343 69.085-47.6625C68.9151-47.4799 68.7453-47.3059 68.5882-47.1105C68.1848-46.618 67.7814-46.1254 67.3822-45.6243C67.1147-45.2804 66.877-44.8515 66.5882-44.5798C66.1211-44.1424 65.7772-43.4758 65.3568-42.9662C65.0384-42.5756 64.6987-42.2274 64.393-41.8155C64.2061-41.5607 64.0618-41.2126 63.8962-40.9111C63.7433-40.6436 63.5819-40.3888 63.4376-40.117C63.341-39.9316 63.2529-39.7416 63.1743-39.5481C63.1616-39.5141 63.1701-39.4122 63.187-39.3952C63.3229-39.2423 63.4546-39.0385 63.6032-38.9706C63.956-38.7961 64.2291-38.4943 64.3675-38.1256C64.6138-37.5821 64.4736-37.0343 64.0702-36.9876C63.6371-36.9452 63.1998-36.9876 62.7624-36.9409C62.5119-36.9154 62.2699-36.7966 62.0194-36.7201C62.0024-36.7116 61.9769-36.6904 61.9642-36.6989C61.5735-36.839 61.3272-36.4017 61.0852-36.0492C60.7625-35.5694 60.4738-35.0174 60.168-34.5079C59.8538-33.9771 59.5481-33.4294 59.2126-32.941C58.8843-32.474 58.5311-32.0246 58.1554-31.595C57.8539-31.2383 57.5312-30.9326 57.2127-30.6099C56.7838-30.1768 56.3635-29.7182 55.9219-29.3276C55.6926-29.1238 55.4336-29.0049 55.183-28.886C54.8264-28.7161 54.4612-28.5972 54.1045-28.4316C53.5695-28.1769 53.0387-27.9136 52.508-27.6461C52.0154-27.4041 51.5314-27.1366 51.0388-26.9115C50.8152-26.8096 50.5799-26.7353 50.3382-26.6907C49.9263-26.61 49.956-26.4911 50.041-25.9094C50.1216-25.3914 50.1386-24.8818 50.1259-24.3638C50.1259-24.2364 50.0707-24.1048 50.0325-23.9817C49.8159-23.2598 49.6078-22.5337 49.3658-21.8374C49.2172-21.4042 49.0091-21.0221 48.8266-20.6187C48.6992-20.33 48.5718-20.0327 48.4317-19.7482C48.3722-19.6209 48.2958-19.5147 48.2278-19.4001C48.1981-19.3534 48.1684-19.3151 48.1472-19.2599C47.9179-18.6655 47.6971-18.0625 47.4593-17.4766C47.2173-16.8609 46.9625-16.2579 46.7077-15.655C46.5379-15.2516 46.3383-14.8779 46.1854-14.4575C45.9731-13.8673 45.7948-13.2474 45.6037-12.6359C45.574-12.5425 45.5358-12.4576 45.5061-12.3599C45.4466-12.1561 45.3999-11.9438 45.3362-11.74C45.2938-11.6126 45.2343-11.5065 45.1876-11.3833C45.1154-11.1965 45.0262-11.0182 44.9923-10.8143C44.9286-10.4619 45.0178-10.3133 45.2343-10.2921C45.3192-10.2836 45.4042-10.2623 45.4848-10.2199C46.0241-9.93538 46.5761-9.88018 47.1026-10.1986C47.4466-10.411 47.7438-10.8143 48.0792-11.0903C48.4444-11.3876 48.7883-11.8504 49.2257-11.74C49.6715-11.6338 49.99-11.1795 50.2405-10.5766C50.2618-10.5214 50.2702-10.3855 50.249-10.3558C50.2193-10.3048 50.1556-10.3133 50.1046-10.2963L50.0877-10.3006C49.4847-10.7974 49.0006-10.2411 48.559-9.71033C48.2625-9.35897 47.8984-9.07023 47.489-8.8611C46.937-8.56812 46.385-8.25815 45.833-7.99064C45.6313-7.90784 45.4137-7.8714 45.1961-7.88449C44.6441-7.88449 44.2789-7.39618 44.0114-6.68283C43.591-5.55335 43.1664-4.41963 42.8098-3.23495C42.6442-2.68295 42.4658-2.46215 42.1091-2.41969C41.8968-2.39421 41.676-2.2371 41.5359-1.86769C41.4255-1.5832 41.2557-1.3539 41.1028-1.12037C41.0603-1.05667 40.9669-1.0779 40.899-1.06092C40.9032-1.17557 40.8862-1.31569 40.916-1.40061C41.2047-2.17341 41.4892-2.95046 41.8034-3.69353C41.9308-3.99501 42.1516-4.18609 42.2662-4.49606C42.6017-5.37926 43.0051-6.19452 43.2004-7.2136C43.2429-7.41741 43.3448-7.58301 43.383-7.78258C43.4184-7.9634 43.4184-8.14952 43.383-8.33033C43.3702-8.39827 43.1962-8.44073 43.124-8.38553C42.8904-8.2072 42.6654-7.9864 42.4446-7.77409L41.0136-6.40258C40.5593-5.96523 40.105-5.53212 39.6464-5.1075C39.3958-4.87397 39.1496-4.69563 38.8396-4.82301C38.347-5.01833 37.88-4.88246 37.4554-4.3984C37.4426-4.37717 37.4256-4.34744 37.4086-4.33895C37.2515-4.27101 37.069-4.08418 36.9501-4.38566C36.9331-4.43661 37.0987-4.75507 37.2091-4.86972C37.795-5.46418 38.3853-6.04166 38.984-6.61064C39.243-6.85267 39.5232-7.0395 39.7865-7.27729C40.1007-7.55753 40.4234-7.82504 40.7122-8.16898C41.0858-8.62332 41.4255-9.15833 41.7822-9.64664C41.9223-9.83347 41.9223-9.98633 41.7567-10.0882C41.5918-10.1817 41.4184-10.2584 41.2387-10.3175C41.0264-10.394 40.8098-10.4364 40.5933-10.5129C40.4234-10.5723 40.3597-10.7634 40.3767-11.0479C40.4064-11.6169 40.3045-11.791 39.9606-11.6848C39.7568-11.6169 39.5699-11.4385 39.3746-11.3281C39.2897-11.2857 39.1963-11.2262 39.1198-11.2644C38.9627-11.3494 38.95-11.5829 39.0901-11.74C39.1616-11.8306 39.2529-11.9035 39.3576-11.9523C39.727-12.0797 40.0965-12.2665 40.4701-12.292C40.8293-12.3012 41.1852-12.2209 41.5062-12.0585C42.0879-11.7867 42.6484-11.6763 43.2046-12.1943C43.315-12.3005 43.4594-12.343 43.5698-12.4576C43.7014-12.5977 43.8246-12.7718 43.9392-12.9417C44.1006-13.1794 44.2874-13.3918 44.4063-13.6805C44.6526-14.2919 44.8606-14.9501 45.0942-15.5785C45.2428-15.9692 45.4211-16.3301 45.5655-16.725C45.867-17.5318 46.1515-18.364 46.453-19.1793C46.695-19.8374 46.92-20.521 47.2003-21.1282C47.5187-21.8204 47.6716-22.6271 47.8712-23.4084C48.0622-24.1727 47.9306-24.9158 47.7735-25.6462C47.7523-25.7438 47.6589-25.85 47.5909-25.8712C47.2088-25.9858 46.8224-26.075 46.436-26.1684C46.351-26.1897 46.2534-26.2109 46.1727-26.1769C46.0453-26.126 45.9477-26.1217 45.8542-26.3128C45.8245-26.368 45.6844-26.3425 45.6334-26.2703C45.4126-25.9434 45.2046-25.591 44.9923-25.2385C44.6866-24.7332 44.3638-24.2577 44.0878-23.7099C43.7482-23.0433 43.4509-22.3087 43.1197-21.6208C42.9244-21.2004 42.7036-20.814 42.4913-20.4149C42.2153-19.9011 41.935-19.3958 41.6548-18.8863C41.6293-18.8353 41.5954-18.7674 41.5656-18.7589C41.2726-18.6952 41.1835-18.2366 41.0094-17.9606C40.8226-17.6719 40.882-17.3492 41.124-17.2473C41.209-17.2133 41.3024-17.1963 41.3915-17.1921C41.744-17.1751 42.0922-17.1454 42.4446-17.1666C42.6955-17.174 42.9424-17.232 43.1707-17.3364C43.5698-17.5318 44.3171-17.4214 44.6441-16.6188C44.6653-16.5721 44.6653-16.5042 44.6781-16.4447C44.6356-16.4193 44.5846-16.3683 44.5422-16.381C44.4021-16.432 44.245-16.449 44.1261-16.5764C43.8586-16.8736 43.6378-16.6401 43.383-16.5084C42.9976-16.3212 42.5971-16.1677 42.1856-16.0498C41.676-15.8927 41.1495-15.863 40.6654-15.5913C40.3555-15.4214 39.9691-15.4426 39.7355-14.9501C39.5912-14.6444 39.4595-14.3302 39.3152-14.0244C39.2302-13.8546 39.1581-13.638 39.0477-13.5404C38.6485-13.1837 38.5042-12.5468 38.3555-11.9141C38.3003-11.6721 38.2239-11.6254 38.0965-11.7145C37.9819-11.7952 37.9139-11.8631 37.9691-12.1391C38.1096-12.8037 38.2313-13.4721 38.3343-14.1433C38.3853-14.4703 38.4192-14.8227 38.4192-15.1582C38.4192-15.655 38.2664-15.7823 38.0201-15.5233C37.5827-15.0562 37.1539-14.5722 36.7165-14.0966C36.6436-14.0156 36.5686-13.936 36.4915-13.8588C36.0669-13.4385 35.6295-13.0308 35.2091-12.5935C34.9416-12.3132 34.7123-12.3514 34.517-12.7633C34.3174-13.1794 33.9905-13.2856 33.723-12.9756C33.5234-12.7463 33.3451-12.4661 33.1625-12.1986C33.1236-12.1434 33.0999-12.079 33.0946-12.0118C33.0903-11.7103 32.9926-11.5489 32.8355-11.4428C32.7931-11.413 32.7803-11.2899 32.7421-11.2305C32.6912-11.137 32.6317-11.0606 32.5723-10.9757C32.5298-11.1286 32.4152-11.3324 32.4449-11.4343C32.5468-11.8249 32.6657-12.2198 32.827-12.5468C33.0224-12.9459 33.2644-13.2856 33.4937-13.6338C33.5616-13.7357 33.6635-13.7782 33.7485-13.8418C34.0966-14.0881 34.4533-14.3132 34.8015-14.5807C34.9714-14.7081 34.9671-15.0902 34.7718-15.311C34.4321-15.7017 34.0839-16.1093 33.6423-15.8375C33.4852-15.7441 33.3493-15.553 33.2177-15.379C33.1455-15.294 33.1115-15.1242 33.0394-15.052C32.9672-14.9756 32.8058-14.9119 32.7931-14.9543C32.7379-15.103 32.6657-15.3492 32.7082-15.4681C32.8111-15.8439 33.0503-16.1677 33.379-16.3768C33.5064-16.4532 33.6083-16.6188 33.7315-16.725C33.8164-16.8099 33.9268-16.9415 34.0032-16.9118C34.3599-16.7844 34.6741-17.0307 34.9968-17.1581C35.5658-17.3831 36.1306-17.6252 36.6868-17.9097C37.2091-18.1814 37.7186-18.5551 38.2451-18.8141C39.0264-19.2047 39.7313-19.8459 40.3767-20.6569C40.4956-20.8055 40.5805-21.0391 40.6824-21.2259C40.7504-21.3448 40.8226-21.4594 40.8947-21.5698C41.2047-22.0242 41.5486-22.4318 41.8246-22.9371C42.2917-23.7863 42.7036-24.712 43.1537-25.5825C43.383-26.0198 43.6378-26.4147 43.8883-26.8266C43.9817-26.9794 44.0029-27.0389 43.8883-27.2639C43.676-27.7055 43.3702-27.7735 43.0942-27.9815C42.9414-28.0919 42.8098-28.2745 42.6654-28.4062C42.5316-28.5311 42.3929-28.65 42.2493-28.7628C42.0285-28.9327 41.7992-29.0728 41.5911-29.2724C41.3289-29.5289 41.0794-29.7982 40.8438-30.0791C40.037-31.0133 39.226-31.9432 38.432-32.9071C38.1602-33.2425 37.9437-33.7054 37.6846-34.0663C37.4723-34.355 37.2261-34.5673 37.0095-34.8433C36.8609-35.0302 36.742-35.2849 36.5934-35.476C36.1688-36.0195 35.7314-36.5375 35.311-37.0895C34.8185-37.7477 34.3387-38.4398 33.8504-39.1022C33.4799-39.6128 33.1866-40.1751 32.9799-40.771C32.8313-41.1786 32.6062-41.5055 32.4364-41.8919C32.2581-42.3081 32.1052-42.7539 31.9354-43.1828C31.9014-43.2762 31.8504-43.3611 31.808-43.4418C31.7655-43.5225 31.7018-43.5819 31.6763-43.6711C31.3664-44.809 31.0776-45.9641 30.7592-47.0978C30.5912-47.7447 30.4972-48.4084 30.4788-49.0765C30.4618-49.4587 30.3429-49.8238 30.3259-50.2017C30.2792-51.327 30.1263-52.4607 30.3429-53.5774C30.4533-54.1549 30.6062-54.7069 30.7379-55.2759C30.7588-55.3664 30.7616-55.4602 30.7464-55.5519C30.6611-55.9501 30.5676-56.3464 30.466-56.7408C30.3004-57.365 30.1263-57.9892 29.9565-58.6091C29.914-58.7535 29.8631-58.8894 29.8334-59.0337C29.7979-59.3102 29.6601-59.5632 29.447-59.7428C29.2262-59.9254 29.0351-60.2099 28.81-60.384C28.6109-60.5461 28.3792-60.6634 28.1307-60.7279C27.6084-60.8426 27.0861-60.8978 26.5596-60.9827C26.3175-61.0167 26.0713-61.1186 25.8377-61.0676C25.4598-60.9955 25.1711-61.2969 24.8611-61.5305C24.7465-61.6154 24.6191-61.6748 24.5044-61.7852C24.4262-61.8661 24.3731-61.9678 24.3516-62.0782C24.3431-62.1419 24.4365-62.2651 24.4875-62.333C24.8654-62.7746 25.2772-62.9996 25.7401-62.868L25.7401-62.8723Z"/>
   <path class="monochrome-1 multicolor-1:tintColor hierarchical-1:tertiary SFSymbolsPreviewWireframe" d="M44.3636-80.5865C50.0861-80.5876 55.7528-79.4613 61.04-77.272C66.3271-75.0826 71.1312-71.8729 75.1774-67.8265C79.2239-63.7803 82.4335-58.9764 84.6232-53.6889C86.8124-48.4015 87.9387-42.7349 87.9376-37.0127C87.9376-12.9352 68.432 6.58658 44.3638 6.58658C20.2909 6.58658 0.7645-12.9399 0.7645-37.0127C0.7645-61.0781 20.2877-80.5865 44.3636-80.5865ZM44.3638-78.3365C21.53-78.3365 3.0145-59.8351 3.0145-37.0127C3.0145-14.1825 21.5336 4.33658 44.3638 4.33658C67.1889 4.33658 85.6876-14.1774 85.6876-37.0129C85.6886-42.4398 84.6205-47.8138 82.5443-52.828C80.4678-57.8425 77.4239-62.3983 73.5865-66.2355C69.7491-70.073 65.1932-73.1168 60.1791-75.1931C55.1651-77.2695 49.791-78.3376 44.3638-78.3365Z"/>
  </g>
 </g>
</svg>
