<?xml version="1.0" encoding="UTF-8"?>
<!--Generator: Apple Native CoreSVG 341-->
<!DOCTYPE svg
PUBLIC "-//W3C//DTD SVG 1.1//EN"
       "http://www.w3.org/Graphics/SVG/1.1/DTD/svg11.dtd">
<svg version="1.1" xmlns="http://www.w3.org/2000/svg" xmlns:xlink="http://www.w3.org/1999/xlink" viewBox="0 0 3300 2200">
 <!--glyph: "", point size: 100.0, font version: "20.0d10e1", template writer version: "138.0.0"-->
 <style>.monochrome-0 {-sfsymbols-motion-group:1;-sfsymbols-layer-tags:449b9296ea52f1c4}
.monochrome-1 {-sfsymbols-motion-group:0;-sfsymbols-layer-tags:449b9296ea52f1c4}

.multicolor-0:tintColor {-sfsymbols-motion-group:1;-sfsymbols-layer-tags:449b9296ea52f1c4}
.multicolor-1:tintColor {-sfsymbols-motion-group:0;-sfsymbols-layer-tags:449b9296ea52f1c4}

.hierarchical-0:primary {-sfsymbols-motion-group:1;-sfsymbols-layer-tags:449b9296ea52f1c4}
.hierarchical-1:tertiary {-sfsymbols-motion-group:0;-sfsymbols-layer-tags:449b9296ea52f1c4}

.SFSymbolsPreviewWireframe {fill:none;opacity:1.0;stroke:black;stroke-width:0.5}
</style>
 <g id="Notes">
  <rect height="2200" id="artboard" style="fill:white;opacity:1" width="3300" x="0" y="0"/>
  <line style="fill:none;stroke:black;opacity:1;stroke-width:0.5;" x1="263" x2="3036" y1="292" y2="292"/>
  <text style="stroke:none;fill:black;font-family:sans-serif;font-size:13;font-weight:bold;" transform="matrix(1 0 0 1 263 322)">Weight/Scale Variations</text>
  <text style="stroke:none;fill:black;font-family:sans-serif;font-size:13;text-anchor:middle;" transform="matrix(1 0 0 1 559.711 322)">Ultralight</text>
  <text style="stroke:none;fill:black;font-family:sans-serif;font-size:13;text-anchor:middle;" transform="matrix(1 0 0 1 856.422 322)">Thin</text>
  <text style="stroke:none;fill:black;font-family:sans-serif;font-size:13;text-anchor:middle;" transform="matrix(1 0 0 1 1153.13 322)">Light</text>
  <text style="stroke:none;fill:black;font-family:sans-serif;font-size:13;text-anchor:middle;" transform="matrix(1 0 0 1 1449.84 322)">Regular</text>
  <text style="stroke:none;fill:black;font-family:sans-serif;font-size:13;text-anchor:middle;" transform="matrix(1 0 0 1 1746.56 322)">Medium</text>
  <text style="stroke:none;fill:black;font-family:sans-serif;font-size:13;text-anchor:middle;" transform="matrix(1 0 0 1 2043.27 322)">Semibold</text>
  <text style="stroke:none;fill:black;font-family:sans-serif;font-size:13;text-anchor:middle;" transform="matrix(1 0 0 1 2339.98 322)">Bold</text>
  <text style="stroke:none;fill:black;font-family:sans-serif;font-size:13;text-anchor:middle;" transform="matrix(1 0 0 1 2636.69 322)">Heavy</text>
  <text style="stroke:none;fill:black;font-family:sans-serif;font-size:13;text-anchor:middle;" transform="matrix(1 0 0 1 2933.4 322)">Black</text>
  <line style="fill:none;stroke:black;opacity:1;stroke-width:0.5;" x1="263" x2="3036" y1="1903" y2="1903"/>
  <g transform="matrix(0.2 0 0 0.2 263 1933)">
   <path d="m46.2402 4.15039c21.7773 0 39.4531-17.627 39.4531-39.4043s-17.6758-39.4043-39.4531-39.4043c-21.7285 0-39.4043 17.627-39.4043 39.4043s17.6758 39.4043 39.4043 39.4043Zm0-7.42188c-17.6758 0-31.9336-14.3066-31.9336-31.9824s14.2578-31.9824 31.9336-31.9824 31.9824 14.3066 31.9824 31.9824-14.3066 31.9824-31.9824 31.9824Zm-17.9688-31.9824c0 2.14844 1.51367 3.61328 3.75977 3.61328h10.498v10.5957c0 2.19727 1.46484 3.71094 3.61328 3.71094 2.24609 0 3.71094-1.51367 3.71094-3.71094v-10.5957h10.5957c2.19727 0 3.71094-1.46484 3.71094-3.61328 0-2.19727-1.51367-3.71094-3.71094-3.71094h-10.5957v-10.5469c0-2.24609-1.46484-3.75977-3.71094-3.75977-2.14844 0-3.61328 1.51367-3.61328 3.75977v10.5469h-10.498c-2.24609 0-3.75977 1.51367-3.75977 3.71094Z"/>
  </g>
  <g transform="matrix(0.2 0 0 0.2 281.506 1933)">
   <path d="m58.5449 14.5508c27.4902 0 49.8047-22.3145 49.8047-49.8047s-22.3145-49.8047-49.8047-49.8047-49.8047 22.3145-49.8047 49.8047 22.3145 49.8047 49.8047 49.8047Zm0-8.30078c-22.9492 0-41.5039-18.5547-41.5039-41.5039s18.5547-41.5039 41.5039-41.5039 41.5039 18.5547 41.5039 41.5039-18.5547 41.5039-41.5039 41.5039Zm-22.6562-41.5039c0 2.39258 1.66016 4.00391 4.15039 4.00391h14.3555v14.4043c0 2.44141 1.66016 4.15039 4.05273 4.15039 2.44141 0 4.15039-1.66016 4.15039-4.15039v-14.4043h14.4043c2.44141 0 4.15039-1.61133 4.15039-4.00391 0-2.44141-1.70898-4.15039-4.15039-4.15039h-14.4043v-14.3555c0-2.49023-1.70898-4.19922-4.15039-4.19922-2.39258 0-4.05273 1.70898-4.05273 4.19922v14.3555h-14.3555c-2.49023 0-4.15039 1.70898-4.15039 4.15039Z"/>
  </g>
  <g transform="matrix(0.2 0 0 0.2 304.924 1933)">
   <path d="m74.8535 28.3203c35.1074 0 63.623-28.4668 63.623-63.5742s-28.5156-63.623-63.623-63.623-63.5742 28.5156-63.5742 63.623 28.4668 63.5742 63.5742 63.5742Zm0-9.08203c-30.127 0-54.4922-24.3652-54.4922-54.4922s24.3652-54.4922 54.4922-54.4922 54.4922 24.3652 54.4922 54.4922-24.3652 54.4922-54.4922 54.4922Zm-28.8574-54.4922c0 2.58789 1.85547 4.39453 4.58984 4.39453h19.7266v19.7754c0 2.68555 1.85547 4.58984 4.44336 4.58984 2.68555 0 4.54102-1.85547 4.54102-4.58984v-19.7754h19.7754c2.68555 0 4.58984-1.80664 4.58984-4.39453 0-2.73438-1.85547-4.58984-4.58984-4.58984h-19.7754v-19.7266c0-2.73438-1.85547-4.63867-4.54102-4.63867-2.58789 0-4.44336 1.9043-4.44336 4.63867v19.7266h-19.7266c-2.73438 0-4.58984 1.85547-4.58984 4.58984Z"/>
  </g>
  <text style="stroke:none;fill:black;font-family:sans-serif;font-size:13;font-weight:bold;" transform="matrix(1 0 0 1 263 1953)">Design Variations</text>
  <text style="stroke:none;fill:black;font-family:sans-serif;font-size:13;" transform="matrix(1 0 0 1 263 1971)">Symbols are supported in up to nine weights and three scales.</text>
  <text style="stroke:none;fill:black;font-family:sans-serif;font-size:13;" transform="matrix(1 0 0 1 263 1989)">For optimal layout with text and other symbols, vertically align</text>
  <text style="stroke:none;fill:black;font-family:sans-serif;font-size:13;" transform="matrix(1 0 0 1 263 2007)">symbols with the adjacent text.</text>
  <line style="fill:none;stroke:#00AEEF;stroke-width:0.5;opacity:1.0;" x1="776" x2="776" y1="1919" y2="1933"/>
  <g transform="matrix(0.2 0 0 0.2 776 1933)">
   <path d="m16.5527 0.78125c2.58789 0 3.85742-0.976562 4.78516-3.71094l6.29883-17.2363h28.8086l6.29883 17.2363c0.927734 2.73438 2.19727 3.71094 4.73633 3.71094 2.58789 0 4.24805-1.5625 4.24805-4.00391 0-0.830078-0.146484-1.61133-0.537109-2.63672l-22.9004-60.9863c-1.12305-2.97852-3.125-4.49219-6.25-4.49219-3.02734 0-5.07812 1.46484-6.15234 4.44336l-22.9004 61.084c-0.390625 1.02539-0.537109 1.80664-0.537109 2.63672 0 2.44141 1.5625 3.95508 4.10156 3.95508Zm13.4766-28.3691 11.8652-32.8613h0.244141l11.8652 32.8613Z"/>
  </g>
  <line style="fill:none;stroke:#00AEEF;stroke-width:0.5;opacity:1.0;" x1="792.836" x2="792.836" y1="1919" y2="1933"/>
  <text style="stroke:none;fill:black;font-family:sans-serif;font-size:13;font-weight:bold;" transform="matrix(1 0 0 1 776 1953)">Margins</text>
  <text style="stroke:none;fill:black;font-family:sans-serif;font-size:13;" transform="matrix(1 0 0 1 776 1971)">Leading and trailing margins on the left and right side of each symbol</text>
  <text style="stroke:none;fill:black;font-family:sans-serif;font-size:13;" transform="matrix(1 0 0 1 776 1989)">can be adjusted by modifying the x-location of the margin guidelines.</text>
  <text style="stroke:none;fill:black;font-family:sans-serif;font-size:13;" transform="matrix(1 0 0 1 776 2007)">Modifications are automatically applied proportionally to all</text>
  <text style="stroke:none;fill:black;font-family:sans-serif;font-size:13;" transform="matrix(1 0 0 1 776 2025)">scales and weights.</text>
  <g transform="matrix(0.2 0 0 0.2 1289 1933)">
   <path d="m14.209 9.32617 8.49609 8.54492c4.29688 4.3457 9.22852 4.05273 13.8672-1.07422l53.4668-58.9355-4.83398-4.88281-53.0762 58.3984c-1.75781 2.00195-3.41797 2.49023-5.76172 0.146484l-5.85938-5.81055c-2.34375-2.29492-1.80664-4.00391 0.195312-5.81055l57.373-54.0039-4.88281-4.83398-57.959 54.4434c-4.93164 4.58984-5.32227 9.47266-1.02539 13.8184Zm32.0801-90.9668c-2.09961 2.05078-2.24609 4.93164-1.07422 6.88477 1.17188 1.80664 3.4668 2.97852 6.68945 2.14844 7.32422-1.70898 14.9414-2.00195 22.0703 2.68555l-2.92969 7.27539c-1.70898 4.15039-0.830078 7.08008 1.85547 9.81445l11.4746 11.5723c2.44141 2.44141 4.49219 2.53906 7.32422 2.05078l5.32227-0.976562 3.32031 3.36914-0.195312 2.7832c-0.195312 2.49023 0.439453 4.39453 2.88086 6.78711l3.80859 3.71094c2.39258 2.39258 5.46875 2.53906 7.8125 0.195312l14.5508-14.5996c2.34375-2.34375 2.24609-5.32227-0.146484-7.71484l-3.85742-3.80859c-2.39258-2.39258-4.24805-3.17383-6.64062-2.97852l-2.88086 0.244141-3.22266-3.17383 1.2207-5.61523c0.634766-2.83203-0.146484-5.0293-3.07617-7.95898l-10.9863-10.9375c-16.6992-16.6016-38.8672-16.2109-53.3203-1.75781Zm7.4707 1.85547c12.1582-8.88672 28.6133-7.37305 39.7461 3.75977l12.1582 12.0605c1.17188 1.17188 1.36719 2.09961 1.02539 3.80859l-1.61133 7.42188 7.51953 7.42188 4.93164-0.292969c1.26953-0.0488281 1.66016 0.0488281 2.63672 1.02539l2.88086 2.88086-12.207 12.207-2.88086-2.88086c-0.976562-0.976562-1.12305-1.36719-1.07422-2.68555l0.341797-4.88281-7.4707-7.42188-7.61719 1.26953c-1.61133 0.341797-2.34375 0.195312-3.56445-0.976562l-10.0098-10.0098c-1.26953-1.17188-1.41602-2.00195-0.634766-3.85742l4.39453-10.4492c-7.8125-7.27539-17.9688-10.4004-28.125-7.42188-0.78125 0.195312-1.07422-0.439453-0.439453-0.976562Z"/>
  </g>
  <text style="stroke:none;fill:black;font-family:sans-serif;font-size:13;font-weight:bold;" transform="matrix(1 0 0 1 1289 1953)">Exporting</text>
  <text style="stroke:none;fill:black;font-family:sans-serif;font-size:13;" transform="matrix(1 0 0 1 1289 1971)">Symbols should be outlined when exporting to ensure the</text>
  <text style="stroke:none;fill:black;font-family:sans-serif;font-size:13;" transform="matrix(1 0 0 1 1289 1989)">design is preserved when submitting to Xcode.</text>
  <text id="template-version" style="stroke:none;fill:black;font-family:sans-serif;font-size:13;text-anchor:end;" transform="matrix(1 0 0 1 3036 1933)">Template v.6.0</text>
  <text style="stroke:none;fill:black;font-family:sans-serif;font-size:13;text-anchor:end;" transform="matrix(1 0 0 1 3036 1951)">Requires Xcode 16 or greater</text>
  <text id="descriptive-name" style="stroke:none;fill:black;font-family:sans-serif;font-size:13;text-anchor:end;" transform="matrix(1 0 0 1 3036 1969)">Generated from filtervogelgruppe-3</text>
  <text style="stroke:none;fill:black;font-family:sans-serif;font-size:13;text-anchor:end;" transform="matrix(1 0 0 1 3036 1987)">Typeset at 100.0 points</text>
  <text style="stroke:none;fill:black;font-family:sans-serif;font-size:13;" transform="matrix(1 0 0 1 263 726)">Small</text>
  <text style="stroke:none;fill:black;font-family:sans-serif;font-size:13;" transform="matrix(1 0 0 1 263 1156)">Medium</text>
  <text style="stroke:none;fill:black;font-family:sans-serif;font-size:13;" transform="matrix(1 0 0 1 263 1586)">Large</text>
 </g>
 <g id="Guides">
  <g id="H-reference" style="fill:#27AAE1;stroke:none;" transform="matrix(1 0 0 1 339 696)">
   <path d="M0.993654 0L3.63775 0L29.3281-67.1323L30.0303-67.1323L30.0303-70.459L28.1226-70.459ZM11.6885-24.4799L46.9815-24.4799L46.2315-26.7285L12.4385-26.7285ZM55.1196 0L57.7637 0L30.6382-70.459L29.4326-70.459L29.4326-67.1323Z"/>
  </g>
  <line id="Baseline-S" style="fill:none;stroke:#27AAE1;opacity:1;stroke-width:0.5;" x1="263" x2="3036" y1="696" y2="696"/>
  <line id="Capline-S" style="fill:none;stroke:#27AAE1;opacity:1;stroke-width:0.5;" x1="263" x2="3036" y1="625.541" y2="625.541"/>
  <g id="H-reference" style="fill:#27AAE1;stroke:none;" transform="matrix(1 0 0 1 339 1126)">
   <path d="M0.993654 0L3.63775 0L29.3281-67.1323L30.0303-67.1323L30.0303-70.459L28.1226-70.459ZM11.6885-24.4799L46.9815-24.4799L46.2315-26.7285L12.4385-26.7285ZM55.1196 0L57.7637 0L30.6382-70.459L29.4326-70.459L29.4326-67.1323Z"/>
  </g>
  <line id="Baseline-M" style="fill:none;stroke:#27AAE1;opacity:1;stroke-width:0.5;" x1="263" x2="3036" y1="1126" y2="1126"/>
  <line id="Capline-M" style="fill:none;stroke:#27AAE1;opacity:1;stroke-width:0.5;" x1="263" x2="3036" y1="1055.54" y2="1055.54"/>
  <g id="H-reference" style="fill:#27AAE1;stroke:none;" transform="matrix(1 0 0 1 339 1556)">
   <path d="M0.993654 0L3.63775 0L29.3281-67.1323L30.0303-67.1323L30.0303-70.459L28.1226-70.459ZM11.6885-24.4799L46.9815-24.4799L46.2315-26.7285L12.4385-26.7285ZM55.1196 0L57.7637 0L30.6382-70.459L29.4326-70.459L29.4326-67.1323Z"/>
  </g>
  <line id="Baseline-L" style="fill:none;stroke:#27AAE1;opacity:1;stroke-width:0.5;" x1="263" x2="3036" y1="1556" y2="1556"/>
  <line id="Capline-L" style="fill:none;stroke:#27AAE1;opacity:1;stroke-width:0.5;" x1="263" x2="3036" y1="1485.54" y2="1485.54"/>
  <line id="right-margin-Black-S" style="fill:none;stroke:#00AEEF;stroke-width:0.5;opacity:1.0;" x1="2982.23" x2="2982.23" y1="600.785" y2="720.121"/>
  <line id="left-margin-Black-S" style="fill:none;stroke:#00AEEF;stroke-width:0.5;opacity:1.0;" x1="2884.57" x2="2884.57" y1="600.785" y2="720.121"/>
  <line id="right-margin-Regular-S" style="fill:none;stroke:#00AEEF;stroke-width:0.5;opacity:1.0;" x1="1496.11" x2="1496.11" y1="600.785" y2="720.121"/>
  <line id="left-margin-Regular-S" style="fill:none;stroke:#00AEEF;stroke-width:0.5;opacity:1.0;" x1="1403.58" x2="1403.58" y1="600.785" y2="720.121"/>
  <line id="right-margin-Ultralight-S" style="fill:none;stroke:#00AEEF;stroke-width:0.5;opacity:1.0;" x1="603.773" x2="603.773" y1="600.785" y2="720.121"/>
  <line id="left-margin-Ultralight-S" style="fill:none;stroke:#00AEEF;stroke-width:0.5;opacity:1.0;" x1="515.649" x2="515.649" y1="600.785" y2="720.121"/>
 </g>
 <g id="Symbols">
  <g id="Black-S" transform="matrix(1 0 0 1 2884.57 696)">
   <path class="monochrome-0 multicolor-0:tintColor hierarchical-0:primary SFSymbolsPreviewWireframe" d="M53.7924-23.9689C52.8444-23.8806 52.3339-23.3548 52.1612-22.6178C52.0889-22.2929 52.0889-21.9561 52.1612-21.6308C52.2335-21.3059 52.3765-21.0007 52.5796-20.7372C52.9403-20.2382 53.3549-19.0024 52.8252-16.5038C52.2955-14.009 51.9156-10.7121 51.8388-8.89284C51.7621-7.06975 51.6316-6.42111 50.8524-6.30597C49.8852-4.95496 49.0524-4.01463 47.782-3.93403C46.5154-3.85727 46.3312-4.06069 46.3312-4.06069C45.767-4.1528 45.813-4.48288 46.0088-4.54429C46.2045-4.6057 46.5269-4.63256 46.5269-4.63256L46.4386-4.70932C45.3985-4.8475 44.6654-5.04708 44.5848-5.10081C44.5042-5.15838 44.416-5.5537 44.416-5.5537C43.917-5.6343 43.94-5.78399 44.0936-5.91832C44.2471-6.05266 45.4599-5.95286 45.5866-5.95286C45.7094-5.95286 45.6518-6.33284 45.4484-6.41344C45.2411-6.4902 44.8765-6.55161 44.9418-6.72048C45.007-6.88552 45.3908-7.00066 45.767-6.88552C46.1431-6.77038 46.8416-6.70129 46.8416-6.70129C46.8416-6.70129 46.4962-7.20024 46.6996-7.33074C46.903-7.46507 46.9683-7.30003 47.4826-7.11581C47.9969-6.93158 48.9602-6.87401 49.3325-6.93925C49.701-7.0045 49.7854-8.32864 50.0157-11.1113C50.246-13.8977 50.5607-16.2274 50.3535-16.6535C50.1462-17.0795 49.8238-17.897 50.4456-20.2459C49.4554-22.3453 48.6532-23.8 48.3999-23.9381C48.1466-24.0802 43.5025-24.2836 39.7029-28.5707C35.9032-32.8579 34.3603-37.8205 33.7462-42.0923C33.1321-46.3564 34.4371-50.5054 34.6175-51.2116C34.7979-51.9139 34.5944-52.5357 33.8499-52.7775C33.0976-53.0193 32.2916-53.169 31.048-52.5779C29.8007-51.9869 27.8317-50.5437 24.554-48.7744C21.2763-47.0012 19.5645-46.7018 18.9888-46.6442C18.4131-46.5828 18.7201-47.3927 19.5798-47.9684C20.4396-48.5479 30.5414-54.8117 32.0114-56.2855C32.5487-57.245 32.6946-60.0392 34.226-61.2559C35.7574-62.4725 38.0756-61.8623 39.5225-60.6149C40.9617-59.3675 41.499-57.1337 42.0632-54.9C42.6312-52.6662 42.6926-51.8871 43.5601-51.1233C44.4198-50.3557 47.3099-50.3864 50.6605-49.3616C54.0188-48.3368 56.9972-45.8037 60.6204-42.7601C64.2435-39.7127 66.9148-38.1429 70.9103-36.3467C74.9057-34.5505 75.3816-34.2818 76.0879-34.3125C76.7902-34.347 79.4308-33.8366 79.8492-33.7176C80.2714-33.5948 79.9144-32.6813 79.9144-32.6813C80.3366-32.1977 80.114-31.3073 78.6363-31.0424C77.1587-30.7738 74.8827-31.2305 73.6891-30.7968C71.8752-30.1699 69.9853-29.7906 68.0701-29.6684C62.3782-26.5788 60.7777-25.5118 57.6113-24.7096C54.441-23.9036 53.7924-23.9727 53.7924-23.9727L53.7924-23.9689Z"/>
   <path class="monochrome-1 multicolor-1:tintColor hierarchical-1:tertiary SFSymbolsPreviewWireframe" d="M48.9411-84C55.3091-84.0013 61.615-82.7479 67.4985-80.3116C73.382-77.8752 78.7279-74.3036 83.2305-69.8009C87.7334-65.2983 91.305-59.9524 93.7418-54.0682C96.1779-48.1846 97.4312-41.8789 97.43-35.5124C97.43-8.72255 75.7254 13 48.9424 13C22.156 13 0.43-8.726 0.43-35.5124C0.43-62.2926 22.1539-84 48.9411-84ZM48.9424-70C29.8835-70 14.43-54.5582 14.43-35.5124C14.43-16.458 29.888-0.999999 48.9424-0.999999C67.9909-0.999999 83.43-16.4519 83.43-35.5138C83.4309-40.0428 82.5395-44.5276 80.8069-48.7121C79.0739-52.8969 76.5337-56.6989 73.3311-59.9013C70.1287-63.1038 66.3266-65.644 62.1422-67.3767C57.9578-69.1095 53.4729-70.0009 48.9424-70Z"/>
  </g>
  <g id="Regular-S" transform="matrix(1 0 0 1 1403.58 696)">
   <path class="monochrome-0 multicolor-0:tintColor hierarchical-0:primary SFSymbolsPreviewWireframe" d="M51.2495-24.0175C50.2007-23.9198 49.636-23.3381 49.4449-22.5228C49.3649-22.1633 49.3649-21.7907 49.4449-21.4309C49.5249-21.0714 49.683-20.7338 49.9077-20.4422C50.3069-19.8902 50.7654-18.523 50.1795-15.7587C49.5935-12.9987 49.1731-9.35126 49.0882-7.33858C49.0033-5.32166 48.8589-4.60406 47.997-4.47668C46.9269-2.98203 46.0055-1.94172 44.6-1.85255C43.1988-1.76763 42.995-1.99268 42.995-1.99268C42.3708-2.09458 42.4218-2.45975 42.6383-2.52769C42.8549-2.59563 43.2115-2.62535 43.2115-2.62535L43.1139-2.71028C41.9632-2.86314 41.1522-3.08394 41.063-3.14338C40.9738-3.20708 40.8762-3.64443 40.8762-3.64443C40.3242-3.7336 40.3496-3.8992 40.5195-4.04782C40.6893-4.19643 42.0311-4.08603 42.1712-4.08603C42.3071-4.08603 42.2434-4.5064 42.0184-4.59557C41.7891-4.68049 41.3857-4.74843 41.4579-4.93526C41.5301-5.11785 41.9547-5.24523 42.3708-5.11785C42.7869-4.99046 43.5597-4.91403 43.5597-4.91403C43.5597-4.91403 43.1776-5.46603 43.4026-5.6104C43.6277-5.75902 43.6998-5.57643 44.2688-5.37262C44.8378-5.1688 45.9036-5.10511 46.3155-5.17729C46.7231-5.24948 46.8165-6.7144 47.0713-9.79286C47.3261-12.8756 47.6742-15.453 47.445-15.9243C47.2157-16.3956 46.859-17.3001 47.5469-19.8987C46.4514-22.2214 45.5639-23.8306 45.2837-23.9835C45.0034-24.1406 39.8656-24.3657 35.6621-29.1086C31.4584-33.8516 29.7514-39.3418 29.072-44.0678C28.3926-48.7853 29.8363-53.3753 30.0359-54.1566C30.2355-54.9337 30.0104-55.6216 29.1867-55.8891C28.3544-56.1566 27.4627-56.3222 26.087-55.6683C24.707-55.0144 22.5287-53.4178 18.9025-51.4603C15.2763-49.4986 13.3825-49.1674 12.7456-49.1037C12.1086-49.0358 12.4483-49.9317 13.3995-50.5686C14.3506-51.2098 25.5265-58.1395 27.1528-59.7701C27.7472-60.8316 27.9086-63.9228 29.6028-65.2688C31.297-66.6149 33.8617-65.9397 35.4625-64.5597C37.0546-63.1797 37.6491-60.7085 38.2733-58.2372C38.9017-55.7659 38.9696-54.904 39.9293-54.059C40.8804-53.2097 44.0778-53.2437 47.7846-52.11C51.5-50.9763 54.795-48.1738 58.8034-44.8066C62.8118-41.4352 65.7671-39.6985 70.1874-37.7113C74.6076-35.7241 75.1341-35.4269 75.9154-35.4609C76.6925-35.4991 79.6138-34.9343 80.0766-34.8027C80.5437-34.6668 80.1488-33.6562 80.1488-33.6562C80.6159-33.1212 80.3696-32.1361 78.7349-31.8431C77.1001-31.5459 74.5821-32.0512 73.2616-31.5714C71.2549-30.8778 69.164-30.4582 67.0452-30.323C60.7482-26.9049 58.9775-25.7244 55.4744-24.837C51.9671-23.9453 51.2495-24.0217 51.2495-24.0217L51.2495-24.0175Z"/>
   <path class="monochrome-1 multicolor-1:tintColor hierarchical-1:tertiary SFSymbolsPreviewWireframe" d="M46.4321-81.8365C52.4502-81.8377 58.4096-80.6532 63.9698-78.3508C69.53-76.0483 74.5822-72.6729 78.8374-68.4176C83.0928-64.1624 86.4682-59.1103 88.771-53.5496C91.0733-47.9892 92.2577-42.03 92.2566-36.0127C92.2566-10.693 71.744 9.83658 46.4328 9.83658C21.1173 9.83658 0.5835-10.6972 0.5835-36.0127C0.5835-61.3211 21.1145-81.8365 46.4321-81.8365ZM46.4328-75.0865C24.8413-75.0865 7.3335-57.592 7.3335-36.0127C7.3335-14.4252 24.8452 3.08658 46.4328 3.08658C68.0148 3.08658 85.5066-14.4197 85.5066-36.0133C85.5076-41.1447 84.4976-46.226 82.5345-50.9672C80.571-55.7085 77.693-60.0162 74.0644-63.6446C70.4361-67.273 66.1283-70.1511 61.3873-72.1143C56.6463-74.0776 51.5649-75.0875 46.4328-75.0865Z"/>
  </g>
  <g id="Ultralight-S" transform="matrix(1 0 0 1 515.649 696)">
   <path class="monochrome-0 multicolor-0:tintColor hierarchical-0:primary SFSymbolsPreviewWireframe" d="M52.1805-24.0175C51.1317-23.9198 50.567-23.3381 50.3759-22.5228C50.2959-22.1633 50.2959-21.7907 50.3759-21.4309C50.4559-21.0714 50.614-20.7338 50.8387-20.4422C51.2379-19.8902 51.6964-18.523 51.1105-15.7587C50.5245-12.9987 50.1041-9.35126 50.0192-7.33858C49.9343-5.32166 49.7899-4.60406 48.928-4.47668C47.8579-2.98203 46.9365-1.94172 45.531-1.85255C44.1298-1.76763 43.926-1.99268 43.926-1.99268C43.3018-2.09458 43.3528-2.45975 43.5693-2.52769C43.7859-2.59563 44.1425-2.62535 44.1425-2.62535L44.0449-2.71028C42.8942-2.86314 42.0832-3.08394 41.994-3.14338C41.9048-3.20708 41.8072-3.64443 41.8072-3.64443C41.2552-3.7336 41.2806-3.8992 41.4505-4.04782C41.6203-4.19643 42.9621-4.08603 43.1022-4.08603C43.2381-4.08603 43.1744-4.5064 42.9494-4.59557C42.7201-4.68049 42.3167-4.74843 42.3889-4.93526C42.4611-5.11785 42.8857-5.24523 43.3018-5.11785C43.7179-4.99046 44.4907-4.91403 44.4907-4.91403C44.4907-4.91403 44.1086-5.46603 44.3336-5.6104C44.5587-5.75902 44.6308-5.57643 45.1998-5.37262C45.7688-5.1688 46.8346-5.10511 47.2465-5.17729C47.6541-5.24948 47.7475-6.7144 48.0023-9.79286C48.2571-12.8756 48.6052-15.453 48.376-15.9243C48.1467-16.3956 47.79-17.3001 48.4779-19.8987C47.3824-22.2214 46.4949-23.8306 46.2147-23.9835C45.9344-24.1406 40.7966-24.3657 36.5931-29.1086C32.3894-33.8516 30.6824-39.3418 30.003-44.0678C29.3236-48.7853 30.7673-53.3753 30.9669-54.1566C31.1665-54.9337 30.9414-55.6216 30.1177-55.8891C29.2854-56.1566 28.3937-56.3222 27.018-55.6683C25.638-55.0144 23.4597-53.4178 19.8335-51.4603C16.2073-49.4986 14.3135-49.1674 13.6766-49.1037C13.0396-49.0358 13.3793-49.9317 14.3305-50.5686C15.2816-51.2098 26.4575-58.1395 28.0838-59.7701C28.6782-60.8316 28.8396-63.9228 30.5338-65.2688C32.228-66.6149 34.7927-65.9397 36.3935-64.5597C37.9856-63.1797 38.5801-60.7085 39.2043-58.2372C39.8327-55.7659 39.9006-54.904 40.8603-54.059C41.8114-53.2097 45.0088-53.2437 48.7156-52.11C52.431-50.9763 55.726-48.1738 59.7344-44.8066C63.7428-41.4352 66.6981-39.6985 71.1184-37.7113C75.5386-35.7241 76.0651-35.4269 76.8464-35.4609C77.6235-35.4991 80.5448-34.9343 81.0076-34.8027C81.4747-34.6668 81.0798-33.6562 81.0798-33.6562C81.5469-33.1212 81.3006-32.1361 79.6659-31.8431C78.0311-31.5459 75.5131-32.0512 74.1926-31.5714C72.1859-30.8778 70.095-30.4582 67.9762-30.323C61.6792-26.9049 59.9085-25.7244 56.4054-24.837C52.8981-23.9453 52.1805-24.0217 52.1805-24.0217L52.1805-24.0175Z"/>
   <path class="monochrome-1 multicolor-1:tintColor hierarchical-1:tertiary SFSymbolsPreviewWireframe" d="M44.3636-80.5865C50.0861-80.5876 55.7528-79.4613 61.04-77.272C66.3271-75.0826 71.1312-71.8729 75.1774-67.8265C79.2239-63.7803 82.4335-58.9764 84.6232-53.6889C86.8124-48.4015 87.9387-42.7349 87.9376-37.0127C87.9376-12.9352 68.432 6.58658 44.3638 6.58658C20.2909 6.58658 0.7645-12.9399 0.7645-37.0127C0.7645-61.0781 20.2877-80.5865 44.3636-80.5865ZM44.3638-78.3365C21.53-78.3365 3.0145-59.8351 3.0145-37.0127C3.0145-14.1825 21.5336 4.33658 44.3638 4.33658C67.1889 4.33658 85.6876-14.1774 85.6876-37.0129C85.6886-42.4398 84.6205-47.8138 82.5443-52.828C80.4678-57.8425 77.4239-62.3983 73.5865-66.2355C69.7491-70.073 65.1932-73.1168 60.1791-75.1931C55.1651-77.2695 49.791-78.3376 44.3638-78.3365Z"/>
  </g>
 </g>
</svg>
