<?xml version="1.0" encoding="UTF-8"?>
<!--Generator: Apple Native CoreSVG 341-->
<!DOCTYPE svg
PUBLIC "-//W3C//DTD SVG 1.1//EN"
       "http://www.w3.org/Graphics/SVG/1.1/DTD/svg11.dtd">
<svg version="1.1" xmlns="http://www.w3.org/2000/svg" xmlns:xlink="http://www.w3.org/1999/xlink" viewBox="0 0 3300 2200">
 <!--glyph: "", point size: 100.0, font version: "20.0d10e1", template writer version: "138.0.0"-->
 <style>.monochrome-0 {-sfsymbols-motion-group:1;-sfsymbols-layer-tags:32740663f3cbf1f5}
.monochrome-1 {-sfsymbols-motion-group:0;-sfsymbols-layer-tags:32740663f3cbf1f5}

.multicolor-0:tintColor {-sfsymbols-motion-group:1;-sfsymbols-layer-tags:32740663f3cbf1f5}
.multicolor-1:tintColor {-sfsymbols-motion-group:0;-sfsymbols-layer-tags:32740663f3cbf1f5}

.hierarchical-0:primary {-sfsymbols-motion-group:1;-sfsymbols-layer-tags:32740663f3cbf1f5}
.hierarchical-1:tertiary {-sfsymbols-motion-group:0;-sfsymbols-layer-tags:32740663f3cbf1f5}

.SFSymbolsPreviewWireframe {fill:none;opacity:1.0;stroke:black;stroke-width:0.5}
</style>
 <g id="Notes">
  <rect height="2200" id="artboard" style="fill:white;opacity:1" width="3300" x="0" y="0"/>
  <line style="fill:none;stroke:black;opacity:1;stroke-width:0.5;" x1="263" x2="3036" y1="292" y2="292"/>
  <text style="stroke:none;fill:black;font-family:sans-serif;font-size:13;font-weight:bold;" transform="matrix(1 0 0 1 263 322)">Weight/Scale Variations</text>
  <text style="stroke:none;fill:black;font-family:sans-serif;font-size:13;text-anchor:middle;" transform="matrix(1 0 0 1 559.711 322)">Ultralight</text>
  <text style="stroke:none;fill:black;font-family:sans-serif;font-size:13;text-anchor:middle;" transform="matrix(1 0 0 1 856.422 322)">Thin</text>
  <text style="stroke:none;fill:black;font-family:sans-serif;font-size:13;text-anchor:middle;" transform="matrix(1 0 0 1 1153.13 322)">Light</text>
  <text style="stroke:none;fill:black;font-family:sans-serif;font-size:13;text-anchor:middle;" transform="matrix(1 0 0 1 1449.84 322)">Regular</text>
  <text style="stroke:none;fill:black;font-family:sans-serif;font-size:13;text-anchor:middle;" transform="matrix(1 0 0 1 1746.56 322)">Medium</text>
  <text style="stroke:none;fill:black;font-family:sans-serif;font-size:13;text-anchor:middle;" transform="matrix(1 0 0 1 2043.27 322)">Semibold</text>
  <text style="stroke:none;fill:black;font-family:sans-serif;font-size:13;text-anchor:middle;" transform="matrix(1 0 0 1 2339.98 322)">Bold</text>
  <text style="stroke:none;fill:black;font-family:sans-serif;font-size:13;text-anchor:middle;" transform="matrix(1 0 0 1 2636.69 322)">Heavy</text>
  <text style="stroke:none;fill:black;font-family:sans-serif;font-size:13;text-anchor:middle;" transform="matrix(1 0 0 1 2933.4 322)">Black</text>
  <line style="fill:none;stroke:black;opacity:1;stroke-width:0.5;" x1="263" x2="3036" y1="1903" y2="1903"/>
  <g transform="matrix(0.2 0 0 0.2 263 1933)">
   <path d="m46.2402 4.15039c21.7773 0 39.4531-17.627 39.4531-39.4043s-17.6758-39.4043-39.4531-39.4043c-21.7285 0-39.4043 17.627-39.4043 39.4043s17.6758 39.4043 39.4043 39.4043Zm0-7.42188c-17.6758 0-31.9336-14.3066-31.9336-31.9824s14.2578-31.9824 31.9336-31.9824 31.9824 14.3066 31.9824 31.9824-14.3066 31.9824-31.9824 31.9824Zm-17.9688-31.9824c0 2.14844 1.51367 3.61328 3.75977 3.61328h10.498v10.5957c0 2.19727 1.46484 3.71094 3.61328 3.71094 2.24609 0 3.71094-1.51367 3.71094-3.71094v-10.5957h10.5957c2.19727 0 3.71094-1.46484 3.71094-3.61328 0-2.19727-1.51367-3.71094-3.71094-3.71094h-10.5957v-10.5469c0-2.24609-1.46484-3.75977-3.71094-3.75977-2.14844 0-3.61328 1.51367-3.61328 3.75977v10.5469h-10.498c-2.24609 0-3.75977 1.51367-3.75977 3.71094Z"/>
  </g>
  <g transform="matrix(0.2 0 0 0.2 281.506 1933)">
   <path d="m58.5449 14.5508c27.4902 0 49.8047-22.3145 49.8047-49.8047s-22.3145-49.8047-49.8047-49.8047-49.8047 22.3145-49.8047 49.8047 22.3145 49.8047 49.8047 49.8047Zm0-8.30078c-22.9492 0-41.5039-18.5547-41.5039-41.5039s18.5547-41.5039 41.5039-41.5039 41.5039 18.5547 41.5039 41.5039-18.5547 41.5039-41.5039 41.5039Zm-22.6562-41.5039c0 2.39258 1.66016 4.00391 4.15039 4.00391h14.3555v14.4043c0 2.44141 1.66016 4.15039 4.05273 4.15039 2.44141 0 4.15039-1.66016 4.15039-4.15039v-14.4043h14.4043c2.44141 0 4.15039-1.61133 4.15039-4.00391 0-2.44141-1.70898-4.15039-4.15039-4.15039h-14.4043v-14.3555c0-2.49023-1.70898-4.19922-4.15039-4.19922-2.39258 0-4.05273 1.70898-4.05273 4.19922v14.3555h-14.3555c-2.49023 0-4.15039 1.70898-4.15039 4.15039Z"/>
  </g>
  <g transform="matrix(0.2 0 0 0.2 304.924 1933)">
   <path d="m74.8535 28.3203c35.1074 0 63.623-28.4668 63.623-63.5742s-28.5156-63.623-63.623-63.623-63.5742 28.5156-63.5742 63.623 28.4668 63.5742 63.5742 63.5742Zm0-9.08203c-30.127 0-54.4922-24.3652-54.4922-54.4922s24.3652-54.4922 54.4922-54.4922 54.4922 24.3652 54.4922 54.4922-24.3652 54.4922-54.4922 54.4922Zm-28.8574-54.4922c0 2.58789 1.85547 4.39453 4.58984 4.39453h19.7266v19.7754c0 2.68555 1.85547 4.58984 4.44336 4.58984 2.68555 0 4.54102-1.85547 4.54102-4.58984v-19.7754h19.7754c2.68555 0 4.58984-1.80664 4.58984-4.39453 0-2.73438-1.85547-4.58984-4.58984-4.58984h-19.7754v-19.7266c0-2.73438-1.85547-4.63867-4.54102-4.63867-2.58789 0-4.44336 1.9043-4.44336 4.63867v19.7266h-19.7266c-2.73438 0-4.58984 1.85547-4.58984 4.58984Z"/>
  </g>
  <text style="stroke:none;fill:black;font-family:sans-serif;font-size:13;font-weight:bold;" transform="matrix(1 0 0 1 263 1953)">Design Variations</text>
  <text style="stroke:none;fill:black;font-family:sans-serif;font-size:13;" transform="matrix(1 0 0 1 263 1971)">Symbols are supported in up to nine weights and three scales.</text>
  <text style="stroke:none;fill:black;font-family:sans-serif;font-size:13;" transform="matrix(1 0 0 1 263 1989)">For optimal layout with text and other symbols, vertically align</text>
  <text style="stroke:none;fill:black;font-family:sans-serif;font-size:13;" transform="matrix(1 0 0 1 263 2007)">symbols with the adjacent text.</text>
  <line style="fill:none;stroke:#00AEEF;stroke-width:0.5;opacity:1.0;" x1="776" x2="776" y1="1919" y2="1933"/>
  <g transform="matrix(0.2 0 0 0.2 776 1933)">
   <path d="m16.5527 0.78125c2.58789 0 3.85742-0.976562 4.78516-3.71094l6.29883-17.2363h28.8086l6.29883 17.2363c0.927734 2.73438 2.19727 3.71094 4.73633 3.71094 2.58789 0 4.24805-1.5625 4.24805-4.00391 0-0.830078-0.146484-1.61133-0.537109-2.63672l-22.9004-60.9863c-1.12305-2.97852-3.125-4.49219-6.25-4.49219-3.02734 0-5.07812 1.46484-6.15234 4.44336l-22.9004 61.084c-0.390625 1.02539-0.537109 1.80664-0.537109 2.63672 0 2.44141 1.5625 3.95508 4.10156 3.95508Zm13.4766-28.3691 11.8652-32.8613h0.244141l11.8652 32.8613Z"/>
  </g>
  <line style="fill:none;stroke:#00AEEF;stroke-width:0.5;opacity:1.0;" x1="792.836" x2="792.836" y1="1919" y2="1933"/>
  <text style="stroke:none;fill:black;font-family:sans-serif;font-size:13;font-weight:bold;" transform="matrix(1 0 0 1 776 1953)">Margins</text>
  <text style="stroke:none;fill:black;font-family:sans-serif;font-size:13;" transform="matrix(1 0 0 1 776 1971)">Leading and trailing margins on the left and right side of each symbol</text>
  <text style="stroke:none;fill:black;font-family:sans-serif;font-size:13;" transform="matrix(1 0 0 1 776 1989)">can be adjusted by modifying the x-location of the margin guidelines.</text>
  <text style="stroke:none;fill:black;font-family:sans-serif;font-size:13;" transform="matrix(1 0 0 1 776 2007)">Modifications are automatically applied proportionally to all</text>
  <text style="stroke:none;fill:black;font-family:sans-serif;font-size:13;" transform="matrix(1 0 0 1 776 2025)">scales and weights.</text>
  <g transform="matrix(0.2 0 0 0.2 1289 1933)">
   <path d="m14.209 9.32617 8.49609 8.54492c4.29688 4.3457 9.22852 4.05273 13.8672-1.07422l53.4668-58.9355-4.83398-4.88281-53.0762 58.3984c-1.75781 2.00195-3.41797 2.49023-5.76172 0.146484l-5.85938-5.81055c-2.34375-2.29492-1.80664-4.00391 0.195312-5.81055l57.373-54.0039-4.88281-4.83398-57.959 54.4434c-4.93164 4.58984-5.32227 9.47266-1.02539 13.8184Zm32.0801-90.9668c-2.09961 2.05078-2.24609 4.93164-1.07422 6.88477 1.17188 1.80664 3.4668 2.97852 6.68945 2.14844 7.32422-1.70898 14.9414-2.00195 22.0703 2.68555l-2.92969 7.27539c-1.70898 4.15039-0.830078 7.08008 1.85547 9.81445l11.4746 11.5723c2.44141 2.44141 4.49219 2.53906 7.32422 2.05078l5.32227-0.976562 3.32031 3.36914-0.195312 2.7832c-0.195312 2.49023 0.439453 4.39453 2.88086 6.78711l3.80859 3.71094c2.39258 2.39258 5.46875 2.53906 7.8125 0.195312l14.5508-14.5996c2.34375-2.34375 2.24609-5.32227-0.146484-7.71484l-3.85742-3.80859c-2.39258-2.39258-4.24805-3.17383-6.64062-2.97852l-2.88086 0.244141-3.22266-3.17383 1.2207-5.61523c0.634766-2.83203-0.146484-5.0293-3.07617-7.95898l-10.9863-10.9375c-16.6992-16.6016-38.8672-16.2109-53.3203-1.75781Zm7.4707 1.85547c12.1582-8.88672 28.6133-7.37305 39.7461 3.75977l12.1582 12.0605c1.17188 1.17188 1.36719 2.09961 1.02539 3.80859l-1.61133 7.42188 7.51953 7.42188 4.93164-0.292969c1.26953-0.0488281 1.66016 0.0488281 2.63672 1.02539l2.88086 2.88086-12.207 12.207-2.88086-2.88086c-0.976562-0.976562-1.12305-1.36719-1.07422-2.68555l0.341797-4.88281-7.4707-7.42188-7.61719 1.26953c-1.61133 0.341797-2.34375 0.195312-3.56445-0.976562l-10.0098-10.0098c-1.26953-1.17188-1.41602-2.00195-0.634766-3.85742l4.39453-10.4492c-7.8125-7.27539-17.9688-10.4004-28.125-7.42188-0.78125 0.195312-1.07422-0.439453-0.439453-0.976562Z"/>
  </g>
  <text style="stroke:none;fill:black;font-family:sans-serif;font-size:13;font-weight:bold;" transform="matrix(1 0 0 1 1289 1953)">Exporting</text>
  <text style="stroke:none;fill:black;font-family:sans-serif;font-size:13;" transform="matrix(1 0 0 1 1289 1971)">Symbols should be outlined when exporting to ensure the</text>
  <text style="stroke:none;fill:black;font-family:sans-serif;font-size:13;" transform="matrix(1 0 0 1 1289 1989)">design is preserved when submitting to Xcode.</text>
  <text id="template-version" style="stroke:none;fill:black;font-family:sans-serif;font-size:13;text-anchor:end;" transform="matrix(1 0 0 1 3036 1933)">Template v.6.0</text>
  <text style="stroke:none;fill:black;font-family:sans-serif;font-size:13;text-anchor:end;" transform="matrix(1 0 0 1 3036 1951)">Requires Xcode 16 or greater</text>
  <text id="descriptive-name" style="stroke:none;fill:black;font-family:sans-serif;font-size:13;text-anchor:end;" transform="matrix(1 0 0 1 3036 1969)">Generated from filtervogelgruppe-30</text>
  <text style="stroke:none;fill:black;font-family:sans-serif;font-size:13;text-anchor:end;" transform="matrix(1 0 0 1 3036 1987)">Typeset at 100.0 points</text>
  <text style="stroke:none;fill:black;font-family:sans-serif;font-size:13;" transform="matrix(1 0 0 1 263 726)">Small</text>
  <text style="stroke:none;fill:black;font-family:sans-serif;font-size:13;" transform="matrix(1 0 0 1 263 1156)">Medium</text>
  <text style="stroke:none;fill:black;font-family:sans-serif;font-size:13;" transform="matrix(1 0 0 1 263 1586)">Large</text>
 </g>
 <g id="Guides">
  <g id="H-reference" style="fill:#27AAE1;stroke:none;" transform="matrix(1 0 0 1 339 696)">
   <path d="M0.993654 0L3.63775 0L29.3281-67.1323L30.0303-67.1323L30.0303-70.459L28.1226-70.459ZM11.6885-24.4799L46.9815-24.4799L46.2315-26.7285L12.4385-26.7285ZM55.1196 0L57.7637 0L30.6382-70.459L29.4326-70.459L29.4326-67.1323Z"/>
  </g>
  <line id="Baseline-S" style="fill:none;stroke:#27AAE1;opacity:1;stroke-width:0.5;" x1="263" x2="3036" y1="696" y2="696"/>
  <line id="Capline-S" style="fill:none;stroke:#27AAE1;opacity:1;stroke-width:0.5;" x1="263" x2="3036" y1="625.541" y2="625.541"/>
  <g id="H-reference" style="fill:#27AAE1;stroke:none;" transform="matrix(1 0 0 1 339 1126)">
   <path d="M0.993654 0L3.63775 0L29.3281-67.1323L30.0303-67.1323L30.0303-70.459L28.1226-70.459ZM11.6885-24.4799L46.9815-24.4799L46.2315-26.7285L12.4385-26.7285ZM55.1196 0L57.7637 0L30.6382-70.459L29.4326-70.459L29.4326-67.1323Z"/>
  </g>
  <line id="Baseline-M" style="fill:none;stroke:#27AAE1;opacity:1;stroke-width:0.5;" x1="263" x2="3036" y1="1126" y2="1126"/>
  <line id="Capline-M" style="fill:none;stroke:#27AAE1;opacity:1;stroke-width:0.5;" x1="263" x2="3036" y1="1055.54" y2="1055.54"/>
  <g id="H-reference" style="fill:#27AAE1;stroke:none;" transform="matrix(1 0 0 1 339 1556)">
   <path d="M0.993654 0L3.63775 0L29.3281-67.1323L30.0303-67.1323L30.0303-70.459L28.1226-70.459ZM11.6885-24.4799L46.9815-24.4799L46.2315-26.7285L12.4385-26.7285ZM55.1196 0L57.7637 0L30.6382-70.459L29.4326-70.459L29.4326-67.1323Z"/>
  </g>
  <line id="Baseline-L" style="fill:none;stroke:#27AAE1;opacity:1;stroke-width:0.5;" x1="263" x2="3036" y1="1556" y2="1556"/>
  <line id="Capline-L" style="fill:none;stroke:#27AAE1;opacity:1;stroke-width:0.5;" x1="263" x2="3036" y1="1485.54" y2="1485.54"/>
  <line id="right-margin-Black-S" style="fill:none;stroke:#00AEEF;stroke-width:0.5;opacity:1.0;" x1="2982.23" x2="2982.23" y1="600.785" y2="720.121"/>
  <line id="left-margin-Black-S" style="fill:none;stroke:#00AEEF;stroke-width:0.5;opacity:1.0;" x1="2884.57" x2="2884.57" y1="600.785" y2="720.121"/>
  <line id="right-margin-Regular-S" style="fill:none;stroke:#00AEEF;stroke-width:0.5;opacity:1.0;" x1="1496.11" x2="1496.11" y1="600.785" y2="720.121"/>
  <line id="left-margin-Regular-S" style="fill:none;stroke:#00AEEF;stroke-width:0.5;opacity:1.0;" x1="1403.58" x2="1403.58" y1="600.785" y2="720.121"/>
  <line id="right-margin-Ultralight-S" style="fill:none;stroke:#00AEEF;stroke-width:0.5;opacity:1.0;" x1="603.773" x2="603.773" y1="600.785" y2="720.121"/>
  <line id="left-margin-Ultralight-S" style="fill:none;stroke:#00AEEF;stroke-width:0.5;opacity:1.0;" x1="515.649" x2="515.649" y1="600.785" y2="720.121"/>
 </g>
 <g id="Symbols">
  <g id="Black-S" transform="matrix(1 0 0 1 2884.57 696)">
   <path class="monochrome-0 multicolor-0:tintColor hierarchical-0:primary SFSymbolsPreviewWireframe" d="M68.7757-13.577L67.8445-13.577C67.3092-13.577 66.774-13.5147 66.2461-13.5917C65.9638-13.6283 65.6962-13.8959 65.4213-14.0792C65.128-14.2735 64.853-14.5302 64.5267-14.5338C64.3654-14.5375 64.2078-14.7318 64.0465-14.8271C63.8302-14.9554 63.6102-15.0581 63.3976-15.1937C63.1667-15.3367 62.943-15.509 62.7157-15.652C62.4884-15.7913 62.2575-15.8976 62.0302-16.0406C61.8762-16.1322 61.7332-16.2678 61.5829-16.3705C61.4363-16.4768 61.2897-16.5648 61.1394-16.6528C60.9011-16.7958 60.6628-16.9204 60.4318-17.0744C59.8303-17.4825 59.2422-17.9105 58.6685-18.3575C58.3642-18.5921 58.0672-18.8451 57.7666-19.076C57.5173-19.2666 57.268-19.4316 57.0224-19.6186C56.9124-19.6992 56.7988-19.7689 56.7108-19.9009C56.4725-20.2601 56.1792-20.2601 55.9043-20.3921C55.7796-20.4508 55.666-20.5827 55.5487-20.6854C55.3361-20.8614 55.1234-21.052 54.9071-21.2133C54.8118-21.2829 54.7018-21.2866 54.5992-21.3159C54.3609-21.3856 54.1959-21.6715 54.0456-21.9648C53.9757-22.1176 53.8605-22.2456 53.7157-22.3314C53.4591-22.4854 53.1988-22.621 52.9532-22.885C52.6422-23.21 52.3532-23.5553 52.088-23.9188C52.0073-24.0361 51.857-24.0508 51.7434-24.0325C51.5008-24.0077 51.2634-23.946 51.0395-23.8492C50.7645-23.7172 50.5006-23.5009 50.2256-23.3652C50.1047-23.3029 49.969-23.3432 49.837-23.3506C49.6391-23.3616 49.4448-23.3946 49.2468-23.3909C49.1228-23.383 49.0012-23.3533 48.8875-23.3029C48.5209-23.1563 48.1617-22.984 47.7951-22.8557C47.5568-22.775 47.3112-22.7823 47.0729-22.709C46.7686-22.61 46.4643-22.4634 46.16-22.3534C46.0904-22.3278 46.0134-22.3754 45.9401-22.3754L45.2069-22.3534C44.8953-22.3424 44.5837-22.3131 44.272-22.3094C43.6452-22.3021 43.0146-22.3131 42.384-22.3021C41.9588-22.2948 41.5335-22.2984 41.1119-22.2178C40.881-22.1738 40.65-21.9978 40.4337-21.8255C40.2504-21.6825 40.0928-21.4479 39.9133-21.2866C39.8033-21.1876 39.6713-21.14 39.5503-21.0777C39.4734-21.0337 39.3964-20.9823 39.3157-20.9677C39.2277-20.9457 39.1361-20.9567 39.0481-20.9567C38.9271-20.953 38.8098-20.9677 38.6925-20.9383C38.2159-20.8174 37.7503-20.9127 37.2774-20.9787C37.1051-21.0043 36.9291-20.942 36.7532-20.9383C36.5552-20.9383 36.3536-20.975 36.1556-20.975C35.8477-20.975 35.5434-20.9383 35.2391-20.953C34.5683-21.0245 33.9055-21.1583 33.2595-21.3526C32.9882-21.4406 32.7242-21.5946 32.4529-21.7082C32.3246-21.7632 32.189-21.7742 32.0607-21.8365C31.9434-21.8952 31.8297-21.9868 31.7161-22.0748C31.6721-22.1078 31.6391-22.1811 31.5914-22.2031C31.4081-22.3058 31.2175-22.3827 31.0305-22.4927C30.6639-22.7127 30.2973-22.9473 29.9271-23.1673C29.5788-23.3799 29.2305-23.5815 28.8786-23.7868C28.5706-23.9701 28.2554-24.1278 27.9548-24.3367C27.8448-24.4101 27.7531-24.6044 27.6468-24.7327C27.4562-24.9673 27.2509-25.1689 27.0712-25.4255C26.8254-25.7726 26.5978-26.1325 26.3894-26.5033C26.2831-26.6903 26.2317-26.9726 26.1327-27.1779C25.9641-27.5225 25.7661-27.8268 25.6012-28.1714C25.4399-28.5013 25.2969-28.8679 25.1503-29.2199C24.9523-29.6891 24.7617-30.1694 24.5637-30.6276C24.4354-30.9209 24.2704-31.1592 24.1604-31.4635C24.0377-31.7867 23.9504-32.1221 23.9001-32.4643C23.8415-32.8932 23.8378-33.3478 23.8268-33.7914C23.8268-34.037 23.8818-34.2863 23.8708-34.5246C23.8561-34.864 23.8193-35.2019 23.7608-35.5364C23.6875-35.936 23.5445-36.3026 23.5042-36.7095C23.4676-37.0688 23.5152-37.4647 23.5409-37.846C23.5665-38.3372 23.5812-38.8211 23.5519-39.3234C23.5163-39.8485 23.5212-40.3755 23.5665-40.8998C23.6252-41.4863 23.7425-42.0582 23.8488-42.6228C23.9405-43.1104 24.0541-43.5796 24.1568-44.0562C24.1641-44.0929 24.1678-44.1442 24.1824-44.1662C24.483-44.5621 24.549-45.2183 24.714-45.7572C24.824-46.1128 24.9193-46.4904 25.0073-46.8643C25.0549-47.0623 25.0696-47.2786 25.1063-47.4839C25.1199-47.5829 25.1483-47.6793 25.1906-47.7698C25.2955-47.9862 25.3398-48.2269 25.3189-48.4664C25.3152-48.844 25.3592-49.2252 25.3776-49.6065C25.3995-50.0794 25.2346-50.4387 24.9743-50.5707C24.6327-50.738 24.2544-50.8162 23.8745-50.798C23.6912-50.798 23.6472-50.9519 23.7278-51.2415C23.7997-51.5609 23.9703-51.8495 24.2154-52.0664C24.4061-52.224 24.582-52.4697 24.7763-52.5613C25.0329-52.675 25.1099-53.0159 25.2236-53.3605C25.4215-53.9691 25.7112-54.4016 26.0448-54.7866C26.5397-55.3511 27.0786-55.6664 27.6285-55.9597C27.9951-56.1577 28.3507-56.407 28.7246-56.5609C29.2928-56.7956 29.8684-56.9935 30.4476-57.1658C30.9132-57.3051 31.3861-57.4151 31.8627-57.4701C32.5188-57.5803 33.1928-57.5015 33.8057-57.2428C34.3776-56.9752 34.9348-56.6342 35.4994-56.319C35.701-56.209 35.9173-56.1283 36.0933-55.9377C36.2803-55.7324 36.5076-55.7141 36.6799-55.4098C36.8118-55.1788 37.0245-55.1019 37.1931-54.9296C37.3397-54.7792 37.4717-54.5886 37.6074-54.4163C37.7833-54.189 37.9483-53.9287 38.1389-53.7381C38.4762-53.4008 38.8098-53.0269 39.1727-52.8106C39.7116-52.488 40.2724-52.3047 40.8223-52.0371C41.1229-51.8904 41.4126-51.6851 41.7095-51.5092C42.1934-51.2159 42.6773-50.9373 43.1612-50.6367C43.6085-50.3544 44.0521-50.0501 44.4993-49.7495C44.767-49.5662 45.0492-49.4195 45.3022-49.1813C45.6578-48.8476 45.9987-48.4554 46.336-48.0558C46.611-47.7295 46.8456-47.2566 47.1389-47.0293C47.7511-46.5527 48.2203-45.7022 48.7739-45.0863C49.3165-44.4851 49.8444-43.8399 50.3906-43.2497C50.9845-42.6118 51.5821-42.0032 52.187-41.413C52.5902-41.0171 53.0155-40.6835 53.4261-40.3132C53.6094-40.1446 53.7817-39.9319 53.965-39.767C54.2069-39.5507 54.4599-39.3747 54.7018-39.1584C54.8668-39.0203 55.0147-38.8627 55.1418-38.6892C55.4094-38.3042 55.7357-38.2346 56.0473-38.0806C56.2122-38 56.3735-37.8863 56.5385-37.813C56.7585-37.7213 56.9858-37.6297 57.2094-37.5784C57.5943-37.4867 57.9829-37.4427 58.3679-37.3511C58.7051-37.2667 59.0351-37.1054 59.376-37.0431C59.6986-36.9808 60.0249-37.0065 60.3512-36.9845C60.9304-36.9478 61.5133-36.8745 62.0925-36.8818C62.6864-36.8892 63.2656-36.7902 63.8485-36.5995C64.1785-36.4896 64.5157-36.4052 64.8237-36.1743C65.04-36.0166 65.205-35.6317 65.3919-35.3531C65.7915-34.7665 65.6339-33.2561 65.161-32.9555C64.8823-32.7759 64.6184-32.5523 64.3031-32.5889C64.1711-32.6036 64.0282-32.4386 63.8999-32.3213C63.8705-32.2956 63.8632-32.1123 63.8815-32.0244C64.0062-31.4341 64.1675-30.8659 64.2591-30.261C64.3324-29.7881 64.3178-29.2748 64.3361-28.7799C64.3434-28.659 64.3471-28.527 64.3251-28.4207C64.2591-28.0907 64.1785-27.7681 64.1052-27.4455C64.0758-27.3135 64.0172-27.1742 64.0245-27.0532C64.0355-26.9286 64.0978-26.7783 64.1638-26.716C64.6477-26.2247 65.117-25.6822 65.6302-25.3009C66.0701-24.9673 66.5467-24.773 67.0233-24.6007C67.6942-24.3551 68.3761-24.1864 69.0506-23.9701C69.2302-23.9115 69.4025-23.7868 69.5785-23.7025C69.9194-23.5449 70.2641-23.4202 70.6013-23.2406C70.9349-23.0573 71.2612-22.8117 71.5911-22.6284C72.0237-22.3901 72.4123-21.9062 72.8779-21.8658C72.9072-21.8658 72.9329-21.8328 72.9622-21.8182C73.1712-21.6972 73.3802-21.5836 73.5855-21.4589C73.8677-21.2939 74.1464-21.118 74.4286-20.9457C74.458-20.9273 74.4873-20.8943 74.5166-20.8724C74.7879-20.6634 74.8649-20.3591 74.7806-19.8532C74.7244-19.4814 74.608-19.1209 74.436-18.7864C74.3315-18.5353 74.2741-18.2667 74.2673-17.9945C74.249-17.6646 74.2857-17.3273 74.315-16.9974C74.337-16.7408 74.216-16.4401 74.0327-16.3962C73.8641-16.3558 73.6918-16.3448 73.5195-16.3155L72.5296-16.1395C72.273-16.1029 72.0971-15.8463 71.9248-15.5163C71.7891-15.2634 71.6205-15.0067 71.4408-14.9114C71.0816-14.7135 70.7076-14.6071 70.3337-14.5008C70.1394-14.4458 69.9378-14.5008 69.7435-14.4642C69.5345-14.4275 69.4979-14.2332 69.6152-13.9326C69.6372-13.8849 69.6152-13.7016 69.5858-13.6833C69.4893-13.6072 69.3763-13.5544 69.2559-13.5293C69.0983-13.5073 68.937-13.5257 68.7757-13.5257L68.7757-13.577Z"/>
   <path class="monochrome-1 multicolor-1:tintColor hierarchical-1:tertiary SFSymbolsPreviewWireframe" d="M48.9411-84C55.3091-84.0013 61.615-82.7479 67.4985-80.3116C73.382-77.8752 78.7279-74.3036 83.2305-69.8009C87.7334-65.2983 91.305-59.9524 93.7418-54.0682C96.1779-48.1846 97.4312-41.8789 97.43-35.5124C97.43-8.72255 75.7254 13 48.9424 13C22.156 13 0.43-8.726 0.43-35.5124C0.43-62.2926 22.1539-84 48.9411-84ZM48.9424-70C29.8835-70 14.43-54.5582 14.43-35.5124C14.43-16.458 29.888-0.999999 48.9424-0.999999C67.9909-0.999999 83.43-16.4519 83.43-35.5138C83.4309-40.0428 82.5395-44.5276 80.8069-48.7121C79.0739-52.8969 76.5337-56.6989 73.3311-59.9013C70.1287-63.1038 66.3266-65.644 62.1422-67.3767C57.9578-69.1095 53.4729-70.0009 48.9424-70Z"/>
  </g>
  <g id="Regular-S" transform="matrix(1 0 0 1 1403.58 696)">
   <path class="monochrome-0 multicolor-0:tintColor hierarchical-0:primary SFSymbolsPreviewWireframe" d="M68.8711-10.1047L67.7926-10.1047C67.1727-10.1047 66.5527-10.0325 65.9413-10.1217C65.6143-10.1642 65.3044-10.4741 64.9859-10.6864C64.6462-10.9115 64.3277-11.2087 63.9498-11.213C63.763-11.2172 63.5804-11.4423 63.3936-11.5527C63.1431-11.7013 62.8883-11.8202 62.642-11.9773C62.3745-12.1429 62.1155-12.3424 61.8522-12.508C61.589-12.6694 61.3215-12.7925 61.0582-12.9581C60.8799-13.0643 60.7143-13.2214 60.5402-13.3403C60.3703-13.4634 60.2005-13.5653 60.0264-13.6672C59.7504-13.8328 59.4744-13.9772 59.2069-14.1556C58.5102-14.6283 57.829-15.124 57.1645-15.6417C56.8121-15.9135 56.4681-16.2064 56.1199-16.474C55.8312-16.6948 55.5425-16.8858 55.258-17.1024C55.1306-17.1958 54.9989-17.2765 54.897-17.4293C54.621-17.8455 54.2813-17.8455 53.9629-17.9983C53.8185-18.0663 53.6869-18.2191 53.551-18.338C53.3047-18.5418 53.0585-18.7626 52.8079-18.9495C52.6975-19.0301 52.5701-19.0344 52.4513-19.0684C52.1753-19.149 51.9842-19.4802 51.8101-19.8199C51.7291-19.9968 51.5957-20.1451 51.4279-20.2445C51.1307-20.4229 50.8292-20.58 50.5447-20.8857C50.1845-21.2622 49.8498-21.662 49.5426-22.0831C49.4492-22.219 49.2751-22.236 49.1435-22.2148C48.8625-22.1861 48.5876-22.1146 48.3282-22.0024C48.0098-21.8496 47.7041-21.5991 47.3856-21.442C47.2455-21.3698 47.0884-21.4165 46.9355-21.425C46.7062-21.4377 46.4812-21.4759 46.2519-21.4717C46.1082-21.4625 45.9674-21.4282 45.8357-21.3698C45.4111-21.1999 44.995-21.0004 44.5704-20.8517C44.2944-20.7583 44.0099-20.7668 43.7339-20.6819C43.3815-20.5672 43.029-20.3974 42.6766-20.27C42.5959-20.2403 42.5068-20.2955 42.4218-20.2955L41.5726-20.27C41.2117-20.2573 40.8508-20.2233 40.4898-20.2191C39.7637-20.2106 39.0334-20.2233 38.3031-20.2106C37.8105-20.2021 37.318-20.2063 36.8297-20.1129C36.5621-20.062 36.2946-19.8581 36.0441-19.6586C35.8318-19.493 35.6492-19.2212 35.4413-19.0344C35.3139-18.9197 35.1611-18.8645 35.0209-18.7924C34.9318-18.7414 34.8426-18.682 34.7492-18.665C34.6473-18.6395 34.5411-18.6522 34.4392-18.6522C34.2991-18.648 34.1632-18.665 34.0273-18.631C33.4753-18.4909 32.9361-18.6013 32.3883-18.6777C32.1887-18.7074 31.9849-18.6352 31.7811-18.631C31.5518-18.631 31.3183-18.6735 31.089-18.6735C30.7323-18.6735 30.3799-18.631 30.0275-18.648C29.2504-18.7308 28.4828-18.8858 27.7345-19.1108C27.4203-19.2127 27.1146-19.3911 26.8004-19.5227C26.6518-19.5864 26.4947-19.5991 26.346-19.6713C26.2102-19.7392 26.0785-19.8454 25.9469-19.9473C25.8959-19.9855 25.8577-20.0704 25.8025-20.0959C25.5902-20.2148 25.3694-20.304 25.1529-20.4314C24.7283-20.6861 24.3036-20.9579 23.8748-21.2127C23.4714-21.4589 23.068-21.6925 22.6604-21.9303C22.3037-22.1426 21.9385-22.3252 21.5903-22.5672C21.463-22.6521 21.3568-22.8772 21.2337-23.0258C21.0129-23.2975 20.7751-23.5311 20.567-23.8283C20.2823-24.2303 20.0187-24.6471 19.7772-25.0767C19.6541-25.2932 19.5947-25.6202 19.48-25.858C19.2847-26.2571 19.0554-26.6095 18.8643-27.0087C18.6775-27.3908 18.5119-27.8154 18.342-28.2231C18.1127-28.7666 17.8919-29.3228 17.6627-29.8536C17.514-30.1933 17.323-30.4693 17.1956-30.8217C17.0534-31.1961 16.9523-31.5846 16.8941-31.9809C16.8262-32.4777 16.8219-33.0042 16.8092-33.518C16.8092-33.8025 16.8729-34.0912 16.8601-34.3672C16.8431-34.7604 16.8005-35.1517 16.7327-35.5392C16.6478-36.002 16.4822-36.4266 16.4355-36.898C16.3931-37.3141 16.4483-37.7727 16.478-38.2143C16.5077-38.7832 16.5247-39.3437 16.4907-39.9255C16.4495-40.5337 16.4552-41.1441 16.5077-41.7513C16.5756-42.4307 16.7115-43.0931 16.8347-43.747C16.9408-44.3117 17.0724-44.8552 17.1913-45.4072C17.1998-45.4497 17.2041-45.5092 17.2211-45.5346C17.5692-45.9932 17.6457-46.7532 17.8367-47.3774C17.9641-47.7893 18.0745-48.2267 18.1764-48.6598C18.2316-48.8891 18.2486-49.1396 18.2911-49.3774C18.3069-49.492 18.3398-49.6037 18.3887-49.7086C18.5103-49.9591 18.5616-50.2379 18.5374-50.5153C18.5331-50.9527 18.5841-51.3943 18.6053-51.8359C18.6308-52.3836 18.4397-52.7998 18.1382-52.9526C17.7426-53.1464 17.3044-53.237 16.8644-53.2159C16.6521-53.2159 16.6011-53.3942 16.6945-53.7297C16.7778-54.0995 16.9753-54.4338 17.2593-54.6851C17.4801-54.8676 17.6839-55.1521 17.9089-55.2583C18.2062-55.3899 18.2953-55.7848 18.427-56.1839C18.6563-56.8888 18.9917-57.3899 19.3781-57.8357C19.9513-58.4896 20.5755-58.8548 21.2124-59.1945C21.6371-59.4238 22.0489-59.7125 22.482-59.8908C23.1402-60.1626 23.8068-60.3919 24.4777-60.5915C25.017-60.7528 25.5647-60.8802 26.1167-60.9439C26.8767-61.0715 27.6573-60.9802 28.3672-60.6806C29.0296-60.3707 29.675-59.9758 30.3289-59.6106C30.5625-59.4832 30.813-59.3898 31.0168-59.169C31.2334-58.9312 31.4966-58.91 31.6962-58.5575C31.8491-58.29 32.0953-58.2009 32.2907-58.0013C32.4605-57.8272 32.6134-57.6064 32.7705-57.4068C32.9743-57.1436 33.1654-56.8421 33.3862-56.6213C33.7768-56.2307 34.1632-55.7975 34.5836-55.547C35.2078-55.1734 35.8573-54.9611 36.4942-54.6511C36.8424-54.4812 37.1778-54.2435 37.5218-54.0396C38.0823-53.6999 38.6428-53.3772 39.2033-53.0291C39.7213-52.7021 40.2351-52.3497 40.7531-52.0015C41.0631-51.7892 41.39-51.6193 41.683-51.3433C42.0949-50.9569 42.4898-50.5026 42.8804-50.0398C43.1989-49.6619 43.4706-49.1141 43.8103-48.8508C44.5194-48.2988 45.0629-47.3137 45.7041-46.6004C46.3325-45.904 46.944-45.1567 47.5767-44.4731C48.2645-43.7343 48.9567-43.0294 49.6573-42.3458C50.1244-41.8872 50.6169-41.5008 51.0925-41.0719C51.3048-40.8766 51.5044-40.6303 51.7167-40.4392C51.9969-40.1887 52.2899-39.9849 52.5701-39.7344C52.7612-39.5744 52.9325-39.3919 53.0797-39.1909C53.3897-38.745 53.7676-38.6644 54.1285-38.486C54.3196-38.3926 54.5064-38.261 54.6975-38.176C54.9522-38.0699 55.2155-37.9637 55.4745-37.9043C55.9204-37.7981 56.3705-37.7472 56.8163-37.641C57.2069-37.5434 57.5891-37.3565 57.984-37.2844C58.3577-37.2122 58.7356-37.2419 59.1135-37.2164C59.7844-37.174 60.4595-37.089 61.1304-37.0975C61.8183-37.106 62.4892-36.9914 63.1643-36.7706C63.5465-36.6432 63.9371-36.5455 64.2938-36.278C64.5443-36.0954 64.7354-35.6496 64.9519-35.3269C65.4148-34.6475 65.2322-32.8981 64.6844-32.5499C64.3617-32.3418 64.056-32.0828 63.6908-32.1253C63.538-32.1423 63.3724-31.9512 63.2237-31.8153C63.1898-31.7856 63.1813-31.5733 63.2025-31.4714C63.3469-30.7877 63.5337-30.1296 63.6399-29.429C63.7248-28.8812 63.7078-28.2868 63.729-27.7135C63.7375-27.5734 63.7418-27.4205 63.7163-27.2974C63.6399-26.9152 63.5465-26.5416 63.4615-26.1679C63.4276-26.0151 63.3596-25.8537 63.3681-25.7136C63.3809-25.5692 63.453-25.3951 63.5295-25.3229C64.09-24.754 64.6335-24.1255 65.2279-23.6839C65.7375-23.2975 66.2895-23.0725 66.8415-22.8729C67.6185-22.5884 68.4083-22.3931 69.1896-22.1426C69.3977-22.0746 69.5972-21.9303 69.801-21.8326C70.1959-21.65 70.5951-21.5056 70.9857-21.2976C71.3721-21.0853 71.75-20.8008 72.1322-20.5885C72.6332-20.3125 73.0833-19.752 73.6226-19.7053C73.6565-19.7053 73.6863-19.6671 73.7202-19.6501C73.9623-19.51 74.2043-19.3783 74.4421-19.234C74.769-19.0429 75.0917-18.8391 75.4187-18.6395C75.4527-18.6183 75.4866-18.58 75.5206-18.5546C75.8348-18.3125 75.924-17.9601 75.8263-17.3741C75.7612-16.9435 75.6264-16.526 75.4272-16.1385C75.3062-15.8476 75.2397-15.5366 75.2319-15.2213C75.2106-14.8392 75.2531-14.4485 75.2871-14.0664C75.3125-13.7692 75.1724-13.421 74.9601-13.37C74.7648-13.3233 74.5652-13.3106 74.3657-13.2766L73.2192-13.0728C72.922-13.0303 72.7181-12.7331 72.5186-12.3509C72.3615-12.058 72.1661-11.7607 71.9581-11.6503C71.542-11.421 71.1089-11.2979 70.6757-11.1748C70.4507-11.1111 70.2172-11.1748 69.9921-11.1323C69.7501-11.0898 69.7076-10.8648 69.8435-10.5166C69.869-10.4614 69.8435-10.2491 69.8095-10.2279C69.6977-10.1398 69.5668-10.0785 69.4274-10.0495C69.2448-10.024 69.058-10.0453 68.8711-10.0453L68.8711-10.1047Z"/>
   <path class="monochrome-1 multicolor-1:tintColor hierarchical-1:tertiary SFSymbolsPreviewWireframe" d="M46.4321-81.8365C52.4502-81.8377 58.4096-80.6532 63.9698-78.3508C69.53-76.0483 74.5822-72.6729 78.8374-68.4176C83.0928-64.1624 86.4682-59.1103 88.771-53.5496C91.0733-47.9892 92.2577-42.03 92.2566-36.0127C92.2566-10.693 71.744 9.83658 46.4328 9.83658C21.1173 9.83658 0.5835-10.6972 0.5835-36.0127C0.5835-61.3211 21.1145-81.8365 46.4321-81.8365ZM46.4328-75.0865C24.8413-75.0865 7.3335-57.592 7.3335-36.0127C7.3335-14.4252 24.8452 3.08658 46.4328 3.08658C68.0148 3.08658 85.5066-14.4197 85.5066-36.0133C85.5076-41.1447 84.4976-46.226 82.5345-50.9672C80.571-55.7085 77.693-60.0162 74.0644-63.6446C70.4361-67.273 66.1283-70.1511 61.3873-72.1143C56.6463-74.0776 51.5649-75.0875 46.4328-75.0865Z"/>
  </g>
  <g id="Ultralight-S" transform="matrix(1 0 0 1 515.649 696)">
   <path class="monochrome-0 multicolor-0:tintColor hierarchical-0:primary SFSymbolsPreviewWireframe" d="M66.8021-11.1047L65.7236-11.1047C65.1037-11.1047 64.4837-11.0325 63.8723-11.1217C63.5453-11.1642 63.2354-11.4741 62.9169-11.6864C62.5772-11.9115 62.2587-12.2087 61.8808-12.213C61.694-12.2172 61.5114-12.4423 61.3246-12.5527C61.0741-12.7013 60.8193-12.8202 60.573-12.9773C60.3055-13.1429 60.0465-13.3424 59.7832-13.508C59.52-13.6694 59.2525-13.7925 58.9892-13.9581C58.8109-14.0643 58.6453-14.2214 58.4712-14.3403C58.3013-14.4634 58.1315-14.5653 57.9574-14.6672C57.6814-14.8328 57.4054-14.9772 57.1379-15.1556C56.4412-15.6283 55.76-16.124 55.0955-16.6417C54.7431-16.9135 54.3991-17.2064 54.0509-17.474C53.7622-17.6948 53.4735-17.8858 53.189-18.1024C53.0616-18.1958 52.9299-18.2765 52.828-18.4293C52.552-18.8455 52.2123-18.8455 51.8939-18.9983C51.7495-19.0663 51.6179-19.2191 51.482-19.338C51.2357-19.5418 50.9895-19.7626 50.7389-19.9495C50.6285-20.0301 50.5011-20.0344 50.3823-20.0684C50.1063-20.149 49.9152-20.4802 49.7411-20.8199C49.6601-20.9968 49.5267-21.1451 49.3589-21.2445C49.0617-21.4229 48.7602-21.58 48.4757-21.8857C48.1155-22.2622 47.7808-22.662 47.4736-23.0831C47.3802-23.219 47.2061-23.236 47.0745-23.2148C46.7935-23.1861 46.5186-23.1146 46.2592-23.0024C45.9408-22.8496 45.6351-22.5991 45.3166-22.442C45.1765-22.3698 45.0194-22.4165 44.8665-22.425C44.6372-22.4377 44.4122-22.4759 44.1829-22.4717C44.0392-22.4625 43.8984-22.4282 43.7667-22.3698C43.3421-22.1999 42.926-22.0004 42.5014-21.8517C42.2254-21.7583 41.9409-21.7668 41.6649-21.6819C41.3125-21.5672 40.96-21.3974 40.6076-21.27C40.5269-21.2403 40.4378-21.2955 40.3528-21.2955L39.5036-21.27C39.1427-21.2573 38.7818-21.2233 38.4208-21.2191C37.6947-21.2106 36.9644-21.2233 36.2341-21.2106C35.7415-21.2021 35.249-21.2063 34.7607-21.1129C34.4931-21.062 34.2256-20.8581 33.9751-20.6586C33.7628-20.493 33.5802-20.2212 33.3723-20.0344C33.2449-19.9197 33.0921-19.8645 32.9519-19.7924C32.8628-19.7414 32.7736-19.682 32.6802-19.665C32.5783-19.6395 32.4721-19.6522 32.3702-19.6522C32.2301-19.648 32.0942-19.665 31.9583-19.631C31.4063-19.4909 30.8671-19.6013 30.3193-19.6777C30.1197-19.7074 29.9159-19.6352 29.7121-19.631C29.4828-19.631 29.2493-19.6735 29.02-19.6735C28.6633-19.6735 28.3109-19.631 27.9585-19.648C27.1814-19.7308 26.4138-19.8858 25.6655-20.1108C25.3513-20.2127 25.0456-20.3911 24.7314-20.5227C24.5828-20.5864 24.4257-20.5991 24.277-20.6713C24.1412-20.7392 24.0095-20.8454 23.8779-20.9473C23.8269-20.9855 23.7887-21.0704 23.7335-21.0959C23.5212-21.2148 23.3004-21.304 23.0839-21.4314C22.6593-21.6861 22.2346-21.9579 21.8058-22.2127C21.4024-22.4589 20.999-22.6925 20.5914-22.9303C20.2347-23.1426 19.8695-23.3252 19.5213-23.5672C19.394-23.6521 19.2878-23.8772 19.1647-24.0258C18.9439-24.2975 18.7061-24.5311 18.498-24.8283C18.2133-25.2303 17.9497-25.6471 17.7082-26.0767C17.5851-26.2932 17.5257-26.6202 17.411-26.858C17.2157-27.2571 16.9864-27.6095 16.7953-28.0087C16.6085-28.3908 16.4429-28.8154 16.273-29.2231C16.0437-29.7666 15.8229-30.3228 15.5937-30.8536C15.445-31.1933 15.254-31.4693 15.1266-31.8217C14.9844-32.1961 14.8833-32.5846 14.8251-32.9809C14.7572-33.4777 14.7529-34.0042 14.7402-34.518C14.7402-34.8025 14.8039-35.0912 14.7911-35.3672C14.7741-35.7604 14.7315-36.1517 14.6637-36.5392C14.5788-37.002 14.4132-37.4266 14.3665-37.898C14.3241-38.3141 14.3793-38.7727 14.409-39.2143C14.4387-39.7832 14.4557-40.3437 14.4217-40.9255C14.3805-41.5337 14.3862-42.1441 14.4387-42.7513C14.5066-43.4307 14.6425-44.0931 14.7657-44.747C14.8718-45.3117 15.0034-45.8552 15.1223-46.4072C15.1308-46.4497 15.1351-46.5092 15.1521-46.5346C15.5002-46.9932 15.5767-47.7532 15.7677-48.3774C15.8951-48.7893 16.0055-49.2267 16.1074-49.6598C16.1626-49.8891 16.1796-50.1396 16.2221-50.3774C16.2379-50.492 16.2708-50.6037 16.3197-50.7086C16.4413-50.9591 16.4926-51.2379 16.4684-51.5153C16.4641-51.9527 16.5151-52.3943 16.5363-52.8359C16.5618-53.3836 16.3707-53.7998 16.0692-53.9526C15.6736-54.1464 15.2354-54.237 14.7954-54.2159C14.5831-54.2159 14.5321-54.3942 14.6255-54.7297C14.7088-55.0995 14.9063-55.4338 15.1903-55.6851C15.4111-55.8676 15.6149-56.1521 15.8399-56.2583C16.1372-56.3899 16.2263-56.7848 16.358-57.1839C16.5873-57.8888 16.9227-58.3899 17.3091-58.8357C17.8823-59.4896 18.5065-59.8548 19.1434-60.1945C19.5681-60.4238 19.9799-60.7125 20.413-60.8908C21.0712-61.1626 21.7378-61.3919 22.4087-61.5915C22.948-61.7528 23.4957-61.8802 24.0477-61.9439C24.8077-62.0715 25.5883-61.9802 26.2982-61.6806C26.9606-61.3707 27.606-60.9758 28.2599-60.6106C28.4935-60.4832 28.744-60.3898 28.9478-60.169C29.1644-59.9312 29.4276-59.91 29.6272-59.5575C29.7801-59.29 30.0263-59.2009 30.2217-59.0013C30.3915-58.8272 30.5444-58.6064 30.7015-58.4068C30.9053-58.1436 31.0964-57.8421 31.3172-57.6213C31.7078-57.2307 32.0942-56.7975 32.5146-56.547C33.1388-56.1734 33.7883-55.9611 34.4252-55.6511C34.7734-55.4812 35.1088-55.2435 35.4528-55.0396C36.0133-54.6999 36.5738-54.3772 37.1343-54.0291C37.6523-53.7021 38.1661-53.3497 38.6841-53.0015C38.9941-52.7892 39.321-52.6193 39.614-52.3433C40.0259-51.9569 40.4208-51.5026 40.8114-51.0398C41.1299-50.6619 41.4016-50.1141 41.7413-49.8508C42.4504-49.2988 42.9939-48.3137 43.6351-47.6004C44.2635-46.904 44.875-46.1567 45.5077-45.4731C46.1955-44.7343 46.8877-44.0294 47.5883-43.3458C48.0554-42.8872 48.5479-42.5008 49.0235-42.0719C49.2358-41.8766 49.4354-41.6303 49.6477-41.4392C49.9279-41.1887 50.2209-40.9849 50.5011-40.7344C50.6922-40.5744 50.8635-40.3919 51.0107-40.1909C51.3207-39.745 51.6986-39.6644 52.0595-39.486C52.2506-39.3926 52.4374-39.261 52.6285-39.176C52.8832-39.0699 53.1465-38.9637 53.4055-38.9043C53.8514-38.7981 54.3015-38.7472 54.7473-38.641C55.1379-38.5434 55.5201-38.3565 55.915-38.2844C56.2887-38.2122 56.6666-38.2419 57.0445-38.2164C57.7154-38.174 58.3905-38.089 59.0614-38.0975C59.7493-38.106 60.4202-37.9914 61.0953-37.7706C61.4775-37.6432 61.8681-37.5455 62.2248-37.278C62.4753-37.0954 62.6664-36.6496 62.8829-36.3269C63.3458-35.6475 63.1632-33.8981 62.6154-33.5499C62.2927-33.3418 61.987-33.0828 61.6218-33.1253C61.469-33.1423 61.3034-32.9512 61.1547-32.8153C61.1208-32.7856 61.1123-32.5733 61.1335-32.4714C61.2779-31.7877 61.4647-31.1296 61.5709-30.429C61.6558-29.8812 61.6388-29.2868 61.66-28.7135C61.6685-28.5734 61.6728-28.4205 61.6473-28.2974C61.5709-27.9152 61.4775-27.5416 61.3925-27.1679C61.3586-27.0151 61.2906-26.8537 61.2991-26.7136C61.3119-26.5692 61.384-26.3951 61.4605-26.3229C62.021-25.754 62.5645-25.1255 63.1589-24.6839C63.6685-24.2975 64.2205-24.0725 64.7725-23.8729C65.5495-23.5884 66.3393-23.3931 67.1206-23.1426C67.3287-23.0746 67.5282-22.9303 67.732-22.8326C68.1269-22.65 68.5261-22.5056 68.9167-22.2976C69.3031-22.0853 69.681-21.8008 70.0632-21.5885C70.5642-21.3125 71.0143-20.752 71.5536-20.7053C71.5875-20.7053 71.6173-20.6671 71.6512-20.6501C71.8933-20.51 72.1353-20.3783 72.3731-20.234C72.7-20.0429 73.0227-19.8391 73.3497-19.6395C73.3837-19.6183 73.4176-19.58 73.4516-19.5546C73.7658-19.3125 73.855-18.9601 73.7573-18.3741C73.6922-17.9435 73.5574-17.526 73.3582-17.1385C73.2372-16.8476 73.1707-16.5366 73.1629-16.2213C73.1416-15.8392 73.1841-15.4485 73.2181-15.0664C73.2435-14.7692 73.1034-14.421 72.8911-14.37C72.6958-14.3233 72.4962-14.3106 72.2967-14.2766L71.1502-14.0728C70.853-14.0303 70.6491-13.7331 70.4496-13.3509C70.2925-13.058 70.0971-12.7607 69.8891-12.6503C69.473-12.421 69.0399-12.2979 68.6067-12.1748C68.3817-12.1111 68.1482-12.1748 67.9231-12.1323C67.6811-12.0898 67.6386-11.8648 67.7745-11.5166C67.8-11.4614 67.7745-11.2491 67.7405-11.2279C67.6287-11.1398 67.4978-11.0785 67.3584-11.0495C67.1758-11.024 66.989-11.0453 66.8021-11.0453L66.8021-11.1047Z"/>
   <path class="monochrome-1 multicolor-1:tintColor hierarchical-1:tertiary SFSymbolsPreviewWireframe" d="M44.3636-80.5865C50.0861-80.5876 55.7528-79.4613 61.04-77.272C66.3271-75.0826 71.1312-71.8729 75.1774-67.8265C79.2239-63.7803 82.4335-58.9764 84.6232-53.6889C86.8124-48.4015 87.9387-42.7349 87.9376-37.0127C87.9376-12.9352 68.432 6.58658 44.3638 6.58658C20.2909 6.58658 0.7645-12.9399 0.7645-37.0127C0.7645-61.0781 20.2877-80.5865 44.3636-80.5865ZM44.3638-78.3365C21.53-78.3365 3.0145-59.8351 3.0145-37.0127C3.0145-14.1825 21.5336 4.33658 44.3638 4.33658C67.1889 4.33658 85.6876-14.1774 85.6876-37.0129C85.6886-42.4398 84.6205-47.8138 82.5443-52.828C80.4678-57.8425 77.4239-62.3983 73.5865-66.2355C69.7491-70.073 65.1932-73.1168 60.1791-75.1931C55.1651-77.2695 49.791-78.3376 44.3638-78.3365Z"/>
  </g>
 </g>
</svg>
