<?xml version="1.0" encoding="UTF-8"?>
<!--Generator: Apple Native CoreSVG 341-->
<!DOCTYPE svg
PUBLIC "-//W3C//DTD SVG 1.1//EN"
       "http://www.w3.org/Graphics/SVG/1.1/DTD/svg11.dtd">
<svg version="1.1" xmlns="http://www.w3.org/2000/svg" xmlns:xlink="http://www.w3.org/1999/xlink" viewBox="0 0 3300 2200">
 <!--glyph: "", point size: 100.0, font version: "20.0d10e1", template writer version: "138.0.0"-->
 <style>.monochrome-0 {-sfsymbols-motion-group:1;-sfsymbols-layer-tags:111d50b402d4809a}
.monochrome-1 {-sfsymbols-motion-group:0;-sfsymbols-layer-tags:111d50b402d4809a}

.multicolor-0:tintColor {-sfsymbols-motion-group:1;-sfsymbols-layer-tags:111d50b402d4809a}
.multicolor-1:tintColor {-sfsymbols-motion-group:0;-sfsymbols-layer-tags:111d50b402d4809a}

.hierarchical-0:primary {-sfsymbols-motion-group:1;-sfsymbols-layer-tags:111d50b402d4809a}
.hierarchical-1:tertiary {-sfsymbols-motion-group:0;-sfsymbols-layer-tags:111d50b402d4809a}

.SFSymbolsPreviewWireframe {fill:none;opacity:1.0;stroke:black;stroke-width:0.5}
</style>
 <g id="Notes">
  <rect height="2200" id="artboard" style="fill:white;opacity:1" width="3300" x="0" y="0"/>
  <line style="fill:none;stroke:black;opacity:1;stroke-width:0.5;" x1="263" x2="3036" y1="292" y2="292"/>
  <text style="stroke:none;fill:black;font-family:sans-serif;font-size:13;font-weight:bold;" transform="matrix(1 0 0 1 263 322)">Weight/Scale Variations</text>
  <text style="stroke:none;fill:black;font-family:sans-serif;font-size:13;text-anchor:middle;" transform="matrix(1 0 0 1 559.711 322)">Ultralight</text>
  <text style="stroke:none;fill:black;font-family:sans-serif;font-size:13;text-anchor:middle;" transform="matrix(1 0 0 1 856.422 322)">Thin</text>
  <text style="stroke:none;fill:black;font-family:sans-serif;font-size:13;text-anchor:middle;" transform="matrix(1 0 0 1 1153.13 322)">Light</text>
  <text style="stroke:none;fill:black;font-family:sans-serif;font-size:13;text-anchor:middle;" transform="matrix(1 0 0 1 1449.84 322)">Regular</text>
  <text style="stroke:none;fill:black;font-family:sans-serif;font-size:13;text-anchor:middle;" transform="matrix(1 0 0 1 1746.56 322)">Medium</text>
  <text style="stroke:none;fill:black;font-family:sans-serif;font-size:13;text-anchor:middle;" transform="matrix(1 0 0 1 2043.27 322)">Semibold</text>
  <text style="stroke:none;fill:black;font-family:sans-serif;font-size:13;text-anchor:middle;" transform="matrix(1 0 0 1 2339.98 322)">Bold</text>
  <text style="stroke:none;fill:black;font-family:sans-serif;font-size:13;text-anchor:middle;" transform="matrix(1 0 0 1 2636.69 322)">Heavy</text>
  <text style="stroke:none;fill:black;font-family:sans-serif;font-size:13;text-anchor:middle;" transform="matrix(1 0 0 1 2933.4 322)">Black</text>
  <line style="fill:none;stroke:black;opacity:1;stroke-width:0.5;" x1="263" x2="3036" y1="1903" y2="1903"/>
  <g transform="matrix(0.2 0 0 0.2 263 1933)">
   <path d="m46.2402 4.15039c21.7773 0 39.4531-17.627 39.4531-39.4043s-17.6758-39.4043-39.4531-39.4043c-21.7285 0-39.4043 17.627-39.4043 39.4043s17.6758 39.4043 39.4043 39.4043Zm0-7.42188c-17.6758 0-31.9336-14.3066-31.9336-31.9824s14.2578-31.9824 31.9336-31.9824 31.9824 14.3066 31.9824 31.9824-14.3066 31.9824-31.9824 31.9824Zm-17.9688-31.9824c0 2.14844 1.51367 3.61328 3.75977 3.61328h10.498v10.5957c0 2.19727 1.46484 3.71094 3.61328 3.71094 2.24609 0 3.71094-1.51367 3.71094-3.71094v-10.5957h10.5957c2.19727 0 3.71094-1.46484 3.71094-3.61328 0-2.19727-1.51367-3.71094-3.71094-3.71094h-10.5957v-10.5469c0-2.24609-1.46484-3.75977-3.71094-3.75977-2.14844 0-3.61328 1.51367-3.61328 3.75977v10.5469h-10.498c-2.24609 0-3.75977 1.51367-3.75977 3.71094Z"/>
  </g>
  <g transform="matrix(0.2 0 0 0.2 281.506 1933)">
   <path d="m58.5449 14.5508c27.4902 0 49.8047-22.3145 49.8047-49.8047s-22.3145-49.8047-49.8047-49.8047-49.8047 22.3145-49.8047 49.8047 22.3145 49.8047 49.8047 49.8047Zm0-8.30078c-22.9492 0-41.5039-18.5547-41.5039-41.5039s18.5547-41.5039 41.5039-41.5039 41.5039 18.5547 41.5039 41.5039-18.5547 41.5039-41.5039 41.5039Zm-22.6562-41.5039c0 2.39258 1.66016 4.00391 4.15039 4.00391h14.3555v14.4043c0 2.44141 1.66016 4.15039 4.05273 4.15039 2.44141 0 4.15039-1.66016 4.15039-4.15039v-14.4043h14.4043c2.44141 0 4.15039-1.61133 4.15039-4.00391 0-2.44141-1.70898-4.15039-4.15039-4.15039h-14.4043v-14.3555c0-2.49023-1.70898-4.19922-4.15039-4.19922-2.39258 0-4.05273 1.70898-4.05273 4.19922v14.3555h-14.3555c-2.49023 0-4.15039 1.70898-4.15039 4.15039Z"/>
  </g>
  <g transform="matrix(0.2 0 0 0.2 304.924 1933)">
   <path d="m74.8535 28.3203c35.1074 0 63.623-28.4668 63.623-63.5742s-28.5156-63.623-63.623-63.623-63.5742 28.5156-63.5742 63.623 28.4668 63.5742 63.5742 63.5742Zm0-9.08203c-30.127 0-54.4922-24.3652-54.4922-54.4922s24.3652-54.4922 54.4922-54.4922 54.4922 24.3652 54.4922 54.4922-24.3652 54.4922-54.4922 54.4922Zm-28.8574-54.4922c0 2.58789 1.85547 4.39453 4.58984 4.39453h19.7266v19.7754c0 2.68555 1.85547 4.58984 4.44336 4.58984 2.68555 0 4.54102-1.85547 4.54102-4.58984v-19.7754h19.7754c2.68555 0 4.58984-1.80664 4.58984-4.39453 0-2.73438-1.85547-4.58984-4.58984-4.58984h-19.7754v-19.7266c0-2.73438-1.85547-4.63867-4.54102-4.63867-2.58789 0-4.44336 1.9043-4.44336 4.63867v19.7266h-19.7266c-2.73438 0-4.58984 1.85547-4.58984 4.58984Z"/>
  </g>
  <text style="stroke:none;fill:black;font-family:sans-serif;font-size:13;font-weight:bold;" transform="matrix(1 0 0 1 263 1953)">Design Variations</text>
  <text style="stroke:none;fill:black;font-family:sans-serif;font-size:13;" transform="matrix(1 0 0 1 263 1971)">Symbols are supported in up to nine weights and three scales.</text>
  <text style="stroke:none;fill:black;font-family:sans-serif;font-size:13;" transform="matrix(1 0 0 1 263 1989)">For optimal layout with text and other symbols, vertically align</text>
  <text style="stroke:none;fill:black;font-family:sans-serif;font-size:13;" transform="matrix(1 0 0 1 263 2007)">symbols with the adjacent text.</text>
  <line style="fill:none;stroke:#00AEEF;stroke-width:0.5;opacity:1.0;" x1="776" x2="776" y1="1919" y2="1933"/>
  <g transform="matrix(0.2 0 0 0.2 776 1933)">
   <path d="m16.5527 0.78125c2.58789 0 3.85742-0.976562 4.78516-3.71094l6.29883-17.2363h28.8086l6.29883 17.2363c0.927734 2.73438 2.19727 3.71094 4.73633 3.71094 2.58789 0 4.24805-1.5625 4.24805-4.00391 0-0.830078-0.146484-1.61133-0.537109-2.63672l-22.9004-60.9863c-1.12305-2.97852-3.125-4.49219-6.25-4.49219-3.02734 0-5.07812 1.46484-6.15234 4.44336l-22.9004 61.084c-0.390625 1.02539-0.537109 1.80664-0.537109 2.63672 0 2.44141 1.5625 3.95508 4.10156 3.95508Zm13.4766-28.3691 11.8652-32.8613h0.244141l11.8652 32.8613Z"/>
  </g>
  <line style="fill:none;stroke:#00AEEF;stroke-width:0.5;opacity:1.0;" x1="792.836" x2="792.836" y1="1919" y2="1933"/>
  <text style="stroke:none;fill:black;font-family:sans-serif;font-size:13;font-weight:bold;" transform="matrix(1 0 0 1 776 1953)">Margins</text>
  <text style="stroke:none;fill:black;font-family:sans-serif;font-size:13;" transform="matrix(1 0 0 1 776 1971)">Leading and trailing margins on the left and right side of each symbol</text>
  <text style="stroke:none;fill:black;font-family:sans-serif;font-size:13;" transform="matrix(1 0 0 1 776 1989)">can be adjusted by modifying the x-location of the margin guidelines.</text>
  <text style="stroke:none;fill:black;font-family:sans-serif;font-size:13;" transform="matrix(1 0 0 1 776 2007)">Modifications are automatically applied proportionally to all</text>
  <text style="stroke:none;fill:black;font-family:sans-serif;font-size:13;" transform="matrix(1 0 0 1 776 2025)">scales and weights.</text>
  <g transform="matrix(0.2 0 0 0.2 1289 1933)">
   <path d="m14.209 9.32617 8.49609 8.54492c4.29688 4.3457 9.22852 4.05273 13.8672-1.07422l53.4668-58.9355-4.83398-4.88281-53.0762 58.3984c-1.75781 2.00195-3.41797 2.49023-5.76172 0.146484l-5.85938-5.81055c-2.34375-2.29492-1.80664-4.00391 0.195312-5.81055l57.373-54.0039-4.88281-4.83398-57.959 54.4434c-4.93164 4.58984-5.32227 9.47266-1.02539 13.8184Zm32.0801-90.9668c-2.09961 2.05078-2.24609 4.93164-1.07422 6.88477 1.17188 1.80664 3.4668 2.97852 6.68945 2.14844 7.32422-1.70898 14.9414-2.00195 22.0703 2.68555l-2.92969 7.27539c-1.70898 4.15039-0.830078 7.08008 1.85547 9.81445l11.4746 11.5723c2.44141 2.44141 4.49219 2.53906 7.32422 2.05078l5.32227-0.976562 3.32031 3.36914-0.195312 2.7832c-0.195312 2.49023 0.439453 4.39453 2.88086 6.78711l3.80859 3.71094c2.39258 2.39258 5.46875 2.53906 7.8125 0.195312l14.5508-14.5996c2.34375-2.34375 2.24609-5.32227-0.146484-7.71484l-3.85742-3.80859c-2.39258-2.39258-4.24805-3.17383-6.64062-2.97852l-2.88086 0.244141-3.22266-3.17383 1.2207-5.61523c0.634766-2.83203-0.146484-5.0293-3.07617-7.95898l-10.9863-10.9375c-16.6992-16.6016-38.8672-16.2109-53.3203-1.75781Zm7.4707 1.85547c12.1582-8.88672 28.6133-7.37305 39.7461 3.75977l12.1582 12.0605c1.17188 1.17188 1.36719 2.09961 1.02539 3.80859l-1.61133 7.42188 7.51953 7.42188 4.93164-0.292969c1.26953-0.0488281 1.66016 0.0488281 2.63672 1.02539l2.88086 2.88086-12.207 12.207-2.88086-2.88086c-0.976562-0.976562-1.12305-1.36719-1.07422-2.68555l0.341797-4.88281-7.4707-7.42188-7.61719 1.26953c-1.61133 0.341797-2.34375 0.195312-3.56445-0.976562l-10.0098-10.0098c-1.26953-1.17188-1.41602-2.00195-0.634766-3.85742l4.39453-10.4492c-7.8125-7.27539-17.9688-10.4004-28.125-7.42188-0.78125 0.195312-1.07422-0.439453-0.439453-0.976562Z"/>
  </g>
  <text style="stroke:none;fill:black;font-family:sans-serif;font-size:13;font-weight:bold;" transform="matrix(1 0 0 1 1289 1953)">Exporting</text>
  <text style="stroke:none;fill:black;font-family:sans-serif;font-size:13;" transform="matrix(1 0 0 1 1289 1971)">Symbols should be outlined when exporting to ensure the</text>
  <text style="stroke:none;fill:black;font-family:sans-serif;font-size:13;" transform="matrix(1 0 0 1 1289 1989)">design is preserved when submitting to Xcode.</text>
  <text id="template-version" style="stroke:none;fill:black;font-family:sans-serif;font-size:13;text-anchor:end;" transform="matrix(1 0 0 1 3036 1933)">Template v.6.0</text>
  <text style="stroke:none;fill:black;font-family:sans-serif;font-size:13;text-anchor:end;" transform="matrix(1 0 0 1 3036 1951)">Requires Xcode 16 or greater</text>
  <text id="descriptive-name" style="stroke:none;fill:black;font-family:sans-serif;font-size:13;text-anchor:end;" transform="matrix(1 0 0 1 3036 1969)">Generated from filtervogelgruppe-39</text>
  <text style="stroke:none;fill:black;font-family:sans-serif;font-size:13;text-anchor:end;" transform="matrix(1 0 0 1 3036 1987)">Typeset at 100.0 points</text>
  <text style="stroke:none;fill:black;font-family:sans-serif;font-size:13;" transform="matrix(1 0 0 1 263 726)">Small</text>
  <text style="stroke:none;fill:black;font-family:sans-serif;font-size:13;" transform="matrix(1 0 0 1 263 1156)">Medium</text>
  <text style="stroke:none;fill:black;font-family:sans-serif;font-size:13;" transform="matrix(1 0 0 1 263 1586)">Large</text>
 </g>
 <g id="Guides">
  <g id="H-reference" style="fill:#27AAE1;stroke:none;" transform="matrix(1 0 0 1 339 696)">
   <path d="M0.993654 0L3.63775 0L29.3281-67.1323L30.0303-67.1323L30.0303-70.459L28.1226-70.459ZM11.6885-24.4799L46.9815-24.4799L46.2315-26.7285L12.4385-26.7285ZM55.1196 0L57.7637 0L30.6382-70.459L29.4326-70.459L29.4326-67.1323Z"/>
  </g>
  <line id="Baseline-S" style="fill:none;stroke:#27AAE1;opacity:1;stroke-width:0.5;" x1="263" x2="3036" y1="696" y2="696"/>
  <line id="Capline-S" style="fill:none;stroke:#27AAE1;opacity:1;stroke-width:0.5;" x1="263" x2="3036" y1="625.541" y2="625.541"/>
  <g id="H-reference" style="fill:#27AAE1;stroke:none;" transform="matrix(1 0 0 1 339 1126)">
   <path d="M0.993654 0L3.63775 0L29.3281-67.1323L30.0303-67.1323L30.0303-70.459L28.1226-70.459ZM11.6885-24.4799L46.9815-24.4799L46.2315-26.7285L12.4385-26.7285ZM55.1196 0L57.7637 0L30.6382-70.459L29.4326-70.459L29.4326-67.1323Z"/>
  </g>
  <line id="Baseline-M" style="fill:none;stroke:#27AAE1;opacity:1;stroke-width:0.5;" x1="263" x2="3036" y1="1126" y2="1126"/>
  <line id="Capline-M" style="fill:none;stroke:#27AAE1;opacity:1;stroke-width:0.5;" x1="263" x2="3036" y1="1055.54" y2="1055.54"/>
  <g id="H-reference" style="fill:#27AAE1;stroke:none;" transform="matrix(1 0 0 1 339 1556)">
   <path d="M0.993654 0L3.63775 0L29.3281-67.1323L30.0303-67.1323L30.0303-70.459L28.1226-70.459ZM11.6885-24.4799L46.9815-24.4799L46.2315-26.7285L12.4385-26.7285ZM55.1196 0L57.7637 0L30.6382-70.459L29.4326-70.459L29.4326-67.1323Z"/>
  </g>
  <line id="Baseline-L" style="fill:none;stroke:#27AAE1;opacity:1;stroke-width:0.5;" x1="263" x2="3036" y1="1556" y2="1556"/>
  <line id="Capline-L" style="fill:none;stroke:#27AAE1;opacity:1;stroke-width:0.5;" x1="263" x2="3036" y1="1485.54" y2="1485.54"/>
  <line id="right-margin-Black-S" style="fill:none;stroke:#00AEEF;stroke-width:0.5;opacity:1.0;" x1="2982.23" x2="2982.23" y1="600.785" y2="720.121"/>
  <line id="left-margin-Black-S" style="fill:none;stroke:#00AEEF;stroke-width:0.5;opacity:1.0;" x1="2884.57" x2="2884.57" y1="600.785" y2="720.121"/>
  <line id="right-margin-Regular-S" style="fill:none;stroke:#00AEEF;stroke-width:0.5;opacity:1.0;" x1="1496.11" x2="1496.11" y1="600.785" y2="720.121"/>
  <line id="left-margin-Regular-S" style="fill:none;stroke:#00AEEF;stroke-width:0.5;opacity:1.0;" x1="1403.58" x2="1403.58" y1="600.785" y2="720.121"/>
  <line id="right-margin-Ultralight-S" style="fill:none;stroke:#00AEEF;stroke-width:0.5;opacity:1.0;" x1="603.773" x2="603.773" y1="600.785" y2="720.121"/>
  <line id="left-margin-Ultralight-S" style="fill:none;stroke:#00AEEF;stroke-width:0.5;opacity:1.0;" x1="515.649" x2="515.649" y1="600.785" y2="720.121"/>
 </g>
 <g id="Symbols">
  <g id="Black-S" transform="matrix(1 0 0 1 2884.57 696)">
   <path class="monochrome-0 multicolor-0:tintColor hierarchical-0:primary SFSymbolsPreviewWireframe" d="M56.6902-61.2196C56.7686-61.4072 56.8335-61.571 56.9051-61.7314C57.1166-62.2192 57.3214-62.7139 57.5431-63.1882C57.7205-63.5635 57.9048-63.9388 58.1129-64.2663C58.2732-64.5188 58.4302-64.8122 58.6827-64.819C59.1501-64.8327 59.6141-64.8907 60.0815-64.9079C60.3271-64.9145 60.525-64.7337 60.682-64.3789C60.8082-64.1025 61.0163-64.106 61.204-64.123C61.5656-64.1571 61.9273-64.2151 62.2821-64.0002C62.4595-63.891 62.6437-63.8125 62.8177-63.6761C62.8928-63.6147 62.9542-63.4645 63.0054-63.3349C63.0224-63.2803 63.0088-63.1302 62.9849-63.0995C62.9133-63.0244 62.828-62.9528 62.7461-62.9425C62.5823-62.9221 62.4152-62.9425 62.2514-62.9459C62.2412-62.9459 62.2241-62.9357 62.2207-62.9221C62.1422-62.615 61.9682-62.6252 61.8181-62.5263C61.743-62.4751 61.6816-62.3318 61.6031-62.2124C61.5247-62.2772 61.2961-62.0316 61.262-61.7552C61.7601-61.7041 62.2582-61.6665 62.7529-61.5881C62.8348-61.5778 62.9064-61.397 62.9781-61.2878C63.0361-61.1957 63.1282-61.0933 62.9917-60.9705C62.9238-60.9105 62.8533-60.8536 62.7802-60.7999C62.6847-60.7249 62.5857-60.6635 62.4902-60.585C62.3023-60.4299 62.1169-60.2718 61.9341-60.1108C61.7226-59.9231 61.6441-59.6195 61.627-59.2032C61.5929-58.555 61.5008-57.9204 61.4667-57.2756C61.4155-56.3919 61.1801-55.6208 61.0129-54.8088C60.9106-54.3039 60.7468-53.8399 60.6069-53.3588C60.3067-52.3353 60.2487-51.2299 60.2726-50.1108C60.2862-49.5581 60.3613-49.0088 60.3886-48.4561C60.4056-48.0876 60.3817-47.7191 60.3886-47.3507C60.3954-47.1255 60.4227-46.9037 60.4397-46.6786C60.4431-46.6047 60.4431-46.5307 60.4397-46.4568C60.4363-46.2384 60.3886-45.9894 60.4295-45.8017C60.5387-45.3207 60.525-44.8191 60.5387-44.3278C60.5694-43.2019 60.5796-42.0692 60.5728-40.9399C60.5728-40.1279 60.525-39.3159 60.5046-38.5005C60.4909-38.1627 60.4943-37.825 60.4943-37.4838C60.4943-37.4394 60.5353-37.3985 60.5626-37.3439C60.3476-37.0403 60.6103-36.6888 60.5353-36.3545C60.45-36.4432 60.4022-36.4261 60.4193-36.2248C60.4227-36.1464 60.3988-36.0611 60.4056-35.9826C60.409-35.9041 60.4363-35.8325 60.4602-35.7233C60.2828-35.505 60.3613-35.0751 60.2862-34.7339C60.177-34.2665 60.0883-33.782 59.9894-33.3078C59.8427-32.6015 59.7164-31.8748 59.539-31.1925C59.3681-30.4939 59.1575-29.8059 58.9078-29.1317C58.6943-28.6046 58.4362-28.0968 58.1368-27.6135C57.8331-27.1017 57.4954-26.648 57.1712-26.1737C56.7959-25.621 56.4138-25.0785 56.0351-24.5292C55.8338-24.2392 55.6393-23.9356 55.4312-23.6661C55.0696-23.1986 54.7011-22.7449 54.3326-22.2979C54.0952-22.0045 53.8473-21.7199 53.5889-21.445C53.3637-21.2062 53.118-21.0219 52.8894-20.7899C52.596-20.4897 52.3163-20.1519 52.0194-19.8551C51.1565-19.0016 50.2715-18.1711 49.3651-17.3645C49.1842-17.2076 49.1535-16.921 49.1501-16.631C49.1399-15.9384 49.1467-15.2492 49.1433-14.5566C49.1433-14.328 49.1262-14.1028 49.1297-13.8776C49.1297-13.7207 49.157-13.5638 49.174-13.3693C49.1706-13.3352 49.1467-13.2499 49.1467-13.1612L49.1467-12.3492C49.1501-11.8101 49.3002-11.4348 49.5868-11.2574C49.6687-11.2062 49.7472-11.1209 49.8325-11.1073C49.9007-11.0902 49.9758-11.1482 50.0474-11.1823C50.0781-11.196 50.1054-11.2506 50.1361-11.2506C50.3818-11.2608 50.6274-11.2608 50.8731-11.2608C50.8833-11.2608 50.897-11.2506 50.9072-11.2608C51.146-11.4553 51.3917-11.2745 51.6305-11.2472C51.8796-11.2199 52.1218-11.022 52.3674-10.8855C52.4971-10.8139 52.6267-10.749 52.695-10.4897C52.7359-10.3396 52.7393-10.2885 52.6404-10.2748C52.2412-10.2168 51.842-10.1486 51.4394-10.0974C51.3234-10.0837 51.2143-10.0428 51.2143-9.81762C51.2143-9.70162 51.2961-9.58562 51.3439-9.47645L51.6612-8.75997L51.6032-8.64738C51.4394-8.81456 51.2723-8.98515 51.1051-9.1455C51.0368-9.21374 50.9584-9.30586 50.8867-9.30927C50.5797-9.31609 50.2794-9.2888 49.9758-9.28539C49.8564-9.28197 49.737-9.30586 49.6141-9.30586C49.5834-9.30586 49.5527-9.27174 49.5254-9.29562L49.2422-9.40139C49.0341-9.47986 48.8158-9.51739 48.6179-9.64021C48.3586-9.80398 48.1061-10.0292 47.8571-10.2373C47.7035-10.3635 47.5534-10.5102 47.4033-10.6399C47.3692-10.6706 47.3282-10.6706 47.2668-10.6876C47.3589-12.3219 47.6421-13.9118 47.6558-15.6006C47.6251-15.587 47.5841-15.5904 47.5705-15.5597L46.9802-14.0039C46.8472-13.6525 46.7141-13.3011 46.5879-12.9428C46.5589-12.8547 46.5529-12.7609 46.5708-12.6699C46.5993-12.5866 46.6109-12.4984 46.6049-12.4106C46.5993-12.3227 46.5759-12.2369 46.5367-12.1581C46.4875-12.0683 46.4568-11.9693 46.4463-11.8675C46.4358-11.7655 46.4454-11.6625 46.4753-11.5645C46.5947-11.1277 46.68-10.6501 46.8233-10.2407C46.9291-9.93362 47.0996-9.70845 47.3078-9.54127C47.7854-9.15233 48.2869-9.18303 48.7885-9.18303C49.0546-9.18303 49.2184-8.92032 49.389-8.65762C49.4879-8.50409 49.389-8.11173 49.2525-8.08444C49.1365-8.05714 49.0137-8.05032 48.8977-8.03326C48.8226-8.02302 48.7407-8.02985 48.6691-7.99232C48.6077-7.9582 48.5497-7.87973 48.4746-7.85244L48.5121-7.94455C48.5053-7.95138 48.5019-7.96161 48.4951-7.96161C48.2358-7.92749 47.9765-7.89679 47.7172-7.85585C47.5398-7.82514 47.5056-7.70573 47.5909-7.42255L47.6762-7.15984C47.7445-6.9449 47.6797-6.8869 47.5739-6.91419C47.318-6.98243 47.0621-7.05067 46.8131-7.15302C46.6527-7.22467 46.5026-7.37137 46.3456-7.47714C46.2058-7.56926 46.0556-7.63408 45.9192-7.73985C45.694-7.91044 45.4756-8.09808 45.2539-8.28573C45.2203-8.31701 45.1964-8.35738 45.1856-8.40173C45.0662-8.86915 44.9468-9.33997 44.8376-9.81421C44.7933-10.0053 44.7421-10.2032 44.725-10.4045C44.6909-10.9026 44.609-11.4246 44.6568-11.9022C44.725-12.6085 44.6636-13.3761 44.9195-14.0209C44.9707-14.1506 44.9775-14.3451 44.9878-14.5088C45.0014-14.8193 45.0082-15.1298 45.015-15.4437C45.0185-15.6757 45.0082-15.8872 44.824-15.8667C44.783-15.8633 44.7319-15.8906 44.7012-15.935C44.5715-16.1363 44.418-16.0714 44.2679-16.0953C43.9437-16.1431 43.6196-16.2318 43.2921-16.2932C43.2204-16.3068 43.1454-16.2761 43.0737-16.2932C42.9097-16.3336 42.7488-16.3859 42.5927-16.4501C42.2725-16.5821 41.9561-16.7231 41.6442-16.8732C41.3235-17.0267 41.0642-17.0165 40.8014-16.5184C40.4534-15.8667 40.027-15.3447 39.6448-14.7408C39.4401-14.4167 39.2695-14.0244 39.0648-13.6968C38.6691-13.0554 38.2597-12.4413 37.8605-11.8067C37.6797-11.5201 37.4613-11.2608 37.3419-10.9094C37.2156-10.5409 37.0792-10.4829 36.8676-10.5136C36.5538-10.558 36.2399-10.558 35.926-10.575C35.8032-10.5819 35.7213-10.8787 35.7963-11.1687C35.9669-11.8476 36.1375-12.5402 36.3422-13.1851C36.6288-14.0687 36.9564-14.9012 37.2532-15.778C37.3931-16.2011 37.492-16.6651 37.6148-17.112C37.6353-17.178 37.6639-17.2408 37.7001-17.2997C37.7684-17.4157 37.8571-17.5044 37.898-17.6408C38.0345-18.0844 38.1709-18.5381 38.2801-19.0056C38.4166-19.6026 38.5531-20.2065 38.6486-20.8275C38.8158-21.8851 38.9557-22.9496 39.0955-24.0141C39.1945-24.7374 39.273-25.4641 39.3617-26.1874C39.447-26.8527 39.5425-27.5146 39.6244-28.1799C39.6994-28.7974 39.754-29.4217 39.8291-30.0427C39.8768-30.4316 39.9451-30.8138 40.0031-31.1993C40.0167-31.2846 40.0167-31.3767 40.0338-31.4586C40.0508-31.5473 40.0884-31.6258 40.1088-31.7111C40.1327-31.8066 40.1498-31.9055 40.1634-32.0045C40.1771-32.0795 40.1737-32.1682 40.1975-32.2331C40.5899-33.4067 41.0915-34.4234 41.6715-35.3241C42.0093-35.8427 42.3504-36.3545 42.695-36.8526C42.9236-37.1801 43.1659-37.4736 43.3979-37.7943C43.7663-38.3026 44.1212-38.8349 44.493-39.3296C44.7762-39.698 45.0799-40.0187 45.3699-40.377C45.6258-40.7011 45.8748-41.0491 46.1341-41.3732C46.2979-41.5779 46.4685-41.7622 46.6391-41.9532C46.7824-42.1102 46.9222-42.2774 47.0689-42.4206C47.2796-42.6313 47.4994-42.8326 47.7274-43.0245C48.0277-43.2736 48.3347-43.4954 48.6384-43.7274C49.0273-44.0242 49.4128-44.3278 49.7984-44.6178C49.9383-44.7202 50.0918-44.7748 50.2283-44.8908C50.6036-45.2081 50.9788-45.5493 51.3541-45.8802C51.5691-46.0678 51.784-46.2487 51.9956-46.4397C52.2276-46.6478 52.4596-46.856 52.6847-47.0811C52.9111-47.3044 53.1286-47.5366 53.3364-47.7771C53.698-48.2002 54.0665-48.613 54.4111-49.0805C54.6226-49.3739 54.8103-49.7389 54.9843-50.104C55.1378-50.4281 55.2845-50.7795 55.3835-51.1548C55.479-51.5165 55.5131-51.9259 55.5711-52.3148L55.7417-53.5226C55.7519-53.5942 55.7519-53.6727 55.7622-53.7478C55.8372-54.3278 55.9157-54.901 55.9873-55.481C56.0419-55.9381 56.1033-56.3919 56.1443-56.8525C56.2125-57.6372 56.2603-58.4287 56.3285-59.2169C56.3626-59.5956 56.4104-59.9777 56.4786-60.3428C56.5264-60.5918 56.6219-60.8102 56.6868-61.049C56.7038-61.1036 56.6902-61.1855 56.6902-61.2196L56.6902-61.2196Z"/>
   <path class="monochrome-1 multicolor-1:tintColor hierarchical-1:tertiary SFSymbolsPreviewWireframe" d="M48.9411-84C55.3091-84.0013 61.615-82.7479 67.4985-80.3116C73.382-77.8752 78.7279-74.3036 83.2305-69.8009C87.7334-65.2983 91.305-59.9524 93.7418-54.0682C96.1779-48.1846 97.4312-41.8789 97.43-35.5124C97.43-8.72255 75.7254 13 48.9424 13C22.156 13 0.43-8.726 0.43-35.5124C0.43-62.2926 22.1539-84 48.9411-84ZM48.9424-70C29.8835-70 14.43-54.5582 14.43-35.5124C14.43-16.458 29.888-0.999999 48.9424-0.999999C67.9909-0.999999 83.43-16.4519 83.43-35.5138C83.4309-40.0428 82.5395-44.5276 80.8069-48.7121C79.0739-52.8969 76.5337-56.6989 73.3311-59.9013C70.1287-63.1038 66.3266-65.644 62.1422-67.3767C57.9578-69.1095 53.4729-70.0009 48.9424-70Z"/>
  </g>
  <g id="Regular-S" transform="matrix(1 0 0 1 1403.58 696)">
   <path class="monochrome-0 multicolor-0:tintColor hierarchical-0:primary SFSymbolsPreviewWireframe" d="M55.4594-67.4096C55.557-67.6432 55.6377-67.847 55.7269-68.0466C55.9901-68.6538 56.2449-69.2695 56.5209-69.8597C56.7417-70.3267 56.971-70.7938 57.23-71.2015C57.4296-71.5157 57.6249-71.8808 57.9391-71.8893C58.5208-71.9063 59.0983-71.9785 59.68-72C59.9858-72.0082 60.232-71.7832 60.4274-71.3416C60.5845-70.9976 60.8435-71.0019 61.077-71.0231C61.5271-71.0656 61.9772-71.1378 62.4188-70.8703C62.6396-70.7344 62.8689-70.6367 63.0854-70.4669C63.1789-70.3904 63.2553-70.2036 63.319-70.0423C63.3402-69.9743 63.3232-69.7875 63.2935-69.7493C63.2043-69.6559 63.0982-69.5667 62.9963-69.5539C62.7925-69.5285 62.5844-69.5539 62.3806-69.5582C62.3678-69.5582 62.3466-69.5455 62.3424-69.5285C62.2447-69.1463 62.0282-69.1591 61.8413-69.0359C61.7479-68.9722 61.6715-68.7939 61.5738-68.6453C61.4762-68.7259 61.1917-68.4202 61.1492-68.0763C61.7691-68.0126 62.3891-67.9659 63.0048-67.8682C63.1067-67.8555 63.1958-67.6304 63.285-67.4946C63.3572-67.3799 63.4718-67.2525 63.302-67.0997C63.2174-67.0249 63.1297-66.9541 63.0387-66.8874C62.9198-66.7939 62.7967-66.7175 62.6778-66.6199C62.4439-66.4268 62.2132-66.2301 61.9857-66.0296C61.7224-65.7961 61.6248-65.4182 61.6035-64.9002C61.5611-64.0934 61.4464-63.3036 61.404-62.5011C61.3403-61.4013 61.0473-60.4417 60.8392-59.4311C60.7118-58.8027 60.508-58.2252 60.3339-57.6265C59.9603-56.3527 59.8881-54.9769 59.9178-53.5842C59.9348-52.8963 60.0282-52.2127 60.0622-51.5248C60.0834-51.0662 60.0537-50.6076 60.0622-50.149C60.0707-49.8688 60.1046-49.5928 60.1259-49.3125C60.1301-49.2206 60.1301-49.1285 60.1259-49.0365C60.1216-48.7648 60.0622-48.4548 60.1131-48.2213C60.249-47.6226 60.232-46.9984 60.249-46.3869C60.2872-44.9857 60.3-43.576 60.2915-42.1705C60.2915-41.1599 60.232-40.1493 60.2066-39.1345C60.1896-38.7141 60.1938-38.2938 60.1938-37.8691C60.1938-37.8139 60.2448-37.763 60.2787-37.6951C60.0112-37.3171 60.3382-36.8798 60.2448-36.4637C60.1386-36.5741 60.0792-36.5528 60.1004-36.3023C60.1046-36.2047 60.0749-36.0985 60.0834-36.0008C60.0877-35.9032 60.1216-35.814 60.1514-35.6781C59.9306-35.4064 60.0282-34.8714 59.9348-34.4467C59.7989-33.865 59.6885-33.2621 59.5654-32.6719C59.3828-31.7929 59.2257-30.8885 59.0049-30.0392C58.7922-29.1698 58.53-28.3135 58.2194-27.4746C57.9536-26.8185 57.6323-26.1866 57.2597-25.585C56.8818-24.9481 56.4614-24.3834 56.0581-23.7931C55.591-23.1053 55.1154-22.4301 54.6441-21.7465C54.3936-21.3856 54.1515-21.0077 53.8925-20.6722C53.4424-20.0905 52.9838-19.5258 52.5253-18.9695C52.2298-18.6043 51.9212-18.2501 51.5996-17.908C51.3194-17.6107 51.0136-17.3815 50.7291-17.0927C50.364-16.7191 50.0158-16.2987 49.6464-15.9293C48.5724-14.867 47.4709-13.8334 46.3429-12.8296C46.1178-12.6343 46.0796-12.2776 46.0754-11.9167C46.0626-11.0547 46.0711-10.197 46.0669-9.33499C46.0669-9.0505 46.0456-8.77025 46.0499-8.49C46.0499-8.29468 46.0838-8.09936 46.1051-7.85733C46.1008-7.81487 46.0711-7.70871 46.0711-7.59831L46.0711-6.58773C46.0754-5.91683 46.2622-5.44976 46.6189-5.22896C46.7208-5.16527 46.8184-5.05911 46.9246-5.04213C47.0095-5.0209 47.1029-5.09308 47.1921-5.13554C47.2303-5.15253 47.2643-5.22047 47.3025-5.22047C47.6082-5.2332 47.9139-5.2332 48.2197-5.2332C48.2324-5.2332 48.2494-5.22047 48.2621-5.2332C48.5594-5.47523 48.8651-5.25019 49.1623-5.21622C49.4723-5.18225 49.7738-4.93597 50.0795-4.76613C50.2408-4.67696 50.4022-4.59628 50.4871-4.27357C50.5381-4.08674 50.5423-4.02305 50.4192-4.00607C49.9224-3.93388 49.4256-3.84896 48.9245-3.78527C48.7802-3.76828 48.6443-3.71733 48.6443-3.43708C48.6443-3.29271 48.7462-3.14834 48.8056-3.01247L49.2005-2.12077L49.1283-1.98065C48.9245-2.18871 48.7165-2.40102 48.5084-2.60059C48.4235-2.68551 48.3258-2.80016 48.2366-2.8044C47.8545-2.8129 47.4808-2.77893 47.1029-2.77468C46.9543-2.77043 46.8057-2.80016 46.6528-2.80016C46.6146-2.80016 46.5764-2.7577 46.5424-2.78742L46.19-2.91905C45.931-3.01671 45.6592-3.06342 45.413-3.21628C45.0902-3.4201 44.776-3.70034 44.4661-3.95936C44.275-4.11647 44.0882-4.29905 43.9013-4.4604C43.8589-4.49862 43.8079-4.49862 43.7315-4.51985C43.8461-6.55376 44.1986-8.53247 44.2155-10.6343C44.1773-10.6173 44.1264-10.6216 44.1094-10.5834L43.3748-8.64711C43.2092-8.20976 43.0436-7.7724 42.8865-7.32656C42.8504-7.21687 42.843-7.1001 42.8653-6.98687C42.9006-6.88319 42.9152-6.7735 42.9077-6.66416C42.9006-6.55482 42.8716-6.44796 42.8228-6.34994C42.7616-6.23813 42.7234-6.11499 42.7103-5.98831C42.6972-5.86128 42.7092-5.73319 42.7464-5.61111C42.895-5.0676 43.0011-4.47314 43.1795-3.9636C43.3111-3.58145 43.5234-3.3012 43.7824-3.09314C44.3769-2.60908 45.0011-2.6473 45.6253-2.6473C45.9565-2.6473 46.1603-2.32034 46.3726-1.99339C46.4957-1.80231 46.3726-1.314 46.2027-1.28003C46.0584-1.24607 45.9055-1.23757 45.7611-1.21634C45.6677-1.2036 45.5658-1.2121 45.4766-1.16539C45.4002-1.12293 45.328-1.02527 45.2346-0.991296L45.2813-1.10594C45.2728-1.11443 45.2686-1.12717 45.2601-1.12717C44.9374-1.08471 44.6147-1.0465 44.292-0.995543C44.0712-0.957327 44.0287-0.808712 44.1349-0.456281L44.241-0.129327C44.3259 0.13818 44.2453 0.210365 44.1136 0.176396C43.7952 0.0914728 43.4767 0.0065497 43.1667-0.120835C42.9672-0.210004 42.7803-0.392589 42.585-0.52422C42.4109-0.638866 42.2241-0.719543 42.0542-0.851173C41.774-1.06348 41.5022-1.29702 41.2262-1.53056C41.1845-1.56948 41.1548-1.61973 41.1413-1.67493C40.9927-2.25665 40.8441-2.84262 40.7082-3.43283C40.653-3.67062 40.5893-3.9169 40.5681-4.16742C40.5256-4.78736 40.4237-5.43702 40.4832-6.03148C40.5681-6.91043 40.4917-7.86582 40.8101-8.66834C40.8738-8.8297 40.8823-9.07173 40.895-9.27554C40.912-9.66194 40.9205-10.0483 40.929-10.439C40.9333-10.7277 40.9205-10.991 40.6912-10.9655C40.6403-10.9613 40.5766-10.9952 40.5384-11.0504C40.377-11.301 40.1859-11.2203 39.9991-11.25C39.5957-11.3095 39.1923-11.4199 38.7847-11.4963C38.6955-11.5133 38.6021-11.4751 38.513-11.4963C38.3088-11.5465 38.1085-11.6116 37.9142-11.6916C37.5158-11.8558 37.122-12.0313 36.7338-12.2181C36.3347-12.4092 36.012-12.3965 35.6849-11.7765C35.2518-10.9655 34.7211-10.3159 34.2455-9.56428C33.9907-9.1609 33.7784-8.67259 33.5237-8.26496C33.0311-7.46668 32.5216-6.70237 32.0248-5.91259C31.7997-5.55591 31.528-5.2332 31.3793-4.79585C31.2222-4.33727 31.0524-4.26508 30.7891-4.3033C30.3985-4.3585 30.0078-4.3585 29.6172-4.37973C29.4643-4.38822 29.3624-4.75763 29.4558-5.11856C29.6681-5.96354 29.8805-6.82551 30.1352-7.62803C30.4919-8.72779 30.8995-9.76385 31.2689-10.8551C31.443-11.3816 31.5662-11.9591 31.719-12.5154C31.7445-12.5975 31.7801-12.6757 31.8252-12.7489C31.9101-12.8933 32.0205-13.0037 32.0715-13.1735C32.2413-13.7255 32.4112-14.2903 32.547-14.872C32.7169-15.6151 32.8867-16.3666 33.0056-17.1394C33.2137-18.4557 33.3878-19.7805 33.5619-21.1053C33.685-22.0055 33.7827-22.9099 33.8931-23.8101C33.9992-24.6381 34.1181-25.4619 34.22-26.2899C34.3134-27.0584 34.3814-27.8355 34.4748-28.6083C34.5342-29.0923 34.6192-29.5679 34.6913-30.0477C34.7083-30.1539 34.7083-30.2685 34.7296-30.3704C34.7508-30.4808 34.7975-30.5785 34.823-30.6847C34.8527-30.8035 34.8739-30.9267 34.8909-31.0498C34.9079-31.1432 34.9037-31.2536 34.9334-31.3343C35.4217-32.795 36.0459-34.0603 36.7678-35.1813C37.1882-35.8267 37.6128-36.4637 38.0416-37.0836C38.3261-37.4912 38.6276-37.8564 38.9163-38.2555C39.3749-38.8882 39.8165-39.5506 40.2794-40.1663C40.6318-40.6249 41.0097-41.024 41.3706-41.4699C41.6891-41.8733 41.999-42.3064 42.3218-42.7098C42.5256-42.9645 42.7379-43.1938 42.9502-43.4316C43.1285-43.6269 43.3026-43.835 43.4852-44.0133C43.7474-44.2755 44.0209-44.5261 44.3047-44.7649C44.6784-45.0749 45.0605-45.3509 45.4384-45.6396C45.9225-46.009 46.4023-46.3869 46.8821-46.7479C47.0562-46.8752 47.2473-46.9432 47.4171-47.0875C47.8842-47.4824 48.3513-47.9071 48.8184-48.3189C49.0859-48.5525 49.3534-48.7775 49.6166-49.0153C49.9054-49.2743 50.1941-49.5333 50.4744-49.8136C50.756-50.0914 51.0267-50.3804 51.2854-50.6798C51.7355-51.2063 52.1941-51.7201 52.6229-52.3018C52.8862-52.667 53.1197-53.1213 53.3363-53.5757C53.5274-53.9791 53.7099-54.4164 53.8331-54.8835C53.952-55.3336 53.9944-55.8431 54.0666-56.3272L54.2789-57.8303C54.2917-57.9195 54.2917-58.0171 54.3044-58.1106C54.3978-58.8324 54.4955-59.5458 54.5846-60.2676C54.6526-60.8366 54.729-61.4013 54.78-61.9746C54.8649-62.9512 54.9243-63.9363 55.0093-64.9171C55.0517-65.3885 55.1112-65.864 55.1961-66.3184C55.2555-66.6283 55.3744-66.9001 55.4551-67.1973C55.4763-67.2653 55.4594-67.3672 55.4594-67.4096L55.4594-67.4096Z"/>
   <path class="monochrome-1 multicolor-1:tintColor hierarchical-1:tertiary SFSymbolsPreviewWireframe" d="M46.4321-81.8365C52.4502-81.8377 58.4096-80.6532 63.9698-78.3508C69.53-76.0483 74.5822-72.6729 78.8374-68.4176C83.0928-64.1624 86.4682-59.1103 88.771-53.5496C91.0733-47.9892 92.2577-42.03 92.2566-36.0127C92.2566-10.693 71.744 9.83658 46.4328 9.83658C21.1173 9.83658 0.5835-10.6972 0.5835-36.0127C0.5835-61.3211 21.1145-81.8365 46.4321-81.8365ZM46.4328-75.0865C24.8413-75.0865 7.3335-57.592 7.3335-36.0127C7.3335-14.4252 24.8452 3.08658 46.4328 3.08658C68.0148 3.08658 85.5066-14.4197 85.5066-36.0133C85.5076-41.1447 84.4976-46.226 82.5345-50.9672C80.571-55.7085 77.693-60.0162 74.0644-63.6446C70.4361-67.273 66.1283-70.1511 61.3873-72.1143C56.6463-74.0776 51.5649-75.0875 46.4328-75.0865Z"/>
  </g>
  <g id="Ultralight-S" transform="matrix(1 0 0 1 515.649 696)">
   <path class="monochrome-0 multicolor-0:tintColor hierarchical-0:primary SFSymbolsPreviewWireframe" d="M53.3904-68.4096C53.488-68.6432 53.5687-68.847 53.6579-69.0466C53.9211-69.6538 54.1759-70.2695 54.4519-70.8597C54.6727-71.3267 54.902-71.7938 55.161-72.2015C55.3606-72.5157 55.5559-72.8808 55.8701-72.8893C56.4518-72.9063 57.0293-72.9785 57.611-73C57.9168-73.0082 58.163-72.7832 58.3584-72.3416C58.5155-71.9976 58.7745-72.0019 59.008-72.0231C59.4581-72.0656 59.9082-72.1378 60.3498-71.8703C60.5706-71.7344 60.7999-71.6367 61.0164-71.4669C61.1099-71.3904 61.1863-71.2036 61.25-71.0423C61.2712-70.9743 61.2542-70.7875 61.2245-70.7493C61.1353-70.6559 61.0292-70.5667 60.9273-70.5539C60.7235-70.5285 60.5154-70.5539 60.3116-70.5582C60.2988-70.5582 60.2776-70.5455 60.2734-70.5285C60.1757-70.1463 59.9592-70.1591 59.7723-70.0359C59.6789-69.9722 59.6025-69.7939 59.5048-69.6453C59.4072-69.7259 59.1227-69.4202 59.0802-69.0763C59.7001-69.0126 60.3201-68.9659 60.9358-68.8682C61.0377-68.8555 61.1268-68.6304 61.216-68.4946C61.2882-68.3799 61.4028-68.2525 61.233-68.0997C61.1484-68.0249 61.0607-67.9541 60.9697-67.8874C60.8508-67.7939 60.7277-67.7175 60.6088-67.6199C60.3749-67.4268 60.1442-67.2301 59.9167-67.0296C59.6534-66.7961 59.5558-66.4182 59.5345-65.9002C59.4921-65.0934 59.3774-64.3036 59.335-63.5011C59.2713-62.4013 58.9783-61.4417 58.7702-60.4311C58.6428-59.8027 58.439-59.2252 58.2649-58.6265C57.8913-57.3527 57.8191-55.9769 57.8488-54.5842C57.8658-53.8963 57.9592-53.2127 57.9932-52.5248C58.0144-52.0662 57.9847-51.6076 57.9932-51.149C58.0017-50.8688 58.0356-50.5928 58.0569-50.3125C58.0611-50.2206 58.0611-50.1285 58.0569-50.0365C58.0526-49.7648 57.9932-49.4548 58.0441-49.2213C58.18-48.6226 58.163-47.9984 58.18-47.3869C58.2182-45.9857 58.231-44.576 58.2225-43.1705C58.2225-42.1599 58.163-41.1493 58.1376-40.1345C58.1206-39.7141 58.1248-39.2938 58.1248-38.8691C58.1248-38.8139 58.1758-38.763 58.2097-38.6951C57.9422-38.3171 58.2692-37.8798 58.1758-37.4637C58.0696-37.5741 58.0102-37.5528 58.0314-37.3023C58.0356-37.2047 58.0059-37.0985 58.0144-37.0008C58.0187-36.9032 58.0526-36.814 58.0824-36.6781C57.8616-36.4064 57.9592-35.8714 57.8658-35.4467C57.7299-34.865 57.6195-34.2621 57.4964-33.6719C57.3138-32.7929 57.1567-31.8885 56.9359-31.0392C56.7232-30.1698 56.461-29.3135 56.1504-28.4746C55.8846-27.8185 55.5633-27.1866 55.1907-26.585C54.8128-25.9481 54.3924-25.3834 53.9891-24.7931C53.522-24.1053 53.0464-23.4301 52.5751-22.7465C52.3246-22.3856 52.0825-22.0077 51.8235-21.6722C51.3734-21.0905 50.9148-20.5258 50.4563-19.9695C50.1608-19.6043 49.8522-19.2501 49.5306-18.908C49.2504-18.6107 48.9446-18.3815 48.6601-18.0927C48.295-17.7191 47.9468-17.2987 47.5774-16.9293C46.5034-15.867 45.4019-14.8334 44.2739-13.8296C44.0488-13.6343 44.0106-13.2776 44.0064-12.9167C43.9936-12.0547 44.0021-11.197 43.9979-10.335C43.9979-10.0505 43.9766-9.77025 43.9809-9.49C43.9809-9.29468 44.0148-9.09936 44.0361-8.85733C44.0318-8.81487 44.0021-8.70871 44.0021-8.59831L44.0021-7.58773C44.0064-6.91683 44.1932-6.44976 44.5499-6.22896C44.6518-6.16527 44.7494-6.05911 44.8556-6.04213C44.9405-6.0209 45.0339-6.09308 45.1231-6.13554C45.1613-6.15253 45.1953-6.22047 45.2335-6.22047C45.5392-6.2332 45.8449-6.2332 46.1507-6.2332C46.1634-6.2332 46.1804-6.22047 46.1931-6.2332C46.4904-6.47523 46.7961-6.25019 47.0933-6.21622C47.4033-6.18225 47.7048-5.93597 48.0105-5.76613C48.1718-5.67696 48.3332-5.59628 48.4181-5.27357C48.4691-5.08674 48.4733-5.02305 48.3502-5.00607C47.8534-4.93388 47.3566-4.84896 46.8555-4.78527C46.7112-4.76828 46.5753-4.71733 46.5753-4.43708C46.5753-4.29271 46.6772-4.14834 46.7366-4.01247L47.1315-3.12077L47.0593-2.98065C46.8555-3.18871 46.6475-3.40102 46.4394-3.60059C46.3545-3.68551 46.2568-3.80016 46.1676-3.8044C45.7855-3.8129 45.4118-3.77893 45.0339-3.77468C44.8853-3.77044 44.7367-3.80016 44.5838-3.80016C44.5456-3.80016 44.5074-3.7577 44.4734-3.78742L44.121-3.91905C43.862-4.01671 43.5902-4.06342 43.344-4.21628C43.0212-4.4201 42.707-4.70034 42.3971-4.95936C42.206-5.11647 42.0192-5.29905 41.8323-5.4604C41.7899-5.49862 41.7389-5.49862 41.6625-5.51985C41.7771-7.55376 42.1296-9.53247 42.1465-11.6343C42.1083-11.6173 42.0574-11.6216 42.0404-11.5834L41.3058-9.64711C41.1402-9.20976 40.9746-8.7724 40.8175-8.32656C40.7814-8.21687 40.774-8.1001 40.7963-7.98687C40.8316-7.88319 40.8462-7.7735 40.8387-7.66416C40.8316-7.55482 40.8026-7.44796 40.7538-7.34994C40.6926-7.23813 40.6544-7.11499 40.6413-6.98831C40.6282-6.86128 40.6402-6.73319 40.6774-6.61111C40.826-6.0676 40.9321-5.47314 41.1105-4.9636C41.2421-4.58145 41.4544-4.3012 41.7134-4.09314C42.3079-3.60908 42.9321-3.6473 43.5563-3.6473C43.8875-3.6473 44.0913-3.32034 44.3036-2.99339C44.4267-2.80231 44.3036-2.314 44.1337-2.28003C43.9894-2.24607 43.8365-2.23757 43.6921-2.21634C43.5987-2.2036 43.4968-2.2121 43.4076-2.16539C43.3312-2.12293 43.259-2.02527 43.1656-1.9913L43.2123-2.10594C43.2038-2.11444 43.1996-2.12717 43.1911-2.12717C42.8684-2.08471 42.5457-2.0465 42.223-1.99554C42.0022-1.95733 41.9597-1.80871 42.0659-1.45628L42.172-1.12933C42.2569-0.86182 42.1763-0.789635 42.0446-0.823604C41.7262-0.908527 41.4077-0.99345 41.0977-1.12083C40.8982-1.21 40.7113-1.39259 40.516-1.52422C40.3419-1.63887 40.1551-1.71954 39.9852-1.85117C39.705-2.06348 39.4332-2.29702 39.1572-2.53056C39.1155-2.56948 39.0858-2.61973 39.0723-2.67493C38.9237-3.25665 38.7751-3.84262 38.6392-4.43284C38.584-4.67062 38.5203-4.9169 38.4991-5.16742C38.4566-5.78736 38.3547-6.43702 38.4142-7.03148C38.4991-7.91044 38.4227-8.86582 38.7411-9.66834C38.8048-9.8297 38.8133-10.0717 38.826-10.2755C38.843-10.6619 38.8515-11.0483 38.86-11.439C38.8643-11.7277 38.8515-11.991 38.6222-11.9655C38.5713-11.9613 38.5076-11.9952 38.4694-12.0504C38.308-12.301 38.1169-12.2203 37.9301-12.25C37.5267-12.3095 37.1233-12.4199 36.7157-12.4963C36.6265-12.5133 36.5331-12.4751 36.444-12.4963C36.2398-12.5465 36.0395-12.6116 35.8452-12.6916C35.4468-12.8558 35.053-13.0313 34.6648-13.2181C34.2657-13.4092 33.943-13.3965 33.6159-12.7765C33.1828-11.9655 32.6521-11.3159 32.1765-10.5643C31.9217-10.1609 31.7094-9.67259 31.4547-9.26496C30.9621-8.46668 30.4526-7.70237 29.9558-6.91259C29.7307-6.55591 29.459-6.2332 29.3103-5.79585C29.1532-5.33727 28.9834-5.26508 28.7201-5.3033C28.3295-5.3585 27.9388-5.3585 27.5482-5.37973C27.3953-5.38822 27.2934-5.75763 27.3868-6.11856C27.5991-6.96354 27.8115-7.82551 28.0662-8.62804C28.4229-9.72779 28.8305-10.7639 29.1999-11.8551C29.374-12.3816 29.4972-12.9591 29.65-13.5154C29.6755-13.5975 29.7111-13.6757 29.7562-13.7489C29.8411-13.8933 29.9515-14.0037 30.0025-14.1735C30.1723-14.7255 30.3422-15.2903 30.478-15.872C30.6479-16.6151 30.8177-17.3666 30.9366-18.1394C31.1447-19.4557 31.3188-20.7805 31.4929-22.1053C31.616-23.0055 31.7137-23.9099 31.8241-24.8101C31.9302-25.6381 32.0491-26.4619 32.151-27.2899C32.2444-28.0584 32.3124-28.8355 32.4058-29.6083C32.4652-30.0923 32.5502-30.5679 32.6223-31.0477C32.6393-31.1539 32.6393-31.2685 32.6606-31.3704C32.6818-31.4808 32.7285-31.5785 32.754-31.6847C32.7837-31.8035 32.8049-31.9267 32.8219-32.0498C32.8389-32.1432 32.8347-32.2536 32.8644-32.3343C33.3527-33.795 33.9769-35.0603 34.6988-36.1813C35.1192-36.8267 35.5438-37.4637 35.9726-38.0836C36.2571-38.4912 36.5586-38.8564 36.8473-39.2555C37.3059-39.8882 37.7475-40.5506 38.2104-41.1663C38.5628-41.6249 38.9407-42.024 39.3016-42.4699C39.6201-42.8733 39.93-43.3064 40.2528-43.7098C40.4566-43.9645 40.6689-44.1938 40.8812-44.4316C41.0595-44.6269 41.2336-44.835 41.4162-45.0133C41.6784-45.2755 41.9519-45.5261 42.2357-45.7649C42.6094-46.0749 42.9915-46.3509 43.3694-46.6396C43.8535-47.009 44.3333-47.3869 44.8131-47.7479C44.9872-47.8752 45.1783-47.9432 45.3481-48.0875C45.8152-48.4824 46.2823-48.9071 46.7494-49.3189C47.0169-49.5525 47.2844-49.7775 47.5476-50.0153C47.8364-50.2743 48.1251-50.5333 48.4054-50.8136C48.687-51.0914 48.9577-51.3804 49.2164-51.6798C49.6665-52.2063 50.1251-52.7201 50.5539-53.3018C50.8172-53.667 51.0507-54.1213 51.2673-54.5757C51.4584-54.9791 51.6409-55.4164 51.7641-55.8835C51.883-56.3336 51.9254-56.8431 51.9976-57.3272L52.2099-58.8303C52.2227-58.9195 52.2227-59.0171 52.2354-59.1106C52.3288-59.8324 52.4265-60.5458 52.5156-61.2676C52.5836-61.8366 52.66-62.4013 52.711-62.9746C52.7959-63.9512 52.8553-64.9363 52.9403-65.9171C52.9827-66.3885 53.0422-66.864 53.1271-67.3184C53.1865-67.6283 53.3054-67.9001 53.3861-68.1973C53.4073-68.2653 53.3904-68.3672 53.3904-68.4096L53.3904-68.4096Z"/>
   <path class="monochrome-1 multicolor-1:tintColor hierarchical-1:tertiary SFSymbolsPreviewWireframe" d="M44.3636-80.5865C50.0861-80.5876 55.7528-79.4613 61.04-77.272C66.3271-75.0826 71.1312-71.8729 75.1774-67.8265C79.2239-63.7803 82.4335-58.9764 84.6232-53.6889C86.8124-48.4015 87.9387-42.7349 87.9376-37.0127C87.9376-12.9352 68.432 6.58658 44.3638 6.58658C20.2909 6.58658 0.7645-12.9399 0.7645-37.0127C0.7645-61.0781 20.2877-80.5865 44.3636-80.5865ZM44.3638-78.3365C21.53-78.3365 3.0145-59.8351 3.0145-37.0127C3.0145-14.1825 21.5336 4.33658 44.3638 4.33658C67.1889 4.33658 85.6876-14.1774 85.6876-37.0129C85.6886-42.4398 84.6205-47.8138 82.5443-52.828C80.4678-57.8425 77.4239-62.3983 73.5865-66.2355C69.7491-70.073 65.1932-73.1168 60.1791-75.1931C55.1651-77.2695 49.791-78.3376 44.3638-78.3365Z"/>
  </g>
 </g>
</svg>
