<?xml version="1.0" encoding="UTF-8"?>
<svg width="3300px" height="2200px" viewBox="0 0 3300 2200" version="1.1" xmlns="http://www.w3.org/2000/svg" xmlns:xlink="http://www.w3.org/1999/xlink">
    <!-- Generator: Sketch 59.1 (86144) - https://sketch.com -->
    <title>filter</title>
    <desc>Created with Sketch.</desc>
    <g id="Page-1" stroke="none" stroke-width="1" fill="none" fill-rule="evenodd">
        <g id="filter">
            <g id="Notes">
                <rect id="artboard" fill="#FFFFFF" fill-rule="nonzero" x="0" y="0" width="3300" height="2200"></rect>
                <line x1="263" y1="292" x2="3036" y2="292" id="Path" stroke="#000000" stroke-width="0.5"></line>
                <text id="Weight/Scale-Variations" fill="#000000" font-family="Helvetica-Bold, Helvetica" font-size="13" font-weight="bold">
                    <tspan x="263" y="322">Weight/Scale Variations</tspan>
                </text>
                <text id="Ultralight" fill="#000000" font-family="Helvetica" font-size="13" font-weight="normal">
                    <tspan x="533.711" y="322">Ultralight</tspan>
                </text>
                <text id="Thin" fill="#000000" font-family="Helvetica" font-size="13" font-weight="normal">
                    <tspan x="843.422" y="322">Thin</tspan>
                </text>
                <text id="Light" fill="#000000" font-family="Helvetica" font-size="13" font-weight="normal">
                    <tspan x="1138.63" y="322">Light</tspan>
                </text>
                <text id="Regular" fill="#000000" font-family="Helvetica" font-size="13" font-weight="normal">
                    <tspan x="1426.84" y="322">Regular</tspan>
                </text>
                <text id="Medium" fill="#000000" font-family="Helvetica" font-size="13" font-weight="normal">
                    <tspan x="1723.06" y="322">Medium</tspan>
                </text>
                <text id="Semibold" fill="#000000" font-family="Helvetica" font-size="13" font-weight="normal">
                    <tspan x="2015.77" y="322">Semibold</tspan>
                </text>
                <text id="Bold" fill="#000000" font-family="Helvetica" font-size="13" font-weight="normal">
                    <tspan x="2326.48" y="322">Bold</tspan>
                </text>
                <text id="Heavy" fill="#000000" font-family="Helvetica" font-size="13" font-weight="normal">
                    <tspan x="2618.19" y="322">Heavy</tspan>
                </text>
                <text id="Black" fill="#000000" font-family="Helvetica" font-size="13" font-weight="normal">
                    <tspan x="2917.4" y="322">Black</tspan>
                </text>
                <line x1="263" y1="1903" x2="3036" y2="1903" id="Path" stroke="#000000" stroke-width="0.5"></line>
                <g id="Group" transform="translate(264.000000, 1918.000000)" fill="#000000" fill-rule="nonzero">
                    <path d="M8.24805,15.830078 C12.5547,15.830078 16.1387,12.25586 16.1387,7.94922 C16.1387,3.6426 12.5449,0.0684 8.23828,0.0684 C3.94141,0.0684 0.36719,3.6426 0.36719,7.94922 C0.36719,12.25586 3.95117,15.830078 8.24805,15.830078 Z M8.24805,14.345703 C4.70312,14.345703 1.87109,11.50391 1.87109,7.94922 C1.87109,4.3945 4.69336,1.5527 8.23828,1.5527 C11.793,1.5527 14.6348,4.3945 14.6445503,7.94922 C14.6543,11.50391 11.8027,14.345703 8.24805,14.345703 Z M8.22852,11.57227 C8.69727,11.57227 8.9707,11.25977 8.9707,10.74219 L8.9707,8.68164 L11.1973,8.68164 C11.6953,8.68164 12.0371,8.42773 12.0371,7.95898 C12.0371,7.48047 11.7148,7.2168 11.1973,7.2168 L8.9707,7.2168 L8.9707,4.9902 C8.9707,4.4727 8.69727,4.1504 8.22852,4.1504 C7.75977,4.1504 7.50586,4.4922 7.50586,4.9902 L7.50586,7.2168 L5.29883,7.2168 C4.78125,7.2168 4.44922,7.48047 4.44922,7.95898 C4.44922,8.42773 4.80078,8.68164 5.29883,8.68164 L7.50586,8.68164 L7.50586,10.74219 C7.50586,11.24023 7.75977,11.57227 8.22852,11.57227 Z" id="Shape"></path>
                </g>
                <g id="Group" transform="translate(282.506000, 1915.000000)" fill="#000000" fill-rule="nonzero">
                    <path d="M10.709,20.91016 C16.1582,20.91016 20.6699,16.39844 20.6699,10.94922 C20.6699,5.5098 16.1484,0.9883 10.6992,0.9883 C5.25977,0.9883 0.74805,5.5098 0.74805,10.94922 C0.74805,16.39844 5.26953,20.91016 10.709,20.91016 Z M10.709,19.25 C6.09961,19.25 2.41797,15.55859 2.41797,10.94922 C2.41797,6.3496 6.08984,2.6484 10.6992,2.6484 C15.3086,2.6484 19,6.3496 19.0098379,10.94922 C19.0195,15.55859 15.3184,19.25 10.709,19.25 Z M10.6895,15.58789 C11.207,15.58789 11.5195,15.22656 11.5195,14.66016 L11.5195,11.76953 L14.5762,11.76953 C15.123,11.76953 15.5039,11.48633 15.5039,10.96875 C15.5039,10.44141 15.1426,10.13867 14.5762,10.13867 L11.5195,10.13867 L11.5195,7.0723 C11.5195,6.4961 11.207,6.1445 10.6895,6.1445 C10.1719,6.1445 9.8789,6.5156 9.8789,7.0723 L9.8789,10.13867 L6.83203,10.13867 C6.26562,10.13867 5.89453,10.44141 5.89453,10.96875 C5.89453,11.48633 6.28516,11.76953 6.83203,11.76953 L9.8789,11.76953 L9.8789,14.66016 C9.8789,15.20703 10.1719,15.58789 10.6895,15.58789 Z" id="Shape"></path>
                </g>
                <g id="Group" transform="translate(306.924000, 1913.000000)" fill="#000000" fill-rule="nonzero">
                    <path d="M12.9707,25.67383 C19.9336,25.67383 25.6953,19.921875 25.6953,12.95898 C25.6953,5.9961 19.9238,0.2441 12.9609,0.2441 C6.00781,0.2441 0.25586,5.9961 0.25586,12.95898 C0.25586,19.921875 6.01758,25.67383 12.9707,25.67383 Z M12.9707,23.85742 C6.93555,23.85742 2.08203,18.99414 2.08203,12.95898 C2.08203,6.9238 6.92578,2.0605 12.9609,2.0605 C19.0059,2.0605 23.8594,6.9238 23.8691295,12.95898 C23.8789,18.99414 19.0156,23.85742 12.9707,23.85742 Z M12.9512,18.93555 C13.5176,18.93555 13.8691,18.54492 13.8691,17.93945 L13.8691,13.86719 L18.1074,13.86719 C18.6934,13.86719 19.1133,13.53516 19.1133,12.97852 C19.1133,12.40234 18.7227,12.06055 18.1074,12.06055 L13.8691,12.06055 L13.8691,7.8125 C13.8691,7.1973 13.5176,6.8066 12.9512,6.8066 C12.3848,6.8066 12.0625,7.2168 12.0625,7.8125 L12.0625,12.06055 L7.83398,12.06055 C7.21875,12.06055 6.80859,12.40234 6.80859,12.97852 C6.80859,13.53516 7.23828,13.86719 7.83398,13.86719 L12.0625,13.86719 L12.0625,17.93945 C12.0625,18.52539 12.3848,18.93555 12.9512,18.93555 Z" id="Shape"></path>
                </g>
                <text id="Design-Variations" fill="#000000" font-family="Helvetica-Bold, Helvetica" font-size="13" font-weight="bold">
                    <tspan x="263" y="1953">Design Variations</tspan>
                </text>
                <text id="Symbols-are-supported-in-up-to-nine-weights-and-three-scales." fill="#000000" font-family="Helvetica" font-size="13" font-weight="normal">
                    <tspan x="263" y="1971">Symbols are supported in up to nine weights and three scales.</tspan>
                </text>
                <text id="For-optimal-layout-with-text-and-other-symbols,-vertically-align" fill="#000000" font-family="Helvetica" font-size="13" font-weight="normal">
                    <tspan x="263" y="1989">For optimal layout with text and other symbols, vertically align</tspan>
                </text>
                <text id="symbols-with-the-adjacent-text." fill="#000000" font-family="Helvetica" font-size="13" font-weight="normal">
                    <tspan x="263" y="2007">symbols with the adjacent text.</tspan>
                </text>
                <rect id="Rectangle" fill="#00AEEF" fill-rule="nonzero" opacity="0.4" x="776" y="1919" width="3" height="14"></rect>
                <g id="Group" transform="translate(779.000000, 1918.000000)" fill="#000000" fill-rule="nonzero">
                    <path d="M10.5273,15 L12.373,15 L7.17773,0.9082 L5.43945,0.9082 L0.244141,15 L2.08984,15 L3.50586,10.9668 L9.11133,10.9668 L10.5273,15 Z M6.2793,3.0469 L6.33789,3.0469 L8.59375,9.47266 L4.02344,9.47266 L6.2793,3.0469 Z" id="Shape"></path>
                </g>
                <rect id="Rectangle" fill="#00AEEF" fill-rule="nonzero" opacity="0.4" x="791.617" y="1919" width="3" height="14"></rect>
                <text id="Margins" fill="#000000" font-family="Helvetica-Bold, Helvetica" font-size="13" font-weight="bold">
                    <tspan x="776" y="1953">Margins</tspan>
                </text>
                <text id="Leading-and-trailing-margins-on-the-left-and-right-side-of-each-symbol" fill="#000000" font-family="Helvetica" font-size="13" font-weight="normal">
                    <tspan x="776" y="1971">Leading and trailing margins on the left and right side of each symbol</tspan>
                </text>
                <text id="can-be-adjusted-by-modifying-the-width-of-the-blue-rectangles." fill="#000000" font-family="Helvetica" font-size="13" font-weight="normal">
                    <tspan x="776" y="1989">can be adjusted by modifying the width of the blue rectangles.</tspan>
                </text>
                <text id="Modifications-are-automatically-applied-proportionally-to-all" fill="#000000" font-family="Helvetica" font-size="13" font-weight="normal">
                    <tspan x="776" y="2007">Modifications are automatically applied proportionally to all</tspan>
                </text>
                <text id="scales-and-weights." fill="#000000" font-family="Helvetica" font-size="13" font-weight="normal">
                    <tspan x="776" y="2025">scales and weights.</tspan>
                </text>
                <g id="Group" transform="translate(1291.000000, 1915.000000)" fill="#000000" fill-rule="nonzero">
                    <path d="M0.83203,21.11523 L2.375,22.6582 C3.22461,23.48828 4.19141,23.41992 5.06055,22.46289 L15.2754,11.33984 C15.7051,11.63281 16.0957,11.62305 16.5645,11.52539 L17.6094,11.31055 L18.3027,12.00391 L18.2539,12.52148 C18.1855,13.04883 18.3516,13.46875 18.8496,13.9668 L19.6602,14.77734 C20.168,15.28516 20.8223,15.31445 21.3008,14.83594 L24.5527,11.58398 C25.0312,11.10547 25.0117,10.45117 24.5039,9.94336 L23.6836,9.12305 C23.1855,8.625 22.7754,8.44922 22.2383,8.52734 L21.7109,8.58594 L21.0566,7.9219 L21.3398,6.7793 C21.4863,6.2129 21.3398,5.7441 20.7148,5.1387 L18.3027,2.7461 C14.7578,-0.7793 10.2266,-0.6719 7.11133,2.4629 C6.69141,2.8926 6.64258,3.4785 6.91602,3.9082 C7.15039,4.2793 7.62891,4.5039 8.2734,4.3379 C9.7871,3.957 11.3008,4.0742 12.7852,5.0801 L12.1602,6.6621 C11.9258,7.248 11.9453,7.7266 12.1797,8.16602 L1.01758,18.439453 C0.08008,19.30859 -0.02734,20.25586 0.83203,21.11523 Z M8.6738,2.8535 C11.3398,0.8613 14.6504,1.1738 17.0527,3.5859 L19.6797,6.1934 C19.9141,6.4277 19.9434,6.6133 19.8848,6.9062 L19.5039,8.46875 L21.0762,10.04102 L22.043,9.95312 C22.3262,9.92383 22.4141,9.94336 22.6387,10.16797 L23.2637,10.79297 L20.5098,13.53711 L19.8848,12.92188 C19.6602,12.69727 19.6406,12.59961 19.6699,12.31641 L19.7578,11.35938 L18.1953,9.79688 L16.5742,10.10938 C16.291,10.16797 16.1445,10.16797 15.9102,9.92383 L13.7324,7.7461 C13.5078,7.5117 13.4785,7.375 13.6055,7.0527 L14.5527,4.7773 C12.9512,3.2441 10.8418,2.3945 8.8008,3.0488 C8.7129,3.0781 8.6445,3.0586 8.6152,3.0195 C8.5859,2.9707 8.5859,2.9219 8.6738,2.8535 Z M2.10156,20.41211 C1.61328,19.91406 1.78906,19.61133 2.12109,19.30859 L13.0781,9.19141 L14.3086,10.42188 L4.15234,21.34961 C3.84961,21.68164 3.46875,21.7793 3.06836,21.37891 L2.10156,20.41211 Z" id="Shape"></path>
                </g>
                <text id="Exporting" fill="#000000" font-family="Helvetica-Bold, Helvetica" font-size="13" font-weight="bold">
                    <tspan x="1289" y="1953">Exporting</tspan>
                </text>
                <text id="Symbols-should-be-outlined-when-exporting-to-ensure-the" fill="#000000" font-family="Helvetica" font-size="13" font-weight="normal">
                    <tspan x="1289" y="1971">Symbols should be outlined when exporting to ensure the</tspan>
                </text>
                <text id="design-is-preserved-when-submitting-to-Xcode." fill="#000000" font-family="Helvetica" font-size="13" font-weight="normal">
                    <tspan x="1289" y="1989">design is preserved when submitting to Xcode.</tspan>
                </text>
                <text id="Template-v.1.0" fill="#000000" font-family="Helvetica" font-size="13" font-weight="normal">
                    <tspan x="2952" y="1933">Template v.1.0</tspan>
                </text>
                <text id="Generated-from-circle" fill="#000000" font-family="Helvetica" font-size="13" font-weight="normal">
                    <tspan x="2911" y="1951">Generated from circle</tspan>
                </text>
                <text id="Typeset-at-100-points" fill="#000000" font-family="Helvetica" font-size="13" font-weight="normal">
                    <tspan x="2912" y="1969">Typeset at 100 points</tspan>
                </text>
                <text id="Small" fill="#000000" font-family="Helvetica" font-size="13" font-weight="normal">
                    <tspan x="263" y="726">Small</tspan>
                </text>
                <text id="Medium" fill="#000000" font-family="Helvetica" font-size="13" font-weight="normal">
                    <tspan x="263" y="1156">Medium</tspan>
                </text>
                <text id="Large" fill="#000000" font-family="Helvetica" font-size="13" font-weight="normal">
                    <tspan x="263" y="1586">Large</tspan>
                </text>
            </g>
            <g id="Guides" transform="translate(263.000000, 625.000000)">
                <g id="H-reference" transform="translate(76.000000, 0.000000)" fill="#27AAE1" fill-rule="nonzero">
                    <path d="M54.9316,71 L57.666,71 L30.5664,0.541 L28.0762,0.541 L0.976562,71 L3.66211,71 L12.9395,46.5371 L45.7031,46.5371 L54.9316,71 Z M29.1992,3.9102 L29.4434,3.9102 L44.8242,44.291 L13.8184,44.291 L29.1992,3.9102 Z" id="Shape"></path>
                </g>
                <line x1="0" y1="71" x2="2773" y2="71" id="Baseline-S" stroke="#27AAE1" stroke-width="0.577"></line>
                <line x1="0" y1="0.541" x2="2773" y2="0.541" id="Capline-S" stroke="#27AAE1" stroke-width="0.577"></line>
                <g id="H-reference" transform="translate(76.000000, 430.000000)" fill="#27AAE1" fill-rule="nonzero">
                    <path d="M54.9316,71 L57.666,71 L30.5664,0.541 L28.0762,0.541 L0.976562,71 L3.66211,71 L12.9395,46.5371 L45.7031,46.5371 L54.9316,71 Z M29.1992,3.9102 L29.4434,3.9102 L44.8242,44.291 L13.8184,44.291 L29.1992,3.9102 Z" id="Shape"></path>
                </g>
                <line x1="0" y1="501" x2="2773" y2="501" id="Baseline-M" stroke="#27AAE1" stroke-width="0.577"></line>
                <line x1="0" y1="430.54" x2="2773" y2="430.54" id="Capline-M" stroke="#27AAE1" stroke-width="0.577"></line>
                <g id="H-reference" transform="translate(76.000000, 860.000000)" fill="#27AAE1" fill-rule="nonzero">
                    <path d="M54.9316,71 L57.666,71 L30.5664,0.541 L28.0762,0.541 L0.976562,71 L3.66211,71 L12.9395,46.5371 L45.7031,46.5371 L54.9316,71 Z M29.1992,3.9102 L29.4434,3.9102 L44.8242,44.291 L13.8184,44.291 L29.1992,3.9102 Z" id="Shape"></path>
                </g>
                <line x1="0" y1="931" x2="2773" y2="931" id="Baseline-L" stroke="#27AAE1" stroke-width="0.577"></line>
                <line x1="0" y1="860.54" x2="2773" y2="860.54" id="Capline-L" stroke="#27AAE1" stroke-width="0.577"></line>
                <rect id="left-margin" fill="#00AEEF" fill-rule="nonzero" opacity="0.4" x="1128.3" y="405.79" width="8.74023" height="119.336"></rect>
                <rect id="right-margin" fill="#00AEEF" fill-rule="nonzero" opacity="0.4" x="1236.65" y="405.79" width="8.74023" height="119.336"></rect>
            </g>
            <g id="Symbols" transform="translate(1399.000000, 1040.000000)" fill="#000000" fill-rule="nonzero">
                <g id="Regular-M" transform="translate(0.300000, 0.000000)">
                    <!-- <path d="M50.5449,100.5508 C77.791,100.5508 100.35,77.99219 100.35,50.7461 C100.35,23.5488 77.7422,0.9414 50.4961,0.9414 C23.2988,0.9414 0.74023,23.5488 0.74023,50.7461 C0.74023,77.99219 23.3477,100.5508 50.5449,100.5508 Z M50.1551,92.0078 C27.1082,92.0078 8.7,73.5508 8.7,50.5039 C8.7,27.5058 27.0594,9 50.1063,9 C73.1532,9 91.6102,27.5058 91.6593938,50.5039 C91.7082,73.5508 73.202,92.0078 50.1551,92.0078 Z" id="Shape"></path> -->
                    <path d="M74.6828571,80.6793083 C74.5328571,80.7821631 74.3828571,80.9321598 74.2285714,80.9793017 C73.8,81.099299 73.4142857,80.670737 73.0157143,80.3836005 C72.6685714,80.1307489 72.33,79.8307556 71.94,79.792185 C71.226554,79.7606788 70.5586092,79.4329271 70.0971429,78.8879192 C69.66,78.3865017 69.1328571,78.2665043 68.6485714,77.9793678 C68.5114286,77.897941 68.3785714,77.807943 68.2457143,77.7565156 C68.0871429,77.6965169 67.9242857,77.6750888 67.7657143,77.627947 C67.6842857,77.6065189 67.5942857,77.6108045 67.5214286,77.5336634 C67.2857143,77.2765262 67.0585714,76.9765328 66.8228571,76.7279668 C66.4652064,76.3582558 66.0949891,76.000911 65.7128571,75.6565619 C65.4557143,75.4251384 65.1942857,75.2537136 64.9328571,75.0522895 C64.7485714,74.9065784 64.5728571,74.7394393 64.3842857,74.6151563 C63.6128571,74.0923107 62.8414286,73.5523226 62.0657143,73.08519 C61.6628571,72.8409097 61.2428571,72.725198 60.8314286,72.5623444 C60.7671429,72.5366307 60.6942857,72.5537732 60.63,72.5837725 C60.233288,72.7642955 59.7760484,72.7548356 59.3871429,72.5580588 C59.2414286,72.4852033 59.1128571,72.2709223 58.9757143,72.1294968 C58.6457143,71.778076 58.32,71.383799 57.9771429,71.0923769 C57.5614286,70.740956 57.12,70.9295233 56.7,71.0366638 C56.2071429,71.1566611 55.7142857,71.3795134 55.2257143,71.5595094 C54.99,71.6452218 54.7457143,71.7180773 54.51,71.8166466 C54.1457143,71.9709289 53.7814286,72.1466393 53.4171429,72.3009216 C53.3314286,72.3394922 53.2457143,72.3266353 53.16,72.3523491 L52.7442857,72.4937745 C52.7271429,72.5023458 52.71,72.5194882 52.6928571,72.5237739 C52.2771429,72.6223431 51.8657143,72.7166267 51.45,72.8237672 C51.1242857,72.9094796 50.7985714,73.0209057 50.4728571,73.1066181 C50.0442857,73.2180443 49.6157143,73.299471 49.1871429,73.423754 C48.8357143,73.5266089 48.4885714,73.6851768 48.1371429,73.7966029 C47.9314286,73.8608872 47.7214286,73.8737441 47.5157143,73.9208859 C47.3442857,73.9551709 47.1814286,74.0237408 47.0142857,74.0494545 C46.8385714,74.0708826 46.6585714,74.0451689 46.4828571,74.0708826 C46.2814286,74.1008819 46.08,74.1651662 45.8785714,74.212308 C45.8528571,74.2165937 45.8357143,74.2337361 45.81,74.2294505 C45.4671429,74.1651662 45.1285714,74.0751682 44.7857143,74.032312 C44.49,73.9937414 44.1942857,74.0237408 43.8985714,73.9894558 C43.7571429,73.9808846 43.62,73.8951722 43.4785714,73.8437447 C43.4357143,73.8266023 43.4014286,73.7923173 43.3628571,73.7880317 L42.78,73.7366042 C42.3942857,73.6980337 42.0085714,73.6680343 41.6228571,73.6123213 C41.5328571,73.5994644 41.4514286,73.4880383 41.3614286,73.4366109 C41.1257143,73.2908998 40.89,73.1023325 40.65,73.029477 C40.41,72.9523358 40.1614286,73.029477 39.9214286,72.9651927 C39.5657143,72.8751947 39.2142857,72.7123411 38.8628571,72.5837725 C38.7857143,72.5580588 38.7085714,72.510917 38.6357143,72.5409163 C38.2457143,72.6951986 37.8642857,72.1123544 37.4742857,72.4552039 C37.4442857,72.4852033 37.3971429,72.4166334 37.3585714,72.3952053 C37.2385714,72.3266353 37.1142857,72.1809243 36.9942857,72.1980668 C36.6942857,72.240923 36.3942857,72.3694915 36.09,72.4509183 C35.9014286,72.5023458 35.7085714,72.4980601 35.5242857,72.5794869 C35.37,72.6437712 35.2242857,72.8194816 35.0571429,72.6480568 C35.0057143,72.5966294 34.92,72.6823418 34.8514286,72.7123411 C34.8085714,72.7294836 34.7657143,72.8109104 34.7357143,72.7851967 C34.5171429,72.5709157 34.3157143,72.8580522 34.11,72.8966228 C33.9471429,72.9309077 33.78,72.8323385 33.6171429,72.7680542 C33.3128571,72.6609137 33.0042857,72.5666301 32.7042857,72.3994909 C32.4728571,72.2709223 32.2542857,72.0480701 32.0314286,71.8637884 C32.0228571,71.8595028 32.0142857,71.8423603 32.0057143,71.8423603 C31.5771429,71.7137917 31.2428571,71.1309474 30.8785714,70.7109567 C30.6,70.3895352 30.3471429,69.952402 30.0857143,69.558125 C30.0406946,69.486916 30.0128201,69.4062286 30.0042857,69.3224159 C29.9742857,68.8509977 29.8071429,68.6367167 29.6785714,68.3367233 C29.2792993,67.4318437 29.0025712,66.4777291 28.8557143,65.4996431 C28.7871429,65.0625098 28.7957143,64.5696636 28.7357143,64.1282447 C28.6157143,63.2668352 28.71,62.4311393 28.7614286,61.5911578 C28.7785714,61.3125925 28.8214286,61.025456 28.8814286,60.7811757 C29.0314286,60.1897602 29.1985714,59.6240584 29.3528571,59.0412141 C29.4471429,58.7069357 29.3957143,58.4155136 29.2242857,58.342658 C28.7228571,58.1283771 28.2214286,57.9398098 27.7242857,57.7169576 C27.4928571,57.6183883 27.27,57.4512491 27.0428571,57.3269662 C26.46,57.0012591 25.8814286,56.641267 25.29,56.371273 C24.9428571,56.2084194 24.5828571,56.1655632 24.2228571,56.1012789 C23.8671429,56.0369946 23.5028571,56.0155665 23.1428571,55.9684247 C22.6242857,55.8955692 22.1014286,55.8398561 21.5785714,55.7370012 C21.3214286,55.6855738 21.0728571,55.5527196 20.82,55.4327222 C20.7728571,55.4070085 20.7042857,55.2784399 20.7,55.1970131 C20.7,55.0813014 20.7428571,54.9098766 20.7857143,54.8584492 C20.8880878,54.7378885 21.0133633,54.6388357 21.1542857,54.567027 C21.7971429,54.2756049 22.44,53.9884684 23.0828571,53.7313312 C23.3528571,53.6241907 23.64,53.6027626 23.9142857,53.5256214 C24.6814286,53.3113404 25.4442857,53.1099163 26.2114286,52.8742072 C26.6914286,52.7284961 27.1714286,52.5313576 27.6514286,52.3642185 C27.84,52.2999342 28.0371429,52.257078 28.2257143,52.2056505 C28.7828571,52.0513682 29.2757143,51.5028089 29.7557143,50.8771084 C30.1544395,50.3568688 30.5748089,49.8535805 31.0157143,49.3685703 C31.1442857,49.2271448 31.3157143,49.3000003 31.4571429,49.1885742 C31.6628571,49.0257207 31.8514286,49.0085782 32.0657143,49.1757174 C32.22,49.2957147 32.4085714,49.1885742 32.5714286,49.2614298 C32.82,49.3685703 33.06,49.5485663 33.3042857,49.698563 C33.3214286,49.7071342 33.3342857,49.7499904 33.3514286,49.754276 L34.1228571,50.0885544 C34.2096095,50.1235153 34.2872803,50.1777371 34.35,50.2471223 C34.8214286,50.7956816 35.3014286,51.3056704 35.6914286,52.1413662 C35.7514286,52.2656492 35.9057143,52.2785061 35.9914286,52.1970793 C36.2485714,51.9570846 36.5228571,51.7728029 36.6942857,51.1899587 C36.75,51.005677 36.8785714,50.9113934 36.9814286,50.8213954 C37.2942857,50.5514013 37.4185714,49.8914159 37.3242857,49.1885742 C37.1871429,48.177168 37.0885714,47.1486192 36.9642857,46.1286417 C36.93,45.8200771 36.8614286,45.5286549 36.8142857,45.2286616 C36.6814286,44.4143938 36.5914286,43.5572698 36.4157143,42.7987151 C36.2014286,41.8730213 36.0171429,40.8744719 35.6357143,40.1759158 C35.55,40.0216335 35.5028571,39.768782 35.4471429,39.5502154 C35.3185714,38.9845136 35.04,38.855945 34.8257143,39.2930782 C34.5557143,39.8544944 34.2514286,40.2444858 33.8742857,40.2359145 C33.66,40.2359145 33.4457143,40.2102008 33.2357143,40.1759158 C32.9871429,40.1416309 32.7342857,40.0559185 32.4814286,40.0559185 C32.3828571,40.0559185 32.2414286,40.1673446 32.19,40.3344838 C31.9885714,40.9773267 31.71,41.1230378 31.3928571,41.0716104 C31.0757143,41.0201829 30.7457143,41.0030405 30.4414286,40.7973307 C30.0171429,40.5144798 29.61,40.0902035 29.2028571,39.6830696 C28.95,39.430218 28.8642857,39.4987879 28.8342857,40.1159172 C28.8128571,40.5144798 28.6971429,40.6516196 28.5471429,40.5873353 C28.2062799,40.4348001 27.8743208,40.2631009 27.5528571,40.073061 C27.3856367,39.9692321 27.2316513,39.8454708 27.0942857,39.7044977 C26.9057143,39.5245016 26.7214286,39.3102207 26.5371429,39.1045109 C26.2157143,38.7359476 25.9542857,38.088819 25.5685714,37.9773929 C25.4785714,37.9473936 25.3671429,37.9345367 25.29,38.0288203 C25.0285714,38.3588131 24.7842857,38.2645294 24.5314286,37.9773929 C24.3685714,37.7888256 24.1885714,37.660257 24.0342857,37.4416904 C23.82,37.1331258 23.6228571,36.7217063 23.4042857,36.4259986 C22.9285714,35.7831556 22.6457143,34.7117506 22.2685714,33.8631979 C21.99,33.2374974 21.8271429,32.363231 21.5828571,31.6475325 C21.2657143,30.7218386 21.2485714,29.590435 21.1114286,28.5404582 C20.9442857,27.2033448 21.06,25.8748027 21.18,24.5505462 C21.2271429,24.0148437 21.24,23.4577131 21.3171429,22.9477244 C21.36,22.647731 21.5014286,22.4077363 21.6042857,22.1505991 C21.6385714,22.0648867 21.7114286,22.0220305 21.7285714,21.9363181 C21.8571429,21.1306216 22.1785714,21.182049 22.4571429,21.1049079 C22.7575782,21.0181838 23.0708959,20.984822 23.3828571,21.0063386 C23.6142857,21.0191955 23.85,21.1777634 24.0857143,21.2206196 C24.2142857,21.2463333 24.3471429,21.1563353 24.48,21.1349072 C24.5679214,21.1105805 24.6601648,21.106188 24.75,21.1220504 C25.0842857,21.2077628 25.4228571,21.3020464 25.7571429,21.4134725 C25.9242857,21.4691856 26.0828571,21.6363247 26.2457143,21.6491816 C26.7128571,21.6920378 27.1457143,22.0091737 27.5742857,22.3477376 C27.93,22.6177317 28.2942857,22.8320126 28.6542857,23.042008 C29.34,23.4405707 30.0257143,23.8219908 30.7114286,24.1991254 C31.0114286,24.3619789 31.32,24.4948331 31.6242857,24.6448298 C31.6971429,24.6834004 31.77,24.7562559 31.8385714,24.8033977 C32.0657143,24.9533944 32.2885714,25.1076767 32.5157143,25.2448166 C32.8585714,25.4590976 33.21,25.6519505 33.5571429,25.8662314 C34.0971429,26.1962242 34.6414286,26.5433594 35.1857143,26.8647808 C35.5114286,27.0576337 35.8457143,27.1862023 36.1671429,27.3961977 C36.6557143,27.7176192 37.1357143,28.1076106 37.6285714,28.4247464 C37.98,28.6475987 38.3442857,28.7461679 38.6914286,28.981877 C39.0514286,29.2175861 39.3942857,29.5732925 39.75,29.839001 C40.1914286,30.1732793 40.6414286,30.4561302 41.0828571,30.7775517 C41.2885714,30.9232628 41.4857143,31.1032588 41.6914286,31.2618267 C41.7857143,31.3389679 41.8842857,31.3861097 41.9785714,31.4632509 C42.1928571,31.6346757 42.4071429,31.8103861 42.6214286,32.0075246 C43.0157143,32.3675166 43.4014286,32.7617937 43.7957143,33.1132145 C44.0614286,33.3489236 44.3357143,33.5332052 44.61,33.7474862 C44.8157143,33.9060541 45.0342857,34.0174802 45.2228571,34.2531893 C45.5657143,34.6731801 45.8828571,35.1788832 46.2171429,35.6288733 C46.3056251,35.7663352 46.422535,35.8832426 46.56,35.9717229 C47.04,36.2117176 47.2885714,37.085984 47.6014286,37.7931113 C47.85,38.3588131 48.0771429,38.9759423 48.3171429,39.5673578 C48.3514286,39.644499 48.3985714,39.6916408 48.4371429,39.7559251 C48.5228571,39.8844937 48.6128571,40.0044911 48.6857143,40.1587734 C48.7928571,40.3859112 48.8914286,40.6387628 48.9857143,40.8830431 C49.1528571,41.2858914 49.3114286,41.7058821 49.4785714,42.1001591 C49.5557143,42.2801552 49.6671429,42.3915813 49.7485714,42.5715773 C49.9628571,43.0301386 50.1771429,43.510128 50.3828571,43.9901174 C50.4814286,44.2215409 50.5457143,44.1443998 50.6185714,43.9172619 C50.7428571,43.5401274 50.8671429,43.1544216 51.0042857,42.811572 C51.4028571,41.8558788 51.8057143,40.9258993 52.2042857,39.9787773 C52.4571429,39.3787906 52.7357143,38.82166 52.9414286,38.1573889 C53.1985714,37.3431212 53.4257143,36.4602835 53.5971429,35.5431609 C53.7471429,34.7246075 53.8457143,33.828913 53.8842857,32.9503609 C53.9271429,31.8146717 53.8757143,30.66184 53.8971429,29.5175795 C53.91,28.8318803 54.0557143,28.2704641 54.3514286,27.9618995 C54.7842857,27.5161951 55.2128571,27.0447769 55.6542857,26.6290718 C55.8257143,26.4662182 56.0142857,26.4147908 56.1985714,26.3119359 C56.43,26.1833673 56.6657143,26.0376562 56.9014286,25.9133733 C57.5442857,25.5705237 58.1914286,25.330529 58.8642857,25.4033845 C59.5242857,25.47624 60.18,25.4162414 60.8357143,25.4033845 C61.0628571,25.4033845 61.29,25.330529 61.5128571,25.3476715 C61.9928571,25.3776708 62.4728571,25.4590976 62.9528571,25.4933825 C63.2528571,25.5148106 63.5528571,25.4676688 63.8528571,25.4805257 C64.0114286,25.4848113 64.1742857,25.5576668 64.3328571,25.5919518 L66.84,26.1405111 C67.14,26.2047954 67.44,26.2347947 67.74,26.3162215 C68.1942857,26.4447901 68.6485714,26.6162149 69.1028571,26.7490691 C69.33,26.817639 69.5614286,26.8219247 69.7885714,26.9033514 C69.9728571,26.9676357 70.1528571,27.1262037 70.3371429,27.2033448 C70.68,27.3490559 71.0228571,27.460482 71.3657143,27.5890506 C72.0342857,27.8376165 72.7028571,28.0733256 73.3757143,28.3304628 C73.6457143,28.4333177 73.9114286,28.5747431 74.1814286,28.6947405 C74.4685714,28.8233091 74.7642857,28.9175927 75.0471429,29.0804463 C75.4285714,29.3032985 75.8014286,29.5947206 76.1785714,29.8304297 C76.2857143,29.8989996 76.4014286,29.8732859 76.5128571,29.9247134 C76.5857143,29.9632839 76.6542857,30.0618532 76.7271429,30.1218519 C76.8471429,30.2161355 76.9628571,30.3147048 77.0828571,30.3875603 C77.3828571,30.5718419 77.6871429,30.7432667 77.9914286,30.9061203 C78.2485714,31.0518314 78.5142857,31.2189705 78.78,31.3046829 C79.4657143,31.5189639 80.04,32.3332317 80.6485714,32.9632178 C80.6791121,33.0059667 80.696941,33.0564807 80.7,33.1089289 C80.6914286,33.1732131 80.6571429,33.2589255 80.6314286,33.2632112 C80.52,33.276068 80.4042857,33.2417831 80.2928571,33.2717824 C80.1085714,33.3189242 79.9242857,33.4260647 79.7357143,33.4732065 C79.5,33.5289196 79.2642857,33.5374908 79.0242857,33.5846326 C78.7114286,33.6403457 78.4028571,33.7132012 78.09,33.7731999 C78.0685714,33.7774855 78.0471429,33.8160561 78.0257143,33.8074849 C77.8028571,33.6917731 77.5971429,33.8246274 77.3828571,33.9531959 C77.1128571,34.1117639 76.8257143,34.1246207 76.5514286,34.1931907 C76.1357143,34.3046168 75.72,34.403186 75.3085714,34.5317546 C75.0214286,34.617467 74.7428571,34.7588925 74.4557143,34.8531761 C74.1042857,34.9688878 73.7485714,35.0417434 73.3971429,35.170312 C73.1228571,35.2731668 72.8528571,35.4488772 72.5785714,35.5560177 C72.2485714,35.6845863 71.9142857,35.744585 71.5928571,35.8902961 C70.9757143,36.1645757 70.3585714,36.4174273 69.8057143,37.1331258 C69.7323087,37.2787723 69.6886038,37.4375633 69.6771429,37.6002584 C69.5957143,38.1702458 69.5314286,38.7530901 69.4628571,39.3316488 C69.3642857,40.1802015 69.27,41.0287542 69.1628571,41.8730213 C69.1414286,42.0701598 69.0685714,42.2330133 69.03,42.417295 C68.9357143,42.845857 68.8928571,43.4029875 68.7471429,43.6815528 C68.3185714,44.4786781 68.1471429,45.7772209 67.6414286,46.4200638 C67.5128571,46.587203 67.4357143,46.9771944 67.3285714,47.2429028 C67.1228571,47.748606 66.9042857,48.2371666 66.7028571,48.7428698 C66.5957143,49.0128638 66.51,49.3257141 66.4028571,49.5871369 C66.2828571,49.878559 66.1457143,50.1399818 66.0128571,50.4014046 C65.8842857,50.6499706 65.7428571,50.8728228 65.6142857,51.1256744 C65.2842857,51.7642317 64.9542857,52.3942178 64.7357143,53.259913 C64.6757143,53.4827652 64.56,53.6327619 64.4657143,53.8041867 L63.8657143,54.9013054 C63.6814286,55.244155 63.5014286,55.5998614 63.3085714,55.9298541 C63.1371429,56.2298475 62.9442857,56.4869847 62.7685714,56.7741212 C62.5885714,57.0612577 62.4171429,57.3569655 62.2371429,57.6355308 C62.1463852,57.7710283 62.0461338,57.8999202 61.9371429,58.0212366 C61.8514286,58.1198058 61.7528571,58.162662 61.68,58.286945 C61.3928571,58.7969337 61.05,59.0926415 60.72,59.4440623 C60.6566663,59.512567 60.6045916,59.5906773 60.5657143,59.6754858 C60.2185714,60.416898 59.7428571,60.6354646 59.3357143,61.1411678 C59.2114286,61.2997357 59.0442857,61.2697363 58.9071429,61.3854481 C58.6885714,61.5654441 58.4785714,61.792582 58.2642857,62.0068629 C58.1742857,62.1011466 58.0928571,62.2211439 58.0028571,62.3068563 C57.7585714,62.5382798 57.5057143,62.7097046 57.2742857,62.9839843 C57.019791,63.2891001 56.8829615,63.6752548 56.8885714,64.0725317 C56.8885714,64.1411016 56.8757143,64.2439565 56.8885714,64.2739558 C57.0428571,64.6039485 57.1885714,64.9510837 57.36,65.2382202 C57.5528571,65.5810698 57.7628571,65.8682064 57.9728571,66.1724854 C58.0928571,66.3439101 58.2214286,66.4939068 58.3414286,66.6696173 C58.4442857,66.8196139 58.53,67.0381806 58.6414286,67.1581779 C59.2762042,67.8855581 59.989062,68.5409128 60.7671429,69.1124205 C61.0071429,69.2924166 61.2642857,69.3909858 61.5042857,69.5666962 C61.8685714,69.8324046 62.2242857,70.1366836 62.5842857,70.4238202 C62.7128571,70.5223894 62.6871429,70.6552436 62.6185714,70.8523821 C62.5542857,71.0366638 62.4471429,71.2895154 62.4685714,71.4566545 C62.5028571,71.8037897 62.6657143,71.8380747 62.8114286,71.8937877 C63.0471429,71.9880714 63.2742857,72.172353 63.5057143,72.3223497 C63.8357143,72.5366307 64.17,72.7509117 64.5,72.9823352 C65.1257143,73.4108971 65.7428571,73.8694585 66.3728571,74.2680211 C66.9085714,74.6151563 67.4485714,74.9237209 68.0185714,74.4737308 C68.28,74.2637355 68.5714286,74.2165937 68.8414286,74.0451689 C69.1757143,73.8308879 69.5014286,73.5780363 69.8314286,73.3294704 C70.0714286,73.15376 70.6242857,73.3594697 70.7442857,73.7151762 C70.7828571,73.8308879 70.7871429,74.0023127 70.8128571,74.1437381 L70.6371429,74.2294505 C70.6071429,74.2380218 70.5728571,74.2294505 70.5428571,74.2380218 C70.1571429,74.3965897 69.7714286,74.5294439 69.39,74.730868 C69.2614286,74.799438 69.1585714,75.0480039 69.0428571,75.2151431 C69.1457143,75.3779966 69.2442857,75.6308482 69.36,75.6951325 C69.7671429,75.9179847 70.1785714,76.0679814 70.59,76.2608343 C70.6792281,76.3003919 70.7530044,76.3681442 70.8,76.4536872 C71.1557143,77.109387 71.5842857,77.0665308 72.0042857,77.1051014 C72.1328571,77.1179582 72.2528571,77.1822425 72.3771429,77.2508125 C72.57,77.3536673 72.7628571,77.4522366 72.9471429,77.6065189 C73.0542857,77.6922313 73.1485714,77.8593705 73.2342857,78.0265096 C73.3114286,78.1765063 73.3628571,78.3865017 73.4357143,78.5579265 C73.5814286,78.9007761 73.7357143,79.1321995 73.9628571,78.9007761 C74.0057143,78.8622055 74.0657143,78.9179185 74.1085714,78.9607747 C74.1198545,79.0406543 74.1169529,79.1218983 74.1,79.2007695 C74.0271429,79.4493354 73.9071429,79.7364719 74.0314286,79.9807523 C74.1514286,80.2121757 74.3228571,80.3150306 74.4771429,80.4521704 C74.5328571,80.4993122 74.5971429,80.4735985 74.6614286,80.4778841 L74.6828571,80.6793083 L74.6828571,80.6793083 Z" id="Path"></path>
                </g>
            </g>
        </g>
    </g>
</svg>