<?xml version="1.0" encoding="UTF-8"?>
<svg width="3300px" height="2200px" viewBox="0 0 3300 2200" version="1.1" xmlns="http://www.w3.org/2000/svg" xmlns:xlink="http://www.w3.org/1999/xlink">
    <!-- Generator: Sketch 59.1 (86144) - https://sketch.com -->
    <title>filter</title>
    <desc>Created with Sketch.</desc>
    <g id="Page-1" stroke="none" stroke-width="1" fill="none" fill-rule="evenodd">
        <g id="filter">
            <g id="Notes">
                <rect id="artboard" fill="#FFFFFF" fill-rule="nonzero" x="0" y="0" width="3300" height="2200"></rect>
                <line x1="263" y1="292" x2="3036" y2="292" id="Path" stroke="#000000" stroke-width="0.5"></line>
                <text id="Weight/Scale-Variations" fill="#000000" font-family="Helvetica-Bold, Helvetica" font-size="13" font-weight="bold">
                    <tspan x="263" y="322">Weight/Scale Variations</tspan>
                </text>
                <text id="Ultralight" fill="#000000" font-family="Helvetica" font-size="13" font-weight="normal">
                    <tspan x="533.711" y="322">Ultralight</tspan>
                </text>
                <text id="Thin" fill="#000000" font-family="Helvetica" font-size="13" font-weight="normal">
                    <tspan x="843.422" y="322">Thin</tspan>
                </text>
                <text id="Light" fill="#000000" font-family="Helvetica" font-size="13" font-weight="normal">
                    <tspan x="1138.63" y="322">Light</tspan>
                </text>
                <text id="Regular" fill="#000000" font-family="Helvetica" font-size="13" font-weight="normal">
                    <tspan x="1426.84" y="322">Regular</tspan>
                </text>
                <text id="Medium" fill="#000000" font-family="Helvetica" font-size="13" font-weight="normal">
                    <tspan x="1723.06" y="322">Medium</tspan>
                </text>
                <text id="Semibold" fill="#000000" font-family="Helvetica" font-size="13" font-weight="normal">
                    <tspan x="2015.77" y="322">Semibold</tspan>
                </text>
                <text id="Bold" fill="#000000" font-family="Helvetica" font-size="13" font-weight="normal">
                    <tspan x="2326.48" y="322">Bold</tspan>
                </text>
                <text id="Heavy" fill="#000000" font-family="Helvetica" font-size="13" font-weight="normal">
                    <tspan x="2618.19" y="322">Heavy</tspan>
                </text>
                <text id="Black" fill="#000000" font-family="Helvetica" font-size="13" font-weight="normal">
                    <tspan x="2917.4" y="322">Black</tspan>
                </text>
                <line x1="263" y1="1903" x2="3036" y2="1903" id="Path" stroke="#000000" stroke-width="0.5"></line>
                <g id="Group" transform="translate(264.000000, 1918.000000)" fill="#000000" fill-rule="nonzero">
                    <path d="M8.24805,15.830078 C12.5547,15.830078 16.1387,12.25586 16.1387,7.94922 C16.1387,3.6426 12.5449,0.0684 8.23828,0.0684 C3.94141,0.0684 0.36719,3.6426 0.36719,7.94922 C0.36719,12.25586 3.95117,15.830078 8.24805,15.830078 Z M8.24805,14.345703 C4.70312,14.345703 1.87109,11.50391 1.87109,7.94922 C1.87109,4.3945 4.69336,1.5527 8.23828,1.5527 C11.793,1.5527 14.6348,4.3945 14.6445503,7.94922 C14.6543,11.50391 11.8027,14.345703 8.24805,14.345703 Z M8.22852,11.57227 C8.69727,11.57227 8.9707,11.25977 8.9707,10.74219 L8.9707,8.68164 L11.1973,8.68164 C11.6953,8.68164 12.0371,8.42773 12.0371,7.95898 C12.0371,7.48047 11.7148,7.2168 11.1973,7.2168 L8.9707,7.2168 L8.9707,4.9902 C8.9707,4.4727 8.69727,4.1504 8.22852,4.1504 C7.75977,4.1504 7.50586,4.4922 7.50586,4.9902 L7.50586,7.2168 L5.29883,7.2168 C4.78125,7.2168 4.44922,7.48047 4.44922,7.95898 C4.44922,8.42773 4.80078,8.68164 5.29883,8.68164 L7.50586,8.68164 L7.50586,10.74219 C7.50586,11.24023 7.75977,11.57227 8.22852,11.57227 Z" id="Shape"></path>
                </g>
                <g id="Group" transform="translate(282.506000, 1915.000000)" fill="#000000" fill-rule="nonzero">
                    <path d="M10.709,20.91016 C16.1582,20.91016 20.6699,16.39844 20.6699,10.94922 C20.6699,5.5098 16.1484,0.9883 10.6992,0.9883 C5.25977,0.9883 0.74805,5.5098 0.74805,10.94922 C0.74805,16.39844 5.26953,20.91016 10.709,20.91016 Z M10.709,19.25 C6.09961,19.25 2.41797,15.55859 2.41797,10.94922 C2.41797,6.3496 6.08984,2.6484 10.6992,2.6484 C15.3086,2.6484 19,6.3496 19.0098379,10.94922 C19.0195,15.55859 15.3184,19.25 10.709,19.25 Z M10.6895,15.58789 C11.207,15.58789 11.5195,15.22656 11.5195,14.66016 L11.5195,11.76953 L14.5762,11.76953 C15.123,11.76953 15.5039,11.48633 15.5039,10.96875 C15.5039,10.44141 15.1426,10.13867 14.5762,10.13867 L11.5195,10.13867 L11.5195,7.0723 C11.5195,6.4961 11.207,6.1445 10.6895,6.1445 C10.1719,6.1445 9.8789,6.5156 9.8789,7.0723 L9.8789,10.13867 L6.83203,10.13867 C6.26562,10.13867 5.89453,10.44141 5.89453,10.96875 C5.89453,11.48633 6.28516,11.76953 6.83203,11.76953 L9.8789,11.76953 L9.8789,14.66016 C9.8789,15.20703 10.1719,15.58789 10.6895,15.58789 Z" id="Shape"></path>
                </g>
                <g id="Group" transform="translate(306.924000, 1913.000000)" fill="#000000" fill-rule="nonzero">
                    <path d="M12.9707,25.67383 C19.9336,25.67383 25.6953,19.921875 25.6953,12.95898 C25.6953,5.9961 19.9238,0.2441 12.9609,0.2441 C6.00781,0.2441 0.25586,5.9961 0.25586,12.95898 C0.25586,19.921875 6.01758,25.67383 12.9707,25.67383 Z M12.9707,23.85742 C6.93555,23.85742 2.08203,18.99414 2.08203,12.95898 C2.08203,6.9238 6.92578,2.0605 12.9609,2.0605 C19.0059,2.0605 23.8594,6.9238 23.8691295,12.95898 C23.8789,18.99414 19.0156,23.85742 12.9707,23.85742 Z M12.9512,18.93555 C13.5176,18.93555 13.8691,18.54492 13.8691,17.93945 L13.8691,13.86719 L18.1074,13.86719 C18.6934,13.86719 19.1133,13.53516 19.1133,12.97852 C19.1133,12.40234 18.7227,12.06055 18.1074,12.06055 L13.8691,12.06055 L13.8691,7.8125 C13.8691,7.1973 13.5176,6.8066 12.9512,6.8066 C12.3848,6.8066 12.0625,7.2168 12.0625,7.8125 L12.0625,12.06055 L7.83398,12.06055 C7.21875,12.06055 6.80859,12.40234 6.80859,12.97852 C6.80859,13.53516 7.23828,13.86719 7.83398,13.86719 L12.0625,13.86719 L12.0625,17.93945 C12.0625,18.52539 12.3848,18.93555 12.9512,18.93555 Z" id="Shape"></path>
                </g>
                <text id="Design-Variations" fill="#000000" font-family="Helvetica-Bold, Helvetica" font-size="13" font-weight="bold">
                    <tspan x="263" y="1953">Design Variations</tspan>
                </text>
                <text id="Symbols-are-supported-in-up-to-nine-weights-and-three-scales." fill="#000000" font-family="Helvetica" font-size="13" font-weight="normal">
                    <tspan x="263" y="1971">Symbols are supported in up to nine weights and three scales.</tspan>
                </text>
                <text id="For-optimal-layout-with-text-and-other-symbols,-vertically-align" fill="#000000" font-family="Helvetica" font-size="13" font-weight="normal">
                    <tspan x="263" y="1989">For optimal layout with text and other symbols, vertically align</tspan>
                </text>
                <text id="symbols-with-the-adjacent-text." fill="#000000" font-family="Helvetica" font-size="13" font-weight="normal">
                    <tspan x="263" y="2007">symbols with the adjacent text.</tspan>
                </text>
                <rect id="Rectangle" fill="#00AEEF" fill-rule="nonzero" opacity="0.4" x="776" y="1919" width="3" height="14"></rect>
                <g id="Group" transform="translate(779.000000, 1918.000000)" fill="#000000" fill-rule="nonzero">
                    <path d="M10.5273,15 L12.373,15 L7.17773,0.9082 L5.43945,0.9082 L0.244141,15 L2.08984,15 L3.50586,10.9668 L9.11133,10.9668 L10.5273,15 Z M6.2793,3.0469 L6.33789,3.0469 L8.59375,9.47266 L4.02344,9.47266 L6.2793,3.0469 Z" id="Shape"></path>
                </g>
                <rect id="Rectangle" fill="#00AEEF" fill-rule="nonzero" opacity="0.4" x="791.617" y="1919" width="3" height="14"></rect>
                <text id="Margins" fill="#000000" font-family="Helvetica-Bold, Helvetica" font-size="13" font-weight="bold">
                    <tspan x="776" y="1953">Margins</tspan>
                </text>
                <text id="Leading-and-trailing-margins-on-the-left-and-right-side-of-each-symbol" fill="#000000" font-family="Helvetica" font-size="13" font-weight="normal">
                    <tspan x="776" y="1971">Leading and trailing margins on the left and right side of each symbol</tspan>
                </text>
                <text id="can-be-adjusted-by-modifying-the-width-of-the-blue-rectangles." fill="#000000" font-family="Helvetica" font-size="13" font-weight="normal">
                    <tspan x="776" y="1989">can be adjusted by modifying the width of the blue rectangles.</tspan>
                </text>
                <text id="Modifications-are-automatically-applied-proportionally-to-all" fill="#000000" font-family="Helvetica" font-size="13" font-weight="normal">
                    <tspan x="776" y="2007">Modifications are automatically applied proportionally to all</tspan>
                </text>
                <text id="scales-and-weights." fill="#000000" font-family="Helvetica" font-size="13" font-weight="normal">
                    <tspan x="776" y="2025">scales and weights.</tspan>
                </text>
                <g id="Group" transform="translate(1291.000000, 1915.000000)" fill="#000000" fill-rule="nonzero">
                    <path d="M0.83203,21.11523 L2.375,22.6582 C3.22461,23.48828 4.19141,23.41992 5.06055,22.46289 L15.2754,11.33984 C15.7051,11.63281 16.0957,11.62305 16.5645,11.52539 L17.6094,11.31055 L18.3027,12.00391 L18.2539,12.52148 C18.1855,13.04883 18.3516,13.46875 18.8496,13.9668 L19.6602,14.77734 C20.168,15.28516 20.8223,15.31445 21.3008,14.83594 L24.5527,11.58398 C25.0312,11.10547 25.0117,10.45117 24.5039,9.94336 L23.6836,9.12305 C23.1855,8.625 22.7754,8.44922 22.2383,8.52734 L21.7109,8.58594 L21.0566,7.9219 L21.3398,6.7793 C21.4863,6.2129 21.3398,5.7441 20.7148,5.1387 L18.3027,2.7461 C14.7578,-0.7793 10.2266,-0.6719 7.11133,2.4629 C6.69141,2.8926 6.64258,3.4785 6.91602,3.9082 C7.15039,4.2793 7.62891,4.5039 8.2734,4.3379 C9.7871,3.957 11.3008,4.0742 12.7852,5.0801 L12.1602,6.6621 C11.9258,7.248 11.9453,7.7266 12.1797,8.16602 L1.01758,18.439453 C0.08008,19.30859 -0.02734,20.25586 0.83203,21.11523 Z M8.6738,2.8535 C11.3398,0.8613 14.6504,1.1738 17.0527,3.5859 L19.6797,6.1934 C19.9141,6.4277 19.9434,6.6133 19.8848,6.9062 L19.5039,8.46875 L21.0762,10.04102 L22.043,9.95312 C22.3262,9.92383 22.4141,9.94336 22.6387,10.16797 L23.2637,10.79297 L20.5098,13.53711 L19.8848,12.92188 C19.6602,12.69727 19.6406,12.59961 19.6699,12.31641 L19.7578,11.35938 L18.1953,9.79688 L16.5742,10.10938 C16.291,10.16797 16.1445,10.16797 15.9102,9.92383 L13.7324,7.7461 C13.5078,7.5117 13.4785,7.375 13.6055,7.0527 L14.5527,4.7773 C12.9512,3.2441 10.8418,2.3945 8.8008,3.0488 C8.7129,3.0781 8.6445,3.0586 8.6152,3.0195 C8.5859,2.9707 8.5859,2.9219 8.6738,2.8535 Z M2.10156,20.41211 C1.61328,19.91406 1.78906,19.61133 2.12109,19.30859 L13.0781,9.19141 L14.3086,10.42188 L4.15234,21.34961 C3.84961,21.68164 3.46875,21.7793 3.06836,21.37891 L2.10156,20.41211 Z" id="Shape"></path>
                </g>
                <text id="Exporting" fill="#000000" font-family="Helvetica-Bold, Helvetica" font-size="13" font-weight="bold">
                    <tspan x="1289" y="1953">Exporting</tspan>
                </text>
                <text id="Symbols-should-be-outlined-when-exporting-to-ensure-the" fill="#000000" font-family="Helvetica" font-size="13" font-weight="normal">
                    <tspan x="1289" y="1971">Symbols should be outlined when exporting to ensure the</tspan>
                </text>
                <text id="design-is-preserved-when-submitting-to-Xcode." fill="#000000" font-family="Helvetica" font-size="13" font-weight="normal">
                    <tspan x="1289" y="1989">design is preserved when submitting to Xcode.</tspan>
                </text>
                <text id="Template-v.1.0" fill="#000000" font-family="Helvetica" font-size="13" font-weight="normal">
                    <tspan x="2952" y="1933">Template v.1.0</tspan>
                </text>
                <text id="Generated-from-circle" fill="#000000" font-family="Helvetica" font-size="13" font-weight="normal">
                    <tspan x="2911" y="1951">Generated from circle</tspan>
                </text>
                <text id="Typeset-at-100-points" fill="#000000" font-family="Helvetica" font-size="13" font-weight="normal">
                    <tspan x="2912" y="1969">Typeset at 100 points</tspan>
                </text>
                <text id="Small" fill="#000000" font-family="Helvetica" font-size="13" font-weight="normal">
                    <tspan x="263" y="726">Small</tspan>
                </text>
                <text id="Medium" fill="#000000" font-family="Helvetica" font-size="13" font-weight="normal">
                    <tspan x="263" y="1156">Medium</tspan>
                </text>
                <text id="Large" fill="#000000" font-family="Helvetica" font-size="13" font-weight="normal">
                    <tspan x="263" y="1586">Large</tspan>
                </text>
            </g>
            <g id="Guides" transform="translate(263.000000, 625.000000)">
                <g id="H-reference" transform="translate(76.000000, 0.000000)" fill="#27AAE1" fill-rule="nonzero">
                    <path d="M54.9316,71 L57.666,71 L30.5664,0.541 L28.0762,0.541 L0.976562,71 L3.66211,71 L12.9395,46.5371 L45.7031,46.5371 L54.9316,71 Z M29.1992,3.9102 L29.4434,3.9102 L44.8242,44.291 L13.8184,44.291 L29.1992,3.9102 Z" id="Shape"></path>
                </g>
                <line x1="0" y1="71" x2="2773" y2="71" id="Baseline-S" stroke="#27AAE1" stroke-width="0.577"></line>
                <line x1="0" y1="0.541" x2="2773" y2="0.541" id="Capline-S" stroke="#27AAE1" stroke-width="0.577"></line>
                <g id="H-reference" transform="translate(76.000000, 430.000000)" fill="#27AAE1" fill-rule="nonzero">
                    <path d="M54.9316,71 L57.666,71 L30.5664,0.541 L28.0762,0.541 L0.976562,71 L3.66211,71 L12.9395,46.5371 L45.7031,46.5371 L54.9316,71 Z M29.1992,3.9102 L29.4434,3.9102 L44.8242,44.291 L13.8184,44.291 L29.1992,3.9102 Z" id="Shape"></path>
                </g>
                <line x1="0" y1="501" x2="2773" y2="501" id="Baseline-M" stroke="#27AAE1" stroke-width="0.577"></line>
                <line x1="0" y1="430.54" x2="2773" y2="430.54" id="Capline-M" stroke="#27AAE1" stroke-width="0.577"></line>
                <g id="H-reference" transform="translate(76.000000, 860.000000)" fill="#27AAE1" fill-rule="nonzero">
                    <path d="M54.9316,71 L57.666,71 L30.5664,0.541 L28.0762,0.541 L0.976562,71 L3.66211,71 L12.9395,46.5371 L45.7031,46.5371 L54.9316,71 Z M29.1992,3.9102 L29.4434,3.9102 L44.8242,44.291 L13.8184,44.291 L29.1992,3.9102 Z" id="Shape"></path>
                </g>
                <line x1="0" y1="931" x2="2773" y2="931" id="Baseline-L" stroke="#27AAE1" stroke-width="0.577"></line>
                <line x1="0" y1="860.54" x2="2773" y2="860.54" id="Capline-L" stroke="#27AAE1" stroke-width="0.577"></line>
                <rect id="left-margin" fill="#00AEEF" fill-rule="nonzero" opacity="0.4" x="1128.3" y="405.79" width="8.74023" height="119.336"></rect>
                <rect id="right-margin" fill="#00AEEF" fill-rule="nonzero" opacity="0.4" x="1236.65" y="405.79" width="8.74023" height="119.336"></rect>
            </g>
            <g id="Symbols" transform="translate(1399.000000, 1040.000000)" fill-rule="nonzero">
                <g id="Regular-M" transform="translate(0.300000, 0.000000)">
                    <path d="M50.5449,100.5508 C77.791,100.5508 100.35,77.99219 100.35,50.7461 C100.35,23.5488 77.7422,0.9414 50.4961,0.9414 C23.2988,0.9414 0.74023,23.5488 0.74023,50.7461 C0.74023,77.99219 23.3477,100.5508 50.5449,100.5508 Z M50.1551,92.0078 C27.1082,92.0078 8.7,73.5508 8.7,50.5039 C8.7,27.5058 27.0594,9 50.1063,9 C73.1532,9 91.6102,27.5058 91.6593938,50.5039 C91.7082,73.5508 73.202,92.0078 50.1551,92.0078 Z" id="Shape" fill="#000000"></path>
                    <g id="Group" transform="translate(15.700000, 17.000000)" fill="#1D1D1B">
                        <path d="M18.8972645,44.5051742 C19.0947344,44.0431694 18.9959994,43.5811646 18.6997946,43.2115608 C15.8364811,39.7003245 12.6769628,36.2814892 9.31997452,33.0474558 C9.31997452,33.0474558 9.31997452,33.0474558 9.22123958,32.9550548 C9.5174444,32.3082482 9.22123958,31.4766396 8.53009493,31.1070358 C7.83895028,30.8298329 6.95033575,31.1070358 6.55539598,31.7538424 L0.137624363,44.9671789 C-0.0598455315,45.3367827 -0.0598455315,45.8911885 0.236359316,46.2607925 C0.532564158,46.630396 0.927503947,46.907599 1.42117869,46.907599 C2.21105827,47 3.00093786,47 3.79081745,47 C8.53009493,47 13.2693725,46.1683915 17.8111801,45.3367827 C18.3048548,45.2443818 18.6997946,44.874778 18.8972645,44.5051742 Z M3.79081745,44.2279713 L7.93768528,35.6346825 C10.307324,38.0371073 12.6769628,40.4395321 14.8491316,43.0267589 C11.1959385,43.6735656 7.44401051,44.2279713 3.79081745,44.2279713 Z" id="Shape"></path>
                        <path d="M38.8061781,12.2909435 C39.6723945,12.7974124 40.6348571,13 41.5973198,13 C42.9447675,13 44.195969,12.5948249 45.3509242,11.7844746 C47.2758494,10.3663615 48.238312,7.83401686 47.9495734,5.40296593 C47.8533272,4.39002806 47.4683418,3.57967776 46.9871108,2.87062125 C46.1208944,1.85768338 44.8696928,1.24992065 43.13726,1.14862686 C43.13726,0.946039288 43.0410138,0.743451714 42.9447675,0.642157927 C42.4635362,-0.066898587 41.5973198,-0.168192379 40.9235959,0.236982774 C40.0573795,0.844745501 39.1911632,1.55380201 38.3249468,2.36415231 C37.8437155,2.76932747 37.4587304,3.2757964 37.1699916,3.78226534 C37.0737453,3.88355912 36.9774991,4.0861467 36.8812528,4.18744049 C35.6300514,6.41590385 35.7262976,9.1508361 37.0737453,10.7715367 C37.4587304,11.4805932 38.036208,11.8857683 38.8061781,12.2909435 Z M39.3836557,5.80814108 C39.3836557,5.80814108 39.3836557,5.80814108 39.3836557,5.80814108 C39.479902,5.70684729 39.5761482,5.50425972 39.6723945,5.40296593 C39.864887,5.20037835 40.0573795,4.99779078 40.2498721,4.79520321 C40.8273497,4.39002806 41.6935661,4.28873427 42.4635362,4.28873427 C43.6184914,4.28873427 44.3884615,4.49132185 44.7734466,4.89649699 C44.9659391,5.09908457 45.0621853,5.40296593 45.1584316,5.90943486 C45.3509242,7.22625414 44.7734466,8.64436716 43.7147377,9.35342367 C42.6560287,10.163774 41.2123348,10.2650678 40.1536258,9.65730503 C39.864887,9.45471746 39.5761482,9.25212988 39.3836557,9.04954231 C38.6136856,8.13789823 38.8061781,6.821079 39.3836557,5.80814108 Z" id="Shape"></path>
                        <path d="M60.7081714,38.6325926 C60.2412451,38.0617023 59.307393,37.9665539 58.7470816,38.4422958 C56.9727626,39.8695217 55.2918287,41.391896 53.6108949,42.9142703 C52.0233462,41.2967476 50.6225683,39.6792249 49.6887157,37.7762571 C49.3151751,37.1102183 48.4747082,36.8247732 47.8210116,37.1102183 C47.167315,37.4908119 46.8871595,38.3471474 47.167315,39.0131862 C48.1945527,41.2015992 49.7821014,43.0094187 51.4630352,44.8172381 C49.6887157,46.434761 48.0077819,48.147432 46.4202336,49.8601029 C45.8599221,50.4309931 45.8599221,51.287329 46.4202336,51.8582192 C46.7003891,52.1436645 47.0739298,52.238813 47.3540857,52.238813 C47.7276264,52.238813 48.1011675,52.0485161 48.381323,51.7630708 C49.9688717,50.0503998 51.6498055,48.4328768 53.4241245,46.7202059 C54.9182881,48.2425804 56.319066,49.6698061 57.3463037,51.287329 C57.3463037,51.6679223 57.533074,52.0485161 57.8132295,52.238813 L58.2801558,52.6194062 C58.5603113,52.8097031 58.8404668,53 59.2140079,53 C59.4941634,53 59.8677045,52.9048516 60.14786,52.7145547 C60.7081714,52.238813 60.8015566,51.4776255 60.4280154,50.9067353 C59.1206227,48.6231737 57.3463037,46.7202059 55.4785991,44.8172381 C57.0661477,43.3900122 58.7470816,41.9627864 60.4280154,40.5355605 C61.0817121,40.1549669 61.1750972,39.2986314 60.7081714,38.6325926 Z" id="Shape"></path>
                        <path d="M65.2319679,13.8951104 C62.2450428,12.5219386 58.1380204,12.5219386 55.8044848,15.3663658 C53.9376566,17.7203746 53.9376566,20.9571367 54.030998,23.1149781 C54.030998,23.8996476 54.684388,24.5862336 55.4311194,24.5862336 C56.1778503,24.5862336 56.8312403,23.8996476 56.8312403,23.1149781 C56.8312403,20.859053 56.8312403,18.7012116 57.9513376,17.3280398 C59.3514586,15.5625332 62.2450428,15.7587006 64.2052124,16.6414539 C65.0452851,17.0337887 66.5387479,17.8184583 67.0987961,19.2897138 C67.3788207,19.9762997 67.3788207,20.859053 67.2854793,21.83989 C67.2854793,22.820727 67.1921379,23.8015639 66.9121134,24.3900662 C66.165382,25.763238 64.111871,26.1555727 62.6184082,25.9594054 C61.5916528,25.8613217 60.9382627,25.5670706 60.6582386,25.1747358 C60.2848727,24.782401 60.2848727,23.9977313 60.2848727,23.3111455 C60.2848727,22.3303085 60.3782141,21.3494715 60.75158,20.6628856 C61.0316041,20.1724671 61.4983114,19.9762997 61.7783355,20.0743834 C61.9650182,20.1724671 62.1517014,20.5648019 62.1517014,21.0552204 C62.0583596,21.7418063 61.6849941,22.5264759 61.3116287,23.2130618 C60.9382627,23.8996476 61.2182868,24.782401 61.8716769,25.1747358 C62.5250669,25.5670706 63.3651396,25.2728195 63.7385051,24.5862336 C64.2052124,23.7034802 64.765261,22.6245596 64.8586024,21.3494715 C65.0452851,19.6820486 64.2052124,18.0146257 62.8984323,17.4261235 C61.1249455,16.5433702 59.2581172,17.622291 58.3247031,19.1916301 C57.5779717,20.4667182 57.4846304,21.9379737 57.4846304,23.2130618 C57.4846304,24.3900662 57.4846304,25.763238 58.2313617,26.8421586 C58.9780931,28.019163 60.2848727,28.7057489 62.1517014,28.9019163 C62.4317255,28.9019163 62.805091,29 63.1784569,29 C65.5119924,29 68.0322107,28.2153304 69.2456489,25.8613217 C69.8990389,24.5862336 69.9923803,23.3111455 69.9923803,21.9379737 C69.9923803,20.9571367 70.0857217,19.5839649 69.6190144,18.3088768 C68.7789416,15.954868 66.818772,14.5816963 65.2319679,13.8951104 Z" id="Shape"></path>
                        <path d="M15.4588918,12.3296836 C16.6340374,11.274955 18.0803703,10.4119952 19.5267033,9.93257314 C19.6170992,10.5078797 19.3459117,11.274955 18.8939327,12.0420304 C18.6227452,12.5214525 18.261162,12.9049902 17.8091829,13.3844123 C17.3572038,13.9597188 16.9052248,14.5350254 16.4532457,15.2062163 C15.8204751,16.2609449 15.5492876,17.3156735 15.9108709,18.2745177 C16.4532457,20.0004373 18.261162,20.5757439 19.707495,20.0963217 C20.7018489,19.8086685 21.4250154,19.1374775 22.0577861,18.4662866 L22.2385777,18.2745177 C22.600161,17.8909801 23.1425359,17.5074424 23.5945149,17.5074424 C23.5945149,17.5074424 23.5945149,17.5074424 23.5945149,17.5074424 C23.7753065,17.5074424 23.9560982,17.6033268 24.046494,17.7950956 C24.1368898,17.9868645 24.2272856,18.1786333 24.2272856,18.2745177 C24.1368898,18.6580554 23.8657023,19.0415931 23.2329317,19.5210152 L22.7809526,19.9045529 C22.1481819,20.383975 21.4250154,20.8633971 20.8826405,21.7263569 C20.0690782,22.9728544 19.8882866,24.8905428 21.0634322,26.1370402 C21.8769945,26.9041156 22.8713484,27 23.4137233,27 C23.5041191,27 23.6849107,27 23.6849107,27 C25.2216395,26.9041156 26.7583683,26.4246935 28.1143055,25.5617337 C28.6566804,25.178196 29.1990553,24.3152362 28.9278679,23.4522765 C28.7470762,22.7810855 28.2047014,22.3016634 27.4815348,22.3016634 C27.4815348,22.3016634 27.4815348,22.3016634 27.4815348,22.3016634 C26.8487642,22.3016634 26.3063893,22.7810855 26.2159935,23.356392 C25.4024311,23.8358141 24.498473,24.027583 23.5041191,24.1234674 C22.9617442,24.1234674 22.7809526,24.027583 22.7809526,24.027583 C22.7809526,23.9316986 22.7809526,23.6440453 22.9617442,23.356392 C23.2329317,22.9728544 23.6849107,22.5893167 24.1368898,22.3016634 L24.5888688,22.0140102 C25.3120353,21.4387036 26.3967851,20.4798594 26.6679725,19.0415931 C26.8487642,18.0827489 26.5775767,17.0280203 25.944806,16.1650605 C25.3120353,15.3021007 24.4080772,14.8226786 23.4137233,14.8226786 C23.4137233,14.8226786 23.4137233,14.8226786 23.4137233,14.8226786 C22.0577861,14.8226786 21.0634322,15.589754 20.3402657,16.3568293 L20.0690782,16.5485982 C19.6170992,17.0280203 19.1651201,17.411558 18.713141,17.5074424 C18.6227452,17.5074424 18.5323494,17.5074424 18.4419536,17.5074424 C18.3515578,17.5074424 18.261162,17.5074424 18.261162,17.5074424 C18.261162,17.5074424 18.261162,17.3156735 18.5323494,16.9321359 C18.8035368,16.4527138 19.2555159,15.9732917 19.6170992,15.3979851 C20.0690782,14.918563 20.4306615,14.3432565 20.8826405,13.7679499 C21.9673903,12.0420304 22.3289736,10.2202264 21.7865987,8.68607568 C21.4250154,7.72723148 20.8826405,7.34369376 20.4306615,7.15192492 C19.707495,6.86427166 19.0747243,7.0560405 18.8035368,7.15192492 C16.9052248,7.72723148 15.0069128,8.7819601 13.4701839,10.2202264 C12.927809,10.6996485 12.8374132,11.6584927 13.2893923,12.2337992 C14.0125588,12.8091057 14.8261211,12.9049902 15.4588918,12.3296836 Z" id="Shape"></path>
                        <path d="M29.6710797,66.9083145 C30.0469137,67 30.4227477,67 30.7985817,67 C32.8656686,67 34.7448386,65.8080888 35.5904651,64.0660651 C36.5300501,61.8656138 35.6844236,59.5734774 34.7448386,57.7397681 C33.7112951,55.7226879 32.4898347,53.7056076 31.0804572,51.8718983 C30.8925402,51.6885273 30.7046231,51.5051563 30.4227477,51.4134708 C30.2348307,51.2301002 30.0469137,51.1384147 29.7650382,51.0467292 C29.0133702,50.8633582 28.2617022,51.2301002 27.9798267,51.9635838 C27.6979512,52.9721239 27.2281587,53.8889786 26.7583662,54.8975187 C26.4764907,55.4476313 26.1946152,55.9977439 26.0066982,56.547857 C25.0671132,58.8399933 24.7852377,60.7653881 25.1610717,62.4157268 C25.7248227,64.6161777 27.5100342,66.449887 29.6710797,66.9083145 Z M28.6375362,57.6480826 C28.8254532,57.0979696 29.1073287,56.6395425 29.3892042,56.0894294 C29.5771212,55.7226879 29.7650382,55.4476313 29.8589966,55.0808893 C30.7046231,56.364486 31.4562911,57.6480826 32.2079591,59.0233644 C32.8656686,60.306961 33.5233781,61.8656138 32.9596271,62.9658394 C32.5837932,63.8826941 31.3623326,64.4328067 30.2348307,64.1577506 C29.1073287,63.8826941 28.1677437,62.9658394 27.8858682,61.7739283 C27.6039927,60.6737026 27.8858682,59.3901064 28.6375362,57.6480826 Z" id="Shape"></path>
                    </g>
                </g>
            </g>
        </g>
    </g>
</svg>