<?xml version="1.0" encoding="UTF-8"?>
<!--Generator: Apple Native CoreSVG 341-->
<!DOCTYPE svg
PUBLIC "-//W3C//DTD SVG 1.1//EN"
       "http://www.w3.org/Graphics/SVG/1.1/DTD/svg11.dtd">
<svg version="1.1" xmlns="http://www.w3.org/2000/svg" xmlns:xlink="http://www.w3.org/1999/xlink" viewBox="0 0 3300 2200">
 <!--glyph: "", point size: 100.0, font version: "20.0d10e1", template writer version: "138.0.0"-->
 <style>.monochrome-0 {-sfsymbols-motion-group:1;-sfsymbols-layer-tags:-1e822b56267e9533}
.monochrome-1 {-sfsymbols-motion-group:0;-sfsymbols-layer-tags:-1e822b56267e9533}

.multicolor-0:tintColor {-sfsymbols-motion-group:1;-sfsymbols-layer-tags:-1e822b56267e9533}
.multicolor-1:tintColor {-sfsymbols-motion-group:0;-sfsymbols-layer-tags:-1e822b56267e9533}

.hierarchical-0:primary {-sfsymbols-motion-group:1;-sfsymbols-layer-tags:-1e822b56267e9533}
.hierarchical-1:tertiary {-sfsymbols-motion-group:0;-sfsymbols-layer-tags:-1e822b56267e9533}

.SFSymbolsPreviewWireframe {fill:none;opacity:1.0;stroke:black;stroke-width:0.5}
</style>
 <g id="Notes">
  <rect height="2200" id="artboard" style="fill:white;opacity:1" width="3300" x="0" y="0"/>
  <line style="fill:none;stroke:black;opacity:1;stroke-width:0.5;" x1="263" x2="3036" y1="292" y2="292"/>
  <text style="stroke:none;fill:black;font-family:sans-serif;font-size:13;font-weight:bold;" transform="matrix(1 0 0 1 263 322)">Weight/Scale Variations</text>
  <text style="stroke:none;fill:black;font-family:sans-serif;font-size:13;text-anchor:middle;" transform="matrix(1 0 0 1 559.711 322)">Ultralight</text>
  <text style="stroke:none;fill:black;font-family:sans-serif;font-size:13;text-anchor:middle;" transform="matrix(1 0 0 1 856.422 322)">Thin</text>
  <text style="stroke:none;fill:black;font-family:sans-serif;font-size:13;text-anchor:middle;" transform="matrix(1 0 0 1 1153.13 322)">Light</text>
  <text style="stroke:none;fill:black;font-family:sans-serif;font-size:13;text-anchor:middle;" transform="matrix(1 0 0 1 1449.84 322)">Regular</text>
  <text style="stroke:none;fill:black;font-family:sans-serif;font-size:13;text-anchor:middle;" transform="matrix(1 0 0 1 1746.56 322)">Medium</text>
  <text style="stroke:none;fill:black;font-family:sans-serif;font-size:13;text-anchor:middle;" transform="matrix(1 0 0 1 2043.27 322)">Semibold</text>
  <text style="stroke:none;fill:black;font-family:sans-serif;font-size:13;text-anchor:middle;" transform="matrix(1 0 0 1 2339.98 322)">Bold</text>
  <text style="stroke:none;fill:black;font-family:sans-serif;font-size:13;text-anchor:middle;" transform="matrix(1 0 0 1 2636.69 322)">Heavy</text>
  <text style="stroke:none;fill:black;font-family:sans-serif;font-size:13;text-anchor:middle;" transform="matrix(1 0 0 1 2933.4 322)">Black</text>
  <line style="fill:none;stroke:black;opacity:1;stroke-width:0.5;" x1="263" x2="3036" y1="1903" y2="1903"/>
  <g transform="matrix(0.2 0 0 0.2 263 1933)">
   <path d="m46.2402 4.15039c21.7773 0 39.4531-17.627 39.4531-39.4043s-17.6758-39.4043-39.4531-39.4043c-21.7285 0-39.4043 17.627-39.4043 39.4043s17.6758 39.4043 39.4043 39.4043Zm0-7.42188c-17.6758 0-31.9336-14.3066-31.9336-31.9824s14.2578-31.9824 31.9336-31.9824 31.9824 14.3066 31.9824 31.9824-14.3066 31.9824-31.9824 31.9824Zm-17.9688-31.9824c0 2.14844 1.51367 3.61328 3.75977 3.61328h10.498v10.5957c0 2.19727 1.46484 3.71094 3.61328 3.71094 2.24609 0 3.71094-1.51367 3.71094-3.71094v-10.5957h10.5957c2.19727 0 3.71094-1.46484 3.71094-3.61328 0-2.19727-1.51367-3.71094-3.71094-3.71094h-10.5957v-10.5469c0-2.24609-1.46484-3.75977-3.71094-3.75977-2.14844 0-3.61328 1.51367-3.61328 3.75977v10.5469h-10.498c-2.24609 0-3.75977 1.51367-3.75977 3.71094Z"/>
  </g>
  <g transform="matrix(0.2 0 0 0.2 281.506 1933)">
   <path d="m58.5449 14.5508c27.4902 0 49.8047-22.3145 49.8047-49.8047s-22.3145-49.8047-49.8047-49.8047-49.8047 22.3145-49.8047 49.8047 22.3145 49.8047 49.8047 49.8047Zm0-8.30078c-22.9492 0-41.5039-18.5547-41.5039-41.5039s18.5547-41.5039 41.5039-41.5039 41.5039 18.5547 41.5039 41.5039-18.5547 41.5039-41.5039 41.5039Zm-22.6562-41.5039c0 2.39258 1.66016 4.00391 4.15039 4.00391h14.3555v14.4043c0 2.44141 1.66016 4.15039 4.05273 4.15039 2.44141 0 4.15039-1.66016 4.15039-4.15039v-14.4043h14.4043c2.44141 0 4.15039-1.61133 4.15039-4.00391 0-2.44141-1.70898-4.15039-4.15039-4.15039h-14.4043v-14.3555c0-2.49023-1.70898-4.19922-4.15039-4.19922-2.39258 0-4.05273 1.70898-4.05273 4.19922v14.3555h-14.3555c-2.49023 0-4.15039 1.70898-4.15039 4.15039Z"/>
  </g>
  <g transform="matrix(0.2 0 0 0.2 304.924 1933)">
   <path d="m74.8535 28.3203c35.1074 0 63.623-28.4668 63.623-63.5742s-28.5156-63.623-63.623-63.623-63.5742 28.5156-63.5742 63.623 28.4668 63.5742 63.5742 63.5742Zm0-9.08203c-30.127 0-54.4922-24.3652-54.4922-54.4922s24.3652-54.4922 54.4922-54.4922 54.4922 24.3652 54.4922 54.4922-24.3652 54.4922-54.4922 54.4922Zm-28.8574-54.4922c0 2.58789 1.85547 4.39453 4.58984 4.39453h19.7266v19.7754c0 2.68555 1.85547 4.58984 4.44336 4.58984 2.68555 0 4.54102-1.85547 4.54102-4.58984v-19.7754h19.7754c2.68555 0 4.58984-1.80664 4.58984-4.39453 0-2.73438-1.85547-4.58984-4.58984-4.58984h-19.7754v-19.7266c0-2.73438-1.85547-4.63867-4.54102-4.63867-2.58789 0-4.44336 1.9043-4.44336 4.63867v19.7266h-19.7266c-2.73438 0-4.58984 1.85547-4.58984 4.58984Z"/>
  </g>
  <text style="stroke:none;fill:black;font-family:sans-serif;font-size:13;font-weight:bold;" transform="matrix(1 0 0 1 263 1953)">Design Variations</text>
  <text style="stroke:none;fill:black;font-family:sans-serif;font-size:13;" transform="matrix(1 0 0 1 263 1971)">Symbols are supported in up to nine weights and three scales.</text>
  <text style="stroke:none;fill:black;font-family:sans-serif;font-size:13;" transform="matrix(1 0 0 1 263 1989)">For optimal layout with text and other symbols, vertically align</text>
  <text style="stroke:none;fill:black;font-family:sans-serif;font-size:13;" transform="matrix(1 0 0 1 263 2007)">symbols with the adjacent text.</text>
  <line style="fill:none;stroke:#00AEEF;stroke-width:0.5;opacity:1.0;" x1="776" x2="776" y1="1919" y2="1933"/>
  <g transform="matrix(0.2 0 0 0.2 776 1933)">
   <path d="m16.5527 0.78125c2.58789 0 3.85742-0.976562 4.78516-3.71094l6.29883-17.2363h28.8086l6.29883 17.2363c0.927734 2.73438 2.19727 3.71094 4.73633 3.71094 2.58789 0 4.24805-1.5625 4.24805-4.00391 0-0.830078-0.146484-1.61133-0.537109-2.63672l-22.9004-60.9863c-1.12305-2.97852-3.125-4.49219-6.25-4.49219-3.02734 0-5.07812 1.46484-6.15234 4.44336l-22.9004 61.084c-0.390625 1.02539-0.537109 1.80664-0.537109 2.63672 0 2.44141 1.5625 3.95508 4.10156 3.95508Zm13.4766-28.3691 11.8652-32.8613h0.244141l11.8652 32.8613Z"/>
  </g>
  <line style="fill:none;stroke:#00AEEF;stroke-width:0.5;opacity:1.0;" x1="792.836" x2="792.836" y1="1919" y2="1933"/>
  <text style="stroke:none;fill:black;font-family:sans-serif;font-size:13;font-weight:bold;" transform="matrix(1 0 0 1 776 1953)">Margins</text>
  <text style="stroke:none;fill:black;font-family:sans-serif;font-size:13;" transform="matrix(1 0 0 1 776 1971)">Leading and trailing margins on the left and right side of each symbol</text>
  <text style="stroke:none;fill:black;font-family:sans-serif;font-size:13;" transform="matrix(1 0 0 1 776 1989)">can be adjusted by modifying the x-location of the margin guidelines.</text>
  <text style="stroke:none;fill:black;font-family:sans-serif;font-size:13;" transform="matrix(1 0 0 1 776 2007)">Modifications are automatically applied proportionally to all</text>
  <text style="stroke:none;fill:black;font-family:sans-serif;font-size:13;" transform="matrix(1 0 0 1 776 2025)">scales and weights.</text>
  <g transform="matrix(0.2 0 0 0.2 1289 1933)">
   <path d="m14.209 9.32617 8.49609 8.54492c4.29688 4.3457 9.22852 4.05273 13.8672-1.07422l53.4668-58.9355-4.83398-4.88281-53.0762 58.3984c-1.75781 2.00195-3.41797 2.49023-5.76172 0.146484l-5.85938-5.81055c-2.34375-2.29492-1.80664-4.00391 0.195312-5.81055l57.373-54.0039-4.88281-4.83398-57.959 54.4434c-4.93164 4.58984-5.32227 9.47266-1.02539 13.8184Zm32.0801-90.9668c-2.09961 2.05078-2.24609 4.93164-1.07422 6.88477 1.17188 1.80664 3.4668 2.97852 6.68945 2.14844 7.32422-1.70898 14.9414-2.00195 22.0703 2.68555l-2.92969 7.27539c-1.70898 4.15039-0.830078 7.08008 1.85547 9.81445l11.4746 11.5723c2.44141 2.44141 4.49219 2.53906 7.32422 2.05078l5.32227-0.976562 3.32031 3.36914-0.195312 2.7832c-0.195312 2.49023 0.439453 4.39453 2.88086 6.78711l3.80859 3.71094c2.39258 2.39258 5.46875 2.53906 7.8125 0.195312l14.5508-14.5996c2.34375-2.34375 2.24609-5.32227-0.146484-7.71484l-3.85742-3.80859c-2.39258-2.39258-4.24805-3.17383-6.64062-2.97852l-2.88086 0.244141-3.22266-3.17383 1.2207-5.61523c0.634766-2.83203-0.146484-5.0293-3.07617-7.95898l-10.9863-10.9375c-16.6992-16.6016-38.8672-16.2109-53.3203-1.75781Zm7.4707 1.85547c12.1582-8.88672 28.6133-7.37305 39.7461 3.75977l12.1582 12.0605c1.17188 1.17188 1.36719 2.09961 1.02539 3.80859l-1.61133 7.42188 7.51953 7.42188 4.93164-0.292969c1.26953-0.0488281 1.66016 0.0488281 2.63672 1.02539l2.88086 2.88086-12.207 12.207-2.88086-2.88086c-0.976562-0.976562-1.12305-1.36719-1.07422-2.68555l0.341797-4.88281-7.4707-7.42188-7.61719 1.26953c-1.61133 0.341797-2.34375 0.195312-3.56445-0.976562l-10.0098-10.0098c-1.26953-1.17188-1.41602-2.00195-0.634766-3.85742l4.39453-10.4492c-7.8125-7.27539-17.9688-10.4004-28.125-7.42188-0.78125 0.195312-1.07422-0.439453-0.439453-0.976562Z"/>
  </g>
  <text style="stroke:none;fill:black;font-family:sans-serif;font-size:13;font-weight:bold;" transform="matrix(1 0 0 1 1289 1953)">Exporting</text>
  <text style="stroke:none;fill:black;font-family:sans-serif;font-size:13;" transform="matrix(1 0 0 1 1289 1971)">Symbols should be outlined when exporting to ensure the</text>
  <text style="stroke:none;fill:black;font-family:sans-serif;font-size:13;" transform="matrix(1 0 0 1 1289 1989)">design is preserved when submitting to Xcode.</text>
  <text id="template-version" style="stroke:none;fill:black;font-family:sans-serif;font-size:13;text-anchor:end;" transform="matrix(1 0 0 1 3036 1933)">Template v.6.0</text>
  <text style="stroke:none;fill:black;font-family:sans-serif;font-size:13;text-anchor:end;" transform="matrix(1 0 0 1 3036 1951)">Requires Xcode 16 or greater</text>
  <text id="descriptive-name" style="stroke:none;fill:black;font-family:sans-serif;font-size:13;text-anchor:end;" transform="matrix(1 0 0 1 3036 1969)">Generated from filtervogelgruppe-54</text>
  <text style="stroke:none;fill:black;font-family:sans-serif;font-size:13;text-anchor:end;" transform="matrix(1 0 0 1 3036 1987)">Typeset at 100.0 points</text>
  <text style="stroke:none;fill:black;font-family:sans-serif;font-size:13;" transform="matrix(1 0 0 1 263 726)">Small</text>
  <text style="stroke:none;fill:black;font-family:sans-serif;font-size:13;" transform="matrix(1 0 0 1 263 1156)">Medium</text>
  <text style="stroke:none;fill:black;font-family:sans-serif;font-size:13;" transform="matrix(1 0 0 1 263 1586)">Large</text>
 </g>
 <g id="Guides">
  <g id="H-reference" style="fill:#27AAE1;stroke:none;" transform="matrix(1 0 0 1 339 696)">
   <path d="M0.993654 0L3.63775 0L29.3281-67.1323L30.0303-67.1323L30.0303-70.459L28.1226-70.459ZM11.6885-24.4799L46.9815-24.4799L46.2315-26.7285L12.4385-26.7285ZM55.1196 0L57.7637 0L30.6382-70.459L29.4326-70.459L29.4326-67.1323Z"/>
  </g>
  <line id="Baseline-S" style="fill:none;stroke:#27AAE1;opacity:1;stroke-width:0.5;" x1="263" x2="3036" y1="696" y2="696"/>
  <line id="Capline-S" style="fill:none;stroke:#27AAE1;opacity:1;stroke-width:0.5;" x1="263" x2="3036" y1="625.541" y2="625.541"/>
  <g id="H-reference" style="fill:#27AAE1;stroke:none;" transform="matrix(1 0 0 1 339 1126)">
   <path d="M0.993654 0L3.63775 0L29.3281-67.1323L30.0303-67.1323L30.0303-70.459L28.1226-70.459ZM11.6885-24.4799L46.9815-24.4799L46.2315-26.7285L12.4385-26.7285ZM55.1196 0L57.7637 0L30.6382-70.459L29.4326-70.459L29.4326-67.1323Z"/>
  </g>
  <line id="Baseline-M" style="fill:none;stroke:#27AAE1;opacity:1;stroke-width:0.5;" x1="263" x2="3036" y1="1126" y2="1126"/>
  <line id="Capline-M" style="fill:none;stroke:#27AAE1;opacity:1;stroke-width:0.5;" x1="263" x2="3036" y1="1055.54" y2="1055.54"/>
  <g id="H-reference" style="fill:#27AAE1;stroke:none;" transform="matrix(1 0 0 1 339 1556)">
   <path d="M0.993654 0L3.63775 0L29.3281-67.1323L30.0303-67.1323L30.0303-70.459L28.1226-70.459ZM11.6885-24.4799L46.9815-24.4799L46.2315-26.7285L12.4385-26.7285ZM55.1196 0L57.7637 0L30.6382-70.459L29.4326-70.459L29.4326-67.1323Z"/>
  </g>
  <line id="Baseline-L" style="fill:none;stroke:#27AAE1;opacity:1;stroke-width:0.5;" x1="263" x2="3036" y1="1556" y2="1556"/>
  <line id="Capline-L" style="fill:none;stroke:#27AAE1;opacity:1;stroke-width:0.5;" x1="263" x2="3036" y1="1485.54" y2="1485.54"/>
  <line id="right-margin-Black-S" style="fill:none;stroke:#00AEEF;stroke-width:0.5;opacity:1.0;" x1="2982.23" x2="2982.23" y1="600.785" y2="720.121"/>
  <line id="left-margin-Black-S" style="fill:none;stroke:#00AEEF;stroke-width:0.5;opacity:1.0;" x1="2884.57" x2="2884.57" y1="600.785" y2="720.121"/>
  <line id="right-margin-Regular-S" style="fill:none;stroke:#00AEEF;stroke-width:0.5;opacity:1.0;" x1="1496.11" x2="1496.11" y1="600.785" y2="720.121"/>
  <line id="left-margin-Regular-S" style="fill:none;stroke:#00AEEF;stroke-width:0.5;opacity:1.0;" x1="1403.58" x2="1403.58" y1="600.785" y2="720.121"/>
  <line id="right-margin-Ultralight-S" style="fill:none;stroke:#00AEEF;stroke-width:0.5;opacity:1.0;" x1="603.773" x2="603.773" y1="600.785" y2="720.121"/>
  <line id="left-margin-Ultralight-S" style="fill:none;stroke:#00AEEF;stroke-width:0.5;opacity:1.0;" x1="515.649" x2="515.649" y1="600.785" y2="720.121"/>
 </g>
 <g id="Symbols">
  <g id="Black-S" transform="matrix(1 0 0 1 2884.57 696)">
   <path class="monochrome-0 multicolor-0:tintColor hierarchical-0:primary SFSymbolsPreviewWireframe" d="M34.6757-60.9055C35.2591-61.4514 35.3922-62.2532 35.8357-63.4063C36.2793-64.5595 36.5795-64.9212 37.9169-64.9079C39.2576-64.8939 40.6974-64.5288 40.9328-64.0887C41.1716-63.6486 41.7073-62.3316 41.8711-60.8134C42.0348-59.2986 41.7789-57.8588 41.6118-57.1764C41.448-56.4941 41.8097-55.6275 42.1577-55.2488C42.5091-54.8701 42.9526-54.7302 43.7339-54.7302C44.5186-54.7302 47.2276-54.4675 49.3088-53.6179C51.3899-52.7718 52.0894-52.2669 53.0105-51.4003C53.9283-50.5303 54.5697-49.9434 57.381-48.9779C60.1923-48.0055 62.9593-47.2208 64.6038-46.7773C66.2483-46.3338 69.1995-46.0505 70.2605-45.856C71.3216-45.6547 71.2943-45.5694 71.1135-45.5456C70.9326-45.5251 68.094-45.5694 67.8109-45.5012C67.5243-45.433 67.2854-45.3477 67.2854-45.3477C67.2854-45.3477 70.8746-44.9724 70.9633-44.9042C71.0521-44.8393 70.9804-44.7745 70.6222-44.8189C70.2605-44.8632 67.4049-45.0167 67.2274-44.928C67.0466-44.8427 66.8521-44.7574 66.7327-44.7131C66.6133-44.6687 63.8191-44.4709 63.7099-44.4436C63.6007-44.4163 61.3762-43.2187 60.7792-43.0857C60.1855-42.9526 58.8276-42.4715 58.4285-42.2054C58.0327-41.9393 55.8423-40.1822 55.4807-40.1004C55.119-40.0219 53.6178-39.8206 52.5499-39.476C51.4821-39.128 50.5268-38.3979 49.0426-38.4763C48.9164-38.2887 48.8959-37.5449 49.0972-36.477C49.2951-35.4126 50.3801-29.6876 50.7246-28.647C51.0658-27.6064 51.0146-26.8626 50.4688-23.7989C49.9263-20.7351 48.698-10.4247 48.6059-9.11795C48.5172-7.81465 48.4797-7.81465 47.828-7.54853C46.4736-6.80135 45.1123-6.91393 45.0713-6.91393C45.027-6.91393 44.853-7.00264 44.853-7.00264C44.406-6.95829 44.3651-7.09476 44.3651-7.23464C43.7851-7.24829 43.42-7.5417 43.42-7.5417C43.171-7.5417 43.0447-7.569 43.0788-7.69182C43.1061-7.81465 43.1914-7.84535 43.3995-7.84535L43.9147-7.84535C43.9147-7.84535 43.8806-7.96818 43.9557-7.96818C44.0273-7.96818 46.6646-8.01253 46.9785-8.10465C47.289-8.19677 47.3367-8.33324 47.5449-9.84466C47.7496-11.3595 49.1075-20.3325 49.2576-23.1745C49.4077-26.0131 48.971-27.1902 49.6636-28.3468C49.5271-30.0765 48.217-37.2686 47.944-38.0465C47.6711-38.8244 47.1934-38.6469 45.624-39.4009C44.0546-40.1549 41.3149-42.2634 40.3699-45.1566C38.7323-48.6981 37.7873-50.1277 37.6235-53.0584C37.6064-55.2556 37.9715-56.7704 37.7873-57.7496C37.6064-58.7254 36.8286-59.7762 35.6481-59.8854C34.4676-59.998 34.3516-59.9775 32.7822-59.2576C31.2128-58.5377 29.8139-57.852 28.6062-57.3641C27.3984-56.8762 26.9003-56.7158 26.9003-56.7158C26.8082-56.7431 26.8218-56.9444 27.2312-57.1218C27.6406-57.2992 30.4895-58.5173 32.5024-59.6329C34.5154-60.7486 34.0821-60.3596 34.6723-60.9055L34.6757-60.9055Z"/>
   <path class="monochrome-1 multicolor-1:tintColor hierarchical-1:tertiary SFSymbolsPreviewWireframe" d="M48.9411-84C55.3091-84.0013 61.615-82.7479 67.4985-80.3116C73.382-77.8752 78.7279-74.3036 83.2305-69.8009C87.7334-65.2983 91.305-59.9524 93.7418-54.0682C96.1779-48.1846 97.4312-41.8789 97.43-35.5124C97.43-8.72255 75.7254 13 48.9424 13C22.156 13 0.43-8.726 0.43-35.5124C0.43-62.2926 22.1539-84 48.9411-84ZM48.9424-70C29.8835-70 14.43-54.5582 14.43-35.5124C14.43-16.458 29.888-0.999999 48.9424-0.999999C67.9909-0.999999 83.43-16.4519 83.43-35.5138C83.4309-40.0428 82.5395-44.5276 80.8069-48.7121C79.0739-52.8969 76.5337-56.6989 73.3311-59.9013C70.1287-63.1038 66.3266-65.644 62.1422-67.3767C57.9578-69.1095 53.4729-70.0009 48.9424-70Z"/>
  </g>
  <g id="Regular-S" transform="matrix(1 0 0 1 1403.58 696)">
   <path class="monochrome-0 multicolor-0:tintColor hierarchical-0:primary SFSymbolsPreviewWireframe" d="M33.155-67.0188C33.881-67.6981 34.0466-68.696 34.5986-70.1312C35.1506-71.5664 35.5243-72.0165 37.1888-72C38.8574-71.9825 40.6493-71.5282 40.9423-70.9804C41.2395-70.4327 41.9061-68.7937 42.1099-66.9041C42.3138-65.0188 41.9953-63.2269 41.7872-62.3777C41.5834-61.5285 42.0335-60.45 42.4666-59.9786C42.904-59.5073 43.456-59.3332 44.4283-59.3332C45.405-59.3332 48.7764-59.0063 51.3666-57.949C53.9567-56.8959 54.8272-56.2675 55.9736-55.189C57.1159-54.1062 57.9141-53.3759 61.413-52.1742C64.9118-50.9641 68.3554-49.9874 70.4021-49.4354C72.4487-48.8834 76.1216-48.5309 77.4422-48.2889C78.7627-48.0383 78.7288-47.9322 78.5037-47.9025C78.2787-47.877 74.7459-47.9322 74.3935-47.8473C74.0368-47.7623 73.7395-47.6562 73.7395-47.6562C73.7395-47.6562 78.2065-47.1891 78.3169-47.1042C78.4273-47.0235 78.3381-46.9428 77.8923-46.998C77.4422-47.0532 73.8882-47.2443 73.6674-47.1339C73.4423-47.0278 73.2003-46.9216 73.0517-46.8664C72.9031-46.8112 69.4255-46.5649 69.2896-46.531C69.1537-46.497 66.3852-45.0066 65.6421-44.841C64.9033-44.6754 63.2133-44.0767 62.7165-43.7455C62.224-43.4143 59.4979-41.2275 59.0479-41.1256C58.5978-41.0279 56.7295-40.7774 55.4004-40.3486C54.0714-39.9155 52.8824-39.0068 51.0354-39.1044C50.8783-38.8709 50.8528-37.9452 51.1033-36.6162C51.3496-35.2914 52.6999-28.1663 53.1287-26.8713C53.5533-25.5762 53.4896-24.6505 52.8103-20.8375C52.1351-17.0244 50.6065-4.19256 50.4919-2.56628C50.3815-0.944254 50.3347-0.944254 49.5237-0.613054C47.838 0.316853 46.1438 0.176731 46.0928 0.176731C46.0376 0.176731 45.8211 0.0663305 45.8211 0.0663305C45.2648 0.121531 45.2139-0.0483157 45.2139-0.222408C44.492-0.239393 44.0377-0.604562 44.0377-0.604562C43.7277-0.604562 43.5706-0.638531 43.6131-0.791393C43.6471-0.944254 43.7532-0.982469 44.0122-0.982469L44.6534-0.982469C44.6534-0.982469 44.6109-1.13533 44.7043-1.13533C44.7935-1.13533 48.0758-1.19053 48.4664-1.30518C48.8528-1.41982 48.9123-1.58967 49.1713-3.47072C49.4261-5.35601 51.116-16.5234 51.3029-20.0604C51.4897-23.5932 50.9462-25.0582 51.8082-26.4976C51.6383-28.6504 50.0078-37.6013 49.6681-38.5694C49.3284-39.5375 48.7339-39.3167 46.7807-40.2551C44.8275-41.1935 41.4178-43.8177 40.2416-47.4184C38.2036-51.826 37.0274-53.6052 36.8236-57.2526C36.8024-59.9871 37.2567-61.8724 37.0274-63.0911C36.8024-64.3055 35.8343-65.6133 34.3651-65.7492C32.8959-65.8893 32.7516-65.8638 30.7983-64.9679C28.8451-64.0719 27.1042-63.2185 25.601-62.6113C24.0979-62.0041 23.478-61.8045 23.478-61.8045C23.3633-61.8385 23.3803-62.089 23.8898-62.3098C24.3994-62.5306 27.9449-64.0465 30.4502-65.4349C32.9554-66.8234 32.4161-66.3394 33.1507-67.0188L33.155-67.0188Z"/>
   <path class="monochrome-1 multicolor-1:tintColor hierarchical-1:tertiary SFSymbolsPreviewWireframe" d="M46.4321-81.8365C52.4502-81.8377 58.4096-80.6532 63.9698-78.3508C69.53-76.0483 74.5822-72.6729 78.8374-68.4176C83.0928-64.1624 86.4682-59.1103 88.771-53.5496C91.0733-47.9892 92.2577-42.03 92.2566-36.0127C92.2566-10.693 71.744 9.83658 46.4328 9.83658C21.1173 9.83658 0.5835-10.6972 0.5835-36.0127C0.5835-61.3211 21.1145-81.8365 46.4321-81.8365ZM46.4328-75.0865C24.8413-75.0865 7.3335-57.592 7.3335-36.0127C7.3335-14.4252 24.8452 3.08658 46.4328 3.08658C68.0148 3.08658 85.5066-14.4197 85.5066-36.0133C85.5076-41.1447 84.4976-46.226 82.5345-50.9672C80.571-55.7085 77.693-60.0162 74.0644-63.6446C70.4361-67.273 66.1283-70.1511 61.3873-72.1143C56.6463-74.0776 51.5649-75.0875 46.4328-75.0865Z"/>
  </g>
  <g id="Ultralight-S" transform="matrix(1 0 0 1 515.649 696)">
   <path class="monochrome-0 multicolor-0:tintColor hierarchical-0:primary SFSymbolsPreviewWireframe" d="M26.086-68.0188C26.812-68.6981 26.9776-69.696 27.5296-71.1312C28.0816-72.5664 28.4553-73.0165 30.1198-73C31.7884-72.9825 33.5803-72.5282 33.8733-71.9804C34.1705-71.4327 34.8371-69.7937 35.0409-67.9041C35.2448-66.0188 34.9263-64.2269 34.7182-63.3777C34.5144-62.5285 34.9645-61.45 35.3976-60.9786C35.835-60.5073 36.387-60.3332 37.3593-60.3332C38.336-60.3332 41.7074-60.0063 44.2976-58.949C46.8877-57.8959 47.7582-57.2675 48.9046-56.189C50.0469-55.1062 50.8451-54.3759 54.344-53.1742C57.8428-51.9641 61.2864-50.9874 63.3331-50.4354C65.3797-49.8834 69.0526-49.5309 70.3732-49.2889C71.6937-49.0383 71.6598-48.9322 71.4347-48.9025C71.2097-48.877 67.6769-48.9322 67.3245-48.8473C66.9678-48.7623 66.6705-48.6562 66.6705-48.6562C66.6705-48.6562 71.1375-48.1891 71.2479-48.1042C71.3583-48.0235 71.2691-47.9428 70.8233-47.998C70.3732-48.0532 66.8192-48.2443 66.5984-48.1339C66.3733-48.0278 66.1313-47.9216 65.9827-47.8664C65.8341-47.8112 62.3565-47.5649 62.2206-47.531C62.0847-47.497 59.3162-46.0066 58.5731-45.841C57.8343-45.6754 56.1443-45.0767 55.6475-44.7455C55.155-44.4143 52.4289-42.2275 51.9789-42.1256C51.5288-42.0279 49.6605-41.7774 48.3314-41.3486C47.0024-40.9155 45.8134-40.0068 43.9664-40.1044C43.8093-39.8709 43.7838-38.9452 44.0343-37.6162C44.2806-36.2914 45.6309-29.1663 46.0597-27.8713C46.4843-26.5762 46.4206-25.6505 45.7413-21.8375C45.0661-18.0244 43.5375-5.19256 43.4229-3.56628C43.3125-1.94425 43.2657-1.94425 42.4547-1.61305C40.769-0.683147 39.0748-0.82327 39.0238-0.82327C38.9686-0.82327 38.7521-0.93367 38.7521-0.93367C38.1958-0.87847 38.1449-1.04832 38.1449-1.22241C37.423-1.23939 36.9687-1.60456 36.9687-1.60456C36.6587-1.60456 36.5016-1.63853 36.5441-1.79139C36.5781-1.94425 36.6842-1.98247 36.9432-1.98247L37.5844-1.98247C37.5844-1.98247 37.5419-2.13533 37.6353-2.13533C37.7245-2.13533 41.0068-2.19053 41.3974-2.30518C41.7838-2.41982 41.8433-2.58967 42.1023-4.47072C42.3571-6.35601 44.047-17.5234 44.2339-21.0604C44.4207-24.5932 43.8772-26.0582 44.7392-27.4976C44.5693-29.6504 42.9388-38.6013 42.5991-39.5694C42.2594-40.5375 41.6649-40.3167 39.7117-41.2551C37.7585-42.1935 34.3488-44.8177 33.1726-48.4184C31.1346-52.826 29.9584-54.6052 29.7546-58.2526C29.7334-60.9871 30.1877-62.8724 29.9584-64.0911C29.7334-65.3055 28.7653-66.6133 27.2961-66.7492C25.8269-66.8893 25.6826-66.8638 23.7293-65.9679C21.7761-65.0719 20.0352-64.2185 18.532-63.6113C17.0289-63.0041 16.409-62.8045 16.409-62.8045C16.2943-62.8385 16.3113-63.089 16.8208-63.3098C17.3304-63.5306 20.8759-65.0465 23.3812-66.4349C25.8864-67.8234 25.3471-67.3394 26.0817-68.0188L26.086-68.0188Z"/>
   <path class="monochrome-1 multicolor-1:tintColor hierarchical-1:tertiary SFSymbolsPreviewWireframe" d="M44.3636-80.5865C50.0861-80.5876 55.7528-79.4613 61.04-77.272C66.3271-75.0826 71.1312-71.8729 75.1774-67.8265C79.2239-63.7803 82.4335-58.9764 84.6232-53.6889C86.8124-48.4015 87.9387-42.7349 87.9376-37.0127C87.9376-12.9352 68.432 6.58658 44.3638 6.58658C20.2909 6.58658 0.7645-12.9399 0.7645-37.0127C0.7645-61.0781 20.2877-80.5865 44.3636-80.5865ZM44.3638-78.3365C21.53-78.3365 3.0145-59.8351 3.0145-37.0127C3.0145-14.1825 21.5336 4.33658 44.3638 4.33658C67.1889 4.33658 85.6876-14.1774 85.6876-37.0129C85.6886-42.4398 84.6205-47.8138 82.5443-52.828C80.4678-57.8425 77.4239-62.3983 73.5865-66.2355C69.7491-70.073 65.1932-73.1168 60.1791-75.1931C55.1651-77.2695 49.791-78.3376 44.3638-78.3365Z"/>
  </g>
 </g>
</svg>
