<?xml version="1.0" encoding="UTF-8"?>
<!--Generator: Apple Native CoreSVG 341-->
<!DOCTYPE svg
PUBLIC "-//W3C//DTD SVG 1.1//EN"
       "http://www.w3.org/Graphics/SVG/1.1/DTD/svg11.dtd">
<svg version="1.1" xmlns="http://www.w3.org/2000/svg" xmlns:xlink="http://www.w3.org/1999/xlink" viewBox="0 0 3300 2200">
 <!--glyph: "", point size: 100.0, font version: "20.0d10e1", template writer version: "138.0.0"-->
 <style>.monochrome-0 {-sfsymbols-motion-group:1;-sfsymbols-layer-tags:-5a44e6451af3659b}
.monochrome-1 {-sfsymbols-motion-group:0;-sfsymbols-layer-tags:-5a44e6451af3659b}

.multicolor-0:tintColor {-sfsymbols-motion-group:1;-sfsymbols-layer-tags:-5a44e6451af3659b}
.multicolor-1:tintColor {-sfsymbols-motion-group:0;-sfsymbols-layer-tags:-5a44e6451af3659b}

.hierarchical-0:primary {-sfsymbols-motion-group:1;-sfsymbols-layer-tags:-5a44e6451af3659b}
.hierarchical-1:tertiary {-sfsymbols-motion-group:0;-sfsymbols-layer-tags:-5a44e6451af3659b}

.SFSymbolsPreviewWireframe {fill:none;opacity:1.0;stroke:black;stroke-width:0.5}
</style>
 <g id="Notes">
  <rect height="2200" id="artboard" style="fill:white;opacity:1" width="3300" x="0" y="0"/>
  <line style="fill:none;stroke:black;opacity:1;stroke-width:0.5;" x1="263" x2="3036" y1="292" y2="292"/>
  <text style="stroke:none;fill:black;font-family:sans-serif;font-size:13;font-weight:bold;" transform="matrix(1 0 0 1 263 322)">Weight/Scale Variations</text>
  <text style="stroke:none;fill:black;font-family:sans-serif;font-size:13;text-anchor:middle;" transform="matrix(1 0 0 1 559.711 322)">Ultralight</text>
  <text style="stroke:none;fill:black;font-family:sans-serif;font-size:13;text-anchor:middle;" transform="matrix(1 0 0 1 856.422 322)">Thin</text>
  <text style="stroke:none;fill:black;font-family:sans-serif;font-size:13;text-anchor:middle;" transform="matrix(1 0 0 1 1153.13 322)">Light</text>
  <text style="stroke:none;fill:black;font-family:sans-serif;font-size:13;text-anchor:middle;" transform="matrix(1 0 0 1 1449.84 322)">Regular</text>
  <text style="stroke:none;fill:black;font-family:sans-serif;font-size:13;text-anchor:middle;" transform="matrix(1 0 0 1 1746.56 322)">Medium</text>
  <text style="stroke:none;fill:black;font-family:sans-serif;font-size:13;text-anchor:middle;" transform="matrix(1 0 0 1 2043.27 322)">Semibold</text>
  <text style="stroke:none;fill:black;font-family:sans-serif;font-size:13;text-anchor:middle;" transform="matrix(1 0 0 1 2339.98 322)">Bold</text>
  <text style="stroke:none;fill:black;font-family:sans-serif;font-size:13;text-anchor:middle;" transform="matrix(1 0 0 1 2636.69 322)">Heavy</text>
  <text style="stroke:none;fill:black;font-family:sans-serif;font-size:13;text-anchor:middle;" transform="matrix(1 0 0 1 2933.4 322)">Black</text>
  <line style="fill:none;stroke:black;opacity:1;stroke-width:0.5;" x1="263" x2="3036" y1="1903" y2="1903"/>
  <g transform="matrix(0.2 0 0 0.2 263 1933)">
   <path d="m46.2402 4.15039c21.7773 0 39.4531-17.627 39.4531-39.4043s-17.6758-39.4043-39.4531-39.4043c-21.7285 0-39.4043 17.627-39.4043 39.4043s17.6758 39.4043 39.4043 39.4043Zm0-7.42188c-17.6758 0-31.9336-14.3066-31.9336-31.9824s14.2578-31.9824 31.9336-31.9824 31.9824 14.3066 31.9824 31.9824-14.3066 31.9824-31.9824 31.9824Zm-17.9688-31.9824c0 2.14844 1.51367 3.61328 3.75977 3.61328h10.498v10.5957c0 2.19727 1.46484 3.71094 3.61328 3.71094 2.24609 0 3.71094-1.51367 3.71094-3.71094v-10.5957h10.5957c2.19727 0 3.71094-1.46484 3.71094-3.61328 0-2.19727-1.51367-3.71094-3.71094-3.71094h-10.5957v-10.5469c0-2.24609-1.46484-3.75977-3.71094-3.75977-2.14844 0-3.61328 1.51367-3.61328 3.75977v10.5469h-10.498c-2.24609 0-3.75977 1.51367-3.75977 3.71094Z"/>
  </g>
  <g transform="matrix(0.2 0 0 0.2 281.506 1933)">
   <path d="m58.5449 14.5508c27.4902 0 49.8047-22.3145 49.8047-49.8047s-22.3145-49.8047-49.8047-49.8047-49.8047 22.3145-49.8047 49.8047 22.3145 49.8047 49.8047 49.8047Zm0-8.30078c-22.9492 0-41.5039-18.5547-41.5039-41.5039s18.5547-41.5039 41.5039-41.5039 41.5039 18.5547 41.5039 41.5039-18.5547 41.5039-41.5039 41.5039Zm-22.6562-41.5039c0 2.39258 1.66016 4.00391 4.15039 4.00391h14.3555v14.4043c0 2.44141 1.66016 4.15039 4.05273 4.15039 2.44141 0 4.15039-1.66016 4.15039-4.15039v-14.4043h14.4043c2.44141 0 4.15039-1.61133 4.15039-4.00391 0-2.44141-1.70898-4.15039-4.15039-4.15039h-14.4043v-14.3555c0-2.49023-1.70898-4.19922-4.15039-4.19922-2.39258 0-4.05273 1.70898-4.05273 4.19922v14.3555h-14.3555c-2.49023 0-4.15039 1.70898-4.15039 4.15039Z"/>
  </g>
  <g transform="matrix(0.2 0 0 0.2 304.924 1933)">
   <path d="m74.8535 28.3203c35.1074 0 63.623-28.4668 63.623-63.5742s-28.5156-63.623-63.623-63.623-63.5742 28.5156-63.5742 63.623 28.4668 63.5742 63.5742 63.5742Zm0-9.08203c-30.127 0-54.4922-24.3652-54.4922-54.4922s24.3652-54.4922 54.4922-54.4922 54.4922 24.3652 54.4922 54.4922-24.3652 54.4922-54.4922 54.4922Zm-28.8574-54.4922c0 2.58789 1.85547 4.39453 4.58984 4.39453h19.7266v19.7754c0 2.68555 1.85547 4.58984 4.44336 4.58984 2.68555 0 4.54102-1.85547 4.54102-4.58984v-19.7754h19.7754c2.68555 0 4.58984-1.80664 4.58984-4.39453 0-2.73438-1.85547-4.58984-4.58984-4.58984h-19.7754v-19.7266c0-2.73438-1.85547-4.63867-4.54102-4.63867-2.58789 0-4.44336 1.9043-4.44336 4.63867v19.7266h-19.7266c-2.73438 0-4.58984 1.85547-4.58984 4.58984Z"/>
  </g>
  <text style="stroke:none;fill:black;font-family:sans-serif;font-size:13;font-weight:bold;" transform="matrix(1 0 0 1 263 1953)">Design Variations</text>
  <text style="stroke:none;fill:black;font-family:sans-serif;font-size:13;" transform="matrix(1 0 0 1 263 1971)">Symbols are supported in up to nine weights and three scales.</text>
  <text style="stroke:none;fill:black;font-family:sans-serif;font-size:13;" transform="matrix(1 0 0 1 263 1989)">For optimal layout with text and other symbols, vertically align</text>
  <text style="stroke:none;fill:black;font-family:sans-serif;font-size:13;" transform="matrix(1 0 0 1 263 2007)">symbols with the adjacent text.</text>
  <line style="fill:none;stroke:#00AEEF;stroke-width:0.5;opacity:1.0;" x1="776" x2="776" y1="1919" y2="1933"/>
  <g transform="matrix(0.2 0 0 0.2 776 1933)">
   <path d="m16.5527 0.78125c2.58789 0 3.85742-0.976562 4.78516-3.71094l6.29883-17.2363h28.8086l6.29883 17.2363c0.927734 2.73438 2.19727 3.71094 4.73633 3.71094 2.58789 0 4.24805-1.5625 4.24805-4.00391 0-0.830078-0.146484-1.61133-0.537109-2.63672l-22.9004-60.9863c-1.12305-2.97852-3.125-4.49219-6.25-4.49219-3.02734 0-5.07812 1.46484-6.15234 4.44336l-22.9004 61.084c-0.390625 1.02539-0.537109 1.80664-0.537109 2.63672 0 2.44141 1.5625 3.95508 4.10156 3.95508Zm13.4766-28.3691 11.8652-32.8613h0.244141l11.8652 32.8613Z"/>
  </g>
  <line style="fill:none;stroke:#00AEEF;stroke-width:0.5;opacity:1.0;" x1="792.836" x2="792.836" y1="1919" y2="1933"/>
  <text style="stroke:none;fill:black;font-family:sans-serif;font-size:13;font-weight:bold;" transform="matrix(1 0 0 1 776 1953)">Margins</text>
  <text style="stroke:none;fill:black;font-family:sans-serif;font-size:13;" transform="matrix(1 0 0 1 776 1971)">Leading and trailing margins on the left and right side of each symbol</text>
  <text style="stroke:none;fill:black;font-family:sans-serif;font-size:13;" transform="matrix(1 0 0 1 776 1989)">can be adjusted by modifying the x-location of the margin guidelines.</text>
  <text style="stroke:none;fill:black;font-family:sans-serif;font-size:13;" transform="matrix(1 0 0 1 776 2007)">Modifications are automatically applied proportionally to all</text>
  <text style="stroke:none;fill:black;font-family:sans-serif;font-size:13;" transform="matrix(1 0 0 1 776 2025)">scales and weights.</text>
  <g transform="matrix(0.2 0 0 0.2 1289 1933)">
   <path d="m14.209 9.32617 8.49609 8.54492c4.29688 4.3457 9.22852 4.05273 13.8672-1.07422l53.4668-58.9355-4.83398-4.88281-53.0762 58.3984c-1.75781 2.00195-3.41797 2.49023-5.76172 0.146484l-5.85938-5.81055c-2.34375-2.29492-1.80664-4.00391 0.195312-5.81055l57.373-54.0039-4.88281-4.83398-57.959 54.4434c-4.93164 4.58984-5.32227 9.47266-1.02539 13.8184Zm32.0801-90.9668c-2.09961 2.05078-2.24609 4.93164-1.07422 6.88477 1.17188 1.80664 3.4668 2.97852 6.68945 2.14844 7.32422-1.70898 14.9414-2.00195 22.0703 2.68555l-2.92969 7.27539c-1.70898 4.15039-0.830078 7.08008 1.85547 9.81445l11.4746 11.5723c2.44141 2.44141 4.49219 2.53906 7.32422 2.05078l5.32227-0.976562 3.32031 3.36914-0.195312 2.7832c-0.195312 2.49023 0.439453 4.39453 2.88086 6.78711l3.80859 3.71094c2.39258 2.39258 5.46875 2.53906 7.8125 0.195312l14.5508-14.5996c2.34375-2.34375 2.24609-5.32227-0.146484-7.71484l-3.85742-3.80859c-2.39258-2.39258-4.24805-3.17383-6.64062-2.97852l-2.88086 0.244141-3.22266-3.17383 1.2207-5.61523c0.634766-2.83203-0.146484-5.0293-3.07617-7.95898l-10.9863-10.9375c-16.6992-16.6016-38.8672-16.2109-53.3203-1.75781Zm7.4707 1.85547c12.1582-8.88672 28.6133-7.37305 39.7461 3.75977l12.1582 12.0605c1.17188 1.17188 1.36719 2.09961 1.02539 3.80859l-1.61133 7.42188 7.51953 7.42188 4.93164-0.292969c1.26953-0.0488281 1.66016 0.0488281 2.63672 1.02539l2.88086 2.88086-12.207 12.207-2.88086-2.88086c-0.976562-0.976562-1.12305-1.36719-1.07422-2.68555l0.341797-4.88281-7.4707-7.42188-7.61719 1.26953c-1.61133 0.341797-2.34375 0.195312-3.56445-0.976562l-10.0098-10.0098c-1.26953-1.17188-1.41602-2.00195-0.634766-3.85742l4.39453-10.4492c-7.8125-7.27539-17.9688-10.4004-28.125-7.42188-0.78125 0.195312-1.07422-0.439453-0.439453-0.976562Z"/>
  </g>
  <text style="stroke:none;fill:black;font-family:sans-serif;font-size:13;font-weight:bold;" transform="matrix(1 0 0 1 1289 1953)">Exporting</text>
  <text style="stroke:none;fill:black;font-family:sans-serif;font-size:13;" transform="matrix(1 0 0 1 1289 1971)">Symbols should be outlined when exporting to ensure the</text>
  <text style="stroke:none;fill:black;font-family:sans-serif;font-size:13;" transform="matrix(1 0 0 1 1289 1989)">design is preserved when submitting to Xcode.</text>
  <text id="template-version" style="stroke:none;fill:black;font-family:sans-serif;font-size:13;text-anchor:end;" transform="matrix(1 0 0 1 3036 1933)">Template v.6.0</text>
  <text style="stroke:none;fill:black;font-family:sans-serif;font-size:13;text-anchor:end;" transform="matrix(1 0 0 1 3036 1951)">Requires Xcode 16 or greater</text>
  <text id="descriptive-name" style="stroke:none;fill:black;font-family:sans-serif;font-size:13;text-anchor:end;" transform="matrix(1 0 0 1 3036 1969)">Generated from filtervogelgruppe-47</text>
  <text style="stroke:none;fill:black;font-family:sans-serif;font-size:13;text-anchor:end;" transform="matrix(1 0 0 1 3036 1987)">Typeset at 100.0 points</text>
  <text style="stroke:none;fill:black;font-family:sans-serif;font-size:13;" transform="matrix(1 0 0 1 263 726)">Small</text>
  <text style="stroke:none;fill:black;font-family:sans-serif;font-size:13;" transform="matrix(1 0 0 1 263 1156)">Medium</text>
  <text style="stroke:none;fill:black;font-family:sans-serif;font-size:13;" transform="matrix(1 0 0 1 263 1586)">Large</text>
 </g>
 <g id="Guides">
  <g id="H-reference" style="fill:#27AAE1;stroke:none;" transform="matrix(1 0 0 1 339 696)">
   <path d="M0.993654 0L3.63775 0L29.3281-67.1323L30.0303-67.1323L30.0303-70.459L28.1226-70.459ZM11.6885-24.4799L46.9815-24.4799L46.2315-26.7285L12.4385-26.7285ZM55.1196 0L57.7637 0L30.6382-70.459L29.4326-70.459L29.4326-67.1323Z"/>
  </g>
  <line id="Baseline-S" style="fill:none;stroke:#27AAE1;opacity:1;stroke-width:0.5;" x1="263" x2="3036" y1="696" y2="696"/>
  <line id="Capline-S" style="fill:none;stroke:#27AAE1;opacity:1;stroke-width:0.5;" x1="263" x2="3036" y1="625.541" y2="625.541"/>
  <g id="H-reference" style="fill:#27AAE1;stroke:none;" transform="matrix(1 0 0 1 339 1126)">
   <path d="M0.993654 0L3.63775 0L29.3281-67.1323L30.0303-67.1323L30.0303-70.459L28.1226-70.459ZM11.6885-24.4799L46.9815-24.4799L46.2315-26.7285L12.4385-26.7285ZM55.1196 0L57.7637 0L30.6382-70.459L29.4326-70.459L29.4326-67.1323Z"/>
  </g>
  <line id="Baseline-M" style="fill:none;stroke:#27AAE1;opacity:1;stroke-width:0.5;" x1="263" x2="3036" y1="1126" y2="1126"/>
  <line id="Capline-M" style="fill:none;stroke:#27AAE1;opacity:1;stroke-width:0.5;" x1="263" x2="3036" y1="1055.54" y2="1055.54"/>
  <g id="H-reference" style="fill:#27AAE1;stroke:none;" transform="matrix(1 0 0 1 339 1556)">
   <path d="M0.993654 0L3.63775 0L29.3281-67.1323L30.0303-67.1323L30.0303-70.459L28.1226-70.459ZM11.6885-24.4799L46.9815-24.4799L46.2315-26.7285L12.4385-26.7285ZM55.1196 0L57.7637 0L30.6382-70.459L29.4326-70.459L29.4326-67.1323Z"/>
  </g>
  <line id="Baseline-L" style="fill:none;stroke:#27AAE1;opacity:1;stroke-width:0.5;" x1="263" x2="3036" y1="1556" y2="1556"/>
  <line id="Capline-L" style="fill:none;stroke:#27AAE1;opacity:1;stroke-width:0.5;" x1="263" x2="3036" y1="1485.54" y2="1485.54"/>
  <line id="right-margin-Black-S" style="fill:none;stroke:#00AEEF;stroke-width:0.5;opacity:1.0;" x1="2982.23" x2="2982.23" y1="600.785" y2="720.121"/>
  <line id="left-margin-Black-S" style="fill:none;stroke:#00AEEF;stroke-width:0.5;opacity:1.0;" x1="2884.57" x2="2884.57" y1="600.785" y2="720.121"/>
  <line id="right-margin-Regular-S" style="fill:none;stroke:#00AEEF;stroke-width:0.5;opacity:1.0;" x1="1496.11" x2="1496.11" y1="600.785" y2="720.121"/>
  <line id="left-margin-Regular-S" style="fill:none;stroke:#00AEEF;stroke-width:0.5;opacity:1.0;" x1="1403.58" x2="1403.58" y1="600.785" y2="720.121"/>
  <line id="right-margin-Ultralight-S" style="fill:none;stroke:#00AEEF;stroke-width:0.5;opacity:1.0;" x1="603.773" x2="603.773" y1="600.785" y2="720.121"/>
  <line id="left-margin-Ultralight-S" style="fill:none;stroke:#00AEEF;stroke-width:0.5;opacity:1.0;" x1="515.649" x2="515.649" y1="600.785" y2="720.121"/>
 </g>
 <g id="Symbols">
  <g id="Black-S" transform="matrix(1 0 0 1 2884.57 696)">
   <path class="monochrome-0 multicolor-0:tintColor hierarchical-0:primary SFSymbolsPreviewWireframe" d="M23.2551-35.0869L22.9751-35.2469C22.7551-35.3829 22.5431-35.5429 22.3231-35.6509C21.9591-35.8269 21.5871-35.9629 21.2231-36.1309C20.8579-36.2949 20.5002-36.4749 20.1511-36.6709C19.6312-36.9668 19.1272-37.3068 18.6112-37.6068C18.2112-37.8428 17.8032-38.0348 17.4072-38.2708C17.2343-38.3621 17.0858-38.4938 16.9745-38.6548C16.8631-38.8154 16.792-39.0007 16.7672-39.1947C16.6872-39.6467 16.8352-40.0667 17.1112-40.0667C17.5632-40.0667 18.0152-39.9947 18.4712-39.9227C18.7792-39.8747 19.0912-39.7787 19.3992-39.7027C19.8632-39.5827 20.3271-39.4627 20.7951-39.3547C21.5151-39.1867 22.2351-39.0187 22.9551-38.8747C23.6431-38.7428 24.3391-38.6228 25.0351-38.5268C25.4471-38.4708 25.8711-38.4988 26.2871-38.4548C26.6151-38.4228 26.9391-38.2988 27.2631-38.2788C27.951-38.2388 28.643-38.2628 29.331-38.2108C30.275-38.1468 31.219-38.0508 32.159-37.9388C32.775-37.8708 33.383-37.7188 33.999-37.6868C34.367-37.6668 34.735-37.8148 35.107-37.8628C35.459-37.9068 35.8109-37.9268 36.1669-37.9428C36.3109-37.9508 36.4629-37.9028 36.6069-37.9348C36.6829-37.9548 36.7669-38.0748 36.8189-38.1908C37.1429-38.9227 37.4469-39.6987 37.9509-40.1267C38.5669-40.6547 39.2029-41.1266 39.8149-41.6626C40.6949-42.4306 41.639-42.7986 42.611-43.0345C43.127-43.1625 43.639-43.3425 44.1589-43.4185C44.9709-43.5305 45.7189-44.0345 46.4909-44.3865C46.9629-44.6025 47.4349-44.8385 47.9109-45.0344C48.8189-45.4064 49.7269-45.7664 50.6389-46.1064C51.0989-46.2784 51.5668-46.3864 52.0268-46.5464C52.6668-46.7864 53.3028-47.0663 53.9468-47.2943C54.5148-47.4943 55.0988-47.6223 55.6708-47.8223C55.9668-47.9263 56.2468-48.1343 56.5388-48.2543C56.7068-48.3262 56.8908-48.2863 57.0628-48.3382C57.3508-48.4262 57.6348-48.5582 57.9188-48.6542C58.0508-48.6942 58.1868-48.6942 58.3188-48.7182C58.7028-48.7862 59.0828-48.8302 59.4587-48.9422C59.6401-49.0147 59.7874-49.1534 59.8707-49.3302C60.2267-50.0262 60.5227-50.8141 60.9107-51.4581C61.1387-51.8461 61.4787-52.0781 61.7907-52.2981C62.4467-52.766 63.1507-52.938 63.8427-53.158C64.5627-53.378 65.2747-53.642 65.9907-53.842C66.7367-54.084 67.5456-54.047 68.2666-53.738C68.8426-53.474 69.4106-53.066 69.9386-52.582C70.4906-52.0781 70.9986-51.4261 71.5106-50.7981C72.0746-50.1022 72.6866-49.6542 73.3946-49.5742C74.0106-49.5062 74.6186-49.3662 75.2305-49.2542C75.7465-49.1542 76.2625-49.0582 76.7785-48.9502C77.3185-48.8382 77.8585-48.7542 78.3945-48.5782C78.6945-48.4782 78.9825-48.2383 79.2665-48.0223C79.4825-47.8623 79.4865-47.4183 79.2665-47.3183C78.9065-47.1543 78.5225-47.1183 78.1505-47.0183C77.7345-46.9104 77.3185-46.7944 76.8985-46.6944C76.6785-46.6384 76.4585-46.6104 76.2385-46.5744C75.5585-46.4544 74.8786-46.3544 74.1986-46.2184C73.7586-46.1304 73.3986-45.6944 73.0786-45.2184C72.5186-44.3585 71.9586-43.4585 71.6506-42.2666C71.4586-41.5186 71.3426-40.7067 71.2226-39.9147C71.1346-39.3347 71.0266-38.7268 71.0506-38.1468C71.0786-37.4588 71.0066-36.8108 70.9586-36.1469C70.9346-35.7789 71.0066-35.3869 70.9666-35.0269C70.8923-34.3996 70.7949-33.775 70.6746-33.155C70.5346-32.3991 70.4226-31.6151 70.2106-30.9231C69.8826-29.8472 69.4906-28.8232 69.1026-27.8033C68.9226-27.3313 68.6786-26.9233 68.4786-26.4674C68.0626-25.5074 67.5106-24.8034 66.9587-24.0915C66.5187-23.5315 66.1267-22.8755 65.6907-22.3196C65.2547-21.7676 64.7827-21.3076 64.3387-20.7796C63.6187-19.9317 62.7787-19.6757 61.9587-19.3117C61.4787-19.0957 61.0067-18.7917 60.5227-18.5837C60.0587-18.3837 59.5987-18.1238 59.0948-18.1838C58.7548-18.2238 58.4108-18.1398 58.0668-18.0798C57.8908-18.0518 57.8068-17.8718 57.8268-17.5518C57.8428-17.1838 57.8388-16.8118 57.8428-16.4438C57.8428-16.3758 57.8348-16.3038 57.8428-16.2439C57.9108-15.6719 57.9908-15.1079 58.0508-14.5399C58.1028-14.076 58.1228-13.604 58.1708-13.14C58.2508-12.32 58.5308-11.8801 59.0108-11.6721C59.8187-11.3241 60.6387-11.4801 61.4587-11.4441C61.8667-11.4241 62.2787-11.3281 62.6827-11.2161C62.8707-11.1641 62.8627-10.8321 62.8027-10.6321C62.7797-10.5615 62.7417-10.4965 62.6914-10.4418C62.641-10.3875 62.5794-10.3445 62.5107-10.3161C62.2237-10.2268 61.9291-10.1638 61.6307-10.1282C61.1747-10.0682 60.7227-9.99616 60.2707-10C59.5307-10.0122 58.7948-10.0762 58.0588-10.1282C57.7708-10.1482 57.4868-10.1921 57.1988-10.2321C57.1708-10.2361 57.1308-10.2521 57.1188-10.2881C56.9268-10.7201 56.6548-10.6481 56.3988-10.6081C56.1348-10.5681 55.8788-10.4841 55.6148-10.4001C55.4308-10.3361 55.2708-10.3441 55.1348-10.6121C54.9985-10.8731 54.9658-11.1758 55.0428-11.4601C55.2668-12.304 55.3148-13.176 55.1828-14.076C55.0028-15.3039 54.7548-16.4838 54.1708-17.3478C53.8588-17.8118 53.4988-18.1758 53.0668-18.2598C53.0148-18.2718 52.9748-18.3557 52.9228-18.3917C52.6188-18.5997 52.3188-18.8117 52.0108-19.0117C51.5469-19.3117 51.0789-19.5837 50.6189-19.9037C49.8589-20.4276 49.0989-20.9596 48.3549-21.5316C47.9549-21.8356 47.5869-22.2396 47.2029-22.5955L46.4909-23.2475C46.1429-23.5675 45.8069-23.9395 45.4429-24.2075C44.6909-24.7634 43.9149-25.2154 43.171-25.7994C42.227-26.5393 41.2029-26.7513 40.2149-27.1753C39.3909-27.5353 38.5709-27.8793 37.7549-28.2713C37.0989-28.5872 36.4629-28.9832 35.8109-29.3112C35.587-29.4232 35.351-29.4472 35.119-29.4832C34.479-29.5792 33.843-29.6832 33.207-29.7512C32.087-29.8592 30.975-29.9392 29.859-30.0392C29.579-30.0632 29.307-30.1072 29.031-30.1512C28.999-30.1512 28.951-30.1912 28.943-30.2272C28.883-30.5512 28.727-30.4992 28.583-30.5072C28.007-30.5392 27.4391-30.5951 26.8631-30.6031C26.481-30.6041 26.102-30.6718 25.7431-30.8031C25.6031-30.8551 25.4391-30.7431 25.2871-30.7111C25.2351-30.6991 25.1791-30.6911 25.1271-30.7111C24.9591-30.7911 24.7911-30.9351 24.6191-30.9511C24.2031-30.9911 23.7791-30.9351 23.3631-30.9791C22.7551-31.0471 22.1551-31.1751 21.5511-31.2631C21.1904-31.3191 20.8274-31.3591 20.4631-31.3831C20.0391-31.4111 19.6112-31.3991 19.1832-31.4191C18.8232-31.4311 18.4552-31.4471 18.0912-31.4991C17.7208-31.5464 17.3553-31.6268 16.9992-31.7391C16.8392-31.7911 16.6912-31.9791 16.5432-32.1151C16.3312-32.3151 16.1112-32.5111 15.9112-32.747C15.7559-32.9324 15.6292-33.14 15.5352-33.363C15.4473-33.575 15.4136-33.8057 15.4374-34.0343C15.4611-34.2626 15.5415-34.4813 15.6712-34.671C15.7912-34.8429 15.9352-34.8509 16.0712-34.9269C16.4632-35.1349 16.8592-35.1149 17.2552-35.1269C17.6312-35.1309 18.0032-35.0669 18.3792-35.0469C19.5992-34.9669 20.8191-34.8789 22.0431-34.8309C22.4431-34.8149 22.8431-34.9109 23.2431-34.9549L23.2551-35.0869L23.2551-35.0869ZM59.166-11.5948L59.43-11.6149C59.07-12.463 58.762-13.3191 58.33-14.1593C57.838-15.1194 57.21-16.0676 56.6821-17.0237C56.2581-17.7839 55.4981-18.0519 53.7501-17.9919C53.3101-17.9759 52.8701-17.9919 52.4381-17.9679C52.2181-17.9559 51.8462-17.8959 51.8302-17.8399C51.6622-17.3078 51.2942-16.7477 51.4822-16.2396C51.9062-15.0794 52.7621-13.9512 53.1621-12.795C53.5221-11.7549 54.6301-10.9347 56.2181-10.2426C56.6701-10.0466 57.618-9.95858 58.246-10.0186C58.638-10.0546 58.99-10.4467 59.13-10.7027C59.282-10.9827 59.166-11.2988 59.166-11.5948L59.166-11.5948Z"/>
   <path class="monochrome-1 multicolor-1:tintColor hierarchical-1:tertiary SFSymbolsPreviewWireframe" d="M48.9411-84C55.3091-84.0013 61.615-82.7479 67.4985-80.3116C73.382-77.8752 78.7279-74.3036 83.2305-69.8009C87.7334-65.2983 91.305-59.9524 93.7418-54.0682C96.1779-48.1846 97.4312-41.8789 97.43-35.5124C97.43-8.72255 75.7254 13 48.9424 13C22.156 13 0.43-8.726 0.43-35.5124C0.43-62.2926 22.1539-84 48.9411-84ZM48.9424-70C29.8835-70 14.43-54.5582 14.43-35.5124C14.43-16.458 29.888-0.999999 48.9424-0.999999C67.9909-0.999999 83.43-16.4519 83.43-35.5138C83.4309-40.0428 82.5395-44.5276 80.8069-48.7121C79.0739-52.8969 76.5337-56.6989 73.3311-59.9013C70.1287-63.1038 66.3266-65.644 62.1422-67.3767C57.9578-69.1095 53.4729-70.0009 48.9424-70Z"/>
  </g>
  <g id="Regular-S" transform="matrix(1 0 0 1 1403.58 696)">
   <path class="monochrome-0 multicolor-0:tintColor hierarchical-0:primary SFSymbolsPreviewWireframe" d="M20.7268-33.922L20.4296-34.0919C20.196-34.2362 19.971-34.4061 19.7374-34.5207C19.351-34.7076 18.9562-34.8519 18.5698-35.0303C18.1821-35.2044 17.8024-35.3954 17.4318-35.6035C16.8798-35.9177 16.3448-36.2786 15.797-36.5971C15.3724-36.8476 14.9393-37.0514 14.5189-37.302C14.3353-37.3989 14.1778-37.5387 14.0596-37.7096C13.9413-37.8802 13.8659-38.0769 13.8395-38.2828C13.7546-38.7626 13.9117-39.2085 14.2047-39.2085C14.6845-39.2085 15.1643-39.1321 15.6484-39.0556C15.9754-39.0047 16.3066-38.9028 16.6335-38.8221C17.1261-38.6947 17.6186-38.5673 18.1154-38.4527C18.8797-38.2743 19.644-38.096 20.4083-37.9431C21.1387-37.803 21.8775-37.6756 22.6163-37.5737C23.0537-37.5143 23.5038-37.544 23.9454-37.4973C24.2936-37.4633 24.6375-37.3317 24.9814-37.3105C25.7118-37.268 26.4464-37.2935 27.1767-37.2383C28.1788-37.1703 29.1809-37.0684 30.1787-36.9495C30.8326-36.8773 31.4781-36.716 32.132-36.682C32.5226-36.6608 32.9133-36.8179 33.3082-36.8689C33.6818-36.9156 34.0555-36.9368 34.4334-36.9538C34.5862-36.9623 34.7476-36.9113 34.9005-36.9453C34.9811-36.9665 35.0703-37.0939 35.1255-37.217C35.4694-37.9941 35.7922-38.8178 36.3272-39.2722C36.9811-39.8327 37.6562-40.3337 38.3059-40.9027C39.24-41.718 40.2422-42.1086 41.274-42.3591C41.8218-42.495 42.3653-42.6861 42.9173-42.7668C43.7793-42.8857 44.5733-43.4207 45.3928-43.7943C45.8939-44.0236 46.3949-44.2741 46.9002-44.4822C47.8641-44.8771 48.828-45.2593 49.7961-45.6202C50.2844-45.8028 50.7812-45.9174 51.2695-46.0873C51.9489-46.342 52.624-46.6393 53.3076-46.8813C53.9106-47.0936 54.5305-47.2295 55.1377-47.4418C55.452-47.5522 55.7492-47.7729 56.0592-47.9003C56.2375-47.9768 56.4328-47.9343 56.6154-47.9895C56.9211-48.0829 57.2226-48.223 57.5241-48.3249C57.6642-48.3674 57.8086-48.3674 57.9487-48.3929C58.3563-48.4651 58.7597-48.5118 59.1588-48.6307C59.3513-48.7076 59.5077-48.8548 59.5962-49.0425C59.9741-49.7814 60.2883-50.6179 60.7002-51.3015C60.9422-51.7134 61.3032-51.9597 61.6344-52.1932C62.3307-52.69 63.078-52.8726 63.8126-53.1061C64.5769-53.3397 65.3328-53.6199 66.0928-53.8322C66.8847-54.0891 67.7435-54.0499 68.5089-53.7218C69.1203-53.4416 69.7233-53.0085 70.2838-52.4947C70.8697-51.9597 71.409-51.2675 71.9525-50.6009C72.5512-49.8621 73.2009-49.3865 73.9524-49.3016C74.6064-49.2294 75.2518-49.0808 75.9014-48.9619C76.4492-48.8557 76.9969-48.7538 77.5447-48.6392C78.1179-48.5203 78.6912-48.4311 79.2601-48.2443C79.5786-48.1381 79.8843-47.8833 80.1858-47.6541C80.4151-47.4842 80.4193-47.0129 80.1858-46.9068C79.8036-46.7327 79.396-46.6945 79.0011-46.5883C78.5595-46.4737 78.1179-46.3505 77.6721-46.2444C77.4385-46.1849 77.205-46.1552 76.9715-46.117C76.2496-45.9896 75.5278-45.8834 74.8059-45.7391C74.3388-45.6457 73.9567-45.1828 73.617-44.6775C73.0225-43.7646 72.4281-42.8092 72.1011-41.5439C71.8973-40.7498 71.7742-39.8879 71.6468-39.0471C71.5534-38.4314 71.4387-37.786 71.4642-37.1703C71.4939-36.44 71.4175-35.7521 71.3665-35.0473C71.3411-34.6566 71.4175-34.2405 71.375-33.8583C71.2961-33.1924 71.1928-32.5293 71.0651-31.8711C70.9164-31.0686 70.7976-30.2364 70.5725-29.5018C70.2243-28.3596 69.8082-27.2726 69.3963-26.1898C69.2052-25.6887 68.9462-25.2556 68.7339-24.7716C68.2923-23.7525 67.7064-23.0052 67.1204-22.2493C66.6533-21.6549 66.2372-20.9585 65.7744-20.3683C65.3115-19.7823 64.8105-19.294 64.3392-18.7335C63.5748-17.8333 62.6832-17.5616 61.8127-17.1752C61.3032-16.9459 60.8021-16.6232 60.2883-16.4024C59.7958-16.1901 59.3075-15.9141 58.7724-15.9778C58.4115-16.0202 58.0464-15.9311 57.6812-15.8674C57.4944-15.8377 57.4052-15.6466 57.4264-15.3069C57.4434-14.9162 57.4392-14.5213 57.4434-14.1307C57.4434-14.0585 57.4349-13.9821 57.4434-13.9184C57.5156-13.3112 57.6005-12.7125 57.6642-12.1095C57.7194-11.617 57.7406-11.1159 57.7916-10.6234C57.8765-9.75292 58.1737-9.28584 58.6833-9.06504C59.541-8.69563 60.4115-8.86123 61.2819-8.82301C61.715-8.80178 62.1524-8.69987 62.5812-8.58098C62.7808-8.52578 62.7723-8.17335 62.7086-7.96104C62.6842-7.88603 62.6439-7.81703 62.5904-7.759C62.537-7.70132 62.4716-7.65567 62.3987-7.6256C62.094-7.53077 61.7812-7.46389 61.4645-7.42603C60.9804-7.36233 60.5006-7.2859 60.0208-7.28998C59.2353-7.30289 58.454-7.37083 57.6727-7.42603C57.367-7.44726 57.0655-7.49397 56.7598-7.53643C56.73-7.54067 56.6876-7.55766 56.6748-7.59587C56.471-8.05446 56.1823-7.97803 55.9105-7.93557C55.6303-7.8931 55.3585-7.80393 55.0783-7.71477C54.883-7.64683 54.7131-7.65532 54.5688-7.93981C54.424-8.21687 54.3894-8.53817 54.4711-8.84C54.7089-9.73593 54.7598-10.6616 54.6197-11.617C54.4286-12.9205 54.1654-14.1732 53.5454-15.0903C53.2142-15.5829 52.8321-15.9693 52.3735-16.0585C52.3183-16.0712 52.2758-16.1604 52.2206-16.1986C51.8979-16.4194 51.5795-16.6444 51.2525-16.8567C50.76-17.1752 50.2632-17.4639 49.7748-17.8036C48.9681-18.3599 48.1613-18.9246 47.3715-19.5318C46.9469-19.8545 46.5563-20.2834 46.1486-20.6613L45.3928-21.3534C45.0234-21.6931 44.6667-22.088 44.2803-22.3725C43.482-22.9627 42.6583-23.4425 41.8685-24.0625C40.8664-24.848 39.7793-25.073 38.7305-25.5231C37.8558-25.9053 36.9853-26.2705 36.1191-26.6866C35.4227-27.022 34.7476-27.4424 34.0555-27.7906C33.8177-27.9095 33.5672-27.935 33.3209-27.9732C32.6415-28.0751 31.9664-28.1855 31.2912-28.2577C30.1023-28.3723 28.9219-28.4572 27.7372-28.5634C27.44-28.5889 27.1512-28.6356 26.8582-28.6823C26.8243-28.6823 26.7733-28.7247 26.7648-28.7629C26.7011-29.1069 26.5355-29.0517 26.3827-29.0602C25.7712-29.0942 25.1683-29.1536 24.5568-29.1621C24.1512-29.1631 23.7489-29.235 23.3679-29.3744C23.2193-29.4296 23.0452-29.3107 22.8838-29.2767C22.8286-29.264 22.7692-29.2555 22.714-29.2767C22.5357-29.3617 22.3573-29.5145 22.1747-29.5315C21.7331-29.574 21.283-29.5145 20.8414-29.5612C20.196-29.6334 19.5591-29.7693 18.9179-29.8627C18.535-29.9221 18.1497-29.9646 17.763-29.9901C17.3129-30.0198 16.8586-30.0071 16.4042-30.0283C16.0221-30.041 15.6314-30.058 15.245-30.1132C14.8518-30.1635 14.4639-30.2487 14.0858-30.368C13.916-30.4232 13.7589-30.6228 13.6018-30.7671C13.3767-30.9794 13.1432-31.1875 12.9309-31.438C12.766-31.6348 12.6315-31.8552 12.5317-32.0919C12.4384-32.317 12.4027-32.5618 12.4279-32.8046C12.4531-33.047 12.5384-33.2791 12.6761-33.4804C12.8035-33.663 12.9563-33.6715 13.1007-33.7522C13.5168-33.973 13.9372-33.9518 14.3576-33.9645C14.7567-33.9687 15.1516-33.9008 15.5507-33.8796C16.8458-33.7946 18.1409-33.7012 19.4402-33.6503C19.8648-33.6333 20.2894-33.7352 20.7141-33.7819L20.7268-33.922L20.7268-33.922ZM58.8489-8.98437L59.1291-9.0056C58.747-9.90578 58.42-10.8145 57.9614-11.7061C57.4392-12.7252 56.7725-13.7316 56.212-14.7464C55.7619-15.5532 54.9552-15.8377 53.0996-15.774C52.6325-15.757 52.1654-15.774 51.7068-15.7485C51.4733-15.7357 51.0784-15.6721 51.0614-15.6126C50.8831-15.0479 50.4924-14.4534 50.692-13.9142C51.1421-12.6828 52.0508-11.4853 52.4754-10.2582C52.8576-9.15421 54.0337-8.28375 55.7195-7.54917C56.1993-7.3411 57.2056-7.24769 57.8723-7.31138C58.2884-7.3496 58.662-7.76572 58.8107-8.03747C58.972-8.3347 58.8489-8.67015 58.8489-8.98437L58.8489-8.98437Z"/>
   <path class="monochrome-1 multicolor-1:tintColor hierarchical-1:tertiary SFSymbolsPreviewWireframe" d="M46.4321-81.8365C52.4502-81.8377 58.4096-80.6532 63.9698-78.3508C69.53-76.0483 74.5822-72.6729 78.8374-68.4176C83.0928-64.1624 86.4682-59.1103 88.771-53.5496C91.0733-47.9892 92.2577-42.03 92.2566-36.0127C92.2566-10.693 71.744 9.83658 46.4328 9.83658C21.1173 9.83658 0.5835-10.6972 0.5835-36.0127C0.5835-61.3211 21.1145-81.8365 46.4321-81.8365ZM46.4328-75.0865C24.8413-75.0865 7.3335-57.592 7.3335-36.0127C7.3335-14.4252 24.8452 3.08658 46.4328 3.08658C68.0148 3.08658 85.5066-14.4197 85.5066-36.0133C85.5076-41.1447 84.4976-46.226 82.5345-50.9672C80.571-55.7085 77.693-60.0162 74.0644-63.6446C70.4361-67.273 66.1283-70.1511 61.3873-72.1143C56.6463-74.0776 51.5649-75.0875 46.4328-75.0865Z"/>
  </g>
  <g id="Ultralight-S" transform="matrix(1 0 0 1 515.649 696)">
   <path class="monochrome-0 multicolor-0:tintColor hierarchical-0:primary SFSymbolsPreviewWireframe" d="M18.6578-34.922L18.3606-35.0919C18.127-35.2362 17.902-35.4061 17.6684-35.5207C17.282-35.7076 16.8872-35.8519 16.5008-36.0303C16.1131-36.2044 15.7334-36.3954 15.3628-36.6035C14.8108-36.9177 14.2758-37.2786 13.728-37.5971C13.3034-37.8476 12.8703-38.0514 12.4499-38.302C12.2663-38.3989 12.1088-38.5387 11.9906-38.7096C11.8723-38.8802 11.7969-39.0769 11.7705-39.2828C11.6856-39.7626 11.8427-40.2085 12.1357-40.2085C12.6155-40.2085 13.0953-40.1321 13.5794-40.0556C13.9064-40.0047 14.2376-39.9028 14.5645-39.8221C15.0571-39.6947 15.5496-39.5673 16.0464-39.4527C16.8107-39.2743 17.575-39.096 18.3393-38.9431C19.0697-38.803 19.8085-38.6756 20.5473-38.5737C20.9847-38.5143 21.4348-38.544 21.8764-38.4973C22.2246-38.4633 22.5685-38.3317 22.9124-38.3105C23.6428-38.268 24.3774-38.2935 25.1077-38.2383C26.1098-38.1703 27.1119-38.0684 28.1097-37.9495C28.7636-37.8774 29.4091-37.716 30.063-37.682C30.4536-37.6608 30.8443-37.8179 31.2392-37.8689C31.6128-37.9156 31.9865-37.9368 32.3644-37.9538C32.5172-37.9623 32.6786-37.9113 32.8315-37.9453C32.9121-37.9665 33.0013-38.0939 33.0565-38.217C33.4004-38.9941 33.7232-39.8178 34.2582-40.2722C34.9121-40.8327 35.5872-41.3337 36.2369-41.9027C37.171-42.718 38.1732-43.1086 39.205-43.3591C39.7528-43.495 40.2963-43.6861 40.8483-43.7668C41.7103-43.8857 42.5043-44.4207 43.3238-44.7943C43.8249-45.0236 44.3259-45.2741 44.8312-45.4822C45.7951-45.8771 46.759-46.2593 47.7271-46.6202C48.2154-46.8028 48.7122-46.9174 49.2005-47.0873C49.8799-47.342 50.555-47.6393 51.2386-47.8813C51.8416-48.0936 52.4615-48.2295 53.0687-48.4418C53.383-48.5522 53.6802-48.7729 53.9902-48.9003C54.1685-48.9768 54.3638-48.9343 54.5464-48.9895C54.8521-49.0829 55.1536-49.223 55.4551-49.3249C55.5952-49.3674 55.7396-49.3674 55.8797-49.3929C56.2873-49.4651 56.6907-49.5118 57.0898-49.6307C57.2823-49.7076 57.4387-49.8548 57.5272-50.0425C57.9051-50.7814 58.2193-51.6179 58.6312-52.3015C58.8732-52.7134 59.2342-52.9597 59.5654-53.1932C60.2617-53.69 61.009-53.8726 61.7436-54.1061C62.5079-54.3397 63.2638-54.6199 64.0238-54.8322C64.8157-55.0891 65.6745-55.0499 66.4399-54.7218C67.0513-54.4416 67.6543-54.0085 68.2148-53.4947C68.8007-52.9597 69.34-52.2675 69.8835-51.6009C70.4822-50.8621 71.1319-50.3865 71.8834-50.3016C72.5374-50.2294 73.1828-50.0808 73.8324-49.9619C74.3802-49.8557 74.9279-49.7538 75.4757-49.6392C76.0489-49.5203 76.6222-49.4311 77.1911-49.2443C77.5096-49.1381 77.8153-48.8833 78.1168-48.6541C78.3461-48.4842 78.3503-48.0129 78.1168-47.9068C77.7346-47.7327 77.327-47.6945 76.9321-47.5883C76.4905-47.4737 76.0489-47.3505 75.6031-47.2444C75.3695-47.1849 75.136-47.1552 74.9025-47.117C74.1806-46.9896 73.4588-46.8834 72.7369-46.7391C72.2698-46.6457 71.8877-46.1828 71.548-45.6775C70.9535-44.7646 70.3591-43.8092 70.0321-42.5439C69.8283-41.7498 69.7052-40.8879 69.5778-40.0471C69.4844-39.4314 69.3697-38.786 69.3952-38.1703C69.4249-37.44 69.3485-36.7521 69.2975-36.0473C69.2721-35.6566 69.3485-35.2405 69.306-34.8583C69.2271-34.1924 69.1238-33.5293 68.9961-32.8711C68.8474-32.0686 68.7286-31.2364 68.5035-30.5018C68.1553-29.3596 67.7392-28.2726 67.3273-27.1898C67.1362-26.6887 66.8772-26.2556 66.6649-25.7716C66.2233-24.7525 65.6374-24.0052 65.0514-23.2493C64.5843-22.6549 64.1682-21.9585 63.7054-21.3683C63.2425-20.7823 62.7415-20.294 62.2702-19.7335C61.5058-18.8333 60.6142-18.5616 59.7437-18.1752C59.2342-17.9459 58.7331-17.6232 58.2193-17.4024C57.7268-17.1901 57.2385-16.9141 56.7034-16.9778C56.3425-17.0202 55.9774-16.9311 55.6122-16.8674C55.4254-16.8377 55.3362-16.6466 55.3574-16.3069C55.3744-15.9162 55.3702-15.5213 55.3744-15.1307C55.3744-15.0585 55.3659-14.9821 55.3744-14.9184C55.4466-14.3112 55.5315-13.7125 55.5952-13.1095C55.6504-12.617 55.6716-12.1159 55.7226-11.6234C55.8075-10.7529 56.1047-10.2858 56.6143-10.065C57.472-9.69563 58.3425-9.86123 59.2129-9.82301C59.646-9.80178 60.0834-9.69987 60.5122-9.58098C60.7118-9.52578 60.7033-9.17335 60.6396-8.96104C60.6152-8.88603 60.5749-8.81703 60.5214-8.759C60.468-8.70132 60.4026-8.65567 60.3297-8.6256C60.025-8.53077 59.7122-8.46389 59.3955-8.42603C58.9114-8.36233 58.4316-8.2859 57.9518-8.28998C57.1663-8.30289 56.385-8.37083 55.6037-8.42603C55.298-8.44726 54.9965-8.49397 54.6908-8.53643C54.661-8.54067 54.6186-8.55766 54.6058-8.59587C54.402-9.05446 54.1133-8.97803 53.8415-8.93557C53.5613-8.8931 53.2895-8.80393 53.0093-8.71477C52.814-8.64683 52.6441-8.65532 52.4998-8.93981C52.355-9.21687 52.3204-9.53817 52.4021-9.84C52.6399-10.7359 52.6908-11.6616 52.5507-12.617C52.3596-13.9205 52.0964-15.1732 51.4764-16.0903C51.1452-16.5829 50.7631-16.9693 50.3045-17.0585C50.2493-17.0712 50.2068-17.1604 50.1516-17.1986C49.8289-17.4194 49.5105-17.6444 49.1835-17.8567C48.691-18.1752 48.1942-18.4639 47.7058-18.8036C46.8991-19.3599 46.0923-19.9246 45.3025-20.5318C44.8779-20.8545 44.4873-21.2834 44.0796-21.6613L43.3238-22.3534C42.9544-22.6931 42.5977-23.088 42.2113-23.3725C41.413-23.9627 40.5893-24.4425 39.7995-25.0625C38.7974-25.848 37.7103-26.073 36.6615-26.5231C35.7868-26.9053 34.9163-27.2705 34.0501-27.6866C33.3537-28.022 32.6786-28.4424 31.9865-28.7906C31.7487-28.9095 31.4982-28.935 31.2519-28.9732C30.5725-29.0751 29.8974-29.1855 29.2222-29.2577C28.0333-29.3723 26.8529-29.4572 25.6682-29.5634C25.371-29.5889 25.0822-29.6356 24.7892-29.6823C24.7553-29.6823 24.7043-29.7247 24.6958-29.7629C24.6321-30.1069 24.4665-30.0517 24.3137-30.0602C23.7022-30.0942 23.0993-30.1536 22.4878-30.1621C22.0822-30.1631 21.6799-30.235 21.2989-30.3744C21.1503-30.4296 20.9762-30.3107 20.8148-30.2767C20.7596-30.264 20.7002-30.2555 20.645-30.2767C20.4667-30.3617 20.2883-30.5145 20.1057-30.5315C19.6641-30.574 19.214-30.5145 18.7724-30.5612C18.127-30.6334 17.4901-30.7693 16.8489-30.8627C16.466-30.9221 16.0807-30.9646 15.694-30.9901C15.2439-31.0198 14.7896-31.0071 14.3352-31.0283C13.9531-31.041 13.5624-31.058 13.176-31.1132C12.7828-31.1635 12.3949-31.2487 12.0168-31.368C11.847-31.4232 11.6899-31.6228 11.5328-31.7671C11.3077-31.9794 11.0742-32.1875 10.8619-32.438C10.697-32.6348 10.5625-32.8552 10.4627-33.0919C10.3694-33.317 10.3337-33.5618 10.3589-33.8046C10.3841-34.047 10.4694-34.2791 10.6071-34.4804C10.7345-34.663 10.8873-34.6715 11.0317-34.7522C11.4478-34.973 11.8682-34.9518 12.2886-34.9645C12.6877-34.9687 13.0826-34.9008 13.4817-34.8796C14.7768-34.7946 16.0719-34.7012 17.3712-34.6503C17.7958-34.6333 18.2204-34.7352 18.6451-34.7819L18.6578-34.922L18.6578-34.922ZM56.7799-9.98437L57.0601-10.0056C56.678-10.9058 56.351-11.8145 55.8924-12.7061C55.3702-13.7252 54.7035-14.7316 54.143-15.7464C53.6929-16.5532 52.8862-16.8377 51.0306-16.774C50.5635-16.757 50.0964-16.774 49.6378-16.7485C49.4043-16.7357 49.0094-16.6721 48.9924-16.6126C48.8141-16.0479 48.4234-15.4534 48.623-14.9142C49.0731-13.6828 49.9818-12.4853 50.4064-11.2582C50.7886-10.1542 51.9647-9.28375 53.6505-8.54917C54.1303-8.3411 55.1366-8.24769 55.8033-8.31138C56.2194-8.3496 56.593-8.76572 56.7417-9.03747C56.903-9.3347 56.7799-9.67015 56.7799-9.98437L56.7799-9.98437Z"/>
   <path class="monochrome-1 multicolor-1:tintColor hierarchical-1:tertiary SFSymbolsPreviewWireframe" d="M44.3636-80.5865C50.0861-80.5876 55.7528-79.4613 61.04-77.272C66.3271-75.0826 71.1312-71.8729 75.1774-67.8265C79.2239-63.7803 82.4335-58.9764 84.6232-53.6889C86.8124-48.4015 87.9387-42.7349 87.9376-37.0127C87.9376-12.9352 68.432 6.58658 44.3638 6.58658C20.2909 6.58658 0.7645-12.9399 0.7645-37.0127C0.7645-61.0781 20.2877-80.5865 44.3636-80.5865ZM44.3638-78.3365C21.53-78.3365 3.0145-59.8351 3.0145-37.0127C3.0145-14.1825 21.5336 4.33658 44.3638 4.33658C67.1889 4.33658 85.6876-14.1774 85.6876-37.0129C85.6886-42.4398 84.6205-47.8138 82.5443-52.828C80.4678-57.8425 77.4239-62.3983 73.5865-66.2355C69.7491-70.073 65.1932-73.1168 60.1791-75.1931C55.1651-77.2695 49.791-78.3376 44.3638-78.3365Z"/>
  </g>
 </g>
</svg>
