<?xml version="1.0" encoding="UTF-8"?>
<svg width="3300px" height="2200px" viewBox="0 0 3300 2200" version="1.1" xmlns="http://www.w3.org/2000/svg" xmlns:xlink="http://www.w3.org/1999/xlink">
    <!-- Generator: Sketch 59.1 (86144) - https://sketch.com -->
    <title>filter</title>
    <desc>Created with Sketch.</desc>
    <g id="Page-1" stroke="none" stroke-width="1" fill="none" fill-rule="evenodd">
        <g id="filter">
            <g id="Notes">
                <rect id="artboard" fill="#FFFFFF" fill-rule="nonzero" x="0" y="0" width="3300" height="2200"></rect>
                <line x1="263" y1="292" x2="3036" y2="292" id="Path" stroke="#000000" stroke-width="0.5"></line>
                <text id="Weight/Scale-Variations" fill="#000000" font-family="Helvetica-Bold, Helvetica" font-size="13" font-weight="bold">
                    <tspan x="263" y="322">Weight/Scale Variations</tspan>
                </text>
                <text id="Ultralight" fill="#000000" font-family="Helvetica" font-size="13" font-weight="normal">
                    <tspan x="533.711" y="322">Ultralight</tspan>
                </text>
                <text id="Thin" fill="#000000" font-family="Helvetica" font-size="13" font-weight="normal">
                    <tspan x="843.422" y="322">Thin</tspan>
                </text>
                <text id="Light" fill="#000000" font-family="Helvetica" font-size="13" font-weight="normal">
                    <tspan x="1138.63" y="322">Light</tspan>
                </text>
                <text id="Regular" fill="#000000" font-family="Helvetica" font-size="13" font-weight="normal">
                    <tspan x="1426.84" y="322">Regular</tspan>
                </text>
                <text id="Medium" fill="#000000" font-family="Helvetica" font-size="13" font-weight="normal">
                    <tspan x="1723.06" y="322">Medium</tspan>
                </text>
                <text id="Semibold" fill="#000000" font-family="Helvetica" font-size="13" font-weight="normal">
                    <tspan x="2015.77" y="322">Semibold</tspan>
                </text>
                <text id="Bold" fill="#000000" font-family="Helvetica" font-size="13" font-weight="normal">
                    <tspan x="2326.48" y="322">Bold</tspan>
                </text>
                <text id="Heavy" fill="#000000" font-family="Helvetica" font-size="13" font-weight="normal">
                    <tspan x="2618.19" y="322">Heavy</tspan>
                </text>
                <text id="Black" fill="#000000" font-family="Helvetica" font-size="13" font-weight="normal">
                    <tspan x="2917.4" y="322">Black</tspan>
                </text>
                <line x1="263" y1="1903" x2="3036" y2="1903" id="Path" stroke="#000000" stroke-width="0.5"></line>
                <g id="Group" transform="translate(264.000000, 1918.000000)" fill="#000000" fill-rule="nonzero">
                    <path d="M8.24805,15.830078 C12.5547,15.830078 16.1387,12.25586 16.1387,7.94922 C16.1387,3.6426 12.5449,0.0684 8.23828,0.0684 C3.94141,0.0684 0.36719,3.6426 0.36719,7.94922 C0.36719,12.25586 3.95117,15.830078 8.24805,15.830078 Z M8.24805,14.345703 C4.70312,14.345703 1.87109,11.50391 1.87109,7.94922 C1.87109,4.3945 4.69336,1.5527 8.23828,1.5527 C11.793,1.5527 14.6348,4.3945 14.6445503,7.94922 C14.6543,11.50391 11.8027,14.345703 8.24805,14.345703 Z M8.22852,11.57227 C8.69727,11.57227 8.9707,11.25977 8.9707,10.74219 L8.9707,8.68164 L11.1973,8.68164 C11.6953,8.68164 12.0371,8.42773 12.0371,7.95898 C12.0371,7.48047 11.7148,7.2168 11.1973,7.2168 L8.9707,7.2168 L8.9707,4.9902 C8.9707,4.4727 8.69727,4.1504 8.22852,4.1504 C7.75977,4.1504 7.50586,4.4922 7.50586,4.9902 L7.50586,7.2168 L5.29883,7.2168 C4.78125,7.2168 4.44922,7.48047 4.44922,7.95898 C4.44922,8.42773 4.80078,8.68164 5.29883,8.68164 L7.50586,8.68164 L7.50586,10.74219 C7.50586,11.24023 7.75977,11.57227 8.22852,11.57227 Z" id="Shape"></path>
                </g>
                <g id="Group" transform="translate(282.506000, 1915.000000)" fill="#000000" fill-rule="nonzero">
                    <path d="M10.709,20.91016 C16.1582,20.91016 20.6699,16.39844 20.6699,10.94922 C20.6699,5.5098 16.1484,0.9883 10.6992,0.9883 C5.25977,0.9883 0.74805,5.5098 0.74805,10.94922 C0.74805,16.39844 5.26953,20.91016 10.709,20.91016 Z M10.709,19.25 C6.09961,19.25 2.41797,15.55859 2.41797,10.94922 C2.41797,6.3496 6.08984,2.6484 10.6992,2.6484 C15.3086,2.6484 19,6.3496 19.0098379,10.94922 C19.0195,15.55859 15.3184,19.25 10.709,19.25 Z M10.6895,15.58789 C11.207,15.58789 11.5195,15.22656 11.5195,14.66016 L11.5195,11.76953 L14.5762,11.76953 C15.123,11.76953 15.5039,11.48633 15.5039,10.96875 C15.5039,10.44141 15.1426,10.13867 14.5762,10.13867 L11.5195,10.13867 L11.5195,7.0723 C11.5195,6.4961 11.207,6.1445 10.6895,6.1445 C10.1719,6.1445 9.8789,6.5156 9.8789,7.0723 L9.8789,10.13867 L6.83203,10.13867 C6.26562,10.13867 5.89453,10.44141 5.89453,10.96875 C5.89453,11.48633 6.28516,11.76953 6.83203,11.76953 L9.8789,11.76953 L9.8789,14.66016 C9.8789,15.20703 10.1719,15.58789 10.6895,15.58789 Z" id="Shape"></path>
                </g>
                <g id="Group" transform="translate(306.924000, 1913.000000)" fill="#000000" fill-rule="nonzero">
                    <path d="M12.9707,25.67383 C19.9336,25.67383 25.6953,19.921875 25.6953,12.95898 C25.6953,5.9961 19.9238,0.2441 12.9609,0.2441 C6.00781,0.2441 0.25586,5.9961 0.25586,12.95898 C0.25586,19.921875 6.01758,25.67383 12.9707,25.67383 Z M12.9707,23.85742 C6.93555,23.85742 2.08203,18.99414 2.08203,12.95898 C2.08203,6.9238 6.92578,2.0605 12.9609,2.0605 C19.0059,2.0605 23.8594,6.9238 23.8691295,12.95898 C23.8789,18.99414 19.0156,23.85742 12.9707,23.85742 Z M12.9512,18.93555 C13.5176,18.93555 13.8691,18.54492 13.8691,17.93945 L13.8691,13.86719 L18.1074,13.86719 C18.6934,13.86719 19.1133,13.53516 19.1133,12.97852 C19.1133,12.40234 18.7227,12.06055 18.1074,12.06055 L13.8691,12.06055 L13.8691,7.8125 C13.8691,7.1973 13.5176,6.8066 12.9512,6.8066 C12.3848,6.8066 12.0625,7.2168 12.0625,7.8125 L12.0625,12.06055 L7.83398,12.06055 C7.21875,12.06055 6.80859,12.40234 6.80859,12.97852 C6.80859,13.53516 7.23828,13.86719 7.83398,13.86719 L12.0625,13.86719 L12.0625,17.93945 C12.0625,18.52539 12.3848,18.93555 12.9512,18.93555 Z" id="Shape"></path>
                </g>
                <text id="Design-Variations" fill="#000000" font-family="Helvetica-Bold, Helvetica" font-size="13" font-weight="bold">
                    <tspan x="263" y="1953">Design Variations</tspan>
                </text>
                <text id="Symbols-are-supported-in-up-to-nine-weights-and-three-scales." fill="#000000" font-family="Helvetica" font-size="13" font-weight="normal">
                    <tspan x="263" y="1971">Symbols are supported in up to nine weights and three scales.</tspan>
                </text>
                <text id="For-optimal-layout-with-text-and-other-symbols,-vertically-align" fill="#000000" font-family="Helvetica" font-size="13" font-weight="normal">
                    <tspan x="263" y="1989">For optimal layout with text and other symbols, vertically align</tspan>
                </text>
                <text id="symbols-with-the-adjacent-text." fill="#000000" font-family="Helvetica" font-size="13" font-weight="normal">
                    <tspan x="263" y="2007">symbols with the adjacent text.</tspan>
                </text>
                <rect id="Rectangle" fill="#00AEEF" fill-rule="nonzero" opacity="0.4" x="776" y="1919" width="3" height="14"></rect>
                <g id="Group" transform="translate(779.000000, 1918.000000)" fill="#000000" fill-rule="nonzero">
                    <path d="M10.5273,15 L12.373,15 L7.17773,0.9082 L5.43945,0.9082 L0.244141,15 L2.08984,15 L3.50586,10.9668 L9.11133,10.9668 L10.5273,15 Z M6.2793,3.0469 L6.33789,3.0469 L8.59375,9.47266 L4.02344,9.47266 L6.2793,3.0469 Z" id="Shape"></path>
                </g>
                <rect id="Rectangle" fill="#00AEEF" fill-rule="nonzero" opacity="0.4" x="791.617" y="1919" width="3" height="14"></rect>
                <text id="Margins" fill="#000000" font-family="Helvetica-Bold, Helvetica" font-size="13" font-weight="bold">
                    <tspan x="776" y="1953">Margins</tspan>
                </text>
                <text id="Leading-and-trailing-margins-on-the-left-and-right-side-of-each-symbol" fill="#000000" font-family="Helvetica" font-size="13" font-weight="normal">
                    <tspan x="776" y="1971">Leading and trailing margins on the left and right side of each symbol</tspan>
                </text>
                <text id="can-be-adjusted-by-modifying-the-width-of-the-blue-rectangles." fill="#000000" font-family="Helvetica" font-size="13" font-weight="normal">
                    <tspan x="776" y="1989">can be adjusted by modifying the width of the blue rectangles.</tspan>
                </text>
                <text id="Modifications-are-automatically-applied-proportionally-to-all" fill="#000000" font-family="Helvetica" font-size="13" font-weight="normal">
                    <tspan x="776" y="2007">Modifications are automatically applied proportionally to all</tspan>
                </text>
                <text id="scales-and-weights." fill="#000000" font-family="Helvetica" font-size="13" font-weight="normal">
                    <tspan x="776" y="2025">scales and weights.</tspan>
                </text>
                <g id="Group" transform="translate(1291.000000, 1915.000000)" fill="#000000" fill-rule="nonzero">
                    <path d="M0.83203,21.11523 L2.375,22.6582 C3.22461,23.48828 4.19141,23.41992 5.06055,22.46289 L15.2754,11.33984 C15.7051,11.63281 16.0957,11.62305 16.5645,11.52539 L17.6094,11.31055 L18.3027,12.00391 L18.2539,12.52148 C18.1855,13.04883 18.3516,13.46875 18.8496,13.9668 L19.6602,14.77734 C20.168,15.28516 20.8223,15.31445 21.3008,14.83594 L24.5527,11.58398 C25.0312,11.10547 25.0117,10.45117 24.5039,9.94336 L23.6836,9.12305 C23.1855,8.625 22.7754,8.44922 22.2383,8.52734 L21.7109,8.58594 L21.0566,7.9219 L21.3398,6.7793 C21.4863,6.2129 21.3398,5.7441 20.7148,5.1387 L18.3027,2.7461 C14.7578,-0.7793 10.2266,-0.6719 7.11133,2.4629 C6.69141,2.8926 6.64258,3.4785 6.91602,3.9082 C7.15039,4.2793 7.62891,4.5039 8.2734,4.3379 C9.7871,3.957 11.3008,4.0742 12.7852,5.0801 L12.1602,6.6621 C11.9258,7.248 11.9453,7.7266 12.1797,8.16602 L1.01758,18.439453 C0.08008,19.30859 -0.02734,20.25586 0.83203,21.11523 Z M8.6738,2.8535 C11.3398,0.8613 14.6504,1.1738 17.0527,3.5859 L19.6797,6.1934 C19.9141,6.4277 19.9434,6.6133 19.8848,6.9062 L19.5039,8.46875 L21.0762,10.04102 L22.043,9.95312 C22.3262,9.92383 22.4141,9.94336 22.6387,10.16797 L23.2637,10.79297 L20.5098,13.53711 L19.8848,12.92188 C19.6602,12.69727 19.6406,12.59961 19.6699,12.31641 L19.7578,11.35938 L18.1953,9.79688 L16.5742,10.10938 C16.291,10.16797 16.1445,10.16797 15.9102,9.92383 L13.7324,7.7461 C13.5078,7.5117 13.4785,7.375 13.6055,7.0527 L14.5527,4.7773 C12.9512,3.2441 10.8418,2.3945 8.8008,3.0488 C8.7129,3.0781 8.6445,3.0586 8.6152,3.0195 C8.5859,2.9707 8.5859,2.9219 8.6738,2.8535 Z M2.10156,20.41211 C1.61328,19.91406 1.78906,19.61133 2.12109,19.30859 L13.0781,9.19141 L14.3086,10.42188 L4.15234,21.34961 C3.84961,21.68164 3.46875,21.7793 3.06836,21.37891 L2.10156,20.41211 Z" id="Shape"></path>
                </g>
                <text id="Exporting" fill="#000000" font-family="Helvetica-Bold, Helvetica" font-size="13" font-weight="bold">
                    <tspan x="1289" y="1953">Exporting</tspan>
                </text>
                <text id="Symbols-should-be-outlined-when-exporting-to-ensure-the" fill="#000000" font-family="Helvetica" font-size="13" font-weight="normal">
                    <tspan x="1289" y="1971">Symbols should be outlined when exporting to ensure the</tspan>
                </text>
                <text id="design-is-preserved-when-submitting-to-Xcode." fill="#000000" font-family="Helvetica" font-size="13" font-weight="normal">
                    <tspan x="1289" y="1989">design is preserved when submitting to Xcode.</tspan>
                </text>
                <text id="Template-v.1.0" fill="#000000" font-family="Helvetica" font-size="13" font-weight="normal">
                    <tspan x="2952" y="1933">Template v.1.0</tspan>
                </text>
                <text id="Generated-from-circle" fill="#000000" font-family="Helvetica" font-size="13" font-weight="normal">
                    <tspan x="2911" y="1951">Generated from circle</tspan>
                </text>
                <text id="Typeset-at-100-points" fill="#000000" font-family="Helvetica" font-size="13" font-weight="normal">
                    <tspan x="2912" y="1969">Typeset at 100 points</tspan>
                </text>
                <text id="Small" fill="#000000" font-family="Helvetica" font-size="13" font-weight="normal">
                    <tspan x="263" y="726">Small</tspan>
                </text>
                <text id="Medium" fill="#000000" font-family="Helvetica" font-size="13" font-weight="normal">
                    <tspan x="263" y="1156">Medium</tspan>
                </text>
                <text id="Large" fill="#000000" font-family="Helvetica" font-size="13" font-weight="normal">
                    <tspan x="263" y="1586">Large</tspan>
                </text>
            </g>
            <g id="Guides" transform="translate(263.000000, 625.000000)">
                <g id="H-reference" transform="translate(76.000000, 0.000000)" fill="#27AAE1" fill-rule="nonzero">
                    <path d="M54.9316,71 L57.666,71 L30.5664,0.541 L28.0762,0.541 L0.976562,71 L3.66211,71 L12.9395,46.5371 L45.7031,46.5371 L54.9316,71 Z M29.1992,3.9102 L29.4434,3.9102 L44.8242,44.291 L13.8184,44.291 L29.1992,3.9102 Z" id="Shape"></path>
                </g>
                <line x1="0" y1="71" x2="2773" y2="71" id="Baseline-S" stroke="#27AAE1" stroke-width="0.577"></line>
                <line x1="0" y1="0.541" x2="2773" y2="0.541" id="Capline-S" stroke="#27AAE1" stroke-width="0.577"></line>
                <g id="H-reference" transform="translate(76.000000, 430.000000)" fill="#27AAE1" fill-rule="nonzero">
                    <path d="M54.9316,71 L57.666,71 L30.5664,0.541 L28.0762,0.541 L0.976562,71 L3.66211,71 L12.9395,46.5371 L45.7031,46.5371 L54.9316,71 Z M29.1992,3.9102 L29.4434,3.9102 L44.8242,44.291 L13.8184,44.291 L29.1992,3.9102 Z" id="Shape"></path>
                </g>
                <line x1="0" y1="501" x2="2773" y2="501" id="Baseline-M" stroke="#27AAE1" stroke-width="0.577"></line>
                <line x1="0" y1="430.54" x2="2773" y2="430.54" id="Capline-M" stroke="#27AAE1" stroke-width="0.577"></line>
                <g id="H-reference" transform="translate(76.000000, 860.000000)" fill="#27AAE1" fill-rule="nonzero">
                    <path d="M54.9316,71 L57.666,71 L30.5664,0.541 L28.0762,0.541 L0.976562,71 L3.66211,71 L12.9395,46.5371 L45.7031,46.5371 L54.9316,71 Z M29.1992,3.9102 L29.4434,3.9102 L44.8242,44.291 L13.8184,44.291 L29.1992,3.9102 Z" id="Shape"></path>
                </g>
                <line x1="0" y1="931" x2="2773" y2="931" id="Baseline-L" stroke="#27AAE1" stroke-width="0.577"></line>
                <line x1="0" y1="860.54" x2="2773" y2="860.54" id="Capline-L" stroke="#27AAE1" stroke-width="0.577"></line>
                <rect id="left-margin" fill="#00AEEF" fill-rule="nonzero" opacity="0.4" x="1128.3" y="405.79" width="8.74023" height="119.336"></rect>
                <rect id="right-margin" fill="#00AEEF" fill-rule="nonzero" opacity="0.4" x="1236.65" y="405.79" width="8.74023" height="119.336"></rect>
            </g>
            <g id="Symbols" transform="translate(1399.000000, 1040.000000)" fill="#000000" fill-rule="nonzero">
                <g id="Regular-M" transform="translate(0.300000, 0.000000)">
                    <!-- <path d="M50.5449,100.5508 C77.791,100.5508 100.35,77.99219 100.35,50.7461 C100.35,23.5488 77.7422,0.9414 50.4961,0.9414 C23.2988,0.9414 0.74023,23.5488 0.74023,50.7461 C0.74023,77.99219 23.3477,100.5508 50.5449,100.5508 Z M50.1551,92.0078 C27.1082,92.0078 8.7,73.5508 8.7,50.5039 C8.7,27.5058 27.0594,9 50.1063,9 C73.1532,9 91.6102,27.5058 91.6593938,50.5039 C91.7082,73.5508 73.202,92.0078 50.1551,92.0078 Z" id="Shape"></path> -->
                    <path d="M65.9617485,34.0712123 C66.7072448,34.4963496 67.4838035,34.91263 68.2292998,35.377624 C68.6286729,35.6256208 68.9526088,35.9799019 69.3209195,36.2721838 C69.9332915,36.7548919 70.5589759,37.2198859 71.1669104,37.7025939 C71.6461581,38.0834462 72.1120933,38.486441 72.5913409,38.8717217 C73.2303378,39.3765723 73.8249599,39.9567077 74.6325809,40.2135615 C76.1013862,40.6785555 77.5701915,41.1612636 79.0389968,41.6262576 C79.4871821,41.7635415 79.9575548,41.8299692 80.3968651,41.9938242 C80.8849877,42.1753933 81.342048,42.4278186 81.8168582,42.6492443 L82.1452316,42.8042423 C82.5357296,43.0035255 82.9794775,43.1408094 83.2989759,43.4198058 C83.7382862,43.8006581 84.1154719,44.2612235 84.4527202,44.7439316 C84.6657192,45.040642 84.7633437,45.4259228 84.8964681,45.7802039 C85.1139045,46.3736248 85.3269035,46.9714742 85.517715,47.5737522 C85.5754022,47.7508928 85.52659,47.9634614 85.5487774,48.1583161 C85.6730268,49.1990169 85.7617763,50.2441463 85.6464019,51.2937042 C85.5665273,52.0554086 85.4555903,52.8126845 85.3668408,53.574389 C85.3402159,53.8135288 85.3490908,54.0615256 85.3180285,54.3050938 C85.2292789,55.0269417 85.1272169,55.753218 85.0251549,56.4750658 C84.9364054,57.1437715 84.6124695,57.3784827 83.9379728,57.5556233 C83.1126018,57.7726205 82.5179797,57.3784827 81.8967328,56.9710594 C81.5195471,56.7230626 81.1201741,56.5104939 80.7474259,56.2536401 C80.3569278,55.9879292 79.9930546,55.6912188 79.606994,55.4166509 C79.411745,55.279367 79.207621,55.1597971 79.003497,55.0313702 C78.280188,54.5796617 77.5524416,54.1323818 76.8380076,53.6629593 C76.34101,53.3352492 75.8617624,52.9765396 75.3647648,52.644401 C75.2582654,52.5779733 75.1073911,52.5824018 74.9787042,52.5558307 C74.9432044,52.7241143 74.8544548,52.9012548 74.8810797,53.0562528 C75.0186415,53.9419557 74.8722048,54.7922304 74.5660188,55.6203626 C74.4850966,55.8308604 74.4256299,56.0489588 74.3885196,56.2713542 C74.2731452,57.002059 74.113396,57.7239068 74.2465203,58.4723257 C74.3042075,58.8177499 74.308645,59.172031 74.308645,59.5218836 C74.308645,60.110876 74.6192685,60.57587 74.9920167,60.9522937 C75.5511389,61.5191435 75.6043887,62.1612781 75.4801393,62.8742689 C75.456452,62.9967974 75.446038,63.1215129 75.4490769,63.2462641 C75.4623894,63.4809753 75.5245141,63.6536874 75.8040752,63.7245436 C76.1723859,63.8131139 76.1945733,64.1983947 76.2655729,64.4862481 C76.4208847,65.1150971 76.5406966,65.7572317 76.6294461,66.3993662 C76.6693834,66.6650771 76.5983838,66.948502 76.562884,67.2230699 C76.5406966,67.422353 76.5939463,67.5109233 76.8069453,67.4976378 C77.1134602,67.4886599 77.4076468,67.6182957 77.6074937,67.8504062 C77.8073405,68.0825167 77.8914741,68.3922779 77.8364402,68.6933366 C77.7654406,69.0919029 77.6367537,69.4904692 77.6278787,69.8890355 C77.639693,70.1670276 77.7238038,70.4371647 77.87194,70.6728825 C78.1160013,71.0935913 78.493187,71.4478725 78.6706861,71.8907239 C79.0434343,72.8251404 79.0744966,73.3875617 78.3156879,74.2068368 C78.0893765,74.4592622 77.5080668,74.5168328 77.2063183,74.3662634 C76.9045698,74.2201224 76.5850713,74.1182666 76.1856983,73.9676971 C76.5673214,74.3839774 76.8956948,74.724973 77.2063183,75.0836827 C77.6069574,75.5157829 77.8178582,76.089805 77.7920654,76.6779478 C77.7388157,77.2005125 77.5968164,77.8382185 76.9844444,78.0950724 C76.8335701,78.152643 76.6427586,78.1039294 76.4696969,78.1083579 L76.2433855,78.1083579 L76.256698,78.307641 C76.3143852,79.0294889 76.460822,79.8044789 75.6487634,80.2783299 C75.4357645,80.4023283 75.1162661,80.5086126 74.9165795,80.4377564 C74.3840821,80.2384732 73.8826471,79.9461913 73.3723371,79.684909 C73.2037129,79.5963387 73.0439637,79.4944829 72.8753396,79.4103411 C72.8531522,79.3970555 72.7954649,79.4634833 72.7510902,79.4944829 C72.8664646,79.6229098 72.9951515,79.7424797 73.0972135,79.8841921 C73.1762725,79.9817158 73.2296601,80.097409 73.2525252,80.2207592 C73.2702751,80.4156138 73.2525252,80.6193255 73.2347753,80.8186086 C73.2125879,81.1108906 73.2037129,81.4120295 73.1371508,81.6954544 C73.0794635,81.9345942 72.6357157,82.018736 72.2319052,81.9965934 C71.3887843,81.9478797 70.7187251,81.4873143 70.0131661,81.1108906 C69.4222739,80.7897663 68.8350106,80.4620357 68.2514872,80.1277604 C67.8445953,79.8963464 67.4421899,79.6571626 67.0444932,79.4103411 C66.8226192,79.2686286 66.7116823,79.3084853 66.6894949,79.5786246 C66.6761825,79.7867648 66.5829954,79.866478 66.3788714,79.8886206 C65.6168736,79.9579411 64.8524795,79.7842842 64.1956321,79.392627 C63.6453848,79.082631 63.0773876,78.8169202 62.5271403,78.5069242 C61.7461442,78.0773583 60.9607105,77.6566494 60.2063392,77.1783699 C59.5673423,76.7665181 58.9815952,76.274953 58.3647857,75.8276731 C57.6015395,75.2829658 56.8338558,74.7471156 56.066172,74.2112654 C55.5203622,73.8259846 54.9701149,73.4407039 54.4109926,73.0687087 C53.9095576,72.7365701 53.3726227,72.4487167 52.8933751,72.0855785 C52.3580026,71.6660313 51.8468738,71.2165552 51.3624451,70.7393102 C51.074009,70.4603138 50.8432602,70.1193182 50.5814489,69.8093222 C50.1820759,69.3354712 49.7605155,68.8793342 49.3877673,68.3789121 C48.8552699,67.6703498 48.3582723,66.939645 47.8479624,66.2177972 C47.2444653,65.3719509 46.6409683,64.5261047 46.0463462,63.6714015 C45.4029118,62.745842 44.7727899,61.8202825 44.1382306,60.8902945 C43.951069,60.6216743 43.7705569,60.3484999 43.5968582,60.0710194 C43.2862347,59.5705973 42.8868617,59.4200278 42.3277394,59.6015969 C41.9790393,59.7097256 41.628422,59.8115978 41.2760571,59.9071644 C40.9831835,59.9913061 40.7701846,59.7433093 40.8500592,59.4200278 C40.8633716,59.3536001 40.8589341,59.2871724 40.8678091,59.2163161 C40.7790595,59.2251732 40.6769975,59.2030306 40.6237478,59.2428872 C40.4639986,59.3624571 40.2776245,59.4864555 40.1844375,59.6503105 C40.0380007,59.9160214 39.9625635,60.2171604 39.8383142,60.4961567 C39.7850644,60.6201551 39.7051898,60.730868 39.6341902,60.8460094 C39.5454406,60.6954399 39.3413166,60.5138708 39.3723789,60.4031579 C39.5942529,59.6503105 39.7939394,58.8576065 40.5971229,58.4988968 C40.8101219,58.405898 41.0719331,58.4191836 41.3115569,58.3793269 C41.5778056,58.3350418 41.8351794,58.3040422 42.0925531,58.2376145 C42.1458028,58.2243289 42.22124,58.0604739 42.20349,58.0471884 C42.1280529,57.9630466 42.0259909,57.8479052 41.9328039,57.8523337 C41.5289934,57.8611908 41.1251828,57.9099044 40.7213723,57.940904 C40.5305608,57.9541896 40.3397492,57.9807607 40.1533751,57.9630466 C39.8205642,57.9364755 39.5765029,58.095902 39.2969418,58.2553285 C39.0173807,58.4103265 38.6579449,58.4324691 38.334009,58.5033253 C38.2203023,58.5282737 38.1018421,58.5205971 37.9923232,58.4811828 C37.8503239,58.4236121 37.6550749,58.3394703 37.619575,58.2243289 C37.517513,57.8833333 37.3089516,57.6574791 36.9983281,57.5821944 C36.5590177,57.47591 36.199582,57.6840502 35.9510832,58.0471884 C35.7692015,58.2884233 35.7432692,58.6127842 35.8845211,58.8797491 C35.9377708,58.9904619 35.8223964,59.180888 35.7868965,59.335886 C35.6626471,59.2606013 35.5339603,59.1941736 35.4230233,59.1056033 C35.3786485,59.0701752 35.3697736,58.9904619 35.3342738,58.9284627 C35.0459063,58.4095744 35.2109922,57.7563794 35.7114594,57.4360534 C35.9200209,57.303198 36.1019575,57.0906293 36.3282689,57.0153446 C36.6464442,56.8887978 36.9899903,56.8387354 37.331139,56.8692036 C37.832574,56.9577739 38.3162591,57.010916 38.8221316,56.9223458 C39.2570045,56.8426325 39.7096273,56.8647751 40.1445002,56.8204899 C40.4329362,56.7894903 40.7169348,56.7230626 40.987621,56.6389208 C41.0453082,56.6212068 41.1074329,56.4174951 41.0763706,56.3422104 C40.9680771,56.1288408 40.8339499,55.9295437 40.6769975,55.7487895 C40.6193103,55.6779333 40.4639986,55.6247911 40.384124,55.6513622 C40.1311877,55.7399325 39.8915639,55.8595023 39.6519401,55.9790722 C39.3590665,56.1207847 39.1283176,55.9657867 39.0750679,55.5583634 C39.0528805,55.3546517 39.0883803,55.1465115 39.0706304,54.9383714 C39.0661929,54.8675151 39.0129432,54.7568023 38.955256,54.7258027 C38.5336956,54.5353766 37.8725113,54.7922304 37.6417624,55.1996537 C37.5707628,55.3147951 37.4465134,55.3989369 37.3444514,55.4963642 C37.2734517,55.3457947 37.1137025,55.1686541 37.1447649,55.0446557 C37.2557018,54.6106613 37.3977011,54.1589529 37.841449,53.9596697 C38.036698,53.8710994 38.2851968,53.8976705 38.5115082,53.8976705 C38.8132567,53.902099 39.1150052,53.9419557 39.4167537,53.9463842 C39.4522535,53.9463842 39.5410031,53.8046717 39.5232532,53.7603866 C39.3102542,53.2511074 39.057318,52.7551139 38.8576315,52.2369777 C38.6668199,51.7498411 38.5248206,51.2449905 38.3561964,50.7489969 C38.1920097,50.2618603 38.0766353,49.7437242 37.841449,49.2964442 C37.6994496,49.0307334 37.3710763,48.8580213 37.11814,48.6587382 C36.4258934,48.1096024 35.7070219,47.5958948 35.0369627,47.0201879 C34.6730895,46.7057634 34.3890909,46.2983401 34.0740299,45.9307734 C33.8787809,45.7093477 33.7145942,45.4436368 33.4927203,45.2532107 C32.6762243,44.549077 31.8641658,43.8360862 31.0077325,43.1939516 C30.2828042,42.655711 29.523905,42.1646064 28.7357436,41.7236849 C27.9458725,41.2808334 27.1382515,40.8424105 26.2862556,40.5457001 C25.7315709,40.3508455 25.0881365,40.3907021 24.4846395,40.3685595 C24.0408917,40.3464169 23.5971438,40.4261302 23.162271,40.4084161 C22.4402794,40.3921198 21.7226943,40.5247933 21.0544688,40.7981254 C20.4243469,41.0328366 19.78535,41.2409768 19.1641031,41.4978306 C17.8949843,42.0248238 16.4927412,42.1753933 15.2946221,42.9060982 C15.2768722,42.9149552 15.2591223,42.9282407 15.2369349,42.9326693 L14.7,42.9946685 C14.7621247,42.7998138 14.7887496,42.5828166 14.895249,42.4189616 C15.2502473,41.8742544 15.8315569,41.604115 16.3596169,41.285262 C16.9098642,40.9531234 17.4867363,40.66527 18.068046,40.3995591 C19.0442912,39.9478507 20.0249739,39.5227133 21.010094,39.1020044 C21.4849042,38.9027213 22.0040892,38.8008655 22.447837,38.5528687 C22.821078,38.32747 23.1515558,38.0381364 23.4240822,37.6981654 C23.8101428,37.2375999 24.0985789,36.6928927 24.4979519,36.2456128 C25.1635737,35.5016224 25.8691327,34.7886316 26.5835667,34.0889263 C26.9651898,33.7169311 27.3734378,33.3582215 27.8171856,33.061511 C28.2609335,32.760372 28.757931,32.5256608 29.2549286,32.2998066 C29.8273633,32.0429527 30.4175479,31.821527 31.0077325,31.5912443 C31.196572,31.5226628 31.391092,31.4707968 31.5890421,31.4362463 C32.2147266,31.3166764 32.840411,31.1971065 33.4705329,31.0952507 C33.7057204,31.0628099 33.9435679,31.0539087 34.1805294,31.0686796 C34.8284012,31.0952507 35.4807105,31.1041077 36.1285824,31.183821 C36.7054545,31.2546772 37.2734517,31.4052467 37.8458864,31.5336736 C37.934636,31.5513877 38.0233856,31.6089583 38.1121351,31.6266724 C38.2008847,31.6443865 38.2896343,31.6399579 38.3783838,31.6443865 L38.3251341,31.3786756 C38.2019291,30.9495641 38.2546051,30.4891819 38.4715709,30.098835 C38.7378196,29.642698 39.0218182,29.168847 39.3990038,28.8057088 C40.0025008,28.2255735 40.681435,27.7207228 41.3381818,27.1981582 C41.7686172,26.8615911 42.1857401,26.4984529 42.6561128,26.2371706 C43.2152351,25.9227461 43.8320446,25.7101774 44.4177917,25.440038 C45.163288,25.1034709 45.8954719,24.7359042 46.6365308,24.4081942 C47.0714037,24.2177681 47.5151515,24.0671986 47.9633368,23.9210576 C48.7620829,23.6553468 49.5608289,23.3896359 50.3640125,23.1549246 C50.9675095,22.9822126 51.5887565,22.8670712 52.196691,22.7120732 C52.5516893,22.6235029 52.8889376,22.495076 53.2394984,22.3976487 L55.3694879,21.7865137 C56.6119819,21.4410896 57.8633507,21.0779515 59.1147196,20.763527 C59.5850923,20.6439571 60.0776523,20.6218145 60.5569,20.5598153 C61.5952699,20.4269599 62.6380773,20.2763904 63.6808847,20.170106 C64.3553814,20.0992498 65.0343155,20.0903928 65.7132497,20.0593932 C65.9528735,20.0461076 66.1969348,20.0859643 66.4276837,20.0461076 C67.2441797,19.8999667 68.0118634,20.1346779 68.7928596,20.2852474 C69.427419,20.4092458 70.0797283,20.4845306 70.7142877,20.5996719 C71.051536,20.6616711 71.3887843,20.7325274 71.7038453,20.8520972 C72.2008429,21.0425234 72.7688401,21.0868085 73.1549007,21.5429455 C73.3945245,21.8307989 73.6341483,22.0920812 73.4877115,22.5172186 C73.4655242,22.5792178 73.5098989,22.6677881 73.5232114,22.7475013 C73.5696729,23.0535028 73.4824266,23.3646978 73.2835875,23.6022046 C73.0084639,23.9741998 72.7688401,24.3727661 72.4848415,24.7403327 C72.1786555,25.138899 71.868032,25.5374653 71.5130337,25.8873179 C71.2600975,26.1397432 71.3355346,26.3921686 71.4065343,26.6490224 C71.5929083,27.2822999 71.7837199,27.9111489 71.9922814,28.5311409 C72.1609056,29.0404201 72.3916544,29.5364137 72.5469662,30.0501213 C72.6934029,30.5372579 72.78659,31.0332515 72.8930895,31.5292451 C72.9374642,31.7728134 73.0129014,32.0252387 72.981839,32.2643784 C72.9419017,32.6186596 72.8265273,32.9729407 72.7333402,33.3227934 C72.7155903,33.3892211 72.6579031,33.4423632 72.6224033,33.5043624 C72.267405,34.0977833 71.6594705,34.3502087 71.060411,34.4697785 C70.6166631,34.5583488 70.1196656,34.3767797 69.6448554,34.3280661 C68.6819226,34.2394958 67.7189899,34.1509255 66.7516196,34.0756408 C66.4853709,34.0534982 66.2191222,34.0756408 65.9617485,34.0756408 L65.9617485,34.0712123 Z" id="Path"></path>
                </g>
            </g>
        </g>
    </g>
</svg>