<?xml version="1.0" encoding="UTF-8"?>
<!--Generator: Apple Native CoreSVG 341-->
<!DOCTYPE svg
PUBLIC "-//W3C//DTD SVG 1.1//EN"
       "http://www.w3.org/Graphics/SVG/1.1/DTD/svg11.dtd">
<svg version="1.1" xmlns="http://www.w3.org/2000/svg" xmlns:xlink="http://www.w3.org/1999/xlink" viewBox="0 0 3300 2200">
 <!--glyph: "", point size: 100.0, font version: "20.0d10e1", template writer version: "138.0.0"-->
 <style>.monochrome-0 {-sfsymbols-motion-group:1;-sfsymbols-layer-tags:-5b105e5107493a3b}
.monochrome-1 {-sfsymbols-motion-group:0;-sfsymbols-layer-tags:-5b105e5107493a3b}

.multicolor-0:tintColor {-sfsymbols-motion-group:1;-sfsymbols-layer-tags:-5b105e5107493a3b}
.multicolor-1:tintColor {-sfsymbols-motion-group:0;-sfsymbols-layer-tags:-5b105e5107493a3b}

.hierarchical-0:primary {-sfsymbols-motion-group:1;-sfsymbols-layer-tags:-5b105e5107493a3b}
.hierarchical-1:tertiary {-sfsymbols-motion-group:0;-sfsymbols-layer-tags:-5b105e5107493a3b}

.SFSymbolsPreviewWireframe {fill:none;opacity:1.0;stroke:black;stroke-width:0.5}
</style>
 <g id="Notes">
  <rect height="2200" id="artboard" style="fill:white;opacity:1" width="3300" x="0" y="0"/>
  <line style="fill:none;stroke:black;opacity:1;stroke-width:0.5;" x1="263" x2="3036" y1="292" y2="292"/>
  <text style="stroke:none;fill:black;font-family:sans-serif;font-size:13;font-weight:bold;" transform="matrix(1 0 0 1 263 322)">Weight/Scale Variations</text>
  <text style="stroke:none;fill:black;font-family:sans-serif;font-size:13;text-anchor:middle;" transform="matrix(1 0 0 1 559.711 322)">Ultralight</text>
  <text style="stroke:none;fill:black;font-family:sans-serif;font-size:13;text-anchor:middle;" transform="matrix(1 0 0 1 856.422 322)">Thin</text>
  <text style="stroke:none;fill:black;font-family:sans-serif;font-size:13;text-anchor:middle;" transform="matrix(1 0 0 1 1153.13 322)">Light</text>
  <text style="stroke:none;fill:black;font-family:sans-serif;font-size:13;text-anchor:middle;" transform="matrix(1 0 0 1 1449.84 322)">Regular</text>
  <text style="stroke:none;fill:black;font-family:sans-serif;font-size:13;text-anchor:middle;" transform="matrix(1 0 0 1 1746.56 322)">Medium</text>
  <text style="stroke:none;fill:black;font-family:sans-serif;font-size:13;text-anchor:middle;" transform="matrix(1 0 0 1 2043.27 322)">Semibold</text>
  <text style="stroke:none;fill:black;font-family:sans-serif;font-size:13;text-anchor:middle;" transform="matrix(1 0 0 1 2339.98 322)">Bold</text>
  <text style="stroke:none;fill:black;font-family:sans-serif;font-size:13;text-anchor:middle;" transform="matrix(1 0 0 1 2636.69 322)">Heavy</text>
  <text style="stroke:none;fill:black;font-family:sans-serif;font-size:13;text-anchor:middle;" transform="matrix(1 0 0 1 2933.4 322)">Black</text>
  <line style="fill:none;stroke:black;opacity:1;stroke-width:0.5;" x1="263" x2="3036" y1="1903" y2="1903"/>
  <g transform="matrix(0.2 0 0 0.2 263 1933)">
   <path d="m46.2402 4.15039c21.7773 0 39.4531-17.627 39.4531-39.4043s-17.6758-39.4043-39.4531-39.4043c-21.7285 0-39.4043 17.627-39.4043 39.4043s17.6758 39.4043 39.4043 39.4043Zm0-7.42188c-17.6758 0-31.9336-14.3066-31.9336-31.9824s14.2578-31.9824 31.9336-31.9824 31.9824 14.3066 31.9824 31.9824-14.3066 31.9824-31.9824 31.9824Zm-17.9688-31.9824c0 2.14844 1.51367 3.61328 3.75977 3.61328h10.498v10.5957c0 2.19727 1.46484 3.71094 3.61328 3.71094 2.24609 0 3.71094-1.51367 3.71094-3.71094v-10.5957h10.5957c2.19727 0 3.71094-1.46484 3.71094-3.61328 0-2.19727-1.51367-3.71094-3.71094-3.71094h-10.5957v-10.5469c0-2.24609-1.46484-3.75977-3.71094-3.75977-2.14844 0-3.61328 1.51367-3.61328 3.75977v10.5469h-10.498c-2.24609 0-3.75977 1.51367-3.75977 3.71094Z"/>
  </g>
  <g transform="matrix(0.2 0 0 0.2 281.506 1933)">
   <path d="m58.5449 14.5508c27.4902 0 49.8047-22.3145 49.8047-49.8047s-22.3145-49.8047-49.8047-49.8047-49.8047 22.3145-49.8047 49.8047 22.3145 49.8047 49.8047 49.8047Zm0-8.30078c-22.9492 0-41.5039-18.5547-41.5039-41.5039s18.5547-41.5039 41.5039-41.5039 41.5039 18.5547 41.5039 41.5039-18.5547 41.5039-41.5039 41.5039Zm-22.6562-41.5039c0 2.39258 1.66016 4.00391 4.15039 4.00391h14.3555v14.4043c0 2.44141 1.66016 4.15039 4.05273 4.15039 2.44141 0 4.15039-1.66016 4.15039-4.15039v-14.4043h14.4043c2.44141 0 4.15039-1.61133 4.15039-4.00391 0-2.44141-1.70898-4.15039-4.15039-4.15039h-14.4043v-14.3555c0-2.49023-1.70898-4.19922-4.15039-4.19922-2.39258 0-4.05273 1.70898-4.05273 4.19922v14.3555h-14.3555c-2.49023 0-4.15039 1.70898-4.15039 4.15039Z"/>
  </g>
  <g transform="matrix(0.2 0 0 0.2 304.924 1933)">
   <path d="m74.8535 28.3203c35.1074 0 63.623-28.4668 63.623-63.5742s-28.5156-63.623-63.623-63.623-63.5742 28.5156-63.5742 63.623 28.4668 63.5742 63.5742 63.5742Zm0-9.08203c-30.127 0-54.4922-24.3652-54.4922-54.4922s24.3652-54.4922 54.4922-54.4922 54.4922 24.3652 54.4922 54.4922-24.3652 54.4922-54.4922 54.4922Zm-28.8574-54.4922c0 2.58789 1.85547 4.39453 4.58984 4.39453h19.7266v19.7754c0 2.68555 1.85547 4.58984 4.44336 4.58984 2.68555 0 4.54102-1.85547 4.54102-4.58984v-19.7754h19.7754c2.68555 0 4.58984-1.80664 4.58984-4.39453 0-2.73438-1.85547-4.58984-4.58984-4.58984h-19.7754v-19.7266c0-2.73438-1.85547-4.63867-4.54102-4.63867-2.58789 0-4.44336 1.9043-4.44336 4.63867v19.7266h-19.7266c-2.73438 0-4.58984 1.85547-4.58984 4.58984Z"/>
  </g>
  <text style="stroke:none;fill:black;font-family:sans-serif;font-size:13;font-weight:bold;" transform="matrix(1 0 0 1 263 1953)">Design Variations</text>
  <text style="stroke:none;fill:black;font-family:sans-serif;font-size:13;" transform="matrix(1 0 0 1 263 1971)">Symbols are supported in up to nine weights and three scales.</text>
  <text style="stroke:none;fill:black;font-family:sans-serif;font-size:13;" transform="matrix(1 0 0 1 263 1989)">For optimal layout with text and other symbols, vertically align</text>
  <text style="stroke:none;fill:black;font-family:sans-serif;font-size:13;" transform="matrix(1 0 0 1 263 2007)">symbols with the adjacent text.</text>
  <line style="fill:none;stroke:#00AEEF;stroke-width:0.5;opacity:1.0;" x1="776" x2="776" y1="1919" y2="1933"/>
  <g transform="matrix(0.2 0 0 0.2 776 1933)">
   <path d="m16.5527 0.78125c2.58789 0 3.85742-0.976562 4.78516-3.71094l6.29883-17.2363h28.8086l6.29883 17.2363c0.927734 2.73438 2.19727 3.71094 4.73633 3.71094 2.58789 0 4.24805-1.5625 4.24805-4.00391 0-0.830078-0.146484-1.61133-0.537109-2.63672l-22.9004-60.9863c-1.12305-2.97852-3.125-4.49219-6.25-4.49219-3.02734 0-5.07812 1.46484-6.15234 4.44336l-22.9004 61.084c-0.390625 1.02539-0.537109 1.80664-0.537109 2.63672 0 2.44141 1.5625 3.95508 4.10156 3.95508Zm13.4766-28.3691 11.8652-32.8613h0.244141l11.8652 32.8613Z"/>
  </g>
  <line style="fill:none;stroke:#00AEEF;stroke-width:0.5;opacity:1.0;" x1="792.836" x2="792.836" y1="1919" y2="1933"/>
  <text style="stroke:none;fill:black;font-family:sans-serif;font-size:13;font-weight:bold;" transform="matrix(1 0 0 1 776 1953)">Margins</text>
  <text style="stroke:none;fill:black;font-family:sans-serif;font-size:13;" transform="matrix(1 0 0 1 776 1971)">Leading and trailing margins on the left and right side of each symbol</text>
  <text style="stroke:none;fill:black;font-family:sans-serif;font-size:13;" transform="matrix(1 0 0 1 776 1989)">can be adjusted by modifying the x-location of the margin guidelines.</text>
  <text style="stroke:none;fill:black;font-family:sans-serif;font-size:13;" transform="matrix(1 0 0 1 776 2007)">Modifications are automatically applied proportionally to all</text>
  <text style="stroke:none;fill:black;font-family:sans-serif;font-size:13;" transform="matrix(1 0 0 1 776 2025)">scales and weights.</text>
  <g transform="matrix(0.2 0 0 0.2 1289 1933)">
   <path d="m14.209 9.32617 8.49609 8.54492c4.29688 4.3457 9.22852 4.05273 13.8672-1.07422l53.4668-58.9355-4.83398-4.88281-53.0762 58.3984c-1.75781 2.00195-3.41797 2.49023-5.76172 0.146484l-5.85938-5.81055c-2.34375-2.29492-1.80664-4.00391 0.195312-5.81055l57.373-54.0039-4.88281-4.83398-57.959 54.4434c-4.93164 4.58984-5.32227 9.47266-1.02539 13.8184Zm32.0801-90.9668c-2.09961 2.05078-2.24609 4.93164-1.07422 6.88477 1.17188 1.80664 3.4668 2.97852 6.68945 2.14844 7.32422-1.70898 14.9414-2.00195 22.0703 2.68555l-2.92969 7.27539c-1.70898 4.15039-0.830078 7.08008 1.85547 9.81445l11.4746 11.5723c2.44141 2.44141 4.49219 2.53906 7.32422 2.05078l5.32227-0.976562 3.32031 3.36914-0.195312 2.7832c-0.195312 2.49023 0.439453 4.39453 2.88086 6.78711l3.80859 3.71094c2.39258 2.39258 5.46875 2.53906 7.8125 0.195312l14.5508-14.5996c2.34375-2.34375 2.24609-5.32227-0.146484-7.71484l-3.85742-3.80859c-2.39258-2.39258-4.24805-3.17383-6.64062-2.97852l-2.88086 0.244141-3.22266-3.17383 1.2207-5.61523c0.634766-2.83203-0.146484-5.0293-3.07617-7.95898l-10.9863-10.9375c-16.6992-16.6016-38.8672-16.2109-53.3203-1.75781Zm7.4707 1.85547c12.1582-8.88672 28.6133-7.37305 39.7461 3.75977l12.1582 12.0605c1.17188 1.17188 1.36719 2.09961 1.02539 3.80859l-1.61133 7.42188 7.51953 7.42188 4.93164-0.292969c1.26953-0.0488281 1.66016 0.0488281 2.63672 1.02539l2.88086 2.88086-12.207 12.207-2.88086-2.88086c-0.976562-0.976562-1.12305-1.36719-1.07422-2.68555l0.341797-4.88281-7.4707-7.42188-7.61719 1.26953c-1.61133 0.341797-2.34375 0.195312-3.56445-0.976562l-10.0098-10.0098c-1.26953-1.17188-1.41602-2.00195-0.634766-3.85742l4.39453-10.4492c-7.8125-7.27539-17.9688-10.4004-28.125-7.42188-0.78125 0.195312-1.07422-0.439453-0.439453-0.976562Z"/>
  </g>
  <text style="stroke:none;fill:black;font-family:sans-serif;font-size:13;font-weight:bold;" transform="matrix(1 0 0 1 1289 1953)">Exporting</text>
  <text style="stroke:none;fill:black;font-family:sans-serif;font-size:13;" transform="matrix(1 0 0 1 1289 1971)">Symbols should be outlined when exporting to ensure the</text>
  <text style="stroke:none;fill:black;font-family:sans-serif;font-size:13;" transform="matrix(1 0 0 1 1289 1989)">design is preserved when submitting to Xcode.</text>
  <text id="template-version" style="stroke:none;fill:black;font-family:sans-serif;font-size:13;text-anchor:end;" transform="matrix(1 0 0 1 3036 1933)">Template v.6.0</text>
  <text style="stroke:none;fill:black;font-family:sans-serif;font-size:13;text-anchor:end;" transform="matrix(1 0 0 1 3036 1951)">Requires Xcode 16 or greater</text>
  <text id="descriptive-name" style="stroke:none;fill:black;font-family:sans-serif;font-size:13;text-anchor:end;" transform="matrix(1 0 0 1 3036 1969)">Generated from filtervogelgruppe-20</text>
  <text style="stroke:none;fill:black;font-family:sans-serif;font-size:13;text-anchor:end;" transform="matrix(1 0 0 1 3036 1987)">Typeset at 100.0 points</text>
  <text style="stroke:none;fill:black;font-family:sans-serif;font-size:13;" transform="matrix(1 0 0 1 263 726)">Small</text>
  <text style="stroke:none;fill:black;font-family:sans-serif;font-size:13;" transform="matrix(1 0 0 1 263 1156)">Medium</text>
  <text style="stroke:none;fill:black;font-family:sans-serif;font-size:13;" transform="matrix(1 0 0 1 263 1586)">Large</text>
 </g>
 <g id="Guides">
  <g id="H-reference" style="fill:#27AAE1;stroke:none;" transform="matrix(1 0 0 1 339 696)">
   <path d="M0.993654 0L3.63775 0L29.3281-67.1323L30.0303-67.1323L30.0303-70.459L28.1226-70.459ZM11.6885-24.4799L46.9815-24.4799L46.2315-26.7285L12.4385-26.7285ZM55.1196 0L57.7637 0L30.6382-70.459L29.4326-70.459L29.4326-67.1323Z"/>
  </g>
  <line id="Baseline-S" style="fill:none;stroke:#27AAE1;opacity:1;stroke-width:0.5;" x1="263" x2="3036" y1="696" y2="696"/>
  <line id="Capline-S" style="fill:none;stroke:#27AAE1;opacity:1;stroke-width:0.5;" x1="263" x2="3036" y1="625.541" y2="625.541"/>
  <g id="H-reference" style="fill:#27AAE1;stroke:none;" transform="matrix(1 0 0 1 339 1126)">
   <path d="M0.993654 0L3.63775 0L29.3281-67.1323L30.0303-67.1323L30.0303-70.459L28.1226-70.459ZM11.6885-24.4799L46.9815-24.4799L46.2315-26.7285L12.4385-26.7285ZM55.1196 0L57.7637 0L30.6382-70.459L29.4326-70.459L29.4326-67.1323Z"/>
  </g>
  <line id="Baseline-M" style="fill:none;stroke:#27AAE1;opacity:1;stroke-width:0.5;" x1="263" x2="3036" y1="1126" y2="1126"/>
  <line id="Capline-M" style="fill:none;stroke:#27AAE1;opacity:1;stroke-width:0.5;" x1="263" x2="3036" y1="1055.54" y2="1055.54"/>
  <g id="H-reference" style="fill:#27AAE1;stroke:none;" transform="matrix(1 0 0 1 339 1556)">
   <path d="M0.993654 0L3.63775 0L29.3281-67.1323L30.0303-67.1323L30.0303-70.459L28.1226-70.459ZM11.6885-24.4799L46.9815-24.4799L46.2315-26.7285L12.4385-26.7285ZM55.1196 0L57.7637 0L30.6382-70.459L29.4326-70.459L29.4326-67.1323Z"/>
  </g>
  <line id="Baseline-L" style="fill:none;stroke:#27AAE1;opacity:1;stroke-width:0.5;" x1="263" x2="3036" y1="1556" y2="1556"/>
  <line id="Capline-L" style="fill:none;stroke:#27AAE1;opacity:1;stroke-width:0.5;" x1="263" x2="3036" y1="1485.54" y2="1485.54"/>
  <line id="right-margin-Black-S" style="fill:none;stroke:#00AEEF;stroke-width:0.5;opacity:1.0;" x1="2982.23" x2="2982.23" y1="600.785" y2="720.121"/>
  <line id="left-margin-Black-S" style="fill:none;stroke:#00AEEF;stroke-width:0.5;opacity:1.0;" x1="2884.57" x2="2884.57" y1="600.785" y2="720.121"/>
  <line id="right-margin-Regular-S" style="fill:none;stroke:#00AEEF;stroke-width:0.5;opacity:1.0;" x1="1496.11" x2="1496.11" y1="600.785" y2="720.121"/>
  <line id="left-margin-Regular-S" style="fill:none;stroke:#00AEEF;stroke-width:0.5;opacity:1.0;" x1="1403.58" x2="1403.58" y1="600.785" y2="720.121"/>
  <line id="right-margin-Ultralight-S" style="fill:none;stroke:#00AEEF;stroke-width:0.5;opacity:1.0;" x1="603.773" x2="603.773" y1="600.785" y2="720.121"/>
  <line id="left-margin-Ultralight-S" style="fill:none;stroke:#00AEEF;stroke-width:0.5;opacity:1.0;" x1="515.649" x2="515.649" y1="600.785" y2="720.121"/>
 </g>
 <g id="Symbols">
  <g id="Black-S" transform="matrix(1 0 0 1 2884.57 696)">
   <path class="monochrome-0 multicolor-0:tintColor hierarchical-0:primary SFSymbolsPreviewWireframe" d="M60.4912-18.0131L60.0337-17.6232C59.7465-17.3825 59.459-17.1425 59.1712-16.9032C59.1187-16.8619 59.0662-16.7794 59.0212-16.7907C58.7775-16.8619 58.6462-16.5732 58.4625-16.4457C58.1662-16.2394 57.8625-16.0707 57.5625-15.8794C57.4612-15.8157 57.375-15.7219 57.2775-15.6544C56.8088-15.3357 56.3475-15.0057 55.8713-14.7207C55.6838-14.6082 55.4738-14.6082 55.275-14.5594C55.1138-14.5219 54.9525-14.4582 54.795-14.4544C54.63-14.4544 54.465-14.5294 54.3-14.5369C53.8125-14.5519 53.3251-14.6382 52.8526-14.5257C52.4738-14.4357 52.1026-14.4807 51.7276-14.4507C51.2851-14.4132 50.8388-14.4769 50.3926-14.4882C50.3176-14.4882 50.2426-14.4582 50.1713-14.4132C49.9464-14.2632 49.7439-14.3869 49.5339-14.5032C49.3964-14.5832 49.2448-14.6366 49.0876-14.6607C48.6826-14.7094 48.2889-14.8857 47.8689-14.7657C47.6889-14.7132 47.4826-14.8857 47.2876-14.8744C47.1536-14.8582 47.0176-14.8744 46.8911-14.9213C46.7645-14.9682 46.6511-15.0448 46.5601-15.1444C46.4552-15.2494 46.2977-15.2344 46.1739-15.3094C45.9677-15.4294 45.7727-15.5757 45.5739-15.7069C45.4942-15.7591 45.4102-15.8041 45.3227-15.8419C45.1464-15.9169 44.9589-15.9469 44.8764-16.2544C44.8614-16.3032 44.8014-16.3294 44.7639-16.3594C44.3176-16.6594 43.8752-16.9707 43.4252-17.2594C43.2152-17.3907 42.9902-17.4732 42.7839-17.6044C42.6264-17.7057 42.4802-17.8482 42.3339-17.9794C42.1239-18.1631 41.9139-18.3431 41.7152-18.5419C41.4396-18.8091 41.1732-19.0853 40.9164-19.3706C40.6464-19.6781 40.3915-20.0081 40.129-20.3344C39.9902-20.4994 39.8515-20.6606 39.7315-20.8481C39.544-21.1331 39.3827-21.4556 39.1952-21.7406C39.1052-21.8756 38.9815-21.9581 38.8765-22.0781C38.7827-22.1868 38.7002-22.3106 38.614-22.4268C38.5277-22.5393 38.4602-22.7006 38.359-22.7643C38.0702-22.9518 37.7702-23.0943 37.474-23.2556L37.4215-23.2856C37.1327-23.3718 36.8478-23.4543 36.559-23.5481C36.2853-23.6418 36.019-23.7731 35.7415-23.8518C35.2803-23.9831 34.8115-24.0881 34.3465-24.1968C34.069-24.2606 33.7915-24.3056 33.514-24.3656C33.2853-24.4143 33.0416-24.5606 32.8241-24.5006C32.5503-24.4256 32.3253-24.6806 32.0628-24.6243C31.9691-24.6056 31.8678-24.7518 31.7628-24.7781C31.2791-24.8981 30.7991-25.0031 30.3153-25.1043C29.8541-25.2018 29.3929-25.2656 28.9391-25.3968C28.6879-25.4718 28.4141-25.5318 28.2379-25.8618C28.1066-26.1018 28.1666-26.368 28.2229-26.6155C28.2791-26.8518 28.4216-26.8705 28.5754-26.908C28.8529-26.983 29.1229-27.133 29.4004-27.2455C29.4941-27.283 29.5879-27.2943 29.6891-27.3205C29.8616-27.3655 30.0378-27.4255 30.2141-27.4555C30.3716-27.4818 30.5291-27.4705 30.6866-27.493C30.8103-27.508 30.9303-27.5418 31.0503-27.568C31.1328-27.5868 31.2116-27.613 31.2941-27.628C31.3691-27.6393 31.4516-27.613 31.5191-27.6468C32.0853-27.9205 32.6816-27.7593 33.2591-27.9093C33.3041-27.9205 33.3453-27.9468 33.3903-27.9618C33.5665-28.0068 33.739-28.0743 33.9153-28.0855C34.3503-28.123 34.7253-28.363 35.0703-28.7305C35.269-28.9405 35.4828-29.1242 35.6815-29.3342C35.884-29.548 36.0678-29.803 36.274-30.0092C36.4803-30.2192 36.709-30.3992 36.9265-30.5867C36.994-30.6467 37.069-30.6955 37.1365-30.7555C37.2827-30.8942 37.4177-31.0705 37.5752-31.1755C37.9502-31.423 38.3327-31.6255 38.7077-31.873C38.8202-31.9442 38.8952-32.1355 39.0077-32.1955C39.4127-32.4205 39.844-32.5555 40.234-32.8329C40.6314-33.1179 41.0589-33.1667 41.4714-33.3354C41.7827-33.4629 42.0864-33.6317 42.3977-33.7742C42.4727-33.8079 42.5627-33.7892 42.6339-33.8267C42.8177-33.9242 42.9977-34.0404 43.1777-34.1529C43.5489-34.3892 43.9277-34.5992 44.2839-34.8767C44.6326-35.1467 44.9551-35.4992 45.2927-35.8029C45.4052-35.9004 45.5402-35.9379 45.6527-36.0354C46.0914-36.4104 46.5339-36.7854 46.9651-37.1829C47.1698-37.3741 47.358-37.5823 47.5276-37.8054C47.6514-37.9629 47.7451-38.1691 47.8501-38.3566L48.5176-39.5791C48.7389-39.9766 48.9601-40.3741 49.1889-40.7603C49.3839-41.0978 49.5864-41.4203 49.7889-41.7466C49.8264-41.8028 49.8826-41.8366 49.9314-41.8778C49.9689-41.9116 50.0251-41.9266 50.0514-41.9753C50.2613-42.3428 50.4526-42.7253 50.6701-43.0853C50.8088-43.3178 50.9888-43.4978 51.1351-43.7228C51.2963-43.9703 51.4238-44.2665 51.5851-44.5103C51.7501-44.7578 51.9451-44.9565 52.1101-45.1928C52.2526-45.3878 52.3688-45.6203 52.5076-45.8115C52.8488-46.284 53.2051-46.7303 53.5463-47.2027C53.7038-47.4202 53.835-47.6752 53.9775-47.9115C54.0413-48.0165 54.1125-48.114 54.18-48.219C54.54-48.7815 54.8925-49.3552 55.26-49.9065C55.4963-50.2627 55.7625-50.5777 55.995-50.9377C56.3356-51.4477 56.6522-51.9732 56.9438-52.5127C57.0631-52.7614 57.2088-52.9965 57.3788-53.2139C57.495-53.3527 57.5662-53.5739 57.6562-53.7539L57.975-54.3727L58.3875-55.1564C58.6125-55.5801 58.83-56.0189 59.0662-56.4314C59.2087-56.6826 59.385-56.8926 59.535-57.1326C59.6362-57.2939 59.7225-57.4701 59.8125-57.6426C60.0562-58.1151 60.2962-58.5913 60.5437-59.0601C60.705-59.3601 60.8812-59.6376 61.0425-59.9338L61.9799-61.6288C62.2199-62.0563 62.4412-62.5138 62.7074-62.9038C63.0262-63.365 63.3637-63.815 63.7349-64.1788C64.0537-64.49 64.4212-64.6963 64.7811-64.8988C64.9686-65.0038 65.1786-65.0038 65.3811-65.0303C65.4861-65.0413 65.5874-64.73 65.5199-64.5538C65.3774-64.2013 65.2199-63.8638 65.0624-63.5225C64.9499-63.26 64.8186-63.0088 64.7099-62.7388C64.4999-62.2138 64.2974-61.6888 64.0912-61.1601C64.0837-61.1338 64.0649-61.1151 64.0612-61.0888L63.8437-59.8063L63.7912-59.5176C63.7537-59.3151 63.6862-59.1088 63.6862-58.9063C63.6899-58.5051 63.7462-58.1076 63.7537-57.7064C63.7687-56.9151 63.7799-56.1239 63.7612-55.3364C63.7387-54.5151 63.6712-53.6977 63.6374-52.8802C63.6112-52.2277 63.5999-51.5752 63.5887-50.9227C63.5812-50.2365 63.5962-49.5502 63.5849-48.8602C63.5774-48.3877 63.5362-47.9152 63.5099-47.4427C63.4874-47.0565 63.4649-46.6703 63.4349-46.2803C63.4049-45.7815 63.3487-45.2828 63.3487-44.784C63.3487-44.4653 63.4349-44.1465 63.4799-43.824C63.5324-43.4378 63.5624-43.0366 63.6412-42.6653C63.6899-42.4441 63.8062-42.2528 63.9037-42.0653C64.2149-41.4466 64.5149-40.8203 64.8411-40.2316C65.1636-39.6616 65.2199-38.9566 65.3549-38.2891C65.3774-38.1841 65.3399-38.0454 65.3174-37.9291C65.2799-37.7154 65.3324-37.6104 65.4786-37.5954C65.6886-37.5729 65.8349-37.6929 66.0036-37.8954C66.3561-38.3229 66.7349-38.7316 67.1474-39.0204C67.3536-39.1629 67.6536-39.0279 67.9124-38.9941C67.9949-38.9866 68.1036-38.3829 68.0624-38.2216C67.9986-37.9741 67.8824-37.8616 67.6986-37.9179C67.1736-38.0754 66.7911-37.7304 66.6486-36.9804C66.643-36.9532 66.6405-36.9257 66.6411-36.8979C66.6636-36.4554 66.6486-36.0054 66.7199-35.5854C66.8024-35.0942 66.9561-34.6329 67.0874-34.1604C67.2374-33.6354 67.3986-33.1104 67.5411-32.5817C67.5861-32.4205 67.5749-32.2292 67.6049-32.0567C67.6799-31.6255 67.7549-31.1942 67.8411-30.7705C67.9274-30.358 68.0736-29.9492 68.0999-29.5292C68.1186-29.1842 68.3174-28.8355 68.0624-28.4343C67.8899-28.1605 67.8374-27.6843 67.7886-27.2868C67.7586-27.0243 67.8261-26.728 67.8636-26.4505C67.9011-26.1505 67.9274-25.8355 68.0136-25.5618C68.0886-25.3218 68.2236-25.0968 68.3661-24.9393C68.5086-24.7781 68.6961-24.7143 68.8611-24.5981C69.0111-24.4893 69.1611-24.3768 69.2961-24.2418C69.4461-24.0881 69.4311-23.8293 69.3336-23.6793C69.2661-23.5631 69.0973-23.5106 68.9848-23.5368C68.7898-23.5781 68.6023-23.7018 68.4111-23.7993C68.1974-23.9006 67.9874-24.0093 67.7736-24.1143C67.7586-24.1256 67.7286-24.1368 67.7249-24.1518C67.6836-24.5831 67.3011-24.4856 67.2111-24.9468C67.1661-24.7481 67.1286-24.6356 67.1136-24.5156C67.0649-24.0806 67.2374-23.5668 67.4999-23.3681C67.8111-23.1318 68.1261-22.9068 68.4448-22.6931C68.5198-22.6406 68.6098-22.6443 68.6923-22.6256C68.8536-22.5881 69.0036-22.5093 68.9923-22.2281C68.9886-21.9431 68.7561-21.7406 68.5686-21.7556C68.388-21.7687 68.2064-21.7497 68.0324-21.6993C67.8524-21.6506 67.6949-21.6431 67.5224-21.8043C67.3011-22.0218 67.0424-22.1531 66.8286-22.3818C66.5383-22.669 66.2918-22.9978 66.0974-23.3568C65.9474-23.6643 65.9099-24.1031 65.8349-24.4893C65.7936-24.7256 65.7711-24.9731 65.7449-25.2131C65.7364-25.3002 65.7364-25.3884 65.7449-25.4755C65.7599-25.633 65.7749-25.7905 65.8011-25.9443C65.8471-26.2487 65.8971-26.5524 65.9511-26.8555C66.0374-27.3543 66.1386-27.8493 66.2211-28.348C66.2827-28.7627 66.2089-29.1861 66.0111-29.5555C65.8724-29.8555 65.8686-30.283 65.7974-30.6505C65.7711-30.7855 65.7224-30.913 65.6849-31.0442C65.6286-30.8942 65.5349-30.748 65.5199-30.5942C65.4824-29.9642 65.5161-29.3305 65.2874-28.738C65.1824-28.4568 65.1749-28.093 65.1186-27.7668C65.0811-27.5643 65.0436-27.3543 64.9874-27.163C64.6587-25.9924 64.2912-24.8331 63.8849-23.6868C63.7424-23.2828 63.5796-22.8859 63.3974-22.4981C63.2399-22.1606 63.0524-21.8606 62.8724-21.5531C62.8124-21.4519 62.7224-21.3919 62.6699-21.2906C62.6021-21.1706 62.5552-21.04 62.5312-20.9044C62.6287-20.7731 62.7562-20.6156 62.8762-20.6044C63.2287-20.5781 63.5849-20.6419 63.9374-20.6156C64.0424-20.6044 64.1587-20.4319 64.2337-20.2931C64.2599-20.2406 64.1887-20.0681 64.1587-19.9519C64.1512-19.9219 64.1287-19.8919 64.1062-19.8881C63.8812-19.8281 63.6562-19.7269 63.4312-19.7381C63.1837-19.7456 62.9549-19.4644 63.0037-19.0894C63.0674-18.5869 63.1612-18.0956 63.2249-17.5932C63.2737-17.2107 63.3074-16.8207 63.3299-16.4307C63.3599-15.9132 63.3712-15.3957 63.3824-14.8782C63.3824-14.7769 63.3524-14.6757 63.3337-14.5782C63.2062-13.8395 63.0712-13.1082 62.9512-12.3657C62.9024-12.0582 62.7637-11.7432 62.9137-11.4132C62.9662-11.3007 63.0262-11.1582 63.1049-11.1057C63.3487-10.9407 63.6149-10.8432 63.8549-10.667C64.0693-10.5226 64.2496-10.3333 64.3837-10.112C64.5374-9.83451 64.4137-9.51202 64.1699-9.53827C63.8968-9.57858 63.6296-9.65295 63.3749-9.75951C63.2249-9.81201 63.1124-9.85326 63.0674-9.57952C63.0584-9.54264 63.0418-9.50827 63.0187-9.47827C62.6437-8.93452 62.4562-8.20328 62.1824-7.55829C62.1449-7.46454 62.1637-7.31455 62.1449-7.19455C62.1149-7.0408 62.0699-6.89455 62.0437-6.73705C62.0249-6.60956 61.9912-6.46331 62.0137-6.35081C62.0699-6.09581 62.1449-5.84457 62.2387-5.61207C62.3437-5.34957 62.2387-5.13958 62.1224-5.05333C62.0324-4.98958 61.8599-5.06833 61.7587-5.16583C61.6115-5.31957 61.4878-5.49363 61.3912-5.68332C61.2593-5.918 61.1453-6.16269 61.05-6.41456C60.9375-6.70706 60.8587-7.0258 60.765-7.33705C60.7537-7.37455 60.7387-7.41955 60.7425-7.4533C60.7875-7.83579 60.8287-8.21453 60.8812-8.58953C60.9037-8.75078 60.975-8.89703 60.99-9.05827C61.0337-9.43764 61.1549-9.80389 61.3462-10.1345C61.3737-10.1804 61.3915-10.2314 61.3987-10.2845C61.4287-10.6895 61.4924-11.102 61.4774-11.5032C61.4587-11.9982 61.3649-12.4857 61.3162-12.977C61.2749-13.397 61.2562-13.8207 61.2224-14.2407C61.1962-14.5482 61.1587-14.8519 61.1287-15.1557C61.0987-15.4407 61.0575-15.7257 61.035-16.0107L60.8737-18.1144C60.8662-18.1894 60.8362-18.2606 60.8137-18.3319L60.7012-18.1744L60.5362-17.9757C60.5206-17.9875 60.5056-18 60.4912-18.0131L60.4912-18.0131Z"/>
   <path class="monochrome-1 multicolor-1:tintColor hierarchical-1:tertiary SFSymbolsPreviewWireframe" d="M48.9411-84C55.3091-84.0013 61.615-82.7479 67.4985-80.3116C73.382-77.8752 78.7279-74.3036 83.2305-69.8009C87.7334-65.2983 91.305-59.9524 93.7418-54.0682C96.1779-48.1846 97.4312-41.8789 97.43-35.5124C97.43-8.72255 75.7254 13 48.9424 13C22.156 13 0.43-8.726 0.43-35.5124C0.43-62.2926 22.1539-84 48.9411-84ZM48.9424-70C29.8835-70 14.43-54.5582 14.43-35.5124C14.43-16.458 29.888-0.999999 48.9424-0.999999C67.9909-0.999999 83.43-16.4519 83.43-35.5138C83.4309-40.0428 82.5395-44.5276 80.8069-48.7121C79.0739-52.8969 76.5337-56.6989 73.3311-59.9013C70.1287-63.1038 66.3266-65.644 62.1422-67.3767C57.9578-69.1095 53.4729-70.0009 48.9424-70Z"/>
  </g>
  <g id="Regular-S" transform="matrix(1 0 0 1 1403.58 696)">
   <path class="monochrome-0 multicolor-0:tintColor hierarchical-0:primary SFSymbolsPreviewWireframe" d="M60.0305-16.7613L59.5124-16.3197C59.1872-16.0473 58.8617-15.7755 58.5358-15.5045C58.4764-15.4578 58.4169-15.3644 58.366-15.3771C58.09-15.4578 57.9413-15.1308 57.7333-14.9865C57.3978-14.7529 57.0539-14.5618 56.7142-14.3453C56.5996-14.2731 56.5019-14.1669 56.3915-14.0905C55.8607-13.7296 55.3385-13.3559 54.7992-13.0332C54.5869-12.9058 54.3491-12.9058 54.1241-12.8506C53.9415-12.8082 53.7589-12.736 53.5805-12.7317C53.3937-12.7317 53.2069-12.8167 53.0201-12.8252C52.4681-12.8421 51.9161-12.9398 51.381-12.8124C50.9522-12.7105 50.5318-12.7615 50.1072-12.7275C49.6061-12.685 49.1009-12.7572 48.5956-12.77C48.5106-12.77 48.4257-12.736 48.345-12.685C48.0903-12.5152 47.861-12.6553 47.6232-12.7869C47.4675-12.8775 47.2959-12.938 47.1179-12.9653C46.6593-13.0205 46.2135-13.2201 45.7379-13.0842C45.5341-13.0247 45.3005-13.2201 45.0797-13.2073C44.9279-13.1889 44.774-13.2073 44.6307-13.2604C44.4874-13.3135 44.359-13.4002 44.256-13.513C44.1371-13.6319 43.9588-13.6149 43.8186-13.6999C43.5851-13.8357 43.3643-14.0013 43.1393-14.15C43.049-14.2091 42.9538-14.26 42.8548-14.3028C42.6552-14.3877 42.4428-14.4217 42.3494-14.7699C42.3324-14.8251 42.2645-14.8548 42.222-14.8888C41.7168-15.2285 41.2157-15.5809 40.7062-15.9079C40.4684-16.0565 40.2136-16.1499 39.9801-16.2985C39.8017-16.4132 39.6361-16.5745 39.4705-16.7231C39.2328-16.9312 38.995-17.135 38.7699-17.3601C38.4579-17.6626 38.1562-17.9754 37.8655-18.2985C37.5598-18.6466 37.271-19.0203 36.9738-19.3897C36.8167-19.5765 36.6596-19.7591 36.5237-19.9714C36.3114-20.2941 36.1288-20.6593 35.9165-20.982C35.8146-21.1349 35.6745-21.2283 35.5556-21.3642C35.4494-21.4873 35.356-21.6274 35.2584-21.7591C35.1607-21.8865 35.0843-22.069 34.9696-22.1412C34.6427-22.3535 34.303-22.5149 33.9675-22.6975L33.9081-22.7314C33.5811-22.8291 33.2584-22.9225 32.9315-23.0287C32.6215-23.1348 32.32-23.2834 32.0058-23.3726C31.4835-23.5212 30.9528-23.6401 30.4262-23.7633C30.112-23.8354 29.7978-23.8864 29.4836-23.9543C29.2246-24.0095 28.9486-24.1751 28.7023-24.1072C28.3923-24.0223 28.1376-24.311 27.8403-24.2473C27.7342-24.2261 27.6195-24.3917 27.5006-24.4214C26.9529-24.5573 26.4094-24.6762 25.8616-24.7908C25.3393-24.9012 24.8171-24.9734 24.3033-25.122C24.0188-25.2069 23.7088-25.2749 23.5092-25.6485C23.3606-25.9203 23.4286-26.2218 23.4923-26.502C23.556-26.7695 23.7173-26.7908 23.8914-26.8332C24.2056-26.9181 24.5113-27.088 24.8256-27.2154C24.9317-27.2578 25.0379-27.2706 25.1525-27.3003C25.3478-27.3513 25.5474-27.4192 25.747-27.4532C25.9253-27.4829 26.1036-27.4701 26.282-27.4956C26.4221-27.5126 26.558-27.5508 26.6939-27.5805C26.7873-27.6018 26.8764-27.6315 26.9699-27.6485C27.0548-27.6612 27.1482-27.6315 27.2246-27.6697C27.8658-27.9797 28.5409-27.7971 29.1948-27.9669C29.2458-27.9797 29.2925-28.0094 29.3435-28.0264C29.543-28.0773 29.7384-28.1538 29.9379-28.1665C30.4305-28.209 30.8551-28.4807 31.2457-28.8969C31.4708-29.1346 31.7128-29.3427 31.9379-29.5805C32.1672-29.8225 32.3752-30.1113 32.6088-30.3448C32.8423-30.5826 33.1013-30.7864 33.3476-30.9987C33.424-31.0666 33.5089-31.1218 33.5854-31.1898C33.751-31.3469 33.9038-31.5465 34.0822-31.6653C34.5068-31.9456 34.9399-32.1749 35.3645-32.4551C35.4919-32.5358 35.5768-32.7524 35.7042-32.8203C36.1628-33.0751 36.6511-33.2279 37.0927-33.5421C37.5428-33.8649 38.0268-33.9201 38.4939-34.1111C38.8464-34.2555 39.1903-34.4466 39.5427-34.6079C39.6276-34.6461 39.7296-34.6249 39.8102-34.6674C40.0183-34.7778 40.2221-34.9094 40.4259-35.0368C40.8463-35.3043 41.2752-35.5421 41.6785-35.8563C42.0734-36.162 42.4386-36.5612 42.8208-36.9051C42.9482-37.0155 43.101-37.058 43.2284-37.1684C43.7252-37.593 44.2263-38.0176 44.7146-38.4677C44.9463-38.6842 45.1594-38.9199 45.3515-39.1725C45.4916-39.3509 45.5978-39.5844 45.7167-39.7967L46.4725-41.181C46.723-41.6311 46.9735-42.0812 47.2325-42.5185C47.4533-42.9007 47.6826-43.2658 47.9119-43.6353C47.9544-43.6989 48.0181-43.7372 48.0733-43.7839C48.1157-43.8221 48.1794-43.8391 48.2092-43.8943C48.4469-44.3104 48.6635-44.7435 48.9098-45.1511C49.0669-45.4144 49.2707-45.6182 49.4363-45.873C49.6189-46.1532 49.7633-46.4887 49.9458-46.7647C50.1327-47.0449 50.3535-47.27 50.5403-47.5375C50.7017-47.7583 50.8333-48.0215 50.9904-48.2381C51.3768-48.7731 51.7802-49.2784 52.1666-49.8134C52.3449-50.0597 52.4935-50.3484 52.6549-50.6159C52.7271-50.7348 52.8077-50.8452 52.8842-50.9641C53.2918-51.601 53.6909-52.2507 54.1071-52.8749C54.3746-53.2783 54.6761-53.6349 54.9393-54.0426C55.325-54.6201 55.6835-55.2152 56.0136-55.826C56.1488-56.1076 56.3137-56.3739 56.5061-56.62C56.6378-56.7771 56.7185-57.0276 56.8204-57.2314L57.1813-57.9321L57.6484-58.8195C57.9031-59.2993 58.1494-59.7961 58.4169-60.2632C58.5783-60.5477 58.7778-60.7855 58.9477-61.0572C59.0623-61.2398 59.16-61.4394 59.2619-61.6347C59.5379-62.1697 59.8097-62.709 60.0899-63.2397C60.2725-63.5794 60.4721-63.8937 60.6546-64.2291L61.7162-66.1484C61.9879-66.6324 62.2385-67.1505 62.5399-67.5921C62.9009-68.1143 63.283-68.6239 63.7034-69.0357C64.0643-69.3882 64.4804-69.6217 64.8881-69.851C65.1004-69.9699 65.3381-69.9699 65.5674-70C65.6863-70.0124 65.801-69.6599 65.7245-69.4604C65.5632-69.0612 65.3849-68.6791 65.2065-68.2927C65.0791-67.9954 64.9305-67.7109 64.8074-67.4052C64.5696-66.8108 64.3403-66.2163 64.1068-65.6176C64.0983-65.5879 64.077-65.5666 64.0728-65.5369L63.8265-64.0847L63.7671-63.7578C63.7246-63.5285 63.6482-63.2949 63.6482-63.0657C63.6524-62.6113 63.7161-62.1612 63.7246-61.7069C63.7416-60.8109 63.7543-59.915 63.7331-59.0233C63.7076-58.0934 63.6312-57.1677 63.593-56.2421C63.5633-55.5033 63.5505-54.7644 63.5378-54.0256C63.5293-53.2485 63.5463-52.4715 63.5335-51.6902C63.525-51.1552 63.4783-50.6202 63.4486-50.0852C63.4231-49.6478 63.3977-49.2105 63.3637-48.7689C63.3297-48.2041 63.266-47.6394 63.266-47.0746C63.266-46.7137 63.3637-46.3528 63.4146-45.9876C63.4741-45.5503 63.5081-45.0959 63.5972-44.6756C63.6524-44.425 63.7841-44.2085 63.8945-43.9962C64.2469-43.2956 64.5866-42.5865 64.956-41.9198C65.3212-41.2744 65.3849-40.4761 65.5377-39.7203C65.5632-39.6014 65.5207-39.4443 65.4953-39.3127C65.4528-39.0706 65.5122-38.9517 65.6778-38.9348C65.9156-38.9093 66.0812-39.0452 66.2723-39.2745C66.6714-39.7585 67.1003-40.2213 67.5674-40.5483C67.8009-40.7097 68.1406-40.5568 68.4336-40.5186C68.527-40.5101 68.6501-39.8265 68.6034-39.6439C68.5313-39.3636 68.3996-39.2362 68.1916-39.2999C67.5971-39.4783 67.164-39.0876 67.0026-38.2384C66.9963-38.2076 66.9934-38.1765 66.9941-38.145C67.0196-37.6439 67.0026-37.1344 67.0833-36.6588C67.1767-36.1026 67.3508-35.5803 67.4994-35.0453C67.6693-34.4508 67.8519-33.8564 68.0132-33.2577C68.0642-33.0751 68.0514-32.8585 68.0854-32.6632C68.1703-32.1749 68.2553-31.6866 68.3529-31.2068C68.4506-30.7397 68.6162-30.2769 68.6459-29.8013C68.6671-29.4106 68.8922-29.0157 68.6034-28.5614C68.4081-28.2514 68.3487-27.7122 68.2935-27.2621C68.2595-26.9649 68.3359-26.6294 68.3784-26.3152C68.4209-25.9755 68.4506-25.6188 68.5482-25.3089C68.6332-25.0371 68.786-24.7823 68.9474-24.604C69.1087-24.4214 69.321-24.3492 69.5079-24.2176C69.6777-24.0945 69.8476-23.9671 70.0004-23.8142C70.1703-23.6401 70.1533-23.3471 70.0429-23.1773C69.9665-23.0457 69.7754-22.9862 69.648-23.0159C69.4272-23.0626 69.2149-23.2028 68.9983-23.3132C68.7563-23.4278 68.5185-23.5509 68.2765-23.6698C68.2595-23.6826 68.2255-23.6953 68.2213-23.7123C68.1746-24.2006 67.7415-24.0902 67.6396-24.6125C67.5886-24.3874 67.5461-24.2601 67.5292-24.1242C67.474-23.6316 67.6693-23.0499 67.9665-22.8249C68.3189-22.5573 68.6756-22.3026 69.0365-22.0605C69.1215-22.0011 69.2234-22.0053 69.3168-21.9841C69.4994-21.9417 69.6692-21.8525 69.6565-21.534C69.6522-21.2113 69.389-20.982 69.1767-20.999C68.9721-21.0139 68.7666-20.9923 68.5695-20.9353C68.3657-20.8801 68.1873-20.8716 67.992-21.0542C67.7415-21.3005 67.4485-21.4491 67.2065-21.7081C66.8777-22.0333 66.5985-22.4055 66.3785-22.8121C66.2086-23.1603 66.1661-23.6571 66.0812-24.0945C66.0345-24.362 66.009-24.6422 65.9793-24.914C65.9698-25.0127 65.9698-25.1125 65.9793-25.2112C65.9963-25.3895 66.0133-25.5679 66.043-25.742C66.095-26.0866 66.1516-26.4305 66.2129-26.7738C66.3105-27.3385 66.4252-27.899 66.5186-28.4637C66.5883-28.9333 66.5048-29.4128 66.2808-29.831C66.1237-30.1707 66.1194-30.6548 66.0388-31.0709C66.009-31.2237 65.9538-31.3681 65.9114-31.5167C65.8477-31.3469 65.7415-31.1813 65.7245-31.0072C65.6821-30.2938 65.7203-29.5762 65.4613-28.9053C65.3424-28.5869 65.3339-28.175 65.2702-27.8056C65.2277-27.5763 65.1853-27.3385 65.1216-27.122C64.7493-25.7965 64.3332-24.4837 63.8732-23.1858C63.7119-22.7283 63.5275-22.2789 63.3212-21.8397C63.1429-21.4576 62.9306-21.1179 62.7268-20.7697C62.6588-20.6551 62.5569-20.5871 62.4975-20.4725C62.4207-20.3366 62.3676-20.1887 62.3404-20.0351C62.4508-19.8865 62.5951-19.7082 62.731-19.6954C63.1301-19.6657 63.5335-19.7379 63.9327-19.7082C64.0516-19.6954 64.1832-19.5001 64.2681-19.343C64.2978-19.2836 64.2172-19.0882 64.1832-18.9566C64.1747-18.9226 64.1492-18.8887 64.1237-18.8844C63.869-18.8165 63.6142-18.7018 63.3594-18.7146C63.0792-18.7231 62.8202-18.4046 62.8754-17.98C62.9476-17.411 63.0537-16.8548 63.1259-16.2858C63.1811-15.8527 63.2193-15.4111 63.2448-14.9695C63.2788-14.3835 63.2915-13.7975 63.3042-13.2116C63.3042-13.0969 63.2703-12.9823 63.249-12.8719C63.1047-12.0354 62.9518-11.2074 62.8159-10.3666C62.7607-10.0185 62.6036-9.66178 62.7735-9.28812C62.8329-9.16073 62.9009-8.99938 62.99-8.93993C63.266-8.7531 63.5675-8.6427 63.8393-8.44313C64.082-8.27965 64.2862-8.06522 64.438-7.8147C64.6121-7.50048 64.4719-7.13532 64.1959-7.16504C63.8867-7.21068 63.5841-7.2949 63.2957-7.41556C63.1259-7.47501 62.9985-7.52172 62.9476-7.21175C62.9373-7.16999 62.9185-7.13107 62.8924-7.0971C62.4677-6.48141 62.2554-5.65341 61.9455-4.92307C61.903-4.81692 61.9242-4.64707 61.903-4.51119C61.869-4.3371 61.8181-4.1715 61.7884-3.99316C61.7671-3.84879 61.7289-3.68319 61.7544-3.55581C61.8181-3.26707 61.903-2.98258 62.0092-2.71932C62.1281-2.42208 62.0092-2.1843 61.8775-2.08664C61.7756-2.01445 61.5803-2.10362 61.4657-2.21402C61.299-2.38812 61.1589-2.58521 61.0495-2.79999C60.9002-3.06573 60.7711-3.34279 60.6631-3.62799C60.5357-3.95919 60.4466-4.32012 60.3404-4.67255C60.3277-4.71501 60.3107-4.76596 60.3149-4.80418C60.3659-5.23728 60.4126-5.66615 60.4721-6.09076C60.4975-6.27335 60.5782-6.43895 60.5952-6.62153C60.6447-7.0511 60.782-7.46581 60.9986-7.84018C61.0297-7.89219 61.0499-7.94987 61.058-8.01002C61.092-8.46861 61.1642-8.93568 61.1472-9.39002C61.126-9.95052 61.0198-10.5025 60.9646-11.0588C60.9179-11.5343 60.8967-12.0141 60.8585-12.4897C60.8287-12.8379 60.7863-13.1818 60.7523-13.5258C60.7183-13.8485 60.6716-14.1712 60.6461-14.4939L60.4636-16.876C60.4551-16.9609 60.4211-17.0416 60.3956-17.1223L60.2682-16.9439L60.0814-16.7189C60.0637-16.7323 60.0467-16.7465 60.0305-16.7613L60.0305-16.7613Z"/>
   <path class="monochrome-1 multicolor-1:tintColor hierarchical-1:tertiary SFSymbolsPreviewWireframe" d="M46.4321-81.8365C52.4502-81.8377 58.4096-80.6532 63.9698-78.3508C69.53-76.0483 74.5822-72.6729 78.8374-68.4176C83.0928-64.1624 86.4682-59.1103 88.771-53.5496C91.0733-47.9892 92.2577-42.03 92.2566-36.0127C92.2566-10.693 71.744 9.83658 46.4328 9.83658C21.1173 9.83658 0.5835-10.6972 0.5835-36.0127C0.5835-61.3211 21.1145-81.8365 46.4321-81.8365ZM46.4328-75.0865C24.8413-75.0865 7.3335-57.592 7.3335-36.0127C7.3335-14.4252 24.8452 3.08658 46.4328 3.08658C68.0148 3.08658 85.5066-14.4197 85.5066-36.0133C85.5076-41.1447 84.4976-46.226 82.5345-50.9672C80.571-55.7085 77.693-60.0162 74.0644-63.6446C70.4361-67.273 66.1283-70.1511 61.3873-72.1143C56.6463-74.0776 51.5649-75.0875 46.4328-75.0865Z"/>
  </g>
  <g id="Ultralight-S" transform="matrix(1 0 0 1 515.649 696)">
   <path class="monochrome-0 multicolor-0:tintColor hierarchical-0:primary SFSymbolsPreviewWireframe" d="M57.9615-17.7613L57.4434-17.3197C57.1182-17.0473 56.7927-16.7755 56.4668-16.5045C56.4074-16.4578 56.3479-16.3644 56.297-16.3771C56.021-16.4578 55.8723-16.1308 55.6643-15.9865C55.3288-15.7529 54.9849-15.5618 54.6452-15.3453C54.5306-15.2731 54.4329-15.1669 54.3225-15.0905C53.7917-14.7296 53.2695-14.3559 52.7302-14.0332C52.5179-13.9058 52.2801-13.9058 52.0551-13.8506C51.8725-13.8082 51.6899-13.736 51.5115-13.7317C51.3247-13.7317 51.1379-13.8167 50.9511-13.8252C50.3991-13.8421 49.8471-13.9398 49.312-13.8124C48.8832-13.7105 48.4628-13.7615 48.0382-13.7275C47.5371-13.685 47.0319-13.7572 46.5266-13.77C46.4416-13.77 46.3567-13.736 46.276-13.685C46.0213-13.5152 45.792-13.6553 45.5542-13.7869C45.3985-13.8775 45.2269-13.938 45.0489-13.9653C44.5903-14.0205 44.1445-14.2201 43.6689-14.0842C43.4651-14.0247 43.2315-14.2201 43.0107-14.2073C42.8589-14.1889 42.705-14.2073 42.5617-14.2604C42.4184-14.3135 42.29-14.4002 42.187-14.513C42.0681-14.6319 41.8898-14.6149 41.7496-14.6999C41.5161-14.8357 41.2953-15.0013 41.0703-15.15C40.98-15.2091 40.8848-15.26 40.7858-15.3028C40.5862-15.3877 40.3738-15.4217 40.2804-15.7699C40.2634-15.8251 40.1955-15.8548 40.153-15.8888C39.6478-16.2285 39.1467-16.5809 38.6372-16.9079C38.3994-17.0565 38.1446-17.1499 37.9111-17.2985C37.7327-17.4132 37.5671-17.5745 37.4015-17.7231C37.1638-17.9312 36.926-18.135 36.7009-18.3601C36.3889-18.6626 36.0872-18.9754 35.7965-19.2985C35.4908-19.6466 35.202-20.0203 34.9048-20.3897C34.7477-20.5765 34.5906-20.7591 34.4547-20.9714C34.2424-21.2941 34.0598-21.6593 33.8475-21.982C33.7456-22.1349 33.6055-22.2283 33.4866-22.3642C33.3804-22.4873 33.287-22.6274 33.1894-22.7591C33.0917-22.8865 33.0153-23.069 32.9006-23.1412C32.5737-23.3535 32.234-23.5149 31.8985-23.6975L31.8391-23.7314C31.5121-23.8291 31.1894-23.9225 30.8625-24.0287C30.5525-24.1348 30.251-24.2834 29.9368-24.3726C29.4145-24.5212 28.8838-24.6401 28.3572-24.7633C28.043-24.8354 27.7288-24.8864 27.4146-24.9543C27.1556-25.0095 26.8796-25.1751 26.6333-25.1072C26.3233-25.0223 26.0686-25.311 25.7713-25.2473C25.6652-25.2261 25.5505-25.3917 25.4316-25.4214C24.8839-25.5573 24.3404-25.6762 23.7926-25.7908C23.2703-25.9012 22.7481-25.9734 22.2343-26.122C21.9498-26.2069 21.6398-26.2749 21.4402-26.6485C21.2916-26.9203 21.3596-27.2218 21.4233-27.502C21.487-27.7695 21.6483-27.7908 21.8224-27.8332C22.1366-27.9181 22.4423-28.088 22.7566-28.2154C22.8627-28.2578 22.9689-28.2706 23.0835-28.3003C23.2788-28.3513 23.4784-28.4192 23.678-28.4532C23.8563-28.4829 24.0346-28.4701 24.213-28.4956C24.3531-28.5126 24.489-28.5508 24.6249-28.5805C24.7183-28.6018 24.8074-28.6315 24.9009-28.6485C24.9858-28.6612 25.0792-28.6315 25.1556-28.6697C25.7968-28.9797 26.4719-28.7971 27.1258-28.9669C27.1768-28.9797 27.2235-29.0094 27.2745-29.0264C27.474-29.0773 27.6694-29.1538 27.8689-29.1665C28.3615-29.209 28.7861-29.4807 29.1767-29.8969C29.4018-30.1346 29.6438-30.3427 29.8689-30.5805C30.0982-30.8225 30.3062-31.1113 30.5398-31.3448C30.7733-31.5826 31.0323-31.7864 31.2786-31.9987C31.355-32.0666 31.4399-32.1218 31.5164-32.1898C31.682-32.3469 31.8348-32.5465 32.0132-32.6653C32.4378-32.9456 32.8709-33.1749 33.2955-33.4551C33.4229-33.5358 33.5078-33.7524 33.6352-33.8203C34.0938-34.0751 34.5821-34.2279 35.0237-34.5421C35.4738-34.8649 35.9578-34.9201 36.4249-35.1111C36.7774-35.2555 37.1213-35.4466 37.4737-35.6079C37.5586-35.6461 37.6606-35.6249 37.7412-35.6674C37.9493-35.7778 38.1531-35.9094 38.3569-36.0368C38.7773-36.3043 39.2062-36.5421 39.6095-36.8563C40.0044-37.162 40.3696-37.5612 40.7518-37.9051C40.8792-38.0155 41.032-38.058 41.1594-38.1684C41.6562-38.593 42.1573-39.0176 42.6456-39.4677C42.8773-39.6842 43.0904-39.9199 43.2825-40.1725C43.4226-40.3509 43.5288-40.5844 43.6477-40.7967L44.4035-42.181C44.654-42.6311 44.9045-43.0812 45.1635-43.5185C45.3843-43.9007 45.6136-44.2658 45.8429-44.6353C45.8854-44.6989 45.9491-44.7372 46.0043-44.7839C46.0467-44.8221 46.1104-44.8391 46.1402-44.8943C46.3779-45.3104 46.5945-45.7435 46.8408-46.1511C46.9979-46.4144 47.2017-46.6182 47.3673-46.873C47.5499-47.1532 47.6943-47.4887 47.8768-47.7647C48.0637-48.0449 48.2845-48.27 48.4713-48.5375C48.6327-48.7583 48.7643-49.0215 48.9214-49.2381C49.3078-49.7731 49.7112-50.2784 50.0976-50.8134C50.2759-51.0597 50.4245-51.3484 50.5859-51.6159C50.6581-51.7348 50.7387-51.8452 50.8152-51.9641C51.2228-52.601 51.6219-53.2507 52.0381-53.8749C52.3056-54.2783 52.6071-54.6349 52.8703-55.0426C53.256-55.6201 53.6145-56.2152 53.9446-56.826C54.0798-57.1076 54.2447-57.3739 54.4371-57.62C54.5688-57.7771 54.6495-58.0276 54.7514-58.2314L55.1123-58.9321L55.5794-59.8195C55.8341-60.2993 56.0804-60.7961 56.3479-61.2632C56.5093-61.5477 56.7088-61.7855 56.8787-62.0572C56.9933-62.2398 57.091-62.4394 57.1929-62.6347C57.4689-63.1697 57.7407-63.709 58.0209-64.2397C58.2035-64.5794 58.4031-64.8937 58.5856-65.2291L59.6472-67.1484C59.9189-67.6324 60.1695-68.1505 60.4709-68.5921C60.8319-69.1143 61.214-69.6239 61.6344-70.0357C61.9953-70.3882 62.4114-70.6217 62.8191-70.851C63.0314-70.9699 63.2691-70.9699 63.4984-71C63.6173-71.0124 63.732-70.6599 63.6555-70.4604C63.4942-70.0612 63.3159-69.6791 63.1375-69.2927C63.0101-68.9954 62.8615-68.7109 62.7384-68.4052C62.5006-67.8108 62.2713-67.2163 62.0378-66.6176C62.0293-66.5879 62.008-66.5666 62.0038-66.5369L61.7575-65.0847L61.6981-64.7578C61.6556-64.5285 61.5792-64.2949 61.5792-64.0657C61.5834-63.6113 61.6471-63.1612 61.6556-62.7069C61.6726-61.8109 61.6853-60.915 61.6641-60.0233C61.6386-59.0934 61.5622-58.1677 61.524-57.2421C61.4943-56.5033 61.4815-55.7644 61.4688-55.0256C61.4603-54.2485 61.4773-53.4715 61.4645-52.6902C61.456-52.1552 61.4093-51.6202 61.3796-51.0852C61.3541-50.6478 61.3287-50.2105 61.2947-49.7689C61.2607-49.2041 61.197-48.6394 61.197-48.0746C61.197-47.7137 61.2947-47.3528 61.3456-46.9876C61.4051-46.5503 61.4391-46.0959 61.5282-45.6756C61.5834-45.425 61.7151-45.2085 61.8255-44.9962C62.1779-44.2956 62.5176-43.5865 62.887-42.9198C63.2522-42.2744 63.3159-41.4761 63.4687-40.7203C63.4942-40.6014 63.4517-40.4443 63.4263-40.3127C63.3838-40.0706 63.4432-39.9517 63.6088-39.9348C63.8466-39.9093 64.0122-40.0452 64.2033-40.2745C64.6024-40.7585 65.0313-41.2213 65.4984-41.5483C65.7319-41.7097 66.0716-41.5568 66.3646-41.5186C66.458-41.5101 66.5811-40.8265 66.5344-40.6439C66.4623-40.3636 66.3306-40.2362 66.1226-40.2999C65.5281-40.4783 65.095-40.0876 64.9336-39.2384C64.9273-39.2076 64.9244-39.1765 64.9251-39.145C64.9506-38.6439 64.9336-38.1344 65.0143-37.6588C65.1077-37.1026 65.2818-36.5803 65.4304-36.0453C65.6003-35.4508 65.7829-34.8564 65.9442-34.2577C65.9952-34.0751 65.9824-33.8585 66.0164-33.6632C66.1013-33.1749 66.1863-32.6866 66.2839-32.2068C66.3816-31.7397 66.5472-31.2769 66.5769-30.8013C66.5981-30.4106 66.8232-30.0157 66.5344-29.5614C66.3391-29.2514 66.2797-28.7122 66.2245-28.2621C66.1905-27.9649 66.2669-27.6294 66.3094-27.3152C66.3519-26.9755 66.3816-26.6188 66.4792-26.3089C66.5642-26.0371 66.717-25.7823 66.8784-25.604C67.0397-25.4214 67.252-25.3492 67.4389-25.2176C67.6087-25.0945 67.7786-24.9671 67.9314-24.8142C68.1013-24.6401 68.0843-24.3471 67.9739-24.1773C67.8975-24.0457 67.7064-23.9862 67.579-24.0159C67.3582-24.0626 67.1459-24.2028 66.9293-24.3132C66.6873-24.4278 66.4495-24.5509 66.2075-24.6698C66.1905-24.6826 66.1565-24.6953 66.1523-24.7123C66.1056-25.2006 65.6725-25.0902 65.5706-25.6125C65.5196-25.3874 65.4771-25.2601 65.4602-25.1242C65.405-24.6316 65.6003-24.0499 65.8975-23.8249C66.2499-23.5573 66.6066-23.3026 66.9675-23.0605C67.0525-23.0011 67.1544-23.0053 67.2478-22.9841C67.4304-22.9417 67.6002-22.8525 67.5875-22.534C67.5832-22.2113 67.32-21.982 67.1077-21.999C66.9031-22.0139 66.6976-21.9923 66.5005-21.9353C66.2967-21.8801 66.1183-21.8716 65.923-22.0542C65.6725-22.3005 65.3795-22.4491 65.1375-22.7081C64.8087-23.0333 64.5295-23.4055 64.3095-23.8121C64.1396-24.1603 64.0971-24.6571 64.0122-25.0945C63.9655-25.362 63.94-25.6422 63.9103-25.914C63.9008-26.0127 63.9008-26.1125 63.9103-26.2112C63.9273-26.3895 63.9443-26.5679 63.974-26.742C64.026-27.0866 64.0826-27.4305 64.1439-27.7738C64.2415-28.3385 64.3562-28.899 64.4496-29.4637C64.5193-29.9333 64.4358-30.4128 64.2118-30.831C64.0547-31.1707 64.0504-31.6548 63.9698-32.0709C63.94-32.2237 63.8848-32.3681 63.8424-32.5167C63.7787-32.3469 63.6725-32.1813 63.6555-32.0072C63.6131-31.2938 63.6513-30.5762 63.3923-29.9053C63.2734-29.5869 63.2649-29.175 63.2012-28.8056C63.1587-28.5763 63.1163-28.3385 63.0526-28.122C62.6803-26.7965 62.2642-25.4837 61.8042-24.1858C61.6429-23.7283 61.4585-23.2789 61.2522-22.8397C61.0739-22.4576 60.8616-22.1179 60.6578-21.7697C60.5898-21.6551 60.4879-21.5871 60.4285-21.4725C60.3517-21.3366 60.2986-21.1887 60.2714-21.0351C60.3818-20.8865 60.5261-20.7082 60.662-20.6954C61.0611-20.6657 61.4645-20.7379 61.8637-20.7082C61.9826-20.6954 62.1142-20.5001 62.1991-20.343C62.2288-20.2836 62.1482-20.0882 62.1142-19.9566C62.1057-19.9226 62.0802-19.8887 62.0547-19.8844C61.8-19.8165 61.5452-19.7018 61.2904-19.7146C61.0102-19.7231 60.7512-19.4046 60.8064-18.98C60.8786-18.411 60.9847-17.8548 61.0569-17.2858C61.1121-16.8527 61.1503-16.4111 61.1758-15.9695C61.2098-15.3835 61.2225-14.7975 61.2352-14.2116C61.2352-14.0969 61.2013-13.9823 61.18-13.8719C61.0357-13.0354 60.8828-12.2074 60.7469-11.3666C60.6917-11.0185 60.5346-10.6618 60.7045-10.2881C60.7639-10.1607 60.8319-9.99938 60.921-9.93993C61.197-9.7531 61.4985-9.6427 61.7703-9.44313C62.013-9.27965 62.2172-9.06522 62.369-8.8147C62.5431-8.50048 62.4029-8.13532 62.1269-8.16504C61.8177-8.21068 61.5151-8.2949 61.2267-8.41556C61.0569-8.47501 60.9295-8.52172 60.8786-8.21175C60.8683-8.16999 60.8495-8.13107 60.8234-8.0971C60.3987-7.48141 60.1864-6.65341 59.8765-5.92307C59.834-5.81692 59.8552-5.64707 59.834-5.51119C59.8-5.3371 59.7491-5.1715 59.7194-4.99316C59.6981-4.84879 59.6599-4.68319 59.6854-4.55581C59.7491-4.26707 59.834-3.98258 59.9402-3.71932C60.0591-3.42208 59.9402-3.1843 59.8085-3.08664C59.7066-3.01445 59.5113-3.10362 59.3967-3.21402C59.23-3.38812 59.0899-3.58521 58.9805-3.79999C58.8312-4.06573 58.7021-4.34279 58.5941-4.62799C58.4667-4.95919 58.3776-5.32012 58.2714-5.67255C58.2587-5.71501 58.2417-5.76596 58.2459-5.80418C58.2969-6.23728 58.3436-6.66615 58.4031-7.09076C58.4285-7.27335 58.5092-7.43895 58.5262-7.62153C58.5757-8.0511 58.713-8.46581 58.9296-8.84018C58.9607-8.89219 58.9809-8.94987 58.989-9.01002C59.023-9.46861 59.0952-9.93568 59.0782-10.39C59.057-10.9505 58.9508-11.5025 58.8956-12.0588C58.8489-12.5343 58.8277-13.0141 58.7895-13.4897C58.7597-13.8379 58.7173-14.1818 58.6833-14.5258C58.6493-14.8485 58.6026-15.1712 58.5771-15.4939L58.3946-17.876C58.3861-17.9609 58.3521-18.0416 58.3266-18.1223L58.1992-17.9439L58.0124-17.7189C57.9947-17.7323 57.9777-17.7465 57.9615-17.7613L57.9615-17.7613Z"/>
   <path class="monochrome-1 multicolor-1:tintColor hierarchical-1:tertiary SFSymbolsPreviewWireframe" d="M44.3636-80.5865C50.0861-80.5876 55.7528-79.4613 61.04-77.272C66.3271-75.0826 71.1312-71.8729 75.1774-67.8265C79.2239-63.7803 82.4335-58.9764 84.6232-53.6889C86.8124-48.4015 87.9387-42.7349 87.9376-37.0127C87.9376-12.9352 68.432 6.58658 44.3638 6.58658C20.2909 6.58658 0.7645-12.9399 0.7645-37.0127C0.7645-61.0781 20.2877-80.5865 44.3636-80.5865ZM44.3638-78.3365C21.53-78.3365 3.0145-59.8351 3.0145-37.0127C3.0145-14.1825 21.5336 4.33658 44.3638 4.33658C67.1889 4.33658 85.6876-14.1774 85.6876-37.0129C85.6886-42.4398 84.6205-47.8138 82.5443-52.828C80.4678-57.8425 77.4239-62.3983 73.5865-66.2355C69.7491-70.073 65.1932-73.1168 60.1791-75.1931C55.1651-77.2695 49.791-78.3376 44.3638-78.3365Z"/>
  </g>
 </g>
</svg>
