<?xml version="1.0" encoding="UTF-8"?>
<!--Generator: Apple Native CoreSVG 341-->
<!DOCTYPE svg
PUBLIC "-//W3C//DTD SVG 1.1//EN"
       "http://www.w3.org/Graphics/SVG/1.1/DTD/svg11.dtd">
<svg version="1.1" xmlns="http://www.w3.org/2000/svg" xmlns:xlink="http://www.w3.org/1999/xlink" viewBox="0 0 3300 2200">
 <!--glyph: "", point size: 100.0, font version: "20.0d10e1", template writer version: "138.0.0"-->
 <style>.monochrome-0 {-sfsymbols-motion-group:1;-sfsymbols-layer-tags:-50a2028f1387730a}
.monochrome-1 {-sfsymbols-motion-group:0;-sfsymbols-layer-tags:-50a2028f1387730a}

.multicolor-0:tintColor {-sfsymbols-motion-group:1;-sfsymbols-layer-tags:-50a2028f1387730a}
.multicolor-1:tintColor {-sfsymbols-motion-group:0;-sfsymbols-layer-tags:-50a2028f1387730a}

.hierarchical-0:primary {-sfsymbols-motion-group:1;-sfsymbols-layer-tags:-50a2028f1387730a}
.hierarchical-1:tertiary {-sfsymbols-motion-group:0;-sfsymbols-layer-tags:-50a2028f1387730a}

.SFSymbolsPreviewWireframe {fill:none;opacity:1.0;stroke:black;stroke-width:0.5}
</style>
 <g id="Notes">
  <rect height="2200" id="artboard" style="fill:white;opacity:1" width="3300" x="0" y="0"/>
  <line style="fill:none;stroke:black;opacity:1;stroke-width:0.5;" x1="263" x2="3036" y1="292" y2="292"/>
  <text style="stroke:none;fill:black;font-family:sans-serif;font-size:13;font-weight:bold;" transform="matrix(1 0 0 1 263 322)">Weight/Scale Variations</text>
  <text style="stroke:none;fill:black;font-family:sans-serif;font-size:13;text-anchor:middle;" transform="matrix(1 0 0 1 559.711 322)">Ultralight</text>
  <text style="stroke:none;fill:black;font-family:sans-serif;font-size:13;text-anchor:middle;" transform="matrix(1 0 0 1 856.422 322)">Thin</text>
  <text style="stroke:none;fill:black;font-family:sans-serif;font-size:13;text-anchor:middle;" transform="matrix(1 0 0 1 1153.13 322)">Light</text>
  <text style="stroke:none;fill:black;font-family:sans-serif;font-size:13;text-anchor:middle;" transform="matrix(1 0 0 1 1449.84 322)">Regular</text>
  <text style="stroke:none;fill:black;font-family:sans-serif;font-size:13;text-anchor:middle;" transform="matrix(1 0 0 1 1746.56 322)">Medium</text>
  <text style="stroke:none;fill:black;font-family:sans-serif;font-size:13;text-anchor:middle;" transform="matrix(1 0 0 1 2043.27 322)">Semibold</text>
  <text style="stroke:none;fill:black;font-family:sans-serif;font-size:13;text-anchor:middle;" transform="matrix(1 0 0 1 2339.98 322)">Bold</text>
  <text style="stroke:none;fill:black;font-family:sans-serif;font-size:13;text-anchor:middle;" transform="matrix(1 0 0 1 2636.69 322)">Heavy</text>
  <text style="stroke:none;fill:black;font-family:sans-serif;font-size:13;text-anchor:middle;" transform="matrix(1 0 0 1 2933.4 322)">Black</text>
  <line style="fill:none;stroke:black;opacity:1;stroke-width:0.5;" x1="263" x2="3036" y1="1903" y2="1903"/>
  <g transform="matrix(0.2 0 0 0.2 263 1933)">
   <path d="m46.2402 4.15039c21.7773 0 39.4531-17.627 39.4531-39.4043s-17.6758-39.4043-39.4531-39.4043c-21.7285 0-39.4043 17.627-39.4043 39.4043s17.6758 39.4043 39.4043 39.4043Zm0-7.42188c-17.6758 0-31.9336-14.3066-31.9336-31.9824s14.2578-31.9824 31.9336-31.9824 31.9824 14.3066 31.9824 31.9824-14.3066 31.9824-31.9824 31.9824Zm-17.9688-31.9824c0 2.14844 1.51367 3.61328 3.75977 3.61328h10.498v10.5957c0 2.19727 1.46484 3.71094 3.61328 3.71094 2.24609 0 3.71094-1.51367 3.71094-3.71094v-10.5957h10.5957c2.19727 0 3.71094-1.46484 3.71094-3.61328 0-2.19727-1.51367-3.71094-3.71094-3.71094h-10.5957v-10.5469c0-2.24609-1.46484-3.75977-3.71094-3.75977-2.14844 0-3.61328 1.51367-3.61328 3.75977v10.5469h-10.498c-2.24609 0-3.75977 1.51367-3.75977 3.71094Z"/>
  </g>
  <g transform="matrix(0.2 0 0 0.2 281.506 1933)">
   <path d="m58.5449 14.5508c27.4902 0 49.8047-22.3145 49.8047-49.8047s-22.3145-49.8047-49.8047-49.8047-49.8047 22.3145-49.8047 49.8047 22.3145 49.8047 49.8047 49.8047Zm0-8.30078c-22.9492 0-41.5039-18.5547-41.5039-41.5039s18.5547-41.5039 41.5039-41.5039 41.5039 18.5547 41.5039 41.5039-18.5547 41.5039-41.5039 41.5039Zm-22.6562-41.5039c0 2.39258 1.66016 4.00391 4.15039 4.00391h14.3555v14.4043c0 2.44141 1.66016 4.15039 4.05273 4.15039 2.44141 0 4.15039-1.66016 4.15039-4.15039v-14.4043h14.4043c2.44141 0 4.15039-1.61133 4.15039-4.00391 0-2.44141-1.70898-4.15039-4.15039-4.15039h-14.4043v-14.3555c0-2.49023-1.70898-4.19922-4.15039-4.19922-2.39258 0-4.05273 1.70898-4.05273 4.19922v14.3555h-14.3555c-2.49023 0-4.15039 1.70898-4.15039 4.15039Z"/>
  </g>
  <g transform="matrix(0.2 0 0 0.2 304.924 1933)">
   <path d="m74.8535 28.3203c35.1074 0 63.623-28.4668 63.623-63.5742s-28.5156-63.623-63.623-63.623-63.5742 28.5156-63.5742 63.623 28.4668 63.5742 63.5742 63.5742Zm0-9.08203c-30.127 0-54.4922-24.3652-54.4922-54.4922s24.3652-54.4922 54.4922-54.4922 54.4922 24.3652 54.4922 54.4922-24.3652 54.4922-54.4922 54.4922Zm-28.8574-54.4922c0 2.58789 1.85547 4.39453 4.58984 4.39453h19.7266v19.7754c0 2.68555 1.85547 4.58984 4.44336 4.58984 2.68555 0 4.54102-1.85547 4.54102-4.58984v-19.7754h19.7754c2.68555 0 4.58984-1.80664 4.58984-4.39453 0-2.73438-1.85547-4.58984-4.58984-4.58984h-19.7754v-19.7266c0-2.73438-1.85547-4.63867-4.54102-4.63867-2.58789 0-4.44336 1.9043-4.44336 4.63867v19.7266h-19.7266c-2.73438 0-4.58984 1.85547-4.58984 4.58984Z"/>
  </g>
  <text style="stroke:none;fill:black;font-family:sans-serif;font-size:13;font-weight:bold;" transform="matrix(1 0 0 1 263 1953)">Design Variations</text>
  <text style="stroke:none;fill:black;font-family:sans-serif;font-size:13;" transform="matrix(1 0 0 1 263 1971)">Symbols are supported in up to nine weights and three scales.</text>
  <text style="stroke:none;fill:black;font-family:sans-serif;font-size:13;" transform="matrix(1 0 0 1 263 1989)">For optimal layout with text and other symbols, vertically align</text>
  <text style="stroke:none;fill:black;font-family:sans-serif;font-size:13;" transform="matrix(1 0 0 1 263 2007)">symbols with the adjacent text.</text>
  <line style="fill:none;stroke:#00AEEF;stroke-width:0.5;opacity:1.0;" x1="776" x2="776" y1="1919" y2="1933"/>
  <g transform="matrix(0.2 0 0 0.2 776 1933)">
   <path d="m16.5527 0.78125c2.58789 0 3.85742-0.976562 4.78516-3.71094l6.29883-17.2363h28.8086l6.29883 17.2363c0.927734 2.73438 2.19727 3.71094 4.73633 3.71094 2.58789 0 4.24805-1.5625 4.24805-4.00391 0-0.830078-0.146484-1.61133-0.537109-2.63672l-22.9004-60.9863c-1.12305-2.97852-3.125-4.49219-6.25-4.49219-3.02734 0-5.07812 1.46484-6.15234 4.44336l-22.9004 61.084c-0.390625 1.02539-0.537109 1.80664-0.537109 2.63672 0 2.44141 1.5625 3.95508 4.10156 3.95508Zm13.4766-28.3691 11.8652-32.8613h0.244141l11.8652 32.8613Z"/>
  </g>
  <line style="fill:none;stroke:#00AEEF;stroke-width:0.5;opacity:1.0;" x1="792.836" x2="792.836" y1="1919" y2="1933"/>
  <text style="stroke:none;fill:black;font-family:sans-serif;font-size:13;font-weight:bold;" transform="matrix(1 0 0 1 776 1953)">Margins</text>
  <text style="stroke:none;fill:black;font-family:sans-serif;font-size:13;" transform="matrix(1 0 0 1 776 1971)">Leading and trailing margins on the left and right side of each symbol</text>
  <text style="stroke:none;fill:black;font-family:sans-serif;font-size:13;" transform="matrix(1 0 0 1 776 1989)">can be adjusted by modifying the x-location of the margin guidelines.</text>
  <text style="stroke:none;fill:black;font-family:sans-serif;font-size:13;" transform="matrix(1 0 0 1 776 2007)">Modifications are automatically applied proportionally to all</text>
  <text style="stroke:none;fill:black;font-family:sans-serif;font-size:13;" transform="matrix(1 0 0 1 776 2025)">scales and weights.</text>
  <g transform="matrix(0.2 0 0 0.2 1289 1933)">
   <path d="m14.209 9.32617 8.49609 8.54492c4.29688 4.3457 9.22852 4.05273 13.8672-1.07422l53.4668-58.9355-4.83398-4.88281-53.0762 58.3984c-1.75781 2.00195-3.41797 2.49023-5.76172 0.146484l-5.85938-5.81055c-2.34375-2.29492-1.80664-4.00391 0.195312-5.81055l57.373-54.0039-4.88281-4.83398-57.959 54.4434c-4.93164 4.58984-5.32227 9.47266-1.02539 13.8184Zm32.0801-90.9668c-2.09961 2.05078-2.24609 4.93164-1.07422 6.88477 1.17188 1.80664 3.4668 2.97852 6.68945 2.14844 7.32422-1.70898 14.9414-2.00195 22.0703 2.68555l-2.92969 7.27539c-1.70898 4.15039-0.830078 7.08008 1.85547 9.81445l11.4746 11.5723c2.44141 2.44141 4.49219 2.53906 7.32422 2.05078l5.32227-0.976562 3.32031 3.36914-0.195312 2.7832c-0.195312 2.49023 0.439453 4.39453 2.88086 6.78711l3.80859 3.71094c2.39258 2.39258 5.46875 2.53906 7.8125 0.195312l14.5508-14.5996c2.34375-2.34375 2.24609-5.32227-0.146484-7.71484l-3.85742-3.80859c-2.39258-2.39258-4.24805-3.17383-6.64062-2.97852l-2.88086 0.244141-3.22266-3.17383 1.2207-5.61523c0.634766-2.83203-0.146484-5.0293-3.07617-7.95898l-10.9863-10.9375c-16.6992-16.6016-38.8672-16.2109-53.3203-1.75781Zm7.4707 1.85547c12.1582-8.88672 28.6133-7.37305 39.7461 3.75977l12.1582 12.0605c1.17188 1.17188 1.36719 2.09961 1.02539 3.80859l-1.61133 7.42188 7.51953 7.42188 4.93164-0.292969c1.26953-0.0488281 1.66016 0.0488281 2.63672 1.02539l2.88086 2.88086-12.207 12.207-2.88086-2.88086c-0.976562-0.976562-1.12305-1.36719-1.07422-2.68555l0.341797-4.88281-7.4707-7.42188-7.61719 1.26953c-1.61133 0.341797-2.34375 0.195312-3.56445-0.976562l-10.0098-10.0098c-1.26953-1.17188-1.41602-2.00195-0.634766-3.85742l4.39453-10.4492c-7.8125-7.27539-17.9688-10.4004-28.125-7.42188-0.78125 0.195312-1.07422-0.439453-0.439453-0.976562Z"/>
  </g>
  <text style="stroke:none;fill:black;font-family:sans-serif;font-size:13;font-weight:bold;" transform="matrix(1 0 0 1 1289 1953)">Exporting</text>
  <text style="stroke:none;fill:black;font-family:sans-serif;font-size:13;" transform="matrix(1 0 0 1 1289 1971)">Symbols should be outlined when exporting to ensure the</text>
  <text style="stroke:none;fill:black;font-family:sans-serif;font-size:13;" transform="matrix(1 0 0 1 1289 1989)">design is preserved when submitting to Xcode.</text>
  <text id="template-version" style="stroke:none;fill:black;font-family:sans-serif;font-size:13;text-anchor:end;" transform="matrix(1 0 0 1 3036 1933)">Template v.6.0</text>
  <text style="stroke:none;fill:black;font-family:sans-serif;font-size:13;text-anchor:end;" transform="matrix(1 0 0 1 3036 1951)">Requires Xcode 16 or greater</text>
  <text id="descriptive-name" style="stroke:none;fill:black;font-family:sans-serif;font-size:13;text-anchor:end;" transform="matrix(1 0 0 1 3036 1969)">Generated from filtervogelgruppe-15</text>
  <text style="stroke:none;fill:black;font-family:sans-serif;font-size:13;text-anchor:end;" transform="matrix(1 0 0 1 3036 1987)">Typeset at 100.0 points</text>
  <text style="stroke:none;fill:black;font-family:sans-serif;font-size:13;" transform="matrix(1 0 0 1 263 726)">Small</text>
  <text style="stroke:none;fill:black;font-family:sans-serif;font-size:13;" transform="matrix(1 0 0 1 263 1156)">Medium</text>
  <text style="stroke:none;fill:black;font-family:sans-serif;font-size:13;" transform="matrix(1 0 0 1 263 1586)">Large</text>
 </g>
 <g id="Guides">
  <g id="H-reference" style="fill:#27AAE1;stroke:none;" transform="matrix(1 0 0 1 339 696)">
   <path d="M0.993654 0L3.63775 0L29.3281-67.1323L30.0303-67.1323L30.0303-70.459L28.1226-70.459ZM11.6885-24.4799L46.9815-24.4799L46.2315-26.7285L12.4385-26.7285ZM55.1196 0L57.7637 0L30.6382-70.459L29.4326-70.459L29.4326-67.1323Z"/>
  </g>
  <line id="Baseline-S" style="fill:none;stroke:#27AAE1;opacity:1;stroke-width:0.5;" x1="263" x2="3036" y1="696" y2="696"/>
  <line id="Capline-S" style="fill:none;stroke:#27AAE1;opacity:1;stroke-width:0.5;" x1="263" x2="3036" y1="625.541" y2="625.541"/>
  <g id="H-reference" style="fill:#27AAE1;stroke:none;" transform="matrix(1 0 0 1 339 1126)">
   <path d="M0.993654 0L3.63775 0L29.3281-67.1323L30.0303-67.1323L30.0303-70.459L28.1226-70.459ZM11.6885-24.4799L46.9815-24.4799L46.2315-26.7285L12.4385-26.7285ZM55.1196 0L57.7637 0L30.6382-70.459L29.4326-70.459L29.4326-67.1323Z"/>
  </g>
  <line id="Baseline-M" style="fill:none;stroke:#27AAE1;opacity:1;stroke-width:0.5;" x1="263" x2="3036" y1="1126" y2="1126"/>
  <line id="Capline-M" style="fill:none;stroke:#27AAE1;opacity:1;stroke-width:0.5;" x1="263" x2="3036" y1="1055.54" y2="1055.54"/>
  <g id="H-reference" style="fill:#27AAE1;stroke:none;" transform="matrix(1 0 0 1 339 1556)">
   <path d="M0.993654 0L3.63775 0L29.3281-67.1323L30.0303-67.1323L30.0303-70.459L28.1226-70.459ZM11.6885-24.4799L46.9815-24.4799L46.2315-26.7285L12.4385-26.7285ZM55.1196 0L57.7637 0L30.6382-70.459L29.4326-70.459L29.4326-67.1323Z"/>
  </g>
  <line id="Baseline-L" style="fill:none;stroke:#27AAE1;opacity:1;stroke-width:0.5;" x1="263" x2="3036" y1="1556" y2="1556"/>
  <line id="Capline-L" style="fill:none;stroke:#27AAE1;opacity:1;stroke-width:0.5;" x1="263" x2="3036" y1="1485.54" y2="1485.54"/>
  <line id="right-margin-Black-S" style="fill:none;stroke:#00AEEF;stroke-width:0.5;opacity:1.0;" x1="2982.23" x2="2982.23" y1="600.785" y2="720.121"/>
  <line id="left-margin-Black-S" style="fill:none;stroke:#00AEEF;stroke-width:0.5;opacity:1.0;" x1="2884.57" x2="2884.57" y1="600.785" y2="720.121"/>
  <line id="right-margin-Regular-S" style="fill:none;stroke:#00AEEF;stroke-width:0.5;opacity:1.0;" x1="1496.11" x2="1496.11" y1="600.785" y2="720.121"/>
  <line id="left-margin-Regular-S" style="fill:none;stroke:#00AEEF;stroke-width:0.5;opacity:1.0;" x1="1403.58" x2="1403.58" y1="600.785" y2="720.121"/>
  <line id="right-margin-Ultralight-S" style="fill:none;stroke:#00AEEF;stroke-width:0.5;opacity:1.0;" x1="603.773" x2="603.773" y1="600.785" y2="720.121"/>
  <line id="left-margin-Ultralight-S" style="fill:none;stroke:#00AEEF;stroke-width:0.5;opacity:1.0;" x1="515.649" x2="515.649" y1="600.785" y2="720.121"/>
 </g>
 <g id="Symbols">
  <g id="Black-S" transform="matrix(1 0 0 1 2884.57 696)">
   <path class="monochrome-0 multicolor-0:tintColor hierarchical-0:primary SFSymbolsPreviewWireframe" d="M45.8438-43.1153C45.957-43.1825 46.0419-43.2109 46.1056-43.2745C46.3356-43.501 46.555-43.7452 46.7886-43.9645C47.0858-44.2476 47.3901-44.5095 47.6944-44.7784C48.1898-45.2278 48.6923-45.6595 49.1735-46.123C49.5769-46.5122 49.9519-46.9369 50.3412-47.3438C50.4332-47.4393 50.5358-47.5136 50.6172-47.6162C50.8896-47.9524 51.1621-48.2885 51.4133-48.6424C51.6752-49.0068 51.9689-49.3607 52.1564-49.7817C52.6943-50.999 53.1826-52.2516 53.6921-53.4865C53.9539-54.1163 54.1875-54.7745 54.5059-55.3548C54.8881-56.0448 55.295-56.7206 55.8612-57.216C56.2504-57.5557 56.5795-58.0263 56.9829-58.3271C57.5101-58.7198 58.0798-59.0206 58.6459-59.332C58.929-59.4912 59.2369-59.608 59.5447-59.7071C60.6664-60.0609 61.7846-60.1529 62.9063-59.6504C64.0669-59.1267 65.0895-58.3235 65.9953-57.2797C66.6499-56.5225 67.2586-55.6945 67.9273-54.9585C68.3873-54.4631 68.681-53.8686 68.8721-53.168C68.8827-53.1291 68.9323-53.0725 68.9606-53.076C69.1976-53.0902 69.4347-53.1468 69.6683-53.1397C69.9867-53.1256 70.3193-53.1149 70.6166-53.0017C71.0164-52.8531 71.395-52.616 71.7736-52.3896C71.8798-52.3259 71.9789-52.1844 72.0355-52.0499C72.0638-51.9791 72.0284-51.7845 71.9753-51.7491C71.7276-51.5722 71.4799-51.3776 71.2075-51.2891C70.5423-51.0627 69.8699-50.8044 69.187-50.7159C68.2741-50.5991 68.2953-50.2736 68.0936-49.442C67.9379-48.7874 67.8389-48.101 67.7575-47.4216C67.6761-46.767 67.7327-46.1124 67.9344-45.4896C68.0653-45.065 68.1892-44.6333 68.3236-44.2087C68.4333-43.8725 68.589-43.5541 68.6633-43.2073C68.7695-42.719 68.8261-42.2129 68.8969-41.7104L69.0172-40.8293C69.0313-40.7055 69.0703-40.5852 69.0703-40.4613C69.0879-39.7713 69.0915-39.0817 69.1056-38.3917C69.1092-38.2572 69.1516-38.1228 69.1764-37.9883C69.3038-37.1497 69.2224-36.3252 69.0844-35.5043C68.9853-34.9169 68.8898-34.3295 68.7766-33.7457C68.6527-33.1194 68.5253-32.4931 68.3626-31.8844C68.2918-31.6155 68.1149-31.3961 68.0158-31.1343C67.8849-30.7875 67.7893-30.4195 67.6726-30.0621C67.6018-29.8428 67.531-29.6234 67.4461-29.4111C67.1064-28.5264 66.7419-27.6489 66.4306-26.7466C65.9918-25.4869 65.2983-24.4501 64.6436-23.3851C64.0881-22.4757 63.3238-21.8635 62.563-21.2549C62.3047-21.0461 62.0641-20.7949 61.8058-20.5826C61.5298-20.3561 61.2396-20.1544 60.9601-19.928C60.5815-19.6166 60.217-19.2734 59.8278-18.9832C59.5412-18.7638 59.2192-18.6117 58.9149-18.4277L58.745-18.3003C59.0033-18.2508 59.1979-18.1835 59.3961-18.1729C60.0224-18.1481 60.6523-18.1871 61.2467-17.8651C61.3483-17.8123 61.4385-17.7402 61.5121-17.6528C61.6926-17.4228 61.8624-17.1715 62.0429-16.9344C62.1596-16.7752 62.2906-16.6231 62.4179-16.4744C62.7859-16.0569 62.885-15.4908 62.9452-14.9175C62.9983-14.408 63.0584-13.8914 63.0443-13.3818C63.0262-13.0577 62.9445-12.7403 62.8036-12.4477C62.6267-12.0726 62.3932-11.7364 62.1703-11.3968C62.0535-11.2198 61.9084-11.0571 61.7032-11.2021C61.4873-11.3578 61.5546-11.5878 61.6112-11.8143C61.6501-11.97 61.6819-12.1328 61.7209-12.3274C61.6678-12.292 61.6183-12.2814 61.597-12.246C61.3564-11.8461 60.9743-11.7754 60.6381-11.6091C60.3621-11.4781 60.0613-11.6904 59.9021-12.0195C59.6756-12.4901 59.4386-12.9501 58.9609-13.0846C58.8901-13.1058 58.8441-13.2721 58.7875-13.3677C58.515-13.8454 58.2319-14.3124 57.9736-14.8008C57.8816-14.9671 57.8498-15.1794 57.7826-15.4023L57.6269-15.3598C58.0126-15.7597 57.6198-16.0781 57.6198-16.432C57.6198-16.7858 57.3544-16.9734 57.1987-17.2281C57.1032-17.3874 57.0289-17.5749 56.9333-17.7377C56.905-17.7872 56.8378-17.8332 56.7918-17.8297C56.6786-17.8261 56.5724-17.7801 56.4592-17.7731C56.4061-17.7695 56.353-17.8297 56.2964-17.8332C56.2469-17.8403 56.169-17.8332 56.1478-17.7978C55.985-17.4935 55.7232-17.49 55.4896-17.4652C54.7819-17.3909 54.0813-17.2954 53.3772-17.2918C52.7403-17.2918 52.0998-17.3803 51.4629-17.4688C50.8826-17.5523 50.3054-17.6559 49.7326-17.7801C49.5733-17.812 49.4141-17.9854 49.2619-17.9712C48.7418-17.9217 48.3419-18.3604 47.8607-18.4772C47.5706-18.548 47.4715-18.5126 47.5175-18.1517C47.5812-17.6563 47.6909-17.1751 47.7864-16.6903C47.8926-16.1666 47.9916-15.6429 48.1119-15.1298C48.2464-14.5672 48.395-14.0152 48.5472-13.4632C48.7913-12.5786 49.0426-11.7046 49.2796-10.82C49.3787-10.4591 49.4459-10.084 49.5132-9.71245C49.5521-9.50014 49.6547-9.39753 49.8139-9.43645C50.097-9.50722 50.3978-9.54968 50.6419-9.71599C51.2364-10.1194 51.8379-10.2786 52.489-10.0486C52.7792-9.94953 53.0587-9.81506 53.3383-9.6983C53.2887-9.39753 53.4161-9.1746 53.5966-9.16753C53.731-9.16753 53.7523-9.12153 53.7629-8.93753C53.7841-8.57306 53.9044-8.21922 53.9221-7.85476C53.9324-7.5593 53.9002-7.26383 53.8266-6.97722C53.7551-6.70476 53.6532-6.44114 53.5223-6.19168C53.4267-6.00414 53.3099-5.79183 53.1613-5.70691C52.9207-5.57245 52.857-5.36368 52.8252-5.07706C52.8149-4.93765 52.7633-4.8046 52.6766-4.69491C52.5421-4.55337 52.4147-4.63476 52.3581-4.84706C52.3404-4.91783 52.3404-4.99922 52.3333-5.07353L52.259-6.45706C52.2696-6.46768 52.3652-6.49245 52.3758-6.53845C52.4006-6.69414 52.4466-6.91706 52.3864-7.00906C52.2413-7.22137 52.0396-7.37706 51.8556-7.54691C51.8379-7.56106 51.7636-7.51153 51.7353-7.46906C51.7176-7.44076 51.7176-7.35583 51.7353-7.32753C51.9476-7.05506 51.8804-6.71891 51.8733-6.39337C51.8733-6.33676 51.891-6.25183 51.9264-6.22353C52.1564-6.03953 52.0892-5.73522 52.1281-5.47337C52.1741-5.17968 52.2449-4.88953 52.2873-4.59583C52.3192-4.38353 52.3333-4.17122 52.3369-3.95891C52.3369-3.9023 52.2413-3.78553 52.2166-3.79614C52.1398-3.83896 52.074-3.89982 52.0255-3.97306C52.0043-4.00137 52.0043-4.0686 52.0113-4.1146C52.0503-4.56045 51.7459-4.79399 51.6221-5.13368C51.5938-5.20445 51.5513-5.2646 51.5195-5.33537C51.2859-5.91214 51.0843-6.5243 50.8012-7.06214C50.6066-7.39193 50.3023-7.64245 49.9413-7.76983C49.5698-7.9326 49.5273-7.89722 49.4247-7.40183C49.3504-7.03737 49.1983-6.69414 49.1063-6.33322C49.0592-6.10853 49.0355-5.87994 49.0355-5.6503C49.0323-5.47266 49.068-5.2961 49.1402-5.13368C49.2124-4.97091 49.3189-4.82619 49.453-4.70906C49.4813-4.67722 49.5379-4.6666 49.5486-4.63122C49.6901-4.14291 50.1678-4.26322 50.3766-3.89876C50.3943-3.86337 50.4473-3.86337 50.4827-3.8386L50.695-3.66168C50.5818-3.5626 50.4579-3.36799 50.3518-3.38568C50.1253-3.4246 49.9095-3.56614 49.6866-3.66876C49.5663-3.72891 49.4389-3.78553 49.3292-3.87045C49.2513-3.9306 49.2089-4.05799 49.1346-4.12876C48.9159-4.33894 48.693-4.54417 48.4658-4.74445C48.2995-4.8966 48.2146-5.60783 48.3101-5.9546C48.4856-6.63505 48.5967-7.33036 48.6427-8.03168C48.6498-8.2086 48.5613-8.3926 48.5083-8.56599L48.1261-9.78676C48.0139-10.1498 47.9113-10.5153 47.8183-10.8837C47.7156-11.2977 47.6519-11.7258 47.5423-12.1328C47.3795-12.7343 47.1813-13.3252 47.0221-13.9303C46.9372-14.2452 46.923-14.5849 46.8487-14.8998C46.7921-15.1617 46.6824-15.4058 46.6223-15.6641C46.509-16.156 46.4099-16.6478 46.3179-17.1432C46.1902-17.8099 46.0674-18.4776 45.9499-19.146C45.8898-19.4821 45.8296-19.7688 45.4829-19.8148C45.3201-19.836 45.1715-20.0271 45.0087-20.1261C44.7327-20.2924 44.4426-20.4375 44.1736-20.618C44.025-20.7135 43.9012-20.8763 43.7596-20.9931C43.5296-21.1841 43.2855-21.3504 43.0626-21.5557C42.921-21.6795 42.829-21.8812 42.6875-22.0086C42.5474-22.1562 42.3736-22.2676 42.1815-22.3341C42.0116-22.3695 41.8206-22.2846 41.6401-22.2386C40.3348-21.9364 39.0425-21.5826 37.7655-21.1771C37.493-21.0921 37.2347-20.9152 36.9693-20.8126C36.4987-20.6286 36.0246-20.4588 35.5469-20.3031C35.0939-20.158 34.6375-20.0377 34.181-19.9103C33.7175-19.7794 33.2398-19.698 32.7869-19.5175C32.1358-19.2557 31.506-18.916 30.862-18.6258C30.5223-18.4701 30.172-18.3534 29.8287-18.2118L28.5089-17.6386C28.3059-17.5491 28.0845-17.5091 27.863-17.5218C27.6415-17.5349 27.4262-17.6004 27.2351-17.7129C26.7821-17.9606 26.7432-18.5621 27.0227-19.0469C27.2704-19.4786 27.6703-19.5069 27.9746-19.7723C28.3532-20.0978 28.7531-20.388 29.1423-20.6923C29.7261-21.1488 30.3171-21.5946 30.8903-22.0652C31.1557-22.2775 31.3927-22.5394 31.6475-22.7729C31.8421-22.9534 32.0438-23.1161 32.2314-23.2966C32.7904-23.8344 33.3424-24.3758 33.8979-24.9172C34.0324-25.0481 34.1704-25.1826 34.2978-25.3277C34.4039-25.4409 34.4004-25.5435 34.2518-25.5966C33.4592-25.8797 32.6631-26.1557 31.8704-26.4458C31.3266-26.6475 30.7863-26.8584 30.2498-27.0792C29.1635-27.5215 28.0595-27.8577 26.9166-27.9072C26.5557-27.9249 26.1912-27.8824 25.8303-27.8789C25.25-27.8718 24.6626-27.886 24.0823-27.8718C23.4701-27.8541 22.8615-27.8011 22.2494-27.7869C21.5842-27.7763 20.9225-27.8011 20.2608-27.7869C19.8432-27.7798 19.4292-27.7232 19.0152-27.7161C18.4066-27.7091 17.7945-27.7515 17.1859-27.7303C16.7117-27.7161 16.2376-27.6383 15.7634-27.61C15.682-27.6064 15.5723-27.6878 15.5157-27.7728C15.3989-27.9603 15.3919-28.162 15.5546-28.3318C15.7457-28.53 15.9368-28.7352 16.1385-28.9121C16.3048-29.0572 16.4569-29.1528 16.2729-29.45C16.1526-29.6411 16.2942-29.91 16.5136-29.9348C17.1752-30.0126 17.8405-30.0728 18.5022-30.1541C18.8383-30.1931 19.1745-30.2957 19.5106-30.3134C20.2112-30.3488 20.9119-30.3381 21.6125-30.3664C21.9769-30.3806 22.3414-30.4443 22.7094-30.4832C23.226-30.5398 23.7461-30.5823 24.2663-30.6531C24.6272-30.7026 24.9881-30.7946 25.3455-30.8689C25.9046-30.9821 26.4637-31.0741 27.0157-31.2228C27.7729-31.4244 28.5195-31.7111 29.2803-31.8809C29.9172-32.0224 30.4763-32.4117 31.0778-32.6452C31.4281-32.7761 31.7926-32.8434 32.1394-32.9743C32.6241-33.1512 33.1018-33.3564 33.5795-33.5581C33.8732-33.6855 34.1633-33.8235 34.4499-33.9721C34.7896-34.1491 35.1223-34.3437 35.4584-34.5241C35.8689-34.7471 36.2864-34.9452 36.6898-35.1823C37.1063-35.4339 37.5132-35.7007 37.9106-35.982C38.2007-36.1837 38.4767-36.4172 38.7598-36.6295C39.2552-36.9975 39.7647-37.3301 40.2389-37.73C40.6316-38.0626 40.9784-38.4837 41.357-38.8446C41.5339-39.0144 41.7498-39.1241 41.9409-39.2763C42.1532-39.4532 42.3619-39.6475 42.5707-39.8279C42.6663-39.9129 42.7689-39.9836 42.8609-40.0756C43.2324-40.4436 43.6075-40.8116 43.979-41.1938C44.3541-41.583 44.7186-41.9864 45.0936-42.3723C45.3201-42.6022 45.5643-42.8075 45.7943-43.0269C45.8296-43.0622 45.8438-43.1153 45.8438-43.1153ZM61.4166-15.0343C61.3104-15.3917 61.2396-15.7561 61.0804-16.1029C60.953-16.3824 60.7159-16.6372 60.5355-16.9061C60.2772-17.2883 59.3183-17.6209 58.7556-17.5218C58.7167-17.5148 58.6849-17.49 58.6459-17.4829C58.1576-17.3768 57.9029-17.1715 57.9949-16.7894C58.0126-16.7115 57.9276-16.6266 57.917-16.5417C57.9029-16.432 57.8639-16.3011 57.9276-16.2126C58.1753-15.8588 58.4195-15.4943 58.745-15.1758C59.1626-14.7689 59.6509-14.3974 60.125-14.0188C60.1604-13.9904 60.3338-13.9975 60.3833-14.0294C60.5815-14.1638 60.723-14.3903 60.9495-14.4469C61.4095-14.5637 61.4626-14.7512 61.4166-15.0343Z"/>
   <path class="monochrome-1 multicolor-1:tintColor hierarchical-1:tertiary SFSymbolsPreviewWireframe" d="M48.9411-84C55.3091-84.0013 61.615-82.7479 67.4985-80.3116C73.382-77.8752 78.7279-74.3036 83.2305-69.8009C87.7334-65.2983 91.305-59.9524 93.7418-54.0682C96.1779-48.1846 97.4312-41.8789 97.43-35.5124C97.43-8.72255 75.7254 13 48.9424 13C22.156 13 0.43-8.726 0.43-35.5124C0.43-62.2926 22.1539-84 48.9411-84ZM48.9424-70C29.8835-70 14.43-54.5582 14.43-35.5124C14.43-16.458 29.888-0.999999 48.9424-0.999999C67.9909-0.999999 83.43-16.4519 83.43-35.5138C83.4309-40.0428 82.5395-44.5276 80.8069-48.7121C79.0739-52.8969 76.5337-56.6989 73.3311-59.9013C70.1287-63.1038 66.3266-65.644 62.1422-67.3767C57.9578-69.1095 53.4729-70.0009 48.9424-70Z"/>
  </g>
  <g id="Regular-S" transform="matrix(1 0 0 1 1403.58 696)">
   <path class="monochrome-0 multicolor-0:tintColor hierarchical-0:primary SFSymbolsPreviewWireframe" d="M43.8338-46.1153C43.9471-46.1825 44.032-46.2108 44.0957-46.2745C44.3257-46.501 44.5451-46.7451 44.7786-46.9645C45.0758-47.2476 45.3801-47.5094 45.6844-47.7784C46.1798-48.2277 46.6823-48.6594 47.1635-49.123C47.5669-49.5122 47.942-49.9368 48.3312-50.3437C48.4232-50.4393 48.5258-50.5136 48.6072-50.6162C48.8797-50.9523 49.1521-51.2885 49.4034-51.6423C49.6652-52.0068 49.9589-52.3606 50.1464-52.7817C50.6843-53.9989 51.1726-55.2515 51.6821-56.4864C51.944-57.1163 52.1775-57.7744 52.496-58.3547C52.8781-59.0447 53.2851-59.7206 53.8512-60.216C54.2404-60.5557 54.5695-61.0263 54.9729-61.327C55.5001-61.7198 56.0698-62.0206 56.636-62.3319C56.9191-62.4912 57.2269-62.6079 57.5348-62.707C58.6564-63.0609 59.7746-63.1529 60.8963-62.6504C62.0569-62.1267 63.0795-61.3235 63.9854-60.2797C64.64-59.5224 65.2486-58.6944 65.9174-57.9584C66.3774-57.463 66.6711-56.8686 66.8621-56.168C66.8728-56.129 66.9223-56.0724 66.9506-56.076C67.1877-56.0901 67.4248-56.1467 67.6583-56.1397C67.9768-56.1255 68.3094-56.1149 68.6066-56.0017C69.0064-55.853 69.3851-55.616 69.7637-55.3895C69.8698-55.3259 69.9689-55.1843 70.0255-55.0499C70.0538-54.9791 70.0184-54.7845 69.9654-54.7491C69.7177-54.5722 69.47-54.3775 69.1975-54.2891C68.5323-54.0626 67.86-53.8043 67.1771-53.7159C66.2641-53.5991 66.2854-53.2735 66.0837-52.442C65.928-51.7874 65.8289-51.1009 65.7475-50.4216C65.6661-49.767 65.7228-49.1124 65.9244-48.4896C66.0554-48.065 66.1792-47.6333 66.3137-47.2087C66.4234-46.8725 66.5791-46.554 66.6534-46.2073C66.7595-45.719 66.8161-45.2128 66.8869-44.7104L67.0072-43.8293C67.0214-43.7054 67.0603-43.5851 67.0603-43.4613C67.078-42.7713 67.0815-42.0816 67.0957-41.3916C67.0992-41.2572 67.1417-41.1227 67.1664-40.9883C67.2938-40.1496 67.2124-39.3252 67.0744-38.5043C66.9754-37.9169 66.8798-37.3295 66.7666-36.7456C66.6428-36.1193 66.5154-35.493 66.3526-34.8844C66.2818-34.6155 66.1049-34.3961 66.0058-34.1343C65.8749-33.7875 65.7794-33.4195 65.6626-33.0621C65.5918-32.8427 65.5211-32.6233 65.4361-32.411C65.0964-31.5264 64.732-30.6489 64.4206-29.7466C63.9818-28.4869 63.2883-27.4501 62.6337-26.385C62.0781-25.4756 61.3138-24.8635 60.5531-24.2549C60.2948-24.0461 60.0541-23.7949 59.7958-23.5826C59.5198-23.3561 59.2297-23.1544 58.9501-22.9279C58.5715-22.6166 58.2071-22.2733 57.8178-21.9832C57.5312-21.7638 57.2092-21.6116 56.9049-21.4276L56.7351-21.3003C56.9934-21.2507 57.188-21.1835 57.3861-21.1729C58.0124-21.1481 58.6423-21.187 59.2368-20.865C59.3383-20.8123 59.4285-20.7401 59.5021-20.6527C59.6826-20.4227 59.8524-20.1715 60.0329-19.9344C60.1497-19.7752 60.2806-19.623 60.408-19.4744C60.776-19.0569 60.8751-18.4907 60.9352-17.9175C60.9883-17.4079 61.0484-16.8913 61.0343-16.3818C61.0162-16.0577 60.9345-15.7403 60.7937-15.4476C60.6168-15.0726 60.3832-14.7364 60.1603-14.3967C60.0435-14.2198 59.8984-14.057 59.6932-14.2021C59.4774-14.3578 59.5446-14.5878 59.6012-14.8143C59.6401-14.9699 59.672-15.1327 59.7109-15.3273C59.6578-15.2919 59.6083-15.2813 59.5871-15.2459C59.3464-14.8461 58.9643-14.7753 58.6281-14.609C58.3521-14.4781 58.0514-14.6904 57.8921-15.0195C57.6657-15.4901 57.4286-15.9501 56.9509-16.0846C56.8801-16.1058 56.8341-16.2721 56.7775-16.3676C56.5051-16.8453 56.222-17.3124 55.9637-17.8007C55.8717-17.967 55.8398-18.1793 55.7726-18.4023L55.6169-18.3598C56.0026-18.7596 55.6098-19.0781 55.6098-19.4319C55.6098-19.7858 55.3444-19.9733 55.1888-20.2281C55.0932-20.3873 55.0189-20.5749 54.9234-20.7376C54.8951-20.7872 54.8278-20.8332 54.7818-20.8296C54.6686-20.8261 54.5624-20.7801 54.4492-20.773C54.3961-20.7695 54.3431-20.8296 54.2864-20.8332C54.2369-20.8403 54.1591-20.8332 54.1378-20.7978C53.9751-20.4935 53.7132-20.4899 53.4797-20.4652C52.772-20.3909 52.0714-20.2953 51.3672-20.2918C50.7303-20.2918 50.0898-20.3803 49.4529-20.4687C48.8726-20.5522 48.2955-20.6559 47.7226-20.7801C47.5634-20.8119 47.4041-20.9853 47.252-20.9712C46.7318-20.9216 46.332-21.3604 45.8508-21.4772C45.5606-21.5479 45.4615-21.5126 45.5075-21.1516C45.5712-20.6563 45.6809-20.175 45.7764-19.6903C45.8826-19.1666 45.9817-18.6429 46.102-18.1298C46.2364-17.5672 46.3851-17.0152 46.5372-16.4632C46.7814-15.5786 47.0326-14.7046 47.2697-13.8199C47.3688-13.459 47.436-13.0839 47.5032-12.7124C47.5421-12.5001 47.6448-12.3975 47.804-12.4364C48.0871-12.5072 48.3878-12.5496 48.632-12.7159C49.2264-13.1193 49.828-13.2786 50.4791-13.0486C50.7692-12.9495 51.0488-12.815 51.3283-12.6983C51.2788-12.3975 51.4061-12.1746 51.5866-12.1675C51.7211-12.1675 51.7423-12.1215 51.7529-11.9375C51.7741-11.573 51.8944-11.2192 51.9121-10.8547C51.9224-10.5593 51.8902-10.2638 51.8166-9.97718C51.7451-9.70472 51.6432-9.4411 51.5123-9.19164C51.4168-9.0041 51.3-8.79179 51.1514-8.70687C50.9108-8.57241 50.8471-8.36364 50.8152-8.07703C50.805-7.93761 50.7533-7.80456 50.6666-7.69487C50.5321-7.55333 50.4048-7.63472 50.3481-7.84703C50.3304-7.91779 50.3304-7.99918 50.3234-8.07349L50.2491-9.45703C50.2597-9.46764 50.3552-9.49241 50.3658-9.53841C50.3906-9.6941 50.4366-9.91703 50.3764-10.009C50.2314-10.2213 50.0297-10.377 49.8457-10.5469C49.828-10.561 49.7537-10.5115 49.7254-10.469C49.7077-10.4407 49.7077-10.3558 49.7254-10.3275C49.9377-10.055 49.8704-9.71887 49.8634-9.39333C49.8634-9.33672 49.8811-9.25179 49.9164-9.22349C50.1464-9.03949 50.0792-8.73518 50.1181-8.47333C50.1641-8.17964 50.2349-7.88949 50.2774-7.59579C50.3092-7.38349 50.3234-7.17118 50.3269-6.95887C50.3269-6.90226 50.2314-6.78549 50.2066-6.7961C50.1298-6.83892 50.064-6.89978 50.0155-6.97303C49.9943-7.00133 49.9943-7.06856 50.0014-7.11456C50.0403-7.56041 49.736-7.79395 49.6121-8.13364C49.5838-8.20441 49.5414-8.26456 49.5095-8.33533C49.276-8.9121 49.0743-9.52426 48.7912-10.0621C48.5966-10.3919 48.2923-10.6424 47.9314-10.7698C47.5598-10.9326 47.5174-10.8972 47.4148-10.4018C47.3404-10.0373 47.1883-9.6941 47.0963-9.33318C47.0492-9.10849 47.0255-8.8799 47.0255-8.65026C47.0223-8.47263 47.0581-8.29606 47.1303-8.13364C47.2024-7.97087 47.309-7.82615 47.4431-7.70903C47.4714-7.67718 47.528-7.66656 47.5386-7.63118C47.6801-7.14287 48.1578-7.26318 48.3666-6.89872C48.3843-6.86333 48.4374-6.86333 48.4728-6.83856L48.6851-6.66164C48.5718-6.56256 48.448-6.36795 48.3418-6.38564C48.1154-6.42456 47.8995-6.5661 47.6766-6.66872C47.5563-6.72887 47.4289-6.78549 47.3192-6.87041C47.2414-6.93056 47.1989-7.05795 47.1246-7.12872C46.9059-7.3389 46.683-7.54413 46.4558-7.74441C46.2895-7.89656 46.2046-8.60779 46.3001-8.95456C46.4756-9.63501 46.5868-10.3303 46.6328-11.0316C46.6398-11.2086 46.5514-11.3926 46.4983-11.5659L46.1161-12.7867C46.004-13.1498 45.9014-13.5153 45.8083-13.8836C45.7057-14.2976 45.642-14.7258 45.5323-15.1327C45.3695-15.7343 45.1714-16.3252 45.0121-16.9303C44.9272-17.2452 44.9131-17.5849 44.8388-17.8998C44.7821-18.1616 44.6724-18.4058 44.6123-18.6641C44.4991-19.1559 44.4-19.6478 44.308-20.1432C44.1802-20.8098 44.0575-21.4775 43.94-22.1459C43.8798-22.4821 43.8197-22.7687 43.4729-22.8147C43.3101-22.8359 43.1615-23.027 42.9988-23.1261C42.7228-23.2924 42.4326-23.4375 42.1637-23.6179C42.0151-23.7135 41.8912-23.8763 41.7497-23.993C41.5197-24.1841 41.2755-24.3504 41.0526-24.5556C40.9111-24.6795 40.8191-24.8812 40.6775-25.0086C40.5374-25.1561 40.3637-25.2676 40.1715-25.3341C40.0017-25.3695 39.8106-25.2846 39.6301-25.2386C38.3248-24.9364 37.0326-24.5825 35.7555-24.177C35.4831-24.0921 35.2248-23.9152 34.9594-23.8126C34.4888-23.6286 34.0146-23.4587 33.5369-23.303C33.084-23.1579 32.6275-23.0376 32.1711-22.9103C31.7075-22.7793 31.2299-22.6979 30.7769-22.5175C30.1259-22.2556 29.496-21.9159 28.852-21.6258C28.5123-21.4701 28.162-21.3533 27.8188-21.2118L26.4989-20.6386C26.2959-20.549 26.0745-20.5091 25.853-20.5218C25.6315-20.5349 25.4163-20.6003 25.2251-20.7129C24.7722-20.9606 24.7332-21.5621 25.0128-22.0469C25.2605-22.4786 25.6603-22.5069 25.9646-22.7723C26.3432-23.0978 26.7431-23.3879 27.1323-23.6923C27.7162-24.1487 28.3071-24.5946 28.8803-25.0652C29.1457-25.2775 29.3828-25.5393 29.6376-25.7729C29.8322-25.9533 30.0339-26.1161 30.2214-26.2966C30.7805-26.8344 31.3325-27.3758 31.888-27.9172C32.0224-28.0481 32.1604-28.1826 32.2878-28.3276C32.394-28.4409 32.3904-28.5435 32.2418-28.5966C31.4492-28.8796 30.6531-29.1556 29.8605-29.4458C29.3166-29.6475 28.7763-29.8584 28.2399-30.0792C27.1536-30.5215 26.0496-30.8576 24.9066-30.9072C24.5457-30.9249 24.1812-30.8824 23.8203-30.8789C23.24-30.8718 22.6526-30.8859 22.0723-30.8718C21.4602-30.8541 20.8516-30.801 20.2394-30.7869C19.5742-30.7763 18.9125-30.801 18.2508-30.7869C17.8333-30.7798 17.4193-30.7232 17.0053-30.7161C16.3967-30.709 15.7845-30.7515 15.1759-30.7303C14.7017-30.7161 14.2276-30.6383 13.7534-30.6099C13.6721-30.6064 13.5624-30.6878 13.5057-30.7727C13.389-30.9603 13.3819-31.1619 13.5447-31.3318C13.7357-31.5299 13.9268-31.7352 14.1285-31.9121C14.2948-32.0572 14.447-32.1527 14.263-32.4499C14.1427-32.641 14.2842-32.9099 14.5036-32.9347C15.1653-33.0126 15.8305-33.0727 16.4922-33.1541C16.8284-33.193 17.1645-33.2956 17.5007-33.3133C18.2013-33.3487 18.9019-33.3381 19.6025-33.3664C19.967-33.3806 20.3314-33.4443 20.6994-33.4832C21.216-33.5398 21.7362-33.5823 22.2563-33.653C22.6172-33.7026 22.9782-33.7946 23.3356-33.8689C23.8946-33.9821 24.4537-34.0741 25.0057-34.2227C25.7629-34.4244 26.5096-34.711 27.2703-34.8809C27.9072-35.0224 28.4663-35.4116 29.0679-35.6452C29.4182-35.7761 29.7826-35.8433 30.1294-35.9743C30.6142-36.1512 31.0919-36.3564 31.5696-36.5581C31.8632-36.6855 32.1534-36.8235 32.44-36.9721C32.7797-37.149 33.1123-37.3436 33.4484-37.5241C33.8589-37.747 34.2764-37.9452 34.6798-38.1823C35.0963-38.4338 35.5032-38.7006 35.9006-38.9819C36.1908-39.1836 36.4668-39.4172 36.7498-39.6295C37.2452-39.9975 37.7548-40.3301 38.2289-40.7299C38.6217-41.0626 38.9684-41.4836 39.3471-41.8446C39.524-42.0144 39.7398-42.1241 39.9309-42.2763C40.1432-42.4532 40.352-42.6474 40.5608-42.8279C40.6563-42.9128 40.7589-42.9836 40.8509-43.0756C41.2224-43.4436 41.5975-43.8116 41.9691-44.1937C42.3441-44.583 42.7086-44.9864 43.0837-45.3722C43.3101-45.6022 43.5543-45.8074 43.7843-46.0268C43.8197-46.0622 43.8338-46.1153 43.8338-46.1153ZM59.4066-18.0343C59.3004-18.3916 59.2297-18.7561 59.0704-19.1029C58.9431-19.3824 58.706-19.6372 58.5255-19.9061C58.2672-20.2883 57.3083-20.6209 56.7457-20.5218C56.7068-20.5147 56.6749-20.4899 56.636-20.4829C56.1477-20.3767 55.8929-20.1715 55.9849-19.7893C56.0026-19.7115 55.9177-19.6266 55.9071-19.5416C55.8929-19.4319 55.854-19.301 55.9177-19.2126C56.1654-18.8587 56.4095-18.4943 56.7351-18.1758C57.1526-17.7689 57.6409-17.3973 58.1151-17.0187C58.1504-16.9904 58.3238-16.9975 58.3734-17.0293C58.5715-17.1638 58.7131-17.3903 58.9395-17.4469C59.3995-17.5636 59.4526-17.7512 59.4066-18.0343Z"/>
   <path class="monochrome-1 multicolor-1:tintColor hierarchical-1:tertiary SFSymbolsPreviewWireframe" d="M46.4321-81.8365C52.4502-81.8377 58.4096-80.6532 63.9698-78.3508C69.53-76.0483 74.5822-72.6729 78.8374-68.4176C83.0928-64.1624 86.4682-59.1103 88.771-53.5496C91.0733-47.9892 92.2577-42.03 92.2566-36.0127C92.2566-10.693 71.744 9.83658 46.4328 9.83658C21.1173 9.83658 0.5835-10.6972 0.5835-36.0127C0.5835-61.3211 21.1145-81.8365 46.4321-81.8365ZM46.4328-75.0865C24.8413-75.0865 7.3335-57.592 7.3335-36.0127C7.3335-14.4252 24.8452 3.08658 46.4328 3.08658C68.0148 3.08658 85.5066-14.4197 85.5066-36.0133C85.5076-41.1447 84.4976-46.226 82.5345-50.9672C80.571-55.7085 77.693-60.0162 74.0644-63.6446C70.4361-67.273 66.1283-70.1511 61.3873-72.1143C56.6463-74.0776 51.5649-75.0875 46.4328-75.0865Z"/>
  </g>
  <g id="Ultralight-S" transform="matrix(1 0 0 1 515.649 696)">
   <path class="monochrome-0 multicolor-0:tintColor hierarchical-0:primary SFSymbolsPreviewWireframe" d="M38.7648-46.1153C38.8781-46.1825 38.963-46.2108 39.0267-46.2745C39.2567-46.501 39.4761-46.7451 39.7096-46.9645C40.0068-47.2476 40.3111-47.5094 40.6154-47.7784C41.1108-48.2277 41.6133-48.6594 42.0945-49.123C42.4979-49.5122 42.873-49.9368 43.2622-50.3437C43.3542-50.4393 43.4568-50.5136 43.5382-50.6162C43.8107-50.9523 44.0831-51.2885 44.3344-51.6423C44.5962-52.0068 44.8899-52.3606 45.0774-52.7817C45.6153-53.9989 46.1036-55.2515 46.6131-56.4864C46.875-57.1163 47.1085-57.7744 47.427-58.3547C47.8091-59.0447 48.2161-59.7206 48.7822-60.216C49.1714-60.5557 49.5005-61.0263 49.9039-61.327C50.4311-61.7198 51.0008-62.0206 51.567-62.3319C51.8501-62.4912 52.1579-62.6079 52.4658-62.707C53.5874-63.0609 54.7056-63.1529 55.8273-62.6504C56.9879-62.1267 58.0105-61.3235 58.9164-60.2797C59.571-59.5224 60.1796-58.6944 60.8484-57.9584C61.3084-57.4631 61.6021-56.8686 61.7931-56.168C61.8038-56.1291 61.8533-56.0724 61.8816-56.076C62.1187-56.0901 62.3558-56.1467 62.5893-56.1397C62.9078-56.1255 63.2404-56.1149 63.5376-56.0017C63.9374-55.853 64.3161-55.616 64.6947-55.3895C64.8008-55.3259 64.8999-55.1843 64.9565-55.0499C64.9848-54.9791 64.9494-54.7845 64.8964-54.7491C64.6487-54.5722 64.401-54.3775 64.1285-54.2891C63.4633-54.0626 62.791-53.8043 62.1081-53.7159C61.1951-53.5991 61.2164-53.2735 61.0147-52.442C60.859-51.7874 60.7599-51.1009 60.6785-50.4216C60.5971-49.767 60.6538-49.1124 60.8554-48.4896C60.9864-48.065 61.1102-47.6333 61.2447-47.2087C61.3544-46.8725 61.5101-46.554 61.5844-46.2073C61.6905-45.719 61.7471-45.2128 61.8179-44.7104L61.9382-43.8293C61.9524-43.7054 61.9913-43.5851 61.9913-43.4613C62.009-42.7713 62.0125-42.0816 62.0267-41.3916C62.0302-41.2572 62.0727-41.1227 62.0974-40.9883C62.2248-40.1496 62.1434-39.3252 62.0054-38.5043C61.9064-37.9169 61.8108-37.3295 61.6976-36.7456C61.5738-36.1193 61.4464-35.493 61.2836-34.8844C61.2128-34.6155 61.0359-34.3961 60.9368-34.1343C60.8059-33.7875 60.7104-33.4195 60.5936-33.0621C60.5228-32.8427 60.4521-32.6233 60.3671-32.411C60.0274-31.5264 59.663-30.6489 59.3516-29.7466C58.9128-28.4869 58.2193-27.4501 57.5647-26.385C57.0091-25.4756 56.2448-24.8635 55.4841-24.2549C55.2258-24.0461 54.9851-23.7949 54.7268-23.5826C54.4508-23.3561 54.1607-23.1544 53.8811-22.9279C53.5025-22.6166 53.1381-22.2733 52.7488-21.9832C52.4622-21.7638 52.1402-21.6116 51.8359-21.4276L51.6661-21.3003C51.9244-21.2507 52.119-21.1835 52.3171-21.1729C52.9434-21.1481 53.5733-21.187 54.1678-20.865C54.2693-20.8123 54.3595-20.7401 54.4331-20.6527C54.6136-20.4227 54.7834-20.1715 54.9639-19.9344C55.0807-19.7752 55.2116-19.623 55.339-19.4744C55.707-19.0569 55.8061-18.4907 55.8662-17.9175C55.9193-17.4079 55.9794-16.8913 55.9653-16.3818C55.9472-16.0577 55.8655-15.7403 55.7247-15.4476C55.5478-15.0726 55.3142-14.7364 55.0913-14.3967C54.9745-14.2198 54.8294-14.057 54.6242-14.2021C54.4084-14.3578 54.4756-14.5878 54.5322-14.8143C54.5711-14.9699 54.603-15.1327 54.6419-15.3273C54.5888-15.2919 54.5393-15.2813 54.5181-15.2459C54.2774-14.8461 53.8953-14.7753 53.5591-14.609C53.2831-14.4781 52.9824-14.6904 52.8231-15.0195C52.5967-15.4901 52.3596-15.9501 51.8819-16.0846C51.8111-16.1058 51.7651-16.2721 51.7085-16.3676C51.4361-16.8453 51.153-17.3124 50.8947-17.8007C50.8027-17.967 50.7708-18.1793 50.7036-18.4023L50.5479-18.3598C50.9336-18.7596 50.5408-19.0781 50.5408-19.4319C50.5408-19.7858 50.2754-19.9733 50.1198-20.2281C50.0242-20.3873 49.9499-20.5749 49.8544-20.7376C49.8261-20.7872 49.7588-20.8332 49.7128-20.8296C49.5996-20.8261 49.4934-20.7801 49.3802-20.773C49.3271-20.7695 49.2741-20.8296 49.2174-20.8332C49.1679-20.8403 49.0901-20.8332 49.0688-20.7978C48.9061-20.4935 48.6442-20.4899 48.4107-20.4652C47.703-20.3909 47.0024-20.2953 46.2982-20.2918C45.6613-20.2918 45.0208-20.3803 44.3839-20.4687C43.8036-20.5522 43.2265-20.6559 42.6536-20.7801C42.4944-20.8119 42.3351-20.9853 42.183-20.9712C41.6628-20.9216 41.263-21.3604 40.7818-21.4772C40.4916-21.5479 40.3925-21.5126 40.4385-21.1516C40.5022-20.6563 40.6119-20.175 40.7074-19.6903C40.8136-19.1666 40.9127-18.6429 41.033-18.1298C41.1674-17.5672 41.3161-17.0152 41.4682-16.4632C41.7124-15.5786 41.9636-14.7046 42.2007-13.8199C42.2998-13.459 42.367-13.0839 42.4342-12.7124C42.4731-12.5001 42.5758-12.3975 42.735-12.4364C43.0181-12.5072 43.3188-12.5496 43.563-12.7159C44.1574-13.1193 44.759-13.2786 45.4101-13.0486C45.7002-12.9495 45.9798-12.815 46.2593-12.6983C46.2098-12.3975 46.3371-12.1746 46.5176-12.1675C46.6521-12.1675 46.6733-12.1215 46.6839-11.9375C46.7051-11.573 46.8254-11.2192 46.8431-10.8547C46.8534-10.5593 46.8212-10.2638 46.7476-9.97718C46.6761-9.70472 46.5742-9.4411 46.4433-9.19164C46.3478-9.0041 46.231-8.79179 46.0824-8.70687C45.8418-8.57241 45.7781-8.36364 45.7462-8.07703C45.736-7.93761 45.6843-7.80456 45.5976-7.69487C45.4631-7.55333 45.3358-7.63472 45.2791-7.84703C45.2614-7.91779 45.2614-7.99918 45.2544-8.07349L45.1801-9.45703C45.1907-9.46764 45.2862-9.49241 45.2968-9.53841C45.3216-9.6941 45.3676-9.91703 45.3074-10.009C45.1624-10.2213 44.9607-10.377 44.7767-10.5469C44.759-10.561 44.6847-10.5115 44.6564-10.469C44.6387-10.4407 44.6387-10.3558 44.6564-10.3275C44.8687-10.055 44.8014-9.71887 44.7944-9.39333C44.7944-9.33672 44.8121-9.25179 44.8474-9.22349C45.0774-9.03949 45.0102-8.73518 45.0491-8.47333C45.0951-8.17964 45.1659-7.88949 45.2084-7.59579C45.2402-7.38349 45.2544-7.17118 45.2579-6.95887C45.2579-6.90226 45.1624-6.78549 45.1376-6.7961C45.0608-6.83892 44.995-6.89978 44.9465-6.97303C44.9253-7.00133 44.9253-7.06856 44.9324-7.11456C44.9713-7.56041 44.667-7.79395 44.5431-8.13364C44.5148-8.20441 44.4724-8.26456 44.4405-8.33533C44.207-8.9121 44.0053-9.52426 43.7222-10.0621C43.5276-10.3919 43.2233-10.6424 42.8624-10.7698C42.4908-10.9326 42.4484-10.8972 42.3458-10.4018C42.2714-10.0373 42.1193-9.6941 42.0273-9.33318C41.9802-9.10849 41.9565-8.8799 41.9565-8.65026C41.9533-8.47263 41.9891-8.29606 42.0613-8.13364C42.1334-7.97087 42.24-7.82615 42.3741-7.70903C42.4024-7.67718 42.459-7.66656 42.4696-7.63118C42.6111-7.14287 43.0888-7.26318 43.2976-6.89872C43.3153-6.86333 43.3684-6.86333 43.4038-6.83856L43.6161-6.66164C43.5028-6.56256 43.379-6.36795 43.2728-6.38564C43.0464-6.42456 42.8305-6.5661 42.6076-6.66872C42.4873-6.72887 42.3599-6.78549 42.2502-6.87041C42.1724-6.93056 42.1299-7.05795 42.0556-7.12872C41.8369-7.3389 41.614-7.54413 41.3868-7.74441C41.2205-7.89656 41.1356-8.60779 41.2311-8.95456C41.4066-9.63501 41.5178-10.3303 41.5638-11.0316C41.5708-11.2086 41.4824-11.3926 41.4293-11.5659L41.0471-12.7867C40.935-13.1498 40.8324-13.5153 40.7393-13.8836C40.6367-14.2976 40.573-14.7258 40.4633-15.1327C40.3005-15.7343 40.1024-16.3252 39.9431-16.9303C39.8582-17.2452 39.8441-17.5849 39.7698-17.8998C39.7131-18.1616 39.6034-18.4058 39.5433-18.6641C39.4301-19.1559 39.331-19.6478 39.239-20.1432C39.1112-20.8098 38.9885-21.4775 38.871-22.1459C38.8108-22.4821 38.7507-22.7687 38.4039-22.8147C38.2411-22.8359 38.0925-23.027 37.9298-23.1261C37.6538-23.2924 37.3636-23.4375 37.0947-23.6179C36.9461-23.7135 36.8222-23.8763 36.6807-23.993C36.4507-24.1841 36.2065-24.3504 35.9836-24.5556C35.8421-24.6795 35.7501-24.8812 35.6085-25.0086C35.4684-25.1561 35.2947-25.2676 35.1025-25.3341C34.9327-25.3695 34.7416-25.2846 34.5611-25.2386C33.2558-24.9364 31.9636-24.5825 30.6865-24.177C30.4141-24.0921 30.1558-23.9152 29.8904-23.8126C29.4198-23.6286 28.9456-23.4587 28.4679-23.303C28.015-23.1579 27.5585-23.0376 27.1021-22.9103C26.6385-22.7793 26.1609-22.6979 25.7079-22.5175C25.0569-22.2556 24.427-21.9159 23.783-21.6258C23.4433-21.4701 23.093-21.3533 22.7498-21.2118L21.4299-20.6386C21.2269-20.549 21.0055-20.5091 20.784-20.5218C20.5625-20.5349 20.3473-20.6003 20.1561-20.7129C19.7032-20.9606 19.6642-21.5621 19.9438-22.0469C20.1915-22.4786 20.5913-22.5069 20.8956-22.7723C21.2742-23.0978 21.6741-23.3879 22.0633-23.6923C22.6472-24.1487 23.2381-24.5946 23.8113-25.0652C24.0767-25.2775 24.3138-25.5393 24.5686-25.7729C24.7632-25.9533 24.9649-26.1161 25.1524-26.2966C25.7115-26.8344 26.2635-27.3758 26.819-27.9172C26.9534-28.0481 27.0914-28.1826 27.2188-28.3276C27.325-28.4409 27.3214-28.5435 27.1728-28.5966C26.3802-28.8796 25.5841-29.1556 24.7915-29.4458C24.2476-29.6475 23.7073-29.8584 23.1709-30.0792C22.0846-30.5215 20.9806-30.8576 19.8376-30.9072C19.4767-30.9249 19.1122-30.8824 18.7513-30.8789C18.171-30.8718 17.5836-30.8859 17.0033-30.8718C16.3912-30.8541 15.7826-30.801 15.1704-30.7869C14.5052-30.7763 13.8435-30.801 13.1818-30.7869C12.7643-30.7798 12.3503-30.7232 11.9363-30.7161C11.3277-30.709 10.7155-30.7515 10.1069-30.7303C9.63275-30.7161 9.15859-30.6383 8.68444-30.6099C8.60305-30.6064 8.49336-30.6878 8.43675-30.7727C8.31998-30.9603 8.3129-31.1619 8.47567-31.3318C8.66675-31.5299 8.85782-31.7352 9.05951-31.9121C9.22582-32.0572 9.37798-32.1527 9.19398-32.4499C9.07367-32.641 9.21521-32.9099 9.43459-32.9347C10.0963-33.0126 10.7615-33.0727 11.4232-33.1541C11.7594-33.193 12.0955-33.2956 12.4317-33.3133C13.1323-33.3487 13.8329-33.3381 14.5335-33.3664C14.898-33.3806 15.2624-33.4443 15.6304-33.4832C16.147-33.5398 16.6672-33.5823 17.1873-33.653C17.5482-33.7026 17.9092-33.7946 18.2666-33.8689C18.8256-33.9821 19.3847-34.0741 19.9367-34.2227C20.6939-34.4244 21.4406-34.711 22.2013-34.8809C22.8382-35.0224 23.3973-35.4116 23.9989-35.6452C24.3492-35.7761 24.7136-35.8433 25.0604-35.9743C25.5452-36.1512 26.0229-36.3564 26.5006-36.5581C26.7942-36.6855 27.0844-36.8235 27.371-36.9721C27.7107-37.149 28.0433-37.3436 28.3794-37.5241C28.7899-37.747 29.2074-37.9452 29.6108-38.1823C30.0273-38.4338 30.4342-38.7006 30.8316-38.9819C31.1218-39.1836 31.3978-39.4172 31.6808-39.6295C32.1762-39.9975 32.6858-40.3301 33.1599-40.7299C33.5527-41.0626 33.8994-41.4836 34.2781-41.8446C34.455-42.0144 34.6708-42.1241 34.8619-42.2763C35.0742-42.4532 35.283-42.6474 35.4918-42.8279C35.5873-42.9128 35.6899-42.9836 35.7819-43.0756C36.1534-43.4436 36.5285-43.8116 36.9001-44.1937C37.2751-44.583 37.6396-44.9864 38.0147-45.3722C38.2411-45.6022 38.4853-45.8074 38.7153-46.0268C38.7507-46.0622 38.7648-46.1153 38.7648-46.1153ZM54.3376-18.0343C54.2314-18.3916 54.1607-18.7561 54.0014-19.1029C53.8741-19.3824 53.637-19.6372 53.4565-19.9061C53.1982-20.2883 52.2393-20.6209 51.6767-20.5218C51.6378-20.5147 51.6059-20.4899 51.567-20.4829C51.0787-20.3767 50.8239-20.1715 50.9159-19.7893C50.9336-19.7115 50.8487-19.6266 50.8381-19.5416C50.8239-19.4319 50.785-19.301 50.8487-19.2126C51.0964-18.8587 51.3405-18.4943 51.6661-18.1758C52.0836-17.7689 52.5719-17.3973 53.0461-17.0187C53.0814-16.9904 53.2548-16.9975 53.3044-17.0293C53.5025-17.1638 53.6441-17.3903 53.8705-17.4469C54.3305-17.5636 54.3836-17.7512 54.3376-18.0343Z"/>
   <path class="monochrome-1 multicolor-1:tintColor hierarchical-1:tertiary SFSymbolsPreviewWireframe" d="M44.3636-80.5865C50.0861-80.5876 55.7528-79.4613 61.04-77.272C66.3271-75.0826 71.1312-71.8729 75.1774-67.8265C79.2239-63.7803 82.4335-58.9764 84.6232-53.6889C86.8124-48.4015 87.9387-42.7349 87.9376-37.0127C87.9376-12.9352 68.432 6.58658 44.3638 6.58658C20.2909 6.58658 0.7645-12.9399 0.7645-37.0127C0.7645-61.0781 20.2877-80.5865 44.3636-80.5865ZM44.3638-78.3365C21.53-78.3365 3.0145-59.8351 3.0145-37.0127C3.0145-14.1825 21.5336 4.33658 44.3638 4.33658C67.1889 4.33658 85.6876-14.1774 85.6876-37.0129C85.6886-42.4398 84.6205-47.8138 82.5443-52.828C80.4678-57.8425 77.4239-62.3983 73.5865-66.2355C69.7491-70.073 65.1932-73.1168 60.1791-75.1931C55.1651-77.2695 49.791-78.3376 44.3638-78.3365Z"/>
  </g>
 </g>
</svg>
