<?xml version="1.0" encoding="UTF-8"?>
<!--Generator: Apple Native CoreSVG 341-->
<!DOCTYPE svg
PUBLIC "-//W3C//DTD SVG 1.1//EN"
       "http://www.w3.org/Graphics/SVG/1.1/DTD/svg11.dtd">
<svg version="1.1" xmlns="http://www.w3.org/2000/svg" xmlns:xlink="http://www.w3.org/1999/xlink" viewBox="0 0 3300 2200">
 <!--glyph: "", point size: 100.0, font version: "20.0d10e1", template writer version: "138.0.0"-->
 <style>.monochrome-0 {-sfsymbols-motion-group:1;-sfsymbols-layer-tags:-4654ebb1c7488f0f}
.monochrome-1 {-sfsymbols-motion-group:0;-sfsymbols-layer-tags:-4654ebb1c7488f0f}

.multicolor-0:tintColor {-sfsymbols-motion-group:1;-sfsymbols-layer-tags:-4654ebb1c7488f0f}
.multicolor-1:tintColor {-sfsymbols-motion-group:0;-sfsymbols-layer-tags:-4654ebb1c7488f0f}

.hierarchical-0:primary {-sfsymbols-motion-group:1;-sfsymbols-layer-tags:-4654ebb1c7488f0f}
.hierarchical-1:tertiary {-sfsymbols-motion-group:0;-sfsymbols-layer-tags:-4654ebb1c7488f0f}

.SFSymbolsPreviewWireframe {fill:none;opacity:1.0;stroke:black;stroke-width:0.5}
</style>
 <g id="Notes">
  <rect height="2200" id="artboard" style="fill:white;opacity:1" width="3300" x="0" y="0"/>
  <line style="fill:none;stroke:black;opacity:1;stroke-width:0.5;" x1="263" x2="3036" y1="292" y2="292"/>
  <text style="stroke:none;fill:black;font-family:sans-serif;font-size:13;font-weight:bold;" transform="matrix(1 0 0 1 263 322)">Weight/Scale Variations</text>
  <text style="stroke:none;fill:black;font-family:sans-serif;font-size:13;text-anchor:middle;" transform="matrix(1 0 0 1 559.711 322)">Ultralight</text>
  <text style="stroke:none;fill:black;font-family:sans-serif;font-size:13;text-anchor:middle;" transform="matrix(1 0 0 1 856.422 322)">Thin</text>
  <text style="stroke:none;fill:black;font-family:sans-serif;font-size:13;text-anchor:middle;" transform="matrix(1 0 0 1 1153.13 322)">Light</text>
  <text style="stroke:none;fill:black;font-family:sans-serif;font-size:13;text-anchor:middle;" transform="matrix(1 0 0 1 1449.84 322)">Regular</text>
  <text style="stroke:none;fill:black;font-family:sans-serif;font-size:13;text-anchor:middle;" transform="matrix(1 0 0 1 1746.56 322)">Medium</text>
  <text style="stroke:none;fill:black;font-family:sans-serif;font-size:13;text-anchor:middle;" transform="matrix(1 0 0 1 2043.27 322)">Semibold</text>
  <text style="stroke:none;fill:black;font-family:sans-serif;font-size:13;text-anchor:middle;" transform="matrix(1 0 0 1 2339.98 322)">Bold</text>
  <text style="stroke:none;fill:black;font-family:sans-serif;font-size:13;text-anchor:middle;" transform="matrix(1 0 0 1 2636.69 322)">Heavy</text>
  <text style="stroke:none;fill:black;font-family:sans-serif;font-size:13;text-anchor:middle;" transform="matrix(1 0 0 1 2933.4 322)">Black</text>
  <line style="fill:none;stroke:black;opacity:1;stroke-width:0.5;" x1="263" x2="3036" y1="1903" y2="1903"/>
  <g transform="matrix(0.2 0 0 0.2 263 1933)">
   <path d="m46.2402 4.15039c21.7773 0 39.4531-17.627 39.4531-39.4043s-17.6758-39.4043-39.4531-39.4043c-21.7285 0-39.4043 17.627-39.4043 39.4043s17.6758 39.4043 39.4043 39.4043Zm0-7.42188c-17.6758 0-31.9336-14.3066-31.9336-31.9824s14.2578-31.9824 31.9336-31.9824 31.9824 14.3066 31.9824 31.9824-14.3066 31.9824-31.9824 31.9824Zm-17.9688-31.9824c0 2.14844 1.51367 3.61328 3.75977 3.61328h10.498v10.5957c0 2.19727 1.46484 3.71094 3.61328 3.71094 2.24609 0 3.71094-1.51367 3.71094-3.71094v-10.5957h10.5957c2.19727 0 3.71094-1.46484 3.71094-3.61328 0-2.19727-1.51367-3.71094-3.71094-3.71094h-10.5957v-10.5469c0-2.24609-1.46484-3.75977-3.71094-3.75977-2.14844 0-3.61328 1.51367-3.61328 3.75977v10.5469h-10.498c-2.24609 0-3.75977 1.51367-3.75977 3.71094Z"/>
  </g>
  <g transform="matrix(0.2 0 0 0.2 281.506 1933)">
   <path d="m58.5449 14.5508c27.4902 0 49.8047-22.3145 49.8047-49.8047s-22.3145-49.8047-49.8047-49.8047-49.8047 22.3145-49.8047 49.8047 22.3145 49.8047 49.8047 49.8047Zm0-8.30078c-22.9492 0-41.5039-18.5547-41.5039-41.5039s18.5547-41.5039 41.5039-41.5039 41.5039 18.5547 41.5039 41.5039-18.5547 41.5039-41.5039 41.5039Zm-22.6562-41.5039c0 2.39258 1.66016 4.00391 4.15039 4.00391h14.3555v14.4043c0 2.44141 1.66016 4.15039 4.05273 4.15039 2.44141 0 4.15039-1.66016 4.15039-4.15039v-14.4043h14.4043c2.44141 0 4.15039-1.61133 4.15039-4.00391 0-2.44141-1.70898-4.15039-4.15039-4.15039h-14.4043v-14.3555c0-2.49023-1.70898-4.19922-4.15039-4.19922-2.39258 0-4.05273 1.70898-4.05273 4.19922v14.3555h-14.3555c-2.49023 0-4.15039 1.70898-4.15039 4.15039Z"/>
  </g>
  <g transform="matrix(0.2 0 0 0.2 304.924 1933)">
   <path d="m74.8535 28.3203c35.1074 0 63.623-28.4668 63.623-63.5742s-28.5156-63.623-63.623-63.623-63.5742 28.5156-63.5742 63.623 28.4668 63.5742 63.5742 63.5742Zm0-9.08203c-30.127 0-54.4922-24.3652-54.4922-54.4922s24.3652-54.4922 54.4922-54.4922 54.4922 24.3652 54.4922 54.4922-24.3652 54.4922-54.4922 54.4922Zm-28.8574-54.4922c0 2.58789 1.85547 4.39453 4.58984 4.39453h19.7266v19.7754c0 2.68555 1.85547 4.58984 4.44336 4.58984 2.68555 0 4.54102-1.85547 4.54102-4.58984v-19.7754h19.7754c2.68555 0 4.58984-1.80664 4.58984-4.39453 0-2.73438-1.85547-4.58984-4.58984-4.58984h-19.7754v-19.7266c0-2.73438-1.85547-4.63867-4.54102-4.63867-2.58789 0-4.44336 1.9043-4.44336 4.63867v19.7266h-19.7266c-2.73438 0-4.58984 1.85547-4.58984 4.58984Z"/>
  </g>
  <text style="stroke:none;fill:black;font-family:sans-serif;font-size:13;font-weight:bold;" transform="matrix(1 0 0 1 263 1953)">Design Variations</text>
  <text style="stroke:none;fill:black;font-family:sans-serif;font-size:13;" transform="matrix(1 0 0 1 263 1971)">Symbols are supported in up to nine weights and three scales.</text>
  <text style="stroke:none;fill:black;font-family:sans-serif;font-size:13;" transform="matrix(1 0 0 1 263 1989)">For optimal layout with text and other symbols, vertically align</text>
  <text style="stroke:none;fill:black;font-family:sans-serif;font-size:13;" transform="matrix(1 0 0 1 263 2007)">symbols with the adjacent text.</text>
  <line style="fill:none;stroke:#00AEEF;stroke-width:0.5;opacity:1.0;" x1="776" x2="776" y1="1919" y2="1933"/>
  <g transform="matrix(0.2 0 0 0.2 776 1933)">
   <path d="m16.5527 0.78125c2.58789 0 3.85742-0.976562 4.78516-3.71094l6.29883-17.2363h28.8086l6.29883 17.2363c0.927734 2.73438 2.19727 3.71094 4.73633 3.71094 2.58789 0 4.24805-1.5625 4.24805-4.00391 0-0.830078-0.146484-1.61133-0.537109-2.63672l-22.9004-60.9863c-1.12305-2.97852-3.125-4.49219-6.25-4.49219-3.02734 0-5.07812 1.46484-6.15234 4.44336l-22.9004 61.084c-0.390625 1.02539-0.537109 1.80664-0.537109 2.63672 0 2.44141 1.5625 3.95508 4.10156 3.95508Zm13.4766-28.3691 11.8652-32.8613h0.244141l11.8652 32.8613Z"/>
  </g>
  <line style="fill:none;stroke:#00AEEF;stroke-width:0.5;opacity:1.0;" x1="792.836" x2="792.836" y1="1919" y2="1933"/>
  <text style="stroke:none;fill:black;font-family:sans-serif;font-size:13;font-weight:bold;" transform="matrix(1 0 0 1 776 1953)">Margins</text>
  <text style="stroke:none;fill:black;font-family:sans-serif;font-size:13;" transform="matrix(1 0 0 1 776 1971)">Leading and trailing margins on the left and right side of each symbol</text>
  <text style="stroke:none;fill:black;font-family:sans-serif;font-size:13;" transform="matrix(1 0 0 1 776 1989)">can be adjusted by modifying the x-location of the margin guidelines.</text>
  <text style="stroke:none;fill:black;font-family:sans-serif;font-size:13;" transform="matrix(1 0 0 1 776 2007)">Modifications are automatically applied proportionally to all</text>
  <text style="stroke:none;fill:black;font-family:sans-serif;font-size:13;" transform="matrix(1 0 0 1 776 2025)">scales and weights.</text>
  <g transform="matrix(0.2 0 0 0.2 1289 1933)">
   <path d="m14.209 9.32617 8.49609 8.54492c4.29688 4.3457 9.22852 4.05273 13.8672-1.07422l53.4668-58.9355-4.83398-4.88281-53.0762 58.3984c-1.75781 2.00195-3.41797 2.49023-5.76172 0.146484l-5.85938-5.81055c-2.34375-2.29492-1.80664-4.00391 0.195312-5.81055l57.373-54.0039-4.88281-4.83398-57.959 54.4434c-4.93164 4.58984-5.32227 9.47266-1.02539 13.8184Zm32.0801-90.9668c-2.09961 2.05078-2.24609 4.93164-1.07422 6.88477 1.17188 1.80664 3.4668 2.97852 6.68945 2.14844 7.32422-1.70898 14.9414-2.00195 22.0703 2.68555l-2.92969 7.27539c-1.70898 4.15039-0.830078 7.08008 1.85547 9.81445l11.4746 11.5723c2.44141 2.44141 4.49219 2.53906 7.32422 2.05078l5.32227-0.976562 3.32031 3.36914-0.195312 2.7832c-0.195312 2.49023 0.439453 4.39453 2.88086 6.78711l3.80859 3.71094c2.39258 2.39258 5.46875 2.53906 7.8125 0.195312l14.5508-14.5996c2.34375-2.34375 2.24609-5.32227-0.146484-7.71484l-3.85742-3.80859c-2.39258-2.39258-4.24805-3.17383-6.64062-2.97852l-2.88086 0.244141-3.22266-3.17383 1.2207-5.61523c0.634766-2.83203-0.146484-5.0293-3.07617-7.95898l-10.9863-10.9375c-16.6992-16.6016-38.8672-16.2109-53.3203-1.75781Zm7.4707 1.85547c12.1582-8.88672 28.6133-7.37305 39.7461 3.75977l12.1582 12.0605c1.17188 1.17188 1.36719 2.09961 1.02539 3.80859l-1.61133 7.42188 7.51953 7.42188 4.93164-0.292969c1.26953-0.0488281 1.66016 0.0488281 2.63672 1.02539l2.88086 2.88086-12.207 12.207-2.88086-2.88086c-0.976562-0.976562-1.12305-1.36719-1.07422-2.68555l0.341797-4.88281-7.4707-7.42188-7.61719 1.26953c-1.61133 0.341797-2.34375 0.195312-3.56445-0.976562l-10.0098-10.0098c-1.26953-1.17188-1.41602-2.00195-0.634766-3.85742l4.39453-10.4492c-7.8125-7.27539-17.9688-10.4004-28.125-7.42188-0.78125 0.195312-1.07422-0.439453-0.439453-0.976562Z"/>
  </g>
  <text style="stroke:none;fill:black;font-family:sans-serif;font-size:13;font-weight:bold;" transform="matrix(1 0 0 1 1289 1953)">Exporting</text>
  <text style="stroke:none;fill:black;font-family:sans-serif;font-size:13;" transform="matrix(1 0 0 1 1289 1971)">Symbols should be outlined when exporting to ensure the</text>
  <text style="stroke:none;fill:black;font-family:sans-serif;font-size:13;" transform="matrix(1 0 0 1 1289 1989)">design is preserved when submitting to Xcode.</text>
  <text id="template-version" style="stroke:none;fill:black;font-family:sans-serif;font-size:13;text-anchor:end;" transform="matrix(1 0 0 1 3036 1933)">Template v.6.0</text>
  <text style="stroke:none;fill:black;font-family:sans-serif;font-size:13;text-anchor:end;" transform="matrix(1 0 0 1 3036 1951)">Requires Xcode 16 or greater</text>
  <text id="descriptive-name" style="stroke:none;fill:black;font-family:sans-serif;font-size:13;text-anchor:end;" transform="matrix(1 0 0 1 3036 1969)">Generated from filtervogelgruppe-6</text>
  <text style="stroke:none;fill:black;font-family:sans-serif;font-size:13;text-anchor:end;" transform="matrix(1 0 0 1 3036 1987)">Typeset at 100.0 points</text>
  <text style="stroke:none;fill:black;font-family:sans-serif;font-size:13;" transform="matrix(1 0 0 1 263 726)">Small</text>
  <text style="stroke:none;fill:black;font-family:sans-serif;font-size:13;" transform="matrix(1 0 0 1 263 1156)">Medium</text>
  <text style="stroke:none;fill:black;font-family:sans-serif;font-size:13;" transform="matrix(1 0 0 1 263 1586)">Large</text>
 </g>
 <g id="Guides">
  <g id="H-reference" style="fill:#27AAE1;stroke:none;" transform="matrix(1 0 0 1 339 696)">
   <path d="M0.993654 0L3.63775 0L29.3281-67.1323L30.0303-67.1323L30.0303-70.459L28.1226-70.459ZM11.6885-24.4799L46.9815-24.4799L46.2315-26.7285L12.4385-26.7285ZM55.1196 0L57.7637 0L30.6382-70.459L29.4326-70.459L29.4326-67.1323Z"/>
  </g>
  <line id="Baseline-S" style="fill:none;stroke:#27AAE1;opacity:1;stroke-width:0.5;" x1="263" x2="3036" y1="696" y2="696"/>
  <line id="Capline-S" style="fill:none;stroke:#27AAE1;opacity:1;stroke-width:0.5;" x1="263" x2="3036" y1="625.541" y2="625.541"/>
  <g id="H-reference" style="fill:#27AAE1;stroke:none;" transform="matrix(1 0 0 1 339 1126)">
   <path d="M0.993654 0L3.63775 0L29.3281-67.1323L30.0303-67.1323L30.0303-70.459L28.1226-70.459ZM11.6885-24.4799L46.9815-24.4799L46.2315-26.7285L12.4385-26.7285ZM55.1196 0L57.7637 0L30.6382-70.459L29.4326-70.459L29.4326-67.1323Z"/>
  </g>
  <line id="Baseline-M" style="fill:none;stroke:#27AAE1;opacity:1;stroke-width:0.5;" x1="263" x2="3036" y1="1126" y2="1126"/>
  <line id="Capline-M" style="fill:none;stroke:#27AAE1;opacity:1;stroke-width:0.5;" x1="263" x2="3036" y1="1055.54" y2="1055.54"/>
  <g id="H-reference" style="fill:#27AAE1;stroke:none;" transform="matrix(1 0 0 1 339 1556)">
   <path d="M0.993654 0L3.63775 0L29.3281-67.1323L30.0303-67.1323L30.0303-70.459L28.1226-70.459ZM11.6885-24.4799L46.9815-24.4799L46.2315-26.7285L12.4385-26.7285ZM55.1196 0L57.7637 0L30.6382-70.459L29.4326-70.459L29.4326-67.1323Z"/>
  </g>
  <line id="Baseline-L" style="fill:none;stroke:#27AAE1;opacity:1;stroke-width:0.5;" x1="263" x2="3036" y1="1556" y2="1556"/>
  <line id="Capline-L" style="fill:none;stroke:#27AAE1;opacity:1;stroke-width:0.5;" x1="263" x2="3036" y1="1485.54" y2="1485.54"/>
  <line id="right-margin-Black-S" style="fill:none;stroke:#00AEEF;stroke-width:0.5;opacity:1.0;" x1="2982.23" x2="2982.23" y1="600.785" y2="720.121"/>
  <line id="left-margin-Black-S" style="fill:none;stroke:#00AEEF;stroke-width:0.5;opacity:1.0;" x1="2884.57" x2="2884.57" y1="600.785" y2="720.121"/>
  <line id="right-margin-Regular-S" style="fill:none;stroke:#00AEEF;stroke-width:0.5;opacity:1.0;" x1="1496.11" x2="1496.11" y1="600.785" y2="720.121"/>
  <line id="left-margin-Regular-S" style="fill:none;stroke:#00AEEF;stroke-width:0.5;opacity:1.0;" x1="1403.58" x2="1403.58" y1="600.785" y2="720.121"/>
  <line id="right-margin-Ultralight-S" style="fill:none;stroke:#00AEEF;stroke-width:0.5;opacity:1.0;" x1="603.773" x2="603.773" y1="600.785" y2="720.121"/>
  <line id="left-margin-Ultralight-S" style="fill:none;stroke:#00AEEF;stroke-width:0.5;opacity:1.0;" x1="515.649" x2="515.649" y1="600.785" y2="720.121"/>
 </g>
 <g id="Symbols">
  <g id="Black-S" transform="matrix(1 0 0 1 2884.57 696)">
   <path class="monochrome-0 multicolor-0:tintColor hierarchical-0:primary SFSymbolsPreviewWireframe" d="M21.2741-52.8531L21.2665-52.876C21.2704-53.4399 21.3237-53.4857 22.0668-53.5886C22.2382-53.6152 22.4135-53.6076 22.585-53.6267C22.6727-53.6381 22.7565-53.6876 22.8517-53.7219C22.8822-53.6267 22.9356-53.6267 23.0728-53.6991C23.1871-53.76 23.3548-53.7067 23.4957-53.7143C23.8768-53.741 24.2578-53.7905 24.6389-53.7905C25.3744-53.7981 26.1098-53.7829 26.8415-53.7676C27.1692-53.76 27.4931-53.7181 27.8208-53.7257C27.9046-53.7257 28.0189-53.8248 28.0608-53.9087C28.2019-54.1754 28.3161-54.4535 28.4381-54.7317C28.541-54.9718 28.621-55.2271 28.743-55.4557C28.8763-55.6958 29.0287-55.9206 29.2002-56.1264C29.3109-56.2509 29.4475-56.3498 29.6003-56.416C29.9623-56.5798 30.3243-56.759 30.7054-56.8618C31.1817-56.9952 31.6809-57.0752 32.1725-57.1552C32.3249-57.1819 32.4926-57.1362 32.6564-57.1248C32.8089-57.1095 32.9994-57.1438 33.1213-57.0714C33.6396-56.7666 34.2264-56.8047 34.7789-56.6942C35.0342-56.6446 35.2934-56.6103 35.5524-56.576C35.9451-56.5189 36.3414-56.4998 36.73-56.416C37.3779-56.2826 38.0141-56.1111 38.6581-55.9511C39.1117-55.8406 39.5002-55.5891 39.8014-55.2538C40.049-54.9474 40.2447-54.6024 40.3806-54.2325C40.4836-53.9848 40.571-53.7829 40.8148-53.6267C41.4818-53.1961 42.2057-52.8569 42.7963-52.3082C42.9488-52.1634 43.0974-52.0072 43.2422-51.8509C43.4594-51.6299 43.6728-51.4013 43.8862-51.1765C43.97-51.0888 44.0387-50.986 44.1377-50.9097C44.3932-50.7039 44.6409-50.4791 44.9229-50.3153C45.1324-50.1895 45.3992-50.1629 45.6239-50.0638C46.0506-49.8732 46.4699-49.6637 46.8815-49.4388C47.1483-49.2979 47.3921-49.1188 47.6436-48.9511C47.6967-48.913 47.7388-48.8673 47.7884-48.8253L48.7183-47.987C48.7296-47.9718 48.7487-47.9489 48.7639-47.9527C49.0229-47.9794 49.1829-47.7812 49.3467-47.6479C49.5622-47.458 49.7494-47.2386 49.9033-46.9963C50.0328-46.7981 50.0937-46.5542 50.2005-46.3371C50.2462-46.238 50.3644-46.1541 50.3757-46.0589C50.4213-45.5864 50.6959-45.2129 50.8636-44.7938C50.9663-44.5423 51.031-44.2717 51.1418-44.0202C51.2522-43.7649 51.4047-43.5249 51.5151-43.2696C51.698-42.8582 51.8618-42.435 52.0296-42.0121C52.1973-41.5776 52.3724-41.1431 52.5211-40.6972C52.6354-40.343 52.6888-39.9658 52.807-39.6113C52.9517-39.1845 53.1498-38.773 53.3024-38.3541C53.4358-37.973 53.5384-37.5802 53.6643-37.1956C53.7673-36.8867 53.8816-36.582 53.9881-36.2735L54.4835-34.7756C54.6321-34.3262 54.7733-33.8726 54.9332-33.4268C55.0857-32.9961 55.2382-32.562 55.4364-32.1504C55.6498-31.6968 55.9127-31.274 56.1526-30.832C56.2134-30.7174 56.2782-30.6109 56.3355-30.4966C56.6936-29.7609 57.0404-29.0182 57.4176-28.2939C57.8139-27.532 58.2445-26.7925 58.6525-26.042C58.8811-25.6266 59.0831-25.1998 59.323-24.7922C59.5516-24.4111 59.8145-24.053 60.0509-23.6755C60.2795-23.3135 60.4776-22.9324 60.7214-22.5782C61.133-21.9759 61.5332-21.3588 61.9981-20.7987C62.4401-20.2651 62.9241-19.7658 63.4956-19.3621C63.808-19.1335 64.1053-18.878 64.3834-18.6038C65.0391-17.9637 65.6792-17.308 66.3154-16.6488C66.6891-16.2603 67.0546-15.8601 67.3861-15.4372C67.6529-15.1057 67.878-14.7359 68.0875-14.3665C68.1904-14.174 68.2538-13.9627 68.2743-13.7451C68.2725-13.594 68.2318-13.4458 68.1561-13.3149C68.0531-13.0976 67.9006-12.903 67.8093-12.6822C67.7665-12.5643 67.7718-12.4341 67.8246-12.3202C67.958-12.0725 68.1179-11.84 68.2817-11.6153C68.5942-11.1882 68.9183-10.7693 69.2343-10.3425C69.3677-10.1635 69.4859-9.97667 69.627-9.80152C69.8747-9.48872 70.149-9.19148 70.3889-8.87161C70.5534-8.66319 70.6868-8.43213 70.7852-8.1855C70.8347-8.05245 70.7852-7.83519 70.6978-7.7209C70.6366-7.63704 70.4197-7.59882 70.3089-7.64447C70.0566-7.75664 69.8167-7.89464 69.5927-8.05599C69.0372-8.46539 68.5319-8.93848 68.0875-9.46607C67.7559-9.83195 67.3748-10.1444 67.0358-10.4947C66.8186-10.7236 66.647-10.9979 66.4375-11.2265C66.2545-11.4285 66.0603-11.638 65.8317-11.7714C65.6792-11.8591 65.4506-11.8361 65.2524-11.8322C64.9588-11.8248 64.6615-11.7523 64.376-11.7866C64.014-11.8248 63.6672-11.9504 63.3088-12.0343C63.1262-12.0799 62.9394-12.1181 62.7373-12.1603C62.7143-12.1755 62.6687-12.2211 62.6191-12.2363C62.2954-12.3428 61.9677-12.4345 61.6475-12.5527C60.921-12.835 60.2823-13.3042 59.7954-13.9129C59.4794-14.2978 59.201-14.7207 58.8885-15.1096C58.6334-15.4333 58.3514-15.7345 58.0885-16.0508C57.9169-16.2564 57.7644-16.4814 57.5892-16.687C57.4102-16.8965 57.2081-17.0872 57.033-17.2967C56.9565-17.3844 56.9187-17.5062 56.8422-17.59C56.6862-17.7655 56.5793-18.0054 56.309-18.0398C56.2899-18.0437 56.2594-18.0702 56.2594-18.0854C56.2517-18.4017 55.9431-18.5313 55.8401-18.7981C55.745-19.0383 55.5012-19.2096 55.3448-19.4268C55.0588-19.8154 54.6095-19.8614 54.2132-19.9792C53.4662-20.2003 52.7153-20.4176 52.0257-20.7796C51.439-21.0807 50.8215-21.3511 50.3414-21.8464C50.0112-22.1872 49.6666-22.5141 49.3088-22.8259C49.053-23.0764 48.7225-23.2367 48.3676-23.2831C48.0095-23.3213 47.6589-23.4203 47.3004-23.4738C46.8662-23.5307 46.4243-23.5651 45.9898-23.6107C45.9402-23.6146 45.8907-23.6376 45.8182-23.6603C45.7916-23.6411 45.7651-23.622 45.7382-23.6033C45.6543-23.7176 44.9342-23.8014 44.7552-23.725C44.1112-23.4508 44.1112-23.4508 44.1264-23.3443C44.0808-23.3443 44.0234-23.3708 43.993-23.3517C43.6271-23.1383 43.2308-23.2222 42.8497-23.2526C42.2783-23.2947 41.9428-23.6259 41.7868-24.2052C41.7334-24.4033 41.5274-24.4185 41.2914-24.3273C41.0398-24.2282 40.8226-24.0413 40.5862-23.9044C40.3919-23.7898 40.2016-23.6376 39.9882-23.5881C39.5756-23.5021 39.1581-23.4433 38.738-23.4126C38.4981-23.3899 38.3152-23.569 38.2427-23.771C38.1362-24.0948 37.8807-24.1521 37.6217-24.2282C37.4083-24.2851 37.1836-24.3043 36.9738-24.3807C36.6956-24.4833 36.4327-24.6319 36.1585-24.7501C35.8687-24.8796 35.5715-24.9826 35.2857-25.116C34.7141-25.375 34.1426-25.6266 33.5938-25.9238C33.22-26.1301 32.8632-26.3658 32.5269-26.6287C32.3478-26.7621 32.2258-26.9641 32.081-27.1357C31.7533-27.509 31.4104-27.871 31.1055-28.2634C30.7092-28.774 30.3434-29.3076 29.9623-29.8335C29.6765-30.2298 29.3755-30.6222 29.1126-31.0376C28.922-31.3348 28.7734-31.6586 28.6172-31.9788C28.339-32.5503 28.0189-33.1104 27.9046-33.7583C27.8513-34.0633 27.7255-34.3606 27.6531-34.6691C27.5769-35.0159 27.5159-35.374 27.4511-35.7246C27.4207-35.8846 27.3749-36.041 27.3559-36.2048C27.2949-36.685 27.2492-37.1651 27.1844-37.6453C27.1387-37.9843 27.0663-38.3197 27.032-38.6626C27.0091-38.8721 27.0358-39.0894 27.0396-39.3066C27.0396-39.6265 27.0358-39.9545 27.0472-40.2744C27.0586-40.6251 27.0777-40.9793 27.1196-41.326C27.1425-41.509 27.2492-41.6767 27.2797-41.8596C27.3559-42.3285 27.4131-42.8009 27.4778-43.2733C27.5236-43.6544 27.5616-44.0355 27.615-44.4165C27.6569-44.7176 27.7446-45.0148 27.7522-45.312C27.7598-45.6268 27.7304-45.9415 27.6645-46.2494C27.5616-46.7334 27.3826-47.202 27.3026-47.6822C27.2433-48.105 27.228-48.5328 27.2568-48.9587C27.2873-49.5417 27.4588-50.0904 27.6988-50.6239C27.775-50.7954 27.6607-50.9212 27.455-51.005C27.0815-51.165 26.7309-51.3822 26.3575-51.5232C26.1365-51.6032 25.9764-51.8319 25.6906-51.79C25.5497-51.7671 25.3858-51.8929 25.2334-51.9424C24.8978-52.0522 24.5612-52.1589 24.2236-52.2625C23.8616-52.3768 23.5072-52.5368 23.1109-52.5064C23.0042-52.4949 22.8937-52.5711 22.7832-52.594C22.6612-52.6245 22.5355-52.6397 22.4135-52.6626L21.4533-52.8417L21.2741-52.8607L21.2741-52.8531Z"/>
   <path class="monochrome-1 multicolor-1:tintColor hierarchical-1:tertiary SFSymbolsPreviewWireframe" d="M48.9411-84C55.3091-84.0013 61.615-82.7479 67.4985-80.3116C73.382-77.8752 78.7279-74.3036 83.2305-69.8009C87.7334-65.2983 91.305-59.9524 93.7418-54.0682C96.1779-48.1846 97.4312-41.8789 97.43-35.5124C97.43-8.72255 75.7254 13 48.9424 13C22.156 13 0.43-8.726 0.43-35.5124C0.43-62.2926 22.1539-84 48.9411-84ZM48.9424-70C29.8835-70 14.43-54.5582 14.43-35.5124C14.43-16.458 29.888-0.999999 48.9424-0.999999C67.9909-0.999999 83.43-16.4519 83.43-35.5138C83.4309-40.0428 82.5395-44.5276 80.8069-48.7121C79.0739-52.8969 76.5337-56.6989 73.3311-59.9013C70.1287-63.1038 66.3266-65.644 62.1422-67.3767C57.9578-69.1095 53.4729-70.0009 48.9424-70Z"/>
  </g>
  <g id="Regular-S" transform="matrix(1 0 0 1 1403.58 696)">
   <path class="monochrome-0 multicolor-0:tintColor hierarchical-0:primary SFSymbolsPreviewWireframe" d="M23.4276-51.6896L23.42-51.7125C23.4239-52.2764 23.4772-52.3222 24.2203-52.4251C24.3917-52.4517 24.567-52.4441 24.7385-52.4632C24.8262-52.4746 24.91-52.5241 25.0052-52.5584C25.0357-52.4632 25.0891-52.4632 25.2263-52.5356C25.3406-52.5965 25.5083-52.5432 25.6492-52.5508C26.0303-52.5775 26.4113-52.627 26.7924-52.627C27.5279-52.6346 28.2633-52.6194 28.995-52.6041C29.3227-52.5965 29.6466-52.5546 29.9743-52.5622C30.0581-52.5622 30.1724-52.6613 30.2143-52.7452C30.3554-53.0119 30.4696-53.29 30.5916-53.5682C30.6945-53.8083 30.7745-54.0636 30.8965-54.2922C31.0298-54.5323 31.1822-54.7571 31.3537-54.9629C31.4644-55.0874 31.601-55.1863 31.7538-55.2525C32.1158-55.4163 32.4778-55.5955 32.8589-55.6983C33.3352-55.8317 33.8344-55.9117 34.326-55.9917C34.4784-56.0184 34.6461-55.9727 34.8099-55.9613C34.9624-55.946 35.1529-55.9803 35.2748-55.9079C35.7931-55.6031 36.3799-55.6412 36.9324-55.5307C37.1877-55.4811 37.4469-55.4468 37.7059-55.4126C38.0986-55.3554 38.4949-55.3363 38.8835-55.2525C39.5314-55.1191 40.1676-54.9476 40.8116-54.7876C41.2652-54.6771 41.6537-54.4256 41.9549-54.0903C42.2025-53.7839 42.3982-53.4389 42.5341-53.069C42.6371-52.8213 42.7245-52.6194 42.9683-52.4632C43.6353-52.0326 44.3592-51.6934 44.9498-51.1447C45.1023-50.9999 45.2509-50.8437 45.3957-50.6874C45.6129-50.4664 45.8263-50.2378 46.0397-50.013C46.1235-49.9253 46.1922-49.8225 46.2912-49.7462C46.5467-49.5404 46.7944-49.3156 47.0764-49.1518C47.2859-49.026 47.5527-48.9994 47.7774-48.9003C48.2041-48.7097 48.6234-48.5002 49.035-48.2753C49.3018-48.1344 49.5456-47.9553 49.7971-47.7876C49.8502-47.7495 49.8923-47.7038 49.9419-47.6618L50.8718-46.8235C50.8831-46.8083 50.9022-46.7854 50.9174-46.7892C51.1764-46.8159 51.3364-46.6177 51.5002-46.4844C51.7157-46.2945 51.9029-46.0751 52.0568-45.8328C52.1863-45.6346 52.2472-45.3907 52.354-45.1736C52.3997-45.0745 52.5179-44.9906 52.5292-44.8954C52.5748-44.4229 52.8494-44.0494 53.0171-43.6303C53.1198-43.3788 53.1845-43.1082 53.2953-42.8567C53.4057-42.6014 53.5582-42.3614 53.6686-42.1061C53.8515-41.6947 54.0153-41.2715 54.1831-40.8486C54.3508-40.4141 54.5259-39.9796 54.6746-39.5337C54.7889-39.1795 54.8423-38.8023 54.9605-38.4478C55.1052-38.021 55.3033-37.6095 55.4559-37.1906C55.5893-36.8095 55.6919-36.4167 55.8178-36.0321C55.9208-35.7232 56.0351-35.4185 56.1416-35.11L56.637-33.6121C56.7856-33.1627 56.9268-32.7091 57.0867-32.2633C57.2392-31.8326 57.3917-31.3985 57.5899-30.9869C57.8033-30.5333 58.0662-30.1105 58.3061-29.6685C58.3669-29.5539 58.4317-29.4474 58.489-29.3331C58.8471-28.5974 59.1939-27.8547 59.5711-27.1304C59.9674-26.3685 60.398-25.629 60.806-24.8785C61.0346-24.4631 61.2366-24.0363 61.4765-23.6287C61.7051-23.2476 61.968-22.8895 62.2044-22.512C62.433-22.15 62.6311-21.7689 62.8749-21.4147C63.2865-20.8124 63.6867-20.1953 64.1516-19.6352C64.5936-19.1016 65.0776-18.6023 65.6491-18.1986C65.9615-17.97 66.2588-17.7145 66.5369-17.4403C67.1926-16.8002 67.8327-16.1445 68.4689-15.4853C68.8426-15.0968 69.2081-14.6966 69.5396-14.2737C69.8064-13.9422 70.0315-13.5724 70.241-13.203C70.3439-13.0105 70.4073-12.7992 70.4278-12.5816C70.426-12.4305 70.3853-12.2823 70.3096-12.1514C70.2066-11.9341 70.0541-11.7395 69.9628-11.5187C69.92-11.4008 69.9253-11.2706 69.9781-11.1567C70.1115-10.909 70.2714-10.6765 70.4352-10.4518C70.7477-10.0247 71.0718-9.60579 71.3878-9.17905C71.5212-9 71.6394-8.81317 71.7805-8.63802C72.0282-8.32522 72.3025-8.02799 72.5424-7.70811C72.7069-7.49969 72.8403-7.26863 72.9387-7.022C72.9882-6.88896 72.9387-6.67169 72.8513-6.5574C72.7901-6.47354 72.5732-6.43532 72.4624-6.48097C72.2101-6.59314 71.9702-6.73114 71.7462-6.89249C71.1907-7.30189 70.6854-7.77499 70.241-8.30257C69.9094-8.66845 69.5283-8.98089 69.1893-9.3312C68.9721-9.56014 68.8005-9.83437 68.591-10.063C68.408-10.265 68.2138-10.4745 67.9852-10.6079C67.8327-10.6956 67.6041-10.6726 67.4059-10.6687C67.1123-10.6613 66.815-10.5888 66.5295-10.6231C66.1675-10.6613 65.8207-10.7869 65.4623-10.8708C65.2797-10.9164 65.0929-10.9546 64.8908-10.9968C64.8678-11.012 64.8222-11.0576 64.7726-11.0728C64.4489-11.1793 64.1212-11.271 63.801-11.3892C63.0745-11.6715 62.4358-12.1407 61.9489-12.7494C61.6329-13.1343 61.3545-13.5572 61.042-13.9461C60.7869-14.2698 60.5049-14.571 60.242-14.8873C60.0704-15.0929 59.9179-15.3179 59.7427-15.5235C59.5637-15.733 59.3616-15.9237 59.1865-16.1332C59.11-16.2209 59.0722-16.3427 58.9957-16.4265C58.8397-16.602 58.7328-16.8419 58.4625-16.8763C58.4434-16.8802 58.4129-16.9067 58.4129-16.9219C58.4052-17.2382 58.0966-17.3678 57.9936-17.6346C57.8985-17.8748 57.6547-18.0461 57.4983-18.2633C57.2123-18.6519 56.763-18.6979 56.3667-18.8157C55.6197-19.0368 54.8688-19.2541 54.1792-19.6161C53.5925-19.9172 52.975-20.1876 52.4949-20.6829C52.1647-21.0237 51.8201-21.3506 51.4623-21.6624C51.2065-21.9129 50.876-22.0732 50.5211-22.1196C50.163-22.1578 49.8124-22.2568 49.4539-22.3103C49.0197-22.3672 48.5778-22.4016 48.1433-22.4472C48.0937-22.4511 48.0442-22.4741 47.9717-22.4968C47.9451-22.4776 47.9186-22.4585 47.8917-22.4398C47.8078-22.5541 47.0877-22.6379 46.9087-22.5615C46.2647-22.2873 46.2647-22.2873 46.2799-22.1808C46.2343-22.1808 46.1769-22.2073 46.1465-22.1882C45.7806-21.9748 45.3843-22.0587 45.0032-22.0891C44.4318-22.1312 44.0963-22.4624 43.9403-23.0417C43.8869-23.2398 43.6809-23.255 43.4449-23.1638C43.1933-23.0647 42.9761-22.8778 42.7397-22.7409C42.5454-22.6263 42.3551-22.4741 42.1417-22.4246C41.7291-22.3386 41.3116-22.2798 40.8915-22.2491C40.6516-22.2264 40.4687-22.4055 40.3962-22.6075C40.2897-22.9313 40.0342-22.9886 39.7752-23.0647C39.5618-23.1216 39.3371-23.1408 39.1273-23.2172C38.8491-23.3198 38.5862-23.4684 38.312-23.5866C38.0222-23.7161 37.725-23.8191 37.4392-23.9525C36.8676-24.2115 36.2961-24.4631 35.7473-24.7603C35.3735-24.9666 35.0167-25.2023 34.6804-25.4652C34.5013-25.5986 34.3793-25.8006 34.2345-25.9722C33.9068-26.3455 33.5639-26.7075 33.259-27.0999C32.8627-27.6105 32.4969-28.1441 32.1158-28.67C31.83-29.0663 31.529-29.4587 31.2661-29.8741C31.0755-30.1713 30.9269-30.4951 30.7707-30.8153C30.4925-31.3868 30.1724-31.9469 30.0581-32.5948C30.0048-32.8998 29.879-33.1971 29.8066-33.5056C29.7304-33.8524 29.6694-34.2105 29.6046-34.5611C29.5742-34.7211 29.5284-34.8775 29.5094-35.0413C29.4484-35.5215 29.4027-36.0016 29.3379-36.4818C29.2922-36.8208 29.2198-37.1562 29.1855-37.4991C29.1626-37.7086 29.1893-37.9259 29.1931-38.1431C29.1931-38.463 29.1893-38.791 29.2007-39.1109C29.2121-39.4616 29.2312-39.8158 29.2731-40.1625C29.296-40.3455 29.4027-40.5132 29.4332-40.6961C29.5094-41.165 29.5666-41.6374 29.6313-42.1098C29.6771-42.4909 29.7151-42.872 29.7685-43.253C29.8104-43.5541 29.8981-43.8513 29.9057-44.1485C29.9133-44.4633 29.8839-44.778 29.818-45.0859C29.7151-45.5699 29.5361-46.0385 29.4561-46.5187C29.3968-46.9415 29.3815-47.3693 29.4103-47.7952C29.4408-48.3782 29.6123-48.9269 29.8523-49.4604C29.9285-49.6319 29.8142-49.7577 29.6085-49.8415C29.235-50.0015 28.8844-50.2187 28.511-50.3597C28.29-50.4397 28.1299-50.6684 27.8441-50.6265C27.7032-50.6036 27.5393-50.7294 27.3869-50.7789C27.0513-50.8887 26.7147-50.9954 26.3771-51.099C26.0151-51.2133 25.6607-51.3733 25.2644-51.3429C25.1577-51.3314 25.0472-51.4076 24.9367-51.4305C24.8147-51.461 24.689-51.4762 24.567-51.4991L23.6068-51.6782L23.4276-51.6972L23.4276-51.6896Z"/>
   <path class="monochrome-1 multicolor-1:tintColor hierarchical-1:tertiary SFSymbolsPreviewWireframe" d="M46.4321-81.8365C52.4502-81.8377 58.4096-80.6532 63.9698-78.3508C69.53-76.0483 74.5822-72.6729 78.8374-68.4176C83.0928-64.1624 86.4682-59.1103 88.771-53.5496C91.0733-47.9892 92.2577-42.03 92.2566-36.0127C92.2566-10.693 71.744 9.83658 46.4328 9.83658C21.1173 9.83658 0.5835-10.6972 0.5835-36.0127C0.5835-61.3211 21.1145-81.8365 46.4321-81.8365ZM46.4328-75.0865C24.8413-75.0865 7.3335-57.592 7.3335-36.0127C7.3335-14.4252 24.8452 3.08658 46.4328 3.08658C68.0148 3.08658 85.5066-14.4197 85.5066-36.0133C85.5076-41.1447 84.4976-46.226 82.5345-50.9672C80.571-55.7085 77.693-60.0162 74.0644-63.6446C70.4361-67.273 66.1283-70.1511 61.3873-72.1143C56.6463-74.0776 51.5649-75.0875 46.4328-75.0865Z"/>
  </g>
  <g id="Ultralight-S" transform="matrix(1 0 0 1 515.649 696)">
   <path class="monochrome-0 multicolor-0:tintColor hierarchical-0:primary SFSymbolsPreviewWireframe" d="M25.36-51.1011L25.3527-51.123C25.3564-51.6644 25.4076-51.7082 26.1209-51.807C26.2855-51.8326 26.4538-51.8253 26.6184-51.8436C26.7025-51.8546 26.783-51.9021 26.8744-51.935C26.9037-51.8436 26.9549-51.8436 27.0866-51.9131C27.1963-51.9716 27.3573-51.9204 27.4926-51.9277C27.8584-51.9533 28.2242-52.0009 28.59-52.0009C29.296-52.0082 30.0019-51.9936 30.7043-51.9789C31.0188-51.9716 31.3298-51.9314 31.6443-51.9387C31.7248-51.9387 31.8345-52.0338 31.8748-52.1143C32.0102-52.3703 32.1199-52.6373 32.2369-52.9044C32.3357-53.1348 32.4125-53.3799 32.5296-53.5994C32.6576-53.8298 32.8039-54.0456 32.9685-54.2432C33.0747-54.3627 33.2059-54.4576 33.3526-54.5212C33.7001-54.6784 34.0476-54.8504 34.4134-54.9491C34.8706-55.0771 35.3498-55.154 35.8217-55.2308C35.968-55.2564 36.129-55.2125 36.2862-55.2015C36.4326-55.1869 36.6155-55.2198 36.7325-55.1503C37.23-54.8577 37.7933-54.8943 38.3237-54.7882C38.5688-54.7406 38.8175-54.7077 39.0662-54.6748C39.4432-54.6199 39.8236-54.6016 40.1966-54.5212C40.8185-54.3931 41.4292-54.2285 42.0474-54.0749C42.4829-53.9688 42.8558-53.7274 43.1449-53.4055C43.3827-53.1114 43.5705-52.7802 43.7009-52.4252C43.7998-52.1874 43.8837-51.9936 44.1177-51.8436C44.758-51.4303 45.4529-51.1047 46.0198-50.578C46.1662-50.439 46.3089-50.289 46.4478-50.139C46.6564-49.9269 46.8612-49.7074 47.066-49.4916C47.1465-49.4074 47.2124-49.3087 47.3075-49.2355C47.5528-49.038 47.7905-48.8222 48.0613-48.6649C48.2623-48.5442 48.5185-48.5186 48.7341-48.4235C49.1438-48.2406 49.5463-48.0394 49.9413-47.8236C50.1974-47.6882 50.4315-47.5163 50.673-47.3554C50.7239-47.3188 50.7643-47.2749 50.8119-47.2346L51.7045-46.4299C51.7154-46.4153 51.7338-46.3934 51.7484-46.397C51.997-46.4226 52.1505-46.2324 52.3078-46.1044C52.5147-45.9221 52.6943-45.7115 52.8421-45.4789C52.9664-45.2886 53.0248-45.0545 53.1274-44.8461C53.1712-44.751 53.2847-44.6705 53.2955-44.579C53.3394-44.1255 53.6029-43.767 53.764-43.3646C53.8625-43.1232 53.9246-42.8635 54.0309-42.622C54.1369-42.377 54.2833-42.1465 54.3893-41.9015C54.5649-41.5066 54.7222-41.1003 54.8832-40.6944C55.0442-40.2773 55.2123-39.8602 55.355-39.4322C55.4647-39.0922 55.516-38.7301 55.6294-38.3898C55.7683-37.9801 55.9586-37.5851 56.1049-37.1829C56.233-36.8171 56.3315-36.4401 56.4524-36.0709C56.5513-35.7743 56.661-35.4819 56.7632-35.1857L57.2388-33.7479C57.3814-33.3165 57.5169-32.881 57.6705-32.453C57.8169-32.0397 57.9633-31.6229 58.1535-31.2279C58.3583-30.7924 58.6107-30.3865 58.841-29.9623C58.8994-29.8522 58.9616-29.75 59.0166-29.6403C59.3603-28.9341 59.6932-28.2211 60.0553-27.5258C60.4357-26.7945 60.8491-26.0846 61.2407-25.3642C61.4602-24.9654 61.6541-24.5558 61.8844-24.1645C62.1038-23.7986 62.3562-23.4549 62.5831-23.0925C62.8025-22.745 62.9927-22.3792 63.2268-22.0391C63.6218-21.461 64.006-20.8687 64.4523-20.331C64.8765-19.8187 65.3412-19.3395 65.8898-18.9519C66.1897-18.7325 66.475-18.4872 66.742-18.224C67.3714-17.6095 67.9859-16.9801 68.5966-16.3473C68.9553-15.9744 69.3062-15.5902 69.6244-15.1843C69.8805-14.866 70.0966-14.5111 70.2977-14.1565C70.3965-13.9717 70.4573-13.7689 70.477-13.56C70.4753-13.415 70.4362-13.2726 70.3636-13.147C70.2647-12.9384 70.1183-12.7516 70.0307-12.5396C69.9896-12.4265 69.9947-12.3015 70.0453-12.1922C70.1733-11.9544 70.3269-11.7312 70.4841-11.5155C70.7841-11.1056 71.0952-10.7034 71.3985-10.2938C71.5266-10.1219 71.64-9.94253 71.7756-9.7744C72.0133-9.47413 72.2766-9.18881 72.5069-8.88175C72.6648-8.68168 72.7929-8.45988 72.8873-8.22313C72.9348-8.09542 72.8873-7.88686 72.8034-7.77715C72.7446-7.69665 72.5364-7.65996 72.4301-7.70378C72.1879-7.81145 71.9576-7.94392 71.7426-8.09881C71.2093-8.49181 70.7243-8.94595 70.2977-9.45239C69.9794-9.80361 69.6136-10.1035 69.2882-10.4398C69.0796-10.6596 68.9149-10.9228 68.7138-11.1422C68.5382-11.3362 68.3517-11.5373 68.1323-11.6653C67.9859-11.7496 67.7664-11.7275 67.5762-11.7238C67.2943-11.7166 67.009-11.647 66.7349-11.6799C66.3874-11.7166 66.0545-11.8372 65.7104-11.9177C65.5352-11.9615 65.3558-11.9982 65.1619-12.0386C65.1398-12.0532 65.096-12.0971 65.0484-12.1117C64.7376-12.2139 64.4231-12.3019 64.1157-12.4153C63.4184-12.6864 62.8052-13.1368 62.3379-13.721C62.0345-14.0906 61.7672-14.4965 61.4673-14.8698C61.2224-15.1806 60.9517-15.4696 60.6993-15.7733C60.5346-15.9706 60.3882-16.1867 60.22-16.384C60.0482-16.5851 59.8542-16.7682 59.6861-16.9693C59.6127-17.0535 59.5764-17.1703 59.503-17.2508C59.3532-17.4193 59.2506-17.6496 58.9911-17.6826C58.9728-17.6863 58.9436-17.7118 58.9436-17.7264C58.9361-18.03 58.6399-18.1544 58.5411-18.4105C58.4497-18.6411 58.2156-18.8055 58.0655-19.0141C57.7911-19.387 57.3597-19.4312 56.9793-19.5443C56.2622-19.7566 55.5414-19.9651 54.8794-20.3126C54.3163-20.6017 53.7235-20.8612 53.2626-21.3367C52.9457-21.6638 52.6149-21.9777 52.2714-22.2769C52.0259-22.5174 51.7086-22.6713 51.3679-22.7158C51.0242-22.7525 50.6876-22.8476 50.3435-22.8989C49.9267-22.9535 49.5025-22.9865 49.0854-23.0303C49.0378-23.034 48.9903-23.0561 48.9206-23.0779C48.8951-23.0595 48.8697-23.0412 48.8439-23.0232C48.7634-23.1329 48.0721-23.2134 47.9003-23.14C47.2821-22.8768 47.2821-22.8768 47.2967-22.7745C47.2528-22.7745 47.1978-22.8 47.1686-22.7817C46.8174-22.5768 46.437-22.6573 46.0711-22.6866C45.5226-22.727 45.2006-23.0449 45.0508-23.6009C44.9995-23.7912 44.8018-23.8058 44.5752-23.7181C44.3337-23.623 44.1252-23.4437 43.8983-23.3122C43.7118-23.2022 43.5291-23.0561 43.3242-23.0086C42.9282-22.926 42.5274-22.8696 42.1242-22.8401C41.8939-22.8183 41.7183-22.9902 41.6487-23.1842C41.5464-23.495 41.3012-23.55 41.0525-23.623C40.8477-23.6777 40.632-23.6961 40.4306-23.7694C40.1636-23.8679 39.9112-24.0106 39.648-24.124C39.3698-24.2484 39.0845-24.3472 38.8102-24.4753C38.2615-24.7239 37.7128-24.9654 37.1861-25.2507C36.8273-25.4487 36.4848-25.675 36.1619-25.9273C35.9899-26.0554 35.8729-26.2493 35.7339-26.4141C35.4193-26.7724 35.0901-27.1199 34.7975-27.4966C34.417-27.9867 34.0659-28.499 33.7001-29.0037C33.4258-29.3841 33.1368-29.7608 32.8844-30.1596C32.7015-30.4449 32.5588-30.7557 32.4089-31.0631C32.1418-31.6117 31.8345-32.1494 31.7248-32.7713C31.6736-33.0641 31.5529-33.3494 31.4834-33.6456C31.4102-33.9785 31.3517-34.3222 31.2895-34.6589C31.2603-34.8124 31.2164-34.9625 31.1981-35.1198C31.1395-35.5807 31.0957-36.0416 31.0335-36.5026C30.9896-36.828 30.9201-37.15 30.8871-37.4791C30.8652-37.6802 30.8908-37.8888 30.8945-38.0973C30.8945-38.4044 30.8908-38.7193 30.9018-39.0263C30.9128-39.3629 30.9311-39.7029 30.9713-40.0358C30.9932-40.2114 31.0957-40.3724 31.1249-40.548C31.1981-40.9981 31.253-41.4515 31.3151-41.9051C31.359-42.2709 31.3956-42.6367 31.4468-43.0025C31.4871-43.2915 31.5712-43.5768 31.5785-43.8621C31.5858-44.1643 31.5575-44.4663 31.4944-44.7619C31.3956-45.2265 31.2237-45.6764 31.1469-46.1373C31.09-46.5431 31.0753-46.9538 31.103-47.3627C31.1322-47.9223 31.2968-48.4491 31.5273-48.9612C31.6004-49.1258 31.4907-49.2465 31.2932-49.327C30.9347-49.4806 30.5982-49.6891 30.2397-49.8244C30.0275-49.9012 29.8739-50.1207 29.5996-50.0805C29.4642-50.0585 29.3069-50.1793 29.1606-50.2268C28.8385-50.3322 28.5153-50.4346 28.1913-50.5341C27.8438-50.6438 27.5036-50.7974 27.1231-50.7682C27.0207-50.7572 26.9146-50.8304 26.8086-50.8523C26.6915-50.8816 26.5708-50.8962 26.4538-50.9181L25.532-51.0901L25.36-51.1084L25.36-51.1011Z"/>
   <path class="monochrome-1 multicolor-1:tintColor hierarchical-1:tertiary SFSymbolsPreviewWireframe" d="M44.3636-80.5865C50.0861-80.5876 55.7528-79.4613 61.04-77.272C66.3271-75.0826 71.1312-71.8729 75.1774-67.8265C79.2239-63.7803 82.4335-58.9764 84.6232-53.6889C86.8124-48.4015 87.9387-42.7349 87.9376-37.0127C87.9376-12.9352 68.432 6.58658 44.3638 6.58658C20.2909 6.58658 0.7645-12.9399 0.7645-37.0127C0.7645-61.0781 20.2877-80.5865 44.3636-80.5865ZM44.3638-78.3365C21.53-78.3365 3.0145-59.8351 3.0145-37.0127C3.0145-14.1825 21.5336 4.33658 44.3638 4.33658C67.1889 4.33658 85.6876-14.1774 85.6876-37.0129C85.6886-42.4398 84.6205-47.8138 82.5443-52.828C80.4678-57.8425 77.4239-62.3983 73.5865-66.2355C69.7491-70.073 65.1932-73.1168 60.1791-75.1931C55.1651-77.2695 49.791-78.3376 44.3638-78.3365Z"/>
  </g>
 </g>
</svg>
