<?xml version="1.0" encoding="UTF-8"?>
<svg width="3300px" height="2200px" viewBox="0 0 3300 2200" version="1.1" xmlns="http://www.w3.org/2000/svg" xmlns:xlink="http://www.w3.org/1999/xlink">
    <!-- Generator: Sketch 59.1 (86144) - https://sketch.com -->
    <title>filter</title>
    <desc>Created with Sketch.</desc>
    <g id="Page-1" stroke="none" stroke-width="1" fill="none" fill-rule="evenodd">
        <g id="filter">
            <g id="Notes">
                <rect id="artboard" fill="#FFFFFF" fill-rule="nonzero" x="0" y="0" width="3300" height="2200"></rect>
                <line x1="263" y1="292" x2="3036" y2="292" id="Path" stroke="#000000" stroke-width="0.5"></line>
                <text id="Weight/Scale-Variations" fill="#000000" font-family="Helvetica-Bold, Helvetica" font-size="13" font-weight="bold">
                    <tspan x="263" y="322">Weight/Scale Variations</tspan>
                </text>
                <text id="Ultralight" fill="#000000" font-family="Helvetica" font-size="13" font-weight="normal">
                    <tspan x="533.711" y="322">Ultralight</tspan>
                </text>
                <text id="Thin" fill="#000000" font-family="Helvetica" font-size="13" font-weight="normal">
                    <tspan x="843.422" y="322">Thin</tspan>
                </text>
                <text id="Light" fill="#000000" font-family="Helvetica" font-size="13" font-weight="normal">
                    <tspan x="1138.63" y="322">Light</tspan>
                </text>
                <text id="Regular" fill="#000000" font-family="Helvetica" font-size="13" font-weight="normal">
                    <tspan x="1426.84" y="322">Regular</tspan>
                </text>
                <text id="Medium" fill="#000000" font-family="Helvetica" font-size="13" font-weight="normal">
                    <tspan x="1723.06" y="322">Medium</tspan>
                </text>
                <text id="Semibold" fill="#000000" font-family="Helvetica" font-size="13" font-weight="normal">
                    <tspan x="2015.77" y="322">Semibold</tspan>
                </text>
                <text id="Bold" fill="#000000" font-family="Helvetica" font-size="13" font-weight="normal">
                    <tspan x="2326.48" y="322">Bold</tspan>
                </text>
                <text id="Heavy" fill="#000000" font-family="Helvetica" font-size="13" font-weight="normal">
                    <tspan x="2618.19" y="322">Heavy</tspan>
                </text>
                <text id="Black" fill="#000000" font-family="Helvetica" font-size="13" font-weight="normal">
                    <tspan x="2917.4" y="322">Black</tspan>
                </text>
                <line x1="263" y1="1903" x2="3036" y2="1903" id="Path" stroke="#000000" stroke-width="0.5"></line>
                <g id="Group" transform="translate(264.000000, 1918.000000)" fill="#000000" fill-rule="nonzero">
                    <path d="M8.24805,15.830078 C12.5547,15.830078 16.1387,12.25586 16.1387,7.94922 C16.1387,3.6426 12.5449,0.0684 8.23828,0.0684 C3.94141,0.0684 0.36719,3.6426 0.36719,7.94922 C0.36719,12.25586 3.95117,15.830078 8.24805,15.830078 Z M8.24805,14.345703 C4.70312,14.345703 1.87109,11.50391 1.87109,7.94922 C1.87109,4.3945 4.69336,1.5527 8.23828,1.5527 C11.793,1.5527 14.6348,4.3945 14.6445503,7.94922 C14.6543,11.50391 11.8027,14.345703 8.24805,14.345703 Z M8.22852,11.57227 C8.69727,11.57227 8.9707,11.25977 8.9707,10.74219 L8.9707,8.68164 L11.1973,8.68164 C11.6953,8.68164 12.0371,8.42773 12.0371,7.95898 C12.0371,7.48047 11.7148,7.2168 11.1973,7.2168 L8.9707,7.2168 L8.9707,4.9902 C8.9707,4.4727 8.69727,4.1504 8.22852,4.1504 C7.75977,4.1504 7.50586,4.4922 7.50586,4.9902 L7.50586,7.2168 L5.29883,7.2168 C4.78125,7.2168 4.44922,7.48047 4.44922,7.95898 C4.44922,8.42773 4.80078,8.68164 5.29883,8.68164 L7.50586,8.68164 L7.50586,10.74219 C7.50586,11.24023 7.75977,11.57227 8.22852,11.57227 Z" id="Shape"></path>
                </g>
                <g id="Group" transform="translate(282.506000, 1915.000000)" fill="#000000" fill-rule="nonzero">
                    <path d="M10.709,20.91016 C16.1582,20.91016 20.6699,16.39844 20.6699,10.94922 C20.6699,5.5098 16.1484,0.9883 10.6992,0.9883 C5.25977,0.9883 0.74805,5.5098 0.74805,10.94922 C0.74805,16.39844 5.26953,20.91016 10.709,20.91016 Z M10.709,19.25 C6.09961,19.25 2.41797,15.55859 2.41797,10.94922 C2.41797,6.3496 6.08984,2.6484 10.6992,2.6484 C15.3086,2.6484 19,6.3496 19.0098379,10.94922 C19.0195,15.55859 15.3184,19.25 10.709,19.25 Z M10.6895,15.58789 C11.207,15.58789 11.5195,15.22656 11.5195,14.66016 L11.5195,11.76953 L14.5762,11.76953 C15.123,11.76953 15.5039,11.48633 15.5039,10.96875 C15.5039,10.44141 15.1426,10.13867 14.5762,10.13867 L11.5195,10.13867 L11.5195,7.0723 C11.5195,6.4961 11.207,6.1445 10.6895,6.1445 C10.1719,6.1445 9.8789,6.5156 9.8789,7.0723 L9.8789,10.13867 L6.83203,10.13867 C6.26562,10.13867 5.89453,10.44141 5.89453,10.96875 C5.89453,11.48633 6.28516,11.76953 6.83203,11.76953 L9.8789,11.76953 L9.8789,14.66016 C9.8789,15.20703 10.1719,15.58789 10.6895,15.58789 Z" id="Shape"></path>
                </g>
                <g id="Group" transform="translate(306.924000, 1913.000000)" fill="#000000" fill-rule="nonzero">
                    <path d="M12.9707,25.67383 C19.9336,25.67383 25.6953,19.921875 25.6953,12.95898 C25.6953,5.9961 19.9238,0.2441 12.9609,0.2441 C6.00781,0.2441 0.25586,5.9961 0.25586,12.95898 C0.25586,19.921875 6.01758,25.67383 12.9707,25.67383 Z M12.9707,23.85742 C6.93555,23.85742 2.08203,18.99414 2.08203,12.95898 C2.08203,6.9238 6.92578,2.0605 12.9609,2.0605 C19.0059,2.0605 23.8594,6.9238 23.8691295,12.95898 C23.8789,18.99414 19.0156,23.85742 12.9707,23.85742 Z M12.9512,18.93555 C13.5176,18.93555 13.8691,18.54492 13.8691,17.93945 L13.8691,13.86719 L18.1074,13.86719 C18.6934,13.86719 19.1133,13.53516 19.1133,12.97852 C19.1133,12.40234 18.7227,12.06055 18.1074,12.06055 L13.8691,12.06055 L13.8691,7.8125 C13.8691,7.1973 13.5176,6.8066 12.9512,6.8066 C12.3848,6.8066 12.0625,7.2168 12.0625,7.8125 L12.0625,12.06055 L7.83398,12.06055 C7.21875,12.06055 6.80859,12.40234 6.80859,12.97852 C6.80859,13.53516 7.23828,13.86719 7.83398,13.86719 L12.0625,13.86719 L12.0625,17.93945 C12.0625,18.52539 12.3848,18.93555 12.9512,18.93555 Z" id="Shape"></path>
                </g>
                <text id="Design-Variations" fill="#000000" font-family="Helvetica-Bold, Helvetica" font-size="13" font-weight="bold">
                    <tspan x="263" y="1953">Design Variations</tspan>
                </text>
                <text id="Symbols-are-supported-in-up-to-nine-weights-and-three-scales." fill="#000000" font-family="Helvetica" font-size="13" font-weight="normal">
                    <tspan x="263" y="1971">Symbols are supported in up to nine weights and three scales.</tspan>
                </text>
                <text id="For-optimal-layout-with-text-and-other-symbols,-vertically-align" fill="#000000" font-family="Helvetica" font-size="13" font-weight="normal">
                    <tspan x="263" y="1989">For optimal layout with text and other symbols, vertically align</tspan>
                </text>
                <text id="symbols-with-the-adjacent-text." fill="#000000" font-family="Helvetica" font-size="13" font-weight="normal">
                    <tspan x="263" y="2007">symbols with the adjacent text.</tspan>
                </text>
                <rect id="Rectangle" fill="#00AEEF" fill-rule="nonzero" opacity="0.4" x="776" y="1919" width="3" height="14"></rect>
                <g id="Group" transform="translate(779.000000, 1918.000000)" fill="#000000" fill-rule="nonzero">
                    <path d="M10.5273,15 L12.373,15 L7.17773,0.9082 L5.43945,0.9082 L0.244141,15 L2.08984,15 L3.50586,10.9668 L9.11133,10.9668 L10.5273,15 Z M6.2793,3.0469 L6.33789,3.0469 L8.59375,9.47266 L4.02344,9.47266 L6.2793,3.0469 Z" id="Shape"></path>
                </g>
                <rect id="Rectangle" fill="#00AEEF" fill-rule="nonzero" opacity="0.4" x="791.617" y="1919" width="3" height="14"></rect>
                <text id="Margins" fill="#000000" font-family="Helvetica-Bold, Helvetica" font-size="13" font-weight="bold">
                    <tspan x="776" y="1953">Margins</tspan>
                </text>
                <text id="Leading-and-trailing-margins-on-the-left-and-right-side-of-each-symbol" fill="#000000" font-family="Helvetica" font-size="13" font-weight="normal">
                    <tspan x="776" y="1971">Leading and trailing margins on the left and right side of each symbol</tspan>
                </text>
                <text id="can-be-adjusted-by-modifying-the-width-of-the-blue-rectangles." fill="#000000" font-family="Helvetica" font-size="13" font-weight="normal">
                    <tspan x="776" y="1989">can be adjusted by modifying the width of the blue rectangles.</tspan>
                </text>
                <text id="Modifications-are-automatically-applied-proportionally-to-all" fill="#000000" font-family="Helvetica" font-size="13" font-weight="normal">
                    <tspan x="776" y="2007">Modifications are automatically applied proportionally to all</tspan>
                </text>
                <text id="scales-and-weights." fill="#000000" font-family="Helvetica" font-size="13" font-weight="normal">
                    <tspan x="776" y="2025">scales and weights.</tspan>
                </text>
                <g id="Group" transform="translate(1291.000000, 1915.000000)" fill="#000000" fill-rule="nonzero">
                    <path d="M0.83203,21.11523 L2.375,22.6582 C3.22461,23.48828 4.19141,23.41992 5.06055,22.46289 L15.2754,11.33984 C15.7051,11.63281 16.0957,11.62305 16.5645,11.52539 L17.6094,11.31055 L18.3027,12.00391 L18.2539,12.52148 C18.1855,13.04883 18.3516,13.46875 18.8496,13.9668 L19.6602,14.77734 C20.168,15.28516 20.8223,15.31445 21.3008,14.83594 L24.5527,11.58398 C25.0312,11.10547 25.0117,10.45117 24.5039,9.94336 L23.6836,9.12305 C23.1855,8.625 22.7754,8.44922 22.2383,8.52734 L21.7109,8.58594 L21.0566,7.9219 L21.3398,6.7793 C21.4863,6.2129 21.3398,5.7441 20.7148,5.1387 L18.3027,2.7461 C14.7578,-0.7793 10.2266,-0.6719 7.11133,2.4629 C6.69141,2.8926 6.64258,3.4785 6.91602,3.9082 C7.15039,4.2793 7.62891,4.5039 8.2734,4.3379 C9.7871,3.957 11.3008,4.0742 12.7852,5.0801 L12.1602,6.6621 C11.9258,7.248 11.9453,7.7266 12.1797,8.16602 L1.01758,18.439453 C0.08008,19.30859 -0.02734,20.25586 0.83203,21.11523 Z M8.6738,2.8535 C11.3398,0.8613 14.6504,1.1738 17.0527,3.5859 L19.6797,6.1934 C19.9141,6.4277 19.9434,6.6133 19.8848,6.9062 L19.5039,8.46875 L21.0762,10.04102 L22.043,9.95312 C22.3262,9.92383 22.4141,9.94336 22.6387,10.16797 L23.2637,10.79297 L20.5098,13.53711 L19.8848,12.92188 C19.6602,12.69727 19.6406,12.59961 19.6699,12.31641 L19.7578,11.35938 L18.1953,9.79688 L16.5742,10.10938 C16.291,10.16797 16.1445,10.16797 15.9102,9.92383 L13.7324,7.7461 C13.5078,7.5117 13.4785,7.375 13.6055,7.0527 L14.5527,4.7773 C12.9512,3.2441 10.8418,2.3945 8.8008,3.0488 C8.7129,3.0781 8.6445,3.0586 8.6152,3.0195 C8.5859,2.9707 8.5859,2.9219 8.6738,2.8535 Z M2.10156,20.41211 C1.61328,19.91406 1.78906,19.61133 2.12109,19.30859 L13.0781,9.19141 L14.3086,10.42188 L4.15234,21.34961 C3.84961,21.68164 3.46875,21.7793 3.06836,21.37891 L2.10156,20.41211 Z" id="Shape"></path>
                </g>
                <text id="Exporting" fill="#000000" font-family="Helvetica-Bold, Helvetica" font-size="13" font-weight="bold">
                    <tspan x="1289" y="1953">Exporting</tspan>
                </text>
                <text id="Symbols-should-be-outlined-when-exporting-to-ensure-the" fill="#000000" font-family="Helvetica" font-size="13" font-weight="normal">
                    <tspan x="1289" y="1971">Symbols should be outlined when exporting to ensure the</tspan>
                </text>
                <text id="design-is-preserved-when-submitting-to-Xcode." fill="#000000" font-family="Helvetica" font-size="13" font-weight="normal">
                    <tspan x="1289" y="1989">design is preserved when submitting to Xcode.</tspan>
                </text>
                <text id="Template-v.1.0" fill="#000000" font-family="Helvetica" font-size="13" font-weight="normal">
                    <tspan x="2952" y="1933">Template v.1.0</tspan>
                </text>
                <text id="Generated-from-circle" fill="#000000" font-family="Helvetica" font-size="13" font-weight="normal">
                    <tspan x="2911" y="1951">Generated from circle</tspan>
                </text>
                <text id="Typeset-at-100-points" fill="#000000" font-family="Helvetica" font-size="13" font-weight="normal">
                    <tspan x="2912" y="1969">Typeset at 100 points</tspan>
                </text>
                <text id="Small" fill="#000000" font-family="Helvetica" font-size="13" font-weight="normal">
                    <tspan x="263" y="726">Small</tspan>
                </text>
                <text id="Medium" fill="#000000" font-family="Helvetica" font-size="13" font-weight="normal">
                    <tspan x="263" y="1156">Medium</tspan>
                </text>
                <text id="Large" fill="#000000" font-family="Helvetica" font-size="13" font-weight="normal">
                    <tspan x="263" y="1586">Large</tspan>
                </text>
            </g>
            <g id="Guides" transform="translate(263.000000, 625.000000)">
                <g id="H-reference" transform="translate(76.000000, 0.000000)" fill="#27AAE1" fill-rule="nonzero">
                    <path d="M54.9316,71 L57.666,71 L30.5664,0.541 L28.0762,0.541 L0.976562,71 L3.66211,71 L12.9395,46.5371 L45.7031,46.5371 L54.9316,71 Z M29.1992,3.9102 L29.4434,3.9102 L44.8242,44.291 L13.8184,44.291 L29.1992,3.9102 Z" id="Shape"></path>
                </g>
                <line x1="0" y1="71" x2="2773" y2="71" id="Baseline-S" stroke="#27AAE1" stroke-width="0.577"></line>
                <line x1="0" y1="0.541" x2="2773" y2="0.541" id="Capline-S" stroke="#27AAE1" stroke-width="0.577"></line>
                <g id="H-reference" transform="translate(76.000000, 430.000000)" fill="#27AAE1" fill-rule="nonzero">
                    <path d="M54.9316,71 L57.666,71 L30.5664,0.541 L28.0762,0.541 L0.976562,71 L3.66211,71 L12.9395,46.5371 L45.7031,46.5371 L54.9316,71 Z M29.1992,3.9102 L29.4434,3.9102 L44.8242,44.291 L13.8184,44.291 L29.1992,3.9102 Z" id="Shape"></path>
                </g>
                <line x1="0" y1="501" x2="2773" y2="501" id="Baseline-M" stroke="#27AAE1" stroke-width="0.577"></line>
                <line x1="0" y1="430.54" x2="2773" y2="430.54" id="Capline-M" stroke="#27AAE1" stroke-width="0.577"></line>
                <g id="H-reference" transform="translate(76.000000, 860.000000)" fill="#27AAE1" fill-rule="nonzero">
                    <path d="M54.9316,71 L57.666,71 L30.5664,0.541 L28.0762,0.541 L0.976562,71 L3.66211,71 L12.9395,46.5371 L45.7031,46.5371 L54.9316,71 Z M29.1992,3.9102 L29.4434,3.9102 L44.8242,44.291 L13.8184,44.291 L29.1992,3.9102 Z" id="Shape"></path>
                </g>
                <line x1="0" y1="931" x2="2773" y2="931" id="Baseline-L" stroke="#27AAE1" stroke-width="0.577"></line>
                <line x1="0" y1="860.54" x2="2773" y2="860.54" id="Capline-L" stroke="#27AAE1" stroke-width="0.577"></line>
                <rect id="left-margin" fill="#00AEEF" fill-rule="nonzero" opacity="0.4" x="1128.3" y="405.79" width="8.74023" height="119.336"></rect>
                <rect id="right-margin" fill="#00AEEF" fill-rule="nonzero" opacity="0.4" x="1236.65" y="405.79" width="8.74023" height="119.336"></rect>
            </g>
            <g id="Symbols" transform="translate(1399.000000, 1040.000000)" fill="#000000" fill-rule="nonzero">
                <g id="Regular-M" transform="translate(0.300000, 0.000000)">
                    <path d="M50.5449,100.5508 C77.791,100.5508 100.35,77.99219 100.35,50.7461 C100.35,23.5488 77.7422,0.9414 50.4961,0.9414 C23.2988,0.9414 0.74023,23.5488 0.74023,50.7461 C0.74023,77.99219 23.3477,100.5508 50.5449,100.5508 Z M50.1551,92.0078 C27.1082,92.0078 8.7,73.5508 8.7,50.5039 C8.7,27.5058 27.0594,9 50.1063,9 C73.1532,9 91.6102,27.5058 91.6593938,50.5039 C91.7082,73.5508 73.202,92.0078 50.1551,92.0078 Z" id="Shape"></path>
                    <path d="M59.2796361,67.0873114 C59.3524924,67.1389395 59.395349,67.1905677 59.4510627,67.2077771 C59.9567713,67.3798709 60.4581942,67.6251047 60.9767598,67.6810352 C61.2767564,67.7068492 61.6581807,67.4917319 61.9024636,67.2508005 C62.3867439,66.7861471 62.7810252,66.1967256 63.2524484,65.7105605 C63.6124444,65.3405587 64.0324396,65.0436968 64.4352922,64.7339279 C65.1552841,64.1746228 65.8795617,64.4929965 66.5952679,64.7597419 C66.6638385,64.7812537 66.7238378,64.8500912 66.7709802,64.9146264 C66.9166928,65.0867203 66.8738362,65.2502094 66.6638385,65.2932329 C66.5224115,65.3233493 66.3766989,65.3233493 66.2352719,65.3491634 C65.8409907,65.430908 65.4295667,65.4739314 65.0524281,65.6202112 C64.8552875,65.6976535 64.7052892,65.9514919 64.5552909,66.1450975 C64.5338625,66.1752139 64.6195759,66.3817265 64.6838608,66.4032383 C65.2195691,66.5925415 65.7552773,66.7947518 66.3252709,66.648472 C66.5095545,66.6054486 66.6809812,66.4978899 66.8566935,66.4290523 C67.1652614,66.3085866 67.4738294,66.1881209 67.7823973,66.0762599 C67.8521558,66.0501529 67.9274855,66.0427389 68.0009663,66.0547482 C68.4466756,66.1407951 68.8880992,66.2483538 69.3338084,66.325796 C69.6914253,66.3837014 69.970539,66.6673822 70.0238006,67.0270785 C70.0538003,67.1905677 70.0752286,67.3368474 69.82666,67.2594052 C69.595234,67.1862653 69.3509511,67.1862653 69.1109538,67.1647536 C69.0680971,67.1647536 69.0038121,67.2163817 68.9823838,67.2594052 C68.7423865,67.7240586 68.3309626,67.7111516 67.9323956,67.8187102 C67.3752591,67.9692924 66.8438365,68.2231308 66.3038426,68.4468528 C66.2095579,68.4898763 66.1409873,68.6017373 66.0338456,68.7049936 C66.4109842,68.7996452 66.7366948,68.8856922 67.0666911,68.9631344 C67.1138334,68.9760414 67.1781184,68.9631344 67.2081181,68.9889485 C67.3195454,69.0922048 67.4224014,69.2040658 67.5252574,69.3202291 C67.4138301,69.3546479 67.3066884,69.4148808 67.1952611,69.4191831 C66.2995836,69.4290021 65.403826,69.4290021 64.5081485,69.4191831 C64.2510086,69.4148808 64.1438669,69.5138347 64.1567239,69.8063943 C64.1651048,69.995735 64.1478037,70.1853406 64.1052959,70.3700017 C64.0924389,70.4431416 63.976726,70.5205838 63.8952983,70.5291885 C63.7139727,70.5456626 63.5313673,70.5413323 63.3510187,70.5162814 C63.0853074,70.4775603 62.8195962,70.4130251 62.5538849,70.3786064 C62.2110316,70.3312806 61.8767496,70.3011641 61.538182,70.2581407 C61.4396117,70.249536 61.3410414,70.2151172 61.2424711,70.1893031 C61.1996144,70.1806984 61.1481864,70.1419773 61.1053298,70.1462797 C60.5610502,70.2194195 60.0124849,70.2925594 59.4682054,70.3872111 C59.3996347,70.3958157 59.3567781,70.5205838 59.2882074,70.5765143 C59.1853514,70.6625612 59.0739241,70.7658175 58.9582111,70.7916316 C58.6667858,70.8561668 58.3667892,70.8776785 58.0667926,70.920702 C58.0367929,70.920702 57.9810793,70.9379114 57.9767936,70.9551208 C57.908223,71.4714024 57.2782301,71.2777968 57.1753741,71.7553572 C57.1625171,71.8069854 57.0296614,71.8198924 56.9053771,71.8715206 C56.9825191,71.9962886 57.0768038,72.0995449 57.1282318,72.2286153 C57.1796597,72.3447787 57.2353734,72.4996631 57.2053737,72.6072218 C57.1025178,72.994433 57.2310877,73.3257137 57.4796564,73.6139709 C57.6853683,73.8549023 57.8010813,74.2033923 57.933937,74.5174636 C58.0367929,74.7497903 58.0925066,75.0036288 58.1910769,75.2402578 C58.3625035,75.6446784 58.5467872,76.0447966 58.7353565,76.4449148 C58.7567848,76.4836359 58.8639265,76.522357 58.8982118,76.5008453 C59.3096357,76.2340998 59.7253453,75.9673544 60.1239123,75.6704925 C60.3981949,75.4639798 60.6681918,75.2402578 60.8953321,74.96921 C61.0539018,74.7842091 61.1224724,74.5002542 61.2596137,74.2894393 C61.3538984,74.1560665 61.499611,74.0700196 61.6238953,73.9624609 C61.6710377,73.9194375 61.7610367,73.8807163 61.7653223,73.8333905 C61.782465,73.4978075 62.0653189,73.4160629 62.2281742,73.2224573 C62.5067425,72.8782696 62.8967381,72.994433 63.2353058,72.9987353 C63.5095884,73.0030377 63.783871,73.119201 64.0495823,73.2009456 C64.1138673,73.2224573 64.1867236,73.3085043 64.2124376,73.3816442 C64.2210089,73.4160629 64.1352956,73.5236216 64.0752963,73.5494357 C63.9630818,73.6000564 63.8424518,73.629237 63.719586,73.6354826 C63.2181768,73.6435144 62.7803976,73.9783587 62.6395982,74.4615331 C62.5049636,74.9545476 62.1686123,75.3672438 61.7138943,75.5973526 C61.4138977,75.7479347 61.1867574,76.0706107 60.9253318,76.3115421 C60.8353328,76.3932867 60.7367625,76.4621242 60.6381922,76.5309617 C60.5953355,76.5610782 60.5310505,76.5610782 60.5096222,76.5954969 C60.4110519,76.7589861 60.3253386,76.9267776 60.2310539,77.0902668 C60.3681952,77.0988715 60.5181935,77.1504996 60.6381922,77.1074762 C60.8610468,77.0300339 61.0581874,76.8837541 61.2767564,76.7934049 C61.3410414,76.7632884 61.4310404,76.832126 61.5038967,76.8493354 C61.538182,76.7891025 61.5596104,76.6858462 61.615324,76.6557298 C61.9410346,76.4836359 62.2838879,76.3545655 62.6053129,76.173867 C62.9267378,75.9931684 63.2138774,75.7049112 63.5481594,75.5973526 C63.9938686,75.4553751 64.2124376,75.0466522 64.5210055,74.745488 C64.6881465,74.5819988 64.8081452,74.3539745 64.9795718,74.2033923 C65.3738531,73.863507 65.8452763,74.0097867 66.2866999,74.001182 C66.4409839,74.001182 66.5995535,73.9581586 66.7409805,74.001182 C66.9038358,74.0442055 67.0709768,74.1345548 67.1952611,74.2593228 C67.2681174,74.3367651 67.3152598,74.6035105 67.2724031,74.6379293 C67.1138334,74.7756044 66.9038358,74.9606053 66.7366948,74.9347912 C66.4366982,74.8917678 66.3252709,75.0208381 66.1581299,75.2531649 C65.9481323,75.5457244 65.6609927,75.7651441 65.3995671,76.0017731 C64.9410008,76.4277054 64.4995772,76.8880565 64.0067256,77.2451512 C63.4581604,77.6409671 62.8624528,77.9421314 62.2796022,78.2777144 C62.0053196,78.4325989 61.7224657,78.5788786 61.4310404,78.707949 C61.2681851,78.7767866 61.0839014,78.793996 60.9081891,78.8327171 C60.8524755,78.8456241 60.7967618,78.8671358 60.7453338,78.8843452 L60.7667622,79.0220203 L61.84675,78.793996 C62.1381753,78.7380655 62.4296006,78.6993443 62.7167402,78.6391115 C62.9310235,78.596088 63.1538781,78.5530646 63.3595901,78.4799247 C63.7354197,78.3263081 64.1429528,78.2672295 64.5467195,78.3078308 C64.9152868,78.3508543 65.2881397,78.3422496 65.6481357,78.4196918 C65.785277,78.4498082 65.9481323,78.6434138 65.990989,78.7982983 C66.0338456,78.9488804 65.9609893,79.1855095 65.862419,79.3059752 C65.8152767,79.3748127 65.605279,79.3274869 65.4767091,79.2801611 C65.1595698,79.1726024 64.8467162,79.0220203 64.5510052,79.3102775 C64.4610062,79.3963245 64.4267209,79.5684183 64.3367219,79.6544652 C64.2124376,79.7620239 64.0495823,79.912606 63.9210123,79.8910943 C62.9610231,79.7319075 62.0181766,80.024467 61.0667588,79.998653 C60.6127114,79.9774661 60.1626067,79.9038409 59.7253453,79.7792333 C59.5153477,79.7233028 59.3524924,79.478069 59.1424948,79.4135338 C58.721011,79.2661363 58.2860431,79.1609342 57.843938,79.0994626 C57.1839454,79.0220203 56.5153815,79.0263227 55.8468176,78.9574851 C55.469679,78.9144617 55.1011118,78.7681819 54.7239731,78.7251584 C54.1368369,78.6649256 53.5497007,78.6520185 52.9668501,78.6262044 C52.5382835,78.6046927 52.5211408,78.5702739 52.4954268,78.1056205 C52.4820137,77.9264829 52.4180965,77.7548762 52.3111432,77.6108507 C52.1487504,77.4099919 51.9615313,77.2307187 51.7540066,77.0773597 C51.6682933,77.0128245 51.5268663,76.9999175 51.4240104,77.0214292 C50.9097304,77.1203832 50.3954505,77.2537559 49.8811706,77.3441052 C49.581174,77.4000357 49.2768917,77.3957334 48.9768951,77.4086404 C48.9297528,77.4086404 48.8826104,77.3656169 48.8354681,77.3484076 C48.8611821,77.2881747 48.8783248,77.2150348 48.9168958,77.1763137 C48.9759206,77.1179974 49.0502325,77.0777128 49.1311791,77.0601504 C49.4097473,77.0343363 49.5854597,76.8751495 49.7440293,76.6256134 C49.8554566,76.4449148 50.0354546,76.1953787 50.1811672,76.1953787 C50.8240171,76.2168905 51.4582957,76.1953787 52.0925742,76.0232849 C52.1782876,76.0017731 52.2940005,76.1265412 52.3925709,76.173867 C52.4997125,76.2254951 52.6068542,76.2685186 52.7182815,76.3072397 C52.9411361,76.3889843 53.1768477,76.4449148 53.391131,76.5481711 C53.6268427,76.6643345 53.8454116,76.8149166 54.0682663,76.956894 C54.2654069,77.0773597 54.4454049,77.2279419 54.6425455,77.3398029 C54.7677395,77.4117555 54.9063108,77.4571495 55.0496838,77.4731756 C55.5382497,77.5161991 56.0268156,77.5764319 56.5110959,77.5592225 C56.6739512,77.5549202 56.8368065,77.3441052 56.9739478,77.1978254 C56.9996618,77.1720114 56.9053771,77.0128245 56.8796631,76.9095682 C56.8496635,76.7891025 56.8539491,76.6514274 56.8068068,76.5395664 C56.6825225,76.2384022 56.5068102,75.950145 56.4125255,75.6360737 C56.2668129,75.1542109 56.1810996,74.6551387 56.0482439,74.1732759 C55.9325309,73.764553 55.8211036,73.3558301 55.5253927,73.0374564 C55.418251,72.9212931 55.4482507,72.6416406 55.418251,72.4351279 L55.353966,72.0651262 C55.2553957,72.1081496 55.1482541,72.125359 55.0582551,72.1812895 C54.7454015,72.3834998 54.5825462,72.3404763 54.4154052,71.9876839 C54.2525499,71.6521009 54.0125526,71.566054 53.7682696,71.8284971 C53.4854157,72.1296614 53.2625611,72.4996631 52.9968498,72.8266415 C52.8254231,73.0460611 52.6368538,73.2783878 52.4225705,73.441877 C52.2682865,73.5623427 52.1182882,73.4590864 52.1011456,73.2138527 C52.0840029,72.9298978 52.1182882,72.6803617 52.3111432,72.4523373 C52.4225705,72.3232669 52.4139992,72.0737309 52.5168552,71.9231487 C52.7739951,71.5359375 53.0439921,71.1659358 53.3311317,70.8174457 C53.416845,70.709887 53.5882717,70.6926776 53.712556,70.6238401 C53.9396963,70.4990721 54.1668366,70.374304 54.3854055,70.2280242 C54.4196909,70.2065125 54.4196909,70.0688374 54.3939769,70.0043022 C54.3296634,69.8073108 54.2493964,69.6159345 54.1539796,69.4320901 C54.0211239,69.1825541 53.8882683,68.9115062 53.7039846,68.7135983 C53.3251391,68.2808224 53.0703753,67.7529551 52.9668501,67.1862653 C52.9239934,66.9926597 52.7268528,66.8377753 52.5811402,66.6871931 C52.4597213,66.5584129 52.3212916,66.4469486 52.1697162,66.3559125 C51.4240104,65.9170731 50.6525905,65.6073042 49.786886,65.7019558 C49.6411733,65.7191652 49.4697467,65.6159089 49.3283197,65.5298619 C48.7711831,65.1727672 48.2483319,64.7253232 47.6611956,64.4585777 C47.0740594,64.1918322 46.4054955,64.1445064 45.8012166,63.9078773 C44.7555141,63.4948521 43.6755263,63.6282248 42.6083955,63.5593873 C41.7352602,63.5043523 40.8601093,63.4885612 39.9855679,63.5120615 C39.0969166,63.5378568 38.2093235,63.5923814 37.3241693,63.6755506 C36.6213201,63.7400858 35.9098996,63.7960163 35.2199073,63.9509008 C34.5498187,64.0950409 33.8984215,64.3159055 33.2785007,64.6091598 C32.1813702,65.1469531 31.118525,65.7750957 30.0385372,66.3559125 C29.425687,66.6871931 28.7956941,66.984055 28.1957008,67.3282428 C27.6728496,67.629407 27.1842837,67.9908041 26.6700037,68.2962707 C26.1771522,68.5888303 25.6843006,68.8813898 25.165735,69.1094142 C24.6043127,69.3546479 24.0043195,69.4966253 23.4428973,69.7375567 C23.0443303,69.9096506 22.6886201,70.1936055 22.3071958,70.4130251 C21.8861362,70.659178 21.4588577,70.8944503 21.0257817,71.1186099 C20.5757867,71.3466343 20.1172205,71.5832634 19.6500829,71.7639619 C19.3415149,71.8844276 19.007233,71.9274511 18.6815224,71.9876839 C18.4286681,72.0393121 18.2058135,71.9876839 18.0601008,71.7123338 C17.9572448,71.5144258 17.8372462,71.3337273 17.7472472,71.131517 C17.5886776,70.7615152 17.8758172,70.4904674 17.9272452,70.1677914 C17.9786732,69.8666271 18.1543855,69.8106966 18.3558118,69.6988356 C18.5958091,69.5697652 18.775807,69.3116244 19.0029473,69.1524376 C19.3800859,68.8942968 19.7829385,68.6791795 20.1557915,68.412434 C20.5072161,68.1585956 20.841498,67.8660361 21.1843513,67.5949882 C21.278636,67.5218483 21.3900633,67.4573131 21.4972049,67.3927779 C21.7157739,67.2594052 21.9343428,67.1131254 22.1614831,66.9969621 C22.3886234,66.8807987 22.6329064,66.8076588 22.8600467,66.6871931 C23.4600399,66.3688195 24.0686045,66.0547482 24.6643121,65.7105605 C25.178592,65.4093962 25.7014432,65.108232 26.1814378,64.7425326 C26.5242911,64.4843918 26.7942881,64.1229947 27.0985703,63.8132257 C27.321425,63.5852014 27.5528509,63.3657817 27.7757056,63.1420597 C27.9385609,62.9699658 28.0842735,62.7763602 28.2599858,62.6257781 C28.8342651,62.1353106 29.4085443,61.6448431 29.9999662,61.1801897 C30.7113867,60.6208847 31.4313786,60.0873937 32.1556562,59.5452981 C32.8970764,58.9902954 33.6470679,58.4438974 34.3927738,57.8974994 C34.7013418,57.669475 35.018481,57.4586601 35.3227633,57.222031 C35.3827626,57.1704029 35.3999053,57.0370301 35.4256193,56.9423785 C35.4384763,56.8950527 35.417048,56.8305175 35.4341906,56.787494 C35.6141886,56.4174922 35.8027579,56.0560951 35.9741845,55.6774886 C36.0513265,55.5183018 36.0598979,55.2988822 36.1584682,55.1741141 C36.5441781,54.6965537 36.9641734,54.2405049 37.3713117,53.7801539 C37.4270253,53.7242234 37.4998816,53.6855023 37.5427383,53.6209671 C37.9027342,53.160616 38.2455875,52.6830555 38.6098691,52.2313092 C38.9098657,51.8527027 39.2612903,51.5171197 39.5527156,51.1299085 C39.9898536,50.5447894 40.3841348,49.9209491 40.8169871,49.33583 C41.086984,48.9744329 41.4255517,48.6732687 41.6912629,48.3118716 C42.0341162,47.8429158 42.3341128,47.3309366 42.6683948,46.8490738 C42.8398214,46.6081424 43.0541047,46.4059321 43.2512454,46.1822101 L43.6583836,45.6831379 C43.7698109,45.5497652 43.8855239,45.4249971 44.0012369,45.2959267 C44.0269509,45.2701127 44.0655219,45.2572056 44.0869502,45.2270892 C44.3869468,44.7882499 44.6783721,44.3365035 44.9955114,43.9105712 C45.1840807,43.6524304 45.424078,43.4373131 45.616933,43.1791723 C45.8955013,42.8263799 46.1483555,42.4477734 46.4226382,42.0863763 C46.6448047,41.7828546 46.879285,41.4886134 47.1254874,41.2043953 C47.5111973,40.7741606 47.9140499,40.3654377 48.3083312,39.9481101 L49.8768849,38.3003115 C50.2197382,37.9432167 50.5540202,37.5732149 50.9097304,37.2376319 C51.1497277,37.0182122 51.441153,36.8719324 51.6811503,36.6482104 C52.1911446,36.1878594 52.6968531,35.7189036 53.1725621,35.2112267 C53.4854157,34.8799461 53.7425556,34.4798278 54.0296953,34.1055237 L54.1882649,33.8990111 C54.4539762,33.5591257 54.7411158,33.2364497 54.9811131,32.879355 C55.2967184,32.406279 55.5940778,31.9211893 55.8725316,31.4251619 C56.2625272,30.7367865 56.6439515,30.0398063 57.0125188,29.3342215 C57.3896574,28.620032 57.7367963,27.8843308 58.1267919,27.1830483 C58.5210732,26.4688588 58.9539255,25.7847857 59.3696351,25.0878056 C59.5067764,24.8511766 59.6096323,24.5887334 59.7639163,24.3650114 C59.9910566,24.0337307 60.2439109,23.7325665 60.4839082,23.4184952 C61.0067594,22.7258174 61.6838947,22.274071 62.3781726,21.8567434 C62.6653122,21.6846496 63.0081655,21.6373238 63.3295904,21.5469745 C63.7752997,21.4179041 64.2252946,21.2845314 64.6752895,21.1898797 C65.1295701,21.0995305 65.5838507,21.0091812 66.042417,21.0002782 C66.4324126,20.9919718 66.8309795,21.1726704 67.2124038,21.1382516 C68.0395373,21.0651117 68.7981002,21.4609276 69.5995197,21.5125557 C70.3568849,21.5592483 71.0872901,21.8120924 71.712353,22.2439546 C72.0037783,22.4418626 72.2437756,22.7344221 72.5223439,22.9710512 C72.7151989,23.1345403 72.9466248,23.2507037 73.1394798,23.4227975 C73.4309051,23.6809383 73.700902,23.9648932 73.983756,24.2316387 C74.0394696,24.2875692 74.1037546,24.3521044 74.1723253,24.3607091 C75.2351705,24.4381513 76.3023013,24.5026865 77.3694321,24.5844311 C77.4851451,24.5930358 77.6822857,24.6489663 77.6951427,24.7221062 C77.716571,24.8425719 77.6651431,25.0576892 77.5794297,25.117922 C77.3522894,25.2771088 77.0951495,25.3717605 76.8508665,25.4965285 C76.6580116,25.5911801 76.4565853,25.6686224 76.2808729,25.7976928 C75.9808763,26.0128101 75.6937367,26.2580438 75.4108828,26.5032776 C75.2608844,26.632348 75.1323145,26.7915348 74.9908875,26.9335122 C74.7551759,27.1830483 74.5194642,27.4368868 74.2794669,27.6778181 C73.8270648,28.1189088 73.5153214,28.6849263 73.3837628,29.3041051 C73.2594784,29.8591078 73.0751948,30.3969011 72.9466248,30.9476014 C72.8480545,31.352022 72.7751982,31.7693496 72.7366272,32.1866772 C72.6851992,32.7545869 72.6723422,33.326799 72.6509139,33.8990111 C72.6294855,34.3722692 72.5737719,34.8455273 72.6209142,35.3101807 C72.6937705,35.9942538 72.9680532,36.605187 73.2637641,37.2032131 C73.4223338,37.5129821 73.5209041,37.8614721 73.6709024,38.1712411 C73.7609014,38.3605443 73.919471,38.5025217 74.0266127,38.6875226 C74.112326,38.8251977 74.1680396,38.9886869 74.228039,39.1435714 C74.3866086,39.5522943 74.5708922,39.9524125 74.6866052,40.3740424 C74.7937469,40.7741606 74.8751745,41.1957906 74.8794602,41.6088159 C74.8794602,42.1466092 74.7680329,42.6844025 74.7551759,43.2264981 C74.7337475,44.3494105 74.7337475,45.4723229 74.7551759,46.5952354 C74.7637472,47.249192 74.6008919,47.8515205 74.4380366,48.4624537 C74.2794669,49.0690845 74.1594683,49.6886224 74.022327,50.303858 C74.00947,50.3468814 74.00947,50.3985096 73.996613,50.4372307 C73.7823297,51.0395592 73.5680464,51.6418877 73.3623344,52.2485186 C73.1909078,52.7648001 72.9680532,53.2681747 72.8651972,53.8016656 C72.7109132,54.6062044 72.2994893,55.247254 71.9652073,55.9442341 C71.5537834,56.8004011 71.1252168,57.6479633 70.6966502,58.4955256 C70.5209379,58.848318 70.3537969,59.2140174 70.122371,59.519484 C69.8566597,59.8636717 69.5309491,60.1519289 69.2223811,60.4487908 C68.9523841,60.7069316 68.6652445,60.9392583 68.3909619,61.1887944 C68.0781083,61.4770516 67.7566833,61.7610065 67.4566867,62.0664731 C67.0581198,62.4708936 66.6981239,62.92264 66.2866999,63.3012465 C65.981059,63.5992334 65.6095097,63.820377 65.2024264,63.9465985 C64.8552875,64.0455524 64.5467195,64.3424143 64.2167233,64.5403223 C64.0367253,64.6521833 63.8395847,64.7382302 63.6510154,64.8500912 C63.4795887,64.9533475 63.3210191,65.0910226 63.1367354,65.1770695 C62.8624528,65.3147446 62.5710275,65.4223033 62.2881736,65.542769 C62.2624596,65.5513737 62.2324599,65.5513737 62.2067459,65.5685831 C61.7353227,65.8267238 61.2638994,66.0934693 60.7924762,66.3430054 C60.5053365,66.4849829 60.1967686,66.5796345 59.909629,66.7173096 C59.703917,66.8162635 59.5153477,66.9453339 59.2796361,67.0873114 L59.2796361,67.0873114 Z M61.7,71.2807131 L55.8157143,69.0002782 L55.7,69.5080142 C55.9528571,69.6962267 56.2142857,69.858177 56.4457143,70.0901598 C56.6814286,70.3221426 56.9771429,70.5585024 57.08,70.8955341 C57.41,71.9722845 57.6714286,73.0971823 57.9457143,74.208949 C58.1471429,75.0230774 58.4857143,75.2681913 58.9828571,74.6641606 C59.9257143,73.5173776 60.8557143,72.3399554 61.7,71.2807131 L61.7,71.2807131 Z" id="Shape"></path>
                </g>
            </g>
        </g>
    </g>
</svg>