<?xml version="1.0" encoding="UTF-8"?>
<!--Generator: Apple Native CoreSVG 341-->
<!DOCTYPE svg
PUBLIC "-//W3C//DTD SVG 1.1//EN"
       "http://www.w3.org/Graphics/SVG/1.1/DTD/svg11.dtd">
<svg version="1.1" xmlns="http://www.w3.org/2000/svg" xmlns:xlink="http://www.w3.org/1999/xlink" viewBox="0 0 3300 2200">
 <!--glyph: "", point size: 100.0, font version: "20.0d10e1", template writer version: "138.0.0"-->
 <style>.monochrome-0 {-sfsymbols-motion-group:1;-sfsymbols-layer-tags:-47aade8caa163015}
.monochrome-1 {-sfsymbols-motion-group:0;-sfsymbols-layer-tags:-47aade8caa163015}

.multicolor-0:custom {fill:#DD3F14;-sfsymbols-motion-group:1;-sfsymbols-layer-tags:-47aade8caa163015}
.multicolor-1:custom {fill:#DD3F14;opacity:0.5;-sfsymbols-motion-group:0;-sfsymbols-layer-tags:-47aade8caa163015}

.hierarchical-0:primary {-sfsymbols-motion-group:1;-sfsymbols-layer-tags:-47aade8caa163015}
.hierarchical-1:secondary {-sfsymbols-motion-group:0;-sfsymbols-layer-tags:-47aade8caa163015}

.SFSymbolsPreviewWireframe {fill:none;opacity:1.0;stroke:black;stroke-width:0.5}
</style>
 <g id="Notes">
  <rect height="2200" id="artboard" style="fill:white;opacity:1" width="3300" x="0" y="0"/>
  <line style="fill:none;stroke:black;opacity:1;stroke-width:0.5;" x1="263" x2="3036" y1="292" y2="292"/>
  <text style="stroke:none;fill:black;font-family:sans-serif;font-size:13;font-weight:bold;" transform="matrix(1 0 0 1 263 322)">Weight/Scale Variations</text>
  <text style="stroke:none;fill:black;font-family:sans-serif;font-size:13;text-anchor:middle;" transform="matrix(1 0 0 1 559.711 322)">Ultralight</text>
  <text style="stroke:none;fill:black;font-family:sans-serif;font-size:13;text-anchor:middle;" transform="matrix(1 0 0 1 856.422 322)">Thin</text>
  <text style="stroke:none;fill:black;font-family:sans-serif;font-size:13;text-anchor:middle;" transform="matrix(1 0 0 1 1153.13 322)">Light</text>
  <text style="stroke:none;fill:black;font-family:sans-serif;font-size:13;text-anchor:middle;" transform="matrix(1 0 0 1 1449.84 322)">Regular</text>
  <text style="stroke:none;fill:black;font-family:sans-serif;font-size:13;text-anchor:middle;" transform="matrix(1 0 0 1 1746.56 322)">Medium</text>
  <text style="stroke:none;fill:black;font-family:sans-serif;font-size:13;text-anchor:middle;" transform="matrix(1 0 0 1 2043.27 322)">Semibold</text>
  <text style="stroke:none;fill:black;font-family:sans-serif;font-size:13;text-anchor:middle;" transform="matrix(1 0 0 1 2339.98 322)">Bold</text>
  <text style="stroke:none;fill:black;font-family:sans-serif;font-size:13;text-anchor:middle;" transform="matrix(1 0 0 1 2636.69 322)">Heavy</text>
  <text style="stroke:none;fill:black;font-family:sans-serif;font-size:13;text-anchor:middle;" transform="matrix(1 0 0 1 2933.4 322)">Black</text>
  <line style="fill:none;stroke:black;opacity:1;stroke-width:0.5;" x1="263" x2="3036" y1="1903" y2="1903"/>
  <g transform="matrix(0.2 0 0 0.2 263 1933)">
   <path d="m46.2402 4.15039c21.7773 0 39.4531-17.627 39.4531-39.4043s-17.6758-39.4043-39.4531-39.4043c-21.7285 0-39.4043 17.627-39.4043 39.4043s17.6758 39.4043 39.4043 39.4043Zm0-7.42188c-17.6758 0-31.9336-14.3066-31.9336-31.9824s14.2578-31.9824 31.9336-31.9824 31.9824 14.3066 31.9824 31.9824-14.3066 31.9824-31.9824 31.9824Zm-17.9688-31.9824c0 2.14844 1.51367 3.61328 3.75977 3.61328h10.498v10.5957c0 2.19727 1.46484 3.71094 3.61328 3.71094 2.24609 0 3.71094-1.51367 3.71094-3.71094v-10.5957h10.5957c2.19727 0 3.71094-1.46484 3.71094-3.61328 0-2.19727-1.51367-3.71094-3.71094-3.71094h-10.5957v-10.5469c0-2.24609-1.46484-3.75977-3.71094-3.75977-2.14844 0-3.61328 1.51367-3.61328 3.75977v10.5469h-10.498c-2.24609 0-3.75977 1.51367-3.75977 3.71094Z"/>
  </g>
  <g transform="matrix(0.2 0 0 0.2 281.506 1933)">
   <path d="m58.5449 14.5508c27.4902 0 49.8047-22.3145 49.8047-49.8047s-22.3145-49.8047-49.8047-49.8047-49.8047 22.3145-49.8047 49.8047 22.3145 49.8047 49.8047 49.8047Zm0-8.30078c-22.9492 0-41.5039-18.5547-41.5039-41.5039s18.5547-41.5039 41.5039-41.5039 41.5039 18.5547 41.5039 41.5039-18.5547 41.5039-41.5039 41.5039Zm-22.6562-41.5039c0 2.39258 1.66016 4.00391 4.15039 4.00391h14.3555v14.4043c0 2.44141 1.66016 4.15039 4.05273 4.15039 2.44141 0 4.15039-1.66016 4.15039-4.15039v-14.4043h14.4043c2.44141 0 4.15039-1.61133 4.15039-4.00391 0-2.44141-1.70898-4.15039-4.15039-4.15039h-14.4043v-14.3555c0-2.49023-1.70898-4.19922-4.15039-4.19922-2.39258 0-4.05273 1.70898-4.05273 4.19922v14.3555h-14.3555c-2.49023 0-4.15039 1.70898-4.15039 4.15039Z"/>
  </g>
  <g transform="matrix(0.2 0 0 0.2 304.924 1933)">
   <path d="m74.8535 28.3203c35.1074 0 63.623-28.4668 63.623-63.5742s-28.5156-63.623-63.623-63.623-63.5742 28.5156-63.5742 63.623 28.4668 63.5742 63.5742 63.5742Zm0-9.08203c-30.127 0-54.4922-24.3652-54.4922-54.4922s24.3652-54.4922 54.4922-54.4922 54.4922 24.3652 54.4922 54.4922-24.3652 54.4922-54.4922 54.4922Zm-28.8574-54.4922c0 2.58789 1.85547 4.39453 4.58984 4.39453h19.7266v19.7754c0 2.68555 1.85547 4.58984 4.44336 4.58984 2.68555 0 4.54102-1.85547 4.54102-4.58984v-19.7754h19.7754c2.68555 0 4.58984-1.80664 4.58984-4.39453 0-2.73438-1.85547-4.58984-4.58984-4.58984h-19.7754v-19.7266c0-2.73438-1.85547-4.63867-4.54102-4.63867-2.58789 0-4.44336 1.9043-4.44336 4.63867v19.7266h-19.7266c-2.73438 0-4.58984 1.85547-4.58984 4.58984Z"/>
  </g>
  <text style="stroke:none;fill:black;font-family:sans-serif;font-size:13;font-weight:bold;" transform="matrix(1 0 0 1 263 1953)">Design Variations</text>
  <text style="stroke:none;fill:black;font-family:sans-serif;font-size:13;" transform="matrix(1 0 0 1 263 1971)">Symbols are supported in up to nine weights and three scales.</text>
  <text style="stroke:none;fill:black;font-family:sans-serif;font-size:13;" transform="matrix(1 0 0 1 263 1989)">For optimal layout with text and other symbols, vertically align</text>
  <text style="stroke:none;fill:black;font-family:sans-serif;font-size:13;" transform="matrix(1 0 0 1 263 2007)">symbols with the adjacent text.</text>
  <line style="fill:none;stroke:#00AEEF;stroke-width:0.5;opacity:1.0;" x1="776" x2="776" y1="1919" y2="1933"/>
  <g transform="matrix(0.2 0 0 0.2 776 1933)">
   <path d="m16.5527 0.78125c2.58789 0 3.85742-0.976562 4.78516-3.71094l6.29883-17.2363h28.8086l6.29883 17.2363c0.927734 2.73438 2.19727 3.71094 4.73633 3.71094 2.58789 0 4.24805-1.5625 4.24805-4.00391 0-0.830078-0.146484-1.61133-0.537109-2.63672l-22.9004-60.9863c-1.12305-2.97852-3.125-4.49219-6.25-4.49219-3.02734 0-5.07812 1.46484-6.15234 4.44336l-22.9004 61.084c-0.390625 1.02539-0.537109 1.80664-0.537109 2.63672 0 2.44141 1.5625 3.95508 4.10156 3.95508Zm13.4766-28.3691 11.8652-32.8613h0.244141l11.8652 32.8613Z"/>
  </g>
  <line style="fill:none;stroke:#00AEEF;stroke-width:0.5;opacity:1.0;" x1="792.836" x2="792.836" y1="1919" y2="1933"/>
  <text style="stroke:none;fill:black;font-family:sans-serif;font-size:13;font-weight:bold;" transform="matrix(1 0 0 1 776 1953)">Margins</text>
  <text style="stroke:none;fill:black;font-family:sans-serif;font-size:13;" transform="matrix(1 0 0 1 776 1971)">Leading and trailing margins on the left and right side of each symbol</text>
  <text style="stroke:none;fill:black;font-family:sans-serif;font-size:13;" transform="matrix(1 0 0 1 776 1989)">can be adjusted by modifying the x-location of the margin guidelines.</text>
  <text style="stroke:none;fill:black;font-family:sans-serif;font-size:13;" transform="matrix(1 0 0 1 776 2007)">Modifications are automatically applied proportionally to all</text>
  <text style="stroke:none;fill:black;font-family:sans-serif;font-size:13;" transform="matrix(1 0 0 1 776 2025)">scales and weights.</text>
  <g transform="matrix(0.2 0 0 0.2 1289 1933)">
   <path d="m14.209 9.32617 8.49609 8.54492c4.29688 4.3457 9.22852 4.05273 13.8672-1.07422l53.4668-58.9355-4.83398-4.88281-53.0762 58.3984c-1.75781 2.00195-3.41797 2.49023-5.76172 0.146484l-5.85938-5.81055c-2.34375-2.29492-1.80664-4.00391 0.195312-5.81055l57.373-54.0039-4.88281-4.83398-57.959 54.4434c-4.93164 4.58984-5.32227 9.47266-1.02539 13.8184Zm32.0801-90.9668c-2.09961 2.05078-2.24609 4.93164-1.07422 6.88477 1.17188 1.80664 3.4668 2.97852 6.68945 2.14844 7.32422-1.70898 14.9414-2.00195 22.0703 2.68555l-2.92969 7.27539c-1.70898 4.15039-0.830078 7.08008 1.85547 9.81445l11.4746 11.5723c2.44141 2.44141 4.49219 2.53906 7.32422 2.05078l5.32227-0.976562 3.32031 3.36914-0.195312 2.7832c-0.195312 2.49023 0.439453 4.39453 2.88086 6.78711l3.80859 3.71094c2.39258 2.39258 5.46875 2.53906 7.8125 0.195312l14.5508-14.5996c2.34375-2.34375 2.24609-5.32227-0.146484-7.71484l-3.85742-3.80859c-2.39258-2.39258-4.24805-3.17383-6.64062-2.97852l-2.88086 0.244141-3.22266-3.17383 1.2207-5.61523c0.634766-2.83203-0.146484-5.0293-3.07617-7.95898l-10.9863-10.9375c-16.6992-16.6016-38.8672-16.2109-53.3203-1.75781Zm7.4707 1.85547c12.1582-8.88672 28.6133-7.37305 39.7461 3.75977l12.1582 12.0605c1.17188 1.17188 1.36719 2.09961 1.02539 3.80859l-1.61133 7.42188 7.51953 7.42188 4.93164-0.292969c1.26953-0.0488281 1.66016 0.0488281 2.63672 1.02539l2.88086 2.88086-12.207 12.207-2.88086-2.88086c-0.976562-0.976562-1.12305-1.36719-1.07422-2.68555l0.341797-4.88281-7.4707-7.42188-7.61719 1.26953c-1.61133 0.341797-2.34375 0.195312-3.56445-0.976562l-10.0098-10.0098c-1.26953-1.17188-1.41602-2.00195-0.634766-3.85742l4.39453-10.4492c-7.8125-7.27539-17.9688-10.4004-28.125-7.42188-0.78125 0.195312-1.07422-0.439453-0.439453-0.976562Z"/>
  </g>
  <text style="stroke:none;fill:black;font-family:sans-serif;font-size:13;font-weight:bold;" transform="matrix(1 0 0 1 1289 1953)">Exporting</text>
  <text style="stroke:none;fill:black;font-family:sans-serif;font-size:13;" transform="matrix(1 0 0 1 1289 1971)">Symbols should be outlined when exporting to ensure the</text>
  <text style="stroke:none;fill:black;font-family:sans-serif;font-size:13;" transform="matrix(1 0 0 1 1289 1989)">design is preserved when submitting to Xcode.</text>
  <text id="template-version" style="stroke:none;fill:black;font-family:sans-serif;font-size:13;text-anchor:end;" transform="matrix(1 0 0 1 3036 1933)">Template v.6.0</text>
  <text style="stroke:none;fill:black;font-family:sans-serif;font-size:13;text-anchor:end;" transform="matrix(1 0 0 1 3036 1951)">Requires Xcode 16 or greater</text>
  <text id="descriptive-name" style="stroke:none;fill:black;font-family:sans-serif;font-size:13;text-anchor:end;" transform="matrix(1 0 0 1 3036 1969)">Generated from filterroteliste-5</text>
  <text style="stroke:none;fill:black;font-family:sans-serif;font-size:13;text-anchor:end;" transform="matrix(1 0 0 1 3036 1987)">Typeset at 100.0 points</text>
  <text style="stroke:none;fill:black;font-family:sans-serif;font-size:13;" transform="matrix(1 0 0 1 263 726)">Small</text>
  <text style="stroke:none;fill:black;font-family:sans-serif;font-size:13;" transform="matrix(1 0 0 1 263 1156)">Medium</text>
  <text style="stroke:none;fill:black;font-family:sans-serif;font-size:13;" transform="matrix(1 0 0 1 263 1586)">Large</text>
 </g>
 <g id="Guides">
  <g id="H-reference" style="fill:#27AAE1;stroke:none;" transform="matrix(1 0 0 1 339 696)">
   <path d="M0.993654 0L3.63775 0L29.3281-67.1323L30.0303-67.1323L30.0303-70.459L28.1226-70.459ZM11.6885-24.4799L46.9815-24.4799L46.2315-26.7285L12.4385-26.7285ZM55.1196 0L57.7637 0L30.6382-70.459L29.4326-70.459L29.4326-67.1323Z"/>
  </g>
  <line id="Baseline-S" style="fill:none;stroke:#27AAE1;opacity:1;stroke-width:0.5;" x1="263" x2="3036" y1="696" y2="696"/>
  <line id="Capline-S" style="fill:none;stroke:#27AAE1;opacity:1;stroke-width:0.5;" x1="263" x2="3036" y1="625.541" y2="625.541"/>
  <g id="H-reference" style="fill:#27AAE1;stroke:none;" transform="matrix(1 0 0 1 339 1126)">
   <path d="M0.993654 0L3.63775 0L29.3281-67.1323L30.0303-67.1323L30.0303-70.459L28.1226-70.459ZM11.6885-24.4799L46.9815-24.4799L46.2315-26.7285L12.4385-26.7285ZM55.1196 0L57.7637 0L30.6382-70.459L29.4326-70.459L29.4326-67.1323Z"/>
  </g>
  <line id="Baseline-M" style="fill:none;stroke:#27AAE1;opacity:1;stroke-width:0.5;" x1="263" x2="3036" y1="1126" y2="1126"/>
  <line id="Capline-M" style="fill:none;stroke:#27AAE1;opacity:1;stroke-width:0.5;" x1="263" x2="3036" y1="1055.54" y2="1055.54"/>
  <g id="H-reference" style="fill:#27AAE1;stroke:none;" transform="matrix(1 0 0 1 339 1556)">
   <path d="M0.993654 0L3.63775 0L29.3281-67.1323L30.0303-67.1323L30.0303-70.459L28.1226-70.459ZM11.6885-24.4799L46.9815-24.4799L46.2315-26.7285L12.4385-26.7285ZM55.1196 0L57.7637 0L30.6382-70.459L29.4326-70.459L29.4326-67.1323Z"/>
  </g>
  <line id="Baseline-L" style="fill:none;stroke:#27AAE1;opacity:1;stroke-width:0.5;" x1="263" x2="3036" y1="1556" y2="1556"/>
  <line id="Capline-L" style="fill:none;stroke:#27AAE1;opacity:1;stroke-width:0.5;" x1="263" x2="3036" y1="1485.54" y2="1485.54"/>
  <line id="right-margin-Black-S" style="fill:none;stroke:#00AEEF;stroke-width:0.5;opacity:1.0;" x1="2982.23" x2="2982.23" y1="600.785" y2="720.121"/>
  <line id="left-margin-Black-S" style="fill:none;stroke:#00AEEF;stroke-width:0.5;opacity:1.0;" x1="2884.57" x2="2884.57" y1="600.785" y2="720.121"/>
  <line id="right-margin-Regular-S" style="fill:none;stroke:#00AEEF;stroke-width:0.5;opacity:1.0;" x1="1496.11" x2="1496.11" y1="600.785" y2="720.121"/>
  <line id="left-margin-Regular-S" style="fill:none;stroke:#00AEEF;stroke-width:0.5;opacity:1.0;" x1="1403.58" x2="1403.58" y1="600.785" y2="720.121"/>
  <line id="right-margin-Ultralight-S" style="fill:none;stroke:#FF3B30;stroke-width:0.5;opacity:1.0;" x1="603.773" x2="603.773" y1="600.785" y2="720.121"/>
  <line id="left-margin-Ultralight-S" style="fill:none;stroke:#00AEEF;stroke-width:0.5;opacity:1.0;" x1="515.649" x2="515.649" y1="600.785" y2="720.121"/>
 </g>
 <g id="Symbols">
  <g id="Black-S" transform="matrix(1 0 0 1 2884.57 696)">
   <path class="monochrome-0 multicolor-0:custom hierarchical-0:primary SFSymbolsPreviewWireframe" d="M28.8309 4.89848C29.5536 2.94915 31.6926 1.96499 33.6085 2.70031C37.8478 4.32731 42.3332 5.26338 46.941 5.45853C48.9869 5.54517 50.5764 7.30288 50.4912 9.38449C50.4061 11.4661 48.6785 13.0833 46.6326 12.9967C41.2321 12.768 35.9675 11.6693 30.9914 9.75945C29.0755 9.02414 28.1082 6.84781 28.8309 4.89848ZM71.8183-2.17606C73.5178-3.32798 75.8267-2.88026 76.9754-1.17606C78.1241 0.528148 77.6777 2.8435 75.9782 3.99542C71.5409 7.00306 66.6504 9.28779 61.4755 10.7506C59.5011 11.3087 57.4494 10.1562 56.8929 8.17636C56.3363 6.19652 57.4856 4.13911 59.46 3.58101C63.8682 2.33492 68.0352 0.388165 71.8183-2.17606ZM9.36363-13.8669C11.021-14.887 13.2344-14.4366 14.3074-12.8609C16.6987-9.3493 19.667-6.21596 23.0908-3.58611C24.6266-2.40645 24.8658-0.266513 23.625 1.19358C22.3842 2.65368 20.1333 2.88103 18.5975 1.70138C14.5859-1.37998 11.1082-5.05098 8.3055-9.16679C7.23251-10.7425 7.70625-12.8468 9.36363-13.8669ZM87.0423-22.6542C87.7293-24.451 89.8631-25.3932 91.8084-24.7587C93.7537-24.1241 94.7737-22.1532 94.0868-20.3564C92.2886-15.6533 89.6859-11.2547 86.3891-7.31775C85.1269-5.81048 82.7808-5.5337 81.149-6.69955C79.5172-7.86539 79.2175-10.0324 80.4797-11.5396C83.2916-14.8975 85.5103-18.6471 87.0423-22.6542ZM4.0121-41.8261L4.20238-41.8191C6.11452-41.6973 7.56752-40.0223 7.44774-38.0779C7.39457-37.2147 7.36803-36.3489 7.36803-35.4673C7.36919-31.9497 7.80679-28.4939 8.66133-25.1563C9.14404-23.2709 8.03233-21.3446 6.17826-20.8538C4.32418-20.3629 2.42984-21.4934 1.94713-23.3787C0.944489-27.2948 0.431362-31.3471 0.43-35.4661C0.43-36.4957 0.461049-37.5086 0.523285-38.519C0.643058-40.4634 2.29025-41.9409 4.20238-41.8191L4.0121-41.8261ZM90.6448-52.2132C92.5877-52.7861 94.6457-51.7359 95.2415-49.8675C96.6869-45.3348 97.4298-40.5954 97.43-35.7639C97.43-35.4237 97.4264-35.0856 97.4191-34.7477C97.377-32.7939 95.6957-31.2429 93.6639-31.2834C91.6322-31.3239 90.0192-32.9406 90.0614-34.8944C90.0676-35.1834 90.0707-35.4725 90.0707-35.7638C90.0705-39.8901 89.4372-43.9305 88.2055-47.7929C87.6098-49.6613 88.7019-51.6403 90.6448-52.2132ZM11.8101-66.94C13.0919-68.4192 15.3629-68.6068 16.8825-67.359C18.402-66.1112 18.5947-63.9005 17.3129-62.4212C14.4562-59.1245 12.1527-55.4066 10.4992-51.4041C9.75746-49.6086 7.66094-48.7384 5.81651-49.4605C3.97207-50.1826 3.07818-52.2235 3.81994-54.019C5.76018-58.7155 8.4615-63.0757 11.8101-66.94ZM72.0812-74.1556C73.2972-75.7002 75.6147-76.0255 77.2575-74.8822C81.5488-71.8956 85.3145-68.2829 88.4034-64.1885C89.5859-62.6211 89.193-60.4492 87.5259-59.3374C85.8589-58.2256 83.5488-58.595 82.3664-60.1624C79.7304-63.6563 76.5161-66.74 72.8539-69.2888C71.2112-70.4321 70.8652-72.6111 72.0812-74.1556ZM37.6374-82.8488C39.6097-83.3044 41.5859-82.1091 42.0515-80.1791C42.517-78.249 41.2955-76.3152 39.3232-75.8596C34.9151-74.8414 30.7222-73.1392 26.8835-70.8269C25.1578-69.7873 22.8976-70.3136 21.8353-72.0024C20.773-73.6911 21.3108-75.9028 23.0365-76.9424C27.5402-79.6553 32.4622-81.6535 37.6374-82.8488ZM48.9684-84C54.354-84 59.629-83.1669 64.6463-81.5505C66.5815-80.9271 67.6338-78.8866 66.9967-76.9929C66.3596-75.0992 64.2744-74.0694 62.3392-74.6929C58.0641-76.0702 53.5677-76.7803 48.9684-76.7803C46.931-76.7803 45.2795-78.3965 45.2795-80.3901C45.2795-82.3838 46.931-84 48.9684-84ZM50.6866-60.4116C51.7578-62.0504 53.9286-62.4932 55.5354-61.4007C57.1421-60.3082 57.5763-58.094 56.5051-56.4553L45.4655-39.567L60.9276-39.5662C63.6595-39.5662 65.313-36.5283 63.9334-34.1775L63.8369-34.0218L49.1734-11.5884C48.1022-9.94964 45.9314-9.50681 44.3246-10.5993C42.7179-11.6918 42.2837-13.906 43.3549-15.5447L54.3938-32.4346L38.9324-32.4338C36.2005-32.4338 34.547-35.4717 35.9266-37.8225L36.0231-37.9782L50.6866-60.4116Z"/>
   <path class="monochrome-1 multicolor-1:custom hierarchical-1:secondary SFSymbolsPreviewWireframe" d="M48.93-84C75.7158-84 97.43-62.2858 97.43-35.5C97.43-8.71425 75.7157 13 48.93 13C22.1442 13 0.43-8.71423 0.43-35.5C0.43-62.2858 22.1442-84 48.93-84ZM48.93-71C30.4285-71 15.43-55.1061 15.43-35.5C15.43-15.8939 30.4285 0 48.93 0C67.4315 0 82.43-15.8939 82.43-35.5C82.43-55.1061 67.4315-71 48.93-71Z"/>
  </g>
  <g id="Regular-S" transform="matrix(1 0 0 1 1403.58 696)">
   <path class="monochrome-0 multicolor-0:custom hierarchical-0:primary SFSymbolsPreviewWireframe" d="M27.3569 2.31608C28.0424 0.467233 30.0711-0.466192 31.8883 0.231218C35.909 1.77435 40.1632 2.66218 44.5335 2.84726C46.474 2.92944 47.9815 4.59655 47.9008 6.57085C47.82 8.54516 46.1815 10.079 44.241 9.99685C39.1189 9.77992 34.1257 8.73786 29.406 6.92649C27.5889 6.22908 26.6715 4.16493 27.3569 2.31608ZM68.1285-4.39378C69.7403-5.48633 71.9303-5.06169 73.0198-3.44533C74.1093-1.82897 73.6858 0.36703 72.0739 1.45958C67.8654 4.31218 63.227 6.47914 58.3188 7.86659C56.4462 8.39592 54.5003 7.30279 53.9724 5.425C53.4445 3.54721 54.5346 1.59586 56.4072 1.06652C60.5882-0.115338 64.5404-1.96174 68.1285-4.39378ZM8.89313-15.482C10.4651-16.4496 12.5644-16.0224 13.5821-14.5279C15.8501-11.1973 18.6654-8.22545 21.9128-5.73115C23.3694-4.61231 23.5962-2.58267 22.4193-1.19784C21.2425 0.186998 19.1077 0.402625 17.651-0.71622C13.8462-3.63875 10.5478-7.12051 7.88955-11.0242C6.87186-12.5187 7.32118-14.5145 8.89313-15.482ZM82.5678-23.8164C83.2193-25.5205 85.2432-26.4142 87.0882-25.8123C88.9332-25.2105 89.9007-23.3412 89.2491-21.637C87.5437-17.1764 85.075-13.0044 81.9482-9.27044C80.7511-7.84087 78.5259-7.57836 76.9782-8.68411C75.4305-9.78986 75.1463-11.8451 76.3434-13.2747C79.0103-16.4595 81.1147-20.0158 82.5678-23.8164ZM3.81745-42L3.99793-41.9933C5.8115-41.8778 7.1896-40.2892 7.076-38.445C7.02557-37.6263 7.0004-36.8051 7.0004-35.969C7.0015-32.6327 7.41654-29.355 8.22703-26.1895C8.68487-24.4013 7.63046-22.5743 5.87196-22.1087C4.11345-21.6432 2.31676-22.7154 1.85892-24.5036C0.907969-28.2177 0.421292-32.0611 0.42-35.9679C0.42-36.9444 0.449448-37.9051 0.508477-38.8633C0.622076-40.7075 2.18436-42.1089 3.99793-41.9933L3.81745-42ZM85.9846-51.8517C87.8273-52.395 89.7793-51.399 90.3443-49.627C91.7152-45.3279 92.4198-40.8327 92.42-36.2503C92.42-35.9276 92.4165-35.607 92.4096-35.2864C92.3697-33.4334 90.7751-31.9623 88.8481-32.0007C86.921-32.0392 85.3912-33.5725 85.4312-35.4256C85.4371-35.6997 85.4401-35.9739 85.4401-36.2502C85.4399-40.1638 84.8392-43.9959 83.671-47.6593C83.106-49.4313 84.1418-51.3083 85.9846-51.8517ZM11.2135-65.8194C12.4293-67.2224 14.5832-67.4003 16.0244-66.2168C17.4656-65.0333 17.6484-62.9365 16.4327-61.5335C13.7232-58.4068 11.5385-54.8805 9.97019-51.0843C9.26667-49.3814 7.27821-48.556 5.52885-49.2409C3.77949-49.9258 2.93167-51.8615 3.6352-53.5644C5.47543-58.0189 8.0375-62.1543 11.2135-65.8194ZM68.3779-72.6631C69.5312-74.128 71.7292-74.4365 73.2873-73.3522C77.3574-70.5195 80.929-67.0931 83.8587-63.2097C84.9802-61.7231 84.6076-59.6632 83.0265-58.6087C81.4453-57.5542 79.2544-57.9045 78.1328-59.3911C75.6328-62.705 72.5842-65.6297 69.1107-68.0471C67.5526-69.1315 67.2245-71.1981 68.3779-72.6631ZM35.7095-80.9082C37.5801-81.3402 39.4545-80.2066 39.896-78.376C40.3376-76.5455 39.1791-74.7113 37.3084-74.2792C33.1275-73.3135 29.1508-71.6991 25.5099-69.5059C23.8732-68.5199 21.7295-69.0191 20.7219-70.6208C19.7144-72.2225 20.2245-74.3202 21.8612-75.3062C26.1328-77.8792 30.8011-79.7744 35.7095-80.9082ZM46.4564-82C51.5644-82 56.5675-81.2099 61.3262-79.6768C63.1616-79.0855 64.1597-77.1501 63.5554-75.3541C62.9512-73.558 60.9734-72.5813 59.1381-73.1726C55.0833-74.4789 50.8187-75.1524 46.4564-75.1524C44.5241-75.1524 42.9576-76.6853 42.9576-78.5762C42.9576-80.4671 44.5241-82 46.4564-82ZM47.1505-59.5032C48.1847-61.0475 50.2808-61.4647 51.8321-60.4353C53.3834-59.4058 53.8026-57.3194 52.7684-55.7752L42.1094-39.8612L57.0384-39.8604C59.6761-39.8604 61.2726-36.9978 59.9405-34.7826L59.8473-34.636L45.6895-13.4968C44.6553-11.9525 42.5592-11.5353 41.0079-12.5647C39.4566-13.5942 39.0374-15.6806 40.0716-17.2248L50.7298-33.1403L35.8016-33.1396C33.1639-33.1396 31.5674-36.0022 32.8995-38.2174L32.9927-38.364L47.1505-59.5032Z"/>
   <path class="monochrome-1 multicolor-1:custom hierarchical-1:secondary SFSymbolsPreviewWireframe" d="M46.42-82C71.8251-82 92.42-61.4051 92.42-36C92.42-10.595 71.825 10 46.42 10C21.0149 10 0.42-10.5949 0.42-36C0.42-61.4051 21.0149-82 46.42-82ZM46.42-75C24.8393-75 7.34473-57.5391 7.34473-36C7.34473-14.4609 24.8393 3 46.42 3C68.0006 3 85.4953-14.461 85.4953-36C85.4953-57.5391 68.0006-75 46.42-75Z"/>
  </g>
  <g id="Ultralight-S" transform="matrix(1 0 0 1 515.649 696)">
   <path class="monochrome-0 multicolor-0:custom hierarchical-0:primary SFSymbolsPreviewWireframe" d="M26.1168-0.349834C26.7724-2.1183 28.713-3.01114 30.4511-2.34405C34.297-0.868011 38.3662-0.0187852 42.5466 0.158252C44.4026 0.236858 45.8446 1.83148 45.7674 3.71995C45.6901 5.60841 44.1229 7.07559 42.2668 6.99698C37.3674 6.78949 32.5912 5.79274 28.0768 4.06012C26.3386 3.39304 25.4611 1.41863 26.1168-0.349834ZM65.1156-6.76797C66.6574-7.81301 68.7521-7.40684 69.7943-5.86075C70.8364-4.31467 70.4314-2.21415 68.8896-1.1691C64.864 1.55947 60.4273 3.63223 55.7324 4.95935C53.9413 5.46567 52.0799 4.42006 51.575 2.62391C51.0701 0.827768 52.1128-1.03875 53.904-1.54507C57.9032-2.67554 61.6835-4.44167 65.1156-6.76797ZM8.45573-17.3741C9.95934-18.2996 11.9674-17.891 12.9408-16.4615C15.1102-13.2757 17.8032-10.433 20.9093-8.04719C22.3026-6.97699 22.5195-5.0356 21.3938-3.71097C20.2682-2.38635 18.2261-2.1801 16.8329-3.2503C13.1935-6.04576 10.0385-9.37614 7.49578-13.1101C6.52235-14.5396 6.95213-16.4487 8.45573-17.3741ZM78.9271-25.3461C79.5504-26.9762 81.4862-27.8309 83.251-27.2553C85.0158-26.6796 85.9412-24.8915 85.318-23.2615C83.6867-18.9948 81.3254-15.0042 78.3345-11.4326C77.1894-10.0652 75.061-9.81408 73.5806-10.8718C72.1002-11.9294 71.8283-13.8954 72.9734-15.2628C75.5244-18.3091 77.5372-21.7108 78.9271-25.3461ZM3.60074-42.7391L3.77337-42.7328C5.50809-42.6223 6.82627-41.1027 6.71761-39.3387C6.66937-38.5556 6.64529-37.7701 6.64529-36.9703C6.64635-33.7791 7.04335-30.6439 7.8186-27.616C8.25652-25.9056 7.24796-24.158 5.56592-23.7127C3.88387-23.2674 2.16529-24.293 1.72736-26.0034C0.817753-29.5561 0.352236-33.2324 0.351-36.9693C0.351-37.9033 0.379168-38.8222 0.43563-39.7389C0.54429-41.5028 2.03865-42.8433 3.77337-42.7328L3.60074-42.7391ZM82.1954-52.1625C83.958-52.6822 85.8251-51.7295 86.3656-50.0345C87.6768-45.9223 88.3508-41.6226 88.351-37.2394C88.351-36.9307 88.3477-36.624 88.3411-36.3175C88.3029-34.545 86.7776-33.1379 84.9344-33.1746C83.0911-33.2114 81.6278-34.678 81.6661-36.4505C81.6717-36.7127 81.6745-36.9751 81.6745-37.2393C81.6744-40.9827 81.0998-44.6483 79.9824-48.1524C79.4419-49.8473 80.4327-51.6427 82.1954-52.1625ZM10.6752-65.5229C11.8381-66.8649 13.8984-67.0351 15.277-65.903C16.6555-64.771 16.8304-62.7654 15.6675-61.4234C13.0758-58.4326 10.9861-55.0596 9.48597-51.4285C8.81303-49.7996 6.91103-49.0101 5.23773-49.6652C3.56443-50.3203 2.75347-52.1718 3.42641-53.8007C5.18663-58.0615 7.63731-62.0171 10.6752-65.5229ZM65.3542-72.069C66.4574-73.4703 68.5598-73.7654 70.0502-72.7281C73.9433-70.0187 77.3596-66.7412 80.1619-63.0267C81.2347-61.6047 80.8783-59.6343 79.3659-58.6257C77.8535-57.617 75.7578-57.9521 74.685-59.3741C72.2937-62.5439 69.3776-65.3415 66.0552-67.6538C64.5648-68.691 64.251-70.6678 65.3542-72.069ZM34.1061-79.9556C35.8954-80.3689 37.6883-79.2845 38.1107-77.5336C38.533-75.7826 37.4249-74.0282 35.6356-73.6149C31.6364-72.6912 27.8326-71.1469 24.3501-69.0491C22.7845-68.106 20.734-68.5835 19.7702-70.1155C18.8065-71.6476 19.2944-73.6541 20.86-74.5972C24.9458-77.0584 29.4112-78.8712 34.1061-79.9556ZM44.3858-81C49.2717-81 54.0573-80.2442 58.6091-78.7778C60.3647-78.2122 61.3194-76.361 60.7414-74.643C60.1634-72.925 58.2717-71.9908 56.5161-72.5564C52.6376-73.8059 48.5584-74.4501 44.3858-74.4501C42.5375-74.4501 41.0392-75.9164 41.0392-77.7251C41.0392-79.5338 42.5375-81 44.3858-81ZM45.0293-59.5643C45.9897-61.0455 47.936-61.4458 49.3765-60.4583C50.8171-59.4708 51.2063-57.4696 50.246-55.9884L40.3483-40.724L54.2109-40.7233C56.6602-40.7233 58.1427-37.9775 56.9057-35.8527L56.8192-35.712L43.6727-15.4357C42.7123-13.9545 40.766-13.5542 39.3255-14.5417C37.8849-15.5292 37.4957-17.5304 38.456-19.0116L48.353-34.2775L34.4911-34.2767C32.0418-34.2767 30.5593-37.0225 31.7963-39.1473L31.8828-39.288L45.0293-59.5643Z"/>
   <path class="monochrome-1 multicolor-1:custom hierarchical-1:secondary SFSymbolsPreviewWireframe" d="M44.351-81C68.6515-81 88.351-61.3005 88.351-37C88.351-12.6995 68.6515 7 44.351 7C20.0505 7 0.351-12.6995 0.351-37C0.351-61.3005 20.0505-81 44.351-81ZM44.351-78C21.7073-78 3.351-59.6437 3.351-37C3.351-14.3564 21.7073 4 44.351 4C66.9946 4 85.351-14.3564 85.351-37C85.351-59.6437 66.9946-78 44.351-78Z"/>
  </g>
 </g>
</svg>
