<?xml version="1.0" encoding="UTF-8"?>
<svg width="3300px" height="2200px" viewBox="0 0 3300 2200" version="1.1" xmlns="http://www.w3.org/2000/svg" xmlns:xlink="http://www.w3.org/1999/xlink">
    <!-- Generator: Sketch 59.1 (86144) - https://sketch.com -->
    <title>filter</title>
    <desc>Created with Sketch.</desc>
    <g id="Page-1" stroke="none" stroke-width="1" fill="none" fill-rule="evenodd">
        <g id="filter">
            <g id="Notes">
                <rect id="artboard" fill="#FFFFFF" fill-rule="nonzero" x="0" y="0" width="3300" height="2200"></rect>
                <line x1="263" y1="292" x2="3036" y2="292" id="Path" stroke="#000000" stroke-width="0.5"></line>
                <text id="Weight/Scale-Variations" fill="#000000" font-family="Helvetica-Bold, Helvetica" font-size="13" font-weight="bold">
                    <tspan x="263" y="322">Weight/Scale Variations</tspan>
                </text>
                <text id="Ultralight" fill="#000000" font-family="Helvetica" font-size="13" font-weight="normal">
                    <tspan x="533.711" y="322">Ultralight</tspan>
                </text>
                <text id="Thin" fill="#000000" font-family="Helvetica" font-size="13" font-weight="normal">
                    <tspan x="843.422" y="322">Thin</tspan>
                </text>
                <text id="Light" fill="#000000" font-family="Helvetica" font-size="13" font-weight="normal">
                    <tspan x="1138.63" y="322">Light</tspan>
                </text>
                <text id="Regular" fill="#000000" font-family="Helvetica" font-size="13" font-weight="normal">
                    <tspan x="1426.84" y="322">Regular</tspan>
                </text>
                <text id="Medium" fill="#000000" font-family="Helvetica" font-size="13" font-weight="normal">
                    <tspan x="1723.06" y="322">Medium</tspan>
                </text>
                <text id="Semibold" fill="#000000" font-family="Helvetica" font-size="13" font-weight="normal">
                    <tspan x="2015.77" y="322">Semibold</tspan>
                </text>
                <text id="Bold" fill="#000000" font-family="Helvetica" font-size="13" font-weight="normal">
                    <tspan x="2326.48" y="322">Bold</tspan>
                </text>
                <text id="Heavy" fill="#000000" font-family="Helvetica" font-size="13" font-weight="normal">
                    <tspan x="2618.19" y="322">Heavy</tspan>
                </text>
                <text id="Black" fill="#000000" font-family="Helvetica" font-size="13" font-weight="normal">
                    <tspan x="2917.4" y="322">Black</tspan>
                </text>
                <line x1="263" y1="1903" x2="3036" y2="1903" id="Path" stroke="#000000" stroke-width="0.5"></line>
                <g id="Group" transform="translate(264.000000, 1918.000000)" fill="#000000" fill-rule="nonzero">
                    <path d="M8.24805,15.830078 C12.5547,15.830078 16.1387,12.25586 16.1387,7.94922 C16.1387,3.6426 12.5449,0.0684 8.23828,0.0684 C3.94141,0.0684 0.36719,3.6426 0.36719,7.94922 C0.36719,12.25586 3.95117,15.830078 8.24805,15.830078 Z M8.24805,14.345703 C4.70312,14.345703 1.87109,11.50391 1.87109,7.94922 C1.87109,4.3945 4.69336,1.5527 8.23828,1.5527 C11.793,1.5527 14.6348,4.3945 14.6445503,7.94922 C14.6543,11.50391 11.8027,14.345703 8.24805,14.345703 Z M8.22852,11.57227 C8.69727,11.57227 8.9707,11.25977 8.9707,10.74219 L8.9707,8.68164 L11.1973,8.68164 C11.6953,8.68164 12.0371,8.42773 12.0371,7.95898 C12.0371,7.48047 11.7148,7.2168 11.1973,7.2168 L8.9707,7.2168 L8.9707,4.9902 C8.9707,4.4727 8.69727,4.1504 8.22852,4.1504 C7.75977,4.1504 7.50586,4.4922 7.50586,4.9902 L7.50586,7.2168 L5.29883,7.2168 C4.78125,7.2168 4.44922,7.48047 4.44922,7.95898 C4.44922,8.42773 4.80078,8.68164 5.29883,8.68164 L7.50586,8.68164 L7.50586,10.74219 C7.50586,11.24023 7.75977,11.57227 8.22852,11.57227 Z" id="Shape"></path>
                </g>
                <g id="Group" transform="translate(282.506000, 1915.000000)" fill="#000000" fill-rule="nonzero">
                    <path d="M10.709,20.91016 C16.1582,20.91016 20.6699,16.39844 20.6699,10.94922 C20.6699,5.5098 16.1484,0.9883 10.6992,0.9883 C5.25977,0.9883 0.74805,5.5098 0.74805,10.94922 C0.74805,16.39844 5.26953,20.91016 10.709,20.91016 Z M10.709,19.25 C6.09961,19.25 2.41797,15.55859 2.41797,10.94922 C2.41797,6.3496 6.08984,2.6484 10.6992,2.6484 C15.3086,2.6484 19,6.3496 19.0098379,10.94922 C19.0195,15.55859 15.3184,19.25 10.709,19.25 Z M10.6895,15.58789 C11.207,15.58789 11.5195,15.22656 11.5195,14.66016 L11.5195,11.76953 L14.5762,11.76953 C15.123,11.76953 15.5039,11.48633 15.5039,10.96875 C15.5039,10.44141 15.1426,10.13867 14.5762,10.13867 L11.5195,10.13867 L11.5195,7.0723 C11.5195,6.4961 11.207,6.1445 10.6895,6.1445 C10.1719,6.1445 9.8789,6.5156 9.8789,7.0723 L9.8789,10.13867 L6.83203,10.13867 C6.26562,10.13867 5.89453,10.44141 5.89453,10.96875 C5.89453,11.48633 6.28516,11.76953 6.83203,11.76953 L9.8789,11.76953 L9.8789,14.66016 C9.8789,15.20703 10.1719,15.58789 10.6895,15.58789 Z" id="Shape"></path>
                </g>
                <g id="Group" transform="translate(306.924000, 1913.000000)" fill="#000000" fill-rule="nonzero">
                    <path d="M12.9707,25.67383 C19.9336,25.67383 25.6953,19.921875 25.6953,12.95898 C25.6953,5.9961 19.9238,0.2441 12.9609,0.2441 C6.00781,0.2441 0.25586,5.9961 0.25586,12.95898 C0.25586,19.921875 6.01758,25.67383 12.9707,25.67383 Z M12.9707,23.85742 C6.93555,23.85742 2.08203,18.99414 2.08203,12.95898 C2.08203,6.9238 6.92578,2.0605 12.9609,2.0605 C19.0059,2.0605 23.8594,6.9238 23.8691295,12.95898 C23.8789,18.99414 19.0156,23.85742 12.9707,23.85742 Z M12.9512,18.93555 C13.5176,18.93555 13.8691,18.54492 13.8691,17.93945 L13.8691,13.86719 L18.1074,13.86719 C18.6934,13.86719 19.1133,13.53516 19.1133,12.97852 C19.1133,12.40234 18.7227,12.06055 18.1074,12.06055 L13.8691,12.06055 L13.8691,7.8125 C13.8691,7.1973 13.5176,6.8066 12.9512,6.8066 C12.3848,6.8066 12.0625,7.2168 12.0625,7.8125 L12.0625,12.06055 L7.83398,12.06055 C7.21875,12.06055 6.80859,12.40234 6.80859,12.97852 C6.80859,13.53516 7.23828,13.86719 7.83398,13.86719 L12.0625,13.86719 L12.0625,17.93945 C12.0625,18.52539 12.3848,18.93555 12.9512,18.93555 Z" id="Shape"></path>
                </g>
                <text id="Design-Variations" fill="#000000" font-family="Helvetica-Bold, Helvetica" font-size="13" font-weight="bold">
                    <tspan x="263" y="1953">Design Variations</tspan>
                </text>
                <text id="Symbols-are-supported-in-up-to-nine-weights-and-three-scales." fill="#000000" font-family="Helvetica" font-size="13" font-weight="normal">
                    <tspan x="263" y="1971">Symbols are supported in up to nine weights and three scales.</tspan>
                </text>
                <text id="For-optimal-layout-with-text-and-other-symbols,-vertically-align" fill="#000000" font-family="Helvetica" font-size="13" font-weight="normal">
                    <tspan x="263" y="1989">For optimal layout with text and other symbols, vertically align</tspan>
                </text>
                <text id="symbols-with-the-adjacent-text." fill="#000000" font-family="Helvetica" font-size="13" font-weight="normal">
                    <tspan x="263" y="2007">symbols with the adjacent text.</tspan>
                </text>
                <rect id="Rectangle" fill="#00AEEF" fill-rule="nonzero" opacity="0.4" x="776" y="1919" width="3" height="14"></rect>
                <g id="Group" transform="translate(779.000000, 1918.000000)" fill="#000000" fill-rule="nonzero">
                    <path d="M10.5273,15 L12.373,15 L7.17773,0.9082 L5.43945,0.9082 L0.244141,15 L2.08984,15 L3.50586,10.9668 L9.11133,10.9668 L10.5273,15 Z M6.2793,3.0469 L6.33789,3.0469 L8.59375,9.47266 L4.02344,9.47266 L6.2793,3.0469 Z" id="Shape"></path>
                </g>
                <rect id="Rectangle" fill="#00AEEF" fill-rule="nonzero" opacity="0.4" x="791.617" y="1919" width="3" height="14"></rect>
                <text id="Margins" fill="#000000" font-family="Helvetica-Bold, Helvetica" font-size="13" font-weight="bold">
                    <tspan x="776" y="1953">Margins</tspan>
                </text>
                <text id="Leading-and-trailing-margins-on-the-left-and-right-side-of-each-symbol" fill="#000000" font-family="Helvetica" font-size="13" font-weight="normal">
                    <tspan x="776" y="1971">Leading and trailing margins on the left and right side of each symbol</tspan>
                </text>
                <text id="can-be-adjusted-by-modifying-the-width-of-the-blue-rectangles." fill="#000000" font-family="Helvetica" font-size="13" font-weight="normal">
                    <tspan x="776" y="1989">can be adjusted by modifying the width of the blue rectangles.</tspan>
                </text>
                <text id="Modifications-are-automatically-applied-proportionally-to-all" fill="#000000" font-family="Helvetica" font-size="13" font-weight="normal">
                    <tspan x="776" y="2007">Modifications are automatically applied proportionally to all</tspan>
                </text>
                <text id="scales-and-weights." fill="#000000" font-family="Helvetica" font-size="13" font-weight="normal">
                    <tspan x="776" y="2025">scales and weights.</tspan>
                </text>
                <g id="Group" transform="translate(1291.000000, 1915.000000)" fill="#000000" fill-rule="nonzero">
                    <path d="M0.83203,21.11523 L2.375,22.6582 C3.22461,23.48828 4.19141,23.41992 5.06055,22.46289 L15.2754,11.33984 C15.7051,11.63281 16.0957,11.62305 16.5645,11.52539 L17.6094,11.31055 L18.3027,12.00391 L18.2539,12.52148 C18.1855,13.04883 18.3516,13.46875 18.8496,13.9668 L19.6602,14.77734 C20.168,15.28516 20.8223,15.31445 21.3008,14.83594 L24.5527,11.58398 C25.0312,11.10547 25.0117,10.45117 24.5039,9.94336 L23.6836,9.12305 C23.1855,8.625 22.7754,8.44922 22.2383,8.52734 L21.7109,8.58594 L21.0566,7.9219 L21.3398,6.7793 C21.4863,6.2129 21.3398,5.7441 20.7148,5.1387 L18.3027,2.7461 C14.7578,-0.7793 10.2266,-0.6719 7.11133,2.4629 C6.69141,2.8926 6.64258,3.4785 6.91602,3.9082 C7.15039,4.2793 7.62891,4.5039 8.2734,4.3379 C9.7871,3.957 11.3008,4.0742 12.7852,5.0801 L12.1602,6.6621 C11.9258,7.248 11.9453,7.7266 12.1797,8.16602 L1.01758,18.439453 C0.08008,19.30859 -0.02734,20.25586 0.83203,21.11523 Z M8.6738,2.8535 C11.3398,0.8613 14.6504,1.1738 17.0527,3.5859 L19.6797,6.1934 C19.9141,6.4277 19.9434,6.6133 19.8848,6.9062 L19.5039,8.46875 L21.0762,10.04102 L22.043,9.95312 C22.3262,9.92383 22.4141,9.94336 22.6387,10.16797 L23.2637,10.79297 L20.5098,13.53711 L19.8848,12.92188 C19.6602,12.69727 19.6406,12.59961 19.6699,12.31641 L19.7578,11.35938 L18.1953,9.79688 L16.5742,10.10938 C16.291,10.16797 16.1445,10.16797 15.9102,9.92383 L13.7324,7.7461 C13.5078,7.5117 13.4785,7.375 13.6055,7.0527 L14.5527,4.7773 C12.9512,3.2441 10.8418,2.3945 8.8008,3.0488 C8.7129,3.0781 8.6445,3.0586 8.6152,3.0195 C8.5859,2.9707 8.5859,2.9219 8.6738,2.8535 Z M2.10156,20.41211 C1.61328,19.91406 1.78906,19.61133 2.12109,19.30859 L13.0781,9.19141 L14.3086,10.42188 L4.15234,21.34961 C3.84961,21.68164 3.46875,21.7793 3.06836,21.37891 L2.10156,20.41211 Z" id="Shape"></path>
                </g>
                <text id="Exporting" fill="#000000" font-family="Helvetica-Bold, Helvetica" font-size="13" font-weight="bold">
                    <tspan x="1289" y="1953">Exporting</tspan>
                </text>
                <text id="Symbols-should-be-outlined-when-exporting-to-ensure-the" fill="#000000" font-family="Helvetica" font-size="13" font-weight="normal">
                    <tspan x="1289" y="1971">Symbols should be outlined when exporting to ensure the</tspan>
                </text>
                <text id="design-is-preserved-when-submitting-to-Xcode." fill="#000000" font-family="Helvetica" font-size="13" font-weight="normal">
                    <tspan x="1289" y="1989">design is preserved when submitting to Xcode.</tspan>
                </text>
                <text id="Template-v.1.0" fill="#000000" font-family="Helvetica" font-size="13" font-weight="normal">
                    <tspan x="2952" y="1933">Template v.1.0</tspan>
                </text>
                <text id="Generated-from-circle" fill="#000000" font-family="Helvetica" font-size="13" font-weight="normal">
                    <tspan x="2911" y="1951">Generated from circle</tspan>
                </text>
                <text id="Typeset-at-100-points" fill="#000000" font-family="Helvetica" font-size="13" font-weight="normal">
                    <tspan x="2912" y="1969">Typeset at 100 points</tspan>
                </text>
                <text id="Small" fill="#000000" font-family="Helvetica" font-size="13" font-weight="normal">
                    <tspan x="263" y="726">Small</tspan>
                </text>
                <text id="Medium" fill="#000000" font-family="Helvetica" font-size="13" font-weight="normal">
                    <tspan x="263" y="1156">Medium</tspan>
                </text>
                <text id="Large" fill="#000000" font-family="Helvetica" font-size="13" font-weight="normal">
                    <tspan x="263" y="1586">Large</tspan>
                </text>
            </g>
            <g id="Guides" transform="translate(263.000000, 625.000000)">
                <g id="H-reference" transform="translate(76.000000, 0.000000)" fill="#27AAE1" fill-rule="nonzero">
                    <path d="M54.9316,71 L57.666,71 L30.5664,0.541 L28.0762,0.541 L0.976562,71 L3.66211,71 L12.9395,46.5371 L45.7031,46.5371 L54.9316,71 Z M29.1992,3.9102 L29.4434,3.9102 L44.8242,44.291 L13.8184,44.291 L29.1992,3.9102 Z" id="Shape"></path>
                </g>
                <line x1="0" y1="71" x2="2773" y2="71" id="Baseline-S" stroke="#27AAE1" stroke-width="0.577"></line>
                <line x1="0" y1="0.541" x2="2773" y2="0.541" id="Capline-S" stroke="#27AAE1" stroke-width="0.577"></line>
                <g id="H-reference" transform="translate(76.000000, 430.000000)" fill="#27AAE1" fill-rule="nonzero">
                    <path d="M54.9316,71 L57.666,71 L30.5664,0.541 L28.0762,0.541 L0.976562,71 L3.66211,71 L12.9395,46.5371 L45.7031,46.5371 L54.9316,71 Z M29.1992,3.9102 L29.4434,3.9102 L44.8242,44.291 L13.8184,44.291 L29.1992,3.9102 Z" id="Shape"></path>
                </g>
                <line x1="0" y1="501" x2="2773" y2="501" id="Baseline-M" stroke="#27AAE1" stroke-width="0.577"></line>
                <line x1="0" y1="430.54" x2="2773" y2="430.54" id="Capline-M" stroke="#27AAE1" stroke-width="0.577"></line>
                <g id="H-reference" transform="translate(76.000000, 860.000000)" fill="#27AAE1" fill-rule="nonzero">
                    <path d="M54.9316,71 L57.666,71 L30.5664,0.541 L28.0762,0.541 L0.976562,71 L3.66211,71 L12.9395,46.5371 L45.7031,46.5371 L54.9316,71 Z M29.1992,3.9102 L29.4434,3.9102 L44.8242,44.291 L13.8184,44.291 L29.1992,3.9102 Z" id="Shape"></path>
                </g>
                <line x1="0" y1="931" x2="2773" y2="931" id="Baseline-L" stroke="#27AAE1" stroke-width="0.577"></line>
                <line x1="0" y1="860.54" x2="2773" y2="860.54" id="Capline-L" stroke="#27AAE1" stroke-width="0.577"></line>
                <rect id="left-margin" fill="#00AEEF" fill-rule="nonzero" opacity="0.4" x="1128.3" y="405.79" width="8.74023" height="119.336"></rect>
                <rect id="right-margin" fill="#00AEEF" fill-rule="nonzero" opacity="0.4" x="1236.65" y="405.79" width="8.74023" height="119.336"></rect>
            </g>
            <g id="Symbols" transform="translate(1399.000000, 1040.000000)" fill="#000000" fill-rule="nonzero">
                <g id="Regular-M" transform="translate(0.300000, 0.000000)">
                    <path d="M50.5449,100.5508 C77.791,100.5508 100.35,77.99219 100.35,50.7461 C100.35,23.5488 77.7422,0.9414 50.4961,0.9414 C23.2988,0.9414 0.74023,23.5488 0.74023,50.7461 C0.74023,77.99219 23.3477,100.5508 50.5449,100.5508 Z M50.1551,92.0078 C27.1082,92.0078 8.7,73.5508 8.7,50.5039 C8.7,27.5058 27.0594,9 50.1063,9 C73.1532,9 91.6102,27.5058 91.6593938,50.5039 C91.7082,73.5508 73.202,92.0078 50.1551,92.0078 Z" id="Shape"></path>
                    <g id="np_straight-grass_1099120_000000" transform="translate(15.700000, 28.000000)">
                        <path d="M24.3167411,0 C24.2235345,0.176591931 24.2447174,0.172481233 24.2362447,0.205335302 C24.2277709,0.234082871 24.2235345,0.254616404 24.2150618,0.271043436 C24.206588,0.308004001 24.1981142,0.344964565 24.1896415,0.390138121 C24.1726949,0.480487337 24.1472756,0.595473419 24.1176189,0.747422174 C24.0583055,1.04310879 23.9820466,1.46610098 23.8803673,1.99997696 C23.6854793,3.07180809 23.4143346,4.59129563 23.1008262,6.43112348 C22.4695688,10.1148793 21.6561672,15.0799964 20.8850316,20.311836 C20.1139612,25.5397856 19.3937357,31.025942 18.9403817,35.7495685 C18.5336647,40.0205974 18.3303061,43.6058437 18.5675578,45.9959378 L20.7663245,45.9959378 C20.5417841,44.0164933 20.6815918,40.3368375 21.1010147,35.9425928 C21.5458656,31.277315 22.2702991,25.8153393 23.0372048,20.6120959 C23.8040346,15.4047523 24.6174362,10.4478356 25.2445397,6.78079589 C25.5580481,4.94506822 25.8291928,3.43378106 26.0240808,2.37425051 C26.1215237,1.84447471 26.1977869,1.42559323 26.2528618,1.14219666 C26.2825186,0.998458795 26.3037015,0.891685704 26.320648,0.821866864 C26.3248844,0.797225787 26.3248844,0.789012795 26.3291207,0.776692259 C26.3248844,0.789012795 26.3460673,0.776692259 26.2613346,0.949173488 L24.3209146,0.00872709049 L24.3167411,0 Z M63.7303364,0.394248823 C52.9607941,14.1519557 49.8889415,29.8640854 48.9399346,45.9420781 L49.7830213,45.9872526 L51.1091359,45.9872526 C52.0539017,30.1142694 55.0661135,14.9404208 65.458114,1.66317177 L63.7303364,0.394248823 Z M4.65441107,1.15810329 L3.00216364,2.51747323 C11.5940889,12.3408923 13.8696437,26.6854517 14.3566197,36.2462485 C15.0683745,37.3345855 15.7123432,38.4269175 16.2250236,39.5193548 C16.3902484,39.8684279 16.538532,40.2257225 16.6825858,40.5788853 C16.7207152,31.3592452 15.301483,13.3220987 4.6589446,1.15810329 L4.65441107,1.15810329 Z M20.2159485,1.67144679 L18.2797583,2.62010408 C19.3854864,4.74326539 20.3811298,7.70423177 21.2285113,11.1046541 C21.5081265,9.38394198 21.7919825,7.66322987 22.0334748,6.25865272 C22.0419476,6.20115864 22.0504214,6.17651863 22.0588941,6.11902559 C21.4954229,4.45582123 20.8811499,2.95273444 20.2117479,1.66727301 L20.2159485,1.67144679 Z M48.3260633,6.36542582 L46.3475745,7.22374231 C49.1056584,13.1949824 50.5841565,18.8703782 50.9866434,24.3204739 C51.4314943,22.6079621 51.9229389,20.907751 52.4863991,19.2198403 C51.7153288,15.0515264 50.3596484,10.7680918 48.3260633,6.36522609 L48.3260633,6.36542582 Z M39.6832712,8.13134518 C32.697065,20.004017 30.6634796,29.1337684 28.2659096,38.311881 L28.3082765,38.3242005 C28.5751805,37.7410381 28.8505659,37.1619549 29.1259513,36.6239893 C30.5155138,33.9176551 31.939132,31.9012038 31.939132,31.9012038 L32.1509611,32.040831 C34.0447442,25.0962694 36.4214903,17.9340824 41.5732399,9.16598865 L39.6879164,8.12698003 L39.6832712,8.13134518 Z M44.716368,14.5625422 C44.4833569,20.8500224 44.038506,28.7229086 42.9454674,34.9856825 C43.4919974,36.525671 43.9156557,38.0616644 44.1740782,39.5893523 C46.0594019,32.5955885 46.5974615,22.4274383 46.8855257,14.6370815 L44.716368,14.5625422 Z M24.685281,17.0060438 C24.490393,18.2626988 24.2997457,19.4577458 24.1090985,20.7637082 C23.9142105,22.0860713 23.744745,23.420735 23.5583385,24.7555038 C24.3929544,32.6240795 24.4734519,40.6116658 23.6388348,45.9461154 L23.990477,45.9995037 L25.8207038,45.9995037 C26.7146354,40.0323639 26.5536405,31.4900959 25.5749816,23.174074 C25.3292594,21.0837142 25.0326922,19.0139604 24.6895206,17.0098097 L24.685281,17.0060438 Z M66.8016469,19.6138684 L64.6706665,19.9957956 C66.0602288,27.231891 66.7424289,33.9585119 66.8102152,40.2465178 C67.4202909,41.3224491 68.1321,42.8337361 68.9073569,44.9322965 L68.9285399,44.9322965 C69.2335775,37.1828364 68.568427,28.7765054 66.8102487,19.6057521 L66.8016469,19.6138684 Z M0.299610057,23.9670062 L0.032706047,26.0532658 C-0.141000102,26.0327312 0.405530029,26.2052146 1.00289437,26.611785 C1.60025871,27.0224556 2.36284779,27.6302611 3.20589093,28.3736041 C4.89631553,29.8643903 6.9172113,31.909543 8.75589784,34.1189134 C10.5988142,36.3283889 12.2638597,38.7102825 13.2509349,40.8252435 C14.2380752,42.9402044 14.4668562,44.7020235 13.9499785,45.7369529 L14.2889094,45.8971127 C14.2889094,45.917646 14.284673,45.9546066 14.2804356,45.995675 L16.1572993,45.995675 C16.7504338,44.1681477 16.2123753,42.0736877 15.2210041,39.9546264 C14.1110461,37.5809332 12.3570651,35.0963245 10.4377944,32.7924395 C8.51863211,30.4926547 6.43840986,28.3858941 4.6590498,26.8170992 C3.78207019,26.0286016 2.96862521,25.3756204 2.26538428,24.8951625 C1.56209997,24.4105624 1.09609982,24.0491676 0.303814971,23.9588268 L0.299610057,23.9670062 Z M58.6293453,25.4248857 L56.7355622,26.4556835 C60.4849511,32.9114816 61.3281027,39.3754802 61.8830821,46 L64.0564695,46 C64.0013933,45.3305087 63.9463197,44.6652482 63.8827631,43.9958662 C63.4591053,43.0554198 63.0862705,42.3654631 62.7897246,41.8809052 C62.4931573,41.3963051 62.2728576,41.11294 62.1542265,40.977413 C62.0398361,40.8418861 62.1372802,40.9404525 62.1372802,40.9404525 L62.8320829,40.1314223 C62.8320829,40.1314223 62.8363191,40.1232094 62.9930779,40.3080143 C63.1498319,40.4928171 63.399795,40.8213578 63.7217846,41.3470229 C64.2598333,42.229972 65.0097222,43.7289165 65.8443055,46 L68.140576,46 C67.1746176,43.2115569 66.2807401,41.3840297 65.5985399,40.2628912 C65.225716,39.6509855 64.9122076,39.2362042 64.6791856,38.961029 C64.4419343,38.6858749 64.2343347,38.5051828 64.2343347,38.5051828 L63.348874,39.5318698 C62.6413599,34.8624919 61.3830749,30.1397063 58.6376802,25.4167106 L58.6293453,25.4248857 Z M38.2848152,27.9916033 L36.4334391,29.0922409 C40.1828282,35.0182738 41.8012368,40.6074605 41.0767381,45.8725219 L42.0511671,45.9998275 L43.2459392,45.9998275 C44.0085391,40.1682042 42.1783123,34.1313611 38.2933183,27.9831821 L38.2848152,27.9916033 Z M32.8195139,32.5008636 C32.8195139,32.5008636 31.4384112,34.4639073 30.0869175,37.1004332 C28.7396536,39.7205583 27.3670106,43.001865 27.460176,45.9997329 L28.904835,45.9997329 L29.6293012,45.9750918 C29.5445684,43.6876077 30.7477188,40.5336171 32.0314264,38.0367079 C33.3151339,35.5397987 34.6199907,33.6917705 34.6199907,33.6917705 L32.8279411,32.5049239 L32.8195139,32.5008636 Z M8.10738474,36.4351514 L6.40850046,37.745214 C6.40850046,37.745214 7.64980094,39.2606014 8.77255695,41.2811529 C9.59870238,42.7719391 10.2976917,44.5213523 10.4629815,45.9957378 L12.6703165,45.9957378 C12.5389848,43.9710862 11.61539,41.9588403 10.6875978,40.2832302 C9.46321677,38.0778549 8.11172307,36.4351514 8.11172307,36.4351514 L8.10738474,36.4351514 Z M55.3082563,39.765776 L53.1517882,39.9875436 C53.1517882,39.9875436 53.3890399,42.2914288 52.9145365,45.9956853 L55.1048438,45.9956853 C55.5666358,42.2133146 55.3082023,39.7657129 55.3082023,39.7657129 L55.3082563,39.765776 Z" id="Shape"></path>
                    </g>
                </g>
            </g>
        </g>
    </g>
</svg>