<?xml version="1.0" encoding="UTF-8"?>
<!--Generator: Apple Native CoreSVG 341-->
<!DOCTYPE svg
PUBLIC "-//W3C//DTD SVG 1.1//EN"
       "http://www.w3.org/Graphics/SVG/1.1/DTD/svg11.dtd">
<svg version="1.1" xmlns="http://www.w3.org/2000/svg" xmlns:xlink="http://www.w3.org/1999/xlink" viewBox="0 0 3300 2200">
 <!--glyph: "", point size: 100.0, font version: "20.0d10e1", template writer version: "138.0.0"-->
 <style>.monochrome-0 {-sfsymbols-motion-group:1;-sfsymbols-layer-tags:-1f16903483a9b84d}
.monochrome-1 {-sfsymbols-motion-group:0;-sfsymbols-layer-tags:-1f16903483a9b84d}

.multicolor-0:tintColor {-sfsymbols-motion-group:1;-sfsymbols-layer-tags:-1f16903483a9b84d}
.multicolor-1:tintColor {-sfsymbols-motion-group:0;-sfsymbols-layer-tags:-1f16903483a9b84d}

.hierarchical-0:primary {-sfsymbols-motion-group:1;-sfsymbols-layer-tags:-1f16903483a9b84d}
.hierarchical-1:tertiary {-sfsymbols-motion-group:0;-sfsymbols-layer-tags:-1f16903483a9b84d}

.SFSymbolsPreviewWireframe {fill:none;opacity:1.0;stroke:black;stroke-width:0.5}
</style>
 <g id="Notes">
  <rect height="2200" id="artboard" style="fill:white;opacity:1" width="3300" x="0" y="0"/>
  <line style="fill:none;stroke:black;opacity:1;stroke-width:0.5;" x1="263" x2="3036" y1="292" y2="292"/>
  <text style="stroke:none;fill:black;font-family:sans-serif;font-size:13;font-weight:bold;" transform="matrix(1 0 0 1 263 322)">Weight/Scale Variations</text>
  <text style="stroke:none;fill:black;font-family:sans-serif;font-size:13;text-anchor:middle;" transform="matrix(1 0 0 1 559.711 322)">Ultralight</text>
  <text style="stroke:none;fill:black;font-family:sans-serif;font-size:13;text-anchor:middle;" transform="matrix(1 0 0 1 856.422 322)">Thin</text>
  <text style="stroke:none;fill:black;font-family:sans-serif;font-size:13;text-anchor:middle;" transform="matrix(1 0 0 1 1153.13 322)">Light</text>
  <text style="stroke:none;fill:black;font-family:sans-serif;font-size:13;text-anchor:middle;" transform="matrix(1 0 0 1 1449.84 322)">Regular</text>
  <text style="stroke:none;fill:black;font-family:sans-serif;font-size:13;text-anchor:middle;" transform="matrix(1 0 0 1 1746.56 322)">Medium</text>
  <text style="stroke:none;fill:black;font-family:sans-serif;font-size:13;text-anchor:middle;" transform="matrix(1 0 0 1 2043.27 322)">Semibold</text>
  <text style="stroke:none;fill:black;font-family:sans-serif;font-size:13;text-anchor:middle;" transform="matrix(1 0 0 1 2339.98 322)">Bold</text>
  <text style="stroke:none;fill:black;font-family:sans-serif;font-size:13;text-anchor:middle;" transform="matrix(1 0 0 1 2636.69 322)">Heavy</text>
  <text style="stroke:none;fill:black;font-family:sans-serif;font-size:13;text-anchor:middle;" transform="matrix(1 0 0 1 2933.4 322)">Black</text>
  <line style="fill:none;stroke:black;opacity:1;stroke-width:0.5;" x1="263" x2="3036" y1="1903" y2="1903"/>
  <g transform="matrix(0.2 0 0 0.2 263 1933)">
   <path d="m46.2402 4.15039c21.7773 0 39.4531-17.627 39.4531-39.4043s-17.6758-39.4043-39.4531-39.4043c-21.7285 0-39.4043 17.627-39.4043 39.4043s17.6758 39.4043 39.4043 39.4043Zm0-7.42188c-17.6758 0-31.9336-14.3066-31.9336-31.9824s14.2578-31.9824 31.9336-31.9824 31.9824 14.3066 31.9824 31.9824-14.3066 31.9824-31.9824 31.9824Zm-17.9688-31.9824c0 2.14844 1.51367 3.61328 3.75977 3.61328h10.498v10.5957c0 2.19727 1.46484 3.71094 3.61328 3.71094 2.24609 0 3.71094-1.51367 3.71094-3.71094v-10.5957h10.5957c2.19727 0 3.71094-1.46484 3.71094-3.61328 0-2.19727-1.51367-3.71094-3.71094-3.71094h-10.5957v-10.5469c0-2.24609-1.46484-3.75977-3.71094-3.75977-2.14844 0-3.61328 1.51367-3.61328 3.75977v10.5469h-10.498c-2.24609 0-3.75977 1.51367-3.75977 3.71094Z"/>
  </g>
  <g transform="matrix(0.2 0 0 0.2 281.506 1933)">
   <path d="m58.5449 14.5508c27.4902 0 49.8047-22.3145 49.8047-49.8047s-22.3145-49.8047-49.8047-49.8047-49.8047 22.3145-49.8047 49.8047 22.3145 49.8047 49.8047 49.8047Zm0-8.30078c-22.9492 0-41.5039-18.5547-41.5039-41.5039s18.5547-41.5039 41.5039-41.5039 41.5039 18.5547 41.5039 41.5039-18.5547 41.5039-41.5039 41.5039Zm-22.6562-41.5039c0 2.39258 1.66016 4.00391 4.15039 4.00391h14.3555v14.4043c0 2.44141 1.66016 4.15039 4.05273 4.15039 2.44141 0 4.15039-1.66016 4.15039-4.15039v-14.4043h14.4043c2.44141 0 4.15039-1.61133 4.15039-4.00391 0-2.44141-1.70898-4.15039-4.15039-4.15039h-14.4043v-14.3555c0-2.49023-1.70898-4.19922-4.15039-4.19922-2.39258 0-4.05273 1.70898-4.05273 4.19922v14.3555h-14.3555c-2.49023 0-4.15039 1.70898-4.15039 4.15039Z"/>
  </g>
  <g transform="matrix(0.2 0 0 0.2 304.924 1933)">
   <path d="m74.8535 28.3203c35.1074 0 63.623-28.4668 63.623-63.5742s-28.5156-63.623-63.623-63.623-63.5742 28.5156-63.5742 63.623 28.4668 63.5742 63.5742 63.5742Zm0-9.08203c-30.127 0-54.4922-24.3652-54.4922-54.4922s24.3652-54.4922 54.4922-54.4922 54.4922 24.3652 54.4922 54.4922-24.3652 54.4922-54.4922 54.4922Zm-28.8574-54.4922c0 2.58789 1.85547 4.39453 4.58984 4.39453h19.7266v19.7754c0 2.68555 1.85547 4.58984 4.44336 4.58984 2.68555 0 4.54102-1.85547 4.54102-4.58984v-19.7754h19.7754c2.68555 0 4.58984-1.80664 4.58984-4.39453 0-2.73438-1.85547-4.58984-4.58984-4.58984h-19.7754v-19.7266c0-2.73438-1.85547-4.63867-4.54102-4.63867-2.58789 0-4.44336 1.9043-4.44336 4.63867v19.7266h-19.7266c-2.73438 0-4.58984 1.85547-4.58984 4.58984Z"/>
  </g>
  <text style="stroke:none;fill:black;font-family:sans-serif;font-size:13;font-weight:bold;" transform="matrix(1 0 0 1 263 1953)">Design Variations</text>
  <text style="stroke:none;fill:black;font-family:sans-serif;font-size:13;" transform="matrix(1 0 0 1 263 1971)">Symbols are supported in up to nine weights and three scales.</text>
  <text style="stroke:none;fill:black;font-family:sans-serif;font-size:13;" transform="matrix(1 0 0 1 263 1989)">For optimal layout with text and other symbols, vertically align</text>
  <text style="stroke:none;fill:black;font-family:sans-serif;font-size:13;" transform="matrix(1 0 0 1 263 2007)">symbols with the adjacent text.</text>
  <line style="fill:none;stroke:#00AEEF;stroke-width:0.5;opacity:1.0;" x1="776" x2="776" y1="1919" y2="1933"/>
  <g transform="matrix(0.2 0 0 0.2 776 1933)">
   <path d="m16.5527 0.78125c2.58789 0 3.85742-0.976562 4.78516-3.71094l6.29883-17.2363h28.8086l6.29883 17.2363c0.927734 2.73438 2.19727 3.71094 4.73633 3.71094 2.58789 0 4.24805-1.5625 4.24805-4.00391 0-0.830078-0.146484-1.61133-0.537109-2.63672l-22.9004-60.9863c-1.12305-2.97852-3.125-4.49219-6.25-4.49219-3.02734 0-5.07812 1.46484-6.15234 4.44336l-22.9004 61.084c-0.390625 1.02539-0.537109 1.80664-0.537109 2.63672 0 2.44141 1.5625 3.95508 4.10156 3.95508Zm13.4766-28.3691 11.8652-32.8613h0.244141l11.8652 32.8613Z"/>
  </g>
  <line style="fill:none;stroke:#00AEEF;stroke-width:0.5;opacity:1.0;" x1="792.836" x2="792.836" y1="1919" y2="1933"/>
  <text style="stroke:none;fill:black;font-family:sans-serif;font-size:13;font-weight:bold;" transform="matrix(1 0 0 1 776 1953)">Margins</text>
  <text style="stroke:none;fill:black;font-family:sans-serif;font-size:13;" transform="matrix(1 0 0 1 776 1971)">Leading and trailing margins on the left and right side of each symbol</text>
  <text style="stroke:none;fill:black;font-family:sans-serif;font-size:13;" transform="matrix(1 0 0 1 776 1989)">can be adjusted by modifying the x-location of the margin guidelines.</text>
  <text style="stroke:none;fill:black;font-family:sans-serif;font-size:13;" transform="matrix(1 0 0 1 776 2007)">Modifications are automatically applied proportionally to all</text>
  <text style="stroke:none;fill:black;font-family:sans-serif;font-size:13;" transform="matrix(1 0 0 1 776 2025)">scales and weights.</text>
  <g transform="matrix(0.2 0 0 0.2 1289 1933)">
   <path d="m14.209 9.32617 8.49609 8.54492c4.29688 4.3457 9.22852 4.05273 13.8672-1.07422l53.4668-58.9355-4.83398-4.88281-53.0762 58.3984c-1.75781 2.00195-3.41797 2.49023-5.76172 0.146484l-5.85938-5.81055c-2.34375-2.29492-1.80664-4.00391 0.195312-5.81055l57.373-54.0039-4.88281-4.83398-57.959 54.4434c-4.93164 4.58984-5.32227 9.47266-1.02539 13.8184Zm32.0801-90.9668c-2.09961 2.05078-2.24609 4.93164-1.07422 6.88477 1.17188 1.80664 3.4668 2.97852 6.68945 2.14844 7.32422-1.70898 14.9414-2.00195 22.0703 2.68555l-2.92969 7.27539c-1.70898 4.15039-0.830078 7.08008 1.85547 9.81445l11.4746 11.5723c2.44141 2.44141 4.49219 2.53906 7.32422 2.05078l5.32227-0.976562 3.32031 3.36914-0.195312 2.7832c-0.195312 2.49023 0.439453 4.39453 2.88086 6.78711l3.80859 3.71094c2.39258 2.39258 5.46875 2.53906 7.8125 0.195312l14.5508-14.5996c2.34375-2.34375 2.24609-5.32227-0.146484-7.71484l-3.85742-3.80859c-2.39258-2.39258-4.24805-3.17383-6.64062-2.97852l-2.88086 0.244141-3.22266-3.17383 1.2207-5.61523c0.634766-2.83203-0.146484-5.0293-3.07617-7.95898l-10.9863-10.9375c-16.6992-16.6016-38.8672-16.2109-53.3203-1.75781Zm7.4707 1.85547c12.1582-8.88672 28.6133-7.37305 39.7461 3.75977l12.1582 12.0605c1.17188 1.17188 1.36719 2.09961 1.02539 3.80859l-1.61133 7.42188 7.51953 7.42188 4.93164-0.292969c1.26953-0.0488281 1.66016 0.0488281 2.63672 1.02539l2.88086 2.88086-12.207 12.207-2.88086-2.88086c-0.976562-0.976562-1.12305-1.36719-1.07422-2.68555l0.341797-4.88281-7.4707-7.42188-7.61719 1.26953c-1.61133 0.341797-2.34375 0.195312-3.56445-0.976562l-10.0098-10.0098c-1.26953-1.17188-1.41602-2.00195-0.634766-3.85742l4.39453-10.4492c-7.8125-7.27539-17.9688-10.4004-28.125-7.42188-0.78125 0.195312-1.07422-0.439453-0.439453-0.976562Z"/>
  </g>
  <text style="stroke:none;fill:black;font-family:sans-serif;font-size:13;font-weight:bold;" transform="matrix(1 0 0 1 1289 1953)">Exporting</text>
  <text style="stroke:none;fill:black;font-family:sans-serif;font-size:13;" transform="matrix(1 0 0 1 1289 1971)">Symbols should be outlined when exporting to ensure the</text>
  <text style="stroke:none;fill:black;font-family:sans-serif;font-size:13;" transform="matrix(1 0 0 1 1289 1989)">design is preserved when submitting to Xcode.</text>
  <text id="template-version" style="stroke:none;fill:black;font-family:sans-serif;font-size:13;text-anchor:end;" transform="matrix(1 0 0 1 3036 1933)">Template v.6.0</text>
  <text style="stroke:none;fill:black;font-family:sans-serif;font-size:13;text-anchor:end;" transform="matrix(1 0 0 1 3036 1951)">Requires Xcode 16 or greater</text>
  <text id="descriptive-name" style="stroke:none;fill:black;font-family:sans-serif;font-size:13;text-anchor:end;" transform="matrix(1 0 0 1 3036 1969)">Generated from filtervogelgruppe-10</text>
  <text style="stroke:none;fill:black;font-family:sans-serif;font-size:13;text-anchor:end;" transform="matrix(1 0 0 1 3036 1987)">Typeset at 100.0 points</text>
  <text style="stroke:none;fill:black;font-family:sans-serif;font-size:13;" transform="matrix(1 0 0 1 263 726)">Small</text>
  <text style="stroke:none;fill:black;font-family:sans-serif;font-size:13;" transform="matrix(1 0 0 1 263 1156)">Medium</text>
  <text style="stroke:none;fill:black;font-family:sans-serif;font-size:13;" transform="matrix(1 0 0 1 263 1586)">Large</text>
 </g>
 <g id="Guides">
  <g id="H-reference" style="fill:#27AAE1;stroke:none;" transform="matrix(1 0 0 1 339 696)">
   <path d="M0.993654 0L3.63775 0L29.3281-67.1323L30.0303-67.1323L30.0303-70.459L28.1226-70.459ZM11.6885-24.4799L46.9815-24.4799L46.2315-26.7285L12.4385-26.7285ZM55.1196 0L57.7637 0L30.6382-70.459L29.4326-70.459L29.4326-67.1323Z"/>
  </g>
  <line id="Baseline-S" style="fill:none;stroke:#27AAE1;opacity:1;stroke-width:0.5;" x1="263" x2="3036" y1="696" y2="696"/>
  <line id="Capline-S" style="fill:none;stroke:#27AAE1;opacity:1;stroke-width:0.5;" x1="263" x2="3036" y1="625.541" y2="625.541"/>
  <g id="H-reference" style="fill:#27AAE1;stroke:none;" transform="matrix(1 0 0 1 339 1126)">
   <path d="M0.993654 0L3.63775 0L29.3281-67.1323L30.0303-67.1323L30.0303-70.459L28.1226-70.459ZM11.6885-24.4799L46.9815-24.4799L46.2315-26.7285L12.4385-26.7285ZM55.1196 0L57.7637 0L30.6382-70.459L29.4326-70.459L29.4326-67.1323Z"/>
  </g>
  <line id="Baseline-M" style="fill:none;stroke:#27AAE1;opacity:1;stroke-width:0.5;" x1="263" x2="3036" y1="1126" y2="1126"/>
  <line id="Capline-M" style="fill:none;stroke:#27AAE1;opacity:1;stroke-width:0.5;" x1="263" x2="3036" y1="1055.54" y2="1055.54"/>
  <g id="H-reference" style="fill:#27AAE1;stroke:none;" transform="matrix(1 0 0 1 339 1556)">
   <path d="M0.993654 0L3.63775 0L29.3281-67.1323L30.0303-67.1323L30.0303-70.459L28.1226-70.459ZM11.6885-24.4799L46.9815-24.4799L46.2315-26.7285L12.4385-26.7285ZM55.1196 0L57.7637 0L30.6382-70.459L29.4326-70.459L29.4326-67.1323Z"/>
  </g>
  <line id="Baseline-L" style="fill:none;stroke:#27AAE1;opacity:1;stroke-width:0.5;" x1="263" x2="3036" y1="1556" y2="1556"/>
  <line id="Capline-L" style="fill:none;stroke:#27AAE1;opacity:1;stroke-width:0.5;" x1="263" x2="3036" y1="1485.54" y2="1485.54"/>
  <line id="right-margin-Black-S" style="fill:none;stroke:#00AEEF;stroke-width:0.5;opacity:1.0;" x1="2982.23" x2="2982.23" y1="600.785" y2="720.121"/>
  <line id="left-margin-Black-S" style="fill:none;stroke:#00AEEF;stroke-width:0.5;opacity:1.0;" x1="2884.57" x2="2884.57" y1="600.785" y2="720.121"/>
  <line id="right-margin-Regular-S" style="fill:none;stroke:#00AEEF;stroke-width:0.5;opacity:1.0;" x1="1496.11" x2="1496.11" y1="600.785" y2="720.121"/>
  <line id="left-margin-Regular-S" style="fill:none;stroke:#00AEEF;stroke-width:0.5;opacity:1.0;" x1="1403.58" x2="1403.58" y1="600.785" y2="720.121"/>
  <line id="right-margin-Ultralight-S" style="fill:none;stroke:#00AEEF;stroke-width:0.5;opacity:1.0;" x1="603.773" x2="603.773" y1="600.785" y2="720.121"/>
  <line id="left-margin-Ultralight-S" style="fill:none;stroke:#00AEEF;stroke-width:0.5;opacity:1.0;" x1="515.649" x2="515.649" y1="600.785" y2="720.121"/>
 </g>
 <g id="Symbols">
  <g id="Black-S" transform="matrix(1 0 0 1 2884.57 696)">
   <path class="monochrome-0 multicolor-0:tintColor hierarchical-0:primary SFSymbolsPreviewWireframe" d="M40.9197-40.5213C40.8645-40.1646 40.7838-39.8504 40.7753-39.5277C40.7293-38.2553 40.6231-36.9857 40.4568-35.7231C40.3974-35.2391 40.3719-34.738 40.321-34.1818C40.4356-34.2455 40.512-34.2964 40.5927-34.3346L42.2063-35.1669C43.013-35.5915 43.8155-35.9991 44.6138-36.4535C45.2168-36.7932 45.8112-37.2602 46.4184-37.5575C46.928-37.808 47.4587-37.8844 47.9768-38.0458C48.2315-38.1307 48.4778-38.2921 48.7326-38.309C49.4672-38.36 50.2018-38.3642 50.9406-38.3727C51.6667-38.3727 52.397-38.3473 53.1231-38.3558C53.7983-38.3642 54.4734-38.4407 55.1443-38.4237C55.76-38.4067 56.3757-38.2581 56.9871-38.2369C57.5646-38.2114 58.1421-38.2793 58.7238-38.3006L59.9339-38.3388C60.6983-38.3515 61.4626-38.3515 62.2269-38.377C63.0464-38.3982 63.8744-38.4619 64.6981-38.4746C65.1227-38.4789 65.5474-38.3897 65.972-38.394C66.4815-38.3982 66.9911-38.3558 67.5006-38.602C67.9252-38.8058 68.3583-38.929 68.7872-39.0861C69.3392-39.2857 69.8912-39.5447 70.4474-39.6508C70.8168-39.723 71.2372-39.2007 71.1268-38.0713C71.0801-37.7185 70.9888-37.3731 70.8551-37.0437C70.6597-36.5044 70.4304-36.0246 70.2309-35.4854C70.0738-35.0607 69.9336-34.5852 69.8063-34.1054C69.7511-33.9058 69.7723-33.6383 69.9039-33.6043C70.1969-33.5321 70.4899-33.409 70.7786-33.4472C71.3943-33.5236 72.0143-33.6043 72.6215-33.8421C73.3815-34.1393 74.1373-33.9228 74.8974-34.0204C74.9823-34.0332 75.0672-33.9652 75.1522-33.9355C75.4494-33.8378 75.7466-33.7444 76.0396-33.6383C76.1755-33.5873 76.3156-33.5406 76.4472-33.426C76.5237-33.358 76.6171-33.1712 76.6298-33.0141C76.6164-32.8471 76.5672-32.6847 76.4855-32.5385C76.2222-31.9865 75.9504-31.443 75.6829-30.8953C75.5386-30.598 75.3984-30.2923 75.2456-30.0121C74.9144-29.4049 74.5874-28.7934 74.2435-28.2202C74.0184-27.838 73.7679-27.5535 73.5386-27.1714C73.1735-26.5472 72.9187-25.6852 72.6639-24.8105C72.1968-23.2182 71.976-21.3711 71.6533-19.6302C71.5939-19.3245 71.4835-19.0527 71.4623-18.747C71.4198-18.0039 71.2245-17.4902 71.0589-16.9127C70.9336-16.3593 70.7213-15.8288 70.4304-15.3416C70.2181-15.0444 70.0568-14.5221 69.8487-14.1951C69.6619-13.9022 69.4326-13.7535 69.2288-13.52C69.0165-13.2822 68.8042-13.019 68.5919-12.7642C68.5664-12.7302 68.5451-12.675 68.5154-12.6538L67.369-11.8937C67.1099-11.7281 66.8509-11.554 66.5877-11.4266C66.3966-11.3417 66.1928-11.3502 66.0017-11.2653C65.3733-10.9893 64.7363-11.1252 64.1079-11.0572C63.7512-11.0233 63.3946-10.8449 63.0421-10.7345L62.8298-10.6836C62.5156-10.5817 62.2056-10.4628 61.8914-10.3778C61.573-10.2929 61.2545-10.2759 60.9445-10.174C60.5496-10.0466 60.159-9.85982 59.7641-9.71969C59.607-9.66449 59.4456-9.66025 59.2885-9.63477C59.0168-9.59231 58.7493-9.57108 58.4818-9.50739C58.3119-9.46492 58.1421-9.32905 57.9722-9.28659C57.3565-9.13797 56.7366-8.98935 56.1124-8.89169C55.6878-8.81951 55.2632-8.83649 54.8386-8.79403C54.639-8.7728 54.4352-8.67514 54.2356-8.65815C53.6663-8.60048 53.0959-8.55802 52.5244-8.53077C52.0149-8.50529 51.5096-8.50105 51.0043-8.51803C50.3164-8.54351 49.6285-8.61145 48.9407-8.64542C48.4439-8.66665 47.9471-8.64542 47.4545-8.68788C47.1233-8.7176 46.7921-8.81102 46.4609-8.88745C46.273-8.93239 46.0872-8.98652 45.9047-9.0488C45.565-9.1592 45.2253-9.30357 44.8813-9.38849C44.393-9.51163 43.9047-9.58382 43.4122-9.69422C43.1404-9.75366 42.8729-9.84283 42.6011-9.92351C42.2402-10.0297 41.8793-10.1231 41.5184-10.2547C41.1999-10.3736 40.8815-10.5434 40.563-10.6751C40.2488-10.8025 39.9303-10.9001 39.6203-11.036C39.3061-11.1719 39.0004-11.346 38.6862-11.4818C38.2701-11.6687 37.8539-11.8428 37.4336-12.0169C37.0642-12.1697 36.6947-12.3141 36.3296-12.4797C35.7563-12.7345 35.1915-12.9892 34.6226-13.2567C34.2404-13.4436 33.854-13.6644 33.4676-13.8597C33.3742-13.9106 33.2723-13.9149 33.1789-13.9658C32.8689-14.1357 32.5632-14.3353 32.2532-14.4966C31.9772-14.6367 31.7012-14.7811 31.4252-14.8575C31.2546-14.888 31.0933-14.957 30.9535-15.0592C30.8137-15.1615 30.6991-15.2945 30.6184-15.4478C30.3667-15.9584 30.1989-16.5058 30.1216-17.0698C30.0439-17.5075 29.9732-17.9463 29.9093-18.3861C29.8832-18.609 29.8676-18.8326 29.8626-19.057C29.8456-19.4052 29.8414-19.7534 29.8286-20.1058L29.8286-20.2714C29.9263-21.4518 29.8584-22.6917 30.0834-23.8382C30.2745-24.8318 30.4231-25.889 30.6354-26.8529C30.9199-28.1055 31.2723-29.252 31.6757-30.3178C32.3126-32.0205 32.9538-33.7232 33.5695-35.4811C33.8455-36.2666 34.0578-37.1796 34.2956-38.0373C34.5381-38.9722 34.6227-39.9406 34.5461-40.9034C34.4952-41.5276 34.5037-42.2325 34.2319-42.6062C34.0585-42.8468 33.8592-43.0676 33.6374-43.2643C33.0612-43.7813 32.3868-44.1769 31.6545-44.4278C31.3233-44.5424 30.9963-44.759 30.6694-44.9203C30.6142-44.9458 30.5547-44.9076 30.4995-44.8991C30.4741-44.8948 30.4401-44.8481 30.4316-44.8694C30.1811-45.3492 29.8711-45.1921 29.5994-45.2388C28.91-45.3389 28.2106-45.3488 27.5187-45.2685C26.8011-45.209 26.0835-45.0732 25.3702-44.8948C24.8556-44.7947 24.3242-44.8255 23.8246-44.984C23.5995-45.0392 23.3702-45.0392 23.1452-45.0477C22.8241-45.0626 22.5027-45.0696 22.1813-45.0689C21.969-45.0689 21.4637-45.8035 21.434-46.4277C21.4129-46.813 21.4752-47.198 21.6166-47.5572C21.9648-48.3385 22.4234-48.4361 22.8522-48.7461C23.1792-48.9754 23.5019-49.2386 23.8203-49.4977C24.2917-49.8798 24.7545-50.3469 25.2301-50.6314C25.8925-51.0305 26.4614-51.8713 27.0814-52.4785C27.5739-52.9668 28.058-53.5315 28.5336-54.0962C28.6185-54.1939 28.661-54.4742 28.7162-54.678C28.7798-54.8988 28.8181-55.162 28.8902-55.3574C29.3361-56.5505 29.7904-57.7267 30.2405-58.9156C30.4061-59.3487 30.5462-59.8413 30.7288-60.2319C31.0685-60.9538 31.4082-61.6714 31.8243-62.1597C32.3211-62.7414 32.8519-62.7542 33.3827-62.9452C33.9134-63.1321 34.4272-62.7754 34.9538-62.8433C35.6926-62.9325 36.406-62.4994 37.1109-62.0281C37.6204-61.6884 38.0493-60.9241 38.4272-60.0026C38.6352-59.4846 38.8815-59.0345 39.0641-58.474C39.3401-57.6588 39.5864-56.7926 39.8199-55.9136C39.9685-55.3446 40.0959-54.7289 40.2021-54.109C40.3974-52.988 40.5927-51.8713 40.6522-50.6441C40.6904-49.8798 40.8008-49.1325 40.8687-48.3724C40.9069-47.9606 40.9197-47.5317 40.9409-47.1113C40.9706-46.381 41.0173-45.6464 41.0258-44.9118C41.0258-44.0626 40.9961-43.2049 40.9664-42.3556C40.9494-41.8461 40.9027-41.3366 40.8815-40.827C40.873-40.7124 40.9069-40.5807 40.9154-40.517L40.9197-40.5213Z"/>
   <path class="monochrome-1 multicolor-1:tintColor hierarchical-1:tertiary SFSymbolsPreviewWireframe" d="M48.9411-84C55.3091-84.0013 61.615-82.7479 67.4985-80.3116C73.382-77.8752 78.7279-74.3036 83.2305-69.8009C87.7334-65.2983 91.305-59.9524 93.7418-54.0682C96.1779-48.1846 97.4312-41.8789 97.43-35.5124C97.43-8.72255 75.7254 13 48.9424 13C22.156 13 0.43-8.726 0.43-35.5124C0.43-62.2926 22.1539-84 48.9411-84ZM48.9424-70C29.8835-70 14.43-54.5582 14.43-35.5124C14.43-16.458 29.888-0.999999 48.9424-0.999999C67.9909-0.999999 83.43-16.4519 83.43-35.5138C83.4309-40.0428 82.5395-44.5276 80.8069-48.7121C79.0739-52.8969 76.5337-56.6989 73.3311-59.9013C70.1287-63.1038 66.3266-65.644 62.1422-67.3767C57.9578-69.1095 53.4729-70.0009 48.9424-70Z"/>
  </g>
  <g id="Regular-S" transform="matrix(1 0 0 1 1403.58 696)">
   <path class="monochrome-0 multicolor-0:tintColor hierarchical-0:primary SFSymbolsPreviewWireframe" d="M37.9097-40.5213C37.8545-40.1646 37.7738-39.8504 37.7653-39.5277C37.7193-38.2552 37.6132-36.9856 37.4469-35.7231C37.3874-35.239 37.362-34.738 37.311-34.1817C37.4256-34.2454 37.5021-34.2964 37.5828-34.3346L39.1963-35.1669C40.0031-35.5915 40.8056-35.9991 41.6039-36.4534C42.2068-36.7931 42.8013-37.2602 43.4085-37.5574C43.918-37.808 44.4488-37.8844 44.9668-38.0457C45.2216-38.1307 45.4679-38.292 45.7226-38.309C46.4572-38.36 47.1918-38.3642 47.9306-38.3727C48.6567-38.3727 49.3871-38.3472 50.1132-38.3557C50.7883-38.3642 51.4634-38.4406 52.1343-38.4237C52.75-38.4067 53.3657-38.2581 53.9772-38.2368C54.5546-38.2113 55.1321-38.2793 55.7138-38.3005L56.924-38.3387C57.6883-38.3515 58.4526-38.3515 59.2169-38.3769C60.0364-38.3982 60.8644-38.4619 61.6882-38.4746C62.1128-38.4789 62.5374-38.3897 62.962-38.3939C63.4716-38.3982 63.9811-38.3557 64.4906-38.602C64.9152-38.8058 65.3484-38.9289 65.7772-39.0861C66.3292-39.2856 66.8812-39.5446 67.4375-39.6508C67.8069-39.723 68.2272-39.2007 68.1168-38.0712C68.0701-37.7184 67.9788-37.3731 67.8451-37.0437C67.6498-36.5044 67.4205-36.0246 67.2209-35.4853C67.0638-35.0607 66.9237-34.5851 66.7963-34.1053C66.7411-33.9057 66.7623-33.6382 66.894-33.6043C67.1869-33.5321 67.4799-33.4089 67.7687-33.4472C68.3844-33.5236 69.0043-33.6043 69.6115-33.8421C70.3716-34.1393 71.1274-33.9227 71.8874-34.0204C71.9724-34.0331 72.0573-33.9652 72.1422-33.9355C72.4394-33.8378 72.7367-33.7444 73.0296-33.6382C73.1655-33.5873 73.3056-33.5406 73.4373-33.4259C73.5137-33.358 73.6071-33.1712 73.6199-33.0141C73.6064-32.847 73.5572-32.6846 73.4755-32.5385C73.2122-31.9865 72.9405-31.443 72.673-30.8952C72.5286-30.598 72.3885-30.2923 72.2356-30.012C71.9044-29.4048 71.5775-28.7934 71.2335-28.2201C71.0085-27.838 70.758-27.5535 70.5287-27.1713C70.1635-26.5472 69.9087-25.6852 69.654-24.8105C69.1869-23.2182 68.9661-21.3711 68.6434-19.6302C68.5839-19.3245 68.4735-19.0527 68.4523-18.747C68.4098-18.0039 68.2145-17.4901 68.0489-16.9126C67.9236-16.3592 67.7113-15.8288 67.4205-15.3416C67.2082-15.0443 67.0468-14.5221 66.8388-14.1951C66.6519-13.9021 66.4226-13.7535 66.2188-13.52C66.0065-13.2822 65.7942-13.0189 65.5819-12.7641C65.5564-12.7302 65.5352-12.675 65.5055-12.6537L64.359-11.8937C64.1-11.7281 63.841-11.554 63.5777-11.4266C63.3866-11.3417 63.1828-11.3502 62.9917-11.2653C62.3633-10.9893 61.7264-11.1251 61.098-11.0572C60.7413-11.0232 60.3846-10.8449 60.0322-10.7345L59.8199-10.6835C59.5056-10.5816 59.1957-10.4627 58.8815-10.3778C58.563-10.2929 58.2445-10.2759 57.9346-10.174C57.5397-10.0466 57.149-9.85978 56.7541-9.71965C56.597-9.66445 56.4357-9.66021 56.2786-9.63473C56.0068-9.59227 55.7393-9.57104 55.4718-9.50735C55.302-9.46488 55.1321-9.32901 54.9623-9.28655C54.3466-9.13793 53.7266-8.98932 53.1024-8.89165C52.6778-8.81947 52.2532-8.83645 51.8286-8.79399C51.629-8.77276 51.4252-8.6751 51.2256-8.65812C50.6563-8.60044 50.0859-8.55798 49.5144-8.53073C49.0049-8.50525 48.4996-8.50101 47.9943-8.51799C47.3064-8.54347 46.6186-8.61141 45.9307-8.64538C45.4339-8.66661 44.9371-8.64538 44.4445-8.68784C44.1133-8.71756 43.7821-8.81098 43.4509-8.88741C43.263-8.93235 43.0773-8.98648 42.8947-9.04876C42.555-9.15916 42.2153-9.30353 41.8714-9.38845C41.3831-9.51159 40.8948-9.58378 40.4022-9.69418C40.1304-9.75362 39.8629-9.84279 39.5912-9.92347C39.2303-10.0296 38.8693-10.123 38.5084-10.2547C38.19-10.3736 37.8715-10.5434 37.553-10.675C37.2388-10.8024 36.9204-10.9001 36.6104-11.036C36.2962-11.1718 35.9904-11.3459 35.6762-11.4818C35.2601-11.6686 34.844-11.8427 34.4236-12.0168C34.0542-12.1697 33.6848-12.3141 33.3196-12.4797C32.7463-12.7344 32.1816-12.9892 31.6126-13.2567C31.2304-13.4435 30.844-13.6643 30.4576-13.8597C30.3642-13.9106 30.2623-13.9149 30.1689-13.9658C29.8589-14.1357 29.5532-14.3352 29.2432-14.4966C28.9672-14.6367 28.6912-14.7811 28.4152-14.8575C28.2447-14.8879 28.0834-14.9569 27.9436-15.0592C27.8038-15.1615 27.6891-15.2945 27.6085-15.4477C27.3567-15.9583 27.1889-16.5057 27.1117-17.0697C27.034-17.5075 26.9632-17.9462 26.8994-18.3861C26.8732-18.609 26.8576-18.8326 26.8527-19.0569C26.8357-19.4051 26.8314-19.7533 26.8187-20.1057L26.8187-20.2713C26.9163-21.4518 26.8484-22.6917 27.0735-23.8381C27.2645-24.8317 27.4131-25.889 27.6255-26.8529C27.9099-28.1055 28.2624-29.252 28.6658-30.3177C29.3027-32.0205 29.9439-33.7232 30.5595-35.4811C30.8355-36.2666 31.0479-37.1795 31.2856-38.0373C31.5281-38.9721 31.6128-39.9406 31.5362-40.9034C31.4852-41.5276 31.4937-42.2325 31.2219-42.6061C31.0486-42.8467 30.8492-43.0675 30.6275-43.2643C30.0512-43.7812 29.3768-44.1768 28.6445-44.4277C28.3133-44.5424 27.9864-44.7589 27.6594-44.9203C27.6042-44.9457 27.5448-44.9075 27.4896-44.899C27.4641-44.8948 27.4301-44.8481 27.4216-44.8693C27.1711-45.3491 26.8611-45.192 26.5894-45.2387C25.9001-45.3389 25.2007-45.3488 24.5088-45.2685C23.7912-45.209 23.0736-45.0731 22.3602-44.8948C21.8457-44.7947 21.3143-44.8254 20.8146-44.984C20.5896-45.0392 20.3603-45.0392 20.1352-45.0477C19.8142-45.0625 19.4928-45.0696 19.1714-45.0689C18.9591-45.0689 18.4538-45.8035 18.424-46.4277C18.403-46.813 18.4653-47.198 18.6066-47.5571C18.9548-48.3384 19.4134-48.4361 19.8423-48.7461C20.1692-48.9753 20.4919-49.2386 20.8104-49.4976C21.2817-49.8798 21.7445-50.3469 22.2201-50.6313C22.8825-51.0305 23.4515-51.8712 24.0714-52.4784C24.564-52.9667 25.048-53.5315 25.5236-54.0962C25.6085-54.1939 25.651-54.4741 25.7062-54.6779C25.7699-54.8987 25.8081-55.162 25.8803-55.3573C26.3261-56.5505 26.7805-57.7267 27.2306-58.9156C27.3962-59.3487 27.5363-59.8413 27.7189-60.2319C28.0586-60.9537 28.3983-61.6713 28.8144-62.1597C29.3112-62.7414 29.8419-62.7541 30.3727-62.9452C30.9035-63.132 31.4173-62.7753 31.9438-62.8433C32.6826-62.9325 33.396-62.4993 34.1009-62.028C34.6104-61.6883 35.0393-60.924 35.4172-60.0026C35.6253-59.4846 35.8716-59.0345 36.0541-58.474C36.3301-57.6587 36.5764-56.7925 36.81-55.9136C36.9586-55.3446 37.086-54.7289 37.1921-54.1089C37.3874-52.988 37.5828-51.8712 37.6422-50.6441C37.6804-49.8798 37.7908-49.1325 37.8588-48.3724C37.897-47.9605 37.9097-47.5317 37.9309-47.1113C37.9607-46.3809 38.0074-45.6464 38.0159-44.9118C38.0159-44.0625 37.9861-43.2048 37.9564-42.3556C37.9394-41.8461 37.8927-41.3365 37.8715-40.827C37.863-40.7123 37.897-40.5807 37.9055-40.517L37.9097-40.5213Z"/>
   <path class="monochrome-1 multicolor-1:tintColor hierarchical-1:tertiary SFSymbolsPreviewWireframe" d="M46.4321-81.8365C52.4502-81.8377 58.4096-80.6532 63.9698-78.3508C69.53-76.0483 74.5822-72.6729 78.8374-68.4176C83.0928-64.1624 86.4682-59.1103 88.771-53.5496C91.0733-47.9892 92.2577-42.03 92.2566-36.0127C92.2566-10.693 71.744 9.83658 46.4328 9.83658C21.1173 9.83658 0.5835-10.6972 0.5835-36.0127C0.5835-61.3211 21.1145-81.8365 46.4321-81.8365ZM46.4328-75.0865C24.8413-75.0865 7.3335-57.592 7.3335-36.0127C7.3335-14.4252 24.8452 3.08658 46.4328 3.08658C68.0148 3.08658 85.5066-14.4197 85.5066-36.0133C85.5076-41.1447 84.4976-46.226 82.5345-50.9672C80.571-55.7085 77.693-60.0162 74.0644-63.6446C70.4361-67.273 66.1283-70.1511 61.3873-72.1143C56.6463-74.0776 51.5649-75.0875 46.4328-75.0865Z"/>
  </g>
  <g id="Ultralight-S" transform="matrix(1 0 0 1 515.649 696)">
   <path class="monochrome-0 multicolor-0:tintColor hierarchical-0:primary SFSymbolsPreviewWireframe" d="M35.8407-41.5213C35.7855-41.1646 35.7048-40.8504 35.6963-40.5277C35.6503-39.2552 35.5442-37.9856 35.3779-36.7231C35.3184-36.239 35.293-35.738 35.242-35.1817C35.3566-35.2454 35.4331-35.2964 35.5138-35.3346L37.1273-36.1669C37.9341-36.5915 38.7366-36.9991 39.5349-37.4534C40.1378-37.7931 40.7323-38.2602 41.3395-38.5574C41.849-38.808 42.3798-38.8844 42.8978-39.0457C43.1526-39.1307 43.3989-39.292 43.6536-39.309C44.3882-39.36 45.1228-39.3642 45.8616-39.3727C46.5877-39.3727 47.3181-39.3472 48.0442-39.3557C48.7193-39.3642 49.3944-39.4406 50.0653-39.4237C50.681-39.4067 51.2967-39.2581 51.9082-39.2368C52.4856-39.2113 53.0631-39.2793 53.6448-39.3005L54.855-39.3387C55.6193-39.3515 56.3836-39.3515 57.1479-39.3769C57.9674-39.3982 58.7954-39.4619 59.6192-39.4746C60.0438-39.4789 60.4684-39.3897 60.893-39.3939C61.4026-39.3982 61.9121-39.3557 62.4216-39.602C62.8462-39.8058 63.2794-39.9289 63.7082-40.0861C64.2602-40.2856 64.8122-40.5446 65.3685-40.6508C65.7379-40.723 66.1582-40.2007 66.0478-39.0712C66.0011-38.7184 65.9098-38.3731 65.7761-38.0437C65.5808-37.5044 65.3515-37.0246 65.1519-36.4853C64.9948-36.0607 64.8547-35.5851 64.7273-35.1053C64.6721-34.9057 64.6933-34.6382 64.825-34.6043C65.1179-34.5321 65.4109-34.4089 65.6997-34.4472C66.3154-34.5236 66.9353-34.6043 67.5425-34.8421C68.3026-35.1393 69.0584-34.9227 69.8184-35.0204C69.9034-35.0331 69.9883-34.9652 70.0732-34.9355C70.3704-34.8378 70.6677-34.7444 70.9606-34.6382C71.0965-34.5873 71.2366-34.5406 71.3683-34.4259C71.4447-34.358 71.5381-34.1712 71.5509-34.0141C71.5374-33.847 71.4882-33.6846 71.4065-33.5385C71.1432-32.9865 70.8715-32.443 70.604-31.8952C70.4596-31.598 70.3195-31.2923 70.1666-31.012C69.8354-30.4048 69.5085-29.7934 69.1645-29.2201C68.9395-28.838 68.689-28.5535 68.4597-28.1713C68.0945-27.5472 67.8397-26.6852 67.585-25.8105C67.1179-24.2182 66.8971-22.3711 66.5744-20.6302C66.5149-20.3245 66.4045-20.0527 66.3833-19.747C66.3408-19.0039 66.1455-18.4901 65.9799-17.9126C65.8546-17.3592 65.6423-16.8288 65.3515-16.3416C65.1392-16.0443 64.9778-15.5221 64.7698-15.1951C64.5829-14.9021 64.3536-14.7535 64.1498-14.52C63.9375-14.2822 63.7252-14.0189 63.5129-13.7641C63.4874-13.7302 63.4662-13.675 63.4365-13.6537L62.29-12.8937C62.031-12.7281 61.772-12.554 61.5087-12.4266C61.3176-12.3417 61.1138-12.3502 60.9227-12.2653C60.2943-11.9893 59.6574-12.1251 59.029-12.0572C58.6723-12.0232 58.3156-11.8449 57.9632-11.7345L57.7509-11.6835C57.4366-11.5816 57.1267-11.4627 56.8125-11.3778C56.494-11.2929 56.1755-11.2759 55.8656-11.174C55.4707-11.0466 55.08-10.8598 54.6851-10.7197C54.528-10.6645 54.3667-10.6602 54.2096-10.6347C53.9378-10.5923 53.6703-10.571 53.4028-10.5073C53.233-10.4649 53.0631-10.329 52.8933-10.2865C52.2776-10.1379 51.6576-9.98932 51.0334-9.89165C50.6088-9.81947 50.1842-9.83645 49.7596-9.79399C49.56-9.77276 49.3562-9.6751 49.1566-9.65812C48.5873-9.60044 48.0169-9.55798 47.4454-9.53073C46.9359-9.50525 46.4306-9.50101 45.9253-9.51799C45.2374-9.54347 44.5496-9.61141 43.8617-9.64538C43.3649-9.66661 42.8681-9.64538 42.3755-9.68784C42.0443-9.71756 41.7131-9.81098 41.3819-9.88741C41.194-9.93235 41.0083-9.98648 40.8257-10.0488C40.486-10.1592 40.1463-10.3035 39.8024-10.3885C39.3141-10.5116 38.8258-10.5838 38.3332-10.6942C38.0614-10.7536 37.7939-10.8428 37.5222-10.9235C37.1613-11.0296 36.8003-11.123 36.4394-11.2547C36.121-11.3736 35.8025-11.5434 35.484-11.675C35.1698-11.8024 34.8514-11.9001 34.5414-12.036C34.2272-12.1718 33.9214-12.3459 33.6072-12.4818C33.1911-12.6686 32.775-12.8427 32.3546-13.0168C31.9852-13.1697 31.6158-13.3141 31.2506-13.4797C30.6773-13.7344 30.1126-13.9892 29.5436-14.2567C29.1614-14.4435 28.775-14.6643 28.3886-14.8597C28.2952-14.9106 28.1933-14.9149 28.0999-14.9658C27.7899-15.1357 27.4842-15.3352 27.1742-15.4966C26.8982-15.6367 26.6222-15.7811 26.3462-15.8575C26.1757-15.8879 26.0144-15.9569 25.8746-16.0592C25.7348-16.1615 25.6201-16.2945 25.5395-16.4477C25.2877-16.9583 25.1199-17.5057 25.0427-18.0697C24.965-18.5075 24.8942-18.9462 24.8304-19.3861C24.8042-19.609 24.7886-19.8326 24.7837-20.0569C24.7667-20.4051 24.7624-20.7533 24.7497-21.1057L24.7497-21.2713C24.8473-22.4518 24.7794-23.6917 25.0045-24.8381C25.1955-25.8317 25.3441-26.889 25.5565-27.8529C25.8409-29.1055 26.1934-30.252 26.5968-31.3177C27.2337-33.0205 27.8749-34.7232 28.4905-36.4811C28.7665-37.2666 28.9789-38.1795 29.2166-39.0373C29.4591-39.9721 29.5438-40.9406 29.4672-41.9034C29.4162-42.5276 29.4247-43.2325 29.1529-43.6061C28.9796-43.8467 28.7802-44.0675 28.5585-44.2643C27.9822-44.7812 27.3078-45.1768 26.5755-45.4277C26.2443-45.5424 25.9174-45.7589 25.5904-45.9203C25.5352-45.9457 25.4758-45.9075 25.4206-45.899C25.3951-45.8948 25.3611-45.8481 25.3526-45.8693C25.1021-46.3491 24.7921-46.192 24.5204-46.2387C23.8311-46.3389 23.1317-46.3488 22.4398-46.2685C21.7222-46.209 21.0046-46.0731 20.2912-45.8948C19.7767-45.7947 19.2453-45.8254 18.7456-45.984C18.5206-46.0392 18.2913-46.0392 18.0662-46.0477C17.7452-46.0625 17.4238-46.0696 17.1024-46.0689C16.8901-46.0689 16.3848-46.8035 16.355-47.4277C16.334-47.813 16.3963-48.198 16.5376-48.5571C16.8858-49.3384 17.3444-49.4361 17.7733-49.7461C18.1002-49.9753 18.4229-50.2386 18.7414-50.4976C19.2127-50.8798 19.6755-51.3469 20.1511-51.6313C20.8135-52.0305 21.3825-52.8712 22.0024-53.4784C22.495-53.9667 22.979-54.5315 23.4546-55.0962C23.5395-55.1939 23.582-55.4741 23.6372-55.6779C23.7009-55.8987 23.7391-56.162 23.8113-56.3573C24.2571-57.5505 24.7115-58.7267 25.1616-59.9156C25.3272-60.3487 25.4673-60.8413 25.6499-61.2319C25.9896-61.9537 26.3293-62.6713 26.7454-63.1597C27.2422-63.7414 27.7729-63.7541 28.3037-63.9452C28.8345-64.132 29.3483-63.7753 29.8748-63.8433C30.6136-63.9325 31.327-63.4993 32.0319-63.028C32.5414-62.6883 32.9703-61.924 33.3482-61.0026C33.5563-60.4846 33.8026-60.0345 33.9851-59.474C34.2611-58.6587 34.5074-57.7925 34.741-56.9136C34.8896-56.3446 35.017-55.7289 35.1231-55.1089C35.3184-53.988 35.5138-52.8712 35.5732-51.6441C35.6114-50.8798 35.7218-50.1325 35.7898-49.3724C35.828-48.9605 35.8407-48.5317 35.8619-48.1113C35.8917-47.3809 35.9384-46.6464 35.9469-45.9118C35.9469-45.0625 35.9171-44.2048 35.8874-43.3556C35.8704-42.8461 35.8237-42.3365 35.8025-41.827C35.794-41.7123 35.828-41.5807 35.8365-41.517L35.8407-41.5213Z"/>
   <path class="monochrome-1 multicolor-1:tintColor hierarchical-1:tertiary SFSymbolsPreviewWireframe" d="M44.3636-80.5865C50.0861-80.5876 55.7528-79.4613 61.04-77.272C66.3271-75.0826 71.1312-71.8729 75.1774-67.8265C79.2239-63.7803 82.4335-58.9764 84.6232-53.6889C86.8124-48.4015 87.9387-42.7349 87.9376-37.0127C87.9376-12.9352 68.432 6.58658 44.3638 6.58658C20.2909 6.58658 0.7645-12.9399 0.7645-37.0127C0.7645-61.0781 20.2877-80.5865 44.3636-80.5865ZM44.3638-78.3365C21.53-78.3365 3.0145-59.8351 3.0145-37.0127C3.0145-14.1825 21.5336 4.33658 44.3638 4.33658C67.1889 4.33658 85.6876-14.1774 85.6876-37.0129C85.6886-42.4398 84.6205-47.8138 82.5443-52.828C80.4678-57.8425 77.4239-62.3983 73.5865-66.2355C69.7491-70.073 65.1932-73.1168 60.1791-75.1931C55.1651-77.2695 49.791-78.3376 44.3638-78.3365Z"/>
  </g>
 </g>
</svg>
