<?xml version="1.0" encoding="UTF-8"?>
<svg width="3300px" height="2200px" viewBox="0 0 3300 2200" version="1.1" xmlns="http://www.w3.org/2000/svg" xmlns:xlink="http://www.w3.org/1999/xlink">
    <!-- Generator: Sketch 59.1 (86144) - https://sketch.com -->
    <title>filter</title>
    <desc>Created with Sketch.</desc>
    <g id="Page-1" stroke="none" stroke-width="1" fill="none" fill-rule="evenodd">
        <g id="filter">
            <g id="Notes">
                <rect id="artboard" fill="#FFFFFF" fill-rule="nonzero" x="0" y="0" width="3300" height="2200"></rect>
                <line x1="263" y1="292" x2="3036" y2="292" id="Path" stroke="#000000" stroke-width="0.5"></line>
                <text id="Weight/Scale-Variations" fill="#000000" font-family="Helvetica-Bold, Helvetica" font-size="13" font-weight="bold">
                    <tspan x="263" y="322">Weight/Scale Variations</tspan>
                </text>
                <text id="Ultralight" fill="#000000" font-family="Helvetica" font-size="13" font-weight="normal">
                    <tspan x="533.711" y="322">Ultralight</tspan>
                </text>
                <text id="Thin" fill="#000000" font-family="Helvetica" font-size="13" font-weight="normal">
                    <tspan x="843.422" y="322">Thin</tspan>
                </text>
                <text id="Light" fill="#000000" font-family="Helvetica" font-size="13" font-weight="normal">
                    <tspan x="1138.63" y="322">Light</tspan>
                </text>
                <text id="Regular" fill="#000000" font-family="Helvetica" font-size="13" font-weight="normal">
                    <tspan x="1426.84" y="322">Regular</tspan>
                </text>
                <text id="Medium" fill="#000000" font-family="Helvetica" font-size="13" font-weight="normal">
                    <tspan x="1723.06" y="322">Medium</tspan>
                </text>
                <text id="Semibold" fill="#000000" font-family="Helvetica" font-size="13" font-weight="normal">
                    <tspan x="2015.77" y="322">Semibold</tspan>
                </text>
                <text id="Bold" fill="#000000" font-family="Helvetica" font-size="13" font-weight="normal">
                    <tspan x="2326.48" y="322">Bold</tspan>
                </text>
                <text id="Heavy" fill="#000000" font-family="Helvetica" font-size="13" font-weight="normal">
                    <tspan x="2618.19" y="322">Heavy</tspan>
                </text>
                <text id="Black" fill="#000000" font-family="Helvetica" font-size="13" font-weight="normal">
                    <tspan x="2917.4" y="322">Black</tspan>
                </text>
                <line x1="263" y1="1903" x2="3036" y2="1903" id="Path" stroke="#000000" stroke-width="0.5"></line>
                <g id="Group" transform="translate(264.000000, 1918.000000)" fill="#000000" fill-rule="nonzero">
                    <path d="M8.24805,15.830078 C12.5547,15.830078 16.1387,12.25586 16.1387,7.94922 C16.1387,3.6426 12.5449,0.0684 8.23828,0.0684 C3.94141,0.0684 0.36719,3.6426 0.36719,7.94922 C0.36719,12.25586 3.95117,15.830078 8.24805,15.830078 Z M8.24805,14.345703 C4.70312,14.345703 1.87109,11.50391 1.87109,7.94922 C1.87109,4.3945 4.69336,1.5527 8.23828,1.5527 C11.793,1.5527 14.6348,4.3945 14.6445503,7.94922 C14.6543,11.50391 11.8027,14.345703 8.24805,14.345703 Z M8.22852,11.57227 C8.69727,11.57227 8.9707,11.25977 8.9707,10.74219 L8.9707,8.68164 L11.1973,8.68164 C11.6953,8.68164 12.0371,8.42773 12.0371,7.95898 C12.0371,7.48047 11.7148,7.2168 11.1973,7.2168 L8.9707,7.2168 L8.9707,4.9902 C8.9707,4.4727 8.69727,4.1504 8.22852,4.1504 C7.75977,4.1504 7.50586,4.4922 7.50586,4.9902 L7.50586,7.2168 L5.29883,7.2168 C4.78125,7.2168 4.44922,7.48047 4.44922,7.95898 C4.44922,8.42773 4.80078,8.68164 5.29883,8.68164 L7.50586,8.68164 L7.50586,10.74219 C7.50586,11.24023 7.75977,11.57227 8.22852,11.57227 Z" id="Shape"></path>
                </g>
                <g id="Group" transform="translate(282.506000, 1915.000000)" fill="#000000" fill-rule="nonzero">
                    <path d="M10.709,20.91016 C16.1582,20.91016 20.6699,16.39844 20.6699,10.94922 C20.6699,5.5098 16.1484,0.9883 10.6992,0.9883 C5.25977,0.9883 0.74805,5.5098 0.74805,10.94922 C0.74805,16.39844 5.26953,20.91016 10.709,20.91016 Z M10.709,19.25 C6.09961,19.25 2.41797,15.55859 2.41797,10.94922 C2.41797,6.3496 6.08984,2.6484 10.6992,2.6484 C15.3086,2.6484 19,6.3496 19.0098379,10.94922 C19.0195,15.55859 15.3184,19.25 10.709,19.25 Z M10.6895,15.58789 C11.207,15.58789 11.5195,15.22656 11.5195,14.66016 L11.5195,11.76953 L14.5762,11.76953 C15.123,11.76953 15.5039,11.48633 15.5039,10.96875 C15.5039,10.44141 15.1426,10.13867 14.5762,10.13867 L11.5195,10.13867 L11.5195,7.0723 C11.5195,6.4961 11.207,6.1445 10.6895,6.1445 C10.1719,6.1445 9.8789,6.5156 9.8789,7.0723 L9.8789,10.13867 L6.83203,10.13867 C6.26562,10.13867 5.89453,10.44141 5.89453,10.96875 C5.89453,11.48633 6.28516,11.76953 6.83203,11.76953 L9.8789,11.76953 L9.8789,14.66016 C9.8789,15.20703 10.1719,15.58789 10.6895,15.58789 Z" id="Shape"></path>
                </g>
                <g id="Group" transform="translate(306.924000, 1913.000000)" fill="#000000" fill-rule="nonzero">
                    <path d="M12.9707,25.67383 C19.9336,25.67383 25.6953,19.921875 25.6953,12.95898 C25.6953,5.9961 19.9238,0.2441 12.9609,0.2441 C6.00781,0.2441 0.25586,5.9961 0.25586,12.95898 C0.25586,19.921875 6.01758,25.67383 12.9707,25.67383 Z M12.9707,23.85742 C6.93555,23.85742 2.08203,18.99414 2.08203,12.95898 C2.08203,6.9238 6.92578,2.0605 12.9609,2.0605 C19.0059,2.0605 23.8594,6.9238 23.8691295,12.95898 C23.8789,18.99414 19.0156,23.85742 12.9707,23.85742 Z M12.9512,18.93555 C13.5176,18.93555 13.8691,18.54492 13.8691,17.93945 L13.8691,13.86719 L18.1074,13.86719 C18.6934,13.86719 19.1133,13.53516 19.1133,12.97852 C19.1133,12.40234 18.7227,12.06055 18.1074,12.06055 L13.8691,12.06055 L13.8691,7.8125 C13.8691,7.1973 13.5176,6.8066 12.9512,6.8066 C12.3848,6.8066 12.0625,7.2168 12.0625,7.8125 L12.0625,12.06055 L7.83398,12.06055 C7.21875,12.06055 6.80859,12.40234 6.80859,12.97852 C6.80859,13.53516 7.23828,13.86719 7.83398,13.86719 L12.0625,13.86719 L12.0625,17.93945 C12.0625,18.52539 12.3848,18.93555 12.9512,18.93555 Z" id="Shape"></path>
                </g>
                <text id="Design-Variations" fill="#000000" font-family="Helvetica-Bold, Helvetica" font-size="13" font-weight="bold">
                    <tspan x="263" y="1953">Design Variations</tspan>
                </text>
                <text id="Symbols-are-supported-in-up-to-nine-weights-and-three-scales." fill="#000000" font-family="Helvetica" font-size="13" font-weight="normal">
                    <tspan x="263" y="1971">Symbols are supported in up to nine weights and three scales.</tspan>
                </text>
                <text id="For-optimal-layout-with-text-and-other-symbols,-vertically-align" fill="#000000" font-family="Helvetica" font-size="13" font-weight="normal">
                    <tspan x="263" y="1989">For optimal layout with text and other symbols, vertically align</tspan>
                </text>
                <text id="symbols-with-the-adjacent-text." fill="#000000" font-family="Helvetica" font-size="13" font-weight="normal">
                    <tspan x="263" y="2007">symbols with the adjacent text.</tspan>
                </text>
                <rect id="Rectangle" fill="#00AEEF" fill-rule="nonzero" opacity="0.4" x="776" y="1919" width="3" height="14"></rect>
                <g id="Group" transform="translate(779.000000, 1918.000000)" fill="#000000" fill-rule="nonzero">
                    <path d="M10.5273,15 L12.373,15 L7.17773,0.9082 L5.43945,0.9082 L0.244141,15 L2.08984,15 L3.50586,10.9668 L9.11133,10.9668 L10.5273,15 Z M6.2793,3.0469 L6.33789,3.0469 L8.59375,9.47266 L4.02344,9.47266 L6.2793,3.0469 Z" id="Shape"></path>
                </g>
                <rect id="Rectangle" fill="#00AEEF" fill-rule="nonzero" opacity="0.4" x="791.617" y="1919" width="3" height="14"></rect>
                <text id="Margins" fill="#000000" font-family="Helvetica-Bold, Helvetica" font-size="13" font-weight="bold">
                    <tspan x="776" y="1953">Margins</tspan>
                </text>
                <text id="Leading-and-trailing-margins-on-the-left-and-right-side-of-each-symbol" fill="#000000" font-family="Helvetica" font-size="13" font-weight="normal">
                    <tspan x="776" y="1971">Leading and trailing margins on the left and right side of each symbol</tspan>
                </text>
                <text id="can-be-adjusted-by-modifying-the-width-of-the-blue-rectangles." fill="#000000" font-family="Helvetica" font-size="13" font-weight="normal">
                    <tspan x="776" y="1989">can be adjusted by modifying the width of the blue rectangles.</tspan>
                </text>
                <text id="Modifications-are-automatically-applied-proportionally-to-all" fill="#000000" font-family="Helvetica" font-size="13" font-weight="normal">
                    <tspan x="776" y="2007">Modifications are automatically applied proportionally to all</tspan>
                </text>
                <text id="scales-and-weights." fill="#000000" font-family="Helvetica" font-size="13" font-weight="normal">
                    <tspan x="776" y="2025">scales and weights.</tspan>
                </text>
                <g id="Group" transform="translate(1291.000000, 1915.000000)" fill="#000000" fill-rule="nonzero">
                    <path d="M0.83203,21.11523 L2.375,22.6582 C3.22461,23.48828 4.19141,23.41992 5.06055,22.46289 L15.2754,11.33984 C15.7051,11.63281 16.0957,11.62305 16.5645,11.52539 L17.6094,11.31055 L18.3027,12.00391 L18.2539,12.52148 C18.1855,13.04883 18.3516,13.46875 18.8496,13.9668 L19.6602,14.77734 C20.168,15.28516 20.8223,15.31445 21.3008,14.83594 L24.5527,11.58398 C25.0312,11.10547 25.0117,10.45117 24.5039,9.94336 L23.6836,9.12305 C23.1855,8.625 22.7754,8.44922 22.2383,8.52734 L21.7109,8.58594 L21.0566,7.9219 L21.3398,6.7793 C21.4863,6.2129 21.3398,5.7441 20.7148,5.1387 L18.3027,2.7461 C14.7578,-0.7793 10.2266,-0.6719 7.11133,2.4629 C6.69141,2.8926 6.64258,3.4785 6.91602,3.9082 C7.15039,4.2793 7.62891,4.5039 8.2734,4.3379 C9.7871,3.957 11.3008,4.0742 12.7852,5.0801 L12.1602,6.6621 C11.9258,7.248 11.9453,7.7266 12.1797,8.16602 L1.01758,18.439453 C0.08008,19.30859 -0.02734,20.25586 0.83203,21.11523 Z M8.6738,2.8535 C11.3398,0.8613 14.6504,1.1738 17.0527,3.5859 L19.6797,6.1934 C19.9141,6.4277 19.9434,6.6133 19.8848,6.9062 L19.5039,8.46875 L21.0762,10.04102 L22.043,9.95312 C22.3262,9.92383 22.4141,9.94336 22.6387,10.16797 L23.2637,10.79297 L20.5098,13.53711 L19.8848,12.92188 C19.6602,12.69727 19.6406,12.59961 19.6699,12.31641 L19.7578,11.35938 L18.1953,9.79688 L16.5742,10.10938 C16.291,10.16797 16.1445,10.16797 15.9102,9.92383 L13.7324,7.7461 C13.5078,7.5117 13.4785,7.375 13.6055,7.0527 L14.5527,4.7773 C12.9512,3.2441 10.8418,2.3945 8.8008,3.0488 C8.7129,3.0781 8.6445,3.0586 8.6152,3.0195 C8.5859,2.9707 8.5859,2.9219 8.6738,2.8535 Z M2.10156,20.41211 C1.61328,19.91406 1.78906,19.61133 2.12109,19.30859 L13.0781,9.19141 L14.3086,10.42188 L4.15234,21.34961 C3.84961,21.68164 3.46875,21.7793 3.06836,21.37891 L2.10156,20.41211 Z" id="Shape"></path>
                </g>
                <text id="Exporting" fill="#000000" font-family="Helvetica-Bold, Helvetica" font-size="13" font-weight="bold">
                    <tspan x="1289" y="1953">Exporting</tspan>
                </text>
                <text id="Symbols-should-be-outlined-when-exporting-to-ensure-the" fill="#000000" font-family="Helvetica" font-size="13" font-weight="normal">
                    <tspan x="1289" y="1971">Symbols should be outlined when exporting to ensure the</tspan>
                </text>
                <text id="design-is-preserved-when-submitting-to-Xcode." fill="#000000" font-family="Helvetica" font-size="13" font-weight="normal">
                    <tspan x="1289" y="1989">design is preserved when submitting to Xcode.</tspan>
                </text>
                <text id="Template-v.1.0" fill="#000000" font-family="Helvetica" font-size="13" font-weight="normal">
                    <tspan x="2952" y="1933">Template v.1.0</tspan>
                </text>
                <text id="Generated-from-circle" fill="#000000" font-family="Helvetica" font-size="13" font-weight="normal">
                    <tspan x="2911" y="1951">Generated from circle</tspan>
                </text>
                <text id="Typeset-at-100-points" fill="#000000" font-family="Helvetica" font-size="13" font-weight="normal">
                    <tspan x="2912" y="1969">Typeset at 100 points</tspan>
                </text>
                <text id="Small" fill="#000000" font-family="Helvetica" font-size="13" font-weight="normal">
                    <tspan x="263" y="726">Small</tspan>
                </text>
                <text id="Medium" fill="#000000" font-family="Helvetica" font-size="13" font-weight="normal">
                    <tspan x="263" y="1156">Medium</tspan>
                </text>
                <text id="Large" fill="#000000" font-family="Helvetica" font-size="13" font-weight="normal">
                    <tspan x="263" y="1586">Large</tspan>
                </text>
            </g>
            <g id="Guides" transform="translate(263.000000, 625.000000)">
                <g id="H-reference" transform="translate(76.000000, 0.000000)" fill="#27AAE1" fill-rule="nonzero">
                    <path d="M54.9316,71 L57.666,71 L30.5664,0.541 L28.0762,0.541 L0.976562,71 L3.66211,71 L12.9395,46.5371 L45.7031,46.5371 L54.9316,71 Z M29.1992,3.9102 L29.4434,3.9102 L44.8242,44.291 L13.8184,44.291 L29.1992,3.9102 Z" id="Shape"></path>
                </g>
                <line x1="0" y1="71" x2="2773" y2="71" id="Baseline-S" stroke="#27AAE1" stroke-width="0.577"></line>
                <line x1="0" y1="0.541" x2="2773" y2="0.541" id="Capline-S" stroke="#27AAE1" stroke-width="0.577"></line>
                <g id="H-reference" transform="translate(76.000000, 430.000000)" fill="#27AAE1" fill-rule="nonzero">
                    <path d="M54.9316,71 L57.666,71 L30.5664,0.541 L28.0762,0.541 L0.976562,71 L3.66211,71 L12.9395,46.5371 L45.7031,46.5371 L54.9316,71 Z M29.1992,3.9102 L29.4434,3.9102 L44.8242,44.291 L13.8184,44.291 L29.1992,3.9102 Z" id="Shape"></path>
                </g>
                <line x1="0" y1="501" x2="2773" y2="501" id="Baseline-M" stroke="#27AAE1" stroke-width="0.577"></line>
                <line x1="0" y1="430.54" x2="2773" y2="430.54" id="Capline-M" stroke="#27AAE1" stroke-width="0.577"></line>
                <g id="H-reference" transform="translate(76.000000, 860.000000)" fill="#27AAE1" fill-rule="nonzero">
                    <path d="M54.9316,71 L57.666,71 L30.5664,0.541 L28.0762,0.541 L0.976562,71 L3.66211,71 L12.9395,46.5371 L45.7031,46.5371 L54.9316,71 Z M29.1992,3.9102 L29.4434,3.9102 L44.8242,44.291 L13.8184,44.291 L29.1992,3.9102 Z" id="Shape"></path>
                </g>
                <line x1="0" y1="931" x2="2773" y2="931" id="Baseline-L" stroke="#27AAE1" stroke-width="0.577"></line>
                <line x1="0" y1="860.54" x2="2773" y2="860.54" id="Capline-L" stroke="#27AAE1" stroke-width="0.577"></line>
                <rect id="left-margin" fill="#00AEEF" fill-rule="nonzero" opacity="0.4" x="1128.3" y="405.79" width="8.74023" height="119.336"></rect>
                <rect id="right-margin" fill="#00AEEF" fill-rule="nonzero" opacity="0.4" x="1236.65" y="405.79" width="8.74023" height="119.336"></rect>
            </g>
            <g id="Symbols" transform="translate(1399.000000, 1040.000000)" fill="#000000" fill-rule="nonzero">
                <g id="Regular-M" transform="translate(0.300000, 0.000000)">
                    <path d="M50.5449,100.5508 C77.791,100.5508 100.35,77.99219 100.35,50.7461 C100.35,23.5488 77.7422,0.9414 50.4961,0.9414 C23.2988,0.9414 0.74023,23.5488 0.74023,50.7461 C0.74023,77.99219 23.3477,100.5508 50.5449,100.5508 Z M50.1551,92.0078 C27.1082,92.0078 8.7,73.5508 8.7,50.5039 C8.7,27.5058 27.0594,9 50.1063,9 C73.1532,9 91.6102,27.5058 91.6593938,50.5039 C91.7082,73.5508 73.202,92.0078 50.1551,92.0078 Z" id="Shape"></path>
                    <path d="M70.290651,52.9067013 C70.6319862,53.1167037 70.9690548,53.3352776 71.3146567,53.5324228 C71.8394596,53.8195689 72.3685292,54.1024292 72.9018655,54.3638608 C73.1408002,54.4795764 73.4138684,54.5010052 73.6485363,54.6210066 C74.6554753,55.1352982 75.6496141,55.6795901 76.6522864,56.1938816 C77.3264235,56.5367427 78.0090939,56.8367461 78.6789643,57.1924644 C79.3360347,57.543897 79.9717715,57.9553303 80.6288419,58.3110486 C81.2261785,58.6410524 81.8363152,58.919627 82.4336519,59.245345 C82.9029879,59.5024908 83.3595237,59.7896369 83.824593,60.05964 C84.2085951,60.2824996 84.6053973,60.4967878 84.9936662,60.7239332 C85.0661999,60.7667909 85.1515337,60.81822 85.1942006,60.8996495 C85.6464698,61.6925157 86.0944723,62.4810961 86.525408,63.2911053 C86.6253578,63.503612 86.6833176,63.7335767 86.6960756,63.9682559 C86.7387425,64.4654044 86.4272741,64.7696936 86.0646055,64.58112 C85.5099357,64.2982597 84.9637993,63.9725417 84.417663,63.6639667 C84.3707294,63.6382521 84.3323291,63.5911088 84.2811289,63.5696799 C83.5472581,63.2268189 82.7835205,62.9696731 82.08805,62.519668 C81.5290849,62.1299426 80.9296606,61.8023062 80.3003067,61.542514 C79.5920361,61.2810824 78.8794988,61.0282224 78.1754949,60.7625051 C77.4757576,60.4967878 76.7802871,60.2053559 76.0848166,59.9439244 C75.6837477,59.7896369 75.2741454,59.6824928 74.8730765,59.5282053 C74.3610736,59.335346 73.8405374,59.1424867 73.3370679,58.9024839 C72.6007206,58.5583443 71.8022034,58.3687601 70.9903882,58.3453347 C70.5978527,58.3239059 70.2095839,58.1996188 69.8170484,58.1567611 C69.4074461,58.1139035 68.9935771,58.1139035 68.5839748,58.0796174 C67.3765014,57.9896164 66.1946282,58.2724767 64.9999549,58.4396215 C64.6074194,58.4910507 64.2063505,58.4096212 63.8180816,58.4653361 C63.4938132,58.5081937 63.1823448,58.6796242 62.8666097,58.7781968 C62.3546068,58.93677 61.8255372,59.0353426 61.3306011,59.2496307 C60.6223305,59.5496341 59.93966,59.9353528 59.2484562,60.2824996 C59.0479217,60.385358 58.8260538,60.4539302 58.6511195,60.6125034 C58.1732502,61.0453655 57.7124476,61.5125136 57.2516451,61.9796618 C56.7268422,62.5068107 56.2276394,63.0768172 55.6943031,63.5782515 C55.0030992,64.2296875 54.3118954,64.889695 53.5780246,65.4382726 C52.7545534,66.0554225 51.8926819,66.5954287 50.9753435,66.9640043 C50.774809,67.0497196 50.6084081,67.3925806 50.4761407,67.6540122 C50.1700834,68.2387357 49.8924227,68.8380171 49.6441361,69.4497469 C49.3710679,70.1440405 49.1235998,70.8640487 48.9187987,71.6012 C48.7678217,72.097011 48.6915986,72.6127334 48.6926641,73.1312174 C48.7097309,73.645509 48.8889319,74.151229 49.025466,74.6483776 C49.1577334,75.1369546 49.3412011,75.599817 49.4777351,76.0841082 C49.6228026,76.5983998 49.7465366,77.1298344 49.8617373,77.6569833 C49.8855387,77.7869749 49.8706991,77.9211289 49.8190704,78.0427019 C49.4734685,78.7669959 49.1065331,79.4784326 48.7523978,80.1984408 C48.6073303,80.4813011 48.321462,80.592731 48.1038608,80.3913001 C47.894793,80.1984408 47.9886602,79.9498665 48.0825274,79.7227211 C48.3939958,78.9812841 48.7822646,78.2784189 48.8633317,77.408409 C48.8965361,76.9422521 48.7717219,76.4785262 48.5091964,76.0926797 C48.2834581,75.7416984 48.0699934,75.3829042 47.8691929,75.0169532 C47.7283921,74.7598074 47.6217248,74.695521 47.468124,74.9826671 C47.1865224,75.5055302 46.8707873,76.0069645 46.6147859,76.5512564 C46.3434453,77.1039767 46.2901034,77.7392868 46.4654517,78.3298481 C46.6190526,78.8441396 46.7683867,79.3584312 46.930521,79.8641513 C46.9603878,79.958438 47.0243882,80.0355818 47.0841218,80.1127255 C47.2547894,80.3355852 47.2206559,80.9527351 47.0115881,80.9955927 C46.8537205,81.0298788 46.6105192,80.8584483 46.5123853,80.6784462 C46.281984,80.2498699 46.1155831,79.7655787 45.923582,79.3027163 L45.9065153,79.2555729 C45.5395799,78.6855664 45.6633139,78.0555592 45.7785146,77.4212663 C45.7870479,77.3569798 45.7785146,77.24555 45.7486477,77.2198354 C45.7059808,77.1855493 45.6291804,77.1855493 45.5779801,77.2155497 C45.3475788,77.3484083 45.2579783,77.5841253 45.193978,77.9227006 C45.0190437,78.8355681 45.3134453,79.4998614 45.7273143,80.1512974 C45.8083814,80.2798703 45.7529144,80.5455876 45.7571811,80.7470185 C45.620647,80.6955893 45.4457127,80.6998751 45.3561122,80.5841595 C45.1641111,80.3355852 45.014777,80.0270103 44.848376,79.7484356 C44.8185092,79.705578 44.7715756,79.6755777 44.7289087,79.6412916 C44.7075753,79.6970065 44.6734417,79.7484356 44.6649084,79.8084363 C44.6137081,80.1512974 44.4174403,80.267013 44.2211726,80.014153 C44.0291715,79.7698645 43.9139708,79.4312892 43.7347699,79.1612861 C43.2867674,78.4841355 43.4062347,77.6398402 43.3721012,76.8641171 C43.3593011,76.5383991 43.5555689,76.1526804 43.7219698,75.8612485 C44.0419716,75.3212424 44.4046402,74.8283796 44.7545089,74.3183738 C44.95931,74.0226561 45.1555778,73.7055097 45.3945124,73.4612212 C45.6931808,73.1483605 46.0601161,72.9426438 46.3545178,72.6169258 C46.6702529,72.2654933 46.930521,71.8326312 47.2163892,71.4340552 C47.2291893,71.4126264 47.233456,71.3740545 47.2462561,71.3440542 C47.6345249,70.4269009 48.0270604,69.5097476 48.4110625,68.5883085 C48.4537294,68.4811645 48.4537294,68.3397343 48.4750629,68.2111614 C48.376929,68.2111614 48.2787951,68.1940183 48.184928,68.2025899 C47.1609223,68.3054482 46.1369166,68.4254495 45.1086442,68.1597322 C44.6307748,68.0397309 44.1401054,68.0097305 43.6579694,67.9583014 C42.9496988,67.8854434 42.3480955,67.4525813 41.7379587,67.0454338 C41.665425,66.9982904 41.5843579,66.9425755 41.5075575,66.934004 C40.6328859,66.8740033 39.9118152,66.3125683 39.1864779,65.7468476 C38.9987435,65.6011316 38.853676,65.3482716 38.6616749,65.232556 C38.5336742,65.159698 38.3502065,65.2196987 38.2051391,65.2839852 C38.0771384,65.3397001 37.9662044,65.468273 37.8638038,65.5882744 C37.5139352,65.9868503 37.1726,66.3982836 36.8269981,66.8011453 C36.7577727,66.8827278 36.6836804,66.9600137 36.6051302,67.0325765 C36.2424615,67.3625803 36.208328,67.7397274 36.3704622,68.2840193 C36.4813961,68.652595 36.5411298,69.0897428 36.511263,69.4797473 C36.4131291,70.7011897 35.9565932,71.7254871 35.4445904,72.7326415 C35.1715222,73.2555045 34.8899206,73.3626486 34.471785,73.2340757 C34.002449,73.0926456 33.5245797,72.9769299 33.0509771,72.8569286 C32.9997768,72.8440713 32.9229763,72.8440713 32.8931095,72.8826432 C32.7096418,73.0883598 32.5517743,73.0026445 32.4365736,72.7883564 C32.1464387,72.2312072 31.8221702,71.6826295 31.6259025,71.0697654 C31.536302,70.8040481 31.5235019,70.5254735 31.3101674,70.3626145 C31.2973673,70.3497572 31.2888339,70.3026138 31.2931006,70.2683277 C31.301634,70.0540395 31.2803005,69.8140368 31.3400342,69.6254632 C31.536302,68.9997418 31.7539032,68.3868777 31.9885711,67.7911566 C32.0397714,67.6625837 32.2147057,67.6325834 32.3299064,67.5511539 L33.0979106,66.9940047 C33.2301781,66.8997179 33.409379,66.7797165 33.2941784,66.5525711 C33.2301781,66.4239982 33.0168435,66.3211398 32.9016429,66.3682832 C32.4536404,66.5439995 31.9800378,66.6682867 31.660036,67.2168643 C31.536302,67.4268667 31.2973673,67.5168678 31.1693666,67.7225844 C31.0474877,67.943419 30.9719771,68.1870083 30.9474987,68.4383068 C30.8920317,68.9525984 30.8621649,69.4797473 30.8493648,70.0026104 C30.8408314,70.5083304 30.9517654,70.9583355 31.3059007,71.2540532 C31.4424348,71.3697688 31.4125679,72.0683482 31.2632338,72.1540634 C31.1821667,72.2097784 31.0072323,72.2269214 30.9730988,72.162635 C30.6744305,71.6483434 30.2690949,71.1811952 30.2392281,70.4911873 C30.1816682,69.7601181 30.1959595,69.0251307 30.281895,68.2968766 C30.3586537,67.6050411 30.632755,66.9502102 31.0712327,66.4111409 C31.1907,66.282568 31.3656343,66.2525676 31.5149685,66.1711381 C31.6685694,66.0854229 31.8221702,65.9868503 31.9843044,65.9139924 C32.2275058,65.793991 32.4792405,65.6011316 32.7267086,65.5925601 C33.341112,65.5754171 33.9555154,65.6354178 34.5699188,65.6782754 C35.0136546,65.6997042 35.4659238,65.8197056 35.8925929,65.7382761 C36.1485943,65.6954184 36.3789956,65.3482716 36.6179302,65.1339835 C36.6614802,65.0944826 36.7001566,65.0498779 36.7331309,65.0011248 L37.0744661,64.4868332 C36.9037985,64.3411173 36.7416643,64.1825441 36.5624633,64.0625427 C36.3789956,63.9382556 36.1571277,63.8996837 35.9907267,63.749682 C35.5384576,63.3425345 35.0349881,63.0511026 34.6467193,62.4982392 C34.3949845,62.1425208 33.9981823,61.9710903 33.6781805,61.7010872 C33.4264458,61.4867991 33.1917778,61.2467963 32.9485765,61.0239367 C32.7864422,60.8782207 32.624308,60.7453621 32.4579071,60.6082176 C32.3512398,60.5225024 32.2275058,60.4582159 32.1379053,60.3425003 C31.5277686,59.5410626 30.8962984,58.7610537 30.3245619,57.9124726 C29.8516097,57.2013399 29.4309354,56.4564975 29.0658882,55.6838758 C28.5867019,54.6824572 28.1594609,53.6567866 27.7858811,52.6109837 C27.5298797,51.899547 27.3933456,51.1109666 27.2440114,50.3395292 C27.0044329,48.9339644 26.8902015,47.5097285 26.9026762,46.0837665 C26.8941428,45.1408986 26.9624098,44.2280311 27.2482781,43.3623069 C27.4488125,42.7665858 27.1629443,42.3337238 27.0093434,41.8537183 C26.877076,41.442285 26.7661421,41.0137087 26.6424081,40.5979897 C26.5144073,40.1694134 26.3608065,39.7579801 26.2498725,39.3251181 C26.1517387,38.9393994 26.0877383,38.5279661 26.0194713,38.1251044 C25.9554709,37.752243 25.9298708,37.3665243 25.8488036,37.0022345 C25.7614787,36.58277 25.5170938,36.2130198 25.1661332,35.9693656 C24.7309307,35.635076 24.2402613,35.6693621 23.8007922,35.4207879 C23.4603018,35.2189279 23.1376932,34.9880776 22.8365202,34.73078 C22.6402524,34.567921 22.6615859,34.1822023 22.8621203,33.9979145 C23.4381235,33.4750514 24.0141268,32.9607599 24.7650643,32.9779029 C25.1063995,32.9864744 25.4477347,32.9007592 25.7805366,32.8150439 C25.8658704,32.7979009 25.9640043,32.6093273 25.9768043,32.4893259 C26.0450714,31.7778892 26.0578715,31.057881 26.147472,30.3550159 C26.2453963,29.6055114 26.3821155,28.8616383 26.5570742,28.1264191 C26.7576087,27.294981 26.9410764,26.4206854 27.2696115,25.6749626 C27.7443067,24.6202603 28.3446045,23.627284 29.0573548,22.717786 C29.6461581,21.9506344 30.4098957,21.7020602 31.122433,21.3334846 C31.604569,21.0806245 32.1891056,21.162054 32.7181752,21.0591957 C33.7976479,20.836336 34.7875201,21.2734839 35.7304586,21.8563477 C36.4301959,22.284924 37.0701994,22.9020739 37.7187364,23.4720803 C38.3459399,24.020658 38.9560766,24.6120933 39.57048,25.1863856 L39.6856806,25.2849581 C40.2360837,25.8163928 40.7779534,26.3563989 41.3454232,26.862119 C41.5928913,27.0806929 41.8915596,27.1964085 42.1560944,27.3935536 C42.3480955,27.5349838 42.5102297,27.7535577 42.6979641,27.9121309 C43.4318348,28.5378523 44.174239,29.1550022 44.9123764,29.7764379 C45.6462472,30.389302 46.3758512,31.0107376 47.1139887,31.619316 C47.8905263,32.2621805 48.6883974,32.8707588 49.4606684,33.5350521 C49.7849369,33.8179125 50.058005,34.2207742 50.3737401,34.5293492 C51.3721457,35.5150747 52.3918847,36.4579425 53.3817569,37.4565254 C53.889493,37.9708169 54.3460289,38.5708238 54.840965,39.1065441 C55.2591007,39.5651208 55.6900364,40.0151259 56.1423056,40.4137019 C57.0852442,41.2408542 58.0452495,42.0422919 59.0095215,42.8308723 C59.3423234,43.1008754 59.7049921,43.3023062 60.0591274,43.5165944 C60.2724619,43.6537388 60.4985965,43.7523113 60.711931,43.88517 C60.8740652,43.9923141 61.0276661,44.1294585 61.181267,44.2494599 C61.5055354,44.5066057 61.8340706,44.7551799 62.1540724,45.0166115 C62.7599424,45.5094742 63.3572791,46.002337 63.9588824,46.5037713 L65.1108888,47.4809252 C65.5290245,47.8323578 65.9514268,48.1923619 66.3823626,48.5095084 C66.817565,48.8352264 67.2399673,49.1780874 67.7477035,49.3366607 C68.0975721,49.4480905 68.4047738,49.7866658 68.7418424,49.9923824 C69.1642447,50.2495282 69.5909138,50.506674 70.0303829,50.7123906 C70.593586,50.9781079 71.1823893,51.175253 71.7498591,51.4281131 C72.0613275,51.5652575 72.3727959,51.7281165 72.6543975,51.9424046 C72.7823982,52.0495487 72.8890655,52.3109803 72.9103989,52.5209827 C72.9445324,52.803843 72.7951983,52.9924166 72.5562636,52.966702 C72.0485274,52.9109871 71.545058,52.8424149 71.0415885,52.7995573 C70.7941205,52.7781284 70.5423857,52.7995573 70.2949177,52.7995573 L70.290651,52.9109871 L70.290651,52.9067013 Z M43.7,70.6232723 L43.4839664,70.5377685 C43.3489453,70.1057492 43.1464138,69.67373 43.0924054,69.2327103 C42.9663858,68.2741676 41.9492274,67.7521444 40.7880465,68.1166606 C40.1714505,68.305669 39.5953608,68.6341837 38.960762,68.7151873 C36.4898772,69.0212009 36.2828449,70.9427865 34.883127,72.0003336 C34.806615,72.0588362 34.8381199,72.1938422 34.8111157,72.2928466 C34.4060527,73.5529028 35.2116781,74.6554519 35.5762349,75.8165036 C35.6212419,75.9650102 35.8777819,76.0865157 36.0623106,76.1945205 C36.4943779,76.4420315 36.9219445,76.6985429 37.3945181,76.8965517 C37.6105517,76.9865558 38.0291169,77.0450584 38.17764,76.9550544 C39.1137858,76.3565277 40.0364295,75.7400002 40.8870619,75.0694703 C41.2614264,74.7475863 41.5740696,74.3602568 41.8097056,73.9264194 C42.466808,72.8328707 43.0699019,71.7213212 43.7,70.6232723 L43.7,70.6232723 Z M52.7,72.153 L52.5379996,72 C52.0744983,72.135 51.5074967,72.2205 51.1654958,72.405 C49.2889906,73.4175 47.4079854,74.4345 45.6349806,75.492 C44.3119769,76.2795 43.4839746,77.193 43.7494754,78.237 C43.8844757,78.7545 44.0329762,79.2855 44.4154772,79.767 C44.8159783,80.2665 45.2569795,80.8245 46.7149835,81 C46.6654834,80.874 46.6249833,80.811 46.6114832,80.7435 C46.3819826,79.8975 45.6934807,79.0065 46.0444817,78.2145 C46.525983,77.112 47.6329861,76.0545 48.7579892,75.0465 C49.8874923,74.034 51.3679963,73.1115 52.7,72.153 L52.7,72.153 Z M32.2129183,73 C32.5863725,72.3969957 33.2252941,71.8389918 33.2117958,71.2899879 C33.1802997,69.8004774 33.9632036,68.4684681 35.4975154,67.3029598 C36.6403753,66.4344537 38.1701876,65.7144486 39.4345326,64.8864428 C39.7179978,64.7064415 39.6235094,64.346439 39.7,64.067437 C39.2320574,64.0494369 38.7011225,63.9504362 38.3006716,64.0314368 C34.5616302,64.7964422 31.4750088,67.5729617 31.8304652,69.7734773 C31.8529625,69.9219783 31.7224785,70.1154797 31.5380011,70.2234804 C30.24216,70.9344854 30.4356363,72.2484947 32.2129183,73 L32.2129183,73 Z" id="Shape"></path>
                </g>
            </g>
        </g>
    </g>
</svg>