<?xml version="1.0" encoding="UTF-8"?>
<svg width="3300px" height="2200px" viewBox="0 0 3300 2200" version="1.1" xmlns="http://www.w3.org/2000/svg" xmlns:xlink="http://www.w3.org/1999/xlink">
    <!-- Generator: Sketch 59.1 (86144) - https://sketch.com -->
    <title>filter</title>
    <desc>Created with Sketch.</desc>
    <g id="Page-1" stroke="none" stroke-width="1" fill="none" fill-rule="evenodd">
        <g id="filter">
            <g id="Notes">
                <rect id="artboard" fill="#FFFFFF" fill-rule="nonzero" x="0" y="0" width="3300" height="2200"></rect>
                <line x1="263" y1="292" x2="3036" y2="292" id="Path" stroke="#000000" stroke-width="0.5"></line>
                <text id="Weight/Scale-Variations" fill="#000000" font-family="Helvetica-Bold, Helvetica" font-size="13" font-weight="bold">
                    <tspan x="263" y="322">Weight/Scale Variations</tspan>
                </text>
                <text id="Ultralight" fill="#000000" font-family="Helvetica" font-size="13" font-weight="normal">
                    <tspan x="533.711" y="322">Ultralight</tspan>
                </text>
                <text id="Thin" fill="#000000" font-family="Helvetica" font-size="13" font-weight="normal">
                    <tspan x="843.422" y="322">Thin</tspan>
                </text>
                <text id="Light" fill="#000000" font-family="Helvetica" font-size="13" font-weight="normal">
                    <tspan x="1138.63" y="322">Light</tspan>
                </text>
                <text id="Regular" fill="#000000" font-family="Helvetica" font-size="13" font-weight="normal">
                    <tspan x="1426.84" y="322">Regular</tspan>
                </text>
                <text id="Medium" fill="#000000" font-family="Helvetica" font-size="13" font-weight="normal">
                    <tspan x="1723.06" y="322">Medium</tspan>
                </text>
                <text id="Semibold" fill="#000000" font-family="Helvetica" font-size="13" font-weight="normal">
                    <tspan x="2015.77" y="322">Semibold</tspan>
                </text>
                <text id="Bold" fill="#000000" font-family="Helvetica" font-size="13" font-weight="normal">
                    <tspan x="2326.48" y="322">Bold</tspan>
                </text>
                <text id="Heavy" fill="#000000" font-family="Helvetica" font-size="13" font-weight="normal">
                    <tspan x="2618.19" y="322">Heavy</tspan>
                </text>
                <text id="Black" fill="#000000" font-family="Helvetica" font-size="13" font-weight="normal">
                    <tspan x="2917.4" y="322">Black</tspan>
                </text>
                <line x1="263" y1="1903" x2="3036" y2="1903" id="Path" stroke="#000000" stroke-width="0.5"></line>
                <g id="Group" transform="translate(264.000000, 1918.000000)" fill="#000000" fill-rule="nonzero">
                    <path d="M8.24805,15.830078 C12.5547,15.830078 16.1387,12.25586 16.1387,7.94922 C16.1387,3.6426 12.5449,0.0684 8.23828,0.0684 C3.94141,0.0684 0.36719,3.6426 0.36719,7.94922 C0.36719,12.25586 3.95117,15.830078 8.24805,15.830078 Z M8.24805,14.345703 C4.70312,14.345703 1.87109,11.50391 1.87109,7.94922 C1.87109,4.3945 4.69336,1.5527 8.23828,1.5527 C11.793,1.5527 14.6348,4.3945 14.6445503,7.94922 C14.6543,11.50391 11.8027,14.345703 8.24805,14.345703 Z M8.22852,11.57227 C8.69727,11.57227 8.9707,11.25977 8.9707,10.74219 L8.9707,8.68164 L11.1973,8.68164 C11.6953,8.68164 12.0371,8.42773 12.0371,7.95898 C12.0371,7.48047 11.7148,7.2168 11.1973,7.2168 L8.9707,7.2168 L8.9707,4.9902 C8.9707,4.4727 8.69727,4.1504 8.22852,4.1504 C7.75977,4.1504 7.50586,4.4922 7.50586,4.9902 L7.50586,7.2168 L5.29883,7.2168 C4.78125,7.2168 4.44922,7.48047 4.44922,7.95898 C4.44922,8.42773 4.80078,8.68164 5.29883,8.68164 L7.50586,8.68164 L7.50586,10.74219 C7.50586,11.24023 7.75977,11.57227 8.22852,11.57227 Z" id="Shape"></path>
                </g>
                <g id="Group" transform="translate(282.506000, 1915.000000)" fill="#000000" fill-rule="nonzero">
                    <path d="M10.709,20.91016 C16.1582,20.91016 20.6699,16.39844 20.6699,10.94922 C20.6699,5.5098 16.1484,0.9883 10.6992,0.9883 C5.25977,0.9883 0.74805,5.5098 0.74805,10.94922 C0.74805,16.39844 5.26953,20.91016 10.709,20.91016 Z M10.709,19.25 C6.09961,19.25 2.41797,15.55859 2.41797,10.94922 C2.41797,6.3496 6.08984,2.6484 10.6992,2.6484 C15.3086,2.6484 19,6.3496 19.0098379,10.94922 C19.0195,15.55859 15.3184,19.25 10.709,19.25 Z M10.6895,15.58789 C11.207,15.58789 11.5195,15.22656 11.5195,14.66016 L11.5195,11.76953 L14.5762,11.76953 C15.123,11.76953 15.5039,11.48633 15.5039,10.96875 C15.5039,10.44141 15.1426,10.13867 14.5762,10.13867 L11.5195,10.13867 L11.5195,7.0723 C11.5195,6.4961 11.207,6.1445 10.6895,6.1445 C10.1719,6.1445 9.8789,6.5156 9.8789,7.0723 L9.8789,10.13867 L6.83203,10.13867 C6.26562,10.13867 5.89453,10.44141 5.89453,10.96875 C5.89453,11.48633 6.28516,11.76953 6.83203,11.76953 L9.8789,11.76953 L9.8789,14.66016 C9.8789,15.20703 10.1719,15.58789 10.6895,15.58789 Z" id="Shape"></path>
                </g>
                <g id="Group" transform="translate(306.924000, 1913.000000)" fill="#000000" fill-rule="nonzero">
                    <path d="M12.9707,25.67383 C19.9336,25.67383 25.6953,19.921875 25.6953,12.95898 C25.6953,5.9961 19.9238,0.2441 12.9609,0.2441 C6.00781,0.2441 0.25586,5.9961 0.25586,12.95898 C0.25586,19.921875 6.01758,25.67383 12.9707,25.67383 Z M12.9707,23.85742 C6.93555,23.85742 2.08203,18.99414 2.08203,12.95898 C2.08203,6.9238 6.92578,2.0605 12.9609,2.0605 C19.0059,2.0605 23.8594,6.9238 23.8691295,12.95898 C23.8789,18.99414 19.0156,23.85742 12.9707,23.85742 Z M12.9512,18.93555 C13.5176,18.93555 13.8691,18.54492 13.8691,17.93945 L13.8691,13.86719 L18.1074,13.86719 C18.6934,13.86719 19.1133,13.53516 19.1133,12.97852 C19.1133,12.40234 18.7227,12.06055 18.1074,12.06055 L13.8691,12.06055 L13.8691,7.8125 C13.8691,7.1973 13.5176,6.8066 12.9512,6.8066 C12.3848,6.8066 12.0625,7.2168 12.0625,7.8125 L12.0625,12.06055 L7.83398,12.06055 C7.21875,12.06055 6.80859,12.40234 6.80859,12.97852 C6.80859,13.53516 7.23828,13.86719 7.83398,13.86719 L12.0625,13.86719 L12.0625,17.93945 C12.0625,18.52539 12.3848,18.93555 12.9512,18.93555 Z" id="Shape"></path>
                </g>
                <text id="Design-Variations" fill="#000000" font-family="Helvetica-Bold, Helvetica" font-size="13" font-weight="bold">
                    <tspan x="263" y="1953">Design Variations</tspan>
                </text>
                <text id="Symbols-are-supported-in-up-to-nine-weights-and-three-scales." fill="#000000" font-family="Helvetica" font-size="13" font-weight="normal">
                    <tspan x="263" y="1971">Symbols are supported in up to nine weights and three scales.</tspan>
                </text>
                <text id="For-optimal-layout-with-text-and-other-symbols,-vertically-align" fill="#000000" font-family="Helvetica" font-size="13" font-weight="normal">
                    <tspan x="263" y="1989">For optimal layout with text and other symbols, vertically align</tspan>
                </text>
                <text id="symbols-with-the-adjacent-text." fill="#000000" font-family="Helvetica" font-size="13" font-weight="normal">
                    <tspan x="263" y="2007">symbols with the adjacent text.</tspan>
                </text>
                <rect id="Rectangle" fill="#00AEEF" fill-rule="nonzero" opacity="0.4" x="776" y="1919" width="3" height="14"></rect>
                <g id="Group" transform="translate(779.000000, 1918.000000)" fill="#000000" fill-rule="nonzero">
                    <path d="M10.5273,15 L12.373,15 L7.17773,0.9082 L5.43945,0.9082 L0.244141,15 L2.08984,15 L3.50586,10.9668 L9.11133,10.9668 L10.5273,15 Z M6.2793,3.0469 L6.33789,3.0469 L8.59375,9.47266 L4.02344,9.47266 L6.2793,3.0469 Z" id="Shape"></path>
                </g>
                <rect id="Rectangle" fill="#00AEEF" fill-rule="nonzero" opacity="0.4" x="791.617" y="1919" width="3" height="14"></rect>
                <text id="Margins" fill="#000000" font-family="Helvetica-Bold, Helvetica" font-size="13" font-weight="bold">
                    <tspan x="776" y="1953">Margins</tspan>
                </text>
                <text id="Leading-and-trailing-margins-on-the-left-and-right-side-of-each-symbol" fill="#000000" font-family="Helvetica" font-size="13" font-weight="normal">
                    <tspan x="776" y="1971">Leading and trailing margins on the left and right side of each symbol</tspan>
                </text>
                <text id="can-be-adjusted-by-modifying-the-width-of-the-blue-rectangles." fill="#000000" font-family="Helvetica" font-size="13" font-weight="normal">
                    <tspan x="776" y="1989">can be adjusted by modifying the width of the blue rectangles.</tspan>
                </text>
                <text id="Modifications-are-automatically-applied-proportionally-to-all" fill="#000000" font-family="Helvetica" font-size="13" font-weight="normal">
                    <tspan x="776" y="2007">Modifications are automatically applied proportionally to all</tspan>
                </text>
                <text id="scales-and-weights." fill="#000000" font-family="Helvetica" font-size="13" font-weight="normal">
                    <tspan x="776" y="2025">scales and weights.</tspan>
                </text>
                <g id="Group" transform="translate(1291.000000, 1915.000000)" fill="#000000" fill-rule="nonzero">
                    <path d="M0.83203,21.11523 L2.375,22.6582 C3.22461,23.48828 4.19141,23.41992 5.06055,22.46289 L15.2754,11.33984 C15.7051,11.63281 16.0957,11.62305 16.5645,11.52539 L17.6094,11.31055 L18.3027,12.00391 L18.2539,12.52148 C18.1855,13.04883 18.3516,13.46875 18.8496,13.9668 L19.6602,14.77734 C20.168,15.28516 20.8223,15.31445 21.3008,14.83594 L24.5527,11.58398 C25.0312,11.10547 25.0117,10.45117 24.5039,9.94336 L23.6836,9.12305 C23.1855,8.625 22.7754,8.44922 22.2383,8.52734 L21.7109,8.58594 L21.0566,7.9219 L21.3398,6.7793 C21.4863,6.2129 21.3398,5.7441 20.7148,5.1387 L18.3027,2.7461 C14.7578,-0.7793 10.2266,-0.6719 7.11133,2.4629 C6.69141,2.8926 6.64258,3.4785 6.91602,3.9082 C7.15039,4.2793 7.62891,4.5039 8.2734,4.3379 C9.7871,3.957 11.3008,4.0742 12.7852,5.0801 L12.1602,6.6621 C11.9258,7.248 11.9453,7.7266 12.1797,8.16602 L1.01758,18.439453 C0.08008,19.30859 -0.02734,20.25586 0.83203,21.11523 Z M8.6738,2.8535 C11.3398,0.8613 14.6504,1.1738 17.0527,3.5859 L19.6797,6.1934 C19.9141,6.4277 19.9434,6.6133 19.8848,6.9062 L19.5039,8.46875 L21.0762,10.04102 L22.043,9.95312 C22.3262,9.92383 22.4141,9.94336 22.6387,10.16797 L23.2637,10.79297 L20.5098,13.53711 L19.8848,12.92188 C19.6602,12.69727 19.6406,12.59961 19.6699,12.31641 L19.7578,11.35938 L18.1953,9.79688 L16.5742,10.10938 C16.291,10.16797 16.1445,10.16797 15.9102,9.92383 L13.7324,7.7461 C13.5078,7.5117 13.4785,7.375 13.6055,7.0527 L14.5527,4.7773 C12.9512,3.2441 10.8418,2.3945 8.8008,3.0488 C8.7129,3.0781 8.6445,3.0586 8.6152,3.0195 C8.5859,2.9707 8.5859,2.9219 8.6738,2.8535 Z M2.10156,20.41211 C1.61328,19.91406 1.78906,19.61133 2.12109,19.30859 L13.0781,9.19141 L14.3086,10.42188 L4.15234,21.34961 C3.84961,21.68164 3.46875,21.7793 3.06836,21.37891 L2.10156,20.41211 Z" id="Shape"></path>
                </g>
                <text id="Exporting" fill="#000000" font-family="Helvetica-Bold, Helvetica" font-size="13" font-weight="bold">
                    <tspan x="1289" y="1953">Exporting</tspan>
                </text>
                <text id="Symbols-should-be-outlined-when-exporting-to-ensure-the" fill="#000000" font-family="Helvetica" font-size="13" font-weight="normal">
                    <tspan x="1289" y="1971">Symbols should be outlined when exporting to ensure the</tspan>
                </text>
                <text id="design-is-preserved-when-submitting-to-Xcode." fill="#000000" font-family="Helvetica" font-size="13" font-weight="normal">
                    <tspan x="1289" y="1989">design is preserved when submitting to Xcode.</tspan>
                </text>
                <text id="Template-v.1.0" fill="#000000" font-family="Helvetica" font-size="13" font-weight="normal">
                    <tspan x="2952" y="1933">Template v.1.0</tspan>
                </text>
                <text id="Generated-from-circle" fill="#000000" font-family="Helvetica" font-size="13" font-weight="normal">
                    <tspan x="2911" y="1951">Generated from circle</tspan>
                </text>
                <text id="Typeset-at-100-points" fill="#000000" font-family="Helvetica" font-size="13" font-weight="normal">
                    <tspan x="2912" y="1969">Typeset at 100 points</tspan>
                </text>
                <text id="Small" fill="#000000" font-family="Helvetica" font-size="13" font-weight="normal">
                    <tspan x="263" y="726">Small</tspan>
                </text>
                <text id="Medium" fill="#000000" font-family="Helvetica" font-size="13" font-weight="normal">
                    <tspan x="263" y="1156">Medium</tspan>
                </text>
                <text id="Large" fill="#000000" font-family="Helvetica" font-size="13" font-weight="normal">
                    <tspan x="263" y="1586">Large</tspan>
                </text>
            </g>
            <g id="Guides" transform="translate(263.000000, 625.000000)">
                <g id="H-reference" transform="translate(76.000000, 0.000000)" fill="#27AAE1" fill-rule="nonzero">
                    <path d="M54.9316,71 L57.666,71 L30.5664,0.541 L28.0762,0.541 L0.976562,71 L3.66211,71 L12.9395,46.5371 L45.7031,46.5371 L54.9316,71 Z M29.1992,3.9102 L29.4434,3.9102 L44.8242,44.291 L13.8184,44.291 L29.1992,3.9102 Z" id="Shape"></path>
                </g>
                <line x1="0" y1="71" x2="2773" y2="71" id="Baseline-S" stroke="#27AAE1" stroke-width="0.577"></line>
                <line x1="0" y1="0.541" x2="2773" y2="0.541" id="Capline-S" stroke="#27AAE1" stroke-width="0.577"></line>
                <g id="H-reference" transform="translate(76.000000, 430.000000)" fill="#27AAE1" fill-rule="nonzero">
                    <path d="M54.9316,71 L57.666,71 L30.5664,0.541 L28.0762,0.541 L0.976562,71 L3.66211,71 L12.9395,46.5371 L45.7031,46.5371 L54.9316,71 Z M29.1992,3.9102 L29.4434,3.9102 L44.8242,44.291 L13.8184,44.291 L29.1992,3.9102 Z" id="Shape"></path>
                </g>
                <line x1="0" y1="501" x2="2773" y2="501" id="Baseline-M" stroke="#27AAE1" stroke-width="0.577"></line>
                <line x1="0" y1="430.54" x2="2773" y2="430.54" id="Capline-M" stroke="#27AAE1" stroke-width="0.577"></line>
                <g id="H-reference" transform="translate(76.000000, 860.000000)" fill="#27AAE1" fill-rule="nonzero">
                    <path d="M54.9316,71 L57.666,71 L30.5664,0.541 L28.0762,0.541 L0.976562,71 L3.66211,71 L12.9395,46.5371 L45.7031,46.5371 L54.9316,71 Z M29.1992,3.9102 L29.4434,3.9102 L44.8242,44.291 L13.8184,44.291 L29.1992,3.9102 Z" id="Shape"></path>
                </g>
                <line x1="0" y1="931" x2="2773" y2="931" id="Baseline-L" stroke="#27AAE1" stroke-width="0.577"></line>
                <line x1="0" y1="860.54" x2="2773" y2="860.54" id="Capline-L" stroke="#27AAE1" stroke-width="0.577"></line>
                <rect id="left-margin" fill="#00AEEF" fill-rule="nonzero" opacity="0.4" x="1128.3" y="405.79" width="8.74023" height="119.336"></rect>
                <rect id="right-margin" fill="#00AEEF" fill-rule="nonzero" opacity="0.4" x="1236.65" y="405.79" width="8.74023" height="119.336"></rect>
            </g>
            <g id="Symbols" transform="translate(1399.000000, 1040.000000)" fill="#000000" fill-rule="nonzero">
                <g id="Regular-M" transform="translate(0.300000, 0.000000)">
                    <!-- <path d="M50.5449,100.5508 C77.791,100.5508 100.35,77.99219 100.35,50.7461 C100.35,23.5488 77.7422,0.9414 50.4961,0.9414 C23.2988,0.9414 0.74023,23.5488 0.74023,50.7461 C0.74023,77.99219 23.3477,100.5508 50.5449,100.5508 Z M50.1551,92.0078 C27.1082,92.0078 8.7,73.5508 8.7,50.5039 C8.7,27.5058 27.0594,9 50.1063,9 C73.1532,9 91.6102,27.5058 91.6593938,50.5039 C91.7082,73.5508 73.202,92.0078 50.1551,92.0078 Z" id="Shape"></path> -->
                    <path d="M30.9933712,54.8249218 C29.9678994,53.694429 28.9680644,52.6149359 28.1476869,51.1614452 C27.8219423,50.6342506 27.6054822,50.0475842 27.5110398,49.4359563 C27.4876057,49.178301 27.3497154,48.9445163 27.1350335,48.7984604 C27.0410319,48.7304608 26.9384847,48.692211 26.8444831,48.6242115 C26.6735712,48.4924623 26.6479344,48.2884636 26.8017551,48.1014648 C26.9769399,47.8889662 27.1649431,47.6764675 27.3700374,47.5532183 C27.6171427,47.3717395 27.8152992,47.1323019 27.9468654,46.8562228 C28.0964133,46.6012244 28.2459613,46.3292262 28.4296917,46.1422273 C28.7971524,45.7597298 29.1603403,45.3602324 29.6218027,45.2752329 C29.8995346,45.2242332 30.1644482,44.9947347 30.4421801,44.947985 C30.8267321,44.8799854 31.211284,44.8799854 31.5958359,44.8969853 C32.1769366,44.9224852 32.7580373,44.9777348 33.339138,45.0329844 C33.7920548,45.0754842 34.1637883,44.6759867 34.3176091,43.9789912 C34.4799754,43.2394959 34.5013394,42.4745008 34.4372475,41.7095057 C34.3877713,40.8333269 34.2619641,39.9630695 34.0612411,39.1085224 C33.6950454,37.8126677 33.8642423,36.4250154 34.531249,35.253797 C34.9670746,34.471802 35.4114457,33.698307 35.8686352,32.9375619 C36.001092,32.7080633 36.1762768,32.5423144 36.3300975,32.3510656 L38.2955852,29.9625809 C38.6801371,29.482334 39.0561435,28.9723372 39.4577866,28.5175901 C39.7697009,28.1605924 40.1115249,27.8673443 40.4405304,27.5400964 C40.598624,27.3828474 40.7524448,27.2000986 40.9105384,27.0428496 C41.3976375,26.5626026 41.8719182,26.0653558 42.3632901,25.6191087 C43.132394,24.9221131 43.9314074,24.3016171 44.6876929,23.5791217 C45.2517024,23.0393752 45.8199847,22.5378784 46.4395406,22.1766307 C46.9480037,21.8791326 47.4265573,21.4626353 47.9264748,21.1141375 C48.3110267,20.8506392 48.687033,20.5531411 49.0801306,20.3576424 C50.0628744,19.8773954 51.0456182,19.4268983 52.0326349,19.001901 C52.7461923,18.691653 53.4725682,18.4451546 54.1903985,18.1604064 C54.4894945,18.0414072 54.7800448,17.8714083 55.0791408,17.7779089 C55.5320575,17.6291598 55.989247,17.5186605 56.4464365,17.3996613 C56.7882605,17.3146618 57.1300844,17.2424123 57.4719083,17.1659128 C57.7368219,17.1064132 58.0017355,17.0214137 58.266649,17 C58.4302457,16.9967775 58.5905782,17.0459617 58.7238385,17.1404129 C58.9246601,17.2764121 58.9374785,17.450661 58.8092945,17.7354091 C58.5785634,18.2539058 58.245285,18.5726538 57.9290979,18.9296515 C57.202722,19.7498962 56.4336181,20.4766416 55.8012438,21.509385 C55.03214,22.7716269 54.2416721,23.9956191 53.4939322,25.2876108 C53.1307443,25.9166068 52.8401939,26.6561021 52.519734,27.3530976 C52.0497261,28.385841 51.5540814,29.3930845 50.9900718,30.3110787 C50.6354295,30.8975749 50.3363336,31.5860705 50.0372376,32.2533162 C49.7509601,32.8780622 49.5202289,33.5538079 49.1484954,34.0808045 C48.867847,34.5198959 48.6344075,34.9871298 48.4520291,35.4747956 C48.1401147,36.2185409 47.7213804,36.7752873 47.3282829,37.3787834 C46.9864589,37.8972801 46.6617262,38.4285267 46.3284478,38.9512734 C45.9353503,39.5760194 45.53798,40.1965154 45.1491552,40.8297613 C44.9867889,41.0932597 44.8201497,41.356758 44.7005113,41.662756 C44.6043363,41.9107608 44.5564845,42.1747034 44.5595089,42.440501 C44.5851457,43.1374966 44.7133297,43.7877424 44.9141513,44.4124884 C45.0636993,44.8714855 45.1662464,45.3772322 45.2559752,45.878729 C45.3841592,46.6139743 45.5080704,47.3534696 45.5977992,48.1057148 C45.6533456,48.6157115 45.6576184,49.1469581 45.6618912,49.6697048 C45.6618912,50.1372018 45.6319816,50.6089488 45.6191632,51.0806957 C45.6106176,51.2336948 45.5935264,51.3951937 45.6191632,51.5354428 C45.6490728,51.662942 45.7174375,51.8371909 45.7815295,51.8584408 C46.4651774,52.0751894 46.9608221,52.8104347 47.4863764,53.4521806 C48.3537547,54.5146738 49.2595881,55.4369179 50.3149696,55.9171648 C50.6567935,56.0701638 51.007163,56.1849131 51.348987,56.3336621 C52.2975484,56.7586594 53.2375643,57.2091565 54.1903985,57.604404 C54.647588,57.7914028 55.1218687,57.8466524 55.5833311,58.0209013 C56.2114326,58.2588998 56.8309885,58.543648 57.4505444,58.8283962 C58.1555562,59.1556441 58.8477497,59.5211417 59.5527616,59.8356397 C60.0484063,60.0523883 60.5525966,60.1968874 61.0482413,60.4051361 C62.1249868,60.8641331 63.2017322,61.34863 64.2827504,61.8076271 C64.5177544,61.9138764 64.7655767,61.9351263 64.9963079,62.0456256 C65.7269566,62.3983733 66.4576052,62.7766209 67.1839811,63.1463685 C67.2993467,63.2016182 67.4104395,63.2568678 67.525805,63.3036175 L69.1708328,63.9708633 C69.7433879,64.2046118 70.3202158,64.4213604 70.8884981,64.6763587 C71.2046852,64.8208578 71.508054,65.0376064 71.8242411,65.2076053 C72.379705,65.5093534 72.9437145,65.8026015 73.5034512,66.1000996 C73.5702262,66.13492 73.6241069,66.1900015 73.657272,66.2573486 C73.6914544,66.3253482 73.6871816,66.4358475 73.7,66.5293469 C73.6487264,66.5463468 73.59318,66.5930965 73.550452,66.5718466 C73.1060809,66.3975977 72.6659826,66.202099 72.2258842,66.0278501 C71.8199683,65.8663511 71.4140524,65.721852 71.0081365,65.5646031 C70.8799525,65.5136034 70.7389501,65.4796036 70.6235845,65.3903542 C70.1578494,65.0333565 69.6622047,64.9058573 69.1708328,64.7358584 C68.2094529,64.4001105 67.2480731,64.0898625 66.2866933,63.7371148 C65.3210406,63.380117 64.3639336,62.9636197 63.4025537,62.602372 C62.8043618,62.3813734 62.1976243,62.2326244 61.5994325,62.0243757 C61.1379701,61.8628767 60.6850534,61.6333782 60.2235911,61.4846292 C59.3989408,61.2168809 58.5700178,60.9916323 57.7453675,60.7536338 C57.7073376,60.7388742 57.6663928,60.7330562 57.6257291,60.736634 C57.0232644,60.8428833 56.4207997,60.9491326 55.8226078,61.0638819 C55.754243,61.0766318 55.6944239,61.1403814 55.5705127,61.2168809 C55.8525174,61.6121283 56.0704302,62.0328757 56.3438893,62.296374 C57.2710868,63.1803683 58.2068298,64.0388628 59.2365745,64.5998592 C59.9287679,64.9738568 60.586779,65.5221033 61.2746997,65.9088509 C62.0950772,66.3678479 62.928273,66.7418455 63.7529233,67.1498429 C63.8811073,67.2135925 64.0178368,67.2518423 64.141748,67.3198418 C64.7143031,67.6428398 65.2825854,67.9870876 65.8594133,68.2803357 C66.2567837,68.4800844 66.6712452,68.5778338 67.0728883,68.7690825 C67.7138082,69.0793306 68.3461825,69.4363283 68.9828296,69.7550762 C69.2007424,69.8655755 69.4272007,69.9250752 69.6493863,70.0015747 C70.0510294,70.1375738 70.4526726,70.265073 70.8500429,70.4095721 C71.4183252,70.6178207 71.9866075,70.8345693 72.550617,71.0598179 C72.6942734,71.1201383 72.8270553,71.2034014 72.9437145,71.3063163 C73.0078065,71.3658159 73.0505345,71.4933151 73.1060809,71.5910645 C73.0291705,71.6590641 72.9522601,71.7823133 72.8753497,71.7823133 C72.6310608,71.7849253 72.3872961,71.7592528 72.1489739,71.7058138 C71.2782001,71.4709345 70.4389804,71.1327592 69.6493863,70.6985702 C69.2477432,70.4945715 68.824736,70.4010721 68.4102745,70.2480731 C67.4702587,69.8910754 66.5216972,69.5510775 65.590227,69.16433 C65.1159463,68.9688313 64.6587567,68.6798331 64.1972944,68.4375847 L61.9968028,67.290092 C61.7489804,67.1583429 61.5182493,66.9585941 61.2704269,66.8565948 C60.4842318,66.5293469 59.693764,66.2445987 58.9118417,65.9131008 C58.3657302,65.6807098 57.8297285,65.4254841 57.3052692,65.1481057 C56.5489837,64.7486083 55.796971,64.3363609 55.0065032,64.1578621 C54.7523109,64.0938599 54.5148361,63.9764813 54.3100369,63.8136143 C53.4866531,63.2006292 52.5877546,62.695022 51.6352645,62.3091239 C51.0968918,62.0796254 50.5713375,61.7438775 50.028692,61.5611287 C49.3708796,61.3300879 48.6906948,61.1677156 47.9991124,61.0766318 C47.452194,61.0128822 46.9010029,61.1446313 46.3498118,61.1531313 C46.0096818,61.1574969 45.6700975,61.1247175 45.3371584,61.0553819 C44.4519635,60.84162 43.5336137,60.7997719 42.6324765,60.9321327 C42.3419261,60.9831324 42.1197406,61.1318814 41.9915566,61.6291282 C41.7223702,62.6618716 41.4190015,63.6691152 41.1327239,64.6933586 C40.9627117,65.3697594 40.9235612,66.0721468 41.0173583,66.7630954 C41.0686319,67.2305924 41.1583607,67.6810895 41.1968159,68.1485865 C41.2865447,69.2195797 41.5941862,70.1588237 41.8676454,71.1235675 C42.1069222,71.9650621 42.3461989,72.8150567 42.6153853,73.6353014 C42.7734788,74.1155483 42.9871188,74.5447956 43.1708492,75.0080426 C43.3460339,75.4585397 43.5126731,75.9260367 43.6921307,76.3680339 C43.897225,76.8652807 44.1236834,77.3412777 44.3373234,77.8257746 L44.4825985,78.1742724 C44.7902401,78.9180176 45.0765176,79.6830127 45.4055232,80.4012581 C45.6319816,80.8985049 45.9182591,81.3277522 46.1746271,81.7909992 L47.3453741,83.8989857 C47.4863764,84.166734 47.5333772,84.5152318 47.4436484,84.7107305 C47.3240101,84.9827288 47.1445525,85.0422284 46.9565493,84.9742288 C46.559179,84.8382297 46.1618087,84.6894807 45.8456215,84.1964838 C45.7054714,83.9875897 45.5339977,83.8012662 45.3371584,83.6439874 C44.4223763,82.8666657 43.5668886,82.022851 42.7777516,81.1195035 C41.961647,80.1887595 41.1455423,79.2452655 40.3123465,78.3570212 C39.3723306,77.3582776 38.6160451,76.049286 37.8255773,74.787044 C37.4752077,74.2175477 37.0906558,73.703301 36.7231951,73.1635544 C36.6505575,73.0530551 36.5736471,72.9425558 36.5052823,72.8235566 C35.9327272,71.816313 35.3601721,70.8175694 34.8004354,69.8018259 C34.6295234,69.487328 34.4927938,69.1260803 34.3432459,68.7818325 L32.9973141,65.6368526 C32.8734029,65.3521044 32.7409461,65.0886061 32.617035,64.8038579 C32.1983006,63.8008643 31.7667479,62.8063707 31.3779232,61.7778773 C31.1813744,61.2466307 31.040372,60.6516345 30.9079152,60.0693882 C30.722702,59.3118799 30.5659239,58.5477716 30.4379073,57.7786529 C30.2828836,56.8526422 30.4327512,55.9015945 30.8651873,55.0671702 L30.9933712,54.8291718 L30.9933712,54.8249218 Z" id="Path"></path>
                </g>
            </g>
        </g>
    </g>
</svg>