<?xml version="1.0" encoding="UTF-8"?>
<!--Generator: Apple Native CoreSVG 341-->
<!DOCTYPE svg
PUBLIC "-//W3C//DTD SVG 1.1//EN"
       "http://www.w3.org/Graphics/SVG/1.1/DTD/svg11.dtd">
<svg version="1.1" xmlns="http://www.w3.org/2000/svg" xmlns:xlink="http://www.w3.org/1999/xlink" viewBox="0 0 3300 2200">
 <!--glyph: "", point size: 100.0, font version: "20.0d10e1", template writer version: "138.0.0"-->
 <style>.monochrome-0 {-sfsymbols-motion-group:1;-sfsymbols-layer-tags:-75663d3d6638ab92}
.monochrome-1 {-sfsymbols-motion-group:0;-sfsymbols-layer-tags:-75663d3d6638ab92}

.multicolor-0:tintColor {-sfsymbols-motion-group:1;-sfsymbols-layer-tags:-75663d3d6638ab92}
.multicolor-1:tintColor {-sfsymbols-motion-group:0;-sfsymbols-layer-tags:-75663d3d6638ab92}

.hierarchical-0:primary {-sfsymbols-motion-group:1;-sfsymbols-layer-tags:-75663d3d6638ab92}
.hierarchical-1:tertiary {-sfsymbols-motion-group:0;-sfsymbols-layer-tags:-75663d3d6638ab92}

.SFSymbolsPreviewWireframe {fill:none;opacity:1.0;stroke:black;stroke-width:0.5}
</style>
 <g id="Notes">
  <rect height="2200" id="artboard" style="fill:white;opacity:1" width="3300" x="0" y="0"/>
  <line style="fill:none;stroke:black;opacity:1;stroke-width:0.5;" x1="263" x2="3036" y1="292" y2="292"/>
  <text style="stroke:none;fill:black;font-family:sans-serif;font-size:13;font-weight:bold;" transform="matrix(1 0 0 1 263 322)">Weight/Scale Variations</text>
  <text style="stroke:none;fill:black;font-family:sans-serif;font-size:13;text-anchor:middle;" transform="matrix(1 0 0 1 559.711 322)">Ultralight</text>
  <text style="stroke:none;fill:black;font-family:sans-serif;font-size:13;text-anchor:middle;" transform="matrix(1 0 0 1 856.422 322)">Thin</text>
  <text style="stroke:none;fill:black;font-family:sans-serif;font-size:13;text-anchor:middle;" transform="matrix(1 0 0 1 1153.13 322)">Light</text>
  <text style="stroke:none;fill:black;font-family:sans-serif;font-size:13;text-anchor:middle;" transform="matrix(1 0 0 1 1449.84 322)">Regular</text>
  <text style="stroke:none;fill:black;font-family:sans-serif;font-size:13;text-anchor:middle;" transform="matrix(1 0 0 1 1746.56 322)">Medium</text>
  <text style="stroke:none;fill:black;font-family:sans-serif;font-size:13;text-anchor:middle;" transform="matrix(1 0 0 1 2043.27 322)">Semibold</text>
  <text style="stroke:none;fill:black;font-family:sans-serif;font-size:13;text-anchor:middle;" transform="matrix(1 0 0 1 2339.98 322)">Bold</text>
  <text style="stroke:none;fill:black;font-family:sans-serif;font-size:13;text-anchor:middle;" transform="matrix(1 0 0 1 2636.69 322)">Heavy</text>
  <text style="stroke:none;fill:black;font-family:sans-serif;font-size:13;text-anchor:middle;" transform="matrix(1 0 0 1 2933.4 322)">Black</text>
  <line style="fill:none;stroke:black;opacity:1;stroke-width:0.5;" x1="263" x2="3036" y1="1903" y2="1903"/>
  <g transform="matrix(0.2 0 0 0.2 263 1933)">
   <path d="m46.2402 4.15039c21.7773 0 39.4531-17.627 39.4531-39.4043s-17.6758-39.4043-39.4531-39.4043c-21.7285 0-39.4043 17.627-39.4043 39.4043s17.6758 39.4043 39.4043 39.4043Zm0-7.42188c-17.6758 0-31.9336-14.3066-31.9336-31.9824s14.2578-31.9824 31.9336-31.9824 31.9824 14.3066 31.9824 31.9824-14.3066 31.9824-31.9824 31.9824Zm-17.9688-31.9824c0 2.14844 1.51367 3.61328 3.75977 3.61328h10.498v10.5957c0 2.19727 1.46484 3.71094 3.61328 3.71094 2.24609 0 3.71094-1.51367 3.71094-3.71094v-10.5957h10.5957c2.19727 0 3.71094-1.46484 3.71094-3.61328 0-2.19727-1.51367-3.71094-3.71094-3.71094h-10.5957v-10.5469c0-2.24609-1.46484-3.75977-3.71094-3.75977-2.14844 0-3.61328 1.51367-3.61328 3.75977v10.5469h-10.498c-2.24609 0-3.75977 1.51367-3.75977 3.71094Z"/>
  </g>
  <g transform="matrix(0.2 0 0 0.2 281.506 1933)">
   <path d="m58.5449 14.5508c27.4902 0 49.8047-22.3145 49.8047-49.8047s-22.3145-49.8047-49.8047-49.8047-49.8047 22.3145-49.8047 49.8047 22.3145 49.8047 49.8047 49.8047Zm0-8.30078c-22.9492 0-41.5039-18.5547-41.5039-41.5039s18.5547-41.5039 41.5039-41.5039 41.5039 18.5547 41.5039 41.5039-18.5547 41.5039-41.5039 41.5039Zm-22.6562-41.5039c0 2.39258 1.66016 4.00391 4.15039 4.00391h14.3555v14.4043c0 2.44141 1.66016 4.15039 4.05273 4.15039 2.44141 0 4.15039-1.66016 4.15039-4.15039v-14.4043h14.4043c2.44141 0 4.15039-1.61133 4.15039-4.00391 0-2.44141-1.70898-4.15039-4.15039-4.15039h-14.4043v-14.3555c0-2.49023-1.70898-4.19922-4.15039-4.19922-2.39258 0-4.05273 1.70898-4.05273 4.19922v14.3555h-14.3555c-2.49023 0-4.15039 1.70898-4.15039 4.15039Z"/>
  </g>
  <g transform="matrix(0.2 0 0 0.2 304.924 1933)">
   <path d="m74.8535 28.3203c35.1074 0 63.623-28.4668 63.623-63.5742s-28.5156-63.623-63.623-63.623-63.5742 28.5156-63.5742 63.623 28.4668 63.5742 63.5742 63.5742Zm0-9.08203c-30.127 0-54.4922-24.3652-54.4922-54.4922s24.3652-54.4922 54.4922-54.4922 54.4922 24.3652 54.4922 54.4922-24.3652 54.4922-54.4922 54.4922Zm-28.8574-54.4922c0 2.58789 1.85547 4.39453 4.58984 4.39453h19.7266v19.7754c0 2.68555 1.85547 4.58984 4.44336 4.58984 2.68555 0 4.54102-1.85547 4.54102-4.58984v-19.7754h19.7754c2.68555 0 4.58984-1.80664 4.58984-4.39453 0-2.73438-1.85547-4.58984-4.58984-4.58984h-19.7754v-19.7266c0-2.73438-1.85547-4.63867-4.54102-4.63867-2.58789 0-4.44336 1.9043-4.44336 4.63867v19.7266h-19.7266c-2.73438 0-4.58984 1.85547-4.58984 4.58984Z"/>
  </g>
  <text style="stroke:none;fill:black;font-family:sans-serif;font-size:13;font-weight:bold;" transform="matrix(1 0 0 1 263 1953)">Design Variations</text>
  <text style="stroke:none;fill:black;font-family:sans-serif;font-size:13;" transform="matrix(1 0 0 1 263 1971)">Symbols are supported in up to nine weights and three scales.</text>
  <text style="stroke:none;fill:black;font-family:sans-serif;font-size:13;" transform="matrix(1 0 0 1 263 1989)">For optimal layout with text and other symbols, vertically align</text>
  <text style="stroke:none;fill:black;font-family:sans-serif;font-size:13;" transform="matrix(1 0 0 1 263 2007)">symbols with the adjacent text.</text>
  <line style="fill:none;stroke:#00AEEF;stroke-width:0.5;opacity:1.0;" x1="776" x2="776" y1="1919" y2="1933"/>
  <g transform="matrix(0.2 0 0 0.2 776 1933)">
   <path d="m16.5527 0.78125c2.58789 0 3.85742-0.976562 4.78516-3.71094l6.29883-17.2363h28.8086l6.29883 17.2363c0.927734 2.73438 2.19727 3.71094 4.73633 3.71094 2.58789 0 4.24805-1.5625 4.24805-4.00391 0-0.830078-0.146484-1.61133-0.537109-2.63672l-22.9004-60.9863c-1.12305-2.97852-3.125-4.49219-6.25-4.49219-3.02734 0-5.07812 1.46484-6.15234 4.44336l-22.9004 61.084c-0.390625 1.02539-0.537109 1.80664-0.537109 2.63672 0 2.44141 1.5625 3.95508 4.10156 3.95508Zm13.4766-28.3691 11.8652-32.8613h0.244141l11.8652 32.8613Z"/>
  </g>
  <line style="fill:none;stroke:#00AEEF;stroke-width:0.5;opacity:1.0;" x1="792.836" x2="792.836" y1="1919" y2="1933"/>
  <text style="stroke:none;fill:black;font-family:sans-serif;font-size:13;font-weight:bold;" transform="matrix(1 0 0 1 776 1953)">Margins</text>
  <text style="stroke:none;fill:black;font-family:sans-serif;font-size:13;" transform="matrix(1 0 0 1 776 1971)">Leading and trailing margins on the left and right side of each symbol</text>
  <text style="stroke:none;fill:black;font-family:sans-serif;font-size:13;" transform="matrix(1 0 0 1 776 1989)">can be adjusted by modifying the x-location of the margin guidelines.</text>
  <text style="stroke:none;fill:black;font-family:sans-serif;font-size:13;" transform="matrix(1 0 0 1 776 2007)">Modifications are automatically applied proportionally to all</text>
  <text style="stroke:none;fill:black;font-family:sans-serif;font-size:13;" transform="matrix(1 0 0 1 776 2025)">scales and weights.</text>
  <g transform="matrix(0.2 0 0 0.2 1289 1933)">
   <path d="m14.209 9.32617 8.49609 8.54492c4.29688 4.3457 9.22852 4.05273 13.8672-1.07422l53.4668-58.9355-4.83398-4.88281-53.0762 58.3984c-1.75781 2.00195-3.41797 2.49023-5.76172 0.146484l-5.85938-5.81055c-2.34375-2.29492-1.80664-4.00391 0.195312-5.81055l57.373-54.0039-4.88281-4.83398-57.959 54.4434c-4.93164 4.58984-5.32227 9.47266-1.02539 13.8184Zm32.0801-90.9668c-2.09961 2.05078-2.24609 4.93164-1.07422 6.88477 1.17188 1.80664 3.4668 2.97852 6.68945 2.14844 7.32422-1.70898 14.9414-2.00195 22.0703 2.68555l-2.92969 7.27539c-1.70898 4.15039-0.830078 7.08008 1.85547 9.81445l11.4746 11.5723c2.44141 2.44141 4.49219 2.53906 7.32422 2.05078l5.32227-0.976562 3.32031 3.36914-0.195312 2.7832c-0.195312 2.49023 0.439453 4.39453 2.88086 6.78711l3.80859 3.71094c2.39258 2.39258 5.46875 2.53906 7.8125 0.195312l14.5508-14.5996c2.34375-2.34375 2.24609-5.32227-0.146484-7.71484l-3.85742-3.80859c-2.39258-2.39258-4.24805-3.17383-6.64062-2.97852l-2.88086 0.244141-3.22266-3.17383 1.2207-5.61523c0.634766-2.83203-0.146484-5.0293-3.07617-7.95898l-10.9863-10.9375c-16.6992-16.6016-38.8672-16.2109-53.3203-1.75781Zm7.4707 1.85547c12.1582-8.88672 28.6133-7.37305 39.7461 3.75977l12.1582 12.0605c1.17188 1.17188 1.36719 2.09961 1.02539 3.80859l-1.61133 7.42188 7.51953 7.42188 4.93164-0.292969c1.26953-0.0488281 1.66016 0.0488281 2.63672 1.02539l2.88086 2.88086-12.207 12.207-2.88086-2.88086c-0.976562-0.976562-1.12305-1.36719-1.07422-2.68555l0.341797-4.88281-7.4707-7.42188-7.61719 1.26953c-1.61133 0.341797-2.34375 0.195312-3.56445-0.976562l-10.0098-10.0098c-1.26953-1.17188-1.41602-2.00195-0.634766-3.85742l4.39453-10.4492c-7.8125-7.27539-17.9688-10.4004-28.125-7.42188-0.78125 0.195312-1.07422-0.439453-0.439453-0.976562Z"/>
  </g>
  <text style="stroke:none;fill:black;font-family:sans-serif;font-size:13;font-weight:bold;" transform="matrix(1 0 0 1 1289 1953)">Exporting</text>
  <text style="stroke:none;fill:black;font-family:sans-serif;font-size:13;" transform="matrix(1 0 0 1 1289 1971)">Symbols should be outlined when exporting to ensure the</text>
  <text style="stroke:none;fill:black;font-family:sans-serif;font-size:13;" transform="matrix(1 0 0 1 1289 1989)">design is preserved when submitting to Xcode.</text>
  <text id="template-version" style="stroke:none;fill:black;font-family:sans-serif;font-size:13;text-anchor:end;" transform="matrix(1 0 0 1 3036 1933)">Template v.6.0</text>
  <text style="stroke:none;fill:black;font-family:sans-serif;font-size:13;text-anchor:end;" transform="matrix(1 0 0 1 3036 1951)">Requires Xcode 16 or greater</text>
  <text id="descriptive-name" style="stroke:none;fill:black;font-family:sans-serif;font-size:13;text-anchor:end;" transform="matrix(1 0 0 1 3036 1969)">Generated from filtervogelgruppe-19</text>
  <text style="stroke:none;fill:black;font-family:sans-serif;font-size:13;text-anchor:end;" transform="matrix(1 0 0 1 3036 1987)">Typeset at 100.0 points</text>
  <text style="stroke:none;fill:black;font-family:sans-serif;font-size:13;" transform="matrix(1 0 0 1 263 726)">Small</text>
  <text style="stroke:none;fill:black;font-family:sans-serif;font-size:13;" transform="matrix(1 0 0 1 263 1156)">Medium</text>
  <text style="stroke:none;fill:black;font-family:sans-serif;font-size:13;" transform="matrix(1 0 0 1 263 1586)">Large</text>
 </g>
 <g id="Guides">
  <g id="H-reference" style="fill:#27AAE1;stroke:none;" transform="matrix(1 0 0 1 339 696)">
   <path d="M0.993654 0L3.63775 0L29.3281-67.1323L30.0303-67.1323L30.0303-70.459L28.1226-70.459ZM11.6885-24.4799L46.9815-24.4799L46.2315-26.7285L12.4385-26.7285ZM55.1196 0L57.7637 0L30.6382-70.459L29.4326-70.459L29.4326-67.1323Z"/>
  </g>
  <line id="Baseline-S" style="fill:none;stroke:#27AAE1;opacity:1;stroke-width:0.5;" x1="263" x2="3036" y1="696" y2="696"/>
  <line id="Capline-S" style="fill:none;stroke:#27AAE1;opacity:1;stroke-width:0.5;" x1="263" x2="3036" y1="625.541" y2="625.541"/>
  <g id="H-reference" style="fill:#27AAE1;stroke:none;" transform="matrix(1 0 0 1 339 1126)">
   <path d="M0.993654 0L3.63775 0L29.3281-67.1323L30.0303-67.1323L30.0303-70.459L28.1226-70.459ZM11.6885-24.4799L46.9815-24.4799L46.2315-26.7285L12.4385-26.7285ZM55.1196 0L57.7637 0L30.6382-70.459L29.4326-70.459L29.4326-67.1323Z"/>
  </g>
  <line id="Baseline-M" style="fill:none;stroke:#27AAE1;opacity:1;stroke-width:0.5;" x1="263" x2="3036" y1="1126" y2="1126"/>
  <line id="Capline-M" style="fill:none;stroke:#27AAE1;opacity:1;stroke-width:0.5;" x1="263" x2="3036" y1="1055.54" y2="1055.54"/>
  <g id="H-reference" style="fill:#27AAE1;stroke:none;" transform="matrix(1 0 0 1 339 1556)">
   <path d="M0.993654 0L3.63775 0L29.3281-67.1323L30.0303-67.1323L30.0303-70.459L28.1226-70.459ZM11.6885-24.4799L46.9815-24.4799L46.2315-26.7285L12.4385-26.7285ZM55.1196 0L57.7637 0L30.6382-70.459L29.4326-70.459L29.4326-67.1323Z"/>
  </g>
  <line id="Baseline-L" style="fill:none;stroke:#27AAE1;opacity:1;stroke-width:0.5;" x1="263" x2="3036" y1="1556" y2="1556"/>
  <line id="Capline-L" style="fill:none;stroke:#27AAE1;opacity:1;stroke-width:0.5;" x1="263" x2="3036" y1="1485.54" y2="1485.54"/>
  <line id="right-margin-Black-S" style="fill:none;stroke:#00AEEF;stroke-width:0.5;opacity:1.0;" x1="2982.23" x2="2982.23" y1="600.785" y2="720.121"/>
  <line id="left-margin-Black-S" style="fill:none;stroke:#00AEEF;stroke-width:0.5;opacity:1.0;" x1="2884.57" x2="2884.57" y1="600.785" y2="720.121"/>
  <line id="right-margin-Regular-S" style="fill:none;stroke:#00AEEF;stroke-width:0.5;opacity:1.0;" x1="1496.11" x2="1496.11" y1="600.785" y2="720.121"/>
  <line id="left-margin-Regular-S" style="fill:none;stroke:#00AEEF;stroke-width:0.5;opacity:1.0;" x1="1403.58" x2="1403.58" y1="600.785" y2="720.121"/>
  <line id="right-margin-Ultralight-S" style="fill:none;stroke:#00AEEF;stroke-width:0.5;opacity:1.0;" x1="603.773" x2="603.773" y1="600.785" y2="720.121"/>
  <line id="left-margin-Ultralight-S" style="fill:none;stroke:#00AEEF;stroke-width:0.5;opacity:1.0;" x1="515.649" x2="515.649" y1="600.785" y2="720.121"/>
 </g>
 <g id="Symbols">
  <g id="Black-S" transform="matrix(1 0 0 1 2884.57 696)">
   <path class="monochrome-0 multicolor-0:tintColor hierarchical-0:primary SFSymbolsPreviewWireframe" d="M64.4778-40.5046L68.9717-37.4297C68.9717-37.4297 72.1386-34.8537 73.3487-33.7391C74.5518-32.6245 75.1215-31.8177 75.1215-31.8177C75.1215-31.8177 76.2538-30.3563 76.4414-29.7795C76.6324-29.2028 76.8589-28.0103 76.9332-27.5503C77.0075-27.0903 77.2336-26.5878 76.7064-26.28C76.176-25.9757 75.348-25.36 75.2347-25.1654C75.1215-24.9743 74.8561-24.5108 74.2157-24.5108C73.5717-24.5108 71.76-25.7032 71.76-25.7032C71.76-25.7032 69.6086-26.3189 68.8549-26.5525C67.3687-27.0238 65.8964-27.5358 64.4389-28.0882C63.8374-28.3571 63.1934-28.4703 63.1934-28.4703L60.7412-28.7038C60.7412-28.7038 60.3272-28.2014 59.6443-28.2792C58.9649-28.3571 56.6649-28.9338 56.0598-28.9728C55.4583-29.0082 54.4746-28.9338 54.4746-28.9338C54.4746-28.9338 54.5489-27.6246 53.9827-26.4711C54.3614-25.5865 53.6668-21.9206 54.0454-21.5385C54.4205-21.1528 53.9675-18.3857 54.0454-18C54.0737-17.8408 53.3232-15.5861 53.3232-13.3611C53.1901-10.9231 53.1901-9.61844 53.1901-9.61844L57.6451-10.5162L60.3237-9.40154L59.9097-9.01584L57.8326-9.78369C57.8326-9.78369 57.2664-9.13261 56.8135-8.938C56.3606-8.74692 54.8886-8.09231 54.8886-8.09231L52.7761-8.78584L51.1909-8.59123C51.1909-8.59123 49.7932-7.70661 49.0006-7.51554C48.208-7.32446 47.6064-7.39877 47.6064-7.39877L48.208-8.01446C48.208-8.01446 44.5846-8.09231 44.2449-8.17015C43.9052-8.24446 43.792-8.63015 43.792-8.63015L43.4523-8.89908L45.9823-8.74692C45.9823-8.74692 45.5294-9.05477 46.2831-9.09369C46.6369-9.11138 47.7657-9.04769 48.8131-9.09369C49.9878-9.15384 51.0777-9.32015 51.0777-9.32015L51.9835-13.3611C51.9835-13.3611 52.624-16.9738 52.6983-17.5506C52.7761-18.1274 52.8894-19.8966 52.8894-19.8966C52.8894-19.8966 52.8894-20.6645 52.9637-20.8166C53.0507-21.0438 53.1264-21.2752 53.1901-21.5102L53.0769-26.6622C53.0769-26.6622 52.2843-28.0846 51.9446-28.8171C51.7655-29.1946 51.6024-29.5793 51.4563-29.9706C51.4563-29.9706 48.6998-31.0463 46.6617-32.8155C45.6875-33.4114 44.7994-34.1375 44.022-34.974C43.3507-35.7408 42.7449-36.5621 42.2103-37.4297C41.63-38.3285 41.1134-39.1282 40.6604-39.8111C40.2606-40.4126 39.8926-40.9151 39.6838-41.3114C39.2309-42.1606 37.9853-44.1563 37.6067-44.7331C37.1387-45.4677 36.5943-46.1509 35.9826-46.7712C35.3421-47.3869 34.0966-49.5383 34.2098-50.7697C34.323-52.0011 34.4752-53.0378 34.8503-54.0392C35.2289-55.0406 35.6429-56.1163 35.5686-57.4609C35.5582-57.9032 35.4179-58.3327 35.1652-58.6958C35.0087-58.8762 34.8152-59.0208 34.5978-59.1197C34.3805-59.2187 34.1443-59.2696 33.9055-59.2691C33.304-59.3045 31.0394-58.4623 31.0394-58.4623C31.0394-58.4623 29.4117-57.8183 27.7415-56.8452C26.8057-56.2719 25.9139-55.6296 25.0735-54.9238C23.1876-53.3882 21.7545-51.3854 21.4148-49.8886C21.0751-48.3883 20.47-48.0062 20.4311-48.774C20.3957-49.5418 21.2237-51.7322 22.3949-54.0038C22.6497-54.4992 23-54.9345 23.4034-55.4405C24.84-57.2557 26.9241-59.0497 27.6035-59.5026C29.0096-60.361 30.4311-61.1939 31.8674-62.0008C31.8674-62.0008 32.1717-62.7686 33.1518-63.31C34.1319-63.8408 34.9635-64 35.7879-64C36.6195-64 38.1658-62.1529 38.3923-60.4262C38.4984-59.5946 38.5374-58.8692 38.4277-58.1969C38.3144-57.4751 38.0384-56.8169 37.8615-56.1552C37.5253-54.8885 36.8813-53.5792 37.1078-51.9268C37.3378-50.2708 37.6739-49.6197 38.1694-49.0429C38.6577-48.4662 40.0518-47.8894 40.0518-47.8894C40.0518-47.8894 43.6009-48.9297 49.4146-47.9672C55.2247-47.0048 58.5474-44.8145 58.5474-44.8145L64.0214-40.8514L64.4743-40.5082L64.4778-40.5046Z"/>
   <path class="monochrome-1 multicolor-1:tintColor hierarchical-1:tertiary SFSymbolsPreviewWireframe" d="M48.9411-84C55.3091-84.0013 61.615-82.7479 67.4985-80.3116C73.382-77.8752 78.7279-74.3036 83.2305-69.8009C87.7334-65.2983 91.305-59.9524 93.7418-54.0682C96.1779-48.1846 97.4312-41.8789 97.43-35.5124C97.43-8.72255 75.7254 13 48.9424 13C22.156 13 0.43-8.726 0.43-35.5124C0.43-62.2926 22.1539-84 48.9411-84ZM48.9424-70C29.8835-70 14.43-54.5582 14.43-35.5124C14.43-16.458 29.888-0.999999 48.9424-0.999999C67.9909-0.999999 83.43-16.4519 83.43-35.5138C83.4309-40.0428 82.5395-44.5276 80.8069-48.7121C79.0739-52.8969 76.5337-56.6989 73.3311-59.9013C70.1287-63.1038 66.3266-65.644 62.1422-67.3767C57.9578-69.1095 53.4729-70.0009 48.9424-70Z"/>
  </g>
  <g id="Regular-S" transform="matrix(1 0 0 1 1403.58 696)">
   <path class="monochrome-0 multicolor-0:tintColor hierarchical-0:primary SFSymbolsPreviewWireframe" d="M62.4679-40.5046L66.9617-37.4297C66.9617-37.4297 70.1286-34.8537 71.3388-33.739C72.5419-32.6244 73.1116-31.8177 73.1116-31.8177C73.1116-31.8177 74.2439-30.3563 74.4314-29.7795C74.6225-29.2027 74.8489-28.0103 74.9232-27.5503C74.9976-27.0903 75.2237-26.5878 74.6964-26.28C74.166-25.9757 73.338-25.36 73.2248-25.1653C73.1116-24.9743 72.8462-24.5107 72.2057-24.5107C71.5617-24.5107 69.75-25.7032 69.75-25.7032C69.75-25.7032 67.5986-26.3189 66.8449-26.5524C65.3588-27.0237 63.8864-27.5358 62.4289-28.0881C61.8274-28.357 61.1834-28.4703 61.1834-28.4703L58.7312-28.7038C58.7312-28.7038 58.3172-28.2013 57.6343-28.2792C56.9549-28.357 54.6549-28.9338 54.0499-28.9727C53.4483-29.0081 52.4646-28.9338 52.4646-28.9338C52.4646-28.9338 52.5389-27.6246 51.9728-26.471C52.3514-25.5864 51.6568-21.9206 52.0354-21.5384C52.4105-21.1527 51.9576-18.3857 52.0354-18C52.0637-17.8407 51.3132-15.586 51.3132-13.361C51.1802-10.923 51.1802-9.61841 51.1802-9.61841L55.6351-10.5161L58.3137-9.4015L57.8997-9.01581L55.8226-9.78365C55.8226-9.78365 55.2565-9.13257 54.8036-8.93796C54.3506-8.74688 52.8786-8.09227 52.8786-8.09227L50.7662-8.78581L49.1809-8.59119C49.1809-8.59119 47.7832-7.70657 46.9906-7.5155C46.198-7.32442 45.5965-7.39873 45.5965-7.39873L46.198-8.01442C46.198-8.01442 42.5746-8.09227 42.2349-8.17011C41.8952-8.24442 41.782-8.63011 41.782-8.63011L41.4423-8.89904L43.9723-8.74688C43.9723-8.74688 43.5194-9.05473 44.2731-9.09365C44.6269-9.11134 45.7557-9.04765 46.8031-9.09365C47.9779-9.15381 49.0677-9.32011 49.0677-9.32011L49.9736-13.361C49.9736-13.361 50.614-16.9738 50.6883-17.5506C50.7662-18.1273 50.8794-19.8966 50.8794-19.8966C50.8794-19.8966 50.8794-20.6644 50.9537-20.8166C51.0408-21.0437 51.1165-21.2752 51.1802-21.5101L51.0669-26.6621C51.0669-26.6621 50.2743-28.0846 49.9346-28.817C49.7556-29.1946 49.5925-29.5792 49.4463-29.9706C49.4463-29.9706 46.6899-31.0463 44.6517-32.8155C43.6776-33.4114 42.7894-34.1375 42.012-34.974C41.3408-35.7407 40.735-36.562 40.2003-37.4297C39.62-38.3284 39.1034-39.1281 38.6505-39.811C38.2506-40.4126 37.8826-40.915 37.6739-41.3113C37.2209-42.1606 35.9754-44.1563 35.5968-44.733C35.1287-45.4676 34.5843-46.1509 33.9726-46.7712C33.3321-47.3869 32.0866-49.5383 32.1998-50.7697C32.3131-52.001 32.4652-53.0378 32.8403-54.0392C33.2189-55.0406 33.6329-56.1163 33.5586-57.4609C33.5483-57.9032 33.408-58.3327 33.1552-58.6958C32.9987-58.8762 32.8052-59.0208 32.5879-59.1197C32.3705-59.2186 32.1344-59.2695 31.8955-59.269C31.294-59.3044 29.0294-58.4623 29.0294-58.4623C29.0294-58.4623 27.4017-57.8183 25.7316-56.8452C24.7958-56.2718 23.904-55.6296 23.0636-54.9238C21.1776-53.3881 19.7445-51.3853 19.4048-49.8886C19.0651-48.3883 18.4601-48.0061 18.4211-48.774C18.3857-49.5418 19.2137-51.7321 20.385-54.0038C20.6397-54.4992 20.9901-54.9344 21.3934-55.4404C22.83-57.2557 24.9142-59.0497 25.5936-59.5026C26.9996-60.361 28.4211-61.1939 29.8574-62.0007C29.8574-62.0007 30.1617-62.7686 31.1419-63.31C32.122-63.8407 32.9535-64 33.778-64C34.6095-64 36.1559-62.1529 36.3823-60.4261C36.4885-59.5946 36.5274-58.8692 36.4177-58.1969C36.3045-57.475 36.0284-56.8169 35.8515-56.1552C35.5154-54.8884 34.8714-53.5792 35.0978-51.9267C35.3278-50.2707 35.664-49.6197 36.1594-49.0429C36.6477-48.4661 38.0419-47.8893 38.0419-47.8893C38.0419-47.8893 41.5909-48.9297 47.4046-47.9672C53.2148-47.0047 56.5374-44.8144 56.5374-44.8144L62.0114-40.8513L62.4643-40.5081L62.4679-40.5046Z"/>
   <path class="monochrome-1 multicolor-1:tintColor hierarchical-1:tertiary SFSymbolsPreviewWireframe" d="M46.4321-81.8365C52.4502-81.8377 58.4096-80.6532 63.9698-78.3508C69.53-76.0483 74.5822-72.6729 78.8374-68.4176C83.0928-64.1624 86.4682-59.1103 88.771-53.5496C91.0733-47.9892 92.2577-42.03 92.2566-36.0127C92.2566-10.693 71.744 9.83658 46.4328 9.83658C21.1173 9.83658 0.5835-10.6972 0.5835-36.0127C0.5835-61.3211 21.1145-81.8365 46.4321-81.8365ZM46.4328-75.0865C24.8413-75.0865 7.3335-57.592 7.3335-36.0127C7.3335-14.4252 24.8452 3.08658 46.4328 3.08658C68.0148 3.08658 85.5066-14.4197 85.5066-36.0133C85.5076-41.1447 84.4976-46.226 82.5345-50.9672C80.571-55.7085 77.693-60.0162 74.0644-63.6446C70.4361-67.273 66.1283-70.1511 61.3873-72.1143C56.6463-74.0776 51.5649-75.0875 46.4328-75.0865Z"/>
  </g>
  <g id="Ultralight-S" transform="matrix(1 0 0 1 515.649 696)">
   <path class="monochrome-0 multicolor-0:tintColor hierarchical-0:primary SFSymbolsPreviewWireframe" d="M60.3989-41.5046L64.8927-38.4297C64.8927-38.4297 68.0596-35.8537 69.2698-34.739C70.4729-33.6244 71.0426-32.8177 71.0426-32.8177C71.0426-32.8177 72.1749-31.3563 72.3624-30.7795C72.5535-30.2027 72.7799-29.0103 72.8542-28.5503C72.9286-28.0903 73.1547-27.5878 72.6274-27.28C72.097-26.9757 71.269-26.36 71.1558-26.1653C71.0426-25.9743 70.7772-25.5107 70.1367-25.5107C69.4927-25.5107 67.681-26.7032 67.681-26.7032C67.681-26.7032 65.5296-27.3189 64.7759-27.5524C63.2898-28.0237 61.8174-28.5358 60.3599-29.0881C59.7584-29.357 59.1144-29.4703 59.1144-29.4703L56.6622-29.7038C56.6622-29.7038 56.2482-29.2013 55.5653-29.2792C54.8859-29.357 52.5859-29.9338 51.9809-29.9727C51.3793-30.0081 50.3956-29.9338 50.3956-29.9338C50.3956-29.9338 50.4699-28.6246 49.9038-27.471C50.2824-26.5864 49.5878-22.9206 49.9664-22.5384C50.3415-22.1527 49.8886-19.3857 49.9664-19C49.9947-18.8407 49.2442-16.586 49.2442-14.361C49.1112-11.923 49.1112-10.6184 49.1112-10.6184L53.5661-11.5161L56.2447-10.4015L55.8307-10.0158L53.7536-10.7837C53.7536-10.7837 53.1875-10.1326 52.7346-9.93796C52.2816-9.74688 50.8096-9.09227 50.8096-9.09227L48.6972-9.78581L47.1119-9.59119C47.1119-9.59119 45.7142-8.70657 44.9216-8.5155C44.129-8.32442 43.5275-8.39873 43.5275-8.39873L44.129-9.01442C44.129-9.01442 40.5056-9.09227 40.1659-9.17011C39.8262-9.24442 39.713-9.63011 39.713-9.63011L39.3733-9.89904L41.9033-9.74688C41.9033-9.74688 41.4504-10.0547 42.2041-10.0937C42.5579-10.1113 43.6867-10.0477 44.7341-10.0937C45.9089-10.1538 46.9987-10.3201 46.9987-10.3201L47.9046-14.361C47.9046-14.361 48.545-17.9738 48.6193-18.5506C48.6972-19.1273 48.8104-20.8966 48.8104-20.8966C48.8104-20.8966 48.8104-21.6644 48.8847-21.8166C48.9718-22.0437 49.0475-22.2752 49.1112-22.5101L48.9979-27.6621C48.9979-27.6621 48.2053-29.0846 47.8656-29.817C47.6866-30.1946 47.5235-30.5792 47.3773-30.9706C47.3773-30.9706 44.6209-32.0463 42.5827-33.8155C41.6086-34.4114 40.7204-35.1375 39.943-35.974C39.2718-36.7407 38.666-37.562 38.1313-38.4297C37.551-39.3284 37.0344-40.1281 36.5815-40.811C36.1816-41.4126 35.8136-41.915 35.6049-42.3113C35.1519-43.1606 33.9064-45.1563 33.5278-45.733C33.0597-46.4676 32.5153-47.1509 31.9036-47.7712C31.2631-48.3869 30.0176-50.5383 30.1308-51.7697C30.2441-53.001 30.3962-54.0378 30.7713-55.0392C31.1499-56.0406 31.5639-57.1163 31.4896-58.4609C31.4793-58.9032 31.339-59.3327 31.0862-59.6958C30.9297-59.8762 30.7362-60.0208 30.5189-60.1197C30.3015-60.2186 30.0654-60.2695 29.8265-60.269C29.225-60.3044 26.9604-59.4623 26.9604-59.4623C26.9604-59.4623 25.3327-58.8183 23.6626-57.8452C22.7268-57.2718 21.835-56.6296 20.9946-55.9238C19.1086-54.3881 17.6755-52.3853 17.3358-50.8886C16.9961-49.3883 16.3911-49.0061 16.3521-49.774C16.3167-50.5418 17.1447-52.7321 18.316-55.0038C18.5707-55.4992 18.9211-55.9344 19.3244-56.4404C20.761-58.2557 22.8452-60.0497 23.5246-60.5026C24.9306-61.361 26.3521-62.1939 27.7884-63.0007C27.7884-63.0007 28.0927-63.7686 29.0729-64.31C30.053-64.8407 30.8845-65 31.709-65C32.5405-65 34.0869-63.1529 34.3133-61.4261C34.4195-60.5946 34.4584-59.8692 34.3487-59.1969C34.2355-58.475 33.9594-57.8169 33.7825-57.1552C33.4464-55.8884 32.8024-54.5792 33.0288-52.9267C33.2588-51.2707 33.595-50.6197 34.0904-50.0429C34.5787-49.4661 35.9729-48.8893 35.9729-48.8893C35.9729-48.8893 39.5219-49.9297 45.3356-48.9672C51.1458-48.0047 54.4684-45.8144 54.4684-45.8144L59.9424-41.8513L60.3953-41.5081L60.3989-41.5046Z"/>
   <path class="monochrome-1 multicolor-1:tintColor hierarchical-1:tertiary SFSymbolsPreviewWireframe" d="M44.3636-80.5865C50.0861-80.5876 55.7528-79.4613 61.04-77.272C66.3271-75.0826 71.1312-71.8729 75.1774-67.8265C79.2239-63.7803 82.4335-58.9764 84.6232-53.6889C86.8124-48.4015 87.9387-42.7349 87.9376-37.0127C87.9376-12.9352 68.432 6.58658 44.3638 6.58658C20.2909 6.58658 0.7645-12.9399 0.7645-37.0127C0.7645-61.0781 20.2877-80.5865 44.3636-80.5865ZM44.3638-78.3365C21.53-78.3365 3.0145-59.8351 3.0145-37.0127C3.0145-14.1825 21.5336 4.33658 44.3638 4.33658C67.1889 4.33658 85.6876-14.1774 85.6876-37.0129C85.6886-42.4398 84.6205-47.8138 82.5443-52.828C80.4678-57.8425 77.4239-62.3983 73.5865-66.2355C69.7491-70.073 65.1932-73.1168 60.1791-75.1931C55.1651-77.2695 49.791-78.3376 44.3638-78.3365Z"/>
  </g>
 </g>
</svg>
