<?xml version="1.0" encoding="UTF-8"?>
<!--Generator: Apple Native CoreSVG 341-->
<!DOCTYPE svg
PUBLIC "-//W3C//DTD SVG 1.1//EN"
       "http://www.w3.org/Graphics/SVG/1.1/DTD/svg11.dtd">
<svg version="1.1" xmlns="http://www.w3.org/2000/svg" xmlns:xlink="http://www.w3.org/1999/xlink" viewBox="0 0 3300 2200">
 <!--glyph: "", point size: 100.0, font version: "20.0d10e1", template writer version: "138.0.0"-->
 <style>.monochrome-0 {-sfsymbols-motion-group:1;-sfsymbols-layer-tags:61102e596510c8c6}
.monochrome-1 {-sfsymbols-motion-group:0;-sfsymbols-layer-tags:61102e596510c8c6}

.multicolor-0:tintColor {-sfsymbols-motion-group:1;-sfsymbols-layer-tags:61102e596510c8c6}
.multicolor-1:tintColor {-sfsymbols-motion-group:0;-sfsymbols-layer-tags:61102e596510c8c6}

.hierarchical-0:primary {-sfsymbols-motion-group:1;-sfsymbols-layer-tags:61102e596510c8c6}
.hierarchical-1:tertiary {-sfsymbols-motion-group:0;-sfsymbols-layer-tags:61102e596510c8c6}

.SFSymbolsPreviewWireframe {fill:none;opacity:1.0;stroke:black;stroke-width:0.5}
</style>
 <g id="Notes">
  <rect height="2200" id="artboard" style="fill:white;opacity:1" width="3300" x="0" y="0"/>
  <line style="fill:none;stroke:black;opacity:1;stroke-width:0.5;" x1="263" x2="3036" y1="292" y2="292"/>
  <text style="stroke:none;fill:black;font-family:sans-serif;font-size:13;font-weight:bold;" transform="matrix(1 0 0 1 263 322)">Weight/Scale Variations</text>
  <text style="stroke:none;fill:black;font-family:sans-serif;font-size:13;text-anchor:middle;" transform="matrix(1 0 0 1 559.711 322)">Ultralight</text>
  <text style="stroke:none;fill:black;font-family:sans-serif;font-size:13;text-anchor:middle;" transform="matrix(1 0 0 1 856.422 322)">Thin</text>
  <text style="stroke:none;fill:black;font-family:sans-serif;font-size:13;text-anchor:middle;" transform="matrix(1 0 0 1 1153.13 322)">Light</text>
  <text style="stroke:none;fill:black;font-family:sans-serif;font-size:13;text-anchor:middle;" transform="matrix(1 0 0 1 1449.84 322)">Regular</text>
  <text style="stroke:none;fill:black;font-family:sans-serif;font-size:13;text-anchor:middle;" transform="matrix(1 0 0 1 1746.56 322)">Medium</text>
  <text style="stroke:none;fill:black;font-family:sans-serif;font-size:13;text-anchor:middle;" transform="matrix(1 0 0 1 2043.27 322)">Semibold</text>
  <text style="stroke:none;fill:black;font-family:sans-serif;font-size:13;text-anchor:middle;" transform="matrix(1 0 0 1 2339.98 322)">Bold</text>
  <text style="stroke:none;fill:black;font-family:sans-serif;font-size:13;text-anchor:middle;" transform="matrix(1 0 0 1 2636.69 322)">Heavy</text>
  <text style="stroke:none;fill:black;font-family:sans-serif;font-size:13;text-anchor:middle;" transform="matrix(1 0 0 1 2933.4 322)">Black</text>
  <line style="fill:none;stroke:black;opacity:1;stroke-width:0.5;" x1="263" x2="3036" y1="1903" y2="1903"/>
  <g transform="matrix(0.2 0 0 0.2 263 1933)">
   <path d="m46.2402 4.15039c21.7773 0 39.4531-17.627 39.4531-39.4043s-17.6758-39.4043-39.4531-39.4043c-21.7285 0-39.4043 17.627-39.4043 39.4043s17.6758 39.4043 39.4043 39.4043Zm0-7.42188c-17.6758 0-31.9336-14.3066-31.9336-31.9824s14.2578-31.9824 31.9336-31.9824 31.9824 14.3066 31.9824 31.9824-14.3066 31.9824-31.9824 31.9824Zm-17.9688-31.9824c0 2.14844 1.51367 3.61328 3.75977 3.61328h10.498v10.5957c0 2.19727 1.46484 3.71094 3.61328 3.71094 2.24609 0 3.71094-1.51367 3.71094-3.71094v-10.5957h10.5957c2.19727 0 3.71094-1.46484 3.71094-3.61328 0-2.19727-1.51367-3.71094-3.71094-3.71094h-10.5957v-10.5469c0-2.24609-1.46484-3.75977-3.71094-3.75977-2.14844 0-3.61328 1.51367-3.61328 3.75977v10.5469h-10.498c-2.24609 0-3.75977 1.51367-3.75977 3.71094Z"/>
  </g>
  <g transform="matrix(0.2 0 0 0.2 281.506 1933)">
   <path d="m58.5449 14.5508c27.4902 0 49.8047-22.3145 49.8047-49.8047s-22.3145-49.8047-49.8047-49.8047-49.8047 22.3145-49.8047 49.8047 22.3145 49.8047 49.8047 49.8047Zm0-8.30078c-22.9492 0-41.5039-18.5547-41.5039-41.5039s18.5547-41.5039 41.5039-41.5039 41.5039 18.5547 41.5039 41.5039-18.5547 41.5039-41.5039 41.5039Zm-22.6562-41.5039c0 2.39258 1.66016 4.00391 4.15039 4.00391h14.3555v14.4043c0 2.44141 1.66016 4.15039 4.05273 4.15039 2.44141 0 4.15039-1.66016 4.15039-4.15039v-14.4043h14.4043c2.44141 0 4.15039-1.61133 4.15039-4.00391 0-2.44141-1.70898-4.15039-4.15039-4.15039h-14.4043v-14.3555c0-2.49023-1.70898-4.19922-4.15039-4.19922-2.39258 0-4.05273 1.70898-4.05273 4.19922v14.3555h-14.3555c-2.49023 0-4.15039 1.70898-4.15039 4.15039Z"/>
  </g>
  <g transform="matrix(0.2 0 0 0.2 304.924 1933)">
   <path d="m74.8535 28.3203c35.1074 0 63.623-28.4668 63.623-63.5742s-28.5156-63.623-63.623-63.623-63.5742 28.5156-63.5742 63.623 28.4668 63.5742 63.5742 63.5742Zm0-9.08203c-30.127 0-54.4922-24.3652-54.4922-54.4922s24.3652-54.4922 54.4922-54.4922 54.4922 24.3652 54.4922 54.4922-24.3652 54.4922-54.4922 54.4922Zm-28.8574-54.4922c0 2.58789 1.85547 4.39453 4.58984 4.39453h19.7266v19.7754c0 2.68555 1.85547 4.58984 4.44336 4.58984 2.68555 0 4.54102-1.85547 4.54102-4.58984v-19.7754h19.7754c2.68555 0 4.58984-1.80664 4.58984-4.39453 0-2.73438-1.85547-4.58984-4.58984-4.58984h-19.7754v-19.7266c0-2.73438-1.85547-4.63867-4.54102-4.63867-2.58789 0-4.44336 1.9043-4.44336 4.63867v19.7266h-19.7266c-2.73438 0-4.58984 1.85547-4.58984 4.58984Z"/>
  </g>
  <text style="stroke:none;fill:black;font-family:sans-serif;font-size:13;font-weight:bold;" transform="matrix(1 0 0 1 263 1953)">Design Variations</text>
  <text style="stroke:none;fill:black;font-family:sans-serif;font-size:13;" transform="matrix(1 0 0 1 263 1971)">Symbols are supported in up to nine weights and three scales.</text>
  <text style="stroke:none;fill:black;font-family:sans-serif;font-size:13;" transform="matrix(1 0 0 1 263 1989)">For optimal layout with text and other symbols, vertically align</text>
  <text style="stroke:none;fill:black;font-family:sans-serif;font-size:13;" transform="matrix(1 0 0 1 263 2007)">symbols with the adjacent text.</text>
  <line style="fill:none;stroke:#00AEEF;stroke-width:0.5;opacity:1.0;" x1="776" x2="776" y1="1919" y2="1933"/>
  <g transform="matrix(0.2 0 0 0.2 776 1933)">
   <path d="m16.5527 0.78125c2.58789 0 3.85742-0.976562 4.78516-3.71094l6.29883-17.2363h28.8086l6.29883 17.2363c0.927734 2.73438 2.19727 3.71094 4.73633 3.71094 2.58789 0 4.24805-1.5625 4.24805-4.00391 0-0.830078-0.146484-1.61133-0.537109-2.63672l-22.9004-60.9863c-1.12305-2.97852-3.125-4.49219-6.25-4.49219-3.02734 0-5.07812 1.46484-6.15234 4.44336l-22.9004 61.084c-0.390625 1.02539-0.537109 1.80664-0.537109 2.63672 0 2.44141 1.5625 3.95508 4.10156 3.95508Zm13.4766-28.3691 11.8652-32.8613h0.244141l11.8652 32.8613Z"/>
  </g>
  <line style="fill:none;stroke:#00AEEF;stroke-width:0.5;opacity:1.0;" x1="792.836" x2="792.836" y1="1919" y2="1933"/>
  <text style="stroke:none;fill:black;font-family:sans-serif;font-size:13;font-weight:bold;" transform="matrix(1 0 0 1 776 1953)">Margins</text>
  <text style="stroke:none;fill:black;font-family:sans-serif;font-size:13;" transform="matrix(1 0 0 1 776 1971)">Leading and trailing margins on the left and right side of each symbol</text>
  <text style="stroke:none;fill:black;font-family:sans-serif;font-size:13;" transform="matrix(1 0 0 1 776 1989)">can be adjusted by modifying the x-location of the margin guidelines.</text>
  <text style="stroke:none;fill:black;font-family:sans-serif;font-size:13;" transform="matrix(1 0 0 1 776 2007)">Modifications are automatically applied proportionally to all</text>
  <text style="stroke:none;fill:black;font-family:sans-serif;font-size:13;" transform="matrix(1 0 0 1 776 2025)">scales and weights.</text>
  <g transform="matrix(0.2 0 0 0.2 1289 1933)">
   <path d="m14.209 9.32617 8.49609 8.54492c4.29688 4.3457 9.22852 4.05273 13.8672-1.07422l53.4668-58.9355-4.83398-4.88281-53.0762 58.3984c-1.75781 2.00195-3.41797 2.49023-5.76172 0.146484l-5.85938-5.81055c-2.34375-2.29492-1.80664-4.00391 0.195312-5.81055l57.373-54.0039-4.88281-4.83398-57.959 54.4434c-4.93164 4.58984-5.32227 9.47266-1.02539 13.8184Zm32.0801-90.9668c-2.09961 2.05078-2.24609 4.93164-1.07422 6.88477 1.17188 1.80664 3.4668 2.97852 6.68945 2.14844 7.32422-1.70898 14.9414-2.00195 22.0703 2.68555l-2.92969 7.27539c-1.70898 4.15039-0.830078 7.08008 1.85547 9.81445l11.4746 11.5723c2.44141 2.44141 4.49219 2.53906 7.32422 2.05078l5.32227-0.976562 3.32031 3.36914-0.195312 2.7832c-0.195312 2.49023 0.439453 4.39453 2.88086 6.78711l3.80859 3.71094c2.39258 2.39258 5.46875 2.53906 7.8125 0.195312l14.5508-14.5996c2.34375-2.34375 2.24609-5.32227-0.146484-7.71484l-3.85742-3.80859c-2.39258-2.39258-4.24805-3.17383-6.64062-2.97852l-2.88086 0.244141-3.22266-3.17383 1.2207-5.61523c0.634766-2.83203-0.146484-5.0293-3.07617-7.95898l-10.9863-10.9375c-16.6992-16.6016-38.8672-16.2109-53.3203-1.75781Zm7.4707 1.85547c12.1582-8.88672 28.6133-7.37305 39.7461 3.75977l12.1582 12.0605c1.17188 1.17188 1.36719 2.09961 1.02539 3.80859l-1.61133 7.42188 7.51953 7.42188 4.93164-0.292969c1.26953-0.0488281 1.66016 0.0488281 2.63672 1.02539l2.88086 2.88086-12.207 12.207-2.88086-2.88086c-0.976562-0.976562-1.12305-1.36719-1.07422-2.68555l0.341797-4.88281-7.4707-7.42188-7.61719 1.26953c-1.61133 0.341797-2.34375 0.195312-3.56445-0.976562l-10.0098-10.0098c-1.26953-1.17188-1.41602-2.00195-0.634766-3.85742l4.39453-10.4492c-7.8125-7.27539-17.9688-10.4004-28.125-7.42188-0.78125 0.195312-1.07422-0.439453-0.439453-0.976562Z"/>
  </g>
  <text style="stroke:none;fill:black;font-family:sans-serif;font-size:13;font-weight:bold;" transform="matrix(1 0 0 1 1289 1953)">Exporting</text>
  <text style="stroke:none;fill:black;font-family:sans-serif;font-size:13;" transform="matrix(1 0 0 1 1289 1971)">Symbols should be outlined when exporting to ensure the</text>
  <text style="stroke:none;fill:black;font-family:sans-serif;font-size:13;" transform="matrix(1 0 0 1 1289 1989)">design is preserved when submitting to Xcode.</text>
  <text id="template-version" style="stroke:none;fill:black;font-family:sans-serif;font-size:13;text-anchor:end;" transform="matrix(1 0 0 1 3036 1933)">Template v.6.0</text>
  <text style="stroke:none;fill:black;font-family:sans-serif;font-size:13;text-anchor:end;" transform="matrix(1 0 0 1 3036 1951)">Requires Xcode 16 or greater</text>
  <text id="descriptive-name" style="stroke:none;fill:black;font-family:sans-serif;font-size:13;text-anchor:end;" transform="matrix(1 0 0 1 3036 1969)">Generated from filtervogelgruppe-67</text>
  <text style="stroke:none;fill:black;font-family:sans-serif;font-size:13;text-anchor:end;" transform="matrix(1 0 0 1 3036 1987)">Typeset at 100.0 points</text>
  <text style="stroke:none;fill:black;font-family:sans-serif;font-size:13;" transform="matrix(1 0 0 1 263 726)">Small</text>
  <text style="stroke:none;fill:black;font-family:sans-serif;font-size:13;" transform="matrix(1 0 0 1 263 1156)">Medium</text>
  <text style="stroke:none;fill:black;font-family:sans-serif;font-size:13;" transform="matrix(1 0 0 1 263 1586)">Large</text>
 </g>
 <g id="Guides">
  <g id="H-reference" style="fill:#27AAE1;stroke:none;" transform="matrix(1 0 0 1 339 696)">
   <path d="M0.993654 0L3.63775 0L29.3281-67.1323L30.0303-67.1323L30.0303-70.459L28.1226-70.459ZM11.6885-24.4799L46.9815-24.4799L46.2315-26.7285L12.4385-26.7285ZM55.1196 0L57.7637 0L30.6382-70.459L29.4326-70.459L29.4326-67.1323Z"/>
  </g>
  <line id="Baseline-S" style="fill:none;stroke:#27AAE1;opacity:1;stroke-width:0.5;" x1="263" x2="3036" y1="696" y2="696"/>
  <line id="Capline-S" style="fill:none;stroke:#27AAE1;opacity:1;stroke-width:0.5;" x1="263" x2="3036" y1="625.541" y2="625.541"/>
  <g id="H-reference" style="fill:#27AAE1;stroke:none;" transform="matrix(1 0 0 1 339 1126)">
   <path d="M0.993654 0L3.63775 0L29.3281-67.1323L30.0303-67.1323L30.0303-70.459L28.1226-70.459ZM11.6885-24.4799L46.9815-24.4799L46.2315-26.7285L12.4385-26.7285ZM55.1196 0L57.7637 0L30.6382-70.459L29.4326-70.459L29.4326-67.1323Z"/>
  </g>
  <line id="Baseline-M" style="fill:none;stroke:#27AAE1;opacity:1;stroke-width:0.5;" x1="263" x2="3036" y1="1126" y2="1126"/>
  <line id="Capline-M" style="fill:none;stroke:#27AAE1;opacity:1;stroke-width:0.5;" x1="263" x2="3036" y1="1055.54" y2="1055.54"/>
  <g id="H-reference" style="fill:#27AAE1;stroke:none;" transform="matrix(1 0 0 1 339 1556)">
   <path d="M0.993654 0L3.63775 0L29.3281-67.1323L30.0303-67.1323L30.0303-70.459L28.1226-70.459ZM11.6885-24.4799L46.9815-24.4799L46.2315-26.7285L12.4385-26.7285ZM55.1196 0L57.7637 0L30.6382-70.459L29.4326-70.459L29.4326-67.1323Z"/>
  </g>
  <line id="Baseline-L" style="fill:none;stroke:#27AAE1;opacity:1;stroke-width:0.5;" x1="263" x2="3036" y1="1556" y2="1556"/>
  <line id="Capline-L" style="fill:none;stroke:#27AAE1;opacity:1;stroke-width:0.5;" x1="263" x2="3036" y1="1485.54" y2="1485.54"/>
  <line id="right-margin-Black-S" style="fill:none;stroke:#00AEEF;stroke-width:0.5;opacity:1.0;" x1="2982.23" x2="2982.23" y1="600.785" y2="720.121"/>
  <line id="left-margin-Black-S" style="fill:none;stroke:#00AEEF;stroke-width:0.5;opacity:1.0;" x1="2884.57" x2="2884.57" y1="600.785" y2="720.121"/>
  <line id="right-margin-Regular-S" style="fill:none;stroke:#00AEEF;stroke-width:0.5;opacity:1.0;" x1="1496.11" x2="1496.11" y1="600.785" y2="720.121"/>
  <line id="left-margin-Regular-S" style="fill:none;stroke:#00AEEF;stroke-width:0.5;opacity:1.0;" x1="1403.58" x2="1403.58" y1="600.785" y2="720.121"/>
  <line id="right-margin-Ultralight-S" style="fill:none;stroke:#00AEEF;stroke-width:0.5;opacity:1.0;" x1="603.773" x2="603.773" y1="600.785" y2="720.121"/>
  <line id="left-margin-Ultralight-S" style="fill:none;stroke:#00AEEF;stroke-width:0.5;opacity:1.0;" x1="515.649" x2="515.649" y1="600.785" y2="720.121"/>
 </g>
 <g id="Symbols">
  <g id="Black-S" transform="matrix(1 0 0 1 2884.57 696)">
   <path class="monochrome-0 multicolor-0:tintColor hierarchical-0:primary SFSymbolsPreviewWireframe" d="M66.7806-55.7613C67.8606-55.8173 68.8406-55.5733 69.8046-55.3013C70.1326-55.2093 70.4446-55.0493 70.7446-54.9013C71.1566-54.6933 71.5606-54.4813 71.9486-54.2453C72.3006-54.0333 72.6286-53.7893 72.9606-53.5533C73.3086-53.3133 73.6566-53.0693 73.9926-52.8133C74.1846-52.6693 74.3646-52.5093 74.5286-52.3413C74.5926-52.274 74.6706-52.2214 74.7566-52.1869C74.843-52.1524 74.9356-52.1368 75.0286-52.1413C75.4646-52.1453 75.8927-52.1653 76.3287-52.2253C76.8967-52.3053 77.4887-52.3213 78.0607-52.2813C78.4207-52.2533 78.7807-52.0893 79.1207-51.9533C79.3407-51.8653 79.3207-51.7013 79.1047-51.6053C78.4247-51.3093 77.7567-51.0053 77.0687-50.7253C76.6607-50.5613 76.2287-50.4373 75.8047-50.3093C75.2446-50.1373 75.0206-49.7773 74.8926-49.3172C74.7086-48.6732 74.7246-48.0212 74.7126-47.3732C74.7046-46.8452 74.7526-46.3132 74.7926-45.7812C74.8406-45.0612 74.9126-44.3412 74.9606-43.6212C74.9846-43.2412 74.9726-42.8532 74.9846-42.4692C74.9886-42.2292 75.0246-41.9812 75.0246-41.7371C75.0206-41.2411 75.0006-40.7451 74.9926-40.2491C74.9846-39.7051 74.9646-39.1611 74.9726-38.6131C74.9766-38.0851 74.8526-37.5731 74.6846-37.0651C74.5806-36.7571 74.4926-36.4411 74.4046-36.1291C74.3236-35.8228 74.1866-35.5338 74.0006-35.2771C73.7793-34.9671 73.5776-34.6441 73.3966-34.3091C73.1046-33.7891 72.7166-33.3291 72.2926-32.8851C71.8086-32.3731 71.3646-31.8371 70.8526-31.3451C70.4926-30.9931 70.0566-30.6891 69.6446-30.3691C69.3726-30.1651 69.0766-29.9771 68.7966-29.7731C68.6606-29.6731 68.6646-29.5811 68.8246-29.5051C69.1006-29.3771 69.3846-29.2531 69.6646-29.1331C69.7359-29.1097 69.8123-29.1084 69.8846-29.1291C70.3446-29.2571 70.8086-29.2531 71.2846-29.2211C71.4646-29.2091 71.6526-29.2211 71.8366-29.2291C71.9766-29.2331 72.0926-29.2051 72.1286-29.0811C72.2406-28.713 72.3926-28.361 72.3606-27.969C72.3366-27.733 72.2406-27.577 72.0006-27.433C71.7223-27.253 71.4683-27.0377 71.2446-26.793C71.0446-26.589 70.8046-26.585 70.5406-26.613C70.4926-26.617 70.4086-26.677 70.4086-26.709C70.4166-26.877 70.2726-26.909 70.1326-26.933C69.9943-26.9644 69.8539-26.9844 69.7126-26.993C69.4606-27.001 69.3846-27.041 69.3846-27.245C69.3846-27.605 69.3846-27.961 69.4086-28.317C69.4246-28.497 69.3686-28.597 69.1606-28.677C68.7806-28.817 68.4086-28.9811 68.0326-29.1371C67.7446-29.2571 67.6766-29.2331 67.4726-29.0331C67.3479-28.9057 67.2049-28.798 67.0486-28.713C66.6006-28.485 66.1326-28.273 65.6846-28.045C65.4566-27.929 65.2566-27.777 65.0286-27.657C64.4446-27.341 63.8526-27.037 63.2686-26.729C62.5859-26.3764 61.8706-26.091 61.1326-25.877C60.7129-25.752 60.2852-25.656 59.8525-25.589C58.9485-25.453 58.0445-25.337 57.1405-25.217C56.8605-25.177 56.5765-25.137 56.2925-25.137C55.3832-25.1334 54.4735-25.1387 53.5645-25.153C53.2045-25.161 53.1645-25.125 53.1565-24.829C53.1805-24.3297 53.3292-23.8444 53.5885-23.417C53.6745-23.2753 53.7888-23.1527 53.9245-23.057C53.9972-23.0027 54.0582-22.9337 54.1028-22.8543C54.1475-22.7753 54.1752-22.6877 54.1845-22.597C54.2245-22.317 54.3045-22.037 54.3725-21.757C54.3805-21.713 54.4085-21.673 54.4125-21.633C54.4325-20.841 54.9205-20.161 55.1725-19.425C55.2925-19.077 55.4605-18.741 55.6245-18.405C55.7039-18.255 55.8035-18.1163 55.9205-17.993C55.9725-17.933 56.0805-17.885 56.1685-17.869C56.5645-17.801 56.9605-17.749 57.3565-17.693L57.5325-17.681C57.7765-17.681 57.8245-17.657 57.8205-17.461C57.8045-17.001 57.7805-16.541 57.7565-16.077C57.7485-15.917 57.6445-15.813 57.4485-15.797C57.1645-15.781 56.8765-15.757 56.5925-15.777C56.1525-15.809 55.7125-15.873 55.2725-15.929C55.1925-15.941 55.1125-15.989 55.0325-16.021C55.0845-16.081 55.1165-16.149 55.1805-16.193C55.2805-16.261 55.2645-16.329 55.1965-16.393C55.0245-16.541 55.0525-16.701 55.1085-16.881C55.1805-17.117 55.2605-17.353 55.2925-17.597C55.2985-17.7366 55.2655-17.8753 55.1965-17.997C54.6028-19.1393 54.0755-20.3147 53.6165-21.517C53.5588-21.6597 53.4748-21.79 53.3685-21.901C53.2005-22.085 53.0805-22.269 53.1125-22.513C53.1468-22.835 53.0645-23.1587 52.8805-23.425C52.7485-23.633 52.6885-23.869 52.5845-24.093C52.4145-24.4667 52.2358-24.836 52.0485-25.201C52.0125-25.269 51.9045-25.341 51.8085-25.361C51.1805-25.509 50.5485-25.657 49.9085-25.773C49.2365-25.893 48.5725-26.041 47.8765-26.077C47.4285-26.101 46.9925-26.237 46.5485-26.317C46.2325-26.369 45.9205-26.433 45.6045-26.449C45.0165-26.473 44.4325-26.469 43.8444-26.477C43.7524-26.477 43.6564-26.461 43.5644-26.477C42.8724-26.585 42.1804-26.457 41.4844-26.469C41.3244-26.469 41.1563-26.421 40.9923-26.405C40.8283-26.389 40.6603-26.393 40.4963-26.373C40.2048-26.3474 39.9141-26.314 39.6243-26.273C39.3963-26.237 39.1723-26.161 38.9443-26.137C38.1883-26.057 37.4923-25.849 36.8243-25.557C36.1683-25.273 35.5083-24.993 34.8643-24.685C34.2483-24.393 33.6443-24.077 33.0443-23.757C32.0274-23.2373 31.0394-22.663 30.0843-22.037C29.8443-21.873 29.6043-21.709 29.3763-21.533C28.9288-21.1917 28.4476-20.8967 27.9402-20.653C27.6722-20.521 27.4322-20.353 27.1802-20.201C26.6202-19.865 26.0402-19.561 25.5402-19.161C25.1922-18.885 24.7722-18.681 24.3962-18.437C24.2122-18.317 24.0722-18.149 23.8842-18.037C23.2562-17.665 22.6922-17.217 21.9842-16.933C21.6242-16.789 21.2842-16.609 20.9202-16.461C20.6202-16.337 20.6002-16.361 20.4002-16.581C20.3202-16.665 20.1882-16.713 20.0722-16.769C19.7402-16.929 19.7282-16.961 19.8842-17.245C19.9148-17.3023 19.9429-17.361 19.9682-17.421C20.0722-17.653 20.0722-17.653 19.8282-17.789L19.3762-18.049C19.2482-18.117 19.2442-18.185 19.3562-18.265C19.6042-18.441 19.8402-18.633 20.1042-18.797C20.7722-19.217 21.4562-19.625 22.1242-20.045C22.7282-20.429 23.3242-20.821 23.9202-21.205C24.0602-21.297 24.2002-21.385 24.3442-21.469C24.8842-21.781 25.4242-22.085 25.9602-22.405C26.6202-22.801 27.2642-23.217 27.9322-23.605C28.4282-23.893 28.9523-24.149 29.4603-24.421C29.6803-24.541 29.9003-24.661 30.1083-24.789C30.8283-25.237 31.5443-25.689 32.2563-26.145C32.4163-26.245 32.5563-26.373 32.7163-26.473C33.0443-26.669 33.3923-26.841 33.7043-27.049C34.2523-27.417 34.7843-27.809 35.3283-28.181C35.4723-28.281 35.6483-28.353 35.8163-28.433L37.5763-29.3011C37.8174-29.4251 38.0536-29.5587 38.2843-29.7011C38.3523-29.7411 38.4363-29.8211 38.4363-29.8771C38.4363-30.0691 38.5523-30.1891 38.7083-30.3091C38.7483-30.3411 38.7483-30.4171 38.7683-30.4731C38.7003-30.4731 38.6243-30.4891 38.5643-30.4731C37.7483-30.2131 36.9323-29.9531 36.1803-29.5731C35.9483-29.4531 35.6603-29.4171 35.4043-29.3331C34.9123-29.1611 34.4363-28.9731 33.9443-28.813C33.2163-28.573 32.4843-28.341 31.7443-28.133C31.0643-27.945 30.3763-27.797 29.6923-27.625C29.5963-27.601 29.5123-27.553 29.4163-27.525C29.2963-27.493 29.1403-27.465 29.0843-27.585C29.0679-27.6294 29.0638-27.6774 29.0722-27.7237C29.0807-27.77 29.1014-27.8134 29.1323-27.849C29.2979-28.024 29.4895-28.1724 29.7003-28.289C30.2883-28.577 30.9003-28.829 31.4923-29.1011C31.8603-29.2731 32.2203-29.4611 32.5763-29.6411C33.2363-29.9771 33.8963-30.3091 34.5483-30.6531C35.1163-30.9531 35.6803-31.2611 36.2363-31.5771C36.9003-31.9571 37.5683-32.3371 38.2083-32.7491C38.9963-33.2571 39.7363-33.8091 40.4403-34.4051C41.1083-34.9731 41.6844-35.5971 42.3124-36.1851C42.9284-36.7691 43.5924-37.3131 44.2284-37.8811C44.9885-38.5571 45.7325-39.2411 46.4845-39.9171C46.9205-40.3051 47.3685-40.6851 47.7965-41.0771C47.9405-41.2131 48.0285-41.3851 48.1645-41.5211C48.2845-41.6411 48.4325-41.7451 48.5765-41.8532C48.6605-41.9172 48.7685-41.9652 48.8525-42.0332C49.2085-42.3292 49.5605-42.6252 49.9085-42.9292C50.0605-43.0612 50.1885-43.2092 50.3325-43.3452C50.5445-43.5332 50.7645-43.7132 50.9805-43.9012C51.0325-43.9452 51.1165-43.9932 51.1205-44.0452C51.1445-44.3132 51.3965-44.4052 51.6165-44.5252C52.0845-44.7732 52.4165-45.1412 52.7925-45.4692C53.2685-45.8852 53.7525-46.2892 54.2325-46.7052C54.4205-46.8652 54.5845-47.0412 54.7685-47.2052C55.2085-47.5972 55.6685-47.9732 56.0885-48.3812C56.4205-48.7012 56.7045-49.0612 57.0165-49.4012C57.1605-49.5532 57.3245-49.6972 57.4885-49.8373C57.8885-50.1773 58.3205-50.4933 58.6885-50.8573C59.0405-51.2133 59.3965-51.5573 59.7925-51.8853C60.0086-52.0613 60.1526-52.3053 60.3126-52.5253C60.7286-53.0853 61.3006-53.5333 61.8046-54.0253C62.1926-54.4053 62.6446-54.7053 63.1366-54.9773C63.5389-55.2172 63.9849-55.3749 64.4486-55.4413C64.7046-55.4693 64.9566-55.5413 65.2046-55.6093C65.7326-55.7493 66.2726-55.7813 66.7806-55.7613Z"/>
   <path class="monochrome-1 multicolor-1:tintColor hierarchical-1:tertiary SFSymbolsPreviewWireframe" d="M48.9411-84C55.3091-84.0013 61.615-82.7479 67.4985-80.3116C73.382-77.8752 78.7279-74.3036 83.2305-69.8009C87.7334-65.2983 91.305-59.9524 93.7418-54.0682C96.1779-48.1846 97.4312-41.8789 97.43-35.5124C97.43-8.72255 75.7254 13 48.9424 13C22.156 13 0.43-8.726 0.43-35.5124C0.43-62.2926 22.1539-84 48.9411-84ZM48.9424-70C29.8835-70 14.43-54.5582 14.43-35.5124C14.43-16.458 29.888-0.999999 48.9424-0.999999C67.9909-0.999999 83.43-16.4519 83.43-35.5138C83.4309-40.0428 82.5395-44.5276 80.8069-48.7121C79.0739-52.8969 76.5337-56.6989 73.3311-59.9013C70.1287-63.1038 66.3266-65.644 62.1422-67.3767C57.9578-69.1095 53.4729-70.0009 48.9424-70Z"/>
  </g>
  <g id="Regular-S" transform="matrix(1 0 0 1 1403.58 696)">
   <path class="monochrome-0 multicolor-0:tintColor hierarchical-0:primary SFSymbolsPreviewWireframe" d="M64.8477-56.9914C65.9942-57.0508 67.0345-56.7918 68.0578-56.5031C68.406-56.4054 68.7372-56.2356 69.0556-56.0785C69.493-55.8577 69.9219-55.6326 70.3337-55.3821C70.7074-55.157 71.0556-54.898 71.408-54.6475C71.7774-54.3927 72.1468-54.1337 72.5035-53.862C72.7073-53.7091 72.8984-53.5393 73.0725-53.3609C73.1404-53.2896 73.2232-53.2336 73.3145-53.197C73.4062-53.1604 73.5046-53.1439 73.6033-53.1486C74.0661-53.1529 74.5204-53.1741 74.9833-53.2378C75.5862-53.3227 76.2147-53.3397 76.8219-53.2972C77.204-53.2675 77.5862-53.0934 77.9471-52.949C78.1806-52.8556 78.1594-52.6815 77.9301-52.5796C77.2083-52.2654 76.4992-51.9427 75.7688-51.6455C75.3357-51.4714 74.8771-51.3398 74.427-51.2039C73.8326-51.0213 73.5948-50.6391 73.4589-50.1508C73.2636-49.4672 73.2806-48.7751 73.2678-48.0872C73.2593-47.5267 73.3103-46.962 73.3528-46.3972C73.4037-45.6329 73.4801-44.8686 73.5311-44.1043C73.5566-43.7009 73.5438-43.289 73.5566-42.8814C73.5608-42.6266 73.599-42.3634 73.599-42.1043C73.5948-41.5778 73.5736-41.0513 73.5651-40.5247C73.5566-39.9473 73.5353-39.3698 73.5438-38.7881C73.5481-38.2276 73.4164-37.6841 73.2381-37.1448C73.1277-36.8178 73.0343-36.4824 72.9409-36.1512C72.8549-35.826 72.7095-35.5192 72.512-35.2468C72.2771-34.9177 72.063-34.5748 71.8708-34.2192C71.5609-33.6672 71.149-33.1789 70.6989-32.7076C70.1851-32.1641 69.7138-31.5951 69.1703-31.0728C68.7881-30.6991 68.3253-30.3764 67.888-30.0367C67.5992-29.8202 67.285-29.6206 66.9878-29.4041C66.8434-29.2979 66.8476-29.2002 67.0175-29.1196C67.3105-28.9837 67.612-28.8521 67.9092-28.7247C67.9849-28.6999 68.0659-28.6985 68.1427-28.7204C68.631-28.8563 69.1236-28.8521 69.6289-28.8181C69.82-28.8053 70.0195-28.8181 70.2148-28.8266C70.3635-28.8308 70.4866-28.8011 70.5248-28.6695C70.6437-28.2788 70.8051-27.9052 70.7711-27.489C70.7456-27.2385 70.6437-27.0729 70.3889-26.9201C70.0935-26.729 69.8238-26.5004 69.5864-26.2407C69.3741-26.0241 69.1193-26.0199 68.8391-26.0496C68.7881-26.0538 68.699-26.1175 68.699-26.1515C68.7075-26.3298 68.5546-26.3638 68.406-26.3893C68.2591-26.4225 68.1102-26.4438 67.9601-26.453C67.6926-26.4615 67.612-26.5039 67.612-26.7205C67.612-27.1026 67.612-27.4805 67.6374-27.8585C67.6544-28.0495 67.595-28.1557 67.3742-28.2406C66.9708-28.3892 66.5759-28.5633 66.1768-28.7289C65.871-28.8563 65.7988-28.8308 65.5823-28.6185C65.45-28.4833 65.2982-28.3691 65.1322-28.2788C64.6566-28.0368 64.1598-27.8117 63.6843-27.5697C63.4422-27.4466 63.2299-27.2852 62.9879-27.1578C62.368-26.8224 61.7395-26.4997 61.1196-26.1727C60.3949-25.7984 59.6356-25.4955 58.8521-25.2683C58.4066-25.1356 57.9527-25.0337 57.4934-24.9626C56.5337-24.8182 55.5741-24.6951 54.6145-24.5677C54.3172-24.5252 54.0158-24.4828 53.7143-24.4828C52.749-24.4789 51.7834-24.4845 50.8184-24.4997C50.4363-24.5082 50.3938-24.47 50.3853-24.1558C50.4108-23.6257 50.5686-23.1105 50.8439-22.6569C50.9352-22.5065 51.0566-22.3763 51.2006-22.2748C51.2777-22.2171 51.3425-22.1438 51.3899-22.0596C51.4373-21.9758 51.4667-21.8827 51.4766-21.7865C51.519-21.4892 51.604-21.192 51.6761-20.8948C51.6846-20.8481 51.7144-20.8056 51.7186-20.7631C51.7398-19.9224 52.2579-19.2005 52.5254-18.4193C52.6528-18.0498 52.8311-17.6932 53.0052-17.3365C53.0894-17.1773 53.1952-17.0301 53.3194-16.8991C53.3746-16.8354 53.4892-16.7845 53.5827-16.7675C54.003-16.6953 54.4234-16.6401 54.8438-16.5807L55.0306-16.5679C55.2896-16.5679 55.3406-16.5425 55.3363-16.3344C55.3193-15.8461 55.2939-15.3578 55.2684-14.8652C55.2599-14.6954 55.1495-14.585 54.9414-14.568C54.64-14.551 54.3342-14.5255 54.0328-14.5468C53.5657-14.5807 53.0986-14.6487 52.6315-14.7081C52.5466-14.7209 52.4617-14.7718 52.3768-14.8058C52.432-14.8695 52.4659-14.9417 52.5339-14.9884C52.64-15.0605 52.623-15.1327 52.5508-15.2007C52.3683-15.3578 52.398-15.5276 52.4574-15.7187C52.5339-15.9692 52.6188-16.2197 52.6528-16.4788C52.6591-16.627 52.6241-16.7742 52.5508-16.9034C51.9206-18.116 51.3609-19.3637 50.8736-20.64C50.8124-20.7914 50.7232-20.9298 50.6104-21.0476C50.432-21.2429 50.3046-21.4383 50.3386-21.6973C50.375-22.0391 50.2876-22.3827 50.0923-22.6654C49.9522-22.8862 49.8885-23.1367 49.7781-23.3745C49.5976-23.7712 49.408-24.1632 49.2091-24.5507C49.1709-24.6229 49.0563-24.6993 48.9544-24.7205C48.2877-24.8777 47.6168-25.0348 46.9374-25.1579C46.2241-25.2853 45.5192-25.4424 44.7804-25.4806C44.3048-25.5061 43.842-25.6505 43.3707-25.7354C43.0352-25.7906 42.704-25.8585 42.3686-25.8755C41.7444-25.901 41.1244-25.8967 40.5003-25.9052C40.4026-25.9052 40.3007-25.8882 40.203-25.9052C39.4684-26.0199 38.7339-25.884 37.995-25.8967C37.8252-25.8967 37.6467-25.8458 37.4726-25.8288C37.2986-25.8118 37.1202-25.8161 36.9461-25.7948C36.6367-25.7676 36.328-25.7322 36.0205-25.6887C35.7784-25.6505 35.5406-25.5698 35.2986-25.5443C34.4961-25.4594 33.7573-25.2386 33.0482-24.9286C32.3518-24.6271 31.6512-24.3299 30.9675-24.0029C30.3136-23.693 29.6725-23.3575 29.0355-23.0178C27.9561-22.4662 26.9073-21.8565 25.8934-21.192C25.6386-21.0179 25.3838-20.8438 25.1418-20.657C24.6668-20.2946 24.156-19.9815 23.6174-19.7228C23.333-19.5827 23.0782-19.4044 22.8107-19.243C22.2162-18.8863 21.6005-18.5636 21.0698-18.139C20.7003-17.846 20.2545-17.6295 19.8554-17.3705C19.66-17.2431 19.5114-17.0647 19.3118-16.9458C18.6452-16.5509 18.0465-16.0754 17.2949-15.7739C16.9128-15.621 16.5518-15.43 16.1654-15.2729C15.847-15.1412 15.8258-15.1667 15.6134-15.4002C15.5285-15.4894 15.3884-15.5404 15.2653-15.5998C14.9128-15.7697 14.9001-15.8036 15.0657-16.1051C15.0982-16.166 15.128-16.2282 15.1549-16.2919C15.2653-16.5382 15.2653-16.5382 15.0062-16.6826L14.5264-16.9586C14.3906-17.0308 14.3863-17.1029 14.5052-17.1879C14.7685-17.3747 15.019-17.5785 15.2992-17.7526C16.0083-18.1985 16.7344-18.6316 17.4435-19.0774C18.0847-19.485 18.7174-19.9012 19.3501-20.3088C19.4987-20.4065 19.6473-20.4999 19.8002-20.589C20.3734-20.9202 20.9466-21.2429 21.5156-21.5826C22.2162-22.003 22.8998-22.4446 23.609-22.8565C24.1355-23.1622 24.6917-23.434 25.231-23.7227C25.4645-23.8501 25.6981-23.9775 25.9189-24.1133C26.6832-24.5889 27.4432-25.0687 28.199-25.5528C28.3689-25.6589 28.5175-25.7948 28.6874-25.901C29.0355-26.109 29.405-26.2916 29.7362-26.5124C30.3179-26.9031 30.8826-27.3192 31.4601-27.7141C31.613-27.8202 31.7998-27.8967 31.9781-27.9816L33.8464-28.903C34.1024-29.0346 34.3531-29.1765 34.598-29.3276C34.6702-29.3701 34.7594-29.455 34.7594-29.5145C34.7594-29.7183 34.8825-29.8457 35.0481-29.973C35.0906-30.007 35.0906-30.0877 35.1118-30.1471C35.0396-30.1471 34.9589-30.1641 34.8952-30.1471C34.029-29.8711 33.1628-29.5951 32.3645-29.1917C32.1182-29.0644 31.8125-29.0261 31.5408-28.937C31.0185-28.7544 30.5132-28.5548 29.9909-28.385C29.2181-28.1302 28.4411-27.8839 27.6555-27.6631C26.9337-27.4636 26.2034-27.3065 25.4773-27.1239C25.3754-27.0984 25.2862-27.0474 25.1843-27.0177C25.0569-26.9837 24.8913-26.954 24.8318-27.0814C24.8145-27.1285 24.8101-27.1794 24.8191-27.2286C24.828-27.2778 24.85-27.3238 24.8828-27.3617C25.0587-27.5474 25.262-27.7049 25.4858-27.8287C26.1099-28.1345 26.7596-28.402 27.388-28.6907C27.7787-28.8733 28.1608-29.0729 28.5387-29.2639C29.2394-29.6206 29.94-29.973 30.6321-30.3382C31.235-30.6567 31.8338-30.9836 32.424-31.3191C33.1288-31.7225 33.8379-32.1258 34.5173-32.5632C35.3538-33.1025 36.1394-33.6884 36.8867-34.3211C37.5958-34.9241 38.2073-35.5865 38.874-36.2106C39.5279-36.8306 40.2328-37.4081 40.9079-38.011C41.7147-38.7286 42.5044-39.4547 43.3027-40.1723C43.7656-40.5842 44.2411-40.9876 44.6955-41.4037C44.8483-41.5481 44.9417-41.7306 45.0861-41.875C45.2135-42.0024 45.3706-42.1128 45.5235-42.2275C45.6126-42.2954 45.7273-42.3464 45.8164-42.4186C46.1944-42.7328 46.568-43.047 46.9374-43.3697C47.0988-43.5098 47.2347-43.667 47.3875-43.8113C47.6126-44.0109 47.8461-44.202 48.0754-44.4015C48.1306-44.4482 48.2198-44.4992 48.224-44.5544C48.2495-44.8389 48.517-44.9366 48.7505-45.0639C49.2473-45.3272 49.5998-45.7178 49.9989-46.066C50.5042-46.5076 51.018-46.9365 51.5275-47.3781C51.7271-47.5479 51.9012-47.7348 52.0965-47.9089C52.5636-48.325 53.0519-48.7241 53.4977-49.1572C53.8502-49.4969 54.1516-49.8791 54.4828-50.24C54.6357-50.4014 54.8098-50.5542 54.9839-50.7028C55.4085-51.0638 55.8671-51.3992 56.2577-51.7856C56.6314-52.1635 57.0093-52.5287 57.4297-52.8769C57.659-53.0637 57.8118-53.3227 57.9817-53.5562C58.4233-54.1507 59.0305-54.6263 59.5655-55.1486C59.9774-55.5519 60.4572-55.8704 60.9795-56.1591C61.4066-56.4138 61.88-56.5812 62.3722-56.6517C62.644-56.6814 62.9115-56.7578 63.1747-56.83C63.7352-56.9786 64.3084-57.0126 64.8477-56.9914Z"/>
   <path class="monochrome-1 multicolor-1:tintColor hierarchical-1:tertiary SFSymbolsPreviewWireframe" d="M46.4321-81.8365C52.4502-81.8377 58.4096-80.6532 63.9698-78.3508C69.53-76.0483 74.5822-72.6729 78.8374-68.4176C83.0928-64.1624 86.4682-59.1103 88.771-53.5496C91.0733-47.9892 92.2577-42.03 92.2566-36.0127C92.2566-10.693 71.744 9.83658 46.4328 9.83658C21.1173 9.83658 0.5835-10.6972 0.5835-36.0127C0.5835-61.3211 21.1145-81.8365 46.4321-81.8365ZM46.4328-75.0865C24.8413-75.0865 7.3335-57.592 7.3335-36.0127C7.3335-14.4252 24.8452 3.08658 46.4328 3.08658C68.0148 3.08658 85.5066-14.4197 85.5066-36.0133C85.5076-41.1447 84.4976-46.226 82.5345-50.9672C80.571-55.7085 77.693-60.0162 74.0644-63.6446C70.4361-67.273 66.1283-70.1511 61.3873-72.1143C56.6463-74.0776 51.5649-75.0875 46.4328-75.0865Z"/>
  </g>
  <g id="Ultralight-S" transform="matrix(1 0 0 1 515.649 696)">
   <path class="monochrome-0 multicolor-0:tintColor hierarchical-0:primary SFSymbolsPreviewWireframe" d="M62.7787-57.9914C63.9252-58.0508 64.9655-57.7918 65.9888-57.5031C66.337-57.4054 66.6682-57.2356 66.9866-57.0785C67.424-56.8577 67.8529-56.6326 68.2647-56.3821C68.6384-56.157 68.9866-55.898 69.339-55.6475C69.7084-55.3927 70.0778-55.1337 70.4345-54.862C70.6383-54.7091 70.8294-54.5393 71.0035-54.3609C71.0714-54.2896 71.1542-54.2336 71.2455-54.197C71.3372-54.1604 71.4356-54.1439 71.5343-54.1486C71.9971-54.1529 72.4514-54.1741 72.9143-54.2378C73.5172-54.3227 74.1457-54.3397 74.7529-54.2972C75.135-54.2675 75.5172-54.0934 75.8781-53.949C76.1116-53.8556 76.0904-53.6815 75.8611-53.5796C75.1393-53.2654 74.4302-52.9427 73.6998-52.6455C73.2667-52.4714 72.8081-52.3398 72.358-52.2039C71.7636-52.0213 71.5258-51.6391 71.3899-51.1508C71.1946-50.4672 71.2116-49.7751 71.1988-49.0872C71.1903-48.5267 71.2413-47.962 71.2838-47.3972C71.3347-46.6329 71.4111-45.8686 71.4621-45.1043C71.4876-44.7009 71.4748-44.289 71.4876-43.8814C71.4918-43.6266 71.53-43.3634 71.53-43.1043C71.5258-42.5778 71.5046-42.0513 71.4961-41.5247C71.4876-40.9473 71.4663-40.3698 71.4748-39.7881C71.4791-39.2276 71.3474-38.6841 71.1691-38.1448C71.0587-37.8178 70.9653-37.4824 70.8719-37.1512C70.7859-36.826 70.6405-36.5192 70.443-36.2468C70.2081-35.9177 69.994-35.5748 69.8018-35.2192C69.4919-34.6672 69.08-34.1789 68.6299-33.7076C68.1161-33.1641 67.6448-32.5951 67.1013-32.0728C66.7191-31.6991 66.2563-31.3764 65.819-31.0367C65.5302-30.8202 65.216-30.6206 64.9188-30.4041C64.7744-30.2979 64.7786-30.2002 64.9485-30.1196C65.2415-29.9837 65.543-29.8521 65.8402-29.7247C65.9159-29.6999 65.9969-29.6985 66.0737-29.7204C66.562-29.8563 67.0546-29.8521 67.5599-29.8181C67.751-29.8053 67.9505-29.8181 68.1458-29.8266C68.2945-29.8308 68.4176-29.8011 68.4558-29.6695C68.5747-29.2788 68.7361-28.9052 68.7021-28.489C68.6766-28.2385 68.5747-28.0729 68.3199-27.9201C68.0245-27.729 67.7548-27.5004 67.5174-27.2407C67.3051-27.0241 67.0503-27.0199 66.7701-27.0496C66.7191-27.0538 66.63-27.1175 66.63-27.1515C66.6385-27.3298 66.4856-27.3638 66.337-27.3893C66.1901-27.4225 66.0412-27.4438 65.8911-27.453C65.6236-27.4615 65.543-27.5039 65.543-27.7205C65.543-28.1026 65.543-28.4805 65.5684-28.8585C65.5854-29.0495 65.526-29.1557 65.3052-29.2406C64.9018-29.3892 64.5069-29.5633 64.1078-29.7289C63.802-29.8563 63.7298-29.8308 63.5133-29.6185C63.381-29.4833 63.2292-29.3691 63.0632-29.2788C62.5876-29.0368 62.0908-28.8117 61.6153-28.5697C61.3732-28.4466 61.1609-28.2852 60.9189-28.1578C60.299-27.8224 59.6705-27.4997 59.0506-27.1727C58.3259-26.7984 57.5666-26.4955 56.7831-26.2683C56.3376-26.1356 55.8837-26.0337 55.4244-25.9626C54.4647-25.8182 53.5051-25.6951 52.5455-25.5677C52.2482-25.5252 51.9468-25.4828 51.6453-25.4828C50.68-25.4789 49.7144-25.4845 48.7494-25.4997C48.3673-25.5082 48.3248-25.47 48.3163-25.1558C48.3418-24.6257 48.4996-24.1105 48.7749-23.6569C48.8662-23.5065 48.9876-23.3763 49.1316-23.2748C49.2087-23.2171 49.2735-23.1438 49.3209-23.0596C49.3683-22.9758 49.3977-22.8827 49.4076-22.7865C49.45-22.4892 49.535-22.192 49.6071-21.8948C49.6156-21.8481 49.6454-21.8056 49.6496-21.7631C49.6708-20.9224 50.1889-20.2005 50.4564-19.4193C50.5838-19.0498 50.7621-18.6932 50.9362-18.3365C51.0204-18.1773 51.1262-18.0301 51.2504-17.8991C51.3056-17.8354 51.4202-17.7845 51.5137-17.7675C51.934-17.6953 52.3544-17.6401 52.7748-17.5807L52.9616-17.5679C53.2206-17.5679 53.2716-17.5425 53.2673-17.3344C53.2503-16.8461 53.2249-16.3578 53.1994-15.8652C53.1909-15.6954 53.0805-15.585 52.8724-15.568C52.571-15.551 52.2652-15.5255 51.9638-15.5468C51.4967-15.5807 51.0296-15.6487 50.5625-15.7081C50.4776-15.7209 50.3927-15.7718 50.3078-15.8058C50.363-15.8695 50.3969-15.9417 50.4649-15.9884C50.571-16.0605 50.554-16.1327 50.4818-16.2007C50.2993-16.3578 50.329-16.5276 50.3884-16.7187C50.4649-16.9692 50.5498-17.2197 50.5838-17.4788C50.5901-17.627 50.5551-17.7742 50.4818-17.9034C49.8516-19.116 49.2919-20.3637 48.8046-21.64C48.7434-21.7914 48.6542-21.9298 48.5414-22.0476C48.363-22.2429 48.2356-22.4383 48.2696-22.6973C48.306-23.0391 48.2186-23.3827 48.0233-23.6654C47.8832-23.8862 47.8195-24.1367 47.7091-24.3745C47.5286-24.7712 47.339-25.1632 47.1401-25.5507C47.1019-25.6229 46.9873-25.6993 46.8854-25.7205C46.2187-25.8777 45.5478-26.0348 44.8684-26.1579C44.1551-26.2853 43.4502-26.4424 42.7114-26.4806C42.2358-26.5061 41.773-26.6505 41.3017-26.7354C40.9662-26.7906 40.635-26.8585 40.2996-26.8755C39.6754-26.901 39.0554-26.8967 38.4313-26.9052C38.3336-26.9052 38.2317-26.8882 38.134-26.9052C37.3994-27.0199 36.6649-26.884 35.926-26.8967C35.7562-26.8967 35.5777-26.8458 35.4036-26.8288C35.2296-26.8118 35.0512-26.8161 34.8771-26.7948C34.5677-26.7676 34.259-26.7322 33.9515-26.6887C33.7094-26.6505 33.4716-26.5698 33.2296-26.5443C32.4271-26.4594 31.6883-26.2386 30.9792-25.9286C30.2828-25.6271 29.5822-25.3299 28.8985-25.0029C28.2446-24.693 27.6035-24.3575 26.9665-24.0178C25.8871-23.4662 24.8383-22.8565 23.8244-22.192C23.5696-22.0179 23.3148-21.8438 23.0728-21.657C22.5978-21.2946 22.087-20.9815 21.5484-20.7228C21.264-20.5827 21.0092-20.4044 20.7417-20.243C20.1472-19.8863 19.5315-19.5636 19.0008-19.139C18.6313-18.846 18.1855-18.6295 17.7864-18.3705C17.591-18.2431 17.4424-18.0647 17.2428-17.9458C16.5762-17.5509 15.9775-17.0754 15.2259-16.7739C14.8438-16.621 14.4828-16.43 14.0964-16.2729C13.778-16.1412 13.7568-16.1667 13.5444-16.4002C13.4595-16.4894 13.3194-16.5404 13.1963-16.5998C12.8438-16.7697 12.8311-16.8036 12.9967-17.1051C13.0292-17.166 13.059-17.2282 13.0859-17.2919C13.1963-17.5382 13.1963-17.5382 12.9372-17.6826L12.4574-17.9586C12.3216-18.0308 12.3173-18.1029 12.4362-18.1879C12.6995-18.3747 12.95-18.5785 13.2302-18.7526C13.9393-19.1985 14.6654-19.6316 15.3745-20.0774C16.0157-20.485 16.6484-20.9012 17.2811-21.3088C17.4297-21.4065 17.5783-21.4999 17.7312-21.589C18.3044-21.9202 18.8776-22.2429 19.4466-22.5826C20.1472-23.003 20.8308-23.4446 21.54-23.8565C22.0665-24.1622 22.6227-24.434 23.162-24.7227C23.3955-24.8501 23.6291-24.9775 23.8499-25.1133C24.6142-25.5889 25.3742-26.0687 26.13-26.5528C26.2999-26.6589 26.4485-26.7948 26.6184-26.901C26.9665-27.109 27.336-27.2916 27.6672-27.5124C28.2489-27.9031 28.8136-28.3192 29.3911-28.7141C29.544-28.8202 29.7308-28.8967 29.9091-28.9816L31.7774-29.903C32.0334-30.0346 32.2841-30.1765 32.529-30.3276C32.6012-30.3701 32.6904-30.455 32.6904-30.5145C32.6904-30.7183 32.8135-30.8457 32.9791-30.973C33.0216-31.007 33.0216-31.0877 33.0428-31.1471C32.9706-31.1471 32.8899-31.1641 32.8262-31.1471C31.96-30.8711 31.0938-30.5951 30.2955-30.1917C30.0492-30.0644 29.7435-30.0261 29.4718-29.937C28.9495-29.7544 28.4442-29.5548 27.9219-29.385C27.1491-29.1302 26.3721-28.8839 25.5865-28.6631C24.8647-28.4636 24.1344-28.3065 23.4083-28.1239C23.3064-28.0984 23.2172-28.0474 23.1153-28.0177C22.9879-27.9837 22.8223-27.954 22.7628-28.0814C22.7455-28.1285 22.7411-28.1794 22.7501-28.2286C22.759-28.2778 22.781-28.3238 22.8138-28.3617C22.9897-28.5474 23.193-28.7049 23.4168-28.8287C24.0409-29.1345 24.6906-29.402 25.319-29.6907C25.7097-29.8733 26.0918-30.0729 26.4697-30.2639C27.1704-30.6206 27.871-30.973 28.5631-31.3382C29.166-31.6567 29.7648-31.9836 30.355-32.3191C31.0598-32.7225 31.7689-33.1258 32.4483-33.5632C33.2848-34.1025 34.0704-34.6884 34.8177-35.3211C35.5268-35.9241 36.1383-36.5865 36.805-37.2106C37.4589-37.8306 38.1638-38.4081 38.8389-39.011C39.6457-39.7286 40.4354-40.4547 41.2337-41.1723C41.6966-41.5842 42.1721-41.9876 42.6265-42.4037C42.7793-42.5481 42.8727-42.7306 43.0171-42.875C43.1445-43.0024 43.3016-43.1128 43.4545-43.2275C43.5436-43.2954 43.6583-43.3464 43.7474-43.4186C44.1254-43.7328 44.499-44.047 44.8684-44.3697C45.0298-44.5098 45.1657-44.667 45.3185-44.8113C45.5436-45.0109 45.7771-45.202 46.0064-45.4015C46.0616-45.4482 46.1508-45.4992 46.155-45.5544C46.1805-45.8389 46.448-45.9366 46.6815-46.0639C47.1783-46.3272 47.5308-46.7178 47.9299-47.066C48.4352-47.5076 48.949-47.9365 49.4585-48.3781C49.6581-48.5479 49.8322-48.7348 50.0275-48.9089C50.4946-49.325 50.9829-49.7241 51.4287-50.1572C51.7812-50.4969 52.0826-50.8791 52.4138-51.24C52.5667-51.4014 52.7408-51.5542 52.9149-51.7028C53.3395-52.0638 53.7981-52.3992 54.1887-52.7856C54.5624-53.1635 54.9403-53.5287 55.3607-53.8769C55.59-54.0637 55.7428-54.3227 55.9127-54.5562C56.3543-55.1507 56.9615-55.6263 57.4965-56.1486C57.9084-56.5519 58.3882-56.8704 58.9105-57.1591C59.3376-57.4138 59.811-57.5812 60.3032-57.6517C60.575-57.6814 60.8425-57.7578 61.1057-57.83C61.6662-57.9786 62.2394-58.0126 62.7787-57.9914Z"/>
   <path class="monochrome-1 multicolor-1:tintColor hierarchical-1:tertiary SFSymbolsPreviewWireframe" d="M44.3636-80.5865C50.0861-80.5876 55.7528-79.4613 61.04-77.272C66.3271-75.0826 71.1312-71.8729 75.1774-67.8265C79.2239-63.7803 82.4335-58.9764 84.6232-53.6889C86.8124-48.4015 87.9387-42.7349 87.9376-37.0127C87.9376-12.9352 68.432 6.58658 44.3638 6.58658C20.2909 6.58658 0.7645-12.9399 0.7645-37.0127C0.7645-61.0781 20.2877-80.5865 44.3636-80.5865ZM44.3638-78.3365C21.53-78.3365 3.0145-59.8351 3.0145-37.0127C3.0145-14.1825 21.5336 4.33658 44.3638 4.33658C67.1889 4.33658 85.6876-14.1774 85.6876-37.0129C85.6886-42.4398 84.6205-47.8138 82.5443-52.828C80.4678-57.8425 77.4239-62.3983 73.5865-66.2355C69.7491-70.073 65.1932-73.1168 60.1791-75.1931C55.1651-77.2695 49.791-78.3376 44.3638-78.3365Z"/>
  </g>
 </g>
</svg>
