<?xml version="1.0" encoding="UTF-8"?>
<svg width="3300px" height="2200px" viewBox="0 0 3300 2200" version="1.1" xmlns="http://www.w3.org/2000/svg" xmlns:xlink="http://www.w3.org/1999/xlink">
    <!-- Generator: Sketch 59.1 (86144) - https://sketch.com -->
    <title>filter</title>
    <desc>Created with Sketch.</desc>
    <g id="Page-1" stroke="none" stroke-width="1" fill="none" fill-rule="evenodd">
        <g id="filter">
            <g id="Notes">
                <rect id="artboard" fill="#FFFFFF" fill-rule="nonzero" x="0" y="0" width="3300" height="2200"></rect>
                <line x1="263" y1="292" x2="3036" y2="292" id="Path" stroke="#000000" stroke-width="0.5"></line>
                <text id="Weight/Scale-Variations" fill="#000000" font-family="Helvetica-Bold, Helvetica" font-size="13" font-weight="bold">
                    <tspan x="263" y="322">Weight/Scale Variations</tspan>
                </text>
                <text id="Ultralight" fill="#000000" font-family="Helvetica" font-size="13" font-weight="normal">
                    <tspan x="533.711" y="322">Ultralight</tspan>
                </text>
                <text id="Thin" fill="#000000" font-family="Helvetica" font-size="13" font-weight="normal">
                    <tspan x="843.422" y="322">Thin</tspan>
                </text>
                <text id="Light" fill="#000000" font-family="Helvetica" font-size="13" font-weight="normal">
                    <tspan x="1138.63" y="322">Light</tspan>
                </text>
                <text id="Regular" fill="#000000" font-family="Helvetica" font-size="13" font-weight="normal">
                    <tspan x="1426.84" y="322">Regular</tspan>
                </text>
                <text id="Medium" fill="#000000" font-family="Helvetica" font-size="13" font-weight="normal">
                    <tspan x="1723.06" y="322">Medium</tspan>
                </text>
                <text id="Semibold" fill="#000000" font-family="Helvetica" font-size="13" font-weight="normal">
                    <tspan x="2015.77" y="322">Semibold</tspan>
                </text>
                <text id="Bold" fill="#000000" font-family="Helvetica" font-size="13" font-weight="normal">
                    <tspan x="2326.48" y="322">Bold</tspan>
                </text>
                <text id="Heavy" fill="#000000" font-family="Helvetica" font-size="13" font-weight="normal">
                    <tspan x="2618.19" y="322">Heavy</tspan>
                </text>
                <text id="Black" fill="#000000" font-family="Helvetica" font-size="13" font-weight="normal">
                    <tspan x="2917.4" y="322">Black</tspan>
                </text>
                <line x1="263" y1="1903" x2="3036" y2="1903" id="Path" stroke="#000000" stroke-width="0.5"></line>
                <g id="Group" transform="translate(264.000000, 1918.000000)" fill="#000000" fill-rule="nonzero">
                    <path d="M8.24805,15.830078 C12.5547,15.830078 16.1387,12.25586 16.1387,7.94922 C16.1387,3.6426 12.5449,0.0684 8.23828,0.0684 C3.94141,0.0684 0.36719,3.6426 0.36719,7.94922 C0.36719,12.25586 3.95117,15.830078 8.24805,15.830078 Z M8.24805,14.345703 C4.70312,14.345703 1.87109,11.50391 1.87109,7.94922 C1.87109,4.3945 4.69336,1.5527 8.23828,1.5527 C11.793,1.5527 14.6348,4.3945 14.6445503,7.94922 C14.6543,11.50391 11.8027,14.345703 8.24805,14.345703 Z M8.22852,11.57227 C8.69727,11.57227 8.9707,11.25977 8.9707,10.74219 L8.9707,8.68164 L11.1973,8.68164 C11.6953,8.68164 12.0371,8.42773 12.0371,7.95898 C12.0371,7.48047 11.7148,7.2168 11.1973,7.2168 L8.9707,7.2168 L8.9707,4.9902 C8.9707,4.4727 8.69727,4.1504 8.22852,4.1504 C7.75977,4.1504 7.50586,4.4922 7.50586,4.9902 L7.50586,7.2168 L5.29883,7.2168 C4.78125,7.2168 4.44922,7.48047 4.44922,7.95898 C4.44922,8.42773 4.80078,8.68164 5.29883,8.68164 L7.50586,8.68164 L7.50586,10.74219 C7.50586,11.24023 7.75977,11.57227 8.22852,11.57227 Z" id="Shape"></path>
                </g>
                <g id="Group" transform="translate(282.506000, 1915.000000)" fill="#000000" fill-rule="nonzero">
                    <path d="M10.709,20.91016 C16.1582,20.91016 20.6699,16.39844 20.6699,10.94922 C20.6699,5.5098 16.1484,0.9883 10.6992,0.9883 C5.25977,0.9883 0.74805,5.5098 0.74805,10.94922 C0.74805,16.39844 5.26953,20.91016 10.709,20.91016 Z M10.709,19.25 C6.09961,19.25 2.41797,15.55859 2.41797,10.94922 C2.41797,6.3496 6.08984,2.6484 10.6992,2.6484 C15.3086,2.6484 19,6.3496 19.0098379,10.94922 C19.0195,15.55859 15.3184,19.25 10.709,19.25 Z M10.6895,15.58789 C11.207,15.58789 11.5195,15.22656 11.5195,14.66016 L11.5195,11.76953 L14.5762,11.76953 C15.123,11.76953 15.5039,11.48633 15.5039,10.96875 C15.5039,10.44141 15.1426,10.13867 14.5762,10.13867 L11.5195,10.13867 L11.5195,7.0723 C11.5195,6.4961 11.207,6.1445 10.6895,6.1445 C10.1719,6.1445 9.8789,6.5156 9.8789,7.0723 L9.8789,10.13867 L6.83203,10.13867 C6.26562,10.13867 5.89453,10.44141 5.89453,10.96875 C5.89453,11.48633 6.28516,11.76953 6.83203,11.76953 L9.8789,11.76953 L9.8789,14.66016 C9.8789,15.20703 10.1719,15.58789 10.6895,15.58789 Z" id="Shape"></path>
                </g>
                <g id="Group" transform="translate(306.924000, 1913.000000)" fill="#000000" fill-rule="nonzero">
                    <path d="M12.9707,25.67383 C19.9336,25.67383 25.6953,19.921875 25.6953,12.95898 C25.6953,5.9961 19.9238,0.2441 12.9609,0.2441 C6.00781,0.2441 0.25586,5.9961 0.25586,12.95898 C0.25586,19.921875 6.01758,25.67383 12.9707,25.67383 Z M12.9707,23.85742 C6.93555,23.85742 2.08203,18.99414 2.08203,12.95898 C2.08203,6.9238 6.92578,2.0605 12.9609,2.0605 C19.0059,2.0605 23.8594,6.9238 23.8691295,12.95898 C23.8789,18.99414 19.0156,23.85742 12.9707,23.85742 Z M12.9512,18.93555 C13.5176,18.93555 13.8691,18.54492 13.8691,17.93945 L13.8691,13.86719 L18.1074,13.86719 C18.6934,13.86719 19.1133,13.53516 19.1133,12.97852 C19.1133,12.40234 18.7227,12.06055 18.1074,12.06055 L13.8691,12.06055 L13.8691,7.8125 C13.8691,7.1973 13.5176,6.8066 12.9512,6.8066 C12.3848,6.8066 12.0625,7.2168 12.0625,7.8125 L12.0625,12.06055 L7.83398,12.06055 C7.21875,12.06055 6.80859,12.40234 6.80859,12.97852 C6.80859,13.53516 7.23828,13.86719 7.83398,13.86719 L12.0625,13.86719 L12.0625,17.93945 C12.0625,18.52539 12.3848,18.93555 12.9512,18.93555 Z" id="Shape"></path>
                </g>
                <text id="Design-Variations" fill="#000000" font-family="Helvetica-Bold, Helvetica" font-size="13" font-weight="bold">
                    <tspan x="263" y="1953">Design Variations</tspan>
                </text>
                <text id="Symbols-are-supported-in-up-to-nine-weights-and-three-scales." fill="#000000" font-family="Helvetica" font-size="13" font-weight="normal">
                    <tspan x="263" y="1971">Symbols are supported in up to nine weights and three scales.</tspan>
                </text>
                <text id="For-optimal-layout-with-text-and-other-symbols,-vertically-align" fill="#000000" font-family="Helvetica" font-size="13" font-weight="normal">
                    <tspan x="263" y="1989">For optimal layout with text and other symbols, vertically align</tspan>
                </text>
                <text id="symbols-with-the-adjacent-text." fill="#000000" font-family="Helvetica" font-size="13" font-weight="normal">
                    <tspan x="263" y="2007">symbols with the adjacent text.</tspan>
                </text>
                <rect id="Rectangle" fill="#00AEEF" fill-rule="nonzero" opacity="0.4" x="776" y="1919" width="3" height="14"></rect>
                <g id="Group" transform="translate(779.000000, 1918.000000)" fill="#000000" fill-rule="nonzero">
                    <path d="M10.5273,15 L12.373,15 L7.17773,0.9082 L5.43945,0.9082 L0.244141,15 L2.08984,15 L3.50586,10.9668 L9.11133,10.9668 L10.5273,15 Z M6.2793,3.0469 L6.33789,3.0469 L8.59375,9.47266 L4.02344,9.47266 L6.2793,3.0469 Z" id="Shape"></path>
                </g>
                <rect id="Rectangle" fill="#00AEEF" fill-rule="nonzero" opacity="0.4" x="791.617" y="1919" width="3" height="14"></rect>
                <text id="Margins" fill="#000000" font-family="Helvetica-Bold, Helvetica" font-size="13" font-weight="bold">
                    <tspan x="776" y="1953">Margins</tspan>
                </text>
                <text id="Leading-and-trailing-margins-on-the-left-and-right-side-of-each-symbol" fill="#000000" font-family="Helvetica" font-size="13" font-weight="normal">
                    <tspan x="776" y="1971">Leading and trailing margins on the left and right side of each symbol</tspan>
                </text>
                <text id="can-be-adjusted-by-modifying-the-width-of-the-blue-rectangles." fill="#000000" font-family="Helvetica" font-size="13" font-weight="normal">
                    <tspan x="776" y="1989">can be adjusted by modifying the width of the blue rectangles.</tspan>
                </text>
                <text id="Modifications-are-automatically-applied-proportionally-to-all" fill="#000000" font-family="Helvetica" font-size="13" font-weight="normal">
                    <tspan x="776" y="2007">Modifications are automatically applied proportionally to all</tspan>
                </text>
                <text id="scales-and-weights." fill="#000000" font-family="Helvetica" font-size="13" font-weight="normal">
                    <tspan x="776" y="2025">scales and weights.</tspan>
                </text>
                <g id="Group" transform="translate(1291.000000, 1915.000000)" fill="#000000" fill-rule="nonzero">
                    <path d="M0.83203,21.11523 L2.375,22.6582 C3.22461,23.48828 4.19141,23.41992 5.06055,22.46289 L15.2754,11.33984 C15.7051,11.63281 16.0957,11.62305 16.5645,11.52539 L17.6094,11.31055 L18.3027,12.00391 L18.2539,12.52148 C18.1855,13.04883 18.3516,13.46875 18.8496,13.9668 L19.6602,14.77734 C20.168,15.28516 20.8223,15.31445 21.3008,14.83594 L24.5527,11.58398 C25.0312,11.10547 25.0117,10.45117 24.5039,9.94336 L23.6836,9.12305 C23.1855,8.625 22.7754,8.44922 22.2383,8.52734 L21.7109,8.58594 L21.0566,7.9219 L21.3398,6.7793 C21.4863,6.2129 21.3398,5.7441 20.7148,5.1387 L18.3027,2.7461 C14.7578,-0.7793 10.2266,-0.6719 7.11133,2.4629 C6.69141,2.8926 6.64258,3.4785 6.91602,3.9082 C7.15039,4.2793 7.62891,4.5039 8.2734,4.3379 C9.7871,3.957 11.3008,4.0742 12.7852,5.0801 L12.1602,6.6621 C11.9258,7.248 11.9453,7.7266 12.1797,8.16602 L1.01758,18.439453 C0.08008,19.30859 -0.02734,20.25586 0.83203,21.11523 Z M8.6738,2.8535 C11.3398,0.8613 14.6504,1.1738 17.0527,3.5859 L19.6797,6.1934 C19.9141,6.4277 19.9434,6.6133 19.8848,6.9062 L19.5039,8.46875 L21.0762,10.04102 L22.043,9.95312 C22.3262,9.92383 22.4141,9.94336 22.6387,10.16797 L23.2637,10.79297 L20.5098,13.53711 L19.8848,12.92188 C19.6602,12.69727 19.6406,12.59961 19.6699,12.31641 L19.7578,11.35938 L18.1953,9.79688 L16.5742,10.10938 C16.291,10.16797 16.1445,10.16797 15.9102,9.92383 L13.7324,7.7461 C13.5078,7.5117 13.4785,7.375 13.6055,7.0527 L14.5527,4.7773 C12.9512,3.2441 10.8418,2.3945 8.8008,3.0488 C8.7129,3.0781 8.6445,3.0586 8.6152,3.0195 C8.5859,2.9707 8.5859,2.9219 8.6738,2.8535 Z M2.10156,20.41211 C1.61328,19.91406 1.78906,19.61133 2.12109,19.30859 L13.0781,9.19141 L14.3086,10.42188 L4.15234,21.34961 C3.84961,21.68164 3.46875,21.7793 3.06836,21.37891 L2.10156,20.41211 Z" id="Shape"></path>
                </g>
                <text id="Exporting" fill="#000000" font-family="Helvetica-Bold, Helvetica" font-size="13" font-weight="bold">
                    <tspan x="1289" y="1953">Exporting</tspan>
                </text>
                <text id="Symbols-should-be-outlined-when-exporting-to-ensure-the" fill="#000000" font-family="Helvetica" font-size="13" font-weight="normal">
                    <tspan x="1289" y="1971">Symbols should be outlined when exporting to ensure the</tspan>
                </text>
                <text id="design-is-preserved-when-submitting-to-Xcode." fill="#000000" font-family="Helvetica" font-size="13" font-weight="normal">
                    <tspan x="1289" y="1989">design is preserved when submitting to Xcode.</tspan>
                </text>
                <text id="Template-v.1.0" fill="#000000" font-family="Helvetica" font-size="13" font-weight="normal">
                    <tspan x="2952" y="1933">Template v.1.0</tspan>
                </text>
                <text id="Generated-from-circle" fill="#000000" font-family="Helvetica" font-size="13" font-weight="normal">
                    <tspan x="2911" y="1951">Generated from circle</tspan>
                </text>
                <text id="Typeset-at-100-points" fill="#000000" font-family="Helvetica" font-size="13" font-weight="normal">
                    <tspan x="2912" y="1969">Typeset at 100 points</tspan>
                </text>
                <text id="Small" fill="#000000" font-family="Helvetica" font-size="13" font-weight="normal">
                    <tspan x="263" y="726">Small</tspan>
                </text>
                <text id="Medium" fill="#000000" font-family="Helvetica" font-size="13" font-weight="normal">
                    <tspan x="263" y="1156">Medium</tspan>
                </text>
                <text id="Large" fill="#000000" font-family="Helvetica" font-size="13" font-weight="normal">
                    <tspan x="263" y="1586">Large</tspan>
                </text>
            </g>
            <g id="Guides" transform="translate(263.000000, 625.000000)">
                <g id="H-reference" transform="translate(76.000000, 0.000000)" fill="#27AAE1" fill-rule="nonzero">
                    <path d="M54.9316,71 L57.666,71 L30.5664,0.541 L28.0762,0.541 L0.976562,71 L3.66211,71 L12.9395,46.5371 L45.7031,46.5371 L54.9316,71 Z M29.1992,3.9102 L29.4434,3.9102 L44.8242,44.291 L13.8184,44.291 L29.1992,3.9102 Z" id="Shape"></path>
                </g>
                <line x1="0" y1="71" x2="2773" y2="71" id="Baseline-S" stroke="#27AAE1" stroke-width="0.577"></line>
                <line x1="0" y1="0.541" x2="2773" y2="0.541" id="Capline-S" stroke="#27AAE1" stroke-width="0.577"></line>
                <g id="H-reference" transform="translate(76.000000, 430.000000)" fill="#27AAE1" fill-rule="nonzero">
                    <path d="M54.9316,71 L57.666,71 L30.5664,0.541 L28.0762,0.541 L0.976562,71 L3.66211,71 L12.9395,46.5371 L45.7031,46.5371 L54.9316,71 Z M29.1992,3.9102 L29.4434,3.9102 L44.8242,44.291 L13.8184,44.291 L29.1992,3.9102 Z" id="Shape"></path>
                </g>
                <line x1="0" y1="501" x2="2773" y2="501" id="Baseline-M" stroke="#27AAE1" stroke-width="0.577"></line>
                <line x1="0" y1="430.54" x2="2773" y2="430.54" id="Capline-M" stroke="#27AAE1" stroke-width="0.577"></line>
                <g id="H-reference" transform="translate(76.000000, 860.000000)" fill="#27AAE1" fill-rule="nonzero">
                    <path d="M54.9316,71 L57.666,71 L30.5664,0.541 L28.0762,0.541 L0.976562,71 L3.66211,71 L12.9395,46.5371 L45.7031,46.5371 L54.9316,71 Z M29.1992,3.9102 L29.4434,3.9102 L44.8242,44.291 L13.8184,44.291 L29.1992,3.9102 Z" id="Shape"></path>
                </g>
                <line x1="0" y1="931" x2="2773" y2="931" id="Baseline-L" stroke="#27AAE1" stroke-width="0.577"></line>
                <line x1="0" y1="860.54" x2="2773" y2="860.54" id="Capline-L" stroke="#27AAE1" stroke-width="0.577"></line>
                <rect id="left-margin" fill="#00AEEF" fill-rule="nonzero" opacity="0.4" x="1128.3" y="405.79" width="8.74023" height="119.336"></rect>
                <rect id="right-margin" fill="#00AEEF" fill-rule="nonzero" opacity="0.4" x="1236.65" y="405.79" width="8.74023" height="119.336"></rect>
            </g>
            <g id="Symbols" transform="translate(1399.000000, 1040.000000)" fill="#000000" fill-rule="nonzero">
                <g id="Regular-M" transform="translate(0.300000, 0.000000)">
                    <path d="M50.5449,100.5508 C77.791,100.5508 100.35,77.99219 100.35,50.7461 C100.35,23.5488 77.7422,0.9414 50.4961,0.9414 C23.2988,0.9414 0.74023,23.5488 0.74023,50.7461 C0.74023,77.99219 23.3477,100.5508 50.5449,100.5508 Z M50.1551,92.0078 C27.1082,92.0078 8.7,73.5508 8.7,50.5039 C8.7,27.5058 27.0594,9 50.1063,9 C73.1532,9 91.6102,27.5058 91.6593938,50.5039 C91.7082,73.5508 73.202,92.0078 50.1551,92.0078 Z" id="Shape"></path>
                    <path d="M58.2752676,70.3281761 C58.0925187,71.43388 58.1605183,72.5138698 58.6577654,73.4910035 C58.9000139,73.958142 59.0912628,74.510994 59.2655117,75.0595602 C59.5120103,75.8309816 59.8052585,76.0324083 60.3025055,75.9466948 C61.0207512,75.8266959 61.7432469,75.5309844 62.4699926,75.8309816 C63.0989888,76.0966934 63.7279851,76.3881192 64.3569813,76.666688 C64.4589807,76.7095448 64.5864799,76.6838307 64.6672294,76.7781155 C64.7564789,76.8895431 64.8117286,77.0952554 64.8797282,77.2623967 C64.7819788,77.3223961 64.6842293,77.3995383 64.58223,77.4338237 C64.5184803,77.4638234 64.4462308,77.4338237 64.3782312,77.4338237 C64.4164809,77.5281085 64.4589807,77.6223933 64.4844805,77.7252495 C64.5142304,77.8323914 64.5567301,78.0038183 64.5312303,78.0552464 C64.4875662,78.1400719 64.4103835,78.2023367 64.3187315,78.2266734 C64.2762318,78.2395304 64.2124822,78.179531 64.1657324,78.1238172 C63.5027364,77.2881108 62.7462409,77.1981116 61.9642456,77.2366827 C61.3267494,77.2709681 60.6892532,77.2023973 60.051757,77.2366827 C59.3547612,77.2795394 58.6535154,77.3781099 57.9565195,77.4509664 C57.7737706,77.4723947 57.5867718,77.4681091 57.4040228,77.4938231 C57.1130203,77.5293741 56.8237347,77.5779933 56.537028,77.639536 C56.2619587,77.6996094 55.9919703,77.7812863 55.7295329,77.8838195 C55.372535,78.0252467 55.028287,78.2223877 54.6755392,78.3552436 C54.6032896,78.3852433 54.4927902,78.2823871 54.4332906,78.1838166 C54.4077908,78.1409599 54.4587904,77.9395332 54.4885403,77.8195343 C54.6585393,77.1938259 55.0155371,77.0566844 55.3427852,76.8852574 C55.7380328,76.6752594 56.1502803,76.5509748 56.549778,76.3795479 C56.6857771,76.3238341 56.7240269,76.1824068 56.6985271,75.9209807 C56.6050276,75.0767029 56.21403,74.5752791 55.9717814,73.9067139 C55.6190335,72.9510086 55.1600363,72.0638741 55.2322858,70.7910289 C55.2322858,70.7053154 55.1387864,70.5253171 55.0792867,70.51246 C54.4120407,70.3710328 53.7405447,70.2724623 53.0732987,70.1138923 C52.7970504,70.0453216 52.533552,69.8524662 52.2658036,69.7281817 C51.7643065,69.4924696 51.2670595,69.2439005 50.7613125,69.0510452 C50.1195664,68.8110474 49.4735702,68.5367643 48.8190741,68.4296224 C48.0963805,68.3173358 47.3628073,68.294309 46.6345872,68.3610517 C45.7287607,68.4496456 44.828995,68.5927565 43.9401033,68.7896191 C43.6086053,68.8581898 43.2941072,69.1024733 42.9668591,69.2353292 C42.4696121,69.4410415 41.9723651,69.6210398 41.4708681,69.8138952 C41.3214178,69.8713123 41.1765028,69.9400804 41.0373706,70.0196075 C40.6888727,70.2210342 40.3446248,70.4481749 39.9961269,70.6410303 C39.7496283,70.7738862 39.4903799,70.8467426 39.2438814,70.9838842 C38.6063852,71.3267381 37.968889,71.6524493 37.3441427,72.0681597 C36.6811467,72.5095842 36.0394005,73.0410077 35.3891544,73.5381459 C34.8919074,73.9238566 34.3946603,74.3095673 33.9059133,74.720992 C33.5234155,75.0467032 33.1494178,75.4109855 32.7669201,75.7495538 C32.6479208,75.8524099 32.5204215,75.9209807 32.3971723,76.0066942 C32.108174,76.2081209 31.8191757,76.4052619 31.5301775,76.6195456 C31.279429,76.8038296 31.0371804,77.0095419 30.7906819,77.2109686 C30.5569333,77.403824 30.3274346,77.6181077 30.093686,77.7938203 C29.7451881,78.0509607 29.3881903,78.2652444 29.0481923,78.5395276 C28.8229436,78.7238116 28.6274448,79.0195231 28.4064461,79.2080927 C27.7179502,79.7909444 27.1017039,80.6095082 26.3452084,80.9395051 C25.9244609,81.1195034 25.3634643,80.8923627 25.0914659,80.3309394 C25.0842606,80.3152814 25.0771771,80.2995668 25.0702161,80.2837969 C24.9384668,80.0095138 24.6877183,79.7095166 24.7,79.4695189 C24.742968,78.8438104 24.904467,78.2352447 25.2359651,77.8752481 C25.8352115,77.2238256 26.4472078,76.6024029 27.0507042,75.9552661 C27.5012015,75.4709849 27.9431989,74.9609897 28.3936962,74.4681372 C29.3499405,73.4138614 30.3061848,72.3467285 31.270929,71.3181668 C31.6959265,70.8638853 32.1634237,70.5167457 32.5884211,70.079607 C33.3449166,69.3124713 34.0929121,68.5453356 34.8239078,67.7224862 C35.3594046,67.1139205 35.8566516,66.4196413 36.3751485,65.7639332 C36.634397,65.4296506 36.8893954,65.082511 37.1571438,64.7696568 C37.7266404,64.1010916 38.3088869,63.4753832 38.8698836,62.7896753 C39.5796294,61.9111122 40.2723752,60.9896922 40.973621,60.098272 C41.15212,59.8668456 41.3476188,59.6739903 41.5346177,59.4597066 C42.1253641,58.7739987 42.7373605,58.1482903 43.2941072,57.3940117 C44.0846024,56.3097361 44.824098,55.1226044 45.6060933,54.0040435 C46.2563395,53.0611952 46.9235855,52.1440609 47.5950815,51.2440694 C48.4493264,50.0997944 49.3120712,48.9726621 50.179066,47.8583869 C50.8803118,46.9583953 51.5858076,46.0712608 52.3040533,45.2184116 C52.7843005,44.6527027 53.2900474,44.1555645 53.7915444,43.6412836 C54.3015414,43.10986 54.8157883,42.5698651 55.3427852,42.0812982 C56.0482809,41.4213044 56.7622767,40.7870246 57.4847724,40.1784589 C58.0245191,39.7284631 58.6025157,39.4070376 59.1210126,38.8970424 C59.7330089,38.2927623 60.3110055,37.5641977 60.884752,36.8484902 C61.5343657,36.0557319 62.1552696,35.2394894 62.7462409,34.4013703 C63.0904889,33.9042321 63.3837371,33.287095 63.6769854,32.6785293 C64.1104828,31.7785377 64.242232,30.6556911 64.4419808,29.5628442 C64.6417296,28.4657117 64.9434778,27.4200072 65.2069762,26.35716 C65.3812252,25.6371668 65.5554741,24.9086022 65.7594729,24.2100373 C66.1632205,22.8129076 66.8814662,22.0629146 67.6889614,21.5657764 C68.0746267,21.3175596 68.4982142,21.1351177 68.9427039,21.0257815 C69.2827019,20.952925 69.6354498,21.0514955 69.9796977,21.1114949 C70.3196957,21.1714944 70.6596936,21.2743506 70.9954416,21.3686354 C71.6711876,21.557205 72.2534341,21.9857725 72.5679322,23.1643328 C72.8611805,24.2571797 73.1629287,25.3414553 73.4901767,26.4043024 C73.7239253,27.1757238 74.0256735,27.8057179 74.5696703,28.0328586 C75.2241664,28.302856 75.5471644,29.1899906 75.6916636,30.2742661 C75.7129134,30.419979 75.6916636,30.7071192 75.6491638,30.7285476 C75.5556644,30.7842613 75.4324151,30.7542616 75.3304157,30.6942622 C74.9989177,30.4928355 74.6716697,30.2571234 74.3401716,30.0514111 C73.9279241,29.7856993 73.5326765,30.0085543 73.1629287,30.2871231 C72.5754087,30.7131779 72.0771262,31.2520567 71.6966874,31.8728226 C71.3566895,32.4299602 71.3056898,33.1842388 71.3226897,33.9556602 C71.3354396,34.6842247 71.3354396,35.4127893 71.3566895,36.1413539 C71.3694394,36.587064 71.4246891,37.0284885 71.441689,37.4699129 C71.4629388,38.0056222 71.4799387,38.5413314 71.4841887,39.0770407 C71.5096886,42.1455833 71.5479383,45.214126 71.5436884,48.2826686 C71.5436884,49.3455158 71.433189,50.4040773 71.3651894,51.4626388 C71.2589401,53.0054814 71.1229409,54.5397527 71.0464413,56.0825954 C70.9699418,57.6511521 70.6724436,59.0397105 70.1156969,60.2739847 C69.6864495,61.22969 69.265702,62.2111093 68.8194546,63.149672 C68.3944572,64.0496635 67.8504604,64.7182287 67.2894638,65.3267944 C66.8219666,65.8239326 66.3247195,66.2439287 65.9039721,66.8267803 C65.3982251,67.5210595 64.8032286,67.8253424 64.233732,68.2496241 C63.8512343,68.5281929 63.4517367,68.7296196 63.0564891,68.935332 C62.5835335,69.1821146 62.1015281,69.410846 61.6114977,69.6210398 C61.2261704,69.7906381 60.8282963,69.9296309 60.4215048,70.0367502 C59.9091969,70.1570422 59.3915397,70.2528624 58.8702641,70.3238904 C58.7555148,70.3410331 58.6365155,70.2381769 58.5175162,70.2253199 C58.4580165,70.2167485 58.3942669,70.2681766 58.2710177,70.3281761 L58.2752676,70.3281761 Z" id="Path"></path>
                </g>
            </g>
        </g>
    </g>
</svg>