<?xml version="1.0" encoding="UTF-8"?>
<!--Generator: Apple Native CoreSVG 341-->
<!DOCTYPE svg
PUBLIC "-//W3C//DTD SVG 1.1//EN"
       "http://www.w3.org/Graphics/SVG/1.1/DTD/svg11.dtd">
<svg version="1.1" xmlns="http://www.w3.org/2000/svg" xmlns:xlink="http://www.w3.org/1999/xlink" viewBox="0 0 3300 2200">
 <!--glyph: "", point size: 100.0, font version: "20.0d10e1", template writer version: "138.0.0"-->
 <style>.monochrome-0 {-sfsymbols-motion-group:1;-sfsymbols-layer-tags:-1af5c18c831f29b8}
.monochrome-1 {-sfsymbols-motion-group:0;-sfsymbols-layer-tags:-1af5c18c831f29b8}

.multicolor-0:tintColor {-sfsymbols-motion-group:1;-sfsymbols-layer-tags:-1af5c18c831f29b8}
.multicolor-1:tintColor {-sfsymbols-motion-group:0;-sfsymbols-layer-tags:-1af5c18c831f29b8}

.hierarchical-0:primary {-sfsymbols-motion-group:1;-sfsymbols-layer-tags:-1af5c18c831f29b8}
.hierarchical-1:tertiary {-sfsymbols-motion-group:0;-sfsymbols-layer-tags:-1af5c18c831f29b8}

.SFSymbolsPreviewWireframe {fill:none;opacity:1.0;stroke:black;stroke-width:0.5}
</style>
 <g id="Notes">
  <rect height="2200" id="artboard" style="fill:white;opacity:1" width="3300" x="0" y="0"/>
  <line style="fill:none;stroke:black;opacity:1;stroke-width:0.5;" x1="263" x2="3036" y1="292" y2="292"/>
  <text style="stroke:none;fill:black;font-family:sans-serif;font-size:13;font-weight:bold;" transform="matrix(1 0 0 1 263 322)">Weight/Scale Variations</text>
  <text style="stroke:none;fill:black;font-family:sans-serif;font-size:13;text-anchor:middle;" transform="matrix(1 0 0 1 559.711 322)">Ultralight</text>
  <text style="stroke:none;fill:black;font-family:sans-serif;font-size:13;text-anchor:middle;" transform="matrix(1 0 0 1 856.422 322)">Thin</text>
  <text style="stroke:none;fill:black;font-family:sans-serif;font-size:13;text-anchor:middle;" transform="matrix(1 0 0 1 1153.13 322)">Light</text>
  <text style="stroke:none;fill:black;font-family:sans-serif;font-size:13;text-anchor:middle;" transform="matrix(1 0 0 1 1449.84 322)">Regular</text>
  <text style="stroke:none;fill:black;font-family:sans-serif;font-size:13;text-anchor:middle;" transform="matrix(1 0 0 1 1746.56 322)">Medium</text>
  <text style="stroke:none;fill:black;font-family:sans-serif;font-size:13;text-anchor:middle;" transform="matrix(1 0 0 1 2043.27 322)">Semibold</text>
  <text style="stroke:none;fill:black;font-family:sans-serif;font-size:13;text-anchor:middle;" transform="matrix(1 0 0 1 2339.98 322)">Bold</text>
  <text style="stroke:none;fill:black;font-family:sans-serif;font-size:13;text-anchor:middle;" transform="matrix(1 0 0 1 2636.69 322)">Heavy</text>
  <text style="stroke:none;fill:black;font-family:sans-serif;font-size:13;text-anchor:middle;" transform="matrix(1 0 0 1 2933.4 322)">Black</text>
  <line style="fill:none;stroke:black;opacity:1;stroke-width:0.5;" x1="263" x2="3036" y1="1903" y2="1903"/>
  <g transform="matrix(0.2 0 0 0.2 263 1933)">
   <path d="m46.2402 4.15039c21.7773 0 39.4531-17.627 39.4531-39.4043s-17.6758-39.4043-39.4531-39.4043c-21.7285 0-39.4043 17.627-39.4043 39.4043s17.6758 39.4043 39.4043 39.4043Zm0-7.42188c-17.6758 0-31.9336-14.3066-31.9336-31.9824s14.2578-31.9824 31.9336-31.9824 31.9824 14.3066 31.9824 31.9824-14.3066 31.9824-31.9824 31.9824Zm-17.9688-31.9824c0 2.14844 1.51367 3.61328 3.75977 3.61328h10.498v10.5957c0 2.19727 1.46484 3.71094 3.61328 3.71094 2.24609 0 3.71094-1.51367 3.71094-3.71094v-10.5957h10.5957c2.19727 0 3.71094-1.46484 3.71094-3.61328 0-2.19727-1.51367-3.71094-3.71094-3.71094h-10.5957v-10.5469c0-2.24609-1.46484-3.75977-3.71094-3.75977-2.14844 0-3.61328 1.51367-3.61328 3.75977v10.5469h-10.498c-2.24609 0-3.75977 1.51367-3.75977 3.71094Z"/>
  </g>
  <g transform="matrix(0.2 0 0 0.2 281.506 1933)">
   <path d="m58.5449 14.5508c27.4902 0 49.8047-22.3145 49.8047-49.8047s-22.3145-49.8047-49.8047-49.8047-49.8047 22.3145-49.8047 49.8047 22.3145 49.8047 49.8047 49.8047Zm0-8.30078c-22.9492 0-41.5039-18.5547-41.5039-41.5039s18.5547-41.5039 41.5039-41.5039 41.5039 18.5547 41.5039 41.5039-18.5547 41.5039-41.5039 41.5039Zm-22.6562-41.5039c0 2.39258 1.66016 4.00391 4.15039 4.00391h14.3555v14.4043c0 2.44141 1.66016 4.15039 4.05273 4.15039 2.44141 0 4.15039-1.66016 4.15039-4.15039v-14.4043h14.4043c2.44141 0 4.15039-1.61133 4.15039-4.00391 0-2.44141-1.70898-4.15039-4.15039-4.15039h-14.4043v-14.3555c0-2.49023-1.70898-4.19922-4.15039-4.19922-2.39258 0-4.05273 1.70898-4.05273 4.19922v14.3555h-14.3555c-2.49023 0-4.15039 1.70898-4.15039 4.15039Z"/>
  </g>
  <g transform="matrix(0.2 0 0 0.2 304.924 1933)">
   <path d="m74.8535 28.3203c35.1074 0 63.623-28.4668 63.623-63.5742s-28.5156-63.623-63.623-63.623-63.5742 28.5156-63.5742 63.623 28.4668 63.5742 63.5742 63.5742Zm0-9.08203c-30.127 0-54.4922-24.3652-54.4922-54.4922s24.3652-54.4922 54.4922-54.4922 54.4922 24.3652 54.4922 54.4922-24.3652 54.4922-54.4922 54.4922Zm-28.8574-54.4922c0 2.58789 1.85547 4.39453 4.58984 4.39453h19.7266v19.7754c0 2.68555 1.85547 4.58984 4.44336 4.58984 2.68555 0 4.54102-1.85547 4.54102-4.58984v-19.7754h19.7754c2.68555 0 4.58984-1.80664 4.58984-4.39453 0-2.73438-1.85547-4.58984-4.58984-4.58984h-19.7754v-19.7266c0-2.73438-1.85547-4.63867-4.54102-4.63867-2.58789 0-4.44336 1.9043-4.44336 4.63867v19.7266h-19.7266c-2.73438 0-4.58984 1.85547-4.58984 4.58984Z"/>
  </g>
  <text style="stroke:none;fill:black;font-family:sans-serif;font-size:13;font-weight:bold;" transform="matrix(1 0 0 1 263 1953)">Design Variations</text>
  <text style="stroke:none;fill:black;font-family:sans-serif;font-size:13;" transform="matrix(1 0 0 1 263 1971)">Symbols are supported in up to nine weights and three scales.</text>
  <text style="stroke:none;fill:black;font-family:sans-serif;font-size:13;" transform="matrix(1 0 0 1 263 1989)">For optimal layout with text and other symbols, vertically align</text>
  <text style="stroke:none;fill:black;font-family:sans-serif;font-size:13;" transform="matrix(1 0 0 1 263 2007)">symbols with the adjacent text.</text>
  <line style="fill:none;stroke:#00AEEF;stroke-width:0.5;opacity:1.0;" x1="776" x2="776" y1="1919" y2="1933"/>
  <g transform="matrix(0.2 0 0 0.2 776 1933)">
   <path d="m16.5527 0.78125c2.58789 0 3.85742-0.976562 4.78516-3.71094l6.29883-17.2363h28.8086l6.29883 17.2363c0.927734 2.73438 2.19727 3.71094 4.73633 3.71094 2.58789 0 4.24805-1.5625 4.24805-4.00391 0-0.830078-0.146484-1.61133-0.537109-2.63672l-22.9004-60.9863c-1.12305-2.97852-3.125-4.49219-6.25-4.49219-3.02734 0-5.07812 1.46484-6.15234 4.44336l-22.9004 61.084c-0.390625 1.02539-0.537109 1.80664-0.537109 2.63672 0 2.44141 1.5625 3.95508 4.10156 3.95508Zm13.4766-28.3691 11.8652-32.8613h0.244141l11.8652 32.8613Z"/>
  </g>
  <line style="fill:none;stroke:#00AEEF;stroke-width:0.5;opacity:1.0;" x1="792.836" x2="792.836" y1="1919" y2="1933"/>
  <text style="stroke:none;fill:black;font-family:sans-serif;font-size:13;font-weight:bold;" transform="matrix(1 0 0 1 776 1953)">Margins</text>
  <text style="stroke:none;fill:black;font-family:sans-serif;font-size:13;" transform="matrix(1 0 0 1 776 1971)">Leading and trailing margins on the left and right side of each symbol</text>
  <text style="stroke:none;fill:black;font-family:sans-serif;font-size:13;" transform="matrix(1 0 0 1 776 1989)">can be adjusted by modifying the x-location of the margin guidelines.</text>
  <text style="stroke:none;fill:black;font-family:sans-serif;font-size:13;" transform="matrix(1 0 0 1 776 2007)">Modifications are automatically applied proportionally to all</text>
  <text style="stroke:none;fill:black;font-family:sans-serif;font-size:13;" transform="matrix(1 0 0 1 776 2025)">scales and weights.</text>
  <g transform="matrix(0.2 0 0 0.2 1289 1933)">
   <path d="m14.209 9.32617 8.49609 8.54492c4.29688 4.3457 9.22852 4.05273 13.8672-1.07422l53.4668-58.9355-4.83398-4.88281-53.0762 58.3984c-1.75781 2.00195-3.41797 2.49023-5.76172 0.146484l-5.85938-5.81055c-2.34375-2.29492-1.80664-4.00391 0.195312-5.81055l57.373-54.0039-4.88281-4.83398-57.959 54.4434c-4.93164 4.58984-5.32227 9.47266-1.02539 13.8184Zm32.0801-90.9668c-2.09961 2.05078-2.24609 4.93164-1.07422 6.88477 1.17188 1.80664 3.4668 2.97852 6.68945 2.14844 7.32422-1.70898 14.9414-2.00195 22.0703 2.68555l-2.92969 7.27539c-1.70898 4.15039-0.830078 7.08008 1.85547 9.81445l11.4746 11.5723c2.44141 2.44141 4.49219 2.53906 7.32422 2.05078l5.32227-0.976562 3.32031 3.36914-0.195312 2.7832c-0.195312 2.49023 0.439453 4.39453 2.88086 6.78711l3.80859 3.71094c2.39258 2.39258 5.46875 2.53906 7.8125 0.195312l14.5508-14.5996c2.34375-2.34375 2.24609-5.32227-0.146484-7.71484l-3.85742-3.80859c-2.39258-2.39258-4.24805-3.17383-6.64062-2.97852l-2.88086 0.244141-3.22266-3.17383 1.2207-5.61523c0.634766-2.83203-0.146484-5.0293-3.07617-7.95898l-10.9863-10.9375c-16.6992-16.6016-38.8672-16.2109-53.3203-1.75781Zm7.4707 1.85547c12.1582-8.88672 28.6133-7.37305 39.7461 3.75977l12.1582 12.0605c1.17188 1.17188 1.36719 2.09961 1.02539 3.80859l-1.61133 7.42188 7.51953 7.42188 4.93164-0.292969c1.26953-0.0488281 1.66016 0.0488281 2.63672 1.02539l2.88086 2.88086-12.207 12.207-2.88086-2.88086c-0.976562-0.976562-1.12305-1.36719-1.07422-2.68555l0.341797-4.88281-7.4707-7.42188-7.61719 1.26953c-1.61133 0.341797-2.34375 0.195312-3.56445-0.976562l-10.0098-10.0098c-1.26953-1.17188-1.41602-2.00195-0.634766-3.85742l4.39453-10.4492c-7.8125-7.27539-17.9688-10.4004-28.125-7.42188-0.78125 0.195312-1.07422-0.439453-0.439453-0.976562Z"/>
  </g>
  <text style="stroke:none;fill:black;font-family:sans-serif;font-size:13;font-weight:bold;" transform="matrix(1 0 0 1 1289 1953)">Exporting</text>
  <text style="stroke:none;fill:black;font-family:sans-serif;font-size:13;" transform="matrix(1 0 0 1 1289 1971)">Symbols should be outlined when exporting to ensure the</text>
  <text style="stroke:none;fill:black;font-family:sans-serif;font-size:13;" transform="matrix(1 0 0 1 1289 1989)">design is preserved when submitting to Xcode.</text>
  <text id="template-version" style="stroke:none;fill:black;font-family:sans-serif;font-size:13;text-anchor:end;" transform="matrix(1 0 0 1 3036 1933)">Template v.6.0</text>
  <text style="stroke:none;fill:black;font-family:sans-serif;font-size:13;text-anchor:end;" transform="matrix(1 0 0 1 3036 1951)">Requires Xcode 16 or greater</text>
  <text id="descriptive-name" style="stroke:none;fill:black;font-family:sans-serif;font-size:13;text-anchor:end;" transform="matrix(1 0 0 1 3036 1969)">Generated from filtervogelgruppe-60</text>
  <text style="stroke:none;fill:black;font-family:sans-serif;font-size:13;text-anchor:end;" transform="matrix(1 0 0 1 3036 1987)">Typeset at 100.0 points</text>
  <text style="stroke:none;fill:black;font-family:sans-serif;font-size:13;" transform="matrix(1 0 0 1 263 726)">Small</text>
  <text style="stroke:none;fill:black;font-family:sans-serif;font-size:13;" transform="matrix(1 0 0 1 263 1156)">Medium</text>
  <text style="stroke:none;fill:black;font-family:sans-serif;font-size:13;" transform="matrix(1 0 0 1 263 1586)">Large</text>
 </g>
 <g id="Guides">
  <g id="H-reference" style="fill:#27AAE1;stroke:none;" transform="matrix(1 0 0 1 339 696)">
   <path d="M0.993654 0L3.63775 0L29.3281-67.1323L30.0303-67.1323L30.0303-70.459L28.1226-70.459ZM11.6885-24.4799L46.9815-24.4799L46.2315-26.7285L12.4385-26.7285ZM55.1196 0L57.7637 0L30.6382-70.459L29.4326-70.459L29.4326-67.1323Z"/>
  </g>
  <line id="Baseline-S" style="fill:none;stroke:#27AAE1;opacity:1;stroke-width:0.5;" x1="263" x2="3036" y1="696" y2="696"/>
  <line id="Capline-S" style="fill:none;stroke:#27AAE1;opacity:1;stroke-width:0.5;" x1="263" x2="3036" y1="625.541" y2="625.541"/>
  <g id="H-reference" style="fill:#27AAE1;stroke:none;" transform="matrix(1 0 0 1 339 1126)">
   <path d="M0.993654 0L3.63775 0L29.3281-67.1323L30.0303-67.1323L30.0303-70.459L28.1226-70.459ZM11.6885-24.4799L46.9815-24.4799L46.2315-26.7285L12.4385-26.7285ZM55.1196 0L57.7637 0L30.6382-70.459L29.4326-70.459L29.4326-67.1323Z"/>
  </g>
  <line id="Baseline-M" style="fill:none;stroke:#27AAE1;opacity:1;stroke-width:0.5;" x1="263" x2="3036" y1="1126" y2="1126"/>
  <line id="Capline-M" style="fill:none;stroke:#27AAE1;opacity:1;stroke-width:0.5;" x1="263" x2="3036" y1="1055.54" y2="1055.54"/>
  <g id="H-reference" style="fill:#27AAE1;stroke:none;" transform="matrix(1 0 0 1 339 1556)">
   <path d="M0.993654 0L3.63775 0L29.3281-67.1323L30.0303-67.1323L30.0303-70.459L28.1226-70.459ZM11.6885-24.4799L46.9815-24.4799L46.2315-26.7285L12.4385-26.7285ZM55.1196 0L57.7637 0L30.6382-70.459L29.4326-70.459L29.4326-67.1323Z"/>
  </g>
  <line id="Baseline-L" style="fill:none;stroke:#27AAE1;opacity:1;stroke-width:0.5;" x1="263" x2="3036" y1="1556" y2="1556"/>
  <line id="Capline-L" style="fill:none;stroke:#27AAE1;opacity:1;stroke-width:0.5;" x1="263" x2="3036" y1="1485.54" y2="1485.54"/>
  <line id="right-margin-Black-S" style="fill:none;stroke:#00AEEF;stroke-width:0.5;opacity:1.0;" x1="2982.23" x2="2982.23" y1="600.785" y2="720.121"/>
  <line id="left-margin-Black-S" style="fill:none;stroke:#00AEEF;stroke-width:0.5;opacity:1.0;" x1="2884.57" x2="2884.57" y1="600.785" y2="720.121"/>
  <line id="right-margin-Regular-S" style="fill:none;stroke:#00AEEF;stroke-width:0.5;opacity:1.0;" x1="1496.11" x2="1496.11" y1="600.785" y2="720.121"/>
  <line id="left-margin-Regular-S" style="fill:none;stroke:#00AEEF;stroke-width:0.5;opacity:1.0;" x1="1403.58" x2="1403.58" y1="600.785" y2="720.121"/>
  <line id="right-margin-Ultralight-S" style="fill:none;stroke:#00AEEF;stroke-width:0.5;opacity:1.0;" x1="603.773" x2="603.773" y1="600.785" y2="720.121"/>
  <line id="left-margin-Ultralight-S" style="fill:none;stroke:#00AEEF;stroke-width:0.5;opacity:1.0;" x1="515.649" x2="515.649" y1="600.785" y2="720.121"/>
 </g>
 <g id="Symbols">
  <g id="Black-S" transform="matrix(1 0 0 1 2884.57 696)">
   <path class="monochrome-0 multicolor-0:tintColor hierarchical-0:primary SFSymbolsPreviewWireframe" d="M23.342-53.9999L29.3969-53.8966C29.3969-53.8966 30.5894-53.4424 31.7597-52.4715C32.9301-51.5042 33.2956-50.5885 33.4617-48.6059C33.6279-46.6234 33.2107-42.6582 32.7972-39.7563C32.3874-36.8544 31.708-34.0632 31.6637-32.1249C31.6194-30.1903 31.745-29.2821 32.8009-27.6503C33.8531-26.0147 36.0867-23.9657 38.0029-22.3597C39.9226-20.7536 41.8942-19.982 42.7322-19.3064C43.5703-18.6344 43.958-18.2652 44.5302-17.7816C45.0988-17.2979 45.6637-17.069 45.6637-17.069C45.6637-17.069 45.8224-16.626 45.8556-16.0538C45.8852-15.4741 45.5714-14.4256 45.5714-14.4256C45.5714-14.4256 44.6114-15.0237 44.2459-15.2378C43.8767-15.452 43.6109-15.5959 43.6774-15.4409C43.7438-15.2895 43.6589-15.3006 43.6774-15.2378C43.6958-15.1751 43.179-14.6582 42.3556-14.3222C41.5286-13.9862 40.0851-13.8127 40.0851-13.8127C40.0851-13.8127 39.2471-13.8312 39.1363-13.713L38.8557-13.4066C38.8557-13.4066 39.1621-13.4288 39.2323-13.3069C39.3024-13.1851 39.1511-12.9709 39.1363-12.9008C39.1252-12.827 38.6748-12.4947 38.3794-12.1882C38.0841-11.8744 38.121-11.9852 37.8146-11.7821C37.5081-11.5754 37.3494-11.5569 37.342-11.4757C37.3309-11.3908 37.7297-11.3539 37.9069-11.4757C38.0878-11.5938 39.2544-11.6123 40.65-11.5754C42.0455-11.5385 43.7586-11.664 44.15-11.7784C44.545-11.8929 44.8256-11.9113 45.0988-11.7784C45.3683-11.6492 45.8556-11.5569 46.2322-11.8818C46.6125-12.2067 46.6642-12.395 47.0814-12.491C47.5023-12.5907 48.0708-12.8233 48.2185-12.8971C48.3699-12.9709 48.4105-13.0005 48.4105-13.0005C48.4105-13.0005 48.1816-13.0596 47.9342-13.2035C47.6906-13.3512 47.5577-13.4066 47.5577-13.4066C47.5577-13.4066 47.9195-13.6318 48.4068-13.51C48.8978-13.3844 50.1125-13.51 50.1125-13.51C50.1125-13.51 50.6774-13.1297 51.0576-13.1039C51.4379-13.0743 52.2206-13.4251 53.0439-13.9161C53.8709-14.4071 55.5619-15.5295 55.6948-15.6439C55.824-15.7621 55.9532-15.9984 57.2085-15.7473C58.4601-15.4963 59.3055-15.4003 59.8556-15.1381C60.4057-14.876 63.8688-13.4767 65.1536-13.1039C66.4384-12.731 66.3055-13.1962 66.7633-13.1039C67.2174-13.0079 68.0851-12.79 68.3693-12.7974C68.6536-12.8048 69.0339-12.8971 69.0339-12.8971C69.0339-12.8971 70.0787-12.694 70.7322-12.491C71.3894-12.2879 72.0613-12.2879 72.0613-12.2879C72.0613-12.2879 73.2538-11.8264 73.7596-11.7784C74.2728-11.7341 75.0149-11.8154 74.9932-11.8818C74.9669-11.9483 71.9506-13.7647 68.0888-15.5443C64.2196-17.3164 63.0677-17.8517 62.9791-17.885C62.8904-17.9145 62.4733-18.376 61.9379-18.6972C61.4026-19.0184 60.2285-19.9451 60.4242-19.9156C60.6199-19.8934 71.035-19.5944 72.4379-19.5094C73.8409-19.4282 74.1399-19.5094 74.1399-19.5094C74.1399-19.5094 74.0218-19.9599 72.6262-20.4251C71.2343-20.8939 70.7248-20.8607 70.1673-21.444C69.6135-22.0274 68.1183-23.0242 65.8145-24.1909C63.5107-25.3575 62.2296-26.1919 61.6536-26.6313C61.0777-27.0743 59.1615-28.6176 57.8694-29.991C56.5772-31.3607 54.0297-33.0922 51.2459-33.9562C48.4622-34.8201 45.8778-35.732 44.9068-35.9904C43.9395-36.2489 43.4079-36.1455 42.8282-36.3966C42.2486-36.655 41.7243-37.1202 41.0302-38.0247C40.3324-38.933 39.1289-39.867 38.6674-40.3654C38.1985-40.8639 38.1395-43.0975 38.5714-44.2309C39.0034-45.3681 39.5867-47.7826 39.6126-50.0274C39.6347-52.2795 39.0477-54.8675 38.1912-56.54C37.3346-58.2162 36.2344-59.3127 33.938-59.3939C31.6379-59.4678 30.5414-58.4008 29.9654-57.7694C29.3895-57.1307 29.2086-57.0532 29.2086-57.0532C29.2086-57.0532 27.1632-56.3628 25.8969-56.0379C24.6305-55.7093 24.1247-55.2774 23.7186-54.8159C23.3199-54.3544 23.2571-54.1698 23.342-54.0036L23.342-53.9999Z"/>
   <path class="monochrome-1 multicolor-1:tintColor hierarchical-1:tertiary SFSymbolsPreviewWireframe" d="M48.9411-84C55.3091-84.0013 61.615-82.7479 67.4985-80.3116C73.382-77.8752 78.7279-74.3036 83.2305-69.8009C87.7334-65.2983 91.305-59.9524 93.7418-54.0682C96.1779-48.1846 97.4312-41.8789 97.43-35.5124C97.43-8.72255 75.7254 13 48.9424 13C22.156 13 0.43-8.726 0.43-35.5124C0.43-62.2926 22.1539-84 48.9411-84ZM48.9424-70C29.8835-70 14.43-54.5582 14.43-35.5124C14.43-16.458 29.888-0.999999 48.9424-0.999999C67.9909-0.999999 83.43-16.4519 83.43-35.5138C83.4309-40.0428 82.5395-44.5276 80.8069-48.7121C79.0739-52.8969 76.5337-56.6989 73.3311-59.9013C70.1287-63.1038 66.3266-65.644 62.1422-67.3767C57.9578-69.1095 53.4729-70.0009 48.9424-70Z"/>
  </g>
  <g id="Regular-S" transform="matrix(1 0 0 1 1403.58 696)">
   <path class="monochrome-0 multicolor-0:tintColor hierarchical-0:primary SFSymbolsPreviewWireframe" d="M16.4581-57.7921L23.4217-57.6732C23.4217-57.6732 24.7933-57.151 26.1393-56.0342C27.4853-54.9217 27.9057-53.8687 28.0968-51.5885C28.2878-49.3083 27.808-44.748 27.3325-41.4105C26.8611-38.073 26.0798-34.8629 26.0289-32.6337C25.9779-30.4087 26.1223-29.3641 27.3367-27.4873C28.5469-25.6063 31.1158-23.2497 33.3195-21.4026C35.5275-19.5555 37.7949-18.6681 38.7588-17.891C39.7227-17.1182 40.1685-16.6936 40.8267-16.1374C41.4806-15.5811 42.1302-15.3179 42.1302-15.3179C42.1302-15.3179 42.3128-14.8083 42.351-14.1502C42.385-13.4835 42.0241-12.2776 42.0241-12.2776C42.0241-12.2776 40.9201-12.9655 40.4997-13.2118C40.0751-13.458 39.7694-13.6236 39.8458-13.4453C39.9222-13.2712 39.8246-13.284 39.8458-13.2118C39.867-13.1396 39.2726-12.5451 38.3257-12.1587C37.3745-11.7723 35.7143-11.5728 35.7143-11.5728C35.7143-11.5728 34.7505-11.594 34.6231-11.4581L34.3004-11.1057C34.3004-11.1057 34.6528-11.1312 34.7335-10.991C34.8142-10.8509 34.6401-10.6046 34.6231-10.524C34.6104-10.439 34.0923-10.0569 33.7526-9.70445C33.4129-9.34353 33.4554-9.47091 33.103-9.23737C32.7505-8.99959 32.568-8.97836 32.5595-8.88494C32.5467-8.78728 33.0053-8.74482 33.2091-8.88494C33.4172-9.02082 34.759-9.04205 36.364-8.99959C37.969-8.95713 39.9392-9.1015 40.3893-9.23313C40.8436-9.36476 41.1664-9.38599 41.4806-9.23313C41.7905-9.08451 42.351-8.97836 42.7841-9.35202C43.2215-9.72568 43.2809-9.94223 43.7608-10.0526C44.2448-10.1673 44.8987-10.4348 45.0686-10.5197C45.2427-10.6046 45.2894-10.6386 45.2894-10.6386C45.2894-10.6386 45.0261-10.7065 44.7416-10.8721C44.4614-11.042 44.3085-11.1057 44.3085-11.1057C44.3085-11.1057 44.7246-11.3647 45.2851-11.2246C45.8499-11.0802 47.2468-11.2246 47.2468-11.2246C47.2468-11.2246 47.8965-10.7872 48.3339-10.7575C48.7712-10.7235 49.6714-11.1269 50.6183-11.6916C51.5694-12.2564 53.5142-13.5472 53.667-13.6788C53.8156-13.8147 53.9643-14.0865 55.408-13.7977C56.8474-13.509 57.8198-13.3986 58.4524-13.0971C59.0851-12.7956 63.068-11.1864 64.5457-10.7575C66.0233-10.3286 65.8705-10.8636 66.397-10.7575C66.9193-10.6471 67.9171-10.3966 68.2441-10.4051C68.571-10.4136 69.0084-10.5197 69.0084-10.5197C69.0084-10.5197 70.21-10.2862 70.9616-10.0526C71.7174-9.8191 72.4902-9.8191 72.4902-9.8191C72.4902-9.8191 73.8617-9.28833 74.4435-9.23313C75.0337-9.18217 75.8872-9.27559 75.8622-9.35202C75.832-9.42845 72.3628-11.5176 67.9214-13.5642C63.4714-15.6024 62.1466-16.218 62.0447-16.2563C61.9428-16.2902 61.463-16.821 60.8473-17.1904C60.2316-17.5598 58.8813-18.6256 59.1064-18.5916C59.3314-18.5662 71.3098-18.2222 72.9233-18.1246C74.5369-18.0312 74.8808-18.1246 74.8808-18.1246C74.8808-18.1246 74.7449-18.6426 73.1399-19.1776C71.5391-19.7169 70.9531-19.6787 70.312-20.3496C69.675-21.0204 67.9553-22.1669 65.3057-23.5087C62.6561-24.8505 61.1827-25.8101 60.5203-26.3154C59.8579-26.8249 57.6542-28.5998 56.168-30.1794C54.6819-31.7547 51.752-33.7462 48.5504-34.7398C45.3488-35.7334 42.3765-36.7822 41.2598-37.0794C40.1473-37.3766 39.5358-37.2577 38.8692-37.5465C38.2025-37.8437 37.5996-38.3787 36.8013-39.419C35.9988-40.4636 34.6146-41.5379 34.0838-42.1111C33.5446-42.6843 33.4766-45.2532 33.9734-46.5568C34.4702-47.8646 35.1411-50.6416 35.1709-53.2233C35.1963-55.8134 34.5212-58.79 33.5361-60.7135C32.551-62.6412 31.2856-63.9024 28.6445-63.9958C25.9992-64.0807 24.7381-62.8536 24.0757-62.1275C23.4133-61.3929 23.2052-61.3037 23.2052-61.3037C23.2052-61.3037 20.8528-60.5097 19.3964-60.136C17.94-59.7581 17.3582-59.2613 16.8912-58.7305C16.4326-58.1998 16.3604-57.9875 16.4581-57.7964L16.4581-57.7921Z"/>
   <path class="monochrome-1 multicolor-1:tintColor hierarchical-1:tertiary SFSymbolsPreviewWireframe" d="M46.4321-81.8365C52.4502-81.8377 58.4096-80.6532 63.9698-78.3508C69.53-76.0483 74.5822-72.6729 78.8374-68.4176C83.0928-64.1624 86.4682-59.1103 88.771-53.5496C91.0733-47.9892 92.2577-42.03 92.2566-36.0127C92.2566-10.693 71.744 9.83658 46.4328 9.83658C21.1173 9.83658 0.5835-10.6972 0.5835-36.0127C0.5835-61.3211 21.1145-81.8365 46.4321-81.8365ZM46.4328-75.0865C24.8413-75.0865 7.3335-57.592 7.3335-36.0127C7.3335-14.4252 24.8452 3.08658 46.4328 3.08658C68.0148 3.08658 85.5066-14.4197 85.5066-36.0133C85.5076-41.1447 84.4976-46.226 82.5345-50.9672C80.571-55.7085 77.693-60.0162 74.0644-63.6446C70.4361-67.273 66.1283-70.1511 61.3873-72.1143C56.6463-74.0776 51.5649-75.0875 46.4328-75.0865Z"/>
  </g>
  <g id="Ultralight-S" transform="matrix(1 0 0 1 515.649 696)">
   <path class="monochrome-0 multicolor-0:tintColor hierarchical-0:primary SFSymbolsPreviewWireframe" d="M14.3891-58.7921L21.3527-58.6732C21.3527-58.6732 22.7243-58.151 24.0703-57.0342C25.4163-55.9217 25.8367-54.8687 26.0278-52.5885C26.2188-50.3083 25.739-45.748 25.2635-42.4105C24.7921-39.073 24.0108-35.8629 23.9599-33.6337C23.9089-31.4087 24.0533-30.3641 25.2677-28.4873C26.4779-26.6063 29.0468-24.2497 31.2505-22.4026C33.4585-20.5555 35.7259-19.6681 36.6898-18.891C37.6537-18.1182 38.0995-17.6936 38.7577-17.1374C39.4116-16.5811 40.0612-16.3179 40.0612-16.3179C40.0612-16.3179 40.2438-15.8083 40.282-15.1502C40.316-14.4835 39.9551-13.2776 39.9551-13.2776C39.9551-13.2776 38.8511-13.9655 38.4307-14.2118C38.0061-14.458 37.7004-14.6236 37.7768-14.4453C37.8532-14.2712 37.7556-14.284 37.7768-14.2118C37.798-14.1396 37.2036-13.5451 36.2567-13.1587C35.3055-12.7723 33.6453-12.5728 33.6453-12.5728C33.6453-12.5728 32.6815-12.594 32.5541-12.4581L32.2314-12.1057C32.2314-12.1057 32.5838-12.1312 32.6645-11.991C32.7452-11.8509 32.5711-11.6046 32.5541-11.524C32.5414-11.439 32.0233-11.0569 31.6836-10.7044C31.3439-10.3435 31.3864-10.4709 31.034-10.2374C30.6815-9.99959 30.499-9.97836 30.4905-9.88494C30.4777-9.78728 30.9363-9.74482 31.1401-9.88494C31.3482-10.0208 32.69-10.042 34.295-9.99959C35.9-9.95713 37.8702-10.1015 38.3203-10.2331C38.7746-10.3648 39.0974-10.386 39.4116-10.2331C39.7215-10.0845 40.282-9.97836 40.7151-10.352C41.1525-10.7257 41.2119-10.9422 41.6918-11.0526C42.1758-11.1673 42.8297-11.4348 42.9996-11.5197C43.1737-11.6046 43.2204-11.6386 43.2204-11.6386C43.2204-11.6386 42.9571-11.7065 42.6726-11.8721C42.3924-12.042 42.2395-12.1057 42.2395-12.1057C42.2395-12.1057 42.6556-12.3647 43.2161-12.2246C43.7809-12.0802 45.1778-12.2246 45.1778-12.2246C45.1778-12.2246 45.8275-11.7872 46.2649-11.7575C46.7022-11.7235 47.6024-12.1269 48.5493-12.6916C49.5004-13.2564 51.4452-14.5472 51.598-14.6788C51.7466-14.8147 51.8953-15.0865 53.339-14.7977C54.7784-14.509 55.7508-14.3986 56.3834-14.0971C57.0161-13.7956 60.999-12.1864 62.4767-11.7575C63.9543-11.3286 63.8015-11.8636 64.328-11.7575C64.8503-11.6471 65.8481-11.3966 66.1751-11.4051C66.502-11.4136 66.9394-11.5197 66.9394-11.5197C66.9394-11.5197 68.141-11.2862 68.8926-11.0526C69.6484-10.8191 70.4212-10.8191 70.4212-10.8191C70.4212-10.8191 71.7927-10.2883 72.3745-10.2331C72.9647-10.1822 73.8182-10.2756 73.7932-10.352C73.763-10.4284 70.2938-12.5176 65.8524-14.5642C61.4024-16.6024 60.0776-17.218 59.9757-17.2563C59.8738-17.2902 59.394-17.821 58.7783-18.1904C58.1626-18.5598 56.8123-19.6256 57.0374-19.5916C57.2624-19.5662 69.2408-19.2222 70.8543-19.1246C72.4679-19.0312 72.8118-19.1246 72.8118-19.1246C72.8118-19.1246 72.6759-19.6426 71.0709-20.1776C69.4701-20.7169 68.8841-20.6787 68.243-21.3496C67.606-22.0204 65.8863-23.1669 63.2367-24.5087C60.5871-25.8505 59.1137-26.8101 58.4513-27.3154C57.7889-27.8249 55.5852-29.5998 54.099-31.1794C52.6129-32.7547 49.683-34.7462 46.4814-35.7398C43.2798-36.7334 40.3075-37.7822 39.1908-38.0794C38.0783-38.3766 37.4668-38.2577 36.8002-38.5465C36.1335-38.8437 35.5306-39.3787 34.7323-40.419C33.9298-41.4636 32.5456-42.5379 32.0148-43.1111C31.4756-43.6843 31.4076-46.2532 31.9044-47.5568C32.4012-48.8646 33.0721-51.6416 33.1019-54.2233C33.1273-56.8134 32.4522-59.79 31.4671-61.7135C30.482-63.6412 29.2166-64.9024 26.5755-64.9958C23.9302-65.0807 22.6691-63.8536 22.0067-63.1275C21.3443-62.3929 21.1362-62.3037 21.1362-62.3037C21.1362-62.3037 18.7838-61.5097 17.3274-61.136C15.871-60.7581 15.2892-60.2613 14.8222-59.7305C14.3636-59.1998 14.2914-58.9875 14.3891-58.7964L14.3891-58.7921Z"/>
   <path class="monochrome-1 multicolor-1:tintColor hierarchical-1:tertiary SFSymbolsPreviewWireframe" d="M44.3636-80.5865C50.0861-80.5876 55.7528-79.4613 61.04-77.272C66.3271-75.0826 71.1312-71.8729 75.1774-67.8265C79.2239-63.7803 82.4335-58.9764 84.6232-53.6889C86.8124-48.4015 87.9387-42.7349 87.9376-37.0127C87.9376-12.9352 68.432 6.58658 44.3638 6.58658C20.2909 6.58658 0.7645-12.9399 0.7645-37.0127C0.7645-61.0781 20.2877-80.5865 44.3636-80.5865ZM44.3638-78.3365C21.53-78.3365 3.0145-59.8351 3.0145-37.0127C3.0145-14.1825 21.5336 4.33658 44.3638 4.33658C67.1889 4.33658 85.6876-14.1774 85.6876-37.0129C85.6886-42.4398 84.6205-47.8138 82.5443-52.828C80.4678-57.8425 77.4239-62.3983 73.5865-66.2355C69.7491-70.073 65.1932-73.1168 60.1791-75.1931C55.1651-77.2695 49.791-78.3376 44.3638-78.3365Z"/>
  </g>
 </g>
</svg>
