<?xml version="1.0" encoding="UTF-8"?>
<!--Generator: Apple Native CoreSVG 341-->
<!DOCTYPE svg
PUBLIC "-//W3C//DTD SVG 1.1//EN"
       "http://www.w3.org/Graphics/SVG/1.1/DTD/svg11.dtd">
<svg version="1.1" xmlns="http://www.w3.org/2000/svg" xmlns:xlink="http://www.w3.org/1999/xlink" viewBox="0 0 3300 2200">
 <!--glyph: "", point size: 100.0, font version: "20.0d10e1", template writer version: "138.0.0"-->
 <style>.monochrome-0 {-sfsymbols-motion-group:1;-sfsymbols-layer-tags:-3987ea967815a53}
.monochrome-1 {-sfsymbols-motion-group:0;-sfsymbols-layer-tags:-3987ea967815a53}

.multicolor-0:tintColor {-sfsymbols-motion-group:1;-sfsymbols-layer-tags:-3987ea967815a53}
.multicolor-1:tintColor {-sfsymbols-motion-group:0;-sfsymbols-layer-tags:-3987ea967815a53}

.hierarchical-0:primary {-sfsymbols-motion-group:1;-sfsymbols-layer-tags:-3987ea967815a53}
.hierarchical-1:tertiary {-sfsymbols-motion-group:0;-sfsymbols-layer-tags:-3987ea967815a53}

.SFSymbolsPreviewWireframe {fill:none;opacity:1.0;stroke:black;stroke-width:0.5}
</style>
 <g id="Notes">
  <rect height="2200" id="artboard" style="fill:white;opacity:1" width="3300" x="0" y="0"/>
  <line style="fill:none;stroke:black;opacity:1;stroke-width:0.5;" x1="263" x2="3036" y1="292" y2="292"/>
  <text style="stroke:none;fill:black;font-family:sans-serif;font-size:13;font-weight:bold;" transform="matrix(1 0 0 1 263 322)">Weight/Scale Variations</text>
  <text style="stroke:none;fill:black;font-family:sans-serif;font-size:13;text-anchor:middle;" transform="matrix(1 0 0 1 559.711 322)">Ultralight</text>
  <text style="stroke:none;fill:black;font-family:sans-serif;font-size:13;text-anchor:middle;" transform="matrix(1 0 0 1 856.422 322)">Thin</text>
  <text style="stroke:none;fill:black;font-family:sans-serif;font-size:13;text-anchor:middle;" transform="matrix(1 0 0 1 1153.13 322)">Light</text>
  <text style="stroke:none;fill:black;font-family:sans-serif;font-size:13;text-anchor:middle;" transform="matrix(1 0 0 1 1449.84 322)">Regular</text>
  <text style="stroke:none;fill:black;font-family:sans-serif;font-size:13;text-anchor:middle;" transform="matrix(1 0 0 1 1746.56 322)">Medium</text>
  <text style="stroke:none;fill:black;font-family:sans-serif;font-size:13;text-anchor:middle;" transform="matrix(1 0 0 1 2043.27 322)">Semibold</text>
  <text style="stroke:none;fill:black;font-family:sans-serif;font-size:13;text-anchor:middle;" transform="matrix(1 0 0 1 2339.98 322)">Bold</text>
  <text style="stroke:none;fill:black;font-family:sans-serif;font-size:13;text-anchor:middle;" transform="matrix(1 0 0 1 2636.69 322)">Heavy</text>
  <text style="stroke:none;fill:black;font-family:sans-serif;font-size:13;text-anchor:middle;" transform="matrix(1 0 0 1 2933.4 322)">Black</text>
  <line style="fill:none;stroke:black;opacity:1;stroke-width:0.5;" x1="263" x2="3036" y1="1903" y2="1903"/>
  <g transform="matrix(0.2 0 0 0.2 263 1933)">
   <path d="m46.2402 4.15039c21.7773 0 39.4531-17.627 39.4531-39.4043s-17.6758-39.4043-39.4531-39.4043c-21.7285 0-39.4043 17.627-39.4043 39.4043s17.6758 39.4043 39.4043 39.4043Zm0-7.42188c-17.6758 0-31.9336-14.3066-31.9336-31.9824s14.2578-31.9824 31.9336-31.9824 31.9824 14.3066 31.9824 31.9824-14.3066 31.9824-31.9824 31.9824Zm-17.9688-31.9824c0 2.14844 1.51367 3.61328 3.75977 3.61328h10.498v10.5957c0 2.19727 1.46484 3.71094 3.61328 3.71094 2.24609 0 3.71094-1.51367 3.71094-3.71094v-10.5957h10.5957c2.19727 0 3.71094-1.46484 3.71094-3.61328 0-2.19727-1.51367-3.71094-3.71094-3.71094h-10.5957v-10.5469c0-2.24609-1.46484-3.75977-3.71094-3.75977-2.14844 0-3.61328 1.51367-3.61328 3.75977v10.5469h-10.498c-2.24609 0-3.75977 1.51367-3.75977 3.71094Z"/>
  </g>
  <g transform="matrix(0.2 0 0 0.2 281.506 1933)">
   <path d="m58.5449 14.5508c27.4902 0 49.8047-22.3145 49.8047-49.8047s-22.3145-49.8047-49.8047-49.8047-49.8047 22.3145-49.8047 49.8047 22.3145 49.8047 49.8047 49.8047Zm0-8.30078c-22.9492 0-41.5039-18.5547-41.5039-41.5039s18.5547-41.5039 41.5039-41.5039 41.5039 18.5547 41.5039 41.5039-18.5547 41.5039-41.5039 41.5039Zm-22.6562-41.5039c0 2.39258 1.66016 4.00391 4.15039 4.00391h14.3555v14.4043c0 2.44141 1.66016 4.15039 4.05273 4.15039 2.44141 0 4.15039-1.66016 4.15039-4.15039v-14.4043h14.4043c2.44141 0 4.15039-1.61133 4.15039-4.00391 0-2.44141-1.70898-4.15039-4.15039-4.15039h-14.4043v-14.3555c0-2.49023-1.70898-4.19922-4.15039-4.19922-2.39258 0-4.05273 1.70898-4.05273 4.19922v14.3555h-14.3555c-2.49023 0-4.15039 1.70898-4.15039 4.15039Z"/>
  </g>
  <g transform="matrix(0.2 0 0 0.2 304.924 1933)">
   <path d="m74.8535 28.3203c35.1074 0 63.623-28.4668 63.623-63.5742s-28.5156-63.623-63.623-63.623-63.5742 28.5156-63.5742 63.623 28.4668 63.5742 63.5742 63.5742Zm0-9.08203c-30.127 0-54.4922-24.3652-54.4922-54.4922s24.3652-54.4922 54.4922-54.4922 54.4922 24.3652 54.4922 54.4922-24.3652 54.4922-54.4922 54.4922Zm-28.8574-54.4922c0 2.58789 1.85547 4.39453 4.58984 4.39453h19.7266v19.7754c0 2.68555 1.85547 4.58984 4.44336 4.58984 2.68555 0 4.54102-1.85547 4.54102-4.58984v-19.7754h19.7754c2.68555 0 4.58984-1.80664 4.58984-4.39453 0-2.73438-1.85547-4.58984-4.58984-4.58984h-19.7754v-19.7266c0-2.73438-1.85547-4.63867-4.54102-4.63867-2.58789 0-4.44336 1.9043-4.44336 4.63867v19.7266h-19.7266c-2.73438 0-4.58984 1.85547-4.58984 4.58984Z"/>
  </g>
  <text style="stroke:none;fill:black;font-family:sans-serif;font-size:13;font-weight:bold;" transform="matrix(1 0 0 1 263 1953)">Design Variations</text>
  <text style="stroke:none;fill:black;font-family:sans-serif;font-size:13;" transform="matrix(1 0 0 1 263 1971)">Symbols are supported in up to nine weights and three scales.</text>
  <text style="stroke:none;fill:black;font-family:sans-serif;font-size:13;" transform="matrix(1 0 0 1 263 1989)">For optimal layout with text and other symbols, vertically align</text>
  <text style="stroke:none;fill:black;font-family:sans-serif;font-size:13;" transform="matrix(1 0 0 1 263 2007)">symbols with the adjacent text.</text>
  <line style="fill:none;stroke:#00AEEF;stroke-width:0.5;opacity:1.0;" x1="776" x2="776" y1="1919" y2="1933"/>
  <g transform="matrix(0.2 0 0 0.2 776 1933)">
   <path d="m16.5527 0.78125c2.58789 0 3.85742-0.976562 4.78516-3.71094l6.29883-17.2363h28.8086l6.29883 17.2363c0.927734 2.73438 2.19727 3.71094 4.73633 3.71094 2.58789 0 4.24805-1.5625 4.24805-4.00391 0-0.830078-0.146484-1.61133-0.537109-2.63672l-22.9004-60.9863c-1.12305-2.97852-3.125-4.49219-6.25-4.49219-3.02734 0-5.07812 1.46484-6.15234 4.44336l-22.9004 61.084c-0.390625 1.02539-0.537109 1.80664-0.537109 2.63672 0 2.44141 1.5625 3.95508 4.10156 3.95508Zm13.4766-28.3691 11.8652-32.8613h0.244141l11.8652 32.8613Z"/>
  </g>
  <line style="fill:none;stroke:#00AEEF;stroke-width:0.5;opacity:1.0;" x1="792.836" x2="792.836" y1="1919" y2="1933"/>
  <text style="stroke:none;fill:black;font-family:sans-serif;font-size:13;font-weight:bold;" transform="matrix(1 0 0 1 776 1953)">Margins</text>
  <text style="stroke:none;fill:black;font-family:sans-serif;font-size:13;" transform="matrix(1 0 0 1 776 1971)">Leading and trailing margins on the left and right side of each symbol</text>
  <text style="stroke:none;fill:black;font-family:sans-serif;font-size:13;" transform="matrix(1 0 0 1 776 1989)">can be adjusted by modifying the x-location of the margin guidelines.</text>
  <text style="stroke:none;fill:black;font-family:sans-serif;font-size:13;" transform="matrix(1 0 0 1 776 2007)">Modifications are automatically applied proportionally to all</text>
  <text style="stroke:none;fill:black;font-family:sans-serif;font-size:13;" transform="matrix(1 0 0 1 776 2025)">scales and weights.</text>
  <g transform="matrix(0.2 0 0 0.2 1289 1933)">
   <path d="m14.209 9.32617 8.49609 8.54492c4.29688 4.3457 9.22852 4.05273 13.8672-1.07422l53.4668-58.9355-4.83398-4.88281-53.0762 58.3984c-1.75781 2.00195-3.41797 2.49023-5.76172 0.146484l-5.85938-5.81055c-2.34375-2.29492-1.80664-4.00391 0.195312-5.81055l57.373-54.0039-4.88281-4.83398-57.959 54.4434c-4.93164 4.58984-5.32227 9.47266-1.02539 13.8184Zm32.0801-90.9668c-2.09961 2.05078-2.24609 4.93164-1.07422 6.88477 1.17188 1.80664 3.4668 2.97852 6.68945 2.14844 7.32422-1.70898 14.9414-2.00195 22.0703 2.68555l-2.92969 7.27539c-1.70898 4.15039-0.830078 7.08008 1.85547 9.81445l11.4746 11.5723c2.44141 2.44141 4.49219 2.53906 7.32422 2.05078l5.32227-0.976562 3.32031 3.36914-0.195312 2.7832c-0.195312 2.49023 0.439453 4.39453 2.88086 6.78711l3.80859 3.71094c2.39258 2.39258 5.46875 2.53906 7.8125 0.195312l14.5508-14.5996c2.34375-2.34375 2.24609-5.32227-0.146484-7.71484l-3.85742-3.80859c-2.39258-2.39258-4.24805-3.17383-6.64062-2.97852l-2.88086 0.244141-3.22266-3.17383 1.2207-5.61523c0.634766-2.83203-0.146484-5.0293-3.07617-7.95898l-10.9863-10.9375c-16.6992-16.6016-38.8672-16.2109-53.3203-1.75781Zm7.4707 1.85547c12.1582-8.88672 28.6133-7.37305 39.7461 3.75977l12.1582 12.0605c1.17188 1.17188 1.36719 2.09961 1.02539 3.80859l-1.61133 7.42188 7.51953 7.42188 4.93164-0.292969c1.26953-0.0488281 1.66016 0.0488281 2.63672 1.02539l2.88086 2.88086-12.207 12.207-2.88086-2.88086c-0.976562-0.976562-1.12305-1.36719-1.07422-2.68555l0.341797-4.88281-7.4707-7.42188-7.61719 1.26953c-1.61133 0.341797-2.34375 0.195312-3.56445-0.976562l-10.0098-10.0098c-1.26953-1.17188-1.41602-2.00195-0.634766-3.85742l4.39453-10.4492c-7.8125-7.27539-17.9688-10.4004-28.125-7.42188-0.78125 0.195312-1.07422-0.439453-0.439453-0.976562Z"/>
  </g>
  <text style="stroke:none;fill:black;font-family:sans-serif;font-size:13;font-weight:bold;" transform="matrix(1 0 0 1 1289 1953)">Exporting</text>
  <text style="stroke:none;fill:black;font-family:sans-serif;font-size:13;" transform="matrix(1 0 0 1 1289 1971)">Symbols should be outlined when exporting to ensure the</text>
  <text style="stroke:none;fill:black;font-family:sans-serif;font-size:13;" transform="matrix(1 0 0 1 1289 1989)">design is preserved when submitting to Xcode.</text>
  <text id="template-version" style="stroke:none;fill:black;font-family:sans-serif;font-size:13;text-anchor:end;" transform="matrix(1 0 0 1 3036 1933)">Template v.6.0</text>
  <text style="stroke:none;fill:black;font-family:sans-serif;font-size:13;text-anchor:end;" transform="matrix(1 0 0 1 3036 1951)">Requires Xcode 16 or greater</text>
  <text id="descriptive-name" style="stroke:none;fill:black;font-family:sans-serif;font-size:13;text-anchor:end;" transform="matrix(1 0 0 1 3036 1969)">Generated from filtervogelgruppe-9</text>
  <text style="stroke:none;fill:black;font-family:sans-serif;font-size:13;text-anchor:end;" transform="matrix(1 0 0 1 3036 1987)">Typeset at 100.0 points</text>
  <text style="stroke:none;fill:black;font-family:sans-serif;font-size:13;" transform="matrix(1 0 0 1 263 726)">Small</text>
  <text style="stroke:none;fill:black;font-family:sans-serif;font-size:13;" transform="matrix(1 0 0 1 263 1156)">Medium</text>
  <text style="stroke:none;fill:black;font-family:sans-serif;font-size:13;" transform="matrix(1 0 0 1 263 1586)">Large</text>
 </g>
 <g id="Guides">
  <g id="H-reference" style="fill:#27AAE1;stroke:none;" transform="matrix(1 0 0 1 339 696)">
   <path d="M0.993654 0L3.63775 0L29.3281-67.1323L30.0303-67.1323L30.0303-70.459L28.1226-70.459ZM11.6885-24.4799L46.9815-24.4799L46.2315-26.7285L12.4385-26.7285ZM55.1196 0L57.7637 0L30.6382-70.459L29.4326-70.459L29.4326-67.1323Z"/>
  </g>
  <line id="Baseline-S" style="fill:none;stroke:#27AAE1;opacity:1;stroke-width:0.5;" x1="263" x2="3036" y1="696" y2="696"/>
  <line id="Capline-S" style="fill:none;stroke:#27AAE1;opacity:1;stroke-width:0.5;" x1="263" x2="3036" y1="625.541" y2="625.541"/>
  <g id="H-reference" style="fill:#27AAE1;stroke:none;" transform="matrix(1 0 0 1 339 1126)">
   <path d="M0.993654 0L3.63775 0L29.3281-67.1323L30.0303-67.1323L30.0303-70.459L28.1226-70.459ZM11.6885-24.4799L46.9815-24.4799L46.2315-26.7285L12.4385-26.7285ZM55.1196 0L57.7637 0L30.6382-70.459L29.4326-70.459L29.4326-67.1323Z"/>
  </g>
  <line id="Baseline-M" style="fill:none;stroke:#27AAE1;opacity:1;stroke-width:0.5;" x1="263" x2="3036" y1="1126" y2="1126"/>
  <line id="Capline-M" style="fill:none;stroke:#27AAE1;opacity:1;stroke-width:0.5;" x1="263" x2="3036" y1="1055.54" y2="1055.54"/>
  <g id="H-reference" style="fill:#27AAE1;stroke:none;" transform="matrix(1 0 0 1 339 1556)">
   <path d="M0.993654 0L3.63775 0L29.3281-67.1323L30.0303-67.1323L30.0303-70.459L28.1226-70.459ZM11.6885-24.4799L46.9815-24.4799L46.2315-26.7285L12.4385-26.7285ZM55.1196 0L57.7637 0L30.6382-70.459L29.4326-70.459L29.4326-67.1323Z"/>
  </g>
  <line id="Baseline-L" style="fill:none;stroke:#27AAE1;opacity:1;stroke-width:0.5;" x1="263" x2="3036" y1="1556" y2="1556"/>
  <line id="Capline-L" style="fill:none;stroke:#27AAE1;opacity:1;stroke-width:0.5;" x1="263" x2="3036" y1="1485.54" y2="1485.54"/>
  <line id="right-margin-Black-S" style="fill:none;stroke:#00AEEF;stroke-width:0.5;opacity:1.0;" x1="2982.23" x2="2982.23" y1="600.785" y2="720.121"/>
  <line id="left-margin-Black-S" style="fill:none;stroke:#00AEEF;stroke-width:0.5;opacity:1.0;" x1="2884.57" x2="2884.57" y1="600.785" y2="720.121"/>
  <line id="right-margin-Regular-S" style="fill:none;stroke:#00AEEF;stroke-width:0.5;opacity:1.0;" x1="1496.11" x2="1496.11" y1="600.785" y2="720.121"/>
  <line id="left-margin-Regular-S" style="fill:none;stroke:#00AEEF;stroke-width:0.5;opacity:1.0;" x1="1403.58" x2="1403.58" y1="600.785" y2="720.121"/>
  <line id="right-margin-Ultralight-S" style="fill:none;stroke:#00AEEF;stroke-width:0.5;opacity:1.0;" x1="603.773" x2="603.773" y1="600.785" y2="720.121"/>
  <line id="left-margin-Ultralight-S" style="fill:none;stroke:#00AEEF;stroke-width:0.5;opacity:1.0;" x1="515.649" x2="515.649" y1="600.785" y2="720.121"/>
 </g>
 <g id="Symbols">
  <g id="Black-S" transform="matrix(1 0 0 1 2884.57 696)">
   <path class="monochrome-0 multicolor-0:tintColor hierarchical-0:primary SFSymbolsPreviewWireframe" d="M39.0861-5.18394C38.9917-4.92214 38.9275-4.69551 38.8406-4.49232C38.8028-4.40635 38.7046-4.29303 38.6668-4.31648C38.6026-4.36337 38.5346-4.50404 38.527-4.61736C38.5119-4.84399 38.5346-5.07453 38.5459-5.30508C38.5648-5.82478 38.5837-6.34447 38.6101-6.86808C38.6328-7.32135 38.6668-7.77853 38.6857-8.23571L38.7915-11.7056C38.799-11.9283 38.7915-12.1628 38.8255-12.3738C38.9009-12.8951 38.8177-13.4275 38.5875-13.8977C38.3512-14.4972 38.2171-15.1344 38.1908-15.7811C38.1114-16.8439 38.0397-17.9107 38.0057-18.9774C37.9679-20.2825 37.9717-21.5916 37.9566-22.8967C37.9566-22.9475 37.9074-23.0373 37.881-23.0412C37.7979-23.053 37.7072-22.9904 37.6354-23.0334C37.5863-23.0647 37.5372-23.2249 37.5372-23.3226C37.541-23.5805 37.5788-23.8306 37.5939-24.0846C37.6279-24.5925 37.6468-25.0927 37.677-25.5968C37.7374-26.558 37.7903-27.5232 37.8659-28.4805C37.9263-29.3011 37.9981-30.1138 38.0926-30.9227C38.1771-31.6918 38.2854-32.4583 38.4175-33.2203C38.5799-34.119 38.7763-35.006 38.969-35.893C39.2032-36.9754 39.4413-38.0617 39.6982-39.1363C39.7813-39.4879 39.9324-39.7927 40.0457-40.1327C40.4613-41.3987 40.8655-42.6804 41.2886-43.9425C41.4813-44.5208 41.7042-45.0679 41.9158-45.6306C42.0631-46.0291 42.1878-46.4511 42.3578-46.8263C42.6789-47.5374 43.0227-48.2291 43.3628-48.9168L44.9496-52.0584C45.0856-52.3241 45.2291-52.5742 45.35-52.8516C45.5389-53.2854 45.5767-53.8051 45.5918-54.313C45.6145-55.0398 45.5805-55.7705 45.6145-56.4934C45.6384-56.9348 45.7017-57.373 45.8034-57.8025C45.9866-58.5232 46.2529-59.2185 46.5967-59.8734C46.8083-60.315 47.0085-60.7761 47.2201-61.2215C47.2654-61.3153 47.3523-61.3505 47.4089-61.4325C47.4732-61.5341 47.5261-61.6592 47.5865-61.7725L47.6092-61.8116C48.1041-62.1359 48.4668-62.7884 48.8937-63.2808C49.245-63.6832 49.585-64.1248 49.9515-64.4882C50.3708-64.9063 50.8166-65.2697 51.2548-65.637C51.3304-65.6995 51.4286-65.6683 51.5155-65.7073C51.7082-65.7972 51.8933-65.9418 52.0935-65.9965C52.426-66.0942 52.7622-66.1411 53.0984-66.1997C53.3704-66.2466 53.6424-66.2896 53.9182-66.3091C54.0845-66.3247 54.2582-66.2935 54.4245-66.2778C54.6474-66.2583 54.8702-66.2544 55.0894-66.2114C55.4332-66.145 55.7732-66.0317 56.1169-65.977C56.4252-65.9268 56.7085-65.7714 56.9216-65.5354L56.9292-65.5276C57.1861-65.5745 57.3599-65.2345 57.5903-65.1603C57.6917-65.117 57.782-65.0502 57.8548-64.9649C58.2401-64.5663 58.6443-64.1951 59.007-63.7419C59.347-63.312 59.653-62.8002 59.9704-62.3156C60.0988-62.1163 60.2197-61.9014 60.3368-61.6826C60.3859-61.5888 60.4199-61.4716 60.4539-61.3622C60.5144-61.1746 60.5559-60.9714 60.624-60.7956C60.6504-60.7253 60.726-60.6745 60.7751-60.6784C61.1037-60.6979 61.4324-60.7761 61.7573-60.7643C62.1162-60.7526 62.4751-60.6667 62.8302-60.6119C63.2685-60.5455 63.7067-60.4596 64.1449-60.4166C64.4056-60.3853 64.6701-60.4439 64.9307-60.4205C65.3387-60.3853 65.743-60.3228 66.151-60.2642C66.5665-60.2056 66.9821-60.1587 67.3977-60.0844C68.191-59.9438 68.9806-59.7914 69.774-59.6312C70.0989-59.5686 70.4313-59.5022 70.7487-59.3772C70.9955-59.2713 71.225-59.1263 71.4287-58.9474C71.6062-58.7989 71.5571-58.4237 71.3456-58.2714C71.202-58.1698 71.0433-58.1346 70.8922-58.0643C70.6807-57.9705 70.4729-57.8689 70.2613-57.7673C70.1366-57.7087 70.0082-57.6501 69.8835-57.6032C69.8193-57.5797 69.7551-57.5914 69.6946-57.5914C69.672-57.5914 69.6455-57.6188 69.6304-57.6071C69.5057-57.5016 69.3886-57.3883 69.2677-57.2788C69.2488-57.2632 69.2224-57.2398 69.2148-57.2476C69.0939-57.4234 69.0033-57.232 68.8975-57.1968C68.7086-57.1304 68.5122-57.1069 68.3195-57.06C68.2704-57.0444 68.2213-57.0014 68.1684-56.9858C68.1117-56.9702 68.055-56.9702 67.9946-56.9584C67.8737-56.9389 67.7566-56.9272 67.6395-56.8881C67.511-56.8412 67.3901-56.7474 67.2617-56.7123C67.103-56.6732 66.9406-56.6849 66.7819-56.6536C66.5174-56.6028 66.253-56.5325 65.9885-56.47L65.0818-56.2473C64.9307-56.2082 64.7796-56.1457 64.6285-56.1144C64.4623-56.0753 64.2885-56.0753 64.1185-56.0363C63.9523-55.9933 63.786-55.919 63.6198-55.8721C63.5707-55.8604 63.514-55.9347 63.4649-55.9268C63.3138-55.9112 63.1627-55.8643 63.0116-55.8487C62.8567-55.8331 62.698-55.8409 62.5393-55.837C62.0312-55.8073 61.5439-55.6193 61.1415-55.2977C60.5846-54.9221 60.1067-54.4344 59.7362-53.8637C59.5019-53.4925 59.3584-52.965 59.1619-52.5234C58.973-52.0936 59.0486-51.7028 59.1695-51.2847C59.3206-50.7885 59.449-50.2805 59.6001-49.7882C59.6757-49.5576 59.8004-49.3701 59.857-49.1317C59.9515-48.7331 60.0044-48.3072 60.0837-47.9008C60.1895-47.3929 60.3293-46.9044 60.4086-46.3925C60.5484-45.4938 60.624-44.5872 60.5484-43.6572C60.5031-43.0946 60.5144-42.5241 60.4842-41.9653C60.4615-41.5745 60.3935-41.1877 60.3633-40.797C60.3331-40.3867 60.3331-39.9686 60.2953-39.5583C60.2764-39.3043 60.2197-39.0542 60.1782-38.8041C60.0686-38.1555 59.9704-37.5029 59.8533-36.8621C59.6644-35.8071 59.4679-34.7559 59.2526-33.7126C59.109-33.0171 58.8975-32.3567 58.7803-31.6495C58.6431-30.8572 58.469-30.0722 58.259-29.2972C58.0399-28.4727 57.8132-27.6599 57.4354-26.9839C57.2805-26.7104 57.1936-26.3275 57.0803-25.9914C57.0576-25.9328 57.0425-25.8625 57.0123-25.8195C56.627-25.2607 56.2454-24.6941 55.8563-24.1471C55.419-23.5274 54.9719-22.9149 54.5151-22.3105C54.126-21.7987 53.7293-21.2946 53.3138-20.8413C53.1551-20.6866 52.9596-20.5785 52.7471-20.5287C52.3044-20.3617 51.893-20.1171 51.5306-19.8058C51.3606-19.6691 51.1528-19.6495 50.9715-19.5479C50.6693-19.376 50.3595-19.3018 50.0648-19.04C49.5434-18.5711 48.9843-18.2233 48.3836-18.1295C48.191-18.0983 47.9983-18.0318 47.8018-17.981L47.7792-17.9771C47.4203-17.5864 47.0009-17.8521 46.6156-17.6958C46.37-17.5981 46.1207-17.5668 45.8714-17.4887C45.8109-17.4652 45.7467-17.3832 45.6976-17.3089C45.4747-16.9924 45.2442-16.6837 45.044-16.3321C44.7304-15.785 44.4395-15.2028 44.1373-14.6362C43.5895-13.5968 43.0453-12.5496 42.49-11.5258C42.2104-11.01 41.8969-10.5411 41.606-10.0371C41.4624-9.77917 41.3415-9.4822 41.2017-9.21649C41.0129-8.86482 40.79-8.55612 40.6351-8.17319C40.2535-7.22757 39.9022-6.24288 39.5319-5.28163C39.4785-5.13478 39.4047-4.99638 39.3128-4.87134C39.2864-4.84008 39.1995-4.92996 39.1466-4.98466C39.1201-5.00811 39.1164-5.07844 39.0824-5.18394L39.0861-5.18394Z"/>
   <path class="monochrome-1 multicolor-1:tintColor hierarchical-1:tertiary SFSymbolsPreviewWireframe" d="M48.9411-84C55.3091-84.0013 61.615-82.7479 67.4985-80.3116C73.382-77.8752 78.7279-74.3036 83.2305-69.8009C87.7334-65.2983 91.305-59.9524 93.7418-54.0682C96.1779-48.1846 97.4312-41.8789 97.43-35.5124C97.43-8.72255 75.7254 13 48.9424 13C22.156 13 0.43-8.726 0.43-35.5124C0.43-62.2926 22.1539-84 48.9411-84ZM48.9424-70C29.8835-70 14.43-54.5582 14.43-35.5124C14.43-16.458 29.888-0.999999 48.9424-0.999999C67.9909-0.999999 83.43-16.4519 83.43-35.5138C83.4309-40.0428 82.5395-44.5276 80.8069-48.7121C79.0739-52.8969 76.5337-56.6989 73.3311-59.9013C70.1287-63.1038 66.3266-65.644 62.1422-67.3767C57.9578-69.1095 53.4729-70.0009 48.9424-70Z"/>
  </g>
  <g id="Regular-S" transform="matrix(1 0 0 1 1403.58 696)">
   <path class="monochrome-0 multicolor-0:tintColor hierarchical-0:primary SFSymbolsPreviewWireframe" d="M34.161-3.57271C34.0548-3.28822 33.9826-3.04194 33.885-2.82114C33.8425-2.72773 33.7321-2.60459 33.6896-2.63006C33.6175-2.68102 33.541-2.83388 33.5325-2.95702C33.5155-3.20329 33.541-3.45382 33.5538-3.70434C33.575-4.26908 33.5962-4.83382 33.6259-5.4028C33.6514-5.89536 33.6896-6.39216 33.7109-6.88896L33.8298-10.6595C33.8383-10.9016 33.8298-11.1563 33.868-11.3856C33.9528-11.9521 33.8593-12.5307 33.6005-13.0416C33.335-13.6931 33.1842-14.3855 33.1546-15.0883C33.0655-16.2432 32.9848-17.4024 32.9466-18.5616C32.9041-19.9798 32.9083-21.4023 32.8914-22.8205C32.8914-22.8757 32.8362-22.9734 32.8064-22.9776C32.713-22.9904 32.6111-22.9224 32.5304-22.9691C32.4752-23.0031 32.42-23.1772 32.42-23.2834C32.4243-23.5636 32.4667-23.8354 32.4837-24.1114C32.5219-24.6634 32.5432-25.2069 32.5771-25.7546C32.6451-26.7992 32.7045-27.848 32.7895-28.8883C32.8574-29.78 32.9381-30.6632 33.0442-31.5421C33.1392-32.3779 33.261-33.2109 33.4094-34.0389C33.592-35.0155 33.8128-35.9794 34.0293-36.9432C34.2926-38.1194 34.5601-39.2998 34.8488-40.4675C34.9423-40.8497 35.1121-41.1809 35.2395-41.5503C35.7066-42.9261 36.1609-44.3188 36.6365-45.6903C36.853-46.3187 37.1035-46.9132 37.3413-47.5247C37.5069-47.9578 37.6471-48.4164 37.8381-48.824C38.1991-49.5968 38.5855-50.3484 38.9678-51.0957L40.7512-54.5096C40.904-54.7983 41.0654-55.0701 41.2013-55.3716C41.4136-55.8429 41.456-56.4076 41.473-56.9596C41.4985-57.7494 41.4603-58.5435 41.4985-59.329C41.5254-59.8086 41.5965-60.2848 41.7108-60.7515C41.9167-61.5346 42.2161-62.2902 42.6025-63.0019C42.8403-63.4817 43.0653-63.9828 43.3031-64.4668C43.3541-64.5687 43.4517-64.607 43.5154-64.6961C43.5876-64.8065 43.647-64.9424 43.715-65.0655L43.7405-65.108C44.2967-65.4604 44.7043-66.1695 45.1842-66.7046C45.579-67.1419 45.9612-67.6217 46.3731-68.0166C46.8444-68.471 47.3454-68.8659 47.838-69.265C47.9229-69.3329 48.0333-69.299 48.131-69.3414C48.3475-69.4391 48.5556-69.5962 48.7806-69.6556C49.1543-69.7618 49.5322-69.8127 49.9101-69.8764C50.2158-69.9274 50.5216-69.9741 50.8315-69.9953C51.0184-70.0123 51.2137-69.9783 51.4005-69.9614C51.651-69.9401 51.9016-69.9359 52.1478-69.8892C52.5342-69.817 52.9164-69.6939 53.3028-69.6344C53.6492-69.5799 53.9677-69.411 54.2072-69.1546L54.2157-69.1461C54.5045-69.1971 54.6998-68.8276 54.9588-68.747C55.0727-68.7 55.1743-68.6273 55.256-68.5347C55.6891-68.1015 56.1435-67.6982 56.5511-67.2056C56.9333-66.7385 57.2772-66.1823 57.6339-65.6558C57.7782-65.4392 57.9141-65.2057 58.0458-64.9679C58.101-64.866 58.1392-64.7386 58.1774-64.6197C58.2453-64.4159 58.292-64.1951 58.3685-64.004C58.3982-63.9276 58.4831-63.8724 58.5383-63.8766C58.9077-63.8979 59.2771-63.9828 59.6423-63.97C60.0457-63.9573 60.4491-63.8639 60.8482-63.8044C61.3408-63.7323 61.8333-63.6388 62.3259-63.5921C62.6189-63.5582 62.9161-63.6219 63.2091-63.5964C63.6677-63.5582 64.122-63.4902 64.5806-63.4265C65.0477-63.3628 65.5147-63.3119 65.9818-63.2312C66.8735-63.0783 67.761-62.9127 68.6526-62.7387C69.0178-62.6707 69.3915-62.5985 69.7482-62.4627C70.0256-62.3477 70.2835-62.19 70.5125-61.9956C70.712-61.8342 70.6568-61.4266 70.419-61.261C70.2577-61.1506 70.0794-61.1124 69.9095-61.0359C69.6717-60.934 69.4382-60.8236 69.2004-60.7132C69.0603-60.6495 68.9159-60.5859 68.7758-60.5349C68.7036-60.5094 68.6314-60.5222 68.5635-60.5222C68.538-60.5222 68.5083-60.5519 68.4913-60.5391C68.3512-60.4245 68.2195-60.3014 68.0837-60.1825C68.0624-60.1655 68.0327-60.14 68.0242-60.1485C67.8883-60.3396 67.7864-60.1315 67.6675-60.0933C67.4552-60.0211 67.2344-59.9956 67.0179-59.9447C66.9627-59.9277 66.9075-59.881 66.848-59.864C66.7843-59.847 66.7206-59.847 66.6527-59.8343C66.5168-59.8131 66.3852-59.8003 66.2536-59.7579C66.1092-59.7069 65.9733-59.605 65.829-59.5668C65.6506-59.5243 65.468-59.5371 65.2897-59.5031C64.9925-59.4479 64.6952-59.3715 64.398-59.3035L63.3789-59.0615C63.2091-59.019 63.0392-58.9511 62.8694-58.9171C62.6826-58.8747 62.4872-58.8747 62.2962-58.8322C62.1093-58.7855 61.9225-58.7048 61.7357-58.6539C61.6805-58.6411 61.6168-58.7218 61.5616-58.7133C61.3917-58.6963 61.2219-58.6454 61.052-58.6284C60.8779-58.6114 60.6996-58.6199 60.5213-58.6156C59.9502-58.5834 59.4024-58.3791 58.9502-58.0297C58.3242-57.6215 57.7871-57.0915 57.3706-56.4713C57.1074-56.0679 56.946-55.4947 56.7252-55.0149C56.5129-54.5478 56.5978-54.1232 56.7337-53.6689C56.9035-53.1296 57.0479-52.5776 57.2178-52.0426C57.3027-51.7921 57.4428-51.5883 57.5065-51.3292C57.6126-50.8961 57.6721-50.4333 57.7613-49.9917C57.8802-49.4397 58.0373-48.9089 58.1264-48.3527C58.2835-47.3761 58.3685-46.3909 58.2835-45.3803C58.2326-44.7689 58.2453-44.149 58.2114-43.5418C58.1859-43.1171 58.1094-42.6968 58.0755-42.2722C58.0415-41.8263 58.0415-41.372 57.999-40.9261C57.9778-40.6501 57.9141-40.3784 57.8674-40.1066C57.7443-39.4018 57.6339-38.6926 57.5022-37.9963C57.2899-36.8498 57.0691-35.7076 56.8271-34.5739C56.6658-33.8181 56.428-33.1005 56.2963-32.3319C56.1421-31.471 55.9464-30.6179 55.7104-29.7757C55.4641-28.8798 55.2093-27.9966 54.7847-27.262C54.6106-26.9648 54.513-26.5486 54.3856-26.1835C54.3601-26.1198 54.3431-26.0434 54.3091-25.9966C53.876-25.3894 53.4472-24.7738 53.0098-24.1793C52.5183-23.5059 52.0159-22.8403 51.5024-22.1836C51.0651-21.6274 50.6192-21.0796 50.1522-20.587C49.9738-20.419 49.7541-20.3015 49.5152-20.2474C49.0177-20.0658 48.5552-19.8001 48.148-19.4618C47.9569-19.3132 47.7234-19.292 47.5195-19.1816C47.1798-18.9947 46.8317-18.9141 46.5005-18.6296C45.9145-18.12 45.2861-17.7421 44.6109-17.6402C44.3944-17.6062 44.1778-17.5341 43.957-17.4789L43.9315-17.4746C43.5282-17.05 43.0568-17.3387 42.6237-17.1689C42.3477-17.0627 42.0675-17.0288 41.7872-16.9438C41.7193-16.9184 41.6471-16.8292 41.5919-16.7485C41.3414-16.4046 41.0824-16.0691 40.8573-15.687C40.5049-15.0925 40.1779-14.4598 39.8382-13.8442C39.2226-12.7147 38.6109-11.5767 37.9867-10.4642C37.6725-9.90373 37.3201-9.39419 36.9931-8.84643C36.8318-8.56619 36.6959-8.24348 36.5388-7.95474C36.3265-7.57259 36.076-7.23714 35.9019-6.82102C35.473-5.79345 35.0781-4.72342 34.662-3.67886C34.602-3.51928 34.519-3.36889 34.4157-3.23302C34.386-3.19905 34.2883-3.29671 34.2289-3.35616C34.1992-3.38163 34.1949-3.45806 34.1567-3.57271L34.161-3.57271Z"/>
   <path class="monochrome-1 multicolor-1:tintColor hierarchical-1:tertiary SFSymbolsPreviewWireframe" d="M46.4321-81.8365C52.4502-81.8377 58.4096-80.6532 63.9698-78.3508C69.53-76.0483 74.5822-72.6729 78.8374-68.4176C83.0928-64.1624 86.4682-59.1103 88.771-53.5496C91.0733-47.9892 92.2577-42.03 92.2566-36.0127C92.2566-10.693 71.744 9.83658 46.4328 9.83658C21.1173 9.83658 0.5835-10.6972 0.5835-36.0127C0.5835-61.3211 21.1145-81.8365 46.4321-81.8365ZM46.4328-75.0865C24.8413-75.0865 7.3335-57.592 7.3335-36.0127C7.3335-14.4252 24.8452 3.08658 46.4328 3.08658C68.0148 3.08658 85.5066-14.4197 85.5066-36.0133C85.5076-41.1447 84.4976-46.226 82.5345-50.9672C80.571-55.7085 77.693-60.0162 74.0644-63.6446C70.4361-67.273 66.1283-70.1511 61.3873-72.1143C56.6463-74.0776 51.5649-75.0875 46.4328-75.0865Z"/>
  </g>
  <g id="Ultralight-S" transform="matrix(1 0 0 1 515.649 696)">
   <path class="monochrome-0 multicolor-0:tintColor hierarchical-0:primary SFSymbolsPreviewWireframe" d="M33.092-2.57271C32.9858-2.28822 32.9136-2.04194 32.816-1.82114C32.7735-1.72773 32.6631-1.60459 32.6206-1.63006C32.5485-1.68102 32.472-1.83388 32.4635-1.95702C32.4465-2.20329 32.472-2.45382 32.4848-2.70434C32.506-3.26908 32.5272-3.83382 32.5569-4.4028C32.5824-4.89536 32.6206-5.39216 32.6419-5.88896L32.7608-9.65954C32.7693-9.90157 32.7608-10.1563 32.799-10.3856C32.8838-10.9521 32.7903-11.5307 32.5315-12.0416C32.266-12.6931 32.1152-13.3855 32.0856-14.0883C31.9965-15.2432 31.9158-16.4024 31.8776-17.5616C31.8351-18.9798 31.8393-20.4023 31.8224-21.8205C31.8224-21.8757 31.7672-21.9734 31.7374-21.9776C31.644-21.9904 31.5421-21.9224 31.4614-21.9691C31.4062-22.0031 31.351-22.1772 31.351-22.2834C31.3553-22.5636 31.3977-22.8354 31.4147-23.1114C31.4529-23.6634 31.4742-24.2069 31.5081-24.7546C31.5761-25.7992 31.6355-26.848 31.7205-27.8883C31.7884-28.78 31.8691-29.6632 31.9752-30.5421C32.0702-31.3779 32.192-32.2109 32.3404-33.0389C32.523-34.0155 32.7438-34.9794 32.9603-35.9432C33.2236-37.1194 33.4911-38.2998 33.7798-39.4675C33.8733-39.8497 34.0431-40.1809 34.1705-40.5503C34.6376-41.9261 35.0919-43.3188 35.5675-44.6903C35.784-45.3187 36.0345-45.9132 36.2723-46.5247C36.4379-46.9578 36.5781-47.4164 36.7691-47.824C37.1301-48.5968 37.5165-49.3484 37.8988-50.0957L39.6822-53.5096C39.835-53.7983 39.9964-54.0701 40.1323-54.3716C40.3446-54.8429 40.387-55.4076 40.404-55.9596C40.4295-56.7494 40.3913-57.5435 40.4295-58.329C40.4564-58.8086 40.5275-59.2848 40.6418-59.7515C40.8477-60.5346 41.1471-61.2902 41.5335-62.0019C41.7713-62.4817 41.9963-62.9828 42.2341-63.4668C42.2851-63.5687 42.3827-63.607 42.4464-63.6961C42.5186-63.8065 42.578-63.9424 42.646-64.0655L42.6715-64.108C43.2277-64.4604 43.6353-65.1695 44.1152-65.7046C44.51-66.1419 44.8922-66.6217 45.3041-67.0166C45.7754-67.471 46.2764-67.8659 46.769-68.265C46.8539-68.3329 46.9643-68.299 47.062-68.3414C47.2785-68.4391 47.4866-68.5962 47.7116-68.6556C48.0853-68.7618 48.4632-68.8127 48.8411-68.8764C49.1468-68.9274 49.4526-68.9741 49.7625-68.9953C49.9494-69.0123 50.1447-68.9783 50.3315-68.9614C50.582-68.9401 50.8326-68.9359 51.0788-68.8892C51.4652-68.817 51.8474-68.6939 52.2338-68.6344C52.5802-68.5799 52.8987-68.411 53.1382-68.1546L53.1467-68.1461C53.4355-68.1971 53.6308-67.8276 53.8898-67.747C54.0037-67.7 54.1053-67.6273 54.187-67.5347C54.6201-67.1015 55.0745-66.6982 55.4821-66.2056C55.8643-65.7385 56.2082-65.1823 56.5649-64.6558C56.7092-64.4392 56.8451-64.2057 56.9768-63.9679C57.032-63.866 57.0702-63.7386 57.1084-63.6197C57.1763-63.4159 57.223-63.1951 57.2995-63.004C57.3292-62.9276 57.4141-62.8724 57.4693-62.8766C57.8387-62.8979 58.2081-62.9828 58.5733-62.97C58.9767-62.9573 59.3801-62.8639 59.7792-62.8044C60.2718-62.7323 60.7643-62.6388 61.2569-62.5921C61.5499-62.5582 61.8471-62.6219 62.1401-62.5964C62.5987-62.5582 63.053-62.4902 63.5116-62.4265C63.9787-62.3628 64.4457-62.3119 64.9128-62.2312C65.8045-62.0783 66.692-61.9127 67.5836-61.7387C67.9488-61.6707 68.3225-61.5985 68.6792-61.4627C68.9566-61.3477 69.2145-61.19 69.4435-60.9956C69.643-60.8342 69.5878-60.4266 69.35-60.261C69.1887-60.1506 69.0104-60.1124 68.8405-60.0359C68.6027-59.934 68.3692-59.8236 68.1314-59.7132C67.9913-59.6495 67.8469-59.5859 67.7068-59.5349C67.6346-59.5094 67.5624-59.5222 67.4945-59.5222C67.469-59.5222 67.4393-59.5519 67.4223-59.5391C67.2822-59.4245 67.1505-59.3014 67.0147-59.1825C66.9934-59.1655 66.9637-59.14 66.9552-59.1485C66.8193-59.3396 66.7174-59.1315 66.5985-59.0933C66.3862-59.0211 66.1654-58.9956 65.9489-58.9447C65.8937-58.9277 65.8385-58.881 65.779-58.864C65.7153-58.847 65.6516-58.847 65.5837-58.8343C65.4478-58.8131 65.3162-58.8003 65.1846-58.7579C65.0402-58.7069 64.9043-58.605 64.76-58.5668C64.5816-58.5243 64.399-58.5371 64.2207-58.5031C63.9235-58.4479 63.6262-58.3715 63.329-58.3035L62.3099-58.0615C62.1401-58.019 61.9702-57.9511 61.8004-57.9171C61.6136-57.8747 61.4182-57.8747 61.2272-57.8322C61.0403-57.7855 60.8535-57.7048 60.6667-57.6539C60.6115-57.6411 60.5478-57.7218 60.4926-57.7133C60.3227-57.6963 60.1529-57.6454 59.983-57.6284C59.8089-57.6114 59.6306-57.6199 59.4523-57.6156C58.8812-57.5834 58.3334-57.3791 57.8812-57.0297C57.2552-56.6215 56.7181-56.0915 56.3016-55.4713C56.0384-55.0679 55.877-54.4947 55.6562-54.0149C55.4439-53.5478 55.5288-53.1232 55.6647-52.6689C55.8345-52.1296 55.9789-51.5776 56.1488-51.0426C56.2337-50.7921 56.3738-50.5883 56.4375-50.3292C56.5436-49.8961 56.6031-49.4333 56.6923-48.9917C56.8112-48.4397 56.9683-47.9089 57.0574-47.3527C57.2145-46.3761 57.2995-45.3909 57.2145-44.3803C57.1636-43.7689 57.1763-43.149 57.1424-42.5418C57.1169-42.1171 57.0404-41.6968 57.0065-41.2722C56.9725-40.8263 56.9725-40.372 56.93-39.9261C56.9088-39.6501 56.8451-39.3784 56.7984-39.1066C56.6753-38.4018 56.5649-37.6926 56.4332-36.9963C56.2209-35.8498 56.0001-34.7076 55.7581-33.5739C55.5968-32.8181 55.359-32.1005 55.2273-31.3319C55.0731-30.471 54.8774-29.6179 54.6414-28.7757C54.3951-27.8798 54.1403-26.9966 53.7157-26.262C53.5416-25.9648 53.444-25.5486 53.3166-25.1835C53.2911-25.1198 53.2741-25.0434 53.2401-24.9966C52.807-24.3894 52.3782-23.7738 51.9408-23.1793C51.4493-22.5059 50.9469-21.8403 50.4334-21.1836C49.9961-20.6274 49.5502-20.0796 49.0832-19.587C48.9048-19.419 48.6851-19.3015 48.4462-19.2474C47.9487-19.0658 47.4862-18.8001 47.079-18.4618C46.8879-18.3132 46.6544-18.292 46.4505-18.1816C46.1108-17.9947 45.7627-17.9141 45.4315-17.6296C44.8455-17.12 44.2171-16.7421 43.5419-16.6402C43.3254-16.6062 43.1088-16.5341 42.888-16.4789L42.8625-16.4746C42.4592-16.05 41.9878-16.3387 41.5547-16.1689C41.2787-16.0627 40.9985-16.0288 40.7182-15.9438C40.6503-15.9184 40.5781-15.8292 40.5229-15.7485C40.2724-15.4046 40.0134-15.0691 39.7883-14.687C39.4359-14.0925 39.1089-13.4598 38.7692-12.8442C38.1536-11.7147 37.5419-10.5767 36.9177-9.46422C36.6035-8.90373 36.2511-8.39419 35.9241-7.84643C35.7628-7.56619 35.6269-7.24348 35.4698-6.95474C35.2575-6.57259 35.007-6.23714 34.8329-5.82102C34.404-4.79345 34.0091-3.72342 33.593-2.67886C33.533-2.51928 33.45-2.36889 33.3467-2.23302C33.317-2.19905 33.2193-2.29671 33.1599-2.35616C33.1302-2.38163 33.1259-2.45806 33.0877-2.57271L33.092-2.57271Z"/>
   <path class="monochrome-1 multicolor-1:tintColor hierarchical-1:tertiary SFSymbolsPreviewWireframe" d="M44.3636-80.5865C50.0861-80.5876 55.7528-79.4613 61.04-77.272C66.3271-75.0826 71.1312-71.8729 75.1774-67.8265C79.2239-63.7803 82.4335-58.9764 84.6232-53.6889C86.8124-48.4015 87.9387-42.7349 87.9376-37.0127C87.9376-12.9352 68.432 6.58658 44.3638 6.58658C20.2909 6.58658 0.7645-12.9399 0.7645-37.0127C0.7645-61.0781 20.2877-80.5865 44.3636-80.5865ZM44.3638-78.3365C21.53-78.3365 3.0145-59.8351 3.0145-37.0127C3.0145-14.1825 21.5336 4.33658 44.3638 4.33658C67.1889 4.33658 85.6876-14.1774 85.6876-37.0129C85.6886-42.4398 84.6205-47.8138 82.5443-52.828C80.4678-57.8425 77.4239-62.3983 73.5865-66.2355C69.7491-70.073 65.1932-73.1168 60.1791-75.1931C55.1651-77.2695 49.791-78.3376 44.3638-78.3365Z"/>
  </g>
 </g>
</svg>
