<?xml version="1.0" encoding="UTF-8"?>
<!--Generator: Apple Native CoreSVG 341-->
<!DOCTYPE svg
PUBLIC "-//W3C//DTD SVG 1.1//EN"
       "http://www.w3.org/Graphics/SVG/1.1/DTD/svg11.dtd">
<svg version="1.1" xmlns="http://www.w3.org/2000/svg" xmlns:xlink="http://www.w3.org/1999/xlink" viewBox="0 0 3300 2200">
 <!--glyph: "", point size: 100.0, font version: "20.0d10e1", template writer version: "138.0.0"-->
 <style>.monochrome-0 {-sfsymbols-motion-group:1;-sfsymbols-layer-tags:5aee2ba2c12ca40a}
.monochrome-1 {-sfsymbols-motion-group:0;-sfsymbols-layer-tags:5aee2ba2c12ca40a}

.multicolor-0:tintColor {-sfsymbols-motion-group:1;-sfsymbols-layer-tags:5aee2ba2c12ca40a}
.multicolor-1:tintColor {-sfsymbols-motion-group:0;-sfsymbols-layer-tags:5aee2ba2c12ca40a}

.hierarchical-0:primary {-sfsymbols-motion-group:1;-sfsymbols-layer-tags:5aee2ba2c12ca40a}
.hierarchical-1:tertiary {-sfsymbols-motion-group:0;-sfsymbols-layer-tags:5aee2ba2c12ca40a}

.SFSymbolsPreviewWireframe {fill:none;opacity:1.0;stroke:black;stroke-width:0.5}
</style>
 <g id="Notes">
  <rect height="2200" id="artboard" style="fill:white;opacity:1" width="3300" x="0" y="0"/>
  <line style="fill:none;stroke:black;opacity:1;stroke-width:0.5;" x1="263" x2="3036" y1="292" y2="292"/>
  <text style="stroke:none;fill:black;font-family:sans-serif;font-size:13;font-weight:bold;" transform="matrix(1 0 0 1 263 322)">Weight/Scale Variations</text>
  <text style="stroke:none;fill:black;font-family:sans-serif;font-size:13;text-anchor:middle;" transform="matrix(1 0 0 1 559.711 322)">Ultralight</text>
  <text style="stroke:none;fill:black;font-family:sans-serif;font-size:13;text-anchor:middle;" transform="matrix(1 0 0 1 856.422 322)">Thin</text>
  <text style="stroke:none;fill:black;font-family:sans-serif;font-size:13;text-anchor:middle;" transform="matrix(1 0 0 1 1153.13 322)">Light</text>
  <text style="stroke:none;fill:black;font-family:sans-serif;font-size:13;text-anchor:middle;" transform="matrix(1 0 0 1 1449.84 322)">Regular</text>
  <text style="stroke:none;fill:black;font-family:sans-serif;font-size:13;text-anchor:middle;" transform="matrix(1 0 0 1 1746.56 322)">Medium</text>
  <text style="stroke:none;fill:black;font-family:sans-serif;font-size:13;text-anchor:middle;" transform="matrix(1 0 0 1 2043.27 322)">Semibold</text>
  <text style="stroke:none;fill:black;font-family:sans-serif;font-size:13;text-anchor:middle;" transform="matrix(1 0 0 1 2339.98 322)">Bold</text>
  <text style="stroke:none;fill:black;font-family:sans-serif;font-size:13;text-anchor:middle;" transform="matrix(1 0 0 1 2636.69 322)">Heavy</text>
  <text style="stroke:none;fill:black;font-family:sans-serif;font-size:13;text-anchor:middle;" transform="matrix(1 0 0 1 2933.4 322)">Black</text>
  <line style="fill:none;stroke:black;opacity:1;stroke-width:0.5;" x1="263" x2="3036" y1="1903" y2="1903"/>
  <g transform="matrix(0.2 0 0 0.2 263 1933)">
   <path d="m46.2402 4.15039c21.7773 0 39.4531-17.627 39.4531-39.4043s-17.6758-39.4043-39.4531-39.4043c-21.7285 0-39.4043 17.627-39.4043 39.4043s17.6758 39.4043 39.4043 39.4043Zm0-7.42188c-17.6758 0-31.9336-14.3066-31.9336-31.9824s14.2578-31.9824 31.9336-31.9824 31.9824 14.3066 31.9824 31.9824-14.3066 31.9824-31.9824 31.9824Zm-17.9688-31.9824c0 2.14844 1.51367 3.61328 3.75977 3.61328h10.498v10.5957c0 2.19727 1.46484 3.71094 3.61328 3.71094 2.24609 0 3.71094-1.51367 3.71094-3.71094v-10.5957h10.5957c2.19727 0 3.71094-1.46484 3.71094-3.61328 0-2.19727-1.51367-3.71094-3.71094-3.71094h-10.5957v-10.5469c0-2.24609-1.46484-3.75977-3.71094-3.75977-2.14844 0-3.61328 1.51367-3.61328 3.75977v10.5469h-10.498c-2.24609 0-3.75977 1.51367-3.75977 3.71094Z"/>
  </g>
  <g transform="matrix(0.2 0 0 0.2 281.506 1933)">
   <path d="m58.5449 14.5508c27.4902 0 49.8047-22.3145 49.8047-49.8047s-22.3145-49.8047-49.8047-49.8047-49.8047 22.3145-49.8047 49.8047 22.3145 49.8047 49.8047 49.8047Zm0-8.30078c-22.9492 0-41.5039-18.5547-41.5039-41.5039s18.5547-41.5039 41.5039-41.5039 41.5039 18.5547 41.5039 41.5039-18.5547 41.5039-41.5039 41.5039Zm-22.6562-41.5039c0 2.39258 1.66016 4.00391 4.15039 4.00391h14.3555v14.4043c0 2.44141 1.66016 4.15039 4.05273 4.15039 2.44141 0 4.15039-1.66016 4.15039-4.15039v-14.4043h14.4043c2.44141 0 4.15039-1.61133 4.15039-4.00391 0-2.44141-1.70898-4.15039-4.15039-4.15039h-14.4043v-14.3555c0-2.49023-1.70898-4.19922-4.15039-4.19922-2.39258 0-4.05273 1.70898-4.05273 4.19922v14.3555h-14.3555c-2.49023 0-4.15039 1.70898-4.15039 4.15039Z"/>
  </g>
  <g transform="matrix(0.2 0 0 0.2 304.924 1933)">
   <path d="m74.8535 28.3203c35.1074 0 63.623-28.4668 63.623-63.5742s-28.5156-63.623-63.623-63.623-63.5742 28.5156-63.5742 63.623 28.4668 63.5742 63.5742 63.5742Zm0-9.08203c-30.127 0-54.4922-24.3652-54.4922-54.4922s24.3652-54.4922 54.4922-54.4922 54.4922 24.3652 54.4922 54.4922-24.3652 54.4922-54.4922 54.4922Zm-28.8574-54.4922c0 2.58789 1.85547 4.39453 4.58984 4.39453h19.7266v19.7754c0 2.68555 1.85547 4.58984 4.44336 4.58984 2.68555 0 4.54102-1.85547 4.54102-4.58984v-19.7754h19.7754c2.68555 0 4.58984-1.80664 4.58984-4.39453 0-2.73438-1.85547-4.58984-4.58984-4.58984h-19.7754v-19.7266c0-2.73438-1.85547-4.63867-4.54102-4.63867-2.58789 0-4.44336 1.9043-4.44336 4.63867v19.7266h-19.7266c-2.73438 0-4.58984 1.85547-4.58984 4.58984Z"/>
  </g>
  <text style="stroke:none;fill:black;font-family:sans-serif;font-size:13;font-weight:bold;" transform="matrix(1 0 0 1 263 1953)">Design Variations</text>
  <text style="stroke:none;fill:black;font-family:sans-serif;font-size:13;" transform="matrix(1 0 0 1 263 1971)">Symbols are supported in up to nine weights and three scales.</text>
  <text style="stroke:none;fill:black;font-family:sans-serif;font-size:13;" transform="matrix(1 0 0 1 263 1989)">For optimal layout with text and other symbols, vertically align</text>
  <text style="stroke:none;fill:black;font-family:sans-serif;font-size:13;" transform="matrix(1 0 0 1 263 2007)">symbols with the adjacent text.</text>
  <line style="fill:none;stroke:#00AEEF;stroke-width:0.5;opacity:1.0;" x1="776" x2="776" y1="1919" y2="1933"/>
  <g transform="matrix(0.2 0 0 0.2 776 1933)">
   <path d="m16.5527 0.78125c2.58789 0 3.85742-0.976562 4.78516-3.71094l6.29883-17.2363h28.8086l6.29883 17.2363c0.927734 2.73438 2.19727 3.71094 4.73633 3.71094 2.58789 0 4.24805-1.5625 4.24805-4.00391 0-0.830078-0.146484-1.61133-0.537109-2.63672l-22.9004-60.9863c-1.12305-2.97852-3.125-4.49219-6.25-4.49219-3.02734 0-5.07812 1.46484-6.15234 4.44336l-22.9004 61.084c-0.390625 1.02539-0.537109 1.80664-0.537109 2.63672 0 2.44141 1.5625 3.95508 4.10156 3.95508Zm13.4766-28.3691 11.8652-32.8613h0.244141l11.8652 32.8613Z"/>
  </g>
  <line style="fill:none;stroke:#00AEEF;stroke-width:0.5;opacity:1.0;" x1="792.836" x2="792.836" y1="1919" y2="1933"/>
  <text style="stroke:none;fill:black;font-family:sans-serif;font-size:13;font-weight:bold;" transform="matrix(1 0 0 1 776 1953)">Margins</text>
  <text style="stroke:none;fill:black;font-family:sans-serif;font-size:13;" transform="matrix(1 0 0 1 776 1971)">Leading and trailing margins on the left and right side of each symbol</text>
  <text style="stroke:none;fill:black;font-family:sans-serif;font-size:13;" transform="matrix(1 0 0 1 776 1989)">can be adjusted by modifying the x-location of the margin guidelines.</text>
  <text style="stroke:none;fill:black;font-family:sans-serif;font-size:13;" transform="matrix(1 0 0 1 776 2007)">Modifications are automatically applied proportionally to all</text>
  <text style="stroke:none;fill:black;font-family:sans-serif;font-size:13;" transform="matrix(1 0 0 1 776 2025)">scales and weights.</text>
  <g transform="matrix(0.2 0 0 0.2 1289 1933)">
   <path d="m14.209 9.32617 8.49609 8.54492c4.29688 4.3457 9.22852 4.05273 13.8672-1.07422l53.4668-58.9355-4.83398-4.88281-53.0762 58.3984c-1.75781 2.00195-3.41797 2.49023-5.76172 0.146484l-5.85938-5.81055c-2.34375-2.29492-1.80664-4.00391 0.195312-5.81055l57.373-54.0039-4.88281-4.83398-57.959 54.4434c-4.93164 4.58984-5.32227 9.47266-1.02539 13.8184Zm32.0801-90.9668c-2.09961 2.05078-2.24609 4.93164-1.07422 6.88477 1.17188 1.80664 3.4668 2.97852 6.68945 2.14844 7.32422-1.70898 14.9414-2.00195 22.0703 2.68555l-2.92969 7.27539c-1.70898 4.15039-0.830078 7.08008 1.85547 9.81445l11.4746 11.5723c2.44141 2.44141 4.49219 2.53906 7.32422 2.05078l5.32227-0.976562 3.32031 3.36914-0.195312 2.7832c-0.195312 2.49023 0.439453 4.39453 2.88086 6.78711l3.80859 3.71094c2.39258 2.39258 5.46875 2.53906 7.8125 0.195312l14.5508-14.5996c2.34375-2.34375 2.24609-5.32227-0.146484-7.71484l-3.85742-3.80859c-2.39258-2.39258-4.24805-3.17383-6.64062-2.97852l-2.88086 0.244141-3.22266-3.17383 1.2207-5.61523c0.634766-2.83203-0.146484-5.0293-3.07617-7.95898l-10.9863-10.9375c-16.6992-16.6016-38.8672-16.2109-53.3203-1.75781Zm7.4707 1.85547c12.1582-8.88672 28.6133-7.37305 39.7461 3.75977l12.1582 12.0605c1.17188 1.17188 1.36719 2.09961 1.02539 3.80859l-1.61133 7.42188 7.51953 7.42188 4.93164-0.292969c1.26953-0.0488281 1.66016 0.0488281 2.63672 1.02539l2.88086 2.88086-12.207 12.207-2.88086-2.88086c-0.976562-0.976562-1.12305-1.36719-1.07422-2.68555l0.341797-4.88281-7.4707-7.42188-7.61719 1.26953c-1.61133 0.341797-2.34375 0.195312-3.56445-0.976562l-10.0098-10.0098c-1.26953-1.17188-1.41602-2.00195-0.634766-3.85742l4.39453-10.4492c-7.8125-7.27539-17.9688-10.4004-28.125-7.42188-0.78125 0.195312-1.07422-0.439453-0.439453-0.976562Z"/>
  </g>
  <text style="stroke:none;fill:black;font-family:sans-serif;font-size:13;font-weight:bold;" transform="matrix(1 0 0 1 1289 1953)">Exporting</text>
  <text style="stroke:none;fill:black;font-family:sans-serif;font-size:13;" transform="matrix(1 0 0 1 1289 1971)">Symbols should be outlined when exporting to ensure the</text>
  <text style="stroke:none;fill:black;font-family:sans-serif;font-size:13;" transform="matrix(1 0 0 1 1289 1989)">design is preserved when submitting to Xcode.</text>
  <text id="template-version" style="stroke:none;fill:black;font-family:sans-serif;font-size:13;text-anchor:end;" transform="matrix(1 0 0 1 3036 1933)">Template v.6.0</text>
  <text style="stroke:none;fill:black;font-family:sans-serif;font-size:13;text-anchor:end;" transform="matrix(1 0 0 1 3036 1951)">Requires Xcode 16 or greater</text>
  <text id="descriptive-name" style="stroke:none;fill:black;font-family:sans-serif;font-size:13;text-anchor:end;" transform="matrix(1 0 0 1 3036 1969)">Generated from filternahrung-6</text>
  <text style="stroke:none;fill:black;font-family:sans-serif;font-size:13;text-anchor:end;" transform="matrix(1 0 0 1 3036 1987)">Typeset at 100.0 points</text>
  <text style="stroke:none;fill:black;font-family:sans-serif;font-size:13;" transform="matrix(1 0 0 1 263 726)">Small</text>
  <text style="stroke:none;fill:black;font-family:sans-serif;font-size:13;" transform="matrix(1 0 0 1 263 1156)">Medium</text>
  <text style="stroke:none;fill:black;font-family:sans-serif;font-size:13;" transform="matrix(1 0 0 1 263 1586)">Large</text>
 </g>
 <g id="Guides">
  <g id="H-reference" style="fill:#27AAE1;stroke:none;" transform="matrix(1 0 0 1 339 696)">
   <path d="M0.993654 0L3.63775 0L29.3281-67.1323L30.0303-67.1323L30.0303-70.459L28.1226-70.459ZM11.6885-24.4799L46.9815-24.4799L46.2315-26.7285L12.4385-26.7285ZM55.1196 0L57.7637 0L30.6382-70.459L29.4326-70.459L29.4326-67.1323Z"/>
  </g>
  <line id="Baseline-S" style="fill:none;stroke:#27AAE1;opacity:1;stroke-width:0.5;" x1="263" x2="3036" y1="696" y2="696"/>
  <line id="Capline-S" style="fill:none;stroke:#27AAE1;opacity:1;stroke-width:0.5;" x1="263" x2="3036" y1="625.541" y2="625.541"/>
  <g id="H-reference" style="fill:#27AAE1;stroke:none;" transform="matrix(1 0 0 1 339 1126)">
   <path d="M0.993654 0L3.63775 0L29.3281-67.1323L30.0303-67.1323L30.0303-70.459L28.1226-70.459ZM11.6885-24.4799L46.9815-24.4799L46.2315-26.7285L12.4385-26.7285ZM55.1196 0L57.7637 0L30.6382-70.459L29.4326-70.459L29.4326-67.1323Z"/>
  </g>
  <line id="Baseline-M" style="fill:none;stroke:#27AAE1;opacity:1;stroke-width:0.5;" x1="263" x2="3036" y1="1126" y2="1126"/>
  <line id="Capline-M" style="fill:none;stroke:#27AAE1;opacity:1;stroke-width:0.5;" x1="263" x2="3036" y1="1055.54" y2="1055.54"/>
  <g id="H-reference" style="fill:#27AAE1;stroke:none;" transform="matrix(1 0 0 1 339 1556)">
   <path d="M0.993654 0L3.63775 0L29.3281-67.1323L30.0303-67.1323L30.0303-70.459L28.1226-70.459ZM11.6885-24.4799L46.9815-24.4799L46.2315-26.7285L12.4385-26.7285ZM55.1196 0L57.7637 0L30.6382-70.459L29.4326-70.459L29.4326-67.1323Z"/>
  </g>
  <line id="Baseline-L" style="fill:none;stroke:#27AAE1;opacity:1;stroke-width:0.5;" x1="263" x2="3036" y1="1556" y2="1556"/>
  <line id="Capline-L" style="fill:none;stroke:#27AAE1;opacity:1;stroke-width:0.5;" x1="263" x2="3036" y1="1485.54" y2="1485.54"/>
  <line id="right-margin-Black-S" style="fill:none;stroke:#00AEEF;stroke-width:0.5;opacity:1.0;" x1="2982.23" x2="2982.23" y1="600.785" y2="720.121"/>
  <line id="left-margin-Black-S" style="fill:none;stroke:#00AEEF;stroke-width:0.5;opacity:1.0;" x1="2884.57" x2="2884.57" y1="600.785" y2="720.121"/>
  <line id="right-margin-Regular-S" style="fill:none;stroke:#00AEEF;stroke-width:0.5;opacity:1.0;" x1="1496.11" x2="1496.11" y1="600.785" y2="720.121"/>
  <line id="left-margin-Regular-S" style="fill:none;stroke:#00AEEF;stroke-width:0.5;opacity:1.0;" x1="1403.58" x2="1403.58" y1="600.785" y2="720.121"/>
  <line id="right-margin-Ultralight-S" style="fill:none;stroke:#00AEEF;stroke-width:0.5;opacity:1.0;" x1="603.773" x2="603.773" y1="600.785" y2="720.121"/>
  <line id="left-margin-Ultralight-S" style="fill:none;stroke:#00AEEF;stroke-width:0.5;opacity:1.0;" x1="515.649" x2="515.649" y1="600.785" y2="720.121"/>
 </g>
 <g id="Symbols">
  <g id="Black-S" transform="matrix(1 0 0 1 2884.57 696)">
   <path class="monochrome-0 multicolor-0:tintColor hierarchical-0:primary SFSymbolsPreviewWireframe" d="M71.9685-35.8326L71.3868-32.3422C72.5138-32.1543 73.6623-32.5223 74.4705-33.3305C75.2787-34.1383 75.6467-35.2869 75.4588-36.4143L71.9685-35.8326ZM55.0914-47.7054C56.4732-46.3236 58.7138-46.3236 60.0955-47.7054C61.4773-49.0873 61.4773-51.3277 60.0955-52.7096L55.0914-47.7054ZM71.9685-35.8326C75.4588-36.4143 75.4585-36.4153 75.4585-36.4164C75.4585-36.4168 75.4581-36.4178 75.4581-36.4189C75.4578-36.421 75.4571-36.4238 75.4567-36.427C75.4556-36.4334 75.4542-36.4419 75.4525-36.4521C75.4489-36.4734 75.4436-36.5024 75.4372-36.5395C75.4245-36.6135 75.4057-36.7193 75.381-36.8538C75.3318-37.1227 75.2589-37.508 75.1612-37.9889C74.967-38.9496 74.6736-40.2984 74.2752-41.8688C73.4861-44.9783 72.2519-49.0904 70.4944-52.8004C68.8231-56.3288 66.3126-60.3011 62.5671-62.0752C60.546-63.0327 58.264-63.2994 55.8749-62.6255C53.5738-61.9765 51.4054-60.5237 49.3414-58.4596L54.3455-53.4554C55.8752-54.985 57.0312-55.5986 57.7959-55.8143C58.4724-56.0051 58.9983-55.9349 59.5375-55.6795C60.9133-55.0279 62.5357-53.0704 64.0986-49.7708C65.5759-46.6527 66.6774-43.0383 67.4155-40.1282C67.7807-38.6888 68.0489-37.4546 68.2251-36.5848C68.3133-36.1503 68.3777-35.8085 68.4198-35.5792C68.4406-35.4646 68.4562-35.3782 68.4658-35.3227C68.4707-35.2947 68.4739-35.2745 68.476-35.2625C68.4771-35.2565 68.4778-35.2526 68.4781-35.2505C68.4785-35.2494 68.4785-35.2491 68.4785-35.2491C68.4785-35.2491 68.4785-35.2494 68.4785-35.2494C68.4781-35.2501 68.4781-35.2508 71.9685-35.8326ZM49.3414-58.4596C47.2771-56.3954 45.8246-54.2272 45.1756-51.9261C44.5015-49.5368 44.7683-47.2551 45.7258-45.2338C47.5-41.4884 51.4719-38.9779 55.0005-37.3067C58.7106-35.5491 62.8226-34.3149 65.9322-33.5258C67.5026-33.1274 68.8511-32.8341 69.8118-32.6394C70.293-32.5421 70.678-32.4692 70.9473-32.4201C71.0817-32.3953 71.1872-32.3765 71.2615-32.3638C71.2983-32.3571 71.3277-32.3521 71.3485-32.3486C71.3592-32.3468 71.3677-32.3454 71.374-32.3443C71.3772-32.3436 71.3797-32.3433 71.3818-32.3429C71.3829-32.3429 71.3843-32.3426 71.3846-32.3426C71.3857-32.3422 71.3868-32.3422 71.9685-35.8326C72.5502-39.3229 72.5509-39.3225 72.5513-39.3225C72.5513-39.3225 72.552-39.3225 72.552-39.3225C72.552-39.3225 72.5513-39.3225 72.5506-39.3229C72.5484-39.3232 72.5445-39.324 72.5385-39.3247C72.5261-39.3268 72.5063-39.3303 72.4784-39.3353C72.4228-39.3448 72.3365-39.36 72.2218-39.3813C71.9925-39.423 71.6507-39.4878 71.2162-39.5759C70.3465-39.7518 69.1119-40.02 67.6728-40.3855C64.7628-41.1236 61.1482-42.2251 58.0301-43.7021C54.7305-45.2652 52.773-46.8876 52.1213-48.2633C51.8661-48.8025 51.7957-49.3285 51.9868-50.005C52.2023-50.7698 52.8159-51.9258 54.3455-53.4554L49.3414-58.4596ZM49.3414-53.4554L55.0914-47.7054L60.0955-52.7096L54.3455-58.4596L49.3414-53.4554ZM25.9685-12.2034L22.4765-12.7752C22.2904-11.6383 22.6694-10.482 23.4923-9.67589C24.3153-8.86983 25.4791-8.51457 26.6119-8.72405L25.9685-12.2034ZM37.8414-29.7096C36.4596-28.3278 36.4596-26.0873 37.8414-24.7055C39.2232-23.3237 41.4638-23.3237 42.8455-24.7055L37.8414-29.7096ZM25.9685-12.2034C26.6119-8.72405 26.6128-8.7244 26.6139-8.7244C26.6144-8.7244 26.6156-8.72475 26.6167-8.72511C26.6189-8.72546 26.6215-8.72582 26.6247-8.72652C26.6311-8.72758 26.6396-8.72935 26.65-8.73112C26.671-8.73502 26.7002-8.74068 26.7373-8.74775C26.8114-8.76226 26.9171-8.78278 27.0517-8.81003C27.3208-8.86417 27.7062-8.94449 28.1872-9.05065C29.1482-9.26331 30.497-9.58248 32.0674-10.0117C35.1778-10.8616 39.2887-12.1794 42.9956-14.0208C46.5319-15.7773 50.4713-18.3773 52.2242-22.1635C53.1665-24.1981 53.4337-26.4889 52.7642-28.8894C52.1177-31.2074 50.6666-33.3889 48.5955-35.4596L43.5914-30.4555C45.1144-28.9326 45.7294-27.7698 45.9477-26.9878C46.143-26.2879 46.0733-25.7221 45.8023-25.1372C45.1296-23.6843 43.1396-21.9943 39.8474-20.3589C36.7265-18.8087 33.1108-17.6332 30.2016-16.8381C28.7623-16.4446 27.5281-16.153 26.6585-15.9606C26.2242-15.8647 25.8824-15.7935 25.6532-15.7475C25.5386-15.7242 25.4523-15.7076 25.3968-15.6966C25.369-15.6913 25.3489-15.6874 25.3369-15.6853C25.3309-15.6842 25.3269-15.6835 25.3249-15.6831C25.3239-15.6828 25.3235-15.6828 25.3235-15.6828C25.3235-15.6828 25.3239-15.6828 25.324-15.6828C25.3245-15.6828 25.3252-15.6831 25.9685-12.2034ZM48.5955-35.4596C46.5277-37.5275 44.3476-38.9797 42.0267-39.6084C39.6139-40.2616 37.3231-39.9478 35.3104-38.9482C31.5897-37.1 29.0956-33.0563 27.4295-29.458C25.6777-25.6747 24.4459-21.489 23.6579-18.3225C23.26-16.7238 22.9672-15.3516 22.7731-14.3746C22.6759-13.8856 22.6031-13.4939 22.554-13.2207C22.5294-13.0841 22.5107-12.9769 22.4979-12.9016C22.4914-12.864 22.4864-12.8347 22.4829-12.8134C22.4811-12.8028 22.4797-12.7943 22.4786-12.788C22.4781-12.7848 22.4777-12.782 22.4773-12.7798C22.4772-12.7788 22.4769-12.7777 22.4769-12.777C22.4769-12.7759 22.4765-12.7752 25.9685-12.2034C29.4605-11.632 29.4604-11.6312 29.4603-11.6309C29.4603-11.6309 29.4603-11.6305 29.4603-11.6305C29.4603-11.6305 29.4603-11.6309 29.4605-11.632C29.4609-11.6341 29.4615-11.6383 29.4626-11.6443C29.4647-11.6571 29.4682-11.6776 29.473-11.7059C29.4828-11.7629 29.4982-11.8513 29.5192-11.9685C29.5614-12.2027 29.6262-12.552 29.7143-12.9953C29.8907-13.8831 30.1595-15.1432 30.5253-16.6134C31.2646-19.5843 32.3688-23.2823 33.8514-26.4843C35.4196-29.8713 37.0584-31.9144 38.4585-32.6101C39.0067-32.8822 39.5233-32.9544 40.1765-32.7774C40.9213-32.5758 42.0657-31.9813 43.5914-30.4555L48.5955-35.4596ZM43.5914-35.4596L37.8414-29.7096L42.8455-24.7055L48.5955-30.4555L43.5914-35.4596ZM62.1737-25.502C67.2004-30.5284 70.0598-23.2763 71.2718-18.7945C72.4837-14.3127 68.7032-16.4528 68.7032-16.4528C68.7032-16.4528 57.2135-20.5418 62.1737-25.502ZM35.5285-54.7146C40.5551-49.6882 33.3029-46.8285 28.821-45.6167C24.3391-44.4048 26.4792-48.1852 26.4792-48.1852C26.4792-48.1852 30.5681-59.6751 35.5285-54.7146Z"/>
   <path class="monochrome-1 multicolor-1:tintColor hierarchical-1:tertiary SFSymbolsPreviewWireframe" d="M48.9411-84C55.3091-84.0013 61.615-82.7479 67.4985-80.3116C73.382-77.8752 78.7279-74.3036 83.2305-69.8009C87.7334-65.2983 91.305-59.9524 93.7418-54.0682C96.1779-48.1846 97.4312-41.8789 97.43-35.5124C97.43-8.72255 75.7254 13 48.9424 13C22.156 13 0.43-8.726 0.43-35.5124C0.43-62.2926 22.1539-84 48.9411-84ZM48.9424-70C29.8835-70 14.43-54.5582 14.43-35.5124C14.43-16.458 29.888-0.999999 48.9424-0.999999C67.9909-0.999999 83.43-16.4519 83.43-35.5138C83.4309-40.0428 82.5395-44.5276 80.8069-48.7121C79.0739-52.8969 76.5337-56.6989 73.3311-59.9013C70.1287-63.1038 66.3266-65.644 62.1422-67.3767C57.9578-69.1095 53.4729-70.0009 48.9424-70Z"/>
  </g>
  <g id="Regular-S" transform="matrix(1 0 0 1 1403.58 696)">
   <path class="monochrome-0 multicolor-0:tintColor hierarchical-0:primary SFSymbolsPreviewWireframe" d="M71.6508-37.3562L71.0691-33.8658C72.1961-33.6779 73.3446-34.0459 74.1528-34.8541C74.961-35.6619 75.329-36.8105 75.1411-37.9379L71.6508-37.3562ZM54.7737-49.229C56.1555-47.8472 58.3961-47.8472 59.7778-49.229C61.1596-50.6109 61.1596-52.8513 59.7778-54.2332L54.7737-49.229ZM71.6508-37.3562C75.1411-37.9379 75.1408-37.9389 75.1408-37.94C75.1408-37.9404 75.1404-37.9414 75.1404-37.9425C75.1401-37.9446 75.1394-37.9474 75.139-37.9506C75.1379-37.957 75.1365-37.9655 75.1348-37.9757C75.1312-37.997 75.1259-38.026 75.1195-38.0631C75.1068-38.1371 75.088-38.2429 75.0633-38.3774C75.0141-38.6463 74.9412-39.0316 74.8435-39.5125C74.6493-40.4732 74.3559-41.822 73.9575-43.3924C73.1684-46.5019 71.9342-50.614 70.1767-54.324C68.5054-57.8524 65.9949-61.8247 62.2494-63.5988C60.2283-64.5563 57.9463-64.823 55.5572-64.1491C53.2561-63.5001 51.0877-62.0473 49.0237-59.9832L54.0278-54.979C55.5575-56.5086 56.7135-57.1222 57.4782-57.3379C58.1547-57.5287 58.6806-57.4585 59.2198-57.2031C60.5956-56.5515 62.218-54.594 63.7809-51.2944C65.2582-48.1763 66.3597-44.5619 67.0978-41.6518C67.463-40.2124 67.7312-38.9782 67.9074-38.1084C67.9956-37.6739 68.06-37.3321 68.1021-37.1028C68.1229-36.9882 68.1385-36.9018 68.1481-36.8463C68.153-36.8183 68.1562-36.7981 68.1583-36.7861C68.1594-36.7801 68.1601-36.7762 68.1604-36.7741C68.1608-36.773 68.1608-36.7727 68.1608-36.7727C68.1608-36.7727 68.1608-36.773 68.1608-36.773C68.1604-36.7737 68.1604-36.7744 71.6508-37.3562ZM49.0237-59.9832C46.9594-57.919 45.5069-55.7508 44.8579-53.4497C44.1838-51.0604 44.4506-48.7787 45.4081-46.7574C47.1823-43.012 51.1542-40.5015 54.6828-38.8303C58.3929-37.0727 62.5049-35.8385 65.6145-35.0494C67.1849-34.651 68.5334-34.3577 69.4941-34.163C69.9753-34.0657 70.3603-33.9928 70.6296-33.9437C70.764-33.9189 70.8695-33.9001 70.9438-33.8874C70.9806-33.8807 71.01-33.8757 71.0308-33.8722C71.0415-33.8704 71.05-33.869 71.0563-33.8679C71.0595-33.8672 71.062-33.8669 71.0641-33.8665C71.0652-33.8665 71.0666-33.8662 71.0669-33.8662C71.068-33.8658 71.0691-33.8658 71.6508-37.3562C72.2325-40.8465 72.2332-40.8461 72.2336-40.8461C72.2336-40.8461 72.2343-40.8461 72.2343-40.8461C72.2343-40.8461 72.2336-40.8461 72.2329-40.8465C72.2307-40.8468 72.2268-40.8476 72.2208-40.8483C72.2084-40.8504 72.1886-40.8539 72.1607-40.8589C72.1051-40.8684 72.0188-40.8836 71.9041-40.9049C71.6748-40.9466 71.333-41.0114 70.8985-41.0995C70.0288-41.2754 68.7942-41.5436 67.3551-41.9091C64.4451-42.6472 60.8305-43.7487 57.7124-45.2257C54.4128-46.7888 52.4553-48.4112 51.8036-49.7869C51.5484-50.3261 51.478-50.8521 51.6691-51.5286C51.8846-52.2934 52.4982-53.4494 54.0278-54.979L49.0237-59.9832ZM49.0237-54.979L54.7737-49.229L59.7778-54.2332L54.0278-59.9832L49.0237-54.979ZM25.6508-13.727L22.1588-14.2988C21.9727-13.1619 22.3517-12.0056 23.1746-11.1995C23.9976-10.3934 25.1614-10.0382 26.2942-10.2476L25.6508-13.727ZM37.5237-31.2332C36.1419-29.8514 36.1419-27.6109 37.5237-26.2291C38.9055-24.8473 41.1461-24.8473 42.5278-26.2291L37.5237-31.2332ZM25.6508-13.727C26.2942-10.2476 26.2951-10.248 26.2962-10.248C26.2967-10.248 26.2979-10.2484 26.299-10.2487C26.3012-10.2491 26.3038-10.2494 26.307-10.2501C26.3134-10.2512 26.3219-10.253 26.3323-10.2547C26.3533-10.2586 26.3825-10.2643 26.4196-10.2714C26.4937-10.2859 26.5994-10.3064 26.734-10.3336C27.0031-10.3878 27.3885-10.4681 27.8695-10.5742C28.8305-10.7869 30.1793-11.1061 31.7497-11.5353C34.8601-12.3852 38.971-13.703 42.6779-15.5444C46.2142-17.3009 50.1536-19.9009 51.9065-23.6871C52.8488-25.7217 53.116-28.0125 52.4465-30.413C51.8-32.731 50.3489-34.9125 48.2778-36.9832L43.2737-31.9791C44.7967-30.4562 45.4117-29.2934 45.63-28.5114C45.8253-27.8115 45.7556-27.2457 45.4846-26.6608C44.8119-25.2079 42.8219-23.5179 39.5297-21.8825C36.4088-20.3323 32.7931-19.1568 29.8839-18.3617C28.4446-17.9682 27.2104-17.6766 26.3408-17.4842C25.9065-17.3883 25.5647-17.3171 25.3355-17.2711C25.2209-17.2478 25.1346-17.2312 25.0791-17.2202C25.0513-17.2149 25.0312-17.211 25.0192-17.2089C25.0132-17.2078 25.0092-17.2071 25.0072-17.2067C25.0062-17.2064 25.0058-17.2064 25.0058-17.2064C25.0058-17.2064 25.0062-17.2064 25.0063-17.2064C25.0068-17.2064 25.0075-17.2067 25.6508-13.727ZM48.2778-36.9832C46.21-39.0511 44.0299-40.5033 41.709-41.132C39.2962-41.7852 37.0054-41.4714 34.9927-40.4718C31.272-38.6236 28.7779-34.5799 27.1118-30.9816C25.36-27.1983 24.1282-23.0126 23.3402-19.8461C22.9423-18.2474 22.6495-16.8752 22.4554-15.8982C22.3582-15.4092 22.2854-15.0175 22.2363-14.7443C22.2117-14.6077 22.193-14.5005 22.1802-14.4252C22.1737-14.3876 22.1687-14.3583 22.1652-14.337C22.1634-14.3264 22.162-14.3179 22.1609-14.3116C22.1604-14.3084 22.16-14.3056 22.1596-14.3034C22.1595-14.3024 22.1592-14.3013 22.1592-14.3006C22.1592-14.2995 22.1588-14.2988 25.6508-13.727C29.1428-13.1556 29.1427-13.1548 29.1426-13.1545C29.1426-13.1545 29.1426-13.1541 29.1426-13.1541C29.1426-13.1541 29.1426-13.1545 29.1428-13.1556C29.1432-13.1577 29.1438-13.1619 29.1449-13.1679C29.147-13.1807 29.1505-13.2012 29.1553-13.2295C29.1651-13.2865 29.1805-13.3749 29.2015-13.4921C29.2437-13.7263 29.3085-14.0756 29.3966-14.5189C29.573-15.4067 29.8418-16.6668 30.2076-18.137C30.9469-21.1079 32.0511-24.8059 33.5337-28.0079C35.1019-31.3949 36.7407-33.438 38.1408-34.1337C38.689-34.4058 39.2056-34.478 39.8588-34.301C40.6036-34.0994 41.748-33.5049 43.2737-31.9791L48.2778-36.9832ZM43.2737-36.9832L37.5237-31.2332L42.5278-26.2291L48.2778-31.9791L43.2737-36.9832ZM61.856-27.0256C66.8827-32.052 69.7421-24.7999 70.9541-20.3181C72.166-15.8363 68.3855-17.9764 68.3855-17.9764C68.3855-17.9764 56.8958-22.0654 61.856-27.0256ZM35.2108-56.2382C40.2374-51.2118 32.9852-48.3521 28.5033-47.1403C24.0214-45.9284 26.1615-49.7088 26.1615-49.7088C26.1615-49.7088 30.2504-61.1987 35.2108-56.2382Z"/>
   <path class="monochrome-1 multicolor-1:tintColor hierarchical-1:tertiary SFSymbolsPreviewWireframe" d="M46.4321-81.8365C52.4502-81.8377 58.4096-80.6532 63.9698-78.3508C69.53-76.0483 74.5822-72.6729 78.8374-68.4176C83.0928-64.1624 86.4682-59.1103 88.771-53.5496C91.0733-47.9892 92.2577-42.03 92.2566-36.0127C92.2566-10.693 71.744 9.83658 46.4328 9.83658C21.1173 9.83658 0.5835-10.6972 0.5835-36.0127C0.5835-61.3211 21.1145-81.8365 46.4321-81.8365ZM46.4328-75.0865C24.8413-75.0865 7.3335-57.592 7.3335-36.0127C7.3335-14.4252 24.8452 3.08658 46.4328 3.08658C68.0148 3.08658 85.5066-14.4197 85.5066-36.0133C85.5076-41.1447 84.4976-46.226 82.5345-50.9672C80.571-55.7085 77.693-60.0162 74.0644-63.6446C70.4361-67.273 66.1283-70.1511 61.3873-72.1143C56.6463-74.0776 51.5649-75.0875 46.4328-75.0865Z"/>
  </g>
  <g id="Ultralight-S" transform="matrix(1 0 0 1 515.649 696)">
   <path class="monochrome-0 multicolor-0:tintColor hierarchical-0:primary SFSymbolsPreviewWireframe" d="M66.8895-36.8326L66.3078-33.3422C67.4348-33.1543 68.5833-33.5223 69.3915-34.3305C70.1997-35.1383 70.5677-36.2869 70.3798-37.4143L66.8895-36.8326ZM50.0124-48.7054C51.3942-47.3236 53.6348-47.3236 55.0165-48.7054C56.3983-50.0873 56.3983-52.3277 55.0165-53.7096L50.0124-48.7054ZM66.8895-36.8326C70.3798-37.4143 70.3795-37.4153 70.3795-37.4164C70.3795-37.4168 70.3791-37.4178 70.3791-37.4189C70.3788-37.421 70.3781-37.4238 70.3777-37.427C70.3766-37.4334 70.3752-37.4419 70.3735-37.4521C70.3699-37.4734 70.3646-37.5024 70.3582-37.5395C70.3455-37.6135 70.3267-37.7193 70.302-37.8538C70.2528-38.1227 70.1799-38.508 70.0822-38.9889C69.888-39.9496 69.5946-41.2984 69.1962-42.8688C68.4071-45.9783 67.1729-50.0904 65.4154-53.8004C63.7441-57.3288 61.2336-61.3011 57.4881-63.0752C55.467-64.0327 53.185-64.2994 50.7959-63.6255C48.4948-62.9765 46.3264-61.5237 44.2624-59.4596L49.2665-54.4554C50.7962-55.985 51.9522-56.5986 52.7169-56.8143C53.3934-57.0051 53.9193-56.9349 54.4585-56.6795C55.8343-56.0279 57.4567-54.0704 59.0196-50.7708C60.4969-47.6527 61.5984-44.0383 62.3365-41.1282C62.7017-39.6888 62.9699-38.4546 63.1461-37.5848C63.2343-37.1503 63.2987-36.8085 63.3408-36.5792C63.3616-36.4646 63.3772-36.3782 63.3868-36.3227C63.3917-36.2947 63.3949-36.2745 63.397-36.2625C63.3981-36.2565 63.3988-36.2526 63.3991-36.2505C63.3995-36.2494 63.3995-36.2491 63.3995-36.2491C63.3995-36.2491 63.3995-36.2494 63.3995-36.2494C63.3991-36.2501 63.3991-36.2508 66.8895-36.8326ZM44.2624-59.4596C42.1981-57.3954 40.7456-55.2272 40.0966-52.9261C39.4225-50.5368 39.6893-48.2551 40.6468-46.2338C42.421-42.4884 46.3929-39.9779 49.9215-38.3067C53.6316-36.5491 57.7436-35.3149 60.8532-34.5258C62.4236-34.1274 63.7721-33.8341 64.7328-33.6394C65.214-33.5421 65.599-33.4692 65.8683-33.4201C66.0027-33.3953 66.1082-33.3765 66.1825-33.3638C66.2193-33.3571 66.2487-33.3521 66.2695-33.3486C66.2802-33.3468 66.2887-33.3454 66.295-33.3443C66.2982-33.3436 66.3007-33.3433 66.3028-33.3429C66.3039-33.3429 66.3053-33.3426 66.3056-33.3426C66.3067-33.3422 66.3078-33.3422 66.8895-36.8326C67.4712-40.3229 67.4719-40.3225 67.4723-40.3225C67.4723-40.3225 67.473-40.3225 67.473-40.3225C67.473-40.3225 67.4723-40.3225 67.4716-40.3229C67.4694-40.3232 67.4655-40.324 67.4595-40.3247C67.4471-40.3268 67.4273-40.3303 67.3994-40.3353C67.3438-40.3448 67.2575-40.36 67.1428-40.3813C66.9135-40.423 66.5717-40.4878 66.1372-40.5759C65.2675-40.7518 64.0329-41.02 62.5938-41.3855C59.6838-42.1236 56.0692-43.2251 52.9511-44.7021C49.6515-46.2652 47.694-47.8876 47.0423-49.2633C46.7871-49.8025 46.7167-50.3285 46.9078-51.005C47.1233-51.7698 47.7369-52.9258 49.2665-54.4554L44.2624-59.4596ZM44.2624-54.4554L50.0124-48.7054L55.0165-53.7096L49.2665-59.4596L44.2624-54.4554ZM20.8895-13.2034L17.3975-13.7752C17.2114-12.6383 17.5904-11.482 18.4133-10.6759C19.2363-9.86983 20.4001-9.51457 21.5329-9.72405L20.8895-13.2034ZM32.7624-30.7096C31.3806-29.3278 31.3806-27.0873 32.7624-25.7055C34.1442-24.3237 36.3848-24.3237 37.7665-25.7055L32.7624-30.7096ZM20.8895-13.2034C21.5329-9.72405 21.5338-9.7244 21.5349-9.7244C21.5354-9.7244 21.5366-9.72475 21.5377-9.72511C21.5399-9.72546 21.5425-9.72582 21.5457-9.72652C21.5521-9.72758 21.5606-9.72935 21.571-9.73112C21.592-9.73502 21.6212-9.74068 21.6583-9.74775C21.7324-9.76226 21.8381-9.78278 21.9727-9.81003C22.2418-9.86417 22.6272-9.94449 23.1082-10.0506C24.0692-10.2633 25.418-10.5825 26.9884-11.0117C30.0988-11.8616 34.2097-13.1794 37.9166-15.0208C41.4529-16.7773 45.3923-19.3773 47.1452-23.1635C48.0875-25.1981 48.3547-27.4889 47.6852-29.8894C47.0387-32.2074 45.5876-34.3889 43.5165-36.4596L38.5124-31.4555C40.0354-29.9326 40.6504-28.7698 40.8687-27.9878C41.064-27.2879 40.9943-26.7221 40.7233-26.1372C40.0506-24.6843 38.0606-22.9943 34.7684-21.3589C31.6475-19.8087 28.0318-18.6332 25.1226-17.8381C23.6833-17.4446 22.4491-17.153 21.5795-16.9606C21.1452-16.8647 20.8034-16.7935 20.5742-16.7475C20.4596-16.7242 20.3733-16.7076 20.3178-16.6966C20.29-16.6913 20.2699-16.6874 20.2579-16.6853C20.2519-16.6842 20.2479-16.6835 20.2459-16.6831C20.2449-16.6828 20.2445-16.6828 20.2445-16.6828C20.2445-16.6828 20.2449-16.6828 20.245-16.6828C20.2455-16.6828 20.2462-16.6831 20.8895-13.2034ZM43.5165-36.4596C41.4487-38.5275 39.2686-39.9797 36.9477-40.6084C34.5349-41.2616 32.2441-40.9478 30.2314-39.9482C26.5107-38.1 24.0166-34.0563 22.3505-30.458C20.5987-26.6747 19.3669-22.489 18.5789-19.3225C18.181-17.7238 17.8882-16.3516 17.6941-15.3746C17.5969-14.8856 17.5241-14.4939 17.475-14.2207C17.4504-14.0841 17.4317-13.9769 17.4189-13.9016C17.4124-13.864 17.4074-13.8347 17.4039-13.8134C17.4021-13.8028 17.4007-13.7943 17.3996-13.788C17.3991-13.7848 17.3987-13.782 17.3983-13.7798C17.3982-13.7788 17.3979-13.7777 17.3979-13.777C17.3979-13.7759 17.3975-13.7752 20.8895-13.2034C24.3815-12.632 24.3814-12.6312 24.3813-12.6309C24.3813-12.6309 24.3813-12.6305 24.3813-12.6305C24.3813-12.6305 24.3813-12.6309 24.3815-12.632C24.3819-12.6341 24.3825-12.6383 24.3836-12.6443C24.3857-12.6571 24.3892-12.6776 24.394-12.7059C24.4038-12.7629 24.4192-12.8513 24.4402-12.9685C24.4824-13.2027 24.5472-13.552 24.6353-13.9953C24.8117-14.8831 25.0805-16.1432 25.4463-17.6134C26.1856-20.5843 27.2898-24.2823 28.7724-27.4843C30.3406-30.8713 31.9794-32.9144 33.3795-33.6101C33.9277-33.8822 34.4443-33.9544 35.0975-33.7774C35.8423-33.5758 36.9867-32.9813 38.5124-31.4555L43.5165-36.4596ZM38.5124-36.4596L32.7624-30.7096L37.7665-25.7055L43.5165-31.4555L38.5124-36.4596ZM57.0947-26.502C62.1214-31.5284 64.9808-24.2763 66.1928-19.7945C67.4047-15.3127 63.6242-17.4528 63.6242-17.4528C63.6242-17.4528 52.1345-21.5418 57.0947-26.502ZM30.4495-55.7146C35.4761-50.6882 28.2239-47.8285 23.742-46.6167C19.2601-45.4048 21.4002-49.1852 21.4002-49.1852C21.4002-49.1852 25.4891-60.6751 30.4495-55.7146Z"/>
   <path class="monochrome-1 multicolor-1:tintColor hierarchical-1:tertiary SFSymbolsPreviewWireframe" d="M44.3636-80.5865C50.0861-80.5876 55.7528-79.4613 61.04-77.272C66.3271-75.0826 71.1312-71.8729 75.1774-67.8265C79.2239-63.7803 82.4335-58.9764 84.6232-53.6889C86.8124-48.4015 87.9387-42.7349 87.9376-37.0127C87.9376-12.9352 68.432 6.58658 44.3638 6.58658C20.2909 6.58658 0.7645-12.9399 0.7645-37.0127C0.7645-61.0781 20.2877-80.5865 44.3636-80.5865ZM44.3638-78.3365C21.53-78.3365 3.0145-59.8351 3.0145-37.0127C3.0145-14.1825 21.5336 4.33658 44.3638 4.33658C67.1889 4.33658 85.6876-14.1774 85.6876-37.0129C85.6886-42.4398 84.6205-47.8138 82.5443-52.828C80.4678-57.8425 77.4239-62.3983 73.5865-66.2355C69.7491-70.073 65.1932-73.1168 60.1791-75.1931C55.1651-77.2695 49.791-78.3376 44.3638-78.3365Z"/>
  </g>
 </g>
</svg>
