<?xml version="1.0" encoding="UTF-8"?>
<!--Generator: Apple Native CoreSVG 341-->
<!DOCTYPE svg
PUBLIC "-//W3C//DTD SVG 1.1//EN"
       "http://www.w3.org/Graphics/SVG/1.1/DTD/svg11.dtd">
<svg version="1.1" xmlns="http://www.w3.org/2000/svg" xmlns:xlink="http://www.w3.org/1999/xlink" viewBox="0 0 3300 2200">
 <!--glyph: "", point size: 100.0, font version: "20.0d10e1", template writer version: "138.0.0"-->
 <style>.monochrome-0 {-sfsymbols-motion-group:1;-sfsymbols-layer-tags:65690c0dca43dff0}
.monochrome-1 {-sfsymbols-motion-group:0;-sfsymbols-layer-tags:65690c0dca43dff0}

.multicolor-0:tintColor {-sfsymbols-motion-group:1;-sfsymbols-layer-tags:65690c0dca43dff0}
.multicolor-1:tintColor {-sfsymbols-motion-group:0;-sfsymbols-layer-tags:65690c0dca43dff0}

.hierarchical-0:primary {-sfsymbols-motion-group:1;-sfsymbols-layer-tags:65690c0dca43dff0}
.hierarchical-1:tertiary {-sfsymbols-motion-group:0;-sfsymbols-layer-tags:65690c0dca43dff0}

.SFSymbolsPreviewWireframe {fill:none;opacity:1.0;stroke:black;stroke-width:0.5}
</style>
 <g id="Notes">
  <rect height="2200" id="artboard" style="fill:white;opacity:1" width="3300" x="0" y="0"/>
  <line style="fill:none;stroke:black;opacity:1;stroke-width:0.5;" x1="263" x2="3036" y1="292" y2="292"/>
  <text style="stroke:none;fill:black;font-family:sans-serif;font-size:13;font-weight:bold;" transform="matrix(1 0 0 1 263 322)">Weight/Scale Variations</text>
  <text style="stroke:none;fill:black;font-family:sans-serif;font-size:13;text-anchor:middle;" transform="matrix(1 0 0 1 559.711 322)">Ultralight</text>
  <text style="stroke:none;fill:black;font-family:sans-serif;font-size:13;text-anchor:middle;" transform="matrix(1 0 0 1 856.422 322)">Thin</text>
  <text style="stroke:none;fill:black;font-family:sans-serif;font-size:13;text-anchor:middle;" transform="matrix(1 0 0 1 1153.13 322)">Light</text>
  <text style="stroke:none;fill:black;font-family:sans-serif;font-size:13;text-anchor:middle;" transform="matrix(1 0 0 1 1449.84 322)">Regular</text>
  <text style="stroke:none;fill:black;font-family:sans-serif;font-size:13;text-anchor:middle;" transform="matrix(1 0 0 1 1746.56 322)">Medium</text>
  <text style="stroke:none;fill:black;font-family:sans-serif;font-size:13;text-anchor:middle;" transform="matrix(1 0 0 1 2043.27 322)">Semibold</text>
  <text style="stroke:none;fill:black;font-family:sans-serif;font-size:13;text-anchor:middle;" transform="matrix(1 0 0 1 2339.98 322)">Bold</text>
  <text style="stroke:none;fill:black;font-family:sans-serif;font-size:13;text-anchor:middle;" transform="matrix(1 0 0 1 2636.69 322)">Heavy</text>
  <text style="stroke:none;fill:black;font-family:sans-serif;font-size:13;text-anchor:middle;" transform="matrix(1 0 0 1 2933.4 322)">Black</text>
  <line style="fill:none;stroke:black;opacity:1;stroke-width:0.5;" x1="263" x2="3036" y1="1903" y2="1903"/>
  <g transform="matrix(0.2 0 0 0.2 263 1933)">
   <path d="m46.2402 4.15039c21.7773 0 39.4531-17.627 39.4531-39.4043s-17.6758-39.4043-39.4531-39.4043c-21.7285 0-39.4043 17.627-39.4043 39.4043s17.6758 39.4043 39.4043 39.4043Zm0-7.42188c-17.6758 0-31.9336-14.3066-31.9336-31.9824s14.2578-31.9824 31.9336-31.9824 31.9824 14.3066 31.9824 31.9824-14.3066 31.9824-31.9824 31.9824Zm-17.9688-31.9824c0 2.14844 1.51367 3.61328 3.75977 3.61328h10.498v10.5957c0 2.19727 1.46484 3.71094 3.61328 3.71094 2.24609 0 3.71094-1.51367 3.71094-3.71094v-10.5957h10.5957c2.19727 0 3.71094-1.46484 3.71094-3.61328 0-2.19727-1.51367-3.71094-3.71094-3.71094h-10.5957v-10.5469c0-2.24609-1.46484-3.75977-3.71094-3.75977-2.14844 0-3.61328 1.51367-3.61328 3.75977v10.5469h-10.498c-2.24609 0-3.75977 1.51367-3.75977 3.71094Z"/>
  </g>
  <g transform="matrix(0.2 0 0 0.2 281.506 1933)">
   <path d="m58.5449 14.5508c27.4902 0 49.8047-22.3145 49.8047-49.8047s-22.3145-49.8047-49.8047-49.8047-49.8047 22.3145-49.8047 49.8047 22.3145 49.8047 49.8047 49.8047Zm0-8.30078c-22.9492 0-41.5039-18.5547-41.5039-41.5039s18.5547-41.5039 41.5039-41.5039 41.5039 18.5547 41.5039 41.5039-18.5547 41.5039-41.5039 41.5039Zm-22.6562-41.5039c0 2.39258 1.66016 4.00391 4.15039 4.00391h14.3555v14.4043c0 2.44141 1.66016 4.15039 4.05273 4.15039 2.44141 0 4.15039-1.66016 4.15039-4.15039v-14.4043h14.4043c2.44141 0 4.15039-1.61133 4.15039-4.00391 0-2.44141-1.70898-4.15039-4.15039-4.15039h-14.4043v-14.3555c0-2.49023-1.70898-4.19922-4.15039-4.19922-2.39258 0-4.05273 1.70898-4.05273 4.19922v14.3555h-14.3555c-2.49023 0-4.15039 1.70898-4.15039 4.15039Z"/>
  </g>
  <g transform="matrix(0.2 0 0 0.2 304.924 1933)">
   <path d="m74.8535 28.3203c35.1074 0 63.623-28.4668 63.623-63.5742s-28.5156-63.623-63.623-63.623-63.5742 28.5156-63.5742 63.623 28.4668 63.5742 63.5742 63.5742Zm0-9.08203c-30.127 0-54.4922-24.3652-54.4922-54.4922s24.3652-54.4922 54.4922-54.4922 54.4922 24.3652 54.4922 54.4922-24.3652 54.4922-54.4922 54.4922Zm-28.8574-54.4922c0 2.58789 1.85547 4.39453 4.58984 4.39453h19.7266v19.7754c0 2.68555 1.85547 4.58984 4.44336 4.58984 2.68555 0 4.54102-1.85547 4.54102-4.58984v-19.7754h19.7754c2.68555 0 4.58984-1.80664 4.58984-4.39453 0-2.73438-1.85547-4.58984-4.58984-4.58984h-19.7754v-19.7266c0-2.73438-1.85547-4.63867-4.54102-4.63867-2.58789 0-4.44336 1.9043-4.44336 4.63867v19.7266h-19.7266c-2.73438 0-4.58984 1.85547-4.58984 4.58984Z"/>
  </g>
  <text style="stroke:none;fill:black;font-family:sans-serif;font-size:13;font-weight:bold;" transform="matrix(1 0 0 1 263 1953)">Design Variations</text>
  <text style="stroke:none;fill:black;font-family:sans-serif;font-size:13;" transform="matrix(1 0 0 1 263 1971)">Symbols are supported in up to nine weights and three scales.</text>
  <text style="stroke:none;fill:black;font-family:sans-serif;font-size:13;" transform="matrix(1 0 0 1 263 1989)">For optimal layout with text and other symbols, vertically align</text>
  <text style="stroke:none;fill:black;font-family:sans-serif;font-size:13;" transform="matrix(1 0 0 1 263 2007)">symbols with the adjacent text.</text>
  <line style="fill:none;stroke:#00AEEF;stroke-width:0.5;opacity:1.0;" x1="776" x2="776" y1="1919" y2="1933"/>
  <g transform="matrix(0.2 0 0 0.2 776 1933)">
   <path d="m16.5527 0.78125c2.58789 0 3.85742-0.976562 4.78516-3.71094l6.29883-17.2363h28.8086l6.29883 17.2363c0.927734 2.73438 2.19727 3.71094 4.73633 3.71094 2.58789 0 4.24805-1.5625 4.24805-4.00391 0-0.830078-0.146484-1.61133-0.537109-2.63672l-22.9004-60.9863c-1.12305-2.97852-3.125-4.49219-6.25-4.49219-3.02734 0-5.07812 1.46484-6.15234 4.44336l-22.9004 61.084c-0.390625 1.02539-0.537109 1.80664-0.537109 2.63672 0 2.44141 1.5625 3.95508 4.10156 3.95508Zm13.4766-28.3691 11.8652-32.8613h0.244141l11.8652 32.8613Z"/>
  </g>
  <line style="fill:none;stroke:#00AEEF;stroke-width:0.5;opacity:1.0;" x1="792.836" x2="792.836" y1="1919" y2="1933"/>
  <text style="stroke:none;fill:black;font-family:sans-serif;font-size:13;font-weight:bold;" transform="matrix(1 0 0 1 776 1953)">Margins</text>
  <text style="stroke:none;fill:black;font-family:sans-serif;font-size:13;" transform="matrix(1 0 0 1 776 1971)">Leading and trailing margins on the left and right side of each symbol</text>
  <text style="stroke:none;fill:black;font-family:sans-serif;font-size:13;" transform="matrix(1 0 0 1 776 1989)">can be adjusted by modifying the x-location of the margin guidelines.</text>
  <text style="stroke:none;fill:black;font-family:sans-serif;font-size:13;" transform="matrix(1 0 0 1 776 2007)">Modifications are automatically applied proportionally to all</text>
  <text style="stroke:none;fill:black;font-family:sans-serif;font-size:13;" transform="matrix(1 0 0 1 776 2025)">scales and weights.</text>
  <g transform="matrix(0.2 0 0 0.2 1289 1933)">
   <path d="m14.209 9.32617 8.49609 8.54492c4.29688 4.3457 9.22852 4.05273 13.8672-1.07422l53.4668-58.9355-4.83398-4.88281-53.0762 58.3984c-1.75781 2.00195-3.41797 2.49023-5.76172 0.146484l-5.85938-5.81055c-2.34375-2.29492-1.80664-4.00391 0.195312-5.81055l57.373-54.0039-4.88281-4.83398-57.959 54.4434c-4.93164 4.58984-5.32227 9.47266-1.02539 13.8184Zm32.0801-90.9668c-2.09961 2.05078-2.24609 4.93164-1.07422 6.88477 1.17188 1.80664 3.4668 2.97852 6.68945 2.14844 7.32422-1.70898 14.9414-2.00195 22.0703 2.68555l-2.92969 7.27539c-1.70898 4.15039-0.830078 7.08008 1.85547 9.81445l11.4746 11.5723c2.44141 2.44141 4.49219 2.53906 7.32422 2.05078l5.32227-0.976562 3.32031 3.36914-0.195312 2.7832c-0.195312 2.49023 0.439453 4.39453 2.88086 6.78711l3.80859 3.71094c2.39258 2.39258 5.46875 2.53906 7.8125 0.195312l14.5508-14.5996c2.34375-2.34375 2.24609-5.32227-0.146484-7.71484l-3.85742-3.80859c-2.39258-2.39258-4.24805-3.17383-6.64062-2.97852l-2.88086 0.244141-3.22266-3.17383 1.2207-5.61523c0.634766-2.83203-0.146484-5.0293-3.07617-7.95898l-10.9863-10.9375c-16.6992-16.6016-38.8672-16.2109-53.3203-1.75781Zm7.4707 1.85547c12.1582-8.88672 28.6133-7.37305 39.7461 3.75977l12.1582 12.0605c1.17188 1.17188 1.36719 2.09961 1.02539 3.80859l-1.61133 7.42188 7.51953 7.42188 4.93164-0.292969c1.26953-0.0488281 1.66016 0.0488281 2.63672 1.02539l2.88086 2.88086-12.207 12.207-2.88086-2.88086c-0.976562-0.976562-1.12305-1.36719-1.07422-2.68555l0.341797-4.88281-7.4707-7.42188-7.61719 1.26953c-1.61133 0.341797-2.34375 0.195312-3.56445-0.976562l-10.0098-10.0098c-1.26953-1.17188-1.41602-2.00195-0.634766-3.85742l4.39453-10.4492c-7.8125-7.27539-17.9688-10.4004-28.125-7.42188-0.78125 0.195312-1.07422-0.439453-0.439453-0.976562Z"/>
  </g>
  <text style="stroke:none;fill:black;font-family:sans-serif;font-size:13;font-weight:bold;" transform="matrix(1 0 0 1 1289 1953)">Exporting</text>
  <text style="stroke:none;fill:black;font-family:sans-serif;font-size:13;" transform="matrix(1 0 0 1 1289 1971)">Symbols should be outlined when exporting to ensure the</text>
  <text style="stroke:none;fill:black;font-family:sans-serif;font-size:13;" transform="matrix(1 0 0 1 1289 1989)">design is preserved when submitting to Xcode.</text>
  <text id="template-version" style="stroke:none;fill:black;font-family:sans-serif;font-size:13;text-anchor:end;" transform="matrix(1 0 0 1 3036 1933)">Template v.6.0</text>
  <text style="stroke:none;fill:black;font-family:sans-serif;font-size:13;text-anchor:end;" transform="matrix(1 0 0 1 3036 1951)">Requires Xcode 16 or greater</text>
  <text id="descriptive-name" style="stroke:none;fill:black;font-family:sans-serif;font-size:13;text-anchor:end;" transform="matrix(1 0 0 1 3036 1969)">Generated from filtervogelgruppe-37</text>
  <text style="stroke:none;fill:black;font-family:sans-serif;font-size:13;text-anchor:end;" transform="matrix(1 0 0 1 3036 1987)">Typeset at 100.0 points</text>
  <text style="stroke:none;fill:black;font-family:sans-serif;font-size:13;" transform="matrix(1 0 0 1 263 726)">Small</text>
  <text style="stroke:none;fill:black;font-family:sans-serif;font-size:13;" transform="matrix(1 0 0 1 263 1156)">Medium</text>
  <text style="stroke:none;fill:black;font-family:sans-serif;font-size:13;" transform="matrix(1 0 0 1 263 1586)">Large</text>
 </g>
 <g id="Guides">
  <g id="H-reference" style="fill:#27AAE1;stroke:none;" transform="matrix(1 0 0 1 339 696)">
   <path d="M0.993654 0L3.63775 0L29.3281-67.1323L30.0303-67.1323L30.0303-70.459L28.1226-70.459ZM11.6885-24.4799L46.9815-24.4799L46.2315-26.7285L12.4385-26.7285ZM55.1196 0L57.7637 0L30.6382-70.459L29.4326-70.459L29.4326-67.1323Z"/>
  </g>
  <line id="Baseline-S" style="fill:none;stroke:#27AAE1;opacity:1;stroke-width:0.5;" x1="263" x2="3036" y1="696" y2="696"/>
  <line id="Capline-S" style="fill:none;stroke:#27AAE1;opacity:1;stroke-width:0.5;" x1="263" x2="3036" y1="625.541" y2="625.541"/>
  <g id="H-reference" style="fill:#27AAE1;stroke:none;" transform="matrix(1 0 0 1 339 1126)">
   <path d="M0.993654 0L3.63775 0L29.3281-67.1323L30.0303-67.1323L30.0303-70.459L28.1226-70.459ZM11.6885-24.4799L46.9815-24.4799L46.2315-26.7285L12.4385-26.7285ZM55.1196 0L57.7637 0L30.6382-70.459L29.4326-70.459L29.4326-67.1323Z"/>
  </g>
  <line id="Baseline-M" style="fill:none;stroke:#27AAE1;opacity:1;stroke-width:0.5;" x1="263" x2="3036" y1="1126" y2="1126"/>
  <line id="Capline-M" style="fill:none;stroke:#27AAE1;opacity:1;stroke-width:0.5;" x1="263" x2="3036" y1="1055.54" y2="1055.54"/>
  <g id="H-reference" style="fill:#27AAE1;stroke:none;" transform="matrix(1 0 0 1 339 1556)">
   <path d="M0.993654 0L3.63775 0L29.3281-67.1323L30.0303-67.1323L30.0303-70.459L28.1226-70.459ZM11.6885-24.4799L46.9815-24.4799L46.2315-26.7285L12.4385-26.7285ZM55.1196 0L57.7637 0L30.6382-70.459L29.4326-70.459L29.4326-67.1323Z"/>
  </g>
  <line id="Baseline-L" style="fill:none;stroke:#27AAE1;opacity:1;stroke-width:0.5;" x1="263" x2="3036" y1="1556" y2="1556"/>
  <line id="Capline-L" style="fill:none;stroke:#27AAE1;opacity:1;stroke-width:0.5;" x1="263" x2="3036" y1="1485.54" y2="1485.54"/>
  <line id="right-margin-Black-S" style="fill:none;stroke:#00AEEF;stroke-width:0.5;opacity:1.0;" x1="2982.23" x2="2982.23" y1="600.785" y2="720.121"/>
  <line id="left-margin-Black-S" style="fill:none;stroke:#00AEEF;stroke-width:0.5;opacity:1.0;" x1="2884.57" x2="2884.57" y1="600.785" y2="720.121"/>
  <line id="right-margin-Regular-S" style="fill:none;stroke:#00AEEF;stroke-width:0.5;opacity:1.0;" x1="1496.11" x2="1496.11" y1="600.785" y2="720.121"/>
  <line id="left-margin-Regular-S" style="fill:none;stroke:#00AEEF;stroke-width:0.5;opacity:1.0;" x1="1403.58" x2="1403.58" y1="600.785" y2="720.121"/>
  <line id="right-margin-Ultralight-S" style="fill:none;stroke:#00AEEF;stroke-width:0.5;opacity:1.0;" x1="603.773" x2="603.773" y1="600.785" y2="720.121"/>
  <line id="left-margin-Ultralight-S" style="fill:none;stroke:#00AEEF;stroke-width:0.5;opacity:1.0;" x1="515.649" x2="515.649" y1="600.785" y2="720.121"/>
 </g>
 <g id="Symbols">
  <g id="Black-S" transform="matrix(1 0 0 1 2884.57 696)">
   <path class="monochrome-0 multicolor-0:tintColor hierarchical-0:primary SFSymbolsPreviewWireframe" d="M46.715-8.71855C46.385-8.78155 46.0589-8.85242 45.7328-8.89573C45.3308-8.95151 44.9275-8.99351 44.5228-9.02173C44.35-9.03354 44.1732-8.99023 44.0003-8.98236C43.8887-8.97514 43.7764-8.98203 43.6664-9.00204C42.7157-9.19892 41.765-9.38398 40.775-9.2816C40.6493-9.26979 40.5157-9.34854 40.3821-9.38398C40.3114-9.39973 40.2368-9.4391 40.17-9.42729C39.95-9.38791 39.726-9.34067 39.5139-9.26979C39.4078-9.23829 39.3174-9.15167 39.231-9.08473C39.0189-8.91936 38.8224-8.73824 38.6024-8.58861C38.5396-8.54924 38.406-8.59255 38.3078-8.60042C38.3196-8.67917 38.296-8.78155 38.3432-8.83273C38.7203-9.24223 39.1367-9.62416 39.671-9.87222C39.7889-9.92735 39.9579-9.90372 40.0993-9.93128C40.2957-9.97066 40.4921-10.0258 40.6925-10.077C40.7396-10.0888 40.7946-10.1085 40.8379-10.1045L41.71-9.98641C41.9221-9.95884 42.1343-9.93128 42.3464-9.92341L44.4089-9.86435L46.44-9.80135C47.5007-9.76985 48.5614-9.71866 49.6221-9.71079C50.1328-9.70685 50.6435-9.75804 51.1542-9.82891C51.5942-9.88797 51.7514-10.262 51.9399-10.5613C52.0382-10.7188 52.0382-10.9353 52.046-11.1283C52.046-11.1913 51.936-11.3015 51.8653-11.3094C51.1974-11.3803 50.5807-11.1834 49.9442-11.0535C49.6162-10.9964 49.2819-10.9816 48.9503-11.0101C48.8207-11.018 48.7107-11.1755 48.581-11.2464C48.4828-11.3015 48.365-11.3685 48.2628-11.3645C47.8975-11.337 47.5321-11.3133 47.2335-11.0653C47.155-10.9983 46.9782-11.0141 46.8485-11.0101C46.8093-11.0101 46.7307-11.0653 46.7307-11.1007C46.7228-11.1637 46.7346-11.2464 46.7778-11.2897C47.2846-11.7937 47.9564-11.9512 48.6714-12.0103C48.746-12.0142 48.8521-11.9906 48.8992-11.9433C49.1546-11.7071 49.4178-11.8291 49.6889-11.8961C49.9403-11.9551 50.1957-11.9984 50.451-12.0299C50.8439-12.0811 51.221-12.1481 51.5117-12.4394C51.5549-12.4867 51.6964-12.4591 51.7946-12.4631C51.9242-12.4709 52.0578-12.4631 52.1835-12.4867C52.6864-12.5812 52.6157-13.0182 52.7453-13.3175C52.9339-13.7624 53.0321-14.2428 53.1657-14.7074C53.1853-14.7783 53.1932-14.8531 53.2049-14.9279C53.2639-15.2587 53.3346-15.5894 53.3699-15.928C53.4485-16.6958 53.8806-17.3967 53.8021-18.1999C53.7471-18.7905 53.8296-19.393 53.8296-19.9915C53.8296-20.5427 53.8099-21.09 53.7785-21.6373C53.7746-21.7279 53.6881-21.8224 53.6214-21.8972C53.5349-21.9956 53.4132-22.0665 53.3307-22.1649C53.0007-22.5469 52.6667-22.9288 52.3564-23.3226C52.211-23.5037 52.1324-23.732 51.9792-23.9053C51.5274-24.4316 51.0583-24.9425 50.5728-25.437C50.4039-25.6063 50.1407-25.6929 49.9207-25.8268C49.5357-26.0591 49.1585-26.2993 48.7735-26.5355L47.8307-27.1025C47.6814-27.197 47.54-27.2994 47.3868-27.3899C46.4603-27.9254 45.5855-28.5462 44.7743-29.2445C43.965-29.9808 43.1203-30.6816 42.2993-31.4101C41.6943-31.9574 41.1089-32.5244 40.5079-33.0756C40.3704-33.2016 40.1936-33.2882 40.0443-33.4064C39.4038-33.9104 38.7478-34.3986 38.1428-34.9341C37.7489-35.2934 37.3838-35.6832 37.0507-36.0996C36.624-36.6226 36.2113-37.1571 35.8132-37.7021C35.5775-38.0171 35.3378-38.3321 35.161-38.6786C34.996-39.0015 34.9135-39.3558 34.7996-39.6945C34.7014-39.9937 34.5757-40.2851 34.5246-40.5883C34.4617-40.9741 34.4617-41.3718 34.4382-41.7656C34.4303-41.8837 34.4421-42.0018 34.4382-42.1199C34.4264-42.3641 34.4421-42.6121 34.3753-42.8405C34.3046-43.0925 34.1475-43.3287 34.0296-43.5689C33.9864-43.6634 33.9196-43.754 33.9117-43.8485C33.9039-44.0729 33.951-44.3013 33.9235-44.5257C33.8371-45.1401 34.0571-45.7189 34.1592-46.3095C34.2182-46.6954 34.3046-47.0773 34.3792-47.4592C34.4382-47.7388 34.5325-48.0183 34.5482-48.3018C34.5757-48.8728 34.5992-49.4476 34.556-50.0186C34.5285-50.3651 34.395-50.7076 34.2732-51.0423C34.1435-51.4006 33.9746-51.7471 33.8253-52.1015C33.7153-52.3653 33.4835-52.5031 33.1968-52.5425C32.356-52.6606 31.5468-52.9362 30.6746-52.8968C30.2056-52.8705 29.7446-52.7639 29.3114-52.5818C28.7064-52.3456 28.0936-52.1369 27.5043-51.8731C27.2432-51.7599 27.0138-51.5841 26.8364-51.3612C26.6361-51.0856 25.9132-50.8848 25.5832-50.9478C25.5164-50.9596 25.43-51.0935 25.43-51.1644C25.4693-51.8416 25.8504-52.3771 26.3061-52.8732C26.7696-53.3772 27.2764-53.8536 27.7007-54.3852C28.1211-54.9128 28.3921-55.5113 28.5453-56.1689C28.6828-56.7595 28.9186-57.3304 29.1621-57.8895C29.3371-58.3429 29.6542-58.727 30.0657-58.9841C30.2228-59.0747 30.3328-59.2361 30.4978-59.3188C31.1382-59.6378 31.7943-59.9212 32.5525-59.9291C32.6389-59.9291 32.7293-59.9882 32.7607-60C32.9218-59.9606 33.0475-59.9212 33.1771-59.8976C33.6839-59.7992 34.1867-59.7008 34.6975-59.6102C35.3025-59.5039 35.8564-59.2794 36.3592-58.9605C36.7403-58.7203 37.0899-58.4368 37.4474-58.173C37.6832-57.9998 37.9189-57.8265 38.1428-57.6415C38.2209-57.5695 38.2838-57.4825 38.3274-57.3855C38.5828-56.8737 38.8381-56.3657 39.0856-55.8539C39.2506-55.5152 39.4078-55.1766 39.5571-54.8341C39.5924-54.7593 39.5649-54.6648 39.5924-54.5821L40.1229-53.0819C40.1504-53.0031 40.1582-52.9244 40.1779-52.8457L40.5-51.436C40.5668-51.1486 40.61-50.8572 40.7082-50.5816C40.7986-50.3307 40.9187-50.0915 41.0657-49.8689C41.2778-49.5421 41.5175-49.2311 41.7611-48.924C41.8396-48.8216 41.9575-48.7271 42.0753-48.668C42.4289-48.5026 42.7628-48.2861 43.195-48.2782C43.3678-48.2782 43.5368-48.1601 43.7136-48.1325C43.9768-48.101 44.2439-48.1207 44.5071-48.0931C45.5835-47.9908 46.66-47.8845 47.7364-47.7624C48.31-47.6955 48.8835-47.597 49.4532-47.4947C50.1328-47.3687 50.8124-47.219 51.4921-47.0812C51.8378-47.0103 52.1953-46.9552 52.5371-46.8647C52.761-46.8017 52.9653-46.6678 53.1892-46.593C53.6371-46.4512 54.0928-46.3252 54.5485-46.1914C54.7056-46.148 54.8628-46.1008 55.0121-46.0457C55.5149-45.8646 56.0099-45.6677 56.5167-45.4944C57.0313-45.3172 57.5578-45.1676 58.0763-45.0023C58.2099-44.955 58.3317-44.8762 58.4613-44.821C58.9328-44.6242 59.4042-44.4194 59.8835-44.2304C60.0799-44.1517 60.296-44.1123 60.4885-44.0296C61.117-43.7619 61.7378-43.4784 62.3742-43.2145C62.716-43.0728 63.0931-42.9901 63.431-42.8405C63.8395-42.6594 64.2285-42.431 64.6292-42.2302C64.7313-42.179 64.8492-42.1514 64.9592-42.1121C65.352-41.9467 65.7449-41.7774 66.1456-41.6199C66.8017-41.36 67.4617-41.112 68.1177-40.856C68.8917-40.5528 69.7088-40.4111 70.5377-40.352C70.7993-40.3451 71.0602-40.3852 71.3077-40.4701C72.1249-40.7221 72.9341-40.982 73.7356-41.2655C74.4898-41.5333 75.2363-41.8325 75.9748-42.1318C76.5641-42.368 77.1416-42.6357 77.727-42.8799C77.9784-42.9783 78.2534-43.0295 78.5087-43.124C78.7641-43.2145 79.0234-43.313 79.2591-43.439C79.5852-43.6162 80.1784-43.6359 80.3787-43.435C80.43-43.3839 80.4495-43.2382 80.4062-43.1909C80.1941-42.9429 79.9466-42.7224 79.7305-42.4822C79.5262-42.2499 79.3377-42.0018 79.1491-41.7616C79.0391-41.6238 78.9134-41.486 78.8348-41.3364C78.6973-41.0844 78.6109-40.8127 78.4812-40.5607C78.2652-40.1433 78.0098-39.7378 77.8016-39.3165C77.6563-39.0212 77.5659-38.7022 77.448-38.3951C77.0945-37.4895 76.7527-36.5721 76.3638-35.6783C76.2253-35.2865 75.9837-34.9397 75.6645-34.6742C75.6095-34.6348 75.5113-34.6348 75.4327-34.6309C75.2913-34.623 75.1459-34.627 75.0006-34.627C74.974-34.5932 74.9478-34.559 74.922-34.5246C75.0673-34.4183 75.2245-34.3277 75.3541-34.2096C75.582-34.0009 75.8177-33.7962 76.0063-33.5639C76.2223-33.2961 76.1005-32.9142 75.7784-32.7449C75.7313-32.7173 75.6723-32.7016 75.633-32.6661C75.2088-32.233 74.6116-32.2054 74.0498-32.1385C73.2916-32.0479 72.5963-31.8629 72.0149-31.3904C71.7752-31.1935 71.4924-31.0439 71.2566-30.851C71.0131-30.6541 70.797-30.4178 70.5691-30.2052C70.5534-30.1895 70.5377-30.1658 70.5377-30.1422C70.5259-29.6618 70.0506-29.4571 69.7716-29.1539C69.5831-28.9452 69.1784-28.8783 68.8563-28.8035C68.3849-28.6932 67.8742-28.6932 67.4302-28.5357C67.0059-28.3822 66.6288-28.1026 66.2556-27.8467C65.8706-27.5829 65.5249-27.2758 65.1556-26.9923C65.0299-26.8978 64.8806-26.8269 64.747-26.7442C64.3817-26.5276 64.0202-26.3111 63.6588-26.0827C63.3131-25.8701 63.2895-25.5078 63.5685-25.2204C63.8592-24.929 64.1302-24.614 64.4092-24.3148C64.5231-24.1967 64.6606-24.0904 64.751-23.9604C64.971-23.6454 64.8217-23.3344 64.6881-23.0233C64.641-22.9131 64.6174-22.7556 64.6685-22.6571C64.8099-22.3894 64.641-22.2043 64.5152-22.0035C64.4367-21.8775 64.3267-21.7673 64.2402-21.6413C63.8945-21.1255 63.5056-20.6333 63.317-20.0308C63.1835-19.6095 62.9477-19.2158 62.767-18.8102C62.5628-18.3535 62.3585-17.8928 62.1699-17.4321C61.9119-16.8717 61.8671-16.2358 62.0442-15.6445C62.1228-15.4162 62.1503-15.172 62.2328-14.9476C62.3369-14.6352 62.5578-14.3757 62.8495-14.2231C62.9281-14.1837 62.9674-14.0971 63.0342-14.0341C63.1795-13.8884 63.3013-13.6797 63.482-13.6128C63.8985-13.4671 64.1695-13.1797 64.472-12.9159C64.5506-12.8411 64.5702-12.6914 64.582-12.5733C64.6017-12.3764 64.6056-12.1756 64.5977-11.9748C64.5977-11.9079 64.5427-11.7898 64.5035-11.7898C64.4249-11.7819 64.3031-11.8173 64.2677-11.8724C64.1767-12.0096 64.1041-12.1576 64.0517-12.3134C63.977-12.5339 63.8356-12.6402 63.5763-12.6087C63.2974-12.5772 63.1245-12.6875 62.9438-12.8962C62.6453-13.2348 62.272-13.5183 61.946-13.8412C61.7839-13.9964 61.6402-14.1693 61.5178-14.357C61.3331-14.6523 61.1799-14.6798 60.8381-14.546C60.4531-14.3964 60.131-14.2074 59.966-13.8412C59.7381-13.3451 59.5417-12.8332 59.2628-12.3607C59.083-12.0988 58.8535-11.8754 58.5871-11.7031C58.315-11.5197 58.0272-11.3616 57.7267-11.2306C57.4988-11.1243 57.2553-11.0574 57.0196-10.9668C56.8624-10.9117 56.7249-10.829 56.5717-10.7778C56.0531-10.6046 55.5306-10.4432 55.016-10.266C54.8549-10.2026 54.702-10.1209 54.5603-10.0218C54.521-9.99822 54.5092-9.88403 54.5289-9.86828C54.8431-9.67141 55.1299-9.41548 55.4796-9.3131C56.3439-9.05323 57.2356-8.87998 58.1038-8.63192C58.3317-8.56892 58.5399-8.39568 58.7128-8.23818C58.8896-8.07281 59.0938-7.89562 59.0663-7.62L59.0388-7.43888C58.9603-7.4625 58.8738-7.46644 58.8188-7.50975C58.6656-7.63575 58.5321-7.78537 58.3828-7.91137C58.2436-8.01539 58.0796-8.08101 57.9074-8.10168C57.7349-8.12235 57.5604-8.09742 57.4006-8.02949C57.1256-7.89168 56.9174-7.91925 56.6424-8.09249C56.3517-8.28149 55.9785-8.36024 55.6406-8.4823C55.1692-8.65555 54.6939-8.83273 54.2146-8.99417C53.9553-9.08473 53.7156-9.01386 53.5821-8.80911C53.2403-8.29724 52.7021-8.15549 52.1089-8.06099C51.863-8.01145 51.626-7.92515 51.4057-7.80506C51.0246-7.62 50.671-7.37588 50.2742-7.21444C49.9639-7.08844 49.6064-7.05694 49.2764-6.97032C48.9542-6.88763 48.64-6.78526 48.3178-6.6947C48.0978-6.6317 47.866-6.58445 47.65-6.51358C46.6835-6.21433 45.7171-5.91115 44.7585-5.60009C44.2871-5.44653 43.8275-5.27328 43.3678-5.10003C43.0614-4.98191 42.7511-4.49366 42.7864-4.20623C42.8061-4.03298 42.6764-3.9818 42.5311-4.00542C42.095-4.07236 41.9653-4.29285 42.1893-4.69054C42.4636-5.14761 42.8827-5.49968 43.3796-5.69065C43.7803-5.8639 44.2007-6.00564 44.6132-6.15133C45.395-6.42695 46.1846-6.69076 46.9546-6.98213C47.096-7.03726 47.1903-7.19475 47.3082-7.305C47.1432-7.31288 46.9743-7.34438 46.8171-7.32469C46.5179-7.27744 46.2216-7.21444 45.9293-7.13569C45.52-7.0343 45.1141-6.92143 44.7114-6.79707C43.8943-6.5372 43.0457-6.43089 42.1971-6.30095C41.7453-6.23008 41.2543-6.16708 40.8732-5.96233C40.2682-5.63552 39.5531-5.44259 39.121-4.87953C38.9992-4.72204 38.7753-4.74566 38.6614-4.9071C38.516-5.10791 38.5435-5.37959 38.7792-5.54103C39.1014-5.75759 39.4392-5.95446 39.7889-6.12771C40.3586-6.40726 40.94-6.67501 41.5253-6.92307C41.82-7.04513 42.1421-7.10419 42.4407-7.21444C43.0889-7.45069 43.7214-7.72631 44.3775-7.93893C45.061-8.15549 45.7721-8.30905 46.4675-8.49805C46.5539-8.51774 46.6285-8.5768 46.711-8.61617L46.711-8.71855L46.715-8.71855ZM56.3217-23.3704C56.0694-23.4631 55.9242-23.3462 55.886-23.1324C55.8019-22.6525 55.7064-22.1685 55.6682-21.6805C55.63-21.2449 55.6261-20.8012 55.6682-20.3616C55.7179-19.8897 55.8516-19.4259 55.9242-18.95C56.0405-18.3884 56.0143-17.8039 55.8478-17.2561C55.6949-16.8124 55.4924-16.3849 55.3242-15.9493C55.2784-15.8364 55.2784-15.7073 55.2631-15.5863C55.2555-15.5299 55.2784-15.4653 55.2631-15.4129C55.1714-15.0983 55.0606-14.7878 54.9803-14.4732C54.8274-13.8521 54.686-13.2269 54.5332-12.6058C54.4988-12.4566 54.43-12.3114 54.43-12.1622C54.43-12.1097 54.5829-11.9887 54.644-12.0008C55.0567-12.0936 55.4733-12.1904 55.8707-12.3235C56.4822-12.5373 57.0936-12.7591 57.6859-13.0172C58.0601-13.1621 58.4092-13.3721 58.7178-13.6383C59.0197-13.9287 59.184-14.336 59.44-14.6708C59.6311-14.933 59.7152-15.3121 60.147-15.3564C60.2082-15.3645 60.2769-15.4774 60.3075-15.55C60.4183-15.8404 60.4986-16.1389 60.6209-16.4172C60.7011-16.5946 60.8578-16.7398 60.9572-16.9173C61.1291-17.2157 61.2782-17.5303 61.4425-17.8328C61.7177-18.345 62.0004-18.8532 62.2641-19.3694C62.4361-19.7082 62.5928-20.0551 62.738-20.406C62.9444-20.89 62.9711-21.4385 63.3609-21.8498C63.3838-21.874 63.3915-21.9184 63.3953-21.9507C63.4727-22.4989 63.4201-23.0588 63.2424-23.5801C63.101-24.0076 62.8335-24.3948 62.6463-24.8062C62.5355-25.0401 62.3826-25.024 62.1801-24.9554C61.9852-24.8909 61.7826-24.8021 61.5801-24.8021C60.8721-24.7924 60.182-24.5669 59.5929-24.1528C59.3308-23.9579 59.0365-23.8157 58.7254-23.7333C57.9305-23.576 57.1204-23.4873 56.3178-23.3704L56.3217-23.3704ZM54.0826-6.00421C54.2711-6.30771 54.4553-6.71659 54.6824-6.96107C55.2995-7.61864 55.9293-8.21721 56.5592-8.8242C56.8666-9.12453 57.1898-9.40871 57.5275-9.67567C58.0117-10.0508 58.5131-10.3332 58.9844-10.7716C59.1686-10.936 59.2843-11.4166 59.43-11.758C59.2029-11.8381 58.9544-12.0868 58.753-11.9688C58.0246-11.5304 57.3219-10.915 56.5935-10.4766C55.7708-9.97496 54.9695-9.11505 54.074-9.54922C53.6584-9.74312 53.4099-9.24572 53.4313-8.56707C53.4613-7.76618 53.6712-6.98636 53.8169-6.21076C53.8383-6.11802 53.9497-6.10116 54.0826-6L54.0826-6.00421Z"/>
   <path class="monochrome-1 multicolor-1:tintColor hierarchical-1:tertiary SFSymbolsPreviewWireframe" d="M48.9411-84C55.3091-84.0013 61.615-82.7479 67.4985-80.3116C73.382-77.8752 78.7279-74.3036 83.2305-69.8009C87.7334-65.2983 91.305-59.9524 93.7418-54.0682C96.1779-48.1846 97.4312-41.8789 97.43-35.5124C97.43-8.72255 75.7254 13 48.9424 13C22.156 13 0.43-8.726 0.43-35.5124C0.43-62.2926 22.1539-84 48.9411-84ZM48.9424-70C29.8835-70 14.43-54.5582 14.43-35.5124C14.43-16.458 29.888-0.999999 48.9424-0.999999C67.9909-0.999999 83.43-16.4519 83.43-35.5138C83.4309-40.0428 82.5395-44.5276 80.8069-48.7121C79.0739-52.8969 76.5337-56.6989 73.3311-59.9013C70.1287-63.1038 66.3266-65.644 62.1422-67.3767C57.9578-69.1095 53.4729-70.0009 48.9424-70Z"/>
  </g>
  <g id="Regular-S" transform="matrix(1 0 0 1 1403.58 696)">
   <path class="monochrome-0 multicolor-0:tintColor hierarchical-0:primary SFSymbolsPreviewWireframe" d="M42.4258-7.69795C42.0691-7.76588 41.7167-7.84231 41.3642-7.88902C40.9297-7.94918 40.4938-7.99447 40.0564-8.0249C39.8696-8.03764 39.6785-7.99093 39.4917-7.98244C39.371-7.97465 39.2496-7.98208 39.1308-8.00367C38.1032-8.21598 37.0756-8.41555 36.0056-8.30515C35.8697-8.29241 35.7253-8.37733 35.581-8.41555C35.5045-8.43253 35.4239-8.47499 35.3517-8.46225C35.1139-8.41979 34.8718-8.36884 34.6425-8.29241C34.5279-8.25844 34.4302-8.16502 34.3368-8.09284C34.1075-7.9145 33.8952-7.71918 33.6574-7.55782C33.5895-7.51536 33.4451-7.56207 33.3389-7.57056C33.3517-7.65548 33.3262-7.76588 33.3771-7.82108C33.7848-8.26268 34.2349-8.67456 34.8123-8.94207C34.9397-9.00151 35.1224-8.97604 35.2752-9.00576C35.4876-9.04822 35.6999-9.10767 35.9164-9.16287C35.9674-9.17561 36.0268-9.19684 36.0735-9.19259L37.0162-9.06521C37.2455-9.03548 37.4748-9.00576 37.704-8.99727L39.9333-8.93358L42.1285-8.86564C43.275-8.83167 44.4215-8.77647 45.5679-8.76798C46.1199-8.76373 46.6719-8.81893 47.2239-8.89536C47.6995-8.95905 47.8693-9.36244 48.0732-9.68515C48.1793-9.85499 48.1793-10.0885 48.1878-10.2966C48.1878-10.3645 48.0689-10.4834 47.9925-10.4919C47.2706-10.5683 46.604-10.356 45.9161-10.2159C45.5616-10.1543 45.2003-10.1384 44.8418-10.1692C44.7017-10.1777 44.5828-10.3475 44.4427-10.424C44.3365-10.4834 44.2092-10.5556 44.0988-10.5514C43.7039-10.5216 43.309-10.4962 42.9863-10.2287C42.9013-10.1565 42.7103-10.1735 42.5701-10.1692C42.5277-10.1692 42.4428-10.2287 42.4428-10.2669C42.4343-10.3348 42.447-10.424 42.4937-10.4707C43.0415-11.0142 43.7676-11.184 44.5404-11.2477C44.621-11.252 44.7357-11.2265 44.7866-11.1755C45.0626-10.9208 45.3471-11.0524 45.6401-11.1246C45.9119-11.1883 46.1879-11.235 46.4639-11.269C46.8885-11.3242 47.2961-11.3963 47.6103-11.7106C47.657-11.7615 47.8099-11.7318 47.916-11.736C48.0562-11.7445 48.2005-11.736 48.3364-11.7615C48.8799-11.8634 48.8035-12.3347 48.9436-12.6575C49.1474-13.1373 49.2536-13.6553 49.398-14.1563C49.4192-14.2328 49.4277-14.3135 49.4404-14.3941C49.5041-14.7508 49.5805-15.1075 49.6188-15.4727C49.7037-16.3007 50.1708-17.0565 50.0858-17.9227C50.0264-18.5596 50.1156-19.2093 50.1156-19.8547C50.1156-20.4491 50.0943-21.0394 50.0604-21.6296C50.0561-21.7272 49.9627-21.8291 49.8905-21.9098C49.7971-22.016 49.6655-22.0924 49.5763-22.1986C49.2196-22.6104 48.8587-23.0223 48.5232-23.4469C48.3661-23.6423 48.2812-23.8885 48.1156-24.0754C47.6273-24.6429 47.1202-25.1939 46.5955-25.7271C46.4129-25.9097 46.1284-26.0031 45.8906-26.1475C45.4745-26.398 45.0669-26.657 44.6508-26.9118L43.6317-27.5232C43.4703-27.6251 43.3175-27.7355 43.1519-27.8332C42.1505-28.4107 41.205-29.0802 40.3282-29.8331C39.4535-30.6272 38.5405-31.383 37.6531-32.1685C36.9992-32.7587 36.3665-33.3702 35.7168-33.9647C35.5682-34.1005 35.3772-34.1939 35.2158-34.3213C34.5236-34.8648 33.8145-35.3914 33.1606-35.9688C32.7349-36.3563 32.3402-36.7767 31.9802-37.2257C31.519-37.7897 31.073-38.3661 30.6426-38.9539C30.3879-39.2936 30.1288-39.6333 29.9378-40.0069C29.7594-40.3551 29.6703-40.7373 29.5471-41.1024C29.441-41.4251 29.3051-41.7394 29.2499-42.0663C29.1819-42.4824 29.1819-42.9113 29.1565-43.3359C29.148-43.4633 29.1607-43.5907 29.1565-43.7181C29.1437-43.9813 29.1607-44.2488 29.0885-44.4951C29.0121-44.7669 28.8423-45.0216 28.7149-45.2807C28.6682-45.3826 28.596-45.4802 28.5875-45.5821C28.579-45.8242 28.6299-46.0704 28.6002-46.3125C28.5068-46.975 28.7446-47.5992 28.855-48.2361C28.9187-48.6522 29.0121-49.0641 29.0928-49.476C29.1565-49.7774 29.2584-50.0789 29.2754-50.3846C29.3051-51.0003 29.3306-51.6203 29.2839-52.236C29.2541-52.6096 29.1098-52.979 28.9781-53.34C28.838-53.7264 28.6554-54.1 28.4941-54.4822C28.3752-54.7667 28.1247-54.9153 27.8147-54.9577C26.906-55.0851 26.0313-55.3824 25.0887-55.3399C24.5817-55.3115 24.0834-55.1966 23.6152-55.0002C22.9613-54.7454 22.2989-54.5204 21.662-54.2359C21.3798-54.1138 21.1319-53.9243 20.9402-53.6839C20.7236-53.3867 19.9423-53.1701 19.5856-53.2381C19.5135-53.2508 19.42-53.3952 19.42-53.4716C19.4625-54.2019 19.8744-54.7794 20.3669-55.3144C20.868-55.8579 21.4157-56.3717 21.8743-56.9449C22.3287-57.5139 22.6216-58.1593 22.7872-58.8685C22.9359-59.5054 23.1906-60.1211 23.4539-60.724C23.643-61.2129 23.9857-61.6271 24.4305-61.9045C24.6003-62.0021 24.7192-62.1762 24.8976-62.2654C25.5897-62.6093 26.2988-62.915 27.1183-62.9235C27.2117-62.9235 27.3094-62.9872 27.3434-63C27.5175-62.9575 27.6533-62.915 27.7935-62.8896C28.3412-62.7834 28.8847-62.6773 29.4367-62.5796C30.0906-62.4649 30.6893-62.2229 31.2328-61.879C31.6447-61.62 32.0226-61.3142 32.409-61.0297C32.6638-60.8429 32.9186-60.6561 33.1606-60.4565C33.2451-60.3789 33.313-60.2851 33.3602-60.1805C33.6362-59.6285 33.9121-59.0808 34.1796-58.5288C34.358-58.1636 34.5279-57.7984 34.6892-57.429C34.7274-57.3483 34.6977-57.2464 34.7274-57.1573L35.3007-55.5395C35.3304-55.4545 35.3389-55.3696 35.3602-55.2847L35.7084-53.7646C35.7805-53.4546 35.8272-53.1404 35.9334-52.8432C36.0311-52.5726 36.1609-52.3146 36.3198-52.0746C36.5491-51.7222 36.8081-51.3867 37.0714-51.0555C37.1563-50.9451 37.2837-50.8432 37.4111-50.7795C37.7932-50.6012 38.1541-50.3677 38.6212-50.3592C38.808-50.3592 38.9906-50.2318 39.1817-50.2021C39.4662-50.1681 39.7549-50.1893 40.0394-50.1596C41.2029-50.0492 42.3663-49.9345 43.5298-49.8029C44.1497-49.7307 44.7696-49.6246 45.3853-49.5142C46.1199-49.3783 46.8545-49.2169 47.5891-49.0683C47.9628-48.9919 48.3492-48.9325 48.7186-48.8348C48.9606-48.7669 49.1814-48.6225 49.4234-48.5418C49.9075-48.3889 50.4-48.2531 50.8926-48.1087C51.0624-48.062 51.2323-48.011 51.3936-47.9516C51.9372-47.7563 52.4722-47.544 53.0199-47.3571C53.5762-47.1661 54.1452-47.0047 54.7056-46.8264C54.85-46.7754 54.9816-46.6904 55.1218-46.6309C55.6313-46.4186 56.1408-46.1978 56.6589-45.994C56.8712-45.9091 57.1047-45.8666 57.3128-45.7775C57.9922-45.4887 58.6631-45.183 59.3509-44.8985C59.7204-44.7456 60.128-44.6565 60.4932-44.4951C60.9348-44.2998 61.3551-44.0535 61.7882-43.837C61.8986-43.7818 62.026-43.752 62.1449-43.7096C62.5695-43.5312 62.9941-43.3487 63.4272-43.1788C64.1364-42.8986 64.8497-42.6311 65.5588-42.3551C66.3953-42.0281 67.2785-41.8752 68.1744-41.8115C68.4572-41.8041 68.7392-41.8473 69.0067-41.9389C69.8899-42.2107 70.7646-42.4909 71.6308-42.7967C72.4461-43.0854 73.2528-43.4081 74.0511-43.7308C74.688-43.9856 75.3122-44.2743 75.9449-44.5376C76.2167-44.6437 76.5139-44.6989 76.7899-44.8008C77.0659-44.8985 77.3461-45.0047 77.6009-45.1405C77.9533-45.3316 78.5945-45.3528 78.8111-45.1363C78.8665-45.0811 78.8875-44.924 78.8408-44.873C78.6115-44.6055 78.344-44.3677 78.1104-44.1087C77.8896-43.8582 77.6858-43.5907 77.482-43.3317C77.3631-43.1831 77.2272-43.0344 77.1423-42.8731C76.9937-42.6013 76.9003-42.3083 76.7602-42.0366C76.5266-41.5865 76.2506-41.1491 76.0256-40.6948C75.8685-40.3763 75.7708-40.0324 75.6434-39.7012C75.2613-38.7246 74.8919-37.7352 74.4715-36.7714C74.3218-36.3489 74.0607-35.9749 73.7157-35.6886C73.6562-35.6461 73.5501-35.6461 73.4652-35.6419C73.3123-35.6334 73.1552-35.6376 72.9981-35.6376C72.9694-35.6012 72.9411-35.5644 72.9132-35.5272C73.0703-35.4126 73.2401-35.3149 73.3802-35.1875C73.6265-34.9625 73.8813-34.7417 74.0851-34.4912C74.3186-34.2024 74.187-33.7906 73.8388-33.608C73.7879-33.5783 73.7242-33.5613 73.6817-33.5231C73.2231-33.056 72.5777-33.0263 71.9705-32.9541C71.151-32.8564 70.3994-32.6568 69.771-32.1473C69.512-31.935 69.2063-31.7736 68.9515-31.5656C68.6882-31.3533 68.4547-31.0985 68.2084-30.8692C68.1914-30.8522 68.1744-30.8267 68.1744-30.8013C68.1617-30.2832 67.6479-30.0624 67.3464-29.7355C67.1426-29.5104 66.7053-29.4383 66.3571-29.3576C65.8476-29.2387 65.2956-29.2387 64.8157-29.0688C64.3572-28.9032 63.9495-28.6018 63.5461-28.3258C63.13-28.0413 62.7564-27.7101 62.3572-27.4043C62.2213-27.3024 62.06-27.226 61.9156-27.1368C61.5207-26.9033 61.1301-26.6698 60.7394-26.4235C60.3658-26.1942 60.3403-25.8035 60.6418-25.4936C60.956-25.1794 61.249-24.8397 61.5504-24.517C61.6736-24.3896 61.8222-24.2749 61.9199-24.1348C62.1576-23.7951 61.9963-23.4597 61.8519-23.1242C61.801-23.0053 61.7755-22.8355 61.8307-22.7293C61.9836-22.4406 61.801-22.241 61.6651-22.0245C61.5802-21.8886 61.4613-21.7697 61.3679-21.6338C60.9942-21.0776 60.5738-20.5468 60.37-19.8971C60.2256-19.4428 59.9709-19.0182 59.7756-18.5808C59.5548-18.0883 59.334-17.5915 59.1301-17.0947C58.8513-16.4903 58.8028-15.8046 58.9943-15.1669C59.0792-14.9207 59.1089-14.6574 59.1981-14.4154C59.3106-14.0785 59.5494-13.7986 59.8647-13.6341C59.9496-13.5916 59.9921-13.4982 60.0643-13.4303C60.2214-13.2731 60.353-13.0481 60.5484-12.9759C60.9984-12.8188 61.2914-12.5088 61.6184-12.2243C61.7033-12.1437 61.7245-11.9823 61.7373-11.8549C61.7585-11.6426 61.7628-11.4261 61.7543-11.2095C61.7543-11.1373 61.6948-11.0099 61.6524-11.0099C61.5674-11.0015 61.4358-11.0397 61.3976-11.0991C61.2992-11.247 61.2207-11.4066 61.164-11.5747C61.0834-11.8125 60.9305-11.9271 60.6503-11.8931C60.3488-11.8592 60.162-11.9781 59.9666-12.2031C59.6439-12.5683 59.2405-12.874 58.8881-13.2222C58.713-13.3896 58.5576-13.576 58.4253-13.7784C58.2257-14.0969 58.0601-14.1266 57.6907-13.9823C57.2746-13.8209 56.9264-13.6171 56.748-13.2222C56.5018-12.6872 56.2895-12.1352 55.988-11.6256C55.7937-11.3433 55.5457-11.1023 55.2576-10.9165C54.9636-10.7187 54.6526-10.5482 54.3277-10.407C54.0815-10.2923 53.8182-10.2202 53.5634-10.1225C53.3936-10.0631 53.245-9.97388 53.0794-9.91868C52.5189-9.73185 51.9541-9.55776 51.3979-9.36668C51.2238-9.29839 51.0586-9.21028 50.9053-9.10342C50.8629-9.07795 50.8501-8.95481 50.8714-8.93782C51.2111-8.72551 51.521-8.44951 51.8989-8.33911C52.8331-8.05887 53.797-7.87204 54.7354-7.60453C54.9816-7.53659 55.2067-7.34976 55.3935-7.17991C55.5846-7.00158 55.8054-6.8105 55.7757-6.51327L55.746-6.31795C55.661-6.34342 55.5676-6.34767 55.5082-6.39438C55.3426-6.53025 55.1982-6.69161 55.0368-6.82748C54.8865-6.93965 54.7092-7.01042 54.5231-7.03271C54.3366-7.05501 54.148-7.02811 53.9753-6.95487C53.6781-6.80625 53.453-6.83598 53.1558-7.02281C52.8416-7.22662 52.4382-7.31155 52.073-7.44318C51.5635-7.63001 51.0497-7.82108 50.5317-7.99518C50.2514-8.09284 49.9924-8.01641 49.848-7.79561C49.4786-7.24361 48.8969-7.09075 48.2557-6.98884C47.99-6.93541 47.7338-6.84235 47.4957-6.71284C47.0838-6.51327 46.7016-6.25001 46.2728-6.07591C45.9373-5.94004 45.5509-5.90607 45.1943-5.81265C44.8461-5.72348 44.5064-5.61308 44.1582-5.51542C43.9204-5.44748 43.6699-5.39653 43.4364-5.3201C42.3918-4.99739 41.3472-4.67044 40.3112-4.33499C39.8016-4.16939 39.3048-3.98256 38.808-3.79573C38.4768-3.66835 38.1414-3.14182 38.1796-2.83185C38.2008-2.64502 38.0607-2.58982 37.9036-2.6153C37.4323-2.68748 37.2922-2.92527 37.5342-3.35413C37.8307-3.84704 38.2836-4.22671 38.8208-4.43265C39.2539-4.61948 39.7082-4.77235 40.1541-4.92945C40.9991-5.22668 41.8525-5.51118 42.6848-5.82539C42.8376-5.88484 42.9396-6.05468 43.0669-6.17358C42.8886-6.18207 42.706-6.21604 42.5362-6.19481C42.2128-6.14385 41.8925-6.07591 41.5765-5.99099C41.1342-5.88165 40.6955-5.75993 40.2602-5.62582C39.377-5.34558 38.4599-5.23093 37.5427-5.09081C37.0544-5.01438 36.5236-4.94644 36.1117-4.72564C35.4578-4.37321 34.685-4.16515 34.2179-3.55795C34.0863-3.3881 33.8442-3.41358 33.7211-3.58767C33.564-3.80422 33.5937-4.09721 33.8485-4.2713C34.1967-4.50484 34.5618-4.71715 34.9397-4.90398C35.5555-5.20545 36.1839-5.49419 36.8166-5.7617C37.1351-5.89333 37.4832-5.95702 37.806-6.07591C38.5066-6.33068 39.1902-6.62791 39.8993-6.85721C40.6381-7.09075 41.4067-7.25635 42.1583-7.46016C42.2517-7.48139 42.3324-7.54508 42.4215-7.58755L42.4215-7.69795L42.4258-7.69795ZM52.1877-23.8673C51.9074-23.965 51.7461-23.8418 51.7036-23.6168C51.6102-23.1115 51.504-22.6019 51.4616-22.0882C51.4191-21.6296 51.4149-21.1625 51.4616-20.6997C51.5168-20.2029 51.6654-19.7146 51.7461-19.2135C51.8752-18.6222 51.8462-18.0069 51.6612-17.4301C51.4913-16.9631 51.2663-16.513 51.0794-16.0544C51.0285-15.9355 51.0285-15.7996 51.0115-15.6722C51.003-15.6128 51.0285-15.5448 51.0115-15.4896C50.9096-15.1584 50.7864-14.8315 50.6973-14.5003C50.5274-13.8464 50.3703-13.1882 50.2005-12.5343C50.1623-12.3772 50.0858-12.2243 50.0858-12.0672C50.0858-12.012 50.2557-11.8847 50.3236-11.8974C50.7822-11.9951 51.245-12.097 51.6866-12.2371C52.366-12.4621 53.0454-12.6957 53.7036-12.9674C54.1193-13.1199 54.5071-13.3411 54.85-13.6213C55.1855-13.9271 55.368-14.3559 55.6525-14.7083C55.8648-14.9843 55.9583-15.3835 56.4381-15.4302C56.506-15.4387 56.5824-15.5576 56.6164-15.634C56.7396-15.9397 56.8287-16.2539 56.9646-16.5469C57.0538-16.7338 57.2279-16.8866 57.3383-17.0735C57.5293-17.3877 57.6949-17.7189 57.8775-18.0373C58.1832-18.5766 58.4975-19.1116 58.7904-19.6551C58.9815-20.0118 59.1556-20.377 59.317-20.7464C59.5463-21.2559 59.576-21.8334 60.0091-22.2665C60.0346-22.292 60.0431-22.3387 60.0473-22.3727C60.1333-22.9498 60.0749-23.5393 59.8775-24.0881C59.7204-24.5382 59.4231-24.9458 59.2151-25.3789C59.0919-25.6252 58.9221-25.6082 58.697-25.536C58.4805-25.4681 58.2554-25.3747 58.0304-25.3747C57.2438-25.3644 56.477-25.127 55.8224-24.6911C55.5312-24.4858 55.2042-24.3361 54.8585-24.2495C53.9753-24.0839 53.0751-23.9904 52.1834-23.8673L52.1877-23.8673ZM50.5529-5.20545C50.7397-5.51118 50.9223-5.92305 51.1474-6.16933C51.7588-6.83173 52.383-7.43468 53.0072-8.04613C53.3118-8.34867 53.6321-8.63493 53.9668-8.90385C54.4466-9.28176 54.9434-9.56625 55.4105-10.0079C55.5931-10.1735 55.7077-10.6575 55.8521-11.0015C55.6271-11.0821 55.3808-11.3327 55.1812-11.2138C54.4594-10.7722 53.763-10.1522 53.0412-9.71062C52.2259-9.20533 51.4319-8.33911 50.5444-8.77647C50.1325-8.97179 49.8863-8.47075 49.9075-7.78711C49.9372-6.98035 50.1453-6.19481 50.2896-5.41351C50.3109-5.3201 50.4213-5.30311 50.5529-5.20121L50.5529-5.20545Z"/>
   <path class="monochrome-1 multicolor-1:tintColor hierarchical-1:tertiary SFSymbolsPreviewWireframe" d="M46.4321-81.8365C52.4502-81.8377 58.4096-80.6532 63.9698-78.3508C69.53-76.0483 74.5822-72.6729 78.8374-68.4176C83.0928-64.1624 86.4682-59.1103 88.771-53.5496C91.0733-47.9892 92.2577-42.03 92.2566-36.0127C92.2566-10.693 71.744 9.83658 46.4328 9.83658C21.1173 9.83658 0.5835-10.6972 0.5835-36.0127C0.5835-61.3211 21.1145-81.8365 46.4321-81.8365ZM46.4328-75.0865C24.8413-75.0865 7.3335-57.592 7.3335-36.0127C7.3335-14.4252 24.8452 3.08658 46.4328 3.08658C68.0148 3.08658 85.5066-14.4197 85.5066-36.0133C85.5076-41.1447 84.4976-46.226 82.5345-50.9672C80.571-55.7085 77.693-60.0162 74.0644-63.6446C70.4361-67.273 66.1283-70.1511 61.3873-72.1143C56.6463-74.0776 51.5649-75.0875 46.4328-75.0865Z"/>
  </g>
  <g id="Ultralight-S" transform="matrix(1 0 0 1 515.649 696)">
   <path class="monochrome-0 multicolor-0:tintColor hierarchical-0:primary SFSymbolsPreviewWireframe" d="M41.3568-8.69795C41.0001-8.76588 40.6477-8.84231 40.2952-8.88902C39.8607-8.94918 39.4248-8.99447 38.9874-9.0249C38.8006-9.03764 38.6095-8.99093 38.4227-8.98244C38.302-8.97465 38.1806-8.98208 38.0618-9.00367C37.0342-9.21598 36.0066-9.41555 34.9366-9.30515C34.8007-9.29241 34.6563-9.37733 34.512-9.41555C34.4355-9.43253 34.3549-9.47499 34.2827-9.46225C34.0449-9.41979 33.8028-9.36884 33.5735-9.29241C33.4589-9.25844 33.3612-9.16502 33.2678-9.09284C33.0385-8.9145 32.8262-8.71918 32.5884-8.55782C32.5205-8.51536 32.3761-8.56207 32.2699-8.57056C32.2827-8.65548 32.2572-8.76588 32.3081-8.82108C32.7158-9.26268 33.1659-9.67456 33.7433-9.94207C33.8707-10.0015 34.0534-9.97604 34.2062-10.0058C34.4186-10.0482 34.6309-10.1077 34.8474-10.1629C34.8984-10.1756 34.9578-10.1968 35.0045-10.1926L35.9472-10.0652C36.1765-10.0355 36.4058-10.0058 36.635-9.99727L38.8643-9.93358L41.0595-9.86564C42.206-9.83167 43.3525-9.77647 44.4989-9.76798C45.0509-9.76373 45.6029-9.81893 46.1549-9.89536C46.6305-9.95905 46.8003-10.3624 47.0042-10.6851C47.1103-10.855 47.1103-11.0885 47.1188-11.2966C47.1188-11.3645 46.9999-11.4834 46.9235-11.4919C46.2016-11.5683 45.535-11.356 44.8471-11.2159C44.4926-11.1543 44.1313-11.1384 43.7728-11.1692C43.6327-11.1777 43.5138-11.3475 43.3737-11.424C43.2675-11.4834 43.1402-11.5556 43.0298-11.5514C42.6349-11.5216 42.24-11.4962 41.9173-11.2287C41.8323-11.1565 41.6413-11.1735 41.5011-11.1692C41.4587-11.1692 41.3738-11.2287 41.3738-11.2669C41.3653-11.3348 41.378-11.424 41.4247-11.4707C41.9725-12.0142 42.6986-12.184 43.4714-12.2477C43.552-12.252 43.6667-12.2265 43.7176-12.1755C43.9936-11.9208 44.2781-12.0524 44.5711-12.1246C44.8429-12.1883 45.1189-12.235 45.3949-12.269C45.8195-12.3242 46.2271-12.3963 46.5413-12.7106C46.588-12.7615 46.7409-12.7318 46.847-12.736C46.9872-12.7445 47.1315-12.736 47.2674-12.7615C47.8109-12.8634 47.7345-13.3347 47.8746-13.6575C48.0784-14.1373 48.1846-14.6553 48.329-15.1563C48.3502-15.2328 48.3587-15.3135 48.3714-15.3941C48.4351-15.7508 48.5115-16.1075 48.5498-16.4727C48.6347-17.3007 49.1018-18.0565 49.0168-18.9227C48.9574-19.5596 49.0466-20.2093 49.0466-20.8547C49.0466-21.4491 49.0253-22.0394 48.9914-22.6296C48.9871-22.7272 48.8937-22.8291 48.8215-22.9098C48.7281-23.016 48.5965-23.0924 48.5073-23.1986C48.1506-23.6104 47.7897-24.0223 47.4542-24.4469C47.2971-24.6423 47.2122-24.8885 47.0466-25.0754C46.5583-25.6429 46.0512-26.1939 45.5265-26.7271C45.3439-26.9097 45.0594-27.0031 44.8216-27.1475C44.4055-27.398 43.9979-27.657 43.5818-27.9118L42.5627-28.5232C42.4013-28.6251 42.2485-28.7355 42.0829-28.8332C41.0815-29.4107 40.136-30.0802 39.2592-30.8331C38.3845-31.6272 37.4715-32.383 36.5841-33.1685C35.9302-33.7587 35.2975-34.3702 34.6478-34.9647C34.4992-35.1005 34.3082-35.1939 34.1468-35.3213C33.4546-35.8648 32.7455-36.3914 32.0916-36.9688C31.6659-37.3563 31.2712-37.7767 30.9112-38.2257C30.45-38.7897 30.004-39.3661 29.5736-39.9539C29.3189-40.2936 29.0598-40.6333 28.8688-41.0069C28.6904-41.3551 28.6013-41.7373 28.4781-42.1024C28.372-42.4251 28.2361-42.7394 28.1809-43.0663C28.1129-43.4824 28.1129-43.9113 28.0875-44.3359C28.079-44.4633 28.0917-44.5907 28.0875-44.7181C28.0747-44.9813 28.0917-45.2488 28.0195-45.4951C27.9431-45.7669 27.7733-46.0216 27.6459-46.2807C27.5992-46.3826 27.527-46.4802 27.5185-46.5821C27.51-46.8242 27.5609-47.0704 27.5312-47.3125C27.4378-47.975 27.6756-48.5992 27.786-49.2361C27.8497-49.6522 27.9431-50.0641 28.0238-50.476C28.0875-50.7774 28.1894-51.0789 28.2064-51.3846C28.2361-52.0003 28.2616-52.6203 28.2149-53.236C28.1851-53.6096 28.0408-53.979 27.9091-54.34C27.769-54.7264 27.5864-55.1 27.4251-55.4822C27.3062-55.7667 27.0557-55.9153 26.7457-55.9577C25.837-56.0851 24.9623-56.3824 24.0197-56.3399C23.5127-56.3115 23.0144-56.1966 22.5462-56.0002C21.8923-55.7454 21.2299-55.5204 20.593-55.2359C20.3108-55.1138 20.0629-54.9243 19.8712-54.6839C19.6546-54.3867 18.8733-54.1701 18.5166-54.2381C18.4445-54.2508 18.351-54.3952 18.351-54.4716C18.3935-55.2019 18.8054-55.7794 19.2979-56.3144C19.799-56.8579 20.3467-57.3717 20.8053-57.9449C21.2597-58.5139 21.5526-59.1593 21.7182-59.8685C21.8669-60.5054 22.1216-61.1211 22.3849-61.724C22.574-62.2129 22.9167-62.6271 23.3615-62.9045C23.5313-63.0021 23.6502-63.1762 23.8286-63.2654C24.5207-63.6093 25.2298-63.915 26.0493-63.9235C26.1427-63.9235 26.2404-63.9872 26.2744-64C26.4485-63.9575 26.5843-63.915 26.7245-63.8896C27.2722-63.7834 27.8157-63.6773 28.3677-63.5796C29.0216-63.4649 29.6203-63.2229 30.1638-62.879C30.5757-62.62 30.9536-62.3142 31.34-62.0297C31.5948-61.8429 31.8496-61.6561 32.0916-61.4565C32.1761-61.3789 32.244-61.2851 32.2912-61.1805C32.5672-60.6285 32.8431-60.0808 33.1106-59.5288C33.289-59.1636 33.4589-58.7984 33.6202-58.429C33.6584-58.3483 33.6287-58.2464 33.6584-58.1573L34.2317-56.5395C34.2614-56.4545 34.2699-56.3696 34.2912-56.2847L34.6394-54.7646C34.7115-54.4546 34.7582-54.1404 34.8644-53.8432C34.9621-53.5726 35.0919-53.3146 35.2508-53.0746C35.4801-52.7222 35.7391-52.3867 36.0024-52.0555C36.0873-51.9451 36.2147-51.8432 36.3421-51.7795C36.7242-51.6012 37.0851-51.3677 37.5522-51.3592C37.739-51.3592 37.9216-51.2318 38.1127-51.2021C38.3972-51.1681 38.6859-51.1893 38.9704-51.1596C40.1339-51.0492 41.2973-50.9345 42.4608-50.8029C43.0807-50.7307 43.7006-50.6246 44.3163-50.5142C45.0509-50.3783 45.7855-50.2169 46.5201-50.0683C46.8938-49.9919 47.2802-49.9325 47.6496-49.8348C47.8916-49.7669 48.1124-49.6225 48.3544-49.5418C48.8385-49.3889 49.331-49.2531 49.8236-49.1087C49.9934-49.062 50.1633-49.011 50.3246-48.9516C50.8682-48.7563 51.4032-48.544 51.9509-48.3571C52.5072-48.1661 53.0762-48.0047 53.6366-47.8264C53.781-47.7754 53.9126-47.6904 54.0528-47.6309C54.5623-47.4186 55.0718-47.1978 55.5899-46.994C55.8022-46.9091 56.0357-46.8666 56.2438-46.7775C56.9232-46.4887 57.5941-46.183 58.2819-45.8985C58.6514-45.7456 59.059-45.6565 59.4242-45.4951C59.8658-45.2998 60.2861-45.0535 60.7192-44.837C60.8296-44.7818 60.957-44.752 61.0759-44.7096C61.5005-44.5312 61.9251-44.3487 62.3582-44.1788C63.0674-43.8986 63.7807-43.6311 64.4898-43.3551C65.3263-43.0281 66.2095-42.8752 67.1054-42.8115C67.3882-42.8041 67.6702-42.8473 67.9377-42.9389C68.8209-43.2107 69.6956-43.4909 70.5618-43.7967C71.3771-44.0854 72.1838-44.4081 72.9821-44.7308C73.619-44.9856 74.2432-45.2743 74.8759-45.5376C75.1477-45.6437 75.4449-45.6989 75.7209-45.8008C75.9969-45.8985 76.2771-46.0047 76.5319-46.1405C76.8843-46.3316 77.5255-46.3528 77.7421-46.1363C77.7975-46.0811 77.8185-45.924 77.7718-45.873C77.5425-45.6055 77.275-45.3677 77.0414-45.1087C76.8206-44.8582 76.6168-44.5907 76.413-44.3317C76.2941-44.1831 76.1582-44.0344 76.0733-43.8731C75.9247-43.6013 75.8313-43.3083 75.6912-43.0366C75.4576-42.5865 75.1816-42.1491 74.9566-41.6948C74.7995-41.3763 74.7018-41.0324 74.5744-40.7012C74.1923-39.7246 73.8229-38.7352 73.4025-37.7714C73.2528-37.3489 72.9917-36.9749 72.6467-36.6886C72.5872-36.6461 72.4811-36.6461 72.3962-36.6419C72.2433-36.6334 72.0862-36.6376 71.9291-36.6376C71.9004-36.6012 71.8721-36.5644 71.8442-36.5272C72.0013-36.4126 72.1711-36.3149 72.3112-36.1875C72.5575-35.9625 72.8123-35.7417 73.0161-35.4912C73.2496-35.2024 73.118-34.7906 72.7698-34.608C72.7189-34.5783 72.6552-34.5613 72.6127-34.5231C72.1541-34.056 71.5087-34.0263 70.9015-33.9541C70.082-33.8564 69.3304-33.6568 68.702-33.1473C68.443-32.935 68.1373-32.7736 67.8825-32.5656C67.6192-32.3533 67.3857-32.0985 67.1394-31.8692C67.1224-31.8522 67.1054-31.8267 67.1054-31.8013C67.0927-31.2832 66.5789-31.0624 66.2774-30.7355C66.0736-30.5104 65.6363-30.4383 65.2881-30.3576C64.7786-30.2387 64.2266-30.2387 63.7467-30.0688C63.2882-29.9032 62.8805-29.6018 62.4771-29.3258C62.061-29.0413 61.6874-28.7101 61.2882-28.4043C61.1523-28.3024 60.991-28.226 60.8466-28.1368C60.4517-27.9033 60.0611-27.6698 59.6704-27.4235C59.2968-27.1942 59.2713-26.8035 59.5728-26.4936C59.887-26.1794 60.18-25.8397 60.4814-25.517C60.6046-25.3896 60.7532-25.2749 60.8509-25.1348C61.0886-24.7951 60.9273-24.4597 60.7829-24.1242C60.732-24.0053 60.7065-23.8355 60.7617-23.7293C60.9146-23.4406 60.732-23.241 60.5961-23.0245C60.5112-22.8886 60.3923-22.7697 60.2989-22.6338C59.9252-22.0776 59.5048-21.5468 59.301-20.8971C59.1566-20.4428 58.9019-20.0182 58.7066-19.5808C58.4858-19.0883 58.265-18.5915 58.0611-18.0947C57.7823-17.4903 57.7338-16.8046 57.9253-16.1669C58.0102-15.9207 58.0399-15.6574 58.1291-15.4154C58.2416-15.0785 58.4804-14.7986 58.7957-14.6341C58.8806-14.5916 58.9231-14.4982 58.9953-14.4303C59.1524-14.2731 59.284-14.0481 59.4794-13.9759C59.9294-13.8188 60.2224-13.5088 60.5494-13.2243C60.6343-13.1437 60.6555-12.9823 60.6683-12.8549C60.6895-12.6426 60.6938-12.4261 60.6853-12.2095C60.6853-12.1373 60.6258-12.0099 60.5834-12.0099C60.4984-12.0015 60.3668-12.0397 60.3286-12.0991C60.2302-12.247 60.1517-12.4066 60.095-12.5747C60.0144-12.8125 59.8615-12.9271 59.5813-12.8931C59.2798-12.8592 59.093-12.9781 58.8976-13.2031C58.5749-13.5683 58.1715-13.874 57.8191-14.2222C57.644-14.3896 57.4886-14.576 57.3563-14.7784C57.1567-15.0969 56.9911-15.1266 56.6217-14.9823C56.2056-14.8209 55.8574-14.6171 55.679-14.2222C55.4328-13.6872 55.2205-13.1352 54.919-12.6256C54.7247-12.3433 54.4767-12.1023 54.1886-11.9165C53.8946-11.7187 53.5836-11.5482 53.2587-11.407C53.0125-11.2923 52.7492-11.2202 52.4944-11.1225C52.3246-11.0631 52.176-10.9739 52.0104-10.9187C51.4499-10.7319 50.8851-10.5578 50.3289-10.3667C50.1548-10.2984 49.9896-10.2103 49.8363-10.1034C49.7939-10.0779 49.7811-9.95481 49.8024-9.93782C50.1421-9.72551 50.452-9.44951 50.8299-9.33911C51.7641-9.05887 52.728-8.87204 53.6664-8.60453C53.9126-8.53659 54.1377-8.34976 54.3245-8.17991C54.5156-8.00158 54.7364-7.8105 54.7067-7.51327L54.677-7.31795C54.592-7.34342 54.4986-7.34767 54.4392-7.39438C54.2736-7.53025 54.1292-7.69161 53.9678-7.82748C53.8175-7.93965 53.6402-8.01042 53.4541-8.03271C53.2676-8.05501 53.079-8.02811 52.9063-7.95487C52.6091-7.80625 52.384-7.83598 52.0868-8.02281C51.7726-8.22662 51.3692-8.31155 51.004-8.44318C50.4945-8.63001 49.9807-8.82108 49.4627-8.99518C49.1824-9.09284 48.9234-9.01641 48.779-8.79561C48.4096-8.24361 47.8279-8.09075 47.1867-7.98884C46.921-7.93541 46.6648-7.84235 46.4267-7.71284C46.0148-7.51327 45.6326-7.25001 45.2038-7.07591C44.8683-6.94004 44.4819-6.90607 44.1253-6.81265C43.7771-6.72348 43.4374-6.61308 43.0892-6.51542C42.8514-6.44748 42.6009-6.39653 42.3674-6.3201C41.3228-5.99739 40.2782-5.67044 39.2422-5.33499C38.7326-5.16939 38.2358-4.98256 37.739-4.79573C37.4078-4.66835 37.0724-4.14182 37.1106-3.83185C37.1318-3.64502 36.9917-3.58982 36.8346-3.6153C36.3633-3.68748 36.2232-3.92527 36.4652-4.35413C36.7617-4.84704 37.2146-5.22671 37.7518-5.43265C38.1849-5.61948 38.6392-5.77235 39.0851-5.92945C39.9301-6.22668 40.7835-6.51118 41.6158-6.82539C41.7686-6.88484 41.8706-7.05468 41.9979-7.17358C41.8196-7.18207 41.637-7.21604 41.4672-7.19481C41.1438-7.14385 40.8235-7.07591 40.5075-6.99099C40.0652-6.88165 39.6265-6.75993 39.1912-6.62582C38.308-6.34558 37.3909-6.23093 36.4737-6.09081C35.9854-6.01438 35.4546-5.94644 35.0427-5.72564C34.3888-5.37321 33.616-5.16515 33.1489-4.55795C33.0173-4.3881 32.7752-4.41358 32.6521-4.58767C32.495-4.80422 32.5247-5.09721 32.7795-5.2713C33.1277-5.50484 33.4928-5.71715 33.8707-5.90398C34.4865-6.20545 35.1149-6.49419 35.7476-6.7617C36.0661-6.89333 36.4142-6.95702 36.737-7.07591C37.4376-7.33068 38.1212-7.62791 38.8303-7.85721C39.5691-8.09075 40.3377-8.25635 41.0893-8.46016C41.1827-8.48139 41.2634-8.54508 41.3525-8.58755L41.3525-8.69795L41.3568-8.69795ZM51.1187-24.8673C50.8384-24.965 50.6771-24.8418 50.6346-24.6168C50.5412-24.1115 50.435-23.6019 50.3926-23.0882C50.3501-22.6296 50.3459-22.1625 50.3926-21.6997C50.4478-21.2029 50.5964-20.7146 50.6771-20.2135C50.8062-19.6222 50.7772-19.0069 50.5922-18.4301C50.4223-17.9631 50.1973-17.513 50.0104-17.0544C49.9595-16.9355 49.9595-16.7996 49.9425-16.6722C49.934-16.6128 49.9595-16.5448 49.9425-16.4896C49.8406-16.1584 49.7174-15.8315 49.6283-15.5003C49.4584-14.8464 49.3013-14.1882 49.1315-13.5343C49.0933-13.3772 49.0168-13.2243 49.0168-13.0672C49.0168-13.012 49.1867-12.8847 49.2546-12.8974C49.7132-12.9951 50.176-13.097 50.6176-13.2371C51.297-13.4621 51.9764-13.6957 52.6346-13.9674C53.0503-14.1199 53.4381-14.3411 53.781-14.6213C54.1165-14.9271 54.299-15.3559 54.5835-15.7083C54.7958-15.9843 54.8893-16.3835 55.3691-16.4302C55.437-16.4387 55.5134-16.5576 55.5474-16.634C55.6706-16.9397 55.7597-17.2539 55.8956-17.5469C55.9848-17.7338 56.1589-17.8866 56.2693-18.0735C56.4603-18.3877 56.6259-18.7189 56.8085-19.0373C57.1142-19.5766 57.4285-20.1116 57.7214-20.6551C57.9125-21.0118 58.0866-21.377 58.248-21.7464C58.4773-22.2559 58.507-22.8334 58.9401-23.2665C58.9656-23.292 58.9741-23.3387 58.9783-23.3727C59.0643-23.9498 59.0059-24.5393 58.8085-25.0881C58.6514-25.5382 58.3541-25.9458 58.1461-26.3789C58.0229-26.6252 57.8531-26.6082 57.628-26.536C57.4115-26.4681 57.1864-26.3747 56.9614-26.3747C56.1748-26.3644 55.408-26.127 54.7534-25.6911C54.4622-25.4858 54.1352-25.3361 53.7895-25.2495C52.9063-25.0839 52.0061-24.9904 51.1144-24.8673L51.1187-24.8673ZM49.4839-6.20545C49.6707-6.51118 49.8533-6.92305 50.0784-7.16933C50.6898-7.83173 51.314-8.43468 51.9382-9.04613C52.2428-9.34867 52.5631-9.63493 52.8978-9.90385C53.3776-10.2818 53.8744-10.5663 54.3415-11.0079C54.5241-11.1735 54.6387-11.6575 54.7831-12.0015C54.5581-12.0821 54.3118-12.3327 54.1122-12.2138C53.3904-11.7722 52.694-11.1522 51.9722-10.7106C51.1569-10.2053 50.3629-9.33911 49.4754-9.77647C49.0635-9.97179 48.8173-9.47075 48.8385-8.78711C48.8682-7.98035 49.0763-7.19481 49.2206-6.41351C49.2419-6.3201 49.3523-6.30311 49.4839-6.20121L49.4839-6.20545Z"/>
   <path class="monochrome-1 multicolor-1:tintColor hierarchical-1:tertiary SFSymbolsPreviewWireframe" d="M44.3636-80.5865C50.0861-80.5876 55.7528-79.4613 61.04-77.272C66.3271-75.0826 71.1312-71.8729 75.1774-67.8265C79.2239-63.7803 82.4335-58.9764 84.6232-53.6889C86.8124-48.4015 87.9387-42.7349 87.9376-37.0127C87.9376-12.9352 68.432 6.58658 44.3638 6.58658C20.2909 6.58658 0.7645-12.9399 0.7645-37.0127C0.7645-61.0781 20.2877-80.5865 44.3636-80.5865ZM44.3638-78.3365C21.53-78.3365 3.0145-59.8351 3.0145-37.0127C3.0145-14.1825 21.5336 4.33658 44.3638 4.33658C67.1889 4.33658 85.6876-14.1774 85.6876-37.0129C85.6886-42.4398 84.6205-47.8138 82.5443-52.828C80.4678-57.8425 77.4239-62.3983 73.5865-66.2355C69.7491-70.073 65.1932-73.1168 60.1791-75.1931C55.1651-77.2695 49.791-78.3376 44.3638-78.3365Z"/>
  </g>
 </g>
</svg>
