<?xml version="1.0" encoding="UTF-8"?>
<!--Generator: Apple Native CoreSVG 341-->
<!DOCTYPE svg
PUBLIC "-//W3C//DTD SVG 1.1//EN"
       "http://www.w3.org/Graphics/SVG/1.1/DTD/svg11.dtd">
<svg version="1.1" xmlns="http://www.w3.org/2000/svg" xmlns:xlink="http://www.w3.org/1999/xlink" viewBox="0 0 3300 2200">
 <!--glyph: "", point size: 100.0, font version: "20.0d10e1", template writer version: "138.0.0"-->
 <style>.monochrome-0 {-sfsymbols-motion-group:1;-sfsymbols-layer-tags:5bd8df063e56f08c}
.monochrome-1 {-sfsymbols-motion-group:0;-sfsymbols-layer-tags:5bd8df063e56f08c}

.multicolor-0:tintColor {-sfsymbols-motion-group:1;-sfsymbols-layer-tags:5bd8df063e56f08c}
.multicolor-1:tintColor {-sfsymbols-motion-group:0;-sfsymbols-layer-tags:5bd8df063e56f08c}

.hierarchical-0:primary {-sfsymbols-motion-group:1;-sfsymbols-layer-tags:5bd8df063e56f08c}
.hierarchical-1:tertiary {-sfsymbols-motion-group:0;-sfsymbols-layer-tags:5bd8df063e56f08c}

.SFSymbolsPreviewWireframe {fill:none;opacity:1.0;stroke:black;stroke-width:0.5}
</style>
 <g id="Notes">
  <rect height="2200" id="artboard" style="fill:white;opacity:1" width="3300" x="0" y="0"/>
  <line style="fill:none;stroke:black;opacity:1;stroke-width:0.5;" x1="263" x2="3036" y1="292" y2="292"/>
  <text style="stroke:none;fill:black;font-family:sans-serif;font-size:13;font-weight:bold;" transform="matrix(1 0 0 1 263 322)">Weight/Scale Variations</text>
  <text style="stroke:none;fill:black;font-family:sans-serif;font-size:13;text-anchor:middle;" transform="matrix(1 0 0 1 559.711 322)">Ultralight</text>
  <text style="stroke:none;fill:black;font-family:sans-serif;font-size:13;text-anchor:middle;" transform="matrix(1 0 0 1 856.422 322)">Thin</text>
  <text style="stroke:none;fill:black;font-family:sans-serif;font-size:13;text-anchor:middle;" transform="matrix(1 0 0 1 1153.13 322)">Light</text>
  <text style="stroke:none;fill:black;font-family:sans-serif;font-size:13;text-anchor:middle;" transform="matrix(1 0 0 1 1449.84 322)">Regular</text>
  <text style="stroke:none;fill:black;font-family:sans-serif;font-size:13;text-anchor:middle;" transform="matrix(1 0 0 1 1746.56 322)">Medium</text>
  <text style="stroke:none;fill:black;font-family:sans-serif;font-size:13;text-anchor:middle;" transform="matrix(1 0 0 1 2043.27 322)">Semibold</text>
  <text style="stroke:none;fill:black;font-family:sans-serif;font-size:13;text-anchor:middle;" transform="matrix(1 0 0 1 2339.98 322)">Bold</text>
  <text style="stroke:none;fill:black;font-family:sans-serif;font-size:13;text-anchor:middle;" transform="matrix(1 0 0 1 2636.69 322)">Heavy</text>
  <text style="stroke:none;fill:black;font-family:sans-serif;font-size:13;text-anchor:middle;" transform="matrix(1 0 0 1 2933.4 322)">Black</text>
  <line style="fill:none;stroke:black;opacity:1;stroke-width:0.5;" x1="263" x2="3036" y1="1903" y2="1903"/>
  <g transform="matrix(0.2 0 0 0.2 263 1933)">
   <path d="m46.2402 4.15039c21.7773 0 39.4531-17.627 39.4531-39.4043s-17.6758-39.4043-39.4531-39.4043c-21.7285 0-39.4043 17.627-39.4043 39.4043s17.6758 39.4043 39.4043 39.4043Zm0-7.42188c-17.6758 0-31.9336-14.3066-31.9336-31.9824s14.2578-31.9824 31.9336-31.9824 31.9824 14.3066 31.9824 31.9824-14.3066 31.9824-31.9824 31.9824Zm-17.9688-31.9824c0 2.14844 1.51367 3.61328 3.75977 3.61328h10.498v10.5957c0 2.19727 1.46484 3.71094 3.61328 3.71094 2.24609 0 3.71094-1.51367 3.71094-3.71094v-10.5957h10.5957c2.19727 0 3.71094-1.46484 3.71094-3.61328 0-2.19727-1.51367-3.71094-3.71094-3.71094h-10.5957v-10.5469c0-2.24609-1.46484-3.75977-3.71094-3.75977-2.14844 0-3.61328 1.51367-3.61328 3.75977v10.5469h-10.498c-2.24609 0-3.75977 1.51367-3.75977 3.71094Z"/>
  </g>
  <g transform="matrix(0.2 0 0 0.2 281.506 1933)">
   <path d="m58.5449 14.5508c27.4902 0 49.8047-22.3145 49.8047-49.8047s-22.3145-49.8047-49.8047-49.8047-49.8047 22.3145-49.8047 49.8047 22.3145 49.8047 49.8047 49.8047Zm0-8.30078c-22.9492 0-41.5039-18.5547-41.5039-41.5039s18.5547-41.5039 41.5039-41.5039 41.5039 18.5547 41.5039 41.5039-18.5547 41.5039-41.5039 41.5039Zm-22.6562-41.5039c0 2.39258 1.66016 4.00391 4.15039 4.00391h14.3555v14.4043c0 2.44141 1.66016 4.15039 4.05273 4.15039 2.44141 0 4.15039-1.66016 4.15039-4.15039v-14.4043h14.4043c2.44141 0 4.15039-1.61133 4.15039-4.00391 0-2.44141-1.70898-4.15039-4.15039-4.15039h-14.4043v-14.3555c0-2.49023-1.70898-4.19922-4.15039-4.19922-2.39258 0-4.05273 1.70898-4.05273 4.19922v14.3555h-14.3555c-2.49023 0-4.15039 1.70898-4.15039 4.15039Z"/>
  </g>
  <g transform="matrix(0.2 0 0 0.2 304.924 1933)">
   <path d="m74.8535 28.3203c35.1074 0 63.623-28.4668 63.623-63.5742s-28.5156-63.623-63.623-63.623-63.5742 28.5156-63.5742 63.623 28.4668 63.5742 63.5742 63.5742Zm0-9.08203c-30.127 0-54.4922-24.3652-54.4922-54.4922s24.3652-54.4922 54.4922-54.4922 54.4922 24.3652 54.4922 54.4922-24.3652 54.4922-54.4922 54.4922Zm-28.8574-54.4922c0 2.58789 1.85547 4.39453 4.58984 4.39453h19.7266v19.7754c0 2.68555 1.85547 4.58984 4.44336 4.58984 2.68555 0 4.54102-1.85547 4.54102-4.58984v-19.7754h19.7754c2.68555 0 4.58984-1.80664 4.58984-4.39453 0-2.73438-1.85547-4.58984-4.58984-4.58984h-19.7754v-19.7266c0-2.73438-1.85547-4.63867-4.54102-4.63867-2.58789 0-4.44336 1.9043-4.44336 4.63867v19.7266h-19.7266c-2.73438 0-4.58984 1.85547-4.58984 4.58984Z"/>
  </g>
  <text style="stroke:none;fill:black;font-family:sans-serif;font-size:13;font-weight:bold;" transform="matrix(1 0 0 1 263 1953)">Design Variations</text>
  <text style="stroke:none;fill:black;font-family:sans-serif;font-size:13;" transform="matrix(1 0 0 1 263 1971)">Symbols are supported in up to nine weights and three scales.</text>
  <text style="stroke:none;fill:black;font-family:sans-serif;font-size:13;" transform="matrix(1 0 0 1 263 1989)">For optimal layout with text and other symbols, vertically align</text>
  <text style="stroke:none;fill:black;font-family:sans-serif;font-size:13;" transform="matrix(1 0 0 1 263 2007)">symbols with the adjacent text.</text>
  <line style="fill:none;stroke:#00AEEF;stroke-width:0.5;opacity:1.0;" x1="776" x2="776" y1="1919" y2="1933"/>
  <g transform="matrix(0.2 0 0 0.2 776 1933)">
   <path d="m16.5527 0.78125c2.58789 0 3.85742-0.976562 4.78516-3.71094l6.29883-17.2363h28.8086l6.29883 17.2363c0.927734 2.73438 2.19727 3.71094 4.73633 3.71094 2.58789 0 4.24805-1.5625 4.24805-4.00391 0-0.830078-0.146484-1.61133-0.537109-2.63672l-22.9004-60.9863c-1.12305-2.97852-3.125-4.49219-6.25-4.49219-3.02734 0-5.07812 1.46484-6.15234 4.44336l-22.9004 61.084c-0.390625 1.02539-0.537109 1.80664-0.537109 2.63672 0 2.44141 1.5625 3.95508 4.10156 3.95508Zm13.4766-28.3691 11.8652-32.8613h0.244141l11.8652 32.8613Z"/>
  </g>
  <line style="fill:none;stroke:#00AEEF;stroke-width:0.5;opacity:1.0;" x1="792.836" x2="792.836" y1="1919" y2="1933"/>
  <text style="stroke:none;fill:black;font-family:sans-serif;font-size:13;font-weight:bold;" transform="matrix(1 0 0 1 776 1953)">Margins</text>
  <text style="stroke:none;fill:black;font-family:sans-serif;font-size:13;" transform="matrix(1 0 0 1 776 1971)">Leading and trailing margins on the left and right side of each symbol</text>
  <text style="stroke:none;fill:black;font-family:sans-serif;font-size:13;" transform="matrix(1 0 0 1 776 1989)">can be adjusted by modifying the x-location of the margin guidelines.</text>
  <text style="stroke:none;fill:black;font-family:sans-serif;font-size:13;" transform="matrix(1 0 0 1 776 2007)">Modifications are automatically applied proportionally to all</text>
  <text style="stroke:none;fill:black;font-family:sans-serif;font-size:13;" transform="matrix(1 0 0 1 776 2025)">scales and weights.</text>
  <g transform="matrix(0.2 0 0 0.2 1289 1933)">
   <path d="m14.209 9.32617 8.49609 8.54492c4.29688 4.3457 9.22852 4.05273 13.8672-1.07422l53.4668-58.9355-4.83398-4.88281-53.0762 58.3984c-1.75781 2.00195-3.41797 2.49023-5.76172 0.146484l-5.85938-5.81055c-2.34375-2.29492-1.80664-4.00391 0.195312-5.81055l57.373-54.0039-4.88281-4.83398-57.959 54.4434c-4.93164 4.58984-5.32227 9.47266-1.02539 13.8184Zm32.0801-90.9668c-2.09961 2.05078-2.24609 4.93164-1.07422 6.88477 1.17188 1.80664 3.4668 2.97852 6.68945 2.14844 7.32422-1.70898 14.9414-2.00195 22.0703 2.68555l-2.92969 7.27539c-1.70898 4.15039-0.830078 7.08008 1.85547 9.81445l11.4746 11.5723c2.44141 2.44141 4.49219 2.53906 7.32422 2.05078l5.32227-0.976562 3.32031 3.36914-0.195312 2.7832c-0.195312 2.49023 0.439453 4.39453 2.88086 6.78711l3.80859 3.71094c2.39258 2.39258 5.46875 2.53906 7.8125 0.195312l14.5508-14.5996c2.34375-2.34375 2.24609-5.32227-0.146484-7.71484l-3.85742-3.80859c-2.39258-2.39258-4.24805-3.17383-6.64062-2.97852l-2.88086 0.244141-3.22266-3.17383 1.2207-5.61523c0.634766-2.83203-0.146484-5.0293-3.07617-7.95898l-10.9863-10.9375c-16.6992-16.6016-38.8672-16.2109-53.3203-1.75781Zm7.4707 1.85547c12.1582-8.88672 28.6133-7.37305 39.7461 3.75977l12.1582 12.0605c1.17188 1.17188 1.36719 2.09961 1.02539 3.80859l-1.61133 7.42188 7.51953 7.42188 4.93164-0.292969c1.26953-0.0488281 1.66016 0.0488281 2.63672 1.02539l2.88086 2.88086-12.207 12.207-2.88086-2.88086c-0.976562-0.976562-1.12305-1.36719-1.07422-2.68555l0.341797-4.88281-7.4707-7.42188-7.61719 1.26953c-1.61133 0.341797-2.34375 0.195312-3.56445-0.976562l-10.0098-10.0098c-1.26953-1.17188-1.41602-2.00195-0.634766-3.85742l4.39453-10.4492c-7.8125-7.27539-17.9688-10.4004-28.125-7.42188-0.78125 0.195312-1.07422-0.439453-0.439453-0.976562Z"/>
  </g>
  <text style="stroke:none;fill:black;font-family:sans-serif;font-size:13;font-weight:bold;" transform="matrix(1 0 0 1 1289 1953)">Exporting</text>
  <text style="stroke:none;fill:black;font-family:sans-serif;font-size:13;" transform="matrix(1 0 0 1 1289 1971)">Symbols should be outlined when exporting to ensure the</text>
  <text style="stroke:none;fill:black;font-family:sans-serif;font-size:13;" transform="matrix(1 0 0 1 1289 1989)">design is preserved when submitting to Xcode.</text>
  <text id="template-version" style="stroke:none;fill:black;font-family:sans-serif;font-size:13;text-anchor:end;" transform="matrix(1 0 0 1 3036 1933)">Template v.6.0</text>
  <text style="stroke:none;fill:black;font-family:sans-serif;font-size:13;text-anchor:end;" transform="matrix(1 0 0 1 3036 1951)">Requires Xcode 16 or greater</text>
  <text id="descriptive-name" style="stroke:none;fill:black;font-family:sans-serif;font-size:13;text-anchor:end;" transform="matrix(1 0 0 1 3036 1969)">Generated from filternahrung-7</text>
  <text style="stroke:none;fill:black;font-family:sans-serif;font-size:13;text-anchor:end;" transform="matrix(1 0 0 1 3036 1987)">Typeset at 100.0 points</text>
  <text style="stroke:none;fill:black;font-family:sans-serif;font-size:13;" transform="matrix(1 0 0 1 263 726)">Small</text>
  <text style="stroke:none;fill:black;font-family:sans-serif;font-size:13;" transform="matrix(1 0 0 1 263 1156)">Medium</text>
  <text style="stroke:none;fill:black;font-family:sans-serif;font-size:13;" transform="matrix(1 0 0 1 263 1586)">Large</text>
 </g>
 <g id="Guides">
  <g id="H-reference" style="fill:#27AAE1;stroke:none;" transform="matrix(1 0 0 1 339 696)">
   <path d="M0.993654 0L3.63775 0L29.3281-67.1323L30.0303-67.1323L30.0303-70.459L28.1226-70.459ZM11.6885-24.4799L46.9815-24.4799L46.2315-26.7285L12.4385-26.7285ZM55.1196 0L57.7637 0L30.6382-70.459L29.4326-70.459L29.4326-67.1323Z"/>
  </g>
  <line id="Baseline-S" style="fill:none;stroke:#27AAE1;opacity:1;stroke-width:0.5;" x1="263" x2="3036" y1="696" y2="696"/>
  <line id="Capline-S" style="fill:none;stroke:#27AAE1;opacity:1;stroke-width:0.5;" x1="263" x2="3036" y1="625.541" y2="625.541"/>
  <g id="H-reference" style="fill:#27AAE1;stroke:none;" transform="matrix(1 0 0 1 339 1126)">
   <path d="M0.993654 0L3.63775 0L29.3281-67.1323L30.0303-67.1323L30.0303-70.459L28.1226-70.459ZM11.6885-24.4799L46.9815-24.4799L46.2315-26.7285L12.4385-26.7285ZM55.1196 0L57.7637 0L30.6382-70.459L29.4326-70.459L29.4326-67.1323Z"/>
  </g>
  <line id="Baseline-M" style="fill:none;stroke:#27AAE1;opacity:1;stroke-width:0.5;" x1="263" x2="3036" y1="1126" y2="1126"/>
  <line id="Capline-M" style="fill:none;stroke:#27AAE1;opacity:1;stroke-width:0.5;" x1="263" x2="3036" y1="1055.54" y2="1055.54"/>
  <g id="H-reference" style="fill:#27AAE1;stroke:none;" transform="matrix(1 0 0 1 339 1556)">
   <path d="M0.993654 0L3.63775 0L29.3281-67.1323L30.0303-67.1323L30.0303-70.459L28.1226-70.459ZM11.6885-24.4799L46.9815-24.4799L46.2315-26.7285L12.4385-26.7285ZM55.1196 0L57.7637 0L30.6382-70.459L29.4326-70.459L29.4326-67.1323Z"/>
  </g>
  <line id="Baseline-L" style="fill:none;stroke:#27AAE1;opacity:1;stroke-width:0.5;" x1="263" x2="3036" y1="1556" y2="1556"/>
  <line id="Capline-L" style="fill:none;stroke:#27AAE1;opacity:1;stroke-width:0.5;" x1="263" x2="3036" y1="1485.54" y2="1485.54"/>
  <line id="right-margin-Black-S" style="fill:none;stroke:#00AEEF;stroke-width:0.5;opacity:1.0;" x1="2982.23" x2="2982.23" y1="600.785" y2="720.121"/>
  <line id="left-margin-Black-S" style="fill:none;stroke:#00AEEF;stroke-width:0.5;opacity:1.0;" x1="2884.57" x2="2884.57" y1="600.785" y2="720.121"/>
  <line id="right-margin-Regular-S" style="fill:none;stroke:#00AEEF;stroke-width:0.5;opacity:1.0;" x1="1496.11" x2="1496.11" y1="600.785" y2="720.121"/>
  <line id="left-margin-Regular-S" style="fill:none;stroke:#00AEEF;stroke-width:0.5;opacity:1.0;" x1="1403.58" x2="1403.58" y1="600.785" y2="720.121"/>
  <line id="right-margin-Ultralight-S" style="fill:none;stroke:#00AEEF;stroke-width:0.5;opacity:1.0;" x1="603.773" x2="603.773" y1="600.785" y2="720.121"/>
  <line id="left-margin-Ultralight-S" style="fill:none;stroke:#00AEEF;stroke-width:0.5;opacity:1.0;" x1="515.649" x2="515.649" y1="600.785" y2="720.121"/>
 </g>
 <g id="Symbols">
  <g id="Black-S" transform="matrix(1 0 0 1 2884.57 696)">
   <path class="monochrome-0 multicolor-0:tintColor hierarchical-0:primary SFSymbolsPreviewWireframe" d="M58.6704-51.18C65.5204-51.18 69.3338-43.9769 69.3338-35.2088C69.3338-26.803 63.1548-13.93 57.3435-13.93C56.425-13.93 55.5787-14.0575 54.5426-14.3144C54.3526-14.3616 54.157-14.4127 53.9202-14.4764C53.7908-14.5113 53.3527-14.6307 53.3134-14.6414C51.683-15.0835 50.7037-15.2569 49.3819-15.2569C47.9779-15.2569 47.0414-15.0925 45.3351-14.6353C45.094-14.5706 44.9691-14.5371 44.8487-14.5052C43.4965-14.1467 42.6019-13.9787 41.4204-13.93C35.4259-13.93 29.43-25.9219 29.43-35.2088C29.43-44.2281 33.5193-51.18 41.4204-51.18C42.0535-51.18 42.7041-51.0837 43.3862-50.9028C44.304-50.6594 45.1717-50.3065 46.408-49.7206C48.634-48.6656 48.972-48.5262 49.3819-48.5262C49.5758-48.5262 49.9523-48.6257 50.5275-48.8482C50.9166-48.9987 52.5368-49.6916 52.6741-49.7485C54.9698-50.6991 56.7452-51.18 58.6704-51.18ZM55.4306-42.43C54.4642-42.43 53.507-42.1823 52.2109-41.6696C52.1473-41.6445 51.0621-41.2011 50.774-41.0947C50.2078-40.8855 49.7869-40.7791 49.3819-40.7791C48.6998-40.7791 48.5747-40.8285 46.6784-41.687C45.9651-42.0099 45.4841-42.1967 45.0184-42.3147C44.7155-42.3915 44.443-42.43 44.1974-42.43C40.2949-42.43 38.18-38.9955 38.18-34.2056C38.18-29.2521 41.6202-22.6795 44.1595-22.6788C44.7356-22.702 45.2049-22.7862 45.971-22.9802C46.0466-22.9994 46.125-23.0195 46.2831-23.06C47.5326-23.3798 48.279-23.505 49.3819-23.505C50.4331-23.505 51.2093-23.3736 52.4107-23.0624C52.4387-23.0552 52.7219-22.9815 52.8029-22.9606C52.9466-22.9236 53.0631-22.8946 53.1737-22.8684C53.7188-22.7392 54.1337-22.6795 54.5665-22.6795C57.0036-22.6795 60.5838-29.8046 60.5838-34.2056C60.5838-38.8399 58.5942-42.43 55.4306-42.43ZM58.6896-62.45C59.449-62.45 60.0646-61.8344 60.0646-61.075C60.0646-58.5885 59.077-56.2039 57.319-54.4459C55.5609-52.6878 53.176-51.7 50.6896-51.7C49.9302-51.7 49.3146-52.3156 49.3146-53.075C49.3146-55.5615 50.3022-57.9461 52.0603-59.7041C53.8184-61.4622 56.2033-62.45 58.6896-62.45ZM55.6891-58.0755L55.6253-58.0595C55.1689-57.9368 54.7482-57.6962 54.4083-57.3563C54.0683-57.0163 53.8277-56.5957 53.7051-56.1393L53.6891-56.0755L53.7533-56.0911C54.1717-56.2035 54.5601-56.4151 54.8837-56.7114L54.9704-56.7943C55.3103-57.1342 55.5509-57.5549 55.6735-58.0113L55.6891-58.0755Z"/>
   <path class="monochrome-1 multicolor-1:tintColor hierarchical-1:tertiary SFSymbolsPreviewWireframe" d="M48.9411-84C55.3091-84.0013 61.615-82.7479 67.4985-80.3116C73.382-77.8752 78.7279-74.3036 83.2305-69.8009C87.7334-65.2983 91.305-59.9524 93.7418-54.0682C96.1779-48.1846 97.4312-41.8789 97.43-35.5124C97.43-8.72255 75.7254 13 48.9424 13C22.156 13 0.43-8.726 0.43-35.5124C0.43-62.2926 22.1539-84 48.9411-84ZM48.9424-70C29.8835-70 14.43-54.5582 14.43-35.5124C14.43-16.458 29.888-0.999999 48.9424-0.999999C67.9909-0.999999 83.43-16.4519 83.43-35.5138C83.4309-40.0428 82.5395-44.5276 80.8069-48.7121C79.0739-52.8969 76.5337-56.6989 73.3311-59.9013C70.1287-63.1038 66.3266-65.644 62.1422-67.3767C57.9578-69.1095 53.4729-70.0009 48.9424-70Z"/>
  </g>
  <g id="Regular-S" transform="matrix(1 0 0 1 1403.58 696)">
   <path class="monochrome-0 multicolor-0:tintColor hierarchical-0:primary SFSymbolsPreviewWireframe" d="M55.6604-51.18C62.5105-51.18 66.3239-43.9768 66.3239-35.2088C66.3239-26.8029 60.1449-13.93 54.3335-13.93C53.4151-13.93 52.5687-14.0575 51.5327-14.3144C51.3427-14.3615 51.147-14.4126 50.9102-14.4764C50.7808-14.5112 50.3427-14.6307 50.3034-14.6413C48.673-15.0834 47.6937-15.2569 46.372-15.2569C44.968-15.2569 44.0315-15.0925 42.3251-14.6353C42.084-14.5706 41.9592-14.5371 41.8388-14.5052C40.4865-14.1466 39.5919-13.9787 38.4104-13.93C32.416-13.93 26.42-25.9218 26.42-35.2088C26.42-44.2281 30.5094-51.18 38.4104-51.18C39.0435-51.18 39.6942-51.0836 40.3763-50.9027C41.294-50.6593 42.1618-50.3065 43.398-49.7206C45.624-48.6656 45.962-48.5261 46.372-48.5261C46.5658-48.5261 46.9424-48.6257 47.5175-48.8482C47.9067-48.9987 49.5268-49.6916 49.6641-49.7484C51.9598-50.699 53.7353-51.18 55.6604-51.18ZM54.0405-45.43C52.8154-45.43 51.6018-45.107 49.9586-44.4386C49.8779-44.4058 48.5021-43.8278 48.1369-43.689C47.419-43.4162 46.8853-43.2776 46.372-43.2776C45.5072-43.2776 45.3485-43.3419 42.9443-44.4612C42.04-44.8823 41.4303-45.1258 40.8399-45.2796C40.4558-45.3797 40.1103-45.43 39.7989-45.43C34.8514-45.43 32.17-40.9521 32.17-34.7072C32.17-28.2489 36.5316-19.6797 39.751-19.6787C40.4813-19.7091 41.0763-19.8188 42.0475-20.0717C42.1433-20.0967 42.2428-20.1229 42.4433-20.1758C44.0273-20.5927 44.9736-20.7559 46.372-20.7559C47.7047-20.7559 48.6888-20.5847 50.2119-20.179C50.2474-20.1695 50.6064-20.0734 50.7091-20.0462C50.8912-19.998 51.039-19.9601 51.1792-19.9259C51.8703-19.7576 52.3963-19.6797 52.945-19.6797C56.0348-19.6797 60.5739-28.9692 60.5739-34.7072C60.5739-40.7493 58.0514-45.43 54.0405-45.43ZM55.6797-62.45C56.439-62.45 57.0547-61.8344 57.0547-61.075C57.0547-58.5885 56.0671-56.2039 54.309-54.4458C52.5509-52.6878 50.166-51.7 47.6797-51.7C46.9203-51.7 46.3047-52.3156 46.3047-53.075C46.3047-55.5614 47.2923-57.946 49.0503-59.7041C50.8084-61.4622 53.1933-62.45 55.6797-62.45ZM53.2427-58.512L53.147-58.488C52.4624-58.304 51.8313-57.943 51.3214-57.4331C50.8115-56.9232 50.4506-56.2922 50.2666-55.6076L50.2427-55.512L50.3389-55.5354C50.9665-55.704 51.5491-56.0214 52.0346-56.4658L52.1645-56.5902C52.6744-57.1001 53.0353-57.7311 53.2193-58.4157L53.2427-58.512Z"/>
   <path class="monochrome-1 multicolor-1:tintColor hierarchical-1:tertiary SFSymbolsPreviewWireframe" d="M46.4321-81.8365C52.4502-81.8377 58.4096-80.6532 63.9698-78.3508C69.53-76.0483 74.5822-72.6729 78.8374-68.4176C83.0928-64.1624 86.4682-59.1103 88.771-53.5496C91.0733-47.9892 92.2577-42.03 92.2566-36.0127C92.2566-10.693 71.744 9.83658 46.4328 9.83658C21.1173 9.83658 0.5835-10.6972 0.5835-36.0127C0.5835-61.3211 21.1145-81.8365 46.4321-81.8365ZM46.4328-75.0865C24.8413-75.0865 7.3335-57.592 7.3335-36.0127C7.3335-14.4252 24.8452 3.08658 46.4328 3.08658C68.0148 3.08658 85.5066-14.4197 85.5066-36.0133C85.5076-41.1447 84.4976-46.226 82.5345-50.9672C80.571-55.7085 77.693-60.0162 74.0644-63.6446C70.4361-67.273 66.1283-70.1511 61.3873-72.1143C56.6463-74.0776 51.5649-75.0875 46.4328-75.0865Z"/>
  </g>
  <g id="Ultralight-S" transform="matrix(1 0 0 1 515.649 696)">
   <path class="monochrome-0 multicolor-0:tintColor hierarchical-0:primary SFSymbolsPreviewWireframe" d="M54.101-51.1827C60.9511-51.1827 64.7645-43.9795 64.7645-35.2115C64.7645-26.8056 58.5855-13.9327 52.7741-13.9327C51.8557-13.9327 51.0093-14.0601 49.9733-14.3171C49.7833-14.3642 49.5876-14.4153 49.3508-14.4791C49.2214-14.5139 48.7833-14.6334 48.744-14.644C47.1136-15.0861 46.1344-15.2596 44.8126-15.2596C43.4086-15.2596 42.4721-15.0952 40.7657-14.638C40.5246-14.5732 40.3998-14.5398 40.2794-14.5079C38.9271-14.1493 38.0325-13.9814 36.851-13.9327C30.8566-13.9327 24.8607-25.9245 24.8607-35.2115C24.8607-44.2308 28.95-51.1827 36.851-51.1827C37.4842-51.1827 38.1348-51.0863 38.8169-50.9054C39.7347-50.662 40.6024-50.3092 41.8387-49.7232C44.0646-48.6683 44.4026-48.5288 44.8126-48.5288C45.0065-48.5288 45.383-48.6284 45.9581-48.8509C46.3473-49.0014 47.9674-49.6943 48.1048-49.7511C50.4004-50.7017 52.1759-51.1827 54.101-51.1827ZM54.101-48.4327C52.6171-48.4327 51.1471-48.0345 49.1568-47.2103C49.0591-47.1699 47.3926-46.4572 46.9503-46.2861C46.0808-45.9497 45.4344-45.7788 44.8126-45.7788C43.7651-45.7788 43.5729-45.8581 40.6609-47.2382C39.5656-47.7573 38.827-48.0577 38.1119-48.2473C37.6467-48.3707 37.2282-48.4327 36.851-48.4327C30.8584-48.4327 27.6107-42.9115 27.6107-35.2115C27.6107-27.2485 32.8936-16.6827 36.793-16.6814C37.6776-16.7188 38.3983-16.8541 39.5746-17.166C39.6907-17.1968 39.8112-17.2291 40.054-17.2943C41.9727-17.8084 43.1188-18.0096 44.8126-18.0096C46.4268-18.0096 47.6188-17.7984 49.4637-17.2982C49.5067-17.2865 49.9415-17.168 50.0659-17.1345C50.2865-17.0751 50.4655-17.0283 50.6353-16.9862C51.4724-16.7786 52.1094-16.6827 52.7741-16.6827C56.5166-16.6827 62.0145-28.1366 62.0145-35.2115C62.0145-42.6614 58.9591-48.4327 54.101-48.4327ZM54.1203-62.4519C54.8797-62.4519 55.4953-61.8363 55.4953-61.0769C55.4953-58.5904 54.5077-56.2058 52.7496-54.4478C50.9915-52.6897 48.6066-51.7019 46.1203-51.7019C45.3609-51.7019 44.7453-52.3175 44.7453-53.0769C44.7453-55.5634 45.7329-57.9479 47.4909-59.706C49.249-61.4641 51.6339-62.4519 54.1203-62.4519ZM52.5563-59.5139L52.4009-59.4749C51.2889-59.176 50.2637-58.5897 49.4355-57.7615C48.6073-56.9333 48.021-55.9083 47.7222-54.7963L47.6833-54.6409L47.8397-54.6789C48.859-54.9528 49.8054-55.4684 50.594-56.1903L50.8051-56.3923C51.6333-57.2205 52.2195-58.2455 52.5183-59.3575L52.5563-59.5139Z"/>
   <path class="monochrome-1 multicolor-1:tintColor hierarchical-1:tertiary SFSymbolsPreviewWireframe" d="M44.3636-80.5865C50.0861-80.5876 55.7528-79.4613 61.04-77.272C66.3271-75.0826 71.1312-71.8729 75.1774-67.8265C79.2239-63.7803 82.4335-58.9764 84.6232-53.6889C86.8124-48.4015 87.9387-42.7349 87.9376-37.0127C87.9376-12.9352 68.432 6.58658 44.3638 6.58658C20.2909 6.58658 0.7645-12.9399 0.7645-37.0127C0.7645-61.0781 20.2877-80.5865 44.3636-80.5865ZM44.3638-78.3365C21.53-78.3365 3.0145-59.8351 3.0145-37.0127C3.0145-14.1825 21.5336 4.33658 44.3638 4.33658C67.1889 4.33658 85.6876-14.1774 85.6876-37.0129C85.6886-42.4398 84.6205-47.8138 82.5443-52.828C80.4678-57.8425 77.4239-62.3983 73.5865-66.2355C69.7491-70.073 65.1932-73.1168 60.1791-75.1931C55.1651-77.2695 49.791-78.3376 44.3638-78.3365Z"/>
  </g>
 </g>
</svg>
