<?xml version="1.0" encoding="UTF-8"?>
<!--Generator: Apple Native CoreSVG 341-->
<!DOCTYPE svg
PUBLIC "-//W3C//DTD SVG 1.1//EN"
       "http://www.w3.org/Graphics/SVG/1.1/DTD/svg11.dtd">
<svg version="1.1" xmlns="http://www.w3.org/2000/svg" xmlns:xlink="http://www.w3.org/1999/xlink" viewBox="0 0 3300 2200">
 <!--glyph: "", point size: 100.0, font version: "20.0d10e1", template writer version: "138.0.0"-->
 <style>.monochrome-0 {-sfsymbols-motion-group:1;-sfsymbols-layer-tags:656c33ddc3b4c424}
.monochrome-1 {-sfsymbols-motion-group:0;-sfsymbols-layer-tags:656c33ddc3b4c424}

.multicolor-0:tintColor {-sfsymbols-motion-group:1;-sfsymbols-layer-tags:656c33ddc3b4c424}
.multicolor-1:tintColor {-sfsymbols-motion-group:0;-sfsymbols-layer-tags:656c33ddc3b4c424}

.hierarchical-0:primary {-sfsymbols-motion-group:1;-sfsymbols-layer-tags:656c33ddc3b4c424}
.hierarchical-1:tertiary {-sfsymbols-motion-group:0;-sfsymbols-layer-tags:656c33ddc3b4c424}

.SFSymbolsPreviewWireframe {fill:none;opacity:1.0;stroke:black;stroke-width:0.5}
</style>
 <g id="Notes">
  <rect height="2200" id="artboard" style="fill:white;opacity:1" width="3300" x="0" y="0"/>
  <line style="fill:none;stroke:black;opacity:1;stroke-width:0.5;" x1="263" x2="3036" y1="292" y2="292"/>
  <text style="stroke:none;fill:black;font-family:sans-serif;font-size:13;font-weight:bold;" transform="matrix(1 0 0 1 263 322)">Weight/Scale Variations</text>
  <text style="stroke:none;fill:black;font-family:sans-serif;font-size:13;text-anchor:middle;" transform="matrix(1 0 0 1 559.711 322)">Ultralight</text>
  <text style="stroke:none;fill:black;font-family:sans-serif;font-size:13;text-anchor:middle;" transform="matrix(1 0 0 1 856.422 322)">Thin</text>
  <text style="stroke:none;fill:black;font-family:sans-serif;font-size:13;text-anchor:middle;" transform="matrix(1 0 0 1 1153.13 322)">Light</text>
  <text style="stroke:none;fill:black;font-family:sans-serif;font-size:13;text-anchor:middle;" transform="matrix(1 0 0 1 1449.84 322)">Regular</text>
  <text style="stroke:none;fill:black;font-family:sans-serif;font-size:13;text-anchor:middle;" transform="matrix(1 0 0 1 1746.56 322)">Medium</text>
  <text style="stroke:none;fill:black;font-family:sans-serif;font-size:13;text-anchor:middle;" transform="matrix(1 0 0 1 2043.27 322)">Semibold</text>
  <text style="stroke:none;fill:black;font-family:sans-serif;font-size:13;text-anchor:middle;" transform="matrix(1 0 0 1 2339.98 322)">Bold</text>
  <text style="stroke:none;fill:black;font-family:sans-serif;font-size:13;text-anchor:middle;" transform="matrix(1 0 0 1 2636.69 322)">Heavy</text>
  <text style="stroke:none;fill:black;font-family:sans-serif;font-size:13;text-anchor:middle;" transform="matrix(1 0 0 1 2933.4 322)">Black</text>
  <line style="fill:none;stroke:black;opacity:1;stroke-width:0.5;" x1="263" x2="3036" y1="1903" y2="1903"/>
  <g transform="matrix(0.2 0 0 0.2 263 1933)">
   <path d="m46.2402 4.15039c21.7773 0 39.4531-17.627 39.4531-39.4043s-17.6758-39.4043-39.4531-39.4043c-21.7285 0-39.4043 17.627-39.4043 39.4043s17.6758 39.4043 39.4043 39.4043Zm0-7.42188c-17.6758 0-31.9336-14.3066-31.9336-31.9824s14.2578-31.9824 31.9336-31.9824 31.9824 14.3066 31.9824 31.9824-14.3066 31.9824-31.9824 31.9824Zm-17.9688-31.9824c0 2.14844 1.51367 3.61328 3.75977 3.61328h10.498v10.5957c0 2.19727 1.46484 3.71094 3.61328 3.71094 2.24609 0 3.71094-1.51367 3.71094-3.71094v-10.5957h10.5957c2.19727 0 3.71094-1.46484 3.71094-3.61328 0-2.19727-1.51367-3.71094-3.71094-3.71094h-10.5957v-10.5469c0-2.24609-1.46484-3.75977-3.71094-3.75977-2.14844 0-3.61328 1.51367-3.61328 3.75977v10.5469h-10.498c-2.24609 0-3.75977 1.51367-3.75977 3.71094Z"/>
  </g>
  <g transform="matrix(0.2 0 0 0.2 281.506 1933)">
   <path d="m58.5449 14.5508c27.4902 0 49.8047-22.3145 49.8047-49.8047s-22.3145-49.8047-49.8047-49.8047-49.8047 22.3145-49.8047 49.8047 22.3145 49.8047 49.8047 49.8047Zm0-8.30078c-22.9492 0-41.5039-18.5547-41.5039-41.5039s18.5547-41.5039 41.5039-41.5039 41.5039 18.5547 41.5039 41.5039-18.5547 41.5039-41.5039 41.5039Zm-22.6562-41.5039c0 2.39258 1.66016 4.00391 4.15039 4.00391h14.3555v14.4043c0 2.44141 1.66016 4.15039 4.05273 4.15039 2.44141 0 4.15039-1.66016 4.15039-4.15039v-14.4043h14.4043c2.44141 0 4.15039-1.61133 4.15039-4.00391 0-2.44141-1.70898-4.15039-4.15039-4.15039h-14.4043v-14.3555c0-2.49023-1.70898-4.19922-4.15039-4.19922-2.39258 0-4.05273 1.70898-4.05273 4.19922v14.3555h-14.3555c-2.49023 0-4.15039 1.70898-4.15039 4.15039Z"/>
  </g>
  <g transform="matrix(0.2 0 0 0.2 304.924 1933)">
   <path d="m74.8535 28.3203c35.1074 0 63.623-28.4668 63.623-63.5742s-28.5156-63.623-63.623-63.623-63.5742 28.5156-63.5742 63.623 28.4668 63.5742 63.5742 63.5742Zm0-9.08203c-30.127 0-54.4922-24.3652-54.4922-54.4922s24.3652-54.4922 54.4922-54.4922 54.4922 24.3652 54.4922 54.4922-24.3652 54.4922-54.4922 54.4922Zm-28.8574-54.4922c0 2.58789 1.85547 4.39453 4.58984 4.39453h19.7266v19.7754c0 2.68555 1.85547 4.58984 4.44336 4.58984 2.68555 0 4.54102-1.85547 4.54102-4.58984v-19.7754h19.7754c2.68555 0 4.58984-1.80664 4.58984-4.39453 0-2.73438-1.85547-4.58984-4.58984-4.58984h-19.7754v-19.7266c0-2.73438-1.85547-4.63867-4.54102-4.63867-2.58789 0-4.44336 1.9043-4.44336 4.63867v19.7266h-19.7266c-2.73438 0-4.58984 1.85547-4.58984 4.58984Z"/>
  </g>
  <text style="stroke:none;fill:black;font-family:sans-serif;font-size:13;font-weight:bold;" transform="matrix(1 0 0 1 263 1953)">Design Variations</text>
  <text style="stroke:none;fill:black;font-family:sans-serif;font-size:13;" transform="matrix(1 0 0 1 263 1971)">Symbols are supported in up to nine weights and three scales.</text>
  <text style="stroke:none;fill:black;font-family:sans-serif;font-size:13;" transform="matrix(1 0 0 1 263 1989)">For optimal layout with text and other symbols, vertically align</text>
  <text style="stroke:none;fill:black;font-family:sans-serif;font-size:13;" transform="matrix(1 0 0 1 263 2007)">symbols with the adjacent text.</text>
  <line style="fill:none;stroke:#00AEEF;stroke-width:0.5;opacity:1.0;" x1="776" x2="776" y1="1919" y2="1933"/>
  <g transform="matrix(0.2 0 0 0.2 776 1933)">
   <path d="m16.5527 0.78125c2.58789 0 3.85742-0.976562 4.78516-3.71094l6.29883-17.2363h28.8086l6.29883 17.2363c0.927734 2.73438 2.19727 3.71094 4.73633 3.71094 2.58789 0 4.24805-1.5625 4.24805-4.00391 0-0.830078-0.146484-1.61133-0.537109-2.63672l-22.9004-60.9863c-1.12305-2.97852-3.125-4.49219-6.25-4.49219-3.02734 0-5.07812 1.46484-6.15234 4.44336l-22.9004 61.084c-0.390625 1.02539-0.537109 1.80664-0.537109 2.63672 0 2.44141 1.5625 3.95508 4.10156 3.95508Zm13.4766-28.3691 11.8652-32.8613h0.244141l11.8652 32.8613Z"/>
  </g>
  <line style="fill:none;stroke:#00AEEF;stroke-width:0.5;opacity:1.0;" x1="792.836" x2="792.836" y1="1919" y2="1933"/>
  <text style="stroke:none;fill:black;font-family:sans-serif;font-size:13;font-weight:bold;" transform="matrix(1 0 0 1 776 1953)">Margins</text>
  <text style="stroke:none;fill:black;font-family:sans-serif;font-size:13;" transform="matrix(1 0 0 1 776 1971)">Leading and trailing margins on the left and right side of each symbol</text>
  <text style="stroke:none;fill:black;font-family:sans-serif;font-size:13;" transform="matrix(1 0 0 1 776 1989)">can be adjusted by modifying the x-location of the margin guidelines.</text>
  <text style="stroke:none;fill:black;font-family:sans-serif;font-size:13;" transform="matrix(1 0 0 1 776 2007)">Modifications are automatically applied proportionally to all</text>
  <text style="stroke:none;fill:black;font-family:sans-serif;font-size:13;" transform="matrix(1 0 0 1 776 2025)">scales and weights.</text>
  <g transform="matrix(0.2 0 0 0.2 1289 1933)">
   <path d="m14.209 9.32617 8.49609 8.54492c4.29688 4.3457 9.22852 4.05273 13.8672-1.07422l53.4668-58.9355-4.83398-4.88281-53.0762 58.3984c-1.75781 2.00195-3.41797 2.49023-5.76172 0.146484l-5.85938-5.81055c-2.34375-2.29492-1.80664-4.00391 0.195312-5.81055l57.373-54.0039-4.88281-4.83398-57.959 54.4434c-4.93164 4.58984-5.32227 9.47266-1.02539 13.8184Zm32.0801-90.9668c-2.09961 2.05078-2.24609 4.93164-1.07422 6.88477 1.17188 1.80664 3.4668 2.97852 6.68945 2.14844 7.32422-1.70898 14.9414-2.00195 22.0703 2.68555l-2.92969 7.27539c-1.70898 4.15039-0.830078 7.08008 1.85547 9.81445l11.4746 11.5723c2.44141 2.44141 4.49219 2.53906 7.32422 2.05078l5.32227-0.976562 3.32031 3.36914-0.195312 2.7832c-0.195312 2.49023 0.439453 4.39453 2.88086 6.78711l3.80859 3.71094c2.39258 2.39258 5.46875 2.53906 7.8125 0.195312l14.5508-14.5996c2.34375-2.34375 2.24609-5.32227-0.146484-7.71484l-3.85742-3.80859c-2.39258-2.39258-4.24805-3.17383-6.64062-2.97852l-2.88086 0.244141-3.22266-3.17383 1.2207-5.61523c0.634766-2.83203-0.146484-5.0293-3.07617-7.95898l-10.9863-10.9375c-16.6992-16.6016-38.8672-16.2109-53.3203-1.75781Zm7.4707 1.85547c12.1582-8.88672 28.6133-7.37305 39.7461 3.75977l12.1582 12.0605c1.17188 1.17188 1.36719 2.09961 1.02539 3.80859l-1.61133 7.42188 7.51953 7.42188 4.93164-0.292969c1.26953-0.0488281 1.66016 0.0488281 2.63672 1.02539l2.88086 2.88086-12.207 12.207-2.88086-2.88086c-0.976562-0.976562-1.12305-1.36719-1.07422-2.68555l0.341797-4.88281-7.4707-7.42188-7.61719 1.26953c-1.61133 0.341797-2.34375 0.195312-3.56445-0.976562l-10.0098-10.0098c-1.26953-1.17188-1.41602-2.00195-0.634766-3.85742l4.39453-10.4492c-7.8125-7.27539-17.9688-10.4004-28.125-7.42188-0.78125 0.195312-1.07422-0.439453-0.439453-0.976562Z"/>
  </g>
  <text style="stroke:none;fill:black;font-family:sans-serif;font-size:13;font-weight:bold;" transform="matrix(1 0 0 1 1289 1953)">Exporting</text>
  <text style="stroke:none;fill:black;font-family:sans-serif;font-size:13;" transform="matrix(1 0 0 1 1289 1971)">Symbols should be outlined when exporting to ensure the</text>
  <text style="stroke:none;fill:black;font-family:sans-serif;font-size:13;" transform="matrix(1 0 0 1 1289 1989)">design is preserved when submitting to Xcode.</text>
  <text id="template-version" style="stroke:none;fill:black;font-family:sans-serif;font-size:13;text-anchor:end;" transform="matrix(1 0 0 1 3036 1933)">Template v.6.0</text>
  <text style="stroke:none;fill:black;font-family:sans-serif;font-size:13;text-anchor:end;" transform="matrix(1 0 0 1 3036 1951)">Requires Xcode 16 or greater</text>
  <text id="descriptive-name" style="stroke:none;fill:black;font-family:sans-serif;font-size:13;text-anchor:end;" transform="matrix(1 0 0 1 3036 1969)">Generated from filtervogelgruppe-66</text>
  <text style="stroke:none;fill:black;font-family:sans-serif;font-size:13;text-anchor:end;" transform="matrix(1 0 0 1 3036 1987)">Typeset at 100.0 points</text>
  <text style="stroke:none;fill:black;font-family:sans-serif;font-size:13;" transform="matrix(1 0 0 1 263 726)">Small</text>
  <text style="stroke:none;fill:black;font-family:sans-serif;font-size:13;" transform="matrix(1 0 0 1 263 1156)">Medium</text>
  <text style="stroke:none;fill:black;font-family:sans-serif;font-size:13;" transform="matrix(1 0 0 1 263 1586)">Large</text>
 </g>
 <g id="Guides">
  <g id="H-reference" style="fill:#27AAE1;stroke:none;" transform="matrix(1 0 0 1 339 696)">
   <path d="M0.993654 0L3.63775 0L29.3281-67.1323L30.0303-67.1323L30.0303-70.459L28.1226-70.459ZM11.6885-24.4799L46.9815-24.4799L46.2315-26.7285L12.4385-26.7285ZM55.1196 0L57.7637 0L30.6382-70.459L29.4326-70.459L29.4326-67.1323Z"/>
  </g>
  <line id="Baseline-S" style="fill:none;stroke:#27AAE1;opacity:1;stroke-width:0.5;" x1="263" x2="3036" y1="696" y2="696"/>
  <line id="Capline-S" style="fill:none;stroke:#27AAE1;opacity:1;stroke-width:0.5;" x1="263" x2="3036" y1="625.541" y2="625.541"/>
  <g id="H-reference" style="fill:#27AAE1;stroke:none;" transform="matrix(1 0 0 1 339 1126)">
   <path d="M0.993654 0L3.63775 0L29.3281-67.1323L30.0303-67.1323L30.0303-70.459L28.1226-70.459ZM11.6885-24.4799L46.9815-24.4799L46.2315-26.7285L12.4385-26.7285ZM55.1196 0L57.7637 0L30.6382-70.459L29.4326-70.459L29.4326-67.1323Z"/>
  </g>
  <line id="Baseline-M" style="fill:none;stroke:#27AAE1;opacity:1;stroke-width:0.5;" x1="263" x2="3036" y1="1126" y2="1126"/>
  <line id="Capline-M" style="fill:none;stroke:#27AAE1;opacity:1;stroke-width:0.5;" x1="263" x2="3036" y1="1055.54" y2="1055.54"/>
  <g id="H-reference" style="fill:#27AAE1;stroke:none;" transform="matrix(1 0 0 1 339 1556)">
   <path d="M0.993654 0L3.63775 0L29.3281-67.1323L30.0303-67.1323L30.0303-70.459L28.1226-70.459ZM11.6885-24.4799L46.9815-24.4799L46.2315-26.7285L12.4385-26.7285ZM55.1196 0L57.7637 0L30.6382-70.459L29.4326-70.459L29.4326-67.1323Z"/>
  </g>
  <line id="Baseline-L" style="fill:none;stroke:#27AAE1;opacity:1;stroke-width:0.5;" x1="263" x2="3036" y1="1556" y2="1556"/>
  <line id="Capline-L" style="fill:none;stroke:#27AAE1;opacity:1;stroke-width:0.5;" x1="263" x2="3036" y1="1485.54" y2="1485.54"/>
  <line id="right-margin-Black-S" style="fill:none;stroke:#00AEEF;stroke-width:0.5;opacity:1.0;" x1="2982.23" x2="2982.23" y1="600.785" y2="720.121"/>
  <line id="left-margin-Black-S" style="fill:none;stroke:#00AEEF;stroke-width:0.5;opacity:1.0;" x1="2884.57" x2="2884.57" y1="600.785" y2="720.121"/>
  <line id="right-margin-Regular-S" style="fill:none;stroke:#00AEEF;stroke-width:0.5;opacity:1.0;" x1="1496.11" x2="1496.11" y1="600.785" y2="720.121"/>
  <line id="left-margin-Regular-S" style="fill:none;stroke:#00AEEF;stroke-width:0.5;opacity:1.0;" x1="1403.58" x2="1403.58" y1="600.785" y2="720.121"/>
  <line id="right-margin-Ultralight-S" style="fill:none;stroke:#00AEEF;stroke-width:0.5;opacity:1.0;" x1="603.773" x2="603.773" y1="600.785" y2="720.121"/>
  <line id="left-margin-Ultralight-S" style="fill:none;stroke:#00AEEF;stroke-width:0.5;opacity:1.0;" x1="515.649" x2="515.649" y1="600.785" y2="720.121"/>
 </g>
 <g id="Symbols">
  <g id="Black-S" transform="matrix(1 0 0 1 2884.57 696)">
   <path class="monochrome-0 multicolor-0:tintColor hierarchical-0:primary SFSymbolsPreviewWireframe" d="M28.0359-39.76C27.767-40.0077 27.5653-40.1846 27.3742-40.3722C27.176-40.5668 26.9673-40.7543 26.808-40.9808C26.7266-41.094 26.6736-41.3594 26.7337-41.4337C26.8859-41.6177 27.0769-41.8442 27.3636-41.6814C27.5122-41.5929 27.6467-41.4903 27.8236-41.4125C27.5051-41.7663 27.6007-42.1909 27.583-42.6085C27.5724-42.9234 27.3176-43.1322 27.1159-43.3445C26.7903-43.6877 26.8469-44.2397 27.2468-44.3069C27.4662-44.3423 27.7953-44.1583 27.9545-43.9602C28.1916-43.6488 28.3154-43.2348 28.5101-42.8774C28.5879-42.7288 28.7224-42.6155 28.8286-42.4846C28.8887-42.5554 29.0055-42.6403 28.9984-42.704C28.963-43.0119 28.8922-43.3126 28.825-43.6134C28.7188-44.1088 28.6693-44.5971 28.9595-45.05C28.9807-45.0783 29.0019-45.1314 28.9913-45.1562L28.6799-45.8391C28.6374-45.931 28.5384-46.069 28.5631-46.1044C28.6551-46.2388 28.7754-46.3874 28.9099-46.4334C29.2142-46.5325 29.3947-46.2778 29.515-46.0336C29.6813-45.7011 29.7981-45.3366 29.9396-44.9899C29.975-44.8943 30.0246-44.8059 30.0918-44.7209C30.0316-45.0146 29.9962-45.3225 29.9042-45.6055C29.7486-46.0761 29.5433-46.529 29.3806-46.9996C29.1471-47.6541 28.9277-48.3136 28.7224-48.9776C28.5454-49.5508 28.4145-50.1417 28.2553-50.722C27.9899-51.6916 27.7104-52.6576 27.4591-53.6306C27.222-54.5436 26.9779-55.46 26.8045-56.3906C26.6842-57.0205 26.6983-57.6822 26.6169-58.3226C26.5533-58.8463 26.8576-59.1294 27.1725-59.3877C27.4308-59.6 27.6891-59.8477 28.0819-59.8123C28.3013-59.7946 28.5277-59.9786 28.7577-59.9963C29.3558-60.0388 29.7839-59.7132 30.0706-59.1648C30.3466-58.6517 30.658-58.1563 30.8703-57.6114C31.2701-56.5923 31.6169-55.5485 31.9672-54.5046C32.1406-54.0057 32.2857-53.4926 32.4095-52.976C32.5511-52.3957 32.6643-51.8083 32.7599-51.2209C32.8766-50.5203 32.9792-49.8162 33.0571-49.1085C33.1172-48.5636 33.1279-48.0116 33.1632-47.4666L33.2128-46.5679C33.5737-46.7094 33.9028-46.851 34.239-46.9642C34.6494-47.1057 35.0776-47.1977 35.481-47.364C36.9813-47.9797 38.4709-48.6166 39.9645-49.2429C40.5094-49.4729 41.0473-49.7206 41.5993-49.9223C42.4874-50.2479 43.3756-50.5876 44.285-50.8317C45.4456-51.1502 46.6274-51.3625 47.7916-51.6491C48.3082-51.7765 48.8036-51.9923 49.3131-52.1586C49.9501-52.3709 50.6011-52.5585 51.2416-52.7743C51.7936-52.9583 52.3314-53.1777 52.8834-53.3617C53.4885-53.5599 54.1007-53.7368 54.7132-53.9173C55.251-54.08 55.7924-54.2393 56.3338-54.3879C56.7089-54.4869 57.0875-54.5648 57.4661-54.6426C58.1172-54.7842 58.7683-54.9753 59.4299-55.0319C60.1023-55.092 60.7816-55.0106 61.461-54.9929C61.4681-54.9929 61.4752-54.9859 61.4823-54.9894C62.5933-55.0602 63.6195-54.6143 64.6669-54.3171C65.3286-54.1331 65.9832-53.9031 66.6378-53.6802C67.3172-53.4431 68.0001-53.2131 68.6653-52.9371C69.1257-52.746 69.5715-52.5054 69.9997-52.24C70.1801-52.1268 70.3181-51.9145 70.4526-51.7234C70.6649-51.412 70.8595-51.0794 71.0541-50.7574C71.2523-50.4319 71.5601-50.5026 71.8432-50.492C73.0321-50.446 74.2246-50.4213 75.4171-50.3576C75.7001-50.3434 75.9903-50.2514 76.2486-50.1311C76.3689-50.0745 76.4255-49.848 76.5069-49.6994C76.3795-49.6286 76.2486-49.4977 76.1212-49.4977C75.4383-49.4977 74.7943-49.3456 74.1645-49.0519C73.5473-48.7696 72.9196-48.5122 72.282-48.2805C71.1649-47.8621 70.1554-47.1997 69.3274-46.3414C68.6583-45.6622 67.9364-45.0394 67.303-44.3246C66.5599-43.4825 65.9053-42.5554 65.1799-41.692C64.727-41.1471 64.2175-40.6552 63.7398-40.1315C63.5133-39.8803 63.3081-39.6079 63.1029-39.3389C62.7703-38.9002 62.4483-38.4543 62.1227-38.012C61.3938-37.0177 60.679-36.0057 59.9359-35.022C59.4406-34.3639 58.9027-33.7375 58.3896-33.0935C58.2552-32.9237 58.1384-32.7397 58.0216-32.5557C57.7647-32.1704 57.3801-31.8883 56.9353-31.7595C56.4753-31.5932 56.0507-31.2854 55.619-31.0342C55.3076-30.8572 54.9998-30.6626 54.6884-30.4822C54.405-30.3159 54.129-30.1142 53.8247-30.008C53.1704-29.766 52.5016-29.565 51.8219-29.4065C50.8913-29.2048 49.9465-29.0526 49.0017-28.9323C48.5311-28.8722 48.0534-28.9854 47.5793-28.7872C47.2431-28.6457 46.8433-28.6952 46.4965-28.5714C46.1321-28.4405 45.7959-28.2069 45.4562-28.0052C45.3996-27.9699 45.3819-27.8637 45.3076-27.7151C45.9799-27.7151 46.5921-27.7399 47.2007-27.7045C47.6607-27.6762 48.1171-27.5488 48.5771-27.5028C49.1256-27.4462 49.6811-27.4143 50.2331-27.4037C50.9621-27.386 51.6945-27.3966 52.4234-27.3931C52.9825-27.3895 53.5487-27.4462 54.1007-27.3612C54.6389-27.2799 55.0776-27.4886 55.5518-27.6691C56.2736-27.9451 57.0132-28.1786 57.7492-28.4086C57.8946-28.444 58.0475-28.4302 58.1844-28.3697C58.9169-28.0583 59.6387-27.7222 60.3712-27.4143C60.7144-27.2657 61.0789-27.1666 61.4256-27.0286C61.8007-26.8871 61.8715-26.7455 61.7158-26.3882C61.3018-26.5474 60.8878-26.7137 60.4667-26.8694C59.8015-27.1171 59.1363-27.3719 58.4639-27.5877C58.2513-27.6447 58.0277-27.6496 57.8129-27.6019C57.4555-27.5346 57.1052-27.4179 56.7159-27.2445L58.2127-26.7526L60.0173-26.1546C60.0927-26.1306 60.1716-26.1185 60.2509-26.1192C61.3549-25.4115 62.6358-25.0471 63.6513-24.1554L63.6266-24.0563C63.5381-24.074 63.4496-24.0811 63.3612-24.1129C62.8198-24.315 62.2795-24.5202 61.7406-24.7286C61.3266-24.8914 60.9196-25.0825 60.495-25.2169C60.012-25.3627 59.5234-25.489 59.0301-25.5955C58.5878-25.6982 58.1455-25.8043 57.6996-25.8539C57.3175-25.8963 56.9318-25.8645 56.5461-25.8645L56.5036-25.6734C56.999-25.3832 57.505-25.1037 57.9969-24.7994C58.2339-24.6508 58.4498-24.4632 58.6727-24.2899C58.7152-24.258 58.7435-24.1943 58.7859-24.1802C59.4087-23.9431 59.5007-23.292 59.7095-22.7471C59.851-22.3862 59.9395-22.0005 60.0209-21.6148C60.0492-21.5015 59.9784-21.36 59.9501-21.2326C59.8546-21.2645 59.7555-21.2786 59.667-21.3282C59.2247-21.5723 59.3379-22.096 59.1929-22.4888C58.9699-23.1303 58.5577-23.689 58.011-24.0917C57.9756-24.1165 57.9226-24.1483 57.8872-24.1377C57.4873-24.0245 57.2219-24.3182 56.9106-24.4915C56.3663-24.8089 55.8051-25.0959 55.2298-25.3514C55.0776-25.4151 54.8087-25.2806 54.6459-25.1603C54.2564-24.8702 53.8601-24.5729 53.5451-24.2014C53.3151-23.9254 53.2054-23.5291 53.0533-23.1823C53.0037-23.0691 52.9931-22.9346 52.9471-22.8179C52.8406-22.5801 52.8109-22.315 52.8615-22.0596C52.9121-21.8041 53.0413-21.5709 53.2302-21.3919C53.3187-21.2999 53.3647-21.1619 53.4531-21.0663C53.6477-20.8434 53.8848-20.6594 54.0547-20.4188C54.1891-20.2277 54.2528-19.9729 54.3377-19.7429C54.3484-19.7146 54.3059-19.6297 54.2882-19.6297C54.2351-19.6297 54.1608-19.6403 54.1325-19.6792C53.6902-20.2383 53.1205-20.6417 52.7171-21.2715C52.4111-21.7181 52.2582-22.2521 52.2819-22.7931C52.2996-23.4548 52.2677-24.1129 52.2536-24.7746C52.2501-25.1072 52.2961-25.4115 52.5791-25.6274C52.6287-25.6628 52.6287-25.8255 52.6039-25.914C52.5968-25.9565 52.4694-26.0025 52.4093-25.9848C51.8042-25.8079 51.2133-25.9494 50.6153-26.0485C50.1517-26.1263 49.6741-26.1192 49.1999-26.1122C48.9062-26.1122 48.609-26.0202 48.3117-26.0131C48.0357-26.006 47.7562-26.1051 47.4837-26.0839C46.8787-26.0237 46.2771-25.914 45.6721-25.8362C45.0882-25.7654 44.5044-25.7229 43.9205-25.6451C43.4159-25.5796 42.9039-25.6776 42.4591-25.9246C42.215-26.052 42.1124-26.2077 42.1584-26.5332C42.1867-26.7562 42.0805-27.0003 42.0168-27.3365C41.9213-27.1702 41.8717-27.11 41.847-27.0428C41.5497-26.1865 41.5037-25.3089 41.6311-24.4137C41.6701-24.1306 41.663-23.8369 41.6877-23.5503C41.7585-22.7789 41.847-22.0075 41.9107-21.2362C41.9461-20.7762 41.9142-20.3055 41.9744-19.8491C42.0699-19.0954 42.1796-18.3382 42.3494-17.5986C42.4379-17.2165 42.6679-16.8697 42.8307-16.5017C42.9156-16.3142 42.9687-16.0983 43.0784-15.9249C43.1668-15.7834 43.3013-15.6135 43.4464-15.5782C44.2425-15.3765 44.8087-14.8634 45.3288-14.1875C45.6968-13.7099 45.8737-13.1791 46.079-12.6306C46.3656-11.8628 46.2701-11.0737 46.217-10.2882C46.2028-10.09 46.1745-9.88832 46.1745-9.68663C46.171-9.45309 46.1002-9.2974 45.8561-9.29032C45.6154-9.28678 45.481-9.40709 45.4739-9.67955C45.4633-10.4014 45.4668-11.1268 45.4314-11.8486C45.4091-12.0298 45.3285-12.1986 45.2014-12.3299C44.8334-12.712 44.4336-13.0588 44.0621-13.4339C43.6976-13.8019 43.3544-14.1911 42.9333-14.5414C42.9899-14.2406 42.997-13.9186 43.1102-13.6497C43.5737-12.5245 44.1187-11.4346 44.5397-10.2882C44.7697-9.66186 44.8264-8.95416 44.9219-8.27478C44.9396-8.13678 44.7733-7.97047 44.6884-7.81478C44.5645-7.93863 44.377-8.03416 44.3239-8.18632C44.2177-8.4977 44.2001-8.84447 44.1045-9.16647C43.8922-9.87416 43.7011-10.5889 43.4216-11.2648C43.2588-11.654 42.9121-11.9477 42.7068-12.3192C42.4733-12.7368 42.3034-13.1932 42.1053-13.632C42.0876-13.678 42.0557-13.7169 41.9921-13.8089C42.0416-13.4975 42.0734-13.2463 42.1194-13.0022C42.2716-12.2131 42.2857-11.3851 42.721-10.6774C42.7917-10.5677 42.7634-10.3802 42.7634-10.228L42.767-7.1354C42.767-7.07524 42.7528-7.01155 42.7387-6.92309C42.4874-6.9974 42.2716-7.07878 42.2893-7.41847L42.3247-8.03416L42.3247-8.12616C42.2539-8.45878 42.1937-8.79847 42.1053-9.12047C41.9142-9.79278 41.6984-10.4615 41.5037-11.1374C41.3852-11.5542 41.2791-11.9742 41.1853-12.3971C41.0749-12.8935 40.9758-13.3928 40.8881-13.8939C40.8527-14.0955 40.8597-14.3079 40.8527-14.5131C40.8456-14.6051 40.8774-14.7254 40.835-14.7749C40.7925-14.828 40.6757-14.8245 40.5944-14.8209C40.329-14.8032 40.0636-14.7749 39.7947-14.7502C39.7235-14.7431 39.6351-14.7537 39.582-14.7148C39.076-14.368 38.5629-14.0354 38.0923-13.6426C37.9083-13.4905 37.8305-13.1897 37.7031-12.9562C37.4838-12.5422 37.222-12.1494 37.045-11.7142C36.9-11.3462 36.8646-10.9286 36.7513-10.5394C36.6795-10.3211 36.5846-10.1112 36.4683-9.91309C36.4364-9.85293 36.3126-9.78924 36.2772-9.81401C36.217-9.85293 36.1533-9.96616 36.1639-10.0369C36.2489-10.5854 36.3126-11.1445 36.4541-11.6752C36.7195-12.6979 36.999-13.7134 37.3387-14.7077C37.4626-15.0651 37.788-15.334 37.9791-15.6737C38.3259-16.2788 38.8779-16.3814 39.4511-16.4522C39.5403-16.4564 39.6284-16.4355 39.7059-16.392C39.9185-16.2859 40.0494-16.3885 40.237-16.5194C40.7607-16.8839 40.7217-17.3226 40.5979-17.8994C40.4776-18.4549 40.5413-19.0494 40.4988-19.6262C40.4316-20.5108 40.3927-21.3954 40.2511-22.2659C40.0919-23.2779 39.8407-24.2722 39.6139-25.2735C39.49-25.8043 39.2812-26.3209 39.2211-26.8588C39.1857-27.1631 39.3555-27.5028 39.4582-27.8142C39.4935-27.9203 39.6422-27.9911 39.6528-28.0937C39.6669-28.1928 39.5997-28.3768 39.5254-28.4051C39.0052-28.6068 38.478-28.8792 37.9366-28.9359C37.36-28.9889 37.0167-29.4242 36.5567-29.6612C35.8715-30.0105 35.2438-30.4627 34.6955-31.0023C34.0338-31.6672 33.275-32.228 32.4449-32.6654C31.6027-33.1042 30.7641-33.5571 29.9042-33.9428C29.0979-34.2987 28.2061-34.4155 27.3353-34.2789C26.8434-34.2117 26.3339-34.3143 25.8349-34.3745C25.5196-34.3985 25.2114-34.4799 24.9255-34.6151C24.7132-34.7283 24.5611-34.9902 24.3947-35.1989C24.193-35.4466 24.0409-35.7828 23.7967-35.9491C23.2412-36.3242 23.3792-37.4565 23.7967-37.828C24.1506-38.1465 24.5115-38.4826 24.9184-38.7126C25.3466-38.9532 25.8349-39.0771 26.2949-39.2575C26.4436-39.3177 26.5851-39.4168 26.7408-39.4557C27.0699-39.5442 27.4061-39.6008 27.7351-39.6715L28.0359-39.7635L28.0359-39.76Z"/>
   <path class="monochrome-1 multicolor-1:tintColor hierarchical-1:tertiary SFSymbolsPreviewWireframe" d="M48.9411-84C55.3091-84.0013 61.615-82.7479 67.4985-80.3116C73.382-77.8752 78.7279-74.3036 83.2305-69.8009C87.7334-65.2983 91.305-59.9524 93.7418-54.0682C96.1779-48.1846 97.4312-41.8789 97.43-35.5124C97.43-8.72255 75.7254 13 48.9424 13C22.156 13 0.43-8.726 0.43-35.5124C0.43-62.2926 22.1539-84 48.9411-84ZM48.9424-70C29.8835-70 14.43-54.5582 14.43-35.5124C14.43-16.458 29.888-0.999999 48.9424-0.999999C67.9909-0.999999 83.43-16.4519 83.43-35.5138C83.4309-40.0428 82.5395-44.5276 80.8069-48.7121C79.0739-52.8969 76.5337-56.6989 73.3311-59.9013C70.1287-63.1038 66.3266-65.644 62.1422-67.3767C57.9578-69.1095 53.4729-70.0009 48.9424-70Z"/>
  </g>
  <g id="Regular-S" transform="matrix(1 0 0 1 1403.58 696)">
   <path class="monochrome-0 multicolor-0:tintColor hierarchical-0:primary SFSymbolsPreviewWireframe" d="M24.0259-42.76C23.757-43.0077 23.5553-43.1846 23.3642-43.3721C23.1661-43.5667 22.9573-43.7543 22.7981-43.9807C22.7167-44.094 22.6636-44.3594 22.7238-44.4337C22.8759-44.6177 23.067-44.8441 23.3536-44.6814C23.5022-44.5929 23.6367-44.4903 23.8136-44.4124C23.4952-44.7663 23.5907-45.1909 23.573-45.6084C23.5624-45.9234 23.3076-46.1321 23.1059-46.3444C22.7804-46.6877 22.837-47.2397 23.2368-47.3069C23.4562-47.3423 23.7853-47.1583 23.9446-46.9601C24.1816-46.6487 24.3055-46.2347 24.5001-45.8774C24.5779-45.7287 24.7124-45.6155 24.8186-45.4846C24.8787-45.5554 24.9955-45.6403 24.9884-45.704C24.9531-46.0118 24.8823-46.3126 24.8151-46.6134C24.7089-47.1087 24.6593-47.597 24.9495-48.05C24.9707-48.0783 24.992-48.1314 24.9814-48.1561L24.6699-48.839C24.6275-48.9309 24.5284-49.0689 24.5532-49.1043C24.6452-49.2388 24.7655-49.3874 24.9-49.4334C25.2043-49.5325 25.3847-49.2777 25.5051-49.0336C25.6714-48.701 25.7881-48.3366 25.9297-47.9898C25.9651-47.8943 26.0146-47.8058 26.0818-47.7209C26.0217-48.0146 25.9863-48.3224 25.8943-48.6055C25.7386-49.076 25.5334-49.5289 25.3706-49.9996C25.1371-50.6541 24.9177-51.3136 24.7124-51.9775C24.5355-52.5508 24.4046-53.1417 24.2453-53.722C23.9799-54.6915 23.7004-55.6575 23.4492-56.6306C23.2121-57.5435 22.9679-58.46 22.7945-59.3906C22.6742-60.0204 22.6884-60.6821 22.607-61.3226C22.5433-61.8463 22.8476-62.1293 23.1625-62.3876C23.4209-62.5999 23.6792-62.8476 24.0719-62.8123C24.2913-62.7946 24.5178-62.9786 24.7478-62.9963C25.3458-63.0387 25.774-62.7132 26.0606-62.1647C26.3366-61.6516 26.648-61.1563 26.8603-60.6114C27.2602-59.5923 27.6069-58.5484 27.9573-57.5046C28.1307-57.0057 28.2757-56.4926 28.3996-55.976C28.5411-55.3957 28.6544-54.8083 28.7499-54.2209C28.8667-53.5203 28.9693-52.8161 29.0471-52.1084C29.1073-51.5635 29.1179-51.0115 29.1533-50.4666L29.2028-49.5679C29.5638-49.7094 29.8929-49.8509 30.229-49.9641C30.6395-50.1057 31.0677-50.1977 31.471-50.364C32.9714-50.9797 34.461-51.6166 35.9546-52.2429C36.4995-52.4729 37.0373-52.7206 37.5893-52.9223C38.4775-53.2478 39.3656-53.5875 40.275-53.8317C41.4356-54.1501 42.6175-54.3624 43.7816-54.6491C44.2982-54.7764 44.7936-54.9923 45.3032-55.1586C45.9401-55.3709 46.5912-55.5584 47.2316-55.7743C47.7836-55.9583 48.3215-56.1777 48.8735-56.3617C49.4786-56.5598 50.0907-56.7368 50.7032-56.9172C51.2411-57.08 51.7824-57.2392 52.3238-57.3878C52.6989-57.4869 53.0775-57.5648 53.4561-57.6426C54.1072-57.7841 54.7583-57.9752 55.42-58.0318C56.0923-58.092 56.7717-58.0106 57.4511-57.9929C57.4581-57.9929 57.4652-57.9858 57.4723-57.9894C58.5834-58.0601 59.6095-57.6143 60.6569-57.3171C61.3186-57.1331 61.9732-56.9031 62.6278-56.6801C63.3072-56.4431 63.9901-56.2131 64.6554-55.9371C65.1157-55.746 65.5616-55.5054 65.9897-55.24C66.1702-55.1268 66.3082-54.9144 66.4426-54.7234C66.655-54.412 66.8496-54.0794 67.0442-53.7574C67.2423-53.4318 67.5502-53.5026 67.8333-53.492C69.0222-53.446 70.2146-53.4212 71.4071-53.3575C71.6902-53.3434 71.9803-53.2514 72.2386-53.1311C72.359-53.0744 72.4156-52.848 72.497-52.6994C72.3696-52.6286 72.2386-52.4977 72.1113-52.4977C71.4283-52.4977 70.7843-52.3455 70.1545-52.0518C69.5374-51.7695 68.9097-51.5122 68.272-51.2804C67.1549-50.8621 66.1454-50.1996 65.3174-49.3414C64.6483-48.6621 63.9264-48.0394 63.2931-47.3246C62.55-46.4824 61.8954-45.5554 61.17-44.692C60.7171-44.147 60.2075-43.6552 59.7298-43.1315C59.5034-42.8803 59.2981-42.6078 59.0929-42.3389C58.7603-41.9001 58.4383-41.4543 58.1128-41.012C57.3838-40.0177 56.6691-39.0057 55.926-38.022C55.4306-37.3638 54.8928-36.7375 54.3797-36.0935C54.2452-35.9237 54.1284-35.7397 54.0117-35.5557C53.7548-35.1703 53.3702-34.8883 52.9254-34.7595C52.4654-34.5932 52.0408-34.2854 51.6091-34.0341C51.2977-33.8572 50.9898-33.6626 50.6784-33.4821C50.395-33.3158 50.119-33.1141 49.8147-33.008C49.1604-32.7659 48.4917-32.565 47.8119-32.4064C46.8813-32.2047 45.9366-32.0526 44.9918-31.9323C44.5212-31.8721 44.0435-31.9854 43.5693-31.7872C43.2332-31.6457 42.8333-31.6952 42.4866-31.5714C42.1221-31.4404 41.7859-31.2069 41.4462-31.0052C41.3896-30.9698 41.3719-30.8637 41.2976-30.715C41.9699-30.715 42.5821-30.7398 43.1907-30.7044C43.6507-30.6761 44.1072-30.5487 44.5672-30.5027C45.1156-30.4461 45.6712-30.4143 46.2232-30.4037C46.9521-30.386 47.6846-30.3966 48.4135-30.393C48.9726-30.3895 49.5387-30.4461 50.0907-30.3612C50.6289-30.2798 51.0677-30.4886 51.5418-30.669C52.2637-30.945 53.0032-31.1786 53.7392-31.4086C53.8846-31.444 54.0375-31.4302 54.1744-31.3697C54.9069-31.0583 55.6288-30.7221 56.3612-30.4143C56.7044-30.2657 57.0689-30.1666 57.4157-30.0286C57.7908-29.887 57.8615-29.7455 57.7058-29.3881C57.2918-29.5474 56.8778-29.7137 56.4568-29.8694C55.7915-30.117 55.1263-30.3718 54.454-30.5877C54.2413-30.6446 54.0177-30.6496 53.8029-30.6018C53.4455-30.5346 53.0952-30.4178 52.706-30.2444L54.2028-29.7526L56.0074-29.1546C56.0827-29.1305 56.1616-29.1185 56.2409-29.1192C57.3449-28.4115 58.6258-28.047 59.6414-27.1554L59.6166-27.0563C59.5281-27.074 59.4397-27.081 59.3512-27.1129C58.8098-27.3149 58.2695-27.5202 57.7306-27.7286C57.3166-27.8914 56.9097-28.0824 56.4851-28.2169C56.0021-28.3627 55.5134-28.489 55.0201-28.5955C54.5778-28.6981 54.1355-28.8043 53.6897-28.8538C53.3075-28.8963 52.9218-28.8644 52.5361-28.8644L52.4937-28.6734C52.9891-28.3832 53.4951-28.1037 53.9869-27.7994C54.224-27.6507 54.4398-27.4632 54.6628-27.2898C54.7052-27.258 54.7335-27.1943 54.776-27.1801C55.3988-26.943 55.4908-26.292 55.6995-25.747C55.8411-25.3861 55.9295-25.0004 56.0109-24.6147C56.0392-24.5015 55.9684-24.36 55.9401-24.2326C55.8446-24.2644 55.7455-24.2786 55.6571-24.3281C55.2148-24.5723 55.328-25.096 55.1829-25.4887C54.96-26.1303 54.5478-26.689 54.0011-27.0917C53.9657-27.1164 53.9126-27.1483 53.8772-27.1377C53.4774-27.0244 53.212-27.3181 52.9006-27.4915C52.3564-27.8089 51.7952-28.0959 51.2198-28.3514C51.0677-28.415 50.7988-28.2806 50.636-28.1603C50.2464-27.8701 49.8501-27.5729 49.5352-27.2014C49.3052-26.9254 49.1955-26.529 49.0433-26.1823C48.9938-26.069 48.9832-25.9346 48.9372-25.8178C48.8307-25.58 48.8009-25.315 48.8515-25.0595C48.9021-24.804 49.0313-24.5709 49.2202-24.3918C49.3087-24.2998 49.3547-24.1618 49.4432-24.0663C49.6378-23.8434 49.8749-23.6594 50.0447-23.4187C50.1792-23.2277 50.2429-22.9729 50.3278-22.7429C50.3384-22.7146 50.2959-22.6297 50.2782-22.6297C50.2252-22.6297 50.1509-22.6403 50.1226-22.6792C49.6802-23.2383 49.1106-23.6417 48.7072-24.2715C48.4011-24.7181 48.2482-25.252 48.2719-25.793C48.2896-26.4547 48.2578-27.1129 48.2436-27.7746C48.2401-28.1072 48.2861-28.4115 48.5692-28.6274C48.6187-28.6627 48.6187-28.8255 48.5939-28.914C48.5869-28.9564 48.4595-29.0024 48.3993-28.9847C47.7942-28.8078 47.2033-28.9494 46.6053-29.0484C46.1418-29.1263 45.6641-29.1192 45.1899-29.1121C44.8962-29.1121 44.599-29.0201 44.3018-29.013C44.0258-29.006 43.7462-29.105 43.4738-29.0838C42.8687-29.0237 42.2672-28.914 41.6621-28.8361C41.0782-28.7654 40.4944-28.7229 39.9106-28.645C39.406-28.5796 38.894-28.6776 38.4492-28.9246C38.205-29.052 38.1024-29.2077 38.1484-29.5332C38.1767-29.7561 38.0706-30.0003 38.0069-30.3364C37.9113-30.1701 37.8618-30.11 37.837-30.0427C37.5398-29.1864 37.4938-28.3089 37.6212-27.4137C37.6601-27.1306 37.653-26.8369 37.6778-26.5503C37.7486-25.7789 37.837-25.0075 37.9007-24.2361C37.9361-23.7761 37.9042-23.3055 37.9644-22.849C38.0599-22.0954 38.1696-21.3381 38.3395-20.5986C38.4279-20.2164 38.6579-19.8697 38.8207-19.5017C38.9056-19.3141 38.9587-19.0983 39.0684-18.9249C39.1569-18.7834 39.2913-18.6135 39.4364-18.5781C40.2326-18.3764 40.7987-17.8634 41.3189-17.1875C41.6869-16.7098 41.8638-16.179 42.069-15.6306C42.3556-14.8627 42.2601-14.0737 42.207-13.2881C42.1929-13.09 42.1646-12.8883 42.1646-12.6866C42.161-12.453 42.0902-12.2974 41.8461-12.2903C41.6055-12.2867 41.471-12.407 41.4639-12.6795C41.4533-13.4014 41.4569-14.1267 41.4215-14.8486C41.3992-15.0298 41.3185-15.1985 41.1915-15.3298C40.8235-15.712 40.4236-16.0587 40.0521-16.4338C39.6876-16.8018 39.3444-17.191 38.9233-17.5414C38.9799-17.2406 38.987-16.9186 39.1002-16.6497C39.5638-15.5244 40.1087-14.4346 40.5298-13.2881C40.7598-12.6618 40.8164-11.9541 40.9119-11.2747C40.9296-11.1367 40.7633-10.9704 40.6784-10.8147C40.5546-10.9386 40.367-11.0341 40.3139-11.1863C40.2078-11.4977 40.1901-11.8444 40.0946-12.1664C39.8822-12.8741 39.6912-13.5889 39.4116-14.2647C39.2489-14.654 38.9021-14.9477 38.6969-15.3192C38.4633-15.7367 38.2935-16.1932 38.0953-16.632C38.0776-16.678 38.0458-16.7169 37.9821-16.8089C38.0316-16.4975 38.0635-16.2463 38.1095-16.0021C38.2616-15.213 38.2758-14.385 38.711-13.6774C38.7818-13.5677 38.7535-13.3801 38.7535-13.228L38.757-10.1354C38.757-10.0752 38.7429-10.0115 38.7287-9.92305C38.4775-9.99736 38.2616-10.0787 38.2793-10.4184L38.3147-11.0341L38.3147-11.1261C38.2439-11.4587 38.1838-11.7984 38.0953-12.1204C37.9042-12.7927 37.6884-13.4615 37.4938-14.1374C37.3752-14.5542 37.2691-14.9742 37.1753-15.397C37.0649-15.8935 36.9658-16.3928 36.8781-16.8938C36.8427-17.0955 36.8498-17.3078 36.8427-17.513C36.8356-17.605 36.8675-17.7254 36.825-17.7749C36.7826-17.828 36.6658-17.8244 36.5844-17.8209C36.319-17.8032 36.0536-17.7749 35.7847-17.7501C35.7136-17.743 35.6251-17.7537 35.572-17.7147C35.066-17.368 34.553-17.0354 34.0824-16.6426C33.8984-16.4904 33.8205-16.1897 33.6931-15.9561C33.4738-15.5421 33.212-15.1494 33.0351-14.7141C32.89-14.3461 32.8546-13.9286 32.7414-13.5394C32.6695-13.321 32.5746-13.1112 32.4583-12.913C32.4265-12.8529 32.3026-12.7892 32.2672-12.814C32.2071-12.8529 32.1433-12.9661 32.154-13.0369C32.2389-13.5854 32.3026-14.1444 32.4442-14.6752C32.7095-15.6978 32.9891-16.7134 33.3288-17.7077C33.4526-18.065 33.778-18.334 33.9691-18.6737C34.3159-19.2787 34.8679-19.3814 35.4411-19.4521C35.5303-19.4564 35.6184-19.4355 35.6959-19.392C35.9086-19.2858 36.0395-19.3884 36.227-19.5194C36.7507-19.8838 36.7118-20.3226 36.5879-20.8994C36.4676-21.4549 36.5313-22.0494 36.4889-22.6261C36.4216-23.5107 36.3827-24.3954 36.2412-25.2658C36.0819-26.2778 35.8307-27.2721 35.6039-28.2735C35.48-28.8043 35.2713-29.3209 35.2111-29.8587C35.1757-30.163 35.3456-30.5027 35.4482-30.8141C35.4836-30.9203 35.6322-30.991 35.6428-31.0937C35.657-31.1927 35.5897-31.3767 35.5154-31.405C34.9953-31.6067 34.468-31.8792 33.9267-31.9358C33.35-31.9889 33.0068-32.4241 32.5468-32.6612C31.8615-33.0104 31.2339-33.4627 30.6855-34.0023C30.0238-34.6672 29.265-35.228 28.435-35.6654C27.5928-36.1041 26.7542-36.557 25.8943-36.9427C25.0879-37.2987 24.1961-37.4155 23.3253-37.2789C22.8334-37.2117 22.3239-37.3143 21.8249-37.3744C21.5097-37.3985 21.2015-37.4799 20.9156-37.615C20.7033-37.7283 20.5511-37.9901 20.3848-38.1989C20.1831-38.4466 20.0309-38.7827 19.7868-38.949C19.2312-39.3241 19.3692-40.4564 19.7868-40.828C20.1406-41.1464 20.5016-41.4826 20.9085-41.7126C21.3366-41.9532 21.8249-42.077 22.285-42.2575C22.4336-42.3177 22.5751-42.4167 22.7308-42.4557C23.0599-42.5441 23.3961-42.6007 23.7252-42.6715L24.0259-42.7635L24.0259-42.76Z"/>
   <path class="monochrome-1 multicolor-1:tintColor hierarchical-1:tertiary SFSymbolsPreviewWireframe" d="M46.4321-81.8365C52.4502-81.8377 58.4096-80.6532 63.9698-78.3508C69.53-76.0483 74.5822-72.6729 78.8374-68.4176C83.0928-64.1624 86.4682-59.1103 88.771-53.5496C91.0733-47.9892 92.2577-42.03 92.2566-36.0127C92.2566-10.693 71.744 9.83658 46.4328 9.83658C21.1173 9.83658 0.5835-10.6972 0.5835-36.0127C0.5835-61.3211 21.1145-81.8365 46.4321-81.8365ZM46.4328-75.0865C24.8413-75.0865 7.3335-57.592 7.3335-36.0127C7.3335-14.4252 24.8452 3.08658 46.4328 3.08658C68.0148 3.08658 85.5066-14.4197 85.5066-36.0133C85.5076-41.1447 84.4976-46.226 82.5345-50.9672C80.571-55.7085 77.693-60.0162 74.0644-63.6446C70.4361-67.273 66.1283-70.1511 61.3873-72.1143C56.6463-74.0776 51.5649-75.0875 46.4328-75.0865Z"/>
  </g>
  <g id="Ultralight-S" transform="matrix(1 0 0 1 515.649 696)">
   <path class="monochrome-0 multicolor-0:tintColor hierarchical-0:primary SFSymbolsPreviewWireframe" d="M21.9569-43.76C21.688-44.0077 21.4863-44.1846 21.2952-44.3721C21.0971-44.5667 20.8883-44.7543 20.7291-44.9807C20.6477-45.094 20.5946-45.3594 20.6548-45.4337C20.8069-45.6177 20.998-45.8441 21.2846-45.6814C21.4332-45.5929 21.5677-45.4903 21.7446-45.4124C21.4262-45.7663 21.5217-46.1909 21.504-46.6084C21.4934-46.9234 21.2386-47.1321 21.0369-47.3444C20.7114-47.6877 20.768-48.2397 21.1678-48.3069C21.3872-48.3423 21.7163-48.1583 21.8756-47.9601C22.1126-47.6487 22.2365-47.2347 22.4311-46.8774C22.5089-46.7287 22.6434-46.6155 22.7496-46.4846C22.8097-46.5554 22.9265-46.6403 22.9194-46.704C22.8841-47.0118 22.8133-47.3126 22.7461-47.6134C22.6399-48.1087 22.5903-48.597 22.8805-49.05C22.9017-49.0783 22.923-49.1314 22.9124-49.1561L22.6009-49.839C22.5585-49.9309 22.4594-50.0689 22.4842-50.1043C22.5762-50.2388 22.6965-50.3874 22.831-50.4334C23.1353-50.5325 23.3157-50.2777 23.4361-50.0336C23.6024-49.701 23.7191-49.3366 23.8607-48.9898C23.8961-48.8943 23.9456-48.8058 24.0128-48.7209C23.9527-49.0146 23.9173-49.3224 23.8253-49.6055C23.6696-50.076 23.4644-50.5289 23.3016-50.9996C23.0681-51.6541 22.8487-52.3136 22.6434-52.9775C22.4665-53.5508 22.3356-54.1417 22.1763-54.722C21.9109-55.6915 21.6314-56.6575 21.3802-57.6306C21.1431-58.5435 20.8989-59.46 20.7255-60.3906C20.6052-61.0204 20.6194-61.6821 20.538-62.3226C20.4743-62.8463 20.7786-63.1293 21.0935-63.3876C21.3519-63.5999 21.6102-63.8476 22.0029-63.8123C22.2223-63.7946 22.4488-63.9786 22.6788-63.9963C23.2768-64.0387 23.705-63.7132 23.9916-63.1647C24.2676-62.6516 24.579-62.1563 24.7913-61.6114C25.1912-60.5923 25.5379-59.5484 25.8883-58.5046C26.0617-58.0057 26.2067-57.4926 26.3306-56.976C26.4721-56.3957 26.5854-55.8083 26.6809-55.2209C26.7977-54.5203 26.9003-53.8161 26.9781-53.1084C27.0383-52.5635 27.0489-52.0115 27.0843-51.4666L27.1338-50.5679C27.4948-50.7094 27.8239-50.8509 28.16-50.9641C28.5705-51.1057 28.9987-51.1977 29.402-51.364C30.9024-51.9797 32.392-52.6166 33.8856-53.2429C34.4305-53.4729 34.9683-53.7206 35.5203-53.9223C36.4085-54.2478 37.2966-54.5875 38.206-54.8317C39.3666-55.1501 40.5485-55.3624 41.7126-55.6491C42.2292-55.7764 42.7246-55.9923 43.2342-56.1586C43.8711-56.3709 44.5222-56.5584 45.1626-56.7743C45.7146-56.9583 46.2525-57.1777 46.8045-57.3617C47.4096-57.5598 48.0217-57.7368 48.6342-57.9172C49.1721-58.08 49.7134-58.2392 50.2548-58.3878C50.6299-58.4869 51.0085-58.5648 51.3871-58.6426C52.0382-58.7841 52.6893-58.9752 53.351-59.0318C54.0233-59.092 54.7027-59.0106 55.3821-58.9929C55.3891-58.9929 55.3962-58.9858 55.4033-58.9894C56.5144-59.0601 57.5405-58.6143 58.5879-58.3171C59.2496-58.1331 59.9042-57.9031 60.5588-57.6801C61.2382-57.4431 61.9211-57.2131 62.5864-56.9371C63.0467-56.746 63.4926-56.5054 63.9207-56.24C64.1012-56.1268 64.2392-55.9144 64.3736-55.7234C64.586-55.412 64.7806-55.0794 64.9752-54.7574C65.1733-54.4318 65.4812-54.5026 65.7643-54.492C66.9532-54.446 68.1456-54.4212 69.3381-54.3575C69.6212-54.3434 69.9113-54.2514 70.1696-54.1311C70.29-54.0744 70.3466-53.848 70.428-53.6994C70.3006-53.6286 70.1696-53.4977 70.0423-53.4977C69.3593-53.4977 68.7153-53.3455 68.0855-53.0518C67.4684-52.7695 66.8407-52.5122 66.203-52.2804C65.0859-51.8621 64.0764-51.1996 63.2484-50.3414C62.5793-49.6621 61.8574-49.0394 61.2241-48.3246C60.481-47.4824 59.8264-46.5554 59.101-45.692C58.6481-45.147 58.1385-44.6552 57.6608-44.1315C57.4344-43.8803 57.2291-43.6078 57.0239-43.3389C56.6913-42.9001 56.3693-42.4543 56.0438-42.012C55.3148-41.0177 54.6001-40.0057 53.857-39.022C53.3616-38.3638 52.8238-37.7375 52.3107-37.0935C52.1762-36.9237 52.0594-36.7397 51.9427-36.5557C51.6858-36.1703 51.3012-35.8883 50.8564-35.7595C50.3964-35.5932 49.9718-35.2854 49.5401-35.0341C49.2287-34.8572 48.9208-34.6626 48.6094-34.4821C48.326-34.3158 48.05-34.1141 47.7457-34.008C47.0914-33.7659 46.4227-33.565 45.7429-33.4064C44.8123-33.2047 43.8676-33.0526 42.9228-32.9323C42.4522-32.8721 41.9745-32.9854 41.5003-32.7872C41.1642-32.6457 40.7643-32.6952 40.4176-32.5714C40.0531-32.4404 39.7169-32.2069 39.3772-32.0052C39.3206-31.9698 39.3029-31.8637 39.2286-31.715C39.9009-31.715 40.5131-31.7398 41.1217-31.7044C41.5817-31.6761 42.0382-31.5487 42.4982-31.5027C43.0466-31.4461 43.6022-31.4143 44.1542-31.4037C44.8831-31.386 45.6156-31.3966 46.3445-31.393C46.9036-31.3895 47.4697-31.4461 48.0217-31.3612C48.5599-31.2798 48.9987-31.4886 49.4728-31.669C50.1947-31.945 50.9342-32.1786 51.6702-32.4086C51.8156-32.444 51.9685-32.4302 52.1054-32.3697C52.8379-32.0583 53.5598-31.7221 54.2922-31.4143C54.6354-31.2657 54.9999-31.1666 55.3467-31.0286C55.7218-30.887 55.7925-30.7455 55.6368-30.3881C55.2228-30.5474 54.8088-30.7137 54.3878-30.8694C53.7225-31.117 53.0573-31.3718 52.385-31.5877C52.1723-31.6446 51.9487-31.6496 51.7339-31.6018C51.3765-31.5346 51.0262-31.4178 50.637-31.2444L52.1338-30.7526L53.9384-30.1546C54.0137-30.1305 54.0926-30.1185 54.1719-30.1192C55.2759-29.4115 56.5568-29.047 57.5724-28.1554L57.5476-28.0563C57.4591-28.074 57.3707-28.081 57.2822-28.1129C56.7408-28.3149 56.2005-28.5202 55.6616-28.7286C55.2476-28.8914 54.8407-29.0824 54.4161-29.2169C53.9331-29.3627 53.4444-29.489 52.9511-29.5955C52.5088-29.6981 52.0665-29.8043 51.6207-29.8538C51.2385-29.8963 50.8528-29.8644 50.4671-29.8644L50.4247-29.6734C50.9201-29.3832 51.4261-29.1037 51.9179-28.7994C52.155-28.6507 52.3708-28.4632 52.5938-28.2898C52.6362-28.258 52.6645-28.1943 52.707-28.1801C53.3298-27.943 53.4218-27.292 53.6305-26.747C53.7721-26.3861 53.8605-26.0004 53.9419-25.6147C53.9702-25.5015 53.8994-25.36 53.8711-25.2326C53.7756-25.2644 53.6765-25.2786 53.5881-25.3281C53.1458-25.5723 53.259-26.096 53.1139-26.4887C52.891-27.1303 52.4788-27.689 51.9321-28.0917C51.8967-28.1164 51.8436-28.1483 51.8082-28.1377C51.4084-28.0244 51.143-28.3181 50.8316-28.4915C50.2874-28.8089 49.7262-29.0959 49.1508-29.3514C48.9987-29.415 48.7298-29.2806 48.567-29.1603C48.1774-28.8701 47.7811-28.5729 47.4662-28.2014C47.2362-27.9254 47.1265-27.529 46.9743-27.1823C46.9248-27.069 46.9142-26.9346 46.8682-26.8178C46.7617-26.58 46.7319-26.315 46.7825-26.0595C46.8331-25.804 46.9623-25.5709 47.1512-25.3918C47.2397-25.2998 47.2857-25.1618 47.3742-25.0663C47.5688-24.8434 47.8059-24.6594 47.9757-24.4187C48.1102-24.2277 48.1739-23.9729 48.2588-23.7429C48.2694-23.7146 48.2269-23.6297 48.2092-23.6297C48.1562-23.6297 48.0819-23.6403 48.0536-23.6792C47.6112-24.2383 47.0416-24.6417 46.6382-25.2715C46.3321-25.7181 46.1792-26.252 46.2029-26.793C46.2206-27.4547 46.1888-28.1129 46.1746-28.7746C46.1711-29.1072 46.2171-29.4115 46.5002-29.6274C46.5497-29.6627 46.5497-29.8255 46.5249-29.914C46.5179-29.9564 46.3905-30.0024 46.3303-29.9847C45.7252-29.8078 45.1343-29.9494 44.5363-30.0484C44.0728-30.1263 43.5951-30.1192 43.1209-30.1121C42.8272-30.1121 42.53-30.0201 42.2328-30.013C41.9568-30.006 41.6772-30.105 41.4048-30.0838C40.7997-30.0237 40.1982-29.914 39.5931-29.8361C39.0092-29.7654 38.4254-29.7229 37.8416-29.645C37.337-29.5796 36.825-29.6776 36.3802-29.9246C36.136-30.052 36.0334-30.2077 36.0794-30.5332C36.1077-30.7561 36.0016-31.0003 35.9379-31.3364C35.8423-31.1701 35.7928-31.11 35.768-31.0427C35.4708-30.1864 35.4248-29.3089 35.5522-28.4137C35.5911-28.1306 35.584-27.8369 35.6088-27.5503C35.6796-26.7789 35.768-26.0075 35.8317-25.2361C35.8671-24.7761 35.8352-24.3055 35.8954-23.849C35.9909-23.0954 36.1006-22.3381 36.2705-21.5986C36.3589-21.2164 36.5889-20.8697 36.7517-20.5017C36.8366-20.3141 36.8897-20.0983 36.9994-19.9249C37.0879-19.7834 37.2223-19.6135 37.3674-19.5781C38.1636-19.3764 38.7297-18.8634 39.2499-18.1875C39.6179-17.7098 39.7948-17.179 40-16.6306C40.2866-15.8627 40.1911-15.0737 40.138-14.2881C40.1239-14.09 40.0956-13.8883 40.0956-13.6866C40.092-13.453 40.0212-13.2974 39.7771-13.2903C39.5365-13.2867 39.402-13.407 39.3949-13.6795C39.3843-14.4014 39.3879-15.1267 39.3525-15.8486C39.3302-16.0298 39.2495-16.1985 39.1225-16.3298C38.7545-16.712 38.3546-17.0587 37.9831-17.4338C37.6186-17.8018 37.2754-18.191 36.8543-18.5414C36.9109-18.2406 36.918-17.9186 37.0312-17.6497C37.4948-16.5244 38.0397-15.4346 38.4608-14.2881C38.6908-13.6618 38.7474-12.9541 38.8429-12.2747C38.8606-12.1367 38.6943-11.9704 38.6094-11.8147C38.4856-11.9386 38.298-12.0341 38.2449-12.1863C38.1388-12.4977 38.1211-12.8444 38.0256-13.1664C37.8132-13.8741 37.6222-14.5889 37.3426-15.2647C37.1799-15.654 36.8331-15.9477 36.6279-16.3192C36.3943-16.7367 36.2245-17.1932 36.0263-17.632C36.0086-17.678 35.9768-17.7169 35.9131-17.8089C35.9626-17.4975 35.9945-17.2463 36.0405-17.0021C36.1926-16.213 36.2068-15.385 36.642-14.6774C36.7128-14.5677 36.6845-14.3801 36.6845-14.228L36.688-11.1354C36.688-11.0752 36.6739-11.0115 36.6597-10.923C36.4085-10.9974 36.1926-11.0787 36.2103-11.4184L36.2457-12.0341L36.2457-12.1261C36.1749-12.4587 36.1148-12.7984 36.0263-13.1204C35.8352-13.7927 35.6194-14.4615 35.4248-15.1374C35.3062-15.5542 35.2001-15.9742 35.1063-16.397C34.9959-16.8935 34.8968-17.3928 34.8091-17.8938C34.7737-18.0955 34.7808-18.3078 34.7737-18.513C34.7666-18.605 34.7985-18.7254 34.756-18.7749C34.7136-18.828 34.5968-18.8244 34.5154-18.8209C34.25-18.8032 33.9846-18.7749 33.7157-18.7501C33.6446-18.743 33.5561-18.7537 33.503-18.7147C32.997-18.368 32.484-18.0354 32.0134-17.6426C31.8294-17.4904 31.7515-17.1897 31.6241-16.9561C31.4048-16.5421 31.143-16.1494 30.9661-15.7141C30.821-15.3461 30.7856-14.9286 30.6724-14.5394C30.6005-14.321 30.5056-14.1112 30.3893-13.913C30.3575-13.8529 30.2336-13.7892 30.1982-13.814C30.1381-13.8529 30.0743-13.9661 30.085-14.0369C30.1699-14.5854 30.2336-15.1444 30.3752-15.6752C30.6405-16.6978 30.9201-17.7134 31.2598-18.7077C31.3836-19.065 31.709-19.334 31.9001-19.6737C32.2469-20.2787 32.7989-20.3814 33.3721-20.4521C33.4613-20.4564 33.5494-20.4355 33.6269-20.392C33.8396-20.2858 33.9705-20.3884 34.158-20.5194C34.6817-20.8838 34.6428-21.3226 34.5189-21.8994C34.3986-22.4549 34.4623-23.0494 34.4199-23.6261C34.3526-24.5107 34.3137-25.3954 34.1722-26.2658C34.0129-27.2778 33.7617-28.2721 33.5349-29.2735C33.411-29.8043 33.2023-30.3209 33.1421-30.8587C33.1067-31.163 33.2766-31.5027 33.3792-31.8141C33.4146-31.9203 33.5632-31.991 33.5738-32.0937C33.588-32.1927 33.5207-32.3767 33.4464-32.405C32.9263-32.6067 32.399-32.8792 31.8577-32.9358C31.281-32.9889 30.9378-33.4241 30.4778-33.6612C29.7925-34.0104 29.1649-34.4627 28.6165-35.0023C27.9548-35.6672 27.196-36.228 26.366-36.6654C25.5238-37.1041 24.6852-37.557 23.8253-37.9427C23.0189-38.2987 22.1271-38.4155 21.2563-38.2789C20.7644-38.2117 20.2549-38.3143 19.7559-38.3744C19.4407-38.3985 19.1325-38.4799 18.8466-38.615C18.6343-38.7283 18.4821-38.9901 18.3158-39.1989C18.1141-39.4466 17.9619-39.7827 17.7178-39.949C17.1622-40.3241 17.3002-41.4564 17.7178-41.828C18.0716-42.1464 18.4326-42.4826 18.8395-42.7126C19.2676-42.9532 19.7559-43.077 20.216-43.2575C20.3646-43.3177 20.5061-43.4167 20.6618-43.4557C20.9909-43.5441 21.3271-43.6007 21.6562-43.6715L21.9569-43.7635L21.9569-43.76Z"/>
   <path class="monochrome-1 multicolor-1:tintColor hierarchical-1:tertiary SFSymbolsPreviewWireframe" d="M44.3636-80.5865C50.0861-80.5876 55.7528-79.4613 61.04-77.272C66.3271-75.0826 71.1312-71.8729 75.1774-67.8265C79.2239-63.7803 82.4335-58.9764 84.6232-53.6889C86.8124-48.4015 87.9387-42.7349 87.9376-37.0127C87.9376-12.9352 68.432 6.58658 44.3638 6.58658C20.2909 6.58658 0.7645-12.9399 0.7645-37.0127C0.7645-61.0781 20.2877-80.5865 44.3636-80.5865ZM44.3638-78.3365C21.53-78.3365 3.0145-59.8351 3.0145-37.0127C3.0145-14.1825 21.5336 4.33658 44.3638 4.33658C67.1889 4.33658 85.6876-14.1774 85.6876-37.0129C85.6886-42.4398 84.6205-47.8138 82.5443-52.828C80.4678-57.8425 77.4239-62.3983 73.5865-66.2355C69.7491-70.073 65.1932-73.1168 60.1791-75.1931C55.1651-77.2695 49.791-78.3376 44.3638-78.3365Z"/>
  </g>
 </g>
</svg>
