<?xml version="1.0" encoding="UTF-8"?>
<svg width="3300px" height="2200px" viewBox="0 0 3300 2200" version="1.1" xmlns="http://www.w3.org/2000/svg" xmlns:xlink="http://www.w3.org/1999/xlink">
    <!-- Generator: Sketch 59.1 (86144) - https://sketch.com -->
    <title>filter</title>
    <desc>Created with Sketch.</desc>
    <g id="Page-1" stroke="none" stroke-width="1" fill="none" fill-rule="evenodd">
        <g id="filter">
            <g id="Notes">
                <rect id="artboard" fill="#FFFFFF" fill-rule="nonzero" x="0" y="0" width="3300" height="2200"></rect>
                <line x1="263" y1="292" x2="3036" y2="292" id="Path" stroke="#000000" stroke-width="0.5"></line>
                <text id="Weight/Scale-Variations" fill="#000000" font-family="Helvetica-Bold, Helvetica" font-size="13" font-weight="bold">
                    <tspan x="263" y="322">Weight/Scale Variations</tspan>
                </text>
                <text id="Ultralight" fill="#000000" font-family="Helvetica" font-size="13" font-weight="normal">
                    <tspan x="533.711" y="322">Ultralight</tspan>
                </text>
                <text id="Thin" fill="#000000" font-family="Helvetica" font-size="13" font-weight="normal">
                    <tspan x="843.422" y="322">Thin</tspan>
                </text>
                <text id="Light" fill="#000000" font-family="Helvetica" font-size="13" font-weight="normal">
                    <tspan x="1138.63" y="322">Light</tspan>
                </text>
                <text id="Regular" fill="#000000" font-family="Helvetica" font-size="13" font-weight="normal">
                    <tspan x="1426.84" y="322">Regular</tspan>
                </text>
                <text id="Medium" fill="#000000" font-family="Helvetica" font-size="13" font-weight="normal">
                    <tspan x="1723.06" y="322">Medium</tspan>
                </text>
                <text id="Semibold" fill="#000000" font-family="Helvetica" font-size="13" font-weight="normal">
                    <tspan x="2015.77" y="322">Semibold</tspan>
                </text>
                <text id="Bold" fill="#000000" font-family="Helvetica" font-size="13" font-weight="normal">
                    <tspan x="2326.48" y="322">Bold</tspan>
                </text>
                <text id="Heavy" fill="#000000" font-family="Helvetica" font-size="13" font-weight="normal">
                    <tspan x="2618.19" y="322">Heavy</tspan>
                </text>
                <text id="Black" fill="#000000" font-family="Helvetica" font-size="13" font-weight="normal">
                    <tspan x="2917.4" y="322">Black</tspan>
                </text>
                <line x1="263" y1="1903" x2="3036" y2="1903" id="Path" stroke="#000000" stroke-width="0.5"></line>
                <g id="Group" transform="translate(264.000000, 1918.000000)" fill="#000000" fill-rule="nonzero">
                    <path d="M8.24805,15.830078 C12.5547,15.830078 16.1387,12.25586 16.1387,7.94922 C16.1387,3.6426 12.5449,0.0684 8.23828,0.0684 C3.94141,0.0684 0.36719,3.6426 0.36719,7.94922 C0.36719,12.25586 3.95117,15.830078 8.24805,15.830078 Z M8.24805,14.345703 C4.70312,14.345703 1.87109,11.50391 1.87109,7.94922 C1.87109,4.3945 4.69336,1.5527 8.23828,1.5527 C11.793,1.5527 14.6348,4.3945 14.6445503,7.94922 C14.6543,11.50391 11.8027,14.345703 8.24805,14.345703 Z M8.22852,11.57227 C8.69727,11.57227 8.9707,11.25977 8.9707,10.74219 L8.9707,8.68164 L11.1973,8.68164 C11.6953,8.68164 12.0371,8.42773 12.0371,7.95898 C12.0371,7.48047 11.7148,7.2168 11.1973,7.2168 L8.9707,7.2168 L8.9707,4.9902 C8.9707,4.4727 8.69727,4.1504 8.22852,4.1504 C7.75977,4.1504 7.50586,4.4922 7.50586,4.9902 L7.50586,7.2168 L5.29883,7.2168 C4.78125,7.2168 4.44922,7.48047 4.44922,7.95898 C4.44922,8.42773 4.80078,8.68164 5.29883,8.68164 L7.50586,8.68164 L7.50586,10.74219 C7.50586,11.24023 7.75977,11.57227 8.22852,11.57227 Z" id="Shape"></path>
                </g>
                <g id="Group" transform="translate(282.506000, 1915.000000)" fill="#000000" fill-rule="nonzero">
                    <path d="M10.709,20.91016 C16.1582,20.91016 20.6699,16.39844 20.6699,10.94922 C20.6699,5.5098 16.1484,0.9883 10.6992,0.9883 C5.25977,0.9883 0.74805,5.5098 0.74805,10.94922 C0.74805,16.39844 5.26953,20.91016 10.709,20.91016 Z M10.709,19.25 C6.09961,19.25 2.41797,15.55859 2.41797,10.94922 C2.41797,6.3496 6.08984,2.6484 10.6992,2.6484 C15.3086,2.6484 19,6.3496 19.0098379,10.94922 C19.0195,15.55859 15.3184,19.25 10.709,19.25 Z M10.6895,15.58789 C11.207,15.58789 11.5195,15.22656 11.5195,14.66016 L11.5195,11.76953 L14.5762,11.76953 C15.123,11.76953 15.5039,11.48633 15.5039,10.96875 C15.5039,10.44141 15.1426,10.13867 14.5762,10.13867 L11.5195,10.13867 L11.5195,7.0723 C11.5195,6.4961 11.207,6.1445 10.6895,6.1445 C10.1719,6.1445 9.8789,6.5156 9.8789,7.0723 L9.8789,10.13867 L6.83203,10.13867 C6.26562,10.13867 5.89453,10.44141 5.89453,10.96875 C5.89453,11.48633 6.28516,11.76953 6.83203,11.76953 L9.8789,11.76953 L9.8789,14.66016 C9.8789,15.20703 10.1719,15.58789 10.6895,15.58789 Z" id="Shape"></path>
                </g>
                <g id="Group" transform="translate(306.924000, 1913.000000)" fill="#000000" fill-rule="nonzero">
                    <path d="M12.9707,25.67383 C19.9336,25.67383 25.6953,19.921875 25.6953,12.95898 C25.6953,5.9961 19.9238,0.2441 12.9609,0.2441 C6.00781,0.2441 0.25586,5.9961 0.25586,12.95898 C0.25586,19.921875 6.01758,25.67383 12.9707,25.67383 Z M12.9707,23.85742 C6.93555,23.85742 2.08203,18.99414 2.08203,12.95898 C2.08203,6.9238 6.92578,2.0605 12.9609,2.0605 C19.0059,2.0605 23.8594,6.9238 23.8691295,12.95898 C23.8789,18.99414 19.0156,23.85742 12.9707,23.85742 Z M12.9512,18.93555 C13.5176,18.93555 13.8691,18.54492 13.8691,17.93945 L13.8691,13.86719 L18.1074,13.86719 C18.6934,13.86719 19.1133,13.53516 19.1133,12.97852 C19.1133,12.40234 18.7227,12.06055 18.1074,12.06055 L13.8691,12.06055 L13.8691,7.8125 C13.8691,7.1973 13.5176,6.8066 12.9512,6.8066 C12.3848,6.8066 12.0625,7.2168 12.0625,7.8125 L12.0625,12.06055 L7.83398,12.06055 C7.21875,12.06055 6.80859,12.40234 6.80859,12.97852 C6.80859,13.53516 7.23828,13.86719 7.83398,13.86719 L12.0625,13.86719 L12.0625,17.93945 C12.0625,18.52539 12.3848,18.93555 12.9512,18.93555 Z" id="Shape"></path>
                </g>
                <text id="Design-Variations" fill="#000000" font-family="Helvetica-Bold, Helvetica" font-size="13" font-weight="bold">
                    <tspan x="263" y="1953">Design Variations</tspan>
                </text>
                <text id="Symbols-are-supported-in-up-to-nine-weights-and-three-scales." fill="#000000" font-family="Helvetica" font-size="13" font-weight="normal">
                    <tspan x="263" y="1971">Symbols are supported in up to nine weights and three scales.</tspan>
                </text>
                <text id="For-optimal-layout-with-text-and-other-symbols,-vertically-align" fill="#000000" font-family="Helvetica" font-size="13" font-weight="normal">
                    <tspan x="263" y="1989">For optimal layout with text and other symbols, vertically align</tspan>
                </text>
                <text id="symbols-with-the-adjacent-text." fill="#000000" font-family="Helvetica" font-size="13" font-weight="normal">
                    <tspan x="263" y="2007">symbols with the adjacent text.</tspan>
                </text>
                <rect id="Rectangle" fill="#00AEEF" fill-rule="nonzero" opacity="0.4" x="776" y="1919" width="3" height="14"></rect>
                <g id="Group" transform="translate(779.000000, 1918.000000)" fill="#000000" fill-rule="nonzero">
                    <path d="M10.5273,15 L12.373,15 L7.17773,0.9082 L5.43945,0.9082 L0.244141,15 L2.08984,15 L3.50586,10.9668 L9.11133,10.9668 L10.5273,15 Z M6.2793,3.0469 L6.33789,3.0469 L8.59375,9.47266 L4.02344,9.47266 L6.2793,3.0469 Z" id="Shape"></path>
                </g>
                <rect id="Rectangle" fill="#00AEEF" fill-rule="nonzero" opacity="0.4" x="791.617" y="1919" width="3" height="14"></rect>
                <text id="Margins" fill="#000000" font-family="Helvetica-Bold, Helvetica" font-size="13" font-weight="bold">
                    <tspan x="776" y="1953">Margins</tspan>
                </text>
                <text id="Leading-and-trailing-margins-on-the-left-and-right-side-of-each-symbol" fill="#000000" font-family="Helvetica" font-size="13" font-weight="normal">
                    <tspan x="776" y="1971">Leading and trailing margins on the left and right side of each symbol</tspan>
                </text>
                <text id="can-be-adjusted-by-modifying-the-width-of-the-blue-rectangles." fill="#000000" font-family="Helvetica" font-size="13" font-weight="normal">
                    <tspan x="776" y="1989">can be adjusted by modifying the width of the blue rectangles.</tspan>
                </text>
                <text id="Modifications-are-automatically-applied-proportionally-to-all" fill="#000000" font-family="Helvetica" font-size="13" font-weight="normal">
                    <tspan x="776" y="2007">Modifications are automatically applied proportionally to all</tspan>
                </text>
                <text id="scales-and-weights." fill="#000000" font-family="Helvetica" font-size="13" font-weight="normal">
                    <tspan x="776" y="2025">scales and weights.</tspan>
                </text>
                <g id="Group" transform="translate(1291.000000, 1915.000000)" fill="#000000" fill-rule="nonzero">
                    <path d="M0.83203,21.11523 L2.375,22.6582 C3.22461,23.48828 4.19141,23.41992 5.06055,22.46289 L15.2754,11.33984 C15.7051,11.63281 16.0957,11.62305 16.5645,11.52539 L17.6094,11.31055 L18.3027,12.00391 L18.2539,12.52148 C18.1855,13.04883 18.3516,13.46875 18.8496,13.9668 L19.6602,14.77734 C20.168,15.28516 20.8223,15.31445 21.3008,14.83594 L24.5527,11.58398 C25.0312,11.10547 25.0117,10.45117 24.5039,9.94336 L23.6836,9.12305 C23.1855,8.625 22.7754,8.44922 22.2383,8.52734 L21.7109,8.58594 L21.0566,7.9219 L21.3398,6.7793 C21.4863,6.2129 21.3398,5.7441 20.7148,5.1387 L18.3027,2.7461 C14.7578,-0.7793 10.2266,-0.6719 7.11133,2.4629 C6.69141,2.8926 6.64258,3.4785 6.91602,3.9082 C7.15039,4.2793 7.62891,4.5039 8.2734,4.3379 C9.7871,3.957 11.3008,4.0742 12.7852,5.0801 L12.1602,6.6621 C11.9258,7.248 11.9453,7.7266 12.1797,8.16602 L1.01758,18.439453 C0.08008,19.30859 -0.02734,20.25586 0.83203,21.11523 Z M8.6738,2.8535 C11.3398,0.8613 14.6504,1.1738 17.0527,3.5859 L19.6797,6.1934 C19.9141,6.4277 19.9434,6.6133 19.8848,6.9062 L19.5039,8.46875 L21.0762,10.04102 L22.043,9.95312 C22.3262,9.92383 22.4141,9.94336 22.6387,10.16797 L23.2637,10.79297 L20.5098,13.53711 L19.8848,12.92188 C19.6602,12.69727 19.6406,12.59961 19.6699,12.31641 L19.7578,11.35938 L18.1953,9.79688 L16.5742,10.10938 C16.291,10.16797 16.1445,10.16797 15.9102,9.92383 L13.7324,7.7461 C13.5078,7.5117 13.4785,7.375 13.6055,7.0527 L14.5527,4.7773 C12.9512,3.2441 10.8418,2.3945 8.8008,3.0488 C8.7129,3.0781 8.6445,3.0586 8.6152,3.0195 C8.5859,2.9707 8.5859,2.9219 8.6738,2.8535 Z M2.10156,20.41211 C1.61328,19.91406 1.78906,19.61133 2.12109,19.30859 L13.0781,9.19141 L14.3086,10.42188 L4.15234,21.34961 C3.84961,21.68164 3.46875,21.7793 3.06836,21.37891 L2.10156,20.41211 Z" id="Shape"></path>
                </g>
                <text id="Exporting" fill="#000000" font-family="Helvetica-Bold, Helvetica" font-size="13" font-weight="bold">
                    <tspan x="1289" y="1953">Exporting</tspan>
                </text>
                <text id="Symbols-should-be-outlined-when-exporting-to-ensure-the" fill="#000000" font-family="Helvetica" font-size="13" font-weight="normal">
                    <tspan x="1289" y="1971">Symbols should be outlined when exporting to ensure the</tspan>
                </text>
                <text id="design-is-preserved-when-submitting-to-Xcode." fill="#000000" font-family="Helvetica" font-size="13" font-weight="normal">
                    <tspan x="1289" y="1989">design is preserved when submitting to Xcode.</tspan>
                </text>
                <text id="Template-v.1.0" fill="#000000" font-family="Helvetica" font-size="13" font-weight="normal">
                    <tspan x="2952" y="1933">Template v.1.0</tspan>
                </text>
                <text id="Generated-from-circle" fill="#000000" font-family="Helvetica" font-size="13" font-weight="normal">
                    <tspan x="2911" y="1951">Generated from circle</tspan>
                </text>
                <text id="Typeset-at-100-points" fill="#000000" font-family="Helvetica" font-size="13" font-weight="normal">
                    <tspan x="2912" y="1969">Typeset at 100 points</tspan>
                </text>
                <text id="Small" fill="#000000" font-family="Helvetica" font-size="13" font-weight="normal">
                    <tspan x="263" y="726">Small</tspan>
                </text>
                <text id="Medium" fill="#000000" font-family="Helvetica" font-size="13" font-weight="normal">
                    <tspan x="263" y="1156">Medium</tspan>
                </text>
                <text id="Large" fill="#000000" font-family="Helvetica" font-size="13" font-weight="normal">
                    <tspan x="263" y="1586">Large</tspan>
                </text>
            </g>
            <g id="Guides" transform="translate(263.000000, 625.000000)">
                <g id="H-reference" transform="translate(76.000000, 0.000000)" fill="#27AAE1" fill-rule="nonzero">
                    <path d="M54.9316,71 L57.666,71 L30.5664,0.541 L28.0762,0.541 L0.976562,71 L3.66211,71 L12.9395,46.5371 L45.7031,46.5371 L54.9316,71 Z M29.1992,3.9102 L29.4434,3.9102 L44.8242,44.291 L13.8184,44.291 L29.1992,3.9102 Z" id="Shape"></path>
                </g>
                <line x1="0" y1="71" x2="2773" y2="71" id="Baseline-S" stroke="#27AAE1" stroke-width="0.577"></line>
                <line x1="0" y1="0.541" x2="2773" y2="0.541" id="Capline-S" stroke="#27AAE1" stroke-width="0.577"></line>
                <g id="H-reference" transform="translate(76.000000, 430.000000)" fill="#27AAE1" fill-rule="nonzero">
                    <path d="M54.9316,71 L57.666,71 L30.5664,0.541 L28.0762,0.541 L0.976562,71 L3.66211,71 L12.9395,46.5371 L45.7031,46.5371 L54.9316,71 Z M29.1992,3.9102 L29.4434,3.9102 L44.8242,44.291 L13.8184,44.291 L29.1992,3.9102 Z" id="Shape"></path>
                </g>
                <line x1="0" y1="501" x2="2773" y2="501" id="Baseline-M" stroke="#27AAE1" stroke-width="0.577"></line>
                <line x1="0" y1="430.54" x2="2773" y2="430.54" id="Capline-M" stroke="#27AAE1" stroke-width="0.577"></line>
                <g id="H-reference" transform="translate(76.000000, 860.000000)" fill="#27AAE1" fill-rule="nonzero">
                    <path d="M54.9316,71 L57.666,71 L30.5664,0.541 L28.0762,0.541 L0.976562,71 L3.66211,71 L12.9395,46.5371 L45.7031,46.5371 L54.9316,71 Z M29.1992,3.9102 L29.4434,3.9102 L44.8242,44.291 L13.8184,44.291 L29.1992,3.9102 Z" id="Shape"></path>
                </g>
                <line x1="0" y1="931" x2="2773" y2="931" id="Baseline-L" stroke="#27AAE1" stroke-width="0.577"></line>
                <line x1="0" y1="860.54" x2="2773" y2="860.54" id="Capline-L" stroke="#27AAE1" stroke-width="0.577"></line>
                <rect id="left-margin" fill="#00AEEF" fill-rule="nonzero" opacity="0.4" x="1128.3" y="405.79" width="8.74023" height="119.336"></rect>
                <rect id="right-margin" fill="#00AEEF" fill-rule="nonzero" opacity="0.4" x="1236.65" y="405.79" width="8.74023" height="119.336"></rect>
            </g>
            <g id="Symbols" transform="translate(1399.000000, 1040.000000)" fill="#000000" fill-rule="nonzero">
                <g id="Regular-M" transform="translate(0.300000, 0.000000)">
                    <!-- <path d="M50.5449,100.5508 C77.791,100.5508 100.35,77.99219 100.35,50.7461 C100.35,23.5488 77.7422,0.9414 50.4961,0.9414 C23.2988,0.9414 0.74023,23.5488 0.74023,50.7461 C0.74023,77.99219 23.3477,100.5508 50.5449,100.5508 Z M50.1551,92.0078 C27.1082,92.0078 8.7,73.5508 8.7,50.5039 C8.7,27.5058 27.0594,9 50.1063,9 C73.1532,9 91.6102,27.5058 91.6593938,50.5039 C91.7082,73.5508 73.202,92.0078 50.1551,92.0078 Z" id="Shape"></path> -->
                    <path d="M56.8756849,78.3215442 C56.7961145,78.2882715 56.7081683,78.2799533 56.6411617,78.221726 C56.4344033,78.0215639 56.1346859,77.948344 55.858022,78.0304077 C55.3764119,78.1468623 54.8948019,78.2591578 54.3922523,78.4088852 C54.5807084,78.4504761 54.7649766,78.5128625 54.9534327,78.5336579 C55.3512845,78.5752489 55.7617,78.5627716 56.1134847,78.849749 C56.3186924,79.0161127 56.5071485,79.2115901 56.6997925,79.4029083 C56.7374837,79.4444993 56.7542354,79.5318402 56.7500475,79.5983857 C56.7500475,79.6233403 56.6579134,79.6690903 56.6160343,79.6607721 C55.7658879,79.523522 54.9073657,79.5027266 54.0655951,79.2282264 C53.3170317,78.9952339 52.5529641,78.814565 51.7789945,78.6875444 C51.4272098,78.6209989 51.0544855,78.6875444 50.690137,78.7291353 C50.5585091,78.7550358 50.4400583,78.8256172 50.355104,78.9287718 C50.0493863,79.2739765 49.9865676,80.2305678 50.2210908,80.6547953 C50.2378424,80.688068 50.2797215,80.7213408 50.2839095,80.7587726 C50.2964732,80.8377954 50.2922853,80.9168181 50.2922853,81 C50.2378424,80.9875227 50.1666479,80.9958409 50.1247688,80.9584091 C49.5049576,80.5175452 49.1447971,79.8063404 48.9354014,79.0202718 C48.809764,78.5544534 48.8851464,78.0096122 48.8935223,77.4980438 C48.8879943,77.2320438 48.930547,76.9672153 49.0191597,76.7161344 C49.1406092,76.4457933 49.1992399,76.2461569 49.0610388,75.9425431 C48.9814684,75.7761794 49.0777905,75.4975202 49.1029179,75.1814291 C48.9605289,75.264611 48.8516431,75.3020428 48.7846365,75.3769065 C48.5124222,75.6763611 48.2527715,75.9882931 47.9931209,76.296066 C47.9512418,76.3501342 47.9177385,76.429157 47.8674835,76.4707479 C47.7837253,76.5289752 47.699967,76.5622479 47.6120208,76.6079979 C47.603645,76.4832252 47.5701417,76.3584524 47.5868933,76.2461569 C47.7081703,75.6796562 48.0215809,75.1716666 48.4747309,74.8071107 C48.7087086,74.5959299 48.837354,74.2932603 48.8265157,73.9794513 C48.8348915,73.6883148 48.8181398,73.4013374 48.8223277,73.1143599 C48.8223277,72.9230417 48.7678849,72.7899507 48.6003683,72.7483598 C48.4747309,72.7192461 48.4202881,72.6485416 48.4328518,72.4738597 C48.4747309,71.5172683 48.5333617,70.564836 48.5417376,69.6124038 C48.5459255,68.5767896 48.5082343,67.5411755 48.470543,66.5097205 C48.4663551,66.2684931 48.3867848,66.0314248 48.3407177,65.7943565 C48.277899,65.4949018 48.2234562,65.1912881 48.1480737,64.8918334 C47.9470539,64.0932876 48.0978188,63.2947417 48.1899528,62.5086732 C48.2323688,62.09862 48.3607604,61.7019283 48.566865,61.3441272 C48.9144618,60.7576951 48.9102739,60.0714448 48.7888244,59.3851944 C48.745857,59.1683007 48.7178723,58.9487431 48.7050662,58.7280578 C48.6966903,58.4535576 48.5961804,58.2788757 48.3867848,58.2123303 C47.6826385,57.9782343 46.9762446,57.7508601 46.2677007,57.530239 C45.8070302,57.3888299 45.3379839,57.2806935 44.8815014,57.1392843 C44.4103255,56.9959383 43.9438375,56.8378136 43.4827384,56.6651477 C42.8001085,56.407284 42.1300424,56.1244656 41.4516005,55.8582837 C40.9999035,55.6825747 40.5461828,55.5120406 40.0905287,55.3467153 L37.6447874,54.4608285 L35.7602264,53.7745782 C34.8807646,53.4460098 34.0013029,53.1216006 33.1218411,52.7763959 C32.8119355,52.6516231 32.5145937,52.468623 32.2046881,52.3396911 C31.4047967,51.9986455 30.5923415,51.6825545 29.7924501,51.3331907 C29.1307598,51.0420542 28.4858211,50.7093267 27.8241309,50.4181902 C27.5595685,50.3078528 27.2825566,50.2296502 26.9991119,50.185281 C26.1950326,50.048031 25.3909533,49.9357355 24.5868739,49.8068036 C24.0005661,49.7153036 23.4100703,49.6071671 22.8195746,49.5239853 C22.5390816,49.4885747 22.2562592,49.47467 21.9736161,49.4823944 C20.9936444,49.4948716 20.0178606,49.5239853 19.0420768,49.5447807 C18.7572987,49.5530989 18.4767085,49.5822126 18.1919304,49.5780535 C17.9673776,49.5701394 17.7609222,49.4536424 17.6391259,49.2661215 C17.5553676,49.1579851 17.4297302,49.0997578 17.3124687,49.0456896 C17.1658917,48.974985 17.006751,48.9500305 16.8685499,48.8793259 C16.7931674,48.837735 16.6884696,48.7212804 16.7010333,48.6630531 C16.7218553,48.5463499 16.7807126,48.4396744 16.8685499,48.3594393 C16.9481202,48.2970529 17.0653818,48.3136893 17.1617038,48.2845756 L17.7061325,48.1098937 L17.7061325,48.0142346 L17.2580258,47.9726437 C17.1742675,47.9684846 17.0863214,47.98928 17.0151268,47.9518482 C16.9336044,47.9016425 16.8738717,47.8230414 16.8476103,47.7314163 C16.8350466,47.6773481 16.9313686,47.5775298 16.9899993,47.5234616 C17.0779455,47.448598 17.1868313,47.3986888 17.2831533,47.3404615 L17.2789654,47.2572797 C17.2161467,47.2240069 17.1449521,47.2032115 17.0988851,47.1491433 C17.0151268,47.0618023 16.8936773,46.9536659 16.8894894,46.8496886 C16.8894894,46.7415522 16.9941873,46.5751885 17.0821334,46.5335975 C17.4590456,46.3672338 17.8443336,46.242461 18.2296217,46.0927337 C18.8661845,45.8515063 19.5111231,45.6435517 20.1351222,45.3607333 C20.8638191,45.032165 21.5715764,44.6328921 22.2918975,44.2876874 C22.950756,43.9602475 23.6212552,43.6564375 24.3020958,43.376846 C25.1396785,43.0482777 25.9940128,42.8112094 26.8232196,42.4618456 C27.4095274,42.2206182 28.0377144,42.2206182 28.6030827,41.8379817 C29.1642631,41.4511861 29.7840742,41.1974814 30.3703821,40.864754 C30.7221668,40.6567993 31.0739515,40.4322083 31.4047967,40.1785036 C32.1334936,39.6170261 32.8496267,39.030594 33.5741357,38.4607983 C34.3949667,37.8161389 35.2116098,37.1714795 36.0366287,36.5392974 C36.2376485,36.385411 36.4637958,36.2897518 36.6731915,36.1525018 C37.4314191,35.626614 38.1318602,35.0229991 38.7629602,34.3516146 C39.0644899,34.0480008 39.4581538,33.8650007 39.8141264,33.6487279 C40.6349574,33.1579549 41.4557884,32.671341 42.2808073,32.1930454 C42.4273843,32.1098635 42.5907129,32.0682726 42.7456657,31.997568 C43.5581208,31.6357269 44.3747639,31.2780449 45.1872191,30.9078857 C45.5934467,30.7207265 45.9912984,30.5002946 46.4017139,30.3256127 C46.7744382,30.1758853 47.1555383,30.0802262 47.5324505,29.938817 C48.0978188,29.7267033 48.663187,29.4937941 49.2243674,29.265044 C49.8190511,29.0154984 50.4053589,28.7202028 51.0167943,28.5330437 C51.5695988,28.3583618 52.1475308,28.3084526 52.717087,28.1961571 C53.1316905,28.1129753 53.5421059,28.008998 53.9525214,27.9174979 C54.069783,27.8925434 54.1870446,27.8509524 54.3001182,27.8592706 C55.0120635,27.9091797 55.6737538,27.6263614 56.3438199,27.4225659 C56.5406518,27.3643386 56.7416716,27.1231112 56.8547453,26.8985202 C57.0432014,26.5242018 57.1478992,26.0916561 57.3154158,25.6965423 C57.5583147,25.1475421 57.8179653,24.6110191 58.0692401,24.070337 C58.3498303,23.4797458 58.6136689,22.8849956 58.9068228,22.3110407 C59.0122789,22.0764018 59.1647459,21.865549 59.3549295,21.6913359 C59.907734,21.2546312 60.4605386,20.8179264 61.0510344,20.4685626 C61.7629796,20.0484942 62.516804,19.8613351 63.3125075,20.1150397 C63.7815538,20.2647671 64.254788,20.4020171 64.7238342,20.530949 C65.0546794,20.61829 65.3939004,20.6474036 65.7163697,20.7680173 C66.7214689,21.1423357 67.4585416,21.9450406 67.9569033,23.0430411 C68.3589429,23.933087 68.7735463,24.8064965 69.2677201,25.6258377 C69.4256249,25.9170752 69.6677657,26.1546524 69.9629137,26.307929 C71.1774085,26.8777247 72.3877154,27.4433613 73.6063982,27.9923616 C74.2010819,28.2668617 74.820893,28.4748164 75.4113888,28.7617938 C75.93069,29.0113393 76.4290517,29.3149531 76.9274134,29.6102487 C77.5556004,29.9845671 78.200539,30.342249 78.8077864,30.7706356 C79.5071679,31.2697268 80.1814219,31.8228861 80.8514881,32.3802045 C81.2284003,32.6962956 81.5759971,33.0539776 81.9235938,33.4199778 C82.350761,33.8691598 82.786304,34.3183418 83.1632162,34.8257511 C83.3935514,35.1293649 83.5401284,35.5327969 83.6783295,35.9195926 C83.7209593,36.1039667 83.7,36.2972011 83.6196987,36.4685928 C83.5945712,36.5268201 83.3349206,36.5018656 83.2302228,36.4228428 C82.5894721,35.9320698 81.9403455,35.4496151 81.3330981,34.9006148 C80.5535819,34.1902364 79.7220952,33.5382438 78.8454776,32.9500003 C78.104217,32.4592273 77.3671443,31.9642953 76.6216957,31.4943178 C76.2782868,31.2863631 75.9139384,31.1283176 75.5579658,30.9536357 C75.0051612,30.6916128 74.4607325,30.3921582 73.8953642,30.1842035 C73.183419,29.9263398 72.5133528,29.4979532 71.7385889,29.5021123 C71.4691589,29.48739 71.2049181,29.4224898 70.959637,29.310794 C70.2183764,29.0196575 69.464552,29.0487712 68.7065397,29.1444303 C68.5055199,29.1693849 68.3045001,29.177703 68.1034802,29.2026576 C67.6218702,29.265044 67.3370921,29.755817 67.4836691,30.3256127 C67.5758032,30.6832947 67.7181922,31.0243403 67.8563933,31.3612268 C68.2249297,32.2554318 68.6520968,33.1205231 68.9661903,34.0438417 C69.175586,34.6593874 69.2886597,35.3456377 69.3347267,36.0152517 C69.3933575,36.9094567 69.3431025,37.8161389 69.3514784,38.7186621 C69.3514784,39.1512077 69.3766058,39.5837534 69.3933575,40.016299 C69.4352366,41.3887997 69.1672102,42.6490048 68.6102177,43.8509826 C68.0405941,45.0615473 67.3827392,46.2291967 66.6418985,47.3446206 C66.0430269,48.2596211 65.3939004,49.1455078 64.736398,50.0105991 C64.0035132,50.9755087 63.2706284,51.9487364 62.3827908,52.7015322 C61.5745235,53.3877825 60.7118134,53.9742146 59.8742307,54.6063968 C59.7273196,54.7178424 59.5779132,54.826006 59.426124,54.930806 C58.7560579,55.3883062 58.0608643,55.78342 57.3196037,56.0537611 C57.0599531,56.1535793 56.8128662,56.3033066 56.5574035,56.4322385 C56.096733,56.6693068 55.6360626,56.9146933 55.1670163,57.1392843 C54.6644667,57.3805117 54.1619171,57.6051027 53.6509917,57.8255346 C53.491851,57.8962392 53.4206565,57.9835801 53.4206565,58.2081712 C53.4290323,59.8218992 53.4206565,61.4356272 53.4206565,63.0493552 C53.4248444,63.2489917 53.4834752,63.4444691 53.4876631,63.6441055 C53.4876631,64.0641739 53.4792872,64.4884014 53.4709114,64.9084697 C53.4541598,65.7070156 53.4290323,66.5055614 53.4164685,67.3082663 C53.412512,67.9843545 53.4404621,68.6602553 53.5002268,69.3337445 L53.8352599,72.3407687 C53.8813269,72.8273825 53.9106423,73.3139964 53.9608973,73.7964512 C53.9692731,73.9378603 54.0027764,74.0751104 54.0404676,74.2123605 C54.1116621,74.4868606 54.1954204,74.7530425 54.2582391,75.0317018 C54.3419974,75.4184974 54.4843864,75.6846793 54.8529228,75.7429066 C55.1539416,75.8050872 55.4463837,75.9028279 55.7240087,76.0340431 C56.193055,76.2336796 56.6662892,76.1255432 57.1395234,76.117225 C57.6588246,76.1130659 58.173938,76.0756341 58.6932392,76.0465204 C58.8314403,76.0382022 58.9654536,76.0132477 59.1036547,76.0174068 C59.7527813,76.0340431 60.3977199,76.1213841 61.021719,76.3584524 C61.2017992,76.429157 61.3902553,76.4832252 61.5787114,76.5040206 C61.8969928,76.5456116 62.1398918,76.7660435 62.370227,77.0031118 C62.4246699,77.0613391 62.4372336,77.1861119 62.4707369,77.2776119 C62.3953545,77.2984074 62.3199721,77.3316801 62.2445896,77.3358392 C61.9765632,77.3566347 61.7001609,77.3358392 61.4363224,77.3899074 C61.1702394,77.4581455 60.8902234,77.4509411 60.6280551,77.3691119 C60.1064819,77.1797327 59.5699841,77.0336632 59.0240844,76.9324072 C58.6562001,76.845544 58.2709079,76.865759 57.9142873,76.9906345 C57.5373752,77.14868 57.1353355,77.2069073 56.7416716,77.3108846 C56.6662892,77.3316801 56.5406518,77.373271 56.5364639,77.4190211 C56.5349301,77.5221373 56.5640659,77.6234108 56.6202222,77.7101576 C56.7165442,77.8848395 56.8338057,78.042885 56.9468794,78.2092487 C56.9259398,78.2508396 56.9050003,78.2841124 56.8756849,78.3215442 L56.8756849,78.3215442 Z M54.7878415,77 C54.7878415,76.7693215 54.7659697,76.5592394 54.7878415,76.3532764 C54.8353841,75.6897578 55.2175972,75.0878443 55.8158177,74.7344079 C56.3057468,74.4213443 56.8044247,74.1288769 56.5507114,73.7087126 C56.5157164,73.6510429 56.6032038,73.5810155 56.6119525,73.5151074 C56.6425731,73.2432364 56.7344348,72.9631268 56.6863168,72.6912557 C56.5157164,71.817973 56.235757,70.9446902 56.104526,70.0672881 C55.9645462,69.0869047 55.9864181,68.1024019 55.855187,67.1261377 C55.7406076,66.3506543 55.41345,65.6166619 54.9059494,64.9964811 C54.3460305,64.2797301 53.8910963,63.5506214 53.4055416,62.8256319 C53.2608506,62.6157213 53.1502711,62.3866339 53.0774641,62.1459543 C53.0249717,61.9647069 52.9899767,61.7669825 53.0993359,61.5980929 C53.3355517,61.2397174 53.6855011,60.897819 53.9567118,60.547682 C54.0995525,60.3924663 54.1974825,60.2051913 54.2410457,60.0039399 C54.2847893,59.5096289 54.2847893,59.0153179 54.2629175,58.5210069 C54.24542,58.1502737 54.0573223,58.0555307 53.409916,58.0143381 C52.5569144,57.9607878 52.1326008,58.0514115 51.9357543,58.3850714 C51.5855508,58.9819216 51.2615737,59.5920879 50.9646449,60.2140221 C50.8815319,60.3829117 50.9340243,60.5682783 50.9471474,60.7412872 C50.9733936,61.0296353 51.0346348,61.3179833 51.0477579,61.6022122 C51.0827528,62.603192 51.0083886,63.6041717 51.3802097,64.596913 C51.5551844,65.074747 51.1789889,65.4825536 50.5709519,65.8615253 C50.417849,65.9562683 50.2428743,66.0674883 50.2210025,66.1787082 C50.1032943,66.7652029 50.0258533,67.3582324 49.9891611,67.9541086 C49.9454174,68.9221343 50.107269,69.89016 49.8229351,70.8581858 C49.6491841,71.4527072 49.6598096,72.0816436 49.8535557,72.6706594 C50.1291408,73.5151074 50.6409417,74.3471976 51.0696297,75.1834071 C51.2052351,75.4511588 51.4020816,75.7106721 51.5551844,75.9784239 C51.8570157,76.489212 53.2568131,76.9670459 54.7878415,77 L54.7878415,77 Z M53.8936343,81.6214767 C54.0816343,81.3174767 54.2936343,81.0254767 54.4256343,80.7014767 C54.4456343,80.6494767 54.0496343,80.3454767 53.9456343,80.3814767 C53.5936343,80.5174767 53.2936343,80.7494767 52.9736343,80.9414767 C53.2736343,81.1734767 53.5816343,81.3974767 53.8936343,81.6214767 L53.8936343,81.6214767 Z" id="Shape"></path>
                </g>
            </g>
        </g>
    </g>
</svg>