<?xml version="1.0" encoding="UTF-8"?>
<svg width="3300px" height="2200px" viewBox="0 0 3300 2200" version="1.1" xmlns="http://www.w3.org/2000/svg" xmlns:xlink="http://www.w3.org/1999/xlink">
    <!-- Generator: Sketch 59.1 (86144) - https://sketch.com -->
    <title>filter</title>
    <desc>Created with Sketch.</desc>
    <g id="Page-1" stroke="none" stroke-width="1" fill="none" fill-rule="evenodd">
        <g id="filter">
            <g id="Notes">
                <rect id="artboard" fill="#FFFFFF" fill-rule="nonzero" x="0" y="0" width="3300" height="2200"></rect>
                <line x1="263" y1="292" x2="3036" y2="292" id="Path" stroke="#000000" stroke-width="0.5"></line>
                <text id="Weight/Scale-Variations" fill="#000000" font-family="Helvetica-Bold, Helvetica" font-size="13" font-weight="bold">
                    <tspan x="263" y="322">Weight/Scale Variations</tspan>
                </text>
                <text id="Ultralight" fill="#000000" font-family="Helvetica" font-size="13" font-weight="normal">
                    <tspan x="533.711" y="322">Ultralight</tspan>
                </text>
                <text id="Thin" fill="#000000" font-family="Helvetica" font-size="13" font-weight="normal">
                    <tspan x="843.422" y="322">Thin</tspan>
                </text>
                <text id="Light" fill="#000000" font-family="Helvetica" font-size="13" font-weight="normal">
                    <tspan x="1138.63" y="322">Light</tspan>
                </text>
                <text id="Regular" fill="#000000" font-family="Helvetica" font-size="13" font-weight="normal">
                    <tspan x="1426.84" y="322">Regular</tspan>
                </text>
                <text id="Medium" fill="#000000" font-family="Helvetica" font-size="13" font-weight="normal">
                    <tspan x="1723.06" y="322">Medium</tspan>
                </text>
                <text id="Semibold" fill="#000000" font-family="Helvetica" font-size="13" font-weight="normal">
                    <tspan x="2015.77" y="322">Semibold</tspan>
                </text>
                <text id="Bold" fill="#000000" font-family="Helvetica" font-size="13" font-weight="normal">
                    <tspan x="2326.48" y="322">Bold</tspan>
                </text>
                <text id="Heavy" fill="#000000" font-family="Helvetica" font-size="13" font-weight="normal">
                    <tspan x="2618.19" y="322">Heavy</tspan>
                </text>
                <text id="Black" fill="#000000" font-family="Helvetica" font-size="13" font-weight="normal">
                    <tspan x="2917.4" y="322">Black</tspan>
                </text>
                <line x1="263" y1="1903" x2="3036" y2="1903" id="Path" stroke="#000000" stroke-width="0.5"></line>
                <g id="Group" transform="translate(264.000000, 1918.000000)" fill="#000000" fill-rule="nonzero">
                    <path d="M8.24805,15.830078 C12.5547,15.830078 16.1387,12.25586 16.1387,7.94922 C16.1387,3.6426 12.5449,0.0684 8.23828,0.0684 C3.94141,0.0684 0.36719,3.6426 0.36719,7.94922 C0.36719,12.25586 3.95117,15.830078 8.24805,15.830078 Z M8.24805,14.345703 C4.70312,14.345703 1.87109,11.50391 1.87109,7.94922 C1.87109,4.3945 4.69336,1.5527 8.23828,1.5527 C11.793,1.5527 14.6348,4.3945 14.6445503,7.94922 C14.6543,11.50391 11.8027,14.345703 8.24805,14.345703 Z M8.22852,11.57227 C8.69727,11.57227 8.9707,11.25977 8.9707,10.74219 L8.9707,8.68164 L11.1973,8.68164 C11.6953,8.68164 12.0371,8.42773 12.0371,7.95898 C12.0371,7.48047 11.7148,7.2168 11.1973,7.2168 L8.9707,7.2168 L8.9707,4.9902 C8.9707,4.4727 8.69727,4.1504 8.22852,4.1504 C7.75977,4.1504 7.50586,4.4922 7.50586,4.9902 L7.50586,7.2168 L5.29883,7.2168 C4.78125,7.2168 4.44922,7.48047 4.44922,7.95898 C4.44922,8.42773 4.80078,8.68164 5.29883,8.68164 L7.50586,8.68164 L7.50586,10.74219 C7.50586,11.24023 7.75977,11.57227 8.22852,11.57227 Z" id="Shape"></path>
                </g>
                <g id="Group" transform="translate(282.506000, 1915.000000)" fill="#000000" fill-rule="nonzero">
                    <path d="M10.709,20.91016 C16.1582,20.91016 20.6699,16.39844 20.6699,10.94922 C20.6699,5.5098 16.1484,0.9883 10.6992,0.9883 C5.25977,0.9883 0.74805,5.5098 0.74805,10.94922 C0.74805,16.39844 5.26953,20.91016 10.709,20.91016 Z M10.709,19.25 C6.09961,19.25 2.41797,15.55859 2.41797,10.94922 C2.41797,6.3496 6.08984,2.6484 10.6992,2.6484 C15.3086,2.6484 19,6.3496 19.0098379,10.94922 C19.0195,15.55859 15.3184,19.25 10.709,19.25 Z M10.6895,15.58789 C11.207,15.58789 11.5195,15.22656 11.5195,14.66016 L11.5195,11.76953 L14.5762,11.76953 C15.123,11.76953 15.5039,11.48633 15.5039,10.96875 C15.5039,10.44141 15.1426,10.13867 14.5762,10.13867 L11.5195,10.13867 L11.5195,7.0723 C11.5195,6.4961 11.207,6.1445 10.6895,6.1445 C10.1719,6.1445 9.8789,6.5156 9.8789,7.0723 L9.8789,10.13867 L6.83203,10.13867 C6.26562,10.13867 5.89453,10.44141 5.89453,10.96875 C5.89453,11.48633 6.28516,11.76953 6.83203,11.76953 L9.8789,11.76953 L9.8789,14.66016 C9.8789,15.20703 10.1719,15.58789 10.6895,15.58789 Z" id="Shape"></path>
                </g>
                <g id="Group" transform="translate(306.924000, 1913.000000)" fill="#000000" fill-rule="nonzero">
                    <path d="M12.9707,25.67383 C19.9336,25.67383 25.6953,19.921875 25.6953,12.95898 C25.6953,5.9961 19.9238,0.2441 12.9609,0.2441 C6.00781,0.2441 0.25586,5.9961 0.25586,12.95898 C0.25586,19.921875 6.01758,25.67383 12.9707,25.67383 Z M12.9707,23.85742 C6.93555,23.85742 2.08203,18.99414 2.08203,12.95898 C2.08203,6.9238 6.92578,2.0605 12.9609,2.0605 C19.0059,2.0605 23.8594,6.9238 23.8691295,12.95898 C23.8789,18.99414 19.0156,23.85742 12.9707,23.85742 Z M12.9512,18.93555 C13.5176,18.93555 13.8691,18.54492 13.8691,17.93945 L13.8691,13.86719 L18.1074,13.86719 C18.6934,13.86719 19.1133,13.53516 19.1133,12.97852 C19.1133,12.40234 18.7227,12.06055 18.1074,12.06055 L13.8691,12.06055 L13.8691,7.8125 C13.8691,7.1973 13.5176,6.8066 12.9512,6.8066 C12.3848,6.8066 12.0625,7.2168 12.0625,7.8125 L12.0625,12.06055 L7.83398,12.06055 C7.21875,12.06055 6.80859,12.40234 6.80859,12.97852 C6.80859,13.53516 7.23828,13.86719 7.83398,13.86719 L12.0625,13.86719 L12.0625,17.93945 C12.0625,18.52539 12.3848,18.93555 12.9512,18.93555 Z" id="Shape"></path>
                </g>
                <text id="Design-Variations" fill="#000000" font-family="Helvetica-Bold, Helvetica" font-size="13" font-weight="bold">
                    <tspan x="263" y="1953">Design Variations</tspan>
                </text>
                <text id="Symbols-are-supported-in-up-to-nine-weights-and-three-scales." fill="#000000" font-family="Helvetica" font-size="13" font-weight="normal">
                    <tspan x="263" y="1971">Symbols are supported in up to nine weights and three scales.</tspan>
                </text>
                <text id="For-optimal-layout-with-text-and-other-symbols,-vertically-align" fill="#000000" font-family="Helvetica" font-size="13" font-weight="normal">
                    <tspan x="263" y="1989">For optimal layout with text and other symbols, vertically align</tspan>
                </text>
                <text id="symbols-with-the-adjacent-text." fill="#000000" font-family="Helvetica" font-size="13" font-weight="normal">
                    <tspan x="263" y="2007">symbols with the adjacent text.</tspan>
                </text>
                <rect id="Rectangle" fill="#00AEEF" fill-rule="nonzero" opacity="0.4" x="776" y="1919" width="3" height="14"></rect>
                <g id="Group" transform="translate(779.000000, 1918.000000)" fill="#000000" fill-rule="nonzero">
                    <path d="M10.5273,15 L12.373,15 L7.17773,0.9082 L5.43945,0.9082 L0.244141,15 L2.08984,15 L3.50586,10.9668 L9.11133,10.9668 L10.5273,15 Z M6.2793,3.0469 L6.33789,3.0469 L8.59375,9.47266 L4.02344,9.47266 L6.2793,3.0469 Z" id="Shape"></path>
                </g>
                <rect id="Rectangle" fill="#00AEEF" fill-rule="nonzero" opacity="0.4" x="791.617" y="1919" width="3" height="14"></rect>
                <text id="Margins" fill="#000000" font-family="Helvetica-Bold, Helvetica" font-size="13" font-weight="bold">
                    <tspan x="776" y="1953">Margins</tspan>
                </text>
                <text id="Leading-and-trailing-margins-on-the-left-and-right-side-of-each-symbol" fill="#000000" font-family="Helvetica" font-size="13" font-weight="normal">
                    <tspan x="776" y="1971">Leading and trailing margins on the left and right side of each symbol</tspan>
                </text>
                <text id="can-be-adjusted-by-modifying-the-width-of-the-blue-rectangles." fill="#000000" font-family="Helvetica" font-size="13" font-weight="normal">
                    <tspan x="776" y="1989">can be adjusted by modifying the width of the blue rectangles.</tspan>
                </text>
                <text id="Modifications-are-automatically-applied-proportionally-to-all" fill="#000000" font-family="Helvetica" font-size="13" font-weight="normal">
                    <tspan x="776" y="2007">Modifications are automatically applied proportionally to all</tspan>
                </text>
                <text id="scales-and-weights." fill="#000000" font-family="Helvetica" font-size="13" font-weight="normal">
                    <tspan x="776" y="2025">scales and weights.</tspan>
                </text>
                <g id="Group" transform="translate(1291.000000, 1915.000000)" fill="#000000" fill-rule="nonzero">
                    <path d="M0.83203,21.11523 L2.375,22.6582 C3.22461,23.48828 4.19141,23.41992 5.06055,22.46289 L15.2754,11.33984 C15.7051,11.63281 16.0957,11.62305 16.5645,11.52539 L17.6094,11.31055 L18.3027,12.00391 L18.2539,12.52148 C18.1855,13.04883 18.3516,13.46875 18.8496,13.9668 L19.6602,14.77734 C20.168,15.28516 20.8223,15.31445 21.3008,14.83594 L24.5527,11.58398 C25.0312,11.10547 25.0117,10.45117 24.5039,9.94336 L23.6836,9.12305 C23.1855,8.625 22.7754,8.44922 22.2383,8.52734 L21.7109,8.58594 L21.0566,7.9219 L21.3398,6.7793 C21.4863,6.2129 21.3398,5.7441 20.7148,5.1387 L18.3027,2.7461 C14.7578,-0.7793 10.2266,-0.6719 7.11133,2.4629 C6.69141,2.8926 6.64258,3.4785 6.91602,3.9082 C7.15039,4.2793 7.62891,4.5039 8.2734,4.3379 C9.7871,3.957 11.3008,4.0742 12.7852,5.0801 L12.1602,6.6621 C11.9258,7.248 11.9453,7.7266 12.1797,8.16602 L1.01758,18.439453 C0.08008,19.30859 -0.02734,20.25586 0.83203,21.11523 Z M8.6738,2.8535 C11.3398,0.8613 14.6504,1.1738 17.0527,3.5859 L19.6797,6.1934 C19.9141,6.4277 19.9434,6.6133 19.8848,6.9062 L19.5039,8.46875 L21.0762,10.04102 L22.043,9.95312 C22.3262,9.92383 22.4141,9.94336 22.6387,10.16797 L23.2637,10.79297 L20.5098,13.53711 L19.8848,12.92188 C19.6602,12.69727 19.6406,12.59961 19.6699,12.31641 L19.7578,11.35938 L18.1953,9.79688 L16.5742,10.10938 C16.291,10.16797 16.1445,10.16797 15.9102,9.92383 L13.7324,7.7461 C13.5078,7.5117 13.4785,7.375 13.6055,7.0527 L14.5527,4.7773 C12.9512,3.2441 10.8418,2.3945 8.8008,3.0488 C8.7129,3.0781 8.6445,3.0586 8.6152,3.0195 C8.5859,2.9707 8.5859,2.9219 8.6738,2.8535 Z M2.10156,20.41211 C1.61328,19.91406 1.78906,19.61133 2.12109,19.30859 L13.0781,9.19141 L14.3086,10.42188 L4.15234,21.34961 C3.84961,21.68164 3.46875,21.7793 3.06836,21.37891 L2.10156,20.41211 Z" id="Shape"></path>
                </g>
                <text id="Exporting" fill="#000000" font-family="Helvetica-Bold, Helvetica" font-size="13" font-weight="bold">
                    <tspan x="1289" y="1953">Exporting</tspan>
                </text>
                <text id="Symbols-should-be-outlined-when-exporting-to-ensure-the" fill="#000000" font-family="Helvetica" font-size="13" font-weight="normal">
                    <tspan x="1289" y="1971">Symbols should be outlined when exporting to ensure the</tspan>
                </text>
                <text id="design-is-preserved-when-submitting-to-Xcode." fill="#000000" font-family="Helvetica" font-size="13" font-weight="normal">
                    <tspan x="1289" y="1989">design is preserved when submitting to Xcode.</tspan>
                </text>
                <text id="Template-v.1.0" fill="#000000" font-family="Helvetica" font-size="13" font-weight="normal">
                    <tspan x="2952" y="1933">Template v.1.0</tspan>
                </text>
                <text id="Generated-from-circle" fill="#000000" font-family="Helvetica" font-size="13" font-weight="normal">
                    <tspan x="2911" y="1951">Generated from circle</tspan>
                </text>
                <text id="Typeset-at-100-points" fill="#000000" font-family="Helvetica" font-size="13" font-weight="normal">
                    <tspan x="2912" y="1969">Typeset at 100 points</tspan>
                </text>
                <text id="Small" fill="#000000" font-family="Helvetica" font-size="13" font-weight="normal">
                    <tspan x="263" y="726">Small</tspan>
                </text>
                <text id="Medium" fill="#000000" font-family="Helvetica" font-size="13" font-weight="normal">
                    <tspan x="263" y="1156">Medium</tspan>
                </text>
                <text id="Large" fill="#000000" font-family="Helvetica" font-size="13" font-weight="normal">
                    <tspan x="263" y="1586">Large</tspan>
                </text>
            </g>
            <g id="Guides" transform="translate(263.000000, 625.000000)">
                <g id="H-reference" transform="translate(76.000000, 0.000000)" fill="#27AAE1" fill-rule="nonzero">
                    <path d="M54.9316,71 L57.666,71 L30.5664,0.541 L28.0762,0.541 L0.976562,71 L3.66211,71 L12.9395,46.5371 L45.7031,46.5371 L54.9316,71 Z M29.1992,3.9102 L29.4434,3.9102 L44.8242,44.291 L13.8184,44.291 L29.1992,3.9102 Z" id="Shape"></path>
                </g>
                <line x1="0" y1="71" x2="2773" y2="71" id="Baseline-S" stroke="#27AAE1" stroke-width="0.577"></line>
                <line x1="0" y1="0.541" x2="2773" y2="0.541" id="Capline-S" stroke="#27AAE1" stroke-width="0.577"></line>
                <g id="H-reference" transform="translate(76.000000, 430.000000)" fill="#27AAE1" fill-rule="nonzero">
                    <path d="M54.9316,71 L57.666,71 L30.5664,0.541 L28.0762,0.541 L0.976562,71 L3.66211,71 L12.9395,46.5371 L45.7031,46.5371 L54.9316,71 Z M29.1992,3.9102 L29.4434,3.9102 L44.8242,44.291 L13.8184,44.291 L29.1992,3.9102 Z" id="Shape"></path>
                </g>
                <line x1="0" y1="501" x2="2773" y2="501" id="Baseline-M" stroke="#27AAE1" stroke-width="0.577"></line>
                <line x1="0" y1="430.54" x2="2773" y2="430.54" id="Capline-M" stroke="#27AAE1" stroke-width="0.577"></line>
                <g id="H-reference" transform="translate(76.000000, 860.000000)" fill="#27AAE1" fill-rule="nonzero">
                    <path d="M54.9316,71 L57.666,71 L30.5664,0.541 L28.0762,0.541 L0.976562,71 L3.66211,71 L12.9395,46.5371 L45.7031,46.5371 L54.9316,71 Z M29.1992,3.9102 L29.4434,3.9102 L44.8242,44.291 L13.8184,44.291 L29.1992,3.9102 Z" id="Shape"></path>
                </g>
                <line x1="0" y1="931" x2="2773" y2="931" id="Baseline-L" stroke="#27AAE1" stroke-width="0.577"></line>
                <line x1="0" y1="860.54" x2="2773" y2="860.54" id="Capline-L" stroke="#27AAE1" stroke-width="0.577"></line>
                <rect id="left-margin" fill="#00AEEF" fill-rule="nonzero" opacity="0.4" x="1128.3" y="405.79" width="8.74023" height="119.336"></rect>
                <rect id="right-margin" fill="#00AEEF" fill-rule="nonzero" opacity="0.4" x="1236.65" y="405.79" width="8.74023" height="119.336"></rect>
            </g>
            <g id="Symbols" transform="translate(1399.000000, 1040.000000)" fill="#000000" fill-rule="nonzero">
                <g id="Regular-M" transform="translate(0.300000, 0.000000)">
                    <!-- <path d="M50.5449,100.5508 C77.791,100.5508 100.35,77.99219 100.35,50.7461 C100.35,23.5488 77.7422,0.9414 50.4961,0.9414 C23.2988,0.9414 0.74023,23.5488 0.74023,50.7461 C0.74023,77.99219 23.3477,100.5508 50.5449,100.5508 Z M50.1551,92.0078 C27.1082,92.0078 8.7,73.5508 8.7,50.5039 C8.7,27.5058 27.0594,9 50.1063,9 C73.1532,9 91.6102,27.5058 91.6593938,50.5039 C91.7082,73.5508 73.202,92.0078 50.1551,92.0078 Z" id="Shape"></path> -->
                    <path d="M27.9066792,43.880115 C27.6026719,43.6001159 27.3746664,43.4001165 27.1586612,43.1881171 C26.9346558,42.9681178 26.6986501,42.7561185 26.5186457,42.5001193 C26.4266435,42.3721197 26.3666421,42.0721206 26.4346437,41.9881209 C26.6066479,41.7801215 26.8226531,41.5241223 27.1466609,41.7081217 C27.3146649,41.8081214 27.4666686,41.9241211 27.6666734,42.0121208 C27.3066647,41.612122 27.4146673,41.1321235 27.3946669,40.660125 C27.3826666,40.3041261 27.0946596,40.0681268 26.8666541,39.8281276 C26.4986453,39.4401288 26.5626468,38.8161307 27.0146577,38.7401309 C27.2626637,38.7001311 27.6346726,38.9081304 27.814677,39.1321297 C28.0826834,39.4841286 28.2226868,39.9521272 28.4426921,40.3561259 C28.5306942,40.5241254 28.6826979,40.652125 28.8027008,40.8001245 C28.8707024,40.7201248 29.0027056,40.6241251 28.9947054,40.5521253 C28.9547045,40.2041264 28.8747025,39.8641274 28.7987007,39.5241285 C28.6786978,38.9641302 28.6226965,38.4121319 28.9507044,37.9001335 C28.9747049,37.8681336 28.9987055,37.8081338 28.9867052,37.7801339 L28.6346967,37.0081363 C28.5866956,36.9041366 28.4746929,36.7481371 28.5026936,36.7081372 C28.6066961,36.5561377 28.7426994,36.3881382 28.894703,36.3361384 C29.2387113,36.2241387 29.4427162,36.5121378 29.5787195,36.788137 C29.766724,37.1641358 29.8987272,37.5761345 30.0587311,37.9681333 C30.098732,38.076133 30.1547334,38.1761327 30.2307352,38.2721324 C30.1627336,37.9401334 30.1227326,37.5921345 30.0187301,37.2721355 C29.8427259,36.7401371 29.6107203,36.2281387 29.4267158,35.6961404 C29.162815,34.9561925 28.9147524,34.2106913 28.6826979,33.4601473 C28.4826931,32.8121493 28.3346895,32.1441514 28.1546852,31.4881534 C27.8546779,30.3921568 27.5386703,29.3001602 27.2546635,28.2001636 C26.986657,27.1681668 26.7106504,26.13217 26.5146456,25.0801732 C26.3786424,24.3681755 26.3946428,23.6201778 26.3026405,22.89618 C26.2306388,22.3041818 26.5746471,21.9841828 26.9306557,21.6921837 C27.2226627,21.4521845 27.5146697,21.1721854 27.9586805,21.2121852 C28.2066864,21.2321852 28.4626926,21.0241858 28.7226989,21.0041859 C29.3987152,20.956186 29.8827268,21.3241849 30.2067346,21.944183 C30.5187422,22.5241812 30.8707506,23.0841794 31.1107564,23.7001775 C31.5627673,24.852174 31.9547768,26.0321703 32.3507863,27.2121666 C32.546791,27.7761649 32.710795,28.3561631 32.8507984,28.9401613 C33.0108022,29.5961593 33.1388053,30.2601572 33.2468079,30.9241551 C33.3788111,31.7161527 33.4948139,32.5121502 33.582816,33.3121477 C33.6508177,33.9281458 33.662818,34.5521439 33.7028189,35.168142 L33.7588203,36.1841388 C34.1668301,36.0241393 34.5388391,35.8641398 34.9188482,35.7361402 C35.3828594,35.5761407 35.8668711,35.4721411 36.3228821,35.2841416 C38.018923,34.5881438 39.7029636,33.868146 41.3910042,33.1601482 C42.0070191,32.900149 42.6150337,32.6201499 43.2390488,32.3921506 C44.243073,32.0241517 45.2470972,31.6401529 46.275122,31.3641538 C47.5871536,31.0041549 48.9231858,30.7641556 50.2392175,30.4401566 C50.8232316,30.2961571 51.3832451,30.0521578 51.959259,29.8641584 C52.6792763,29.6241592 53.4152941,29.4121598 54.1393115,29.1681606 C54.7633266,28.9601612 55.3713412,28.712162 55.9953563,28.5041626 C56.6793728,28.2801633 57.3713895,28.080164 58.0634061,27.8761646 C58.6714208,27.6921652 59.2834355,27.5121657 59.8954503,27.3441662 C60.3194605,27.2321666 60.7474708,27.1441669 61.1754811,27.0561671 C61.9114989,26.8961676 62.6475166,26.6801683 63.3955347,26.6161685 C64.155553,26.5481687 64.9235715,26.6401684 65.69159,26.6601684 C65.6995902,26.6601684 65.7075904,26.6681683 65.7155906,26.6641683 C66.9716209,26.5841686 68.1316488,27.088167 69.3156774,27.424166 C70.0636954,27.6321653 70.8037132,27.8921645 71.5437311,28.1441638 C72.3117496,28.4121629 73.0837682,28.6721621 73.8357863,28.9841612 C74.3557989,29.2001605 74.859811,29.4721596 75.3438227,29.7721587 C75.5478276,29.9001583 75.7038314,30.1401576 75.855835,30.3561569 C76.0958408,30.7081558 76.3158461,31.0841546 76.5358514,31.4481535 C76.7598568,31.8161524 77.1078652,31.7361526 77.4278729,31.7481526 C78.7719053,31.8001524 80.1199378,31.8281523 81.4679703,31.9001521 C81.787978,31.9161521 82.1159859,32.0201517 82.407993,32.1561513 C82.5439962,32.2201511 82.6079978,32.4761503 82.7,32.6441498 C82.5559965,32.7241496 82.407993,32.8721491 82.2639895,32.8721491 C81.4919709,32.8721491 80.7639533,33.0441486 80.0519362,33.3761475 C79.3545914,33.6952895 78.6446647,33.9861915 77.9238849,34.2481448 C76.6612264,34.7210642 75.5201023,35.4699493 74.5838044,36.4401381 C73.8277861,37.2081357 73.0117665,37.9121335 72.2957492,38.720131 C71.455729,39.672128 70.7157111,40.7201248 69.8956914,41.6961218 C69.383679,42.3121199 68.8076651,42.8681181 68.2676521,43.4601163 C68.0116459,43.7441154 67.7796403,44.0521145 67.5476348,44.3561135 C67.1716257,44.852112 66.8076169,45.3561104 66.439608,45.8561089 C65.6155882,46.9801054 64.8075687,48.1241019 63.9675485,49.2360984 C63.407535,49.9800961 62.7995203,50.6880939 62.2195063,51.4160917 C62.0675027,51.6080911 61.9354995,51.8160904 61.8034963,52.0240898 C61.513293,52.4597018 61.0782572,52.7785304 60.5754667,52.924087 C60.0554542,53.1120864 59.5754426,53.4600853 59.0874308,53.7440844 C58.7354223,53.9440838 58.3874139,54.1640831 58.0354055,54.3680825 C57.7153977,54.5560819 57.4033902,54.7840812 57.0593819,54.9040808 C56.3195761,55.1776174 55.563422,55.4047246 54.7953274,55.5840787 C53.743302,55.812078 52.6752762,55.9840775 51.6072505,56.1200771 C51.0752377,56.1880769 50.5352247,56.0600773 49.9992117,56.2840766 C49.6192026,56.4440761 49.1671917,56.3880763 48.7751822,56.5280758 C48.3631723,56.6760754 47.9831631,56.9400745 47.5991539,57.1680738 C47.5351523,57.2080737 47.5151519,57.3280733 47.4311498,57.4960728 C48.1911682,57.4960728 48.8831848,57.4680729 49.5712014,57.5080728 C50.091214,57.5400727 50.6072264,57.6840722 51.1272389,57.7360721 C51.7472539,57.8000719 52.375269,57.8360718 52.9992841,57.8480717 C53.8233039,57.8680717 54.6513239,57.8560717 55.4753437,57.8600717 C56.107359,57.8640717 56.7473744,57.8000719 57.3713895,57.8960716 C57.9794041,57.9880713 58.4754161,57.752072 59.011429,57.5480727 C59.8274487,57.2360736 60.6634688,56.9720744 61.4954889,56.7120752 C61.6598634,56.6721619 61.8328172,56.6876289 61.9875007,56.7560751 C62.8155207,57.108074 63.6315404,57.4880728 64.4595603,57.8360718 C64.8475697,58.0040712 65.2595796,58.1160709 65.651589,58.2720704 C66.0755993,58.4320699 66.1556012,58.5920694 65.979597,58.9960682 C65.5115857,58.8160687 65.0435744,58.6280693 64.5675629,58.4520699 C63.8155448,58.1720707 63.0635267,57.8840716 62.3035083,57.6400724 C62.0630478,57.5754747 61.8105313,57.5699854 61.5674906,57.6240724 C61.1634809,57.7000722 60.7674713,57.8320718 60.3274607,58.0280712 L62.0195015,58.5840694 L64.0595507,59.2600674 C64.1449186,59.287128 64.2340043,59.3006254 64.323557,59.3000672 C65.5715871,60.1000648 67.019622,60.5120635 68.1676497,61.5200604 L68.139649,61.63206 C68.0396466,61.6120601 67.9396442,61.6040601 67.8396418,61.5680602 C67.2275989,61.3396605 66.6169069,61.1076572 66.0075976,60.8720624 C65.5395863,60.6880629 65.0795753,60.4720636 64.5995637,60.3200641 C64.0535563,60.1550953 63.5010901,60.012312 62.9435238,59.8920654 C62.4435117,59.7760658 61.9434997,59.6560661 61.4394875,59.6000663 C61.0074771,59.5520664 60.5714666,59.5880663 60.1354561,59.5880663 L60.0874549,59.8040657 C60.6474684,60.1320647 61.2194822,60.4480637 61.7754956,60.7920626 C62.0435021,60.9600621 62.287508,61.1720614 62.539514,61.3680608 C62.5875152,61.4040607 62.619516,61.4760605 62.6675171,61.4920604 C63.3715341,61.7600596 63.4755366,62.4960573 63.7115423,63.1120554 C63.8715461,63.5200542 63.9715485,63.9560528 64.0635508,64.3920515 C64.0955515,64.5200511 64.0155496,64.6800506 63.9835488,64.8240501 C63.8755462,64.7880502 63.7635435,64.7720503 63.6635411,64.7160504 C63.1635291,64.4400513 63.2915322,63.8480531 63.1275282,63.4040545 C62.8754358,62.6789768 62.4096457,62.0472487 61.791496,61.5920601 C61.751495,61.5640602 61.6914936,61.5280603 61.6514926,61.5400603 C61.1994817,61.6680599 60.8994745,61.3360609 60.547466,61.1400615 C59.9324951,60.7813313 59.2981805,60.4568381 58.6474202,60.1680645 C58.4754161,60.0960648 58.1714087,60.2480643 57.9874043,60.3840639 C57.5473937,60.7120629 57.0993829,61.0480618 56.7433743,61.4680605 C56.483368,61.7800595 56.3593651,62.2280582 56.1873609,62.6200569 C56.1313596,62.7480565 56.1193593,62.9000561 56.067358,63.0320557 C55.8206479,63.5827953 55.9489907,64.2293044 56.3873657,64.6440507 C56.4873681,64.7480504 56.5393694,64.9040499 56.6393718,65.0120495 C56.8593771,65.2640488 57.1273836,65.4720481 57.3193882,65.7440473 C57.4713919,65.9600466 57.5433936,66.2480457 57.6393959,66.5080449 C57.6513962,66.5400448 57.603395,66.6360445 57.5833946,66.6360445 C57.5233931,66.6360445 57.4393911,66.6240445 57.4073903,66.5800447 C56.9073783,65.9480466 56.2633627,65.492048 55.8073517,64.7800503 C55.4610112,64.2753131 55.2883136,63.6715901 55.3153399,63.0600556 C55.3353404,62.3120579 55.2993395,61.5680602 55.2833391,60.8200625 C55.279339,60.4440637 55.3313403,60.1000648 55.651348,59.8560655 C55.7073493,59.8160656 55.7073493,59.6320662 55.6793487,59.5320665 C55.6713485,59.4840667 55.527345,59.4320668 55.4593434,59.4520668 C54.7753269,59.6520661 54.1073108,59.4920666 53.4312945,59.380067 C52.9072818,59.2920673 52.3672688,59.3000672 51.8312559,59.3080672 C51.4992479,59.3080672 51.1632398,59.4120669 50.8272317,59.4200669 C50.5152242,59.4280668 50.1992166,59.3160672 49.8912091,59.3400671 C49.2071927,59.4080669 48.5271763,59.5320665 47.8431598,59.6200662 C47.1831439,59.700066 46.523128,59.7480658 45.863112,59.8360656 C45.2928149,59.9098781 44.7138667,59.799138 44.2110722,59.5200665 C43.9350656,59.376067 43.8190628,59.2000675 43.871064,58.8320687 C43.9030648,58.5800695 43.7830619,58.3040703 43.7110602,57.9240715 C43.6030576,58.1120709 43.5470562,58.1800707 43.5190555,58.2560705 C43.1830474,59.2240675 43.1310462,60.2160644 43.2750497,61.2280613 C43.3190507,61.5480603 43.3110505,61.8800592 43.3390512,62.2040582 C43.4190531,63.0760555 43.5190555,63.9480528 43.5910573,64.8200501 C43.6310582,65.3400485 43.5950574,65.8720469 43.663059,66.3880453 C43.7710616,67.2400426 43.8950646,68.09604 44.0870692,68.9320374 C44.1870716,69.364036 44.4470779,69.7560348 44.6310823,70.1720335 C44.7270847,70.3840329 44.7870861,70.6280321 44.9110891,70.8240315 C45.0110915,70.984031 45.1630952,71.1760304 45.3270991,71.2160303 C46.2271208,71.4440296 46.8671362,72.0240278 47.4551504,72.7880254 C47.8711604,73.3280238 48.0711653,73.9280219 48.3031709,74.54802 C48.6271787,75.4160173 48.5191761,76.3080145 48.4591746,77.1960118 C48.4431742,77.4200111 48.4111735,77.6480104 48.4111735,77.8760097 C48.4071734,78.1400089 48.3271714,78.3160083 48.0511648,78.3240083 C47.7791582,78.3280083 47.6271546,78.1920087 47.6191544,77.8840097 C47.6071541,77.0680122 47.6111542,76.2480147 47.5711532,75.4320173 C47.5459971,75.2272217 47.4547094,75.0362248 47.3111469,74.8880189 C46.8951369,74.4560203 46.443126,74.0640215 46.0231159,73.6400228 C45.611106,73.2240241 45.2230966,72.7840255 44.7470851,72.3880267 C44.8110867,72.7280256 44.8190869,73.0920245 44.94709,73.3960236 C45.4711026,74.6680196 46.0871174,75.9000158 46.5631289,77.1960118 C46.8231352,77.9040096 46.8871367,78.7040071 46.9951393,79.4720047 C47.0151398,79.6280043 46.8271353,79.8160037 46.731133,79.9920031 C46.5911296,79.8520036 46.3791245,79.7440039 46.319123,79.5720044 C46.1991201,79.2200055 46.1791197,78.8280067 46.0711171,78.4640079 C45.8311113,77.6640103 45.6151061,76.8560128 45.2990984,76.0920152 C45.115094,75.6520166 44.7230846,75.3200176 44.491079,74.9000189 C44.2270726,74.4280204 44.035068,73.912022 43.8110626,73.4160235 C43.7910621,73.3640237 43.7550612,73.3200238 43.6830595,73.2160241 C43.7390608,73.568023 43.7750617,73.8520221 43.827063,74.1280213 C43.9990671,75.0200185 44.0150675,75.9560156 44.5070794,76.7560131 C44.5870813,76.8800128 44.5550805,77.0920121 44.5550805,77.2640116 L44.5590806,80.7600007 C44.5590806,80.8280005 44.5430802,80.9000003 44.5270798,81 C44.243073,80.9160003 43.9990671,80.8240005 44.0190676,80.4400017 L44.0590686,79.7440039 L44.0590686,79.6400042 C43.9790666,79.2640054 43.911065,78.8800066 43.8110626,78.5160077 C43.5950574,77.7560101 43.3510515,77.0000124 43.1310462,76.2360148 C42.9973366,75.7649203 42.8772835,75.2900565 42.7710375,74.8120192 C42.6463788,74.2506081 42.5343478,73.6864675 42.4350294,73.1200244 C42.3950284,72.8920251 42.4030286,72.6520259 42.3950284,72.4200266 C42.3870283,72.3160269 42.4230291,72.1800273 42.375028,72.1240275 C42.3270268,72.0640277 42.1950236,72.0680277 42.1030214,72.0720277 C41.8030142,72.0920276 41.5030069,72.1240275 41.1989996,72.1520274 C41.1189977,72.1600274 41.0189953,72.1480274 40.9589938,72.1920273 C40.38698,72.5840261 39.8069661,72.9600249 39.2749532,73.4040235 C39.0669482,73.576023 38.9789461,73.9160219 38.8349426,74.1800211 C38.5869366,74.6480197 38.2909295,75.0920183 38.0909247,75.5840168 C37.9269207,76.0000155 37.8869198,76.472014 37.7589167,76.9120127 C37.6776706,77.1586973 37.5703971,77.3960335 37.438909,77.6200105 C37.4029081,77.6880103 37.2629047,77.76001 37.2229038,77.7320101 C37.1549021,77.6880103 37.0829004,77.5600107 37.0949007,77.4800109 C37.190903,76.8600128 37.2629047,76.2280148 37.4229086,75.6280166 C37.7229158,74.4720202 38.0389234,73.3240238 38.4229327,72.2000273 C38.5629361,71.7960285 38.9309449,71.4920295 39.1469501,71.1080306 C39.5389596,70.4240328 40.1629746,70.3080331 40.8109903,70.2280334 C40.9114717,70.2232257 41.011278,70.2467905 41.0989972,70.2960332 C41.339003,70.4160328 41.4870066,70.3000331 41.6990117,70.1520336 C42.2910259,69.7400349 42.2470249,69.2440364 42.1070215,68.5920384 C41.9710182,67.9640404 42.04302,67.2920425 41.9950188,66.6400445 C41.919017,65.6400476 41.8750159,64.6400507 41.7150121,63.6560537 C41.5350077,62.5120573 41.2510009,61.3880608 40.9949947,60.2560643 C40.8549913,59.6560661 40.6189856,59.0720679 40.550984,58.4640698 C40.510983,58.1200709 40.7029877,57.7360721 40.8189905,57.3840732 C40.8589914,57.2640735 41.0269955,57.1840738 41.0389958,57.0680741 C41.0549961,56.9560745 40.9789943,56.7480751 40.8949923,56.7160752 C40.3069781,56.4880759 39.7109637,56.1800769 39.098949,56.1160771 C38.4469333,56.0560773 38.0589239,55.5640788 37.5389114,55.2960796 C36.7643121,54.9010673 36.0547444,54.3898148 35.4348607,53.7800843 C34.6869293,53.0282185 33.8291246,52.3943235 32.8907993,51.9000902 C31.9387764,51.4040917 30.9907535,50.8920933 30.0187301,50.4560946 C29.1071697,50.0535965 28.0990957,49.9216895 27.1146601,50.0760958 C26.5586467,50.1520956 25.9826328,50.0360959 25.4186192,49.9680961 C25.0622144,49.9409351 24.7137946,49.8487487 24.3905944,49.696097 C24.1505887,49.5680974 23.9785845,49.2720983 23.79058,49.036099 C23.5625745,48.7560999 23.3905703,48.3761011 23.1145637,48.1881017 C22.4865485,47.764103 22.6425523,46.4841069 23.1145637,46.0641082 C23.5145733,45.7041094 23.9225832,45.3241105 24.3825943,45.0641113 C24.8666059,44.7921122 25.4186192,44.6521126 25.9386318,44.4481132 C26.1066358,44.3801135 26.2666397,44.2681138 26.4426439,44.2241139 C26.8146529,44.1241142 27.194662,44.0601144 27.566671,43.9801147 L27.9066792,43.876115 L27.9066792,43.880115 Z M42.7,61 C43.284,60.2 43.78,59.36 44.476,58.608 C45.616,57.372 46.836,56.168 48.116,55 C48.888,54.288 49.828,53.664 50.7,53 L46.38,53.808 C46.32,53.82 46.276,53.876 46.212,53.9 C41.912,55.412 43.528,58.5 42.7,61 L42.7,61 Z" id="Shape"></path>
                </g>
            </g>
        </g>
    </g>
</svg>