<?xml version="1.0" encoding="UTF-8"?>
<!--Generator: Apple Native CoreSVG 341-->
<!DOCTYPE svg
PUBLIC "-//W3C//DTD SVG 1.1//EN"
       "http://www.w3.org/Graphics/SVG/1.1/DTD/svg11.dtd">
<svg version="1.1" xmlns="http://www.w3.org/2000/svg" xmlns:xlink="http://www.w3.org/1999/xlink" viewBox="0 0 3300 2200">
 <!--glyph: "", point size: 100.0, font version: "20.0d10e1", template writer version: "138.0.0"-->
 <style>.monochrome-0 {-sfsymbols-motion-group:1;-sfsymbols-layer-tags:-42fa8896df0a4cee}
.monochrome-1 {-sfsymbols-motion-group:0;-sfsymbols-layer-tags:-42fa8896df0a4cee}

.multicolor-0:tintColor {-sfsymbols-motion-group:1;-sfsymbols-layer-tags:-42fa8896df0a4cee}
.multicolor-1:tintColor {-sfsymbols-motion-group:0;-sfsymbols-layer-tags:-42fa8896df0a4cee}

.hierarchical-0:primary {-sfsymbols-motion-group:1;-sfsymbols-layer-tags:-42fa8896df0a4cee}
.hierarchical-1:tertiary {-sfsymbols-motion-group:0;-sfsymbols-layer-tags:-42fa8896df0a4cee}

.SFSymbolsPreviewWireframe {fill:none;opacity:1.0;stroke:black;stroke-width:0.5}
</style>
 <g id="Notes">
  <rect height="2200" id="artboard" style="fill:white;opacity:1" width="3300" x="0" y="0"/>
  <line style="fill:none;stroke:black;opacity:1;stroke-width:0.5;" x1="263" x2="3036" y1="292" y2="292"/>
  <text style="stroke:none;fill:black;font-family:sans-serif;font-size:13;font-weight:bold;" transform="matrix(1 0 0 1 263 322)">Weight/Scale Variations</text>
  <text style="stroke:none;fill:black;font-family:sans-serif;font-size:13;text-anchor:middle;" transform="matrix(1 0 0 1 559.711 322)">Ultralight</text>
  <text style="stroke:none;fill:black;font-family:sans-serif;font-size:13;text-anchor:middle;" transform="matrix(1 0 0 1 856.422 322)">Thin</text>
  <text style="stroke:none;fill:black;font-family:sans-serif;font-size:13;text-anchor:middle;" transform="matrix(1 0 0 1 1153.13 322)">Light</text>
  <text style="stroke:none;fill:black;font-family:sans-serif;font-size:13;text-anchor:middle;" transform="matrix(1 0 0 1 1449.84 322)">Regular</text>
  <text style="stroke:none;fill:black;font-family:sans-serif;font-size:13;text-anchor:middle;" transform="matrix(1 0 0 1 1746.56 322)">Medium</text>
  <text style="stroke:none;fill:black;font-family:sans-serif;font-size:13;text-anchor:middle;" transform="matrix(1 0 0 1 2043.27 322)">Semibold</text>
  <text style="stroke:none;fill:black;font-family:sans-serif;font-size:13;text-anchor:middle;" transform="matrix(1 0 0 1 2339.98 322)">Bold</text>
  <text style="stroke:none;fill:black;font-family:sans-serif;font-size:13;text-anchor:middle;" transform="matrix(1 0 0 1 2636.69 322)">Heavy</text>
  <text style="stroke:none;fill:black;font-family:sans-serif;font-size:13;text-anchor:middle;" transform="matrix(1 0 0 1 2933.4 322)">Black</text>
  <line style="fill:none;stroke:black;opacity:1;stroke-width:0.5;" x1="263" x2="3036" y1="1903" y2="1903"/>
  <g transform="matrix(0.2 0 0 0.2 263 1933)">
   <path d="m46.2402 4.15039c21.7773 0 39.4531-17.627 39.4531-39.4043s-17.6758-39.4043-39.4531-39.4043c-21.7285 0-39.4043 17.627-39.4043 39.4043s17.6758 39.4043 39.4043 39.4043Zm0-7.42188c-17.6758 0-31.9336-14.3066-31.9336-31.9824s14.2578-31.9824 31.9336-31.9824 31.9824 14.3066 31.9824 31.9824-14.3066 31.9824-31.9824 31.9824Zm-17.9688-31.9824c0 2.14844 1.51367 3.61328 3.75977 3.61328h10.498v10.5957c0 2.19727 1.46484 3.71094 3.61328 3.71094 2.24609 0 3.71094-1.51367 3.71094-3.71094v-10.5957h10.5957c2.19727 0 3.71094-1.46484 3.71094-3.61328 0-2.19727-1.51367-3.71094-3.71094-3.71094h-10.5957v-10.5469c0-2.24609-1.46484-3.75977-3.71094-3.75977-2.14844 0-3.61328 1.51367-3.61328 3.75977v10.5469h-10.498c-2.24609 0-3.75977 1.51367-3.75977 3.71094Z"/>
  </g>
  <g transform="matrix(0.2 0 0 0.2 281.506 1933)">
   <path d="m58.5449 14.5508c27.4902 0 49.8047-22.3145 49.8047-49.8047s-22.3145-49.8047-49.8047-49.8047-49.8047 22.3145-49.8047 49.8047 22.3145 49.8047 49.8047 49.8047Zm0-8.30078c-22.9492 0-41.5039-18.5547-41.5039-41.5039s18.5547-41.5039 41.5039-41.5039 41.5039 18.5547 41.5039 41.5039-18.5547 41.5039-41.5039 41.5039Zm-22.6562-41.5039c0 2.39258 1.66016 4.00391 4.15039 4.00391h14.3555v14.4043c0 2.44141 1.66016 4.15039 4.05273 4.15039 2.44141 0 4.15039-1.66016 4.15039-4.15039v-14.4043h14.4043c2.44141 0 4.15039-1.61133 4.15039-4.00391 0-2.44141-1.70898-4.15039-4.15039-4.15039h-14.4043v-14.3555c0-2.49023-1.70898-4.19922-4.15039-4.19922-2.39258 0-4.05273 1.70898-4.05273 4.19922v14.3555h-14.3555c-2.49023 0-4.15039 1.70898-4.15039 4.15039Z"/>
  </g>
  <g transform="matrix(0.2 0 0 0.2 304.924 1933)">
   <path d="m74.8535 28.3203c35.1074 0 63.623-28.4668 63.623-63.5742s-28.5156-63.623-63.623-63.623-63.5742 28.5156-63.5742 63.623 28.4668 63.5742 63.5742 63.5742Zm0-9.08203c-30.127 0-54.4922-24.3652-54.4922-54.4922s24.3652-54.4922 54.4922-54.4922 54.4922 24.3652 54.4922 54.4922-24.3652 54.4922-54.4922 54.4922Zm-28.8574-54.4922c0 2.58789 1.85547 4.39453 4.58984 4.39453h19.7266v19.7754c0 2.68555 1.85547 4.58984 4.44336 4.58984 2.68555 0 4.54102-1.85547 4.54102-4.58984v-19.7754h19.7754c2.68555 0 4.58984-1.80664 4.58984-4.39453 0-2.73438-1.85547-4.58984-4.58984-4.58984h-19.7754v-19.7266c0-2.73438-1.85547-4.63867-4.54102-4.63867-2.58789 0-4.44336 1.9043-4.44336 4.63867v19.7266h-19.7266c-2.73438 0-4.58984 1.85547-4.58984 4.58984Z"/>
  </g>
  <text style="stroke:none;fill:black;font-family:sans-serif;font-size:13;font-weight:bold;" transform="matrix(1 0 0 1 263 1953)">Design Variations</text>
  <text style="stroke:none;fill:black;font-family:sans-serif;font-size:13;" transform="matrix(1 0 0 1 263 1971)">Symbols are supported in up to nine weights and three scales.</text>
  <text style="stroke:none;fill:black;font-family:sans-serif;font-size:13;" transform="matrix(1 0 0 1 263 1989)">For optimal layout with text and other symbols, vertically align</text>
  <text style="stroke:none;fill:black;font-family:sans-serif;font-size:13;" transform="matrix(1 0 0 1 263 2007)">symbols with the adjacent text.</text>
  <line style="fill:none;stroke:#00AEEF;stroke-width:0.5;opacity:1.0;" x1="776" x2="776" y1="1919" y2="1933"/>
  <g transform="matrix(0.2 0 0 0.2 776 1933)">
   <path d="m16.5527 0.78125c2.58789 0 3.85742-0.976562 4.78516-3.71094l6.29883-17.2363h28.8086l6.29883 17.2363c0.927734 2.73438 2.19727 3.71094 4.73633 3.71094 2.58789 0 4.24805-1.5625 4.24805-4.00391 0-0.830078-0.146484-1.61133-0.537109-2.63672l-22.9004-60.9863c-1.12305-2.97852-3.125-4.49219-6.25-4.49219-3.02734 0-5.07812 1.46484-6.15234 4.44336l-22.9004 61.084c-0.390625 1.02539-0.537109 1.80664-0.537109 2.63672 0 2.44141 1.5625 3.95508 4.10156 3.95508Zm13.4766-28.3691 11.8652-32.8613h0.244141l11.8652 32.8613Z"/>
  </g>
  <line style="fill:none;stroke:#00AEEF;stroke-width:0.5;opacity:1.0;" x1="792.836" x2="792.836" y1="1919" y2="1933"/>
  <text style="stroke:none;fill:black;font-family:sans-serif;font-size:13;font-weight:bold;" transform="matrix(1 0 0 1 776 1953)">Margins</text>
  <text style="stroke:none;fill:black;font-family:sans-serif;font-size:13;" transform="matrix(1 0 0 1 776 1971)">Leading and trailing margins on the left and right side of each symbol</text>
  <text style="stroke:none;fill:black;font-family:sans-serif;font-size:13;" transform="matrix(1 0 0 1 776 1989)">can be adjusted by modifying the x-location of the margin guidelines.</text>
  <text style="stroke:none;fill:black;font-family:sans-serif;font-size:13;" transform="matrix(1 0 0 1 776 2007)">Modifications are automatically applied proportionally to all</text>
  <text style="stroke:none;fill:black;font-family:sans-serif;font-size:13;" transform="matrix(1 0 0 1 776 2025)">scales and weights.</text>
  <g transform="matrix(0.2 0 0 0.2 1289 1933)">
   <path d="m14.209 9.32617 8.49609 8.54492c4.29688 4.3457 9.22852 4.05273 13.8672-1.07422l53.4668-58.9355-4.83398-4.88281-53.0762 58.3984c-1.75781 2.00195-3.41797 2.49023-5.76172 0.146484l-5.85938-5.81055c-2.34375-2.29492-1.80664-4.00391 0.195312-5.81055l57.373-54.0039-4.88281-4.83398-57.959 54.4434c-4.93164 4.58984-5.32227 9.47266-1.02539 13.8184Zm32.0801-90.9668c-2.09961 2.05078-2.24609 4.93164-1.07422 6.88477 1.17188 1.80664 3.4668 2.97852 6.68945 2.14844 7.32422-1.70898 14.9414-2.00195 22.0703 2.68555l-2.92969 7.27539c-1.70898 4.15039-0.830078 7.08008 1.85547 9.81445l11.4746 11.5723c2.44141 2.44141 4.49219 2.53906 7.32422 2.05078l5.32227-0.976562 3.32031 3.36914-0.195312 2.7832c-0.195312 2.49023 0.439453 4.39453 2.88086 6.78711l3.80859 3.71094c2.39258 2.39258 5.46875 2.53906 7.8125 0.195312l14.5508-14.5996c2.34375-2.34375 2.24609-5.32227-0.146484-7.71484l-3.85742-3.80859c-2.39258-2.39258-4.24805-3.17383-6.64062-2.97852l-2.88086 0.244141-3.22266-3.17383 1.2207-5.61523c0.634766-2.83203-0.146484-5.0293-3.07617-7.95898l-10.9863-10.9375c-16.6992-16.6016-38.8672-16.2109-53.3203-1.75781Zm7.4707 1.85547c12.1582-8.88672 28.6133-7.37305 39.7461 3.75977l12.1582 12.0605c1.17188 1.17188 1.36719 2.09961 1.02539 3.80859l-1.61133 7.42188 7.51953 7.42188 4.93164-0.292969c1.26953-0.0488281 1.66016 0.0488281 2.63672 1.02539l2.88086 2.88086-12.207 12.207-2.88086-2.88086c-0.976562-0.976562-1.12305-1.36719-1.07422-2.68555l0.341797-4.88281-7.4707-7.42188-7.61719 1.26953c-1.61133 0.341797-2.34375 0.195312-3.56445-0.976562l-10.0098-10.0098c-1.26953-1.17188-1.41602-2.00195-0.634766-3.85742l4.39453-10.4492c-7.8125-7.27539-17.9688-10.4004-28.125-7.42188-0.78125 0.195312-1.07422-0.439453-0.439453-0.976562Z"/>
  </g>
  <text style="stroke:none;fill:black;font-family:sans-serif;font-size:13;font-weight:bold;" transform="matrix(1 0 0 1 1289 1953)">Exporting</text>
  <text style="stroke:none;fill:black;font-family:sans-serif;font-size:13;" transform="matrix(1 0 0 1 1289 1971)">Symbols should be outlined when exporting to ensure the</text>
  <text style="stroke:none;fill:black;font-family:sans-serif;font-size:13;" transform="matrix(1 0 0 1 1289 1989)">design is preserved when submitting to Xcode.</text>
  <text id="template-version" style="stroke:none;fill:black;font-family:sans-serif;font-size:13;text-anchor:end;" transform="matrix(1 0 0 1 3036 1933)">Template v.6.0</text>
  <text style="stroke:none;fill:black;font-family:sans-serif;font-size:13;text-anchor:end;" transform="matrix(1 0 0 1 3036 1951)">Requires Xcode 16 or greater</text>
  <text id="descriptive-name" style="stroke:none;fill:black;font-family:sans-serif;font-size:13;text-anchor:end;" transform="matrix(1 0 0 1 3036 1969)">Generated from filtervogelgruppe-8</text>
  <text style="stroke:none;fill:black;font-family:sans-serif;font-size:13;text-anchor:end;" transform="matrix(1 0 0 1 3036 1987)">Typeset at 100.0 points</text>
  <text style="stroke:none;fill:black;font-family:sans-serif;font-size:13;" transform="matrix(1 0 0 1 263 726)">Small</text>
  <text style="stroke:none;fill:black;font-family:sans-serif;font-size:13;" transform="matrix(1 0 0 1 263 1156)">Medium</text>
  <text style="stroke:none;fill:black;font-family:sans-serif;font-size:13;" transform="matrix(1 0 0 1 263 1586)">Large</text>
 </g>
 <g id="Guides">
  <g id="H-reference" style="fill:#27AAE1;stroke:none;" transform="matrix(1 0 0 1 339 696)">
   <path d="M0.993654 0L3.63775 0L29.3281-67.1323L30.0303-67.1323L30.0303-70.459L28.1226-70.459ZM11.6885-24.4799L46.9815-24.4799L46.2315-26.7285L12.4385-26.7285ZM55.1196 0L57.7637 0L30.6382-70.459L29.4326-70.459L29.4326-67.1323Z"/>
  </g>
  <line id="Baseline-S" style="fill:none;stroke:#27AAE1;opacity:1;stroke-width:0.5;" x1="263" x2="3036" y1="696" y2="696"/>
  <line id="Capline-S" style="fill:none;stroke:#27AAE1;opacity:1;stroke-width:0.5;" x1="263" x2="3036" y1="625.541" y2="625.541"/>
  <g id="H-reference" style="fill:#27AAE1;stroke:none;" transform="matrix(1 0 0 1 339 1126)">
   <path d="M0.993654 0L3.63775 0L29.3281-67.1323L30.0303-67.1323L30.0303-70.459L28.1226-70.459ZM11.6885-24.4799L46.9815-24.4799L46.2315-26.7285L12.4385-26.7285ZM55.1196 0L57.7637 0L30.6382-70.459L29.4326-70.459L29.4326-67.1323Z"/>
  </g>
  <line id="Baseline-M" style="fill:none;stroke:#27AAE1;opacity:1;stroke-width:0.5;" x1="263" x2="3036" y1="1126" y2="1126"/>
  <line id="Capline-M" style="fill:none;stroke:#27AAE1;opacity:1;stroke-width:0.5;" x1="263" x2="3036" y1="1055.54" y2="1055.54"/>
  <g id="H-reference" style="fill:#27AAE1;stroke:none;" transform="matrix(1 0 0 1 339 1556)">
   <path d="M0.993654 0L3.63775 0L29.3281-67.1323L30.0303-67.1323L30.0303-70.459L28.1226-70.459ZM11.6885-24.4799L46.9815-24.4799L46.2315-26.7285L12.4385-26.7285ZM55.1196 0L57.7637 0L30.6382-70.459L29.4326-70.459L29.4326-67.1323Z"/>
  </g>
  <line id="Baseline-L" style="fill:none;stroke:#27AAE1;opacity:1;stroke-width:0.5;" x1="263" x2="3036" y1="1556" y2="1556"/>
  <line id="Capline-L" style="fill:none;stroke:#27AAE1;opacity:1;stroke-width:0.5;" x1="263" x2="3036" y1="1485.54" y2="1485.54"/>
  <line id="right-margin-Black-S" style="fill:none;stroke:#00AEEF;stroke-width:0.5;opacity:1.0;" x1="2982.23" x2="2982.23" y1="600.785" y2="720.121"/>
  <line id="left-margin-Black-S" style="fill:none;stroke:#00AEEF;stroke-width:0.5;opacity:1.0;" x1="2884.57" x2="2884.57" y1="600.785" y2="720.121"/>
  <line id="right-margin-Regular-S" style="fill:none;stroke:#00AEEF;stroke-width:0.5;opacity:1.0;" x1="1496.11" x2="1496.11" y1="600.785" y2="720.121"/>
  <line id="left-margin-Regular-S" style="fill:none;stroke:#00AEEF;stroke-width:0.5;opacity:1.0;" x1="1403.58" x2="1403.58" y1="600.785" y2="720.121"/>
  <line id="right-margin-Ultralight-S" style="fill:none;stroke:#00AEEF;stroke-width:0.5;opacity:1.0;" x1="603.773" x2="603.773" y1="600.785" y2="720.121"/>
  <line id="left-margin-Ultralight-S" style="fill:none;stroke:#00AEEF;stroke-width:0.5;opacity:1.0;" x1="515.649" x2="515.649" y1="600.785" y2="720.121"/>
 </g>
 <g id="Symbols">
  <g id="Black-S" transform="matrix(1 0 0 1 2884.57 696)">
   <path class="monochrome-0 multicolor-0:tintColor hierarchical-0:primary SFSymbolsPreviewWireframe" d="M30.1566-31.6293C30.0553-31.7975 29.9338-31.9153 29.8967-32.0735C29.8191-32.4101 30.0654-32.7803 30.3354-32.7702C30.4164-32.7702 30.5042-32.7668 30.5886-32.7836C30.8957-32.8577 31.2096-32.9082 31.5099-33.0192C31.7867-33.1269 32.0466-33.312 32.3199-33.4399C32.5832-33.5644 32.8599-33.6486 33.1299-33.7697C33.481-33.9313 33.8286-34.1198 34.183-34.2779C34.3888-34.3722 34.6015-34.426 34.8141-34.5001L34.8478-34.5034L35.9042-34.8501C36.2215-34.9611 36.5387-35.0621 36.8492-35.2035C36.9403-35.2472 37.0416-35.4054 37.072-35.54C37.1289-35.8852 37.2808-36.2081 37.5107-36.4722C37.828-36.8021 38.0946-37.2127 38.395-37.5694C38.5536-37.7612 38.7325-37.9194 38.9113-38.0776C39.4851-38.5858 40.0521-39.0974 40.6326-39.5921C40.9701-39.8781 41.3346-40.1171 41.6755-40.3998C42.067-40.7263 42.4415-41.0965 42.8364-41.4128C43.3022-41.7898 43.7713-42.1532 44.2539-42.4763C44.5509-42.6749 44.8817-42.7556 45.1821-42.934C45.5061-43.1258 45.8301-43.3412 46.1271-43.6071C46.6266-44.0547 47.0991-44.5596 47.5952-45.0105C47.7977-45.1956 48.0407-45.2932 48.2567-45.4548C48.6549-45.7577 49.0431-46.0808 49.4379-46.3837C49.7349-46.6125 50.0454-46.8178 50.3391-47.0467C50.9466-47.5111 51.5338-48.0126 52.1515-48.4467C52.5092-48.6991 52.9041-48.8573 53.2855-49.0391C54.0043-49.3891 54.6692-49.8804 55.2936-50.4896C55.9855-51.1661 56.6976-51.7988 57.3861-52.4786C57.7033-52.7916 58.0003-53.1584 58.2838-53.5286C58.8542-54.2691 59.3976-55.0431 59.9714-55.7667C60.1536-55.9956 60.4-56.1201 60.6126-56.2951C60.8084-56.4465 61.0041-56.5879 61.1931-56.7562C61.5897-57.1332 62.0729-57.4071 62.6005-57.5538C63.2046-57.6985 63.802-57.8769 64.4095-57.988C64.6525-58.0317 64.909-57.9442 65.1587-57.9173C65.53-57.8769 65.9181-57.9173 66.2725-57.7827C66.8192-57.5774 67.3863-57.3956 67.8081-56.7562C68.1389-56.2581 68.527-55.834 68.8746-55.3528C69.2526-54.821 69.6239-54.2792 69.9715-53.7104C70.12-53.4647 70.201-53.1315 70.309-52.8354C70.3698-52.6772 70.4103-52.4988 70.4879-52.3574C70.5216-52.2901 70.6128-52.2666 70.6836-52.2464C70.9266-52.1791 71.1764-52.1353 71.4194-52.0546C72.0066-51.8526 72.5905-51.6406 73.1778-51.4319C73.549-51.2973 73.927-51.1728 74.2983-51.0281C74.3523-51.0112 74.4333-50.9069 74.43-50.8699C74.413-50.7824 74.3624-50.6781 74.305-50.6444C74.2105-50.5872 74.1025-50.5805 74.0013-50.5468C73.873-50.5064 73.7448-50.4559 73.6165-50.4189C73.4039-50.3583 73.1946-50.2843 72.982-50.2473C72.6108-50.18 72.2395-50.1396 71.8716-50.0857C71.3823-50.0117 70.8895-49.978 70.4069-49.8434C69.9816-49.7223 69.5361-49.6213 69.2155-49.103C68.9793-48.7227 68.6755-48.4097 68.473-47.9924C68.1524-47.3395 67.6968-46.8245 67.4875-46.0572C67.3728-45.6365 67.2175-45.2394 67.1061-44.8187C67.0521-44.61 67.0555-44.3744 67.0184-44.1557C66.9441-43.6778 66.8564-43.2032 66.7821-42.7254C66.7146-42.2946 66.6572-41.8638 66.5931-41.433C66.5594-41.2075 66.5189-40.9854 66.4817-40.7599L66.4716-40.7296C66.5391-40.3931 66.3467-40.1205 66.3636-39.7805C66.3771-39.5483 66.2826-39.3094 66.232-39.0738L65.8304-37.1386C65.746-36.7179 65.6245-36.2972 65.5941-35.8698C65.5671-35.4289 65.4422-35.0554 65.3342-34.665C65.233-34.2847 65.1317-33.9044 65.017-33.5308C64.9562-33.3221 64.8719-33.1269 64.7909-32.9351C64.5917-32.4538 64.3994-31.9658 64.1834-31.5014C63.9336-30.9629 63.6872-30.4177 63.397-29.9196C62.9248-29.0978 62.3803-28.3199 61.7702-27.594C61.242-26.9669 60.6247-26.4206 59.9376-25.9718C59.6488-25.7904 59.3796-25.5795 59.1343-25.3425C58.7496-24.9622 58.3176-24.7367 57.9025-24.454C57.6021-24.2521 57.3017-24.0636 56.998-23.8819C56.8157-23.7708 56.6301-23.6799 56.4445-23.579C55.9888-23.3333 55.5366-23.064 55.0708-22.8554C54.6172-22.6428 54.145-22.4717 53.6601-22.3438C53.2551-22.2429 52.8332-22.2159 52.4215-22.2328C52.0468-22.253 52.0975-22.1654 52.0266-21.7448C51.9689-21.4107 52.0041-21.0674 52.1278-20.7519C52.246-20.4558 52.3067-20.1125 52.4282-19.8197C52.651-19.2913 52.9041-18.7932 53.137-18.2715C53.4238-17.622 53.7006-16.9657 53.9807-16.3095C54.1292-15.9662 54.298-15.633 54.4195-15.2661C54.5005-15.0036 54.6861-14.8556 54.7637-14.6334C54.9493-14.0848 55.2565-13.6743 55.4961-13.1896C55.5771-13.0281 55.6513-12.8598 55.7391-12.7016C55.7717-12.6318 55.8218-12.5718 55.8842-12.5266C56.0262-12.4472 56.1753-12.3819 56.3297-12.3314C56.404-12.3079 56.4883-12.3314 56.566-12.3415C56.593-12.3449 56.62-12.3752 56.6436-12.3651C57.1971-12.1631 57.754-12.3449 58.3075-12.3583C58.7192-12.3651 59.1343-12.4593 59.5495-12.5165C59.9275-12.567 60.3021-12.6377 60.6801-12.6713C60.9839-12.6983 61.2201-12.4559 61.4294-12.2002C61.48-12.1429 61.4462-11.9477 61.4496-11.8165C61.3484-11.8501 61.2336-11.8636 61.1459-11.9343C60.8894-12.1362 60.643-12.3819 60.3291-12.1901C60.292-12.1665 60.2447-12.116 60.2346-12.0655C60.1401-11.5742 59.9275-11.3184 59.5731-11.342C59.2997-11.3588 59.0263-11.4429 58.753-11.453C58.5707-11.453 58.3885-11.3722 58.2096-11.3218C58.0746-11.2881 57.9396-11.2545 57.8147-11.1905C57.7708-11.1703 57.7101-11.0357 57.7202-11.0054C57.7641-10.891 57.8316-10.7261 57.8991-10.716C58.0712-10.6857 58.2535-10.7294 58.429-10.7496C58.6101-10.7771 58.7949-10.7628 58.9695-10.7073C59.1439-10.6517 59.3031-10.5569 59.4347-10.4299C59.5309-10.3267 59.6054-10.2053 59.6541-10.0732C59.6912-9.98229 59.6845-9.85103 59.6946-9.7366C59.6069-9.72987 59.509-9.67602 59.4347-9.71978C59.2255-9.83757 59.0297-10.0092 58.8171-10.1304C58.7597-10.164 58.6517-10.1337 58.6078-10.0765C58.4391-9.84767 58.2805-9.67266 58.0206-9.77699C57.9092-9.82411 57.7742-9.77699 57.6493-9.77026C57.6257-9.77026 57.592-9.7568 57.5717-9.77699C57.268-10.0563 56.9575-9.87796 56.6503-9.81738L56.0226-9.69285C56.0057-9.68949 55.9821-9.69958 55.9652-9.68612C55.6885-9.48419 55.4151-9.69958 55.1383-9.69285C55.0877-9.69285 55.0371-9.66593 54.9898-9.6491C55.0236-9.60535 55.0506-9.54813 55.0877-9.51448C55.3839-9.26768 55.5903-8.93056 55.675-8.55531C55.7053-8.41059 55.6885-8.24568 55.6817-8.09087C55.6817-8.05721 55.6345-8 55.6108-8C55.5881-8.00084 55.5661-8.00757 55.5464-8.01935C55.527-8.03113 55.511-8.04768 55.4995-8.06731C55.4022-8.25886 55.3099-8.45322 55.2227-8.64954C55.1653-8.78416 55.1282-8.88513 54.9797-8.78416C54.8042-8.65964 54.6085-8.63945 54.4363-8.8582C54.3351-8.98273 54.2001-9.0534 54.0988-9.18129C54.0212-9.27553 53.9706-9.41688 53.9065-9.53804C53.8862-9.58179 53.8525-9.66256 53.839-9.65583C53.6972-9.59862 53.6803-9.78372 53.6128-9.87122C53.4778-10.0462 53.3226-10.1405 53.1336-10.1169C52.4316-10.0328 51.7532-9.76689 51.0816-9.47409C50.7334-9.34312 50.3503-9.33723 49.9982-9.45727C49.9104-9.48082 49.8159-9.69285 49.7822-9.84093C49.7248-10.0866 49.6573-10.2044 49.4751-10.1909C49.3463-10.1825 49.2177-10.168 49.0903-10.1472C48.8608-10.1102 48.7191-9.89142 48.5942-9.64237C48.4997-9.45053 48.2061-9.38996 48.0879-9.54813C48.0677-9.57842 48.0812-9.68612 48.1014-9.74333C48.2634-10.1876 48.5706-10.3929 48.8642-10.5982C49.1747-10.8169 49.5088-10.9583 49.8666-10.8842C49.9881-10.8573 50.0994-10.7395 50.2176-10.7193C50.3526-10.6958 50.5011-10.7059 50.6327-10.7597C50.9196-10.8708 51.1997-11.0357 51.4866-11.1501C51.6756-11.2242 51.8747-11.2376 52.0705-11.2915C52.192-11.3251 52.3101-11.3857 52.4316-11.4261C52.4653-11.4396 52.4991-11.4328 52.5328-11.4362C52.5835-11.4429 52.6611-11.4295 52.678-11.4698C52.701-11.5433 52.701-11.6219 52.678-11.6953C52.4698-12.3317 52.2572-12.9667 52.0401-13.6002C51.8713-14.0916 51.6891-14.5762 51.5237-15.0743C51.4157-15.3974 51.328-15.7407 51.2267-16.0705C51.1997-16.1546 51.1491-16.2219 51.1187-16.3027C50.9769-16.6527 50.8251-16.9994 50.7002-17.3629C50.5213-17.8811 50.3796-18.4264 50.1838-18.9278C50.0826-19.1903 49.9037-19.3855 49.7619-19.6144C49.7133-19.6954 49.6705-19.7799 49.6337-19.8668L49.2861-20.6745C49.2219-20.826 49.1274-20.9606 49.0937-21.1221C49.0253-21.4166 48.9803-21.7159 48.9587-22.0174C48.9283-22.4246 48.9114-22.4717 48.6381-22.5323C47.776-22.7289 46.9236-22.9648 46.0832-23.239C45.4605-23.4247 44.8772-23.7223 44.3619-24.1174C43.9266-24.4607 43.4979-24.8242 43.0592-25.1709C42.7115-25.4435 42.364-25.743 41.9961-25.9517C41.608-26.1637 41.1962-26.2747 40.7946-26.4329C40.6258-26.5002 40.4571-26.5877 40.285-26.6517C39.6201-26.894 38.9552-27.1229 38.2937-27.3753C38.0406-27.4729 37.7976-27.6344 37.5445-27.7421C37.3082-27.8397 37.0652-27.8868 36.8323-27.9777C36.5353-28.0921 36.2451-28.2335 35.9481-28.3479C35.6308-28.4724 35.3068-28.5599 34.993-28.6979C34.1863-29.0479 33.3595-29.1422 32.5292-29.2162C32.2413-29.2271 31.9578-29.29 31.6922-29.4013C31.3479-29.5696 31.0071-29.5393 30.6628-29.5124C30.5582-29.5056 30.4536-29.5124 30.3489-29.4955C30.1869-29.4652 30.0283-29.4047 29.8629-29.3878C29.7786-29.3777 29.6942-29.4282 29.6064-29.4552C29.5896-29.4585 29.5727-29.472 29.5626-29.4686L28.6074-29.2936C28.3374-29.2431 28.0607-29.2061 27.7873-29.1455C27.3823-29.058 26.9773-28.9604 26.5723-28.8662L25.3472-28.5734L24.0444-28.2705C23.6057-28.1695 23.1703-28.0282 22.7214-28.045C22.5965-28.0517 22.4717-27.944 22.3434-27.907C22.1578-27.8498 21.9722-27.7993 21.7865-27.7589C21.6515-27.732 21.5199-27.7354 21.3917-27.6984C21.1419-27.631 20.936-27.7253 20.7639-27.9945C20.6863-28.1224 20.5817-28.2166 20.5108-28.3479C20.3184-28.6945 20.4804-29.297 20.882-29.2869C20.8955-29.2869 20.909-29.2869 20.9259-29.2936C21.0845-29.3609 21.2432-29.4417 21.4085-29.4888C21.9485-29.6403 22.4885-29.7782 23.0285-29.9162C23.1264-29.9432 23.231-29.9297 23.3289-29.9566C23.636-30.034 23.9432-30.1249 24.2537-30.1989C24.6148-30.2898 24.9793-30.3672 25.3438-30.448C25.8399-30.559 26.3361-30.66 26.8288-30.7812C27.1123-30.8485 27.3891-30.9494 27.6726-31.0336C27.7738-31.0639 27.8886-31.0672 27.9932-31.1009C28.3408-31.2086 28.6817-31.3466 29.0327-31.4341C29.3229-31.5048 29.6166-31.5216 29.9102-31.5687C29.9946-31.5822 30.0789-31.6091 30.1566-31.6259L30.1566-31.6293ZM54.7592-12.5937L54.7067-12.5657C54.7942-12.3766 54.8712-12.1736 54.9866-12.0056C55.0076-11.9741 55.1931-12.0826 55.2946-12.1386C55.4521-12.2261 55.4556-12.3836 55.3891-12.5307C55.1861-12.9577 54.9761-13.3812 54.7662-13.8012C54.5422-14.2563 54.3042-14.7043 54.0872-15.1663C53.9122-15.5268 53.7792-15.9084 53.6042-16.2689C53.3523-16.7974 53.0793-17.3189 52.8098-17.837C52.7608-17.9385 52.6873-18.0225 52.6348-18.124C52.5648-18.2815 52.5193-18.4635 52.4318-18.6105C52.1658-19.062 51.8859-19.5031 51.6059-19.9441C51.5849-19.9791 51.5009-20.0106 51.4939-19.9966C51.4589-19.9546 51.4239-19.8881 51.4309-19.8391C51.5604-19.118 51.8579-18.474 52.1763-17.844C52.4143-17.3749 52.6663-16.9129 52.8938-16.4369C53.1738-15.8419 53.4188-15.2223 53.6987-14.6308C53.8702-14.2773 54.0802-13.9517 54.2622-13.6122C54.4232-13.3147 54.5772-13.0172 54.7277-12.7162C54.7452-12.6812 54.7487-12.6357 54.7592-12.5937L54.7592-12.5937Z"/>
   <path class="monochrome-1 multicolor-1:tintColor hierarchical-1:tertiary SFSymbolsPreviewWireframe" d="M48.9411-84C55.3091-84.0013 61.615-82.7479 67.4985-80.3116C73.382-77.8752 78.7279-74.3036 83.2305-69.8009C87.7334-65.2983 91.305-59.9524 93.7418-54.0682C96.1779-48.1846 97.4312-41.8789 97.43-35.5124C97.43-8.72255 75.7254 13 48.9424 13C22.156 13 0.43-8.726 0.43-35.5124C0.43-62.2926 22.1539-84 48.9411-84ZM48.9424-70C29.8835-70 14.43-54.5582 14.43-35.5124C14.43-16.458 29.888-0.999999 48.9424-0.999999C67.9909-0.999999 83.43-16.4519 83.43-35.5138C83.4309-40.0428 82.5395-44.5276 80.8069-48.7121C79.0739-52.8969 76.5337-56.6989 73.3311-59.9013C70.1287-63.1038 66.3266-65.644 62.1422-67.3767C57.9578-69.1095 53.4729-70.0009 48.9424-70Z"/>
  </g>
  <g id="Regular-S" transform="matrix(1 0 0 1 1403.58 696)">
   <path class="monochrome-0 multicolor-0:tintColor hierarchical-0:primary SFSymbolsPreviewWireframe" d="M21.6572-31.7289C21.5298-31.9412 21.3769-32.0898 21.3302-32.2894C21.2326-32.714 21.5425-33.1811 21.8822-33.1684C21.9841-33.1684 22.0945-33.1641 22.2007-33.1854C22.5871-33.2788 22.982-33.3425 23.3599-33.4826C23.7081-33.6185 24.035-33.852 24.379-34.0134C24.7102-34.1705 25.0584-34.2766 25.398-34.4295C25.8396-34.6333 26.277-34.8711 26.7228-35.0706C26.9819-35.1895 27.2494-35.2575 27.5169-35.3509L27.5593-35.3551L28.8884-35.7925C29.2875-35.9326 29.6867-36.06 30.0773-36.2383C30.192-36.2935 30.3193-36.4931 30.3576-36.663C30.4292-37.0985 30.6203-37.5058 30.9096-37.8391C31.3087-38.2553 31.6441-38.7733 32.022-39.2234C32.2216-39.4654 32.4467-39.665 32.6717-39.8646C33.3936-40.5057 34.1069-41.1511 34.8372-41.7753C35.2619-42.1362 35.7204-42.4377 36.1493-42.7944C36.6419-43.2063 37.1131-43.6734 37.6099-44.0725C38.1959-44.5481 38.7861-45.0066 39.3933-45.4143C39.767-45.6648 40.1831-45.7667 40.561-45.9917C40.9686-46.2337 41.3763-46.5055 41.7499-46.8409C42.3783-47.4057 42.9728-48.0426 43.597-48.6116C43.8518-48.8451 44.1575-48.9683 44.4292-49.1721C44.9303-49.5542 45.4186-49.9619 45.9154-50.344C46.2891-50.6328 46.6797-50.8918 47.0491-51.1805C47.8134-51.7665 48.5523-52.3992 49.3293-52.9469C49.7794-53.2654 50.2762-53.4649 50.756-53.6942C51.6604-54.1358 52.4969-54.7558 53.2825-55.5243C54.1529-56.3778 55.0489-57.1761 55.9151-58.0338C56.3142-58.4287 56.6879-58.8915 57.0446-59.3586C57.7622-60.2928 58.4458-61.2694 59.1676-62.1823C59.3969-62.471 59.7069-62.6281 59.9744-62.8489C60.2207-63.04 60.467-63.2184 60.7047-63.4307C61.2037-63.9063 61.8116-64.2519 62.4754-64.437C63.2355-64.6196 63.987-64.8446 64.7513-64.9848C65.0571-65.04 65.3798-64.9296 65.694-64.8956C66.1611-64.8446 66.6494-64.8956 67.0952-64.7257C67.7831-64.4667 68.4964-64.2374 69.0272-63.4307C69.4433-62.8022 69.9316-62.2672 70.369-61.66C70.8446-60.9891 71.3116-60.3055 71.749-59.5879C71.9358-59.2779 72.0377-58.8576 72.1736-58.4839C72.25-58.2843 72.301-58.0593 72.3987-57.8809C72.4411-57.796 72.5558-57.7663 72.6449-57.7408C72.9507-57.6559 73.2649-57.6007 73.5706-57.4988C74.3094-57.244 75.044-56.9765 75.7828-56.7133C76.2499-56.5434 76.7255-56.3863 77.1926-56.2037C77.2605-56.1825 77.3624-56.0509 77.3583-56.0041C77.3369-55.8937 77.2732-55.7621 77.2011-55.7197C77.0822-55.6475 76.9463-55.639 76.8189-55.5965C76.6575-55.5456 76.4962-55.4819 76.3348-55.4352C76.0673-55.3587 75.8041-55.2653 75.5366-55.2186C75.0695-55.1337 74.6024-55.0827 74.1396-55.0148C73.5239-54.9214 72.9039-54.8789 72.2967-54.7091C71.7617-54.5562 71.2012-54.4288 70.7979-53.7749C70.5006-53.2951 70.1185-52.9002 69.8637-52.3737C69.4603-51.5499 68.8871-50.9003 68.6238-49.9321C68.4795-49.4014 68.2841-48.9003 68.144-48.3696C68.0761-48.1063 68.0803-47.8091 68.0336-47.5331C67.9402-46.9301 67.8298-46.3314 67.7364-45.7285C67.6515-45.185 67.5793-44.6415 67.4986-44.098C67.4561-43.8135 67.4052-43.5332 67.3585-43.2487L67.3457-43.2105C67.4307-42.7859 67.1886-42.442 67.2099-42.0131C67.2268-41.7201 67.1079-41.4186 67.0443-41.1214L66.539-38.6799C66.4328-38.1491 66.2799-37.6183 66.2417-37.0791C66.2078-36.5228 66.0507-36.0515 65.9148-35.559C65.7874-35.0791 65.66-34.5993 65.5156-34.128C65.4392-33.8647 65.3331-33.6185 65.2311-33.3764C64.9806-32.7692 64.7386-32.1535 64.4668-31.5676C64.1526-30.8882 63.8427-30.2003 63.4775-29.5719C62.8834-28.5351 62.1983-27.5535 61.4308-26.6378C60.7663-25.8466 59.9896-25.1573 59.1252-24.5911C58.7618-24.3622 58.4231-24.0961 58.1146-23.7971C57.6305-23.3173 57.087-23.0328 56.5647-22.6761C56.1868-22.4214 55.8089-22.1836 55.4268-21.9543C55.1975-21.8142 54.9639-21.6995 54.7304-21.5721C54.1572-21.2622 53.5882-20.9225 53.0022-20.6592C52.4315-20.391 51.8374-20.1751 51.2273-20.0138C50.7178-19.8864 50.187-19.8524 49.669-19.8737C49.1977-19.8991 49.2614-19.7887 49.1722-19.258C49.0997-18.8365 49.1439-18.4034 49.2996-18.0054C49.4482-17.6317 49.5246-17.1986 49.6775-16.8292C49.9577-16.1625 50.2762-15.5341 50.5692-14.8759C50.9301-14.0564 51.2783-13.2284 51.6307-12.4004C51.8175-11.9673 52.0299-11.547 52.1827-11.0841C52.2846-10.7529 52.5182-10.5661 52.6158-10.2858C52.8494-9.59372 53.2358-9.07569 53.5372-8.46424C53.6391-8.26043 53.7326-8.04812 53.843-7.84855C53.884-7.76044 53.947-7.68472 54.0255-7.62775C54.2042-7.52761 54.3918-7.44517 54.586-7.38148C54.6795-7.35175 54.7856-7.38148 54.8833-7.39421C54.9172-7.39846 54.9512-7.43668 54.9809-7.42394C55.6773-7.16917 56.3779-7.39846 57.0743-7.41544C57.5923-7.42394 58.1146-7.54283 58.6369-7.61501C59.1124-7.67871 59.5838-7.76788 60.0593-7.81034C60.4415-7.84431 60.7387-7.53858 61.002-7.21588C61.0657-7.14369 61.0232-6.89741 61.0275-6.73181C60.9001-6.77428 60.7557-6.79126 60.6453-6.88043C60.3226-7.1352 60.0126-7.44517 59.6177-7.20314C59.571-7.17341 59.5116-7.10972 59.4988-7.04603C59.3799-6.42609 59.1124-6.10338 58.6666-6.13311C58.3227-6.15434 57.9787-6.26049 57.6348-6.27323C57.4055-6.27323 57.1762-6.17132 56.9511-6.10763C56.7813-6.06517 56.6115-6.02271 56.4543-5.94203C56.3991-5.91655 56.3227-5.74671 56.3355-5.70849C56.3907-5.56412 56.4756-5.35606 56.5605-5.34332C56.7771-5.30511 57.0063-5.36031 57.2271-5.38578C57.455-5.42046 57.6875-5.40241 57.9072-5.33235C58.1266-5.26229 58.3269-5.14269 58.4925-4.9824C58.6135-4.85218 58.7073-4.69897 58.7685-4.53231C58.8152-4.41766 58.8067-4.25206 58.8195-4.10769C58.7091-4.0992 58.5859-4.03126 58.4925-4.08646C58.2292-4.23508 57.983-4.45163 57.7155-4.60449C57.6433-4.64695 57.5074-4.60874 57.4522-4.53655C57.2399-4.24781 57.0403-4.02701 56.7134-4.15864C56.5732-4.21809 56.4034-4.15864 56.2463-4.15015C56.2166-4.15015 56.1741-4.13317 56.1486-4.15864C55.7665-4.51108 55.3758-4.28603 54.9894-4.2096L54.1996-4.05249C54.1784-4.04824 54.1487-4.06098 54.1275-4.044C53.7793-3.78923 53.4353-4.06098 53.0871-4.05249C53.0235-4.05249 52.9598-4.01852 52.9003-3.99729C52.9428-3.94209 52.9767-3.86991 53.0235-3.82744C53.3961-3.51606 53.6558-3.09074 53.7623-2.61729C53.8005-2.43471 53.7793-2.22664 53.7708-2.03132C53.7708-1.98886 53.7113-1.91668 53.6816-1.91668C53.6529-1.91774 53.6253-1.92623 53.6006-1.94109C53.5762-1.95595 53.556-1.97683 53.5415-2.0016C53.4191-2.24328 53.303-2.48849 53.1933-2.73618C53.1211-2.90603 53.0744-3.03341 52.8876-2.90603C52.6668-2.74892 52.4205-2.72344 52.2039-2.99944C52.0766-3.15655 51.9067-3.24572 51.7793-3.40708C51.6817-3.52597 51.618-3.70431 51.5373-3.85717C51.5118-3.91237 51.4694-4.01428 51.4524-4.00578C51.274-3.9336 51.2528-4.16714 51.1679-4.27754C50.998-4.49834 50.8027-4.61723 50.5649-4.58751C49.6817-4.48135 48.8283-4.14591 47.9833-3.77649C47.5452-3.61124 47.0633-3.60381 46.6203-3.75526C46.5099-3.78498 46.391-4.05249 46.3485-4.23932C46.2763-4.54929 46.1914-4.69791 45.9621-4.68092C45.8-4.67031 45.6383-4.65191 45.478-4.62572C45.1893-4.57901 45.011-4.30301 44.8539-3.9888C44.735-3.74677 44.3655-3.67034 44.2169-3.86991C44.1915-3.90812 44.2084-4.044 44.2339-4.11618C44.4377-4.67668 44.8241-4.93569 45.1935-5.19471C45.5842-5.47071 46.0046-5.64904 46.4547-5.55563C46.6075-5.52166 46.7476-5.37304 46.8963-5.34757C47.0661-5.31784 47.2529-5.33058 47.4185-5.39852C47.7795-5.53864 48.1319-5.74671 48.4928-5.89108C48.7306-5.98449 48.9811-6.00148 49.2274-6.06941C49.3803-6.11188 49.5289-6.18831 49.6817-6.23926C49.7242-6.25624 49.7667-6.24775 49.8091-6.252C49.8728-6.26049 49.9705-6.24351 49.9917-6.29446C50.0207-6.38717 50.0207-6.48624 49.9917-6.57895C49.7299-7.38183 49.4623-8.18294 49.1892-8.98228C48.9769-9.60221 48.7476-10.2137 48.5395-10.8421C48.4036-11.2497 48.2932-11.6828 48.1659-12.099C48.1319-12.2051 48.0682-12.29 48.03-12.3919C47.8516-12.8335 47.6606-13.2709 47.5035-13.7295C47.2784-14.3834 47.1001-15.0713 46.8538-15.7039C46.7264-16.0351 46.5014-16.2814 46.323-16.5702C46.2618-16.6724 46.208-16.7789 46.1617-16.8886L45.7243-17.9077C45.6436-18.0988 45.5247-18.2686 45.4823-18.4724C45.3963-18.844 45.3397-19.2215 45.3124-19.6019C45.2742-20.1157 45.253-20.1751 44.9091-20.2516C43.8245-20.4996 42.752-20.7972 41.6947-21.1433C40.9113-21.3775 40.1774-21.7529 39.5292-22.2515C38.9814-22.6846 38.4422-23.1432 37.8902-23.5806C37.4528-23.9245 37.0155-24.3024 36.5527-24.5657C36.0644-24.8332 35.5464-24.9733 35.0411-25.1729C34.8288-25.2578 34.6164-25.3682 34.3999-25.4489C33.5634-25.7546 32.7269-26.0433 31.8947-26.3618C31.5762-26.4849 31.2705-26.6887 30.952-26.8246C30.6548-26.9478 30.3491-27.0072 30.0561-27.1218C29.6824-27.2662 29.3172-27.4446 28.9436-27.5889C28.5444-27.746 28.1368-27.8564 27.7419-28.0305C26.7271-28.4721 25.6868-28.591 24.6422-28.6844C24.28-28.6982 23.9233-28.7775 23.5892-28.918C23.1561-29.1303 22.7272-29.0921 22.2941-29.0581C22.1625-29.0496 22.0308-29.0581 21.8992-29.0369C21.6954-28.9986 21.4958-28.9222 21.2878-28.901C21.1816-28.8882 21.0755-28.9519 20.9651-28.9859C20.9438-28.9902 20.9226-29.0071 20.9099-29.0029L19.7082-28.7821C19.3685-28.7184 19.0203-28.6717 18.6764-28.5953C18.1668-28.4849 17.6573-28.3617 17.1478-28.2428L15.6064-27.8734L13.9674-27.4913C13.4154-27.3639 12.8676-27.1855 12.3029-27.2068C12.1458-27.2153 11.9887-27.0794 11.8273-27.0327C11.5938-26.9605 11.3603-26.8968 11.1267-26.8458C10.9569-26.8119 10.7913-26.8161 10.6299-26.7694C10.3157-26.6845 10.0567-26.8034 9.84014-27.1431C9.74248-27.3044 9.61084-27.4233 9.52168-27.5889C9.27964-28.0263 9.48346-28.7863 9.98875-28.7736C10.0057-28.7736 10.0227-28.7736 10.044-28.7821C10.2435-28.867 10.4431-28.9689 10.6512-29.0284C11.3305-29.2194 12.0099-29.3935 12.6893-29.5676C12.8124-29.6016 12.9441-29.5846 13.0672-29.6186C13.4536-29.7162 13.84-29.8309 14.2307-29.9243C14.685-30.039 15.1436-30.1366 15.6022-30.2385C16.2264-30.3786 16.8505-30.506 17.4705-30.6589C17.8272-30.7438 18.1753-30.8712 18.532-30.9774C18.6594-31.0156 18.8038-31.0198 18.9354-31.0623C19.3728-31.1982 19.8016-31.3722 20.2432-31.4826C20.6084-31.5718 20.9778-31.593 21.3472-31.6525C21.4534-31.6695 21.5595-31.7034 21.6572-31.7247L21.6572-31.7289ZM52.2804-7.48763L52.2167-7.45366C52.3228-7.22437 52.4163-6.97809 52.5564-6.77428C52.5819-6.73606 52.8069-6.86769 52.93-6.93563C53.1211-7.04178 53.1254-7.23286 53.0447-7.4112C52.7984-7.92923 52.5436-8.44301 52.2889-8.95255C52.0171-9.50455 51.7284-10.0481 51.4651-10.6086C51.2528-11.0459 51.0915-11.5087 50.8791-11.9461C50.5734-12.5873 50.2422-13.2199 49.9153-13.8484C49.8558-13.9715 49.7667-14.0734 49.703-14.1966C49.618-14.3876 49.5628-14.6084 49.4567-14.7868C49.134-15.3345 48.7943-15.8695 48.4546-16.4046C48.4291-16.447 48.3272-16.4852 48.3187-16.4682C48.2763-16.4173 48.2338-16.3366 48.2423-16.2772C48.3994-15.4025 48.7603-14.6212 49.1467-13.8569C49.4355-13.2879 49.7412-12.7274 50.0172-12.1499C50.3569-11.4281 50.6541-10.6765 50.9938-9.95889C51.2019-9.53003 51.4566-9.13514 51.6774-8.72326C51.8727-8.36234 52.0596-8.00141 52.2422-7.63624C52.2634-7.59378 52.2676-7.53858 52.2804-7.48763L52.2804-7.48763Z"/>
   <path class="monochrome-1 multicolor-1:tintColor hierarchical-1:tertiary SFSymbolsPreviewWireframe" d="M46.4321-81.8365C52.4502-81.8377 58.4096-80.6532 63.9698-78.3508C69.53-76.0483 74.5822-72.6729 78.8374-68.4176C83.0928-64.1624 86.4682-59.1103 88.771-53.5496C91.0733-47.9892 92.2577-42.03 92.2566-36.0127C92.2566-10.693 71.744 9.83658 46.4328 9.83658C21.1173 9.83658 0.5835-10.6972 0.5835-36.0127C0.5835-61.3211 21.1145-81.8365 46.4321-81.8365ZM46.4328-75.0865C24.8413-75.0865 7.3335-57.592 7.3335-36.0127C7.3335-14.4252 24.8452 3.08658 46.4328 3.08658C68.0148 3.08658 85.5066-14.4197 85.5066-36.0133C85.5076-41.1447 84.4976-46.226 82.5345-50.9672C80.571-55.7085 77.693-60.0162 74.0644-63.6446C70.4361-67.273 66.1283-70.1511 61.3873-72.1143C56.6463-74.0776 51.5649-75.0875 46.4328-75.0865Z"/>
  </g>
  <g id="Ultralight-S" transform="matrix(1 0 0 1 515.649 696)">
   <path class="monochrome-0 multicolor-0:tintColor hierarchical-0:primary SFSymbolsPreviewWireframe" d="M19.5882-33.7289C19.4608-33.9412 19.3079-34.0898 19.2612-34.2894C19.1636-34.714 19.4735-35.1811 19.8132-35.1684C19.9151-35.1684 20.0255-35.1641 20.1317-35.1854C20.5181-35.2788 20.913-35.3425 21.2909-35.4826C21.6391-35.6185 21.966-35.852 22.31-36.0134C22.6412-36.1705 22.9894-36.2766 23.329-36.4295C23.7706-36.6333 24.208-36.8711 24.6538-37.0706C24.9129-37.1895 25.1804-37.2575 25.4479-37.3509L25.4903-37.3551L26.8194-37.7925C27.2185-37.9326 27.6177-38.06 28.0083-38.2383C28.123-38.2935 28.2503-38.4931 28.2886-38.663C28.3602-39.0985 28.5513-39.5058 28.8406-39.8391C29.2397-40.2553 29.5751-40.7733 29.953-41.2234C30.1526-41.4654 30.3777-41.665 30.6027-41.8646C31.3246-42.5057 32.0379-43.1511 32.7682-43.7753C33.1929-44.1362 33.6514-44.4377 34.0803-44.7944C34.5729-45.2063 35.0441-45.6734 35.5409-46.0725C36.1269-46.5481 36.7171-47.0066 37.3243-47.4143C37.698-47.6648 38.1141-47.7667 38.492-47.9917C38.8996-48.2337 39.3073-48.5055 39.6809-48.8409C40.3093-49.4057 40.9038-50.0426 41.528-50.6116C41.7828-50.8451 42.0885-50.9683 42.3602-51.1721C42.8613-51.5542 43.3496-51.9619 43.8464-52.344C44.2201-52.6328 44.6107-52.8918 44.9801-53.1805C45.7444-53.7665 46.4833-54.3992 47.2603-54.9469C47.7104-55.2654 48.2072-55.4649 48.687-55.6942C49.5914-56.1358 50.4279-56.7558 51.2135-57.5243C52.0839-58.3778 52.9799-59.1761 53.8461-60.0338C54.2452-60.4287 54.6189-60.8915 54.9756-61.3586C55.6932-62.2928 56.3768-63.2694 57.0986-64.1823C57.3279-64.471 57.6379-64.6281 57.9054-64.8489C58.1517-65.04 58.398-65.2184 58.6357-65.4307C59.1347-65.9063 59.7426-66.2519 60.4064-66.437C61.1665-66.6196 61.918-66.8446 62.6823-66.9848C62.9881-67.04 63.3108-66.9296 63.625-66.8956C64.0921-66.8446 64.5804-66.8956 65.0262-66.7257C65.7141-66.4667 66.4274-66.2374 66.9582-65.4307C67.3743-64.8022 67.8626-64.2672 68.3-63.66C68.7756-62.9891 69.2426-62.3055 69.68-61.5879C69.8668-61.2779 69.9687-60.8576 70.1046-60.4839C70.181-60.2843 70.232-60.0593 70.3297-59.8809C70.3721-59.796 70.4868-59.7663 70.5759-59.7408C70.8817-59.6559 71.1959-59.6007 71.5016-59.4988C72.2404-59.244 72.975-58.9765 73.7138-58.7133C74.1809-58.5434 74.6565-58.3863 75.1236-58.2037C75.1915-58.1825 75.2934-58.0509 75.2893-58.0041C75.2679-57.8937 75.2042-57.7621 75.1321-57.7197C75.0132-57.6475 74.8773-57.639 74.7499-57.5965C74.5885-57.5456 74.4272-57.4819 74.2658-57.4352C73.9983-57.3587 73.7351-57.2653 73.4676-57.2186C73.0005-57.1337 72.5334-57.0827 72.0706-57.0148C71.4549-56.9214 70.8349-56.8789 70.2277-56.7091C69.6927-56.5562 69.1322-56.4288 68.7289-55.7749C68.4316-55.2951 68.0495-54.9002 67.7947-54.3737C67.3913-53.5499 66.8181-52.9003 66.5548-51.9321C66.4105-51.4014 66.2151-50.9003 66.075-50.3696C66.0071-50.1063 66.0113-49.8091 65.9646-49.5331C65.8712-48.9301 65.7608-48.3314 65.6674-47.7285C65.5825-47.185 65.5103-46.6415 65.4296-46.098C65.3871-45.8135 65.3362-45.5332 65.2895-45.2487L65.2767-45.2105C65.3617-44.7859 65.1196-44.442 65.1409-44.0131C65.1578-43.7201 65.0389-43.4186 64.9753-43.1214L64.47-40.6799C64.3638-40.1491 64.2109-39.6183 64.1727-39.0791C64.1388-38.5228 63.9817-38.0515 63.8458-37.559C63.7184-37.0791 63.591-36.5993 63.4466-36.128C63.3702-35.8647 63.2641-35.6185 63.1621-35.3764C62.9116-34.7692 62.6696-34.1535 62.3978-33.5676C62.0836-32.8882 61.7737-32.2003 61.4085-31.5719C60.8144-30.5351 60.1293-29.5535 59.3618-28.6378C58.6973-27.8466 57.9206-27.1573 57.0562-26.5911C56.6928-26.3622 56.3541-26.0961 56.0456-25.7971C55.5615-25.3173 55.018-25.0328 54.4957-24.6761C54.1178-24.4214 53.7399-24.1836 53.3578-23.9543C53.1285-23.8142 52.8949-23.6995 52.6614-23.5721C52.0882-23.2622 51.5192-22.9225 50.9332-22.6592C50.3625-22.391 49.7684-22.1751 49.1583-22.0138C48.6488-21.8864 48.118-21.8524 47.6-21.8737C47.1287-21.8991 47.1924-21.7887 47.1032-21.258C47.0307-20.8365 47.0749-20.4034 47.2306-20.0054C47.3792-19.6317 47.4556-19.1986 47.6085-18.8292C47.8887-18.1625 48.2072-17.5341 48.5002-16.8759C48.8611-16.0564 49.2093-15.2284 49.5617-14.4004C49.7485-13.9673 49.9609-13.547 50.1137-13.0841C50.2156-12.7529 50.4492-12.5661 50.5468-12.2858C50.7804-11.5937 51.1668-11.0757 51.4682-10.4642C51.5701-10.2604 51.6636-10.0481 51.774-9.84855C51.815-9.76044 51.878-9.68472 51.9565-9.62775C52.1352-9.52761 52.3228-9.44517 52.517-9.38148C52.6105-9.35175 52.7166-9.38148 52.8143-9.39421C52.8482-9.39846 52.8822-9.43668 52.9119-9.42394C53.6083-9.16917 54.3089-9.39846 55.0053-9.41544C55.5233-9.42394 56.0456-9.54283 56.5679-9.61501C57.0434-9.67871 57.5148-9.76788 57.9903-9.81034C58.3725-9.84431 58.6697-9.53858 58.933-9.21588C58.9967-9.14369 58.9542-8.89741 58.9585-8.73181C58.8311-8.77428 58.6867-8.79126 58.5763-8.88043C58.2536-9.1352 57.9436-9.44517 57.5487-9.20314C57.502-9.17341 57.4426-9.10972 57.4298-9.04603C57.3109-8.42609 57.0434-8.10338 56.5976-8.13311C56.2537-8.15434 55.9097-8.26049 55.5658-8.27323C55.3365-8.27323 55.1072-8.17132 54.8821-8.10763C54.7123-8.06517 54.5425-8.02271 54.3853-7.94203C54.3301-7.91655 54.2537-7.74671 54.2665-7.70849C54.3217-7.56412 54.4066-7.35606 54.4915-7.34332C54.7081-7.30511 54.9373-7.36031 55.1581-7.38578C55.386-7.42046 55.6185-7.40241 55.8382-7.33235C56.0576-7.26229 56.2579-7.14269 56.4235-6.9824C56.5445-6.85218 56.6383-6.69897 56.6995-6.53231C56.7462-6.41766 56.7377-6.25206 56.7505-6.10769C56.6401-6.0992 56.5169-6.03126 56.4235-6.08646C56.1602-6.23508 55.914-6.45163 55.6465-6.60449C55.5743-6.64695 55.4384-6.60874 55.3832-6.53655C55.1709-6.24781 54.9713-6.02701 54.6444-6.15864C54.5042-6.21809 54.3344-6.15864 54.1773-6.15015C54.1476-6.15015 54.1051-6.13317 54.0796-6.15864C53.6975-6.51108 53.3068-6.28603 52.9204-6.2096L52.1306-6.05249C52.1094-6.04824 52.0797-6.06098 52.0585-6.044C51.7103-5.78923 51.3663-6.06098 51.0181-6.05249C50.9545-6.05249 50.8908-6.01852 50.8313-5.99729C50.8738-5.94209 50.9077-5.86991 50.9545-5.82744C51.3271-5.51606 51.5868-5.09074 51.6933-4.61729C51.7315-4.43471 51.7103-4.22664 51.7018-4.03132C51.7018-3.98886 51.6423-3.91668 51.6126-3.91668C51.5839-3.91774 51.5563-3.92623 51.5316-3.94109C51.5072-3.95595 51.487-3.97683 51.4725-4.0016C51.3501-4.24328 51.234-4.48849 51.1243-4.73618C51.0521-4.90603 51.0054-5.03341 50.8186-4.90603C50.5978-4.74892 50.3515-4.72344 50.1349-4.99944C50.0076-5.15655 49.8377-5.24572 49.7103-5.40708C49.6127-5.52597 49.549-5.70431 49.4683-5.85717C49.4428-5.91237 49.4004-6.01428 49.3834-6.00578C49.205-5.9336 49.1838-6.16714 49.0989-6.27754C48.929-6.49834 48.7337-6.61723 48.4959-6.58751C47.6127-6.48135 46.7593-6.14591 45.9143-5.77649C45.4762-5.61124 44.9943-5.60381 44.5513-5.75526C44.4409-5.78498 44.322-6.05249 44.2795-6.23932C44.2073-6.54929 44.1224-6.69791 43.8931-6.68092C43.731-6.67031 43.5693-6.65191 43.409-6.62572C43.1203-6.57901 42.942-6.30301 42.7849-5.9888C42.666-5.74677 42.2965-5.67034 42.1479-5.86991C42.1225-5.90812 42.1394-6.044 42.1649-6.11618C42.3687-6.67668 42.7551-6.93569 43.1245-7.19471C43.5152-7.47071 43.9356-7.64904 44.3857-7.55563C44.5385-7.52166 44.6786-7.37304 44.8273-7.34757C44.9971-7.31784 45.1839-7.33058 45.3495-7.39852C45.7105-7.53864 46.0629-7.74671 46.4238-7.89108C46.6616-7.98449 46.9121-8.00148 47.1584-8.06941C47.3113-8.11188 47.4599-8.18831 47.6127-8.23926C47.6552-8.25624 47.6977-8.24775 47.7401-8.252C47.8038-8.26049 47.9015-8.24351 47.9227-8.29446C47.9517-8.38717 47.9517-8.48624 47.9227-8.57895C47.6609-9.38183 47.3933-10.1829 47.1202-10.9823C46.9079-11.6022 46.6786-12.2137 46.4705-12.8421C46.3346-13.2497 46.2242-13.6828 46.0969-14.099C46.0629-14.2051 45.9992-14.29 45.961-14.3919C45.7826-14.8335 45.5916-15.2709 45.4345-15.7295C45.2094-16.3834 45.0311-17.0713 44.7848-17.7039C44.6574-18.0351 44.4324-18.2814 44.254-18.5702C44.1928-18.6724 44.139-18.7789 44.0927-18.8886L43.6553-19.9077C43.5746-20.0988 43.4557-20.2686 43.4133-20.4724C43.3273-20.844 43.2707-21.2215 43.2434-21.6019C43.2052-22.1157 43.184-22.1751 42.8401-22.2516C41.7555-22.4996 40.683-22.7972 39.6257-23.1433C38.8423-23.3775 38.1084-23.7529 37.4602-24.2515C36.9124-24.6846 36.3732-25.1432 35.8212-25.5806C35.3838-25.9245 34.9465-26.3024 34.4837-26.5657C33.9954-26.8332 33.4774-26.9733 32.9721-27.1729C32.7598-27.2578 32.5474-27.3682 32.3309-27.4489C31.4944-27.7546 30.6579-28.0433 29.8257-28.3618C29.5072-28.4849 29.2015-28.6887 28.883-28.8246C28.5858-28.9478 28.2801-29.0072 27.9871-29.1218C27.6134-29.2662 27.2482-29.4446 26.8746-29.5889C26.4754-29.746 26.0678-29.8564 25.6729-30.0305C24.6581-30.4721 23.6178-30.591 22.5732-30.6844C22.211-30.6982 21.8543-30.7775 21.5202-30.918C21.0871-31.1303 20.6582-31.0921 20.2251-31.0581C20.0935-31.0496 19.9618-31.0581 19.8302-31.0369C19.6264-30.9986 19.4268-30.9222 19.2188-30.901C19.1126-30.8882 19.0065-30.9519 18.8961-30.9859C18.8748-30.9902 18.8536-31.0071 18.8409-31.0029L17.6392-30.7821C17.2995-30.7184 16.9513-30.6717 16.6074-30.5953C16.0978-30.4849 15.5883-30.3617 15.0788-30.2428L13.5374-29.8734L11.8984-29.4913C11.3464-29.3639 10.7986-29.1855 10.2339-29.2068C10.0768-29.2153 9.91969-29.0794 9.75834-29.0327C9.5248-28.9605 9.29126-28.8968 9.05772-28.8458C8.88788-28.8119 8.72228-28.8161 8.56092-28.7694C8.24671-28.6845 7.98769-28.8034 7.77114-29.1431C7.67348-29.3044 7.54184-29.4233 7.45268-29.5889C7.21064-30.0263 7.41446-30.7863 7.91975-30.7736C7.93674-30.7736 7.95372-30.7736 7.97495-30.7821C8.17452-30.867 8.37409-30.9689 8.58215-31.0284C9.26154-31.2194 9.94092-31.3935 10.6203-31.5676C10.7434-31.6016 10.8751-31.5846 10.9982-31.6186C11.3846-31.7162 11.771-31.8309 12.1617-31.9243C12.616-32.039 13.0746-32.1366 13.5332-32.2385C14.1574-32.3786 14.7815-32.506 15.4015-32.6589C15.7582-32.7438 16.1063-32.8712 16.463-32.9774C16.5904-33.0156 16.7348-33.0198 16.8664-33.0623C17.3038-33.1982 17.7326-33.3722 18.1742-33.4826C18.5394-33.5718 18.9088-33.593 19.2782-33.6525C19.3844-33.6695 19.4905-33.7034 19.5882-33.7247L19.5882-33.7289ZM50.2114-9.48763L50.1477-9.45366C50.2538-9.22437 50.3473-8.97809 50.4874-8.77428C50.5129-8.73606 50.7379-8.86769 50.861-8.93563C51.0521-9.04178 51.0564-9.23286 50.9757-9.4112C50.7294-9.92923 50.4746-10.443 50.2199-10.9526C49.9481-11.5046 49.6594-12.0481 49.3961-12.6086C49.1838-13.0459 49.0225-13.5087 48.8101-13.9461C48.5044-14.5873 48.1732-15.2199 47.8463-15.8484C47.7868-15.9715 47.6977-16.0734 47.634-16.1966C47.549-16.3876 47.4938-16.6084 47.3877-16.7868C47.065-17.3345 46.7253-17.8695 46.3856-18.4046C46.3601-18.447 46.2582-18.4852 46.2497-18.4682C46.2073-18.4173 46.1648-18.3366 46.1733-18.2772C46.3304-17.4025 46.6913-16.6212 47.0777-15.8569C47.3665-15.2879 47.6722-14.7274 47.9482-14.1499C48.2879-13.4281 48.5851-12.6765 48.9248-11.9589C49.1329-11.53 49.3876-11.1351 49.6084-10.7233C49.8037-10.3623 49.9906-10.0014 50.1732-9.63624C50.1944-9.59378 50.1986-9.53858 50.2114-9.48763L50.2114-9.48763Z"/>
   <path class="monochrome-1 multicolor-1:tintColor hierarchical-1:tertiary SFSymbolsPreviewWireframe" d="M44.3636-80.5865C50.0861-80.5876 55.7528-79.4613 61.04-77.272C66.3271-75.0826 71.1312-71.8729 75.1774-67.8265C79.2239-63.7803 82.4335-58.9764 84.6232-53.6889C86.8124-48.4015 87.9387-42.7349 87.9376-37.0127C87.9376-12.9352 68.432 6.58658 44.3638 6.58658C20.2909 6.58658 0.7645-12.9399 0.7645-37.0127C0.7645-61.0781 20.2877-80.5865 44.3636-80.5865ZM44.3638-78.3365C21.53-78.3365 3.0145-59.8351 3.0145-37.0127C3.0145-14.1825 21.5336 4.33658 44.3638 4.33658C67.1889 4.33658 85.6876-14.1774 85.6876-37.0129C85.6886-42.4398 84.6205-47.8138 82.5443-52.828C80.4678-57.8425 77.4239-62.3983 73.5865-66.2355C69.7491-70.073 65.1932-73.1168 60.1791-75.1931C55.1651-77.2695 49.791-78.3376 44.3638-78.3365Z"/>
  </g>
 </g>
</svg>
