<?xml version="1.0" encoding="UTF-8"?>
<svg width="3300px" height="2200px" viewBox="0 0 3300 2200" version="1.1" xmlns="http://www.w3.org/2000/svg" xmlns:xlink="http://www.w3.org/1999/xlink">
    <!-- Generator: Sketch 59.1 (86144) - https://sketch.com -->
    <title>filter</title>
    <desc>Created with Sketch.</desc>
    <g id="Page-1" stroke="none" stroke-width="1" fill="none" fill-rule="evenodd">
        <g id="filter">
            <g id="Notes">
                <rect id="artboard" fill="#FFFFFF" fill-rule="nonzero" x="0" y="0" width="3300" height="2200"></rect>
                <line x1="263" y1="292" x2="3036" y2="292" id="Path" stroke="#000000" stroke-width="0.5"></line>
                <text id="Weight/Scale-Variations" fill="#000000" font-family="Helvetica-Bold, Helvetica" font-size="13" font-weight="bold">
                    <tspan x="263" y="322">Weight/Scale Variations</tspan>
                </text>
                <text id="Ultralight" fill="#000000" font-family="Helvetica" font-size="13" font-weight="normal">
                    <tspan x="533.711" y="322">Ultralight</tspan>
                </text>
                <text id="Thin" fill="#000000" font-family="Helvetica" font-size="13" font-weight="normal">
                    <tspan x="843.422" y="322">Thin</tspan>
                </text>
                <text id="Light" fill="#000000" font-family="Helvetica" font-size="13" font-weight="normal">
                    <tspan x="1138.63" y="322">Light</tspan>
                </text>
                <text id="Regular" fill="#000000" font-family="Helvetica" font-size="13" font-weight="normal">
                    <tspan x="1426.84" y="322">Regular</tspan>
                </text>
                <text id="Medium" fill="#000000" font-family="Helvetica" font-size="13" font-weight="normal">
                    <tspan x="1723.06" y="322">Medium</tspan>
                </text>
                <text id="Semibold" fill="#000000" font-family="Helvetica" font-size="13" font-weight="normal">
                    <tspan x="2015.77" y="322">Semibold</tspan>
                </text>
                <text id="Bold" fill="#000000" font-family="Helvetica" font-size="13" font-weight="normal">
                    <tspan x="2326.48" y="322">Bold</tspan>
                </text>
                <text id="Heavy" fill="#000000" font-family="Helvetica" font-size="13" font-weight="normal">
                    <tspan x="2618.19" y="322">Heavy</tspan>
                </text>
                <text id="Black" fill="#000000" font-family="Helvetica" font-size="13" font-weight="normal">
                    <tspan x="2917.4" y="322">Black</tspan>
                </text>
                <line x1="263" y1="1903" x2="3036" y2="1903" id="Path" stroke="#000000" stroke-width="0.5"></line>
                <g id="Group" transform="translate(264.000000, 1918.000000)" fill="#000000" fill-rule="nonzero">
                    <path d="M8.24805,15.830078 C12.5547,15.830078 16.1387,12.25586 16.1387,7.94922 C16.1387,3.6426 12.5449,0.0684 8.23828,0.0684 C3.94141,0.0684 0.36719,3.6426 0.36719,7.94922 C0.36719,12.25586 3.95117,15.830078 8.24805,15.830078 Z M8.24805,14.345703 C4.70312,14.345703 1.87109,11.50391 1.87109,7.94922 C1.87109,4.3945 4.69336,1.5527 8.23828,1.5527 C11.793,1.5527 14.6348,4.3945 14.6445503,7.94922 C14.6543,11.50391 11.8027,14.345703 8.24805,14.345703 Z M8.22852,11.57227 C8.69727,11.57227 8.9707,11.25977 8.9707,10.74219 L8.9707,8.68164 L11.1973,8.68164 C11.6953,8.68164 12.0371,8.42773 12.0371,7.95898 C12.0371,7.48047 11.7148,7.2168 11.1973,7.2168 L8.9707,7.2168 L8.9707,4.9902 C8.9707,4.4727 8.69727,4.1504 8.22852,4.1504 C7.75977,4.1504 7.50586,4.4922 7.50586,4.9902 L7.50586,7.2168 L5.29883,7.2168 C4.78125,7.2168 4.44922,7.48047 4.44922,7.95898 C4.44922,8.42773 4.80078,8.68164 5.29883,8.68164 L7.50586,8.68164 L7.50586,10.74219 C7.50586,11.24023 7.75977,11.57227 8.22852,11.57227 Z" id="Shape"></path>
                </g>
                <g id="Group" transform="translate(282.506000, 1915.000000)" fill="#000000" fill-rule="nonzero">
                    <path d="M10.709,20.91016 C16.1582,20.91016 20.6699,16.39844 20.6699,10.94922 C20.6699,5.5098 16.1484,0.9883 10.6992,0.9883 C5.25977,0.9883 0.74805,5.5098 0.74805,10.94922 C0.74805,16.39844 5.26953,20.91016 10.709,20.91016 Z M10.709,19.25 C6.09961,19.25 2.41797,15.55859 2.41797,10.94922 C2.41797,6.3496 6.08984,2.6484 10.6992,2.6484 C15.3086,2.6484 19,6.3496 19.0098379,10.94922 C19.0195,15.55859 15.3184,19.25 10.709,19.25 Z M10.6895,15.58789 C11.207,15.58789 11.5195,15.22656 11.5195,14.66016 L11.5195,11.76953 L14.5762,11.76953 C15.123,11.76953 15.5039,11.48633 15.5039,10.96875 C15.5039,10.44141 15.1426,10.13867 14.5762,10.13867 L11.5195,10.13867 L11.5195,7.0723 C11.5195,6.4961 11.207,6.1445 10.6895,6.1445 C10.1719,6.1445 9.8789,6.5156 9.8789,7.0723 L9.8789,10.13867 L6.83203,10.13867 C6.26562,10.13867 5.89453,10.44141 5.89453,10.96875 C5.89453,11.48633 6.28516,11.76953 6.83203,11.76953 L9.8789,11.76953 L9.8789,14.66016 C9.8789,15.20703 10.1719,15.58789 10.6895,15.58789 Z" id="Shape"></path>
                </g>
                <g id="Group" transform="translate(306.924000, 1913.000000)" fill="#000000" fill-rule="nonzero">
                    <path d="M12.9707,25.67383 C19.9336,25.67383 25.6953,19.921875 25.6953,12.95898 C25.6953,5.9961 19.9238,0.2441 12.9609,0.2441 C6.00781,0.2441 0.25586,5.9961 0.25586,12.95898 C0.25586,19.921875 6.01758,25.67383 12.9707,25.67383 Z M12.9707,23.85742 C6.93555,23.85742 2.08203,18.99414 2.08203,12.95898 C2.08203,6.9238 6.92578,2.0605 12.9609,2.0605 C19.0059,2.0605 23.8594,6.9238 23.8691295,12.95898 C23.8789,18.99414 19.0156,23.85742 12.9707,23.85742 Z M12.9512,18.93555 C13.5176,18.93555 13.8691,18.54492 13.8691,17.93945 L13.8691,13.86719 L18.1074,13.86719 C18.6934,13.86719 19.1133,13.53516 19.1133,12.97852 C19.1133,12.40234 18.7227,12.06055 18.1074,12.06055 L13.8691,12.06055 L13.8691,7.8125 C13.8691,7.1973 13.5176,6.8066 12.9512,6.8066 C12.3848,6.8066 12.0625,7.2168 12.0625,7.8125 L12.0625,12.06055 L7.83398,12.06055 C7.21875,12.06055 6.80859,12.40234 6.80859,12.97852 C6.80859,13.53516 7.23828,13.86719 7.83398,13.86719 L12.0625,13.86719 L12.0625,17.93945 C12.0625,18.52539 12.3848,18.93555 12.9512,18.93555 Z" id="Shape"></path>
                </g>
                <text id="Design-Variations" fill="#000000" font-family="Helvetica-Bold, Helvetica" font-size="13" font-weight="bold">
                    <tspan x="263" y="1953">Design Variations</tspan>
                </text>
                <text id="Symbols-are-supported-in-up-to-nine-weights-and-three-scales." fill="#000000" font-family="Helvetica" font-size="13" font-weight="normal">
                    <tspan x="263" y="1971">Symbols are supported in up to nine weights and three scales.</tspan>
                </text>
                <text id="For-optimal-layout-with-text-and-other-symbols,-vertically-align" fill="#000000" font-family="Helvetica" font-size="13" font-weight="normal">
                    <tspan x="263" y="1989">For optimal layout with text and other symbols, vertically align</tspan>
                </text>
                <text id="symbols-with-the-adjacent-text." fill="#000000" font-family="Helvetica" font-size="13" font-weight="normal">
                    <tspan x="263" y="2007">symbols with the adjacent text.</tspan>
                </text>
                <rect id="Rectangle" fill="#00AEEF" fill-rule="nonzero" opacity="0.4" x="776" y="1919" width="3" height="14"></rect>
                <g id="Group" transform="translate(779.000000, 1918.000000)" fill="#000000" fill-rule="nonzero">
                    <path d="M10.5273,15 L12.373,15 L7.17773,0.9082 L5.43945,0.9082 L0.244141,15 L2.08984,15 L3.50586,10.9668 L9.11133,10.9668 L10.5273,15 Z M6.2793,3.0469 L6.33789,3.0469 L8.59375,9.47266 L4.02344,9.47266 L6.2793,3.0469 Z" id="Shape"></path>
                </g>
                <rect id="Rectangle" fill="#00AEEF" fill-rule="nonzero" opacity="0.4" x="791.617" y="1919" width="3" height="14"></rect>
                <text id="Margins" fill="#000000" font-family="Helvetica-Bold, Helvetica" font-size="13" font-weight="bold">
                    <tspan x="776" y="1953">Margins</tspan>
                </text>
                <text id="Leading-and-trailing-margins-on-the-left-and-right-side-of-each-symbol" fill="#000000" font-family="Helvetica" font-size="13" font-weight="normal">
                    <tspan x="776" y="1971">Leading and trailing margins on the left and right side of each symbol</tspan>
                </text>
                <text id="can-be-adjusted-by-modifying-the-width-of-the-blue-rectangles." fill="#000000" font-family="Helvetica" font-size="13" font-weight="normal">
                    <tspan x="776" y="1989">can be adjusted by modifying the width of the blue rectangles.</tspan>
                </text>
                <text id="Modifications-are-automatically-applied-proportionally-to-all" fill="#000000" font-family="Helvetica" font-size="13" font-weight="normal">
                    <tspan x="776" y="2007">Modifications are automatically applied proportionally to all</tspan>
                </text>
                <text id="scales-and-weights." fill="#000000" font-family="Helvetica" font-size="13" font-weight="normal">
                    <tspan x="776" y="2025">scales and weights.</tspan>
                </text>
                <g id="Group" transform="translate(1291.000000, 1915.000000)" fill="#000000" fill-rule="nonzero">
                    <path d="M0.83203,21.11523 L2.375,22.6582 C3.22461,23.48828 4.19141,23.41992 5.06055,22.46289 L15.2754,11.33984 C15.7051,11.63281 16.0957,11.62305 16.5645,11.52539 L17.6094,11.31055 L18.3027,12.00391 L18.2539,12.52148 C18.1855,13.04883 18.3516,13.46875 18.8496,13.9668 L19.6602,14.77734 C20.168,15.28516 20.8223,15.31445 21.3008,14.83594 L24.5527,11.58398 C25.0312,11.10547 25.0117,10.45117 24.5039,9.94336 L23.6836,9.12305 C23.1855,8.625 22.7754,8.44922 22.2383,8.52734 L21.7109,8.58594 L21.0566,7.9219 L21.3398,6.7793 C21.4863,6.2129 21.3398,5.7441 20.7148,5.1387 L18.3027,2.7461 C14.7578,-0.7793 10.2266,-0.6719 7.11133,2.4629 C6.69141,2.8926 6.64258,3.4785 6.91602,3.9082 C7.15039,4.2793 7.62891,4.5039 8.2734,4.3379 C9.7871,3.957 11.3008,4.0742 12.7852,5.0801 L12.1602,6.6621 C11.9258,7.248 11.9453,7.7266 12.1797,8.16602 L1.01758,18.439453 C0.08008,19.30859 -0.02734,20.25586 0.83203,21.11523 Z M8.6738,2.8535 C11.3398,0.8613 14.6504,1.1738 17.0527,3.5859 L19.6797,6.1934 C19.9141,6.4277 19.9434,6.6133 19.8848,6.9062 L19.5039,8.46875 L21.0762,10.04102 L22.043,9.95312 C22.3262,9.92383 22.4141,9.94336 22.6387,10.16797 L23.2637,10.79297 L20.5098,13.53711 L19.8848,12.92188 C19.6602,12.69727 19.6406,12.59961 19.6699,12.31641 L19.7578,11.35938 L18.1953,9.79688 L16.5742,10.10938 C16.291,10.16797 16.1445,10.16797 15.9102,9.92383 L13.7324,7.7461 C13.5078,7.5117 13.4785,7.375 13.6055,7.0527 L14.5527,4.7773 C12.9512,3.2441 10.8418,2.3945 8.8008,3.0488 C8.7129,3.0781 8.6445,3.0586 8.6152,3.0195 C8.5859,2.9707 8.5859,2.9219 8.6738,2.8535 Z M2.10156,20.41211 C1.61328,19.91406 1.78906,19.61133 2.12109,19.30859 L13.0781,9.19141 L14.3086,10.42188 L4.15234,21.34961 C3.84961,21.68164 3.46875,21.7793 3.06836,21.37891 L2.10156,20.41211 Z" id="Shape"></path>
                </g>
                <text id="Exporting" fill="#000000" font-family="Helvetica-Bold, Helvetica" font-size="13" font-weight="bold">
                    <tspan x="1289" y="1953">Exporting</tspan>
                </text>
                <text id="Symbols-should-be-outlined-when-exporting-to-ensure-the" fill="#000000" font-family="Helvetica" font-size="13" font-weight="normal">
                    <tspan x="1289" y="1971">Symbols should be outlined when exporting to ensure the</tspan>
                </text>
                <text id="design-is-preserved-when-submitting-to-Xcode." fill="#000000" font-family="Helvetica" font-size="13" font-weight="normal">
                    <tspan x="1289" y="1989">design is preserved when submitting to Xcode.</tspan>
                </text>
                <text id="Template-v.1.0" fill="#000000" font-family="Helvetica" font-size="13" font-weight="normal">
                    <tspan x="2952" y="1933">Template v.1.0</tspan>
                </text>
                <text id="Generated-from-circle" fill="#000000" font-family="Helvetica" font-size="13" font-weight="normal">
                    <tspan x="2911" y="1951">Generated from circle</tspan>
                </text>
                <text id="Typeset-at-100-points" fill="#000000" font-family="Helvetica" font-size="13" font-weight="normal">
                    <tspan x="2912" y="1969">Typeset at 100 points</tspan>
                </text>
                <text id="Small" fill="#000000" font-family="Helvetica" font-size="13" font-weight="normal">
                    <tspan x="263" y="726">Small</tspan>
                </text>
                <text id="Medium" fill="#000000" font-family="Helvetica" font-size="13" font-weight="normal">
                    <tspan x="263" y="1156">Medium</tspan>
                </text>
                <text id="Large" fill="#000000" font-family="Helvetica" font-size="13" font-weight="normal">
                    <tspan x="263" y="1586">Large</tspan>
                </text>
            </g>
            <g id="Guides" transform="translate(263.000000, 625.000000)">
                <g id="H-reference" transform="translate(76.000000, 0.000000)" fill="#27AAE1" fill-rule="nonzero">
                    <path d="M54.9316,71 L57.666,71 L30.5664,0.541 L28.0762,0.541 L0.976562,71 L3.66211,71 L12.9395,46.5371 L45.7031,46.5371 L54.9316,71 Z M29.1992,3.9102 L29.4434,3.9102 L44.8242,44.291 L13.8184,44.291 L29.1992,3.9102 Z" id="Shape"></path>
                </g>
                <line x1="0" y1="71" x2="2773" y2="71" id="Baseline-S" stroke="#27AAE1" stroke-width="0.577"></line>
                <line x1="0" y1="0.541" x2="2773" y2="0.541" id="Capline-S" stroke="#27AAE1" stroke-width="0.577"></line>
                <g id="H-reference" transform="translate(76.000000, 430.000000)" fill="#27AAE1" fill-rule="nonzero">
                    <path d="M54.9316,71 L57.666,71 L30.5664,0.541 L28.0762,0.541 L0.976562,71 L3.66211,71 L12.9395,46.5371 L45.7031,46.5371 L54.9316,71 Z M29.1992,3.9102 L29.4434,3.9102 L44.8242,44.291 L13.8184,44.291 L29.1992,3.9102 Z" id="Shape"></path>
                </g>
                <line x1="0" y1="501" x2="2773" y2="501" id="Baseline-M" stroke="#27AAE1" stroke-width="0.577"></line>
                <line x1="0" y1="430.54" x2="2773" y2="430.54" id="Capline-M" stroke="#27AAE1" stroke-width="0.577"></line>
                <g id="H-reference" transform="translate(76.000000, 860.000000)" fill="#27AAE1" fill-rule="nonzero">
                    <path d="M54.9316,71 L57.666,71 L30.5664,0.541 L28.0762,0.541 L0.976562,71 L3.66211,71 L12.9395,46.5371 L45.7031,46.5371 L54.9316,71 Z M29.1992,3.9102 L29.4434,3.9102 L44.8242,44.291 L13.8184,44.291 L29.1992,3.9102 Z" id="Shape"></path>
                </g>
                <line x1="0" y1="931" x2="2773" y2="931" id="Baseline-L" stroke="#27AAE1" stroke-width="0.577"></line>
                <line x1="0" y1="860.54" x2="2773" y2="860.54" id="Capline-L" stroke="#27AAE1" stroke-width="0.577"></line>
                <rect id="left-margin" fill="#00AEEF" fill-rule="nonzero" opacity="0.4" x="1128.3" y="405.79" width="8.74023" height="119.336"></rect>
                <rect id="right-margin" fill="#00AEEF" fill-rule="nonzero" opacity="0.4" x="1236.65" y="405.79" width="8.74023" height="119.336"></rect>
            </g>
            <g id="Symbols" transform="translate(1399.000000, 1040.000000)" fill="#000000" fill-rule="nonzero">
                <g id="Regular-M" transform="translate(0.300000, 0.000000)">
                    <!-- <path d="M50.5449,100.5508 C77.791,100.5508 100.35,77.99219 100.35,50.7461 C100.35,23.5488 77.7422,0.9414 50.4961,0.9414 C23.2988,0.9414 0.74023,23.5488 0.74023,50.7461 C0.74023,77.99219 23.3477,100.5508 50.5449,100.5508 Z M50.1551,92.0078 C27.1082,92.0078 8.7,73.5508 8.7,50.5039 C8.7,27.5058 27.0594,9 50.1063,9 C73.1532,9 91.6102,27.5058 91.6593938,50.5039 C91.7082,73.5508 73.202,92.0078 50.1551,92.0078 Z" id="Shape"></path> -->
                    <path d="M28.1274339,22.3136006 C28.637968,22.3136006 29.1441385,22.3398504 29.650309,22.3048507 C30.0081192,22.2829758 30.3702929,22.121102 30.7281031,22.1386019 C31.1251851,22.1604768 31.4262693,21.8236043 31.6880816,21.460482 C31.949894,21.0929847 32.1418897,20.5504888 32.29025,20.0254927 C32.3906114,19.6798703 32.4298833,19.3036231 32.6436967,19.0848747 C32.6826524,19.045172 32.7124433,18.9973817 32.7309674,18.9448758 C33.0364152,18.0786322 33.577494,17.702385 34.0400291,17.1511392 C34.5767444,16.499269 35.2181846,16.3198954 35.8421707,16.1186469 C36.2479798,15.9917728 36.6799702,16.101147 37.0988699,16.0486474 C37.779582,15.961148 38.460294,15.9873979 39.132279,16.1623965 C39.4726351,16.2498959 39.804264,16.4686443 40.1446201,16.5736435 C40.6246093,16.7223924 41.0696903,17.033015 41.5278619,17.299888 C41.9293075,17.5405113 42.3394801,17.7636346 42.719108,18.0786322 C43.0332828,18.3411303 43.3169128,18.7086275 43.6049064,19.0586249 C43.9627166,19.4917467 44.3205268,19.9292434 44.6608828,20.4017399 C45.0230565,20.9048611 45.359049,21.4823568 45.7299499,21.9723532 C45.9219456,22.2261013 46.1706673,22.3661002 46.3975713,22.5542238 L47.0171938,23.0792199 C47.1306458,23.1710942 47.2484614,23.2542186 47.3575499,23.3723427 C47.7895402,23.8448392 48.2084399,24.3479604 48.6491574,24.802957 C48.7800635,24.938581 48.9633322,24.9517059 49.1116925,25.0479552 C49.3865955,25.2229539 49.6527713,25.4329523 49.9276743,25.5904511 C50.1414877,25.7129502 50.3683917,25.7523249 50.5822051,25.870449 C51.3123307,26.2801711 52.0202223,26.7285084 52.702885,27.213564 C53.1392389,27.5198117 53.5712293,27.8085596 53.990129,28.158557 C54.5224807,28.6091786 55.0373783,29.1079249 55.561003,29.5847963 C56.1326266,30.1097924 56.7042502,30.6435384 57.2802373,31.1554096 C57.7733172,31.5929063 58.2751242,31.9910283 58.7725676,32.4110252 C59.0867424,32.6778982 59.4052808,32.9578961 59.7238191,33.2160192 C59.9158148,33.369143 60.1165376,33.5397668 60.321624,33.6097662 C60.7797955,33.776015 61.2466942,33.8722643 61.7092293,34.0035133 C61.844499,34.047263 61.9797687,34.1478872 62.1106749,34.1478872 C62.2852165,34.1391373 62.4379403,34.2441365 62.5993913,34.3228859 C62.8786578,34.4541349 63.1753784,34.4760098 63.4590084,34.585384 C63.8779082,34.7472578 64.2968079,34.9441313 64.7157076,35.1235049 C64.759343,35.1410048 64.8029784,35.1716296 64.8466138,35.1672546 C65.3484208,35.0710053 65.8545913,35.0228807 66.3476712,34.8566319 C66.6749366,34.7428828 66.9847479,34.4541349 67.3076497,34.2616364 C67.6043704,34.0778878 67.9098181,33.9291389 68.2109023,33.7497652 C68.5687125,33.5310168 68.9265227,33.3122685 69.2799693,33.0803952 C69.5156004,32.9272713 69.7425045,32.7435227 69.9694085,32.572899 C70.5192144,32.1572771 71.0515661,31.6804057 71.6188262,31.3435332 C72.0900884,31.0591603 72.5918954,30.9060364 73.0893388,30.7616625 C73.5911458,30.6216636 74.0580444,30.8535368 74.3940369,31.505407 C74.5336702,31.7766549 74.5816691,32.1922768 74.6427586,32.5553991 C74.7954825,33.4741423 74.6165774,34.3228859 74.4114911,35.1541297 C74.3067661,35.5872515 74.17586,36.0291232 74.0013184,36.3878705 C73.8529581,36.6941182 73.6260541,36.9041166 73.4296948,37.1403649 C73.1809731,37.4334877 72.9235243,37.7047357 72.6704391,37.9847336 C72.4958975,38.1728572 72.3213559,38.3522308 72.159905,38.5534793 C71.7453688,39.0609755 71.3308326,39.5684717 70.92066,40.0847179 C70.645757,40.4390902 70.4013988,40.8809619 70.1046782,41.1609599 C69.6246889,41.6115815 69.2712423,42.2984514 68.8392519,42.8234474 C68.5119865,43.2259444 68.1629034,43.5846918 67.8487286,44.0090636 C67.6567329,44.2715616 67.5083725,44.6303089 67.3381945,44.9409316 C67.1811071,45.2165546 67.0152926,45.4790526 66.8669323,45.7590505 C66.7676786,45.9501264 66.6774,46.1457557 66.5963929,46.3452961 C66.5833023,46.3802959 66.5920294,46.4852951 66.6094835,46.502795 C66.7491168,46.6602938 66.8843865,46.8702922 67.0371103,46.9402917 C67.3996792,47.1199836 67.6804849,47.4312429 67.8225473,47.8109102 C68.0756326,48.370906 67.9316358,48.9352768 67.5170996,48.9834014 C67.0720186,49.0271511 66.6225741,48.9834014 66.1731296,49.0315261 C65.9156808,49.0577759 65.6669591,49.180275 65.4095103,49.2590244 C65.3920562,49.2677743 65.3658749,49.2896492 65.3527843,49.2808992 C64.9513387,49.1365253 64.6982535,49.5871469 64.4495318,49.9502692 C64.1179028,50.4446405 63.8211822,51.0133863 63.5070074,51.5383824 C63.1841055,52.0852533 62.8699307,52.6496241 62.5252111,53.1527453 C62.1878511,53.6340453 61.8251637,54.0969892 61.4386899,54.5396099 C61.1288787,54.9071072 60.7972497,55.2221048 60.4699843,55.5546024 C60.0292668,56.000849 59.5972765,56.4733455 59.1434684,56.8758425 C58.9078373,57.0858409 58.6416615,57.20834 58.3842127,57.3308391 C58.0176754,57.5058378 57.6424111,57.6283369 57.2758738,57.7989606 C56.7260679,58.0614586 56.1806255,58.3327066 55.6351832,58.6083296 C55.1290127,58.8577027 54.6315692,59.1333256 54.1253987,59.3651989 C53.8955818,59.4702553 53.6537825,59.5466583 53.4054148,59.5926972 C52.9821515,59.6758216 53.0126963,59.7983207 53.0999671,60.3976912 C53.1828743,60.9314372 53.2003285,61.4564333 53.1872378,61.9901793 C53.1872378,62.1214283 53.1305118,62.2570523 53.09124,62.3839264 C52.8686995,63.1276708 52.6548861,63.8757902 52.4061644,64.5932849 C52.2534405,65.0395315 52.0396271,65.4332786 51.8519949,65.8489005 C51.7210888,66.1463983 51.5901826,66.452646 51.4461858,66.7457688 C51.3850963,66.8770178 51.3065526,66.986392 51.236736,67.1045161 C51.2061912,67.1526408 51.1756464,67.1920155 51.1538287,67.24889 C50.9181976,67.8613855 50.6912936,68.4826308 50.4469354,69.0863763 C50.1982137,69.7207466 49.9364014,70.3419919 49.674589,70.9632373 C49.5000475,71.3788592 49.2949611,71.7638563 49.1378737,72.1969781 C48.9196968,72.8050985 48.7364282,73.4438438 48.5400689,74.0738391 C48.5095241,74.1700883 48.4702523,74.2575877 48.4397075,74.3582119 C48.378618,74.5682104 48.330619,74.7869587 48.265166,74.9969572 C48.2215306,75.1282062 48.160441,75.2375804 48.1124421,75.3644544 C48.0382619,75.556953 47.9466276,75.7407016 47.9117193,75.9507 C47.8462662,76.3138223 47.9379005,76.4669462 48.160441,76.488821 C48.2477118,76.497571 48.3349826,76.5194458 48.4178898,76.5631955 C48.9720593,76.8563183 49.5393193,76.9131929 50.0803981,76.5850703 C50.4338448,76.3663219 50.7392925,75.9507 51.0840121,75.6663272 C51.4592764,75.3600795 51.8127231,74.883208 52.2621676,74.9969572 C52.7203392,75.1063314 53.0476046,75.5744529 53.3050534,76.1956982 C53.3268711,76.2525728 53.3355982,76.3925717 53.3137805,76.4231965 C53.2832357,76.4756961 53.2177826,76.4669462 53.1654201,76.4844461 L53.147966,76.4800711 C52.5283435,75.9681999 52.0309,76.5413206 51.577092,77.0881916 C51.2723467,77.4503831 50.8984907,77.7478713 50.4774802,77.963185 C49.9102201,78.2650578 49.3429601,78.5844304 48.7757,78.8600533 C48.5685574,78.9455901 48.344784,78.9829834 48.1211692,78.9694275 C47.5539091,78.9694275 47.1786448,79.4725487 46.9037418,80.2075433 C46.4717515,81.3712846 46.0353976,82.5394008 45.6688603,83.7600167 C45.4986823,84.3287625 45.3154137,84.5562608 44.9488764,84.6000105 C44.7306994,84.6262603 44.5037954,84.7881341 44.3597986,85.1687562 C44.2463466,85.461879 44.0718051,85.6981273 43.9147177,85.9387505 C43.8710823,86.004375 43.7750844,85.9825001 43.7052678,86 C43.7096313,85.8818759 43.6921772,85.737502 43.722722,85.6500026 C44.0194426,84.8537586 44.3117997,84.0531395 44.6347016,83.2875203 C44.7656078,82.9768976 44.9925118,82.780024 45.1103273,82.4606514 C45.4550469,81.5506582 45.8695831,80.7106645 46.0703059,79.6606723 C46.1139413,79.4506739 46.2186662,79.2800502 46.2579381,79.0744267 C46.2944054,78.8880797 46.2944054,78.696403 46.2579381,78.5100559 C46.2448474,78.4400565 46.0659423,78.3963068 45.9917622,78.4531814 C45.7517675,78.63693 45.5205,78.8644283 45.293596,79.0831767 L43.8230833,80.4962911 C43.3561847,80.9469127 42.889286,81.3931594 42.4180238,81.8306561 C42.160575,82.0712793 41.9074898,82.255028 41.5889514,82.1237789 C41.0827809,81.9225305 40.6027916,82.0625294 40.1664377,82.5612757 C40.1533471,82.5831505 40.135893,82.6137753 40.1184388,82.6225252 C39.9569879,82.6925247 39.7693557,82.8850233 39.6471766,82.5744006 C39.6297225,82.521901 39.7999005,82.1937784 39.9133525,82.0756543 C40.5155209,81.4631589 41.1220528,80.8681633 41.7373118,80.2819177 C42.0034876,80.0325446 42.2914812,79.840046 42.5620206,79.5950478 C42.8849225,79.3063 43.2165514,79.030677 43.5132721,78.6763047 C43.8972635,78.2081832 44.2463466,77.6569373 44.6128839,77.1538161 C44.7568807,76.9613175 44.7568807,76.8038187 44.5867027,76.6988195 C44.4174303,76.6027139 44.2391166,76.5235815 44.0543509,76.4625712 C43.836174,76.3838218 43.6136335,76.3400721 43.391093,76.2613227 C43.2165514,76.2000732 43.1510984,76.0031997 43.1685525,75.7100768 C43.1990973,75.1238312 43.0943724,74.9444576 42.7409257,75.0538317 C42.5314758,75.1238312 42.3394801,75.3075799 42.1387573,75.421329 C42.0514866,75.4650787 41.9554887,75.5263282 41.876945,75.4869535 C41.7154941,75.3994542 41.7024034,75.158831 41.8464002,74.9969572 C41.9198527,74.9036309 42.0139726,74.8287369 42.1213032,74.7782088 C42.5009311,74.6469598 42.8805589,74.4544612 43.2645504,74.4282114 C43.6338527,74.4187509 43.9997133,74.5014355 44.3292539,74.6688346 C44.9270587,74.9488325 45.5030458,75.0625817 46.0746694,74.5288357 C46.1881214,74.4194615 46.3364818,74.3757118 46.4499338,74.2575877 C46.5852035,74.1132138 46.7117461,73.9338401 46.8295617,73.7588414 C46.9953761,73.5138432 47.1873718,73.2950949 47.3095509,72.9975971 C47.5626362,72.3676018 47.7764496,71.6894819 48.0164442,71.0419867 C48.1691681,70.6394897 48.3524367,70.2676175 48.5007971,69.8607455 C48.8106083,69.0295017 49.1029654,68.1720081 49.4127767,67.3320144 C49.6614984,66.6538945 49.892766,65.9495247 50.1807595,65.3239044 C50.508025,64.6107847 50.6651124,63.7795409 50.8701987,62.974547 C51.0665579,62.1870528 50.9312882,61.4214336 50.7698373,60.6689392 C50.7480196,60.5683149 50.6520217,60.4589407 50.5822051,60.4370659 C50.1894866,60.3189418 49.7924046,60.2270675 49.3953225,60.1308182 C49.3080518,60.1089434 49.2076904,60.0870685 49.1247831,60.1220683 C48.993877,60.1745679 48.8935156,60.1789428 48.7975177,59.9820693 C48.7669729,59.9251947 48.6229761,59.9514445 48.5706137,60.025819 C48.3437097,60.3626915 48.1298962,60.7258137 47.9117193,61.088936 C47.5975445,61.6095571 47.2659155,62.0995535 46.9822855,62.6639243 C46.6332024,63.3507941 46.3277547,64.1076635 45.9873986,64.8164082 C45.7866759,65.24953 45.5597718,65.647652 45.3415949,66.0588989 C45.0579649,66.58827 44.7699713,67.1088911 44.4819777,67.6338872 C44.4557965,67.6863868 44.4208882,67.7563862 44.3903434,67.7651362 C44.0892592,67.8307607 43.9976249,68.3032572 43.8187198,68.58763 C43.6267241,68.8851278 43.6878136,69.2176253 43.9365354,69.3226245 C44.0238061,69.3576243 44.119804,69.3751242 44.2114383,69.3794991 C44.573612,69.396999 44.9314222,69.4276238 45.293596,69.4057489 C45.5514885,69.3980425 45.8052176,69.3385353 46.0397611,69.2307502 C46.4499338,69.0295017 47.2179166,69.1432509 47.5539091,69.9701197 C47.5757268,70.0182444 47.5757268,70.0882438 47.5888174,70.1494934 C47.545182,70.1757432 47.4928196,70.2282428 47.4491842,70.2151179 C47.3051874,70.1626183 47.1437365,70.1451184 47.0215574,70.0138694 C46.7466544,69.7076217 46.5197504,69.9482449 46.2579381,70.0838689 C45.8622149,70.2768637 45.4504885,70.4349591 45.0274201,70.5563653 C44.5037954,70.7182391 43.9627166,70.7488639 43.4652732,71.0288618 C43.1467348,71.2038605 42.7496528,71.1819857 42.5096581,71.6894819 C42.3612978,72.0044795 42.2260281,72.3282271 42.0776678,72.6432247 C41.990397,72.8182234 41.9162168,73.0413468 41.8027648,73.141971 C41.3925922,73.5094683 41.2442319,74.1657134 41.091508,74.8175835 C41.034782,75.0669566 40.9562383,75.1150813 40.8253321,75.023207 C40.7075166,74.9400826 40.6376999,74.8700831 40.694426,74.5857102 C40.8389826,73.9010819 40.9641211,73.2124762 41.0696903,72.5207257 C41.1220528,72.1838532 41.1569611,71.8207309 41.1569611,71.4751085 C41.1569611,70.9632373 40.9998737,70.8319883 40.7467884,71.0988613 C40.2973439,71.5801077 39.8566265,72.078854 39.407182,72.5688503 C39.3322877,72.6525713 39.2551708,72.7342667 39.1759144,72.8138485 C38.7395605,73.2469702 38.290116,73.6669671 37.8581257,74.1175887 C37.5832227,74.4063366 37.3475916,74.3669619 37.1468688,73.94259 C36.9417825,73.5138432 36.60579,73.4044691 36.330887,73.7238417 C36.1258007,73.9600899 35.9425321,74.2488378 35.7548999,74.5244607 C35.7149097,74.5812297 35.6908034,74.6476958 35.6850833,74.7169593 C35.6807197,75.0275819 35.5803584,75.1938307 35.4189074,75.3032049 C35.375272,75.3338297 35.3621814,75.4607037 35.3229096,75.5219532 C35.2705471,75.6182025 35.2094575,75.6969519 35.148368,75.7844513 C35.1047326,75.6269525 34.9869171,75.416954 35.0174618,75.3119548 C35.1221868,74.9094578 35.2443659,74.5025859 35.4101803,74.1657134 C35.6109031,73.7544664 35.8596248,73.4044691 36.0952559,73.0457217 C36.1650726,72.9407225 36.2697975,72.8969729 36.3570683,72.8313483 C36.7148785,72.5776002 37.0814157,72.345727 37.4392259,72.070104 C37.6137675,71.938855 37.6094039,71.5451079 37.4086812,71.3176096 C37.059598,70.9151127 36.7017879,70.4951158 36.2479798,70.7751137 C36.0865289,70.871363 35.9468956,71.0682365 35.8116259,71.2476102 C35.7374458,71.3351095 35.7025374,71.5101082 35.6283573,71.5844827 C35.5541771,71.6632321 35.3883626,71.7288566 35.375272,71.6851069 C35.318546,71.531983 35.2443659,71.2782349 35.2880012,71.1557359 C35.3941085,70.7687546 35.6398142,70.4350918 35.9774404,70.2194928 C36.1083466,70.1407434 36.2130715,69.9701197 36.3396141,69.8607455 C36.4268849,69.7732462 36.5403369,69.6376222 36.6188806,69.668247 C36.9854179,69.799496 37.3083198,69.5457479 37.6399487,69.4144989 C38.2246629,69.1826256 38.8050136,68.9332525 39.3766372,68.6401296 C39.9133525,68.3601317 40.4369772,67.9751346 40.978056,67.7082616 C41.7809471,67.3057646 42.5052946,66.6451445 43.1685525,65.8095258 C43.2907316,65.6564019 43.3780024,65.4157787 43.4827273,65.2232802 C43.5525439,65.1007811 43.6267241,64.982657 43.7009043,64.8689078 C44.0194426,64.4007863 44.3728893,63.9807894 44.6565193,63.4601683 C45.1365086,62.5851749 45.5597718,61.631432 46.022307,60.7345637 C46.2579381,60.283942 46.5197504,59.8770701 46.7771992,59.4526983 C46.873197,59.2951994 46.8950147,59.2339499 46.7771992,59.0020766 C46.5590222,58.54708 46.2448474,58.4770805 45.9612174,58.2627071 C45.80413,58.148958 45.6688603,57.9608344 45.5205,57.8252104 C45.3832901,57.6966083 45.2406154,57.5739954 45.0928732,57.4577132 C44.8659691,57.2827145 44.630338,57.1383405 44.4165246,56.9327171 C44.1472452,56.6682785 43.8909484,56.3908698 43.6485418,56.1014733 C42.8194694,55.1389805 41.9860335,54.1808626 41.1700517,53.187745 C40.8907852,52.8421226 40.6682447,52.3652512 40.4020688,51.993379 C40.1838919,51.6958812 39.9308066,51.4771328 39.7082662,51.1927599 C39.5555423,51.0002614 39.4333632,50.7377633 39.2806393,50.5408898 C38.8442855,49.980894 38.3948409,49.447148 37.9628506,48.8784022 C37.4566801,48.2002823 36.9636002,47.4871626 36.4617932,46.8046677 C36.081318,46.2785166 35.7799306,45.6992216 35.5672677,45.0853055 C35.4145439,44.6653087 35.1832763,44.3284362 35.0087348,43.9303142 C34.8254661,43.5015674 34.6683787,43.0421958 34.4938372,42.6003241 C34.4589289,42.5040748 34.4065664,42.4165755 34.362931,42.3334511 C34.3192956,42.2503267 34.2538425,42.1890772 34.2276613,42.0972029 C33.909123,40.9247116 33.6124023,39.7347205 33.2851369,38.5666042 C33.1127007,37.9001022 33.0160875,37.2161677 32.9971433,36.5278695 C32.9796892,36.1341224 32.8575101,35.7578752 32.8400559,35.3685031 C32.792057,34.2091368 32.6349696,33.0410205 32.8575101,31.8904041 C32.9709621,31.2954085 33.1280495,30.7266628 33.2633192,30.1404172 C33.2848996,30.0471302 33.2878656,29.950485 33.2720463,29.8560443 C33.1844689,29.4457699 33.0884506,29.0373526 32.9840527,28.6310534 C32.8138747,27.9879332 32.6349696,27.344813 32.460428,26.7060678 C32.4167926,26.5573189 32.3644302,26.41732 32.3338854,26.2685711 C32.2974699,25.9837619 32.155765,25.7230289 31.9368034,25.5379515 C31.7098993,25.3498279 31.5135401,25.0567051 31.2822725,24.8773315 C31.0776357,24.7103049 30.8395119,24.589439 30.5841063,24.5229591 C30.047391,24.404835 29.5106757,24.3479604 28.9695969,24.2604611 C28.7208752,24.2254613 28.4677899,24.1204621 28.2277953,24.1729617 C27.8394403,24.2473362 27.5427197,23.9367135 27.2241813,23.6960903 C27.1063658,23.6085909 26.9754596,23.5473414 26.8576441,23.4335922 C26.7772767,23.3503093 26.7227122,23.2454534 26.7005567,23.1317195 C26.6918296,23.066095 26.7878275,22.9392209 26.8401899,22.8692215 C27.2285449,22.4142249 27.6518082,22.1823516 28.1274339,22.3179756 L28.1274339,22.3136006 Z" id="Path"></path>
                </g>
            </g>
        </g>
    </g>
</svg>