<?xml version="1.0" encoding="UTF-8"?>
<!--Generator: Apple Native CoreSVG 341-->
<!DOCTYPE svg
PUBLIC "-//W3C//DTD SVG 1.1//EN"
       "http://www.w3.org/Graphics/SVG/1.1/DTD/svg11.dtd">
<svg version="1.1" xmlns="http://www.w3.org/2000/svg" xmlns:xlink="http://www.w3.org/1999/xlink" viewBox="0 0 3300 2200">
 <!--glyph: "", point size: 100.0, font version: "20.0d10e1", template writer version: "138.0.0"-->
 <style>.monochrome-0 {-sfsymbols-motion-group:1;-sfsymbols-layer-tags:4c9841146368ae4c}
.monochrome-1 {-sfsymbols-motion-group:0;-sfsymbols-layer-tags:4c9841146368ae4c}

.multicolor-0:tintColor {-sfsymbols-motion-group:1;-sfsymbols-layer-tags:4c9841146368ae4c}
.multicolor-1:tintColor {-sfsymbols-motion-group:0;-sfsymbols-layer-tags:4c9841146368ae4c}

.hierarchical-0:primary {-sfsymbols-motion-group:1;-sfsymbols-layer-tags:4c9841146368ae4c}
.hierarchical-1:tertiary {-sfsymbols-motion-group:0;-sfsymbols-layer-tags:4c9841146368ae4c}

.SFSymbolsPreviewWireframe {fill:none;opacity:1.0;stroke:black;stroke-width:0.5}
</style>
 <g id="Notes">
  <rect height="2200" id="artboard" style="fill:white;opacity:1" width="3300" x="0" y="0"/>
  <line style="fill:none;stroke:black;opacity:1;stroke-width:0.5;" x1="263" x2="3036" y1="292" y2="292"/>
  <text style="stroke:none;fill:black;font-family:sans-serif;font-size:13;font-weight:bold;" transform="matrix(1 0 0 1 263 322)">Weight/Scale Variations</text>
  <text style="stroke:none;fill:black;font-family:sans-serif;font-size:13;text-anchor:middle;" transform="matrix(1 0 0 1 559.711 322)">Ultralight</text>
  <text style="stroke:none;fill:black;font-family:sans-serif;font-size:13;text-anchor:middle;" transform="matrix(1 0 0 1 856.422 322)">Thin</text>
  <text style="stroke:none;fill:black;font-family:sans-serif;font-size:13;text-anchor:middle;" transform="matrix(1 0 0 1 1153.13 322)">Light</text>
  <text style="stroke:none;fill:black;font-family:sans-serif;font-size:13;text-anchor:middle;" transform="matrix(1 0 0 1 1449.84 322)">Regular</text>
  <text style="stroke:none;fill:black;font-family:sans-serif;font-size:13;text-anchor:middle;" transform="matrix(1 0 0 1 1746.56 322)">Medium</text>
  <text style="stroke:none;fill:black;font-family:sans-serif;font-size:13;text-anchor:middle;" transform="matrix(1 0 0 1 2043.27 322)">Semibold</text>
  <text style="stroke:none;fill:black;font-family:sans-serif;font-size:13;text-anchor:middle;" transform="matrix(1 0 0 1 2339.98 322)">Bold</text>
  <text style="stroke:none;fill:black;font-family:sans-serif;font-size:13;text-anchor:middle;" transform="matrix(1 0 0 1 2636.69 322)">Heavy</text>
  <text style="stroke:none;fill:black;font-family:sans-serif;font-size:13;text-anchor:middle;" transform="matrix(1 0 0 1 2933.4 322)">Black</text>
  <line style="fill:none;stroke:black;opacity:1;stroke-width:0.5;" x1="263" x2="3036" y1="1903" y2="1903"/>
  <g transform="matrix(0.2 0 0 0.2 263 1933)">
   <path d="m46.2402 4.15039c21.7773 0 39.4531-17.627 39.4531-39.4043s-17.6758-39.4043-39.4531-39.4043c-21.7285 0-39.4043 17.627-39.4043 39.4043s17.6758 39.4043 39.4043 39.4043Zm0-7.42188c-17.6758 0-31.9336-14.3066-31.9336-31.9824s14.2578-31.9824 31.9336-31.9824 31.9824 14.3066 31.9824 31.9824-14.3066 31.9824-31.9824 31.9824Zm-17.9688-31.9824c0 2.14844 1.51367 3.61328 3.75977 3.61328h10.498v10.5957c0 2.19727 1.46484 3.71094 3.61328 3.71094 2.24609 0 3.71094-1.51367 3.71094-3.71094v-10.5957h10.5957c2.19727 0 3.71094-1.46484 3.71094-3.61328 0-2.19727-1.51367-3.71094-3.71094-3.71094h-10.5957v-10.5469c0-2.24609-1.46484-3.75977-3.71094-3.75977-2.14844 0-3.61328 1.51367-3.61328 3.75977v10.5469h-10.498c-2.24609 0-3.75977 1.51367-3.75977 3.71094Z"/>
  </g>
  <g transform="matrix(0.2 0 0 0.2 281.506 1933)">
   <path d="m58.5449 14.5508c27.4902 0 49.8047-22.3145 49.8047-49.8047s-22.3145-49.8047-49.8047-49.8047-49.8047 22.3145-49.8047 49.8047 22.3145 49.8047 49.8047 49.8047Zm0-8.30078c-22.9492 0-41.5039-18.5547-41.5039-41.5039s18.5547-41.5039 41.5039-41.5039 41.5039 18.5547 41.5039 41.5039-18.5547 41.5039-41.5039 41.5039Zm-22.6562-41.5039c0 2.39258 1.66016 4.00391 4.15039 4.00391h14.3555v14.4043c0 2.44141 1.66016 4.15039 4.05273 4.15039 2.44141 0 4.15039-1.66016 4.15039-4.15039v-14.4043h14.4043c2.44141 0 4.15039-1.61133 4.15039-4.00391 0-2.44141-1.70898-4.15039-4.15039-4.15039h-14.4043v-14.3555c0-2.49023-1.70898-4.19922-4.15039-4.19922-2.39258 0-4.05273 1.70898-4.05273 4.19922v14.3555h-14.3555c-2.49023 0-4.15039 1.70898-4.15039 4.15039Z"/>
  </g>
  <g transform="matrix(0.2 0 0 0.2 304.924 1933)">
   <path d="m74.8535 28.3203c35.1074 0 63.623-28.4668 63.623-63.5742s-28.5156-63.623-63.623-63.623-63.5742 28.5156-63.5742 63.623 28.4668 63.5742 63.5742 63.5742Zm0-9.08203c-30.127 0-54.4922-24.3652-54.4922-54.4922s24.3652-54.4922 54.4922-54.4922 54.4922 24.3652 54.4922 54.4922-24.3652 54.4922-54.4922 54.4922Zm-28.8574-54.4922c0 2.58789 1.85547 4.39453 4.58984 4.39453h19.7266v19.7754c0 2.68555 1.85547 4.58984 4.44336 4.58984 2.68555 0 4.54102-1.85547 4.54102-4.58984v-19.7754h19.7754c2.68555 0 4.58984-1.80664 4.58984-4.39453 0-2.73438-1.85547-4.58984-4.58984-4.58984h-19.7754v-19.7266c0-2.73438-1.85547-4.63867-4.54102-4.63867-2.58789 0-4.44336 1.9043-4.44336 4.63867v19.7266h-19.7266c-2.73438 0-4.58984 1.85547-4.58984 4.58984Z"/>
  </g>
  <text style="stroke:none;fill:black;font-family:sans-serif;font-size:13;font-weight:bold;" transform="matrix(1 0 0 1 263 1953)">Design Variations</text>
  <text style="stroke:none;fill:black;font-family:sans-serif;font-size:13;" transform="matrix(1 0 0 1 263 1971)">Symbols are supported in up to nine weights and three scales.</text>
  <text style="stroke:none;fill:black;font-family:sans-serif;font-size:13;" transform="matrix(1 0 0 1 263 1989)">For optimal layout with text and other symbols, vertically align</text>
  <text style="stroke:none;fill:black;font-family:sans-serif;font-size:13;" transform="matrix(1 0 0 1 263 2007)">symbols with the adjacent text.</text>
  <line style="fill:none;stroke:#00AEEF;stroke-width:0.5;opacity:1.0;" x1="776" x2="776" y1="1919" y2="1933"/>
  <g transform="matrix(0.2 0 0 0.2 776 1933)">
   <path d="m16.5527 0.78125c2.58789 0 3.85742-0.976562 4.78516-3.71094l6.29883-17.2363h28.8086l6.29883 17.2363c0.927734 2.73438 2.19727 3.71094 4.73633 3.71094 2.58789 0 4.24805-1.5625 4.24805-4.00391 0-0.830078-0.146484-1.61133-0.537109-2.63672l-22.9004-60.9863c-1.12305-2.97852-3.125-4.49219-6.25-4.49219-3.02734 0-5.07812 1.46484-6.15234 4.44336l-22.9004 61.084c-0.390625 1.02539-0.537109 1.80664-0.537109 2.63672 0 2.44141 1.5625 3.95508 4.10156 3.95508Zm13.4766-28.3691 11.8652-32.8613h0.244141l11.8652 32.8613Z"/>
  </g>
  <line style="fill:none;stroke:#00AEEF;stroke-width:0.5;opacity:1.0;" x1="792.836" x2="792.836" y1="1919" y2="1933"/>
  <text style="stroke:none;fill:black;font-family:sans-serif;font-size:13;font-weight:bold;" transform="matrix(1 0 0 1 776 1953)">Margins</text>
  <text style="stroke:none;fill:black;font-family:sans-serif;font-size:13;" transform="matrix(1 0 0 1 776 1971)">Leading and trailing margins on the left and right side of each symbol</text>
  <text style="stroke:none;fill:black;font-family:sans-serif;font-size:13;" transform="matrix(1 0 0 1 776 1989)">can be adjusted by modifying the x-location of the margin guidelines.</text>
  <text style="stroke:none;fill:black;font-family:sans-serif;font-size:13;" transform="matrix(1 0 0 1 776 2007)">Modifications are automatically applied proportionally to all</text>
  <text style="stroke:none;fill:black;font-family:sans-serif;font-size:13;" transform="matrix(1 0 0 1 776 2025)">scales and weights.</text>
  <g transform="matrix(0.2 0 0 0.2 1289 1933)">
   <path d="m14.209 9.32617 8.49609 8.54492c4.29688 4.3457 9.22852 4.05273 13.8672-1.07422l53.4668-58.9355-4.83398-4.88281-53.0762 58.3984c-1.75781 2.00195-3.41797 2.49023-5.76172 0.146484l-5.85938-5.81055c-2.34375-2.29492-1.80664-4.00391 0.195312-5.81055l57.373-54.0039-4.88281-4.83398-57.959 54.4434c-4.93164 4.58984-5.32227 9.47266-1.02539 13.8184Zm32.0801-90.9668c-2.09961 2.05078-2.24609 4.93164-1.07422 6.88477 1.17188 1.80664 3.4668 2.97852 6.68945 2.14844 7.32422-1.70898 14.9414-2.00195 22.0703 2.68555l-2.92969 7.27539c-1.70898 4.15039-0.830078 7.08008 1.85547 9.81445l11.4746 11.5723c2.44141 2.44141 4.49219 2.53906 7.32422 2.05078l5.32227-0.976562 3.32031 3.36914-0.195312 2.7832c-0.195312 2.49023 0.439453 4.39453 2.88086 6.78711l3.80859 3.71094c2.39258 2.39258 5.46875 2.53906 7.8125 0.195312l14.5508-14.5996c2.34375-2.34375 2.24609-5.32227-0.146484-7.71484l-3.85742-3.80859c-2.39258-2.39258-4.24805-3.17383-6.64062-2.97852l-2.88086 0.244141-3.22266-3.17383 1.2207-5.61523c0.634766-2.83203-0.146484-5.0293-3.07617-7.95898l-10.9863-10.9375c-16.6992-16.6016-38.8672-16.2109-53.3203-1.75781Zm7.4707 1.85547c12.1582-8.88672 28.6133-7.37305 39.7461 3.75977l12.1582 12.0605c1.17188 1.17188 1.36719 2.09961 1.02539 3.80859l-1.61133 7.42188 7.51953 7.42188 4.93164-0.292969c1.26953-0.0488281 1.66016 0.0488281 2.63672 1.02539l2.88086 2.88086-12.207 12.207-2.88086-2.88086c-0.976562-0.976562-1.12305-1.36719-1.07422-2.68555l0.341797-4.88281-7.4707-7.42188-7.61719 1.26953c-1.61133 0.341797-2.34375 0.195312-3.56445-0.976562l-10.0098-10.0098c-1.26953-1.17188-1.41602-2.00195-0.634766-3.85742l4.39453-10.4492c-7.8125-7.27539-17.9688-10.4004-28.125-7.42188-0.78125 0.195312-1.07422-0.439453-0.439453-0.976562Z"/>
  </g>
  <text style="stroke:none;fill:black;font-family:sans-serif;font-size:13;font-weight:bold;" transform="matrix(1 0 0 1 1289 1953)">Exporting</text>
  <text style="stroke:none;fill:black;font-family:sans-serif;font-size:13;" transform="matrix(1 0 0 1 1289 1971)">Symbols should be outlined when exporting to ensure the</text>
  <text style="stroke:none;fill:black;font-family:sans-serif;font-size:13;" transform="matrix(1 0 0 1 1289 1989)">design is preserved when submitting to Xcode.</text>
  <text id="template-version" style="stroke:none;fill:black;font-family:sans-serif;font-size:13;text-anchor:end;" transform="matrix(1 0 0 1 3036 1933)">Template v.6.0</text>
  <text style="stroke:none;fill:black;font-family:sans-serif;font-size:13;text-anchor:end;" transform="matrix(1 0 0 1 3036 1951)">Requires Xcode 16 or greater</text>
  <text id="descriptive-name" style="stroke:none;fill:black;font-family:sans-serif;font-size:13;text-anchor:end;" transform="matrix(1 0 0 1 3036 1969)">Generated from filtervogelgruppe-59</text>
  <text style="stroke:none;fill:black;font-family:sans-serif;font-size:13;text-anchor:end;" transform="matrix(1 0 0 1 3036 1987)">Typeset at 100.0 points</text>
  <text style="stroke:none;fill:black;font-family:sans-serif;font-size:13;" transform="matrix(1 0 0 1 263 726)">Small</text>
  <text style="stroke:none;fill:black;font-family:sans-serif;font-size:13;" transform="matrix(1 0 0 1 263 1156)">Medium</text>
  <text style="stroke:none;fill:black;font-family:sans-serif;font-size:13;" transform="matrix(1 0 0 1 263 1586)">Large</text>
 </g>
 <g id="Guides">
  <g id="H-reference" style="fill:#27AAE1;stroke:none;" transform="matrix(1 0 0 1 339 696)">
   <path d="M0.993654 0L3.63775 0L29.3281-67.1323L30.0303-67.1323L30.0303-70.459L28.1226-70.459ZM11.6885-24.4799L46.9815-24.4799L46.2315-26.7285L12.4385-26.7285ZM55.1196 0L57.7637 0L30.6382-70.459L29.4326-70.459L29.4326-67.1323Z"/>
  </g>
  <line id="Baseline-S" style="fill:none;stroke:#27AAE1;opacity:1;stroke-width:0.5;" x1="263" x2="3036" y1="696" y2="696"/>
  <line id="Capline-S" style="fill:none;stroke:#27AAE1;opacity:1;stroke-width:0.5;" x1="263" x2="3036" y1="625.541" y2="625.541"/>
  <g id="H-reference" style="fill:#27AAE1;stroke:none;" transform="matrix(1 0 0 1 339 1126)">
   <path d="M0.993654 0L3.63775 0L29.3281-67.1323L30.0303-67.1323L30.0303-70.459L28.1226-70.459ZM11.6885-24.4799L46.9815-24.4799L46.2315-26.7285L12.4385-26.7285ZM55.1196 0L57.7637 0L30.6382-70.459L29.4326-70.459L29.4326-67.1323Z"/>
  </g>
  <line id="Baseline-M" style="fill:none;stroke:#27AAE1;opacity:1;stroke-width:0.5;" x1="263" x2="3036" y1="1126" y2="1126"/>
  <line id="Capline-M" style="fill:none;stroke:#27AAE1;opacity:1;stroke-width:0.5;" x1="263" x2="3036" y1="1055.54" y2="1055.54"/>
  <g id="H-reference" style="fill:#27AAE1;stroke:none;" transform="matrix(1 0 0 1 339 1556)">
   <path d="M0.993654 0L3.63775 0L29.3281-67.1323L30.0303-67.1323L30.0303-70.459L28.1226-70.459ZM11.6885-24.4799L46.9815-24.4799L46.2315-26.7285L12.4385-26.7285ZM55.1196 0L57.7637 0L30.6382-70.459L29.4326-70.459L29.4326-67.1323Z"/>
  </g>
  <line id="Baseline-L" style="fill:none;stroke:#27AAE1;opacity:1;stroke-width:0.5;" x1="263" x2="3036" y1="1556" y2="1556"/>
  <line id="Capline-L" style="fill:none;stroke:#27AAE1;opacity:1;stroke-width:0.5;" x1="263" x2="3036" y1="1485.54" y2="1485.54"/>
  <line id="right-margin-Black-S" style="fill:none;stroke:#00AEEF;stroke-width:0.5;opacity:1.0;" x1="2982.23" x2="2982.23" y1="600.785" y2="720.121"/>
  <line id="left-margin-Black-S" style="fill:none;stroke:#00AEEF;stroke-width:0.5;opacity:1.0;" x1="2884.57" x2="2884.57" y1="600.785" y2="720.121"/>
  <line id="right-margin-Regular-S" style="fill:none;stroke:#00AEEF;stroke-width:0.5;opacity:1.0;" x1="1496.11" x2="1496.11" y1="600.785" y2="720.121"/>
  <line id="left-margin-Regular-S" style="fill:none;stroke:#00AEEF;stroke-width:0.5;opacity:1.0;" x1="1403.58" x2="1403.58" y1="600.785" y2="720.121"/>
  <line id="right-margin-Ultralight-S" style="fill:none;stroke:#00AEEF;stroke-width:0.5;opacity:1.0;" x1="603.773" x2="603.773" y1="600.785" y2="720.121"/>
  <line id="left-margin-Ultralight-S" style="fill:none;stroke:#00AEEF;stroke-width:0.5;opacity:1.0;" x1="515.649" x2="515.649" y1="600.785" y2="720.121"/>
 </g>
 <g id="Symbols">
  <g id="Black-S" transform="matrix(1 0 0 1 2884.57 696)">
   <path class="monochrome-0 multicolor-0:tintColor hierarchical-0:primary SFSymbolsPreviewWireframe" d="M56.675-25.3985C56.735-25.4865 56.807-25.5705 56.851-25.6665C57.048-26.0659 57.3323-26.4159 57.683-26.6906L57.751-26.7466C58.1191-27.0826 58.1231-27.1466 57.939-27.6106C57.675-28.2626 57.443-28.9267 57.179-29.5747C56.991-30.0347 56.767-30.4747 56.5629-30.9268C56.5396-30.9868 56.4969-31.0371 56.4423-31.0704C56.3873-31.1038 56.3229-31.1178 56.2589-31.1108C55.8669-31.0908 55.4749-31.0908 55.0868-31.0468C54.2228-30.9508 53.3627-30.8468 52.5067-30.7147C52.0533-30.6391 51.6046-30.5377 51.1626-30.4107C50.6465-30.2707 50.1305-30.1307 49.6345-29.9387C49.1931-29.7864 48.7824-29.556 48.4224-29.2587C47.7423-28.6467 47.0463-28.0586 46.3742-27.4506C45.7342-26.8746 45.0941-26.2906 44.4781-25.6785C43.8181-25.0225 43.186-24.3385 42.542-23.6665C42.1099-23.2184 41.6859-22.7664 41.2499-22.3224C40.9338-21.9984 40.6258-21.6664 40.2898-21.3704C39.7018-20.8503 39.0897-20.3583 38.4937-19.8463C38.1817-19.5743 37.9016-19.2663 37.5896-18.9983C37.0382-18.5286 36.4808-18.0659 35.9175-17.6102C35.4375-17.2182 34.9574-16.8182 34.4534-16.4502C33.9974-16.1141 33.5053-15.8261 33.0373-15.4981C32.7573-15.2981 32.4573-15.1341 32.2132-14.8701C32.0212-14.6621 31.7212-14.5501 31.4652-14.4021L29.8611-13.498L28.749-12.898L27.7369-12.338C27.6049-12.266 27.4729-12.206 27.3409-12.138C26.8409-11.87 26.4048-12.018 26.0168-12.362C25.8488-12.51 25.6968-12.574 25.4608-12.514C25.3209-12.4863 25.1767-12.49 25.0384-12.5247C24.9001-12.5593 24.7711-12.624 24.6607-12.714C24.5679-12.7763 24.4976-12.8664 24.4602-12.9717C24.4227-13.077 24.4201-13.1914 24.4527-13.298C24.4944-13.455 24.5506-13.6077 24.6207-13.7541C24.7087-13.9381 24.8167-14.1181 24.9247-14.2941C25.0323-14.4631 25.0988-14.6551 25.1189-14.8544C25.1391-15.0538 25.1123-15.2551 25.0407-15.4421C24.8487-15.9821 24.9887-16.4422 25.3768-16.8422C25.5808-17.0582 25.7528-17.3022 25.9568-17.5142C26.3168-17.8862 26.7129-18.2262 27.0489-18.6143C27.6449-19.3063 28.409-19.7983 29.085-20.3943C30.0571-21.2624 31.0212-22.1384 32.0052-22.9944C32.6693-23.5705 33.3373-24.1545 34.0614-24.6505C34.6214-25.0345 35.1054-25.4905 35.6215-25.9226C36.2135-26.4146 36.8256-26.8826 37.4216-27.3626C38.1937-27.9906 38.9537-28.6267 39.7258-29.2507C40.3418-29.7507 40.9699-30.2307 41.5819-30.7307C42.1979-31.2428 42.81-31.7588 43.394-32.3028C44.3541-33.1908 45.1541-34.2029 45.6622-35.4149C45.9902-36.195 46.1742-37.015 46.2822-37.855C46.3142-38.075 46.3702-38.2911 46.3942-38.5111C46.4262-38.8031 46.4622-39.0991 46.4582-39.3911C46.4546-40.3888 46.6449-41.3778 47.0183-42.3032C47.3303-43.1073 47.8263-43.7953 48.2704-44.5193L49.2704-46.1634C49.3224-46.2474 49.3664-46.3355 49.4304-46.4075C49.8105-46.8555 50.0545-47.3915 50.3625-47.8875C50.6545-48.3435 51.0026-48.7716 51.3066-49.2276C51.7946-49.9556 52.4507-50.5396 53.0107-51.2077C53.2667-51.5077 53.5947-51.7477 53.8908-52.0157L54.1308-52.2157L55.0788-53.0837C55.1308-53.1317 55.1908-53.1797 55.2269-53.2437C55.4269-53.5837 55.7509-53.7998 56.0269-54.0638C56.5869-54.5918 57.123-55.1438 57.667-55.6878C57.887-55.9078 58.1111-56.1279 58.3191-56.3559C58.7431-56.8359 59.1471-57.3399 59.5872-57.8039C59.8552-58.0839 60.1952-58.2959 60.4752-58.568C61.0673-59.144 61.8073-59.444 62.5554-59.712C62.9234-59.844 63.3234-59.896 63.7114-59.944C64.5915-60.044 65.4636-60.004 66.3396-59.872C66.7637-59.808 67.1677-59.708 67.5597-59.552C68.1198-59.332 68.6878-59.1 69.0958-58.616C69.1242-58.5814 69.1578-58.5517 69.1958-58.528C69.6639-58.2439 69.8519-57.7999 69.8759-57.2799C69.8959-56.9119 69.8679-56.5439 69.8759-56.1759C69.8879-55.7638 69.9159-55.7238 70.3199-55.7038C70.8519-55.6798 71.332-55.4878 71.82-55.3198C72.068-55.2358 72.22-55.0398 72.3801-54.8638C72.4721-54.7638 72.4241-54.6638 72.3401-54.5918C72.0577-54.2979 71.717-54.0663 71.34-53.9118C70.94-53.7718 70.5559-53.5997 70.1199-53.5797C69.8679-53.5637 69.7919-53.4517 69.8279-53.1917C69.8799-52.7637 69.9719-52.3357 69.9879-51.9077C70.0079-51.3557 69.9719-50.8036 69.9639-50.2516C69.9639-50.0916 69.9799-49.9316 69.9799-49.7716C69.9799-49.5436 69.9679-49.3156 69.9559-49.0916C69.9559-49.0516 69.9319-49.0076 69.9279-48.9636L69.7519-47.4475C69.7119-47.0595 69.6879-46.6715 69.6319-46.2834C69.6119-46.1114 69.5359-45.9474 69.4959-45.7794C69.4675-45.6887 69.4542-45.5944 69.4558-45.4994C69.5239-44.6313 69.3958-43.7873 69.1878-42.9552C69.0052-42.2409 68.7955-41.5339 68.5598-40.8352C68.4398-40.4831 68.2798-40.1351 68.0918-39.8111C67.4437-38.6751 66.7997-37.535 66.1116-36.423C65.6556-35.691 65.0715-35.0629 64.3555-34.5629C63.8835-34.2309 63.4514-33.8429 63.0114-33.4709C62.2913-32.8548 61.4353-32.4788 60.5712-32.1268C60.2672-32.0068 59.9712-31.8708 59.6552-31.7788C59.0591-31.6108 58.4551-31.4668 57.851-31.3108C57.571-31.2388 57.523-31.1788 57.591-30.9068C57.735-30.3067 57.875-29.7027 58.055-29.1067C58.2271-28.5347 58.4391-27.9786 58.6351-27.4146C58.7071-27.2106 58.8551-27.1226 59.0631-27.0746C59.5512-26.9666 60.0392-26.8346 60.5272-26.6986C60.7592-26.6386 60.8552-26.4986 60.8352-26.2546C60.8192-26.0146 60.7832-25.7705 60.7352-25.5345C60.6646-25.2985 60.6716-25.0462 60.7552-24.8145C60.8032-24.7065 60.7952-24.5745 60.8032-24.4465C60.8152-24.1545 60.6632-24.0385 60.3832-24.1265C59.9672-24.2505 59.9672-24.2505 59.8472-23.8345C59.8072-23.6985 59.7512-23.5705 59.7112-23.4344C59.6712-23.2864 59.7152-23.2424 59.8712-23.2784C59.8912-23.2864 59.9112-23.3024 59.9312-23.3024L60.1192-23.2904C60.0952-23.2264 60.0952-23.1384 60.0552-23.0984C59.8552-22.9264 59.6472-22.7784 59.3631-22.7864C58.9871-22.7984 58.6071-22.7824 58.2351-22.8344C58.011-22.8821 57.798-22.9718 57.607-23.0984C57.327-23.2584 57.047-23.4344 56.795-23.6385C56.6029-23.7985 56.4469-23.9985 56.2829-24.1865C56.2499-24.2275 56.2303-24.2778 56.2269-24.3305C56.1949-24.8025 56.1629-25.2745 56.3549-25.7265C56.3869-25.7945 56.4709-25.8385 56.5309-25.8945C56.5709-25.8145 56.6269-25.7425 56.643-25.6625C56.655-25.5905 56.6269-25.5065 56.6149-25.4305L56.675-25.3985L56.675-25.3985ZM61.43-24.2963C61.322-24.5845 61.282-24.8567 61.1101-25.0969C60.6761-25.723 60.2146-26.3295 59.7263-26.9142C59.528-26.9856 59.3164-27.013 59.1065-26.9943C58.5186-26.586 57.6187-26.1857 57.4948-25.7413C57.2148-24.7406 57.8307-23.8079 59.5704-23.1394C60.1423-22.9152 60.6222-22.9592 60.8621-23.2875C61.1021-23.6157 61.25-23.964 61.43-24.2963ZM59.2295-23.0077C59.7854-22.9557 60.1373-23.1678 60.3292-23.596C60.5052-23.9962 60.6891-24.3884 60.8611-24.7846C61.6208-26.5135 62.0127-26.3094 59.4215-26.9457C58.8816-27.0818 58.4777-26.9737 58.3138-26.4895C58.0938-25.8371 57.9299-25.1688 57.686-24.5205C57.2261-23.2959 57.2661-23.2238 58.8176-23.0518L59.2295-23.0077L59.2295-23.0077ZM58.1006-27L57.7285-26.928C57.1403-25.7876 57.5124-24.6352 58.0606-23.5428C58.3527-22.9546 60.7216-22.8185 61.2218-23.2627C61.794-23.7669 61.0937-25.3954 60.2494-25.7115C59.6892-25.9156 59.229-26.2397 58.7449-26.5278C58.5088-26.6679 58.3167-26.8439 58.1046-27L58.1006-27ZM61.43-24.4996C61.258-26.4201 60.4061-27.1003 58.2184-26.9883C57.5105-26.9483 57.2225-26.6762 57.5905-26.1641C58.1144-25.4319 58.7023-24.7277 59.3183-24.0475C59.6982-23.6274 59.8702-22.7672 60.7061-23.0593C61.122-23.2033 61.198-23.9995 61.43-24.4996L61.43-24.4996ZM59.5061-23L60.5413-23.08C60.8531-23.708 61.6325-24.452 61.3807-24.94C60.969-25.716 59.8738-26.32 59.0705-27C58.4829-26.368 57.3118-25.676 57.4397-25.12C57.6195-24.36 58.7707-23.704 59.5061-23L59.5061-23Z"/>
   <path class="monochrome-1 multicolor-1:tintColor hierarchical-1:tertiary SFSymbolsPreviewWireframe" d="M48.9411-84C55.3091-84.0013 61.615-82.7479 67.4985-80.3116C73.382-77.8752 78.7279-74.3036 83.2305-69.8009C87.7334-65.2983 91.305-59.9524 93.7418-54.0682C96.1779-48.1846 97.4312-41.8789 97.43-35.5124C97.43-8.72255 75.7254 13 48.9424 13C22.156 13 0.43-8.726 0.43-35.5124C0.43-62.2926 22.1539-84 48.9411-84ZM48.9424-70C29.8835-70 14.43-54.5582 14.43-35.5124C14.43-16.458 29.888-0.999999 48.9424-0.999999C67.9909-0.999999 83.43-16.4519 83.43-35.5138C83.4309-40.0428 82.5395-44.5276 80.8069-48.7121C79.0739-52.8969 76.5337-56.6989 73.3311-59.9013C70.1287-63.1038 66.3266-65.644 62.1422-67.3767C57.9578-69.1095 53.4729-70.0009 48.9424-70Z"/>
  </g>
  <g id="Regular-S" transform="matrix(1 0 0 1 1403.58 696)">
   <path class="monochrome-0 multicolor-0:tintColor hierarchical-0:primary SFSymbolsPreviewWireframe" d="M55.6469-24.2707C55.7106-24.3641 55.787-24.4533 55.8337-24.5552C56.0428-24.9791 56.3447-25.3506 56.7169-25.6422L56.7891-25.7016C57.1798-26.0583 57.184-26.1262 56.9887-26.6188C56.7084-27.3109 56.4622-28.0158 56.1819-28.7037C55.9823-29.192 55.7446-29.659 55.528-30.1389C55.5032-30.2025 55.4579-30.256 55.3999-30.2914C55.3415-30.3267 55.2732-30.3416 55.2053-30.3342C54.7892-30.3129 54.373-30.3129 53.9612-30.2662C53.044-30.1643 52.1311-30.0539 51.2224-29.9138C50.7412-29.8335 50.2649-29.7259 49.7957-29.5911C49.2479-29.4425 48.7002-29.2939 48.1737-29.0901C47.7052-28.9283 47.2692-28.6838 46.8871-28.3682C46.1652-27.7185 45.4264-27.0944 44.713-26.4489C44.0337-25.8375 43.3543-25.2176 42.7004-24.5679C41.9998-23.8715 41.3289-23.1454 40.6452-22.4321C40.1866-21.9565 39.7366-21.4767 39.2737-21.0054C38.9383-20.6614 38.6113-20.309 38.2546-19.9948C37.6305-19.4428 36.9808-18.9205 36.3481-18.377C36.0169-18.0883 35.7197-17.7613 35.3885-17.4768C34.8032-16.9783 34.2115-16.4871 33.6136-16.0034C33.1041-15.5873 32.5945-15.1627 32.0595-14.772C31.5754-14.4153 31.0532-14.1096 30.5564-13.7614C30.2591-13.5491 29.9407-13.375 29.6817-13.0948C29.4778-12.874 29.1594-12.7551 28.8876-12.598L27.1849-11.6384L26.0045-11.0014L24.9302-10.407C24.7901-10.3305 24.65-10.2669 24.5098-10.1947C23.9791-9.91018 23.5162-10.0673 23.1044-10.4325C22.926-10.5896 22.7647-10.6575 22.5142-10.5938C22.3657-10.5644 22.2126-10.5683 22.0658-10.6051C21.919-10.6419 21.7821-10.7106 21.6649-10.8061C21.5665-10.8723 21.4918-10.9678 21.4521-11.0796C21.4123-11.1915 21.4095-11.3128 21.4441-11.4261C21.4884-11.5927 21.5481-11.7548 21.6225-11.9101C21.7159-12.1054 21.8305-12.2965 21.9452-12.4833C22.0594-12.6627 22.13-12.8666 22.1513-13.0782C22.1727-13.2898 22.1443-13.5035 22.0683-13.702C21.8645-14.2752 22.0131-14.7635 22.425-15.1881C22.6415-15.4174 22.8241-15.6765 23.0407-15.9015C23.4228-16.2964 23.8432-16.6573 24.1999-17.0692C24.8326-17.8038 25.6436-18.3261 26.3612-18.9587C27.393-19.8801 28.4163-20.8101 29.4609-21.7187C30.1657-22.3302 30.8748-22.9501 31.6434-23.4766C32.2378-23.8843 32.7516-24.3683 33.2994-24.8269C33.9278-25.3492 34.5775-25.846 35.2102-26.3555C36.0297-27.0222 36.8364-27.6973 37.6559-28.3597C38.3098-28.8905 38.9765-29.4 39.6262-29.9308C40.2801-30.4743 40.9297-31.0221 41.5497-31.5995C42.5687-32.5422 43.418-33.6165 43.9572-34.903C44.3054-35.731 44.5007-36.6015 44.6154-37.4932C44.6494-37.7267 44.7088-37.956 44.7343-38.1896C44.7682-38.4995 44.8065-38.8137 44.8022-39.1237C44.7983-40.1828 45.0004-41.2326 45.3967-42.2149C45.7279-43.0684 46.2544-43.7987 46.7257-44.5673L47.7873-46.3125C47.8425-46.4017 47.8892-46.4951 47.9571-46.5715C48.3605-47.0471 48.6195-47.6161 48.9465-48.1426C49.2564-48.6267 49.6258-49.081 49.9486-49.5651C50.4666-50.3379 51.163-50.9578 51.7574-51.6669C52.0292-51.9854 52.3774-52.2402 52.6916-52.5246L52.9463-52.737L53.9527-53.6584C54.0079-53.7093 54.0716-53.7603 54.1098-53.8282C54.3221-54.1891 54.666-54.4184 54.959-54.6987C55.5535-55.2592 56.1225-55.8451 56.6999-56.4226C56.9335-56.6562 57.1713-56.8897 57.3921-57.1317C57.8422-57.6413 58.271-58.1763 58.7381-58.6688C59.0226-58.9661 59.3835-59.1911 59.6807-59.4798C60.3092-60.0913 61.0947-60.4098 61.8887-60.6942C62.2794-60.8344 62.704-60.8896 63.1159-60.9405C64.05-61.0467 64.9757-61.0042 65.9056-60.8641C66.3557-60.7962 66.7846-60.69 67.2007-60.5244C67.7951-60.2909 68.3981-60.0446 68.8312-59.5308C68.8613-59.4941 68.897-59.4626 68.9374-59.4374C69.4342-59.1359 69.6337-58.6646 69.6592-58.1126C69.6804-57.7219 69.6507-57.3313 69.6592-56.9406C69.6719-56.5033 69.7017-56.4608 70.1305-56.4396C70.6953-56.4141 71.2048-56.2103 71.7228-56.032C71.9861-55.9428 72.1474-55.7347 72.3173-55.5479C72.415-55.4418 72.364-55.3356 72.2748-55.2592C71.9751-54.9472 71.6135-54.7013 71.2133-54.5373C70.7887-54.3887 70.381-54.2061 69.9182-54.1849C69.6507-54.1679 69.57-54.049 69.6082-53.773C69.6634-53.3187 69.7611-52.8643 69.7781-52.41C69.7993-51.824 69.7611-51.2381 69.7526-50.6521C69.7526-50.4822 69.7696-50.3124 69.7696-50.1426C69.7696-49.9005 69.7569-49.6585 69.7441-49.4207C69.7441-49.3782 69.7186-49.3315 69.7144-49.2848L69.5276-47.6755C69.4851-47.2637 69.4596-46.8518 69.4002-46.4399C69.379-46.2573 69.2983-46.0832 69.2558-45.9048C69.2257-45.8086 69.2116-45.7084 69.2134-45.6076C69.2855-44.6862 69.1497-43.7902 68.9289-42.907C68.735-42.1487 68.5124-41.3982 68.2622-40.6566C68.1348-40.2829 67.965-39.9135 67.7654-39.5696C67.0775-38.3637 66.3939-37.1535 65.6636-35.9731C65.1795-35.196 64.5596-34.5294 63.7995-33.9986C63.2985-33.6462 62.8399-33.2343 62.3728-32.8394C61.6085-32.1855 60.6998-31.7864 59.7826-31.4127C59.4599-31.2853 59.1457-31.1409 58.8103-31.0433C58.1776-30.8649 57.5364-30.7121 56.8953-30.5465C56.598-30.4701 56.5471-30.4064 56.6193-30.1176C56.7721-29.4807 56.9207-28.8395 57.1118-28.2069C57.2944-27.5997 57.5194-27.0094 57.7275-26.4107C57.8039-26.1942 57.961-26.1008 58.1818-26.0498C58.6999-25.9352 59.2179-25.795 59.7359-25.6507C59.9822-25.587 60.0841-25.4384 60.0629-25.1793C60.0459-24.9246 60.0077-24.6656 59.9567-24.415C59.8817-24.1645 59.8892-23.8967 59.978-23.6507C60.0289-23.5361 60.0204-23.396 60.0289-23.2601C60.0417-22.9501 59.8803-22.827 59.5831-22.9204C59.1415-23.052 59.1415-23.052 59.0141-22.6104C58.9716-22.4661 58.9122-22.3302 58.8697-22.1858C58.8273-22.0287 58.874-21.982 59.0396-22.0202C59.0608-22.0287 59.082-22.0457 59.1033-22.0457L59.3028-22.0329C59.2774-21.965 59.2774-21.8716 59.2349-21.8291C59.0226-21.6465 58.8018-21.4894 58.5003-21.4979C58.1012-21.5107 57.6978-21.4937 57.3029-21.5489C57.0651-21.5995 56.839-21.6947 56.6362-21.8291C56.339-21.999 56.0418-22.1858 55.7743-22.4024C55.5705-22.5722 55.4049-22.7845 55.2308-22.9841C55.1957-23.0276 55.1749-23.081 55.1713-23.1369C55.1374-23.638 55.1034-24.139 55.3072-24.6189C55.3412-24.691 55.4303-24.7377 55.494-24.7972C55.5365-24.7123 55.5959-24.6358 55.6129-24.5509C55.6257-24.4745 55.5959-24.3853 55.5832-24.3046L55.6469-24.2707L55.6469-24.2707ZM59.634-24.1603C59.5194-24.466 59.4769-24.7547 59.2943-25.0095C58.8336-25.6737 58.3436-26.317 57.8252-26.9373C57.6146-27.013 57.3899-27.042 57.167-27.0222C56.5428-26.5891 55.5874-26.1645 55.4558-25.6931C55.1586-24.6316 55.8125-23.6422 57.6596-22.9331C58.2668-22.6953 58.7763-22.7421 59.0311-23.0902C59.2858-23.4384 59.443-23.8078 59.634-24.1603ZM57.2986-22.793C57.8889-22.7378 58.2625-22.9629 58.4663-23.4172C58.6532-23.8418 58.8485-24.2579 59.0311-24.6783C59.8378-26.5126 60.254-26.2961 57.5025-26.9712C56.9292-27.1156 56.5004-27.0009 56.3263-26.4872C56.0927-25.795 55.9186-25.0859 55.6596-24.3981C55.1713-23.0987 55.2138-23.0223 56.8613-22.8397L57.2986-22.793L57.2986-22.793ZM56.1012-27.0307L55.7063-26.9542C55.0822-25.7441 55.477-24.5212 56.0588-23.362C56.3687-22.7378 58.8825-22.5934 59.4132-23.0648C60.0204-23.5998 59.2774-25.328 58.3814-25.6634C57.787-25.88 57.2986-26.2239 56.7849-26.5296C56.5343-26.6782 56.3305-26.8651 56.1055-27.0307L56.1012-27.0307ZM59.634-24.3768C59.4514-26.415 58.547-27.1368 56.2244-27.0179C55.4728-26.9755 55.1671-26.6867 55.5577-26.1432C56.114-25.3662 56.7382-24.6189 57.3921-23.897C57.7954-23.4512 57.978-22.5382 58.8655-22.8482C59.3071-23.0011 59.3878-23.8461 59.634-24.3768L59.634-24.3768ZM57.5916-22.7845L58.6914-22.8694C59.0226-23.5361 59.8506-24.3259 59.5831-24.8439C59.1457-25.6677 57.9823-26.3088 57.1288-27.0307C56.5046-26.3598 55.2605-25.6252 55.3964-25.035C55.5874-24.2282 56.8103-23.5318 57.5916-22.7845L57.5916-22.7845Z"/>
   <path class="monochrome-1 multicolor-1:tintColor hierarchical-1:tertiary SFSymbolsPreviewWireframe" d="M46.4321-81.8365C52.4502-81.8377 58.4096-80.6532 63.9698-78.3508C69.53-76.0483 74.5822-72.6729 78.8374-68.4176C83.0928-64.1624 86.4682-59.1103 88.771-53.5496C91.0733-47.9892 92.2577-42.03 92.2566-36.0127C92.2566-10.693 71.744 9.83658 46.4328 9.83658C21.1173 9.83658 0.5835-10.6972 0.5835-36.0127C0.5835-61.3211 21.1145-81.8365 46.4321-81.8365ZM46.4328-75.0865C24.8413-75.0865 7.3335-57.592 7.3335-36.0127C7.3335-14.4252 24.8452 3.08658 46.4328 3.08658C68.0148 3.08658 85.5066-14.4197 85.5066-36.0133C85.5076-41.1447 84.4976-46.226 82.5345-50.9672C80.571-55.7085 77.693-60.0162 74.0644-63.6446C70.4361-67.273 66.1283-70.1511 61.3873-72.1143C56.6463-74.0776 51.5649-75.0875 46.4328-75.0865Z"/>
  </g>
  <g id="Ultralight-S" transform="matrix(1 0 0 1 515.649 696)">
   <path class="monochrome-0 multicolor-0:tintColor hierarchical-0:primary SFSymbolsPreviewWireframe" d="M53.5779-25.2707C53.6416-25.3641 53.718-25.4533 53.7647-25.5552C53.9738-25.9791 54.2757-26.3506 54.6479-26.6422L54.7201-26.7016C55.1108-27.0583 55.115-27.1262 54.9197-27.6188C54.6394-28.3109 54.3932-29.0158 54.1129-29.7037C53.9133-30.192 53.6756-30.659 53.459-31.1389C53.4342-31.2025 53.3889-31.256 53.3309-31.2914C53.2725-31.3267 53.2042-31.3416 53.1363-31.3342C52.7202-31.3129 52.304-31.3129 51.8922-31.2662C50.975-31.1643 50.0621-31.0539 49.1534-30.9138C48.6722-30.8335 48.1959-30.7259 47.7267-30.5911C47.1789-30.4425 46.6312-30.2939 46.1047-30.0901C45.6362-29.9283 45.2002-29.6838 44.8181-29.3682C44.0962-28.7185 43.3574-28.0944 42.644-27.4489C41.9647-26.8375 41.2853-26.2176 40.6314-25.5679C39.9308-24.8715 39.2599-24.1454 38.5762-23.4321C38.1176-22.9565 37.6676-22.4767 37.2047-22.0054C36.8693-21.6614 36.5423-21.309 36.1856-20.9948C35.5615-20.4428 34.9118-19.9205 34.2791-19.377C33.9479-19.0883 33.6507-18.7613 33.3195-18.4768C32.7342-17.9783 32.1425-17.4871 31.5446-17.0034C31.0351-16.5873 30.5255-16.1627 29.9905-15.772C29.5064-15.4153 28.9842-15.1096 28.4874-14.7614C28.1901-14.5491 27.8717-14.375 27.6127-14.0948C27.4088-13.874 27.0904-13.7551 26.8186-13.598L25.1159-12.6384L23.9355-12.0014L22.8612-11.407C22.7211-11.3305 22.581-11.2669 22.4408-11.1947C21.9101-10.9102 21.4472-11.0673 21.0354-11.4325C20.857-11.5896 20.6957-11.6575 20.4452-11.5938C20.2967-11.5644 20.1436-11.5683 19.9968-11.6051C19.85-11.6419 19.7131-11.7106 19.5959-11.8061C19.4974-11.8723 19.4228-11.9678 19.3831-12.0796C19.3433-12.1915 19.3405-12.3128 19.3751-12.4261C19.4194-12.5927 19.4791-12.7548 19.5535-12.9101C19.6469-13.1054 19.7615-13.2965 19.8762-13.4833C19.9904-13.6627 20.0609-13.8666 20.0823-14.0782C20.1037-14.2898 20.0753-14.5035 19.9993-14.702C19.7955-15.2752 19.9441-15.7635 20.356-16.1881C20.5725-16.4174 20.7551-16.6765 20.9717-16.9015C21.3538-17.2964 21.7742-17.6573 22.1309-18.0692C22.7636-18.8038 23.5746-19.3261 24.2922-19.9587C25.324-20.8801 26.3473-21.8101 27.3919-22.7187C28.0967-23.3302 28.8058-23.9501 29.5744-24.4766C30.1688-24.8843 30.6826-25.3683 31.2304-25.8269C31.8588-26.3492 32.5085-26.846 33.1412-27.3555C33.9607-28.0222 34.7674-28.6973 35.5869-29.3597C36.2408-29.8905 36.9075-30.4 37.5572-30.9308C38.2111-31.4743 38.8607-32.0221 39.4807-32.5995C40.4997-33.5422 41.349-34.6165 41.8882-35.903C42.2364-36.731 42.4317-37.6015 42.5464-38.4932C42.5804-38.7267 42.6398-38.956 42.6653-39.1896C42.6992-39.4995 42.7375-39.8137 42.7332-40.1237C42.7293-41.1828 42.9314-42.2326 43.3277-43.2149C43.6589-44.0684 44.1854-44.7987 44.6567-45.5673L45.7183-47.3125C45.7735-47.4017 45.8202-47.4951 45.8881-47.5715C46.2915-48.0471 46.5505-48.6161 46.8775-49.1426C47.1874-49.6267 47.5568-50.081 47.8796-50.5651C48.3976-51.3379 49.094-51.9578 49.6884-52.6669C49.9602-52.9854 50.3084-53.2402 50.6226-53.5246L50.8773-53.737L51.8837-54.6584C51.9389-54.7093 52.0026-54.7603 52.0408-54.8282C52.2531-55.1891 52.597-55.4184 52.89-55.6987C53.4845-56.2592 54.0535-56.8451 54.6309-57.4226C54.8645-57.6562 55.1023-57.8897 55.3231-58.1317C55.7732-58.6413 56.202-59.1763 56.6691-59.6688C56.9536-59.9661 57.3145-60.1911 57.6117-60.4798C58.2402-61.0913 59.0257-61.4098 59.8197-61.6942C60.2104-61.8344 60.635-61.8896 61.0469-61.9405C61.981-62.0467 62.9067-62.0042 63.8366-61.8641C64.2867-61.7962 64.7156-61.69 65.1317-61.5244C65.7261-61.2909 66.3291-61.0446 66.7622-60.5308C66.7923-60.4941 66.828-60.4626 66.8684-60.4374C67.3652-60.1359 67.5647-59.6646 67.5902-59.1126C67.6114-58.7219 67.5817-58.3313 67.5902-57.9406C67.6029-57.5033 67.6327-57.4608 68.0615-57.4396C68.6263-57.4141 69.1358-57.2103 69.6538-57.032C69.9171-56.9428 70.0784-56.7347 70.2483-56.5479C70.346-56.4418 70.295-56.3356 70.2058-56.2592C69.9061-55.9472 69.5445-55.7013 69.1443-55.5373C68.7197-55.3887 68.312-55.2061 67.8492-55.1849C67.5817-55.1679 67.501-55.049 67.5392-54.773C67.5944-54.3187 67.6921-53.8643 67.7091-53.41C67.7303-52.824 67.6921-52.2381 67.6836-51.6521C67.6836-51.4822 67.7006-51.3124 67.7006-51.1426C67.7006-50.9005 67.6879-50.6585 67.6751-50.4207C67.6751-50.3782 67.6496-50.3315 67.6454-50.2848L67.4586-48.6755C67.4161-48.2637 67.3906-47.8518 67.3312-47.4399C67.31-47.2573 67.2293-47.0832 67.1868-46.9048C67.1567-46.8086 67.1426-46.7084 67.1444-46.6076C67.2165-45.6862 67.0807-44.7902 66.8599-43.907C66.666-43.1487 66.4434-42.3982 66.1932-41.6566C66.0658-41.2829 65.896-40.9135 65.6964-40.5696C65.0085-39.3637 64.3249-38.1535 63.5946-36.9731C63.1105-36.196 62.4906-35.5294 61.7305-34.9986C61.2295-34.6462 60.7709-34.2343 60.3038-33.8394C59.5395-33.1855 58.6308-32.7864 57.7136-32.4127C57.3909-32.2853 57.0767-32.1409 56.7413-32.0433C56.1086-31.8649 55.4674-31.7121 54.8263-31.5465C54.529-31.4701 54.4781-31.4064 54.5503-31.1176C54.7031-30.4807 54.8517-29.8395 55.0428-29.2069C55.2254-28.5997 55.4504-28.0094 55.6585-27.4107C55.7349-27.1942 55.892-27.1008 56.1128-27.0498C56.6309-26.9352 57.1489-26.795 57.6669-26.6507C57.9132-26.587 58.0151-26.4384 57.9939-26.1793C57.9769-25.9246 57.9387-25.6656 57.8877-25.415C57.8127-25.1645 57.8202-24.8967 57.909-24.6507C57.9599-24.5361 57.9514-24.396 57.9599-24.2601C57.9727-23.9501 57.8113-23.827 57.5141-23.9204C57.0725-24.052 57.0725-24.052 56.9451-23.6104C56.9026-23.4661 56.8432-23.3302 56.8007-23.1858C56.7583-23.0287 56.805-22.982 56.9706-23.0202C56.9918-23.0287 57.013-23.0457 57.0343-23.0457L57.2338-23.0329C57.2084-22.965 57.2084-22.8716 57.1659-22.8291C56.9536-22.6465 56.7328-22.4894 56.4313-22.4979C56.0322-22.5107 55.6288-22.4937 55.2339-22.5489C54.9961-22.5995 54.77-22.6947 54.5672-22.8291C54.27-22.999 53.9728-23.1858 53.7053-23.4024C53.5015-23.5722 53.3359-23.7845 53.1618-23.9841C53.1267-24.0276 53.1059-24.081 53.1023-24.1369C53.0684-24.638 53.0344-25.139 53.2382-25.6189C53.2722-25.691 53.3613-25.7377 53.425-25.7972C53.4675-25.7123 53.5269-25.6358 53.5439-25.5509C53.5567-25.4745 53.5269-25.3853 53.5142-25.3046L53.5779-25.2707L53.5779-25.2707ZM57.565-25.1603C57.4504-25.466 57.4079-25.7547 57.2253-26.0095C56.7646-26.6737 56.2746-27.317 55.7562-27.9373C55.5456-28.013 55.3209-28.042 55.098-28.0222C54.4738-27.5891 53.5184-27.1645 53.3868-26.6931C53.0896-25.6316 53.7435-24.6422 55.5906-23.9331C56.1978-23.6953 56.7073-23.7421 56.9621-24.0902C57.2168-24.4384 57.374-24.8078 57.565-25.1603ZM55.2296-23.793C55.8199-23.7378 56.1935-23.9629 56.3973-24.4172C56.5842-24.8418 56.7795-25.2579 56.9621-25.6783C57.7688-27.5126 58.185-27.2961 55.4335-27.9712C54.8602-28.1156 54.4314-28.0009 54.2573-27.4872C54.0237-26.795 53.8496-26.0859 53.5906-25.3981C53.1023-24.0987 53.1448-24.0223 54.7923-23.8397L55.2296-23.793L55.2296-23.793ZM54.0322-28.0307L53.6373-27.9542C53.0132-26.7441 53.408-25.5212 53.9898-24.362C54.2997-23.7378 56.8135-23.5934 57.3442-24.0648C57.9514-24.5998 57.2084-26.328 56.3124-26.6634C55.718-26.88 55.2296-27.2239 54.7159-27.5296C54.4653-27.6782 54.2615-27.8651 54.0365-28.0307L54.0322-28.0307ZM57.565-25.3768C57.3824-27.415 56.478-28.1368 54.1554-28.0179C53.4038-27.9755 53.0981-27.6867 53.4887-27.1432C54.045-26.3662 54.6692-25.6189 55.3231-24.897C55.7264-24.4512 55.909-23.5382 56.7965-23.8482C57.2381-24.0011 57.3188-24.8461 57.565-25.3768L57.565-25.3768ZM55.5226-23.7845L56.6224-23.8694C56.9536-24.5361 57.7816-25.3259 57.5141-25.8439C57.0767-26.6677 55.9133-27.3088 55.0598-28.0307C54.4356-27.3598 53.1915-26.6252 53.3274-26.035C53.5184-25.2282 54.7413-24.5318 55.5226-23.7845L55.5226-23.7845Z"/>
   <path class="monochrome-1 multicolor-1:tintColor hierarchical-1:tertiary SFSymbolsPreviewWireframe" d="M44.3636-80.5865C50.0861-80.5876 55.7528-79.4613 61.04-77.272C66.3271-75.0826 71.1312-71.8729 75.1774-67.8265C79.2239-63.7803 82.4335-58.9764 84.6232-53.6889C86.8124-48.4015 87.9387-42.7349 87.9376-37.0127C87.9376-12.9352 68.432 6.58658 44.3638 6.58658C20.2909 6.58658 0.7645-12.9399 0.7645-37.0127C0.7645-61.0781 20.2877-80.5865 44.3636-80.5865ZM44.3638-78.3365C21.53-78.3365 3.0145-59.8351 3.0145-37.0127C3.0145-14.1825 21.5336 4.33658 44.3638 4.33658C67.1889 4.33658 85.6876-14.1774 85.6876-37.0129C85.6886-42.4398 84.6205-47.8138 82.5443-52.828C80.4678-57.8425 77.4239-62.3983 73.5865-66.2355C69.7491-70.073 65.1932-73.1168 60.1791-75.1931C55.1651-77.2695 49.791-78.3376 44.3638-78.3365Z"/>
  </g>
 </g>
</svg>
