<?xml version="1.0" encoding="UTF-8"?>
<svg width="3300px" height="2200px" viewBox="0 0 3300 2200" version="1.1" xmlns="http://www.w3.org/2000/svg" xmlns:xlink="http://www.w3.org/1999/xlink">
    <!-- Generator: Sketch 59.1 (86144) - https://sketch.com -->
    <title>filter</title>
    <desc>Created with Sketch.</desc>
    <g id="Page-1" stroke="none" stroke-width="1" fill="none" fill-rule="evenodd">
        <g id="filter">
            <g id="Notes">
                <rect id="artboard" fill="#FFFFFF" fill-rule="nonzero" x="0" y="0" width="3300" height="2200"></rect>
                <line x1="263" y1="292" x2="3036" y2="292" id="Path" stroke="#000000" stroke-width="0.5"></line>
                <text id="Weight/Scale-Variations" fill="#000000" font-family="Helvetica-Bold, Helvetica" font-size="13" font-weight="bold">
                    <tspan x="263" y="322">Weight/Scale Variations</tspan>
                </text>
                <text id="Ultralight" fill="#000000" font-family="Helvetica" font-size="13" font-weight="normal">
                    <tspan x="533.711" y="322">Ultralight</tspan>
                </text>
                <text id="Thin" fill="#000000" font-family="Helvetica" font-size="13" font-weight="normal">
                    <tspan x="843.422" y="322">Thin</tspan>
                </text>
                <text id="Light" fill="#000000" font-family="Helvetica" font-size="13" font-weight="normal">
                    <tspan x="1138.63" y="322">Light</tspan>
                </text>
                <text id="Regular" fill="#000000" font-family="Helvetica" font-size="13" font-weight="normal">
                    <tspan x="1426.84" y="322">Regular</tspan>
                </text>
                <text id="Medium" fill="#000000" font-family="Helvetica" font-size="13" font-weight="normal">
                    <tspan x="1723.06" y="322">Medium</tspan>
                </text>
                <text id="Semibold" fill="#000000" font-family="Helvetica" font-size="13" font-weight="normal">
                    <tspan x="2015.77" y="322">Semibold</tspan>
                </text>
                <text id="Bold" fill="#000000" font-family="Helvetica" font-size="13" font-weight="normal">
                    <tspan x="2326.48" y="322">Bold</tspan>
                </text>
                <text id="Heavy" fill="#000000" font-family="Helvetica" font-size="13" font-weight="normal">
                    <tspan x="2618.19" y="322">Heavy</tspan>
                </text>
                <text id="Black" fill="#000000" font-family="Helvetica" font-size="13" font-weight="normal">
                    <tspan x="2917.4" y="322">Black</tspan>
                </text>
                <line x1="263" y1="1903" x2="3036" y2="1903" id="Path" stroke="#000000" stroke-width="0.5"></line>
                <g id="Group" transform="translate(264.000000, 1918.000000)" fill="#000000" fill-rule="nonzero">
                    <path d="M8.24805,15.830078 C12.5547,15.830078 16.1387,12.25586 16.1387,7.94922 C16.1387,3.6426 12.5449,0.0684 8.23828,0.0684 C3.94141,0.0684 0.36719,3.6426 0.36719,7.94922 C0.36719,12.25586 3.95117,15.830078 8.24805,15.830078 Z M8.24805,14.345703 C4.70312,14.345703 1.87109,11.50391 1.87109,7.94922 C1.87109,4.3945 4.69336,1.5527 8.23828,1.5527 C11.793,1.5527 14.6348,4.3945 14.6445503,7.94922 C14.6543,11.50391 11.8027,14.345703 8.24805,14.345703 Z M8.22852,11.57227 C8.69727,11.57227 8.9707,11.25977 8.9707,10.74219 L8.9707,8.68164 L11.1973,8.68164 C11.6953,8.68164 12.0371,8.42773 12.0371,7.95898 C12.0371,7.48047 11.7148,7.2168 11.1973,7.2168 L8.9707,7.2168 L8.9707,4.9902 C8.9707,4.4727 8.69727,4.1504 8.22852,4.1504 C7.75977,4.1504 7.50586,4.4922 7.50586,4.9902 L7.50586,7.2168 L5.29883,7.2168 C4.78125,7.2168 4.44922,7.48047 4.44922,7.95898 C4.44922,8.42773 4.80078,8.68164 5.29883,8.68164 L7.50586,8.68164 L7.50586,10.74219 C7.50586,11.24023 7.75977,11.57227 8.22852,11.57227 Z" id="Shape"></path>
                </g>
                <g id="Group" transform="translate(282.506000, 1915.000000)" fill="#000000" fill-rule="nonzero">
                    <path d="M10.709,20.91016 C16.1582,20.91016 20.6699,16.39844 20.6699,10.94922 C20.6699,5.5098 16.1484,0.9883 10.6992,0.9883 C5.25977,0.9883 0.74805,5.5098 0.74805,10.94922 C0.74805,16.39844 5.26953,20.91016 10.709,20.91016 Z M10.709,19.25 C6.09961,19.25 2.41797,15.55859 2.41797,10.94922 C2.41797,6.3496 6.08984,2.6484 10.6992,2.6484 C15.3086,2.6484 19,6.3496 19.0098379,10.94922 C19.0195,15.55859 15.3184,19.25 10.709,19.25 Z M10.6895,15.58789 C11.207,15.58789 11.5195,15.22656 11.5195,14.66016 L11.5195,11.76953 L14.5762,11.76953 C15.123,11.76953 15.5039,11.48633 15.5039,10.96875 C15.5039,10.44141 15.1426,10.13867 14.5762,10.13867 L11.5195,10.13867 L11.5195,7.0723 C11.5195,6.4961 11.207,6.1445 10.6895,6.1445 C10.1719,6.1445 9.8789,6.5156 9.8789,7.0723 L9.8789,10.13867 L6.83203,10.13867 C6.26562,10.13867 5.89453,10.44141 5.89453,10.96875 C5.89453,11.48633 6.28516,11.76953 6.83203,11.76953 L9.8789,11.76953 L9.8789,14.66016 C9.8789,15.20703 10.1719,15.58789 10.6895,15.58789 Z" id="Shape"></path>
                </g>
                <g id="Group" transform="translate(306.924000, 1913.000000)" fill="#000000" fill-rule="nonzero">
                    <path d="M12.9707,25.67383 C19.9336,25.67383 25.6953,19.921875 25.6953,12.95898 C25.6953,5.9961 19.9238,0.2441 12.9609,0.2441 C6.00781,0.2441 0.25586,5.9961 0.25586,12.95898 C0.25586,19.921875 6.01758,25.67383 12.9707,25.67383 Z M12.9707,23.85742 C6.93555,23.85742 2.08203,18.99414 2.08203,12.95898 C2.08203,6.9238 6.92578,2.0605 12.9609,2.0605 C19.0059,2.0605 23.8594,6.9238 23.8691295,12.95898 C23.8789,18.99414 19.0156,23.85742 12.9707,23.85742 Z M12.9512,18.93555 C13.5176,18.93555 13.8691,18.54492 13.8691,17.93945 L13.8691,13.86719 L18.1074,13.86719 C18.6934,13.86719 19.1133,13.53516 19.1133,12.97852 C19.1133,12.40234 18.7227,12.06055 18.1074,12.06055 L13.8691,12.06055 L13.8691,7.8125 C13.8691,7.1973 13.5176,6.8066 12.9512,6.8066 C12.3848,6.8066 12.0625,7.2168 12.0625,7.8125 L12.0625,12.06055 L7.83398,12.06055 C7.21875,12.06055 6.80859,12.40234 6.80859,12.97852 C6.80859,13.53516 7.23828,13.86719 7.83398,13.86719 L12.0625,13.86719 L12.0625,17.93945 C12.0625,18.52539 12.3848,18.93555 12.9512,18.93555 Z" id="Shape"></path>
                </g>
                <text id="Design-Variations" fill="#000000" font-family="Helvetica-Bold, Helvetica" font-size="13" font-weight="bold">
                    <tspan x="263" y="1953">Design Variations</tspan>
                </text>
                <text id="Symbols-are-supported-in-up-to-nine-weights-and-three-scales." fill="#000000" font-family="Helvetica" font-size="13" font-weight="normal">
                    <tspan x="263" y="1971">Symbols are supported in up to nine weights and three scales.</tspan>
                </text>
                <text id="For-optimal-layout-with-text-and-other-symbols,-vertically-align" fill="#000000" font-family="Helvetica" font-size="13" font-weight="normal">
                    <tspan x="263" y="1989">For optimal layout with text and other symbols, vertically align</tspan>
                </text>
                <text id="symbols-with-the-adjacent-text." fill="#000000" font-family="Helvetica" font-size="13" font-weight="normal">
                    <tspan x="263" y="2007">symbols with the adjacent text.</tspan>
                </text>
                <rect id="Rectangle" fill="#00AEEF" fill-rule="nonzero" opacity="0.4" x="776" y="1919" width="3" height="14"></rect>
                <g id="Group" transform="translate(779.000000, 1918.000000)" fill="#000000" fill-rule="nonzero">
                    <path d="M10.5273,15 L12.373,15 L7.17773,0.9082 L5.43945,0.9082 L0.244141,15 L2.08984,15 L3.50586,10.9668 L9.11133,10.9668 L10.5273,15 Z M6.2793,3.0469 L6.33789,3.0469 L8.59375,9.47266 L4.02344,9.47266 L6.2793,3.0469 Z" id="Shape"></path>
                </g>
                <rect id="Rectangle" fill="#00AEEF" fill-rule="nonzero" opacity="0.4" x="791.617" y="1919" width="3" height="14"></rect>
                <text id="Margins" fill="#000000" font-family="Helvetica-Bold, Helvetica" font-size="13" font-weight="bold">
                    <tspan x="776" y="1953">Margins</tspan>
                </text>
                <text id="Leading-and-trailing-margins-on-the-left-and-right-side-of-each-symbol" fill="#000000" font-family="Helvetica" font-size="13" font-weight="normal">
                    <tspan x="776" y="1971">Leading and trailing margins on the left and right side of each symbol</tspan>
                </text>
                <text id="can-be-adjusted-by-modifying-the-width-of-the-blue-rectangles." fill="#000000" font-family="Helvetica" font-size="13" font-weight="normal">
                    <tspan x="776" y="1989">can be adjusted by modifying the width of the blue rectangles.</tspan>
                </text>
                <text id="Modifications-are-automatically-applied-proportionally-to-all" fill="#000000" font-family="Helvetica" font-size="13" font-weight="normal">
                    <tspan x="776" y="2007">Modifications are automatically applied proportionally to all</tspan>
                </text>
                <text id="scales-and-weights." fill="#000000" font-family="Helvetica" font-size="13" font-weight="normal">
                    <tspan x="776" y="2025">scales and weights.</tspan>
                </text>
                <g id="Group" transform="translate(1291.000000, 1915.000000)" fill="#000000" fill-rule="nonzero">
                    <path d="M0.83203,21.11523 L2.375,22.6582 C3.22461,23.48828 4.19141,23.41992 5.06055,22.46289 L15.2754,11.33984 C15.7051,11.63281 16.0957,11.62305 16.5645,11.52539 L17.6094,11.31055 L18.3027,12.00391 L18.2539,12.52148 C18.1855,13.04883 18.3516,13.46875 18.8496,13.9668 L19.6602,14.77734 C20.168,15.28516 20.8223,15.31445 21.3008,14.83594 L24.5527,11.58398 C25.0312,11.10547 25.0117,10.45117 24.5039,9.94336 L23.6836,9.12305 C23.1855,8.625 22.7754,8.44922 22.2383,8.52734 L21.7109,8.58594 L21.0566,7.9219 L21.3398,6.7793 C21.4863,6.2129 21.3398,5.7441 20.7148,5.1387 L18.3027,2.7461 C14.7578,-0.7793 10.2266,-0.6719 7.11133,2.4629 C6.69141,2.8926 6.64258,3.4785 6.91602,3.9082 C7.15039,4.2793 7.62891,4.5039 8.2734,4.3379 C9.7871,3.957 11.3008,4.0742 12.7852,5.0801 L12.1602,6.6621 C11.9258,7.248 11.9453,7.7266 12.1797,8.16602 L1.01758,18.439453 C0.08008,19.30859 -0.02734,20.25586 0.83203,21.11523 Z M8.6738,2.8535 C11.3398,0.8613 14.6504,1.1738 17.0527,3.5859 L19.6797,6.1934 C19.9141,6.4277 19.9434,6.6133 19.8848,6.9062 L19.5039,8.46875 L21.0762,10.04102 L22.043,9.95312 C22.3262,9.92383 22.4141,9.94336 22.6387,10.16797 L23.2637,10.79297 L20.5098,13.53711 L19.8848,12.92188 C19.6602,12.69727 19.6406,12.59961 19.6699,12.31641 L19.7578,11.35938 L18.1953,9.79688 L16.5742,10.10938 C16.291,10.16797 16.1445,10.16797 15.9102,9.92383 L13.7324,7.7461 C13.5078,7.5117 13.4785,7.375 13.6055,7.0527 L14.5527,4.7773 C12.9512,3.2441 10.8418,2.3945 8.8008,3.0488 C8.7129,3.0781 8.6445,3.0586 8.6152,3.0195 C8.5859,2.9707 8.5859,2.9219 8.6738,2.8535 Z M2.10156,20.41211 C1.61328,19.91406 1.78906,19.61133 2.12109,19.30859 L13.0781,9.19141 L14.3086,10.42188 L4.15234,21.34961 C3.84961,21.68164 3.46875,21.7793 3.06836,21.37891 L2.10156,20.41211 Z" id="Shape"></path>
                </g>
                <text id="Exporting" fill="#000000" font-family="Helvetica-Bold, Helvetica" font-size="13" font-weight="bold">
                    <tspan x="1289" y="1953">Exporting</tspan>
                </text>
                <text id="Symbols-should-be-outlined-when-exporting-to-ensure-the" fill="#000000" font-family="Helvetica" font-size="13" font-weight="normal">
                    <tspan x="1289" y="1971">Symbols should be outlined when exporting to ensure the</tspan>
                </text>
                <text id="design-is-preserved-when-submitting-to-Xcode." fill="#000000" font-family="Helvetica" font-size="13" font-weight="normal">
                    <tspan x="1289" y="1989">design is preserved when submitting to Xcode.</tspan>
                </text>
                <text id="Template-v.1.0" fill="#000000" font-family="Helvetica" font-size="13" font-weight="normal">
                    <tspan x="2952" y="1933">Template v.1.0</tspan>
                </text>
                <text id="Generated-from-circle" fill="#000000" font-family="Helvetica" font-size="13" font-weight="normal">
                    <tspan x="2911" y="1951">Generated from circle</tspan>
                </text>
                <text id="Typeset-at-100-points" fill="#000000" font-family="Helvetica" font-size="13" font-weight="normal">
                    <tspan x="2912" y="1969">Typeset at 100 points</tspan>
                </text>
                <text id="Small" fill="#000000" font-family="Helvetica" font-size="13" font-weight="normal">
                    <tspan x="263" y="726">Small</tspan>
                </text>
                <text id="Medium" fill="#000000" font-family="Helvetica" font-size="13" font-weight="normal">
                    <tspan x="263" y="1156">Medium</tspan>
                </text>
                <text id="Large" fill="#000000" font-family="Helvetica" font-size="13" font-weight="normal">
                    <tspan x="263" y="1586">Large</tspan>
                </text>
            </g>
            <g id="Guides" transform="translate(263.000000, 625.000000)">
                <g id="H-reference" transform="translate(76.000000, 0.000000)" fill="#27AAE1" fill-rule="nonzero">
                    <path d="M54.9316,71 L57.666,71 L30.5664,0.541 L28.0762,0.541 L0.976562,71 L3.66211,71 L12.9395,46.5371 L45.7031,46.5371 L54.9316,71 Z M29.1992,3.9102 L29.4434,3.9102 L44.8242,44.291 L13.8184,44.291 L29.1992,3.9102 Z" id="Shape"></path>
                </g>
                <line x1="0" y1="71" x2="2773" y2="71" id="Baseline-S" stroke="#27AAE1" stroke-width="0.577"></line>
                <line x1="0" y1="0.541" x2="2773" y2="0.541" id="Capline-S" stroke="#27AAE1" stroke-width="0.577"></line>
                <g id="H-reference" transform="translate(76.000000, 430.000000)" fill="#27AAE1" fill-rule="nonzero">
                    <path d="M54.9316,71 L57.666,71 L30.5664,0.541 L28.0762,0.541 L0.976562,71 L3.66211,71 L12.9395,46.5371 L45.7031,46.5371 L54.9316,71 Z M29.1992,3.9102 L29.4434,3.9102 L44.8242,44.291 L13.8184,44.291 L29.1992,3.9102 Z" id="Shape"></path>
                </g>
                <line x1="0" y1="501" x2="2773" y2="501" id="Baseline-M" stroke="#27AAE1" stroke-width="0.577"></line>
                <line x1="0" y1="430.54" x2="2773" y2="430.54" id="Capline-M" stroke="#27AAE1" stroke-width="0.577"></line>
                <g id="H-reference" transform="translate(76.000000, 860.000000)" fill="#27AAE1" fill-rule="nonzero">
                    <path d="M54.9316,71 L57.666,71 L30.5664,0.541 L28.0762,0.541 L0.976562,71 L3.66211,71 L12.9395,46.5371 L45.7031,46.5371 L54.9316,71 Z M29.1992,3.9102 L29.4434,3.9102 L44.8242,44.291 L13.8184,44.291 L29.1992,3.9102 Z" id="Shape"></path>
                </g>
                <line x1="0" y1="931" x2="2773" y2="931" id="Baseline-L" stroke="#27AAE1" stroke-width="0.577"></line>
                <line x1="0" y1="860.54" x2="2773" y2="860.54" id="Capline-L" stroke="#27AAE1" stroke-width="0.577"></line>
                <rect id="left-margin" fill="#00AEEF" fill-rule="nonzero" opacity="0.4" x="1128.3" y="405.79" width="8.74023" height="119.336"></rect>
                <rect id="right-margin" fill="#00AEEF" fill-rule="nonzero" opacity="0.4" x="1236.65" y="405.79" width="8.74023" height="119.336"></rect>
            </g>
            <g id="Symbols" transform="translate(1399.000000, 1040.000000)" fill="#000000" fill-rule="nonzero">
                <g id="Regular-M" transform="translate(0.300000, 0.000000)">
                    <!-- <path d="M50.5449,100.5508 C77.791,100.5508 100.35,77.99219 100.35,50.7461 C100.35,23.5488 77.7422,0.9414 50.4961,0.9414 C23.2988,0.9414 0.74023,23.5488 0.74023,50.7461 C0.74023,77.99219 23.3477,100.5508 50.5449,100.5508 Z M50.1551,92.0078 C27.1082,92.0078 8.7,73.5508 8.7,50.5039 C8.7,27.5058 27.0594,9 50.1063,9 C73.1532,9 91.6102,27.5058 91.6593938,50.5039 C91.7082,73.5508 73.202,92.0078 50.1551,92.0078 Z" id="Shape"></path> -->
                    <path d="M33.2234375,65.7259259 C32.809375,66.1407407 32.3953125,66.1407407 31.98125,65.7259259 C31.5671875,65.3111111 31.5671875,64.8962963 31.98125,64.4814815 L32.809375,63.6518519 C33.2234375,63.237037 33.2234375,62.8222222 33.6375,62.4074074 L34.465625,61.5777778 L34.8796875,61.162963 C35.29375,60.7481481 35.29375,60.3333333 35.7078125,59.9185185 L36.121875,59.5037037 C36.5359375,59.0888889 36.95,58.2592593 37.3640625,57.8444444 C37.778125,57.4296296 37.778125,57.4296296 37.3640625,57.4296296 C36.95,57.4296296 36.95,57.0148148 37.3640625,56.6 L37.3640625,56.1851852 C37.3640625,56.1851852 37.3640625,55.7703704 37.778125,55.7703704 C38.1921875,55.3555556 38.60625,54.9407407 38.60625,54.1111111 C39.0203125,53.6962963 39.434375,52.8666667 39.8484375,52.4518519 C40.2625,52.037037 40.2625,51.6222222 40.2625,51.2074074 C40.6765625,50.7925926 40.6765625,50.3777778 41.090625,49.962963 C41.090625,49.962963 41.090625,49.5481481 41.5046875,49.1333333 C42.3328125,49.5481481 42.746875,49.1333333 43.1609375,48.3037037 C43.1609375,47.8888889 43.575,47.8888889 43.575,47.4740741 C43.9890625,47.0592593 44.403125,46.2296296 44.8171875,45.8148148 C45.23125,45.4 45.6453125,44.5703704 45.6453125,44.1555556 C45.6453125,43.7407407 46.059375,43.7407407 46.059375,43.3259259 C46.4734375,42.4962963 46.8875,42.0814815 47.3015625,41.2518519 C47.715625,40.837037 47.715625,40.4222222 48.1296875,40.0074074 C48.54375,39.5925926 48.9578125,39.1777778 49.371875,38.3481481 C49.7859375,37.9333333 50.2,37.1037037 50.6140625,36.6888889 L50.6140625,36.2740741 L51.85625,35.0296296 C51.85625,34.6148148 52.2703125,34.6148148 52.2703125,34.6148148 C52.684375,34.2 53.0984375,33.3703704 53.9265625,32.9555556 L54.340625,32.5407407 C54.7546875,32.1259259 54.7546875,31.7111111 55.16875,31.2962963 C55.5828125,30.4666667 55.5828125,29.637037 55.996875,28.8074074 C55.996875,28.3925926 56.4109375,27.9777778 56.4109375,27.562963 C56.4109375,27.1481481 56.825,27.1481481 57.2390625,26.7333333 L57.653125,26.3185185 L58.8953125,25.0740741 C59.309375,24.6592593 59.7234375,24.2444444 60.1375,24.2444444 C60.5515625,24.2444444 60.965625,23.8296296 61.3796875,23.8296296 C61.79375,23.8296296 62.2078125,23.4148148 62.621875,23.4148148 C63.0359375,23.4148148 63.8640625,23 64.278125,23 L65.10625,23 C65.5203125,23 65.934375,23.4148148 66.3484375,23.4148148 L67.1765625,23.4148148 C67.590625,23.4148148 68.0046875,23.8296296 68.0046875,23.8296296 L68.41875,23.8296296 C68.8328125,23.8296296 69.246875,24.2444444 69.246875,24.2444444 C69.246875,24.6592593 69.6609375,24.6592593 70.075,25.0740741 C70.075,25.0740741 70.4890625,25.0740741 70.4890625,25.4888889 C71.3171875,26.3185185 71.3171875,26.7333333 71.73125,26.7333333 L71.73125,27.1481481 L72.1453125,27.562963 C72.559375,27.9777778 72.559375,27.9777778 72.9734375,27.9777778 C73.3875,27.9777778 73.8015625,28.3925926 74.215625,28.3925926 C74.6296875,28.3925926 75.4578125,28.8074074 75.871875,28.8074074 C76.2859375,28.8074074 76.2859375,29.2222222 76.7,29.2222222 L76.2859375,29.2222222 C75.871875,29.2222222 75.871875,29.2222222 75.4578125,29.637037 L75.04375,29.637037 C74.6296875,29.637037 74.6296875,30.0518519 74.215625,30.0518519 C73.8015625,30.0518519 73.3875,30.4666667 73.3875,30.4666667 C72.9734375,30.4666667 72.9734375,30.8814815 72.559375,30.8814815 L72.1453125,30.8814815 C71.73125,30.8814815 71.73125,31.2962963 71.73125,31.2962963 L71.73125,32.5407407 C72.1453125,33.3703704 72.1453125,33.7851852 72.1453125,34.6148148 L72.1453125,35.0296296 C72.1453125,35.4444444 72.559375,36.2740741 72.559375,36.6888889 C72.559375,37.1037037 72.9734375,37.9333333 72.9734375,38.3481481 C72.9734375,38.762963 73.3875,39.1777778 73.3875,40.0074074 L73.3875,43.3259259 C73.3875,43.7407407 73.3875,44.1555556 72.9734375,44.5703704 C72.9734375,45.4 72.559375,46.2296296 72.1453125,47.4740741 C72.1453125,47.4740741 72.1453125,47.8888889 71.73125,47.8888889 C71.73125,48.3037037 71.3171875,48.7185185 71.3171875,49.1333333 C71.73125,51.2074074 71.3171875,51.6222222 71.3171875,52.4518519 C70.903125,52.8666667 70.4890625,53.6962963 70.075,54.1111111 C69.6609375,54.5259259 69.246875,55.3555556 68.8328125,55.7703704 L67.590625,57.0148148 C67.1765625,57.4296296 66.7625,57.4296296 66.7625,57.8444444 L65.934375,58.6740741 L65.5203125,58.6740741 C65.10625,59.0888889 64.6921875,59.0888889 64.278125,59.5037037 C63.8640625,59.5037037 63.8640625,59.9185185 63.45,59.9185185 C63.0359375,60.3333333 62.621875,60.3333333 61.79375,60.7481481 C61.3796875,61.162963 60.5515625,61.162963 60.1375,61.5777778 C60.1375,61.5777778 59.7234375,61.5777778 59.7234375,61.9925926 L59.309375,61.9925926 L58.8953125,61.9925926 L58.8953125,62.4074074 C59.309375,62.8222222 59.7234375,63.237037 60.1375,63.237037 C60.5515625,63.6518519 60.5515625,63.6518519 60.965625,63.6518519 C61.3796875,63.6518519 61.79375,64.0666667 62.2078125,64.4814815 C62.621875,64.4814815 62.621875,64.8962963 63.0359375,64.8962963 C63.45,65.3111111 63.8640625,65.3111111 64.278125,65.3111111 L65.5203125,65.3111111 C65.934375,65.3111111 66.3484375,65.7259259 66.7625,66.1407407 C67.1765625,66.5555556 67.1765625,66.9703704 67.590625,67.3851852 C67.590625,67.3851852 67.590625,67.8 68.0046875,67.8 L68.0046875,68.6296296 C68.0046875,69.0444444 68.0046875,69.0444444 67.590625,69.4592593 C67.590625,69.8740741 67.1765625,69.8740741 66.7625,70.2888889 C66.7625,70.2888889 66.3484375,70.2888889 65.934375,70.7037037 L65.934375,71.5333333 C65.934375,71.9481481 65.5203125,72.362963 65.10625,72.7777778 L64.6921875,73.1925926 L63.8640625,73.1925926 L62.621875,73.1925926 C62.2078125,73.1925926 61.79375,72.7777778 61.79375,72.7777778 C61.79375,72.7777778 61.79375,72.362963 61.3796875,72.362963 L61.79375,72.362963 L62.2078125,72.7777778 L63.0359375,72.7777778 C63.0359375,72.7777778 63.45,72.362963 63.45,71.9481481 L63.0359375,71.9481481 C62.621875,71.9481481 62.2078125,71.9481481 61.79375,71.5333333 L61.3796875,71.1185185 C61.3796875,70.7037037 60.965625,70.7037037 60.965625,70.2888889 L60.965625,69.8740741 C60.965625,69.4592593 60.965625,69.0444444 61.3796875,68.6296296 C61.3796875,68.2148148 61.79375,68.2148148 61.79375,67.8 C62.2078125,67.3851852 61.79375,66.9703704 61.79375,66.9703704 C61.3796875,66.5555556 60.965625,66.5555556 60.965625,66.1407407 L59.7234375,64.8962963 C59.309375,64.4814815 58.8953125,64.4814815 58.48125,64.0666667 L57.653125,63.237037 C57.2390625,62.8222222 56.825,63.237037 56.4109375,63.237037 L54.7546875,63.237037 C54.7546875,63.6518519 54.7546875,64.4814815 55.16875,64.8962963 C55.16875,65.7259259 55.5828125,66.1407407 55.996875,66.9703704 C55.996875,67.3851852 56.4109375,67.3851852 56.4109375,67.8 C56.4109375,68.2148148 56.825,68.2148148 56.825,68.6296296 L56.825,69.0444444 L58.0671875,70.2888889 C58.48125,70.7037037 58.48125,70.7037037 58.48125,71.1185185 C58.48125,71.5333333 58.8953125,71.5333333 59.309375,71.9481481 C59.7234375,72.362963 59.7234375,72.7777778 60.1375,73.1925926 C60.1375,73.6074074 60.1375,74.0222222 59.7234375,74.0222222 C59.309375,74.437037 58.8953125,75.2666667 58.48125,75.6814815 L58.0671875,76.0962963 L57.653125,76.0962963 L57.653125,75.6814815 C57.653125,75.6814815 57.653125,75.2666667 58.0671875,75.2666667 C58.0671875,75.2666667 58.0671875,74.8518519 58.48125,74.8518519 C58.8953125,74.437037 58.8953125,74.0222222 58.8953125,73.6074074 L58.8953125,72.362963 L57.653125,71.1185185 L57.653125,71.5333333 C57.653125,71.9481481 58.0671875,72.7777778 57.653125,73.1925926 C57.653125,73.6074074 57.653125,74.0222222 57.2390625,74.437037 C57.2390625,74.8518519 56.825,74.8518519 56.825,75.2666667 L56.825,75.6814815 L56.4109375,75.6814815 C56.4109375,75.6814815 55.996875,75.6814815 55.996875,75.2666667 C55.996875,75.6814815 55.5828125,75.6814815 55.16875,75.2666667 C55.16875,75.2666667 54.7546875,74.8518519 54.7546875,75.2666667 C54.340625,75.2666667 53.9265625,74.8518519 53.9265625,74.8518519 C53.5125,74.0222222 53.5125,73.6074074 53.0984375,72.7777778 C53.0984375,72.362963 53.5125,71.9481481 53.5125,71.5333333 C53.9265625,70.7037037 53.9265625,70.2888889 54.340625,69.4592593 L54.340625,69.0444444 C54.340625,68.6296296 53.9265625,68.6296296 53.9265625,68.2148148 L53.9265625,67.8 C53.9265625,67.3851852 53.9265625,67.3851852 53.5125,66.9703704 C53.5125,66.5555556 53.0984375,66.1407407 53.0984375,66.1407407 C53.0984375,65.7259259 52.684375,64.8962963 52.684375,64.4814815 C52.684375,64.0666667 52.2703125,63.6518519 51.85625,63.6518519 L48.1296875,63.6518519 C47.715625,63.6518519 47.3015625,63.6518519 46.8875,63.237037 L45.6453125,63.237037 C45.23125,63.237037 44.8171875,63.237037 44.8171875,63.6518519 L44.403125,63.6518519 L43.9890625,63.6518519 C43.575,63.6518519 43.1609375,64.0666667 43.1609375,64.4814815 L42.746875,64.4814815 C42.3328125,64.4814815 41.91875,64.8962963 41.5046875,64.8962963 C41.91875,64.8962963 41.5046875,64.8962963 41.090625,65.3111111 C41.090625,65.3111111 40.6765625,65.3111111 40.6765625,65.7259259 C40.2625,65.7259259 40.2625,66.1407407 39.8484375,66.1407407 C39.434375,66.5555556 39.0203125,66.5555556 38.60625,66.9703704 C38.1921875,66.9703704 37.778125,67.3851852 37.778125,67.8 C37.3640625,67.8 37.3640625,68.2148148 37.3640625,68.2148148 L36.121875,69.4592593 C35.7078125,69.4592593 35.7078125,69.8740741 35.29375,69.8740741 L34.465625,70.7037037 L34.0515625,71.1185185 C33.6375,71.1185185 33.6375,71.5333333 33.2234375,71.5333333 L32.3953125,72.362963 C31.98125,72.7777778 31.5671875,73.1925926 31.153125,74.0222222 C30.7390625,74.437037 30.7390625,74.437037 30.7390625,74.8518519 L29.9109375,75.6814815 L28.66875,76.9259259 C28.2546875,77.3407407 28.2546875,77.7555556 27.840625,78.1703704 C27.840625,78.5851852 27.4265625,78.5851852 27.0125,79 L26.184375,79 C26.184375,79 25.7703125,79 25.7703125,78.5851852 L25.7703125,77.7555556 L25.7703125,77.3407407 L25.35625,77.3407407 C24.9421875,77.3407407 24.9421875,77.3407407 24.528125,77.7555556 L24.1140625,77.7555556 L23.7,77.3407407 L23.7,76.9259259 C23.7,76.5111111 24.1140625,76.5111111 24.1140625,76.5111111 C25.35625,76.0962963 25.7703125,75.6814815 25.7703125,75.2666667 L26.5984375,74.437037 C26.5984375,74.437037 26.5984375,74.0222222 27.0125,74.0222222 L28.2546875,72.7777778 C28.66875,72.362963 29.0828125,71.9481481 29.496875,71.1185185 C29.9109375,70.2888889 30.325,69.8740741 30.7390625,69.0444444 L31.153125,68.6296296 C31.5671875,68.2148148 31.98125,67.8 32.3953125,66.9703704 C32.809375,66.5555556 33.2234375,66.1407407 33.2234375,65.7259259 L33.2234375,65.7259259 Z M56.75,70 L56.35,70.3636364 C56.35,70.7272727 55.95,70.7272727 55.95,71.0909091 L55.95,73.2727273 C55.95,73.6363636 55.95,73.6363636 56.35,74 C56.35,73.6363636 55.95,73.2727273 56.35,72.9090909 L56.35,73.2727273 C56.35,73.6363636 56.35,73.6363636 56.75,74 L57.15,74 C57.55,73.2727273 57.55,72.9090909 57.15,72.1818182 L57.15,71.8181818 C57.15,70.7272727 57.15,70.3636364 56.75,70 L56.75,70 Z M65.9888889,68.1111111 C65.5888889,67.3111111 65.1888889,66.9111111 64.7888889,66.5111111 L63.5888889,66.5111111 C63.5888889,66.5111111 63.1888889,66.5111111 63.5888889,66.9111111 C63.9888889,67.3111111 63.9888889,67.7111111 64.3888889,68.1111111 C64.7888889,68.5111111 64.7888889,68.9111111 65.1888889,69.3111111 C65.1888889,69.3111111 65.5888889,69.7111111 65.5888889,69.3111111 L65.9888889,68.9111111 L65.9888889,68.1111111 L65.9888889,68.1111111 Z M62.5,67.6 C62.5,68 62.1,68 62.1,68.4 L62.1,69.6 C62.1,69.6 62.1,70 62.5,70 L62.9,70 C62.9,70.4 63.3,70.4 63.3,70.4 C63.3,70 62.9,69.6 62.9,69.2 L62.9,68.8 C62.9,68 62.5,68 62.5,67.6 Z M63.1,66.7111111 C63.1,67.1111111 63.5,67.5111111 63.5,67.9111111 C63.5,68.3111111 63.9,68.7111111 63.9,69.1111111 C63.9,69.5111111 64.3,69.1111111 64.3,69.1111111 L64.3,68.7111111 C64.3,68.3111111 63.9,68.3111111 63.9,67.9111111 C63.9,67.1111111 63.5,66.7111111 63.1,66.7111111 L63.1,66.7111111 Z M64.1,72 C64.1,72 64.5,72 64.5,71.6 C64.9,71.2 64.9,70.8 65.3,70.4 L65.3,70 L64.5,70 C64.5,70.8 64.5,71.6 64.1,72 Z M54.5828427,72.6 C54.5828427,72.2 54.5828427,71.8 54.9828427,71.4 C54.5828427,71.8 54.1828427,72.2 54.5828427,72.6 Z" id="Shape"></path>
                </g>
            </g>
        </g>
    </g>
</svg>