<?xml version="1.0" encoding="UTF-8"?>
<svg width="3300px" height="2200px" viewBox="0 0 3300 2200" version="1.1" xmlns="http://www.w3.org/2000/svg" xmlns:xlink="http://www.w3.org/1999/xlink">
    <!-- Generator: Sketch 59.1 (86144) - https://sketch.com -->
    <title>filter</title>
    <desc>Created with Sketch.</desc>
    <g id="Page-1" stroke="none" stroke-width="1" fill="none" fill-rule="evenodd">
        <g id="filter">
            <g id="Notes">
                <rect id="artboard" fill="#FFFFFF" fill-rule="nonzero" x="0" y="0" width="3300" height="2200"></rect>
                <line x1="263" y1="292" x2="3036" y2="292" id="Path" stroke="#000000" stroke-width="0.5"></line>
                <text id="Weight/Scale-Variations" fill="#000000" font-family="Helvetica-Bold, Helvetica" font-size="13" font-weight="bold">
                    <tspan x="263" y="322">Weight/Scale Variations</tspan>
                </text>
                <text id="Ultralight" fill="#000000" font-family="Helvetica" font-size="13" font-weight="normal">
                    <tspan x="533.711" y="322">Ultralight</tspan>
                </text>
                <text id="Thin" fill="#000000" font-family="Helvetica" font-size="13" font-weight="normal">
                    <tspan x="843.422" y="322">Thin</tspan>
                </text>
                <text id="Light" fill="#000000" font-family="Helvetica" font-size="13" font-weight="normal">
                    <tspan x="1138.63" y="322">Light</tspan>
                </text>
                <text id="Regular" fill="#000000" font-family="Helvetica" font-size="13" font-weight="normal">
                    <tspan x="1426.84" y="322">Regular</tspan>
                </text>
                <text id="Medium" fill="#000000" font-family="Helvetica" font-size="13" font-weight="normal">
                    <tspan x="1723.06" y="322">Medium</tspan>
                </text>
                <text id="Semibold" fill="#000000" font-family="Helvetica" font-size="13" font-weight="normal">
                    <tspan x="2015.77" y="322">Semibold</tspan>
                </text>
                <text id="Bold" fill="#000000" font-family="Helvetica" font-size="13" font-weight="normal">
                    <tspan x="2326.48" y="322">Bold</tspan>
                </text>
                <text id="Heavy" fill="#000000" font-family="Helvetica" font-size="13" font-weight="normal">
                    <tspan x="2618.19" y="322">Heavy</tspan>
                </text>
                <text id="Black" fill="#000000" font-family="Helvetica" font-size="13" font-weight="normal">
                    <tspan x="2917.4" y="322">Black</tspan>
                </text>
                <line x1="263" y1="1903" x2="3036" y2="1903" id="Path" stroke="#000000" stroke-width="0.5"></line>
                <g id="Group" transform="translate(264.000000, 1918.000000)" fill="#000000" fill-rule="nonzero">
                    <path d="M8.24805,15.830078 C12.5547,15.830078 16.1387,12.25586 16.1387,7.94922 C16.1387,3.6426 12.5449,0.0684 8.23828,0.0684 C3.94141,0.0684 0.36719,3.6426 0.36719,7.94922 C0.36719,12.25586 3.95117,15.830078 8.24805,15.830078 Z M8.24805,14.345703 C4.70312,14.345703 1.87109,11.50391 1.87109,7.94922 C1.87109,4.3945 4.69336,1.5527 8.23828,1.5527 C11.793,1.5527 14.6348,4.3945 14.6445503,7.94922 C14.6543,11.50391 11.8027,14.345703 8.24805,14.345703 Z M8.22852,11.57227 C8.69727,11.57227 8.9707,11.25977 8.9707,10.74219 L8.9707,8.68164 L11.1973,8.68164 C11.6953,8.68164 12.0371,8.42773 12.0371,7.95898 C12.0371,7.48047 11.7148,7.2168 11.1973,7.2168 L8.9707,7.2168 L8.9707,4.9902 C8.9707,4.4727 8.69727,4.1504 8.22852,4.1504 C7.75977,4.1504 7.50586,4.4922 7.50586,4.9902 L7.50586,7.2168 L5.29883,7.2168 C4.78125,7.2168 4.44922,7.48047 4.44922,7.95898 C4.44922,8.42773 4.80078,8.68164 5.29883,8.68164 L7.50586,8.68164 L7.50586,10.74219 C7.50586,11.24023 7.75977,11.57227 8.22852,11.57227 Z" id="Shape"></path>
                </g>
                <g id="Group" transform="translate(282.506000, 1915.000000)" fill="#000000" fill-rule="nonzero">
                    <path d="M10.709,20.91016 C16.1582,20.91016 20.6699,16.39844 20.6699,10.94922 C20.6699,5.5098 16.1484,0.9883 10.6992,0.9883 C5.25977,0.9883 0.74805,5.5098 0.74805,10.94922 C0.74805,16.39844 5.26953,20.91016 10.709,20.91016 Z M10.709,19.25 C6.09961,19.25 2.41797,15.55859 2.41797,10.94922 C2.41797,6.3496 6.08984,2.6484 10.6992,2.6484 C15.3086,2.6484 19,6.3496 19.0098379,10.94922 C19.0195,15.55859 15.3184,19.25 10.709,19.25 Z M10.6895,15.58789 C11.207,15.58789 11.5195,15.22656 11.5195,14.66016 L11.5195,11.76953 L14.5762,11.76953 C15.123,11.76953 15.5039,11.48633 15.5039,10.96875 C15.5039,10.44141 15.1426,10.13867 14.5762,10.13867 L11.5195,10.13867 L11.5195,7.0723 C11.5195,6.4961 11.207,6.1445 10.6895,6.1445 C10.1719,6.1445 9.8789,6.5156 9.8789,7.0723 L9.8789,10.13867 L6.83203,10.13867 C6.26562,10.13867 5.89453,10.44141 5.89453,10.96875 C5.89453,11.48633 6.28516,11.76953 6.83203,11.76953 L9.8789,11.76953 L9.8789,14.66016 C9.8789,15.20703 10.1719,15.58789 10.6895,15.58789 Z" id="Shape"></path>
                </g>
                <g id="Group" transform="translate(306.924000, 1913.000000)" fill="#000000" fill-rule="nonzero">
                    <path d="M12.9707,25.67383 C19.9336,25.67383 25.6953,19.921875 25.6953,12.95898 C25.6953,5.9961 19.9238,0.2441 12.9609,0.2441 C6.00781,0.2441 0.25586,5.9961 0.25586,12.95898 C0.25586,19.921875 6.01758,25.67383 12.9707,25.67383 Z M12.9707,23.85742 C6.93555,23.85742 2.08203,18.99414 2.08203,12.95898 C2.08203,6.9238 6.92578,2.0605 12.9609,2.0605 C19.0059,2.0605 23.8594,6.9238 23.8691295,12.95898 C23.8789,18.99414 19.0156,23.85742 12.9707,23.85742 Z M12.9512,18.93555 C13.5176,18.93555 13.8691,18.54492 13.8691,17.93945 L13.8691,13.86719 L18.1074,13.86719 C18.6934,13.86719 19.1133,13.53516 19.1133,12.97852 C19.1133,12.40234 18.7227,12.06055 18.1074,12.06055 L13.8691,12.06055 L13.8691,7.8125 C13.8691,7.1973 13.5176,6.8066 12.9512,6.8066 C12.3848,6.8066 12.0625,7.2168 12.0625,7.8125 L12.0625,12.06055 L7.83398,12.06055 C7.21875,12.06055 6.80859,12.40234 6.80859,12.97852 C6.80859,13.53516 7.23828,13.86719 7.83398,13.86719 L12.0625,13.86719 L12.0625,17.93945 C12.0625,18.52539 12.3848,18.93555 12.9512,18.93555 Z" id="Shape"></path>
                </g>
                <text id="Design-Variations" fill="#000000" font-family="Helvetica-Bold, Helvetica" font-size="13" font-weight="bold">
                    <tspan x="263" y="1953">Design Variations</tspan>
                </text>
                <text id="Symbols-are-supported-in-up-to-nine-weights-and-three-scales." fill="#000000" font-family="Helvetica" font-size="13" font-weight="normal">
                    <tspan x="263" y="1971">Symbols are supported in up to nine weights and three scales.</tspan>
                </text>
                <text id="For-optimal-layout-with-text-and-other-symbols,-vertically-align" fill="#000000" font-family="Helvetica" font-size="13" font-weight="normal">
                    <tspan x="263" y="1989">For optimal layout with text and other symbols, vertically align</tspan>
                </text>
                <text id="symbols-with-the-adjacent-text." fill="#000000" font-family="Helvetica" font-size="13" font-weight="normal">
                    <tspan x="263" y="2007">symbols with the adjacent text.</tspan>
                </text>
                <rect id="Rectangle" fill="#00AEEF" fill-rule="nonzero" opacity="0.4" x="776" y="1919" width="3" height="14"></rect>
                <g id="Group" transform="translate(779.000000, 1918.000000)" fill="#000000" fill-rule="nonzero">
                    <path d="M10.5273,15 L12.373,15 L7.17773,0.9082 L5.43945,0.9082 L0.244141,15 L2.08984,15 L3.50586,10.9668 L9.11133,10.9668 L10.5273,15 Z M6.2793,3.0469 L6.33789,3.0469 L8.59375,9.47266 L4.02344,9.47266 L6.2793,3.0469 Z" id="Shape"></path>
                </g>
                <rect id="Rectangle" fill="#00AEEF" fill-rule="nonzero" opacity="0.4" x="791.617" y="1919" width="3" height="14"></rect>
                <text id="Margins" fill="#000000" font-family="Helvetica-Bold, Helvetica" font-size="13" font-weight="bold">
                    <tspan x="776" y="1953">Margins</tspan>
                </text>
                <text id="Leading-and-trailing-margins-on-the-left-and-right-side-of-each-symbol" fill="#000000" font-family="Helvetica" font-size="13" font-weight="normal">
                    <tspan x="776" y="1971">Leading and trailing margins on the left and right side of each symbol</tspan>
                </text>
                <text id="can-be-adjusted-by-modifying-the-width-of-the-blue-rectangles." fill="#000000" font-family="Helvetica" font-size="13" font-weight="normal">
                    <tspan x="776" y="1989">can be adjusted by modifying the width of the blue rectangles.</tspan>
                </text>
                <text id="Modifications-are-automatically-applied-proportionally-to-all" fill="#000000" font-family="Helvetica" font-size="13" font-weight="normal">
                    <tspan x="776" y="2007">Modifications are automatically applied proportionally to all</tspan>
                </text>
                <text id="scales-and-weights." fill="#000000" font-family="Helvetica" font-size="13" font-weight="normal">
                    <tspan x="776" y="2025">scales and weights.</tspan>
                </text>
                <g id="Group" transform="translate(1291.000000, 1915.000000)" fill="#000000" fill-rule="nonzero">
                    <path d="M0.83203,21.11523 L2.375,22.6582 C3.22461,23.48828 4.19141,23.41992 5.06055,22.46289 L15.2754,11.33984 C15.7051,11.63281 16.0957,11.62305 16.5645,11.52539 L17.6094,11.31055 L18.3027,12.00391 L18.2539,12.52148 C18.1855,13.04883 18.3516,13.46875 18.8496,13.9668 L19.6602,14.77734 C20.168,15.28516 20.8223,15.31445 21.3008,14.83594 L24.5527,11.58398 C25.0312,11.10547 25.0117,10.45117 24.5039,9.94336 L23.6836,9.12305 C23.1855,8.625 22.7754,8.44922 22.2383,8.52734 L21.7109,8.58594 L21.0566,7.9219 L21.3398,6.7793 C21.4863,6.2129 21.3398,5.7441 20.7148,5.1387 L18.3027,2.7461 C14.7578,-0.7793 10.2266,-0.6719 7.11133,2.4629 C6.69141,2.8926 6.64258,3.4785 6.91602,3.9082 C7.15039,4.2793 7.62891,4.5039 8.2734,4.3379 C9.7871,3.957 11.3008,4.0742 12.7852,5.0801 L12.1602,6.6621 C11.9258,7.248 11.9453,7.7266 12.1797,8.16602 L1.01758,18.439453 C0.08008,19.30859 -0.02734,20.25586 0.83203,21.11523 Z M8.6738,2.8535 C11.3398,0.8613 14.6504,1.1738 17.0527,3.5859 L19.6797,6.1934 C19.9141,6.4277 19.9434,6.6133 19.8848,6.9062 L19.5039,8.46875 L21.0762,10.04102 L22.043,9.95312 C22.3262,9.92383 22.4141,9.94336 22.6387,10.16797 L23.2637,10.79297 L20.5098,13.53711 L19.8848,12.92188 C19.6602,12.69727 19.6406,12.59961 19.6699,12.31641 L19.7578,11.35938 L18.1953,9.79688 L16.5742,10.10938 C16.291,10.16797 16.1445,10.16797 15.9102,9.92383 L13.7324,7.7461 C13.5078,7.5117 13.4785,7.375 13.6055,7.0527 L14.5527,4.7773 C12.9512,3.2441 10.8418,2.3945 8.8008,3.0488 C8.7129,3.0781 8.6445,3.0586 8.6152,3.0195 C8.5859,2.9707 8.5859,2.9219 8.6738,2.8535 Z M2.10156,20.41211 C1.61328,19.91406 1.78906,19.61133 2.12109,19.30859 L13.0781,9.19141 L14.3086,10.42188 L4.15234,21.34961 C3.84961,21.68164 3.46875,21.7793 3.06836,21.37891 L2.10156,20.41211 Z" id="Shape"></path>
                </g>
                <text id="Exporting" fill="#000000" font-family="Helvetica-Bold, Helvetica" font-size="13" font-weight="bold">
                    <tspan x="1289" y="1953">Exporting</tspan>
                </text>
                <text id="Symbols-should-be-outlined-when-exporting-to-ensure-the" fill="#000000" font-family="Helvetica" font-size="13" font-weight="normal">
                    <tspan x="1289" y="1971">Symbols should be outlined when exporting to ensure the</tspan>
                </text>
                <text id="design-is-preserved-when-submitting-to-Xcode." fill="#000000" font-family="Helvetica" font-size="13" font-weight="normal">
                    <tspan x="1289" y="1989">design is preserved when submitting to Xcode.</tspan>
                </text>
                <text id="Template-v.1.0" fill="#000000" font-family="Helvetica" font-size="13" font-weight="normal">
                    <tspan x="2952" y="1933">Template v.1.0</tspan>
                </text>
                <text id="Generated-from-circle" fill="#000000" font-family="Helvetica" font-size="13" font-weight="normal">
                    <tspan x="2911" y="1951">Generated from circle</tspan>
                </text>
                <text id="Typeset-at-100-points" fill="#000000" font-family="Helvetica" font-size="13" font-weight="normal">
                    <tspan x="2912" y="1969">Typeset at 100 points</tspan>
                </text>
                <text id="Small" fill="#000000" font-family="Helvetica" font-size="13" font-weight="normal">
                    <tspan x="263" y="726">Small</tspan>
                </text>
                <text id="Medium" fill="#000000" font-family="Helvetica" font-size="13" font-weight="normal">
                    <tspan x="263" y="1156">Medium</tspan>
                </text>
                <text id="Large" fill="#000000" font-family="Helvetica" font-size="13" font-weight="normal">
                    <tspan x="263" y="1586">Large</tspan>
                </text>
            </g>
            <g id="Guides" transform="translate(263.000000, 625.000000)">
                <g id="H-reference" transform="translate(76.000000, 0.000000)" fill="#27AAE1" fill-rule="nonzero">
                    <path d="M54.9316,71 L57.666,71 L30.5664,0.541 L28.0762,0.541 L0.976562,71 L3.66211,71 L12.9395,46.5371 L45.7031,46.5371 L54.9316,71 Z M29.1992,3.9102 L29.4434,3.9102 L44.8242,44.291 L13.8184,44.291 L29.1992,3.9102 Z" id="Shape"></path>
                </g>
                <line x1="0" y1="71" x2="2773" y2="71" id="Baseline-S" stroke="#27AAE1" stroke-width="0.577"></line>
                <line x1="0" y1="0.541" x2="2773" y2="0.541" id="Capline-S" stroke="#27AAE1" stroke-width="0.577"></line>
                <g id="H-reference" transform="translate(76.000000, 430.000000)" fill="#27AAE1" fill-rule="nonzero">
                    <path d="M54.9316,71 L57.666,71 L30.5664,0.541 L28.0762,0.541 L0.976562,71 L3.66211,71 L12.9395,46.5371 L45.7031,46.5371 L54.9316,71 Z M29.1992,3.9102 L29.4434,3.9102 L44.8242,44.291 L13.8184,44.291 L29.1992,3.9102 Z" id="Shape"></path>
                </g>
                <line x1="0" y1="501" x2="2773" y2="501" id="Baseline-M" stroke="#27AAE1" stroke-width="0.577"></line>
                <line x1="0" y1="430.54" x2="2773" y2="430.54" id="Capline-M" stroke="#27AAE1" stroke-width="0.577"></line>
                <g id="H-reference" transform="translate(76.000000, 860.000000)" fill="#27AAE1" fill-rule="nonzero">
                    <path d="M54.9316,71 L57.666,71 L30.5664,0.541 L28.0762,0.541 L0.976562,71 L3.66211,71 L12.9395,46.5371 L45.7031,46.5371 L54.9316,71 Z M29.1992,3.9102 L29.4434,3.9102 L44.8242,44.291 L13.8184,44.291 L29.1992,3.9102 Z" id="Shape"></path>
                </g>
                <line x1="0" y1="931" x2="2773" y2="931" id="Baseline-L" stroke="#27AAE1" stroke-width="0.577"></line>
                <line x1="0" y1="860.54" x2="2773" y2="860.54" id="Capline-L" stroke="#27AAE1" stroke-width="0.577"></line>
                <rect id="left-margin" fill="#00AEEF" fill-rule="nonzero" opacity="0.4" x="1128.3" y="405.79" width="8.74023" height="119.336"></rect>
                <rect id="right-margin" fill="#00AEEF" fill-rule="nonzero" opacity="0.4" x="1236.65" y="405.79" width="8.74023" height="119.336"></rect>
            </g>
            <g id="Symbols" transform="translate(1399.000000, 1040.000000)" fill-rule="nonzero">
                <g id="Regular-M" transform="translate(0.300000, 0.000000)">
                    <path d="M50.5449,100.5508 C77.791,100.5508 100.35,77.99219 100.35,50.7461 C100.35,23.5488 77.7422,0.9414 50.4961,0.9414 C23.2988,0.9414 0.74023,23.5488 0.74023,50.7461 C0.74023,77.99219 23.3477,100.5508 50.5449,100.5508 Z M50.1551,92.0078 C27.1082,92.0078 8.7,73.5508 8.7,50.5039 C8.7,27.5058 27.0594,9 50.1063,9 C73.1532,9 91.6102,27.5058 91.6593938,50.5039 C91.7082,73.5508 73.202,92.0078 50.1551,92.0078 Z" id="Shape" fill="#000000"></path>
                    <path d="M18.7,25.7533518 C18.6784131,25.9127785 19.2685878,26.0500627 20.9414888,26.2404891 C22.6188273,26.4397726 23.3288118,26.5991993 24.1807933,28.0384687 C25.0283373,29.4733096 25.8670065,31.439573 26.1731874,32.2765636 C26.4838056,33.1135541 26.0800019,35.704239 25.9246928,38.9636306 C25.7649463,42.2141652 25.6318242,43.733148 26.5459293,46.1334065 C27.4555969,48.533665 27.8150266,48.329953 28.4096387,50.6947834 C29.0086881,53.0640422 30.0514779,55.3801588 30.5262801,55.9160099 C31.0010822,56.4474325 31.4315104,56.5448599 31.5246958,56.8902846 L31.6489431,57.3818504 L31.6489431,56.8947131 C31.6489431,56.8947131 31.8930003,56.9212842 32.2701796,57.8689878 C32.6473589,58.8255484 33.144348,59.5031121 33.144348,59.5031121 L33.2685953,59.3392568 C33.2685953,59.3392568 34.0495783,60.1541047 34.5110683,60.3135315 C34.9725582,60.4773868 35.3142383,60.614671 35.509484,60.9689526 C35.7002924,61.3232343 36.5567112,62.1646534 36.751957,62.2753664 C36.9516401,62.3860794 37.7548101,62.7846464 38.1231146,63.2496411 C38.4869817,63.7190643 38.6733526,63.5640661 39.117093,63.5773517 C39.5608333,63.5906372 40.5947483,64.6047686 41.1094871,64.7199101 C41.6242258,64.8306232 41.7351609,64.8394802 41.9792181,64.8837654 C42.2277127,64.9236221 42.8311996,65.8713257 42.9776339,66.5134612 C43.1196308,67.1555968 42.857824,67.5320211 42.8533866,68.1431571 C42.8445118,68.754293 43.1906292,69.5602838 42.9776339,70.4238455 L41.1094871,77.7619052 C41.1094871,77.7619052 40.0267606,77.6999059 39.6140821,77.7619052 C39.2014036,77.8239045 38.7754129,78.0054738 38.4958565,77.9257605 C38.2530352,77.8480252 38.0034498,77.793167 37.7503727,77.7619052 C37.5817514,77.7530481 37.3953805,77.6511921 36.8762043,78.0851872 C36.3570281,78.5280394 36.2549678,78.9000351 36.2549678,78.9000351 C36.2549678,78.9000351 36.1129709,79.0993186 35.6337313,78.9000351 C35.1500544,78.7051802 34.8838102,78.9000351 34.8838102,78.9000351 C34.8838102,78.9000351 34.3557592,78.5236108 33.7655845,79.0638904 C33.1709725,79.60417 33.0201007,80.0425936 33.0201007,80.0425936 C33.0201007,80.0425936 33.2020343,79.7370256 33.6413372,79.5554563 C34.0806401,79.3694584 34.6353156,79.391601 34.6353156,79.391601 C34.6353156,79.391601 34.5687545,79.7635968 35.0080574,80.2064489 C35.4517978,80.649301 35.8822259,80.2064489 35.8822259,80.2064489 L36.6277097,80.2064489 C36.6277097,80.2064489 36.1307205,80.6758722 35.8822259,81.1807236 C35.6292939,81.6900035 35.7579786,82 35.7579786,82 C35.7579786,82 35.9044129,81.6722894 36.2549678,81.5128627 C36.4094648,81.4289888 36.5778001,81.3734894 36.751957,81.3490074 C36.751957,81.3490074 36.8362676,81.4375778 37.2489461,81.5084341 C37.6660621,81.583719 38.0343665,80.963726 38.4914191,81.0212968 C38.9573464,81.0788676 38.8286617,81.0877246 39.2457776,81.0212968 C39.6584562,80.954869 40.0267606,80.7998707 40.6124979,80.8574415 C41.1982351,80.9150123 41.9703433,80.9770116 42.1034654,80.6935862 L42.4806447,79.8787383 L42.9776339,79.8787383 C42.9776339,79.8787383 43.4036246,80.6005873 43.5988703,80.6935862 C43.7941161,80.7910137 43.9716122,80.8574415 43.9716122,80.8574415 C43.9716122,80.8574415 44.002674,81.0035827 44.0958595,81.1851521 C44.1934824,81.3667215 44.3354793,80.9725831 44.2201068,80.5341595 C44.1091717,80.0913073 43.7231176,79.7193116 43.7231176,79.7193116 C43.7231176,79.7193116 44.1002969,79.2631739 44.2201068,79.0638904 C44.3399167,78.864607 44.5440372,78.9044637 44.717096,79.0638904 C44.8945921,79.2277457 44.8147189,79.595313 45.2185226,79.7193116 C45.6178889,79.8388816 45.5912644,80.2064489 45.5912644,80.2064489 C45.5912644,80.2064489 45.6533881,79.298602 45.4670171,79.0638904 C45.2762088,78.8291788 44.947841,78.9487489 44.8457807,78.4128978 C44.739283,77.8770467 44.3443541,77.5980499 44.3443541,77.5980499 C44.3443541,77.5980499 44.0914221,76.1587805 44.5928487,72.8683892 C45.0987127,69.5824265 45.5158286,67.2308817 45.5912644,66.5134612 C45.6622629,65.7916123 45.1608363,65.2159045 45.2185226,65.0431922 C45.2717714,64.8704799 46.4388085,65.1716193 47.335164,65.0431922 C48.227082,64.9191936 48.3735163,64.5029126 49.7002999,64.5560549 C51.0226461,64.6047686 51.8125039,64.4940556 53.5608409,63.5773517 C55.300303,62.6606478 55.4422999,61.881228 55.9215394,61.1328079 C56.400779,60.3799593 57.8473725,59.8396797 59.5335858,59.1754015 C61.219799,58.5111234 63.4828747,57.7449892 65.0093415,57.5457057 C66.5402457,57.3464223 67.8892163,57.4615638 72.2289967,57.8734163 C76.5732146,58.2808403 77.5538808,58.1612702 79.9500786,58.5244089 C82.3374016,58.8831191 83.1982578,59.0824026 83.6774974,59.0115463 C84.1656118,58.9406899 84.178924,59.0115463 84.178924,59.0115463 C84.178924,59.0115463 83.8416813,58.7679776 82.936451,58.5244089 C82.0267833,58.2808403 79.3865283,57.6829899 79.3244047,57.5457057 C79.2622811,57.4039931 83.7839951,58.0417001 83.9304294,58.0328431 C84.0768637,58.0284145 83.5133135,57.6918469 82.06672,57.3818504 C80.6156891,57.071854 78.139618,56.4430039 77.3320106,56.0798652 C76.5244032,55.7122979 76.5865268,55.7521546 76.5865268,55.7521546 C76.5865268,55.7521546 82.7988915,55.3668733 84.9288451,55.4244441 C87.0499239,55.4864434 88.722825,55.0480198 89.0334432,54.9373067 C89.3440615,54.8265937 89.7079285,54.4988831 88.2879595,54.1224588 C86.8679904,53.741606 84.4274186,53.3076109 84.4274186,53.3076109 C84.4274186,53.3076109 84.3830445,53.1747553 84.5516658,53.1437556 C84.7202872,53.112756 86.1580059,52.4440493 87.9152176,51.6779151 C89.6724293,50.9073524 90.0496086,50.7346401 89.4061851,50.5353566 C88.767199,50.3360732 87.8530939,50.1367897 85.1773397,50.5353566 C82.5015855,50.9339235 80.8198096,51.660201 76.8350214,51.6779151 C72.8502332,51.6912007 70.6093445,50.8630672 70.6093445,50.8630672 C70.6093445,50.8630672 68.9941297,50.5840704 66.2562518,49.3927981 C63.5139366,48.2015259 62.1072797,47.488534 60.6518114,46.9482544 C59.2007805,46.4124033 56.2144081,44.2557135 54.5548192,42.5463043 C52.8907929,40.8368951 52.5846121,40.5534698 51.6882566,40.1017606 C50.7963386,39.6544799 50.4457837,39.1230574 50.4457837,39.1230574 C50.4457837,39.1230574 51.0670202,38.8573461 50.1972891,38.3082095 C49.3275581,37.7590729 45.4182057,36.0540922 43.7231176,35.0488179 C42.0280295,34.039115 41.801722,33.6405481 40.3640033,32.4359903 C38.9218472,31.2402896 38.1453016,30.8284371 37.87462,30.3191572 C37.5864361,29.7036735 37.4163594,29.0397494 37.3731934,28.3617508 C37.2888828,27.564617 36.6410219,25.4699264 36.0064732,24.2875112 C35.3674871,23.1050961 34.2403867,21.6126844 32.6429215,20.700409 C31.0498937,19.7925622 29.5811132,19.6862777 27.4156603,20.8642643 C25.2546449,22.0378225 24.1497315,23.8978014 23.5551194,23.9642292 C22.9649448,24.0262285 21.5227887,23.7782313 20.6929942,23.9642292 C19.8631998,24.14137 18.776036,25.3193567 18.7,25.7533518 L18.7,25.7533518 Z" id="Path" fill="#020102"></path>
                </g>
            </g>
        </g>
    </g>
</svg>