<?xml version="1.0" encoding="UTF-8"?>
<svg width="3300px" height="2200px" viewBox="0 0 3300 2200" version="1.1" xmlns="http://www.w3.org/2000/svg" xmlns:xlink="http://www.w3.org/1999/xlink">
    <!-- Generator: Sketch 59.1 (86144) - https://sketch.com -->
    <title>filter</title>
    <desc>Created with Sketch.</desc>
    <g id="Page-1" stroke="none" stroke-width="1" fill="none" fill-rule="evenodd">
        <g id="filter">
            <g id="Notes">
                <rect id="artboard" fill="#FFFFFF" fill-rule="nonzero" x="0" y="0" width="3300" height="2200"></rect>
                <line x1="263" y1="292" x2="3036" y2="292" id="Path" stroke="#000000" stroke-width="0.5"></line>
                <text id="Weight/Scale-Variations" fill="#000000" font-family="Helvetica-Bold, Helvetica" font-size="13" font-weight="bold">
                    <tspan x="263" y="322">Weight/Scale Variations</tspan>
                </text>
                <text id="Ultralight" fill="#000000" font-family="Helvetica" font-size="13" font-weight="normal">
                    <tspan x="533.711" y="322">Ultralight</tspan>
                </text>
                <text id="Thin" fill="#000000" font-family="Helvetica" font-size="13" font-weight="normal">
                    <tspan x="843.422" y="322">Thin</tspan>
                </text>
                <text id="Light" fill="#000000" font-family="Helvetica" font-size="13" font-weight="normal">
                    <tspan x="1138.63" y="322">Light</tspan>
                </text>
                <text id="Regular" fill="#000000" font-family="Helvetica" font-size="13" font-weight="normal">
                    <tspan x="1426.84" y="322">Regular</tspan>
                </text>
                <text id="Medium" fill="#000000" font-family="Helvetica" font-size="13" font-weight="normal">
                    <tspan x="1723.06" y="322">Medium</tspan>
                </text>
                <text id="Semibold" fill="#000000" font-family="Helvetica" font-size="13" font-weight="normal">
                    <tspan x="2015.77" y="322">Semibold</tspan>
                </text>
                <text id="Bold" fill="#000000" font-family="Helvetica" font-size="13" font-weight="normal">
                    <tspan x="2326.48" y="322">Bold</tspan>
                </text>
                <text id="Heavy" fill="#000000" font-family="Helvetica" font-size="13" font-weight="normal">
                    <tspan x="2618.19" y="322">Heavy</tspan>
                </text>
                <text id="Black" fill="#000000" font-family="Helvetica" font-size="13" font-weight="normal">
                    <tspan x="2917.4" y="322">Black</tspan>
                </text>
                <line x1="263" y1="1903" x2="3036" y2="1903" id="Path" stroke="#000000" stroke-width="0.5"></line>
                <g id="Group" transform="translate(264.000000, 1918.000000)" fill="#000000" fill-rule="nonzero">
                    <path d="M8.24805,15.830078 C12.5547,15.830078 16.1387,12.25586 16.1387,7.94922 C16.1387,3.6426 12.5449,0.0684 8.23828,0.0684 C3.94141,0.0684 0.36719,3.6426 0.36719,7.94922 C0.36719,12.25586 3.95117,15.830078 8.24805,15.830078 Z M8.24805,14.345703 C4.70312,14.345703 1.87109,11.50391 1.87109,7.94922 C1.87109,4.3945 4.69336,1.5527 8.23828,1.5527 C11.793,1.5527 14.6348,4.3945 14.6445503,7.94922 C14.6543,11.50391 11.8027,14.345703 8.24805,14.345703 Z M8.22852,11.57227 C8.69727,11.57227 8.9707,11.25977 8.9707,10.74219 L8.9707,8.68164 L11.1973,8.68164 C11.6953,8.68164 12.0371,8.42773 12.0371,7.95898 C12.0371,7.48047 11.7148,7.2168 11.1973,7.2168 L8.9707,7.2168 L8.9707,4.9902 C8.9707,4.4727 8.69727,4.1504 8.22852,4.1504 C7.75977,4.1504 7.50586,4.4922 7.50586,4.9902 L7.50586,7.2168 L5.29883,7.2168 C4.78125,7.2168 4.44922,7.48047 4.44922,7.95898 C4.44922,8.42773 4.80078,8.68164 5.29883,8.68164 L7.50586,8.68164 L7.50586,10.74219 C7.50586,11.24023 7.75977,11.57227 8.22852,11.57227 Z" id="Shape"></path>
                </g>
                <g id="Group" transform="translate(282.506000, 1915.000000)" fill="#000000" fill-rule="nonzero">
                    <path d="M10.709,20.91016 C16.1582,20.91016 20.6699,16.39844 20.6699,10.94922 C20.6699,5.5098 16.1484,0.9883 10.6992,0.9883 C5.25977,0.9883 0.74805,5.5098 0.74805,10.94922 C0.74805,16.39844 5.26953,20.91016 10.709,20.91016 Z M10.709,19.25 C6.09961,19.25 2.41797,15.55859 2.41797,10.94922 C2.41797,6.3496 6.08984,2.6484 10.6992,2.6484 C15.3086,2.6484 19,6.3496 19.0098379,10.94922 C19.0195,15.55859 15.3184,19.25 10.709,19.25 Z M10.6895,15.58789 C11.207,15.58789 11.5195,15.22656 11.5195,14.66016 L11.5195,11.76953 L14.5762,11.76953 C15.123,11.76953 15.5039,11.48633 15.5039,10.96875 C15.5039,10.44141 15.1426,10.13867 14.5762,10.13867 L11.5195,10.13867 L11.5195,7.0723 C11.5195,6.4961 11.207,6.1445 10.6895,6.1445 C10.1719,6.1445 9.8789,6.5156 9.8789,7.0723 L9.8789,10.13867 L6.83203,10.13867 C6.26562,10.13867 5.89453,10.44141 5.89453,10.96875 C5.89453,11.48633 6.28516,11.76953 6.83203,11.76953 L9.8789,11.76953 L9.8789,14.66016 C9.8789,15.20703 10.1719,15.58789 10.6895,15.58789 Z" id="Shape"></path>
                </g>
                <g id="Group" transform="translate(306.924000, 1913.000000)" fill="#000000" fill-rule="nonzero">
                    <path d="M12.9707,25.67383 C19.9336,25.67383 25.6953,19.921875 25.6953,12.95898 C25.6953,5.9961 19.9238,0.2441 12.9609,0.2441 C6.00781,0.2441 0.25586,5.9961 0.25586,12.95898 C0.25586,19.921875 6.01758,25.67383 12.9707,25.67383 Z M12.9707,23.85742 C6.93555,23.85742 2.08203,18.99414 2.08203,12.95898 C2.08203,6.9238 6.92578,2.0605 12.9609,2.0605 C19.0059,2.0605 23.8594,6.9238 23.8691295,12.95898 C23.8789,18.99414 19.0156,23.85742 12.9707,23.85742 Z M12.9512,18.93555 C13.5176,18.93555 13.8691,18.54492 13.8691,17.93945 L13.8691,13.86719 L18.1074,13.86719 C18.6934,13.86719 19.1133,13.53516 19.1133,12.97852 C19.1133,12.40234 18.7227,12.06055 18.1074,12.06055 L13.8691,12.06055 L13.8691,7.8125 C13.8691,7.1973 13.5176,6.8066 12.9512,6.8066 C12.3848,6.8066 12.0625,7.2168 12.0625,7.8125 L12.0625,12.06055 L7.83398,12.06055 C7.21875,12.06055 6.80859,12.40234 6.80859,12.97852 C6.80859,13.53516 7.23828,13.86719 7.83398,13.86719 L12.0625,13.86719 L12.0625,17.93945 C12.0625,18.52539 12.3848,18.93555 12.9512,18.93555 Z" id="Shape"></path>
                </g>
                <text id="Design-Variations" fill="#000000" font-family="Helvetica-Bold, Helvetica" font-size="13" font-weight="bold">
                    <tspan x="263" y="1953">Design Variations</tspan>
                </text>
                <text id="Symbols-are-supported-in-up-to-nine-weights-and-three-scales." fill="#000000" font-family="Helvetica" font-size="13" font-weight="normal">
                    <tspan x="263" y="1971">Symbols are supported in up to nine weights and three scales.</tspan>
                </text>
                <text id="For-optimal-layout-with-text-and-other-symbols,-vertically-align" fill="#000000" font-family="Helvetica" font-size="13" font-weight="normal">
                    <tspan x="263" y="1989">For optimal layout with text and other symbols, vertically align</tspan>
                </text>
                <text id="symbols-with-the-adjacent-text." fill="#000000" font-family="Helvetica" font-size="13" font-weight="normal">
                    <tspan x="263" y="2007">symbols with the adjacent text.</tspan>
                </text>
                <rect id="Rectangle" fill="#00AEEF" fill-rule="nonzero" opacity="0.4" x="776" y="1919" width="3" height="14"></rect>
                <g id="Group" transform="translate(779.000000, 1918.000000)" fill="#000000" fill-rule="nonzero">
                    <path d="M10.5273,15 L12.373,15 L7.17773,0.9082 L5.43945,0.9082 L0.244141,15 L2.08984,15 L3.50586,10.9668 L9.11133,10.9668 L10.5273,15 Z M6.2793,3.0469 L6.33789,3.0469 L8.59375,9.47266 L4.02344,9.47266 L6.2793,3.0469 Z" id="Shape"></path>
                </g>
                <rect id="Rectangle" fill="#00AEEF" fill-rule="nonzero" opacity="0.4" x="791.617" y="1919" width="3" height="14"></rect>
                <text id="Margins" fill="#000000" font-family="Helvetica-Bold, Helvetica" font-size="13" font-weight="bold">
                    <tspan x="776" y="1953">Margins</tspan>
                </text>
                <text id="Leading-and-trailing-margins-on-the-left-and-right-side-of-each-symbol" fill="#000000" font-family="Helvetica" font-size="13" font-weight="normal">
                    <tspan x="776" y="1971">Leading and trailing margins on the left and right side of each symbol</tspan>
                </text>
                <text id="can-be-adjusted-by-modifying-the-width-of-the-blue-rectangles." fill="#000000" font-family="Helvetica" font-size="13" font-weight="normal">
                    <tspan x="776" y="1989">can be adjusted by modifying the width of the blue rectangles.</tspan>
                </text>
                <text id="Modifications-are-automatically-applied-proportionally-to-all" fill="#000000" font-family="Helvetica" font-size="13" font-weight="normal">
                    <tspan x="776" y="2007">Modifications are automatically applied proportionally to all</tspan>
                </text>
                <text id="scales-and-weights." fill="#000000" font-family="Helvetica" font-size="13" font-weight="normal">
                    <tspan x="776" y="2025">scales and weights.</tspan>
                </text>
                <g id="Group" transform="translate(1291.000000, 1915.000000)" fill="#000000" fill-rule="nonzero">
                    <path d="M0.83203,21.11523 L2.375,22.6582 C3.22461,23.48828 4.19141,23.41992 5.06055,22.46289 L15.2754,11.33984 C15.7051,11.63281 16.0957,11.62305 16.5645,11.52539 L17.6094,11.31055 L18.3027,12.00391 L18.2539,12.52148 C18.1855,13.04883 18.3516,13.46875 18.8496,13.9668 L19.6602,14.77734 C20.168,15.28516 20.8223,15.31445 21.3008,14.83594 L24.5527,11.58398 C25.0312,11.10547 25.0117,10.45117 24.5039,9.94336 L23.6836,9.12305 C23.1855,8.625 22.7754,8.44922 22.2383,8.52734 L21.7109,8.58594 L21.0566,7.9219 L21.3398,6.7793 C21.4863,6.2129 21.3398,5.7441 20.7148,5.1387 L18.3027,2.7461 C14.7578,-0.7793 10.2266,-0.6719 7.11133,2.4629 C6.69141,2.8926 6.64258,3.4785 6.91602,3.9082 C7.15039,4.2793 7.62891,4.5039 8.2734,4.3379 C9.7871,3.957 11.3008,4.0742 12.7852,5.0801 L12.1602,6.6621 C11.9258,7.248 11.9453,7.7266 12.1797,8.16602 L1.01758,18.439453 C0.08008,19.30859 -0.02734,20.25586 0.83203,21.11523 Z M8.6738,2.8535 C11.3398,0.8613 14.6504,1.1738 17.0527,3.5859 L19.6797,6.1934 C19.9141,6.4277 19.9434,6.6133 19.8848,6.9062 L19.5039,8.46875 L21.0762,10.04102 L22.043,9.95312 C22.3262,9.92383 22.4141,9.94336 22.6387,10.16797 L23.2637,10.79297 L20.5098,13.53711 L19.8848,12.92188 C19.6602,12.69727 19.6406,12.59961 19.6699,12.31641 L19.7578,11.35938 L18.1953,9.79688 L16.5742,10.10938 C16.291,10.16797 16.1445,10.16797 15.9102,9.92383 L13.7324,7.7461 C13.5078,7.5117 13.4785,7.375 13.6055,7.0527 L14.5527,4.7773 C12.9512,3.2441 10.8418,2.3945 8.8008,3.0488 C8.7129,3.0781 8.6445,3.0586 8.6152,3.0195 C8.5859,2.9707 8.5859,2.9219 8.6738,2.8535 Z M2.10156,20.41211 C1.61328,19.91406 1.78906,19.61133 2.12109,19.30859 L13.0781,9.19141 L14.3086,10.42188 L4.15234,21.34961 C3.84961,21.68164 3.46875,21.7793 3.06836,21.37891 L2.10156,20.41211 Z" id="Shape"></path>
                </g>
                <text id="Exporting" fill="#000000" font-family="Helvetica-Bold, Helvetica" font-size="13" font-weight="bold">
                    <tspan x="1289" y="1953">Exporting</tspan>
                </text>
                <text id="Symbols-should-be-outlined-when-exporting-to-ensure-the" fill="#000000" font-family="Helvetica" font-size="13" font-weight="normal">
                    <tspan x="1289" y="1971">Symbols should be outlined when exporting to ensure the</tspan>
                </text>
                <text id="design-is-preserved-when-submitting-to-Xcode." fill="#000000" font-family="Helvetica" font-size="13" font-weight="normal">
                    <tspan x="1289" y="1989">design is preserved when submitting to Xcode.</tspan>
                </text>
                <text id="Template-v.1.0" fill="#000000" font-family="Helvetica" font-size="13" font-weight="normal">
                    <tspan x="2952" y="1933">Template v.1.0</tspan>
                </text>
                <text id="Generated-from-circle" fill="#000000" font-family="Helvetica" font-size="13" font-weight="normal">
                    <tspan x="2911" y="1951">Generated from circle</tspan>
                </text>
                <text id="Typeset-at-100-points" fill="#000000" font-family="Helvetica" font-size="13" font-weight="normal">
                    <tspan x="2912" y="1969">Typeset at 100 points</tspan>
                </text>
                <text id="Small" fill="#000000" font-family="Helvetica" font-size="13" font-weight="normal">
                    <tspan x="263" y="726">Small</tspan>
                </text>
                <text id="Medium" fill="#000000" font-family="Helvetica" font-size="13" font-weight="normal">
                    <tspan x="263" y="1156">Medium</tspan>
                </text>
                <text id="Large" fill="#000000" font-family="Helvetica" font-size="13" font-weight="normal">
                    <tspan x="263" y="1586">Large</tspan>
                </text>
            </g>
            <g id="Guides" transform="translate(263.000000, 625.000000)">
                <g id="H-reference" transform="translate(76.000000, 0.000000)" fill="#27AAE1" fill-rule="nonzero">
                    <path d="M54.9316,71 L57.666,71 L30.5664,0.541 L28.0762,0.541 L0.976562,71 L3.66211,71 L12.9395,46.5371 L45.7031,46.5371 L54.9316,71 Z M29.1992,3.9102 L29.4434,3.9102 L44.8242,44.291 L13.8184,44.291 L29.1992,3.9102 Z" id="Shape"></path>
                </g>
                <line x1="0" y1="71" x2="2773" y2="71" id="Baseline-S" stroke="#27AAE1" stroke-width="0.577"></line>
                <line x1="0" y1="0.541" x2="2773" y2="0.541" id="Capline-S" stroke="#27AAE1" stroke-width="0.577"></line>
                <g id="H-reference" transform="translate(76.000000, 430.000000)" fill="#27AAE1" fill-rule="nonzero">
                    <path d="M54.9316,71 L57.666,71 L30.5664,0.541 L28.0762,0.541 L0.976562,71 L3.66211,71 L12.9395,46.5371 L45.7031,46.5371 L54.9316,71 Z M29.1992,3.9102 L29.4434,3.9102 L44.8242,44.291 L13.8184,44.291 L29.1992,3.9102 Z" id="Shape"></path>
                </g>
                <line x1="0" y1="501" x2="2773" y2="501" id="Baseline-M" stroke="#27AAE1" stroke-width="0.577"></line>
                <line x1="0" y1="430.54" x2="2773" y2="430.54" id="Capline-M" stroke="#27AAE1" stroke-width="0.577"></line>
                <g id="H-reference" transform="translate(76.000000, 860.000000)" fill="#27AAE1" fill-rule="nonzero">
                    <path d="M54.9316,71 L57.666,71 L30.5664,0.541 L28.0762,0.541 L0.976562,71 L3.66211,71 L12.9395,46.5371 L45.7031,46.5371 L54.9316,71 Z M29.1992,3.9102 L29.4434,3.9102 L44.8242,44.291 L13.8184,44.291 L29.1992,3.9102 Z" id="Shape"></path>
                </g>
                <line x1="0" y1="931" x2="2773" y2="931" id="Baseline-L" stroke="#27AAE1" stroke-width="0.577"></line>
                <line x1="0" y1="860.54" x2="2773" y2="860.54" id="Capline-L" stroke="#27AAE1" stroke-width="0.577"></line>
                <rect id="left-margin" fill="#00AEEF" fill-rule="nonzero" opacity="0.4" x="1128.3" y="405.79" width="8.74023" height="119.336"></rect>
                <rect id="right-margin" fill="#00AEEF" fill-rule="nonzero" opacity="0.4" x="1236.65" y="405.79" width="8.74023" height="119.336"></rect>
            </g>
            <g id="Symbols" transform="translate(1399.000000, 1040.000000)" fill="#000000" fill-rule="nonzero">
                <g id="Regular-M" transform="translate(0.300000, 0.000000)">
                    <!-- <path d="M50.5449,100.5508 C77.791,100.5508 100.35,77.99219 100.35,50.7461 C100.35,23.5488 77.7422,0.9414 50.4961,0.9414 C23.2988,0.9414 0.74023,23.5488 0.74023,50.7461 C0.74023,77.99219 23.3477,100.5508 50.5449,100.5508 Z M50.1551,92.0078 C27.1082,92.0078 8.7,73.5508 8.7,50.5039 C8.7,27.5058 27.0594,9 50.1063,9 C73.1532,9 91.6102,27.5058 91.6593938,50.5039 C91.7082,73.5508 73.202,92.0078 50.1551,92.0078 Z" id="Shape"></path> -->
                    <path d="M69.1150678,79.9023091 L69.1150678,80.7466754 C69.128222,81.0783907 69.1676846,81.414414 69.1501456,81.7461293 C69.1501456,81.8322892 68.9966799,81.9873769 68.8870616,81.9959928 C68.6371318,82.0089168 68.3170462,82 68.2030432,81.8193652 C67.9969607,81.5048818 67.8391103,81.1817825 67.6330278,80.8716071 C67.4137911,80.5485078 67.1507071,80.2340244 66.9314704,79.9109251 C66.8656994,79.8204573 66.8613147,79.7170655 66.8262368,79.6222897 C66.8174673,79.6007497 66.7867742,79.5792097 66.7516963,79.5447458 C66.5806917,79.7472214 66.5193054,79.932465 66.6289238,80.1392486 C66.7823894,80.427884 66.6815406,80.7079035 66.5412291,80.9879229 C66.4316108,81.1903985 66.4228413,81.410106 66.3307619,81.6125816 C66.272487,81.7509748 66.1670935,81.8651831 66.0326,81.935681 C65.9361359,81.9787609 65.6993602,81.927065 65.5283556,81.909833 C65.5020472,81.905525 65.4713541,81.8538291 65.4757388,81.8236732 C65.5371251,81.4574939 65.5853572,81.0956227 65.3836594,80.7337514 C65.29158,80.5614317 65.3135037,80.3761881 65.2652716,80.1952525 C65.1951159,79.945389 65.1074212,79.6955255 65.028496,79.445662 C64.9408013,79.1742586 64.8837998,78.8985471 64.7522578,78.6400676 C64.5417906,78.2394245 64.2787065,77.8473972 64.0375462,77.45537 C63.7393843,76.972875 63.4675308,76.481764 63.1299063,76.012193 C62.9458346,75.7745771 62.7127372,75.5778567 62.4458879,75.4349221 C61.8758725,75.1118228 61.2313166,74.8318034 60.6437623,74.521628 C59.7189668,74.0375231 58.7995795,73.5435107 57.8857649,73.039679 C57.3595968,72.7510436 56.8772761,72.4322522 56.3642623,72.1350008 C56.0134836,71.9368332 55.6057034,71.7731296 55.2768483,71.566346 C54.8296055,71.2863265 54.4305947,70.9761512 53.9570435,70.6444358 C53.9395046,70.8382954 53.8912725,70.9933831 53.9219656,71.1441628 C53.9833519,71.4629542 54.0885855,71.7774375 54.1718954,72.0919209 C54.2332817,72.3245524 54.2727443,72.557184 54.3472848,72.7811995 C54.5051352,73.2852345 54.6805246,73.7892695 54.8427597,74.2889965 C54.904146,74.491472 54.9304544,74.6939476 54.9830712,74.8921152 C55.0751506,75.2367545 55.2066926,75.5813938 55.2636941,75.9346491 C55.3126647,76.230669 55.3052307,76.5330516 55.2417705,76.8264033 C55.2023079,77.003031 55.035688,77.1882746 54.8471444,77.3347463 C54.5928299,77.5329139 54.3034375,77.481218 54.0008908,77.3175143 C53.5799564,77.0848828 53.0976357,76.8867152 52.6284692,76.6885476 C52.2075348,76.503304 51.7515225,76.3439083 51.348127,76.1543567 C51.1376598,76.0552729 51.0105025,75.8958772 50.8219589,75.7752534 C50.5281818,75.5943178 50.194942,75.4349221 49.9055496,75.2496785 C49.585464,75.0428949 49.2916869,74.8188794 48.993525,74.5948638 C48.6865936,74.3751563 48.3752776,74.1554487 48.0902699,73.9271252 C47.5509476,73.4877101 46.9107765,73.0784509 47.0773964,72.4624082 C47.1124743,72.3202444 47.0203949,72.1608488 46.9239307,72.022993 C46.7457603,71.7804413 46.5509159,71.5501445 46.3407611,71.3337144 C46.1825784,71.1723708 46.0125807,71.0226266 45.832132,70.8856834 C45.8058236,70.8641434 45.6830511,70.8856834 45.5471243,70.8856834 C45.5164312,70.8382954 45.4769686,70.7392116 45.4024281,70.6444358 C45.3585808,70.584124 45.2884251,70.5065801 45.1963457,70.4764242 C44.8192586,70.3687244 44.4246325,70.2825646 44.0475454,70.1748648 C43.6353805,70.058549 43.2407544,69.9250013 42.8373589,69.7957616 C42.6356612,69.7311417 42.3988856,69.6837538 42.2454199,69.58467 C41.8288702,69.3218825 41.4561678,69.0246311 41.0527723,68.7575357 C40.5108944,68.4105273 40.0601686,67.9425961 39.7373522,67.3919024 C39.3427262,66.7026238 38.9086376,66.0262692 38.4964726,65.3412986 C38.2947749,65.0009673 38.1062313,64.660636 37.8957641,64.3246126 C37.7291442,64.0661332 37.5142923,63.8119617 37.3652113,63.5491742 C37.0933579,63.0709872 36.860967,62.5841842 36.5891135,62.1016891 C36.4223435,61.7901717 36.2287067,61.4932699 36.0103286,61.2142429 C35.6683194,60.7920598 35.2386155,60.3957246 34.9053758,59.9692335 C34.5984444,59.5728983 34.3792077,59.1550231 34.1029695,58.7500719 C33.8749633,58.4097406 33.6206488,58.0780253 33.3838732,57.742002 C33.1646365,57.4189026 32.9629387,57.0958033 32.7437021,56.7727039 C32.69547,56.6994681 32.5858517,56.6391562 32.5288501,56.5659204 L31.344972,55.0365835 C30.9240376,54.4765446 30.5118726,53.9165057 30.0733993,53.3564669 C29.9857046,53.2444591 29.7752374,53.1669152 29.6700038,53.0549075 C29.4256328,52.801338 29.1915963,52.5383437 28.9684464,52.2665451 C28.7711334,52.0296056 28.5606662,51.792666 28.4291241,51.5471105 C28.1397317,51.0215356 27.9029561,50.4873447 27.9117256,49.9229978 C27.9137954,49.4548543 27.8712237,48.9875497 27.7845683,48.5272086 C27.7012584,48.0274817 27.5127148,47.5363707 27.4644827,47.0409517 C27.4337896,46.7049283 27.5741011,46.364597 27.6223332,46.0285737 C27.6523502,45.82464 27.6626272,45.6183701 27.6530263,45.412531 C27.6267179,44.9300359 27.6267179,44.4518489 27.525869,43.9779699 C27.460098,43.6505625 27.6004095,43.3533111 27.6793347,43.0474437 C27.7582599,42.7415764 27.872263,42.435709 27.9599576,42.1255336 C28.003805,41.9790619 28.0081897,41.8239742 28.0564218,41.6818105 C28.2098875,41.1691596 28.4072005,40.6651246 28.529973,40.1524736 C28.6395914,39.7173665 28.679054,39.2736434 28.727286,38.8342283 C28.7492677,38.6334673 28.7448466,38.430761 28.7141318,38.2311095 C28.645779,37.7956451 28.5668312,37.3618498 28.4773562,36.9300961 C28.4203547,36.6500767 28.3677379,36.3700573 28.2712737,36.0900378 C28.2274264,35.9607981 28.0344981,35.8444823 28.003805,35.7152426 C27.872263,35.2112076 27.3329407,34.8191804 26.9733926,34.3797653 C26.7984447,34.164037 26.6031914,33.9649892 26.390223,33.7852625 C26.2542963,33.6689467 26.0306748,33.5957109 25.8552855,33.4923191 C25.7204298,33.4133317 25.5901483,33.3270387 25.4650442,33.2338396 C25.3641953,33.1562958 25.2984243,33.06152 25.1800365,32.9969001 C24.7863216,32.7858721 24.3871805,32.5847668 23.9830042,32.3937813 C23.838308,32.3248535 23.6234561,32.3076215 23.491914,32.2386936 C22.997729,31.9779118 22.5382353,31.6581336 22.1238771,31.2866276 C21.764329,30.9635282 21.6547106,30.6102729 21.7160969,30.2484017 C21.7906374,29.7874466 22.1414161,29.3954194 22.6763536,29.0464721 C23.360372,28.602749 24.2197798,28.3141136 25.0748029,28.0125542 C25.5615083,27.8402346 26.0175206,27.637759 26.5086108,27.4697473 C26.8155422,27.3620475 27.1663209,27.2974277 27.4951759,27.2026518 C28.0651913,27.0475642 28.6220524,26.8752445 29.1964525,26.7287728 C29.7752374,26.5779931 30.3496375,26.4185974 30.9547307,26.3195136 C31.7834454,26.1816579 32.6253143,26.0481102 33.4759526,26.0179542 C34.4844413,25.9748743 35.510469,26.0179542 36.5277272,26.0567262 C37.2643625,26.0825741 38.0185367,26.129962 38.7288635,26.2376618 C39.7680454,26.3970575 40.7853036,26.612457 41.7981771,26.8235486 C42.7847421,27.0260242 43.7318446,27.3103516 44.7403334,27.4525153 C45.4331213,27.5559071 46.2048344,27.4999032 46.9327002,27.4783633 C47.9499584,27.4395914 48.9628319,27.3749715 49.9713206,27.3060436 C50.475565,27.2672717 50.9710399,27.1940359 51.4665148,27.133724 C52.023376,27.0647961 52.5714677,26.9743283 53.1327136,26.9312484 C53.8769755,26.8744371 54.622644,26.837088 55.3689277,26.8192406 C55.9871752,26.8020087 56.6054226,26.8278566 57.2236701,26.8321646 C57.6489892,26.8364726 58.0786931,26.8149326 58.4952428,26.8493966 C58.7186832,26.880325 58.9342959,26.951912 59.1310292,27.0604881 C59.5081163,27.2457318 59.2888796,27.5860631 58.7451727,27.7109948 L56.3861859,28.2494937 C56.0354073,28.3270376 55.6758591,28.3787335 55.3338499,28.4562773 C53.5135078,28.8431005 51.7008231,29.2639238 49.8967801,29.7185188 C49.7476992,29.7572907 49.6205419,29.8176025 49.4889999,29.8692984 C48.58136,30.2268617 47.6824896,30.588733 46.770465,30.9376803 C45.6786664,31.3598634 44.5780982,31.7648146 43.4862995,32.1869977 C43.3109102,32.2516176 43.1793682,32.3679334 43.0039788,32.4368612 C42.8066658,32.5144051 42.5655055,32.557485 42.3638077,32.6350288 C41.6315572,32.9021243 41.2325464,33.2596876 41.3070869,33.8024945 C41.3728579,34.3194534 41.6578656,34.7761005 42.0568764,35.2241316 C42.276113,35.4610711 42.3769619,35.7410905 42.6356612,35.9564901 C43.0916735,36.3442093 43.5915331,36.7146966 44.30186,36.9559441 C44.95957,37.1756516 45.6041259,37.4082832 46.2662207,37.6193747 C46.8844681,37.8218503 47.529024,37.99417 48.1428867,38.1966456 C48.467357,38.3043454 48.7699036,38.4378931 49.0636807,38.5714408 C49.5898488,38.8126883 50.1335558,39.0496278 50.6202612,39.3210313 C51.067504,39.5708948 51.4489758,39.8595302 51.8479866,40.1395496 C52.20315,40.3807972 52.549544,40.6263527 52.8915532,40.8805241 C53.0450189,40.9925319 53.1634067,41.1260796 53.3168724,41.2380874 C53.6369579,41.466411 53.9789672,41.6861185 54.2990527,41.91875 C54.4963657,42.0609137 54.6717551,42.2160014 54.8602986,42.3624731 C55.0488422,42.5089448 55.2461552,42.6468006 55.430314,42.7932723 C55.7416301,43.0517517 56.0836393,43.2929993 56.3511081,43.5644027 C56.7983509,44.0167418 57.1842075,44.4863128 57.6182961,44.9429599 C58.0129221,45.3608351 58.2014657,45.8174821 58.3593161,46.2784372 C58.4094821,46.4371633 58.4273608,46.6040383 58.4119329,46.7695482 C58.3900092,47.1184955 58.6443238,47.3985149 58.9819483,47.6656104 C59.2099544,47.846546 59.4028827,48.0447136 59.6221194,48.2256493 C59.6922751,48.2859611 59.8018935,48.3247331 59.8852034,48.376429 L61.1392372,49.1260194 C61.3816415,49.2525779 61.664533,49.281916 61.9284893,49.2078713 C62.5686604,49.0484756 63.2000621,48.8718479 63.7963858,48.6693724 C64.4628653,48.4453568 65.0416502,48.1308734 65.3661205,47.7216143 C65.7344381,47.2520432 66.0764473,46.7480083 65.5195862,46.2267413 C65.3994411,46.1159491 65.27512,46.0096109 65.1468838,45.90795 C64.8837998,45.6968584 65.1381143,45.4900748 65.1468838,45.2789832 C65.1582113,45.1250729 65.1131064,44.9722607 65.0197265,44.8481841 C64.747873,44.5121608 64.616331,44.1804455 64.8443372,43.8142662 C64.8881845,43.7539543 64.8750303,43.6764105 64.8925692,43.6031746 C64.9013387,43.5687107 64.8925692,43.5256308 64.9276471,43.5083988 C65.2784258,43.3145392 65.5985114,43.0905237 66.0062916,42.9483599 C66.6508474,42.7243444 67.3260964,42.7846563 68.0276538,42.9483599 C68.5976692,43.0775997 69.2290708,43.1077556 69.8341641,43.1852995 C69.9306282,43.1982234 70.0095534,43.2542273 70.0972481,43.2886913 C70.0270924,43.3360792 69.9657061,43.417931 69.8823961,43.426547 C69.6719289,43.4523949 69.4483075,43.4480869 69.2334556,43.4567029 C68.8256753,43.4739349 68.4091256,43.4653189 68.0144996,43.5213228 C67.6111041,43.5730187 67.2252475,43.6807185 66.839391,43.7798023 C66.756081,43.8013422 66.6990795,43.89181 66.6859253,43.9521219 C66.624539,44.3312251 66.7516963,44.5250848 67.448869,44.5164688 C68.0188843,44.5078528 68.5932845,44.4604649 69.1676846,44.4346169 C69.5930037,44.417385 70.0227076,44.395845 70.4524115,44.391537 C70.5488757,44.391537 70.6453398,44.4389249 70.7418039,44.4690809 C70.6848024,44.5293927 70.6541093,44.6241686 70.5664146,44.6457085 C70.0534008,44.7878722 69.522848,44.904188 69.0098341,45.0463517 C68.2118126,45.2617513 67.6637209,45.6063906 67.6505667,46.1664294 C67.6417972,46.4033689 67.580411,46.6403085 67.5672568,46.87294 C67.562872,47.0452596 67.6111041,47.2175793 67.6154888,47.389899 C67.6242583,47.7646942 67.6374125,48.1394894 67.6111041,48.5099767 C67.5979499,48.6650644 67.4751774,48.8115361 67.4225606,48.9709317 C67.3874827,49.0786315 67.3480201,49.1949473 67.383098,49.2983391 C67.4620232,49.5395866 67.7426461,49.6214384 68.1372722,49.5180466 C68.91337,49.315571 69.6894679,49.1130955 70.461181,48.9020039 C71.1057368,48.7296842 71.3819751,48.3850449 71.5617491,48.0145577 C71.6845217,47.7733102 71.7195995,47.5105227 71.8292179,47.2649672 C71.8993736,47.1098795 72.0484546,46.9634078 72.1361492,46.8083201 C72.3510012,46.4335249 72.9341708,46.2784372 73.4340304,46.1018096 C73.8725038,45.9553379 74.4074413,45.895026 74.9116857,45.8390221 C75.3063117,45.7959422 75.7228614,45.8131741 76.1262569,45.8217901 C76.2402599,45.8217901 76.4156493,45.882102 76.4419577,45.9337979 C76.4682661,45.9898018 76.3674172,46.0975016 76.2709531,46.1276575 C75.7930171,46.2827452 75.2975422,46.4162929 74.8152215,46.5584566 C74.2188977,46.7393923 73.9601984,47.0840316 74.0917405,47.4631348 C74.1531267,47.6440704 74.0391237,47.846546 74.0084305,48.0360976 C73.9996611,48.0877935 74.0259695,48.1437974 74.0391237,48.2256493 C73.754116,48.5099767 73.4559541,48.846 73.0920212,49.1561754 C72.9015622,49.2839203 72.6842499,49.3678514 72.4562348,49.4017309 C72.140534,49.4620428 71.4389766,49.815298 71.4915934,50.0048497 C71.5617491,50.2590211 71.745908,50.5045766 71.943221,50.7372082 C71.9870683,50.7889041 72.3159233,50.7845961 72.4869279,50.7544401 C72.7850898,50.7113602 73.078867,50.6295084 73.3551052,50.5433486 C73.7497312,50.4227248 74.1268183,50.2805611 74.5126749,50.1470134 C74.5565222,50.1340894 74.6354474,50.1470134 74.6880642,50.1599373 C74.9862261,50.2417892 75.2668491,50.349489 75.5737804,50.4054928 C75.8061713,50.4485728 76.0341775,50.5778125 76.3104157,50.4701127 C76.3279546,50.4658047 76.3849562,50.4916527 76.4244188,50.5002686 C76.6041928,50.5519645 76.7883517,50.6467404 76.9681257,50.6424324 C77.4723701,50.6252004 77.8143793,50.79752 78.1476191,50.9655317 C78.4983978,51.1378514 78.7351734,51.3661749 78.6957108,51.6591183 C78.6913261,51.7065062 78.6387093,51.7538941 78.6080161,51.796974 C78.5290909,51.7754341 78.4326268,51.7538941 78.3756252,51.7194302 C78.1388496,51.5772665 77.9371519,51.4092548 77.6740679,51.2800151 C77.5425258,51.2153952 77.3232892,51.2024712 77.1391303,51.1809313 C77.0032036,51.1636993 76.8585074,51.1723153 76.7225807,51.1809313 C76.551576,51.1809313 76.3586478,51.1636993 76.2183363,51.2067792 C75.7710934,51.336019 75.350159,51.4954146 74.9160704,51.6418863 L74.806452,51.6763503 C74.2057435,51.792666 73.6006503,51.9003658 73.0087112,52.0252976 C72.6855694,52.0895658 72.4052076,52.2852014 72.2369981,52.5637965 C71.5661339,53.5115545 71.1627384,54.5023925 71.3074346,55.5363104 C71.3732056,55.9843415 71.5442102,56.4194487 71.6669827,56.8588638 C71.6801369,56.9191756 71.6801369,56.9751795 71.6889064,57.0354914 C71.5442102,57.0354914 71.3425125,57.0785713 71.267972,57.0354914 C71.0081459,56.9201715 70.7707465,56.7612738 70.5664146,56.5659204 C70.4603485,56.4374413 70.3363525,56.3243173 70.198097,56.229897 C69.7157763,55.9024897 69.7289305,55.5061545 69.7376999,55.1098193 C69.7464694,54.6747122 69.7552389,54.2396051 69.3956907,53.8346539 C69.2641487,53.6924902 69.2641487,53.5115545 69.1852235,53.3521589 C69.1238372,53.2229191 69.0317578,53.1539913 68.7467501,53.2143032 C68.5625913,53.2530751 68.303892,53.2143032 68.106579,53.1669152 C67.8961118,53.1152194 67.7163377,53.0204435 67.5321789,52.9385917 C67.4707926,52.9127438 67.4225606,52.8696638 67.3787132,52.8308919 C67.1112445,52.6025684 66.8613147,52.3570129 66.558768,52.1459213 C66.4842276,52.0899174 66.1992199,52.0856094 66.0632931,52.1200734 C65.686206,52.2277731 65.3398121,52.3656289 64.9802639,52.4905606 C64.9671097,52.4948686 64.9539555,52.5077926 64.9408013,52.5034846 C64.4672501,52.4604047 64.2260897,52.6671883 63.9060042,52.81366 C63.5639949,52.9773636 63.134291,53.0721394 62.7791276,53.2315351 C62.0988514,53.5118401 61.5026957,53.9581749 61.0471578,54.5282405 C60.5209898,55.2132111 59.8369713,55.8378698 58.9687941,56.4022167 C58.638781,56.6014947 58.33409,56.8386674 58.0611542,57.1087273 C57.767377,57.4275186 57.4253678,57.737694 57.2192853,58.0780253 C56.846583,58.694068 56.6931173,59.3187268 57.1973617,59.9520015 C57.5656793,60.4086486 57.9208427,60.8782196 58.1926962,61.3607146 C58.3856245,61.69243 58.4513955,62.0499933 58.5347054,62.3989405 C58.6136306,62.7091159 58.6530932,63.0235993 58.6881711,63.3337747 C58.723249,63.661182 58.6969406,63.9928973 58.7583269,64.3246126 C58.8197131,64.6692519 58.7846353,65.0268152 59.0214109,65.3714545 C59.2444004,65.7200853 59.4142805,66.0988913 59.5256552,66.4958402 C59.6001957,66.7457037 59.8895881,66.9007914 60.0869012,67.098959 C60.3631394,67.3574385 60.6569165,67.615918 60.9638479,67.8743975 C61.3453197,68.1802648 61.7530999,68.4775162 62.1521107,68.7833836 C62.4327337,68.9987832 62.7221261,69.2055668 62.9852101,69.4252743 C63.5113781,69.8646894 64.0375462,70.3084125 64.5286363,70.7650596 C65.0328807,71.2346306 65.4932778,71.7128177 65.9755985,72.1910047 L66.9007773,73.1086068 C67.0849361,73.2852345 67.2954033,73.4575541 67.4400995,73.6471058 C67.5716415,73.8194254 67.6154888,74.021901 67.7470309,74.1985286 C67.8741881,74.3708483 68.0846553,74.530244 68.2249668,74.7025636 C68.3915867,74.9179632 68.518744,75.1419787 68.6634402,75.3616863 C68.9484479,75.7881774 69.2685334,76.2103606 69.4965396,76.6454677 C69.6763137,76.994415 69.7420847,77.3692102 69.8604725,77.7267735 C69.9218587,77.9163251 70.0095534,78.1058767 70.0577855,78.2954283 C70.180558,78.7477674 70.1893275,79.2001065 69.9306282,79.6438296 C69.8999351,79.6998335 69.8648572,79.7601454 69.8560877,79.8161493 C69.8122404,80.0573968 69.6412358,80.1047847 69.3167655,79.9712369 L69.1150678,79.9023091 L69.1150678,79.9023091 Z M60.7,60.9089741 C60.9969489,60.9674635 61.0824342,61.0169545 61.1634203,60.9944586 C62.4951911,60.562537 63.8314612,60.1306155 65.163232,59.6806972 C65.7841252,59.4737348 66.4230152,59.3117642 67.0169131,58.9608279 C67.8582683,58.4659178 68.6816266,57.8540289 69.4779896,57.1791515 C69.6309633,57.0531743 69.7479431,56.3513018 69.6804547,56.0228615 C69.4914873,55.0870314 69.0955554,54.2456842 68.9830747,53.2963566 C68.8435987,52.050083 68.5511491,51.6541549 67.8852636,52.3200339 C66.1755578,54.0207251 64.4433559,55.6584276 62.8011385,57.512091 C62.0452685,58.3534382 61.4693676,59.6402045 60.7,60.9089741 L60.7,60.9089741 Z M69.7,54.6455519 C69.7855124,54.8390655 69.8395202,55.4826109 70.3030873,55.9281423 C71.6982894,57.2647366 73.2195097,58.5248254 73.552558,60.248447 C73.6065658,60.531967 74.4301851,60.7524825 74.8982528,61 C75.1052828,60.6669765 75.4833376,60.3384533 75.4923389,60.0009295 C75.5283441,58.2863086 75.4788369,56.5806883 78.4447665,55.8021334 C78.6112906,55.7571303 78.7778147,55.3341004 78.6607978,55.2170922 C77.4996296,54.0965132 76.860537,52.7644192 74.5652046,52.1973792 C72.0898461,51.5853361 69.7810117,52.3953932 69.7,54.6455519 L69.7,54.6455519 Z" id="Shape"></path>
                </g>
            </g>
        </g>
    </g>
</svg>