<?xml version="1.0" encoding="UTF-8"?>
<svg width="3300px" height="2200px" viewBox="0 0 3300 2200" version="1.1" xmlns="http://www.w3.org/2000/svg" xmlns:xlink="http://www.w3.org/1999/xlink">
    <!-- Generator: Sketch 59.1 (86144) - https://sketch.com -->
    <title>filter</title>
    <desc>Created with Sketch.</desc>
    <g id="Page-1" stroke="none" stroke-width="1" fill="none" fill-rule="evenodd">
        <g id="filter">
            <g id="Notes">
                <rect id="artboard" fill="#FFFFFF" fill-rule="nonzero" x="0" y="0" width="3300" height="2200"></rect>
                <line x1="263" y1="292" x2="3036" y2="292" id="Path" stroke="#000000" stroke-width="0.5"></line>
                <text id="Weight/Scale-Variations" fill="#000000" font-family="Helvetica-Bold, Helvetica" font-size="13" font-weight="bold">
                    <tspan x="263" y="322">Weight/Scale Variations</tspan>
                </text>
                <text id="Ultralight" fill="#000000" font-family="Helvetica" font-size="13" font-weight="normal">
                    <tspan x="533.711" y="322">Ultralight</tspan>
                </text>
                <text id="Thin" fill="#000000" font-family="Helvetica" font-size="13" font-weight="normal">
                    <tspan x="843.422" y="322">Thin</tspan>
                </text>
                <text id="Light" fill="#000000" font-family="Helvetica" font-size="13" font-weight="normal">
                    <tspan x="1138.63" y="322">Light</tspan>
                </text>
                <text id="Regular" fill="#000000" font-family="Helvetica" font-size="13" font-weight="normal">
                    <tspan x="1426.84" y="322">Regular</tspan>
                </text>
                <text id="Medium" fill="#000000" font-family="Helvetica" font-size="13" font-weight="normal">
                    <tspan x="1723.06" y="322">Medium</tspan>
                </text>
                <text id="Semibold" fill="#000000" font-family="Helvetica" font-size="13" font-weight="normal">
                    <tspan x="2015.77" y="322">Semibold</tspan>
                </text>
                <text id="Bold" fill="#000000" font-family="Helvetica" font-size="13" font-weight="normal">
                    <tspan x="2326.48" y="322">Bold</tspan>
                </text>
                <text id="Heavy" fill="#000000" font-family="Helvetica" font-size="13" font-weight="normal">
                    <tspan x="2618.19" y="322">Heavy</tspan>
                </text>
                <text id="Black" fill="#000000" font-family="Helvetica" font-size="13" font-weight="normal">
                    <tspan x="2917.4" y="322">Black</tspan>
                </text>
                <line x1="263" y1="1903" x2="3036" y2="1903" id="Path" stroke="#000000" stroke-width="0.5"></line>
                <g id="Group" transform="translate(264.000000, 1918.000000)" fill="#000000" fill-rule="nonzero">
                    <path d="M8.24805,15.830078 C12.5547,15.830078 16.1387,12.25586 16.1387,7.94922 C16.1387,3.6426 12.5449,0.0684 8.23828,0.0684 C3.94141,0.0684 0.36719,3.6426 0.36719,7.94922 C0.36719,12.25586 3.95117,15.830078 8.24805,15.830078 Z M8.24805,14.345703 C4.70312,14.345703 1.87109,11.50391 1.87109,7.94922 C1.87109,4.3945 4.69336,1.5527 8.23828,1.5527 C11.793,1.5527 14.6348,4.3945 14.6445503,7.94922 C14.6543,11.50391 11.8027,14.345703 8.24805,14.345703 Z M8.22852,11.57227 C8.69727,11.57227 8.9707,11.25977 8.9707,10.74219 L8.9707,8.68164 L11.1973,8.68164 C11.6953,8.68164 12.0371,8.42773 12.0371,7.95898 C12.0371,7.48047 11.7148,7.2168 11.1973,7.2168 L8.9707,7.2168 L8.9707,4.9902 C8.9707,4.4727 8.69727,4.1504 8.22852,4.1504 C7.75977,4.1504 7.50586,4.4922 7.50586,4.9902 L7.50586,7.2168 L5.29883,7.2168 C4.78125,7.2168 4.44922,7.48047 4.44922,7.95898 C4.44922,8.42773 4.80078,8.68164 5.29883,8.68164 L7.50586,8.68164 L7.50586,10.74219 C7.50586,11.24023 7.75977,11.57227 8.22852,11.57227 Z" id="Shape"></path>
                </g>
                <g id="Group" transform="translate(282.506000, 1915.000000)" fill="#000000" fill-rule="nonzero">
                    <path d="M10.709,20.91016 C16.1582,20.91016 20.6699,16.39844 20.6699,10.94922 C20.6699,5.5098 16.1484,0.9883 10.6992,0.9883 C5.25977,0.9883 0.74805,5.5098 0.74805,10.94922 C0.74805,16.39844 5.26953,20.91016 10.709,20.91016 Z M10.709,19.25 C6.09961,19.25 2.41797,15.55859 2.41797,10.94922 C2.41797,6.3496 6.08984,2.6484 10.6992,2.6484 C15.3086,2.6484 19,6.3496 19.0098379,10.94922 C19.0195,15.55859 15.3184,19.25 10.709,19.25 Z M10.6895,15.58789 C11.207,15.58789 11.5195,15.22656 11.5195,14.66016 L11.5195,11.76953 L14.5762,11.76953 C15.123,11.76953 15.5039,11.48633 15.5039,10.96875 C15.5039,10.44141 15.1426,10.13867 14.5762,10.13867 L11.5195,10.13867 L11.5195,7.0723 C11.5195,6.4961 11.207,6.1445 10.6895,6.1445 C10.1719,6.1445 9.8789,6.5156 9.8789,7.0723 L9.8789,10.13867 L6.83203,10.13867 C6.26562,10.13867 5.89453,10.44141 5.89453,10.96875 C5.89453,11.48633 6.28516,11.76953 6.83203,11.76953 L9.8789,11.76953 L9.8789,14.66016 C9.8789,15.20703 10.1719,15.58789 10.6895,15.58789 Z" id="Shape"></path>
                </g>
                <g id="Group" transform="translate(306.924000, 1913.000000)" fill="#000000" fill-rule="nonzero">
                    <path d="M12.9707,25.67383 C19.9336,25.67383 25.6953,19.921875 25.6953,12.95898 C25.6953,5.9961 19.9238,0.2441 12.9609,0.2441 C6.00781,0.2441 0.25586,5.9961 0.25586,12.95898 C0.25586,19.921875 6.01758,25.67383 12.9707,25.67383 Z M12.9707,23.85742 C6.93555,23.85742 2.08203,18.99414 2.08203,12.95898 C2.08203,6.9238 6.92578,2.0605 12.9609,2.0605 C19.0059,2.0605 23.8594,6.9238 23.8691295,12.95898 C23.8789,18.99414 19.0156,23.85742 12.9707,23.85742 Z M12.9512,18.93555 C13.5176,18.93555 13.8691,18.54492 13.8691,17.93945 L13.8691,13.86719 L18.1074,13.86719 C18.6934,13.86719 19.1133,13.53516 19.1133,12.97852 C19.1133,12.40234 18.7227,12.06055 18.1074,12.06055 L13.8691,12.06055 L13.8691,7.8125 C13.8691,7.1973 13.5176,6.8066 12.9512,6.8066 C12.3848,6.8066 12.0625,7.2168 12.0625,7.8125 L12.0625,12.06055 L7.83398,12.06055 C7.21875,12.06055 6.80859,12.40234 6.80859,12.97852 C6.80859,13.53516 7.23828,13.86719 7.83398,13.86719 L12.0625,13.86719 L12.0625,17.93945 C12.0625,18.52539 12.3848,18.93555 12.9512,18.93555 Z" id="Shape"></path>
                </g>
                <text id="Design-Variations" fill="#000000" font-family="Helvetica-Bold, Helvetica" font-size="13" font-weight="bold">
                    <tspan x="263" y="1953">Design Variations</tspan>
                </text>
                <text id="Symbols-are-supported-in-up-to-nine-weights-and-three-scales." fill="#000000" font-family="Helvetica" font-size="13" font-weight="normal">
                    <tspan x="263" y="1971">Symbols are supported in up to nine weights and three scales.</tspan>
                </text>
                <text id="For-optimal-layout-with-text-and-other-symbols,-vertically-align" fill="#000000" font-family="Helvetica" font-size="13" font-weight="normal">
                    <tspan x="263" y="1989">For optimal layout with text and other symbols, vertically align</tspan>
                </text>
                <text id="symbols-with-the-adjacent-text." fill="#000000" font-family="Helvetica" font-size="13" font-weight="normal">
                    <tspan x="263" y="2007">symbols with the adjacent text.</tspan>
                </text>
                <rect id="Rectangle" fill="#00AEEF" fill-rule="nonzero" opacity="0.4" x="776" y="1919" width="3" height="14"></rect>
                <g id="Group" transform="translate(779.000000, 1918.000000)" fill="#000000" fill-rule="nonzero">
                    <path d="M10.5273,15 L12.373,15 L7.17773,0.9082 L5.43945,0.9082 L0.244141,15 L2.08984,15 L3.50586,10.9668 L9.11133,10.9668 L10.5273,15 Z M6.2793,3.0469 L6.33789,3.0469 L8.59375,9.47266 L4.02344,9.47266 L6.2793,3.0469 Z" id="Shape"></path>
                </g>
                <rect id="Rectangle" fill="#00AEEF" fill-rule="nonzero" opacity="0.4" x="791.617" y="1919" width="3" height="14"></rect>
                <text id="Margins" fill="#000000" font-family="Helvetica-Bold, Helvetica" font-size="13" font-weight="bold">
                    <tspan x="776" y="1953">Margins</tspan>
                </text>
                <text id="Leading-and-trailing-margins-on-the-left-and-right-side-of-each-symbol" fill="#000000" font-family="Helvetica" font-size="13" font-weight="normal">
                    <tspan x="776" y="1971">Leading and trailing margins on the left and right side of each symbol</tspan>
                </text>
                <text id="can-be-adjusted-by-modifying-the-width-of-the-blue-rectangles." fill="#000000" font-family="Helvetica" font-size="13" font-weight="normal">
                    <tspan x="776" y="1989">can be adjusted by modifying the width of the blue rectangles.</tspan>
                </text>
                <text id="Modifications-are-automatically-applied-proportionally-to-all" fill="#000000" font-family="Helvetica" font-size="13" font-weight="normal">
                    <tspan x="776" y="2007">Modifications are automatically applied proportionally to all</tspan>
                </text>
                <text id="scales-and-weights." fill="#000000" font-family="Helvetica" font-size="13" font-weight="normal">
                    <tspan x="776" y="2025">scales and weights.</tspan>
                </text>
                <g id="Group" transform="translate(1291.000000, 1915.000000)" fill="#000000" fill-rule="nonzero">
                    <path d="M0.83203,21.11523 L2.375,22.6582 C3.22461,23.48828 4.19141,23.41992 5.06055,22.46289 L15.2754,11.33984 C15.7051,11.63281 16.0957,11.62305 16.5645,11.52539 L17.6094,11.31055 L18.3027,12.00391 L18.2539,12.52148 C18.1855,13.04883 18.3516,13.46875 18.8496,13.9668 L19.6602,14.77734 C20.168,15.28516 20.8223,15.31445 21.3008,14.83594 L24.5527,11.58398 C25.0312,11.10547 25.0117,10.45117 24.5039,9.94336 L23.6836,9.12305 C23.1855,8.625 22.7754,8.44922 22.2383,8.52734 L21.7109,8.58594 L21.0566,7.9219 L21.3398,6.7793 C21.4863,6.2129 21.3398,5.7441 20.7148,5.1387 L18.3027,2.7461 C14.7578,-0.7793 10.2266,-0.6719 7.11133,2.4629 C6.69141,2.8926 6.64258,3.4785 6.91602,3.9082 C7.15039,4.2793 7.62891,4.5039 8.2734,4.3379 C9.7871,3.957 11.3008,4.0742 12.7852,5.0801 L12.1602,6.6621 C11.9258,7.248 11.9453,7.7266 12.1797,8.16602 L1.01758,18.439453 C0.08008,19.30859 -0.02734,20.25586 0.83203,21.11523 Z M8.6738,2.8535 C11.3398,0.8613 14.6504,1.1738 17.0527,3.5859 L19.6797,6.1934 C19.9141,6.4277 19.9434,6.6133 19.8848,6.9062 L19.5039,8.46875 L21.0762,10.04102 L22.043,9.95312 C22.3262,9.92383 22.4141,9.94336 22.6387,10.16797 L23.2637,10.79297 L20.5098,13.53711 L19.8848,12.92188 C19.6602,12.69727 19.6406,12.59961 19.6699,12.31641 L19.7578,11.35938 L18.1953,9.79688 L16.5742,10.10938 C16.291,10.16797 16.1445,10.16797 15.9102,9.92383 L13.7324,7.7461 C13.5078,7.5117 13.4785,7.375 13.6055,7.0527 L14.5527,4.7773 C12.9512,3.2441 10.8418,2.3945 8.8008,3.0488 C8.7129,3.0781 8.6445,3.0586 8.6152,3.0195 C8.5859,2.9707 8.5859,2.9219 8.6738,2.8535 Z M2.10156,20.41211 C1.61328,19.91406 1.78906,19.61133 2.12109,19.30859 L13.0781,9.19141 L14.3086,10.42188 L4.15234,21.34961 C3.84961,21.68164 3.46875,21.7793 3.06836,21.37891 L2.10156,20.41211 Z" id="Shape"></path>
                </g>
                <text id="Exporting" fill="#000000" font-family="Helvetica-Bold, Helvetica" font-size="13" font-weight="bold">
                    <tspan x="1289" y="1953">Exporting</tspan>
                </text>
                <text id="Symbols-should-be-outlined-when-exporting-to-ensure-the" fill="#000000" font-family="Helvetica" font-size="13" font-weight="normal">
                    <tspan x="1289" y="1971">Symbols should be outlined when exporting to ensure the</tspan>
                </text>
                <text id="design-is-preserved-when-submitting-to-Xcode." fill="#000000" font-family="Helvetica" font-size="13" font-weight="normal">
                    <tspan x="1289" y="1989">design is preserved when submitting to Xcode.</tspan>
                </text>
                <text id="Template-v.1.0" fill="#000000" font-family="Helvetica" font-size="13" font-weight="normal">
                    <tspan x="2952" y="1933">Template v.1.0</tspan>
                </text>
                <text id="Generated-from-circle" fill="#000000" font-family="Helvetica" font-size="13" font-weight="normal">
                    <tspan x="2911" y="1951">Generated from circle</tspan>
                </text>
                <text id="Typeset-at-100-points" fill="#000000" font-family="Helvetica" font-size="13" font-weight="normal">
                    <tspan x="2912" y="1969">Typeset at 100 points</tspan>
                </text>
                <text id="Small" fill="#000000" font-family="Helvetica" font-size="13" font-weight="normal">
                    <tspan x="263" y="726">Small</tspan>
                </text>
                <text id="Medium" fill="#000000" font-family="Helvetica" font-size="13" font-weight="normal">
                    <tspan x="263" y="1156">Medium</tspan>
                </text>
                <text id="Large" fill="#000000" font-family="Helvetica" font-size="13" font-weight="normal">
                    <tspan x="263" y="1586">Large</tspan>
                </text>
            </g>
            <g id="Guides" transform="translate(263.000000, 625.000000)">
                <g id="H-reference" transform="translate(76.000000, 0.000000)" fill="#27AAE1" fill-rule="nonzero">
                    <path d="M54.9316,71 L57.666,71 L30.5664,0.541 L28.0762,0.541 L0.976562,71 L3.66211,71 L12.9395,46.5371 L45.7031,46.5371 L54.9316,71 Z M29.1992,3.9102 L29.4434,3.9102 L44.8242,44.291 L13.8184,44.291 L29.1992,3.9102 Z" id="Shape"></path>
                </g>
                <line x1="0" y1="71" x2="2773" y2="71" id="Baseline-S" stroke="#27AAE1" stroke-width="0.577"></line>
                <line x1="0" y1="0.541" x2="2773" y2="0.541" id="Capline-S" stroke="#27AAE1" stroke-width="0.577"></line>
                <g id="H-reference" transform="translate(76.000000, 430.000000)" fill="#27AAE1" fill-rule="nonzero">
                    <path d="M54.9316,71 L57.666,71 L30.5664,0.541 L28.0762,0.541 L0.976562,71 L3.66211,71 L12.9395,46.5371 L45.7031,46.5371 L54.9316,71 Z M29.1992,3.9102 L29.4434,3.9102 L44.8242,44.291 L13.8184,44.291 L29.1992,3.9102 Z" id="Shape"></path>
                </g>
                <line x1="0" y1="501" x2="2773" y2="501" id="Baseline-M" stroke="#27AAE1" stroke-width="0.577"></line>
                <line x1="0" y1="430.54" x2="2773" y2="430.54" id="Capline-M" stroke="#27AAE1" stroke-width="0.577"></line>
                <g id="H-reference" transform="translate(76.000000, 860.000000)" fill="#27AAE1" fill-rule="nonzero">
                    <path d="M54.9316,71 L57.666,71 L30.5664,0.541 L28.0762,0.541 L0.976562,71 L3.66211,71 L12.9395,46.5371 L45.7031,46.5371 L54.9316,71 Z M29.1992,3.9102 L29.4434,3.9102 L44.8242,44.291 L13.8184,44.291 L29.1992,3.9102 Z" id="Shape"></path>
                </g>
                <line x1="0" y1="931" x2="2773" y2="931" id="Baseline-L" stroke="#27AAE1" stroke-width="0.577"></line>
                <line x1="0" y1="860.54" x2="2773" y2="860.54" id="Capline-L" stroke="#27AAE1" stroke-width="0.577"></line>
                <rect id="left-margin" fill="#00AEEF" fill-rule="nonzero" opacity="0.4" x="1128.3" y="405.79" width="8.74023" height="119.336"></rect>
                <rect id="right-margin" fill="#00AEEF" fill-rule="nonzero" opacity="0.4" x="1236.65" y="405.79" width="8.74023" height="119.336"></rect>
            </g>
            <g id="Symbols" transform="translate(1399.000000, 1040.000000)" fill="#000000" fill-rule="nonzero">
                <g id="Regular-M" transform="translate(0.300000, 0.000000)">
                    <!-- <path d="M50.5449,100.5508 C77.791,100.5508 100.35,77.99219 100.35,50.7461 C100.35,23.5488 77.7422,0.9414 50.4961,0.9414 C23.2988,0.9414 0.74023,23.5488 0.74023,50.7461 C0.74023,77.99219 23.3477,100.5508 50.5449,100.5508 Z M50.1551,92.0078 C27.1082,92.0078 8.7,73.5508 8.7,50.5039 C8.7,27.5058 27.0594,9 50.1063,9 C73.1532,9 91.6102,27.5058 91.6593938,50.5039 C91.7082,73.5508 73.202,92.0078 50.1551,92.0078 Z" id="Shape"></path> -->
                    <path d="M57.4703614,64.9852976 C57.3117904,65.4138912 57.9117887,65.8124833 57.4189329,66.236791 C57.0717911,66.5368066 56.8275061,66.8625377 56.4846499,67.1625533 C56.3989359,67.2354142 56.1032224,67.248272 55.9060801,67.2911314 C55.8375089,67.2011267 55.6960807,67.111122 55.7089378,67.0254033 C55.7419383,66.8539911 55.8220826,66.695178 55.9403658,66.5668081 C56.1717937,66.3096519 56.0217941,66.0696395 55.8117947,65.8381989 C55.579869,65.5819029 55.3367774,65.3359379 55.0832254,65.1010179 C54.9417972,64.9724398 54.7489406,64.8524336 54.5903696,64.7238555 C54.5046556,64.6552805 54.397513,64.5824196 54.3803702,64.5095587 C54.3375132,64.2695462 53.9989428,64.2052572 53.6346581,64.1023947 C52.9060888,63.9052416 52.1646623,64.0081041 51.4232359,64.0081041 C51.1961596,64.014515 50.9690697,63.9958293 50.746095,63.9523869 C50.2311156,63.8246994 49.7207999,63.678887 49.2160994,63.5152214 C48.8462629,63.4147171 48.4555688,63.4206596 48.0889598,63.5323652 L46.057537,63.9609588 L44.3861133,64.3338353 C44.116114,64.3981243 43.8418291,64.4624134 43.584687,64.5395602 C43.4646873,64.5781337 43.3789733,64.6424227 43.2761165,64.6981399 C43.3704019,64.7324274 43.4475445,64.7967164 43.5546871,64.8052883 C44.1546854,64.8652914 44.763255,64.9124367 45.367539,64.9638679 C46.1646796,65.0324429 46.9403916,65.1181616 47.5875326,65.3881756 C47.7625307,65.4504762 47.9461533,65.4851784 48.1318168,65.4910381 C49.0960997,65.5338975 49.3489561,65.6410459 49.653241,66.0910692 C49.8118119,66.3267957 50.0689541,66.5453784 50.2232393,66.7853909 C50.3089534,66.913969 50.2875249,67.0596908 50.2832392,67.1968408 C50.2724001,67.2862317 50.2316142,67.3693186 50.1675252,67.4325673 C50.098954,67.5097141 49.9918114,67.6340063 49.8889546,67.6382922 C49.6948731,67.6436742 49.5019142,67.6071269 49.3232419,67.5311438 C48.8003863,67.2611298 48.3761018,66.9311127 47.7889606,66.7039581 C47.3689618,66.5410925 46.747535,66.5025191 46.216108,66.4039425 L46.1089655,66.4039425 C45.3118249,66.4039425 44.5232557,66.4039425 43.7989721,66.168216 C42.915147,65.9150221 42.0011711,65.7823874 41.0818371,65.7739099 C40.0104116,65.7310505 38.9561289,65.6410459 37.9104176,65.8167693 C37.5847043,65.8724864 37.2847051,65.9624911 37.0018488,66.0310661 C36.8518492,66.0096364 36.6761354,65.9624911 36.5475644,65.9796348 C35.3904249,66.1510723 34.2032854,66.2967941 33.0890029,66.5282347 C31.9532919,66.7596753 30.8861521,67.0725486 29.7975838,67.3597063 C29.6261557,67.4068516 29.5104418,67.5097141 29.3518708,67.5740032 C28.9790147,67.7411547 27.7318755,67.7282969 27.3890193,67.5440016 C27.3033053,67.5011422 27.2861624,67.3425626 27.3675908,67.3039892 C27.8518751,67.0725486 28.3361594,66.8325362 28.8933007,66.6482409 C29.9304406,66.3096519 30.9975803,65.9924926 32.0904343,65.7053349 C32.6304328,65.563899 33.2518596,65.5081818 33.8390007,65.4138912 C33.9161434,65.4010334 33.9975717,65.3881756 34.0618572,65.3667459 C34.1818569,65.3238866 34.2847137,65.2724553 34.396142,65.22531 L34.109,65.0967319 C34.2075711,65.1010179 34.3147137,65.1138757 34.4132848,65.1053038 C34.5932843,65.0881601 34.7604267,65.0538726 34.9361404,65.028157 C34.7904266,64.9124367 34.6532841,64.7967164 34.4989988,64.6852821 C34.396142,64.6081352 34.2632852,64.5395602 34.1432856,64.4666993 C34.0832858,64.4238399 34.036143,64.3809806 33.9590004,64.350979 C33.5489332,64.1944775 33.1374897,64.0416064 32.7247182,63.8923838 C32.0990057,63.6652292 31.4990075,63.4209308 30.8390094,63.2280637 C30.2175826,63.0437684 29.536156,62.9023325 28.8675865,62.7608966 C28.4947304,62.6837498 28.3361594,62.4823108 28.6533014,62.3665905 C28.9717807,62.2696479 29.3019251,62.2163029 29.6347271,62.2080108 C30.1061543,62.1822952 30.5947244,62.199439 31.1047229,62.1522937 C30.8818664,62.1180062 30.6504385,62.0922906 30.4447248,62.0408593 C30.2604396,61.998 29.9561548,61.8994234 29.9732976,61.8565641 C30.0204403,61.7408438 30.1747256,61.6079798 30.3675822,61.5394048 C31.0790087,61.2865345 31.7775781,61.4836876 32.4590047,61.5994079 C33.0118603,61.6894126 33.5732872,61.7794172 34.0832858,61.9165672 C35.1118542,62.195153 36.0975657,62.5080264 36.9461347,62.93662 C37.4904188,63.206634 38.1075599,63.4895058 38.8061293,63.6309417 C39.3204136,63.7338042 40.0232687,63.6352277 40.6318384,63.5966542 C40.9875516,63.5709386 41.3218364,63.4809339 41.6689782,63.4252168 L42.2218338,63.3266402 L44.1503997,63.0394825 L46.2503936,62.7051795 C46.0361085,62.5080264 45.9075375,62.3451608 45.7018238,62.2080108 C45.5428401,62.1230884 45.3674386,62.0733886 45.1875395,62.062289 C44.8964845,62.041445 44.6043114,62.041445 44.3132563,62.062289 C43.9170437,62.1140302 43.5179695,61.9903887 43.2204023,61.7237 C43.9575431,61.7022704 44.6046841,61.6808407 45.2475394,61.6679829 C45.5475385,61.659411 45.856109,61.6551251 46.1603939,61.6551251 C46.5932498,61.6551251 46.6403925,61.526547 46.5803927,61.3465376 C46.4646787,61.0122346 46.5975355,60.9522315 47.2018195,61.0336643 L46.4732501,59.9150349 L46.3532505,59.9621802 C46.0661084,59.8850333 45.8603947,59.8121724 45.6289668,59.7693131 C45.0902788,59.6793724 44.572081,59.4935658 44.0989712,59.2207132 C43.7046867,58.9892726 43.0704028,58.8564086 42.6204041,58.6421118 C42.1489768,58.4192431 41.7718351,58.1449432 41.3475506,57.8963589 C41.1589797,57.7849245 40.9146947,57.6992058 40.7604094,57.5791996 C40.5761242,57.4377637 40.4604103,57.2706122 40.3146964,57.1163185 C39.8775548,56.6577233 39.3889848,56.2119859 39.0289858,55.736247 C38.7975579,55.4362314 38.206131,55.3633705 37.8461321,55.1447877 C37.2375624,54.7804832 36.5604215,54.4376082 35.9089948,54.0904474 C35.7675666,54.0175865 35.5918528,53.9575834 35.4247105,53.8932943 C34.0502862,53.374491 32.795088,52.5828418 31.7347211,51.5660309 C31.3532936,51.2060122 31.11758,50.8074202 30.8090095,50.4302578 C30.7318668,50.3359672 30.6032958,50.2502484 30.5175817,50.1559578 C30.3936388,50.0256358 30.2790676,49.8867106 30.1747256,49.740222 C29.9347263,49.3887752 29.7118698,49.0330425 29.4804419,48.6773098 C29.1590142,48.1801412 28.8333009,47.6829726 28.8333009,47.1472305 C28.8333009,46.9329337 28.6833013,46.7143509 28.7133012,46.5000541 C28.7433011,46.2814714 28.8933007,46.0628886 29.0218717,45.8528777 C29.1118715,45.7071559 29.3004424,45.5742919 29.3732993,45.432856 C29.6732984,44.8413968 29.9218692,44.2413657 30.2304397,43.6541924 C30.3718679,43.3841784 30.6075815,43.1270222 30.7918667,42.8612942 C31.0404374,42.5055614 31.2290083,42.132685 31.5461502,41.7898101 C31.8975778,41.4212195 32.3775764,41.0826306 32.7890038,40.7268979 C33.7661438,39.8825684 35.0304259,39.1411014 36.3975648,38.4553516 C37.1475627,38.0824751 38.1332741,37.8338908 38.9818431,37.5038737 C39.5475558,37.285291 40.018983,37.010991 40.0661257,36.6295427 C40.1132684,36.2652381 39.3589849,35.8752179 38.681844,35.7294961 C37.6661326,35.5151993 36.7618495,35.7294961 35.8532807,35.8495023 C34.4089991,36.0380835 32.9904318,36.2823819 31.5804358,36.5352521 C30.7018669,36.6938317 29.866155,36.9124145 29.0004432,37.0967098 C28.7175869,37.1567129 28.4175878,37.1952863 28.1347314,37.2552894 C28.0190175,37.281005 27.9204463,37.3324363 27.7918753,37.3410081 C27.5818759,37.3795816 27.3718765,37.4138691 27.1704485,37.4567284 C26.3047367,37.6581674 25.4261678,37.8424627 24.5818845,38.0653314 C23.9047436,38.2410548 23.2747454,38.4682094 22.6061759,38.6567906 C22.1583883,38.7762543 21.7067051,38.8806045 21.2518941,38.969664 C20.9090379,39.0425249 20.6518958,38.9396624 20.7076099,38.7596531 C20.7524281,38.6508596 20.8388217,38.5644612 20.9476092,38.5196406 C22.1004631,38.0053283 23.107603,37.4052972 24.4875991,37.0195629 C25.7261669,36.676688 26.9218778,36.2995256 28.1647313,35.9652226 C28.773301,35.7980711 29.463299,35.7080664 30.0890115,35.5494867 C31.2890081,35.2494712 32.4461476,34.9108822 33.663287,34.6322964 C35.2189968,34.2765636 36.8132779,33.9594044 38.4032733,33.6422451 C38.7761294,33.5650982 38.7547009,33.4836654 38.5575586,33.3636592 C38.3783537,33.2545447 38.1922478,33.1571916 38.0004173,33.0722155 C37.2593908,32.7304456 36.6024835,32.2300568 36.0761372,31.6064253 C35.4332819,30.9206755 34.8161408,30.2306397 34.109,29.5577477 C33.504716,28.9834323 33.2561453,28.3876871 33.3290022,27.7447966 C33.3590021,27.4790686 33.2647167,27.2090546 33.3375736,26.9476125 C33.3804306,26.7933188 33.6375728,26.6561688 33.8047151,26.5147329 C34.0275716,26.5875938 34.3189994,26.6347391 34.4689989,26.7333157 C34.8161408,26.9733281 35.0989971,27.2347702 35.4118534,27.4876405 C35.5402249,27.5948274 35.6889067,27.6750033 35.848995,27.723367 C35.7932808,27.6462201 35.7204239,27.5647873 35.6775669,27.4833545 C35.3175679,26.849036 35.1075685,26.2061455 35.2318539,25.5503972 C35.2857413,25.3252105 35.3980949,25.1182322 35.5575672,24.9503661 C35.8361379,24.6332069 36.2047082,24.5903475 36.7961351,24.7660709 L37.2675623,24.9075068 C37.2075625,24.5689178 37.1604198,24.2946179 37.1047056,24.016032 C37.0532772,23.7674477 37.1175627,23.544579 37.5761329,23.4031431 C37.8504178,23.3174244 38.1375598,23.2445635 38.4332732,23.1888463 C38.7975579,23.1159854 39.1789854,23.0602682 39.5561272,23.004551 C40.0146973,22.9359761 40.2161253,23.0645542 40.2846965,23.2617072 C40.4132676,23.6731571 40.4989816,24.084607 40.6489812,24.487485 C40.8075521,24.9203646 41.0261229,25.3489582 41.2146938,25.7818378 C41.2875508,25.9447034 41.3432649,26.1118549 41.514693,26.2790064 L41.6089784,26.0861393 C41.9218346,25.5118238 42.3546905,24.958938 42.4446903,24.354621 C42.4875473,24.0760351 42.8604034,23.8103071 42.9461174,23.5231493 C43.0404029,23.1845604 42.980403,22.8373995 43.0018315,22.4859527 C43.0049575,22.3252239 43.033898,22.1660424 43.0875456,22.0144997 C43.1218312,21.9373529 43.2161166,21.8430623 43.3446877,21.795917 C44.3646848,21.3673234 45.9589659,21.393039 46.7946778,21.9073513 C47.107534,22.1002185 47.1418196,22.4130918 47.2489622,22.6788199 C47.3003906,22.807398 47.2061052,22.9531198 47.2189623,23.0945557 C47.2832478,23.6217259 47.3603904,24.148896 47.4546759,24.6760662 C47.467533,24.7617849 47.5875326,24.8389318 47.6603896,24.9203646 C47.8061034,24.8689334 48.0032457,24.8346459 48.0889598,24.7660709 C48.7746721,24.2260429 49.4646701,23.6860149 50.0860969,23.1245573 C50.2360964,22.9916932 50.1289539,22.7859683 50.1289539,22.6145308 C50.1332396,22.5030965 50.0432399,22.3702325 50.1289539,22.2802278 C50.4889529,21.928781 50.8446661,21.5687624 51.3118076,21.2516031 C51.7789491,20.9387297 52.211805,20.9387297 52.9103745,21.1358828 C53.1319643,21.2027252 53.3607089,21.2430095 53.5918011,21.255889 C54.0546569,21.2730328 54.2989419,21.4401843 54.3632274,21.6073358 C54.4446558,21.8002029 54.2989419,22.0144997 54.268942,22.2202247 C54.2517992,22.3488028 54.268942,22.4773809 54.268942,22.605959 L54.4403701,22.6316746 C54.7789405,22.4130918 55.1260824,22.198795 55.44751,21.9716404 C55.6746522,21.8173467 55.8589374,21.6459092 56.0689368,21.4830436 C56.497507,21.1573125 56.7717919,21.123025 57.4232186,21.3330359 C57.9417886,21.4959014 58.4646442,21.658767 58.9660713,21.8387764 C59.373213,21.9844982 59.2660705,22.1559356 59.0089284,22.3402309 C58.9146429,22.40452 58.8803573,22.5545277 58.9660713,22.6102449 C59.4760699,22.9274042 59.4803556,23.1974182 58.9832141,23.5188634 C58.7003578,23.7031587 58.4689299,23.9045977 58.2160735,24.0974648 L57.5860753,24.5689178 L57.6546465,24.6417787 C58.323216,24.5774897 58.9874998,24.5046288 59.6603551,24.4617694 C61.186065,24.3631929 62.7074891,24.2603304 64.2374847,24.2003273 C64.8417687,24.1746117 65.1803392,24.423196 65.2274819,24.7232115 C65.2446247,24.826074 65.4160528,24.9375083 65.5831952,25.0060833 C66.1189079,25.2246661 66.0974794,25.3832457 65.4974811,25.563255 C65.2317676,25.6404019 65.0046254,25.7475503 64.7603404,25.8461268 L64.8074831,25.9189878 C65.0517681,25.8932721 65.3217673,25.8932721 65.5360524,25.8418409 C65.8432163,25.749665 66.173276,25.7709604 66.4660498,25.901844 C66.7917631,26.0432799 66.9674769,26.2190033 66.89462,26.4375861 C66.736049,26.9390406 66.131765,27.2733436 65.2574818,27.5047842 C65.2146248,27.5133561 65.1674821,27.521928 65.1331965,27.5390717 L64.4046271,27.8905185 C64.7003406,27.9076622 64.996054,27.9376638 65.2960531,27.9462357 C65.771766,27.9633794 66.2003362,28.0190966 66.3503358,28.2719668 C66.4831926,28.5076933 66.4103356,28.7348479 65.9860511,28.8891417 C65.2917674,29.1420119 64.5717695,29.3777384 63.8689144,29.6220368 C63.7574861,29.6648961 63.6632007,29.7120414 63.5646295,29.7549008 C63.6717721,29.7977602 63.7703432,29.8491914 63.8860572,29.8663351 C64.1860563,29.9091945 64.5117697,29.9734836 64.8074831,29.9520539 C66.1489078,29.8663351 66.491764,30.6078021 65.9346227,31.0106801 C65.6731949,31.1992613 65.7889089,31.2549785 66.2003362,31.2806941 C66.9160485,31.3235535 67.0574766,31.4607035 66.9289056,31.8035784 C66.8389058,32.0350189 66.8474772,32.2750314 66.8303344,32.5150438 C66.8046202,32.8279172 66.6974777,32.8793484 66.0631938,32.8579187 C65.3646244,32.836489 64.1003423,33.2007936 63.8089146,33.5179529 C63.7703432,33.5608123 63.7660575,33.6379591 63.8089146,33.6722466 C64.3231988,33.9979778 64.0660567,34.5122901 63.2732018,34.6708698 C62.651775,34.7951619 62.0089197,34.8894525 61.3789215,35.0008869 C61.2846361,35.0180306 61.2074935,35.0523181 61.1217794,35.0780337 C61.1817792,35.1208931 61.2332077,35.1766103 61.314636,35.2066118 C61.9574913,35.4851977 62.6003466,35.7637836 63.2432019,36.0337976 C63.5132011,36.1495178 63.5089154,36.2909537 63.256059,36.3766725 C62.8060603,36.539538 62.3432045,36.7238333 61.8332059,36.7924083 C60.5903524,36.9638457 59.3474988,36.9509879 58.2846447,36.5052505 C57.6589322,36.2438084 57.0417912,35.9737944 56.4246501,35.7080664 L56.0689368,35.5709164 C56.0260798,35.6823508 55.9832228,35.7637836 55.9617943,35.8452164 C55.7903662,36.3895303 55.7475092,36.9509879 55.404653,37.4695862 C55.0832254,37.9496111 54.427513,38.3696329 53.9475143,38.8282281 C53.7289435,39.0425249 53.5575155,39.2739654 53.3989445,39.5011201 C53.2954001,39.6522593 53.2158865,39.8185241 53.1632309,39.9940027 C53.1380008,40.0766986 53.1736463,40.1658174 53.2489449,40.2082996 C53.9346572,40.5940338 54.5817982,41.0054837 55.3403675,41.3569305 C56.296079,41.7983819 57.3589331,42.1841162 58.3403589,42.6169958 C59.1974992,42.9941582 60.0032112,43.409894 60.8432088,43.7999142 C61.3017789,44.014211 61.8074917,44.2113641 62.248919,44.4342328 C63.3460587,44.9871186 64.3746272,45.5700059 64.9360542,46.3114729 C65.1203394,46.5600572 65.081768,46.8515009 65.2789103,47.0957993 C65.5446238,47.4215304 65.9646226,47.7129741 66.2817646,48.0258475 C66.7060491,48.4458692 67.1089051,48.8701769 67.4860468,49.2987706 C67.6017608,49.4273486 67.6574749,49.5816424 67.6531892,49.7273642 C67.6403321,50.3659687 68.0346167,50.9574279 68.5317581,51.5274575 C68.9346141,51.9903386 69.5003268,52.4189322 69.8346115,52.8903852 C70.2288961,53.4475569 70.7603231,53.983299 70.661752,54.6219035 C70.618895,54.9347769 70.7174661,55.2776518 71.0774651,55.599097 C71.3560357,55.8433954 71.2917502,56.1776984 71.4503211,56.4605702 C71.7074633,56.9234513 71.9946053,57.3863325 72.3117472,57.8363558 C72.6246035,58.2778072 72.9974596,58.7064009 73.3317443,59.1392804 C73.738886,59.6621647 74.1288849,60.1850489 74.544598,60.7036472 C74.7931687,61.0165205 75.0888821,61.320822 75.3374528,61.6336954 C75.6717376,62.0537171 76.0017366,62.4780248 76.2888787,62.9066185 C76.5460208,63.2923527 76.7474488,63.6866589 76.974591,64.080965 C76.974591,64.0895369 76.9788767,64.1023947 76.9917338,64.1109666 C77.6903032,64.6981399 77.7974457,65.3881756 78.2945872,66.0096364 C78.5903006,66.373941 78.9374425,66.7339596 79.28887,67.0896924 C79.6617261,67.4582829 80.094582,67.8183015 80.454581,68.1868921 C80.6045805,68.3497576 80.6774375,68.5340529 80.698866,68.7140622 C80.7331516,69.0097918 79.9831537,69.3783824 79.3788698,69.3655246 C78.7617287,69.3526667 78.1745875,69.2798058 77.7417316,68.9840762 C77.7631601,69.202659 77.82316,69.399812 77.7888743,69.5883932 C77.7245888,69.93984 77.5745892,70.2698571 76.9488768,70.5098696 C76.0060223,70.8698882 74.4803124,70.5055836 74.0774564,70.0941337 C73.6790108,69.6668882 73.1408753,69.3962856 72.560318,69.3312371 C72.7960316,69.6655401 73.0146024,69.9612697 73.2117447,70.2612853 C73.5546008,70.7798836 73.8760285,71.3070537 74.2231703,71.825652 C74.3260272,71.9885176 74.5103123,72.1385254 74.5960264,72.297105 C74.8960255,72.8714205 75.1531676,73.4543078 75.4745953,74.0243374 C75.6545948,74.3500685 75.9160226,74.6672278 76.1431648,74.988673 C76.4645924,75.4344104 76.7774487,75.8758619 77.1203048,76.3173133 C77.3517327,76.608757 77.750303,76.878771 77.8617313,77.1787865 C78.0545879,77.7102426 78.8045857,78.1731238 78.6245862,78.7431533 C78.5903006,78.8545876 78.556015,78.966022 78.470301,79.0645985 C78.0417308,79.5789109 77.3603041,79.9946467 76.5203066,80.3589513 C75.6117377,80.7575434 74.5060266,80.9075512 73.3917441,80.9675543 C72.1777041,81.0202125 70.9617313,81.0087674 69.7488975,80.9332668 C69.1892033,80.8978071 68.6376794,80.7808545 68.1117593,80.5861059 C67.2331904,80.2560888 66.2346219,80.174656 65.2189105,80.0632217 C64.104628,79.9346436 63.6246294,79.8489249 63.3032017,79.1846047 C62.9946312,78.5545721 62.5103469,77.9416832 62.1032052,77.3202224 C62.0732053,77.2773631 62.0303482,77.2345037 62.0089197,77.1916443 C61.8246345,76.8230538 61.601778,76.4587492 61.4689213,76.0858728 C61.3232074,75.6744229 61.2632076,75.2544011 61.1517793,74.8429512 C61.1089223,74.6629419 61.0232083,74.4915044 60.9589227,74.315781 C60.8346374,73.9729061 60.7232091,73.6300312 60.5860667,73.2871563 L59.7117835,71.15276 C59.6003552,70.8913179 59.5060698,70.6255898 59.373213,70.3641477 C59.2360706,70.0855619 59.0174998,69.8112619 58.9060715,69.5283901 C58.7046067,68.9954517 58.5329139,68.451728 58.3917873,67.8997343 C58.3017875,67.5482875 58.2889304,67.1882689 58.2546448,66.8368221 C58.2417877,66.7382456 58.3060732,66.6353831 58.2675019,66.5368066 C58.0815869,66.1179405 57.8858188,65.7035181 57.6803607,65.293885 C57.6246466,65.1867366 57.5389326,65.0838741 57.4746471,64.9852976 L57.4703614,64.9852976 Z M47.02,60 C46.888,61.74 46.712,63.264 46.7,64.792 C46.7,65.212 47.1,65.86 47.472,66.012 C48.992,66.632 50.56,67.144 52.136,67.604 C52.928,67.836 53.772,67.876 54.588,68 L54.7,67.616 C54.372,67.396 53.996,67.216 53.724,66.94 C52.52,65.716 51.308,64.496 50.164,63.212 C49.384,62.332 48.744,61.324 47.992,60.42 C47.816,60.212 47.436,60.172 47.02,60 L47.02,60 Z" id="Shape"></path>
                </g>
            </g>
        </g>
    </g>
</svg>