<?xml version="1.0" encoding="UTF-8"?>
<!--Generator: Apple Native CoreSVG 341-->
<!DOCTYPE svg
PUBLIC "-//W3C//DTD SVG 1.1//EN"
       "http://www.w3.org/Graphics/SVG/1.1/DTD/svg11.dtd">
<svg version="1.1" xmlns="http://www.w3.org/2000/svg" xmlns:xlink="http://www.w3.org/1999/xlink" viewBox="0 0 3300 2200">
 <!--glyph: "", point size: 100.0, font version: "20.0d10e1", template writer version: "138.0.0"-->
 <style>.monochrome-0 {-sfsymbols-motion-group:1;-sfsymbols-layer-tags:4f39e48f75c03df3}
.monochrome-1 {-sfsymbols-motion-group:0;-sfsymbols-layer-tags:4f39e48f75c03df3}

.multicolor-0:tintColor {-sfsymbols-motion-group:1;-sfsymbols-layer-tags:4f39e48f75c03df3}
.multicolor-1:tintColor {-sfsymbols-motion-group:0;-sfsymbols-layer-tags:4f39e48f75c03df3}

.hierarchical-0:primary {-sfsymbols-motion-group:1;-sfsymbols-layer-tags:4f39e48f75c03df3}
.hierarchical-1:tertiary {-sfsymbols-motion-group:0;-sfsymbols-layer-tags:4f39e48f75c03df3}

.SFSymbolsPreviewWireframe {fill:none;opacity:1.0;stroke:black;stroke-width:0.5}
</style>
 <g id="Notes">
  <rect height="2200" id="artboard" style="fill:white;opacity:1" width="3300" x="0" y="0"/>
  <line style="fill:none;stroke:black;opacity:1;stroke-width:0.5;" x1="263" x2="3036" y1="292" y2="292"/>
  <text style="stroke:none;fill:black;font-family:sans-serif;font-size:13;font-weight:bold;" transform="matrix(1 0 0 1 263 322)">Weight/Scale Variations</text>
  <text style="stroke:none;fill:black;font-family:sans-serif;font-size:13;text-anchor:middle;" transform="matrix(1 0 0 1 559.711 322)">Ultralight</text>
  <text style="stroke:none;fill:black;font-family:sans-serif;font-size:13;text-anchor:middle;" transform="matrix(1 0 0 1 856.422 322)">Thin</text>
  <text style="stroke:none;fill:black;font-family:sans-serif;font-size:13;text-anchor:middle;" transform="matrix(1 0 0 1 1153.13 322)">Light</text>
  <text style="stroke:none;fill:black;font-family:sans-serif;font-size:13;text-anchor:middle;" transform="matrix(1 0 0 1 1449.84 322)">Regular</text>
  <text style="stroke:none;fill:black;font-family:sans-serif;font-size:13;text-anchor:middle;" transform="matrix(1 0 0 1 1746.56 322)">Medium</text>
  <text style="stroke:none;fill:black;font-family:sans-serif;font-size:13;text-anchor:middle;" transform="matrix(1 0 0 1 2043.27 322)">Semibold</text>
  <text style="stroke:none;fill:black;font-family:sans-serif;font-size:13;text-anchor:middle;" transform="matrix(1 0 0 1 2339.98 322)">Bold</text>
  <text style="stroke:none;fill:black;font-family:sans-serif;font-size:13;text-anchor:middle;" transform="matrix(1 0 0 1 2636.69 322)">Heavy</text>
  <text style="stroke:none;fill:black;font-family:sans-serif;font-size:13;text-anchor:middle;" transform="matrix(1 0 0 1 2933.4 322)">Black</text>
  <line style="fill:none;stroke:black;opacity:1;stroke-width:0.5;" x1="263" x2="3036" y1="1903" y2="1903"/>
  <g transform="matrix(0.2 0 0 0.2 263 1933)">
   <path d="m46.2402 4.15039c21.7773 0 39.4531-17.627 39.4531-39.4043s-17.6758-39.4043-39.4531-39.4043c-21.7285 0-39.4043 17.627-39.4043 39.4043s17.6758 39.4043 39.4043 39.4043Zm0-7.42188c-17.6758 0-31.9336-14.3066-31.9336-31.9824s14.2578-31.9824 31.9336-31.9824 31.9824 14.3066 31.9824 31.9824-14.3066 31.9824-31.9824 31.9824Zm-17.9688-31.9824c0 2.14844 1.51367 3.61328 3.75977 3.61328h10.498v10.5957c0 2.19727 1.46484 3.71094 3.61328 3.71094 2.24609 0 3.71094-1.51367 3.71094-3.71094v-10.5957h10.5957c2.19727 0 3.71094-1.46484 3.71094-3.61328 0-2.19727-1.51367-3.71094-3.71094-3.71094h-10.5957v-10.5469c0-2.24609-1.46484-3.75977-3.71094-3.75977-2.14844 0-3.61328 1.51367-3.61328 3.75977v10.5469h-10.498c-2.24609 0-3.75977 1.51367-3.75977 3.71094Z"/>
  </g>
  <g transform="matrix(0.2 0 0 0.2 281.506 1933)">
   <path d="m58.5449 14.5508c27.4902 0 49.8047-22.3145 49.8047-49.8047s-22.3145-49.8047-49.8047-49.8047-49.8047 22.3145-49.8047 49.8047 22.3145 49.8047 49.8047 49.8047Zm0-8.30078c-22.9492 0-41.5039-18.5547-41.5039-41.5039s18.5547-41.5039 41.5039-41.5039 41.5039 18.5547 41.5039 41.5039-18.5547 41.5039-41.5039 41.5039Zm-22.6562-41.5039c0 2.39258 1.66016 4.00391 4.15039 4.00391h14.3555v14.4043c0 2.44141 1.66016 4.15039 4.05273 4.15039 2.44141 0 4.15039-1.66016 4.15039-4.15039v-14.4043h14.4043c2.44141 0 4.15039-1.61133 4.15039-4.00391 0-2.44141-1.70898-4.15039-4.15039-4.15039h-14.4043v-14.3555c0-2.49023-1.70898-4.19922-4.15039-4.19922-2.39258 0-4.05273 1.70898-4.05273 4.19922v14.3555h-14.3555c-2.49023 0-4.15039 1.70898-4.15039 4.15039Z"/>
  </g>
  <g transform="matrix(0.2 0 0 0.2 304.924 1933)">
   <path d="m74.8535 28.3203c35.1074 0 63.623-28.4668 63.623-63.5742s-28.5156-63.623-63.623-63.623-63.5742 28.5156-63.5742 63.623 28.4668 63.5742 63.5742 63.5742Zm0-9.08203c-30.127 0-54.4922-24.3652-54.4922-54.4922s24.3652-54.4922 54.4922-54.4922 54.4922 24.3652 54.4922 54.4922-24.3652 54.4922-54.4922 54.4922Zm-28.8574-54.4922c0 2.58789 1.85547 4.39453 4.58984 4.39453h19.7266v19.7754c0 2.68555 1.85547 4.58984 4.44336 4.58984 2.68555 0 4.54102-1.85547 4.54102-4.58984v-19.7754h19.7754c2.68555 0 4.58984-1.80664 4.58984-4.39453 0-2.73438-1.85547-4.58984-4.58984-4.58984h-19.7754v-19.7266c0-2.73438-1.85547-4.63867-4.54102-4.63867-2.58789 0-4.44336 1.9043-4.44336 4.63867v19.7266h-19.7266c-2.73438 0-4.58984 1.85547-4.58984 4.58984Z"/>
  </g>
  <text style="stroke:none;fill:black;font-family:sans-serif;font-size:13;font-weight:bold;" transform="matrix(1 0 0 1 263 1953)">Design Variations</text>
  <text style="stroke:none;fill:black;font-family:sans-serif;font-size:13;" transform="matrix(1 0 0 1 263 1971)">Symbols are supported in up to nine weights and three scales.</text>
  <text style="stroke:none;fill:black;font-family:sans-serif;font-size:13;" transform="matrix(1 0 0 1 263 1989)">For optimal layout with text and other symbols, vertically align</text>
  <text style="stroke:none;fill:black;font-family:sans-serif;font-size:13;" transform="matrix(1 0 0 1 263 2007)">symbols with the adjacent text.</text>
  <line style="fill:none;stroke:#00AEEF;stroke-width:0.5;opacity:1.0;" x1="776" x2="776" y1="1919" y2="1933"/>
  <g transform="matrix(0.2 0 0 0.2 776 1933)">
   <path d="m16.5527 0.78125c2.58789 0 3.85742-0.976562 4.78516-3.71094l6.29883-17.2363h28.8086l6.29883 17.2363c0.927734 2.73438 2.19727 3.71094 4.73633 3.71094 2.58789 0 4.24805-1.5625 4.24805-4.00391 0-0.830078-0.146484-1.61133-0.537109-2.63672l-22.9004-60.9863c-1.12305-2.97852-3.125-4.49219-6.25-4.49219-3.02734 0-5.07812 1.46484-6.15234 4.44336l-22.9004 61.084c-0.390625 1.02539-0.537109 1.80664-0.537109 2.63672 0 2.44141 1.5625 3.95508 4.10156 3.95508Zm13.4766-28.3691 11.8652-32.8613h0.244141l11.8652 32.8613Z"/>
  </g>
  <line style="fill:none;stroke:#00AEEF;stroke-width:0.5;opacity:1.0;" x1="792.836" x2="792.836" y1="1919" y2="1933"/>
  <text style="stroke:none;fill:black;font-family:sans-serif;font-size:13;font-weight:bold;" transform="matrix(1 0 0 1 776 1953)">Margins</text>
  <text style="stroke:none;fill:black;font-family:sans-serif;font-size:13;" transform="matrix(1 0 0 1 776 1971)">Leading and trailing margins on the left and right side of each symbol</text>
  <text style="stroke:none;fill:black;font-family:sans-serif;font-size:13;" transform="matrix(1 0 0 1 776 1989)">can be adjusted by modifying the x-location of the margin guidelines.</text>
  <text style="stroke:none;fill:black;font-family:sans-serif;font-size:13;" transform="matrix(1 0 0 1 776 2007)">Modifications are automatically applied proportionally to all</text>
  <text style="stroke:none;fill:black;font-family:sans-serif;font-size:13;" transform="matrix(1 0 0 1 776 2025)">scales and weights.</text>
  <g transform="matrix(0.2 0 0 0.2 1289 1933)">
   <path d="m14.209 9.32617 8.49609 8.54492c4.29688 4.3457 9.22852 4.05273 13.8672-1.07422l53.4668-58.9355-4.83398-4.88281-53.0762 58.3984c-1.75781 2.00195-3.41797 2.49023-5.76172 0.146484l-5.85938-5.81055c-2.34375-2.29492-1.80664-4.00391 0.195312-5.81055l57.373-54.0039-4.88281-4.83398-57.959 54.4434c-4.93164 4.58984-5.32227 9.47266-1.02539 13.8184Zm32.0801-90.9668c-2.09961 2.05078-2.24609 4.93164-1.07422 6.88477 1.17188 1.80664 3.4668 2.97852 6.68945 2.14844 7.32422-1.70898 14.9414-2.00195 22.0703 2.68555l-2.92969 7.27539c-1.70898 4.15039-0.830078 7.08008 1.85547 9.81445l11.4746 11.5723c2.44141 2.44141 4.49219 2.53906 7.32422 2.05078l5.32227-0.976562 3.32031 3.36914-0.195312 2.7832c-0.195312 2.49023 0.439453 4.39453 2.88086 6.78711l3.80859 3.71094c2.39258 2.39258 5.46875 2.53906 7.8125 0.195312l14.5508-14.5996c2.34375-2.34375 2.24609-5.32227-0.146484-7.71484l-3.85742-3.80859c-2.39258-2.39258-4.24805-3.17383-6.64062-2.97852l-2.88086 0.244141-3.22266-3.17383 1.2207-5.61523c0.634766-2.83203-0.146484-5.0293-3.07617-7.95898l-10.9863-10.9375c-16.6992-16.6016-38.8672-16.2109-53.3203-1.75781Zm7.4707 1.85547c12.1582-8.88672 28.6133-7.37305 39.7461 3.75977l12.1582 12.0605c1.17188 1.17188 1.36719 2.09961 1.02539 3.80859l-1.61133 7.42188 7.51953 7.42188 4.93164-0.292969c1.26953-0.0488281 1.66016 0.0488281 2.63672 1.02539l2.88086 2.88086-12.207 12.207-2.88086-2.88086c-0.976562-0.976562-1.12305-1.36719-1.07422-2.68555l0.341797-4.88281-7.4707-7.42188-7.61719 1.26953c-1.61133 0.341797-2.34375 0.195312-3.56445-0.976562l-10.0098-10.0098c-1.26953-1.17188-1.41602-2.00195-0.634766-3.85742l4.39453-10.4492c-7.8125-7.27539-17.9688-10.4004-28.125-7.42188-0.78125 0.195312-1.07422-0.439453-0.439453-0.976562Z"/>
  </g>
  <text style="stroke:none;fill:black;font-family:sans-serif;font-size:13;font-weight:bold;" transform="matrix(1 0 0 1 1289 1953)">Exporting</text>
  <text style="stroke:none;fill:black;font-family:sans-serif;font-size:13;" transform="matrix(1 0 0 1 1289 1971)">Symbols should be outlined when exporting to ensure the</text>
  <text style="stroke:none;fill:black;font-family:sans-serif;font-size:13;" transform="matrix(1 0 0 1 1289 1989)">design is preserved when submitting to Xcode.</text>
  <text id="template-version" style="stroke:none;fill:black;font-family:sans-serif;font-size:13;text-anchor:end;" transform="matrix(1 0 0 1 3036 1933)">Template v.6.0</text>
  <text style="stroke:none;fill:black;font-family:sans-serif;font-size:13;text-anchor:end;" transform="matrix(1 0 0 1 3036 1951)">Requires Xcode 16 or greater</text>
  <text id="descriptive-name" style="stroke:none;fill:black;font-family:sans-serif;font-size:13;text-anchor:end;" transform="matrix(1 0 0 1 3036 1969)">Generated from filtervogelgruppe-55</text>
  <text style="stroke:none;fill:black;font-family:sans-serif;font-size:13;text-anchor:end;" transform="matrix(1 0 0 1 3036 1987)">Typeset at 100.0 points</text>
  <text style="stroke:none;fill:black;font-family:sans-serif;font-size:13;" transform="matrix(1 0 0 1 263 726)">Small</text>
  <text style="stroke:none;fill:black;font-family:sans-serif;font-size:13;" transform="matrix(1 0 0 1 263 1156)">Medium</text>
  <text style="stroke:none;fill:black;font-family:sans-serif;font-size:13;" transform="matrix(1 0 0 1 263 1586)">Large</text>
 </g>
 <g id="Guides">
  <g id="H-reference" style="fill:#27AAE1;stroke:none;" transform="matrix(1 0 0 1 339 696)">
   <path d="M0.993654 0L3.63775 0L29.3281-67.1323L30.0303-67.1323L30.0303-70.459L28.1226-70.459ZM11.6885-24.4799L46.9815-24.4799L46.2315-26.7285L12.4385-26.7285ZM55.1196 0L57.7637 0L30.6382-70.459L29.4326-70.459L29.4326-67.1323Z"/>
  </g>
  <line id="Baseline-S" style="fill:none;stroke:#27AAE1;opacity:1;stroke-width:0.5;" x1="263" x2="3036" y1="696" y2="696"/>
  <line id="Capline-S" style="fill:none;stroke:#27AAE1;opacity:1;stroke-width:0.5;" x1="263" x2="3036" y1="625.541" y2="625.541"/>
  <g id="H-reference" style="fill:#27AAE1;stroke:none;" transform="matrix(1 0 0 1 339 1126)">
   <path d="M0.993654 0L3.63775 0L29.3281-67.1323L30.0303-67.1323L30.0303-70.459L28.1226-70.459ZM11.6885-24.4799L46.9815-24.4799L46.2315-26.7285L12.4385-26.7285ZM55.1196 0L57.7637 0L30.6382-70.459L29.4326-70.459L29.4326-67.1323Z"/>
  </g>
  <line id="Baseline-M" style="fill:none;stroke:#27AAE1;opacity:1;stroke-width:0.5;" x1="263" x2="3036" y1="1126" y2="1126"/>
  <line id="Capline-M" style="fill:none;stroke:#27AAE1;opacity:1;stroke-width:0.5;" x1="263" x2="3036" y1="1055.54" y2="1055.54"/>
  <g id="H-reference" style="fill:#27AAE1;stroke:none;" transform="matrix(1 0 0 1 339 1556)">
   <path d="M0.993654 0L3.63775 0L29.3281-67.1323L30.0303-67.1323L30.0303-70.459L28.1226-70.459ZM11.6885-24.4799L46.9815-24.4799L46.2315-26.7285L12.4385-26.7285ZM55.1196 0L57.7637 0L30.6382-70.459L29.4326-70.459L29.4326-67.1323Z"/>
  </g>
  <line id="Baseline-L" style="fill:none;stroke:#27AAE1;opacity:1;stroke-width:0.5;" x1="263" x2="3036" y1="1556" y2="1556"/>
  <line id="Capline-L" style="fill:none;stroke:#27AAE1;opacity:1;stroke-width:0.5;" x1="263" x2="3036" y1="1485.54" y2="1485.54"/>
  <line id="right-margin-Black-S" style="fill:none;stroke:#00AEEF;stroke-width:0.5;opacity:1.0;" x1="2982.23" x2="2982.23" y1="600.785" y2="720.121"/>
  <line id="left-margin-Black-S" style="fill:none;stroke:#00AEEF;stroke-width:0.5;opacity:1.0;" x1="2884.57" x2="2884.57" y1="600.785" y2="720.121"/>
  <line id="right-margin-Regular-S" style="fill:none;stroke:#00AEEF;stroke-width:0.5;opacity:1.0;" x1="1496.11" x2="1496.11" y1="600.785" y2="720.121"/>
  <line id="left-margin-Regular-S" style="fill:none;stroke:#00AEEF;stroke-width:0.5;opacity:1.0;" x1="1403.58" x2="1403.58" y1="600.785" y2="720.121"/>
  <line id="right-margin-Ultralight-S" style="fill:none;stroke:#00AEEF;stroke-width:0.5;opacity:1.0;" x1="603.773" x2="603.773" y1="600.785" y2="720.121"/>
  <line id="left-margin-Ultralight-S" style="fill:none;stroke:#00AEEF;stroke-width:0.5;opacity:1.0;" x1="515.649" x2="515.649" y1="600.785" y2="720.121"/>
 </g>
 <g id="Symbols">
  <g id="Black-S" transform="matrix(1 0 0 1 2884.57 696)">
   <path class="monochrome-0 multicolor-0:tintColor hierarchical-0:primary SFSymbolsPreviewWireframe" d="M62.7998-59.0047C62.8338-58.8985 62.8593-58.7924 62.906-58.6905C63.2202-57.9856 63.5429-57.2808 63.6193-56.5334C63.7-55.7564 63.7043-54.9709 63.8614-54.2023C64.0991-53.0601 64.3115-51.9094 65.1225-50.8776C65.4791-50.419 65.8655-49.9434 66.0269-49.4339C66.3241-48.4912 67.0757-47.6505 67.1309-46.6569C67.1394-46.5338 67.2328-46.4191 67.271-46.3002C67.3177-46.1389 67.3517-45.9775 67.3899-45.8162L67.2625-45.7822C67.2116-45.8629 67.1436-45.9393 67.1012-46.0242C66.8634-46.5168 66.6341-47.0093 66.3921-47.4977C66.3496-47.5826 66.2647-47.6463 66.2052-47.7227L66.0991-47.7015L66.0991-47.4382L66.1755-46.0157C66.1755-45.969 66.1755-45.9181 66.1883-45.8714C66.3071-45.3491 66.4515-44.8268 66.5322-44.3003C66.5831-43.9946 66.5237-43.6804 66.511-43.3661C66.511-43.2388 66.511-43.1029 66.4897-42.9713C66.46-42.7802 66.4473-42.5806 66.3708-42.3938C66.1755-41.9479 65.9038-41.5106 65.7509-41.0562C65.5938-40.5977 65.5386-40.1221 65.4324-39.6508C65.4112-39.5573 65.356-39.4724 65.3178-39.379L65.2201-39.3917C65.1352-39.8121 65.0375-40.2325 64.9569-40.6529C64.8719-41.0732 64.804-41.4893 64.7233-41.9479C64.6554-41.8927 64.6172-41.8757 64.6129-41.8545C64.4516-41.0775 64.2902-40.3004 64.1459-39.5191C64.091-39.1929 63.9534-38.8857 63.7467-38.6274L63.6363-38.6274C63.5939-38.7251 63.5089-38.827 63.5089-38.9247C63.4962-39.2644 63.5132-39.6041 63.5132-39.948C63.5132-40.1178 63.5004-40.2877 63.4919-40.4575L63.3603-40.4703C63.3179-40.4108 63.2584-40.3514 63.2414-40.2877C63.1353-39.9268 63.0419-39.5658 62.9442-39.2007C62.9102-39.0733 62.9484-38.9119 62.6724-38.9162C62.4177-38.9247 62.1417-38.9247 62.078-39.1709C62.0143-39.396 61.9888-39.621 61.9336-39.8503C61.8996-39.9862 61.8444-40.1263 61.7977-40.2622L61.6534-40.2749C61.5769-40.1561 61.475-40.0457 61.4241-39.9183C61.182-39.2983 60.957-38.6741 60.7107-38.0542C60.4814-37.4725 60.2309-36.895 60.0143-36.3133C59.836-35.8335 59.7256-35.3452 59.5303-34.8738C59.1948-34.0586 59.0292-33.1966 58.4263-32.4535C57.9242-31.8085 57.2975-31.2713 56.5835-30.874C55.8446-30.4748 55.1355-30.0375 54.3627-29.6765C53.6766-29.3694 52.9717-29.1054 52.2524-28.8868C51.4923-28.6447 50.711-28.4494 49.9297-28.2498C49.5009-28.1352 49.2928-27.9144 49.2801-27.5874C49.2673-27.235 49.2291-26.8826 49.2886-26.5344C49.4457-25.6215 49.2376-24.7128 49.2673-23.8041C49.2801-23.422 49.3183-23.0441 49.3523-22.6661C49.3947-22.1057 49.4499-21.5452 49.5051-20.9889C49.5263-20.7341 49.59-20.4794 49.59-20.2246C49.5815-19.8849 49.5646-19.5367 49.4881-19.2055C49.2758-18.2969 49.1951-17.3924 49.2419-16.4753C49.2673-16.0082 49.1739-15.5453 49.1357-15.0825C49.0678-14.246 48.9786-13.4095 48.9361-12.5773C48.8767-11.4563 48.8003-10.3311 48.8342-9.21009C48.8682-8.2547 49.0465-7.29932 49.1654-6.33969C49.1909-6.12313 49.3862-6.03821 49.6495-6C50.1633-5.9363 50.6261-6.07643 51.0932-6.20381C51.4499-6.29723 51.8065-6.39489 52.1759-6.45858C52.3193-6.48335 52.4661-6.47733 52.6066-6.44053C52.7471-6.40409 52.8783-6.33756 52.9912-6.24627L51.9212-5.69427C52.0571-5.65606 52.1292-5.62209 52.2014-5.62209C53.5729-5.60935 54.9444-5.61784 56.3117-5.57963C56.817-5.57113 57.3223-5.48196 57.8106-5.39279C58.1188-5.34432 58.3983-5.18403 58.5961-4.9427L58.5537-4.87052C58.4051-4.92147 58.2479-4.95544 58.1163-5.02338C57.87-5.15076 57.6365-5.15076 57.4199-5.00215C57.2855-4.91369 57.1337-4.85495 56.9745-4.83089C56.8156-4.80683 56.6532-4.81744 56.4985-4.86203C56.4253-4.88149 56.3492-4.89033 56.2735-4.8875C55.0124-4.78135 53.7385-4.9979 52.4817-4.80258C52.2821-4.76861 52.0655-4.7219 52.0783-4.5563C52.0868-4.45015 52.2227-4.30153 52.3543-4.25907C52.6218-4.16141 52.9318-4.12319 53.2205-4.05526C53.6876-3.94061 54.1589-3.83446 54.6217-3.70707C54.7406-3.6731 54.8255-3.58393 54.9784-3.48627C54.1801-3.3419 53.471-3.23999 52.7279-3.36313C52.5326-3.3971 52.3288-3.3971 52.1335-3.43532C51.7301-3.51175 51.3267-3.58393 50.9403-3.69009C50.6558-3.77076 50.3968-3.90239 50.1335-4.00855C49.7928-4.13876 49.4269-4.18972 49.0635-4.15716C48.4266-4.12319 47.9213-4.29304 47.6241-4.74738C47.4797-4.96818 47.4075-4.96393 47.123-4.84504C46.7111-4.67519 46.2865-4.51809 45.8067-4.32701C45.8149-4.47598 45.8552-4.62141 45.9249-4.75304C45.9946-4.88503 46.0919-5.00038 46.2101-5.09132C46.4267-5.26116 46.6602-5.42252 46.9022-5.57538C47.1145-5.70701 47.2164-5.86412 47.2207-6.06793C47.2419-7.06578 47.2844-8.06363 47.2971-9.06572C47.3141-10.4245 47.2971-11.7833 47.3183-13.142C47.3268-13.6261 47.4457-14.1101 47.4415-14.5942C47.433-15.3713 47.3651-16.1525 47.3311-16.9296C47.3183-17.3117 47.3396-17.6939 47.3183-18.0718C47.2674-18.972 47.1655-19.8722 47.1485-20.7724C47.1485-21.2607 47.2759-21.7532 47.3523-22.2458C47.4839-23.1162 47.6156-23.9867 47.7557-24.8529C47.8236-25.286 47.9043-25.7191 47.9807-26.1522C48.0359-26.4707 48.0911-26.7892 48.1336-27.1119C48.1633-27.3369 48.1761-27.5662 48.1973-27.7913C48.2228-28.1182 48.0147-28.2881 47.5859-28.322C47.1917-28.3546 46.7961-28.2721 46.4479-28.0842C45.0339-27.3709 43.7601-26.5217 42.448-25.7149C41.5139-25.1417 40.5033-24.6449 39.5309-24.1098C39.0214-23.8296 38.4991-23.5578 38.0193-23.2436C37.7772-23.0865 37.5989-22.8615 37.4163-22.6577C36.9068-22.0802 36.4227-21.4857 35.8919-20.9167C35.3357-20.318 34.7497-19.7278 34.1425-19.1588C33.9939-19.0145 33.7052-18.9465 33.4674-18.8701C33.2466-18.8021 32.9706-18.8149 32.7838-18.7172C32.1893-18.42 31.6288-18.0761 31.0428-17.7661C30.3259-17.3839 29.5754-17.0687 28.8009-16.8234C28.4867-16.7173 28.1767-16.5814 27.8455-16.5474C26.8264-16.4455 25.8073-16.3224 24.7798-16.488C24.6101-16.5039 24.4462-16.5577 24.2999-16.6451C23.8796-16.9636 23.455-17.3033 23.4465-17.7873C23.4252-18.8956 23.3488-20.0038 23.8711-21.0866C24.0387-21.393 24.1405-21.7309 24.1697-22.0791C24.199-22.4273 24.1551-22.7776 24.0409-23.1077C23.939-23.371 24.0197-23.6895 24.0961-23.974C24.2065-24.3731 24.3509-24.7722 24.5377-25.1501C24.8859-25.8423 25.2851-26.5217 25.6502-27.2095C25.7861-27.4643 25.8795-27.7318 26.0154-27.9908C26.3126-28.5725 26.6396-29.15 26.9326-29.736C27.2765-30.4239 27.6162-31.1075 27.9262-31.8039C28.0705-32.1351 27.8582-32.4238 27.561-32.6573C27.009-33.0989 26.9835-33.1499 27.3317-33.7061C27.9304-34.67 28.5206-35.6424 29.1491-36.5935C29.6289-37.3281 30.1596-38.0457 30.6692-38.7633C30.7184-38.833 30.7754-38.8974 30.839-38.9544C31.2721-39.3365 31.718-39.7145 32.1383-40.1009C32.8177-40.7378 33.4759-41.3959 34.168-42.0286C34.4652-42.2961 34.8262-42.5254 35.1489-42.7759C36.066-43.4935 37.1446-44.0201 38.3335-44.4659C39.4715-44.8905 40.6307-45.2557 41.8663-45.4935C43.7141-45.8501 45.5863-46.0632 47.467-46.1304C49.2036-46.1898 50.9446-46.2068 52.6812-46.2323C53.1826-46.2486 53.6685-46.4078 54.0825-46.6909C54.4374-46.9099 54.7544-47.1852 55.0209-47.5061C55.4455-48.0454 55.8149-48.6059 56.0399-49.2216C56.3796-50.1557 56.8382-51.0686 57.1949-51.9985C57.4751-52.7204 57.5855-53.472 57.5091-54.2278L57.3605-55.646C57.2671-56.6014 56.9019-57.5228 56.5028-58.4187C56.2013-59.0981 55.5941-59.7096 55.0931-60.338C54.6854-60.8475 54.1886-61.3273 53.8022-61.8496C53.5329-62.1813 53.3613-62.5817 53.3072-63.0056C53.2534-63.4295 53.3189-63.8601 53.4965-64.2487C53.6833-64.6818 53.8787-65.1064 54.1971-65.5056C54.7661-66.2274 55.5899-66.6096 56.6514-66.8346C57.7766-67.0724 58.8679-67.0597 59.9422-66.7582C61.2457-66.3973 62.2351-65.7306 62.9357-64.8262C63.3263-64.3251 63.5302-63.7986 63.4622-63.2169C63.4198-62.8772 63.5684-62.6139 63.8996-62.3761C64.1883-62.1638 64.4261-61.9091 64.6894-61.6798C65.8061-60.7032 66.9143-59.7265 68.0353-58.7584C68.6001-58.2701 69.1903-57.7945 69.755-57.3062C70.5023-56.6608 71.2327-56.0069 71.9843-55.3657C72.5108-54.9157 73.0883-54.4995 73.6063-54.0409C73.8993-53.7862 74.1413-53.4889 74.3494-53.1917C74.4173-53.0983 74.3748-52.8605 74.2772-52.8181C74.0978-52.7577 73.9028-52.7607 73.7252-52.8265C72.7273-53.2766 71.7083-53.7182 70.7699-54.2278C69.7041-54.8095 68.7062-55.4592 67.6829-56.0833C67.0654-56.4597 66.4526-56.8433 65.8443-57.2341C65.0375-57.7563 64.2435-58.2871 63.4325-58.8094C63.2796-58.9113 63.0843-58.9792 62.9102-59.0641L62.7998-59.0047Z"/>
   <path class="monochrome-1 multicolor-1:tintColor hierarchical-1:tertiary SFSymbolsPreviewWireframe" d="M48.9411-84C55.3091-84.0013 61.615-82.7479 67.4985-80.3116C73.382-77.8752 78.7279-74.3036 83.2305-69.8009C87.7334-65.2983 91.305-59.9524 93.7418-54.0682C96.1779-48.1846 97.4312-41.8789 97.43-35.5124C97.43-8.72255 75.7254 13 48.9424 13C22.156 13 0.43-8.726 0.43-35.5124C0.43-62.2926 22.1539-84 48.9411-84ZM48.9424-70C29.8835-70 14.43-54.5582 14.43-35.5124C14.43-16.458 29.888-0.999999 48.9424-0.999999C67.9909-0.999999 83.43-16.4519 83.43-35.5138C83.4309-40.0428 82.5395-44.5276 80.8069-48.7121C79.0739-52.8969 76.5337-56.6989 73.3311-59.9013C70.1287-63.1038 66.3266-65.644 62.1422-67.3767C57.9578-69.1095 53.4729-70.0009 48.9424-70Z"/>
  </g>
  <g id="Regular-S" transform="matrix(1 0 0 1 1403.58 696)">
   <path class="monochrome-0 multicolor-0:tintColor hierarchical-0:primary SFSymbolsPreviewWireframe" d="M60.7899-60.0047C60.8238-59.8985 60.8493-59.7924 60.896-59.6904C61.2102-58.9856 61.5329-58.2807 61.6094-57.5334C61.69-56.7564 61.6943-55.9708 61.8514-55.2023C62.0892-54.06 62.3015-52.9093 63.1125-51.8775C63.4692-51.4189 63.8556-50.9434 64.0169-50.4338C64.3142-49.4912 65.0657-48.6505 65.1209-47.6569C65.1294-47.5337 65.2228-47.4191 65.2611-47.3002C65.3078-47.1388 65.3417-46.9775 65.38-46.8161L65.2526-46.7822C65.2016-46.8628 65.1337-46.9393 65.0912-47.0242C64.8534-47.5168 64.6241-48.0093 64.3821-48.4976C64.3396-48.5825 64.2547-48.6462 64.1953-48.7227L64.0891-48.7014L64.0891-48.4382L64.1656-47.0157C64.1656-46.969 64.1656-46.918 64.1783-46.8713C64.2972-46.3491 64.4416-45.8268 64.5222-45.3003C64.5732-44.9945 64.5137-44.6803 64.501-44.3661C64.501-44.2387 64.501-44.1028 64.4798-43.9712C64.45-43.7801 64.4373-43.5806 64.3609-43.3937C64.1656-42.9479 63.8938-42.5105 63.7409-42.0562C63.5838-41.5976 63.5286-41.122 63.4225-40.6507C63.4012-40.5573 63.346-40.4724 63.3078-40.379L63.2102-40.3917C63.1252-40.8121 63.0276-41.2324 62.9469-41.6528C62.862-42.0732 62.794-42.4893 62.7134-42.9479C62.6454-42.8927 62.6072-42.8757 62.603-42.8545C62.4416-42.0774 62.2803-41.3004 62.1359-40.5191C62.081-40.1928 61.9434-39.8857 61.7368-39.6274L61.6264-39.6274C61.5839-39.7251 61.499-39.827 61.499-39.9246C61.4862-40.2643 61.5032-40.604 61.5032-40.948C61.5032-41.1178 61.4905-41.2876 61.482-41.4575L61.3504-41.4702C61.3079-41.4108 61.2484-41.3513 61.2315-41.2876C61.1253-40.9267 61.0319-40.5658 60.9342-40.2006C60.9003-40.0732 60.9385-39.9119 60.6625-39.9161C60.4077-39.9246 60.1317-39.9246 60.068-40.1709C60.0043-40.396 59.9788-40.621 59.9236-40.8503C59.8897-40.9862 59.8345-41.1263 59.7878-41.2622L59.6434-41.2749C59.567-41.156 59.4651-41.0456 59.4141-40.9182C59.1721-40.2983 58.947-39.6741 58.7008-39.0542C58.4715-38.4724 58.2209-37.895 58.0044-37.3132C57.826-36.8334 57.7156-36.3451 57.5203-35.8738C57.1849-35.0585 57.0193-34.1966 56.4163-33.4535C55.9142-32.8084 55.2876-32.2713 54.5735-31.8739C53.8347-31.4748 53.1256-31.0374 52.3528-30.6765C51.6666-30.3694 50.9618-30.1054 50.2424-29.8867C49.4824-29.6447 48.7011-29.4494 47.9198-29.2498C47.4909-29.1352 47.2828-28.9144 47.2701-28.5874C47.2574-28.235 47.2192-27.8825 47.2786-27.5344C47.4357-26.6214 47.2276-25.7128 47.2574-24.8041C47.2701-24.4219 47.3083-24.044 47.3423-23.6661C47.3848-23.1056 47.44-22.5451 47.4952-21.9889C47.5164-21.7341 47.5801-21.4793 47.5801-21.2246C47.5716-20.8849 47.5546-20.5367 47.4782-20.2055C47.2659-19.2968 47.1852-18.3924 47.2319-17.4752C47.2574-17.0081 47.164-16.5453 47.1257-16.0825C47.0578-15.246 46.9686-14.4095 46.9262-13.5772C46.8667-12.4563 46.7903-11.331 46.8243-10.21C46.8582-9.25466 47.0366-8.29928 47.1555-7.33965C47.1809-7.12309 47.3763-7.03817 47.6395-6.99996C48.1533-6.93626 48.6161-7.07639 49.0832-7.20377C49.4399-7.29719 49.7966-7.39485 50.166-7.45854C50.3093-7.48331 50.4561-7.47729 50.5966-7.44049C50.7371-7.40405 50.8684-7.33752 50.9812-7.24623L49.9112-6.69423C50.0471-6.65602 50.1193-6.62205 50.1915-6.62205C51.563-6.60931 52.9345-6.6178 54.3017-6.57959C54.807-6.57109 55.3123-6.48192 55.8006-6.39276C56.1088-6.34428 56.3884-6.18399 56.5862-5.94266L56.5437-5.87048C56.3951-5.92143 56.238-5.9554 56.1064-6.02334C55.8601-6.15072 55.6265-6.15072 55.41-6.00211C55.2755-5.91365 55.1237-5.85491 54.9645-5.83085C54.8056-5.80679 54.6432-5.8174 54.4886-5.86199C54.4153-5.88145 54.3392-5.89029 54.2635-5.88746C53.0024-5.78131 51.7286-5.99786 50.4717-5.80254C50.2721-5.76857 50.0556-5.72186 50.0683-5.55626C50.0768-5.45011 50.2127-5.30149 50.3443-5.25903C50.6118-5.16137 50.9218-5.12316 51.2105-5.05522C51.6776-4.94057 52.1489-4.83442 52.6118-4.70703C52.7307-4.67306 52.8156-4.58389 52.9684-4.48623C52.1702-4.34186 51.4611-4.23996 50.718-4.36309C50.5227-4.39706 50.3188-4.39706 50.1235-4.43528C49.7201-4.51171 49.3168-4.58389 48.9304-4.69005C48.6459-4.77072 48.3868-4.90236 48.1236-5.00851C47.7828-5.13872 47.417-5.18968 47.0536-5.15712C46.4166-5.12316 45.9113-5.293 45.6141-5.74734C45.4697-5.96814 45.3976-5.96389 45.1131-5.845C44.7012-5.67516 44.2766-5.51805 43.7968-5.32697C43.8049-5.47594 43.8452-5.62137 43.9149-5.753C43.9846-5.88499 44.082-6.00034 44.2001-6.09128C44.4167-6.26112 44.6502-6.42248 44.8923-6.57534C45.1046-6.70697 45.2065-6.86408 45.2107-7.06789C45.232-8.06574 45.2744-9.06359 45.2872-10.0657C45.3041-11.4244 45.2872-12.7832 45.3084-14.142C45.3169-14.626 45.4358-15.1101 45.4315-15.5942C45.423-16.3712 45.3551-17.1525 45.3211-17.9296C45.3084-18.3117 45.3296-18.6939 45.3084-19.0718C45.2574-19.972 45.1555-20.8721 45.1385-21.7723C45.1385-22.2606 45.2659-22.7532 45.3424-23.2457C45.474-24.1162 45.6056-24.9867 45.7457-25.8529C45.8137-26.286 45.8944-26.7191 45.9708-27.1522C46.026-27.4707 46.0812-27.7891 46.1236-28.1118C46.1534-28.3369 46.1661-28.5662 46.1873-28.7912C46.2128-29.1182 46.0048-29.288 45.5759-29.322C45.1817-29.3545 44.7861-29.2721 44.4379-29.0842C43.024-28.3708 41.7501-27.5216 40.438-26.7148C39.5039-26.1416 38.4933-25.6448 37.5209-25.1098C37.0114-24.8296 36.4891-24.5578 36.0093-24.2436C35.7673-24.0865 35.5889-23.8614 35.4064-23.6576C34.8968-23.0801 34.4128-22.4857 33.882-21.9167C33.3257-21.318 32.7398-20.7278 32.1326-20.1588C31.984-20.0144 31.6952-19.9465 31.4574-19.87C31.2366-19.8021 30.9606-19.8148 30.7738-19.7172C30.1793-19.42 29.6188-19.076 29.0329-18.766C28.3159-18.3839 27.5655-18.0686 26.7909-17.8234C26.4767-17.7172 26.1667-17.5814 25.8355-17.5474C24.8164-17.4455 23.7974-17.3224 22.7698-17.488C22.6002-17.5039 22.4363-17.5577 22.29-17.6451C21.8696-17.9635 21.445-18.3032 21.4365-18.7873C21.4153-19.8955 21.3388-21.0038 21.8611-22.0865C22.0288-22.393 22.1305-22.7309 22.1597-23.0791C22.189-23.4273 22.1451-23.7776 22.031-24.1077C21.9291-24.371 22.0097-24.6894 22.0862-24.9739C22.1966-25.3731 22.3409-25.7722 22.5278-26.1501C22.876-26.8422 23.2751-27.5216 23.6403-28.2095C23.7761-28.4643 23.8696-28.7318 24.0054-28.9908C24.3027-29.5725 24.6296-30.15 24.9226-30.736C25.2665-31.4238 25.6062-32.1075 25.9162-32.8038C26.0606-33.135 25.8483-33.4238 25.551-33.6573C24.999-34.0989 24.9736-34.1499 25.3217-34.7061C25.9204-35.67 26.5107-36.6424 27.1391-37.5935C27.6189-38.3281 28.1497-39.0457 28.6592-39.7633C28.7085-39.833 28.7654-39.8974 28.8291-39.9544C29.2622-40.3365 29.708-40.7144 30.1284-41.1008C30.8078-41.7377 31.4659-42.3959 32.158-43.0286C32.4553-43.2961 32.8162-43.5254 33.1389-43.7759C34.0561-44.4935 35.1346-45.02 36.3235-45.4659C37.4615-45.8905 38.6207-46.2556 39.8563-46.4934C41.7041-46.8501 43.5763-47.0631 45.457-47.1304C47.1937-47.1898 48.9346-47.2068 50.6713-47.2323C51.1727-47.2485 51.6585-47.4078 52.0725-47.6908C52.4274-47.9099 52.7445-48.1852 53.0109-48.5061C53.4355-49.0453 53.8049-49.6058 54.03-50.2215C54.3697-51.1557 54.8283-52.0686 55.1849-52.9985C55.4652-53.7204 55.5756-54.4719 55.4992-55.2277L55.3505-56.646C55.2571-57.6013 54.892-58.5228 54.4928-59.4187C54.1913-60.0981 53.5841-60.7095 53.0831-61.338C52.6755-61.8475 52.1787-62.3273 51.7923-62.8496C51.523-63.1813 51.3514-63.5816 51.2972-64.0055C51.2434-64.4294 51.3089-64.86 51.4865-65.2487C51.6734-65.6818 51.8687-66.1064 52.1872-66.5055C52.7561-67.2274 53.5799-67.6095 54.6414-67.8346C55.7667-68.0724 56.8579-68.0596 57.9322-67.7581C59.2358-67.3972 60.2251-66.7306 60.9257-65.8261C61.3164-65.3251 61.5202-64.7986 61.4523-64.2168C61.4098-63.8772 61.5584-63.6139 61.8896-63.3761C62.1784-63.1638 62.4161-62.909 62.6794-62.6797C63.7961-61.7031 64.9044-60.7265 66.0254-59.7584C66.5901-59.2701 67.1803-58.7945 67.7451-58.3062C68.4924-57.6608 69.2227-57.0069 69.9743-56.3657C70.5008-55.9156 71.0783-55.4995 71.5963-55.0409C71.8893-54.7861 72.1313-54.4889 72.3394-54.1917C72.4073-54.0983 72.3649-53.8605 72.2672-53.818C72.0878-53.7576 71.8928-53.7606 71.7152-53.8265C70.7174-54.2766 69.6983-54.7182 68.7599-55.2277C67.6941-55.8095 66.6963-56.4591 65.6729-57.0833C65.0555-57.4597 64.4426-57.8433 63.8344-58.234C63.0276-58.7563 62.2336-59.2871 61.4225-59.8093C61.2697-59.9112 61.0744-59.9792 60.9003-60.0641L60.7899-60.0047Z"/>
   <path class="monochrome-1 multicolor-1:tintColor hierarchical-1:tertiary SFSymbolsPreviewWireframe" d="M46.4321-81.8365C52.4502-81.8377 58.4096-80.6532 63.9698-78.3508C69.53-76.0483 74.5822-72.6729 78.8374-68.4176C83.0928-64.1624 86.4682-59.1103 88.771-53.5496C91.0733-47.9892 92.2577-42.03 92.2566-36.0127C92.2566-10.693 71.744 9.83658 46.4328 9.83658C21.1173 9.83658 0.5835-10.6972 0.5835-36.0127C0.5835-61.3211 21.1145-81.8365 46.4321-81.8365ZM46.4328-75.0865C24.8413-75.0865 7.3335-57.592 7.3335-36.0127C7.3335-14.4252 24.8452 3.08658 46.4328 3.08658C68.0148 3.08658 85.5066-14.4197 85.5066-36.0133C85.5076-41.1447 84.4976-46.226 82.5345-50.9672C80.571-55.7085 77.693-60.0162 74.0644-63.6446C70.4361-67.273 66.1283-70.1511 61.3873-72.1143C56.6463-74.0776 51.5649-75.0875 46.4328-75.0865Z"/>
  </g>
  <g id="Ultralight-S" transform="matrix(1 0 0 1 515.649 696)">
   <path class="monochrome-0 multicolor-0:tintColor hierarchical-0:primary SFSymbolsPreviewWireframe" d="M58.7209-61.0047C58.7548-60.8985 58.7803-60.7924 58.827-60.6904C59.1412-59.9856 59.4639-59.2807 59.5404-58.5334C59.621-57.7564 59.6253-56.9708 59.7824-56.2023C60.0202-55.06 60.2325-53.9093 61.0435-52.8775C61.4002-52.4189 61.7866-51.9434 61.9479-51.4338C62.2452-50.4912 62.9967-49.6505 63.0519-48.6569C63.0604-48.5337 63.1538-48.4191 63.1921-48.3002C63.2388-48.1388 63.2727-47.9775 63.311-47.8161L63.1836-47.7822C63.1326-47.8628 63.0647-47.9393 63.0222-48.0242C62.7844-48.5168 62.5551-49.0093 62.3131-49.4976C62.2706-49.5825 62.1857-49.6462 62.1263-49.7227L62.0201-49.7014L62.0201-49.4382L62.0966-48.0157C62.0966-47.969 62.0966-47.918 62.1093-47.8713C62.2282-47.3491 62.3726-46.8268 62.4532-46.3003C62.5042-45.9945 62.4447-45.6803 62.432-45.3661C62.432-45.2387 62.432-45.1028 62.4108-44.9712C62.381-44.7801 62.3683-44.5806 62.2919-44.3937C62.0966-43.9479 61.8248-43.5105 61.6719-43.0562C61.5148-42.5976 61.4596-42.122 61.3535-41.6507C61.3322-41.5573 61.277-41.4724 61.2388-41.379L61.1412-41.3917C61.0562-41.8121 60.9586-42.2324 60.8779-42.6528C60.793-43.0732 60.725-43.4893 60.6444-43.9479C60.5764-43.8927 60.5382-43.8757 60.534-43.8545C60.3726-43.0774 60.2113-42.3004 60.0669-41.5191C60.012-41.1928 59.8744-40.8857 59.6678-40.6274L59.5574-40.6274C59.5149-40.7251 59.43-40.827 59.43-40.9246C59.4172-41.2643 59.4342-41.604 59.4342-41.948C59.4342-42.1178 59.4215-42.2876 59.413-42.4575L59.2814-42.4702C59.2389-42.4108 59.1794-42.3513 59.1625-42.2876C59.0563-41.9267 58.9629-41.5658 58.8652-41.2006C58.8313-41.0732 58.8695-40.9119 58.5935-40.9161C58.3387-40.9246 58.0627-40.9246 57.999-41.1709C57.9353-41.396 57.9098-41.621 57.8546-41.8503C57.8207-41.9862 57.7655-42.1263 57.7188-42.2622L57.5744-42.2749C57.498-42.156 57.3961-42.0456 57.3451-41.9182C57.1031-41.2983 56.878-40.6741 56.6318-40.0542C56.4025-39.4724 56.1519-38.895 55.9354-38.3132C55.757-37.8334 55.6466-37.3451 55.4513-36.8738C55.1159-36.0585 54.9503-35.1966 54.3473-34.4535C53.8452-33.8084 53.2186-33.2713 52.5045-32.8739C51.7657-32.4748 51.0566-32.0374 50.2838-31.6765C49.5976-31.3694 48.8928-31.1054 48.1734-30.8867C47.4134-30.6447 46.6321-30.4494 45.8508-30.2498C45.4219-30.1352 45.2138-29.9144 45.2011-29.5874C45.1884-29.235 45.1502-28.8825 45.2096-28.5344C45.3667-27.6214 45.1586-26.7128 45.1884-25.8041C45.2011-25.4219 45.2393-25.044 45.2733-24.6661C45.3158-24.1056 45.371-23.5451 45.4262-22.9889C45.4474-22.7341 45.5111-22.4793 45.5111-22.2246C45.5026-21.8849 45.4856-21.5367 45.4092-21.2055C45.1969-20.2968 45.1162-19.3924 45.1629-18.4752C45.1884-18.0081 45.095-17.5453 45.0567-17.0825C44.9888-16.246 44.8996-15.4095 44.8572-14.5772C44.7977-13.4563 44.7213-12.331 44.7553-11.21C44.7892-10.2547 44.9676-9.29928 45.0865-8.33965C45.1119-8.12309 45.3073-8.03817 45.5705-7.99996C46.0843-7.93626 46.5471-8.07639 47.0142-8.20377C47.3709-8.29719 47.7276-8.39485 48.097-8.45854C48.2403-8.48331 48.3871-8.47729 48.5276-8.44049C48.6681-8.40405 48.7994-8.33752 48.9122-8.24623L47.8422-7.69423C47.9781-7.65602 48.0503-7.62205 48.1225-7.62205C49.494-7.60931 50.8655-7.6178 52.2327-7.57959C52.738-7.57109 53.2433-7.48192 53.7316-7.39276C54.0398-7.34428 54.3194-7.18399 54.5172-6.94266L54.4747-6.87048C54.3261-6.92143 54.169-6.9554 54.0374-7.02334C53.7911-7.15072 53.5575-7.15072 53.341-7.00211C53.2065-6.91365 53.0547-6.85491 52.8955-6.83085C52.7366-6.80679 52.5742-6.8174 52.4196-6.86199C52.3463-6.88145 52.2702-6.89029 52.1945-6.88746C50.9334-6.78131 49.6596-6.99786 48.4027-6.80254C48.2031-6.76857 47.9866-6.72186 47.9993-6.55626C48.0078-6.45011 48.1437-6.30149 48.2753-6.25903C48.5428-6.16137 48.8528-6.12316 49.1415-6.05522C49.6086-5.94057 50.0799-5.83442 50.5428-5.70703C50.6617-5.67306 50.7466-5.58389 50.8994-5.48623C50.1012-5.34186 49.3921-5.23996 48.649-5.36309C48.4537-5.39706 48.2498-5.39706 48.0545-5.43528C47.6511-5.51171 47.2478-5.58389 46.8614-5.69005C46.5769-5.77072 46.3178-5.90236 46.0546-6.00851C45.7138-6.13872 45.348-6.18968 44.9846-6.15712C44.3476-6.12316 43.8423-6.293 43.5451-6.74734C43.4007-6.96814 43.3286-6.96389 43.0441-6.845C42.6322-6.67516 42.2076-6.51805 41.7278-6.32697C41.7359-6.47594 41.7762-6.62137 41.8459-6.753C41.9156-6.88499 42.013-7.00034 42.1311-7.09128C42.3477-7.26112 42.5812-7.42248 42.8233-7.57534C43.0356-7.70697 43.1375-7.86408 43.1417-8.06789C43.163-9.06574 43.2054-10.0636 43.2182-11.0657C43.2351-12.4244 43.2182-13.7832 43.2394-15.142C43.2479-15.626 43.3668-16.1101 43.3625-16.5942C43.354-17.3712 43.2861-18.1525 43.2521-18.9296C43.2394-19.3117 43.2606-19.6939 43.2394-20.0718C43.1884-20.972 43.0865-21.8721 43.0695-22.7723C43.0695-23.2606 43.1969-23.7532 43.2734-24.2457C43.405-25.1162 43.5366-25.9867 43.6767-26.8529C43.7447-27.286 43.8254-27.7191 43.9018-28.1522C43.957-28.4707 44.0122-28.7891 44.0546-29.1118C44.0844-29.3369 44.0971-29.5662 44.1183-29.7912C44.1438-30.1182 43.9358-30.288 43.5069-30.322C43.1127-30.3545 42.7171-30.2721 42.3689-30.0842C40.955-29.3708 39.6811-28.5216 38.369-27.7148C37.4349-27.1416 36.4243-26.6448 35.4519-26.1098C34.9424-25.8296 34.4201-25.5578 33.9403-25.2436C33.6983-25.0865 33.5199-24.8614 33.3374-24.6576C32.8278-24.0801 32.3438-23.4857 31.813-22.9167C31.2567-22.318 30.6708-21.7278 30.0636-21.1588C29.915-21.0144 29.6262-20.9465 29.3884-20.87C29.1676-20.8021 28.8916-20.8148 28.7048-20.7172C28.1103-20.42 27.5498-20.076 26.9639-19.766C26.2469-19.3839 25.4965-19.0686 24.7219-18.8234C24.4077-18.7172 24.0977-18.5814 23.7665-18.5474C22.7474-18.4455 21.7284-18.3224 20.7008-18.488C20.5312-18.5039 20.3673-18.5577 20.221-18.6451C19.8006-18.9635 19.376-19.3032 19.3675-19.7873C19.3463-20.8955 19.2698-22.0038 19.7921-23.0865C19.9598-23.393 20.0615-23.7309 20.0907-24.0791C20.12-24.4273 20.0761-24.7776 19.962-25.1077C19.8601-25.371 19.9407-25.6894 20.0172-25.9739C20.1276-26.3731 20.2719-26.7722 20.4588-27.1501C20.807-27.8422 21.2061-28.5216 21.5713-29.2095C21.7071-29.4643 21.8006-29.7318 21.9364-29.9908C22.2337-30.5725 22.5606-31.15 22.8536-31.736C23.1975-32.4238 23.5372-33.1075 23.8472-33.8038C23.9916-34.135 23.7793-34.4238 23.482-34.6573C22.93-35.0989 22.9046-35.1499 23.2527-35.7061C23.8514-36.67 24.4417-37.6424 25.0701-38.5935C25.5499-39.3281 26.0807-40.0457 26.5902-40.7633C26.6395-40.833 26.6964-40.8974 26.7601-40.9544C27.1932-41.3365 27.639-41.7144 28.0594-42.1008C28.7388-42.7377 29.3969-43.3959 30.089-44.0286C30.3863-44.2961 30.7472-44.5254 31.0699-44.7759C31.9871-45.4935 33.0656-46.02 34.2545-46.4659C35.3925-46.8905 36.5517-47.2556 37.7873-47.4934C39.6351-47.8501 41.5073-48.0631 43.388-48.1304C45.1247-48.1898 46.8656-48.2068 48.6023-48.2323C49.1037-48.2485 49.5895-48.4078 50.0035-48.6908C50.3584-48.9099 50.6755-49.1852 50.9419-49.5061C51.3665-50.0453 51.7359-50.6058 51.961-51.2215C52.3007-52.1557 52.7593-53.0686 53.1159-53.9985C53.3962-54.7204 53.5066-55.4719 53.4302-56.2277L53.2815-57.646C53.1881-58.6013 52.823-59.5228 52.4238-60.4187C52.1223-61.0981 51.5151-61.7095 51.0141-62.338C50.6065-62.8475 50.1097-63.3273 49.7233-63.8496C49.454-64.1813 49.2824-64.5816 49.2282-65.0055C49.1744-65.4294 49.2399-65.86 49.4175-66.2487C49.6044-66.6818 49.7997-67.1064 50.1182-67.5055C50.6871-68.2274 51.5109-68.6095 52.5724-68.8346C53.6977-69.0724 54.7889-69.0596 55.8632-68.7581C57.1668-68.3972 58.1561-67.7306 58.8567-66.8261C59.2474-66.3251 59.4512-65.7986 59.3833-65.2168C59.3408-64.8772 59.4894-64.6139 59.8206-64.3761C60.1094-64.1638 60.3471-63.909 60.6104-63.6797C61.7271-62.7031 62.8354-61.7265 63.9564-60.7584C64.5211-60.2701 65.1113-59.7945 65.6761-59.3062C66.4234-58.6608 67.1537-58.0069 67.9053-57.3657C68.4318-56.9156 69.0093-56.4995 69.5273-56.0409C69.8203-55.7861 70.0623-55.4889 70.2704-55.1917C70.3383-55.0983 70.2959-54.8605 70.1982-54.818C70.0188-54.7576 69.8238-54.7606 69.6462-54.8265C68.6484-55.2766 67.6293-55.7182 66.6909-56.2277C65.6251-56.8095 64.6273-57.4591 63.6039-58.0833C62.9865-58.4597 62.3736-58.8433 61.7654-59.234C60.9586-59.7563 60.1646-60.2871 59.3535-60.8093C59.2007-60.9112 59.0054-60.9792 58.8313-61.0641L58.7209-61.0047Z"/>
   <path class="monochrome-1 multicolor-1:tintColor hierarchical-1:tertiary SFSymbolsPreviewWireframe" d="M44.3636-80.5865C50.0861-80.5876 55.7528-79.4613 61.04-77.272C66.3271-75.0826 71.1312-71.8729 75.1774-67.8265C79.2239-63.7803 82.4335-58.9764 84.6232-53.6889C86.8124-48.4015 87.9387-42.7349 87.9376-37.0127C87.9376-12.9352 68.432 6.58658 44.3638 6.58658C20.2909 6.58658 0.7645-12.9399 0.7645-37.0127C0.7645-61.0781 20.2877-80.5865 44.3636-80.5865ZM44.3638-78.3365C21.53-78.3365 3.0145-59.8351 3.0145-37.0127C3.0145-14.1825 21.5336 4.33658 44.3638 4.33658C67.1889 4.33658 85.6876-14.1774 85.6876-37.0129C85.6886-42.4398 84.6205-47.8138 82.5443-52.828C80.4678-57.8425 77.4239-62.3983 73.5865-66.2355C69.7491-70.073 65.1932-73.1168 60.1791-75.1931C55.1651-77.2695 49.791-78.3376 44.3638-78.3365Z"/>
  </g>
 </g>
</svg>
