<?xml version="1.0" encoding="UTF-8"?>
<!--Generator: Apple Native CoreSVG 341-->
<!DOCTYPE svg
PUBLIC "-//W3C//DTD SVG 1.1//EN"
       "http://www.w3.org/Graphics/SVG/1.1/DTD/svg11.dtd">
<svg version="1.1" xmlns="http://www.w3.org/2000/svg" xmlns:xlink="http://www.w3.org/1999/xlink" viewBox="0 0 3300 2200">
 <!--glyph: "", point size: 100.0, font version: "20.0d10e1", template writer version: "138.0.0"-->
 <style>.monochrome-0 {-sfsymbols-motion-group:1;-sfsymbols-layer-tags:-3a37cb9830d8fde0}
.monochrome-1 {-sfsymbols-motion-group:0;-sfsymbols-layer-tags:-3a37cb9830d8fde0}

.multicolor-0:tintColor {-sfsymbols-motion-group:1;-sfsymbols-layer-tags:-3a37cb9830d8fde0}
.multicolor-1:tintColor {-sfsymbols-motion-group:0;-sfsymbols-layer-tags:-3a37cb9830d8fde0}

.hierarchical-0:primary {-sfsymbols-motion-group:1;-sfsymbols-layer-tags:-3a37cb9830d8fde0}
.hierarchical-1:tertiary {-sfsymbols-motion-group:0;-sfsymbols-layer-tags:-3a37cb9830d8fde0}

.SFSymbolsPreviewWireframe {fill:none;opacity:1.0;stroke:black;stroke-width:0.5}
</style>
 <g id="Notes">
  <rect height="2200" id="artboard" style="fill:white;opacity:1" width="3300" x="0" y="0"/>
  <line style="fill:none;stroke:black;opacity:1;stroke-width:0.5;" x1="263" x2="3036" y1="292" y2="292"/>
  <text style="stroke:none;fill:black;font-family:sans-serif;font-size:13;font-weight:bold;" transform="matrix(1 0 0 1 263 322)">Weight/Scale Variations</text>
  <text style="stroke:none;fill:black;font-family:sans-serif;font-size:13;text-anchor:middle;" transform="matrix(1 0 0 1 559.711 322)">Ultralight</text>
  <text style="stroke:none;fill:black;font-family:sans-serif;font-size:13;text-anchor:middle;" transform="matrix(1 0 0 1 856.422 322)">Thin</text>
  <text style="stroke:none;fill:black;font-family:sans-serif;font-size:13;text-anchor:middle;" transform="matrix(1 0 0 1 1153.13 322)">Light</text>
  <text style="stroke:none;fill:black;font-family:sans-serif;font-size:13;text-anchor:middle;" transform="matrix(1 0 0 1 1449.84 322)">Regular</text>
  <text style="stroke:none;fill:black;font-family:sans-serif;font-size:13;text-anchor:middle;" transform="matrix(1 0 0 1 1746.56 322)">Medium</text>
  <text style="stroke:none;fill:black;font-family:sans-serif;font-size:13;text-anchor:middle;" transform="matrix(1 0 0 1 2043.27 322)">Semibold</text>
  <text style="stroke:none;fill:black;font-family:sans-serif;font-size:13;text-anchor:middle;" transform="matrix(1 0 0 1 2339.98 322)">Bold</text>
  <text style="stroke:none;fill:black;font-family:sans-serif;font-size:13;text-anchor:middle;" transform="matrix(1 0 0 1 2636.69 322)">Heavy</text>
  <text style="stroke:none;fill:black;font-family:sans-serif;font-size:13;text-anchor:middle;" transform="matrix(1 0 0 1 2933.4 322)">Black</text>
  <line style="fill:none;stroke:black;opacity:1;stroke-width:0.5;" x1="263" x2="3036" y1="1903" y2="1903"/>
  <g transform="matrix(0.2 0 0 0.2 263 1933)">
   <path d="m46.2402 4.15039c21.7773 0 39.4531-17.627 39.4531-39.4043s-17.6758-39.4043-39.4531-39.4043c-21.7285 0-39.4043 17.627-39.4043 39.4043s17.6758 39.4043 39.4043 39.4043Zm0-7.42188c-17.6758 0-31.9336-14.3066-31.9336-31.9824s14.2578-31.9824 31.9336-31.9824 31.9824 14.3066 31.9824 31.9824-14.3066 31.9824-31.9824 31.9824Zm-17.9688-31.9824c0 2.14844 1.51367 3.61328 3.75977 3.61328h10.498v10.5957c0 2.19727 1.46484 3.71094 3.61328 3.71094 2.24609 0 3.71094-1.51367 3.71094-3.71094v-10.5957h10.5957c2.19727 0 3.71094-1.46484 3.71094-3.61328 0-2.19727-1.51367-3.71094-3.71094-3.71094h-10.5957v-10.5469c0-2.24609-1.46484-3.75977-3.71094-3.75977-2.14844 0-3.61328 1.51367-3.61328 3.75977v10.5469h-10.498c-2.24609 0-3.75977 1.51367-3.75977 3.71094Z"/>
  </g>
  <g transform="matrix(0.2 0 0 0.2 281.506 1933)">
   <path d="m58.5449 14.5508c27.4902 0 49.8047-22.3145 49.8047-49.8047s-22.3145-49.8047-49.8047-49.8047-49.8047 22.3145-49.8047 49.8047 22.3145 49.8047 49.8047 49.8047Zm0-8.30078c-22.9492 0-41.5039-18.5547-41.5039-41.5039s18.5547-41.5039 41.5039-41.5039 41.5039 18.5547 41.5039 41.5039-18.5547 41.5039-41.5039 41.5039Zm-22.6562-41.5039c0 2.39258 1.66016 4.00391 4.15039 4.00391h14.3555v14.4043c0 2.44141 1.66016 4.15039 4.05273 4.15039 2.44141 0 4.15039-1.66016 4.15039-4.15039v-14.4043h14.4043c2.44141 0 4.15039-1.61133 4.15039-4.00391 0-2.44141-1.70898-4.15039-4.15039-4.15039h-14.4043v-14.3555c0-2.49023-1.70898-4.19922-4.15039-4.19922-2.39258 0-4.05273 1.70898-4.05273 4.19922v14.3555h-14.3555c-2.49023 0-4.15039 1.70898-4.15039 4.15039Z"/>
  </g>
  <g transform="matrix(0.2 0 0 0.2 304.924 1933)">
   <path d="m74.8535 28.3203c35.1074 0 63.623-28.4668 63.623-63.5742s-28.5156-63.623-63.623-63.623-63.5742 28.5156-63.5742 63.623 28.4668 63.5742 63.5742 63.5742Zm0-9.08203c-30.127 0-54.4922-24.3652-54.4922-54.4922s24.3652-54.4922 54.4922-54.4922 54.4922 24.3652 54.4922 54.4922-24.3652 54.4922-54.4922 54.4922Zm-28.8574-54.4922c0 2.58789 1.85547 4.39453 4.58984 4.39453h19.7266v19.7754c0 2.68555 1.85547 4.58984 4.44336 4.58984 2.68555 0 4.54102-1.85547 4.54102-4.58984v-19.7754h19.7754c2.68555 0 4.58984-1.80664 4.58984-4.39453 0-2.73438-1.85547-4.58984-4.58984-4.58984h-19.7754v-19.7266c0-2.73438-1.85547-4.63867-4.54102-4.63867-2.58789 0-4.44336 1.9043-4.44336 4.63867v19.7266h-19.7266c-2.73438 0-4.58984 1.85547-4.58984 4.58984Z"/>
  </g>
  <text style="stroke:none;fill:black;font-family:sans-serif;font-size:13;font-weight:bold;" transform="matrix(1 0 0 1 263 1953)">Design Variations</text>
  <text style="stroke:none;fill:black;font-family:sans-serif;font-size:13;" transform="matrix(1 0 0 1 263 1971)">Symbols are supported in up to nine weights and three scales.</text>
  <text style="stroke:none;fill:black;font-family:sans-serif;font-size:13;" transform="matrix(1 0 0 1 263 1989)">For optimal layout with text and other symbols, vertically align</text>
  <text style="stroke:none;fill:black;font-family:sans-serif;font-size:13;" transform="matrix(1 0 0 1 263 2007)">symbols with the adjacent text.</text>
  <line style="fill:none;stroke:#00AEEF;stroke-width:0.5;opacity:1.0;" x1="776" x2="776" y1="1919" y2="1933"/>
  <g transform="matrix(0.2 0 0 0.2 776 1933)">
   <path d="m16.5527 0.78125c2.58789 0 3.85742-0.976562 4.78516-3.71094l6.29883-17.2363h28.8086l6.29883 17.2363c0.927734 2.73438 2.19727 3.71094 4.73633 3.71094 2.58789 0 4.24805-1.5625 4.24805-4.00391 0-0.830078-0.146484-1.61133-0.537109-2.63672l-22.9004-60.9863c-1.12305-2.97852-3.125-4.49219-6.25-4.49219-3.02734 0-5.07812 1.46484-6.15234 4.44336l-22.9004 61.084c-0.390625 1.02539-0.537109 1.80664-0.537109 2.63672 0 2.44141 1.5625 3.95508 4.10156 3.95508Zm13.4766-28.3691 11.8652-32.8613h0.244141l11.8652 32.8613Z"/>
  </g>
  <line style="fill:none;stroke:#00AEEF;stroke-width:0.5;opacity:1.0;" x1="792.836" x2="792.836" y1="1919" y2="1933"/>
  <text style="stroke:none;fill:black;font-family:sans-serif;font-size:13;font-weight:bold;" transform="matrix(1 0 0 1 776 1953)">Margins</text>
  <text style="stroke:none;fill:black;font-family:sans-serif;font-size:13;" transform="matrix(1 0 0 1 776 1971)">Leading and trailing margins on the left and right side of each symbol</text>
  <text style="stroke:none;fill:black;font-family:sans-serif;font-size:13;" transform="matrix(1 0 0 1 776 1989)">can be adjusted by modifying the x-location of the margin guidelines.</text>
  <text style="stroke:none;fill:black;font-family:sans-serif;font-size:13;" transform="matrix(1 0 0 1 776 2007)">Modifications are automatically applied proportionally to all</text>
  <text style="stroke:none;fill:black;font-family:sans-serif;font-size:13;" transform="matrix(1 0 0 1 776 2025)">scales and weights.</text>
  <g transform="matrix(0.2 0 0 0.2 1289 1933)">
   <path d="m14.209 9.32617 8.49609 8.54492c4.29688 4.3457 9.22852 4.05273 13.8672-1.07422l53.4668-58.9355-4.83398-4.88281-53.0762 58.3984c-1.75781 2.00195-3.41797 2.49023-5.76172 0.146484l-5.85938-5.81055c-2.34375-2.29492-1.80664-4.00391 0.195312-5.81055l57.373-54.0039-4.88281-4.83398-57.959 54.4434c-4.93164 4.58984-5.32227 9.47266-1.02539 13.8184Zm32.0801-90.9668c-2.09961 2.05078-2.24609 4.93164-1.07422 6.88477 1.17188 1.80664 3.4668 2.97852 6.68945 2.14844 7.32422-1.70898 14.9414-2.00195 22.0703 2.68555l-2.92969 7.27539c-1.70898 4.15039-0.830078 7.08008 1.85547 9.81445l11.4746 11.5723c2.44141 2.44141 4.49219 2.53906 7.32422 2.05078l5.32227-0.976562 3.32031 3.36914-0.195312 2.7832c-0.195312 2.49023 0.439453 4.39453 2.88086 6.78711l3.80859 3.71094c2.39258 2.39258 5.46875 2.53906 7.8125 0.195312l14.5508-14.5996c2.34375-2.34375 2.24609-5.32227-0.146484-7.71484l-3.85742-3.80859c-2.39258-2.39258-4.24805-3.17383-6.64062-2.97852l-2.88086 0.244141-3.22266-3.17383 1.2207-5.61523c0.634766-2.83203-0.146484-5.0293-3.07617-7.95898l-10.9863-10.9375c-16.6992-16.6016-38.8672-16.2109-53.3203-1.75781Zm7.4707 1.85547c12.1582-8.88672 28.6133-7.37305 39.7461 3.75977l12.1582 12.0605c1.17188 1.17188 1.36719 2.09961 1.02539 3.80859l-1.61133 7.42188 7.51953 7.42188 4.93164-0.292969c1.26953-0.0488281 1.66016 0.0488281 2.63672 1.02539l2.88086 2.88086-12.207 12.207-2.88086-2.88086c-0.976562-0.976562-1.12305-1.36719-1.07422-2.68555l0.341797-4.88281-7.4707-7.42188-7.61719 1.26953c-1.61133 0.341797-2.34375 0.195312-3.56445-0.976562l-10.0098-10.0098c-1.26953-1.17188-1.41602-2.00195-0.634766-3.85742l4.39453-10.4492c-7.8125-7.27539-17.9688-10.4004-28.125-7.42188-0.78125 0.195312-1.07422-0.439453-0.439453-0.976562Z"/>
  </g>
  <text style="stroke:none;fill:black;font-family:sans-serif;font-size:13;font-weight:bold;" transform="matrix(1 0 0 1 1289 1953)">Exporting</text>
  <text style="stroke:none;fill:black;font-family:sans-serif;font-size:13;" transform="matrix(1 0 0 1 1289 1971)">Symbols should be outlined when exporting to ensure the</text>
  <text style="stroke:none;fill:black;font-family:sans-serif;font-size:13;" transform="matrix(1 0 0 1 1289 1989)">design is preserved when submitting to Xcode.</text>
  <text id="template-version" style="stroke:none;fill:black;font-family:sans-serif;font-size:13;text-anchor:end;" transform="matrix(1 0 0 1 3036 1933)">Template v.6.0</text>
  <text style="stroke:none;fill:black;font-family:sans-serif;font-size:13;text-anchor:end;" transform="matrix(1 0 0 1 3036 1951)">Requires Xcode 16 or greater</text>
  <text id="descriptive-name" style="stroke:none;fill:black;font-family:sans-serif;font-size:13;text-anchor:end;" transform="matrix(1 0 0 1 3036 1969)">Generated from filtervogelgruppe-56</text>
  <text style="stroke:none;fill:black;font-family:sans-serif;font-size:13;text-anchor:end;" transform="matrix(1 0 0 1 3036 1987)">Typeset at 100.0 points</text>
  <text style="stroke:none;fill:black;font-family:sans-serif;font-size:13;" transform="matrix(1 0 0 1 263 726)">Small</text>
  <text style="stroke:none;fill:black;font-family:sans-serif;font-size:13;" transform="matrix(1 0 0 1 263 1156)">Medium</text>
  <text style="stroke:none;fill:black;font-family:sans-serif;font-size:13;" transform="matrix(1 0 0 1 263 1586)">Large</text>
 </g>
 <g id="Guides">
  <g id="H-reference" style="fill:#27AAE1;stroke:none;" transform="matrix(1 0 0 1 339 696)">
   <path d="M0.993654 0L3.63775 0L29.3281-67.1323L30.0303-67.1323L30.0303-70.459L28.1226-70.459ZM11.6885-24.4799L46.9815-24.4799L46.2315-26.7285L12.4385-26.7285ZM55.1196 0L57.7637 0L30.6382-70.459L29.4326-70.459L29.4326-67.1323Z"/>
  </g>
  <line id="Baseline-S" style="fill:none;stroke:#27AAE1;opacity:1;stroke-width:0.5;" x1="263" x2="3036" y1="696" y2="696"/>
  <line id="Capline-S" style="fill:none;stroke:#27AAE1;opacity:1;stroke-width:0.5;" x1="263" x2="3036" y1="625.541" y2="625.541"/>
  <g id="H-reference" style="fill:#27AAE1;stroke:none;" transform="matrix(1 0 0 1 339 1126)">
   <path d="M0.993654 0L3.63775 0L29.3281-67.1323L30.0303-67.1323L30.0303-70.459L28.1226-70.459ZM11.6885-24.4799L46.9815-24.4799L46.2315-26.7285L12.4385-26.7285ZM55.1196 0L57.7637 0L30.6382-70.459L29.4326-70.459L29.4326-67.1323Z"/>
  </g>
  <line id="Baseline-M" style="fill:none;stroke:#27AAE1;opacity:1;stroke-width:0.5;" x1="263" x2="3036" y1="1126" y2="1126"/>
  <line id="Capline-M" style="fill:none;stroke:#27AAE1;opacity:1;stroke-width:0.5;" x1="263" x2="3036" y1="1055.54" y2="1055.54"/>
  <g id="H-reference" style="fill:#27AAE1;stroke:none;" transform="matrix(1 0 0 1 339 1556)">
   <path d="M0.993654 0L3.63775 0L29.3281-67.1323L30.0303-67.1323L30.0303-70.459L28.1226-70.459ZM11.6885-24.4799L46.9815-24.4799L46.2315-26.7285L12.4385-26.7285ZM55.1196 0L57.7637 0L30.6382-70.459L29.4326-70.459L29.4326-67.1323Z"/>
  </g>
  <line id="Baseline-L" style="fill:none;stroke:#27AAE1;opacity:1;stroke-width:0.5;" x1="263" x2="3036" y1="1556" y2="1556"/>
  <line id="Capline-L" style="fill:none;stroke:#27AAE1;opacity:1;stroke-width:0.5;" x1="263" x2="3036" y1="1485.54" y2="1485.54"/>
  <line id="right-margin-Black-S" style="fill:none;stroke:#00AEEF;stroke-width:0.5;opacity:1.0;" x1="2982.23" x2="2982.23" y1="600.785" y2="720.121"/>
  <line id="left-margin-Black-S" style="fill:none;stroke:#00AEEF;stroke-width:0.5;opacity:1.0;" x1="2884.57" x2="2884.57" y1="600.785" y2="720.121"/>
  <line id="right-margin-Regular-S" style="fill:none;stroke:#00AEEF;stroke-width:0.5;opacity:1.0;" x1="1496.11" x2="1496.11" y1="600.785" y2="720.121"/>
  <line id="left-margin-Regular-S" style="fill:none;stroke:#00AEEF;stroke-width:0.5;opacity:1.0;" x1="1403.58" x2="1403.58" y1="600.785" y2="720.121"/>
  <line id="right-margin-Ultralight-S" style="fill:none;stroke:#00AEEF;stroke-width:0.5;opacity:1.0;" x1="603.773" x2="603.773" y1="600.785" y2="720.121"/>
  <line id="left-margin-Ultralight-S" style="fill:none;stroke:#00AEEF;stroke-width:0.5;opacity:1.0;" x1="515.649" x2="515.649" y1="600.785" y2="720.121"/>
 </g>
 <g id="Symbols">
  <g id="Black-S" transform="matrix(1 0 0 1 2884.57 696)">
   <path class="monochrome-0 multicolor-0:tintColor hierarchical-0:primary SFSymbolsPreviewWireframe" d="M71.7571-37.9138C72.0685-37.2486 71.9057-37.1106 71.7288-37.0752C71.5802-36.6471 71.3396-36.5975 70.6567-36.5975C69.9738-36.5975 65.3635-36.5268 65.3635-36.5268L64.7761-36.3215C64.7761-36.3215 66.4745-34.6161 67.1892-34.3578C67.904-34.1031 69.1671-34.4675 70.08-34.1561C70.9928-33.8483 71.099-33.8625 71.2511-33.8094C72.0366-33.6997 72.0791-33.3494 71.8385-33.2044C71.5979-33.0557 70.9893-32.9284 70.1861-32.8364C69.3829-32.7444 67.2529-32.7656 66.4922-33.1477C65.7315-33.5369 64.6877-34.0323 64.2737-34.0854C63.8633-34.1384 63.7536-34.1384 63.7536-34.1384L64.0154-33.3317C64.0154-33.3317 65.6218-31.2229 65.8199-30.855C66.0145-30.487 66.1879-28.3605 66.3153-28.3605C66.4462-28.3605 66.8602-27.4759 67.4051-26.5065C67.9464-25.5334 68.0349-24.6347 68.2295-24.472C68.4276-24.3057 69.0362-23.7714 69.0362-23.3327C69.0391-22.9912 69.1126-22.6539 69.252-22.3419C69.3405-22.1403 69.7297-21.5529 69.7509-20.7108C70.317-20.5445 70.3807-19.9041 70.5116-18.8745C71.1627-18.1951 70.9468-17.261 70.9468-17.261C71.6616-16.564 71.467-15.6299 71.467-15.6299C71.8173-14.9682 71.7748-14.0872 71.7748-14.0872C72.3798-13.4999 71.7748-13.0965 71.3396-13.0965C70.8796-12.1801 70.4904-12.3252 69.8181-12.6365C69.1423-12.9515 66.2091-13.8112 62.5789-18.1421C58.9487-22.4729 58.2516-23.7572 56.9496-26.4003C55.6015-27.5927 55.5343-28.9125 55.3184-29.9386C55.0991-30.9646 53.7085-32.9461 52.7284-33.7174C48.4047-33.8271 47.782-33.8695 44.6329-34.4604C43.2636-34.701 42.0252-34.4534 41.6114-34.1066C41.201-33.7563 40.8577-33.1053 40.8577-33.1053C40.7693-33.077 40.2492-33.3777 40.5358-34.1526C40.8047-34.7116 41.3248-35.1079 41.3248-35.5007C41.3248-35.897 41.109-36.3357 40.8577-36.8063C40.6065-37.2769 41.162-38.1508 42.6338-38.5931C44.1093-39.0318 45.8253-39.559 45.9987-39.8032C46.1756-40.0509 45.9209-40.709 44.732-41.3175C43.5467-41.9297 40.4473-43.812 40.4473-43.812C39.3398-44.1057 35.5575-46.3065 31.7963-49.4237C28.0422-52.5409 27.7132-53.1636 26.8003-55.0354C25.8874-56.9106 25.6928-57.2397 26.7366-57.5688C26.7578-58.4852 27.0621-58.5241 27.5858-58.2481C28.1059-57.9721 28.672-57.6395 28.672-57.6395C29.6698-57.9332 31.0639-57.0168 31.0639-57.0168C31.998-57.0734 33.2576-56.1924 33.2576-56.1924C34.2801-56.1358 34.3226-55.9164 36.1696-54.7063C36.5199-55.0708 36.5199-55 36.8206-54.7983C37.1284-54.5966 37.9316-54.0093 37.9316-54.0093C38.105-54.0447 38.4093-54.1154 38.9082-53.8253C39.4071-53.5316 41.6468-51.8793 41.6468-51.8793C42.8001-51.4193 43.3875-50.8355 43.3875-50.8355C45.0611-50.1738 45.3441-49.8235 45.3441-49.8235C49.8448-47.8067 51.3627-46.9646 52.1906-46.487C53.0186-46.0093 54.211-44.9655 54.9504-44.0101C57.5157-42.2835 58.5382-41.2751 58.5382-41.2751C60.6895-41.4202 62.0163-41.6041 62.0163-41.6041C65.8376-42.9451 67.6421-43.8332 68.1127-43.6351C68.5868-43.4334 69.114-42.8567 70.1401-41.682C71.1662-40.5037 71.1414-40.3268 71.3785-39.5484C71.5354-39.0112 71.6619-38.4654 71.7571-37.9138L71.7571-37.9138Z"/>
   <path class="monochrome-1 multicolor-1:tintColor hierarchical-1:tertiary SFSymbolsPreviewWireframe" d="M48.9411-84C55.3091-84.0013 61.615-82.7479 67.4985-80.3116C73.382-77.8752 78.7279-74.3036 83.2305-69.8009C87.7334-65.2983 91.305-59.9524 93.7418-54.0682C96.1779-48.1846 97.4312-41.8789 97.43-35.5124C97.43-8.72255 75.7254 13 48.9424 13C22.156 13 0.43-8.726 0.43-35.5124C0.43-62.2926 22.1539-84 48.9411-84ZM48.9424-70C29.8835-70 14.43-54.5582 14.43-35.5124C14.43-16.458 29.888-0.999999 48.9424-0.999999C67.9909-0.999999 83.43-16.4519 83.43-35.5138C83.4309-40.0428 82.5395-44.5276 80.8069-48.7121C79.0739-52.8969 76.5337-56.6989 73.3311-59.9013C70.1287-63.1038 66.3266-65.644 62.1422-67.3767C57.9578-69.1095 53.4729-70.0009 48.9424-70Z"/>
  </g>
  <g id="Regular-S" transform="matrix(1 0 0 1 1403.58 696)">
   <path class="monochrome-0 multicolor-0:tintColor hierarchical-0:primary SFSymbolsPreviewWireframe" d="M73.2941-39.417C73.6678-38.6187 73.4724-38.4531 73.2601-38.4107C73.0818-37.8969 72.7931-37.8374 71.9735-37.8374C71.154-37.8374 65.6213-37.7525 65.6213-37.7525L64.9164-37.5062C64.9164-37.5062 66.9546-35.4596 67.8123-35.1496C68.67-34.8439 70.1859-35.2812 71.2814-34.9076C72.3769-34.5382 72.5043-34.5551 72.6869-34.4915C73.6295-34.3598 73.6805-33.9395 73.3918-33.7654C73.103-33.587 72.3727-33.4342 71.4088-33.3238C70.4449-33.2134 67.8887-33.2388 66.9758-33.6974C66.0629-34.1645 64.8103-34.759 64.3135-34.8227C63.8209-34.8863 63.6893-34.8863 63.6893-34.8863L64.0035-33.9182C64.0035-33.9182 65.9313-31.3875 66.1691-30.9459C66.4026-30.5043 66.6107-27.9524 66.7635-27.9524C66.9206-27.9524 67.4174-26.8908 68.0713-25.7274C68.721-24.5597 68.8271-23.4812 69.0607-23.2859C69.2985-23.0863 70.0288-22.4451 70.0288-21.9186C70.0323-21.5088 70.1205-21.104 70.2878-20.7297C70.394-20.4876 70.8611-19.7828 70.8865-18.7722C71.5659-18.5726 71.6423-17.8041 71.7995-16.5684C72.5807-15.7532 72.3217-14.6322 72.3217-14.6322C73.1795-13.7957 72.9459-12.6747 72.9459-12.6747C73.3663-11.8807 73.3153-10.8234 73.3153-10.8234C74.0414-10.1185 73.3153-9.63447 72.7931-9.63447C72.2411-8.53472 71.774-8.70881 70.9672-9.08247C70.1562-9.46038 66.6361-10.4922 62.2796-15.6895C57.923-20.8868 57.0865-22.4281 55.5239-25.6C53.9062-27.031 53.8255-28.6148 53.5665-29.8462C53.3032-31.0775 51.6345-33.4554 50.4583-34.3811C45.2695-34.5127 44.5222-34.5636 40.7431-35.2727C39.0998-35.5615 37.6137-35.2643 37.117-34.8481C36.6245-34.4278 36.2126-33.6465 36.2126-33.6465C36.1064-33.6125 35.4822-33.9734 35.8262-34.9033C36.1489-35.5742 36.7731-36.0498 36.7731-36.5211C36.7731-36.9967 36.5141-37.5232 36.2126-38.0879C35.9111-38.6527 36.5778-39.7015 38.344-40.2323C40.1147-40.7588 42.174-41.3915 42.3821-41.6844C42.5944-41.9817 42.2887-42.7715 40.862-43.5018C39.4395-44.2364 35.72-46.4953 35.72-46.4953C34.391-46.8478 29.8518-49.4889 25.3382-53.2298C20.833-56.9707 20.4381-57.718 19.3426-59.9642C18.2471-62.2147 18.0136-62.6096 19.2662-63.0044C19.2917-64.1042 19.6568-64.1509 20.2853-63.8197C20.9094-63.4885 21.5888-63.0894 21.5888-63.0894C22.7862-63.4418 24.4592-62.342 24.4592-62.342C25.5802-62.41 27.0918-61.3527 27.0918-61.3527C28.319-61.2848 28.3699-61.0215 30.5864-59.5693C31.0068-60.0067 31.0068-59.9217 31.3677-59.6797C31.7371-59.4377 32.701-58.7328 32.701-58.7328C32.9091-58.7753 33.2742-58.8602 33.873-58.512C34.4717-58.1596 37.1595-56.1766 37.1595-56.1766C38.5436-55.6246 39.2484-54.924 39.2484-54.924C41.2569-54.13 41.5966-53.7096 41.5966-53.7096C46.9977-51.2893 48.8193-50.2787 49.8129-49.7055C50.8065-49.1322 52.2374-47.8796 53.1249-46.7331C56.2033-44.661 57.4305-43.4508 57.4305-43.4508C60.0121-43.6249 61.6044-43.8457 61.6044-43.8457C66.1903-45.455 68.3558-46.5208 68.9206-46.283C69.4895-46.041 70.1222-45.3489 71.3536-43.9391C72.585-42.5252 72.5553-42.3129 72.8398-41.3787C73.028-40.734 73.1798-40.079 73.2941-39.417L73.2941-39.417Z"/>
   <path class="monochrome-1 multicolor-1:tintColor hierarchical-1:tertiary SFSymbolsPreviewWireframe" d="M46.4321-81.8365C52.4502-81.8377 58.4096-80.6532 63.9698-78.3508C69.53-76.0483 74.5822-72.6729 78.8374-68.4176C83.0928-64.1624 86.4682-59.1103 88.771-53.5496C91.0733-47.9892 92.2577-42.03 92.2566-36.0127C92.2566-10.693 71.744 9.83658 46.4328 9.83658C21.1173 9.83658 0.5835-10.6972 0.5835-36.0127C0.5835-61.3211 21.1145-81.8365 46.4321-81.8365ZM46.4328-75.0865C24.8413-75.0865 7.3335-57.592 7.3335-36.0127C7.3335-14.4252 24.8452 3.08658 46.4328 3.08658C68.0148 3.08658 85.5066-14.4197 85.5066-36.0133C85.5076-41.1447 84.4976-46.226 82.5345-50.9672C80.571-55.7085 77.693-60.0162 74.0644-63.6446C70.4361-67.273 66.1283-70.1511 61.3873-72.1143C56.6463-74.0776 51.5649-75.0875 46.4328-75.0865Z"/>
  </g>
  <g id="Ultralight-S" transform="matrix(1 0 0 1 515.649 696)">
   <path class="monochrome-0 multicolor-0:tintColor hierarchical-0:primary SFSymbolsPreviewWireframe" d="M71.2251-40.417C71.5988-39.6187 71.4034-39.4531 71.1911-39.4107C71.0128-38.8969 70.7241-38.8374 69.9045-38.8374C69.085-38.8374 63.5523-38.7525 63.5523-38.7525L62.8474-38.5062C62.8474-38.5062 64.8856-36.4596 65.7433-36.1496C66.601-35.8439 68.1169-36.2812 69.2124-35.9076C70.3079-35.5382 70.4353-35.5551 70.6179-35.4915C71.5605-35.3598 71.6115-34.9395 71.3228-34.7654C71.034-34.587 70.3037-34.4342 69.3398-34.3238C68.3759-34.2134 65.8197-34.2388 64.9068-34.6974C63.9939-35.1645 62.7413-35.759 62.2445-35.8227C61.7519-35.8863 61.6203-35.8863 61.6203-35.8863L61.9345-34.9182C61.9345-34.9182 63.8623-32.3875 64.1001-31.9459C64.3336-31.5043 64.5417-28.9524 64.6945-28.9524C64.8516-28.9524 65.3484-27.8908 66.0023-26.7274C66.652-25.5597 66.7581-24.4812 66.9917-24.2859C67.2295-24.0863 67.9598-23.4451 67.9598-22.9186C67.9633-22.5088 68.0515-22.104 68.2188-21.7297C68.325-21.4876 68.7921-20.7828 68.8175-19.7722C69.4969-19.5726 69.5733-18.8041 69.7305-17.5684C70.5117-16.7532 70.2527-15.6322 70.2527-15.6322C71.1105-14.7957 70.8769-13.6747 70.8769-13.6747C71.2973-12.8807 71.2463-11.8234 71.2463-11.8234C71.9724-11.1185 71.2463-10.6345 70.7241-10.6345C70.1721-9.53472 69.705-9.70881 68.8982-10.0825C68.0872-10.4604 64.5671-11.4922 60.2106-16.6895C55.854-21.8868 55.0175-23.4281 53.4549-26.6C51.8372-28.031 51.7565-29.6148 51.4975-30.8462C51.2342-32.0775 49.5655-34.4554 48.3893-35.3811C43.2005-35.5127 42.4532-35.5636 38.6741-36.2727C37.0308-36.5615 35.5447-36.2643 35.048-35.8481C34.5555-35.4278 34.1436-34.6465 34.1436-34.6465C34.0374-34.6125 33.4132-34.9734 33.7572-35.9033C34.0799-36.5742 34.7041-37.0498 34.7041-37.5211C34.7041-37.9967 34.4451-38.5232 34.1436-39.0879C33.8421-39.6527 34.5088-40.7015 36.275-41.2323C38.0457-41.7588 40.105-42.3915 40.3131-42.6844C40.5254-42.9817 40.2197-43.7715 38.793-44.5018C37.3705-45.2364 33.651-47.4953 33.651-47.4953C32.322-47.8478 27.7828-50.4889 23.2692-54.2298C18.764-57.9707 18.3691-58.718 17.2736-60.9642C16.1781-63.2147 15.9446-63.6096 17.1972-64.0044C17.2227-65.1042 17.5878-65.1509 18.2163-64.8197C18.8404-64.4885 19.5198-64.0894 19.5198-64.0894C20.7172-64.4418 22.3902-63.342 22.3902-63.342C23.5112-63.41 25.0228-62.3527 25.0228-62.3527C26.25-62.2848 26.3009-62.0215 28.5174-60.5693C28.9378-61.0067 28.9378-60.9217 29.2987-60.6797C29.6681-60.4377 30.632-59.7328 30.632-59.7328C30.8401-59.7753 31.2052-59.8602 31.804-59.512C32.4027-59.1596 35.0905-57.1766 35.0905-57.1766C36.4746-56.6246 37.1794-55.924 37.1794-55.924C39.1879-55.13 39.5276-54.7096 39.5276-54.7096C44.9287-52.2893 46.7503-51.2787 47.7439-50.7055C48.7375-50.1322 50.1684-48.8796 51.0559-47.7331C54.1343-45.661 55.3615-44.4508 55.3615-44.4508C57.9431-44.6249 59.5354-44.8457 59.5354-44.8457C64.1213-46.455 66.2868-47.5208 66.8516-47.283C67.4205-47.041 68.0532-46.3489 69.2846-44.9391C70.516-43.5252 70.4863-43.3129 70.7708-42.3787C70.959-41.734 71.1108-41.079 71.2251-40.417L71.2251-40.417Z"/>
   <path class="monochrome-1 multicolor-1:tintColor hierarchical-1:tertiary SFSymbolsPreviewWireframe" d="M44.3636-80.5865C50.0861-80.5876 55.7528-79.4613 61.04-77.272C66.3271-75.0826 71.1312-71.8729 75.1774-67.8265C79.2239-63.7803 82.4335-58.9764 84.6232-53.6889C86.8124-48.4015 87.9387-42.7349 87.9376-37.0127C87.9376-12.9352 68.432 6.58658 44.3638 6.58658C20.2909 6.58658 0.7645-12.9399 0.7645-37.0127C0.7645-61.0781 20.2877-80.5865 44.3636-80.5865ZM44.3638-78.3365C21.53-78.3365 3.0145-59.8351 3.0145-37.0127C3.0145-14.1825 21.5336 4.33658 44.3638 4.33658C67.1889 4.33658 85.6876-14.1774 85.6876-37.0129C85.6886-42.4398 84.6205-47.8138 82.5443-52.828C80.4678-57.8425 77.4239-62.3983 73.5865-66.2355C69.7491-70.073 65.1932-73.1168 60.1791-75.1931C55.1651-77.2695 49.791-78.3376 44.3638-78.3365Z"/>
  </g>
 </g>
</svg>
