<?xml version="1.0" encoding="UTF-8"?>
<!--Generator: Apple Native CoreSVG 341-->
<!DOCTYPE svg
PUBLIC "-//W3C//DTD SVG 1.1//EN"
       "http://www.w3.org/Graphics/SVG/1.1/DTD/svg11.dtd">
<svg version="1.1" xmlns="http://www.w3.org/2000/svg" xmlns:xlink="http://www.w3.org/1999/xlink" viewBox="0 0 3300 2200">
 <!--glyph: "", point size: 100.0, font version: "20.0d10e1", template writer version: "138.0.0"-->
 <style>.monochrome-0 {-sfsymbols-motion-group:1;-sfsymbols-layer-tags:692f6102b968a551}
.monochrome-1 {-sfsymbols-motion-group:0;-sfsymbols-layer-tags:692f6102b968a551}

.multicolor-0:tintColor {-sfsymbols-motion-group:1;-sfsymbols-layer-tags:692f6102b968a551}
.multicolor-1:tintColor {-sfsymbols-motion-group:0;-sfsymbols-layer-tags:692f6102b968a551}

.hierarchical-0:primary {-sfsymbols-motion-group:1;-sfsymbols-layer-tags:692f6102b968a551}
.hierarchical-1:tertiary {-sfsymbols-motion-group:0;-sfsymbols-layer-tags:692f6102b968a551}

.SFSymbolsPreviewWireframe {fill:none;opacity:1.0;stroke:black;stroke-width:0.5}
</style>
 <g id="Notes">
  <rect height="2200" id="artboard" style="fill:white;opacity:1" width="3300" x="0" y="0"/>
  <line style="fill:none;stroke:black;opacity:1;stroke-width:0.5;" x1="263" x2="3036" y1="292" y2="292"/>
  <text style="stroke:none;fill:black;font-family:sans-serif;font-size:13;font-weight:bold;" transform="matrix(1 0 0 1 263 322)">Weight/Scale Variations</text>
  <text style="stroke:none;fill:black;font-family:sans-serif;font-size:13;text-anchor:middle;" transform="matrix(1 0 0 1 559.711 322)">Ultralight</text>
  <text style="stroke:none;fill:black;font-family:sans-serif;font-size:13;text-anchor:middle;" transform="matrix(1 0 0 1 856.422 322)">Thin</text>
  <text style="stroke:none;fill:black;font-family:sans-serif;font-size:13;text-anchor:middle;" transform="matrix(1 0 0 1 1153.13 322)">Light</text>
  <text style="stroke:none;fill:black;font-family:sans-serif;font-size:13;text-anchor:middle;" transform="matrix(1 0 0 1 1449.84 322)">Regular</text>
  <text style="stroke:none;fill:black;font-family:sans-serif;font-size:13;text-anchor:middle;" transform="matrix(1 0 0 1 1746.56 322)">Medium</text>
  <text style="stroke:none;fill:black;font-family:sans-serif;font-size:13;text-anchor:middle;" transform="matrix(1 0 0 1 2043.27 322)">Semibold</text>
  <text style="stroke:none;fill:black;font-family:sans-serif;font-size:13;text-anchor:middle;" transform="matrix(1 0 0 1 2339.98 322)">Bold</text>
  <text style="stroke:none;fill:black;font-family:sans-serif;font-size:13;text-anchor:middle;" transform="matrix(1 0 0 1 2636.69 322)">Heavy</text>
  <text style="stroke:none;fill:black;font-family:sans-serif;font-size:13;text-anchor:middle;" transform="matrix(1 0 0 1 2933.4 322)">Black</text>
  <line style="fill:none;stroke:black;opacity:1;stroke-width:0.5;" x1="263" x2="3036" y1="1903" y2="1903"/>
  <g transform="matrix(0.2 0 0 0.2 263 1933)">
   <path d="m46.2402 4.15039c21.7773 0 39.4531-17.627 39.4531-39.4043s-17.6758-39.4043-39.4531-39.4043c-21.7285 0-39.4043 17.627-39.4043 39.4043s17.6758 39.4043 39.4043 39.4043Zm0-7.42188c-17.6758 0-31.9336-14.3066-31.9336-31.9824s14.2578-31.9824 31.9336-31.9824 31.9824 14.3066 31.9824 31.9824-14.3066 31.9824-31.9824 31.9824Zm-17.9688-31.9824c0 2.14844 1.51367 3.61328 3.75977 3.61328h10.498v10.5957c0 2.19727 1.46484 3.71094 3.61328 3.71094 2.24609 0 3.71094-1.51367 3.71094-3.71094v-10.5957h10.5957c2.19727 0 3.71094-1.46484 3.71094-3.61328 0-2.19727-1.51367-3.71094-3.71094-3.71094h-10.5957v-10.5469c0-2.24609-1.46484-3.75977-3.71094-3.75977-2.14844 0-3.61328 1.51367-3.61328 3.75977v10.5469h-10.498c-2.24609 0-3.75977 1.51367-3.75977 3.71094Z"/>
  </g>
  <g transform="matrix(0.2 0 0 0.2 281.506 1933)">
   <path d="m58.5449 14.5508c27.4902 0 49.8047-22.3145 49.8047-49.8047s-22.3145-49.8047-49.8047-49.8047-49.8047 22.3145-49.8047 49.8047 22.3145 49.8047 49.8047 49.8047Zm0-8.30078c-22.9492 0-41.5039-18.5547-41.5039-41.5039s18.5547-41.5039 41.5039-41.5039 41.5039 18.5547 41.5039 41.5039-18.5547 41.5039-41.5039 41.5039Zm-22.6562-41.5039c0 2.39258 1.66016 4.00391 4.15039 4.00391h14.3555v14.4043c0 2.44141 1.66016 4.15039 4.05273 4.15039 2.44141 0 4.15039-1.66016 4.15039-4.15039v-14.4043h14.4043c2.44141 0 4.15039-1.61133 4.15039-4.00391 0-2.44141-1.70898-4.15039-4.15039-4.15039h-14.4043v-14.3555c0-2.49023-1.70898-4.19922-4.15039-4.19922-2.39258 0-4.05273 1.70898-4.05273 4.19922v14.3555h-14.3555c-2.49023 0-4.15039 1.70898-4.15039 4.15039Z"/>
  </g>
  <g transform="matrix(0.2 0 0 0.2 304.924 1933)">
   <path d="m74.8535 28.3203c35.1074 0 63.623-28.4668 63.623-63.5742s-28.5156-63.623-63.623-63.623-63.5742 28.5156-63.5742 63.623 28.4668 63.5742 63.5742 63.5742Zm0-9.08203c-30.127 0-54.4922-24.3652-54.4922-54.4922s24.3652-54.4922 54.4922-54.4922 54.4922 24.3652 54.4922 54.4922-24.3652 54.4922-54.4922 54.4922Zm-28.8574-54.4922c0 2.58789 1.85547 4.39453 4.58984 4.39453h19.7266v19.7754c0 2.68555 1.85547 4.58984 4.44336 4.58984 2.68555 0 4.54102-1.85547 4.54102-4.58984v-19.7754h19.7754c2.68555 0 4.58984-1.80664 4.58984-4.39453 0-2.73438-1.85547-4.58984-4.58984-4.58984h-19.7754v-19.7266c0-2.73438-1.85547-4.63867-4.54102-4.63867-2.58789 0-4.44336 1.9043-4.44336 4.63867v19.7266h-19.7266c-2.73438 0-4.58984 1.85547-4.58984 4.58984Z"/>
  </g>
  <text style="stroke:none;fill:black;font-family:sans-serif;font-size:13;font-weight:bold;" transform="matrix(1 0 0 1 263 1953)">Design Variations</text>
  <text style="stroke:none;fill:black;font-family:sans-serif;font-size:13;" transform="matrix(1 0 0 1 263 1971)">Symbols are supported in up to nine weights and three scales.</text>
  <text style="stroke:none;fill:black;font-family:sans-serif;font-size:13;" transform="matrix(1 0 0 1 263 1989)">For optimal layout with text and other symbols, vertically align</text>
  <text style="stroke:none;fill:black;font-family:sans-serif;font-size:13;" transform="matrix(1 0 0 1 263 2007)">symbols with the adjacent text.</text>
  <line style="fill:none;stroke:#00AEEF;stroke-width:0.5;opacity:1.0;" x1="776" x2="776" y1="1919" y2="1933"/>
  <g transform="matrix(0.2 0 0 0.2 776 1933)">
   <path d="m16.5527 0.78125c2.58789 0 3.85742-0.976562 4.78516-3.71094l6.29883-17.2363h28.8086l6.29883 17.2363c0.927734 2.73438 2.19727 3.71094 4.73633 3.71094 2.58789 0 4.24805-1.5625 4.24805-4.00391 0-0.830078-0.146484-1.61133-0.537109-2.63672l-22.9004-60.9863c-1.12305-2.97852-3.125-4.49219-6.25-4.49219-3.02734 0-5.07812 1.46484-6.15234 4.44336l-22.9004 61.084c-0.390625 1.02539-0.537109 1.80664-0.537109 2.63672 0 2.44141 1.5625 3.95508 4.10156 3.95508Zm13.4766-28.3691 11.8652-32.8613h0.244141l11.8652 32.8613Z"/>
  </g>
  <line style="fill:none;stroke:#00AEEF;stroke-width:0.5;opacity:1.0;" x1="792.836" x2="792.836" y1="1919" y2="1933"/>
  <text style="stroke:none;fill:black;font-family:sans-serif;font-size:13;font-weight:bold;" transform="matrix(1 0 0 1 776 1953)">Margins</text>
  <text style="stroke:none;fill:black;font-family:sans-serif;font-size:13;" transform="matrix(1 0 0 1 776 1971)">Leading and trailing margins on the left and right side of each symbol</text>
  <text style="stroke:none;fill:black;font-family:sans-serif;font-size:13;" transform="matrix(1 0 0 1 776 1989)">can be adjusted by modifying the x-location of the margin guidelines.</text>
  <text style="stroke:none;fill:black;font-family:sans-serif;font-size:13;" transform="matrix(1 0 0 1 776 2007)">Modifications are automatically applied proportionally to all</text>
  <text style="stroke:none;fill:black;font-family:sans-serif;font-size:13;" transform="matrix(1 0 0 1 776 2025)">scales and weights.</text>
  <g transform="matrix(0.2 0 0 0.2 1289 1933)">
   <path d="m14.209 9.32617 8.49609 8.54492c4.29688 4.3457 9.22852 4.05273 13.8672-1.07422l53.4668-58.9355-4.83398-4.88281-53.0762 58.3984c-1.75781 2.00195-3.41797 2.49023-5.76172 0.146484l-5.85938-5.81055c-2.34375-2.29492-1.80664-4.00391 0.195312-5.81055l57.373-54.0039-4.88281-4.83398-57.959 54.4434c-4.93164 4.58984-5.32227 9.47266-1.02539 13.8184Zm32.0801-90.9668c-2.09961 2.05078-2.24609 4.93164-1.07422 6.88477 1.17188 1.80664 3.4668 2.97852 6.68945 2.14844 7.32422-1.70898 14.9414-2.00195 22.0703 2.68555l-2.92969 7.27539c-1.70898 4.15039-0.830078 7.08008 1.85547 9.81445l11.4746 11.5723c2.44141 2.44141 4.49219 2.53906 7.32422 2.05078l5.32227-0.976562 3.32031 3.36914-0.195312 2.7832c-0.195312 2.49023 0.439453 4.39453 2.88086 6.78711l3.80859 3.71094c2.39258 2.39258 5.46875 2.53906 7.8125 0.195312l14.5508-14.5996c2.34375-2.34375 2.24609-5.32227-0.146484-7.71484l-3.85742-3.80859c-2.39258-2.39258-4.24805-3.17383-6.64062-2.97852l-2.88086 0.244141-3.22266-3.17383 1.2207-5.61523c0.634766-2.83203-0.146484-5.0293-3.07617-7.95898l-10.9863-10.9375c-16.6992-16.6016-38.8672-16.2109-53.3203-1.75781Zm7.4707 1.85547c12.1582-8.88672 28.6133-7.37305 39.7461 3.75977l12.1582 12.0605c1.17188 1.17188 1.36719 2.09961 1.02539 3.80859l-1.61133 7.42188 7.51953 7.42188 4.93164-0.292969c1.26953-0.0488281 1.66016 0.0488281 2.63672 1.02539l2.88086 2.88086-12.207 12.207-2.88086-2.88086c-0.976562-0.976562-1.12305-1.36719-1.07422-2.68555l0.341797-4.88281-7.4707-7.42188-7.61719 1.26953c-1.61133 0.341797-2.34375 0.195312-3.56445-0.976562l-10.0098-10.0098c-1.26953-1.17188-1.41602-2.00195-0.634766-3.85742l4.39453-10.4492c-7.8125-7.27539-17.9688-10.4004-28.125-7.42188-0.78125 0.195312-1.07422-0.439453-0.439453-0.976562Z"/>
  </g>
  <text style="stroke:none;fill:black;font-family:sans-serif;font-size:13;font-weight:bold;" transform="matrix(1 0 0 1 1289 1953)">Exporting</text>
  <text style="stroke:none;fill:black;font-family:sans-serif;font-size:13;" transform="matrix(1 0 0 1 1289 1971)">Symbols should be outlined when exporting to ensure the</text>
  <text style="stroke:none;fill:black;font-family:sans-serif;font-size:13;" transform="matrix(1 0 0 1 1289 1989)">design is preserved when submitting to Xcode.</text>
  <text id="template-version" style="stroke:none;fill:black;font-family:sans-serif;font-size:13;text-anchor:end;" transform="matrix(1 0 0 1 3036 1933)">Template v.6.0</text>
  <text style="stroke:none;fill:black;font-family:sans-serif;font-size:13;text-anchor:end;" transform="matrix(1 0 0 1 3036 1951)">Requires Xcode 16 or greater</text>
  <text id="descriptive-name" style="stroke:none;fill:black;font-family:sans-serif;font-size:13;text-anchor:end;" transform="matrix(1 0 0 1 3036 1969)">Generated from filtervogelgruppe-62</text>
  <text style="stroke:none;fill:black;font-family:sans-serif;font-size:13;text-anchor:end;" transform="matrix(1 0 0 1 3036 1987)">Typeset at 100.0 points</text>
  <text style="stroke:none;fill:black;font-family:sans-serif;font-size:13;" transform="matrix(1 0 0 1 263 726)">Small</text>
  <text style="stroke:none;fill:black;font-family:sans-serif;font-size:13;" transform="matrix(1 0 0 1 263 1156)">Medium</text>
  <text style="stroke:none;fill:black;font-family:sans-serif;font-size:13;" transform="matrix(1 0 0 1 263 1586)">Large</text>
 </g>
 <g id="Guides">
  <g id="H-reference" style="fill:#27AAE1;stroke:none;" transform="matrix(1 0 0 1 339 696)">
   <path d="M0.993654 0L3.63775 0L29.3281-67.1323L30.0303-67.1323L30.0303-70.459L28.1226-70.459ZM11.6885-24.4799L46.9815-24.4799L46.2315-26.7285L12.4385-26.7285ZM55.1196 0L57.7637 0L30.6382-70.459L29.4326-70.459L29.4326-67.1323Z"/>
  </g>
  <line id="Baseline-S" style="fill:none;stroke:#27AAE1;opacity:1;stroke-width:0.5;" x1="263" x2="3036" y1="696" y2="696"/>
  <line id="Capline-S" style="fill:none;stroke:#27AAE1;opacity:1;stroke-width:0.5;" x1="263" x2="3036" y1="625.541" y2="625.541"/>
  <g id="H-reference" style="fill:#27AAE1;stroke:none;" transform="matrix(1 0 0 1 339 1126)">
   <path d="M0.993654 0L3.63775 0L29.3281-67.1323L30.0303-67.1323L30.0303-70.459L28.1226-70.459ZM11.6885-24.4799L46.9815-24.4799L46.2315-26.7285L12.4385-26.7285ZM55.1196 0L57.7637 0L30.6382-70.459L29.4326-70.459L29.4326-67.1323Z"/>
  </g>
  <line id="Baseline-M" style="fill:none;stroke:#27AAE1;opacity:1;stroke-width:0.5;" x1="263" x2="3036" y1="1126" y2="1126"/>
  <line id="Capline-M" style="fill:none;stroke:#27AAE1;opacity:1;stroke-width:0.5;" x1="263" x2="3036" y1="1055.54" y2="1055.54"/>
  <g id="H-reference" style="fill:#27AAE1;stroke:none;" transform="matrix(1 0 0 1 339 1556)">
   <path d="M0.993654 0L3.63775 0L29.3281-67.1323L30.0303-67.1323L30.0303-70.459L28.1226-70.459ZM11.6885-24.4799L46.9815-24.4799L46.2315-26.7285L12.4385-26.7285ZM55.1196 0L57.7637 0L30.6382-70.459L29.4326-70.459L29.4326-67.1323Z"/>
  </g>
  <line id="Baseline-L" style="fill:none;stroke:#27AAE1;opacity:1;stroke-width:0.5;" x1="263" x2="3036" y1="1556" y2="1556"/>
  <line id="Capline-L" style="fill:none;stroke:#27AAE1;opacity:1;stroke-width:0.5;" x1="263" x2="3036" y1="1485.54" y2="1485.54"/>
  <line id="right-margin-Black-S" style="fill:none;stroke:#00AEEF;stroke-width:0.5;opacity:1.0;" x1="2982.23" x2="2982.23" y1="600.785" y2="720.121"/>
  <line id="left-margin-Black-S" style="fill:none;stroke:#00AEEF;stroke-width:0.5;opacity:1.0;" x1="2884.57" x2="2884.57" y1="600.785" y2="720.121"/>
  <line id="right-margin-Regular-S" style="fill:none;stroke:#00AEEF;stroke-width:0.5;opacity:1.0;" x1="1496.11" x2="1496.11" y1="600.785" y2="720.121"/>
  <line id="left-margin-Regular-S" style="fill:none;stroke:#00AEEF;stroke-width:0.5;opacity:1.0;" x1="1403.58" x2="1403.58" y1="600.785" y2="720.121"/>
  <line id="right-margin-Ultralight-S" style="fill:none;stroke:#00AEEF;stroke-width:0.5;opacity:1.0;" x1="603.773" x2="603.773" y1="600.785" y2="720.121"/>
  <line id="left-margin-Ultralight-S" style="fill:none;stroke:#00AEEF;stroke-width:0.5;opacity:1.0;" x1="515.649" x2="515.649" y1="600.785" y2="720.121"/>
 </g>
 <g id="Symbols">
  <g id="Black-S" transform="matrix(1 0 0 1 2884.57 696)">
   <path class="monochrome-0 multicolor-0:tintColor hierarchical-0:primary SFSymbolsPreviewWireframe" d="M57.9062-31.6902C57.2622-31.4 57.0711-30.9719 56.4236-30.4659C55.7796-29.9599 54.9127-29.3725 52.7188-28.042C52.7825-27.9359 54.6437-26.4674 55.2736-25.6146C55.907-24.7619 56.0237-24.7229 56.5934-19.6169C57.1383-13.5835 57.8142-10.4201 57.9734-9.46119C58.1291-8.50227 57.8283-7.46196 57.8283-7.46196C57.8283-7.46196 57.892-6.15627 57.8107-5.43796C57.7328-4.71611 57.4214-4.07919 57.1171-3.81027C56.8199-3.54488 56.4731-3.2795 56.2183-3.52011C55.9707-3.76073 56.3953-4.07919 56.7562-4.50381C57.1171-4.92842 57.1667-5.73165 57.103-6.3155C56.5828-4.60996 55.6911-3.95888 55.2559-3.72181C54.8207-3.48119 54.258-3.40688 53.9007-3.57319C53.5397-3.7395 53.7803-3.97658 54.028-4.08981C54.2793-4.19596 54.573-4.25258 54.6048-4.71258C53.844-5.04165 54.1979-5.45919 54.711-5.32827C55.217-5.19381 55.1533-5.24688 55.4222-5.24688C55.6947-5.24688 56.0945-5.78119 56.3457-6.31904C56.6005-6.85688 56.7597-8.36073 56.5227-10.4838C56.282-12.6069 55.7619-17.2777 55.1179-21.6055C54.2474-22.9395 54.4845-23.6295 54.2616-24.3372C54.0387-25.0485 53.331-25.8942 51.5016-27.6492C49.3891-26.9699 47.4819-26.8566 47.4819-26.8566C49.513-21.5383 49.835-21.3119 49.5448-19.5957C49.2582-17.8792 48.6673-15.1369 48.4302-13.304C48.0622-10.4268 47.72-7.54653 47.404-4.66304C47.3085-3.55196 46.661-3.29011 46.5937-3.19811C45.4756-2.32058 43.5475-2.37011 43.3493-2.39488C43.1547-2.41611 42.8185-2.74873 42.8185-2.74873C42.6034-2.84781 42.4123-2.99253 42.2595-3.17334C42.0224-3.24411 41.8384-3.55196 41.8384-3.55196C41.5589-3.52719 41.3218-3.76427 41.5907-3.85981C41.8525-3.95181 42.4116-3.78904 43.6147-3.95181C44.8174-4.11811 45.1677-4.09334 45.518-4.35519C45.8648-4.6135 46.0488-4.6135 46.201-5.77058C46.3567-6.92765 46.9971-10.735 47.1103-11.7258C47.2236-12.7166 47.7013-16.2975 47.7331-17.5289C47.7685-18.7571 47.5845-19.0932 47.7508-19.8469C47.8892-20.5943 47.9659-21.3515 47.9808-22.1115C47.9808-22.4442 46.2611-26.9132 46.2611-26.9132C42.4612-27.4723 39.4499-29.0929 36.7252-32.136C34.0007-35.1791 31.8281-38.7423 30.7984-40.9609C29.7723-43.1795 29.1142-46.205 29.1142-46.205C26.5099-48.2149 25.8871-48.7705 25.3139-48.8943C24.7442-49.0181 21.6658-48.4485 20.9617-48.2998C20.2576-48.1512 20.2576-48.4485 20.9334-49.2658C21.6057-50.0797 22.9573-51.1731 24.026-51.2722C25.0238-55.3308 25.0698-56.3181 26.1596-57.3832C27.2494-58.4483 28.2083-59.2267 30.6534-58.9401C33.1019-58.657 34.8357-56.0491 35.2887-55.1185C35.738-54.1844 35.9857-53.965 37.2772-54.4285C38.5724-54.8956 42.2913-56.9161 45.9143-56.5021C49.5377-56.0845 51.6113-55.1044 54.7428-52.309C57.9274-49.4852 63.2139-45.5327 67.0917-44.3649C70.9663-43.1972 74.1191-42.4046 75.8989-42.1711C77.4771-41.9163 77.7885-41.6226 76.6774-40.6495C77.8415-40.2851 77.8911-39.9666 77.0631-39.9666C76.2351-39.9666 75.2089-39.9666 75.1594-39.8817C75.1098-39.7968 74.5932-39.1209 74.5932-39.1209C79.6957-38.0205 80.184-37.9532 80.4317-37.8082C80.6865-37.6595 80.6617-37.5109 80.046-37.3411C79.4338-37.1712 69.2431-36.4494 69.1192-36.4494C65.7577-36.4282 65.5843-36.3432 64.6431-35.2215C63.7057-34.1069 60.8927-31.8388 57.9062-31.6902L57.9062-31.6902Z"/>
   <path class="monochrome-1 multicolor-1:tintColor hierarchical-1:tertiary SFSymbolsPreviewWireframe" d="M48.9411-84C55.3091-84.0013 61.615-82.7479 67.4985-80.3116C73.382-77.8752 78.7279-74.3036 83.2305-69.8009C87.7334-65.2983 91.305-59.9524 93.7418-54.0682C96.1779-48.1846 97.4312-41.8789 97.43-35.5124C97.43-8.72255 75.7254 13 48.9424 13C22.156 13 0.43-8.726 0.43-35.5124C0.43-62.2926 22.1539-84 48.9411-84ZM48.9424-70C29.8835-70 14.43-54.5582 14.43-35.5124C14.43-16.458 29.888-0.999999 48.9424-0.999999C67.9909-0.999999 83.43-16.4519 83.43-35.5138C83.4309-40.0428 82.5395-44.5276 80.8069-48.7121C79.0739-52.8969 76.5337-56.6989 73.3311-59.9013C70.1287-63.1038 66.3266-65.644 62.1422-67.3767C57.9578-69.1095 53.4729-70.0009 48.9424-70Z"/>
  </g>
  <g id="Regular-S" transform="matrix(1 0 0 1 1403.58 696)">
   <path class="monochrome-0 multicolor-0:tintColor hierarchical-0:primary SFSymbolsPreviewWireframe" d="M53.8962-32.6901C53.2522-32.4 53.0612-31.9718 52.4136-31.4658C51.7696-30.9598 50.9027-30.3724 48.7088-29.042C48.7725-28.9358 50.6338-27.4674 51.2636-26.6146C51.897-25.7618 52.0138-25.7229 52.5835-20.6169C53.1284-14.5835 53.8042-11.4201 53.9635-10.4612C54.1192-9.50223 53.8184-8.46192 53.8184-8.46192C53.8184-8.46192 53.8821-7.15623 53.8007-6.43792C53.7228-5.71607 53.4115-5.07915 53.1072-4.81023C52.8099-4.54484 52.4632-4.27946 52.2084-4.52007C51.9607-4.76069 52.3853-5.07915 52.7462-5.50377C53.1072-5.92838 53.1567-6.73161 53.093-7.31546C52.5728-5.60992 51.6812-4.95884 51.2459-4.72177C50.8107-4.48115 50.2481-4.40684 49.8907-4.57315C49.5298-4.73946 49.7704-4.97654 50.0181-5.08977C50.2693-5.19592 50.563-5.25254 50.5948-5.71254C49.8341-6.04161 50.1879-6.45915 50.701-6.32823C51.207-6.19377 51.1433-6.24684 51.4122-6.24684C51.6847-6.24684 52.0845-6.78115 52.3358-7.319C52.5905-7.85684 52.7498-9.36069 52.5127-11.4838C52.2721-13.6068 51.7519-18.2776 51.1079-22.6055C50.2375-23.9395 50.4745-24.6295 50.2516-25.3372C50.0287-26.0484 49.321-26.8941 47.4916-28.6492C45.3792-27.9698 43.4719-27.8566 43.4719-27.8566C45.503-22.5383 45.825-22.3118 45.5348-20.5957C45.2482-18.8792 44.6573-16.1368 44.4202-14.3039C44.0522-11.4268 43.7101-8.54649 43.3941-5.663C43.2985-4.55192 42.651-4.29007 42.5838-4.19807C41.4656-3.32054 39.5375-3.37007 39.3394-3.39484C39.1447-3.41607 38.8086-3.74869 38.8086-3.74869C38.5934-3.84777 38.4024-3.99249 38.2495-4.17331C38.0124-4.24407 37.8284-4.55192 37.8284-4.55192C37.5489-4.52715 37.3118-4.76423 37.5807-4.85977C37.8426-4.95177 38.4017-4.789 39.6047-4.95177C40.8075-5.11807 41.1578-5.0933 41.5081-5.35515C41.8548-5.61346 42.0388-5.61346 42.191-6.77054C42.3467-7.92761 42.9872-11.735 43.1004-12.7258C43.2136-13.7165 43.6913-17.2975 43.7232-18.5288C43.7585-19.757 43.5745-20.0932 43.7408-20.8469C43.8792-21.5942 43.956-22.3514 43.9708-23.1115C43.9708-23.4441 42.2512-27.9132 42.2512-27.9132C38.4512-28.4723 35.44-30.0929 32.7153-33.136C29.9907-36.179 27.8182-39.7423 26.7885-41.9609C25.7623-44.1795 25.1042-47.205 25.1042-47.205C22.5-49.2149 21.8772-49.7704 21.304-49.8943C20.7343-50.0181 17.6559-49.4484 16.9517-49.2998C16.2476-49.1512 16.2476-49.4484 16.9234-50.2658C17.5957-51.0797 18.9474-52.1731 20.016-52.2721C21.0138-56.3308 21.0598-57.318 22.1496-58.3831C23.2395-59.4482 24.1984-60.2267 26.6434-59.9401C29.092-59.657 30.8258-57.0491 31.2787-56.1185C31.7281-55.1843 31.9758-54.9649 33.2673-55.4285C34.5624-55.8956 38.2814-57.9161 41.9044-57.5021C45.5278-57.0845 47.6013-56.1043 50.7328-53.3089C53.9175-50.4852 59.2039-46.5327 63.0817-45.3649C66.9563-44.1972 70.1091-43.4046 71.889-43.171C73.4671-42.9163 73.7785-42.6226 72.6674-41.6495C73.8316-41.285 73.8811-40.9666 73.0531-40.9666C72.2251-40.9666 71.199-40.9666 71.1494-40.8817C71.0999-40.7967 70.5833-40.1209 70.5833-40.1209C75.6857-39.0204 76.174-38.9532 76.4217-38.8081C76.6765-38.6595 76.6517-38.5109 76.036-38.341C75.4239-38.1712 65.2331-37.4494 65.1093-37.4494C61.7477-37.4281 61.5743-37.3432 60.6331-36.2215C59.6958-35.1069 56.8827-32.8387 53.8962-32.6901L53.8962-32.6901Z"/>
   <path class="monochrome-1 multicolor-1:tintColor hierarchical-1:tertiary SFSymbolsPreviewWireframe" d="M46.4321-81.8365C52.4502-81.8377 58.4096-80.6532 63.9698-78.3508C69.53-76.0483 74.5822-72.6729 78.8374-68.4176C83.0928-64.1624 86.4682-59.1103 88.771-53.5496C91.0733-47.9892 92.2577-42.03 92.2566-36.0127C92.2566-10.693 71.744 9.83658 46.4328 9.83658C21.1173 9.83658 0.5835-10.6972 0.5835-36.0127C0.5835-61.3211 21.1145-81.8365 46.4321-81.8365ZM46.4328-75.0865C24.8413-75.0865 7.3335-57.592 7.3335-36.0127C7.3335-14.4252 24.8452 3.08658 46.4328 3.08658C68.0148 3.08658 85.5066-14.4197 85.5066-36.0133C85.5076-41.1447 84.4976-46.226 82.5345-50.9672C80.571-55.7085 77.693-60.0162 74.0644-63.6446C70.4361-67.273 66.1283-70.1511 61.3873-72.1143C56.6463-74.0776 51.5649-75.0875 46.4328-75.0865Z"/>
  </g>
  <g id="Ultralight-S" transform="matrix(1 0 0 1 515.649 696)">
   <path class="monochrome-0 multicolor-0:tintColor hierarchical-0:primary SFSymbolsPreviewWireframe" d="M51.8272-33.6901C51.1832-33.4 50.9922-32.9718 50.3446-32.4658C49.7006-31.9598 48.8337-31.3724 46.6398-30.042C46.7035-29.9358 48.5648-28.4674 49.1946-27.6146C49.828-26.7618 49.9448-26.7229 50.5145-21.6169C51.0594-15.5835 51.7352-12.4201 51.8945-11.4612C52.0502-10.5022 51.7494-9.46192 51.7494-9.46192C51.7494-9.46192 51.8131-8.15623 51.7317-7.43792C51.6538-6.71607 51.3425-6.07915 51.0382-5.81023C50.7409-5.54484 50.3942-5.27946 50.1394-5.52007C49.8917-5.76069 50.3163-6.07915 50.6772-6.50377C51.0382-6.92838 51.0877-7.73161 51.024-8.31546C50.5038-6.60992 49.6122-5.95884 49.1769-5.72177C48.7417-5.48115 48.1791-5.40684 47.8217-5.57315C47.4608-5.73946 47.7014-5.97654 47.9491-6.08977C48.2003-6.19592 48.494-6.25254 48.5258-6.71254C47.7651-7.04161 48.1189-7.45915 48.632-7.32823C49.138-7.19377 49.0743-7.24684 49.3432-7.24684C49.6157-7.24684 50.0155-7.78115 50.2668-8.319C50.5215-8.85684 50.6808-10.3607 50.4437-12.4838C50.2031-14.6068 49.6829-19.2776 49.0389-23.6055C48.1685-24.9395 48.4055-25.6295 48.1826-26.3372C47.9597-27.0484 47.252-27.8941 45.4226-29.6492C43.3102-28.9698 41.4029-28.8566 41.4029-28.8566C43.434-23.5383 43.756-23.3118 43.4658-21.5957C43.1792-19.8792 42.5883-17.1368 42.3512-15.3039C41.9832-12.4268 41.6411-9.54649 41.3251-6.663C41.2295-5.55192 40.582-5.29007 40.5148-5.19807C39.3966-4.32054 37.4685-4.37007 37.2704-4.39484C37.0757-4.41607 36.7396-4.74869 36.7396-4.74869C36.5244-4.84777 36.3334-4.99249 36.1805-5.17331C35.9434-5.24407 35.7594-5.55192 35.7594-5.55192C35.4799-5.52715 35.2428-5.76423 35.5117-5.85977C35.7736-5.95177 36.3327-5.789 37.5357-5.95177C38.7385-6.11807 39.0888-6.09331 39.4391-6.35515C39.7858-6.61346 39.9698-6.61346 40.122-7.77054C40.2777-8.92761 40.9182-12.735 41.0314-13.7258C41.1446-14.7165 41.6223-18.2975 41.6542-19.5288C41.6895-20.757 41.5055-21.0932 41.6718-21.8469C41.8102-22.5942 41.887-23.3514 41.9018-24.1115C41.9018-24.4441 40.1822-28.9132 40.1822-28.9132C36.3822-29.4723 33.371-31.0929 30.6463-34.136C27.9217-37.179 25.7492-40.7423 24.7195-42.9609C23.6933-45.1795 23.0352-48.205 23.0352-48.205C20.431-50.2149 19.8082-50.7704 19.235-50.8943C18.6653-51.0181 15.5869-50.4484 14.8827-50.2998C14.1786-50.1512 14.1786-50.4484 14.8544-51.2658C15.5267-52.0797 16.8784-53.1731 17.947-53.2721C18.9448-57.3308 18.9908-58.318 20.0806-59.3831C21.1705-60.4482 22.1294-61.2267 24.5744-60.9401C27.023-60.657 28.7568-58.0491 29.2097-57.1185C29.6591-56.1843 29.9068-55.9649 31.1983-56.4285C32.4934-56.8956 36.2124-58.9161 39.8354-58.5021C43.4588-58.0845 45.5323-57.1043 48.6638-54.3089C51.8485-51.4852 57.1349-47.5327 61.0127-46.3649C64.8873-45.1972 68.0401-44.4046 69.82-44.171C71.3981-43.9163 71.7095-43.6226 70.5984-42.6495C71.7626-42.285 71.8121-41.9666 70.9841-41.9666C70.1561-41.9666 69.13-41.9666 69.0804-41.8817C69.0309-41.7967 68.5143-41.1209 68.5143-41.1209C73.6167-40.0204 74.105-39.9532 74.3527-39.8081C74.6075-39.6595 74.5827-39.5109 73.967-39.341C73.3549-39.1712 63.1641-38.4494 63.0403-38.4494C59.6787-38.4281 59.5053-38.3432 58.5641-37.2215C57.6268-36.1069 54.8137-33.8387 51.8272-33.6901L51.8272-33.6901Z"/>
   <path class="monochrome-1 multicolor-1:tintColor hierarchical-1:tertiary SFSymbolsPreviewWireframe" d="M44.3636-80.5865C50.0861-80.5876 55.7528-79.4613 61.04-77.272C66.3271-75.0826 71.1312-71.8729 75.1774-67.8265C79.2239-63.7803 82.4335-58.9764 84.6232-53.6889C86.8124-48.4015 87.9387-42.7349 87.9376-37.0127C87.9376-12.9352 68.432 6.58658 44.3638 6.58658C20.2909 6.58658 0.7645-12.9399 0.7645-37.0127C0.7645-61.0781 20.2877-80.5865 44.3636-80.5865ZM44.3638-78.3365C21.53-78.3365 3.0145-59.8351 3.0145-37.0127C3.0145-14.1825 21.5336 4.33658 44.3638 4.33658C67.1889 4.33658 85.6876-14.1774 85.6876-37.0129C85.6886-42.4398 84.6205-47.8138 82.5443-52.828C80.4678-57.8425 77.4239-62.3983 73.5865-66.2355C69.7491-70.073 65.1932-73.1168 60.1791-75.1931C55.1651-77.2695 49.791-78.3376 44.3638-78.3365Z"/>
  </g>
 </g>
</svg>
