<?xml version="1.0" encoding="UTF-8"?>
<svg width="3300px" height="2200px" viewBox="0 0 3300 2200" version="1.1" xmlns="http://www.w3.org/2000/svg" xmlns:xlink="http://www.w3.org/1999/xlink">
    <!-- Generator: Sketch 59.1 (86144) - https://sketch.com -->
    <title>filter</title>
    <desc>Created with Sketch.</desc>
    <g id="Page-1" stroke="none" stroke-width="1" fill="none" fill-rule="evenodd">
        <g id="filter">
            <g id="Notes">
                <rect id="artboard" fill="#FFFFFF" fill-rule="nonzero" x="0" y="0" width="3300" height="2200"></rect>
                <line x1="263" y1="292" x2="3036" y2="292" id="Path" stroke="#000000" stroke-width="0.5"></line>
                <text id="Weight/Scale-Variations" fill="#000000" font-family="Helvetica-Bold, Helvetica" font-size="13" font-weight="bold">
                    <tspan x="263" y="322">Weight/Scale Variations</tspan>
                </text>
                <text id="Ultralight" fill="#000000" font-family="Helvetica" font-size="13" font-weight="normal">
                    <tspan x="533.711" y="322">Ultralight</tspan>
                </text>
                <text id="Thin" fill="#000000" font-family="Helvetica" font-size="13" font-weight="normal">
                    <tspan x="843.422" y="322">Thin</tspan>
                </text>
                <text id="Light" fill="#000000" font-family="Helvetica" font-size="13" font-weight="normal">
                    <tspan x="1138.63" y="322">Light</tspan>
                </text>
                <text id="Regular" fill="#000000" font-family="Helvetica" font-size="13" font-weight="normal">
                    <tspan x="1426.84" y="322">Regular</tspan>
                </text>
                <text id="Medium" fill="#000000" font-family="Helvetica" font-size="13" font-weight="normal">
                    <tspan x="1723.06" y="322">Medium</tspan>
                </text>
                <text id="Semibold" fill="#000000" font-family="Helvetica" font-size="13" font-weight="normal">
                    <tspan x="2015.77" y="322">Semibold</tspan>
                </text>
                <text id="Bold" fill="#000000" font-family="Helvetica" font-size="13" font-weight="normal">
                    <tspan x="2326.48" y="322">Bold</tspan>
                </text>
                <text id="Heavy" fill="#000000" font-family="Helvetica" font-size="13" font-weight="normal">
                    <tspan x="2618.19" y="322">Heavy</tspan>
                </text>
                <text id="Black" fill="#000000" font-family="Helvetica" font-size="13" font-weight="normal">
                    <tspan x="2917.4" y="322">Black</tspan>
                </text>
                <line x1="263" y1="1903" x2="3036" y2="1903" id="Path" stroke="#000000" stroke-width="0.5"></line>
                <g id="Group" transform="translate(264.000000, 1918.000000)" fill="#000000" fill-rule="nonzero">
                    <path d="M8.24805,15.830078 C12.5547,15.830078 16.1387,12.25586 16.1387,7.94922 C16.1387,3.6426 12.5449,0.0684 8.23828,0.0684 C3.94141,0.0684 0.36719,3.6426 0.36719,7.94922 C0.36719,12.25586 3.95117,15.830078 8.24805,15.830078 Z M8.24805,14.345703 C4.70312,14.345703 1.87109,11.50391 1.87109,7.94922 C1.87109,4.3945 4.69336,1.5527 8.23828,1.5527 C11.793,1.5527 14.6348,4.3945 14.6445503,7.94922 C14.6543,11.50391 11.8027,14.345703 8.24805,14.345703 Z M8.22852,11.57227 C8.69727,11.57227 8.9707,11.25977 8.9707,10.74219 L8.9707,8.68164 L11.1973,8.68164 C11.6953,8.68164 12.0371,8.42773 12.0371,7.95898 C12.0371,7.48047 11.7148,7.2168 11.1973,7.2168 L8.9707,7.2168 L8.9707,4.9902 C8.9707,4.4727 8.69727,4.1504 8.22852,4.1504 C7.75977,4.1504 7.50586,4.4922 7.50586,4.9902 L7.50586,7.2168 L5.29883,7.2168 C4.78125,7.2168 4.44922,7.48047 4.44922,7.95898 C4.44922,8.42773 4.80078,8.68164 5.29883,8.68164 L7.50586,8.68164 L7.50586,10.74219 C7.50586,11.24023 7.75977,11.57227 8.22852,11.57227 Z" id="Shape"></path>
                </g>
                <g id="Group" transform="translate(282.506000, 1915.000000)" fill="#000000" fill-rule="nonzero">
                    <path d="M10.709,20.91016 C16.1582,20.91016 20.6699,16.39844 20.6699,10.94922 C20.6699,5.5098 16.1484,0.9883 10.6992,0.9883 C5.25977,0.9883 0.74805,5.5098 0.74805,10.94922 C0.74805,16.39844 5.26953,20.91016 10.709,20.91016 Z M10.709,19.25 C6.09961,19.25 2.41797,15.55859 2.41797,10.94922 C2.41797,6.3496 6.08984,2.6484 10.6992,2.6484 C15.3086,2.6484 19,6.3496 19.0098379,10.94922 C19.0195,15.55859 15.3184,19.25 10.709,19.25 Z M10.6895,15.58789 C11.207,15.58789 11.5195,15.22656 11.5195,14.66016 L11.5195,11.76953 L14.5762,11.76953 C15.123,11.76953 15.5039,11.48633 15.5039,10.96875 C15.5039,10.44141 15.1426,10.13867 14.5762,10.13867 L11.5195,10.13867 L11.5195,7.0723 C11.5195,6.4961 11.207,6.1445 10.6895,6.1445 C10.1719,6.1445 9.8789,6.5156 9.8789,7.0723 L9.8789,10.13867 L6.83203,10.13867 C6.26562,10.13867 5.89453,10.44141 5.89453,10.96875 C5.89453,11.48633 6.28516,11.76953 6.83203,11.76953 L9.8789,11.76953 L9.8789,14.66016 C9.8789,15.20703 10.1719,15.58789 10.6895,15.58789 Z" id="Shape"></path>
                </g>
                <g id="Group" transform="translate(306.924000, 1913.000000)" fill="#000000" fill-rule="nonzero">
                    <path d="M12.9707,25.67383 C19.9336,25.67383 25.6953,19.921875 25.6953,12.95898 C25.6953,5.9961 19.9238,0.2441 12.9609,0.2441 C6.00781,0.2441 0.25586,5.9961 0.25586,12.95898 C0.25586,19.921875 6.01758,25.67383 12.9707,25.67383 Z M12.9707,23.85742 C6.93555,23.85742 2.08203,18.99414 2.08203,12.95898 C2.08203,6.9238 6.92578,2.0605 12.9609,2.0605 C19.0059,2.0605 23.8594,6.9238 23.8691295,12.95898 C23.8789,18.99414 19.0156,23.85742 12.9707,23.85742 Z M12.9512,18.93555 C13.5176,18.93555 13.8691,18.54492 13.8691,17.93945 L13.8691,13.86719 L18.1074,13.86719 C18.6934,13.86719 19.1133,13.53516 19.1133,12.97852 C19.1133,12.40234 18.7227,12.06055 18.1074,12.06055 L13.8691,12.06055 L13.8691,7.8125 C13.8691,7.1973 13.5176,6.8066 12.9512,6.8066 C12.3848,6.8066 12.0625,7.2168 12.0625,7.8125 L12.0625,12.06055 L7.83398,12.06055 C7.21875,12.06055 6.80859,12.40234 6.80859,12.97852 C6.80859,13.53516 7.23828,13.86719 7.83398,13.86719 L12.0625,13.86719 L12.0625,17.93945 C12.0625,18.52539 12.3848,18.93555 12.9512,18.93555 Z" id="Shape"></path>
                </g>
                <text id="Design-Variations" fill="#000000" font-family="Helvetica-Bold, Helvetica" font-size="13" font-weight="bold">
                    <tspan x="263" y="1953">Design Variations</tspan>
                </text>
                <text id="Symbols-are-supported-in-up-to-nine-weights-and-three-scales." fill="#000000" font-family="Helvetica" font-size="13" font-weight="normal">
                    <tspan x="263" y="1971">Symbols are supported in up to nine weights and three scales.</tspan>
                </text>
                <text id="For-optimal-layout-with-text-and-other-symbols,-vertically-align" fill="#000000" font-family="Helvetica" font-size="13" font-weight="normal">
                    <tspan x="263" y="1989">For optimal layout with text and other symbols, vertically align</tspan>
                </text>
                <text id="symbols-with-the-adjacent-text." fill="#000000" font-family="Helvetica" font-size="13" font-weight="normal">
                    <tspan x="263" y="2007">symbols with the adjacent text.</tspan>
                </text>
                <rect id="Rectangle" fill="#00AEEF" fill-rule="nonzero" opacity="0.4" x="776" y="1919" width="3" height="14"></rect>
                <g id="Group" transform="translate(779.000000, 1918.000000)" fill="#000000" fill-rule="nonzero">
                    <path d="M10.5273,15 L12.373,15 L7.17773,0.9082 L5.43945,0.9082 L0.244141,15 L2.08984,15 L3.50586,10.9668 L9.11133,10.9668 L10.5273,15 Z M6.2793,3.0469 L6.33789,3.0469 L8.59375,9.47266 L4.02344,9.47266 L6.2793,3.0469 Z" id="Shape"></path>
                </g>
                <rect id="Rectangle" fill="#00AEEF" fill-rule="nonzero" opacity="0.4" x="791.617" y="1919" width="3" height="14"></rect>
                <text id="Margins" fill="#000000" font-family="Helvetica-Bold, Helvetica" font-size="13" font-weight="bold">
                    <tspan x="776" y="1953">Margins</tspan>
                </text>
                <text id="Leading-and-trailing-margins-on-the-left-and-right-side-of-each-symbol" fill="#000000" font-family="Helvetica" font-size="13" font-weight="normal">
                    <tspan x="776" y="1971">Leading and trailing margins on the left and right side of each symbol</tspan>
                </text>
                <text id="can-be-adjusted-by-modifying-the-width-of-the-blue-rectangles." fill="#000000" font-family="Helvetica" font-size="13" font-weight="normal">
                    <tspan x="776" y="1989">can be adjusted by modifying the width of the blue rectangles.</tspan>
                </text>
                <text id="Modifications-are-automatically-applied-proportionally-to-all" fill="#000000" font-family="Helvetica" font-size="13" font-weight="normal">
                    <tspan x="776" y="2007">Modifications are automatically applied proportionally to all</tspan>
                </text>
                <text id="scales-and-weights." fill="#000000" font-family="Helvetica" font-size="13" font-weight="normal">
                    <tspan x="776" y="2025">scales and weights.</tspan>
                </text>
                <g id="Group" transform="translate(1291.000000, 1915.000000)" fill="#000000" fill-rule="nonzero">
                    <path d="M0.83203,21.11523 L2.375,22.6582 C3.22461,23.48828 4.19141,23.41992 5.06055,22.46289 L15.2754,11.33984 C15.7051,11.63281 16.0957,11.62305 16.5645,11.52539 L17.6094,11.31055 L18.3027,12.00391 L18.2539,12.52148 C18.1855,13.04883 18.3516,13.46875 18.8496,13.9668 L19.6602,14.77734 C20.168,15.28516 20.8223,15.31445 21.3008,14.83594 L24.5527,11.58398 C25.0312,11.10547 25.0117,10.45117 24.5039,9.94336 L23.6836,9.12305 C23.1855,8.625 22.7754,8.44922 22.2383,8.52734 L21.7109,8.58594 L21.0566,7.9219 L21.3398,6.7793 C21.4863,6.2129 21.3398,5.7441 20.7148,5.1387 L18.3027,2.7461 C14.7578,-0.7793 10.2266,-0.6719 7.11133,2.4629 C6.69141,2.8926 6.64258,3.4785 6.91602,3.9082 C7.15039,4.2793 7.62891,4.5039 8.2734,4.3379 C9.7871,3.957 11.3008,4.0742 12.7852,5.0801 L12.1602,6.6621 C11.9258,7.248 11.9453,7.7266 12.1797,8.16602 L1.01758,18.439453 C0.08008,19.30859 -0.02734,20.25586 0.83203,21.11523 Z M8.6738,2.8535 C11.3398,0.8613 14.6504,1.1738 17.0527,3.5859 L19.6797,6.1934 C19.9141,6.4277 19.9434,6.6133 19.8848,6.9062 L19.5039,8.46875 L21.0762,10.04102 L22.043,9.95312 C22.3262,9.92383 22.4141,9.94336 22.6387,10.16797 L23.2637,10.79297 L20.5098,13.53711 L19.8848,12.92188 C19.6602,12.69727 19.6406,12.59961 19.6699,12.31641 L19.7578,11.35938 L18.1953,9.79688 L16.5742,10.10938 C16.291,10.16797 16.1445,10.16797 15.9102,9.92383 L13.7324,7.7461 C13.5078,7.5117 13.4785,7.375 13.6055,7.0527 L14.5527,4.7773 C12.9512,3.2441 10.8418,2.3945 8.8008,3.0488 C8.7129,3.0781 8.6445,3.0586 8.6152,3.0195 C8.5859,2.9707 8.5859,2.9219 8.6738,2.8535 Z M2.10156,20.41211 C1.61328,19.91406 1.78906,19.61133 2.12109,19.30859 L13.0781,9.19141 L14.3086,10.42188 L4.15234,21.34961 C3.84961,21.68164 3.46875,21.7793 3.06836,21.37891 L2.10156,20.41211 Z" id="Shape"></path>
                </g>
                <text id="Exporting" fill="#000000" font-family="Helvetica-Bold, Helvetica" font-size="13" font-weight="bold">
                    <tspan x="1289" y="1953">Exporting</tspan>
                </text>
                <text id="Symbols-should-be-outlined-when-exporting-to-ensure-the" fill="#000000" font-family="Helvetica" font-size="13" font-weight="normal">
                    <tspan x="1289" y="1971">Symbols should be outlined when exporting to ensure the</tspan>
                </text>
                <text id="design-is-preserved-when-submitting-to-Xcode." fill="#000000" font-family="Helvetica" font-size="13" font-weight="normal">
                    <tspan x="1289" y="1989">design is preserved when submitting to Xcode.</tspan>
                </text>
                <text id="Template-v.1.0" fill="#000000" font-family="Helvetica" font-size="13" font-weight="normal">
                    <tspan x="2952" y="1933">Template v.1.0</tspan>
                </text>
                <text id="Generated-from-circle" fill="#000000" font-family="Helvetica" font-size="13" font-weight="normal">
                    <tspan x="2911" y="1951">Generated from circle</tspan>
                </text>
                <text id="Typeset-at-100-points" fill="#000000" font-family="Helvetica" font-size="13" font-weight="normal">
                    <tspan x="2912" y="1969">Typeset at 100 points</tspan>
                </text>
                <text id="Small" fill="#000000" font-family="Helvetica" font-size="13" font-weight="normal">
                    <tspan x="263" y="726">Small</tspan>
                </text>
                <text id="Medium" fill="#000000" font-family="Helvetica" font-size="13" font-weight="normal">
                    <tspan x="263" y="1156">Medium</tspan>
                </text>
                <text id="Large" fill="#000000" font-family="Helvetica" font-size="13" font-weight="normal">
                    <tspan x="263" y="1586">Large</tspan>
                </text>
            </g>
            <g id="Guides" transform="translate(263.000000, 625.000000)">
                <g id="H-reference" transform="translate(76.000000, 0.000000)" fill="#27AAE1" fill-rule="nonzero">
                    <path d="M54.9316,71 L57.666,71 L30.5664,0.541 L28.0762,0.541 L0.976562,71 L3.66211,71 L12.9395,46.5371 L45.7031,46.5371 L54.9316,71 Z M29.1992,3.9102 L29.4434,3.9102 L44.8242,44.291 L13.8184,44.291 L29.1992,3.9102 Z" id="Shape"></path>
                </g>
                <line x1="0" y1="71" x2="2773" y2="71" id="Baseline-S" stroke="#27AAE1" stroke-width="0.577"></line>
                <line x1="0" y1="0.541" x2="2773" y2="0.541" id="Capline-S" stroke="#27AAE1" stroke-width="0.577"></line>
                <g id="H-reference" transform="translate(76.000000, 430.000000)" fill="#27AAE1" fill-rule="nonzero">
                    <path d="M54.9316,71 L57.666,71 L30.5664,0.541 L28.0762,0.541 L0.976562,71 L3.66211,71 L12.9395,46.5371 L45.7031,46.5371 L54.9316,71 Z M29.1992,3.9102 L29.4434,3.9102 L44.8242,44.291 L13.8184,44.291 L29.1992,3.9102 Z" id="Shape"></path>
                </g>
                <line x1="0" y1="501" x2="2773" y2="501" id="Baseline-M" stroke="#27AAE1" stroke-width="0.577"></line>
                <line x1="0" y1="430.54" x2="2773" y2="430.54" id="Capline-M" stroke="#27AAE1" stroke-width="0.577"></line>
                <g id="H-reference" transform="translate(76.000000, 860.000000)" fill="#27AAE1" fill-rule="nonzero">
                    <path d="M54.9316,71 L57.666,71 L30.5664,0.541 L28.0762,0.541 L0.976562,71 L3.66211,71 L12.9395,46.5371 L45.7031,46.5371 L54.9316,71 Z M29.1992,3.9102 L29.4434,3.9102 L44.8242,44.291 L13.8184,44.291 L29.1992,3.9102 Z" id="Shape"></path>
                </g>
                <line x1="0" y1="931" x2="2773" y2="931" id="Baseline-L" stroke="#27AAE1" stroke-width="0.577"></line>
                <line x1="0" y1="860.54" x2="2773" y2="860.54" id="Capline-L" stroke="#27AAE1" stroke-width="0.577"></line>
                <rect id="left-margin" fill="#00AEEF" fill-rule="nonzero" opacity="0.4" x="1128.3" y="405.79" width="8.74023" height="119.336"></rect>
                <rect id="right-margin" fill="#00AEEF" fill-rule="nonzero" opacity="0.4" x="1236.65" y="405.79" width="8.74023" height="119.336"></rect>
            </g>
            <g id="Symbols" transform="translate(1399.000000, 1040.000000)" fill="#000000" fill-rule="nonzero">
                <g id="Regular-M" transform="translate(0.300000, 0.000000)">
                    <!-- <path d="M50.5449,100.5508 C77.791,100.5508 100.35,77.99219 100.35,50.7461 C100.35,23.5488 77.7422,0.9414 50.4961,0.9414 C23.2988,0.9414 0.74023,23.5488 0.74023,50.7461 C0.74023,77.99219 23.3477,100.5508 50.5449,100.5508 Z M50.1551,92.0078 C27.1082,92.0078 8.7,73.5508 8.7,50.5039 C8.7,27.5058 27.0594,9 50.1063,9 C73.1532,9 91.6102,27.5058 91.6593938,50.5039 C91.7082,73.5508 73.202,92.0078 50.1551,92.0078 Z" id="Shape"></path> -->
                    <path d="M71.1215928,23.00949 C72.3815928,22.9436894 73.524926,23.2303917 74.6495926,23.5499943 C75.0322593,23.6580952 75.3962593,23.8460967 75.7462592,24.0199981 C76.2269259,24.2644001 76.6982592,24.5135021 77.1509258,24.7908043 C77.5615925,25.0399063 77.9442591,25.3266087 78.3315924,25.6039109 C78.7375924,25.8859132 79.1435924,26.1726155 79.5355924,26.4734179 C79.7595923,26.6426193 79.9695923,26.8306208 80.1609257,27.0280224 C80.3123147,27.187874 80.5251727,27.273626 80.744259,27.2630243 C81.2529256,27.2583242 81.7522589,27.2348241 82.2609255,27.1643235 C82.9235922,27.0703227 83.6142588,27.0515226 84.2815921,27.098523 C84.7015921,27.1314232 85.121592,27.3241248 85.5182587,27.4839261 C85.7749253,27.5873269 85.751592,27.7800285 85.499592,27.8928294 C84.7062587,28.2406322 83.9269254,28.5978351 83.1242588,28.9268377 C82.6482588,29.1195393 82.1442589,29.2652404 81.6495922,29.4156417 C80.9962589,29.6177433 80.7349256,30.0407467 80.5855923,30.5812511 C80.3709256,31.3379572 80.3895923,32.1040633 80.3755923,32.8654695 C80.366259,33.4858745 80.422259,34.1109795 80.4689256,34.7360846 C80.5249256,35.5820914 80.6089256,36.4280982 80.6649256,37.2741051 C80.6929256,37.7206087 80.6789256,38.1765123 80.6929256,38.627716 C80.6975923,38.9097183 80.7395923,39.2011206 80.7395923,39.4878229 C80.7349256,40.0706276 80.7115923,40.6534323 80.702259,41.236237 C80.6929256,41.8754422 80.6695923,42.5146474 80.6789256,43.1585525 C80.6835923,43.7789576 80.5389256,44.3805624 80.3429256,44.9774672 C80.2215923,45.3393701 80.1189257,45.7106731 80.016259,46.0772761 C79.92205,46.4374931 79.7622283,46.7769529 79.5449257,47.0783842 C79.2869967,47.4425385 79.0516592,47.8223989 78.8402591,48.2157934 C78.4995924,48.8267983 78.0469258,49.3673026 77.5522591,49.8890069 C76.9875925,50.4906117 76.4695925,51.1204168 75.8722592,51.6985215 C75.4522593,52.1121248 74.9435926,52.4693277 74.462926,52.8453307 C74.1455927,53.0850326 73.8002593,53.3059344 73.4735927,53.5456364 C73.314926,53.6631373 73.3195927,53.7712382 73.5062594,53.8605389 C73.8282593,54.0109401 74.1595927,54.1566413 74.4862593,54.2976424 C74.5694354,54.3249508 74.6588191,54.3265876 74.742926,54.3023425 C75.2795926,54.1519413 75.8209259,54.1566413 76.3762592,54.1942416 C76.5862592,54.2083417 76.8055925,54.1942416 77.0202592,54.1848415 C77.1835925,54.1801415 77.3189258,54.2130417 77.3609258,54.3587429 C77.4915925,54.7911464 77.6689258,55.2047497 77.6315925,55.6653535 C77.6035925,55.9426557 77.4915925,56.1259572 77.2115925,56.2951585 C76.8869001,56.5068467 76.5904853,56.7595742 76.3295925,57.0471646 C76.0962592,57.2868665 75.8162592,57.2915666 75.5082592,57.2586663 C75.4522593,57.2539663 75.3542593,57.1834657 75.3542593,57.1458654 C75.3635926,56.9484638 75.1955926,56.9108635 75.0322593,56.8826633 C74.8710831,56.845881 74.7072143,56.8223038 74.5422593,56.8121627 C74.2482593,56.8027626 74.1595927,56.7557623 74.1595927,56.5160603 C74.1595927,56.0930569 74.1595927,55.6747535 74.1875927,55.2564502 C74.2062593,55.0449485 74.140926,54.9274475 73.8982593,54.8334468 C73.454926,54.6689454 73.0209261,54.4762439 72.5822594,54.2929424 C72.2462594,54.1519413 72.1669261,54.1801415 71.9289261,54.4151434 C71.7836388,54.5646914 71.6168936,54.6914368 71.4342595,54.7911464 C70.9115928,55.0590486 70.3655929,55.3081506 69.8429262,55.5760527 C69.5769263,55.7123538 69.3435929,55.8909553 69.0775929,56.0319564 C68.3962597,56.4032594 67.705593,56.7604623 67.0242597,57.1223652 C66.227851,57.5367972 65.3932408,57.8720842 64.5322599,58.1234733 C64.0426792,58.2702566 63.5437491,58.3833186 63.0389266,58.461876 C61.98426,58.6216773 60.9295934,58.7579784 59.8749268,58.8989796 C59.5482602,58.9459799 59.2169268,58.9929803 58.8855935,58.9929803 C57.8246692,58.9972172 56.7637291,58.9909502 55.702927,58.9741802 C55.2829271,58.9647801 55.2362604,59.0070804 55.2269271,59.3548832 C55.2550558,59.9415746 55.4283034,60.5118872 55.730927,61.0139966 C55.8313696,61.1806101 55.9648084,61.3246026 56.122927,61.437 C56.2947986,61.5663761 56.4048509,61.7624764 56.4262603,61.9775044 C56.472927,62.3065071 56.5662603,62.6355097 56.6455937,62.9645124 C56.654927,63.0162128 56.6875937,63.0632132 56.6922603,63.1102135 C56.7155936,64.040821 57.2849269,64.8398275 57.5789269,65.7046345 C57.7189269,66.1135378 57.9149269,66.508341 58.1062602,66.9031441 C58.1990276,67.0795463 58.3152053,67.2424093 58.4515936,67.387248 C58.5122602,67.4577486 58.6382602,67.5141491 58.7409269,67.5329492 C59.2029268,67.6128499 59.6649268,67.6739504 60.1269268,67.7397509 L60.3322601,67.753851 C60.6169268,67.753851 60.6729268,67.7820512 60.6682601,68.0123531 C60.6495934,68.5528575 60.6215934,69.0933618 60.5935934,69.6385662 C60.5842601,69.8265677 60.4629268,69.9487687 60.2342601,69.9675689 C59.9029268,69.986369 59.5669268,70.0145692 59.2355935,69.9910691 C58.7222602,69.9534688 58.2089269,69.8782681 57.6955936,69.8124676 C57.6022603,69.7983675 57.5089269,69.741967 57.4155936,69.7043667 C57.4762603,69.6338662 57.5135936,69.5539655 57.5882603,69.5022651 C57.7049269,69.4223645 57.6862603,69.3424638 57.6069269,69.2672632 C57.4062603,69.0933618 57.4389269,68.9053603 57.5042603,68.6938586 C57.5882603,68.4165564 57.6815936,68.1392541 57.7189269,67.8525518 C57.7261936,67.6883962 57.6873764,67.5255012 57.6069269,67.382548 C56.9145874,66.0404429 56.2991353,64.659504 55.7635937,63.2465146 C55.6964387,63.0789914 55.5982482,62.9258672 55.4742604,62.795311 C55.2782604,62.5791093 55.1382604,62.3629075 55.1755937,62.0762052 C55.2156961,61.6978834 55.1196519,61.3176303 54.9049271,61.0045965 C54.7509271,60.7601946 54.6809271,60.4828923 54.5595938,60.2196902 C54.361357,59.7808214 54.1528544,59.3467302 53.9342605,58.9177797 C53.8922605,58.8378791 53.7662605,58.7532784 53.6542605,58.7297782 C52.9215939,58.5558768 52.1842606,58.3819754 51.4375939,58.2456743 C50.653594,58.1046731 49.8789274,57.9307717 49.0669274,57.8884714 C48.5442608,57.8602712 48.0355941,57.7004699 47.5175942,57.6064691 C47.1489275,57.5453686 46.7849275,57.470168 46.4162609,57.4513679 C45.7302609,57.4231676 45.0489276,57.4278677 44.3629277,57.4184676 C44.2555944,57.4184676 44.1435944,57.4372678 44.036261,57.4184676 C43.2289277,57.2915666 42.4215945,57.4419678 41.6095945,57.4278677 C41.4229279,57.4278677 41.2269279,57.4842681 41.0355945,57.5030683 C40.8442612,57.5218684 40.6482612,57.5171684 40.4569279,57.5406686 C40.1168487,57.5708066 39.7776193,57.6099873 39.4395946,57.6581695 C39.1735946,57.7004699 38.9122613,57.7897706 38.6462613,57.8179708 C37.7642614,57.9119716 36.9522614,58.1563736 36.1729281,58.4994763 C35.4075949,58.833179 34.6375949,59.1621817 33.8862616,59.5240846 C33.167595,59.8671874 32.4629284,60.2384904 31.7629284,60.6144934 C30.5766431,61.2252666 29.4238641,61.8999148 28.3095953,62.6355097 C28.0295953,62.8282113 27.7495953,63.0209128 27.4835953,63.2277145 C26.9614977,63.6288379 26.4001502,63.9752992 25.8082621,64.2617228 C25.4955954,64.4168241 25.2155954,64.6142257 24.9215955,64.7928271 C24.2682622,65.1876303 23.5915955,65.5448332 23.0082622,66.014837 C22.6022623,66.3391396 22.1122623,66.5788415 21.6735956,66.8655438 C21.458929,67.006545 21.2955957,67.2039466 21.0762623,67.3355476 C20.3435957,67.7726512 19.6855958,68.2990554 18.8595958,68.6327581 C18.4395958,68.8019595 18.0429292,69.0134612 17.6182625,69.1873626 C17.2682626,69.3330637 17.2449292,69.3048635 17.0115959,69.0463614 C16.9182626,68.9476606 16.7642626,68.8912602 16.6289293,68.8254597 C16.2415959,68.6374581 16.2275959,68.5998578 16.4095959,68.2661551 C16.4453373,68.1987424 16.4780373,68.1297382 16.5075959,68.0593535 C16.6289293,67.7867513 16.6289293,67.7867513 16.3442626,67.62695 L15.8169293,67.3214475 C15.667596,67.2415469 15.6629293,67.1616462 15.793596,67.0676455 C16.0829293,66.8608438 16.3582626,66.635242 16.6662626,66.4425404 C17.4455959,65.9490364 18.2435958,65.4696326 19.0229291,64.9761286 C19.7275958,64.524925 20.422929,64.0643212 21.1182623,63.6131176 C21.2815957,63.5050167 21.444929,63.4016159 21.612929,63.3029151 C22.2429289,62.9363121 22.8729289,62.5791093 23.4982622,62.2031062 C24.2682622,61.7378025 25.0195954,61.2489985 25.7989287,60.7930948 C26.3775954,60.4546921 26.9889287,60.1538897 27.5815953,59.8342871 C27.838262,59.693286 28.0949286,59.5522848 28.3375953,59.4018836 C29.1775952,58.8754794 30.0129285,58.3443751 30.8435951,57.8085708 C31.0302618,57.6910698 31.1935951,57.5406686 31.3802618,57.4231676 C31.7629284,57.1928658 32.1689284,56.9907642 32.5329284,56.7463622 C33.1722617,56.3139587 33.7929283,55.853355 34.4275949,55.4162515 C34.5955949,55.2987505 34.8009282,55.2141498 34.9969282,55.1201491 L37.0502614,54.1002408 C37.3315733,53.9544782 37.6071172,53.7976904 37.8762614,53.630237 C37.9555947,53.5832367 38.0535947,53.4892359 38.0535947,53.4234354 C38.0535947,53.1978336 38.188928,53.0568324 38.370928,52.9158313 C38.4175947,52.878231 38.4175947,52.7889303 38.440928,52.7231297 C38.3615947,52.7231297 38.272928,52.7043296 38.202928,52.7231297 C37.2509281,53.0286322 36.2989281,53.3341347 35.4215949,53.7806383 C35.1509282,53.9216394 34.8149282,53.9639397 34.5162616,54.0626405 C33.9422616,54.2647422 33.3869283,54.4856439 32.8129283,54.6736455 C31.9635951,54.9556477 31.1095951,55.2282499 30.2462618,55.4726519 C29.4529285,55.6935537 28.6502619,55.8674551 27.852262,56.0695567 C27.740262,56.097757 27.642262,56.1541574 27.530262,56.1870577 C27.390262,56.224658 27.208262,56.2575582 27.1429287,56.1165571 C27.104139,56.0105985 27.125589,55.8917802 27.1989287,55.8063546 C27.3922243,55.6008566 27.6157203,55.4264879 27.8615953,55.2893504 C28.5475952,54.9509477 29.2615952,54.6548453 29.9522618,54.3352427 C30.3815951,54.1331411 30.8015951,53.9122393 31.2169284,53.7007376 C31.9869284,53.3059344 32.7569283,52.9158313 33.517595,52.511628 C34.1802616,52.1591252 34.8382616,51.7972223 35.4869282,51.4259193 C36.2615948,50.9794157 37.0409281,50.5329121 37.7875947,50.0488081 C38.706928,49.4519033 39.5702613,48.8032981 40.3915946,48.1029924 C41.1709279,47.4355871 41.8429278,46.7023811 42.5755945,46.0114756 C43.2942611,45.32527 44.0689277,44.6860649 44.8109277,44.0186595 C45.6975943,43.2243531 46.5655942,42.4206466 47.4429275,41.6263402 C47.9515941,41.1704365 48.4742608,40.7239329 48.9735941,40.2633292 C49.1415941,40.1035279 49.2442607,39.9014263 49.4029274,39.741625 C49.5429274,39.6006238 49.715594,39.4784229 49.883594,39.3515218 C49.981594,39.2763212 50.107594,39.2199208 50.205594,39.1400201 C50.6209273,38.7922173 51.031594,38.4444145 51.4375939,38.0872116 C51.6149273,37.9321104 51.7642606,37.758209 51.9322606,37.5984077 C52.1795939,37.3775059 52.4362606,37.1660042 52.6882605,36.9451024 C52.7489272,36.893402 52.8469272,36.8370015 52.8515939,36.775901 C52.8795939,36.4609985 53.1735939,36.3528976 53.4302605,36.2118965 C53.9762605,35.9204941 54.3635938,35.4880907 54.8022604,35.1026875 C55.3575937,34.6138836 55.9222604,34.1391798 56.4822603,33.6503758 C56.7015936,33.4623743 56.892927,33.2555726 57.1075936,33.0628711 C57.6209269,32.6022674 58.1575936,32.1604638 58.6475935,31.6810599 C59.0349269,31.3050569 59.3662602,30.8820535 59.7302601,30.4825503 C59.8982601,30.3039488 60.0895935,30.1347475 60.2809268,29.9702461 C60.7475934,29.5707429 61.2515934,29.1994399 61.6809267,28.7717365 C62.0915933,28.3534331 62.5069267,27.9492298 62.9689266,27.5638267 C63.2209266,27.357025 63.3889266,27.0703227 63.5755933,26.8118206 C64.0609266,26.1538153 64.7282599,25.6274111 65.3162598,25.0493064 C65.7689265,24.6028028 66.2962598,24.2503 66.8702597,23.9306974 C67.3396918,23.6488655 67.8599423,23.4635588 68.4009263,23.385493 C68.699593,23.3525927 68.993593,23.2679921 69.2829263,23.1880914 C69.8989262,23.0235901 70.5289262,22.9859898 71.1215928,23.00949 L71.1215928,23.00949 Z M75.9849839,68.9863663 C76.6959218,68.9863663 77.4068597,69.0223678 78.113298,68.9773659 C79.5486726,68.8873623 80.1786176,67.8208186 80.5655838,66.3987603 C80.9795476,64.8731978 80.403598,63.9056582 79.3011943,63.2126298 C78.1222972,62.4745996 76.9434002,61.727569 75.7240067,61.0885428 C72.3133047,59.3244706 72.2323117,59.3964735 71.8003495,63.6266468 C71.3728868,67.9153224 72.2278121,69.0223678 75.9849839,68.9818661 L75.9849839,68.9863663 Z M65.9125917,74.8314691 C66.1735613,74.6964678 66.4390304,74.5704666 66.7,74.4399653 C66.1510639,73.251954 65.9800838,71.6274385 64.9632022,70.9884324 C63.7258462,70.209925 61.7910715,70.1334243 60.1352643,70.0074231 C58.9743994,69.9174222 58.2274864,70.6554292 58.0880026,71.6994392 C57.9755157,72.5319471 57.9305209,73.3779552 57.7640403,74.201463 C57.2241032,76.8429882 60.180259,79.3765124 63.5458672,78.9535084 C62.3265092,77.8374977 61.1971406,76.7754876 60.0227774,75.7449778 C58.7269282,74.610967 58.7089303,74.1294624 60.0137784,72.9504511 C61.2016401,71.8794409 62.0880369,71.8344405 63.3838861,72.8244499 C64.2387865,73.4814562 65.0711896,74.1609627 65.9125917,74.8314691 L65.9125917,74.8314691 Z M77.609119,60.1881024 L76.7,63.698356 C78.5497422,65.5479897 80.2869697,68.0051673 82.3122348,68.9547359 C83.1808486,69.3597651 85.0485931,66.9610918 85.6606733,65.1744627 C85.9532116,64.3194009 84.5490277,60.8226482 83.5904022,60.4266196 C81.7136565,59.6345624 79.6118813,60.1881024 77.6046184,60.1881024 L77.609119,60.1881024 Z M65.4305394,70 C62.3032257,72.4530159 59.999363,74.2623964 57.7,76.0762779 C59.2119099,77.1114957 60.921808,79.1729292 62.1997319,78.9883904 C66.811957,78.344755 67.8603946,75.6306842 65.4305394,70 Z M61.7478469,79 C63.0684211,78.748 64.3889952,78.4825 65.7,78.2305 L63.6521531,70 C62.3315789,70.252 61.0205742,70.5175 59.7,70.7695 C60.3889952,73.51 61.0684211,76.255 61.7478469,79 Z M78.7,68.2508619 L82.7498177,68.2882375 L82.3627028,61 C87.4883476,66.6981261 83.0180841,72.0724369 80.023833,78 L78.7,68.2508619 Z M60.47,78 L63.93,77.8614776 L63.52,71 L60.48,71.1292876 C60.47,73.4287599 60.47,75.7097625 60.47,78 L60.47,78 Z M76.0604915,38.62 L76.9404915,38.268 L75.8904915,37.38 C75.7304915,37.604 75.4404915,37.844 75.4604915,38.06 C75.4804915,38.26 75.8504915,38.436 76.0604915,38.62 L76.0604915,38.62 Z" id="Shape"></path>
                </g>
            </g>
        </g>
    </g>
</svg>