<?xml version="1.0" encoding="UTF-8"?>
<svg width="3300px" height="2200px" viewBox="0 0 3300 2200" version="1.1" xmlns="http://www.w3.org/2000/svg" xmlns:xlink="http://www.w3.org/1999/xlink">
    <!-- Generator: Sketch 59.1 (86144) - https://sketch.com -->
    <title>filter</title>
    <desc>Created with Sketch.</desc>
    <g id="Page-1" stroke="none" stroke-width="1" fill="none" fill-rule="evenodd">
        <g id="filter">
            <g id="Notes">
                <rect id="artboard" fill="#FFFFFF" fill-rule="nonzero" x="0" y="0" width="3300" height="2200"></rect>
                <line x1="263" y1="292" x2="3036" y2="292" id="Path" stroke="#000000" stroke-width="0.5"></line>
                <text id="Weight/Scale-Variations" fill="#000000" font-family="Helvetica-Bold, Helvetica" font-size="13" font-weight="bold">
                    <tspan x="263" y="322">Weight/Scale Variations</tspan>
                </text>
                <text id="Ultralight" fill="#000000" font-family="Helvetica" font-size="13" font-weight="normal">
                    <tspan x="533.711" y="322">Ultralight</tspan>
                </text>
                <text id="Thin" fill="#000000" font-family="Helvetica" font-size="13" font-weight="normal">
                    <tspan x="843.422" y="322">Thin</tspan>
                </text>
                <text id="Light" fill="#000000" font-family="Helvetica" font-size="13" font-weight="normal">
                    <tspan x="1138.63" y="322">Light</tspan>
                </text>
                <text id="Regular" fill="#000000" font-family="Helvetica" font-size="13" font-weight="normal">
                    <tspan x="1426.84" y="322">Regular</tspan>
                </text>
                <text id="Medium" fill="#000000" font-family="Helvetica" font-size="13" font-weight="normal">
                    <tspan x="1723.06" y="322">Medium</tspan>
                </text>
                <text id="Semibold" fill="#000000" font-family="Helvetica" font-size="13" font-weight="normal">
                    <tspan x="2015.77" y="322">Semibold</tspan>
                </text>
                <text id="Bold" fill="#000000" font-family="Helvetica" font-size="13" font-weight="normal">
                    <tspan x="2326.48" y="322">Bold</tspan>
                </text>
                <text id="Heavy" fill="#000000" font-family="Helvetica" font-size="13" font-weight="normal">
                    <tspan x="2618.19" y="322">Heavy</tspan>
                </text>
                <text id="Black" fill="#000000" font-family="Helvetica" font-size="13" font-weight="normal">
                    <tspan x="2917.4" y="322">Black</tspan>
                </text>
                <line x1="263" y1="1903" x2="3036" y2="1903" id="Path" stroke="#000000" stroke-width="0.5"></line>
                <g id="Group" transform="translate(264.000000, 1918.000000)" fill="#000000" fill-rule="nonzero">
                    <path d="M8.24805,15.830078 C12.5547,15.830078 16.1387,12.25586 16.1387,7.94922 C16.1387,3.6426 12.5449,0.0684 8.23828,0.0684 C3.94141,0.0684 0.36719,3.6426 0.36719,7.94922 C0.36719,12.25586 3.95117,15.830078 8.24805,15.830078 Z M8.24805,14.345703 C4.70312,14.345703 1.87109,11.50391 1.87109,7.94922 C1.87109,4.3945 4.69336,1.5527 8.23828,1.5527 C11.793,1.5527 14.6348,4.3945 14.6445503,7.94922 C14.6543,11.50391 11.8027,14.345703 8.24805,14.345703 Z M8.22852,11.57227 C8.69727,11.57227 8.9707,11.25977 8.9707,10.74219 L8.9707,8.68164 L11.1973,8.68164 C11.6953,8.68164 12.0371,8.42773 12.0371,7.95898 C12.0371,7.48047 11.7148,7.2168 11.1973,7.2168 L8.9707,7.2168 L8.9707,4.9902 C8.9707,4.4727 8.69727,4.1504 8.22852,4.1504 C7.75977,4.1504 7.50586,4.4922 7.50586,4.9902 L7.50586,7.2168 L5.29883,7.2168 C4.78125,7.2168 4.44922,7.48047 4.44922,7.95898 C4.44922,8.42773 4.80078,8.68164 5.29883,8.68164 L7.50586,8.68164 L7.50586,10.74219 C7.50586,11.24023 7.75977,11.57227 8.22852,11.57227 Z" id="Shape"></path>
                </g>
                <g id="Group" transform="translate(282.506000, 1915.000000)" fill="#000000" fill-rule="nonzero">
                    <path d="M10.709,20.91016 C16.1582,20.91016 20.6699,16.39844 20.6699,10.94922 C20.6699,5.5098 16.1484,0.9883 10.6992,0.9883 C5.25977,0.9883 0.74805,5.5098 0.74805,10.94922 C0.74805,16.39844 5.26953,20.91016 10.709,20.91016 Z M10.709,19.25 C6.09961,19.25 2.41797,15.55859 2.41797,10.94922 C2.41797,6.3496 6.08984,2.6484 10.6992,2.6484 C15.3086,2.6484 19,6.3496 19.0098379,10.94922 C19.0195,15.55859 15.3184,19.25 10.709,19.25 Z M10.6895,15.58789 C11.207,15.58789 11.5195,15.22656 11.5195,14.66016 L11.5195,11.76953 L14.5762,11.76953 C15.123,11.76953 15.5039,11.48633 15.5039,10.96875 C15.5039,10.44141 15.1426,10.13867 14.5762,10.13867 L11.5195,10.13867 L11.5195,7.0723 C11.5195,6.4961 11.207,6.1445 10.6895,6.1445 C10.1719,6.1445 9.8789,6.5156 9.8789,7.0723 L9.8789,10.13867 L6.83203,10.13867 C6.26562,10.13867 5.89453,10.44141 5.89453,10.96875 C5.89453,11.48633 6.28516,11.76953 6.83203,11.76953 L9.8789,11.76953 L9.8789,14.66016 C9.8789,15.20703 10.1719,15.58789 10.6895,15.58789 Z" id="Shape"></path>
                </g>
                <g id="Group" transform="translate(306.924000, 1913.000000)" fill="#000000" fill-rule="nonzero">
                    <path d="M12.9707,25.67383 C19.9336,25.67383 25.6953,19.921875 25.6953,12.95898 C25.6953,5.9961 19.9238,0.2441 12.9609,0.2441 C6.00781,0.2441 0.25586,5.9961 0.25586,12.95898 C0.25586,19.921875 6.01758,25.67383 12.9707,25.67383 Z M12.9707,23.85742 C6.93555,23.85742 2.08203,18.99414 2.08203,12.95898 C2.08203,6.9238 6.92578,2.0605 12.9609,2.0605 C19.0059,2.0605 23.8594,6.9238 23.8691295,12.95898 C23.8789,18.99414 19.0156,23.85742 12.9707,23.85742 Z M12.9512,18.93555 C13.5176,18.93555 13.8691,18.54492 13.8691,17.93945 L13.8691,13.86719 L18.1074,13.86719 C18.6934,13.86719 19.1133,13.53516 19.1133,12.97852 C19.1133,12.40234 18.7227,12.06055 18.1074,12.06055 L13.8691,12.06055 L13.8691,7.8125 C13.8691,7.1973 13.5176,6.8066 12.9512,6.8066 C12.3848,6.8066 12.0625,7.2168 12.0625,7.8125 L12.0625,12.06055 L7.83398,12.06055 C7.21875,12.06055 6.80859,12.40234 6.80859,12.97852 C6.80859,13.53516 7.23828,13.86719 7.83398,13.86719 L12.0625,13.86719 L12.0625,17.93945 C12.0625,18.52539 12.3848,18.93555 12.9512,18.93555 Z" id="Shape"></path>
                </g>
                <text id="Design-Variations" fill="#000000" font-family="Helvetica-Bold, Helvetica" font-size="13" font-weight="bold">
                    <tspan x="263" y="1953">Design Variations</tspan>
                </text>
                <text id="Symbols-are-supported-in-up-to-nine-weights-and-three-scales." fill="#000000" font-family="Helvetica" font-size="13" font-weight="normal">
                    <tspan x="263" y="1971">Symbols are supported in up to nine weights and three scales.</tspan>
                </text>
                <text id="For-optimal-layout-with-text-and-other-symbols,-vertically-align" fill="#000000" font-family="Helvetica" font-size="13" font-weight="normal">
                    <tspan x="263" y="1989">For optimal layout with text and other symbols, vertically align</tspan>
                </text>
                <text id="symbols-with-the-adjacent-text." fill="#000000" font-family="Helvetica" font-size="13" font-weight="normal">
                    <tspan x="263" y="2007">symbols with the adjacent text.</tspan>
                </text>
                <rect id="Rectangle" fill="#00AEEF" fill-rule="nonzero" opacity="0.4" x="776" y="1919" width="3" height="14"></rect>
                <g id="Group" transform="translate(779.000000, 1918.000000)" fill="#000000" fill-rule="nonzero">
                    <path d="M10.5273,15 L12.373,15 L7.17773,0.9082 L5.43945,0.9082 L0.244141,15 L2.08984,15 L3.50586,10.9668 L9.11133,10.9668 L10.5273,15 Z M6.2793,3.0469 L6.33789,3.0469 L8.59375,9.47266 L4.02344,9.47266 L6.2793,3.0469 Z" id="Shape"></path>
                </g>
                <rect id="Rectangle" fill="#00AEEF" fill-rule="nonzero" opacity="0.4" x="791.617" y="1919" width="3" height="14"></rect>
                <text id="Margins" fill="#000000" font-family="Helvetica-Bold, Helvetica" font-size="13" font-weight="bold">
                    <tspan x="776" y="1953">Margins</tspan>
                </text>
                <text id="Leading-and-trailing-margins-on-the-left-and-right-side-of-each-symbol" fill="#000000" font-family="Helvetica" font-size="13" font-weight="normal">
                    <tspan x="776" y="1971">Leading and trailing margins on the left and right side of each symbol</tspan>
                </text>
                <text id="can-be-adjusted-by-modifying-the-width-of-the-blue-rectangles." fill="#000000" font-family="Helvetica" font-size="13" font-weight="normal">
                    <tspan x="776" y="1989">can be adjusted by modifying the width of the blue rectangles.</tspan>
                </text>
                <text id="Modifications-are-automatically-applied-proportionally-to-all" fill="#000000" font-family="Helvetica" font-size="13" font-weight="normal">
                    <tspan x="776" y="2007">Modifications are automatically applied proportionally to all</tspan>
                </text>
                <text id="scales-and-weights." fill="#000000" font-family="Helvetica" font-size="13" font-weight="normal">
                    <tspan x="776" y="2025">scales and weights.</tspan>
                </text>
                <g id="Group" transform="translate(1291.000000, 1915.000000)" fill="#000000" fill-rule="nonzero">
                    <path d="M0.83203,21.11523 L2.375,22.6582 C3.22461,23.48828 4.19141,23.41992 5.06055,22.46289 L15.2754,11.33984 C15.7051,11.63281 16.0957,11.62305 16.5645,11.52539 L17.6094,11.31055 L18.3027,12.00391 L18.2539,12.52148 C18.1855,13.04883 18.3516,13.46875 18.8496,13.9668 L19.6602,14.77734 C20.168,15.28516 20.8223,15.31445 21.3008,14.83594 L24.5527,11.58398 C25.0312,11.10547 25.0117,10.45117 24.5039,9.94336 L23.6836,9.12305 C23.1855,8.625 22.7754,8.44922 22.2383,8.52734 L21.7109,8.58594 L21.0566,7.9219 L21.3398,6.7793 C21.4863,6.2129 21.3398,5.7441 20.7148,5.1387 L18.3027,2.7461 C14.7578,-0.7793 10.2266,-0.6719 7.11133,2.4629 C6.69141,2.8926 6.64258,3.4785 6.91602,3.9082 C7.15039,4.2793 7.62891,4.5039 8.2734,4.3379 C9.7871,3.957 11.3008,4.0742 12.7852,5.0801 L12.1602,6.6621 C11.9258,7.248 11.9453,7.7266 12.1797,8.16602 L1.01758,18.439453 C0.08008,19.30859 -0.02734,20.25586 0.83203,21.11523 Z M8.6738,2.8535 C11.3398,0.8613 14.6504,1.1738 17.0527,3.5859 L19.6797,6.1934 C19.9141,6.4277 19.9434,6.6133 19.8848,6.9062 L19.5039,8.46875 L21.0762,10.04102 L22.043,9.95312 C22.3262,9.92383 22.4141,9.94336 22.6387,10.16797 L23.2637,10.79297 L20.5098,13.53711 L19.8848,12.92188 C19.6602,12.69727 19.6406,12.59961 19.6699,12.31641 L19.7578,11.35938 L18.1953,9.79688 L16.5742,10.10938 C16.291,10.16797 16.1445,10.16797 15.9102,9.92383 L13.7324,7.7461 C13.5078,7.5117 13.4785,7.375 13.6055,7.0527 L14.5527,4.7773 C12.9512,3.2441 10.8418,2.3945 8.8008,3.0488 C8.7129,3.0781 8.6445,3.0586 8.6152,3.0195 C8.5859,2.9707 8.5859,2.9219 8.6738,2.8535 Z M2.10156,20.41211 C1.61328,19.91406 1.78906,19.61133 2.12109,19.30859 L13.0781,9.19141 L14.3086,10.42188 L4.15234,21.34961 C3.84961,21.68164 3.46875,21.7793 3.06836,21.37891 L2.10156,20.41211 Z" id="Shape"></path>
                </g>
                <text id="Exporting" fill="#000000" font-family="Helvetica-Bold, Helvetica" font-size="13" font-weight="bold">
                    <tspan x="1289" y="1953">Exporting</tspan>
                </text>
                <text id="Symbols-should-be-outlined-when-exporting-to-ensure-the" fill="#000000" font-family="Helvetica" font-size="13" font-weight="normal">
                    <tspan x="1289" y="1971">Symbols should be outlined when exporting to ensure the</tspan>
                </text>
                <text id="design-is-preserved-when-submitting-to-Xcode." fill="#000000" font-family="Helvetica" font-size="13" font-weight="normal">
                    <tspan x="1289" y="1989">design is preserved when submitting to Xcode.</tspan>
                </text>
                <text id="Template-v.1.0" fill="#000000" font-family="Helvetica" font-size="13" font-weight="normal">
                    <tspan x="2952" y="1933">Template v.1.0</tspan>
                </text>
                <text id="Generated-from-circle" fill="#000000" font-family="Helvetica" font-size="13" font-weight="normal">
                    <tspan x="2911" y="1951">Generated from circle</tspan>
                </text>
                <text id="Typeset-at-100-points" fill="#000000" font-family="Helvetica" font-size="13" font-weight="normal">
                    <tspan x="2912" y="1969">Typeset at 100 points</tspan>
                </text>
                <text id="Small" fill="#000000" font-family="Helvetica" font-size="13" font-weight="normal">
                    <tspan x="263" y="726">Small</tspan>
                </text>
                <text id="Medium" fill="#000000" font-family="Helvetica" font-size="13" font-weight="normal">
                    <tspan x="263" y="1156">Medium</tspan>
                </text>
                <text id="Large" fill="#000000" font-family="Helvetica" font-size="13" font-weight="normal">
                    <tspan x="263" y="1586">Large</tspan>
                </text>
            </g>
            <g id="Guides" transform="translate(263.000000, 625.000000)">
                <g id="H-reference" transform="translate(76.000000, 0.000000)" fill="#27AAE1" fill-rule="nonzero">
                    <path d="M54.9316,71 L57.666,71 L30.5664,0.541 L28.0762,0.541 L0.976562,71 L3.66211,71 L12.9395,46.5371 L45.7031,46.5371 L54.9316,71 Z M29.1992,3.9102 L29.4434,3.9102 L44.8242,44.291 L13.8184,44.291 L29.1992,3.9102 Z" id="Shape"></path>
                </g>
                <line x1="0" y1="71" x2="2773" y2="71" id="Baseline-S" stroke="#27AAE1" stroke-width="0.577"></line>
                <line x1="0" y1="0.541" x2="2773" y2="0.541" id="Capline-S" stroke="#27AAE1" stroke-width="0.577"></line>
                <g id="H-reference" transform="translate(76.000000, 430.000000)" fill="#27AAE1" fill-rule="nonzero">
                    <path d="M54.9316,71 L57.666,71 L30.5664,0.541 L28.0762,0.541 L0.976562,71 L3.66211,71 L12.9395,46.5371 L45.7031,46.5371 L54.9316,71 Z M29.1992,3.9102 L29.4434,3.9102 L44.8242,44.291 L13.8184,44.291 L29.1992,3.9102 Z" id="Shape"></path>
                </g>
                <line x1="0" y1="501" x2="2773" y2="501" id="Baseline-M" stroke="#27AAE1" stroke-width="0.577"></line>
                <line x1="0" y1="430.54" x2="2773" y2="430.54" id="Capline-M" stroke="#27AAE1" stroke-width="0.577"></line>
                <g id="H-reference" transform="translate(76.000000, 860.000000)" fill="#27AAE1" fill-rule="nonzero">
                    <path d="M54.9316,71 L57.666,71 L30.5664,0.541 L28.0762,0.541 L0.976562,71 L3.66211,71 L12.9395,46.5371 L45.7031,46.5371 L54.9316,71 Z M29.1992,3.9102 L29.4434,3.9102 L44.8242,44.291 L13.8184,44.291 L29.1992,3.9102 Z" id="Shape"></path>
                </g>
                <line x1="0" y1="931" x2="2773" y2="931" id="Baseline-L" stroke="#27AAE1" stroke-width="0.577"></line>
                <line x1="0" y1="860.54" x2="2773" y2="860.54" id="Capline-L" stroke="#27AAE1" stroke-width="0.577"></line>
                <rect id="left-margin" fill="#00AEEF" fill-rule="nonzero" opacity="0.4" x="1128.3" y="405.79" width="8.74023" height="119.336"></rect>
                <rect id="right-margin" fill="#00AEEF" fill-rule="nonzero" opacity="0.4" x="1236.65" y="405.79" width="8.74023" height="119.336"></rect>
            </g>
            <g id="Symbols" transform="translate(1399.000000, 1040.000000)" fill="#000000" fill-rule="nonzero">
                <g id="Regular-M" transform="translate(0.300000, 0.000000)">
                    <path d="M50.5449,100.5508 C77.791,100.5508 100.35,77.99219 100.35,50.7461 C100.35,23.5488 77.7422,0.9414 50.4961,0.9414 C23.2988,0.9414 0.74023,23.5488 0.74023,50.7461 C0.74023,77.99219 23.3477,100.5508 50.5449,100.5508 Z M50.1551,92.0078 C27.1082,92.0078 8.7,73.5508 8.7,50.5039 C8.7,27.5058 27.0594,9 50.1063,9 C73.1532,9 91.6102,27.5058 91.6593938,50.5039 C91.7082,73.5508 73.202,92.0078 50.1551,92.0078 Z" id="Shape"></path>
                    <path d="M38.3669356,72.6993107 C38.1924999,72.9028465 38.0274931,73.1205824 37.838914,73.3146514 C37.7446244,73.4093191 37.5890466,73.4471863 37.4758991,73.5276539 C37.3745791,73.5922885 37.2865551,73.675845 37.2166028,73.7737901 C36.9290196,74.2281955 36.6744377,74.7015344 36.3679966,75.1464731 C36.2029899,75.3973427 35.957837,75.6008784 35.7598288,75.8328145 C35.5901076,76.0410837 35.4298153,76.2588196 35.2695231,76.4765555 C35.1893769,76.5901568 35.1516611,76.7321585 35.0668005,76.8315597 C34.9960833,76.9120273 34.8593634,77.0066951 34.7839317,76.9830281 C34.6714435,76.9397533 34.5846895,76.8474252 34.5482078,76.7321585 C34.4207518,76.1240377 34.3857823,75.5000407 34.4444893,74.8814032 C34.5152064,74.0293932 34.5246354,73.1773831 34.5859236,72.3348397 C34.6142105,71.9467018 34.7085001,71.5680307 34.7650738,71.1846261 C34.84522,70.611886 34.9065082,70.0344125 35.0055122,69.4664058 C35.0856584,69.0404007 35.0762294,68.6143957 35.052657,68.1836572 C35.0149412,67.5872502 35.0196557,66.9861097 35.0102267,66.3849693 C35.0102267,66.1861669 34.9583675,66.0204983 34.7462159,65.9258305 C34.5387788,65.8358961 34.5152064,65.6418271 34.510492,65.4477582 L34.4774906,64.5626143 C34.4727761,64.3590786 34.4162024,64.1981433 34.1946219,64.1224091 C34.0060427,64.0608751 33.9871848,63.8952064 34.0060427,63.7295378 C34.0343296,63.4928683 34.0861889,63.2514655 34.1003323,63.0100626 C34.1380481,62.4988565 34.1521916,61.9829171 34.1899074,61.471711 C34.2511956,60.619701 34.3219128,59.7771576 34.3879155,58.9298809 C34.4067734,58.626944 34.4256314,58.3192737 34.4209169,58.0163368 C34.4209169,57.9074688 34.3737721,57.7796673 34.3030549,57.7039331 C34.1286192,57.5287977 34.1050468,57.3299953 34.0767599,57.1027926 C33.9447545,55.9383788 34.1521916,54.797632 34.3124839,53.6568851 C34.3313418,53.5148834 34.3171983,53.3918153 34.1616205,53.3539482 C33.7986057,53.2592804 33.7514609,52.9894772 33.7891767,52.6818069 C33.8740373,52.0191324 33.958898,51.3469911 34.0531875,50.6795832 C34.0956178,50.40978 34.0909034,50.1778439 33.8646084,49.960108 C33.6477424,49.7471055 33.6854582,49.4536353 33.7514609,49.1790987 C33.8457505,48.781494 33.949469,48.3838893 34.057902,47.9862846 C34.1286192,47.711748 34.2323377,47.4466782 33.949469,47.2052754 C33.8881808,47.1579415 33.8693229,47.006473 33.8834663,46.9118052 C33.9447545,46.5946681 34.0107572,46.2727976 34.1097613,45.9651273 C34.2370522,45.5627892 34.3973445,45.1746513 34.5434933,44.7770466 C34.5768206,44.6994108 34.5929083,44.6154193 34.5906381,44.5309103 C34.510492,43.8019684 34.7697883,43.1440272 35.0432281,42.4955529 C35.3779561,41.7003435 35.731542,40.9098674 36.0898424,40.1241248 C36.1888464,39.9063889 36.3491387,39.7170533 36.4764296,39.5087842 C36.6320074,39.238981 36.8488734,38.9786446 36.9195906,38.6851744 C37.1005759,38.0298719 37.4224272,37.4223645 37.8624864,36.90542 C38.3245053,36.3279465 38.6403754,35.6747388 39.0081047,35.0499314 C39.4182644,34.3446563 39.8567109,33.6677816 40.4460208,33.0855747 C40.8656094,32.6690365 41.2663401,32.2335647 41.6717852,31.8028262 C41.7351184,31.7341484 41.7776389,31.6487665 41.7943617,31.55669 C41.9923698,30.269208 42.1809489,28.9769927 42.3742426,27.6895108 C42.4638177,27.0883704 42.5298204,26.4777631 42.6571113,25.8860895 C42.7514009,25.4458842 42.9258366,25.0198792 43.0719854,24.5938741 C43.2982804,23.935933 43.5245754,23.2779919 43.7791572,22.6342509 C44.1563155,21.6639061 44.604191,20.7361618 45.4292248,20.0450869 C45.5140854,19.9740861 45.5753737,19.8794183 45.6790922,19.7563502 L45.4245103,19.6948161 C45.2595036,19.656949 45.0803534,19.6474822 44.9342045,19.571748 C43.7722979,18.9920447 42.7871184,18.1091837 42.0819449,17.0157177 C41.9405105,16.8027152 42.0065132,16.6228464 42.2658096,16.6086462 C43.2982804,16.5613123 44.3260368,16.168441 45.3679366,16.5518455 C45.5140854,16.5991794 45.6838067,16.5897127 45.8393845,16.618113 C46.9425725,16.8027152 47.9986158,17.1198523 48.9886563,17.6263249 C49.1913789,17.7257261 49.3611001,17.7209927 49.5685372,17.6499919 C50.5563982,17.2717639 51.5930962,17.0374517 52.6470918,16.9541836 C53.043108,16.9305167 53.4344098,16.8595158 53.8257115,16.8547825 C54.4103069,16.8453157 55.0043312,16.8358489 55.5842121,16.8879162 C55.9802283,16.9210499 56.3715301,17.0583182 56.7628318,17.1577194 C56.9905655,17.2187326 57.2155077,17.2898025 57.4370023,17.3707219 C57.6962986,17.4653897 57.8518764,17.3707219 57.9838818,17.1387858 C58.1615461,16.839356 58.3534912,16.5487038 58.5590482,16.2678422 C58.8257963,15.8903395 59.224991,15.6282156 59.6763797,15.5341668 C59.8211316,15.4946908 59.9593255,15.4340881 60.0865393,15.354298 C60.5202714,15.1034284 60.9634324,14.9235596 61.4820251,15.0324275 C61.5150264,15.0418943 61.5480278,15.0371609 61.5763146,15.0324275 C61.9299005,14.9661601 61.9534729,14.9756269 61.9534729,15.3448312 C61.944044,16.1353073 61.6988911,16.873716 61.3783065,17.5931912 C61.1897274,18.0239296 60.9728613,18.4452013 60.7654243,18.8712063 C60.6711347,19.0605419 60.6711347,19.2309439 60.7842822,19.4108127 L61.0294351,19.8178842 C61.7931807,21.0343653 62.3636326,22.3265806 62.604071,23.7465974 C62.721933,24.4234721 62.7643633,25.1192804 62.7643633,25.8150886 C62.7643633,26.3215613 62.6465013,26.8327673 62.5663552,27.33924 C62.5097814,27.6895108 62.4202063,28.0350482 62.3683471,28.3900525 C62.3542036,28.4847202 62.4107774,28.5983216 62.4626366,28.688256 C62.5097814,28.7545234 62.604071,28.7829238 62.6700737,28.8397244 C63.1255545,29.148259 63.4889495,29.5752838 63.7214025,30.0751391 C64.041987,30.8514149 64.4285743,31.6040239 64.8104471,32.3566328 C64.9990262,32.7211038 65.2583226,33.0477076 65.4327583,33.416912 C65.5647637,33.696182 65.6166229,34.0133191 65.6920546,34.316256 C65.7863442,34.7138607 65.8712048,35.1114654 65.9607799,35.5138035 C65.9890668,35.6321383 66.0362115,35.750473 66.0550695,35.8782745 C66.1965038,36.6829507 66.3379382,37.4876269 66.4510857,38.2970365 C66.4752017,38.5480034 66.4544459,38.8012778 66.3897975,39.044912 C66.3125519,39.3611443 66.3174217,39.6919877 66.4039409,40.0057901 C66.6773807,41.0092686 66.818815,42.0269473 66.5736621,43.0588262 C66.5312318,43.2528952 66.5453753,43.4564309 66.5265173,43.6552333 C66.4510857,44.3037077 66.3662251,44.952182 66.2955079,45.595923 C66.2342197,46.19233 66.1917893,46.7887371 66.1257866,47.3851442 C66.1163577,47.4987455 66.0314971,47.6028801 65.9749233,47.7164814 C65.8712048,47.6454806 65.7674863,47.5792131 65.6166229,47.4892787 C65.597765,47.6076135 65.5647637,47.7164814 65.5506202,47.8300828 C65.5193384,48.1008552 65.494188,48.3723062 65.4751886,48.6442257 C65.4563307,48.9376959 65.4751886,49.2358994 65.4327583,49.5246362 C65.3243253,50.3056454 65.2017488,51.0866547 65.0650289,51.8629305 C65.0131697,52.1753342 64.9330235,52.4782712 64.5888666,52.6392064 C64.5087204,52.6770735 64.4568612,52.8474755 64.4474322,52.9610769 C64.4191453,53.6663519 64.4191453,54.3716269 64.386144,55.0721686 C64.3720005,55.3987724 64.3107123,55.7159095 64.2635675,56.03778 C64.2211372,56.3123166 64.1457056,56.5679196 63.8958382,56.7477884 C63.815692,56.8045891 63.7732617,56.9418574 63.7544038,57.0507253 C63.7143235,57.2373213 63.6953455,57.4278626 63.6978301,57.6187321 C63.7120692,58.4098782 63.5908742,59.1976032 63.3395297,59.9475597 C63.0216502,61.0608573 62.8101148,62.2020244 62.7077895,63.3556 C62.6653592,63.7058708 62.5899276,64.0608751 62.495638,64.4016791 C62.4296357,64.598134 62.3236753,64.7786669 62.1844824,64.9318187 C61.9204716,64.4821467 62.1090507,64.0088078 62.052477,63.5591358 L61.9581874,63.5307354 C61.8921847,63.7153376 61.826182,63.8952064 61.7696083,64.0798086 C61.6658897,64.3780121 61.5810291,64.6809491 61.4631671,64.9696858 C61.4254513,65.0643536 61.3028749,65.1258877 61.2274432,65.1968885 C61.1520115,65.1022207 61.057722,65.0217531 61.0152917,64.9128851 C60.9681469,64.8040172 60.9728613,64.6667489 60.9351455,64.5484142 C60.9021442,64.4442796 60.8408559,64.3543452 60.7748532,64.2360105 C60.5391293,64.4111459 60.4825556,64.6336152 60.4259818,64.8513511 C60.270404,65.4761585 60.2044013,66.1198994 59.8696733,66.6879062 C59.7800982,66.8346412 59.8413864,66.9482426 59.9969642,67.0192434 C60.152542,67.0855109 60.3034054,67.1707119 60.4589832,67.232246 C61.015589,67.4590744 61.4529207,67.9084514 61.6658897,68.472394 C61.7366069,68.6333292 61.8638978,68.7658641 61.9487584,68.9173326 C62.0996218,69.1824024 62.2551996,69.4474722 62.3824905,69.7220088 C62.4154918,69.7930096 62.3824905,69.9113444 62.3400602,69.991812 C62.2929154,70.0722796 62.1986258,70.1243469 62.1279086,70.1906143 C62.0807639,70.1196135 62.0147612,70.0486127 61.9959032,69.968145 C61.8667116,69.4546328 61.4354315,69.074337 60.9115731,69.0120004 C60.8031401,69.0025336 60.614561,69.0593343 60.5862741,69.1303351 C60.5331792,69.2712496 60.5365589,69.4273423 60.595703,69.5658069 C60.7607098,69.8782106 60.9540034,70.1811476 61.1708695,70.4651509 C61.5150264,70.9148229 61.4160223,71.4070954 61.3123038,71.8851677 C61.2604445,72.1502376 61.0907233,72.3963738 60.9587179,72.6425101 C60.9210021,72.7087775 60.8361415,72.7466446 60.7748532,72.7987119 L60.713565,72.7703116 C60.7371374,72.6283099 60.7465664,72.4863082 60.7984256,72.3585067 C60.9021442,72.1218372 60.8927152,71.9088347 60.7418519,71.7005656 C60.5999036,71.5276411 60.5538629,71.2947367 60.6192754,71.0804915 C60.6428478,70.9905572 60.6098465,70.867489 60.5627017,70.782288 C60.3458357,70.4272838 59.7612403,70.2000811 59.3699386,70.3468162 C58.832488,70.5456185 58.3610401,70.3752165 57.9084501,70.1101467 C57.6585828,69.9586783 57.4464312,69.736209 57.1918494,69.5800071 C57.0020145,69.4700315 56.7970981,69.3886931 56.5836816,69.3386042 C56.4139604,69.2912704 56.3196708,69.4001383 56.3526721,69.5752737 C56.5129644,70.417817 56.3621011,71.2792939 56.5648237,72.1171038 C56.6591133,72.5005084 56.5742526,72.9312468 56.5412513,73.3383183 C56.5122075,73.4916602 56.447604,73.6359795 56.3526721,73.75959 C56.3149563,73.8116572 56.1923799,73.8542577 56.1310916,73.8305908 C56.0745179,73.8069238 56.0273731,73.7027893 56.0179441,73.6317884 C56.0085152,73.5513208 56.0509455,73.4708532 56.0650889,73.3856522 C56.0933758,73.1300492 56.1263772,72.8697127 56.1452351,72.6093763 C56.1593785,72.4058406 56.0415165,72.2780391 55.838794,72.2780391 C55.1316221,72.2922392 54.6790322,71.852034 54.2264422,71.4212956 C54.1321526,71.3360946 54.0850079,71.1656926 54.0897223,71.0331577 C54.0991513,70.7302207 54.1462961,70.4272838 54.1840119,70.1243469 C54.273587,69.4995395 53.5239849,69.1540021 53.0996818,69.3622712 C52.9111026,69.456939 52.7225235,69.5610735 52.5480878,69.6746749 C52.0342096,70.0060122 51.5203314,70.1669474 50.9215926,69.8545437 C50.6151515,69.6936085 50.4265723,69.7835429 50.3087104,70.1290803 C50.1373055,70.5695746 50.1863835,71.0658431 50.4407158,71.4638961 C50.5350053,71.6058978 50.610437,71.766833 50.6952976,71.9183015 L50.5962936,71.9845689 C50.3699986,71.6484983 50.1248457,71.3218944 49.931552,70.9716236 C49.8184046,70.7633545 49.7948322,70.5077514 49.7194005,70.2758153 C49.6109675,69.9634116 49.4648186,69.9302779 49.2479526,70.1716808 C49.1442341,70.2947489 49.0782314,70.4556841 48.9839418,70.5929524 C48.6586428,71.0710248 48.3380582,71.5538305 48.0080447,72.0271694 L47.0180042,73.4187859 C46.7634223,73.7927237 46.4522667,74.1477279 46.2825455,74.5547994 C45.9996767,75.2174739 45.8110976,75.9085487 45.5848026,76.5854234 C45.499942,76.8315597 45.391509,77.0729625 45.3019339,77.3238322 L44.2364617,80.457336 C44.1563155,80.6845387 44.0195957,80.8928078 43.944164,81.1200105 C43.8027296,81.5365488 43.7225835,81.9720206 43.5670057,82.3743587 C43.3359962,82.9518322 43.0908433,83.5293057 42.7891167,84.0736455 C42.5769652,84.4665168 42.279953,84.821521 41.9923698,85.1717918 C41.8037906,85.3989945 41.5680667,85.5031291 41.2569111,85.3327271 C41.1909084,85.29486 41.0400451,85.3516606 40.9646134,85.4131947 C40.832608,85.5173293 40.7430329,85.6687977 40.6204565,85.7823991 C40.271585,86.0995361 40.0075742,86.0664024 39.7011331,85.7066648 C39.5750489,85.5539153 39.4130091,85.4351519 39.2296852,85.3611274 C39.0700704,85.3115607 38.8981765,85.3199386 38.7440939,85.3847943 C37.8813443,85.7776657 37.1883159,85.3232603 36.9290196,84.4996505 C36.7121839,83.8845041 36.7495329,83.2078202 37.0327381,82.6204949 C37.1461218,82.3616609 37.1946795,82.0788964 37.1741725,81.7968852 C37.169458,81.3992805 37.2637476,81.0016758 37.3391792,80.6135378 C37.4664702,79.9508633 37.612619,79.2929222 37.7493389,78.634981 C37.8436285,78.1616421 37.947347,77.6883032 38.0322076,77.2149642 C38.1170682,76.7652922 38.1830709,76.3156202 38.2537881,75.8612149 C38.3120413,75.4704428 38.2960444,75.0721286 38.2066433,74.6873343 C38.1264972,74.3323301 38.2537881,73.9252586 38.3292198,73.5513208 C38.381079,73.2767842 38.498941,73.0164478 38.4612252,72.7371778 C38.4299215,72.7226978 38.3984904,72.708497 38.3669356,72.6945773 L38.3669356,72.6993107 Z" id="Path"></path>
                </g>
            </g>
        </g>
    </g>
</svg>