<?xml version="1.0" encoding="UTF-8"?>
<!--Generator: Apple Native CoreSVG 341-->
<!DOCTYPE svg
PUBLIC "-//W3C//DTD SVG 1.1//EN"
       "http://www.w3.org/Graphics/SVG/1.1/DTD/svg11.dtd">
<svg version="1.1" xmlns="http://www.w3.org/2000/svg" xmlns:xlink="http://www.w3.org/1999/xlink" viewBox="0 0 3300 2200">
 <!--glyph: "", point size: 100.0, font version: "20.0d10e1", template writer version: "138.0.0"-->
 <style>.monochrome-0 {-sfsymbols-motion-group:1;-sfsymbols-layer-tags:47e855a50d8ba5fb}
.monochrome-1 {-sfsymbols-motion-group:0;-sfsymbols-layer-tags:47e855a50d8ba5fb}

.multicolor-0:tintColor {-sfsymbols-motion-group:1;-sfsymbols-layer-tags:47e855a50d8ba5fb}
.multicolor-1:tintColor {-sfsymbols-motion-group:0;-sfsymbols-layer-tags:47e855a50d8ba5fb}

.hierarchical-0:primary {-sfsymbols-motion-group:1;-sfsymbols-layer-tags:47e855a50d8ba5fb}
.hierarchical-1:tertiary {-sfsymbols-motion-group:0;-sfsymbols-layer-tags:47e855a50d8ba5fb}

.SFSymbolsPreviewWireframe {fill:none;opacity:1.0;stroke:black;stroke-width:0.5}
</style>
 <g id="Notes">
  <rect height="2200" id="artboard" style="fill:white;opacity:1" width="3300" x="0" y="0"/>
  <line style="fill:none;stroke:black;opacity:1;stroke-width:0.5;" x1="263" x2="3036" y1="292" y2="292"/>
  <text style="stroke:none;fill:black;font-family:sans-serif;font-size:13;font-weight:bold;" transform="matrix(1 0 0 1 263 322)">Weight/Scale Variations</text>
  <text style="stroke:none;fill:black;font-family:sans-serif;font-size:13;text-anchor:middle;" transform="matrix(1 0 0 1 559.711 322)">Ultralight</text>
  <text style="stroke:none;fill:black;font-family:sans-serif;font-size:13;text-anchor:middle;" transform="matrix(1 0 0 1 856.422 322)">Thin</text>
  <text style="stroke:none;fill:black;font-family:sans-serif;font-size:13;text-anchor:middle;" transform="matrix(1 0 0 1 1153.13 322)">Light</text>
  <text style="stroke:none;fill:black;font-family:sans-serif;font-size:13;text-anchor:middle;" transform="matrix(1 0 0 1 1449.84 322)">Regular</text>
  <text style="stroke:none;fill:black;font-family:sans-serif;font-size:13;text-anchor:middle;" transform="matrix(1 0 0 1 1746.56 322)">Medium</text>
  <text style="stroke:none;fill:black;font-family:sans-serif;font-size:13;text-anchor:middle;" transform="matrix(1 0 0 1 2043.27 322)">Semibold</text>
  <text style="stroke:none;fill:black;font-family:sans-serif;font-size:13;text-anchor:middle;" transform="matrix(1 0 0 1 2339.98 322)">Bold</text>
  <text style="stroke:none;fill:black;font-family:sans-serif;font-size:13;text-anchor:middle;" transform="matrix(1 0 0 1 2636.69 322)">Heavy</text>
  <text style="stroke:none;fill:black;font-family:sans-serif;font-size:13;text-anchor:middle;" transform="matrix(1 0 0 1 2933.4 322)">Black</text>
  <line style="fill:none;stroke:black;opacity:1;stroke-width:0.5;" x1="263" x2="3036" y1="1903" y2="1903"/>
  <g transform="matrix(0.2 0 0 0.2 263 1933)">
   <path d="m46.2402 4.15039c21.7773 0 39.4531-17.627 39.4531-39.4043s-17.6758-39.4043-39.4531-39.4043c-21.7285 0-39.4043 17.627-39.4043 39.4043s17.6758 39.4043 39.4043 39.4043Zm0-7.42188c-17.6758 0-31.9336-14.3066-31.9336-31.9824s14.2578-31.9824 31.9336-31.9824 31.9824 14.3066 31.9824 31.9824-14.3066 31.9824-31.9824 31.9824Zm-17.9688-31.9824c0 2.14844 1.51367 3.61328 3.75977 3.61328h10.498v10.5957c0 2.19727 1.46484 3.71094 3.61328 3.71094 2.24609 0 3.71094-1.51367 3.71094-3.71094v-10.5957h10.5957c2.19727 0 3.71094-1.46484 3.71094-3.61328 0-2.19727-1.51367-3.71094-3.71094-3.71094h-10.5957v-10.5469c0-2.24609-1.46484-3.75977-3.71094-3.75977-2.14844 0-3.61328 1.51367-3.61328 3.75977v10.5469h-10.498c-2.24609 0-3.75977 1.51367-3.75977 3.71094Z"/>
  </g>
  <g transform="matrix(0.2 0 0 0.2 281.506 1933)">
   <path d="m58.5449 14.5508c27.4902 0 49.8047-22.3145 49.8047-49.8047s-22.3145-49.8047-49.8047-49.8047-49.8047 22.3145-49.8047 49.8047 22.3145 49.8047 49.8047 49.8047Zm0-8.30078c-22.9492 0-41.5039-18.5547-41.5039-41.5039s18.5547-41.5039 41.5039-41.5039 41.5039 18.5547 41.5039 41.5039-18.5547 41.5039-41.5039 41.5039Zm-22.6562-41.5039c0 2.39258 1.66016 4.00391 4.15039 4.00391h14.3555v14.4043c0 2.44141 1.66016 4.15039 4.05273 4.15039 2.44141 0 4.15039-1.66016 4.15039-4.15039v-14.4043h14.4043c2.44141 0 4.15039-1.61133 4.15039-4.00391 0-2.44141-1.70898-4.15039-4.15039-4.15039h-14.4043v-14.3555c0-2.49023-1.70898-4.19922-4.15039-4.19922-2.39258 0-4.05273 1.70898-4.05273 4.19922v14.3555h-14.3555c-2.49023 0-4.15039 1.70898-4.15039 4.15039Z"/>
  </g>
  <g transform="matrix(0.2 0 0 0.2 304.924 1933)">
   <path d="m74.8535 28.3203c35.1074 0 63.623-28.4668 63.623-63.5742s-28.5156-63.623-63.623-63.623-63.5742 28.5156-63.5742 63.623 28.4668 63.5742 63.5742 63.5742Zm0-9.08203c-30.127 0-54.4922-24.3652-54.4922-54.4922s24.3652-54.4922 54.4922-54.4922 54.4922 24.3652 54.4922 54.4922-24.3652 54.4922-54.4922 54.4922Zm-28.8574-54.4922c0 2.58789 1.85547 4.39453 4.58984 4.39453h19.7266v19.7754c0 2.68555 1.85547 4.58984 4.44336 4.58984 2.68555 0 4.54102-1.85547 4.54102-4.58984v-19.7754h19.7754c2.68555 0 4.58984-1.80664 4.58984-4.39453 0-2.73438-1.85547-4.58984-4.58984-4.58984h-19.7754v-19.7266c0-2.73438-1.85547-4.63867-4.54102-4.63867-2.58789 0-4.44336 1.9043-4.44336 4.63867v19.7266h-19.7266c-2.73438 0-4.58984 1.85547-4.58984 4.58984Z"/>
  </g>
  <text style="stroke:none;fill:black;font-family:sans-serif;font-size:13;font-weight:bold;" transform="matrix(1 0 0 1 263 1953)">Design Variations</text>
  <text style="stroke:none;fill:black;font-family:sans-serif;font-size:13;" transform="matrix(1 0 0 1 263 1971)">Symbols are supported in up to nine weights and three scales.</text>
  <text style="stroke:none;fill:black;font-family:sans-serif;font-size:13;" transform="matrix(1 0 0 1 263 1989)">For optimal layout with text and other symbols, vertically align</text>
  <text style="stroke:none;fill:black;font-family:sans-serif;font-size:13;" transform="matrix(1 0 0 1 263 2007)">symbols with the adjacent text.</text>
  <line style="fill:none;stroke:#00AEEF;stroke-width:0.5;opacity:1.0;" x1="776" x2="776" y1="1919" y2="1933"/>
  <g transform="matrix(0.2 0 0 0.2 776 1933)">
   <path d="m16.5527 0.78125c2.58789 0 3.85742-0.976562 4.78516-3.71094l6.29883-17.2363h28.8086l6.29883 17.2363c0.927734 2.73438 2.19727 3.71094 4.73633 3.71094 2.58789 0 4.24805-1.5625 4.24805-4.00391 0-0.830078-0.146484-1.61133-0.537109-2.63672l-22.9004-60.9863c-1.12305-2.97852-3.125-4.49219-6.25-4.49219-3.02734 0-5.07812 1.46484-6.15234 4.44336l-22.9004 61.084c-0.390625 1.02539-0.537109 1.80664-0.537109 2.63672 0 2.44141 1.5625 3.95508 4.10156 3.95508Zm13.4766-28.3691 11.8652-32.8613h0.244141l11.8652 32.8613Z"/>
  </g>
  <line style="fill:none;stroke:#00AEEF;stroke-width:0.5;opacity:1.0;" x1="792.836" x2="792.836" y1="1919" y2="1933"/>
  <text style="stroke:none;fill:black;font-family:sans-serif;font-size:13;font-weight:bold;" transform="matrix(1 0 0 1 776 1953)">Margins</text>
  <text style="stroke:none;fill:black;font-family:sans-serif;font-size:13;" transform="matrix(1 0 0 1 776 1971)">Leading and trailing margins on the left and right side of each symbol</text>
  <text style="stroke:none;fill:black;font-family:sans-serif;font-size:13;" transform="matrix(1 0 0 1 776 1989)">can be adjusted by modifying the x-location of the margin guidelines.</text>
  <text style="stroke:none;fill:black;font-family:sans-serif;font-size:13;" transform="matrix(1 0 0 1 776 2007)">Modifications are automatically applied proportionally to all</text>
  <text style="stroke:none;fill:black;font-family:sans-serif;font-size:13;" transform="matrix(1 0 0 1 776 2025)">scales and weights.</text>
  <g transform="matrix(0.2 0 0 0.2 1289 1933)">
   <path d="m14.209 9.32617 8.49609 8.54492c4.29688 4.3457 9.22852 4.05273 13.8672-1.07422l53.4668-58.9355-4.83398-4.88281-53.0762 58.3984c-1.75781 2.00195-3.41797 2.49023-5.76172 0.146484l-5.85938-5.81055c-2.34375-2.29492-1.80664-4.00391 0.195312-5.81055l57.373-54.0039-4.88281-4.83398-57.959 54.4434c-4.93164 4.58984-5.32227 9.47266-1.02539 13.8184Zm32.0801-90.9668c-2.09961 2.05078-2.24609 4.93164-1.07422 6.88477 1.17188 1.80664 3.4668 2.97852 6.68945 2.14844 7.32422-1.70898 14.9414-2.00195 22.0703 2.68555l-2.92969 7.27539c-1.70898 4.15039-0.830078 7.08008 1.85547 9.81445l11.4746 11.5723c2.44141 2.44141 4.49219 2.53906 7.32422 2.05078l5.32227-0.976562 3.32031 3.36914-0.195312 2.7832c-0.195312 2.49023 0.439453 4.39453 2.88086 6.78711l3.80859 3.71094c2.39258 2.39258 5.46875 2.53906 7.8125 0.195312l14.5508-14.5996c2.34375-2.34375 2.24609-5.32227-0.146484-7.71484l-3.85742-3.80859c-2.39258-2.39258-4.24805-3.17383-6.64062-2.97852l-2.88086 0.244141-3.22266-3.17383 1.2207-5.61523c0.634766-2.83203-0.146484-5.0293-3.07617-7.95898l-10.9863-10.9375c-16.6992-16.6016-38.8672-16.2109-53.3203-1.75781Zm7.4707 1.85547c12.1582-8.88672 28.6133-7.37305 39.7461 3.75977l12.1582 12.0605c1.17188 1.17188 1.36719 2.09961 1.02539 3.80859l-1.61133 7.42188 7.51953 7.42188 4.93164-0.292969c1.26953-0.0488281 1.66016 0.0488281 2.63672 1.02539l2.88086 2.88086-12.207 12.207-2.88086-2.88086c-0.976562-0.976562-1.12305-1.36719-1.07422-2.68555l0.341797-4.88281-7.4707-7.42188-7.61719 1.26953c-1.61133 0.341797-2.34375 0.195312-3.56445-0.976562l-10.0098-10.0098c-1.26953-1.17188-1.41602-2.00195-0.634766-3.85742l4.39453-10.4492c-7.8125-7.27539-17.9688-10.4004-28.125-7.42188-0.78125 0.195312-1.07422-0.439453-0.439453-0.976562Z"/>
  </g>
  <text style="stroke:none;fill:black;font-family:sans-serif;font-size:13;font-weight:bold;" transform="matrix(1 0 0 1 1289 1953)">Exporting</text>
  <text style="stroke:none;fill:black;font-family:sans-serif;font-size:13;" transform="matrix(1 0 0 1 1289 1971)">Symbols should be outlined when exporting to ensure the</text>
  <text style="stroke:none;fill:black;font-family:sans-serif;font-size:13;" transform="matrix(1 0 0 1 1289 1989)">design is preserved when submitting to Xcode.</text>
  <text id="template-version" style="stroke:none;fill:black;font-family:sans-serif;font-size:13;text-anchor:end;" transform="matrix(1 0 0 1 3036 1933)">Template v.6.0</text>
  <text style="stroke:none;fill:black;font-family:sans-serif;font-size:13;text-anchor:end;" transform="matrix(1 0 0 1 3036 1951)">Requires Xcode 16 or greater</text>
  <text id="descriptive-name" style="stroke:none;fill:black;font-family:sans-serif;font-size:13;text-anchor:end;" transform="matrix(1 0 0 1 3036 1969)">Generated from filtervogelgruppe-34</text>
  <text style="stroke:none;fill:black;font-family:sans-serif;font-size:13;text-anchor:end;" transform="matrix(1 0 0 1 3036 1987)">Typeset at 100.0 points</text>
  <text style="stroke:none;fill:black;font-family:sans-serif;font-size:13;" transform="matrix(1 0 0 1 263 726)">Small</text>
  <text style="stroke:none;fill:black;font-family:sans-serif;font-size:13;" transform="matrix(1 0 0 1 263 1156)">Medium</text>
  <text style="stroke:none;fill:black;font-family:sans-serif;font-size:13;" transform="matrix(1 0 0 1 263 1586)">Large</text>
 </g>
 <g id="Guides">
  <g id="H-reference" style="fill:#27AAE1;stroke:none;" transform="matrix(1 0 0 1 339 696)">
   <path d="M0.993654 0L3.63775 0L29.3281-67.1323L30.0303-67.1323L30.0303-70.459L28.1226-70.459ZM11.6885-24.4799L46.9815-24.4799L46.2315-26.7285L12.4385-26.7285ZM55.1196 0L57.7637 0L30.6382-70.459L29.4326-70.459L29.4326-67.1323Z"/>
  </g>
  <line id="Baseline-S" style="fill:none;stroke:#27AAE1;opacity:1;stroke-width:0.5;" x1="263" x2="3036" y1="696" y2="696"/>
  <line id="Capline-S" style="fill:none;stroke:#27AAE1;opacity:1;stroke-width:0.5;" x1="263" x2="3036" y1="625.541" y2="625.541"/>
  <g id="H-reference" style="fill:#27AAE1;stroke:none;" transform="matrix(1 0 0 1 339 1126)">
   <path d="M0.993654 0L3.63775 0L29.3281-67.1323L30.0303-67.1323L30.0303-70.459L28.1226-70.459ZM11.6885-24.4799L46.9815-24.4799L46.2315-26.7285L12.4385-26.7285ZM55.1196 0L57.7637 0L30.6382-70.459L29.4326-70.459L29.4326-67.1323Z"/>
  </g>
  <line id="Baseline-M" style="fill:none;stroke:#27AAE1;opacity:1;stroke-width:0.5;" x1="263" x2="3036" y1="1126" y2="1126"/>
  <line id="Capline-M" style="fill:none;stroke:#27AAE1;opacity:1;stroke-width:0.5;" x1="263" x2="3036" y1="1055.54" y2="1055.54"/>
  <g id="H-reference" style="fill:#27AAE1;stroke:none;" transform="matrix(1 0 0 1 339 1556)">
   <path d="M0.993654 0L3.63775 0L29.3281-67.1323L30.0303-67.1323L30.0303-70.459L28.1226-70.459ZM11.6885-24.4799L46.9815-24.4799L46.2315-26.7285L12.4385-26.7285ZM55.1196 0L57.7637 0L30.6382-70.459L29.4326-70.459L29.4326-67.1323Z"/>
  </g>
  <line id="Baseline-L" style="fill:none;stroke:#27AAE1;opacity:1;stroke-width:0.5;" x1="263" x2="3036" y1="1556" y2="1556"/>
  <line id="Capline-L" style="fill:none;stroke:#27AAE1;opacity:1;stroke-width:0.5;" x1="263" x2="3036" y1="1485.54" y2="1485.54"/>
  <line id="right-margin-Black-S" style="fill:none;stroke:#00AEEF;stroke-width:0.5;opacity:1.0;" x1="2982.23" x2="2982.23" y1="600.785" y2="720.121"/>
  <line id="left-margin-Black-S" style="fill:none;stroke:#00AEEF;stroke-width:0.5;opacity:1.0;" x1="2884.57" x2="2884.57" y1="600.785" y2="720.121"/>
  <line id="right-margin-Regular-S" style="fill:none;stroke:#00AEEF;stroke-width:0.5;opacity:1.0;" x1="1496.11" x2="1496.11" y1="600.785" y2="720.121"/>
  <line id="left-margin-Regular-S" style="fill:none;stroke:#00AEEF;stroke-width:0.5;opacity:1.0;" x1="1403.58" x2="1403.58" y1="600.785" y2="720.121"/>
  <line id="right-margin-Ultralight-S" style="fill:none;stroke:#00AEEF;stroke-width:0.5;opacity:1.0;" x1="603.773" x2="603.773" y1="600.785" y2="720.121"/>
  <line id="left-margin-Ultralight-S" style="fill:none;stroke:#00AEEF;stroke-width:0.5;opacity:1.0;" x1="515.649" x2="515.649" y1="600.785" y2="720.121"/>
 </g>
 <g id="Symbols">
  <g id="Black-S" transform="matrix(1 0 0 1 2884.57 696)">
   <path class="monochrome-0 multicolor-0:tintColor hierarchical-0:primary SFSymbolsPreviewWireframe" d="M59.935-23.6079C59.927-23.6359 59.935-23.7159 59.903-23.7279C59.6591-23.8359 59.7431-23.9678 59.815-24.1198C59.8594-24.1991 59.8707-24.2925 59.847-24.3798C59.7111-24.7437 59.847-25.0677 60.027-25.3916C60.083-25.4916 60.063-25.6156 60.079-25.7275C60.091-25.8315 60.091-25.9395 60.135-26.0355C60.255-26.2915 60.183-26.4354 59.855-26.5194C59.5198-26.6091 59.1808-26.6851 58.8392-26.7474C58.6972-26.7724 58.5513-26.754 58.4193-26.6954C57.4594-26.1755 56.3476-26.0155 55.2518-25.8355C54.6639-25.7355 54.064-25.6756 53.4681-25.6236C52.5243-25.5356 51.5764-25.4636 50.6286-25.4036C50.4166-25.3876 50.1966-25.4356 49.9807-25.4356C49.7681-25.4333 49.5558-25.4173 49.3448-25.3876C49.3168-25.3836 49.2728-25.2676 49.2968-25.2276C49.8087-24.5157 50.4806-23.9238 51.3685-23.5159C51.7764-23.3279 52.2363-23.212 52.6642-23.052C52.8202-22.992 52.9642-22.904 53.0962-22.812C53.6161-22.4441 54.044-22.0122 54.26-21.4763C54.4559-20.9963 54.368-20.5164 54.14-20.0445C54.0437-19.8199 53.8957-19.6209 53.7081-19.4639C53.5204-19.3069 53.2985-19.196 53.0602-19.1406C53.0042-19.1246 52.9402-19.0087 52.9482-18.9407C52.9882-18.4448 52.6962-18.0848 52.2363-17.8169C52.012-17.6846 51.7581-17.6102 51.4978-17.6006C51.2371-17.5906 50.9785-17.6459 50.7446-17.7609C50.3173-17.9538 49.9044-18.1768 49.5088-18.4288C49.4008-18.5007 49.4128-18.6927 49.3688-18.8287C49.5248-18.8567 49.6807-18.8967 49.8367-18.9007C49.9407-18.9007 50.0367-18.8327 50.1447-18.8127C50.2126-18.8007 50.2886-18.8167 50.3646-18.8207L50.2726-18.9687C50.5086-19.0487 50.4726-19.1206 50.2646-19.2526C50.205-19.2993 50.158-19.3606 50.1287-19.4306C50.0993-19.5006 50.0883-19.5772 50.0967-19.6526C50.174-19.9988 50.1273-20.3611 49.9647-20.6764C49.867-20.85 49.825-21.05 49.8447-21.2483C49.9327-21.7762 49.5008-22.1521 49.2968-22.5921C49.0648-23.088 48.7689-23.5639 48.4729-24.0398C48.241-24.4198 47.969-24.7877 47.7131-25.1596C47.6937-25.1823 47.6701-25.201 47.6431-25.214C47.6164-25.227 47.5871-25.2346 47.5571-25.2356C47.2251-25.2196 46.8892-25.2236 46.5653-25.1716C45.9394-25.0777 45.3165-24.963 44.6976-24.8277C44.4776-24.7797 44.2816-24.6517 44.0897-24.5397L41.6901-23.148C41.1102-22.812 40.5504-22.4561 39.9585-22.1361C39.3295-21.7759 38.7657-21.3123 38.2908-20.7644C37.9748-20.4204 37.6149-20.1045 37.2669-19.7805C36.963-19.5006 36.651-19.2246 36.3431-18.9487C35.9192-18.5687 35.4952-18.1848 35.0673-17.8089C34.6674-17.4489 34.2674-17.085 33.8355-16.749C33.0396-16.1291 32.2198-15.5292 31.4119-14.9173C31.152-14.7254 30.912-14.5134 30.648-14.3254C30.3441-14.1135 30.0201-13.9175 29.7002-13.7175C29.6361-13.6786 29.5632-13.6566 29.4882-13.6536C28.9229-13.6159 28.3552-13.6726 27.8085-13.8215C27.4824-13.9125 27.147-13.9662 26.8087-13.9815C25.7729-14.0575 24.741-14.1135 23.7052-14.1895C23.5429-14.1951 23.3829-14.2305 23.2333-14.2934C22.9853-14.4134 22.9933-14.6134 23.1253-14.9693C23.3653-15.5972 23.8372-16.1051 24.3691-16.5891C24.909-17.081 25.4169-17.5889 25.9608-18.0808C26.4127-18.4888 26.9087-18.8647 27.3606-19.2766C27.6005-19.4966 27.7605-19.7725 27.9925-20.0085C28.4204-20.4404 28.9363-20.8204 29.2283-21.3403C29.4122-21.6682 29.5962-22.0002 29.7962-22.3201C30.1601-22.9 30.5441-23.4679 30.904-24.0438C31.104-24.3718 31.2519-24.7237 31.4559-25.0477C31.6239-25.3276 31.8518-25.5796 32.0238-25.8515C32.2358-26.1875 32.4117-26.5394 32.6157-26.8794C32.9197-27.3833 33.2276-27.8792 33.5356-28.3791C33.8755-28.927 34.2234-29.4669 34.5474-30.0188C34.7873-30.4308 34.9793-30.8587 35.2273-31.2706C35.5152-31.7505 35.8432-32.2145 36.1391-32.6904C36.4271-33.1503 36.687-33.6262 36.979-34.0822C37.2149-34.4421 37.4829-34.786 37.7389-35.138L38.8187-36.6017C39.2586-37.2016 39.7025-37.7895 40.1385-38.3894C40.3624-38.6974 40.5624-39.0173 40.7784-39.3293C41.0782-39.7732 41.3701-40.2211 41.6901-40.6571C42.11-41.229 42.5339-41.8009 42.9898-42.3528C43.4098-42.8567 43.7977-43.3846 44.4176-43.7606C44.4736-43.7926 44.5176-43.8406 44.5616-43.8846C44.8935-44.2205 45.2135-44.5644 45.5614-44.8844C45.8974-45.2083 46.2733-45.5083 46.6092-45.8322C46.9372-46.1522 47.2171-46.4961 47.5491-46.8081C47.869-47.108 48.237-47.376 48.5769-47.6679C48.8729-47.9239 49.1568-48.1918 49.4488-48.4558L50.7126-49.6036C50.7696-49.6567 50.8205-49.7156 50.8645-49.7796C51.2645-50.3475 51.6644-50.9114 52.0563-51.4873C52.1363-51.5993 52.1243-51.7552 52.2043-51.8672C52.5203-52.3072 52.8602-52.7271 53.1722-53.167C53.4121-53.495 53.6281-53.8389 53.852-54.1788C53.872-54.2028 53.88-54.2348 53.892-54.2628C54.164-54.6908 54.4119-55.1227 54.7079-55.5426C55.1388-56.16 55.7754-56.6038 56.5036-56.7944C56.8715-56.8944 57.2115-57.0744 57.5834-57.1543C58.1313-57.2743 58.7032-57.3463 59.2591-57.4423C59.5591-57.4943 59.851-57.5783 60.155-57.6023C60.5429-57.6383 60.9309-57.6383 61.3228-57.6423C61.7427-57.6423 62.1627-57.6423 62.5826-57.6263C62.7506-57.6223 62.9145-57.5623 63.0825-57.5383C63.9224-57.4143 64.7582-57.2543 65.4901-56.8864C65.982-56.6424 66.4139-56.3185 66.8739-56.0305C67.0298-55.9345 67.2018-55.8466 67.3378-55.7346C67.5538-55.5506 67.7857-55.3706 67.9377-55.1547C68.1297-54.8787 68.4216-54.8187 68.7456-54.8267C69.1855-54.8307 69.6254-54.9147 70.0653-54.8987C70.8892-54.8667 71.7131-54.8187 72.5249-54.7108C73.1088-54.6308 73.6807-54.4588 74.2446-54.2948C74.5246-54.2148 74.7686-54.0629 75.0165-53.9229C75.0445-53.9109 74.9965-53.7349 74.9325-53.7069C74.6766-53.5949 74.3966-53.511 74.1327-53.415C73.7447-53.275 73.3768-53.103 72.9809-52.999C72.369-52.8391 71.7331-52.7351 71.1172-52.5911C70.7892-52.5111 70.4813-52.3911 70.1613-52.2992C69.9614-52.2392 69.7534-52.1792 69.5414-52.1392C68.9655-52.0352 68.6696-51.6633 68.4176-51.2993C68.2063-51.0134 68.074-50.6769 68.0337-50.3235C68.0017-49.8356 68.0657-49.3356 68.1657-48.8557C68.2696-48.3478 68.4536-47.8519 68.6336-47.356C68.7496-47.04 68.9295-46.7401 69.0655-46.4281C69.2135-46.0882 69.3495-45.7442 69.4774-45.4003C69.5694-45.1403 69.6854-44.8804 69.7174-44.6204C69.7494-44.2725 69.7094-43.9205 69.7054-43.5726C69.7054-43.4006 69.7174-43.2286 69.7014-43.0607C69.6534-42.6367 69.6134-42.2128 69.5254-41.7969C69.4374-41.3849 69.2855-40.981 69.1655-40.5771C69.0655-40.2371 68.9735-39.8972 68.8695-39.5532C68.7496-39.1453 68.6336-38.7374 68.4896-38.3374C68.2856-37.7775 68.0777-37.2216 67.8297-36.6777C67.5538-36.0778 67.2338-35.4899 66.9259-34.898C66.5469-34.1731 66.0953-33.4883 65.5781-32.8544C65.0982-32.2865 64.5503-31.7545 64.0863-31.1786C63.4104-30.3468 62.5146-29.6669 61.7347-28.907C61.3748-28.5511 60.8869-28.2791 60.4589-27.9672C60.4149-27.9312 60.351-27.8552 60.367-27.8312C60.4069-27.7832 60.4869-27.7272 60.5549-27.7192C60.8549-27.6952 61.1548-27.6832 61.4508-27.6752C61.7787-27.6632 62.1027-27.6632 62.4306-27.6552C62.7106-27.6472 62.9905-27.6592 63.2625-27.6232C63.8224-27.5472 64.4103-27.5192 64.8222-27.1513C64.9539-27.021 65.0562-26.8644 65.1222-26.6914C65.2981-26.2955 65.3221-25.8915 65.1662-25.4916C65.0662-25.2276 64.9342-24.9717 64.8702-24.7077C64.8342-24.5517 64.9102-24.3798 64.9222-24.2158C64.9342-24.1038 64.9502-23.9838 64.9182-23.8759C64.8142-23.5479 64.7302-23.208 64.5583-22.9C64.4823-22.764 64.2383-22.6721 64.0423-22.6001C63.7024-22.4721 63.3465-22.3601 62.9865-22.2721C62.6746-22.1921 62.4186-22.3321 62.2266-22.5121C61.9987-22.732 61.8187-22.98 61.5987-23.2C61.5141-23.2703 61.4088-23.3109 61.2988-23.3159C61.0628-23.3239 60.8269-23.292 60.5909-23.2959C60.5109-23.2959 60.4269-23.3399 60.351-23.3759C60.211-23.4479 60.079-23.5279 59.935-23.6119L59.935-23.6079Z"/>
   <path class="monochrome-1 multicolor-1:tintColor hierarchical-1:tertiary SFSymbolsPreviewWireframe" d="M48.9411-84C55.3091-84.0013 61.615-82.7479 67.4985-80.3116C73.382-77.8752 78.7279-74.3036 83.2305-69.8009C87.7334-65.2983 91.305-59.9524 93.7418-54.0682C96.1779-48.1846 97.4312-41.8789 97.43-35.5124C97.43-8.72255 75.7254 13 48.9424 13C22.156 13 0.43-8.726 0.43-35.5124C0.43-62.2926 22.1539-84 48.9411-84ZM48.9424-70C29.8835-70 14.43-54.5582 14.43-35.5124C14.43-16.458 29.888-0.999999 48.9424-0.999999C67.9909-0.999999 83.43-16.4519 83.43-35.5138C83.4309-40.0428 82.5395-44.5276 80.8069-48.7121C79.0739-52.8969 76.5337-56.6989 73.3311-59.9013C70.1287-63.1038 66.3266-65.644 62.1422-67.3767C57.9578-69.1095 53.4729-70.0009 48.9424-70Z"/>
  </g>
  <g id="Regular-S" transform="matrix(1 0 0 1 1403.58 696)">
   <path class="monochrome-0 multicolor-0:tintColor hierarchical-0:primary SFSymbolsPreviewWireframe" d="M57.5981-22.8652C57.5896-22.8949 57.5981-22.9798 57.5641-22.9925C57.3051-23.1072 57.3943-23.2473 57.4707-23.4087C57.5178-23.4929 57.5298-23.592 57.5047-23.6847C57.3603-24.0711 57.5047-24.415 57.6958-24.7589C57.7552-24.8651 57.734-24.9967 57.751-25.1156C57.7637-25.226 57.7637-25.3407 57.8104-25.4426C57.9378-25.7143 57.8614-25.8672 57.5132-25.9564C57.1572-26.0515 56.7973-26.1322 56.4347-26.1984C56.2839-26.2249 56.1289-26.2055 55.9888-26.1432C54.9697-25.5912 53.7893-25.4213 52.6259-25.2303C52.0017-25.1241 51.3647-25.0604 50.7321-25.0052C49.73-24.9118 48.7236-24.8354 47.7173-24.7717C47.4923-24.7547 47.2587-24.8056 47.0294-24.8056C46.8037-24.8032 46.5783-24.7862 46.3543-24.7547C46.3246-24.7504 46.2779-24.6273 46.3033-24.5848C46.8468-23.829 47.5602-23.2006 48.5028-22.7675C48.9359-22.5679 49.4243-22.4448 49.8786-22.2749C50.0442-22.2112 50.1971-22.1178 50.3372-22.0202C50.8892-21.6295 51.3435-21.1709 51.5728-20.602C51.7809-20.0924 51.6875-19.5829 51.4454-19.0818C51.3432-18.8433 51.1861-18.6321 50.9868-18.4654C50.7876-18.2988 50.552-18.1809 50.299-18.1222C50.2395-18.1052 50.1716-17.9821 50.1801-17.9099C50.2225-17.3834 49.9126-17.0012 49.4243-16.7167C49.1861-16.5762 48.9165-16.4973 48.6401-16.4871C48.3634-16.4765 48.0888-16.5352 47.8404-16.6573C47.3868-16.8622 46.9484-17.0989 46.5284-17.3664C46.4137-17.4428 46.4265-17.6466 46.3798-17.791C46.5454-17.8207 46.711-17.8632 46.8766-17.8674C46.987-17.8674 47.0889-17.7952 47.2035-17.774C47.2757-17.7613 47.3564-17.7783 47.4371-17.7825L47.3394-17.9396C47.5899-18.0245 47.5517-18.101 47.3309-18.2411C47.2676-18.2906 47.2177-18.3557 47.1865-18.43C47.1554-18.5044 47.1437-18.5857 47.1526-18.6657C47.2347-19.0334 47.1851-19.418 47.0124-19.7527C46.9088-19.9371 46.8642-20.1494 46.8851-20.3599C46.9785-20.9204 46.5199-21.3196 46.3033-21.7866C46.0571-22.3132 45.7428-22.8184 45.4286-23.3237C45.1823-23.7271 44.8936-24.1178 44.6219-24.5127C44.6013-24.5367 44.5762-24.5565 44.5475-24.5703C44.5192-24.5841 44.4881-24.5923 44.4563-24.5933C44.1038-24.5764 43.7471-24.5806 43.4032-24.5254C42.7387-24.4256 42.0773-24.3039 41.4203-24.1602C41.1867-24.1093 40.9787-23.9734 40.7748-23.8545L38.2271-22.3768C37.6115-22.0202 37.0171-21.6423 36.3887-21.3026C35.7209-20.9201 35.1223-20.4279 34.6181-19.8461C34.2826-19.481 33.9005-19.1455 33.531-18.8016C33.2083-18.5044 32.8771-18.2114 32.5502-17.9184C32.1001-17.515 31.65-17.1074 31.1957-16.7082C30.771-16.3261 30.3464-15.9397 29.8878-15.583C29.0429-14.9248 28.1724-14.2879 27.3147-13.6383C27.0387-13.4344 26.7839-13.2094 26.5037-13.0098C26.181-12.7848 25.837-12.5767 25.4973-12.3644C25.4293-12.323 25.3518-12.2997 25.2723-12.2965C24.672-12.2565 24.0693-12.3166 23.4889-12.4748C23.1427-12.5714 22.7865-12.6284 22.4274-12.6447C21.3276-12.7253 20.2321-12.7848 19.1323-12.8655C18.96-12.8715 18.7902-12.909 18.6313-12.9759C18.368-13.1032 18.3765-13.3156 18.5166-13.6935C18.7714-14.3601 19.2725-14.8994 19.8372-15.4132C20.4104-15.9354 20.9497-16.4747 21.5272-16.997C22.007-17.4301 22.5335-17.8292 23.0133-18.2666C23.2681-18.5001 23.4379-18.7931 23.6842-19.0436C24.1386-19.5022 24.6863-19.9056 24.9963-20.4576C25.1916-20.8058 25.3869-21.1582 25.5992-21.4979C25.9856-22.1136 26.3933-22.7165 26.7754-23.328C26.9877-23.6762 27.1448-24.0498 27.3614-24.3938C27.5397-24.691 27.7818-24.9585 27.9643-25.2472C28.1894-25.6039 28.3762-25.9776 28.5928-26.3385C28.9155-26.8735 29.2424-27.4 29.5694-27.9308C29.9303-28.5125 30.2997-29.0858 30.6437-29.6717C30.8984-30.1091 31.1022-30.5634 31.3655-31.0008C31.6712-31.5103 32.0194-32.0029 32.3336-32.5082C32.6394-32.9965 32.9154-33.5018 33.2253-33.9858C33.4758-34.368 33.7603-34.7332 34.0321-35.1068L35.1786-36.6609C35.6456-37.2978 36.117-37.922 36.5798-38.5589C36.8176-38.8859 37.0299-39.2256 37.2592-39.5568C37.5775-40.0281 37.8875-40.5037 38.2271-40.9665C38.673-41.5737 39.1231-42.1809 39.6071-42.7669C40.053-43.3019 40.4649-43.8624 41.123-44.2616C41.1825-44.2955 41.2292-44.3465 41.2759-44.3932C41.6283-44.7499 41.968-45.115 42.3374-45.4547C42.6941-45.7987 43.0932-46.1171 43.4499-46.4611C43.7981-46.8008 44.0953-47.1659 44.4478-47.4971C44.7875-47.8156 45.1781-48.1001 45.539-48.4101C45.8532-48.6818 46.1547-48.9663 46.4647-49.2465L47.8065-50.4652C47.867-50.5215 47.9211-50.5842 47.9678-50.652C48.3924-51.255 48.8171-51.8537 49.2332-52.4651C49.3181-52.584 49.3054-52.7496 49.3903-52.8685C49.7257-53.3356 50.0867-53.7814 50.4179-54.2485C50.6726-54.5967 50.9019-54.9619 51.1397-55.3228C51.1609-55.3483 51.1694-55.3822 51.1822-55.412C51.4709-55.8663 51.7342-56.3249 52.0484-56.7707C52.5059-57.4262 53.1817-57.8974 53.9549-58.0998C54.3455-58.2059 54.7065-58.397 55.1014-58.4819C55.6831-58.6093 56.2903-58.6857 56.8805-58.7877C57.199-58.8429 57.5089-58.932 57.8316-58.9575C58.2435-58.9957 58.6554-58.9957 59.0715-59C59.5174-59 59.9632-59 60.4091-58.983C60.5874-58.9787 60.7615-58.915 60.9398-58.8896C61.8315-58.7579 62.719-58.5881 63.496-58.1974C64.0183-57.9384 64.4769-57.5945 64.9652-57.2888C65.1308-57.1869 65.3134-57.0934 65.4577-56.9745C65.687-56.7792 65.9333-56.5881 66.0947-56.3589C66.2985-56.0659 66.6084-56.0022 66.9524-56.0107C67.4195-56.0149 67.8865-56.1041 68.3536-56.0871C69.2283-56.0531 70.103-56.0022 70.965-55.8875C71.5849-55.8026 72.1921-55.62 72.7908-55.4459C73.0881-55.361 73.3471-55.1997 73.6103-55.051C73.6401-55.0383 73.5891-54.8515 73.5212-54.8217C73.2494-54.7029 72.9522-54.6137 72.6719-54.5118C72.2601-54.3632 71.8694-54.1806 71.4491-54.0702C70.7994-53.9003 70.1243-53.7899 69.4703-53.6371C69.1222-53.5521 68.7952-53.4248 68.4555-53.3271C68.2432-53.2634 68.0224-53.1997 67.7974-53.1573C67.1859-53.0469 66.8717-52.652 66.6042-52.2656C66.3799-51.962 66.2394-51.6047 66.1966-51.2295C66.1626-50.7115 66.2305-50.1807 66.3367-49.6712C66.4471-49.1319 66.6424-48.6054 66.8335-48.0789C66.9566-47.7434 67.1477-47.4249 67.2921-47.0937C67.4492-46.7328 67.5935-46.3677 67.7294-46.0025C67.8271-45.7265 67.9502-45.4505 67.9842-45.1745C68.0182-44.8051 67.9757-44.4314 67.9715-44.062C67.9715-43.8794 67.9842-43.6968 67.9672-43.5184C67.9163-43.0684 67.8738-42.6183 67.7804-42.1767C67.687-41.7393 67.5256-41.3104 67.3982-40.8816C67.2921-40.5207 67.1944-40.1597 67.084-39.7946C66.9566-39.3615 66.8335-38.9284 66.6806-38.5037C66.4641-37.9093 66.2433-37.3191 65.98-36.7416C65.687-36.1047 65.3473-35.4805 65.0204-34.852C64.6181-34.0824 64.1386-33.3553 63.5894-32.6823C63.0799-32.0793 62.4982-31.5146 62.0056-30.9031C61.288-30.0199 60.3369-29.2981 59.5089-28.4913C59.1267-28.1134 58.6087-27.8247 58.1543-27.4935C58.1076-27.4552 58.0397-27.3746 58.0567-27.3491C58.0991-27.2981 58.1841-27.2387 58.2563-27.2302C58.5747-27.2047 58.8932-27.192 59.2074-27.1835C59.5556-27.1708 59.8995-27.1708 60.2477-27.1623C60.5449-27.1538 60.8422-27.1665 61.1309-27.1283C61.7254-27.0476 62.3495-27.0179 62.7869-26.6272C62.9267-26.4889 63.0353-26.3226 63.1054-26.1389C63.2922-25.7186 63.3177-25.2897 63.1521-24.8651C63.0459-24.5848 62.9058-24.3131 62.8379-24.0328C62.7996-23.8672 62.8803-23.6847 62.8931-23.5106C62.9058-23.3917 62.9228-23.2643 62.8888-23.1496C62.7784-22.8015 62.6892-22.4405 62.5067-22.1136C62.426-21.9692 62.167-21.8716 61.9589-21.7951C61.598-21.6592 61.2201-21.5404 60.8379-21.4469C60.5067-21.362 60.235-21.5106 60.0311-21.7017C59.7891-21.9352 59.598-22.1985 59.3645-22.432C59.2746-22.5067 59.1628-22.5499 59.046-22.5552C58.7955-22.5637 58.545-22.5297 58.2945-22.534C58.2095-22.534 58.1204-22.5807 58.0397-22.6189C57.8911-22.6953 57.751-22.7802 57.5981-22.8694L57.5981-22.8652Z"/>
   <path class="monochrome-1 multicolor-1:tintColor hierarchical-1:tertiary SFSymbolsPreviewWireframe" d="M46.4321-81.8365C52.4502-81.8377 58.4096-80.6532 63.9698-78.3508C69.53-76.0483 74.5822-72.6729 78.8374-68.4176C83.0928-64.1624 86.4682-59.1103 88.771-53.5496C91.0733-47.9892 92.2577-42.03 92.2566-36.0127C92.2566-10.693 71.744 9.83658 46.4328 9.83658C21.1173 9.83658 0.5835-10.6972 0.5835-36.0127C0.5835-61.3211 21.1145-81.8365 46.4321-81.8365ZM46.4328-75.0865C24.8413-75.0865 7.3335-57.592 7.3335-36.0127C7.3335-14.4252 24.8452 3.08658 46.4328 3.08658C68.0148 3.08658 85.5066-14.4197 85.5066-36.0133C85.5076-41.1447 84.4976-46.226 82.5345-50.9672C80.571-55.7085 77.693-60.0162 74.0644-63.6446C70.4361-67.273 66.1283-70.1511 61.3873-72.1143C56.6463-74.0776 51.5649-75.0875 46.4328-75.0865Z"/>
  </g>
  <g id="Ultralight-S" transform="matrix(1 0 0 1 515.649 696)">
   <path class="monochrome-0 multicolor-0:tintColor hierarchical-0:primary SFSymbolsPreviewWireframe" d="M55.5291-23.8652C55.5206-23.8949 55.5291-23.9798 55.4951-23.9925C55.2361-24.1072 55.3253-24.2473 55.4017-24.4087C55.4488-24.4929 55.4608-24.592 55.4357-24.6847C55.2913-25.0711 55.4357-25.415 55.6268-25.7589C55.6862-25.8651 55.665-25.9967 55.682-26.1156C55.6947-26.226 55.6947-26.3407 55.7414-26.4426C55.8688-26.7143 55.7924-26.8672 55.4442-26.9564C55.0882-27.0515 54.7283-27.1322 54.3657-27.1984C54.2149-27.2249 54.0599-27.2055 53.9198-27.1432C52.9007-26.5912 51.7203-26.4213 50.5569-26.2303C49.9327-26.1241 49.2957-26.0604 48.6631-26.0052C47.661-25.9118 46.6546-25.8354 45.6483-25.7717C45.4233-25.7547 45.1897-25.8056 44.9604-25.8056C44.7347-25.8032 44.5093-25.7862 44.2853-25.7547C44.2556-25.7504 44.2089-25.6273 44.2343-25.5848C44.7778-24.829 45.4912-24.2006 46.4338-23.7675C46.8669-23.5679 47.3553-23.4448 47.8096-23.2749C47.9752-23.2112 48.1281-23.1178 48.2682-23.0202C48.8202-22.6295 49.2745-22.1709 49.5038-21.602C49.7119-21.0924 49.6185-20.5829 49.3764-20.0818C49.2742-19.8433 49.1171-19.6321 48.9178-19.4654C48.7186-19.2988 48.483-19.1809 48.23-19.1222C48.1705-19.1052 48.1026-18.9821 48.1111-18.9099C48.1535-18.3834 47.8436-18.0012 47.3553-17.7167C47.1171-17.5762 46.8475-17.4973 46.5711-17.4871C46.2944-17.4765 46.0198-17.5352 45.7714-17.6573C45.3178-17.8622 44.8794-18.0989 44.4594-18.3664C44.3447-18.4428 44.3575-18.6466 44.3108-18.791C44.4764-18.8207 44.642-18.8632 44.8076-18.8674C44.918-18.8674 45.0199-18.7952 45.1345-18.774C45.2067-18.7613 45.2874-18.7783 45.3681-18.7825L45.2704-18.9396C45.5209-19.0245 45.4827-19.101 45.2619-19.2411C45.1986-19.2906 45.1487-19.3557 45.1175-19.43C45.0864-19.5044 45.0747-19.5857 45.0836-19.6657C45.1657-20.0334 45.1161-20.418 44.9434-20.7527C44.8398-20.9371 44.7952-21.1494 44.8161-21.3599C44.9095-21.9204 44.4509-22.3196 44.2343-22.7866C43.9881-23.3132 43.6738-23.8184 43.3596-24.3237C43.1133-24.7271 42.8246-25.1178 42.5529-25.5127C42.5323-25.5367 42.5072-25.5565 42.4785-25.5703C42.4502-25.5841 42.4191-25.5923 42.3873-25.5933C42.0348-25.5764 41.6781-25.5806 41.3342-25.5254C40.6697-25.4256 40.0083-25.3039 39.3513-25.1602C39.1177-25.1093 38.9097-24.9734 38.7058-24.8545L36.1581-23.3768C35.5425-23.0202 34.9481-22.6423 34.3197-22.3026C33.6519-21.9201 33.0533-21.4279 32.5491-20.8461C32.2136-20.481 31.8315-20.1455 31.462-19.8016C31.1393-19.5044 30.8081-19.2114 30.4812-18.9184C30.0311-18.515 29.581-18.1074 29.1267-17.7082C28.702-17.3261 28.2774-16.9397 27.8188-16.583C26.9739-15.9248 26.1034-15.2879 25.2457-14.6383C24.9697-14.4344 24.7149-14.2094 24.4347-14.0098C24.112-13.7848 23.768-13.5767 23.4283-13.3644C23.3603-13.323 23.2828-13.2997 23.2033-13.2965C22.603-13.2565 22.0003-13.3166 21.4199-13.4748C21.0737-13.5714 20.7175-13.6284 20.3584-13.6447C19.2586-13.7253 18.1631-13.7848 17.0633-13.8655C16.891-13.8715 16.7212-13.909 16.5623-13.9759C16.299-14.1032 16.3075-14.3156 16.4476-14.6935C16.7024-15.3601 17.2035-15.8994 17.7682-16.4132C18.3414-16.9354 18.8807-17.4747 19.4582-17.997C19.938-18.4301 20.4645-18.8292 20.9443-19.2666C21.1991-19.5001 21.3689-19.7931 21.6152-20.0436C22.0696-20.5022 22.6173-20.9056 22.9273-21.4576C23.1226-21.8058 23.3179-22.1582 23.5302-22.4979C23.9166-23.1136 24.3243-23.7165 24.7064-24.328C24.9187-24.6762 25.0758-25.0498 25.2924-25.3938C25.4707-25.691 25.7128-25.9585 25.8953-26.2472C26.1204-26.6039 26.3072-26.9776 26.5238-27.3385C26.8465-27.8735 27.1734-28.4 27.5004-28.9308C27.8613-29.5125 28.2307-30.0858 28.5747-30.6717C28.8294-31.1091 29.0332-31.5634 29.2965-32.0008C29.6022-32.5103 29.9504-33.0029 30.2646-33.5082C30.5704-33.9965 30.8464-34.5018 31.1563-34.9858C31.4068-35.368 31.6913-35.7332 31.9631-36.1068L33.1096-37.6609C33.5766-38.2978 34.048-38.922 34.5108-39.5589C34.7486-39.8859 34.9609-40.2256 35.1902-40.5568C35.5085-41.0281 35.8185-41.5037 36.1581-41.9665C36.604-42.5737 37.0541-43.1809 37.5381-43.7669C37.984-44.3019 38.3959-44.8624 39.054-45.2616C39.1135-45.2955 39.1602-45.3465 39.2069-45.3932C39.5593-45.7499 39.899-46.115 40.2684-46.4547C40.6251-46.7987 41.0242-47.1171 41.3809-47.4611C41.7291-47.8008 42.0263-48.1659 42.3788-48.4971C42.7185-48.8156 43.1091-49.1001 43.47-49.4101C43.7842-49.6818 44.0857-49.9663 44.3957-50.2465L45.7375-51.4652C45.798-51.5215 45.8521-51.5842 45.8988-51.652C46.3234-52.255 46.7481-52.8537 47.1642-53.4651C47.2491-53.584 47.2364-53.7496 47.3213-53.8685C47.6567-54.3356 48.0177-54.7814 48.3489-55.2485C48.6036-55.5967 48.8329-55.9619 49.0707-56.3228C49.0919-56.3483 49.1004-56.3822 49.1132-56.412C49.4019-56.8663 49.6652-57.3249 49.9794-57.7707C50.4369-58.4262 51.1127-58.8974 51.8859-59.0998C52.2765-59.2059 52.6375-59.397 53.0324-59.4819C53.6141-59.6093 54.2213-59.6857 54.8115-59.7877C55.13-59.8429 55.4399-59.932 55.7626-59.9575C56.1745-59.9957 56.5864-59.9957 57.0025-60C57.4484-60 57.8942-60 58.3401-59.983C58.5184-59.9787 58.6925-59.915 58.8708-59.8896C59.7625-59.7579 60.65-59.5881 61.427-59.1974C61.9493-58.9384 62.4079-58.5945 62.8962-58.2888C63.0618-58.1869 63.2444-58.0934 63.3887-57.9745C63.618-57.7792 63.8643-57.5881 64.0257-57.3589C64.2295-57.0659 64.5394-57.0022 64.8834-57.0107C65.3505-57.0149 65.8175-57.1041 66.2846-57.0871C67.1593-57.0531 68.034-57.0022 68.896-56.8875C69.5159-56.8026 70.1231-56.62 70.7218-56.4459C71.0191-56.361 71.2781-56.1997 71.5413-56.051C71.5711-56.0383 71.5201-55.8515 71.4522-55.8217C71.1804-55.7029 70.8832-55.6137 70.6029-55.5118C70.1911-55.3632 69.8004-55.1806 69.3801-55.0702C68.7304-54.9003 68.0553-54.7899 67.4013-54.6371C67.0532-54.5521 66.7262-54.4248 66.3865-54.3271C66.1742-54.2634 65.9534-54.1997 65.7284-54.1573C65.1169-54.0469 64.8027-53.652 64.5352-53.2656C64.3109-52.962 64.1704-52.6047 64.1276-52.2295C64.0936-51.7115 64.1615-51.1807 64.2677-50.6712C64.3781-50.1319 64.5734-49.6054 64.7645-49.0789C64.8876-48.7434 65.0787-48.4249 65.2231-48.0937C65.3802-47.7328 65.5245-47.3677 65.6604-47.0025C65.7581-46.7265 65.8812-46.4505 65.9152-46.1745C65.9492-45.8051 65.9067-45.4314 65.9025-45.062C65.9025-44.8794 65.9152-44.6968 65.8982-44.5184C65.8473-44.0684 65.8048-43.6183 65.7114-43.1767C65.618-42.7393 65.4566-42.3104 65.3292-41.8816C65.2231-41.5207 65.1254-41.1597 65.015-40.7946C64.8876-40.3615 64.7645-39.9284 64.6116-39.5037C64.3951-38.9093 64.1743-38.3191 63.911-37.7416C63.618-37.1047 63.2783-36.4805 62.9514-35.852C62.5491-35.0824 62.0696-34.3553 61.5204-33.6823C61.0109-33.0793 60.4292-32.5146 59.9366-31.9031C59.219-31.0199 58.2679-30.2981 57.4399-29.4913C57.0577-29.1134 56.5397-28.8247 56.0853-28.4935C56.0386-28.4552 55.9707-28.3746 55.9877-28.3491C56.0301-28.2981 56.1151-28.2387 56.1873-28.2302C56.5057-28.2047 56.8242-28.192 57.1384-28.1835C57.4866-28.1708 57.8305-28.1708 58.1787-28.1623C58.4759-28.1538 58.7732-28.1665 59.0619-28.1283C59.6564-28.0476 60.2805-28.0179 60.7179-27.6272C60.8577-27.4889 60.9663-27.3226 61.0364-27.1389C61.2232-26.7186 61.2487-26.2897 61.0831-25.8651C60.9769-25.5848 60.8368-25.3131 60.7689-25.0328C60.7306-24.8672 60.8113-24.6847 60.8241-24.5106C60.8368-24.3917 60.8538-24.2643 60.8198-24.1496C60.7094-23.8015 60.6202-23.4405 60.4377-23.1136C60.357-22.9692 60.098-22.8716 59.8899-22.7951C59.529-22.6592 59.1511-22.5404 58.7689-22.4469C58.4377-22.362 58.166-22.5106 57.9621-22.7017C57.7201-22.9352 57.529-23.1985 57.2955-23.432C57.2056-23.5067 57.0938-23.5499 56.977-23.5552C56.7265-23.5637 56.476-23.5297 56.2255-23.534C56.1405-23.534 56.0514-23.5807 55.9707-23.6189C55.8221-23.6953 55.682-23.7802 55.5291-23.8694L55.5291-23.8652Z"/>
   <path class="monochrome-1 multicolor-1:tintColor hierarchical-1:tertiary SFSymbolsPreviewWireframe" d="M44.3636-80.5865C50.0861-80.5876 55.7528-79.4613 61.04-77.272C66.3271-75.0826 71.1312-71.8729 75.1774-67.8265C79.2239-63.7803 82.4335-58.9764 84.6232-53.6889C86.8124-48.4015 87.9387-42.7349 87.9376-37.0127C87.9376-12.9352 68.432 6.58658 44.3638 6.58658C20.2909 6.58658 0.7645-12.9399 0.7645-37.0127C0.7645-61.0781 20.2877-80.5865 44.3636-80.5865ZM44.3638-78.3365C21.53-78.3365 3.0145-59.8351 3.0145-37.0127C3.0145-14.1825 21.5336 4.33658 44.3638 4.33658C67.1889 4.33658 85.6876-14.1774 85.6876-37.0129C85.6886-42.4398 84.6205-47.8138 82.5443-52.828C80.4678-57.8425 77.4239-62.3983 73.5865-66.2355C69.7491-70.073 65.1932-73.1168 60.1791-75.1931C55.1651-77.2695 49.791-78.3376 44.3638-78.3365Z"/>
  </g>
 </g>
</svg>
