<?xml version="1.0" encoding="UTF-8"?>
<!--Generator: Apple Native CoreSVG 341-->
<!DOCTYPE svg
PUBLIC "-//W3C//DTD SVG 1.1//EN"
       "http://www.w3.org/Graphics/SVG/1.1/DTD/svg11.dtd">
<svg version="1.1" xmlns="http://www.w3.org/2000/svg" xmlns:xlink="http://www.w3.org/1999/xlink" viewBox="0 0 3300 2200">
 <!--glyph: "", point size: 100.0, font version: "20.0d10e1", template writer version: "138.0.0"-->
 <style>.monochrome-0 {-sfsymbols-motion-group:1;-sfsymbols-layer-tags:-7c7ecbe60ff5d038}
.monochrome-1 {-sfsymbols-motion-group:0;-sfsymbols-layer-tags:-7c7ecbe60ff5d038}

.multicolor-0:tintColor {-sfsymbols-motion-group:1;-sfsymbols-layer-tags:-7c7ecbe60ff5d038}
.multicolor-1:tintColor {-sfsymbols-motion-group:0;-sfsymbols-layer-tags:-7c7ecbe60ff5d038}

.hierarchical-0:primary {-sfsymbols-motion-group:1;-sfsymbols-layer-tags:-7c7ecbe60ff5d038}
.hierarchical-1:tertiary {-sfsymbols-motion-group:0;-sfsymbols-layer-tags:-7c7ecbe60ff5d038}

.SFSymbolsPreviewWireframe {fill:none;opacity:1.0;stroke:black;stroke-width:0.5}
</style>
 <g id="Notes">
  <rect height="2200" id="artboard" style="fill:white;opacity:1" width="3300" x="0" y="0"/>
  <line style="fill:none;stroke:black;opacity:1;stroke-width:0.5;" x1="263" x2="3036" y1="292" y2="292"/>
  <text style="stroke:none;fill:black;font-family:sans-serif;font-size:13;font-weight:bold;" transform="matrix(1 0 0 1 263 322)">Weight/Scale Variations</text>
  <text style="stroke:none;fill:black;font-family:sans-serif;font-size:13;text-anchor:middle;" transform="matrix(1 0 0 1 559.711 322)">Ultralight</text>
  <text style="stroke:none;fill:black;font-family:sans-serif;font-size:13;text-anchor:middle;" transform="matrix(1 0 0 1 856.422 322)">Thin</text>
  <text style="stroke:none;fill:black;font-family:sans-serif;font-size:13;text-anchor:middle;" transform="matrix(1 0 0 1 1153.13 322)">Light</text>
  <text style="stroke:none;fill:black;font-family:sans-serif;font-size:13;text-anchor:middle;" transform="matrix(1 0 0 1 1449.84 322)">Regular</text>
  <text style="stroke:none;fill:black;font-family:sans-serif;font-size:13;text-anchor:middle;" transform="matrix(1 0 0 1 1746.56 322)">Medium</text>
  <text style="stroke:none;fill:black;font-family:sans-serif;font-size:13;text-anchor:middle;" transform="matrix(1 0 0 1 2043.27 322)">Semibold</text>
  <text style="stroke:none;fill:black;font-family:sans-serif;font-size:13;text-anchor:middle;" transform="matrix(1 0 0 1 2339.98 322)">Bold</text>
  <text style="stroke:none;fill:black;font-family:sans-serif;font-size:13;text-anchor:middle;" transform="matrix(1 0 0 1 2636.69 322)">Heavy</text>
  <text style="stroke:none;fill:black;font-family:sans-serif;font-size:13;text-anchor:middle;" transform="matrix(1 0 0 1 2933.4 322)">Black</text>
  <line style="fill:none;stroke:black;opacity:1;stroke-width:0.5;" x1="263" x2="3036" y1="1903" y2="1903"/>
  <g transform="matrix(0.2 0 0 0.2 263 1933)">
   <path d="m46.2402 4.15039c21.7773 0 39.4531-17.627 39.4531-39.4043s-17.6758-39.4043-39.4531-39.4043c-21.7285 0-39.4043 17.627-39.4043 39.4043s17.6758 39.4043 39.4043 39.4043Zm0-7.42188c-17.6758 0-31.9336-14.3066-31.9336-31.9824s14.2578-31.9824 31.9336-31.9824 31.9824 14.3066 31.9824 31.9824-14.3066 31.9824-31.9824 31.9824Zm-17.9688-31.9824c0 2.14844 1.51367 3.61328 3.75977 3.61328h10.498v10.5957c0 2.19727 1.46484 3.71094 3.61328 3.71094 2.24609 0 3.71094-1.51367 3.71094-3.71094v-10.5957h10.5957c2.19727 0 3.71094-1.46484 3.71094-3.61328 0-2.19727-1.51367-3.71094-3.71094-3.71094h-10.5957v-10.5469c0-2.24609-1.46484-3.75977-3.71094-3.75977-2.14844 0-3.61328 1.51367-3.61328 3.75977v10.5469h-10.498c-2.24609 0-3.75977 1.51367-3.75977 3.71094Z"/>
  </g>
  <g transform="matrix(0.2 0 0 0.2 281.506 1933)">
   <path d="m58.5449 14.5508c27.4902 0 49.8047-22.3145 49.8047-49.8047s-22.3145-49.8047-49.8047-49.8047-49.8047 22.3145-49.8047 49.8047 22.3145 49.8047 49.8047 49.8047Zm0-8.30078c-22.9492 0-41.5039-18.5547-41.5039-41.5039s18.5547-41.5039 41.5039-41.5039 41.5039 18.5547 41.5039 41.5039-18.5547 41.5039-41.5039 41.5039Zm-22.6562-41.5039c0 2.39258 1.66016 4.00391 4.15039 4.00391h14.3555v14.4043c0 2.44141 1.66016 4.15039 4.05273 4.15039 2.44141 0 4.15039-1.66016 4.15039-4.15039v-14.4043h14.4043c2.44141 0 4.15039-1.61133 4.15039-4.00391 0-2.44141-1.70898-4.15039-4.15039-4.15039h-14.4043v-14.3555c0-2.49023-1.70898-4.19922-4.15039-4.19922-2.39258 0-4.05273 1.70898-4.05273 4.19922v14.3555h-14.3555c-2.49023 0-4.15039 1.70898-4.15039 4.15039Z"/>
  </g>
  <g transform="matrix(0.2 0 0 0.2 304.924 1933)">
   <path d="m74.8535 28.3203c35.1074 0 63.623-28.4668 63.623-63.5742s-28.5156-63.623-63.623-63.623-63.5742 28.5156-63.5742 63.623 28.4668 63.5742 63.5742 63.5742Zm0-9.08203c-30.127 0-54.4922-24.3652-54.4922-54.4922s24.3652-54.4922 54.4922-54.4922 54.4922 24.3652 54.4922 54.4922-24.3652 54.4922-54.4922 54.4922Zm-28.8574-54.4922c0 2.58789 1.85547 4.39453 4.58984 4.39453h19.7266v19.7754c0 2.68555 1.85547 4.58984 4.44336 4.58984 2.68555 0 4.54102-1.85547 4.54102-4.58984v-19.7754h19.7754c2.68555 0 4.58984-1.80664 4.58984-4.39453 0-2.73438-1.85547-4.58984-4.58984-4.58984h-19.7754v-19.7266c0-2.73438-1.85547-4.63867-4.54102-4.63867-2.58789 0-4.44336 1.9043-4.44336 4.63867v19.7266h-19.7266c-2.73438 0-4.58984 1.85547-4.58984 4.58984Z"/>
  </g>
  <text style="stroke:none;fill:black;font-family:sans-serif;font-size:13;font-weight:bold;" transform="matrix(1 0 0 1 263 1953)">Design Variations</text>
  <text style="stroke:none;fill:black;font-family:sans-serif;font-size:13;" transform="matrix(1 0 0 1 263 1971)">Symbols are supported in up to nine weights and three scales.</text>
  <text style="stroke:none;fill:black;font-family:sans-serif;font-size:13;" transform="matrix(1 0 0 1 263 1989)">For optimal layout with text and other symbols, vertically align</text>
  <text style="stroke:none;fill:black;font-family:sans-serif;font-size:13;" transform="matrix(1 0 0 1 263 2007)">symbols with the adjacent text.</text>
  <line style="fill:none;stroke:#00AEEF;stroke-width:0.5;opacity:1.0;" x1="776" x2="776" y1="1919" y2="1933"/>
  <g transform="matrix(0.2 0 0 0.2 776 1933)">
   <path d="m16.5527 0.78125c2.58789 0 3.85742-0.976562 4.78516-3.71094l6.29883-17.2363h28.8086l6.29883 17.2363c0.927734 2.73438 2.19727 3.71094 4.73633 3.71094 2.58789 0 4.24805-1.5625 4.24805-4.00391 0-0.830078-0.146484-1.61133-0.537109-2.63672l-22.9004-60.9863c-1.12305-2.97852-3.125-4.49219-6.25-4.49219-3.02734 0-5.07812 1.46484-6.15234 4.44336l-22.9004 61.084c-0.390625 1.02539-0.537109 1.80664-0.537109 2.63672 0 2.44141 1.5625 3.95508 4.10156 3.95508Zm13.4766-28.3691 11.8652-32.8613h0.244141l11.8652 32.8613Z"/>
  </g>
  <line style="fill:none;stroke:#00AEEF;stroke-width:0.5;opacity:1.0;" x1="792.836" x2="792.836" y1="1919" y2="1933"/>
  <text style="stroke:none;fill:black;font-family:sans-serif;font-size:13;font-weight:bold;" transform="matrix(1 0 0 1 776 1953)">Margins</text>
  <text style="stroke:none;fill:black;font-family:sans-serif;font-size:13;" transform="matrix(1 0 0 1 776 1971)">Leading and trailing margins on the left and right side of each symbol</text>
  <text style="stroke:none;fill:black;font-family:sans-serif;font-size:13;" transform="matrix(1 0 0 1 776 1989)">can be adjusted by modifying the x-location of the margin guidelines.</text>
  <text style="stroke:none;fill:black;font-family:sans-serif;font-size:13;" transform="matrix(1 0 0 1 776 2007)">Modifications are automatically applied proportionally to all</text>
  <text style="stroke:none;fill:black;font-family:sans-serif;font-size:13;" transform="matrix(1 0 0 1 776 2025)">scales and weights.</text>
  <g transform="matrix(0.2 0 0 0.2 1289 1933)">
   <path d="m14.209 9.32617 8.49609 8.54492c4.29688 4.3457 9.22852 4.05273 13.8672-1.07422l53.4668-58.9355-4.83398-4.88281-53.0762 58.3984c-1.75781 2.00195-3.41797 2.49023-5.76172 0.146484l-5.85938-5.81055c-2.34375-2.29492-1.80664-4.00391 0.195312-5.81055l57.373-54.0039-4.88281-4.83398-57.959 54.4434c-4.93164 4.58984-5.32227 9.47266-1.02539 13.8184Zm32.0801-90.9668c-2.09961 2.05078-2.24609 4.93164-1.07422 6.88477 1.17188 1.80664 3.4668 2.97852 6.68945 2.14844 7.32422-1.70898 14.9414-2.00195 22.0703 2.68555l-2.92969 7.27539c-1.70898 4.15039-0.830078 7.08008 1.85547 9.81445l11.4746 11.5723c2.44141 2.44141 4.49219 2.53906 7.32422 2.05078l5.32227-0.976562 3.32031 3.36914-0.195312 2.7832c-0.195312 2.49023 0.439453 4.39453 2.88086 6.78711l3.80859 3.71094c2.39258 2.39258 5.46875 2.53906 7.8125 0.195312l14.5508-14.5996c2.34375-2.34375 2.24609-5.32227-0.146484-7.71484l-3.85742-3.80859c-2.39258-2.39258-4.24805-3.17383-6.64062-2.97852l-2.88086 0.244141-3.22266-3.17383 1.2207-5.61523c0.634766-2.83203-0.146484-5.0293-3.07617-7.95898l-10.9863-10.9375c-16.6992-16.6016-38.8672-16.2109-53.3203-1.75781Zm7.4707 1.85547c12.1582-8.88672 28.6133-7.37305 39.7461 3.75977l12.1582 12.0605c1.17188 1.17188 1.36719 2.09961 1.02539 3.80859l-1.61133 7.42188 7.51953 7.42188 4.93164-0.292969c1.26953-0.0488281 1.66016 0.0488281 2.63672 1.02539l2.88086 2.88086-12.207 12.207-2.88086-2.88086c-0.976562-0.976562-1.12305-1.36719-1.07422-2.68555l0.341797-4.88281-7.4707-7.42188-7.61719 1.26953c-1.61133 0.341797-2.34375 0.195312-3.56445-0.976562l-10.0098-10.0098c-1.26953-1.17188-1.41602-2.00195-0.634766-3.85742l4.39453-10.4492c-7.8125-7.27539-17.9688-10.4004-28.125-7.42188-0.78125 0.195312-1.07422-0.439453-0.439453-0.976562Z"/>
  </g>
  <text style="stroke:none;fill:black;font-family:sans-serif;font-size:13;font-weight:bold;" transform="matrix(1 0 0 1 1289 1953)">Exporting</text>
  <text style="stroke:none;fill:black;font-family:sans-serif;font-size:13;" transform="matrix(1 0 0 1 1289 1971)">Symbols should be outlined when exporting to ensure the</text>
  <text style="stroke:none;fill:black;font-family:sans-serif;font-size:13;" transform="matrix(1 0 0 1 1289 1989)">design is preserved when submitting to Xcode.</text>
  <text id="template-version" style="stroke:none;fill:black;font-family:sans-serif;font-size:13;text-anchor:end;" transform="matrix(1 0 0 1 3036 1933)">Template v.6.0</text>
  <text style="stroke:none;fill:black;font-family:sans-serif;font-size:13;text-anchor:end;" transform="matrix(1 0 0 1 3036 1951)">Requires Xcode 16 or greater</text>
  <text id="descriptive-name" style="stroke:none;fill:black;font-family:sans-serif;font-size:13;text-anchor:end;" transform="matrix(1 0 0 1 3036 1969)">Generated from filtervogelgruppe-23</text>
  <text style="stroke:none;fill:black;font-family:sans-serif;font-size:13;text-anchor:end;" transform="matrix(1 0 0 1 3036 1987)">Typeset at 100.0 points</text>
  <text style="stroke:none;fill:black;font-family:sans-serif;font-size:13;" transform="matrix(1 0 0 1 263 726)">Small</text>
  <text style="stroke:none;fill:black;font-family:sans-serif;font-size:13;" transform="matrix(1 0 0 1 263 1156)">Medium</text>
  <text style="stroke:none;fill:black;font-family:sans-serif;font-size:13;" transform="matrix(1 0 0 1 263 1586)">Large</text>
 </g>
 <g id="Guides">
  <g id="H-reference" style="fill:#27AAE1;stroke:none;" transform="matrix(1 0 0 1 339 696)">
   <path d="M0.993654 0L3.63775 0L29.3281-67.1323L30.0303-67.1323L30.0303-70.459L28.1226-70.459ZM11.6885-24.4799L46.9815-24.4799L46.2315-26.7285L12.4385-26.7285ZM55.1196 0L57.7637 0L30.6382-70.459L29.4326-70.459L29.4326-67.1323Z"/>
  </g>
  <line id="Baseline-S" style="fill:none;stroke:#27AAE1;opacity:1;stroke-width:0.5;" x1="263" x2="3036" y1="696" y2="696"/>
  <line id="Capline-S" style="fill:none;stroke:#27AAE1;opacity:1;stroke-width:0.5;" x1="263" x2="3036" y1="625.541" y2="625.541"/>
  <g id="H-reference" style="fill:#27AAE1;stroke:none;" transform="matrix(1 0 0 1 339 1126)">
   <path d="M0.993654 0L3.63775 0L29.3281-67.1323L30.0303-67.1323L30.0303-70.459L28.1226-70.459ZM11.6885-24.4799L46.9815-24.4799L46.2315-26.7285L12.4385-26.7285ZM55.1196 0L57.7637 0L30.6382-70.459L29.4326-70.459L29.4326-67.1323Z"/>
  </g>
  <line id="Baseline-M" style="fill:none;stroke:#27AAE1;opacity:1;stroke-width:0.5;" x1="263" x2="3036" y1="1126" y2="1126"/>
  <line id="Capline-M" style="fill:none;stroke:#27AAE1;opacity:1;stroke-width:0.5;" x1="263" x2="3036" y1="1055.54" y2="1055.54"/>
  <g id="H-reference" style="fill:#27AAE1;stroke:none;" transform="matrix(1 0 0 1 339 1556)">
   <path d="M0.993654 0L3.63775 0L29.3281-67.1323L30.0303-67.1323L30.0303-70.459L28.1226-70.459ZM11.6885-24.4799L46.9815-24.4799L46.2315-26.7285L12.4385-26.7285ZM55.1196 0L57.7637 0L30.6382-70.459L29.4326-70.459L29.4326-67.1323Z"/>
  </g>
  <line id="Baseline-L" style="fill:none;stroke:#27AAE1;opacity:1;stroke-width:0.5;" x1="263" x2="3036" y1="1556" y2="1556"/>
  <line id="Capline-L" style="fill:none;stroke:#27AAE1;opacity:1;stroke-width:0.5;" x1="263" x2="3036" y1="1485.54" y2="1485.54"/>
  <line id="right-margin-Black-S" style="fill:none;stroke:#00AEEF;stroke-width:0.5;opacity:1.0;" x1="2982.23" x2="2982.23" y1="600.785" y2="720.121"/>
  <line id="left-margin-Black-S" style="fill:none;stroke:#00AEEF;stroke-width:0.5;opacity:1.0;" x1="2884.57" x2="2884.57" y1="600.785" y2="720.121"/>
  <line id="right-margin-Regular-S" style="fill:none;stroke:#00AEEF;stroke-width:0.5;opacity:1.0;" x1="1496.11" x2="1496.11" y1="600.785" y2="720.121"/>
  <line id="left-margin-Regular-S" style="fill:none;stroke:#00AEEF;stroke-width:0.5;opacity:1.0;" x1="1403.58" x2="1403.58" y1="600.785" y2="720.121"/>
  <line id="right-margin-Ultralight-S" style="fill:none;stroke:#00AEEF;stroke-width:0.5;opacity:1.0;" x1="603.773" x2="603.773" y1="600.785" y2="720.121"/>
  <line id="left-margin-Ultralight-S" style="fill:none;stroke:#00AEEF;stroke-width:0.5;opacity:1.0;" x1="515.649" x2="515.649" y1="600.785" y2="720.121"/>
 </g>
 <g id="Symbols">
  <g id="Black-S" transform="matrix(1 0 0 1 2884.57 696)">
   <path class="monochrome-0 multicolor-0:tintColor hierarchical-0:primary SFSymbolsPreviewWireframe" d="M37.9735-13.4404C37.9415-13.2564 37.8935-13.0804 37.8855-12.8884C37.8455-12.0804 37.8175-11.2684 37.7775-10.4604C37.7615-10.1404 37.7495-9.78838 37.6855-9.52438C37.6375-9.34438 37.5015-9.20437 37.4017-9.19637C37.2577-9.18037 37.1457-9.36438 37.1737-9.77638L37.3497-12.2964C37.3591-12.3964 37.3564-12.4971 37.3417-12.5964C37.2137-11.8564 36.9097-11.2644 37.0097-10.3444C37.0497-9.92038 37.0017-9.75238 36.8137-9.68038C36.7777-9.66838 36.7497-9.58438 36.7177-9.56038C36.6524-9.51971 36.5808-9.48971 36.5057-9.47238C36.4297-9.45638 36.3377-9.52038 36.2777-9.44438C36.1017-9.23237 35.9177-9.32438 35.8297-9.73238C35.816-9.83205 35.8187-9.93338 35.8377-10.0324C36.0005-10.9181 36.0045-11.8254 35.8497-12.7124C35.8217-12.8884 35.7417-13.0244 35.6777-13.1924C35.4518-12.4544 35.353-11.6834 35.3858-10.9124C35.4046-10.4861 35.4046-10.0587 35.3858-9.63238C35.3738-9.31237 35.3218-8.95637 35.1298-9.00437C34.9618-9.04437 34.9098-9.34038 34.9018-9.68438L34.8658-10.8604C34.8658-10.9484 34.8498-11.0404 34.8378-11.1284L34.7738-11.1564C34.7258-10.8284 34.6698-10.5004 34.6298-10.1604C34.5898-9.85238 34.5738-9.52438 34.5338-9.21237C34.5258-9.13237 34.4538-9.01237 34.4258-9.03637C34.3578-9.09637 34.2458-9.21637 34.2458-9.32038C34.2378-9.80038 34.2618-10.2764 34.2818-10.7524C34.2898-10.9724 34.3138-11.1884 34.3298-11.4044L34.2618-11.4724C34.2298-11.3404 34.1898-11.2204 34.1658-11.0804C34.0738-10.5204 33.9978-9.94038 33.8938-9.39238C33.8538-9.16437 33.7658-8.95637 33.6258-9.10037C33.4498-9.27637 33.4538-9.65238 33.5058-9.93238C33.6378-10.6524 33.7698-11.4004 33.9658-12.0324C34.1818-12.7284 34.4698-13.3124 34.7338-13.9284C34.9218-14.3684 35.1218-14.7924 35.3218-15.2044C35.6417-15.8564 35.9737-16.4684 36.2817-17.1484C36.4786-17.6041 36.5557-18.1028 36.5057-18.5964C36.4497-19.4125 36.4377-20.2445 36.4177-21.0725C36.4057-21.5125 36.4297-21.9525 36.1777-22.1005C36.1057-22.1445 36.0657-22.4205 35.9977-22.5485C35.8137-22.8805 35.5977-23.1325 35.4378-23.5205C35.1898-24.1325 34.8498-24.3125 34.5538-24.6925C34.3018-25.0125 34.0778-25.4685 33.8458-25.8645C33.7968-25.9498 33.7434-26.0328 33.6858-26.1125C33.5258-26.3245 33.3578-26.5045 33.2058-26.7485C32.9713-27.1192 32.7551-27.5008 32.5578-27.8925C32.4098-28.1965 32.2978-28.5965 32.1458-28.9005C31.9218-29.3645 31.6658-29.7485 31.4458-30.2205C31.1938-30.7605 30.9698-31.3605 30.7418-31.9406C30.4979-32.5446 30.2619-33.1686 30.0219-33.7726C29.8379-34.2166 29.6339-34.6126 29.4619-35.0806C29.278-35.6119 29.1125-36.1496 28.9659-36.6926C28.7979-37.2806 28.6259-37.8646 28.5019-38.4966C28.3979-39.0086 28.3659-39.5966 28.2939-40.1366C28.1739-41.0046 28.0299-41.8486 27.9299-42.7206C27.8259-43.5886 27.7939-44.5006 27.6699-45.3447C27.4779-46.6567 27.2899-47.9767 26.8299-48.9887C26.5881-49.5798 26.4007-50.1917 26.2699-50.8167C26.0379-51.8007 25.8459-52.8367 25.638-53.8488C25.634-53.8728 25.622-53.9008 25.622-53.9288C25.646-54.6008 25.43-54.6048 25.242-54.6208C24.738-54.6648 24.234-54.6728 23.73-54.7088C23.63-54.7168 23.53-54.8008 23.43-54.8488C23.478-55.1048 23.498-55.4728 23.582-55.6008C23.822-55.9648 24.094-56.2408 24.354-56.5368C24.782-57.0248 25.242-57.1968 25.714-57.1768C25.8499-57.1688 25.9259-57.3368 25.9419-57.6288C26.0219-58.9408 26.3739-59.7088 26.8619-60.2328C27.2464-60.6305 27.7537-60.8869 28.3019-60.9608C28.7739-61.0528 29.2539-60.9608 29.7299-60.9088C30.1219-60.8688 30.5219-60.8408 30.9018-60.6528C31.2379-60.4384 31.5242-60.1548 31.7418-59.8208C32.1098-59.3368 32.4498-58.7568 32.7978-58.2128C33.0618-57.8008 33.3178-57.3608 33.5898-56.9768C33.7498-56.7608 33.9258-56.6408 34.0938-56.4648C34.3738-56.1688 34.6458-55.8568 34.9258-55.5648C35.0858-55.4048 35.2458-55.2448 35.4058-55.1208C35.7937-54.8288 36.1897-54.5888 36.5657-54.2728C36.9657-53.9448 37.3577-54.0768 37.7575-54.1128C38.0532-54.1226 38.3479-54.082 38.6295-53.9928C39.2295-53.8368 39.8295-53.6968 40.4255-53.4568C41.0335-53.2087 41.6335-52.8687 42.2334-52.5287C43.0174-52.0807 43.8054-51.6327 44.5814-51.1047C45.1414-50.7207 45.6814-50.2327 46.1654-49.4007C46.5014-48.8327 46.9373-48.5487 47.3373-48.2287C47.8413-47.8287 48.3493-47.4527 48.8653-47.1767C49.6613-46.7487 50.4653-46.3967 51.2653-46.0407C51.6652-45.8687 52.0652-45.7607 52.4612-45.6127C53.3412-45.2927 54.2212-45.0567 55.1172-45.0687C55.7372-45.0767 56.3572-45.0007 56.9811-45.0247C57.6251-45.0447 58.2731-45.1447 58.9211-45.2047C59.5371-45.2647 60.1531-45.2967 60.7691-45.3807C61.1011-45.4207 61.433-45.5567 61.769-45.6367C61.969-45.6847 62.173-45.7007 62.381-45.7447C63.061-45.8967 63.753-46.0207 64.433-46.2247C64.913-46.3647 65.389-46.6127 65.861-46.8327C66.3249-47.0407 66.7809-47.2887 67.2449-47.4927C67.9249-47.7927 68.6049-48.0847 69.2929-48.3407C70.2129-48.6887 71.1408-48.9247 72.0568-49.3447C72.5968-49.5927 73.1208-49.4647 73.6568-49.4807C73.7768-49.4807 73.8968-49.5367 74.0128-49.4887C74.1971-49.4106 74.3614-49.2916 74.4931-49.1407C74.5611-49.0607 74.6331-48.7967 74.6331-48.6207C74.6251-48.1647 74.7088-48.0527 74.8888-48.0367C75.0248-48.0247 75.1688-47.9167 75.2968-47.7847C75.4808-47.5927 75.4768-46.6967 75.2688-46.4727C75.0581-46.2297 74.7974-46.0347 74.5048-45.9007C74.0128-45.6887 73.5168-45.5647 73.0248-45.3887C72.9528-45.3647 72.8928-45.2407 72.7728-45.1007C72.8808-45.0487 72.9288-45.0087 72.9728-45.0047L73.9448-44.9527C74.1448-44.9407 74.3488-44.9607 74.5448-44.8967C74.6568-44.8567 74.7608-44.6807 74.8608-44.5486C74.8654-44.4633 74.8544-44.378 74.8288-44.2966C74.4168-43.6686 73.9528-43.4046 73.4688-43.3606C72.9088-43.3046 72.3528-43.2646 71.7968-43.1966C71.6368-43.1766 71.4812-43.0846 71.3252-43.0246L71.3252-42.8766C71.4332-42.8406 71.5408-42.7806 71.6488-42.7766C71.9008-42.7646 72.1528-42.8166 72.4008-42.7766C72.6888-42.7446 72.9731-42.6406 73.2571-42.5766C73.4051-42.5366 73.5088-42.3406 73.4888-42.0246C73.4748-41.83 73.4098-41.6426 73.3008-41.4806C72.9328-41.0126 72.5131-40.9926 72.1052-40.8806C71.6252-40.7446 71.1408-40.5446 70.6569-40.4326C70.1369-40.3086 69.6169-40.2686 69.0969-40.1526C68.9529-40.1206 68.8169-39.9286 68.6689-39.8566C68.2169-39.6246 67.7649-39.3566 67.3049-39.2246C66.8489-39.0926 66.3849-39.1166 65.925-39.0646C65.652-39.0336 65.3796-38.9933 65.109-38.9446C65.081-38.9406 65.057-38.8486 65.029-38.7966C65.069-38.7486 65.109-38.6606 65.145-38.6566C65.457-38.6246 65.769-38.6126 66.0849-38.5806C66.5369-38.5406 66.9889-38.4846 67.4449-38.4406C67.5249-38.4326 67.6049-38.4646 67.6849-38.4686C68.4969-38.5286 69.3089-38.6286 70.1209-38.6166C70.3729-38.6166 70.6249-38.3526 70.8728-38.1566C70.9328-38.1086 71.0008-37.8766 71.0048-37.7166C71.0072-37.5509 70.9715-37.3866 70.9008-37.2366C70.5809-36.6926 70.2049-36.4526 69.8209-36.3966C69.1729-36.3006 68.5209-36.2886 67.8729-36.2606C67.1889-36.2286 66.5049-36.2326 65.817-36.2046C65.189-36.1766 64.561-36.0846 63.937-36.0926C63.165-36.1006 62.401-36.1846 61.633-36.2246C61.337-36.2366 61.0451-36.2086 60.7531-36.2246C60.4731-36.2366 60.1891-36.3326 59.9131-36.2966C59.4171-36.2366 58.9131-36.2086 58.4331-35.9726C57.9651-35.7446 57.5211-35.2526 57.0611-34.9086C56.7655-34.6942 56.4568-34.4976 56.1372-34.3206C55.7452-34.0966 55.3492-33.8966 54.9532-33.6806C54.6825-33.5342 54.4159-33.3809 54.1532-33.2206C54.0829-33.1662 54.0345-33.0879 54.0172-33.0006C53.9372-32.5356 53.6999-32.1119 53.3452-31.8005C53.2852-31.7445 53.2292-31.6485 53.1732-31.5685C53.2132-31.4485 53.2412-31.2925 53.2932-31.2085C53.7119-30.5082 54.1519-29.8212 54.6132-29.1485C54.9292-28.7165 55.2372-28.2725 55.5572-27.9005C56.0972-27.2725 56.6451-26.6765 57.1971-26.1085C57.5851-25.7085 57.9851-25.3605 58.3811-25.0005C58.7811-24.6405 59.1811-24.2845 59.5851-23.9445C59.8891-23.6885 60.1971-23.4605 60.4971-23.2045C60.7931-22.9565 61.0851-22.6845 61.381-22.4285C61.452-22.3628 61.5297-22.3051 61.613-22.2565C62.121-21.9845 62.633-21.7285 63.137-21.4485C63.501-21.2485 63.865-21.0405 64.225-20.7805C64.385-20.6605 64.537-20.4205 64.689-20.2205C64.777-20.1005 64.849-19.9165 64.945-19.8325C65.185-19.6085 65.337-19.1645 65.329-18.6244C65.321-18.0044 65.293-17.3324 64.957-17.0164C64.589-16.6724 64.229-16.7644 63.857-16.8644C63.289-17.0204 62.717-17.1564 62.149-17.2964C61.949-17.3484 61.749-17.4044 61.549-17.4324C61.0771-17.4964 60.6091-17.5164 60.1411-17.6044C59.8091-17.6644 59.4811-17.8284 59.1491-17.9004C58.8051-17.9764 58.4611-18.0004 58.1171-18.0484L58.1051-17.9164C58.2731-17.7244 58.4491-17.5644 58.6051-17.3284C58.7931-17.0444 58.9571-16.6844 59.1411-16.3804C59.2091-16.2684 59.2971-16.1764 59.3811-16.1604C59.7851-16.0844 60.1251-15.6204 60.4851-15.2284C60.7411-14.9484 61.0331-14.8284 61.313-14.6964C61.581-14.5604 61.765-14.2564 61.833-13.6164C61.889-13.0844 61.765-12.7284 61.537-12.5724C60.9331-12.1604 60.3331-12.3884 59.7291-12.5324C59.1731-12.6684 58.6211-12.7644 58.0691-12.9324C57.5091-13.1004 56.9531-13.3484 56.3971-13.5444C55.8572-13.7284 55.3172-13.8924 54.7812-14.0564C54.4172-14.1684 54.0492-14.2284 53.6852-14.3764C53.2972-14.5284 52.9172-14.7764 52.5292-14.9444C52.1572-15.1044 51.7812-15.2244 51.4053-15.3564C50.9853-15.5044 50.5653-15.6164 50.1493-15.7964C49.6773-16.0044 49.2133-16.2844 48.7413-16.5164C48.4933-16.6364 48.2373-16.6884 47.9893-16.8204C47.6893-16.9804 47.3973-17.1964 47.1013-17.3804C46.8133-17.5524 46.5214-17.7124 46.2334-17.8724C45.9694-18.0204 45.7054-18.1404 45.4454-18.3124C44.8984-18.6754 44.3624-19.0541 43.8374-19.4485C43.4774-19.7205 43.1374-20.1045 42.7774-20.3565C42.3774-20.6365 41.9614-20.8365 41.5495-21.0525C41.2975-21.1805 41.0455-21.2605 40.7895-21.3645C40.7615-21.3765 40.7335-21.3965 40.7015-21.4045C40.3695-21.5165 40.3455-21.4885 40.2935-20.7325C40.2852-20.2835 40.1985-19.8398 40.0375-19.4205C39.9175-19.1565 39.8615-18.7564 39.7695-18.4204C39.7355-18.2951 39.6928-18.1721 39.6415-18.0524C39.3095-17.2684 38.9615-16.5004 38.6375-15.7004C38.4419-15.1751 38.4002-14.6047 38.5175-14.0564C38.7015-12.9924 38.8615-11.9044 39.0095-10.8164C39.0575-10.4644 39.0375-10.0644 39.0375-9.68838C39.0372-9.60004 39.0138-9.51304 38.9695-9.43638C38.9455-9.40838 38.8815-9.46838 38.8615-9.53238C38.7705-9.83338 38.6902-10.1377 38.6215-10.4444C38.4615-11.2044 38.3015-11.9724 38.1535-12.7404C38.1055-12.9764 38.0735-13.2284 38.0335-13.4724L37.9735-13.4404L37.9735-13.4404ZM35.4448-14.6113C35.4528-14.4393 35.3968-14.2312 35.4928-14.0912C35.7368-13.7432 35.9688-13.2832 36.3608-13.1312C36.8328-12.9432 37.4647-13.0112 38.0287-13.0152C38.5087-13.0232 38.7167-13.2552 38.8128-13.6552C38.9448-14.2152 39.0768-14.8353 39.4648-15.2753C40.3528-16.2793 41.6329-17.0353 42.2649-18.2194C42.5449-18.7554 43.1569-19.1834 43.3969-19.7274C43.5249-20.0154 43.2569-20.4834 43.0089-20.7834C42.8729-20.9434 42.3129-21.0634 42.1009-20.9634C41.3449-20.6274 40.5568-20.2714 39.9728-19.7754C39.1568-19.0834 38.5167-18.2554 37.7927-17.4953C37.3249-16.9993 36.9128-16.4553 36.3528-16.0433C35.8008-15.6393 35.3408-15.2633 35.4448-14.6113L35.4448-14.6113Z"/>
   <path class="monochrome-1 multicolor-1:tintColor hierarchical-1:tertiary SFSymbolsPreviewWireframe" d="M48.9411-84C55.3091-84.0013 61.615-82.7479 67.4985-80.3116C73.382-77.8752 78.7279-74.3036 83.2305-69.8009C87.7334-65.2983 91.305-59.9524 93.7418-54.0682C96.1779-48.1846 97.4312-41.8789 97.43-35.5124C97.43-8.72255 75.7254 13 48.9424 13C22.156 13 0.43-8.726 0.43-35.5124C0.43-62.2926 22.1539-84 48.9411-84ZM48.9424-70C29.8835-70 14.43-54.5582 14.43-35.5124C14.43-16.458 29.888-0.999999 48.9424-0.999999C67.9909-0.999999 83.43-16.4519 83.43-35.5138C83.4309-40.0428 82.5395-44.5276 80.8069-48.7121C79.0739-52.8969 76.5337-56.6989 73.3311-59.9013C70.1287-63.1038 66.3266-65.644 62.1422-67.3767C57.9578-69.1095 53.4729-70.0009 48.9424-70Z"/>
  </g>
  <g id="Regular-S" transform="matrix(1 0 0 1 1403.58 696)">
   <path class="monochrome-0 multicolor-0:tintColor hierarchical-0:primary SFSymbolsPreviewWireframe" d="M33.8589-13.514C33.8249-13.3187 33.774-13.1319 33.7655-12.928C33.723-12.0703 33.6933-11.2084 33.6508-10.3506C33.6338-10.0109 33.6211-9.63728 33.5532-9.35703C33.5022-9.16595 33.3578-9.01734 33.2519-9.00885C33.099-8.99186 32.9801-9.18719 33.0098-9.62454L33.1967-12.2996C33.2066-12.4058 33.2037-12.5126 33.1882-12.6181C33.0523-11.8325 32.7296-11.2041 32.8357-10.2275C32.8782-9.7774 32.8272-9.59906 32.6277-9.52263C32.5895-9.50989 32.5597-9.42072 32.5258-9.39525C32.4564-9.35208 32.3804-9.32023 32.3007-9.30183C32.22-9.28485 32.1224-9.35279 32.0587-9.27211C31.8719-9.04706 31.6765-9.14472 31.5831-9.57783C31.5685-9.68363 31.5714-9.7912 31.5916-9.89629C31.7644-10.8365 31.7686-11.7996 31.6043-12.7412C31.5746-12.928 31.4897-13.0724 31.4218-13.2508C31.1819-12.4673 31.077-11.6489 31.1118-10.8304C31.1318-10.3779 31.1318-9.92425 31.1118-9.47168C31.0991-9.13199 31.0439-8.75408 30.84-8.80503C30.6617-8.84749 30.6065-9.16171 30.598-9.52688L30.5598-10.7752C30.5598-10.8687 30.5428-10.9663 30.5301-11.0597L30.4621-11.0895C30.4112-10.7413 30.3517-10.3931 30.3093-10.0322C30.2668-9.70522 30.2498-9.35703 30.2074-9.02583C30.1989-8.94091 30.1224-8.81352 30.0927-8.839C30.0205-8.90269 29.9016-9.03008 29.9016-9.14048C29.8931-9.65002 29.9186-10.1553 29.9399-10.6606C29.9483-10.8941 29.9738-11.1234 29.9908-11.3527L29.9186-11.4249C29.8847-11.2848 29.8422-11.1574 29.8167-11.0088C29.7191-10.4143 29.6384-9.79863 29.528-9.21691C29.4855-8.97488 29.3921-8.75408 29.2435-8.90694C29.0567-9.09377 29.0609-9.49291 29.1161-9.79014C29.2562-10.5544 29.3963-11.3485 29.6044-12.0194C29.8337-12.7582 30.1394-13.3781 30.4197-14.032C30.6192-14.4991 30.8315-14.9492 31.0439-15.3866C31.3835-16.0787 31.736-16.7284 32.0629-17.4502C32.2719-17.9339 32.3538-18.4633 32.3007-18.9873C32.2413-19.8535 32.2285-20.7367 32.2073-21.6157C32.1946-22.0828 32.22-22.5498 31.9525-22.7069C31.8761-22.7536 31.8336-23.0466 31.7615-23.1825C31.5661-23.5349 31.3368-23.8024 31.167-24.2143C30.9037-24.864 30.5428-25.0551 30.2286-25.4584C29.9611-25.7981 29.7233-26.2822 29.477-26.7026C29.425-26.7932 29.3683-26.8813 29.3072-26.9658C29.1373-27.1909 28.959-27.382 28.7976-27.641C28.5487-28.0344 28.3192-28.4396 28.1098-28.8554C27.9527-29.1781 27.8338-29.6027 27.6724-29.9254C27.4346-30.418 27.1629-30.8256 26.9293-31.3266C26.6618-31.8999 26.424-32.5368 26.182-33.1525C25.923-33.7936 25.6725-34.456 25.4177-35.0972C25.2224-35.5685 25.0058-35.9889 24.8232-36.4857C24.628-37.0497 24.4524-37.6205 24.2967-38.1969C24.1184-38.8211 23.9358-39.441 23.8042-40.1119C23.6938-40.6554 23.6598-41.2796 23.5834-41.8528C23.456-42.7743 23.3031-43.6702 23.197-44.5959C23.0866-45.5173 23.0526-46.4854 22.921-47.3813C22.7171-48.7741 22.5176-50.1753 22.0293-51.2496C21.7726-51.8771 21.5736-52.5266 21.4348-53.1901C21.1885-54.2347 20.9847-55.3344 20.7639-56.4087C20.7597-56.4342 20.7469-56.4639 20.7469-56.4936C20.7724-57.207 20.5431-57.2112 20.3435-57.2282C19.8085-57.2749 19.2735-57.2834 18.7385-57.3216C18.6323-57.3301 18.5262-57.4193 18.42-57.4702C18.471-57.742 18.4922-58.1326 18.5814-58.2685C18.8362-58.6549 19.1249-58.9479 19.4009-59.2621C19.8552-59.7801 20.3435-59.9627 20.8446-59.9415C20.989-59.933 21.0696-60.1113 21.0866-60.4213C21.1715-61.8141 21.5452-62.6293 22.0632-63.1856C22.4714-63.6077 23.0099-63.8799 23.5919-63.9584C24.0929-64.056 24.6024-63.9584 25.1077-63.9032C25.5239-63.8607 25.9485-63.831 26.3519-63.6314C26.7086-63.4038 27.0126-63.1027 27.2435-62.7482C27.6342-62.2344 27.9951-61.6187 28.3645-61.0413C28.6448-60.6039 28.9165-60.1368 29.2053-59.7292C29.3751-59.4999 29.5619-59.3725 29.7403-59.1857C30.0375-58.8715 30.3263-58.5403 30.6235-58.2303C30.7933-58.0605 30.9632-57.8906 31.133-57.759C31.5449-57.449 31.9653-57.1942 32.3644-56.8588C32.789-56.5106 33.2051-56.6507 33.6296-56.6889C33.9434-56.6994 34.2562-56.6563 34.5552-56.5616C35.1922-56.396 35.8291-56.2473 36.4618-55.9926C37.1072-55.7293 37.7441-55.3684 38.381-55.0075C39.2133-54.5319 40.0498-54.0563 40.8735-53.4958C41.468-53.0882 42.0412-52.5702 42.555-51.687C42.9117-51.084 43.3745-50.7825 43.7991-50.4429C44.3341-50.0182 44.8734-49.6191 45.4212-49.3261C46.2661-48.8717 47.1196-48.4981 47.9688-48.1202C48.3935-47.9376 48.8181-47.8229 49.2384-47.6658C50.1726-47.3261 51.1068-47.0756 52.0579-47.0884C52.716-47.0968 53.3742-47.0162 54.0366-47.0416C54.7202-47.0629 55.4081-47.169 56.096-47.2327C56.7499-47.2964 57.4038-47.3304 58.0577-47.4196C58.4101-47.462 58.7626-47.6064 59.1192-47.6913C59.3316-47.7423 59.5481-47.7592 59.7689-47.806C60.4908-47.9673 61.2253-48.0989 61.9472-48.3155C62.4567-48.4641 62.962-48.7274 63.4631-48.9609C63.9556-49.1817 64.4397-49.445 64.9322-49.6616C65.6541-49.98 66.3759-50.29 67.1063-50.5617C68.0829-50.9312 69.068-51.1817 70.0404-51.6275C70.6136-51.8908 71.1698-51.7549 71.7388-51.7719C71.8662-51.7719 71.9936-51.8313 72.1167-51.7804C72.3124-51.6975 72.4868-51.5712 72.6266-51.411C72.6988-51.3261 72.7752-51.0458 72.7752-50.859C72.7667-50.3749 72.8556-50.256 73.0466-50.239C73.191-50.2263 73.3439-50.1117 73.4797-49.9715C73.6751-49.7677 73.6708-48.8165 73.45-48.5788C73.2264-48.3208 72.9497-48.1138 72.639-47.9716C72.1167-47.7465 71.5902-47.6149 71.0679-47.428C70.9915-47.4026 70.9278-47.2709 70.8004-47.1223C70.9151-47.0671 70.966-47.0247 71.0127-47.0204L72.0445-46.9652C72.2568-46.9525 72.4734-46.9737 72.6815-46.9058C72.8004-46.8633 72.9108-46.6765 73.0169-46.5364C73.0219-46.4458 73.0102-46.3552 72.9829-46.2688C72.5456-45.6022 72.053-45.322 71.5392-45.2752C70.9448-45.2158 70.3546-45.1733 69.7644-45.1012C69.5945-45.0799 69.4293-44.9823 69.2637-44.9186L69.2637-44.7615C69.3783-44.7232 69.4926-44.6596 69.6072-44.6553C69.8748-44.6426 70.1423-44.6978 70.4055-44.6553C70.7112-44.6213 71.0131-44.5109 71.3146-44.443C71.4717-44.4005 71.5817-44.1925 71.5605-43.857C71.5456-43.6504 71.4766-43.4515 71.3609-43.2796C70.9703-42.7828 70.5248-42.7615 70.0917-42.6426C69.5821-42.4983 69.068-42.286 68.5542-42.1671C68.0022-42.0354 67.4502-41.993 66.8982-41.8698C66.7453-41.8359 66.601-41.632 66.4439-41.5556C65.964-41.3093 65.4842-41.0248 64.9959-40.8847C64.5119-40.7446 64.0193-40.7701 63.531-40.7149C63.2412-40.682 62.9521-40.6392 62.6648-40.5875C62.6351-40.5832 62.6096-40.4856 62.5799-40.4304C62.6223-40.3794 62.6648-40.286 62.703-40.2818C63.0342-40.2478 63.3654-40.2351 63.7008-40.2011C64.1807-40.1586 64.6605-40.0992 65.1445-40.0525C65.2295-40.044 65.3144-40.078 65.3993-40.0822C66.2613-40.1459 67.1232-40.252 67.9852-40.2393C68.2527-40.2393 68.5202-39.9591 68.7835-39.751C68.8472-39.7 68.9194-39.4538 68.9236-39.2839C68.9261-39.1081 68.8882-38.9336 68.8132-38.7744C68.4735-38.1969 68.0744-37.9421 67.6668-37.8827C66.9789-37.7808 66.2868-37.768 65.5989-37.7383C64.8728-37.7044 64.1467-37.7086 63.4164-37.6789C62.7497-37.6492 62.0831-37.5515 61.4207-37.56C60.6012-37.5685 59.7901-37.6576 58.9749-37.7001C58.6607-37.7128 58.3507-37.6831 58.0407-37.7001C57.7435-37.7128 57.442-37.8148 57.149-37.7765C56.6225-37.7128 56.0875-37.6831 55.578-37.4326C55.0812-37.1906 54.6098-36.6683 54.1215-36.3031C53.8077-36.0756 53.48-35.8668 53.1407-35.6789C52.7245-35.4412 52.3042-35.2288 51.8838-34.9996C51.5965-34.8442 51.3134-34.6814 51.0346-34.5112C50.9599-34.4536 50.9086-34.3704 50.8902-34.2777C50.8053-33.7841 50.5533-33.3344 50.1768-33.0039C50.1132-32.9444 50.0537-32.8425 49.9943-32.7576C50.0367-32.6302 50.0664-32.4646 50.1216-32.3754C50.5661-31.632 51.0332-30.9027 51.5229-30.1887C51.8583-29.7301 52.1853-29.2588 52.525-28.8639C53.0982-28.1972 53.6799-27.5645 54.2659-26.9616C54.6778-26.537 55.1024-26.1676 55.5228-25.7854C55.9474-25.4032 56.372-25.0253 56.8008-24.6644C57.1236-24.3927 57.4505-24.1506 57.769-23.8789C58.0832-23.6156 58.3932-23.3269 58.7074-23.0551C58.7827-22.9854 58.8652-22.9242 58.9536-22.8725C59.4929-22.5838 60.0364-22.312 60.5714-22.0148C60.9578-21.8025 61.3442-21.5817 61.7264-21.3057C61.8962-21.1783 62.0576-20.9236 62.2189-20.7112C62.3124-20.5839 62.3888-20.3885 62.4907-20.2994C62.7455-20.0616 62.9068-19.5903 62.8983-19.017C62.8898-18.3589 62.8601-17.6455 62.5034-17.3101C62.1128-16.9449 61.7306-17.0426 61.3357-17.1487C60.7328-17.3143 60.1256-17.4587 59.5226-17.6073C59.3103-17.6625 59.098-17.722 58.8857-17.7517C58.3847-17.8196 57.8879-17.8408 57.3911-17.9343C57.0386-17.998 56.6904-18.172 56.338-18.2485C55.9728-18.3292 55.6077-18.3546 55.2425-18.4056L55.2298-18.2655C55.4081-18.0616 55.5949-17.8918 55.7605-17.6413C55.9601-17.3398 56.1342-16.9576 56.3295-16.6349C56.4017-16.516 56.4951-16.4184 56.5843-16.4014C57.0132-16.3207 57.3741-15.8282 57.7562-15.412C58.028-15.1148 58.338-14.9874 58.6352-14.8473C58.9197-14.7029 59.115-14.3802 59.1872-13.7008C59.2466-13.1361 59.115-12.7582 58.873-12.5926C58.2318-12.1552 57.5949-12.3973 56.9537-12.5501C56.3635-12.6945 55.7775-12.7964 55.1916-12.9748C54.5971-13.1531 54.0069-13.4164 53.4167-13.6244C52.8434-13.8197 52.2702-13.9938 51.7012-14.1679C51.3148-14.2868 50.9242-14.3505 50.5378-14.5076C50.1259-14.669 49.7225-14.9322 49.3106-15.1106C48.9157-15.2804 48.5166-15.4078 48.1175-15.5479C47.6716-15.705 47.2258-15.8239 46.7842-16.015C46.2831-16.2358 45.7906-16.533 45.2895-16.7793C45.0263-16.9067 44.7545-16.9619 44.4912-17.102C44.1728-17.2719 43.8628-17.5012 43.5486-17.6965C43.2429-17.8791 42.9329-18.0489 42.6272-18.2188C42.3469-18.3759 42.0667-18.5032 41.7907-18.6858C41.21-19.0712 40.641-19.4731 40.0837-19.8917C39.7016-20.1805 39.3407-20.5881 38.9585-20.8556C38.5339-21.1528 38.0923-21.3652 37.6549-21.5944C37.3874-21.7303 37.1199-21.8152 36.8482-21.9256C36.8184-21.9384 36.7887-21.9596 36.7548-21.9681C36.4023-22.087 36.3768-22.0573 36.3216-21.2548C36.3128-20.7781 36.2208-20.3072 36.0499-19.862C35.9225-19.5818 35.8631-19.1572 35.7654-18.8005C35.7293-18.6674 35.684-18.5369 35.6295-18.4098C35.2771-17.5776 34.9077-16.7623 34.5637-15.9131C34.356-15.3554 34.3118-14.75 34.4364-14.1679C34.6317-13.0384 34.8015-11.8835 34.9586-10.7285C35.0096-10.3549 34.9884-9.93026 34.9884-9.53112C34.988-9.43735 34.9632-9.345 34.9162-9.26362C34.8907-9.23389 34.8228-9.29759 34.8015-9.36552C34.7049-9.68505 34.6196-10.0081 34.5468-10.3336C34.3769-11.1404 34.2071-11.9557 34.05-12.7709C33.999-13.0215 33.965-13.289 33.9226-13.548L33.8589-13.514L33.8589-13.514ZM31.1755-14.7581C31.184-14.5756 31.1245-14.3548 31.2264-14.2061C31.4855-13.8367 31.7317-13.3484 32.1479-13.1871C32.6489-12.9875 33.3196-13.0597 33.9183-13.0639C34.4279-13.0724 34.6487-13.3187 34.7506-13.7433C34.8907-14.3378 35.0308-14.9959 35.4427-15.463C36.3853-16.5288 37.7441-17.3313 38.415-18.5882C38.7122-19.1572 39.3619-19.6115 39.6167-20.189C39.7525-20.4947 39.468-20.9915 39.2048-21.31C39.0604-21.4798 38.466-21.6072 38.2409-21.501C37.4384-21.1444 36.6019-20.7664 35.982-20.2399C35.1157-19.5053 34.4364-18.6264 33.6678-17.8196C33.1712-17.2931 32.7338-16.7156 32.1394-16.2783C31.5534-15.8494 31.0651-15.4503 31.1755-14.7581L31.1755-14.7581Z"/>
   <path class="monochrome-1 multicolor-1:tintColor hierarchical-1:tertiary SFSymbolsPreviewWireframe" d="M46.4321-81.8365C52.4502-81.8377 58.4096-80.6532 63.9698-78.3508C69.53-76.0483 74.5822-72.6729 78.8374-68.4176C83.0928-64.1624 86.4682-59.1103 88.771-53.5496C91.0733-47.9892 92.2577-42.03 92.2566-36.0127C92.2566-10.693 71.744 9.83658 46.4328 9.83658C21.1173 9.83658 0.5835-10.6972 0.5835-36.0127C0.5835-61.3211 21.1145-81.8365 46.4321-81.8365ZM46.4328-75.0865C24.8413-75.0865 7.3335-57.592 7.3335-36.0127C7.3335-14.4252 24.8452 3.08658 46.4328 3.08658C68.0148 3.08658 85.5066-14.4197 85.5066-36.0133C85.5076-41.1447 84.4976-46.226 82.5345-50.9672C80.571-55.7085 77.693-60.0162 74.0644-63.6446C70.4361-67.273 66.1283-70.1511 61.3873-72.1143C56.6463-74.0776 51.5649-75.0875 46.4328-75.0865Z"/>
  </g>
  <g id="Ultralight-S" transform="matrix(1 0 0 1 515.649 696)">
   <path class="monochrome-0 multicolor-0:tintColor hierarchical-0:primary SFSymbolsPreviewWireframe" d="M31.7899-14.514C31.7559-14.3187 31.705-14.1319 31.6965-13.928C31.654-13.0703 31.6243-12.2084 31.5818-11.3506C31.5648-11.0109 31.5521-10.6373 31.4842-10.357C31.4332-10.166 31.2888-10.0173 31.1829-10.0088C31.03-9.99186 30.9111-10.1872 30.9408-10.6245L31.1277-13.2996C31.1376-13.4058 31.1347-13.5126 31.1192-13.6181C30.9833-12.8325 30.6606-12.2041 30.7667-11.2275C30.8092-10.7774 30.7582-10.5991 30.5587-10.5226C30.5205-10.5099 30.4907-10.4207 30.4568-10.3952C30.3874-10.3521 30.3114-10.3202 30.2317-10.3018C30.151-10.2848 30.0534-10.3528 29.9897-10.2721C29.8029-10.0471 29.6075-10.1447 29.5141-10.5778C29.4995-10.6836 29.5024-10.7912 29.5226-10.8963C29.6954-11.8365 29.6996-12.7996 29.5353-13.7412C29.5056-13.928 29.4207-14.0724 29.3528-14.2508C29.1129-13.4673 29.008-12.6489 29.0428-11.8304C29.0628-11.3779 29.0628-10.9242 29.0428-10.4717C29.0301-10.132 28.9749-9.75408 28.771-9.80503C28.5927-9.84749 28.5375-10.1617 28.529-10.5269L28.4908-11.7752C28.4908-11.8687 28.4738-11.9663 28.4611-12.0597L28.3931-12.0895C28.3422-11.7413 28.2827-11.3931 28.2403-11.0322C28.1978-10.7052 28.1808-10.357 28.1384-10.0258C28.1299-9.94091 28.0534-9.81352 28.0237-9.839C27.9515-9.90269 27.8326-10.0301 27.8326-10.1405C27.8241-10.65 27.8496-11.1553 27.8709-11.6606C27.8793-11.8941 27.9048-12.1234 27.9218-12.3527L27.8496-12.4249C27.8157-12.2848 27.7732-12.1574 27.7477-12.0088C27.6501-11.4143 27.5694-10.7986 27.459-10.2169C27.4165-9.97488 27.3231-9.75408 27.1745-9.90694C26.9877-10.0938 26.9919-10.4929 27.0471-10.7901C27.1872-11.5544 27.3273-12.3485 27.5354-13.0194C27.7647-13.7582 28.0704-14.3781 28.3507-15.032C28.5502-15.4991 28.7625-15.9492 28.9749-16.3866C29.3145-17.0787 29.667-17.7284 29.9939-18.4502C30.2029-18.9339 30.2848-19.4633 30.2317-19.9873C30.1723-20.8535 30.1595-21.7367 30.1383-22.6157C30.1256-23.0828 30.151-23.5498 29.8835-23.7069C29.8071-23.7536 29.7646-24.0466 29.6925-24.1825C29.4971-24.5349 29.2678-24.8024 29.098-25.2143C28.8347-25.864 28.4738-26.0551 28.1596-26.4584C27.8921-26.7981 27.6543-27.2822 27.408-27.7026C27.356-27.7932 27.2993-27.8813 27.2382-27.9658C27.0683-28.1909 26.89-28.382 26.7286-28.641C26.4797-29.0344 26.2502-29.4396 26.0408-29.8554C25.8837-30.1781 25.7648-30.6027 25.6034-30.9254C25.3656-31.418 25.0939-31.8256 24.8603-32.3266C24.5928-32.8999 24.355-33.5368 24.113-34.1525C23.854-34.7936 23.6035-35.456 23.3487-36.0972C23.1534-36.5685 22.9368-36.9889 22.7542-37.4857C22.559-38.0497 22.3834-38.6205 22.2277-39.1969C22.0494-39.8211 21.8668-40.441 21.7352-41.1119C21.6248-41.6554 21.5908-42.2796 21.5144-42.8528C21.387-43.7743 21.2341-44.6702 21.128-45.5959C21.0176-46.5173 20.9836-47.4854 20.852-48.3813C20.6481-49.7741 20.4486-51.1753 19.9603-52.2496C19.7036-52.8771 19.5046-53.5266 19.3658-54.1901C19.1195-55.2347 18.9157-56.3344 18.6949-57.4087C18.6907-57.4342 18.6779-57.4639 18.6779-57.4936C18.7034-58.207 18.4741-58.2112 18.2745-58.2282C17.7395-58.2749 17.2045-58.2834 16.6695-58.3216C16.5633-58.3301 16.4572-58.4193 16.351-58.4702C16.402-58.742 16.4232-59.1326 16.5124-59.2685C16.7672-59.6549 17.0559-59.9479 17.3319-60.2621C17.7862-60.7801 18.2745-60.9627 18.7756-60.9415C18.92-60.933 19.0006-61.1113 19.0176-61.4213C19.1025-62.8141 19.4762-63.6293 19.9942-64.1856C20.4024-64.6077 20.9409-64.8799 21.5229-64.9584C22.0239-65.056 22.5334-64.9584 23.0387-64.9032C23.4549-64.8607 23.8795-64.831 24.2829-64.6314C24.6396-64.4038 24.9436-64.1027 25.1745-63.7482C25.5652-63.2344 25.9261-62.6187 26.2955-62.0413C26.5758-61.6039 26.8475-61.1368 27.1363-60.7292C27.3061-60.4999 27.4929-60.3725 27.6713-60.1857C27.9685-59.8715 28.2573-59.5403 28.5545-59.2303C28.7243-59.0605 28.8942-58.8906 29.064-58.759C29.4759-58.449 29.8963-58.1942 30.2954-57.8588C30.72-57.5106 31.1361-57.6507 31.5606-57.6889C31.8744-57.6994 32.1872-57.6563 32.4862-57.5616C33.1232-57.396 33.7601-57.2473 34.3928-56.9926C35.0382-56.7293 35.6751-56.3684 36.312-56.0075C37.1443-55.5319 37.9808-55.0563 38.8045-54.4958C39.399-54.0882 39.9722-53.5702 40.486-52.687C40.8427-52.084 41.3055-51.7825 41.7301-51.4429C42.2651-51.0182 42.8044-50.6191 43.3522-50.3261C44.1971-49.8717 45.0506-49.4981 45.8998-49.1202C46.3245-48.9376 46.7491-48.8229 47.1694-48.6658C48.1036-48.3261 49.0378-48.0756 49.9889-48.0884C50.647-48.0968 51.3052-48.0162 51.9676-48.0416C52.6512-48.0629 53.3391-48.169 54.027-48.2327C54.6809-48.2964 55.3348-48.3304 55.9887-48.4196C56.3411-48.462 56.6936-48.6064 57.0502-48.6913C57.2626-48.7423 57.4791-48.7592 57.6999-48.806C58.4218-48.9673 59.1563-49.0989 59.8782-49.3155C60.3877-49.4641 60.893-49.7274 61.3941-49.9609C61.8866-50.1817 62.3707-50.445 62.8632-50.6616C63.5851-50.98 64.3069-51.29 65.0373-51.5617C66.0139-51.9312 66.999-52.1817 67.9714-52.6275C68.5446-52.8908 69.1008-52.7549 69.6698-52.7719C69.7972-52.7719 69.9246-52.8313 70.0477-52.7804C70.2434-52.6975 70.4178-52.5712 70.5576-52.411C70.6298-52.3261 70.7062-52.0458 70.7062-51.859C70.6977-51.3749 70.7866-51.256 70.9776-51.239C71.122-51.2263 71.2749-51.1117 71.4107-50.9715C71.6061-50.7677 71.6018-49.8165 71.381-49.5788C71.1574-49.3208 70.8807-49.1138 70.57-48.9716C70.0477-48.7465 69.5212-48.6149 68.9989-48.428C68.9225-48.4026 68.8588-48.2709 68.7314-48.1223C68.8461-48.0671 68.897-48.0247 68.9437-48.0204L69.9755-47.9652C70.1878-47.9525 70.4044-47.9737 70.6125-47.9058C70.7314-47.8633 70.8418-47.6765 70.9479-47.5364C70.9529-47.4458 70.9412-47.3552 70.9139-47.2688C70.4766-46.6022 69.984-46.322 69.4702-46.2752C68.8758-46.2158 68.2856-46.1733 67.6954-46.1012C67.5255-46.0799 67.3603-45.9823 67.1947-45.9186L67.1947-45.7615C67.3093-45.7232 67.4236-45.6596 67.5382-45.6553C67.8058-45.6426 68.0733-45.6978 68.3365-45.6553C68.6422-45.6213 68.9441-45.5109 69.2456-45.443C69.4027-45.4005 69.5127-45.1925 69.4915-44.857C69.4766-44.6504 69.4076-44.4515 69.2919-44.2796C68.9013-43.7828 68.4558-43.7615 68.0227-43.6426C67.5131-43.4983 66.999-43.286 66.4852-43.1671C65.9332-43.0354 65.3812-42.993 64.8292-42.8698C64.6763-42.8359 64.532-42.632 64.3749-42.5556C63.895-42.3093 63.4152-42.0248 62.9269-41.8847C62.4429-41.7446 61.9503-41.7701 61.462-41.7149C61.1722-41.682 60.8831-41.6392 60.5958-41.5875C60.5661-41.5832 60.5406-41.4856 60.5109-41.4304C60.5533-41.3794 60.5958-41.286 60.634-41.2818C60.9652-41.2478 61.2964-41.2351 61.6318-41.2011C62.1117-41.1586 62.5915-41.0992 63.0755-41.0525C63.1605-41.044 63.2454-41.078 63.3303-41.0822C64.1923-41.1459 65.0542-41.252 65.9162-41.2393C66.1837-41.2393 66.4512-40.9591 66.7145-40.751C66.7782-40.7 66.8504-40.4538 66.8546-40.2839C66.8571-40.1081 66.8192-39.9336 66.7442-39.7744C66.4045-39.1969 66.0054-38.9421 65.5978-38.8827C64.9099-38.7808 64.2178-38.768 63.5299-38.7383C62.8038-38.7044 62.0777-38.7086 61.3474-38.6789C60.6807-38.6492 60.0141-38.5515 59.3517-38.56C58.5322-38.5685 57.7211-38.6576 56.9059-38.7001C56.5917-38.7128 56.2817-38.6831 55.9717-38.7001C55.6745-38.7128 55.373-38.8148 55.08-38.7765C54.5535-38.7128 54.0185-38.6831 53.509-38.4326C53.0122-38.1906 52.5408-37.6683 52.0525-37.3031C51.7387-37.0756 51.411-36.8668 51.0717-36.6789C50.6555-36.4412 50.2352-36.2288 49.8148-35.9996C49.5275-35.8442 49.2444-35.6814 48.9656-35.5112C48.8909-35.4536 48.8396-35.3704 48.8212-35.2777C48.7363-34.7841 48.4843-34.3344 48.1078-34.0039C48.0442-33.9444 47.9847-33.8425 47.9253-33.7576C47.9677-33.6302 47.9974-33.4646 48.0526-33.3754C48.4971-32.632 48.9642-31.9027 49.4539-31.1887C49.7893-30.7301 50.1163-30.2588 50.456-29.8639C51.0292-29.1972 51.6109-28.5645 52.1969-27.9616C52.6088-27.537 53.0334-27.1676 53.4538-26.7854C53.8784-26.4032 54.303-26.0253 54.7318-25.6644C55.0546-25.3927 55.3815-25.1506 55.7-24.8789C56.0142-24.6156 56.3242-24.3269 56.6384-24.0551C56.7137-23.9854 56.7962-23.9242 56.8846-23.8725C57.4239-23.5838 57.9674-23.312 58.5024-23.0148C58.8888-22.8025 59.2752-22.5817 59.6574-22.3057C59.8272-22.1783 59.9886-21.9236 60.1499-21.7112C60.2434-21.5839 60.3198-21.3885 60.4217-21.2994C60.6765-21.0616 60.8378-20.5903 60.8293-20.017C60.8208-19.3589 60.7911-18.6455 60.4344-18.3101C60.0438-17.9449 59.6616-18.0426 59.2667-18.1487C58.6638-18.3143 58.0566-18.4587 57.4536-18.6073C57.2413-18.6625 57.029-18.722 56.8167-18.7517C56.3157-18.8196 55.8189-18.8408 55.3221-18.9343C54.9696-18.998 54.6214-19.172 54.269-19.2485C53.9038-19.3292 53.5387-19.3546 53.1735-19.4056L53.1608-19.2655C53.3391-19.0616 53.5259-18.8918 53.6915-18.6413C53.8911-18.3398 54.0652-17.9576 54.2605-17.6349C54.3327-17.516 54.4261-17.4184 54.5153-17.4014C54.9442-17.3207 55.3051-16.8282 55.6872-16.412C55.959-16.1148 56.269-15.9874 56.5662-15.8473C56.8507-15.7029 57.046-15.3802 57.1182-14.7008C57.1776-14.1361 57.046-13.7582 56.804-13.5926C56.1628-13.1552 55.5259-13.3973 54.8847-13.5501C54.2945-13.6945 53.7085-13.7964 53.1226-13.9748C52.5281-14.1531 51.9379-14.4164 51.3477-14.6244C50.7744-14.8197 50.2012-14.9938 49.6322-15.1679C49.2458-15.2868 48.8552-15.3505 48.4688-15.5076C48.0569-15.669 47.6535-15.9322 47.2416-16.1106C46.8467-16.2804 46.4476-16.4078 46.0485-16.5479C45.6026-16.705 45.1568-16.8239 44.7152-17.015C44.2141-17.2358 43.7216-17.533 43.2205-17.7793C42.9573-17.9067 42.6855-17.9619 42.4222-18.102C42.1038-18.2719 41.7938-18.5012 41.4796-18.6965C41.1739-18.8791 40.8639-19.0489 40.5582-19.2188C40.2779-19.3759 39.9977-19.5032 39.7217-19.6858C39.141-20.0712 38.572-20.4731 38.0147-20.8917C37.6326-21.1805 37.2717-21.5881 36.8895-21.8556C36.4649-22.1528 36.0233-22.3652 35.5859-22.5944C35.3184-22.7303 35.0509-22.8152 34.7792-22.9256C34.7494-22.9384 34.7197-22.9596 34.6858-22.9681C34.3333-23.087 34.3078-23.0573 34.2526-22.2548C34.2438-21.7781 34.1518-21.3072 33.9809-20.862C33.8535-20.5818 33.7941-20.1572 33.6964-19.8005C33.6603-19.6674 33.615-19.5369 33.5605-19.4098C33.2081-18.5776 32.8387-17.7623 32.4947-16.9131C32.287-16.3554 32.2428-15.75 32.3674-15.1679C32.5627-14.0384 32.7325-12.8835 32.8896-11.7285C32.9406-11.3549 32.9194-10.9303 32.9194-10.5311C32.919-10.4374 32.8942-10.345 32.8472-10.2636C32.8217-10.2339 32.7538-10.2976 32.7325-10.3655C32.6359-10.685 32.5506-11.0081 32.4778-11.3336C32.3079-12.1404 32.1381-12.9557 31.981-13.7709C31.93-14.0215 31.896-14.289 31.8536-14.548L31.7899-14.514L31.7899-14.514ZM29.1065-15.7581C29.115-15.5756 29.0555-15.3548 29.1574-15.2061C29.4165-14.8367 29.6627-14.3484 30.0789-14.1871C30.5799-13.9875 31.2506-14.0597 31.8493-14.0639C32.3589-14.0724 32.5797-14.3187 32.6816-14.7433C32.8217-15.3378 32.9618-15.9959 33.3737-16.463C34.3163-17.5288 35.6751-18.3313 36.346-19.5882C36.6432-20.1572 37.2929-20.6115 37.5477-21.189C37.6835-21.4947 37.399-21.9915 37.1358-22.31C36.9914-22.4798 36.397-22.6072 36.1719-22.501C35.3694-22.1444 34.5329-21.7664 33.913-21.2399C33.0467-20.5053 32.3674-19.6264 31.5988-18.8196C31.1022-18.2931 30.6648-17.7156 30.0704-17.2783C29.4844-16.8494 28.9961-16.4503 29.1065-15.7581L29.1065-15.7581Z"/>
   <path class="monochrome-1 multicolor-1:tintColor hierarchical-1:tertiary SFSymbolsPreviewWireframe" d="M44.3636-80.5865C50.0861-80.5876 55.7528-79.4613 61.04-77.272C66.3271-75.0826 71.1312-71.8729 75.1774-67.8265C79.2239-63.7803 82.4335-58.9764 84.6232-53.6889C86.8124-48.4015 87.9387-42.7349 87.9376-37.0127C87.9376-12.9352 68.432 6.58658 44.3638 6.58658C20.2909 6.58658 0.7645-12.9399 0.7645-37.0127C0.7645-61.0781 20.2877-80.5865 44.3636-80.5865ZM44.3638-78.3365C21.53-78.3365 3.0145-59.8351 3.0145-37.0127C3.0145-14.1825 21.5336 4.33658 44.3638 4.33658C67.1889 4.33658 85.6876-14.1774 85.6876-37.0129C85.6886-42.4398 84.6205-47.8138 82.5443-52.828C80.4678-57.8425 77.4239-62.3983 73.5865-66.2355C69.7491-70.073 65.1932-73.1168 60.1791-75.1931C55.1651-77.2695 49.791-78.3376 44.3638-78.3365Z"/>
  </g>
 </g>
</svg>
