<?xml version="1.0" encoding="UTF-8"?>
<!--Generator: Apple Native CoreSVG 341-->
<!DOCTYPE svg
PUBLIC "-//W3C//DTD SVG 1.1//EN"
       "http://www.w3.org/Graphics/SVG/1.1/DTD/svg11.dtd">
<svg version="1.1" xmlns="http://www.w3.org/2000/svg" xmlns:xlink="http://www.w3.org/1999/xlink" viewBox="0 0 3300 2200">
 <!--glyph: "", point size: 100.0, font version: "20.0d10e1", template writer version: "138.0.0"-->
 <style>.monochrome-0 {-sfsymbols-motion-group:1;-sfsymbols-layer-tags:-33bbbe336f8a608f}
.monochrome-1 {-sfsymbols-motion-group:0;-sfsymbols-layer-tags:-33bbbe336f8a608f}

.multicolor-0:tintColor {-sfsymbols-motion-group:1;-sfsymbols-layer-tags:-33bbbe336f8a608f}
.multicolor-1:tintColor {-sfsymbols-motion-group:0;-sfsymbols-layer-tags:-33bbbe336f8a608f}

.hierarchical-0:primary {-sfsymbols-motion-group:1;-sfsymbols-layer-tags:-33bbbe336f8a608f}
.hierarchical-1:tertiary {-sfsymbols-motion-group:0;-sfsymbols-layer-tags:-33bbbe336f8a608f}

.SFSymbolsPreviewWireframe {fill:none;opacity:1.0;stroke:black;stroke-width:0.5}
</style>
 <g id="Notes">
  <rect height="2200" id="artboard" style="fill:white;opacity:1" width="3300" x="0" y="0"/>
  <line style="fill:none;stroke:black;opacity:1;stroke-width:0.5;" x1="263" x2="3036" y1="292" y2="292"/>
  <text style="stroke:none;fill:black;font-family:sans-serif;font-size:13;font-weight:bold;" transform="matrix(1 0 0 1 263 322)">Weight/Scale Variations</text>
  <text style="stroke:none;fill:black;font-family:sans-serif;font-size:13;text-anchor:middle;" transform="matrix(1 0 0 1 559.711 322)">Ultralight</text>
  <text style="stroke:none;fill:black;font-family:sans-serif;font-size:13;text-anchor:middle;" transform="matrix(1 0 0 1 856.422 322)">Thin</text>
  <text style="stroke:none;fill:black;font-family:sans-serif;font-size:13;text-anchor:middle;" transform="matrix(1 0 0 1 1153.13 322)">Light</text>
  <text style="stroke:none;fill:black;font-family:sans-serif;font-size:13;text-anchor:middle;" transform="matrix(1 0 0 1 1449.84 322)">Regular</text>
  <text style="stroke:none;fill:black;font-family:sans-serif;font-size:13;text-anchor:middle;" transform="matrix(1 0 0 1 1746.56 322)">Medium</text>
  <text style="stroke:none;fill:black;font-family:sans-serif;font-size:13;text-anchor:middle;" transform="matrix(1 0 0 1 2043.27 322)">Semibold</text>
  <text style="stroke:none;fill:black;font-family:sans-serif;font-size:13;text-anchor:middle;" transform="matrix(1 0 0 1 2339.98 322)">Bold</text>
  <text style="stroke:none;fill:black;font-family:sans-serif;font-size:13;text-anchor:middle;" transform="matrix(1 0 0 1 2636.69 322)">Heavy</text>
  <text style="stroke:none;fill:black;font-family:sans-serif;font-size:13;text-anchor:middle;" transform="matrix(1 0 0 1 2933.4 322)">Black</text>
  <line style="fill:none;stroke:black;opacity:1;stroke-width:0.5;" x1="263" x2="3036" y1="1903" y2="1903"/>
  <g transform="matrix(0.2 0 0 0.2 263 1933)">
   <path d="m46.2402 4.15039c21.7773 0 39.4531-17.627 39.4531-39.4043s-17.6758-39.4043-39.4531-39.4043c-21.7285 0-39.4043 17.627-39.4043 39.4043s17.6758 39.4043 39.4043 39.4043Zm0-7.42188c-17.6758 0-31.9336-14.3066-31.9336-31.9824s14.2578-31.9824 31.9336-31.9824 31.9824 14.3066 31.9824 31.9824-14.3066 31.9824-31.9824 31.9824Zm-17.9688-31.9824c0 2.14844 1.51367 3.61328 3.75977 3.61328h10.498v10.5957c0 2.19727 1.46484 3.71094 3.61328 3.71094 2.24609 0 3.71094-1.51367 3.71094-3.71094v-10.5957h10.5957c2.19727 0 3.71094-1.46484 3.71094-3.61328 0-2.19727-1.51367-3.71094-3.71094-3.71094h-10.5957v-10.5469c0-2.24609-1.46484-3.75977-3.71094-3.75977-2.14844 0-3.61328 1.51367-3.61328 3.75977v10.5469h-10.498c-2.24609 0-3.75977 1.51367-3.75977 3.71094Z"/>
  </g>
  <g transform="matrix(0.2 0 0 0.2 281.506 1933)">
   <path d="m58.5449 14.5508c27.4902 0 49.8047-22.3145 49.8047-49.8047s-22.3145-49.8047-49.8047-49.8047-49.8047 22.3145-49.8047 49.8047 22.3145 49.8047 49.8047 49.8047Zm0-8.30078c-22.9492 0-41.5039-18.5547-41.5039-41.5039s18.5547-41.5039 41.5039-41.5039 41.5039 18.5547 41.5039 41.5039-18.5547 41.5039-41.5039 41.5039Zm-22.6562-41.5039c0 2.39258 1.66016 4.00391 4.15039 4.00391h14.3555v14.4043c0 2.44141 1.66016 4.15039 4.05273 4.15039 2.44141 0 4.15039-1.66016 4.15039-4.15039v-14.4043h14.4043c2.44141 0 4.15039-1.61133 4.15039-4.00391 0-2.44141-1.70898-4.15039-4.15039-4.15039h-14.4043v-14.3555c0-2.49023-1.70898-4.19922-4.15039-4.19922-2.39258 0-4.05273 1.70898-4.05273 4.19922v14.3555h-14.3555c-2.49023 0-4.15039 1.70898-4.15039 4.15039Z"/>
  </g>
  <g transform="matrix(0.2 0 0 0.2 304.924 1933)">
   <path d="m74.8535 28.3203c35.1074 0 63.623-28.4668 63.623-63.5742s-28.5156-63.623-63.623-63.623-63.5742 28.5156-63.5742 63.623 28.4668 63.5742 63.5742 63.5742Zm0-9.08203c-30.127 0-54.4922-24.3652-54.4922-54.4922s24.3652-54.4922 54.4922-54.4922 54.4922 24.3652 54.4922 54.4922-24.3652 54.4922-54.4922 54.4922Zm-28.8574-54.4922c0 2.58789 1.85547 4.39453 4.58984 4.39453h19.7266v19.7754c0 2.68555 1.85547 4.58984 4.44336 4.58984 2.68555 0 4.54102-1.85547 4.54102-4.58984v-19.7754h19.7754c2.68555 0 4.58984-1.80664 4.58984-4.39453 0-2.73438-1.85547-4.58984-4.58984-4.58984h-19.7754v-19.7266c0-2.73438-1.85547-4.63867-4.54102-4.63867-2.58789 0-4.44336 1.9043-4.44336 4.63867v19.7266h-19.7266c-2.73438 0-4.58984 1.85547-4.58984 4.58984Z"/>
  </g>
  <text style="stroke:none;fill:black;font-family:sans-serif;font-size:13;font-weight:bold;" transform="matrix(1 0 0 1 263 1953)">Design Variations</text>
  <text style="stroke:none;fill:black;font-family:sans-serif;font-size:13;" transform="matrix(1 0 0 1 263 1971)">Symbols are supported in up to nine weights and three scales.</text>
  <text style="stroke:none;fill:black;font-family:sans-serif;font-size:13;" transform="matrix(1 0 0 1 263 1989)">For optimal layout with text and other symbols, vertically align</text>
  <text style="stroke:none;fill:black;font-family:sans-serif;font-size:13;" transform="matrix(1 0 0 1 263 2007)">symbols with the adjacent text.</text>
  <line style="fill:none;stroke:#00AEEF;stroke-width:0.5;opacity:1.0;" x1="776" x2="776" y1="1919" y2="1933"/>
  <g transform="matrix(0.2 0 0 0.2 776 1933)">
   <path d="m16.5527 0.78125c2.58789 0 3.85742-0.976562 4.78516-3.71094l6.29883-17.2363h28.8086l6.29883 17.2363c0.927734 2.73438 2.19727 3.71094 4.73633 3.71094 2.58789 0 4.24805-1.5625 4.24805-4.00391 0-0.830078-0.146484-1.61133-0.537109-2.63672l-22.9004-60.9863c-1.12305-2.97852-3.125-4.49219-6.25-4.49219-3.02734 0-5.07812 1.46484-6.15234 4.44336l-22.9004 61.084c-0.390625 1.02539-0.537109 1.80664-0.537109 2.63672 0 2.44141 1.5625 3.95508 4.10156 3.95508Zm13.4766-28.3691 11.8652-32.8613h0.244141l11.8652 32.8613Z"/>
  </g>
  <line style="fill:none;stroke:#00AEEF;stroke-width:0.5;opacity:1.0;" x1="792.836" x2="792.836" y1="1919" y2="1933"/>
  <text style="stroke:none;fill:black;font-family:sans-serif;font-size:13;font-weight:bold;" transform="matrix(1 0 0 1 776 1953)">Margins</text>
  <text style="stroke:none;fill:black;font-family:sans-serif;font-size:13;" transform="matrix(1 0 0 1 776 1971)">Leading and trailing margins on the left and right side of each symbol</text>
  <text style="stroke:none;fill:black;font-family:sans-serif;font-size:13;" transform="matrix(1 0 0 1 776 1989)">can be adjusted by modifying the x-location of the margin guidelines.</text>
  <text style="stroke:none;fill:black;font-family:sans-serif;font-size:13;" transform="matrix(1 0 0 1 776 2007)">Modifications are automatically applied proportionally to all</text>
  <text style="stroke:none;fill:black;font-family:sans-serif;font-size:13;" transform="matrix(1 0 0 1 776 2025)">scales and weights.</text>
  <g transform="matrix(0.2 0 0 0.2 1289 1933)">
   <path d="m14.209 9.32617 8.49609 8.54492c4.29688 4.3457 9.22852 4.05273 13.8672-1.07422l53.4668-58.9355-4.83398-4.88281-53.0762 58.3984c-1.75781 2.00195-3.41797 2.49023-5.76172 0.146484l-5.85938-5.81055c-2.34375-2.29492-1.80664-4.00391 0.195312-5.81055l57.373-54.0039-4.88281-4.83398-57.959 54.4434c-4.93164 4.58984-5.32227 9.47266-1.02539 13.8184Zm32.0801-90.9668c-2.09961 2.05078-2.24609 4.93164-1.07422 6.88477 1.17188 1.80664 3.4668 2.97852 6.68945 2.14844 7.32422-1.70898 14.9414-2.00195 22.0703 2.68555l-2.92969 7.27539c-1.70898 4.15039-0.830078 7.08008 1.85547 9.81445l11.4746 11.5723c2.44141 2.44141 4.49219 2.53906 7.32422 2.05078l5.32227-0.976562 3.32031 3.36914-0.195312 2.7832c-0.195312 2.49023 0.439453 4.39453 2.88086 6.78711l3.80859 3.71094c2.39258 2.39258 5.46875 2.53906 7.8125 0.195312l14.5508-14.5996c2.34375-2.34375 2.24609-5.32227-0.146484-7.71484l-3.85742-3.80859c-2.39258-2.39258-4.24805-3.17383-6.64062-2.97852l-2.88086 0.244141-3.22266-3.17383 1.2207-5.61523c0.634766-2.83203-0.146484-5.0293-3.07617-7.95898l-10.9863-10.9375c-16.6992-16.6016-38.8672-16.2109-53.3203-1.75781Zm7.4707 1.85547c12.1582-8.88672 28.6133-7.37305 39.7461 3.75977l12.1582 12.0605c1.17188 1.17188 1.36719 2.09961 1.02539 3.80859l-1.61133 7.42188 7.51953 7.42188 4.93164-0.292969c1.26953-0.0488281 1.66016 0.0488281 2.63672 1.02539l2.88086 2.88086-12.207 12.207-2.88086-2.88086c-0.976562-0.976562-1.12305-1.36719-1.07422-2.68555l0.341797-4.88281-7.4707-7.42188-7.61719 1.26953c-1.61133 0.341797-2.34375 0.195312-3.56445-0.976562l-10.0098-10.0098c-1.26953-1.17188-1.41602-2.00195-0.634766-3.85742l4.39453-10.4492c-7.8125-7.27539-17.9688-10.4004-28.125-7.42188-0.78125 0.195312-1.07422-0.439453-0.439453-0.976562Z"/>
  </g>
  <text style="stroke:none;fill:black;font-family:sans-serif;font-size:13;font-weight:bold;" transform="matrix(1 0 0 1 1289 1953)">Exporting</text>
  <text style="stroke:none;fill:black;font-family:sans-serif;font-size:13;" transform="matrix(1 0 0 1 1289 1971)">Symbols should be outlined when exporting to ensure the</text>
  <text style="stroke:none;fill:black;font-family:sans-serif;font-size:13;" transform="matrix(1 0 0 1 1289 1989)">design is preserved when submitting to Xcode.</text>
  <text id="template-version" style="stroke:none;fill:black;font-family:sans-serif;font-size:13;text-anchor:end;" transform="matrix(1 0 0 1 3036 1933)">Template v.6.0</text>
  <text style="stroke:none;fill:black;font-family:sans-serif;font-size:13;text-anchor:end;" transform="matrix(1 0 0 1 3036 1951)">Requires Xcode 16 or greater</text>
  <text id="descriptive-name" style="stroke:none;fill:black;font-family:sans-serif;font-size:13;text-anchor:end;" transform="matrix(1 0 0 1 3036 1969)">Generated from filternahrung-9</text>
  <text style="stroke:none;fill:black;font-family:sans-serif;font-size:13;text-anchor:end;" transform="matrix(1 0 0 1 3036 1987)">Typeset at 100.0 points</text>
  <text style="stroke:none;fill:black;font-family:sans-serif;font-size:13;" transform="matrix(1 0 0 1 263 726)">Small</text>
  <text style="stroke:none;fill:black;font-family:sans-serif;font-size:13;" transform="matrix(1 0 0 1 263 1156)">Medium</text>
  <text style="stroke:none;fill:black;font-family:sans-serif;font-size:13;" transform="matrix(1 0 0 1 263 1586)">Large</text>
 </g>
 <g id="Guides">
  <g id="H-reference" style="fill:#27AAE1;stroke:none;" transform="matrix(1 0 0 1 339 696)">
   <path d="M0.993654 0L3.63775 0L29.3281-67.1323L30.0303-67.1323L30.0303-70.459L28.1226-70.459ZM11.6885-24.4799L46.9815-24.4799L46.2315-26.7285L12.4385-26.7285ZM55.1196 0L57.7637 0L30.6382-70.459L29.4326-70.459L29.4326-67.1323Z"/>
  </g>
  <line id="Baseline-S" style="fill:none;stroke:#27AAE1;opacity:1;stroke-width:0.5;" x1="263" x2="3036" y1="696" y2="696"/>
  <line id="Capline-S" style="fill:none;stroke:#27AAE1;opacity:1;stroke-width:0.5;" x1="263" x2="3036" y1="625.541" y2="625.541"/>
  <g id="H-reference" style="fill:#27AAE1;stroke:none;" transform="matrix(1 0 0 1 339 1126)">
   <path d="M0.993654 0L3.63775 0L29.3281-67.1323L30.0303-67.1323L30.0303-70.459L28.1226-70.459ZM11.6885-24.4799L46.9815-24.4799L46.2315-26.7285L12.4385-26.7285ZM55.1196 0L57.7637 0L30.6382-70.459L29.4326-70.459L29.4326-67.1323Z"/>
  </g>
  <line id="Baseline-M" style="fill:none;stroke:#27AAE1;opacity:1;stroke-width:0.5;" x1="263" x2="3036" y1="1126" y2="1126"/>
  <line id="Capline-M" style="fill:none;stroke:#27AAE1;opacity:1;stroke-width:0.5;" x1="263" x2="3036" y1="1055.54" y2="1055.54"/>
  <g id="H-reference" style="fill:#27AAE1;stroke:none;" transform="matrix(1 0 0 1 339 1556)">
   <path d="M0.993654 0L3.63775 0L29.3281-67.1323L30.0303-67.1323L30.0303-70.459L28.1226-70.459ZM11.6885-24.4799L46.9815-24.4799L46.2315-26.7285L12.4385-26.7285ZM55.1196 0L57.7637 0L30.6382-70.459L29.4326-70.459L29.4326-67.1323Z"/>
  </g>
  <line id="Baseline-L" style="fill:none;stroke:#27AAE1;opacity:1;stroke-width:0.5;" x1="263" x2="3036" y1="1556" y2="1556"/>
  <line id="Capline-L" style="fill:none;stroke:#27AAE1;opacity:1;stroke-width:0.5;" x1="263" x2="3036" y1="1485.54" y2="1485.54"/>
  <line id="right-margin-Black-S" style="fill:none;stroke:#00AEEF;stroke-width:0.5;opacity:1.0;" x1="2982.23" x2="2982.23" y1="600.785" y2="720.121"/>
  <line id="left-margin-Black-S" style="fill:none;stroke:#00AEEF;stroke-width:0.5;opacity:1.0;" x1="2884.57" x2="2884.57" y1="600.785" y2="720.121"/>
  <line id="right-margin-Regular-S" style="fill:none;stroke:#00AEEF;stroke-width:0.5;opacity:1.0;" x1="1496.11" x2="1496.11" y1="600.785" y2="720.121"/>
  <line id="left-margin-Regular-S" style="fill:none;stroke:#00AEEF;stroke-width:0.5;opacity:1.0;" x1="1403.58" x2="1403.58" y1="600.785" y2="720.121"/>
  <line id="right-margin-Ultralight-S" style="fill:none;stroke:#00AEEF;stroke-width:0.5;opacity:1.0;" x1="603.773" x2="603.773" y1="600.785" y2="720.121"/>
  <line id="left-margin-Ultralight-S" style="fill:none;stroke:#00AEEF;stroke-width:0.5;opacity:1.0;" x1="515.649" x2="515.649" y1="600.785" y2="720.121"/>
 </g>
 <g id="Symbols">
  <g id="Black-S" transform="matrix(1 0 0 1 2884.57 696)">
   <path class="monochrome-0 multicolor-0:tintColor hierarchical-0:primary SFSymbolsPreviewWireframe" d="M66.5838-24.9231C64.6296-24.9231 63.0454-26.5073 63.0454-28.4615C63.0454-30.4158 64.6296-32 66.5838-32C68.5381-32 70.1223-30.4158 70.1223-28.4615C70.1223-26.5073 68.5381-24.9231 66.5838-24.9231ZM35.4609-62.5191C39.5482-64.915 44.7779-63.4921 47.1246-59.3649C49.4541-55.2679 48.0726-50.0326 44.0159-47.6543C43.85-47.5571 43.6762-47.4742 43.4963-47.4066C41.9476-46.8245 40.4795-45.9709 39.1311-44.9162L39.1258-44.9127L39.1998-44.9235C44.8927-45.742 50.9224-44.4397 54.5885-41.5445L54.6288-41.5117L54.6981-41.5394C55.5567-41.8698 56.4732-42.0612 57.4171-42.0961L57.7327-42.102C61.6761-42.102 64.9805-39.4021 65.9564-35.748L66.0018-35.5667L66.2775-35.3961C67.2928-34.7693 68.3088-34.1178 69.2863-33.4591L70.0115-32.9641C70.7095-32.4812 71.3628-32.0096 71.9641-31.5517C74.091-29.9321 75.4817-28.5943 76.1844-27.1673C78.4921-22.4807 76.1257-14.4712 70.5858-14.4712L34.597-14.4712C30.8546-14.4712 28.0151-16.4869 26.3016-19.7812C25.0871-22.1161 24.4623-25.0169 24.31-28.121L24.3098-28.1457L24.2954-28.4853C23.9783-38.5759 30.9692-49.7048 40.7663-53.5879L40.7668-53.5887L40.8551-53.6572C41.4789-54.1883 41.6883-55.1097 41.3305-55.885L41.2568-56.0286C40.7642-56.8949 39.7054-57.1829 38.8744-56.6958C37.2663-55.7532 35.1986-56.2927 34.256-57.9007C33.3134-59.5088 33.8528-61.5765 35.4609-62.5191ZM49.684-36.7689C47.5021-38.0438 43.5965-38.7972 39.8927-38.2014C34.3518-37.3102 31.056-34.0332 31.056-28.2864L31.0568-28.3647L31.0705-28.1188C31.3378-23.836 32.6273-21.3476 34.4553-21.2258L34.597-21.2212L69.8878-21.2217L69.937-21.3326C69.9699-21.411 70.0027-21.4979 70.0343-21.5921L70.0805-21.7388C70.3606-22.687 70.3353-23.7659 70.1287-24.1855C70.1316-24.1796 69.9447-24.4074 69.6089-24.7304C69.1766-25.1462 68.5888-25.6377 67.8746-26.1815C67.3605-26.5731 66.7892-26.9854 66.1713-27.4129C65.0833-28.1656 63.908-28.9262 62.7315-29.6526C62.319-29.9073 61.9364-30.1391 61.5943-30.343C61.3921-30.4636 61.2507-30.5467 61.1804-30.5875C60.1397-31.1913 59.4991-32.3035 59.4991-33.5067C59.4991-34.5371 58.6966-35.352 57.7327-35.352C57.2612-35.352 56.824-35.1621 56.4915-34.8191L56.4968-34.8257C56.1941-34.5122 56.0105-34.1126 55.9733-33.6732L55.9664-33.5067C55.9664-32.9564 56.1937-32.4554 56.5835-32.1057C57.971-30.861 58.0867-28.7272 56.842-27.3397C55.5973-25.9523 53.4635-25.8366 52.0761-27.0813C50.2703-28.7012 49.2164-31.0236 49.2164-33.5067C49.2164-34.5888 49.4165-35.6416 49.7931-36.6199L49.8198-36.6867L49.684-36.7689Z"/>
   <path class="monochrome-1 multicolor-1:tintColor hierarchical-1:tertiary SFSymbolsPreviewWireframe" d="M48.9411-84C55.3091-84.0013 61.615-82.7479 67.4985-80.3116C73.382-77.8752 78.7279-74.3036 83.2305-69.8009C87.7334-65.2983 91.305-59.9524 93.7418-54.0682C96.1779-48.1846 97.4312-41.8789 97.43-35.5124C97.43-8.72255 75.7254 13 48.9424 13C22.156 13 0.43-8.726 0.43-35.5124C0.43-62.2926 22.1539-84 48.9411-84ZM48.9424-70C29.8835-70 14.43-54.5582 14.43-35.5124C14.43-16.458 29.888-0.999999 48.9424-0.999999C67.9909-0.999999 83.43-16.4519 83.43-35.5138C83.4309-40.0428 82.5395-44.5276 80.8069-48.7121C79.0739-52.8969 76.5337-56.6989 73.3311-59.9013C70.1287-63.1038 66.3266-65.644 62.1422-67.3767C57.9578-69.1095 53.4729-70.0009 48.9424-70Z"/>
  </g>
  <g id="Regular-S" transform="matrix(1 0 0 1 1403.58 696)">
   <path class="monochrome-0 multicolor-0:tintColor hierarchical-0:primary SFSymbolsPreviewWireframe" d="M64.5739-24.923C62.6196-24.923 61.0354-26.5073 61.0354-28.4615C61.0354-30.4157 62.6196-32 64.5739-32C66.5281-32 68.1123-30.4157 68.1123-28.4615C68.1123-26.5073 66.5281-24.923 64.5739-24.923ZM33.4509-62.5191C37.5382-64.9149 42.768-63.4921 45.1146-59.3649C47.4442-55.2678 46.0626-50.0326 42.0059-47.6543C41.8401-47.5571 41.6663-47.4742 41.4863-47.4066C39.9376-46.8245 38.4696-45.9709 37.1212-44.9162L37.1158-44.9127L37.1898-44.9234C42.8828-45.742 48.9124-44.4397 52.5785-41.5445L52.6188-41.5117L52.6881-41.5393C53.5467-41.8697 54.4633-42.0611 55.4072-42.0961L55.7228-42.1019C59.6661-42.1019 62.9706-39.4021 63.9464-35.748L63.9918-35.5667L64.2676-35.396C65.2829-34.7692 66.2989-34.1177 67.2763-33.4591L68.0015-32.9641C68.6996-32.4812 69.3529-32.0095 69.9541-31.5517C72.081-29.932 73.4718-28.5942 74.1744-27.1673C76.4822-22.4806 74.1157-14.4711 68.5759-14.4711L32.587-14.4711C28.8446-14.4711 26.0052-16.4869 24.2916-19.7811C23.0771-22.1161 22.4524-25.0168 22.3001-28.121L22.2998-28.1457L22.2854-28.4852C21.9684-38.5759 28.9592-49.7048 38.7563-53.5879L38.7568-53.5887L38.8451-53.6572C39.469-54.1882 39.6783-55.1097 39.3206-55.885L39.2468-56.0285C38.7542-56.8948 37.6954-57.1829 36.8644-56.6958C35.2563-55.7532 33.1886-56.2926 32.246-57.9007C31.3034-59.5087 31.8429-61.5765 33.4509-62.5191ZM47.674-36.7689C45.4921-38.0438 41.5866-38.7971 37.8828-38.2014C32.3418-37.3101 29.046-34.0331 29.046-28.2863L29.0468-28.3647L29.0605-28.1188C29.3279-23.836 30.6173-21.3475 32.4453-21.2258L32.587-21.2211L67.8778-21.2217L67.9271-21.3325C67.96-21.4109 67.9928-21.4978 68.0243-21.5921L68.0705-21.7388C68.3506-22.687 68.3254-23.7659 68.1187-24.1854C68.1217-24.1795 67.9347-24.4073 67.5989-24.7303C67.1667-25.1461 66.5788-25.6377 65.8646-26.1815C65.3505-26.573 64.7793-26.9854 64.1613-27.4129C63.0733-28.1656 61.898-28.9262 60.7215-29.6525C60.309-29.9072 59.9264-30.139 59.5843-30.343C59.3821-30.4635 59.2407-30.5466 59.1704-30.5874C58.1297-31.1912 57.4892-32.3034 57.4892-33.5066C57.4892-34.5371 56.6866-35.3519 55.7228-35.3519C55.2513-35.3519 54.814-35.162 54.4815-34.819L54.4868-34.8257C54.1841-34.5122 54.0005-34.1126 53.9634-33.6732L53.9564-33.5066C53.9564-32.9564 54.1838-32.4554 54.5736-32.1057C55.961-30.861 56.0768-28.7272 54.8321-27.3397C53.5874-25.9522 51.4536-25.8365 50.0661-27.0812C48.2604-28.7012 47.2064-31.0235 47.2064-33.5066C47.2064-34.5888 47.4065-35.6416 47.7831-36.6198L47.8098-36.6867L47.674-36.7689Z"/>
   <path class="monochrome-1 multicolor-1:tintColor hierarchical-1:tertiary SFSymbolsPreviewWireframe" d="M46.4321-81.8365C52.4502-81.8377 58.4096-80.6532 63.9698-78.3508C69.53-76.0483 74.5822-72.6729 78.8374-68.4176C83.0928-64.1624 86.4682-59.1103 88.771-53.5496C91.0733-47.9892 92.2577-42.03 92.2566-36.0127C92.2566-10.693 71.744 9.83658 46.4328 9.83658C21.1173 9.83658 0.5835-10.6972 0.5835-36.0127C0.5835-61.3211 21.1145-81.8365 46.4321-81.8365ZM46.4328-75.0865C24.8413-75.0865 7.3335-57.592 7.3335-36.0127C7.3335-14.4252 24.8452 3.08658 46.4328 3.08658C68.0148 3.08658 85.5066-14.4197 85.5066-36.0133C85.5076-41.1447 84.4976-46.226 82.5345-50.9672C80.571-55.7085 77.693-60.0162 74.0644-63.6446C70.4361-67.273 66.1283-70.1511 61.3873-72.1143C56.6463-74.0776 51.5649-75.0875 46.4328-75.0865Z"/>
  </g>
  <g id="Ultralight-S" transform="matrix(1 0 0 1 515.649 696)">
   <path class="monochrome-0 multicolor-0:tintColor hierarchical-0:primary SFSymbolsPreviewWireframe" d="M62.5049-25.923C60.5506-25.923 58.9664-27.5073 58.9664-29.4615C58.9664-31.4157 60.5506-33 62.5049-33C64.4591-33 66.0433-31.4157 66.0433-29.4615C66.0433-27.5073 64.4591-25.923 62.5049-25.923ZM31.3819-63.5191C35.4692-65.9149 40.699-64.4921 43.0456-60.3649C45.3752-56.2678 43.9936-51.0326 39.9369-48.6543C39.7711-48.5571 39.5973-48.4742 39.4173-48.4066C37.8686-47.8245 36.4006-46.9709 35.0522-45.9162L35.0468-45.9127L35.1208-45.9234C40.8138-46.742 46.8434-45.4397 50.5095-42.5445L50.5498-42.5117L50.6191-42.5393C51.4777-42.8697 52.3943-43.0611 53.3382-43.0961L53.6538-43.1019C57.5971-43.1019 60.9016-40.4021 61.8774-36.748L61.9228-36.5667L62.1986-36.396C63.2139-35.7692 64.2299-35.1177 65.2073-34.4591L65.9325-33.9641C66.6306-33.4812 67.2839-33.0095 67.8851-32.5517C70.012-30.932 71.4028-29.5942 72.1054-28.1673C74.4132-23.4806 72.0467-15.4711 66.5069-15.4711L30.518-15.4711C26.7756-15.4711 23.9362-17.4869 22.2226-20.7811C21.0081-23.1161 20.3834-26.0168 20.2311-29.121L20.2308-29.1457L20.2164-29.4852C19.8994-39.5759 26.8902-50.7048 36.6873-54.5879L36.6878-54.5887L36.7761-54.6572C37.4-55.1882 37.6093-56.1097 37.2516-56.885L37.1778-57.0285C36.6852-57.8948 35.6264-58.1829 34.7954-57.6958C33.1873-56.7532 31.1196-57.2926 30.177-58.9007C29.2344-60.5087 29.7739-62.5765 31.3819-63.5191ZM45.605-37.7689C43.4231-39.0438 39.5176-39.7971 35.8138-39.2014C30.2728-38.3101 26.977-35.0331 26.977-29.2863L26.9778-29.3647L26.9915-29.1188C27.2589-24.836 28.5483-22.3475 30.3763-22.2258L30.518-22.2211L65.8088-22.2217L65.8581-22.3325C65.891-22.4109 65.9238-22.4978 65.9553-22.5921L66.0015-22.7388C66.2816-23.687 66.2564-24.7659 66.0497-25.1854C66.0527-25.1795 65.8657-25.4073 65.5299-25.7303C65.0977-26.1461 64.5098-26.6377 63.7956-27.1815C63.2815-27.573 62.7103-27.9854 62.0923-28.4129C61.0043-29.1656 59.829-29.9262 58.6525-30.6525C58.24-30.9072 57.8574-31.139 57.5153-31.343C57.3131-31.4635 57.1717-31.5466 57.1014-31.5874C56.0607-32.1912 55.4202-33.3034 55.4202-34.5066C55.4202-35.5371 54.6176-36.3519 53.6538-36.3519C53.1823-36.3519 52.745-36.162 52.4125-35.819L52.4178-35.8257C52.1151-35.5122 51.9315-35.1126 51.8944-34.6732L51.8874-34.5066C51.8874-33.9564 52.1148-33.4554 52.5046-33.1057C53.892-31.861 54.0078-29.7272 52.7631-28.3397C51.5184-26.9522 49.3846-26.8365 47.9971-28.0812C46.1914-29.7012 45.1374-32.0235 45.1374-34.5066C45.1374-35.5888 45.3375-36.6416 45.7141-37.6198L45.7408-37.6867L45.605-37.7689Z"/>
   <path class="monochrome-1 multicolor-1:tintColor hierarchical-1:tertiary SFSymbolsPreviewWireframe" d="M44.3636-80.5865C50.0861-80.5876 55.7528-79.4613 61.04-77.272C66.3271-75.0826 71.1312-71.8729 75.1774-67.8265C79.2239-63.7803 82.4335-58.9764 84.6232-53.6889C86.8124-48.4015 87.9387-42.7349 87.9376-37.0127C87.9376-12.9352 68.432 6.58658 44.3638 6.58658C20.2909 6.58658 0.7645-12.9399 0.7645-37.0127C0.7645-61.0781 20.2877-80.5865 44.3636-80.5865ZM44.3638-78.3365C21.53-78.3365 3.0145-59.8351 3.0145-37.0127C3.0145-14.1825 21.5336 4.33658 44.3638 4.33658C67.1889 4.33658 85.6876-14.1774 85.6876-37.0129C85.6886-42.4398 84.6205-47.8138 82.5443-52.828C80.4678-57.8425 77.4239-62.3983 73.5865-66.2355C69.7491-70.073 65.1932-73.1168 60.1791-75.1931C55.1651-77.2695 49.791-78.3376 44.3638-78.3365Z"/>
  </g>
 </g>
</svg>
