<?xml version="1.0" encoding="UTF-8"?>
<svg width="26px" height="26px" viewBox="0 0 26 26" xmlns="http://www.w3.org/2000/svg" xmlns:xlink="http://www.w3.org/1999/xlink" version="1.1">
 <!-- Generated by Pixelmator Pro 1.8 -->
 <path id="arrow" d="M16.974 4.994 C16.293 5.21 15.911 6.089 16.175 6.772 L18.438 13.816 6.087 7.717 C5.428 7.391 4.647 7.673 4.34 8.344 4.034 9.015 4.319 9.822 4.977 10.147 L17.328 16.246 10.65 18.874 C10.054 19.09 9.567 19.955 9.829 20.642 10.091 21.328 11.013 21.606 11.613 21.399 L21.111 17.649 C21.437 17.521 21.669 17.297 21.816 16.973 21.937 16.678 21.973 16.285 21.874 15.978 L18.666 5.953 C18.521 5.603 18.211 5.267 17.844 5.085 17.571 4.951 17.266 4.901 16.974 4.994 Z" fill="#e36710" fill-opacity="1" stroke="none"/>
</svg>
