<?xml version="1.0" encoding="UTF-8"?>
<svg width="26px" height="26px" viewBox="0 0 26 26" xmlns="http://www.w3.org/2000/svg" xmlns:xlink="http://www.w3.org/1999/xlink" version="1.1">
 <!-- Generated by Pixelmator Pro 1.8 -->
 <path id="arrow" d="M19.985 7.424 C19.277 7.331 18.559 7.966 18.51 8.698 L17.584 16.037 8.968 5.29 C8.508 4.717 7.681 4.642 7.119 5.121 6.558 5.6 6.475 6.451 6.934 7.024 L15.55 17.771 8.388 17.331 C7.757 17.274 6.95 17.852 6.897 18.586 6.844 19.318 7.562 19.959 8.193 20.025 L18.387 20.641 C18.736 20.663 19.041 20.558 19.311 20.327 19.546 20.11 19.744 19.77 19.784 19.449 L21.113 9.008 C21.13 8.63 20.991 8.194 20.735 7.873 20.545 7.637 20.289 7.463 19.985 7.424 Z" fill="#dd3f14" fill-opacity="1" stroke="none"/>
</svg>
