<?xml version="1.0" encoding="UTF-8"?>
<svg width="26px" height="26px" viewBox="0 0 26 26" xmlns="http://www.w3.org/2000/svg" xmlns:xlink="http://www.w3.org/1999/xlink" version="1.1">
 <!-- Generated by Pixelmator Pro 1.8 -->
 <path id="arrow" d="M6.296 7.09 C6.327 7.803 7.077 8.4 7.807 8.321 L15.195 7.959 6.107 18.31 C5.623 18.863 5.692 19.69 6.261 20.16 6.831 20.629 7.684 20.563 8.168 20.011 L17.256 9.66 18.066 16.79 C18.12 17.421 18.829 18.116 19.561 18.041 20.291 17.965 20.798 17.147 20.753 16.514 L19.59 6.368 C19.551 6.021 19.395 5.739 19.119 5.513 18.865 5.319 18.496 5.183 18.173 5.199 L7.66 5.703 C7.284 5.752 6.879 5.965 6.608 6.272 6.408 6.501 6.281 6.783 6.296 7.09 Z" fill="#4b8904" fill-opacity="1" stroke="none"/>
</svg>
