<?xml version="1.0" encoding="UTF-8"?>
<svg width="26px" height="26px" viewBox="0 0 26 26" xmlns="http://www.w3.org/2000/svg" xmlns:xlink="http://www.w3.org/1999/xlink" version="1.1">
 <!-- Generated by Pixelmator Pro 1.8 -->
 <path id="arrow" d="M9.138 4.94 C8.888 5.609 9.346 6.451 10.048 6.664 L16.991 9.217 4.581 15.195 C3.918 15.514 3.659 16.303 4 16.957 4.34 17.612 5.151 17.885 5.812 17.566 L18.222 11.588 16.182 18.468 C15.985 19.07 16.367 19.987 17.07 20.203 17.771 20.419 18.558 19.864 18.764 19.264 L21.657 9.47 C21.757 9.135 21.724 8.814 21.558 8.499 21.4 8.222 21.113 7.951 20.81 7.841 L10.935 4.197 C10.571 4.095 10.115 4.132 9.745 4.31 9.471 4.442 9.245 4.652 9.138 4.94 Z" fill="#7ba14c" fill-opacity="1" stroke="none"/>
</svg>
