<?xml version="1.0" encoding="UTF-8"?>
<!--Generator: Apple Native CoreSVG 341-->
<!DOCTYPE svg
PUBLIC "-//W3C//DTD SVG 1.1//EN"
       "http://www.w3.org/Graphics/SVG/1.1/DTD/svg11.dtd">
<svg version="1.1" xmlns="http://www.w3.org/2000/svg" xmlns:xlink="http://www.w3.org/1999/xlink" viewBox="0 0 3300 2200">
 <!--glyph: "", point size: 100.0, font version: "20.0d10e1", template writer version: "138.0.0"-->
 <style>.monochrome-0 {-sfsymbols-motion-group:1;-sfsymbols-layer-tags:4c50b516eaaef42f}
.monochrome-1 {-sfsymbols-motion-group:0;-sfsymbols-layer-tags:4c50b516eaaef42f}

.multicolor-0:tintColor {-sfsymbols-motion-group:1;-sfsymbols-layer-tags:4c50b516eaaef42f}
.multicolor-1:tintColor {-sfsymbols-motion-group:0;-sfsymbols-layer-tags:4c50b516eaaef42f}

.hierarchical-0:primary {-sfsymbols-motion-group:1;-sfsymbols-layer-tags:4c50b516eaaef42f}
.hierarchical-1:tertiary {-sfsymbols-motion-group:0;-sfsymbols-layer-tags:4c50b516eaaef42f}

.SFSymbolsPreviewWireframe {fill:none;opacity:1.0;stroke:black;stroke-width:0.5}
</style>
 <g id="Notes">
  <rect height="2200" id="artboard" style="fill:white;opacity:1" width="3300" x="0" y="0"/>
  <line style="fill:none;stroke:black;opacity:1;stroke-width:0.5;" x1="263" x2="3036" y1="292" y2="292"/>
  <text style="stroke:none;fill:black;font-family:sans-serif;font-size:13;font-weight:bold;" transform="matrix(1 0 0 1 263 322)">Weight/Scale Variations</text>
  <text style="stroke:none;fill:black;font-family:sans-serif;font-size:13;text-anchor:middle;" transform="matrix(1 0 0 1 559.711 322)">Ultralight</text>
  <text style="stroke:none;fill:black;font-family:sans-serif;font-size:13;text-anchor:middle;" transform="matrix(1 0 0 1 856.422 322)">Thin</text>
  <text style="stroke:none;fill:black;font-family:sans-serif;font-size:13;text-anchor:middle;" transform="matrix(1 0 0 1 1153.13 322)">Light</text>
  <text style="stroke:none;fill:black;font-family:sans-serif;font-size:13;text-anchor:middle;" transform="matrix(1 0 0 1 1449.84 322)">Regular</text>
  <text style="stroke:none;fill:black;font-family:sans-serif;font-size:13;text-anchor:middle;" transform="matrix(1 0 0 1 1746.56 322)">Medium</text>
  <text style="stroke:none;fill:black;font-family:sans-serif;font-size:13;text-anchor:middle;" transform="matrix(1 0 0 1 2043.27 322)">Semibold</text>
  <text style="stroke:none;fill:black;font-family:sans-serif;font-size:13;text-anchor:middle;" transform="matrix(1 0 0 1 2339.98 322)">Bold</text>
  <text style="stroke:none;fill:black;font-family:sans-serif;font-size:13;text-anchor:middle;" transform="matrix(1 0 0 1 2636.69 322)">Heavy</text>
  <text style="stroke:none;fill:black;font-family:sans-serif;font-size:13;text-anchor:middle;" transform="matrix(1 0 0 1 2933.4 322)">Black</text>
  <line style="fill:none;stroke:black;opacity:1;stroke-width:0.5;" x1="263" x2="3036" y1="1903" y2="1903"/>
  <g transform="matrix(0.2 0 0 0.2 263 1933)">
   <path d="m46.2402 4.15039c21.7773 0 39.4531-17.627 39.4531-39.4043s-17.6758-39.4043-39.4531-39.4043c-21.7285 0-39.4043 17.627-39.4043 39.4043s17.6758 39.4043 39.4043 39.4043Zm0-7.42188c-17.6758 0-31.9336-14.3066-31.9336-31.9824s14.2578-31.9824 31.9336-31.9824 31.9824 14.3066 31.9824 31.9824-14.3066 31.9824-31.9824 31.9824Zm-17.9688-31.9824c0 2.14844 1.51367 3.61328 3.75977 3.61328h10.498v10.5957c0 2.19727 1.46484 3.71094 3.61328 3.71094 2.24609 0 3.71094-1.51367 3.71094-3.71094v-10.5957h10.5957c2.19727 0 3.71094-1.46484 3.71094-3.61328 0-2.19727-1.51367-3.71094-3.71094-3.71094h-10.5957v-10.5469c0-2.24609-1.46484-3.75977-3.71094-3.75977-2.14844 0-3.61328 1.51367-3.61328 3.75977v10.5469h-10.498c-2.24609 0-3.75977 1.51367-3.75977 3.71094Z"/>
  </g>
  <g transform="matrix(0.2 0 0 0.2 281.506 1933)">
   <path d="m58.5449 14.5508c27.4902 0 49.8047-22.3145 49.8047-49.8047s-22.3145-49.8047-49.8047-49.8047-49.8047 22.3145-49.8047 49.8047 22.3145 49.8047 49.8047 49.8047Zm0-8.30078c-22.9492 0-41.5039-18.5547-41.5039-41.5039s18.5547-41.5039 41.5039-41.5039 41.5039 18.5547 41.5039 41.5039-18.5547 41.5039-41.5039 41.5039Zm-22.6562-41.5039c0 2.39258 1.66016 4.00391 4.15039 4.00391h14.3555v14.4043c0 2.44141 1.66016 4.15039 4.05273 4.15039 2.44141 0 4.15039-1.66016 4.15039-4.15039v-14.4043h14.4043c2.44141 0 4.15039-1.61133 4.15039-4.00391 0-2.44141-1.70898-4.15039-4.15039-4.15039h-14.4043v-14.3555c0-2.49023-1.70898-4.19922-4.15039-4.19922-2.39258 0-4.05273 1.70898-4.05273 4.19922v14.3555h-14.3555c-2.49023 0-4.15039 1.70898-4.15039 4.15039Z"/>
  </g>
  <g transform="matrix(0.2 0 0 0.2 304.924 1933)">
   <path d="m74.8535 28.3203c35.1074 0 63.623-28.4668 63.623-63.5742s-28.5156-63.623-63.623-63.623-63.5742 28.5156-63.5742 63.623 28.4668 63.5742 63.5742 63.5742Zm0-9.08203c-30.127 0-54.4922-24.3652-54.4922-54.4922s24.3652-54.4922 54.4922-54.4922 54.4922 24.3652 54.4922 54.4922-24.3652 54.4922-54.4922 54.4922Zm-28.8574-54.4922c0 2.58789 1.85547 4.39453 4.58984 4.39453h19.7266v19.7754c0 2.68555 1.85547 4.58984 4.44336 4.58984 2.68555 0 4.54102-1.85547 4.54102-4.58984v-19.7754h19.7754c2.68555 0 4.58984-1.80664 4.58984-4.39453 0-2.73438-1.85547-4.58984-4.58984-4.58984h-19.7754v-19.7266c0-2.73438-1.85547-4.63867-4.54102-4.63867-2.58789 0-4.44336 1.9043-4.44336 4.63867v19.7266h-19.7266c-2.73438 0-4.58984 1.85547-4.58984 4.58984Z"/>
  </g>
  <text style="stroke:none;fill:black;font-family:sans-serif;font-size:13;font-weight:bold;" transform="matrix(1 0 0 1 263 1953)">Design Variations</text>
  <text style="stroke:none;fill:black;font-family:sans-serif;font-size:13;" transform="matrix(1 0 0 1 263 1971)">Symbols are supported in up to nine weights and three scales.</text>
  <text style="stroke:none;fill:black;font-family:sans-serif;font-size:13;" transform="matrix(1 0 0 1 263 1989)">For optimal layout with text and other symbols, vertically align</text>
  <text style="stroke:none;fill:black;font-family:sans-serif;font-size:13;" transform="matrix(1 0 0 1 263 2007)">symbols with the adjacent text.</text>
  <line style="fill:none;stroke:#00AEEF;stroke-width:0.5;opacity:1.0;" x1="776" x2="776" y1="1919" y2="1933"/>
  <g transform="matrix(0.2 0 0 0.2 776 1933)">
   <path d="m16.5527 0.78125c2.58789 0 3.85742-0.976562 4.78516-3.71094l6.29883-17.2363h28.8086l6.29883 17.2363c0.927734 2.73438 2.19727 3.71094 4.73633 3.71094 2.58789 0 4.24805-1.5625 4.24805-4.00391 0-0.830078-0.146484-1.61133-0.537109-2.63672l-22.9004-60.9863c-1.12305-2.97852-3.125-4.49219-6.25-4.49219-3.02734 0-5.07812 1.46484-6.15234 4.44336l-22.9004 61.084c-0.390625 1.02539-0.537109 1.80664-0.537109 2.63672 0 2.44141 1.5625 3.95508 4.10156 3.95508Zm13.4766-28.3691 11.8652-32.8613h0.244141l11.8652 32.8613Z"/>
  </g>
  <line style="fill:none;stroke:#00AEEF;stroke-width:0.5;opacity:1.0;" x1="792.836" x2="792.836" y1="1919" y2="1933"/>
  <text style="stroke:none;fill:black;font-family:sans-serif;font-size:13;font-weight:bold;" transform="matrix(1 0 0 1 776 1953)">Margins</text>
  <text style="stroke:none;fill:black;font-family:sans-serif;font-size:13;" transform="matrix(1 0 0 1 776 1971)">Leading and trailing margins on the left and right side of each symbol</text>
  <text style="stroke:none;fill:black;font-family:sans-serif;font-size:13;" transform="matrix(1 0 0 1 776 1989)">can be adjusted by modifying the x-location of the margin guidelines.</text>
  <text style="stroke:none;fill:black;font-family:sans-serif;font-size:13;" transform="matrix(1 0 0 1 776 2007)">Modifications are automatically applied proportionally to all</text>
  <text style="stroke:none;fill:black;font-family:sans-serif;font-size:13;" transform="matrix(1 0 0 1 776 2025)">scales and weights.</text>
  <g transform="matrix(0.2 0 0 0.2 1289 1933)">
   <path d="m14.209 9.32617 8.49609 8.54492c4.29688 4.3457 9.22852 4.05273 13.8672-1.07422l53.4668-58.9355-4.83398-4.88281-53.0762 58.3984c-1.75781 2.00195-3.41797 2.49023-5.76172 0.146484l-5.85938-5.81055c-2.34375-2.29492-1.80664-4.00391 0.195312-5.81055l57.373-54.0039-4.88281-4.83398-57.959 54.4434c-4.93164 4.58984-5.32227 9.47266-1.02539 13.8184Zm32.0801-90.9668c-2.09961 2.05078-2.24609 4.93164-1.07422 6.88477 1.17188 1.80664 3.4668 2.97852 6.68945 2.14844 7.32422-1.70898 14.9414-2.00195 22.0703 2.68555l-2.92969 7.27539c-1.70898 4.15039-0.830078 7.08008 1.85547 9.81445l11.4746 11.5723c2.44141 2.44141 4.49219 2.53906 7.32422 2.05078l5.32227-0.976562 3.32031 3.36914-0.195312 2.7832c-0.195312 2.49023 0.439453 4.39453 2.88086 6.78711l3.80859 3.71094c2.39258 2.39258 5.46875 2.53906 7.8125 0.195312l14.5508-14.5996c2.34375-2.34375 2.24609-5.32227-0.146484-7.71484l-3.85742-3.80859c-2.39258-2.39258-4.24805-3.17383-6.64062-2.97852l-2.88086 0.244141-3.22266-3.17383 1.2207-5.61523c0.634766-2.83203-0.146484-5.0293-3.07617-7.95898l-10.9863-10.9375c-16.6992-16.6016-38.8672-16.2109-53.3203-1.75781Zm7.4707 1.85547c12.1582-8.88672 28.6133-7.37305 39.7461 3.75977l12.1582 12.0605c1.17188 1.17188 1.36719 2.09961 1.02539 3.80859l-1.61133 7.42188 7.51953 7.42188 4.93164-0.292969c1.26953-0.0488281 1.66016 0.0488281 2.63672 1.02539l2.88086 2.88086-12.207 12.207-2.88086-2.88086c-0.976562-0.976562-1.12305-1.36719-1.07422-2.68555l0.341797-4.88281-7.4707-7.42188-7.61719 1.26953c-1.61133 0.341797-2.34375 0.195312-3.56445-0.976562l-10.0098-10.0098c-1.26953-1.17188-1.41602-2.00195-0.634766-3.85742l4.39453-10.4492c-7.8125-7.27539-17.9688-10.4004-28.125-7.42188-0.78125 0.195312-1.07422-0.439453-0.439453-0.976562Z"/>
  </g>
  <text style="stroke:none;fill:black;font-family:sans-serif;font-size:13;font-weight:bold;" transform="matrix(1 0 0 1 1289 1953)">Exporting</text>
  <text style="stroke:none;fill:black;font-family:sans-serif;font-size:13;" transform="matrix(1 0 0 1 1289 1971)">Symbols should be outlined when exporting to ensure the</text>
  <text style="stroke:none;fill:black;font-family:sans-serif;font-size:13;" transform="matrix(1 0 0 1 1289 1989)">design is preserved when submitting to Xcode.</text>
  <text id="template-version" style="stroke:none;fill:black;font-family:sans-serif;font-size:13;text-anchor:end;" transform="matrix(1 0 0 1 3036 1933)">Template v.6.0</text>
  <text style="stroke:none;fill:black;font-family:sans-serif;font-size:13;text-anchor:end;" transform="matrix(1 0 0 1 3036 1951)">Requires Xcode 16 or greater</text>
  <text id="descriptive-name" style="stroke:none;fill:black;font-family:sans-serif;font-size:13;text-anchor:end;" transform="matrix(1 0 0 1 3036 1969)">Generated from filtervogelgruppe-13</text>
  <text style="stroke:none;fill:black;font-family:sans-serif;font-size:13;text-anchor:end;" transform="matrix(1 0 0 1 3036 1987)">Typeset at 100.0 points</text>
  <text style="stroke:none;fill:black;font-family:sans-serif;font-size:13;" transform="matrix(1 0 0 1 263 726)">Small</text>
  <text style="stroke:none;fill:black;font-family:sans-serif;font-size:13;" transform="matrix(1 0 0 1 263 1156)">Medium</text>
  <text style="stroke:none;fill:black;font-family:sans-serif;font-size:13;" transform="matrix(1 0 0 1 263 1586)">Large</text>
 </g>
 <g id="Guides">
  <g id="H-reference" style="fill:#27AAE1;stroke:none;" transform="matrix(1 0 0 1 339 696)">
   <path d="M0.993654 0L3.63775 0L29.3281-67.1323L30.0303-67.1323L30.0303-70.459L28.1226-70.459ZM11.6885-24.4799L46.9815-24.4799L46.2315-26.7285L12.4385-26.7285ZM55.1196 0L57.7637 0L30.6382-70.459L29.4326-70.459L29.4326-67.1323Z"/>
  </g>
  <line id="Baseline-S" style="fill:none;stroke:#27AAE1;opacity:1;stroke-width:0.5;" x1="263" x2="3036" y1="696" y2="696"/>
  <line id="Capline-S" style="fill:none;stroke:#27AAE1;opacity:1;stroke-width:0.5;" x1="263" x2="3036" y1="625.541" y2="625.541"/>
  <g id="H-reference" style="fill:#27AAE1;stroke:none;" transform="matrix(1 0 0 1 339 1126)">
   <path d="M0.993654 0L3.63775 0L29.3281-67.1323L30.0303-67.1323L30.0303-70.459L28.1226-70.459ZM11.6885-24.4799L46.9815-24.4799L46.2315-26.7285L12.4385-26.7285ZM55.1196 0L57.7637 0L30.6382-70.459L29.4326-70.459L29.4326-67.1323Z"/>
  </g>
  <line id="Baseline-M" style="fill:none;stroke:#27AAE1;opacity:1;stroke-width:0.5;" x1="263" x2="3036" y1="1126" y2="1126"/>
  <line id="Capline-M" style="fill:none;stroke:#27AAE1;opacity:1;stroke-width:0.5;" x1="263" x2="3036" y1="1055.54" y2="1055.54"/>
  <g id="H-reference" style="fill:#27AAE1;stroke:none;" transform="matrix(1 0 0 1 339 1556)">
   <path d="M0.993654 0L3.63775 0L29.3281-67.1323L30.0303-67.1323L30.0303-70.459L28.1226-70.459ZM11.6885-24.4799L46.9815-24.4799L46.2315-26.7285L12.4385-26.7285ZM55.1196 0L57.7637 0L30.6382-70.459L29.4326-70.459L29.4326-67.1323Z"/>
  </g>
  <line id="Baseline-L" style="fill:none;stroke:#27AAE1;opacity:1;stroke-width:0.5;" x1="263" x2="3036" y1="1556" y2="1556"/>
  <line id="Capline-L" style="fill:none;stroke:#27AAE1;opacity:1;stroke-width:0.5;" x1="263" x2="3036" y1="1485.54" y2="1485.54"/>
  <line id="right-margin-Black-S" style="fill:none;stroke:#00AEEF;stroke-width:0.5;opacity:1.0;" x1="2982.23" x2="2982.23" y1="600.785" y2="720.121"/>
  <line id="left-margin-Black-S" style="fill:none;stroke:#00AEEF;stroke-width:0.5;opacity:1.0;" x1="2884.57" x2="2884.57" y1="600.785" y2="720.121"/>
  <line id="right-margin-Regular-S" style="fill:none;stroke:#00AEEF;stroke-width:0.5;opacity:1.0;" x1="1496.11" x2="1496.11" y1="600.785" y2="720.121"/>
  <line id="left-margin-Regular-S" style="fill:none;stroke:#00AEEF;stroke-width:0.5;opacity:1.0;" x1="1403.58" x2="1403.58" y1="600.785" y2="720.121"/>
  <line id="right-margin-Ultralight-S" style="fill:none;stroke:#00AEEF;stroke-width:0.5;opacity:1.0;" x1="603.773" x2="603.773" y1="600.785" y2="720.121"/>
  <line id="left-margin-Ultralight-S" style="fill:none;stroke:#00AEEF;stroke-width:0.5;opacity:1.0;" x1="515.649" x2="515.649" y1="600.785" y2="720.121"/>
 </g>
 <g id="Symbols">
  <g id="Black-S" transform="matrix(1 0 0 1 2884.57 696)">
   <path class="monochrome-0 multicolor-0:tintColor hierarchical-0:primary SFSymbolsPreviewWireframe" d="M41.24-23.0071C41.1054-23.1764 36.8747-25.4224 34.471-28.4031C32.0595-31.3838 30.1288-35.6067 29.3634-37.9182C28.5942-40.2297 28.6212-44.6527 28.5712-45.8257C28.5173-46.9987 28.225-50.0179 28.225-50.7871C28.225-51.5563 27.4827-53.4678 27.0597-54.0716C26.6366-54.6754 26.2405-54.7408 26.1097-54.7408C25.9751-54.7408 24.4444-54.6754 24.3405-54.4062C24.2328-54.137 24.2559-53.6678 24.2559-53.6678C24.0175-53.937 23.9098-55.4446 24.2328-56.0138C24.5482-56.583 26.1905-57.5561 26.3751-58.1253C26.5597-58.6945 27.4827-60.0676 29.6019-60.3714C31.7172-60.6714 35.7286-58.4484 36.2671-58.0061C36.8055-57.5676 36.6132-56.4984 36.5747-55.1831C36.5363-53.8716 36.4978-52.6063 37.344-51.4871C38.1901-50.3679 40.2247-48.6641 42.99-47.8372C45.7553-47.0103 48.636-45.9411 50.5551-44.1411C52.4782-42.3411 54.3973-39.7604 54.9742-39.1297C55.5511-38.4951 58.6241-35.626 59.3126-34.9452C60.0048-34.2645 60.8894-32.853 61.1971-32.5607C61.5048-32.2684 62.7355-31.2953 63.774-29.2992C64.8085-27.307 64.8855-25.5532 64.8855-25.5532C64.8855-25.5532 69.493-21.3226 70.9545-20.0534C72.416-18.7919 73.7621-17.2842 73.9929-16.115C74.2198-14.9497 73.4275-15.4612 73.2813-15.5689C73.139-15.6804 71.4352-16.8881 69.9353-17.7996C68.4353-18.715 67.9161-18.6073 67.9161-18.6073C67.9161-18.6073 69.5892-17.1073 70.0814-16.3381C70.5699-15.5689 70.516-15.242 70.2853-15.3497C70.0545-15.4612 68.0623-16.5189 68.0623-16.5189C68.0623-16.5189 69.8238-14.5112 69.8776-14.2151C69.9391-13.9228 68.493-14.5459 68.6392-14.3997C68.7815-14.2536 69.5622-13.0844 69.4776-12.7921C69.3892-12.4959 68.6699-13.3036 68.5815-13.0459C68.4969-12.7921 68.6392-12.1344 68.8123-11.8036C68.9853-11.4729 68.5546-11.3998 68.3507-11.6575C68.1507-11.9152 67.4008-12.0229 67.6008-11.5113C67.8046-10.9998 67.6892-10.5229 67.5738-10.4498C67.4584-10.3768 66.8508-10.196 65.4085-11.5498C63.9663-12.8998 58.9472-18.788 58.4241-19.4457C57.1857-18.8957 56.8665-18.6765 56.4357-18.8611C56.0011-19.0419 54.905-19.738 54.4435-19.5918C53.982-19.4457 53.1743-20.2149 53.0589-20.4341C52.9435-20.6534 52.8589-20.9072 52.8589-20.9072L50.7821-21.1264C49.8859-20.1764 48.5014-19.9918 47.2899-19.8841C46.0784-19.7726 44.0861-20.9457 44.0861-20.9457C44.0861-20.9457 42.6439-18.9726 42.4439-18.6034C42.24-18.238 41.8939-16.7035 42.0669-16.4843C42.24-16.265 42.9323-16.5573 43.2208-16.7035C43.5092-16.8496 44.6361-17.0342 45.1553-16.665C45.4447-16.4419 45.6659-16.1416 45.7928-15.799C45.92-15.4564 45.9482-15.0846 45.8745-14.7266C45.7322-16.3381 44.6053-16.2266 44.6053-16.2266C44.463-15.3843 44.29-15.4189 43.8284-15.4189C43.3669-15.4189 41.6939-15.4189 41.5785-15.2381C41.4631-15.0574 41.2324-13.8497 41.4054-13.669C41.5785-13.4843 41.6631-11.4383 40.9439-10.8883C41.3477-11.8767 41.1747-12.7536 41.1747-12.7536C40.6247-12.3536 40.3093-12.8305 40.2516-13.3767C40.1901-13.9228 40.1055-15.0228 40.1055-15.0228C39.1247-14.0343 37.4209-13.0844 37.3093-12.8651C37.194-12.6459 36.2094-12.3152 36.1248-13.4843C35.344-13.2305 34.8248-13.2651 34.7094-11.7306C34.1633-13.2305 35.6902-13.9228 36.2401-13.8882C36.5286-14.3997 37.2209-14.4382 37.2209-14.4382C36.9324-14.6574 36.844-15.4612 37.1632-15.6074C36.9594-16.1189 36.1825-15.7881 35.7786-14.5112C35.3171-15.5343 36.644-16.2996 36.9324-16.2996C37.2209-16.2996 38.8362-16.0073 39.1247-16.0458C39.4132-16.0843 40.5362-17.4688 40.9977-18.4957C41.4593-19.5188 42.2785-21.361 41.24-23.0071L41.24-23.0071Z"/>
   <path class="monochrome-1 multicolor-1:tintColor hierarchical-1:tertiary SFSymbolsPreviewWireframe" d="M48.9411-84C55.3091-84.0013 61.615-82.7479 67.4985-80.3116C73.382-77.8752 78.7279-74.3036 83.2305-69.8009C87.7334-65.2983 91.305-59.9524 93.7418-54.0682C96.1779-48.1846 97.4312-41.8789 97.43-35.5124C97.43-8.72255 75.7254 13 48.9424 13C22.156 13 0.43-8.726 0.43-35.5124C0.43-62.2926 22.1539-84 48.9411-84ZM48.9424-70C29.8835-70 14.43-54.5582 14.43-35.5124C14.43-16.458 29.888-0.999999 48.9424-0.999999C67.9909-0.999999 83.43-16.4519 83.43-35.5138C83.4309-40.0428 82.5395-44.5276 80.8069-48.7121C79.0739-52.8969 76.5337-56.6989 73.3311-59.9013C70.1287-63.1038 66.3266-65.644 62.1422-67.3767C57.9578-69.1095 53.4729-70.0009 48.9424-70Z"/>
  </g>
  <g id="Regular-S" transform="matrix(1 0 0 1 1403.58 696)">
   <path class="monochrome-0 multicolor-0:tintColor hierarchical-0:primary SFSymbolsPreviewWireframe" d="M37.4194-22.7179C37.2708-22.9047 32.6-25.3845 29.9461-28.6752C27.2838-31.966 25.1522-36.6283 24.3072-39.1802C23.458-41.7322 23.4877-46.6153 23.4325-47.9104C23.3731-49.2055 23.0504-52.5387 23.0504-53.3879C23.0504-54.2372 22.2309-56.3475 21.7638-57.0141C21.2967-57.6808 20.8594-57.753 20.715-57.753C20.5664-57.753 18.8764-57.6808 18.7618-57.3836C18.6429-57.0863 18.6683-56.5683 18.6683-56.5683C18.4051-56.8655 18.2862-58.53 18.6429-59.1584C18.9911-59.7869 20.8042-60.8612 21.008-61.4896C21.2118-62.118 22.2309-63.6339 24.5705-63.9693C26.9059-64.3005 31.3346-61.8463 31.9291-61.358C32.5235-60.8739 32.3112-59.6935 32.2688-58.2413C32.2263-56.7933 32.1839-55.3964 33.118-54.1607C34.0522-52.9251 36.2984-51.044 39.3514-50.1311C42.4044-49.2182 45.5848-48.0378 47.7036-46.0506C49.8267-44.0633 51.9455-41.2141 52.5824-40.5178C53.2194-39.8171 56.612-36.6495 57.3721-35.8979C58.1364-35.1464 59.113-33.588 59.4527-33.2653C59.7924-32.9426 61.1512-31.8683 62.2976-29.6646C63.4399-27.4651 63.5248-25.5288 63.5248-25.5288C63.5248-25.5288 68.6117-20.8581 70.2252-19.4568C71.8388-18.0641 73.3249-16.3996 73.5797-15.1088C73.8302-13.8222 72.9555-14.3869 72.7941-14.5058C72.637-14.629 70.756-15.9623 69.1-16.9686C67.444-17.9792 66.8708-17.8603 66.8708-17.8603C66.8708-17.8603 68.7178-16.2043 69.2613-15.3551C69.8006-14.5058 69.7412-14.1449 69.4864-14.2638C69.2316-14.3869 67.0321-15.5546 67.0321-15.5546C67.0321-15.5546 68.9768-13.3381 69.0363-13.0112C69.1042-12.6885 67.5077-13.3763 67.669-13.215C67.8261-13.0536 68.6881-11.7628 68.5947-11.4401C68.497-11.1131 67.703-12.0048 67.6053-11.7203C67.5119-11.4401 67.669-10.714 67.8601-10.3488C68.0512-9.98367 67.5756-9.90299 67.3506-10.1875C67.1298-10.472 66.3018-10.5909 66.5226-10.0261C66.7476-9.46139 66.6202-8.93487 66.4928-8.85419C66.3655-8.77352 65.6946-8.57395 64.1023-10.0686C62.51-11.559 56.9687-18.0599 56.3912-18.7859C55.024-18.1787 54.6716-17.9367 54.196-18.1405C53.7162-18.3401 52.506-19.1087 51.9965-18.9473C51.4869-18.7859 50.5952-19.6352 50.4679-19.8772C50.3405-20.1192 50.2471-20.3995 50.2471-20.3995L47.9541-20.6415C46.9648-19.5927 45.4362-19.3889 44.0986-19.27C42.7611-19.1469 40.5616-20.4419 40.5616-20.4419C40.5616-20.4419 38.9693-18.2637 38.7485-17.856C38.5234-17.4527 38.1413-15.7584 38.3324-15.5164C38.5234-15.2744 39.2877-15.5971 39.6062-15.7584C39.9247-15.9198 41.1688-16.1236 41.742-15.716C42.0615-15.4697 42.3057-15.1381 42.4458-14.7599C42.5863-14.3816 42.6174-13.9712 42.536-13.5759C42.3789-15.3551 41.1348-15.2319 41.1348-15.2319C40.9777-14.302 40.7866-14.3402 40.2771-14.3402C39.7676-14.3402 37.9205-14.3402 37.7931-14.1407C37.6657-13.9411 37.4109-12.6078 37.602-12.4082C37.7931-12.2044 37.8865-9.94545 37.0925-9.33825C37.5383-10.4295 37.3472-11.3976 37.3472-11.3976C36.74-10.956 36.3919-11.4826 36.3282-12.0855C36.2602-12.6885 36.1668-13.9029 36.1668-13.9029C35.084-12.8116 33.2029-11.7628 33.0798-11.5208C32.9524-11.2787 31.8654-10.9136 31.772-12.2044C30.91-11.9242 30.3368-11.9624 30.2094-10.2682C29.6064-11.9242 31.2922-12.6885 31.8994-12.6503C32.2178-13.215 32.9821-13.2575 32.9821-13.2575C32.6637-13.4995 32.566-14.3869 32.9184-14.5483C32.6934-15.113 31.8357-14.7479 31.3898-13.3381C30.8803-14.4676 32.3452-15.3126 32.6637-15.3126C32.9821-15.3126 34.7655-14.9899 35.084-15.0323C35.4025-15.0748 36.6424-16.6034 37.1519-17.7371C37.6615-18.8666 38.5659-20.9005 37.4194-22.7179L37.4194-22.7179Z"/>
   <path class="monochrome-1 multicolor-1:tintColor hierarchical-1:tertiary SFSymbolsPreviewWireframe" d="M46.4321-81.8365C52.4502-81.8377 58.4096-80.6532 63.9698-78.3508C69.53-76.0483 74.5822-72.6729 78.8374-68.4176C83.0928-64.1624 86.4682-59.1103 88.771-53.5496C91.0733-47.9892 92.2577-42.03 92.2566-36.0127C92.2566-10.693 71.744 9.83658 46.4328 9.83658C21.1173 9.83658 0.5835-10.6972 0.5835-36.0127C0.5835-61.3211 21.1145-81.8365 46.4321-81.8365ZM46.4328-75.0865C24.8413-75.0865 7.3335-57.592 7.3335-36.0127C7.3335-14.4252 24.8452 3.08658 46.4328 3.08658C68.0148 3.08658 85.5066-14.4197 85.5066-36.0133C85.5076-41.1447 84.4976-46.226 82.5345-50.9672C80.571-55.7085 77.693-60.0162 74.0644-63.6446C70.4361-67.273 66.1283-70.1511 61.3873-72.1143C56.6463-74.0776 51.5649-75.0875 46.4328-75.0865Z"/>
  </g>
  <g id="Ultralight-S" transform="matrix(1 0 0 1 515.649 696)">
   <path class="monochrome-0 multicolor-0:tintColor hierarchical-0:primary SFSymbolsPreviewWireframe" d="M35.5869-23.4243C35.4383-23.6111 30.7675-26.0909 28.1136-29.3817C25.4513-32.6724 23.3197-37.3347 22.4747-39.8867C21.6255-42.4386 21.6552-47.3217 21.6-48.6168C21.5406-49.9119 21.2179-53.2451 21.2179-54.0944C21.2179-54.9436 20.3984-57.0539 19.9313-57.7206C19.4642-58.3872 19.0269-58.4594 18.8825-58.4594C18.7339-58.4594 17.0439-58.3872 16.9293-58.09C16.8104-57.7928 16.8358-57.2747 16.8358-57.2747C16.5726-57.572 16.4537-59.2364 16.8104-59.8649C17.1586-60.4933 18.9717-61.5676 19.1755-62.196C19.3793-62.8244 20.3984-64.3403 22.738-64.6758C25.0734-65.007 29.5021-62.5527 30.0966-62.0644C30.691-61.5803 30.4787-60.3999 30.4363-58.9477C30.3938-57.4998 30.3514-56.1028 31.2855-54.8672C32.2197-53.6315 34.4659-51.7505 37.5189-50.8376C40.5719-49.9246 43.7523-48.7442 45.8711-46.757C47.9942-44.7697 50.113-41.9206 50.7499-41.2242C51.3869-40.5236 54.7795-37.3559 55.5396-36.6044C56.3039-35.8528 57.2805-34.2945 57.6202-33.9718C57.9599-33.6491 59.3187-32.5748 60.4651-30.371C61.6074-28.1715 61.6923-26.2353 61.6923-26.2353C61.6923-26.2353 66.7792-21.5645 68.3927-20.1633C70.0063-18.7705 71.4924-17.106 71.7472-15.8152C71.9977-14.5286 71.123-15.0934 70.9616-15.2123C70.8045-15.3354 68.9235-16.6687 67.2675-17.675C65.6115-18.6856 65.0383-18.5667 65.0383-18.5667C65.0383-18.5667 66.8853-16.9107 67.4288-16.0615C67.9681-15.2123 67.9087-14.8513 67.6539-14.9702C67.3991-15.0934 65.1996-16.2611 65.1996-16.2611C65.1996-16.2611 67.1443-14.0446 67.2038-13.7176C67.2717-13.3949 65.6752-14.0828 65.8365-13.9214C65.9936-13.7601 66.8556-12.4692 66.7622-12.1465C66.6645-11.8196 65.8705-12.7113 65.7728-12.4268C65.6794-12.1465 65.8365-11.4204 66.0276-11.0553C66.2187-10.6901 65.7431-10.6094 65.5181-10.8939C65.2973-11.1784 64.4693-11.2973 64.6901-10.7326C64.9151-10.1678 64.7877-9.6413 64.6603-9.56062C64.533-9.47994 63.8621-9.28038 62.2698-10.775C60.6775-12.2654 55.1362-18.7663 54.5587-19.4924C53.1915-18.8852 52.8391-18.6431 52.3635-18.847C51.8837-19.0465 50.6735-19.8151 50.164-19.6537C49.6544-19.4924 48.7627-20.3416 48.6354-20.5836C48.508-20.8257 48.4146-21.1059 48.4146-21.1059L46.1216-21.3479C45.1323-20.2991 43.6037-20.0953 42.2661-19.9764C40.9286-19.8533 38.7291-21.1484 38.7291-21.1484C38.7291-21.1484 37.1368-18.9701 36.916-18.5625C36.6909-18.1591 36.3088-16.4649 36.4999-16.2228C36.6909-15.9808 37.4552-16.3035 37.7737-16.4649C38.0922-16.6262 39.3363-16.83 39.9095-16.4224C40.229-16.1761 40.4732-15.8446 40.6133-15.4663C40.7538-15.0881 40.7849-14.6776 40.7035-14.2823C40.5464-16.0615 39.3023-15.9383 39.3023-15.9383C39.1452-15.0084 38.9541-15.0467 38.4446-15.0467C37.9351-15.0467 36.088-15.0467 35.9606-14.8471C35.8332-14.6475 35.5784-13.3142 35.7695-13.1147C35.9606-12.9108 36.054-10.6519 35.26-10.0447C35.7058-11.1359 35.5147-12.1041 35.5147-12.1041C34.9075-11.6625 34.5594-12.189 34.4957-12.7919C34.4277-13.3949 34.3343-14.6093 34.3343-14.6093C33.2515-13.518 31.3704-12.4692 31.2473-12.2272C31.1199-11.9852 30.0329-11.62 29.9395-12.9108C29.0775-12.6306 28.5043-12.6688 28.3769-10.9746C27.7739-12.6306 29.4597-13.3949 30.0669-13.3567C30.3853-13.9214 31.1496-13.9639 31.1496-13.9639C30.8312-14.2059 30.7335-15.0934 31.0859-15.2547C30.8609-15.8195 30.0032-15.4543 29.5573-14.0446C29.0478-15.174 30.5127-16.019 30.8312-16.019C31.1496-16.019 32.933-15.6963 33.2515-15.7388C33.57-15.7812 34.8099-17.3099 35.3194-18.4436C35.829-19.5731 36.7334-21.607 35.5869-23.4243L35.5869-23.4243Z"/>
   <path class="monochrome-1 multicolor-1:tintColor hierarchical-1:tertiary SFSymbolsPreviewWireframe" d="M44.3636-81C50.0861-81.0011 55.7528-79.8748 61.04-77.6855C66.3271-75.4961 71.1312-72.2864 75.1774-68.24C79.2239-64.1938 82.4335-59.3899 84.6232-54.1024C86.8124-48.815 87.9387-43.1484 87.9376-37.4262C87.9376-13.3487 68.432 6.17308 44.3638 6.17308C20.2909 6.17308 0.7645-13.3534 0.7645-37.4262C0.7645-61.4916 20.2877-81 44.3636-81ZM44.3638-78.75C21.53-78.75 3.0145-60.2486 3.0145-37.4262C3.0145-14.596 21.5336 3.92308 44.3638 3.92308C67.1889 3.92308 85.6876-14.5909 85.6876-37.4264C85.6886-42.8533 84.6205-48.2273 82.5443-53.2415C80.4678-58.256 77.4239-62.8118 73.5865-66.649C69.7491-70.4865 65.1932-73.5303 60.1791-75.6066C55.1651-77.683 49.791-78.7511 44.3638-78.75Z"/>
  </g>
 </g>
</svg>
