<?xml version="1.0" encoding="UTF-8"?>
<svg width="3300px" height="2200px" viewBox="0 0 3300 2200" version="1.1" xmlns="http://www.w3.org/2000/svg" xmlns:xlink="http://www.w3.org/1999/xlink">
    <!-- Generator: Sketch 59.1 (86144) - https://sketch.com -->
    <title>filter</title>
    <desc>Created with Sketch.</desc>
    <g id="Page-1" stroke="none" stroke-width="1" fill="none" fill-rule="evenodd">
        <g id="filter">
            <g id="Notes">
                <rect id="artboard" fill="#FFFFFF" fill-rule="nonzero" x="0" y="0" width="3300" height="2200"></rect>
                <line x1="263" y1="292" x2="3036" y2="292" id="Path" stroke="#000000" stroke-width="0.5"></line>
                <text id="Weight/Scale-Variations" fill="#000000" font-family="Helvetica-Bold, Helvetica" font-size="13" font-weight="bold">
                    <tspan x="263" y="322">Weight/Scale Variations</tspan>
                </text>
                <text id="Ultralight" fill="#000000" font-family="Helvetica" font-size="13" font-weight="normal">
                    <tspan x="533.711" y="322">Ultralight</tspan>
                </text>
                <text id="Thin" fill="#000000" font-family="Helvetica" font-size="13" font-weight="normal">
                    <tspan x="843.422" y="322">Thin</tspan>
                </text>
                <text id="Light" fill="#000000" font-family="Helvetica" font-size="13" font-weight="normal">
                    <tspan x="1138.63" y="322">Light</tspan>
                </text>
                <text id="Regular" fill="#000000" font-family="Helvetica" font-size="13" font-weight="normal">
                    <tspan x="1426.84" y="322">Regular</tspan>
                </text>
                <text id="Medium" fill="#000000" font-family="Helvetica" font-size="13" font-weight="normal">
                    <tspan x="1723.06" y="322">Medium</tspan>
                </text>
                <text id="Semibold" fill="#000000" font-family="Helvetica" font-size="13" font-weight="normal">
                    <tspan x="2015.77" y="322">Semibold</tspan>
                </text>
                <text id="Bold" fill="#000000" font-family="Helvetica" font-size="13" font-weight="normal">
                    <tspan x="2326.48" y="322">Bold</tspan>
                </text>
                <text id="Heavy" fill="#000000" font-family="Helvetica" font-size="13" font-weight="normal">
                    <tspan x="2618.19" y="322">Heavy</tspan>
                </text>
                <text id="Black" fill="#000000" font-family="Helvetica" font-size="13" font-weight="normal">
                    <tspan x="2917.4" y="322">Black</tspan>
                </text>
                <line x1="263" y1="1903" x2="3036" y2="1903" id="Path" stroke="#000000" stroke-width="0.5"></line>
                <g id="Group" transform="translate(264.000000, 1918.000000)" fill="#000000" fill-rule="nonzero">
                    <path d="M8.24805,15.830078 C12.5547,15.830078 16.1387,12.25586 16.1387,7.94922 C16.1387,3.6426 12.5449,0.0684 8.23828,0.0684 C3.94141,0.0684 0.36719,3.6426 0.36719,7.94922 C0.36719,12.25586 3.95117,15.830078 8.24805,15.830078 Z M8.24805,14.345703 C4.70312,14.345703 1.87109,11.50391 1.87109,7.94922 C1.87109,4.3945 4.69336,1.5527 8.23828,1.5527 C11.793,1.5527 14.6348,4.3945 14.6445503,7.94922 C14.6543,11.50391 11.8027,14.345703 8.24805,14.345703 Z M8.22852,11.57227 C8.69727,11.57227 8.9707,11.25977 8.9707,10.74219 L8.9707,8.68164 L11.1973,8.68164 C11.6953,8.68164 12.0371,8.42773 12.0371,7.95898 C12.0371,7.48047 11.7148,7.2168 11.1973,7.2168 L8.9707,7.2168 L8.9707,4.9902 C8.9707,4.4727 8.69727,4.1504 8.22852,4.1504 C7.75977,4.1504 7.50586,4.4922 7.50586,4.9902 L7.50586,7.2168 L5.29883,7.2168 C4.78125,7.2168 4.44922,7.48047 4.44922,7.95898 C4.44922,8.42773 4.80078,8.68164 5.29883,8.68164 L7.50586,8.68164 L7.50586,10.74219 C7.50586,11.24023 7.75977,11.57227 8.22852,11.57227 Z" id="Shape"></path>
                </g>
                <g id="Group" transform="translate(282.506000, 1915.000000)" fill="#000000" fill-rule="nonzero">
                    <path d="M10.709,20.91016 C16.1582,20.91016 20.6699,16.39844 20.6699,10.94922 C20.6699,5.5098 16.1484,0.9883 10.6992,0.9883 C5.25977,0.9883 0.74805,5.5098 0.74805,10.94922 C0.74805,16.39844 5.26953,20.91016 10.709,20.91016 Z M10.709,19.25 C6.09961,19.25 2.41797,15.55859 2.41797,10.94922 C2.41797,6.3496 6.08984,2.6484 10.6992,2.6484 C15.3086,2.6484 19,6.3496 19.0098379,10.94922 C19.0195,15.55859 15.3184,19.25 10.709,19.25 Z M10.6895,15.58789 C11.207,15.58789 11.5195,15.22656 11.5195,14.66016 L11.5195,11.76953 L14.5762,11.76953 C15.123,11.76953 15.5039,11.48633 15.5039,10.96875 C15.5039,10.44141 15.1426,10.13867 14.5762,10.13867 L11.5195,10.13867 L11.5195,7.0723 C11.5195,6.4961 11.207,6.1445 10.6895,6.1445 C10.1719,6.1445 9.8789,6.5156 9.8789,7.0723 L9.8789,10.13867 L6.83203,10.13867 C6.26562,10.13867 5.89453,10.44141 5.89453,10.96875 C5.89453,11.48633 6.28516,11.76953 6.83203,11.76953 L9.8789,11.76953 L9.8789,14.66016 C9.8789,15.20703 10.1719,15.58789 10.6895,15.58789 Z" id="Shape"></path>
                </g>
                <g id="Group" transform="translate(306.924000, 1913.000000)" fill="#000000" fill-rule="nonzero">
                    <path d="M12.9707,25.67383 C19.9336,25.67383 25.6953,19.921875 25.6953,12.95898 C25.6953,5.9961 19.9238,0.2441 12.9609,0.2441 C6.00781,0.2441 0.25586,5.9961 0.25586,12.95898 C0.25586,19.921875 6.01758,25.67383 12.9707,25.67383 Z M12.9707,23.85742 C6.93555,23.85742 2.08203,18.99414 2.08203,12.95898 C2.08203,6.9238 6.92578,2.0605 12.9609,2.0605 C19.0059,2.0605 23.8594,6.9238 23.8691295,12.95898 C23.8789,18.99414 19.0156,23.85742 12.9707,23.85742 Z M12.9512,18.93555 C13.5176,18.93555 13.8691,18.54492 13.8691,17.93945 L13.8691,13.86719 L18.1074,13.86719 C18.6934,13.86719 19.1133,13.53516 19.1133,12.97852 C19.1133,12.40234 18.7227,12.06055 18.1074,12.06055 L13.8691,12.06055 L13.8691,7.8125 C13.8691,7.1973 13.5176,6.8066 12.9512,6.8066 C12.3848,6.8066 12.0625,7.2168 12.0625,7.8125 L12.0625,12.06055 L7.83398,12.06055 C7.21875,12.06055 6.80859,12.40234 6.80859,12.97852 C6.80859,13.53516 7.23828,13.86719 7.83398,13.86719 L12.0625,13.86719 L12.0625,17.93945 C12.0625,18.52539 12.3848,18.93555 12.9512,18.93555 Z" id="Shape"></path>
                </g>
                <text id="Design-Variations" fill="#000000" font-family="Helvetica-Bold, Helvetica" font-size="13" font-weight="bold">
                    <tspan x="263" y="1953">Design Variations</tspan>
                </text>
                <text id="Symbols-are-supported-in-up-to-nine-weights-and-three-scales." fill="#000000" font-family="Helvetica" font-size="13" font-weight="normal">
                    <tspan x="263" y="1971">Symbols are supported in up to nine weights and three scales.</tspan>
                </text>
                <text id="For-optimal-layout-with-text-and-other-symbols,-vertically-align" fill="#000000" font-family="Helvetica" font-size="13" font-weight="normal">
                    <tspan x="263" y="1989">For optimal layout with text and other symbols, vertically align</tspan>
                </text>
                <text id="symbols-with-the-adjacent-text." fill="#000000" font-family="Helvetica" font-size="13" font-weight="normal">
                    <tspan x="263" y="2007">symbols with the adjacent text.</tspan>
                </text>
                <rect id="Rectangle" fill="#00AEEF" fill-rule="nonzero" opacity="0.4" x="776" y="1919" width="3" height="14"></rect>
                <g id="Group" transform="translate(779.000000, 1918.000000)" fill="#000000" fill-rule="nonzero">
                    <path d="M10.5273,15 L12.373,15 L7.17773,0.9082 L5.43945,0.9082 L0.244141,15 L2.08984,15 L3.50586,10.9668 L9.11133,10.9668 L10.5273,15 Z M6.2793,3.0469 L6.33789,3.0469 L8.59375,9.47266 L4.02344,9.47266 L6.2793,3.0469 Z" id="Shape"></path>
                </g>
                <rect id="Rectangle" fill="#00AEEF" fill-rule="nonzero" opacity="0.4" x="791.617" y="1919" width="3" height="14"></rect>
                <text id="Margins" fill="#000000" font-family="Helvetica-Bold, Helvetica" font-size="13" font-weight="bold">
                    <tspan x="776" y="1953">Margins</tspan>
                </text>
                <text id="Leading-and-trailing-margins-on-the-left-and-right-side-of-each-symbol" fill="#000000" font-family="Helvetica" font-size="13" font-weight="normal">
                    <tspan x="776" y="1971">Leading and trailing margins on the left and right side of each symbol</tspan>
                </text>
                <text id="can-be-adjusted-by-modifying-the-width-of-the-blue-rectangles." fill="#000000" font-family="Helvetica" font-size="13" font-weight="normal">
                    <tspan x="776" y="1989">can be adjusted by modifying the width of the blue rectangles.</tspan>
                </text>
                <text id="Modifications-are-automatically-applied-proportionally-to-all" fill="#000000" font-family="Helvetica" font-size="13" font-weight="normal">
                    <tspan x="776" y="2007">Modifications are automatically applied proportionally to all</tspan>
                </text>
                <text id="scales-and-weights." fill="#000000" font-family="Helvetica" font-size="13" font-weight="normal">
                    <tspan x="776" y="2025">scales and weights.</tspan>
                </text>
                <g id="Group" transform="translate(1291.000000, 1915.000000)" fill="#000000" fill-rule="nonzero">
                    <path d="M0.83203,21.11523 L2.375,22.6582 C3.22461,23.48828 4.19141,23.41992 5.06055,22.46289 L15.2754,11.33984 C15.7051,11.63281 16.0957,11.62305 16.5645,11.52539 L17.6094,11.31055 L18.3027,12.00391 L18.2539,12.52148 C18.1855,13.04883 18.3516,13.46875 18.8496,13.9668 L19.6602,14.77734 C20.168,15.28516 20.8223,15.31445 21.3008,14.83594 L24.5527,11.58398 C25.0312,11.10547 25.0117,10.45117 24.5039,9.94336 L23.6836,9.12305 C23.1855,8.625 22.7754,8.44922 22.2383,8.52734 L21.7109,8.58594 L21.0566,7.9219 L21.3398,6.7793 C21.4863,6.2129 21.3398,5.7441 20.7148,5.1387 L18.3027,2.7461 C14.7578,-0.7793 10.2266,-0.6719 7.11133,2.4629 C6.69141,2.8926 6.64258,3.4785 6.91602,3.9082 C7.15039,4.2793 7.62891,4.5039 8.2734,4.3379 C9.7871,3.957 11.3008,4.0742 12.7852,5.0801 L12.1602,6.6621 C11.9258,7.248 11.9453,7.7266 12.1797,8.16602 L1.01758,18.439453 C0.08008,19.30859 -0.02734,20.25586 0.83203,21.11523 Z M8.6738,2.8535 C11.3398,0.8613 14.6504,1.1738 17.0527,3.5859 L19.6797,6.1934 C19.9141,6.4277 19.9434,6.6133 19.8848,6.9062 L19.5039,8.46875 L21.0762,10.04102 L22.043,9.95312 C22.3262,9.92383 22.4141,9.94336 22.6387,10.16797 L23.2637,10.79297 L20.5098,13.53711 L19.8848,12.92188 C19.6602,12.69727 19.6406,12.59961 19.6699,12.31641 L19.7578,11.35938 L18.1953,9.79688 L16.5742,10.10938 C16.291,10.16797 16.1445,10.16797 15.9102,9.92383 L13.7324,7.7461 C13.5078,7.5117 13.4785,7.375 13.6055,7.0527 L14.5527,4.7773 C12.9512,3.2441 10.8418,2.3945 8.8008,3.0488 C8.7129,3.0781 8.6445,3.0586 8.6152,3.0195 C8.5859,2.9707 8.5859,2.9219 8.6738,2.8535 Z M2.10156,20.41211 C1.61328,19.91406 1.78906,19.61133 2.12109,19.30859 L13.0781,9.19141 L14.3086,10.42188 L4.15234,21.34961 C3.84961,21.68164 3.46875,21.7793 3.06836,21.37891 L2.10156,20.41211 Z" id="Shape"></path>
                </g>
                <text id="Exporting" fill="#000000" font-family="Helvetica-Bold, Helvetica" font-size="13" font-weight="bold">
                    <tspan x="1289" y="1953">Exporting</tspan>
                </text>
                <text id="Symbols-should-be-outlined-when-exporting-to-ensure-the" fill="#000000" font-family="Helvetica" font-size="13" font-weight="normal">
                    <tspan x="1289" y="1971">Symbols should be outlined when exporting to ensure the</tspan>
                </text>
                <text id="design-is-preserved-when-submitting-to-Xcode." fill="#000000" font-family="Helvetica" font-size="13" font-weight="normal">
                    <tspan x="1289" y="1989">design is preserved when submitting to Xcode.</tspan>
                </text>
                <text id="Template-v.1.0" fill="#000000" font-family="Helvetica" font-size="13" font-weight="normal">
                    <tspan x="2952" y="1933">Template v.1.0</tspan>
                </text>
                <text id="Generated-from-circle" fill="#000000" font-family="Helvetica" font-size="13" font-weight="normal">
                    <tspan x="2911" y="1951">Generated from circle</tspan>
                </text>
                <text id="Typeset-at-100-points" fill="#000000" font-family="Helvetica" font-size="13" font-weight="normal">
                    <tspan x="2912" y="1969">Typeset at 100 points</tspan>
                </text>
                <text id="Small" fill="#000000" font-family="Helvetica" font-size="13" font-weight="normal">
                    <tspan x="263" y="726">Small</tspan>
                </text>
                <text id="Medium" fill="#000000" font-family="Helvetica" font-size="13" font-weight="normal">
                    <tspan x="263" y="1156">Medium</tspan>
                </text>
                <text id="Large" fill="#000000" font-family="Helvetica" font-size="13" font-weight="normal">
                    <tspan x="263" y="1586">Large</tspan>
                </text>
            </g>
            <g id="Guides" transform="translate(263.000000, 625.000000)">
                <g id="H-reference" transform="translate(76.000000, 0.000000)" fill="#27AAE1" fill-rule="nonzero">
                    <path d="M54.9316,71 L57.666,71 L30.5664,0.541 L28.0762,0.541 L0.976562,71 L3.66211,71 L12.9395,46.5371 L45.7031,46.5371 L54.9316,71 Z M29.1992,3.9102 L29.4434,3.9102 L44.8242,44.291 L13.8184,44.291 L29.1992,3.9102 Z" id="Shape"></path>
                </g>
                <line x1="0" y1="71" x2="2773" y2="71" id="Baseline-S" stroke="#27AAE1" stroke-width="0.577"></line>
                <line x1="0" y1="0.541" x2="2773" y2="0.541" id="Capline-S" stroke="#27AAE1" stroke-width="0.577"></line>
                <g id="H-reference" transform="translate(76.000000, 430.000000)" fill="#27AAE1" fill-rule="nonzero">
                    <path d="M54.9316,71 L57.666,71 L30.5664,0.541 L28.0762,0.541 L0.976562,71 L3.66211,71 L12.9395,46.5371 L45.7031,46.5371 L54.9316,71 Z M29.1992,3.9102 L29.4434,3.9102 L44.8242,44.291 L13.8184,44.291 L29.1992,3.9102 Z" id="Shape"></path>
                </g>
                <line x1="0" y1="501" x2="2773" y2="501" id="Baseline-M" stroke="#27AAE1" stroke-width="0.577"></line>
                <line x1="0" y1="430.54" x2="2773" y2="430.54" id="Capline-M" stroke="#27AAE1" stroke-width="0.577"></line>
                <g id="H-reference" transform="translate(76.000000, 860.000000)" fill="#27AAE1" fill-rule="nonzero">
                    <path d="M54.9316,71 L57.666,71 L30.5664,0.541 L28.0762,0.541 L0.976562,71 L3.66211,71 L12.9395,46.5371 L45.7031,46.5371 L54.9316,71 Z M29.1992,3.9102 L29.4434,3.9102 L44.8242,44.291 L13.8184,44.291 L29.1992,3.9102 Z" id="Shape"></path>
                </g>
                <line x1="0" y1="931" x2="2773" y2="931" id="Baseline-L" stroke="#27AAE1" stroke-width="0.577"></line>
                <line x1="0" y1="860.54" x2="2773" y2="860.54" id="Capline-L" stroke="#27AAE1" stroke-width="0.577"></line>
                <rect id="left-margin" fill="#00AEEF" fill-rule="nonzero" opacity="0.4" x="1128.3" y="405.79" width="8.74023" height="119.336"></rect>
                <rect id="right-margin" fill="#00AEEF" fill-rule="nonzero" opacity="0.4" x="1236.65" y="405.79" width="8.74023" height="119.336"></rect>
            </g>
            <g id="Symbols" transform="translate(1399.000000, 1040.000000)" fill="#000000" fill-rule="nonzero">
                <g id="Regular-M" transform="translate(0.300000, 0.000000)">
                    <path d="M50.5449,100.5508 C77.791,100.5508 100.35,77.99219 100.35,50.7461 C100.35,23.5488 77.7422,0.9414 50.4961,0.9414 C23.2988,0.9414 0.74023,23.5488 0.74023,50.7461 C0.74023,77.99219 23.3477,100.5508 50.5449,100.5508 Z M50.1551,92.0078 C27.1082,92.0078 8.7,73.5508 8.7,50.5039 C8.7,27.5058 27.0594,9 50.1063,9 C73.1532,9 91.6102,27.5058 91.6593938,50.5039 C91.7082,73.5508 73.202,92.0078 50.1551,92.0078 Z" id="Shape"></path>
                    <path d="M48.6923744,39.9817304 C48.826374,39.9021684 48.9268737,39.8686686 49.0022484,39.7932941 C49.2744351,39.5252959 49.5340592,39.2363604 49.8104333,38.9767371 C50.1621822,38.6417394 50.522306,38.3318665 50.8824299,38.0136186 C51.468678,37.4818097 52.0633011,36.9709381 52.6327993,36.4223793 C53.1101727,35.9617574 53.5540463,35.4592608 54.0146698,34.9777016 C54.1235445,34.8646398 54.2449816,34.7767029 54.3412938,34.6552662 C54.6637302,34.2574564 54.9861667,33.8596466 55.2834782,33.4408994 C55.5933522,33.0095898 55.9409136,32.5908426 56.1628504,32.0925335 C56.7993484,30.6520432 57.3772215,29.1696782 57.9802196,27.7082505 C58.2900936,26.9628805 58.5664677,26.1840108 58.9433415,25.4972654 C59.39559,24.6807084 59.877151,23.8809013 60.5471488,23.2946552 C61.0077723,22.8926579 61.3972086,22.3357242 61.8745821,21.9797891 C62.4985175,21.5149797 63.1727029,21.1590446 63.8427007,20.7905471 C64.1776996,20.6021109 64.542011,20.4639243 64.9063223,20.3466751 C66.2337555,19.9279279 67.5570013,19.8190536 68.8844345,20.4136746 C70.2579301,21.0334205 71.4681137,21.9839766 72.5401103,23.2192807 C73.3147953,24.1153997 74.035043,25.0952681 74.8264779,25.9662622 C75.3708512,26.5525083 75.7184126,27.2560036 75.9445368,28.085123 C75.9570993,28.1311852 76.0157241,28.1981847 76.049224,28.1939972 C76.3297856,28.1772474 76.6103472,28.1102478 76.8867213,28.1186228 C77.2635951,28.1353726 77.6572188,28.1479351 78.0089677,28.2819342 C78.4821537,28.457808 78.9302147,28.7383686 79.3782758,29.0063668 C79.5039004,29.0817413 79.62115,29.2492401 79.6881498,29.4083641 C79.7216497,29.4921135 79.6797748,29.7224245 79.6169625,29.7642992 C79.3238385,29.9736728 79.0307144,30.2039837 78.7082779,30.3086705 C77.9210305,30.5766687 77.125408,30.8823541 76.3172231,30.9870409 C75.2368516,31.1252275 75.2619765,31.5104749 75.0232898,32.4945308 C74.8390404,33.2692131 74.7217908,34.0815826 74.6254786,34.8855772 C74.5291664,35.6602595 74.5961662,36.4349418 74.8348529,37.1719368 C74.9897899,37.6744334 75.1363519,38.185305 75.2954764,38.6878016 C75.4252885,39.0856114 75.6095379,39.4624839 75.6974751,39.8728561 C75.8230997,40.4507272 75.8900995,41.0495357 75.9738492,41.6441567 L76.1162238,42.6868372 C76.1329737,42.8333987 76.1790361,42.9757727 76.1790361,43.1223342 C76.1999735,43.9388912 76.204161,44.7554482 76.2209109,45.5720052 C76.2250984,45.7311292 76.2753483,45.8902531 76.3046607,46.049377 C76.4554102,47.0418078 76.359098,48.0174888 76.195786,48.9889822 C76.0785364,49.6841025 75.9654743,50.3792229 75.8314747,51.0701557 C75.6849127,51.8113382 75.5341631,52.5525207 75.3415388,53.2727659 C75.257789,53.5910137 75.0484147,53.850637 74.9311651,54.1605099 C74.7762281,54.5708821 74.6631659,55.0063792 74.5249789,55.4293139 C74.4412292,55.6889371 74.3574794,55.9485604 74.2569798,56.1998087 C73.854981,57.2466766 73.4236699,58.2851696 73.0551711,59.3529749 C72.5359228,60.8437149 71.7151754,62.0706441 70.9404904,63.3310732 C70.283055,64.4072534 69.3785579,65.131686 68.4782483,65.8519312 C68.1725618,66.098992 67.8878127,66.3963025 67.5821262,66.6475508 C67.2555023,66.915549 66.9121284,67.1542349 66.5813169,67.4222331 C66.1332559,67.7907306 65.7019447,68.1969154 65.2413212,68.5402881 C64.9021348,68.7999113 64.5210735,68.9799726 64.1609497,69.1977211 L63.9599503,69.3484701 C64.2656369,69.4070947 64.4959486,69.4866567 64.7304479,69.4992191 C65.471633,69.5285314 66.2170056,69.4824692 66.9205033,69.8635292 C67.0406818,69.9258299 67.1474027,70.0112064 67.2345648,70.1147775 C67.4481266,70.3869631 67.649126,70.6842736 67.8626878,70.9648343 C68.0008749,71.1532705 68.1558119,71.3333318 68.3065614,71.5092056 C68.74206,72.0033273 68.8593096,72.6733227 68.9304969,73.3516932 C68.9933092,73.9546891 69.0644964,74.56606 69.0477465,75.1690559 C69.0264143,75.5526874 68.9296527,75.9283486 68.7629974,76.2745485 C68.5536231,76.7184205 68.277249,77.1162303 68.0134373,77.5182276 C67.8752503,77.7276012 67.7035633,77.9202249 67.4606891,77.7485386 C67.2052524,77.5642898 67.2848147,77.2921041 67.3518144,77.024106 C67.3978768,76.8398572 67.4355642,76.6472335 67.4816265,76.4169225 C67.4188142,76.4587973 67.3601894,76.4713597 67.3350645,76.5132344 C67.0503154,76.9864187 66.5980669,77.0701681 66.2002556,77.2669793 C65.8736317,77.4219158 65.5176953,77.1706675 65.3292584,76.7812326 C65.0612593,76.2242988 64.7806977,75.6799275 64.215387,75.5208036 C64.1316373,75.4956787 64.0772,75.2988676 64.0102002,75.1858058 C63.6877637,74.6204971 63.3527648,74.0677509 63.0470783,73.4898797 C62.9382036,73.2930686 62.9005163,73.0418203 62.820954,72.7780095 L62.6367046,72.8282592 C63.0931406,72.3550749 62.6283296,71.9782024 62.6283296,71.5594552 C62.6283296,71.1407081 62.3142681,70.9187721 62.1300187,70.6172741 C62.0169566,70.4288379 61.9290194,70.2069019 61.8159572,70.0142782 C61.7824573,69.9556535 61.7028951,69.9012164 61.6484578,69.9054039 C61.5144582,69.9095914 61.3888336,69.9640285 61.254834,69.9724034 C61.1920217,69.9765909 61.1292094,69.9054039 61.0622097,69.9012164 C61.0035849,69.8928415 60.9114601,69.9012164 60.8863352,69.9430911 C60.6937108,70.3032137 60.3838368,70.3074012 60.1074627,70.3367135 C59.2699654,70.4246504 58.4408431,70.5377121 57.6075333,70.5418996 C56.8537857,70.5418996 56.0958506,70.4372128 55.342103,70.332526 C54.6554106,70.2338805 53.9724231,70.1109711 53.2944221,69.9640285 C53.1059852,69.9263412 52.9175483,69.7211551 52.7374864,69.737905 C52.1219259,69.7965296 51.6487399,69.2772831 51.0792418,69.1390965 C50.7358679,69.0553471 50.6186182,69.0972218 50.6730556,69.524344 C50.7484303,70.11059 50.8782424,70.6800862 50.9913045,71.2537698 C51.1169291,71.8735156 51.2341788,72.4932615 51.3765533,73.1004449 C51.5356778,73.7662529 51.7115522,74.4194985 51.8916141,75.0727441 C52.1805507,76.119612 52.4778623,77.1539176 52.7584239,78.2007855 C52.8756735,78.6279077 52.9552357,79.0717797 53.034798,79.5114642 C53.0808603,79.7627125 53.2022974,79.8841492 53.3907343,79.838087 C53.7257332,79.7543376 54.0816696,79.7040879 54.3706062,79.5072767 C55.0741039,79.0299049 55.7859766,78.8414687 56.5564741,79.1136544 C56.899848,79.2309036 57.2306595,79.3900275 57.5614709,79.5282141 C57.5028461,79.8841492 57.6535956,80.1479599 57.8671574,80.1563349 C58.0262819,80.1563349 58.0514068,80.210772 58.0639693,80.4285205 C58.0890942,80.8598301 58.2314688,81.2785773 58.2524062,81.7098869 C58.2646858,82.0596809 58.2266088,82.4094234 58.1393441,82.7483799 C58.0549348,83.0709037 57.9341171,83.3827808 57.7792202,83.6779986 C57.6661581,83.8999347 57.527971,84.151183 57.3520966,84.2516823 C57.0673475,84.4108062 56.9919727,84.6578671 56.9542854,84.9970523 C56.9423259,85.1620242 56.8810495,85.3195913 56.7784109,85.4492992 C56.6192864,85.6167981 56.4685369,85.5204862 56.4015371,85.2692379 C56.3805997,85.1854885 56.3805997,85.0891766 56.3722247,85.0012397 L56.2842875,83.3639383 C56.29685,83.3513758 56.4099121,83.3220635 56.4224746,83.2676264 C56.451787,83.0833777 56.5062243,82.8195669 56.435037,82.7106927 C56.2633501,82.4594444 56.0246634,82.2751956 55.8069141,82.0741969 C55.7859766,82.0574471 55.6980394,82.1160717 55.6645395,82.1663213 C55.6436021,82.1998211 55.6436021,82.3003204 55.6645395,82.3338202 C55.9157887,82.6562555 55.8362265,83.0540654 55.8278515,83.4393128 C55.8278515,83.5063123 55.8487889,83.6068116 55.8906638,83.6403114 C56.1628504,83.8580599 56.0832882,84.2181825 56.1293505,84.5280554 C56.1837878,84.8756156 56.2675376,85.2189883 56.3177874,85.5665484 C56.3554748,85.8177967 56.3722247,86.069045 56.3764122,86.3202934 C56.3764122,86.3872929 56.2633501,86.5254795 56.2340377,86.5129171 C56.1430438,86.4621581 56.0655118,86.3903694 56.0079134,86.3035435 C55.9827885,86.2700437 55.9827885,86.1904817 55.9911635,86.1360446 C56.0372258,85.6084232 55.677102,85.33205 55.5305399,84.9300527 C55.4970401,84.8463033 55.4467902,84.7751163 55.4091028,84.6913668 C55.1327287,84.0088089 54.894042,83.2843763 54.5590431,82.6478806 C54.3288763,82.2577589 53.9685897,81.9612277 53.5414838,81.8103862 C53.1017977,81.6177625 53.0515479,81.6596372 52.9301108,82.2458833 C52.8421736,82.6771929 52.6621117,83.0833777 52.553237,83.5104998 C52.4974274,83.7762696 52.4693604,84.0471155 52.4694873,84.3186818 C52.4618897,84.744668 52.6427134,85.152286 52.9636107,85.4325493 C52.9971106,85.4702366 53.0641104,85.482799 53.0766728,85.5246737 C53.2441723,86.1025448 53.809483,85.9601708 54.0565447,86.3914804 C54.0774821,86.4333551 54.1402944,86.4333551 54.1821693,86.4626674 L54.4334185,86.672041 C54.2994189,86.7892902 54.1528569,87.0196011 54.0272323,86.9986638 C53.7592331,86.9526016 53.5037965,86.7851027 53.2399848,86.663666 C53.0976103,86.592479 52.9468607,86.5254795 52.8170487,86.4249802 C52.724924,86.3537931 52.6746741,86.2030441 52.5867369,86.1192947 C52.3281565,85.8707999 52.0642843,85.6278708 51.7953019,85.3906746 C51.5984901,85.2106133 51.4979904,84.3689315 51.6110525,83.9585593 C51.8185826,83.1532691 51.950364,82.3303391 52.0046763,81.5005133 C52.0130512,81.2911397 51.9083641,81.0733912 51.8455518,80.8682051 L51.3933032,79.4235273 C51.2607883,78.9940076 51.1393112,78.5611598 51.0289919,78.125411 C50.9075548,77.6354768 50.83218,77.1287927 50.702368,76.6472335 C50.5097436,75.9353633 50.2752443,75.2360555 50.0868074,74.5199978 C49.9863078,74.1473128 49.9695578,73.7453155 49.8816206,73.3726305 C49.8146208,73.0627576 49.6848087,72.7738221 49.6136215,72.4681366 C49.4796219,71.886078 49.3623723,71.3040195 49.2534976,70.7177734 C49.1021495,69.9288855 48.9569789,69.1388249 48.817999,68.3476644 C48.7468117,67.9498546 48.6756245,67.6106693 48.2652508,67.5562322 C48.0726264,67.5311074 47.896752,67.3049839 47.7041276,67.1877347 C47.3775036,66.9909235 47.0341298,66.8192372 46.7158808,66.6056761 C46.5400063,66.4926144 46.3934443,66.2999907 46.2259449,66.1618041 C45.9537582,65.9356806 45.6648217,65.7388694 45.40101,65.4959961 C45.2335105,65.3494346 45.1246359,65.1107487 44.9571364,64.9599997 C44.7912635,64.7854844 44.5859,64.6533628 44.3583259,64.5747523 C44.1573265,64.5328776 43.9312022,64.6333769 43.7176404,64.687814 C42.1730599,65.0452194 40.643403,65.464302 39.1323427,65.9440556 C38.8099062,66.0445549 38.5042197,66.2539285 38.1901582,66.3753652 C37.6332225,66.5931137 37.0720993,66.7941123 36.5067886,66.9783611 C35.9707903,67.1500474 35.4306046,67.2924215 34.8904188,67.4431705 C34.3418581,67.5981069 33.7765474,67.6944188 33.2405491,67.9079798 C32.4700516,68.2178527 31.724679,68.61985 30.9625564,68.9632227 C30.5605577,69.1474715 30.1459965,69.2856581 29.7398103,69.4531569 L28.1778779,70.1315274 C27.6905381,70.3466839 27.1294006,70.313951 26.6703827,70.0435905 C26.1343844,69.7504674 26.0883221,69.0385972 26.4191335,68.4649136 C26.7122576,67.954042 27.1854436,67.9205422 27.5455674,67.6064819 C27.9936285,67.2212345 28.4668144,66.8778618 28.927438,66.5177392 C29.6183732,65.9775553 30.3176835,65.4499339 30.9960563,64.8930001 C31.3101178,64.6417518 31.5906794,64.3318789 31.8921784,64.0555058 C32.1224902,63.8419447 32.3611769,63.649321 32.5831137,63.4357599 C33.2447366,62.7992642 33.8979845,62.158581 34.5554199,61.5178979 C34.7145444,61.3629614 34.8778563,61.2038375 35.0286058,61.0321511 C35.1542304,60.898152 35.150043,60.7767154 34.9741685,60.7139033 C34.0361715,60.3789055 33.0939871,60.0522827 32.1559901,59.70891 C31.5123698,59.4702832 30.8729819,59.2203923 30.2381212,58.9593526 C28.9525629,58.4359186 27.6460671,58.0381088 26.2935089,57.9794842 C25.8663853,57.9585468 25.4350742,58.0087965 25.0079506,58.012984 C24.3212028,58.0213589 23.62608,58.004609 22.9393322,58.0213589 C22.214897,58.0422963 21.4946493,58.1051083 20.7702142,58.1218582 C19.9829667,58.1344206 19.1999067,58.1051083 18.4168467,58.1218582 C17.9227233,58.1302332 17.4327874,58.1972327 16.9428515,58.2056077 C16.2226038,58.2139826 15.4981686,58.1637329 14.7779209,58.1888578 C14.2167977,58.2056077 13.6556745,58.297732 13.0945513,58.3312318 C12.9982392,58.3354193 12.8684271,58.2391074 12.8014273,58.1386081 C12.6632402,57.9166721 12.6548653,57.6779862 12.8474896,57.4769876 C13.0736139,57.2424891 13.2997382,56.9996158 13.5384249,56.7902422 C13.7352368,56.6185559 13.9152987,56.5054941 13.6975494,56.1537465 C13.5551749,55.927623 13.7226743,55.6093751 13.9822985,55.5800628 C14.7653585,55.4879385 15.5526059,55.4167514 16.3356659,55.3204396 C16.7334771,55.2743774 17.1312884,55.1529407 17.5290996,55.1320034 C18.3582219,55.0901286 19.1873443,55.1026911 20.0164666,55.0691913 C20.4477777,55.0524414 20.8790888,54.9770669 21.3145874,54.9310047 C21.9259605,54.8640052 22.541521,54.8137555 23.1570815,54.7300061 C23.5842051,54.6713815 24.0113288,54.5625072 24.4342649,54.4745703 C25.0958878,54.3405712 25.7575106,54.2316969 26.4107585,54.0558231 C27.3068807,53.8171372 28.1904403,53.477952 29.0907499,53.2769534 C29.8444975,53.1094545 30.5061204,52.6488326 31.2179931,52.3724594 C31.6325543,52.217523 32.0638654,52.137961 32.4742391,51.9830246 C33.0479247,51.773651 33.6132354,51.5307776 34.1785461,51.2920917 C34.5261075,51.1413427 34.8694814,50.9780313 35.2086678,50.8021575 C35.6106665,50.5927839 36.0042902,50.362473 36.4021014,50.1489119 C36.8878499,49.8851012 37.3819733,49.6506028 37.8593467,49.3700422 C38.3520699,49.0719635 38.8339407,48.7563043 39.3040296,48.4236735 C39.6474035,48.1849876 39.9740274,47.9086145 40.3090264,47.6573662 C40.8952745,47.2218691 41.4982725,46.8282468 42.0593957,46.3550625 C42.5242067,45.9614401 42.9345804,45.463131 43.3826415,45.0360088 C43.5920158,44.8350102 43.8474525,44.7051986 44.0735768,44.5251373 C44.324826,44.3157637 44.5718877,44.0854527 44.8189494,43.8718917 C44.9320115,43.7713924 45.0534486,43.6876429 45.1623233,43.5787687 C45.6020094,43.1432716 46.0458829,42.7077745 46.485569,42.2555276 C46.9294426,41.7949057 47.3607537,41.3175339 47.8046273,40.8610995 C48.0726264,40.5889138 48.361563,40.3460404 48.6337496,40.0864172 C48.6756245,40.0445424 48.6965619,39.9775429 48.6923744,39.9817304 L48.6923744,39.9817304 Z M66.6844184,72.8319631 C66.5644184,72.4279665 66.4844184,72.01597 66.3044184,71.6239733 C66.1604184,71.3079759 65.8924184,71.0199784 65.6884184,70.7159809 C65.3964184,70.2839846 64.3124184,69.9079878 63.6764184,70.0199868 C63.6324184,70.0279867 63.5964184,70.0559865 63.5524184,70.0639864 C63.0004184,70.1839854 62.7124184,70.4159835 62.8164184,70.8479798 C62.8364184,70.9359791 62.7404184,71.0319783 62.7284184,71.1279775 C62.7124184,71.2519764 62.6684184,71.3999752 62.7404184,71.4999743 C63.0204184,71.8999709 63.2964184,72.3119675 63.6644184,72.6719644 C64.1364184,73.1319605 64.6884184,73.551957 65.2244184,73.9799534 C65.2644184,74.0119531 65.4604184,74.0039532 65.5164184,73.9679535 C65.7404184,73.8159548 65.9004184,73.5599569 66.1564184,73.4959575 C66.6764184,73.3639586 66.7364184,73.1519604 66.6844184,72.8319631 L66.6844184,72.8319631 Z M70.3767395,73.0589179 C70.8167395,73.1268939 70.9407395,73.0269293 71.0287395,72.8629873 C71.2087395,72.5271061 71.4447395,72.1992221 71.6367395,71.8633409 C71.6887395,71.7793706 71.7247395,71.6794059 71.6767395,71.5994342 C71.2927395,70.9316704 70.5807395,70.3638713 69.1287395,70 C69.1967395,70.2199222 69.2167395,70.4398444 69.3287395,70.6397737 C69.6007395,71.1156054 69.9487395,71.5794413 70.2007395,72.055273 C70.3327395,72.3071839 70.2567395,72.5510976 69.7847395,72.7670212 C69.0767395,73.0909066 68.4567395,73.4587765 67.8127395,73.8066534 C67.7367395,73.8466393 67.7327395,73.9146152 67.7007395,73.9665969 C67.8407395,73.9785926 67.9807395,74.0065827 68.1167395,73.9985855 C68.2400137,73.9897224 68.3613126,73.9627766 68.4767395,73.9186138 C69.1247395,73.6707015 69.7687395,73.4147921 70.4087395,73.1588826 C70.4327395,73.1468868 70.3927395,73.106901 70.3767395,73.0589179 L70.3767395,73.0589179 Z M58.7,83.50915 L58.911962,83.5891237 C59.4918579,83.8130499 60.0917502,84.0049867 60.6516497,84.2768971 C60.9875894,84.4448418 61.2675392,84.7287482 61.5594868,84.9726679 C61.7074602,85.0926284 61.8954265,85.2205862 61.9474171,85.3805335 C62.0074064,85.5724703 61.959415,85.8083926 61.9274207,86.0203227 C61.8794293,86.33222 61.8074423,86.6401186 61.7394545,86.9520158 L61.9234215,87 C62.1753762,86.3602108 62.4353296,85.7244202 62.6752865,85.0806323 C62.7152793,84.9886626 62.7072808,84.8207179 62.6472915,84.7607377 C62.2215875,84.339372 61.7841611,83.9300129 61.335527,83.5331421 C61.2475428,83.4571672 61.0475786,83.4811592 60.9915887,83.4011856 C60.5116748,82.7254082 59.2399031,83.0013173 58.7,83.50915 L58.7,83.50915 Z M68.422,78.888 L69.774,79 L70.978,75.14 L69.31,75 L68.426,78.888 L68.422,78.888 Z" id="Shape"></path>
                </g>
            </g>
        </g>
    </g>
</svg>