<?xml version="1.0" encoding="UTF-8"?>
<!--Generator: Apple Native CoreSVG 341-->
<!DOCTYPE svg
PUBLIC "-//W3C//DTD SVG 1.1//EN"
       "http://www.w3.org/Graphics/SVG/1.1/DTD/svg11.dtd">
<svg version="1.1" xmlns="http://www.w3.org/2000/svg" xmlns:xlink="http://www.w3.org/1999/xlink" viewBox="0 0 3300 2200">
 <!--glyph: "", point size: 100.0, font version: "20.0d10e1", template writer version: "138.0.0"-->
 <style>.monochrome-0 {-sfsymbols-motion-group:1;-sfsymbols-layer-tags:431de007d60f1e79}
.monochrome-1 {-sfsymbols-motion-group:0;-sfsymbols-layer-tags:431de007d60f1e79}

.multicolor-0:tintColor {-sfsymbols-motion-group:1;-sfsymbols-layer-tags:431de007d60f1e79}
.multicolor-1:tintColor {-sfsymbols-motion-group:0;-sfsymbols-layer-tags:431de007d60f1e79}

.hierarchical-0:primary {-sfsymbols-motion-group:1;-sfsymbols-layer-tags:431de007d60f1e79}
.hierarchical-1:tertiary {-sfsymbols-motion-group:0;-sfsymbols-layer-tags:431de007d60f1e79}

.SFSymbolsPreviewWireframe {fill:none;opacity:1.0;stroke:black;stroke-width:0.5}
</style>
 <g id="Notes">
  <rect height="2200" id="artboard" style="fill:white;opacity:1" width="3300" x="0" y="0"/>
  <line style="fill:none;stroke:black;opacity:1;stroke-width:0.5;" x1="263" x2="3036" y1="292" y2="292"/>
  <text style="stroke:none;fill:black;font-family:sans-serif;font-size:13;font-weight:bold;" transform="matrix(1 0 0 1 263 322)">Weight/Scale Variations</text>
  <text style="stroke:none;fill:black;font-family:sans-serif;font-size:13;text-anchor:middle;" transform="matrix(1 0 0 1 559.711 322)">Ultralight</text>
  <text style="stroke:none;fill:black;font-family:sans-serif;font-size:13;text-anchor:middle;" transform="matrix(1 0 0 1 856.422 322)">Thin</text>
  <text style="stroke:none;fill:black;font-family:sans-serif;font-size:13;text-anchor:middle;" transform="matrix(1 0 0 1 1153.13 322)">Light</text>
  <text style="stroke:none;fill:black;font-family:sans-serif;font-size:13;text-anchor:middle;" transform="matrix(1 0 0 1 1449.84 322)">Regular</text>
  <text style="stroke:none;fill:black;font-family:sans-serif;font-size:13;text-anchor:middle;" transform="matrix(1 0 0 1 1746.56 322)">Medium</text>
  <text style="stroke:none;fill:black;font-family:sans-serif;font-size:13;text-anchor:middle;" transform="matrix(1 0 0 1 2043.27 322)">Semibold</text>
  <text style="stroke:none;fill:black;font-family:sans-serif;font-size:13;text-anchor:middle;" transform="matrix(1 0 0 1 2339.98 322)">Bold</text>
  <text style="stroke:none;fill:black;font-family:sans-serif;font-size:13;text-anchor:middle;" transform="matrix(1 0 0 1 2636.69 322)">Heavy</text>
  <text style="stroke:none;fill:black;font-family:sans-serif;font-size:13;text-anchor:middle;" transform="matrix(1 0 0 1 2933.4 322)">Black</text>
  <line style="fill:none;stroke:black;opacity:1;stroke-width:0.5;" x1="263" x2="3036" y1="1903" y2="1903"/>
  <g transform="matrix(0.2 0 0 0.2 263 1933)">
   <path d="m46.2402 4.15039c21.7773 0 39.4531-17.627 39.4531-39.4043s-17.6758-39.4043-39.4531-39.4043c-21.7285 0-39.4043 17.627-39.4043 39.4043s17.6758 39.4043 39.4043 39.4043Zm0-7.42188c-17.6758 0-31.9336-14.3066-31.9336-31.9824s14.2578-31.9824 31.9336-31.9824 31.9824 14.3066 31.9824 31.9824-14.3066 31.9824-31.9824 31.9824Zm-17.9688-31.9824c0 2.14844 1.51367 3.61328 3.75977 3.61328h10.498v10.5957c0 2.19727 1.46484 3.71094 3.61328 3.71094 2.24609 0 3.71094-1.51367 3.71094-3.71094v-10.5957h10.5957c2.19727 0 3.71094-1.46484 3.71094-3.61328 0-2.19727-1.51367-3.71094-3.71094-3.71094h-10.5957v-10.5469c0-2.24609-1.46484-3.75977-3.71094-3.75977-2.14844 0-3.61328 1.51367-3.61328 3.75977v10.5469h-10.498c-2.24609 0-3.75977 1.51367-3.75977 3.71094Z"/>
  </g>
  <g transform="matrix(0.2 0 0 0.2 281.506 1933)">
   <path d="m58.5449 14.5508c27.4902 0 49.8047-22.3145 49.8047-49.8047s-22.3145-49.8047-49.8047-49.8047-49.8047 22.3145-49.8047 49.8047 22.3145 49.8047 49.8047 49.8047Zm0-8.30078c-22.9492 0-41.5039-18.5547-41.5039-41.5039s18.5547-41.5039 41.5039-41.5039 41.5039 18.5547 41.5039 41.5039-18.5547 41.5039-41.5039 41.5039Zm-22.6562-41.5039c0 2.39258 1.66016 4.00391 4.15039 4.00391h14.3555v14.4043c0 2.44141 1.66016 4.15039 4.05273 4.15039 2.44141 0 4.15039-1.66016 4.15039-4.15039v-14.4043h14.4043c2.44141 0 4.15039-1.61133 4.15039-4.00391 0-2.44141-1.70898-4.15039-4.15039-4.15039h-14.4043v-14.3555c0-2.49023-1.70898-4.19922-4.15039-4.19922-2.39258 0-4.05273 1.70898-4.05273 4.19922v14.3555h-14.3555c-2.49023 0-4.15039 1.70898-4.15039 4.15039Z"/>
  </g>
  <g transform="matrix(0.2 0 0 0.2 304.924 1933)">
   <path d="m74.8535 28.3203c35.1074 0 63.623-28.4668 63.623-63.5742s-28.5156-63.623-63.623-63.623-63.5742 28.5156-63.5742 63.623 28.4668 63.5742 63.5742 63.5742Zm0-9.08203c-30.127 0-54.4922-24.3652-54.4922-54.4922s24.3652-54.4922 54.4922-54.4922 54.4922 24.3652 54.4922 54.4922-24.3652 54.4922-54.4922 54.4922Zm-28.8574-54.4922c0 2.58789 1.85547 4.39453 4.58984 4.39453h19.7266v19.7754c0 2.68555 1.85547 4.58984 4.44336 4.58984 2.68555 0 4.54102-1.85547 4.54102-4.58984v-19.7754h19.7754c2.68555 0 4.58984-1.80664 4.58984-4.39453 0-2.73438-1.85547-4.58984-4.58984-4.58984h-19.7754v-19.7266c0-2.73438-1.85547-4.63867-4.54102-4.63867-2.58789 0-4.44336 1.9043-4.44336 4.63867v19.7266h-19.7266c-2.73438 0-4.58984 1.85547-4.58984 4.58984Z"/>
  </g>
  <text style="stroke:none;fill:black;font-family:sans-serif;font-size:13;font-weight:bold;" transform="matrix(1 0 0 1 263 1953)">Design Variations</text>
  <text style="stroke:none;fill:black;font-family:sans-serif;font-size:13;" transform="matrix(1 0 0 1 263 1971)">Symbols are supported in up to nine weights and three scales.</text>
  <text style="stroke:none;fill:black;font-family:sans-serif;font-size:13;" transform="matrix(1 0 0 1 263 1989)">For optimal layout with text and other symbols, vertically align</text>
  <text style="stroke:none;fill:black;font-family:sans-serif;font-size:13;" transform="matrix(1 0 0 1 263 2007)">symbols with the adjacent text.</text>
  <line style="fill:none;stroke:#00AEEF;stroke-width:0.5;opacity:1.0;" x1="776" x2="776" y1="1919" y2="1933"/>
  <g transform="matrix(0.2 0 0 0.2 776 1933)">
   <path d="m16.5527 0.78125c2.58789 0 3.85742-0.976562 4.78516-3.71094l6.29883-17.2363h28.8086l6.29883 17.2363c0.927734 2.73438 2.19727 3.71094 4.73633 3.71094 2.58789 0 4.24805-1.5625 4.24805-4.00391 0-0.830078-0.146484-1.61133-0.537109-2.63672l-22.9004-60.9863c-1.12305-2.97852-3.125-4.49219-6.25-4.49219-3.02734 0-5.07812 1.46484-6.15234 4.44336l-22.9004 61.084c-0.390625 1.02539-0.537109 1.80664-0.537109 2.63672 0 2.44141 1.5625 3.95508 4.10156 3.95508Zm13.4766-28.3691 11.8652-32.8613h0.244141l11.8652 32.8613Z"/>
  </g>
  <line style="fill:none;stroke:#00AEEF;stroke-width:0.5;opacity:1.0;" x1="792.836" x2="792.836" y1="1919" y2="1933"/>
  <text style="stroke:none;fill:black;font-family:sans-serif;font-size:13;font-weight:bold;" transform="matrix(1 0 0 1 776 1953)">Margins</text>
  <text style="stroke:none;fill:black;font-family:sans-serif;font-size:13;" transform="matrix(1 0 0 1 776 1971)">Leading and trailing margins on the left and right side of each symbol</text>
  <text style="stroke:none;fill:black;font-family:sans-serif;font-size:13;" transform="matrix(1 0 0 1 776 1989)">can be adjusted by modifying the x-location of the margin guidelines.</text>
  <text style="stroke:none;fill:black;font-family:sans-serif;font-size:13;" transform="matrix(1 0 0 1 776 2007)">Modifications are automatically applied proportionally to all</text>
  <text style="stroke:none;fill:black;font-family:sans-serif;font-size:13;" transform="matrix(1 0 0 1 776 2025)">scales and weights.</text>
  <g transform="matrix(0.2 0 0 0.2 1289 1933)">
   <path d="m14.209 9.32617 8.49609 8.54492c4.29688 4.3457 9.22852 4.05273 13.8672-1.07422l53.4668-58.9355-4.83398-4.88281-53.0762 58.3984c-1.75781 2.00195-3.41797 2.49023-5.76172 0.146484l-5.85938-5.81055c-2.34375-2.29492-1.80664-4.00391 0.195312-5.81055l57.373-54.0039-4.88281-4.83398-57.959 54.4434c-4.93164 4.58984-5.32227 9.47266-1.02539 13.8184Zm32.0801-90.9668c-2.09961 2.05078-2.24609 4.93164-1.07422 6.88477 1.17188 1.80664 3.4668 2.97852 6.68945 2.14844 7.32422-1.70898 14.9414-2.00195 22.0703 2.68555l-2.92969 7.27539c-1.70898 4.15039-0.830078 7.08008 1.85547 9.81445l11.4746 11.5723c2.44141 2.44141 4.49219 2.53906 7.32422 2.05078l5.32227-0.976562 3.32031 3.36914-0.195312 2.7832c-0.195312 2.49023 0.439453 4.39453 2.88086 6.78711l3.80859 3.71094c2.39258 2.39258 5.46875 2.53906 7.8125 0.195312l14.5508-14.5996c2.34375-2.34375 2.24609-5.32227-0.146484-7.71484l-3.85742-3.80859c-2.39258-2.39258-4.24805-3.17383-6.64062-2.97852l-2.88086 0.244141-3.22266-3.17383 1.2207-5.61523c0.634766-2.83203-0.146484-5.0293-3.07617-7.95898l-10.9863-10.9375c-16.6992-16.6016-38.8672-16.2109-53.3203-1.75781Zm7.4707 1.85547c12.1582-8.88672 28.6133-7.37305 39.7461 3.75977l12.1582 12.0605c1.17188 1.17188 1.36719 2.09961 1.02539 3.80859l-1.61133 7.42188 7.51953 7.42188 4.93164-0.292969c1.26953-0.0488281 1.66016 0.0488281 2.63672 1.02539l2.88086 2.88086-12.207 12.207-2.88086-2.88086c-0.976562-0.976562-1.12305-1.36719-1.07422-2.68555l0.341797-4.88281-7.4707-7.42188-7.61719 1.26953c-1.61133 0.341797-2.34375 0.195312-3.56445-0.976562l-10.0098-10.0098c-1.26953-1.17188-1.41602-2.00195-0.634766-3.85742l4.39453-10.4492c-7.8125-7.27539-17.9688-10.4004-28.125-7.42188-0.78125 0.195312-1.07422-0.439453-0.439453-0.976562Z"/>
  </g>
  <text style="stroke:none;fill:black;font-family:sans-serif;font-size:13;font-weight:bold;" transform="matrix(1 0 0 1 1289 1953)">Exporting</text>
  <text style="stroke:none;fill:black;font-family:sans-serif;font-size:13;" transform="matrix(1 0 0 1 1289 1971)">Symbols should be outlined when exporting to ensure the</text>
  <text style="stroke:none;fill:black;font-family:sans-serif;font-size:13;" transform="matrix(1 0 0 1 1289 1989)">design is preserved when submitting to Xcode.</text>
  <text id="template-version" style="stroke:none;fill:black;font-family:sans-serif;font-size:13;text-anchor:end;" transform="matrix(1 0 0 1 3036 1933)">Template v.6.0</text>
  <text style="stroke:none;fill:black;font-family:sans-serif;font-size:13;text-anchor:end;" transform="matrix(1 0 0 1 3036 1951)">Requires Xcode 16 or greater</text>
  <text id="descriptive-name" style="stroke:none;fill:black;font-family:sans-serif;font-size:13;text-anchor:end;" transform="matrix(1 0 0 1 3036 1969)">Generated from filtervogelgruppe-44</text>
  <text style="stroke:none;fill:black;font-family:sans-serif;font-size:13;text-anchor:end;" transform="matrix(1 0 0 1 3036 1987)">Typeset at 100.0 points</text>
  <text style="stroke:none;fill:black;font-family:sans-serif;font-size:13;" transform="matrix(1 0 0 1 263 726)">Small</text>
  <text style="stroke:none;fill:black;font-family:sans-serif;font-size:13;" transform="matrix(1 0 0 1 263 1156)">Medium</text>
  <text style="stroke:none;fill:black;font-family:sans-serif;font-size:13;" transform="matrix(1 0 0 1 263 1586)">Large</text>
 </g>
 <g id="Guides">
  <g id="H-reference" style="fill:#27AAE1;stroke:none;" transform="matrix(1 0 0 1 339 696)">
   <path d="M0.993654 0L3.63775 0L29.3281-67.1323L30.0303-67.1323L30.0303-70.459L28.1226-70.459ZM11.6885-24.4799L46.9815-24.4799L46.2315-26.7285L12.4385-26.7285ZM55.1196 0L57.7637 0L30.6382-70.459L29.4326-70.459L29.4326-67.1323Z"/>
  </g>
  <line id="Baseline-S" style="fill:none;stroke:#27AAE1;opacity:1;stroke-width:0.5;" x1="263" x2="3036" y1="696" y2="696"/>
  <line id="Capline-S" style="fill:none;stroke:#27AAE1;opacity:1;stroke-width:0.5;" x1="263" x2="3036" y1="625.541" y2="625.541"/>
  <g id="H-reference" style="fill:#27AAE1;stroke:none;" transform="matrix(1 0 0 1 339 1126)">
   <path d="M0.993654 0L3.63775 0L29.3281-67.1323L30.0303-67.1323L30.0303-70.459L28.1226-70.459ZM11.6885-24.4799L46.9815-24.4799L46.2315-26.7285L12.4385-26.7285ZM55.1196 0L57.7637 0L30.6382-70.459L29.4326-70.459L29.4326-67.1323Z"/>
  </g>
  <line id="Baseline-M" style="fill:none;stroke:#27AAE1;opacity:1;stroke-width:0.5;" x1="263" x2="3036" y1="1126" y2="1126"/>
  <line id="Capline-M" style="fill:none;stroke:#27AAE1;opacity:1;stroke-width:0.5;" x1="263" x2="3036" y1="1055.54" y2="1055.54"/>
  <g id="H-reference" style="fill:#27AAE1;stroke:none;" transform="matrix(1 0 0 1 339 1556)">
   <path d="M0.993654 0L3.63775 0L29.3281-67.1323L30.0303-67.1323L30.0303-70.459L28.1226-70.459ZM11.6885-24.4799L46.9815-24.4799L46.2315-26.7285L12.4385-26.7285ZM55.1196 0L57.7637 0L30.6382-70.459L29.4326-70.459L29.4326-67.1323Z"/>
  </g>
  <line id="Baseline-L" style="fill:none;stroke:#27AAE1;opacity:1;stroke-width:0.5;" x1="263" x2="3036" y1="1556" y2="1556"/>
  <line id="Capline-L" style="fill:none;stroke:#27AAE1;opacity:1;stroke-width:0.5;" x1="263" x2="3036" y1="1485.54" y2="1485.54"/>
  <line id="right-margin-Black-S" style="fill:none;stroke:#00AEEF;stroke-width:0.5;opacity:1.0;" x1="2982.23" x2="2982.23" y1="600.785" y2="720.121"/>
  <line id="left-margin-Black-S" style="fill:none;stroke:#00AEEF;stroke-width:0.5;opacity:1.0;" x1="2884.57" x2="2884.57" y1="600.785" y2="720.121"/>
  <line id="right-margin-Regular-S" style="fill:none;stroke:#00AEEF;stroke-width:0.5;opacity:1.0;" x1="1496.11" x2="1496.11" y1="600.785" y2="720.121"/>
  <line id="left-margin-Regular-S" style="fill:none;stroke:#00AEEF;stroke-width:0.5;opacity:1.0;" x1="1403.58" x2="1403.58" y1="600.785" y2="720.121"/>
  <line id="right-margin-Ultralight-S" style="fill:none;stroke:#00AEEF;stroke-width:0.5;opacity:1.0;" x1="603.773" x2="603.773" y1="600.785" y2="720.121"/>
  <line id="left-margin-Ultralight-S" style="fill:none;stroke:#00AEEF;stroke-width:0.5;opacity:1.0;" x1="515.649" x2="515.649" y1="600.785" y2="720.121"/>
 </g>
 <g id="Symbols">
  <g id="Black-S" transform="matrix(1 0 0 1 2884.57 696)">
   <path class="monochrome-0 multicolor-0:tintColor hierarchical-0:primary SFSymbolsPreviewWireframe" d="M55.2072-6.50282C55.1324-6.53391 55.0497-6.54168 54.9867-6.59609C54.8912-6.68807 54.7724-6.75284 54.6431-6.78425C54.5135-6.81567 54.3779-6.81243 54.2503-6.77486C53.7974-6.66604 53.3446-6.56111 52.872-6.4212C53.0492-6.38234 53.2225-6.32404 53.3997-6.30461C53.7738-6.26575 54.1597-6.27741 54.4905-6.00925C54.6835-5.85379 54.8607-5.67113 55.0418-5.49236C55.0772-5.4535 55.093-5.37188 55.0891-5.3097C55.0891-5.28638 55.0024-5.24363 54.963-5.25141C54.1637-5.37966 53.3564-5.39909 52.5649-5.65559C51.861-5.87323 51.1423-6.04228 50.4148-6.16082C50.084-6.223 49.7335-6.16082 49.3909-6.12195C49.2672-6.09766 49.1556-6.03192 49.0759-5.93541C48.7884-5.61284 48.7294-4.71898 48.9499-4.32257C48.9656-4.29148 49.005-4.26038 49.009-4.22541C49.0208-4.15157 49.0168-4.07773 49.0168-4C48.9656-4.01166 48.8987-4.00388 48.8593-4.03886C48.2765-4.45082 47.9379-5.11538 47.741-5.84991C47.6228-6.28518 47.6937-6.79429 47.7016-7.27232C47.6963-7.52104 47.7364-7.76848 47.8197-8.00295C47.9339-8.25557 47.989-8.44211 47.8591-8.72582C47.7843-8.88127 47.8749-9.14166 47.8985-9.43702C47.7646-9.35929 47.6622-9.32432 47.5992-9.25436C47.3432-8.97454 47.0991-8.68307 46.8549-8.39548C46.8156-8.34495 46.7841-8.27111 46.7368-8.23225C46.658-8.17784 46.5793-8.14675 46.4966-8.104C46.4887-8.22059 46.4572-8.33718 46.473-8.44211C46.5868-8.97163 46.8815-9.44609 47.3078-9.78679C47.4164-9.88428 47.5024-10.0041 47.5595-10.1375C47.6166-10.271 47.6435-10.4154 47.6386-10.5602C47.6465-10.8322 47.6307-11.1004 47.6346-11.3685C47.6346-11.5473 47.5834-11.6717 47.4259-11.7105C47.3078-11.7377 47.2566-11.8038 47.2684-11.967C47.3078-12.8609 47.3629-13.7509 47.3708-14.6409C47.3747-15.6086 47.3393-16.5763 47.3039-17.5401C47.2999-17.7655 47.2251-17.987 47.1818-18.2085C47.1227-18.4884 47.0715-18.7721 47.0006-19.0519C46.8116-19.7981 46.9534-20.5442 47.04-21.2788C47.0797-21.6619 47.2005-22.0327 47.3944-22.367C47.7213-22.9149 47.7173-23.5562 47.6031-24.1974C47.5628-24.4002 47.5362-24.6052 47.5244-24.8115C47.5165-25.068 47.422-25.2312 47.2251-25.2934C46.5629-25.5123 45.8987-25.7248 45.2325-25.9307C44.7994-26.0629 44.3583-26.1639 43.9291-26.2961C43.4861-26.4301 43.0473-26.5778 42.6138-26.7391C41.972-26.9801 41.3419-27.2443 40.704-27.4931C40.279-27.6573 39.8524-27.8166 39.4242-27.9711L37.1243-28.7989L35.3523-29.4401C34.5254-29.7472 33.6984-30.0503 32.8714-30.3729C32.58-30.4895 32.3005-30.6605 32.0091-30.7809C31.2569-31.0996 30.4929-31.395 29.7408-31.7214C29.1186-31.9935 28.5122-32.3044 27.89-32.5764C27.6412-32.6794 27.3808-32.7526 27.1143-32.7941C26.3582-32.9223 25.6021-33.0272 24.846-33.1477C24.2947-33.2332 23.7395-33.3343 23.1843-33.412C22.9205-33.445 22.6545-33.458 22.3888-33.4509C21.4673-33.4392 20.5498-33.412 19.6323-33.3926C19.3645-33.3848 19.1007-33.3576 18.8329-33.3615C18.7288-33.365 18.6272-33.3935 18.5367-33.4444C18.4462-33.4949 18.3695-33.5668 18.3131-33.6529C18.2343-33.754 18.1162-33.8084 18.0059-33.8589C17.8681-33.925 17.7184-33.9483 17.5885-34.0144C17.5176-34.0532 17.4192-34.1621 17.431-34.2165C17.4506-34.3256 17.5059-34.4254 17.5885-34.5002C17.6633-34.5585 17.7736-34.5429 17.8642-34.5701L18.3761-34.7334L18.3761-34.8227L17.9547-34.8616C17.876-34.8655 17.7933-34.8461 17.7263-34.881C17.6497-34.928 17.5935-35.0015 17.5688-35.087C17.557-35.1375 17.6476-35.2308 17.7027-35.2813C17.7854-35.3513 17.8878-35.3979 17.9784-35.4523L17.9744-35.5301C17.9154-35.5612 17.8484-35.5806 17.8051-35.6311C17.7263-35.7127 17.6121-35.8138 17.6082-35.9109C17.6082-36.012 17.7067-36.1674 17.7894-36.2063C18.1438-36.3617 18.506-36.4783 18.8683-36.6182C19.4669-36.8437 20.0733-37.038 20.6601-37.3022C21.3453-37.6093 22.0108-37.9824 22.6881-38.3049C23.3076-38.611 23.9381-38.8947 24.5783-39.156C25.3658-39.4631 26.1692-39.6846 26.9489-40.011C27.5002-40.2365 28.0909-40.2365 28.6225-40.594C29.1501-40.9555 29.733-41.1925 30.2843-41.5034C30.615-41.6978 30.9458-41.9076 31.2569-42.1447C31.9421-42.6693 32.6155-43.2173 33.2967-43.7498C34.0686-44.3521 34.8365-44.9545 35.6122-45.5453C35.8012-45.689 36.0138-45.7784 36.2107-45.9067C36.9237-46.3981 37.5823-46.9621 38.1757-47.5895C38.4593-47.8732 38.8295-48.0442 39.1643-48.2463C39.9361-48.7049 40.7079-49.1596 41.4837-49.6065C41.6215-49.6842 41.7751-49.7231 41.9208-49.7892C42.6847-50.1273 43.4526-50.4615 44.2166-50.8074C44.5985-50.9823 44.9726-51.1883 45.3585-51.3515C45.709-51.4914 46.0674-51.5808 46.4218-51.7129C46.9534-51.9111 47.485-52.1288 48.0127-52.3425C48.5719-52.5757 49.1232-52.8516 49.6981-53.0265C50.2179-53.1897 50.7613-53.2364 51.2969-53.3413C51.6867-53.419 52.0726-53.5162 52.4585-53.6017C52.5688-53.625 52.6791-53.6639 52.7854-53.6561C53.4548-53.6095 54.077-53.8737 54.7071-54.0642C54.8922-54.1186 55.0812-54.344 55.1875-54.5538C55.3647-54.9036 55.4632-55.3078 55.6207-55.677C55.8491-56.19 56.0932-56.6913 56.3295-57.1966C56.5933-57.7484 56.8414-58.3042 57.1171-58.8405C57.2162-59.0598 57.3596-59.2568 57.5384-59.4196C58.0582-59.8276 58.578-60.2357 59.1333-60.5622C59.8027-60.9547 60.5115-61.1296 61.2597-60.8925C61.7008-60.7526 62.1457-60.6243 62.5868-60.5039C62.8979-60.4223 63.2168-60.395 63.5201-60.2823C64.4652-59.9326 65.1582-59.1825 65.6268-58.1565C66.0049-57.3248 66.3947-56.5087 66.8594-55.7431C67.0077-55.4709 67.2355-55.2489 67.5131-55.1057C68.6551-54.5733 69.7931-54.0447 70.939-53.5317C71.4982-53.2752 72.081-53.0809 72.6363-52.8128C73.1246-52.5796 73.5932-52.2959 74.0618-52.0199C74.6525-51.6702 75.2589-51.3359 75.8299-50.9356C76.4875-50.4693 77.1215-49.9524 77.7516-49.4316C78.106-49.1363 78.4328-48.802 78.7597-48.46C79.1613-48.0403 79.5709-47.6206 79.9253-47.1464C80.1419-46.8627 80.2797-46.4858 80.4096-46.1243C80.4497-45.952 80.43-45.7715 80.3545-45.6113C80.3309-45.5569 80.0867-45.5802 79.9883-45.6541C79.3858-46.1127 78.7754-46.5635 78.2044-47.0765C77.4713-47.7403 76.6897-48.3495 75.8653-48.8992C75.1683-49.3578 74.4753-49.8203 73.7743-50.2594C73.4514-50.4537 73.1088-50.6014 72.7741-50.7646C72.2543-51.0095 71.7424-51.2893 71.2108-51.4836C70.5413-51.7246 69.9112-52.1249 69.1827-52.121C68.9294-52.1347 68.681-52.1954 68.4503-52.2998C67.7533-52.5718 67.0445-52.5446 66.3317-52.4552C66.1427-52.4319 65.9537-52.4241 65.7647-52.4008C65.3118-52.3425 65.044-51.8839 65.1818-51.3515C65.2685-51.0173 65.4024-50.6986 65.5323-50.3838C65.8789-49.5482 66.2805-48.7398 66.5759-47.8771C66.7728-47.3019 66.8791-46.6606 66.9224-46.0349C66.9775-45.1994 66.9303-44.3521 66.9381-43.5088C66.9381-43.1046 66.9618-42.7004 66.9775-42.2963C67.0169-41.0138 66.7649-39.8362 66.2411-38.713C65.7056-37.5817 65.087-36.4906 64.3903-35.4484C63.8272-34.5934 63.2168-33.7657 62.5986-32.9573C61.9095-32.0557 61.2203-31.1462 60.3855-30.4428C59.6255-29.8016 58.8143-29.2536 58.0267-28.6629C57.8886-28.5589 57.7481-28.4575 57.6054-28.3597C56.9753-27.9322 56.3216-27.563 55.6246-27.3104C55.3805-27.2171 55.1481-27.0772 54.9079-26.9567C54.4747-26.7352 54.0416-26.5059 53.6005-26.2961C53.128-26.0707 52.6554-25.8608 52.175-25.6548C52.0254-25.5887 51.9584-25.5071 51.9584-25.2973C51.9663-23.7894 51.9584-22.2815 51.9584-20.7735C51.9624-20.587 52.0175-20.4043 52.0214-20.2178C52.0214-19.8253 52.0136-19.4289 52.0057-19.0363C51.9899-18.2902 51.9663-17.544 51.9545-16.7939C51.9506-16.162 51.9771-15.5305 52.0333-14.9012L52.3483-12.0914C52.3916-11.6367 52.4192-11.182 52.4664-10.7312C52.4743-10.599 52.5058-10.4708 52.5412-10.3425C52.6082-10.086 52.6869-9.83732 52.746-9.57693C52.8248-9.2155 52.9587-8.96677 53.3052-8.91236C53.5881-8.85439 53.8631-8.76306 54.1243-8.64032C54.5653-8.45377 55.0103-8.55482 55.4553-8.56259C55.9436-8.56647 56.4279-8.60145 56.9162-8.62866C57.0462-8.63643 57.1722-8.65975 57.3021-8.65586C57.9125-8.64032 58.519-8.5587 59.1057-8.33718C59.275-8.27111 59.4522-8.22059 59.6294-8.20116C59.9287-8.16229 60.1571-7.95632 60.3737-7.73479C60.4249-7.68038 60.4367-7.56379 60.4682-7.47829C60.3973-7.45886 60.3264-7.42777 60.2556-7.42388C60.0035-7.40445 59.7436-7.42388 59.4955-7.37336C59.2452-7.30956 58.982-7.31636 58.7355-7.39279C58.2449-7.56962 57.7406-7.70629 57.2273-7.80086C56.8814-7.88215 56.5192-7.86304 56.1838-7.74645C55.8294-7.59877 55.4513-7.54436 55.0812-7.4472C55.0103-7.42777 54.8922-7.38891 54.8882-7.34616C54.8866-7.24997 54.9141-7.15508 54.967-7.07411C55.0576-6.91088 55.1678-6.7632 55.2741-6.60775C55.2544-6.56888 55.2348-6.53779 55.2072-6.50282ZM52.842-8C52.842-8.20639 52.8231-8.39436 52.842-8.57865C52.8623-8.87135 52.9536-9.15514 53.1085-9.407C53.2634-9.65885 53.4777-9.87139 53.7334-10.0271C54.1583-10.3072 54.5907-10.5689 54.3707-10.9448C54.3404-10.9964 53.4657-11.0775 53.4733-11.1365C53.4998-11.3797 53.5795-11.6304 53.5378-11.8736C53.3898-12.655 53.1471-13.4363 53.0333-14.2214C52.9119-15.0986 52.9309-15.9794 52.8171-16.8529C52.7178-17.5468 53.2726-17.5965 52.8171-18.8106C52.3315-19.4519 52.6476-20.0889 52.2266-20.7376C52.1011-20.9256 52.1653-21.0715 52.1023-21.2868C52.0568-21.4489 52.0265-21.6259 52.1213-21.777C52.3261-22.0976 51.8861-22.4072 52.1213-22.7205C52.2452-22.8593 52.3299-23.027 52.3679-23.207C52.4058-23.6493 52.4058-24.0916 52.3868-24.5338C52.3717-24.8655 52.2086-24.9503 51.6472-24.9872C50.9075-25.0351 50.5395-24.954 50.3688-24.6555C50.0651-24.1213 49.784-23.5756 49.5267-23.019C49.4547-22.8679 49.5002-22.7021 49.5116-22.5473C49.5343-22.2893 49.5874-22.0313 49.5988-21.777C49.6292-20.8814 49.5647-19.9857 49.8871-19.0975C50.0388-18.67 49.7126-18.3051 49.1853-17.966C49.0526-17.8812 48.9009-17.7817 48.8819-17.6822C48.7798-17.1576 48.7125-16.6269 48.6808-16.0937C48.6429-15.2276 48.7833-14.3614 48.5367-13.4953C48.3859-12.9633 48.3951-12.4007 48.5633-11.8736C48.8022-11.1181 49.246-10.3736 49.6178-9.62537C49.7354-9.3858 49.9061-9.15361 50.0388-8.91404C50.3006-8.45702 51.5144-8.02948 52.842-8ZM51.1043-2.94067C51.2735-3.21427 51.4643-3.47707 51.5831-3.76867C51.6011-3.81547 51.2447-4.08907 51.1511-4.05667C50.8343-3.93427 50.5643-3.72547 50.2763-3.55267C50.5463-3.34387 50.8235-3.14227 51.1043-2.94067Z"/>
   <path class="monochrome-1 multicolor-1:tintColor hierarchical-1:tertiary SFSymbolsPreviewWireframe" d="M48.9411-84C55.3091-84.0013 61.615-82.7479 67.4985-80.3116C73.382-77.8752 78.7279-74.3036 83.2305-69.8009C87.7334-65.2983 91.305-59.9524 93.7418-54.0682C96.1779-48.1846 97.4312-41.8789 97.43-35.5124C97.43-8.72255 75.7254 13 48.9424 13C22.156 13 0.43-8.726 0.43-35.5124C0.43-62.2926 22.1539-84 48.9411-84ZM48.9424-70C29.8835-70 14.43-54.5582 14.43-35.5124C14.43-16.458 29.888-0.999999 48.9424-0.999999C67.9909-0.999999 83.43-16.4519 83.43-35.5138C83.4309-40.0428 82.5395-44.5276 80.8069-48.7121C79.0739-52.8969 76.5337-56.6989 73.3311-59.9013C70.1287-63.1038 66.3266-65.644 62.1422-67.3767C57.9578-69.1095 53.4729-70.0009 48.9424-70Z"/>
  </g>
  <g id="Regular-S" transform="matrix(1 0 0 1 1403.58 696)">
   <path class="monochrome-0 multicolor-0:tintColor hierarchical-0:primary SFSymbolsPreviewWireframe" d="M53.1545-8.45755C53.0739-8.49152 52.9847-8.50001 52.9168-8.55946C52.8138-8.65995 52.6857-8.73072 52.5463-8.76504C52.4065-8.79937 52.2604-8.79583 52.1227-8.75478C51.6344-8.63589 51.1461-8.52125 50.6366-8.36838C50.8277-8.32592 51.0145-8.26223 51.2056-8.241C51.6089-8.19854 52.0251-8.21128 52.3817-7.91829C52.5898-7.74845 52.7809-7.54888 52.9762-7.35355C53.0144-7.31109 53.0314-7.22192 53.0272-7.15398C53.0272-7.12851 52.9337-7.0818 52.8913-7.09029C52.0293-7.23041 51.1589-7.25164 50.3054-7.53189C49.5464-7.76968 48.7715-7.95438 47.987-8.08389C47.6303-8.15183 47.2524-8.08389 46.883-8.04143C46.7496-8.01489 46.6293-7.94306 46.5433-7.83761C46.2333-7.48518 46.1696-6.50857 46.4074-6.07546C46.4244-6.04149 46.4669-6.00752 46.4711-5.96931C46.4838-5.88863 46.4796-5.80795 46.4796-5.72303C46.4244-5.73577 46.3522-5.72728 46.3097-5.76549C45.6813-6.21558 45.3161-6.94168 45.1038-7.7442C44.9765-8.21977 45.0529-8.77601 45.0614-9.29829C45.0557-9.57004 45.0989-9.84038 45.1888-10.0966C45.3119-10.3726 45.3713-10.5764 45.2312-10.8864C45.1505-11.0562 45.2482-11.3407 45.2737-11.6634C45.1293-11.5785 45.0189-11.5403 44.951-11.4638C44.675-11.1581 44.4117-10.8396 44.1485-10.5254C44.106-10.4702 44.072-10.3896 44.0211-10.3471C43.9361-10.2876 43.8512-10.2537 43.7621-10.207C43.7536-10.3344 43.7196-10.4617 43.7366-10.5764C43.8594-11.1549 44.1771-11.6733 44.6368-12.0456C44.7539-12.1521 44.8466-12.283 44.9082-12.4288C44.9697-12.5746 44.9987-12.7324 44.9934-12.8905C45.0019-13.1878 44.9849-13.4808 44.9892-13.7737C44.9892-13.9691 44.934-14.1049 44.7641-14.1474C44.6368-14.1771 44.5816-14.2493 44.5943-14.4276C44.6368-15.4043 44.6962-16.3766 44.7047-17.349C44.7089-18.4063 44.6707-19.4636 44.6325-20.5166C44.6283-20.7629 44.5476-21.0049 44.5009-21.247C44.4372-21.5527 44.382-21.8627 44.3056-22.1684C44.1017-22.9836 44.2546-23.7989 44.348-24.6014C44.3908-25.02 44.5211-25.4252 44.7302-25.7904C45.0826-26.3891 45.0784-27.0897 44.9552-27.7903C44.9117-28.0118 44.883-28.2358 44.8703-28.4612C44.8618-28.7414 44.7599-28.9198 44.5476-28.9877C43.8335-29.2269 43.1173-29.459 42.399-29.6841C41.932-29.8284 41.4564-29.9388 40.9936-30.0832C40.5159-30.2297 40.0428-30.3911 39.5753-30.5673C38.8832-30.8305 38.2038-31.1193 37.516-31.391C37.0577-31.5704 36.5977-31.7445 36.136-31.9133L33.6561-32.8177L31.7454-33.5184C30.8537-33.8538 29.962-34.185 29.0703-34.5374C28.7561-34.6648 28.4546-34.8516 28.1404-34.9833C27.3294-35.3315 26.5056-35.6542 25.6946-36.0108C25.0237-36.3081 24.3698-36.6478 23.6989-36.945C23.4307-37.0575 23.1498-37.1375 22.8624-37.1828C22.0472-37.3229 21.2319-37.4376 20.4166-37.5692C19.8221-37.6626 19.2235-37.773 18.6248-37.8579C18.3403-37.894 18.0536-37.9082 17.767-37.9004C16.7734-37.8876 15.7841-37.8579 14.7947-37.8367C14.506-37.8282 14.2215-37.7985 13.9328-37.8027C13.8205-37.8066 13.711-37.8378 13.6134-37.8933C13.5158-37.9485 13.4331-38.0271 13.3722-38.1212C13.2873-38.2316 13.16-38.291 13.0411-38.3462C12.8924-38.4184 12.7311-38.4439 12.5909-38.5161C12.5145-38.5585 12.4083-38.6774 12.4211-38.7369C12.4422-38.8561 12.5019-38.9651 12.5909-39.0468C12.6716-39.1105 12.7905-39.0936 12.8882-39.1233L13.4402-39.3016L13.4402-39.3993L12.9859-39.4417C12.9009-39.446 12.8118-39.4248 12.7396-39.463C12.6569-39.5143 12.5963-39.5946 12.5697-39.688C12.557-39.7432 12.6547-39.8451 12.7141-39.9003C12.8033-39.9768 12.9137-40.0277 13.0113-40.0872L13.0071-40.1721C12.9434-40.206 12.8712-40.2273 12.8245-40.2825C12.7396-40.3716 12.6164-40.482 12.6122-40.5882C12.6122-40.6986 12.7184-40.8684 12.8075-40.9109C13.1897-41.0808 13.5803-41.2081 13.971-41.361C14.6164-41.6073 15.2703-41.8196 15.903-42.1083C16.6418-42.4438 17.3594-42.8514 18.0897-43.2038C18.7577-43.5382 19.4376-43.8482 20.1279-44.1337C20.9771-44.4692 21.8433-44.7112 22.6841-45.0679C23.2785-45.3142 23.9155-45.3142 24.4887-45.7048C25.0577-46.0997 25.6861-46.3588 26.2806-46.6984C26.6372-46.9108 26.9939-47.14 27.3294-47.3991C28.0682-47.9723 28.7943-48.571 29.5289-49.1527C30.3611-49.8109 31.1891-50.469 32.0256-51.1144C32.2294-51.2716 32.4587-51.3692 32.671-51.5093C33.4398-52.0462 34.15-52.6625 34.7898-53.3479C35.0955-53.6579 35.4947-53.8447 35.8557-54.0655C36.688-54.5666 37.5202-55.0634 38.3567-55.5517C38.5053-55.6366 38.6709-55.6791 38.828-55.7512C39.6518-56.1207 40.4798-56.4858 41.3035-56.8637C41.7154-57.0548 42.1188-57.2799 42.5349-57.4582C42.9128-57.6111 43.2992-57.7087 43.6814-57.8531C44.2546-58.0696 44.8278-58.3074 45.3968-58.541C45.9998-58.7957 46.5942-59.0972 47.2142-59.2883C47.7747-59.4666 48.3606-59.5176 48.9381-59.6322C49.3585-59.7172 49.7746-59.8233 50.1907-59.9167C50.3096-59.9422 50.4285-59.9847 50.5432-59.9762C51.265-59.9252 51.9359-60.214 52.6153-60.422C52.8149-60.4815 53.0187-60.7277 53.1333-60.957C53.3244-61.3392 53.4305-61.7808 53.6004-62.1842C53.8467-62.7447 54.1099-63.2924 54.3647-63.8444C54.6492-64.4474 54.9167-65.0546 55.2139-65.6405C55.3208-65.8801 55.4754-66.0953 55.6683-66.2732C56.2288-66.7191 56.7893-67.1649 57.388-67.5216C58.1098-67.9504 58.8741-68.1415 59.6809-67.8825C60.1565-67.7296 60.6363-67.5895 61.1118-67.4579C61.4473-67.3687 61.7912-67.339 62.1182-67.2159C63.1373-66.8337 63.8846-66.0142 64.3899-64.8932C64.7975-63.9845 65.2179-63.0928 65.7189-62.2564C65.8789-61.959 66.1244-61.7165 66.4238-61.56C67.6552-60.9783 68.8823-60.4008 70.1179-59.8403C70.7209-59.56 71.3493-59.3477 71.948-59.0548C72.4745-58.8 72.9798-58.49 73.4851-58.1885C74.1221-57.8064 74.776-57.4412 75.3917-57.0039C76.1008-56.4943 76.7844-55.9296 77.4638-55.3606C77.8459-55.0379 78.1984-54.6727 78.5508-54.2991C78.9839-53.8405 79.4255-53.3819 79.8077-52.8639C80.0412-52.5539 80.1898-52.142 80.3299-51.7471C80.3731-51.5589 80.3519-51.3616 80.2705-51.1866C80.245-51.1272 79.9817-51.1527 79.8756-51.2333C79.2259-51.7344 78.5678-52.2269 77.9521-52.7874C77.1616-53.5127 76.3187-54.1783 75.4299-54.7789C74.6783-55.2799 73.931-55.7852 73.1752-56.265C72.827-56.4773 72.4576-56.6387 72.0966-56.817C71.5361-57.0845 70.9841-57.3903 70.4109-57.6026C69.6891-57.8658 69.0097-58.3032 68.2241-58.2989C67.951-58.314 67.6831-58.3802 67.4344-58.4943C66.6828-58.7915 65.9185-58.7618 65.1499-58.6641C64.9461-58.6386 64.7423-58.6301 64.5385-58.6047C64.0502-58.541 63.7614-58.0399 63.9101-57.4582C64.0035-57.093 64.1478-56.7448 64.288-56.4009C64.6616-55.488 65.0947-54.6048 65.4132-53.6621C65.6255-53.0337 65.7401-52.3331 65.7869-51.6495C65.8463-50.7365 65.7953-49.8109 65.8038-48.8895C65.8038-48.4479 65.8293-48.0063 65.8463-47.5647C65.8888-46.1634 65.617-44.8768 65.0523-43.6497C64.4748-42.4137 63.8078-41.2216 63.0566-40.0829C62.4494-39.1488 61.7912-38.2443 61.1246-37.3611C60.3815-36.376 59.6384-35.3824 58.7382-34.6139C57.9187-33.9132 57.044-33.3145 56.1948-32.6691C56.0458-32.5555 55.8944-32.4448 55.7405-32.3379C55.0611-31.8708 54.3562-31.4675 53.6046-31.1915C53.3414-31.0896 53.0909-30.9367 52.8318-30.8051C52.3648-30.563 51.8977-30.3125 51.4221-30.0832C50.9126-29.8369 50.403-29.6076 49.885-29.3826C49.7237-29.3104 49.6515-29.2212 49.6515-28.992C49.66-27.3444 49.6515-25.6969 49.6515-24.0494C49.6557-23.8456 49.7152-23.646 49.7194-23.4422C49.7194-23.0134 49.7109-22.5803 49.7024-22.1514C49.6854-21.3361 49.66-20.5209 49.6472-19.7014C49.643-19.011 49.6716-18.321 49.7321-17.6335L50.0718-14.5635C50.1185-14.0667 50.1483-13.5699 50.1992-13.0774C50.2077-12.933 50.2417-12.7929 50.2799-12.6528C50.3521-12.3725 50.437-12.1008 50.5007-11.8163C50.5856-11.4214 50.73-11.1496 51.1037-11.0902C51.4087-11.0268 51.7052-10.927 51.9869-10.7929C52.4624-10.5891 52.9422-10.6995 53.4221-10.708C53.9486-10.7123 54.4709-10.7505 54.9974-10.7802C55.1375-10.7887 55.2734-10.8142 55.4135-10.8099C56.0717-10.7929 56.7256-10.7038 57.3582-10.4617C57.5408-10.3896 57.7319-10.3344 57.923-10.3131C58.2457-10.2707 58.492-10.0456 58.7255-9.80358C58.7807-9.74414 58.7934-9.61675 58.8274-9.52334C58.751-9.50211 58.6745-9.46814 58.5981-9.46389C58.3264-9.44266 58.0461-9.46389 57.7786-9.40869C57.5086-9.33898 57.2248-9.34641 56.9591-9.42992C56.4301-9.62312 55.8862-9.77245 55.3328-9.87577C54.9599-9.96458 54.5692-9.94371 54.2076-9.81632C53.8254-9.65497 53.4178-9.59552 53.0187-9.48937C52.9422-9.46814 52.8149-9.42568 52.8106-9.37897C52.8088-9.27388 52.8386-9.1702 52.8955-9.08174C52.9932-8.9034 53.1121-8.74205 53.2267-8.5722C53.2055-8.52974 53.1843-8.49577 53.1545-8.45755ZM51.0697-9.37472C51.0697-9.61251 51.0485-9.82906 51.0697-10.0414C51.0923-10.3786 51.1946-10.7055 51.368-10.9957C51.5414-11.2858 51.7813-11.5307 52.0675-11.7101C52.5431-12.0328 53.0272-12.3343 52.7809-12.7674C52.7469-12.8268 51.7678-12.9203 51.7763-12.9882C51.806-13.2684 51.8952-13.5572 51.8485-13.8374C51.6829-14.7376 51.4111-15.6378 51.2838-16.5422C51.1479-17.5528 51.1691-18.5676 51.0417-19.574C50.9306-20.3733 51.5516-20.4306 51.0417-21.8294C50.4982-22.5682 50.8521-23.3021 50.3807-24.0494C50.2403-24.266 50.3121-24.4341 50.2417-24.6821C50.1907-24.8689 50.1568-25.0728 50.2629-25.2468C50.4922-25.6163 49.9997-25.9729 50.2629-26.3339C50.4016-26.4938 50.4965-26.687 50.5389-26.8944C50.5814-27.4039 50.5814-27.9134 50.5601-28.423C50.5432-28.8051 50.3606-28.9028 49.7321-28.9452C48.9041-29.0004 48.4923-28.907 48.3012-28.5631C47.9611-27.9478 47.6466-27.319 47.3585-26.6778C47.2779-26.5037 47.3288-26.3126 47.3416-26.1343C47.367-25.8371 47.4265-25.5398 47.4392-25.2468C47.4732-24.215 47.401-23.1832 47.7619-22.1599C47.9318-21.6673 47.5666-21.247 46.9764-20.8563C46.8278-20.7587 46.6579-20.644 46.6367-20.5294C46.5224-19.925 46.447-19.3136 46.4117-18.6993C46.3692-17.7014 46.5263-16.7036 46.2503-15.7057C46.0815-15.0929 46.0918-14.4446 46.28-13.8374C46.5475-12.967 47.0443-12.1092 47.4605-11.2473C47.5921-10.9713 47.7832-10.7038 47.9318-10.4278C48.2248-9.90125 49.5835-9.40869 51.0697-9.37472ZM49.9487-4.74641C50.1483-5.06912 50.3733-5.37909 50.5134-5.72303C50.5347-5.77823 50.1143-6.10094 50.0039-6.06272C49.6302-5.91835 49.3118-5.67208 48.9721-5.46826C49.2905-5.22198 49.6175-4.9842 49.9487-4.74641Z"/>
   <path class="monochrome-1 multicolor-1:tintColor hierarchical-1:tertiary SFSymbolsPreviewWireframe" d="M46.4321-81.8365C52.4502-81.8377 58.4096-80.6532 63.9698-78.3508C69.53-76.0483 74.5822-72.6729 78.8374-68.4176C83.0928-64.1624 86.4682-59.1103 88.771-53.5496C91.0733-47.9892 92.2577-42.03 92.2566-36.0127C92.2566-10.693 71.744 9.83658 46.4328 9.83658C21.1173 9.83658 0.5835-10.6972 0.5835-36.0127C0.5835-61.3211 21.1145-81.8365 46.4321-81.8365ZM46.4328-75.0865C24.8413-75.0865 7.3335-57.592 7.3335-36.0127C7.3335-14.4252 24.8452 3.08658 46.4328 3.08658C68.0148 3.08658 85.5066-14.4197 85.5066-36.0133C85.5076-41.1447 84.4976-46.226 82.5345-50.9672C80.571-55.7085 77.693-60.0162 74.0644-63.6446C70.4361-67.273 66.1283-70.1511 61.3873-72.1143C56.6463-74.0776 51.5649-75.0875 46.4328-75.0865Z"/>
  </g>
  <g id="Ultralight-S" transform="matrix(1 0 0 1 515.649 696)">
   <path class="monochrome-0 multicolor-0:tintColor hierarchical-0:primary SFSymbolsPreviewWireframe" d="M51.0855-9.45755C51.0049-9.49152 50.9157-9.50001 50.8478-9.55946C50.7448-9.65995 50.6167-9.73072 50.4773-9.76504C50.3375-9.79937 50.1914-9.79583 50.0537-9.75478C49.5654-9.63589 49.0771-9.52125 48.5676-9.36838C48.7587-9.32592 48.9455-9.26223 49.1366-9.241C49.5399-9.19854 49.9561-9.21128 50.3127-8.91829C50.5208-8.74845 50.7119-8.54888 50.9072-8.35355C50.9454-8.31109 50.9624-8.22192 50.9582-8.15398C50.9582-8.12851 50.8647-8.0818 50.8223-8.09029C49.9603-8.23041 49.0899-8.25164 48.2364-8.53189C47.4774-8.76968 46.7025-8.95438 45.918-9.08389C45.5613-9.15183 45.1834-9.08389 44.814-9.04143C44.6806-9.01489 44.5603-8.94306 44.4743-8.83761C44.1643-8.48518 44.1006-7.50857 44.3384-7.07546C44.3554-7.04149 44.3979-7.00752 44.4021-6.96931C44.4148-6.88863 44.4106-6.80795 44.4106-6.72303C44.3554-6.73577 44.2832-6.72728 44.2407-6.76549C43.6123-7.21558 43.2471-7.94168 43.0348-8.7442C42.9075-9.21977 42.9839-9.77601 42.9924-10.2983C42.9867-10.57 43.0299-10.8404 43.1198-11.0966C43.2429-11.3726 43.3023-11.5764 43.1622-11.8864C43.0815-12.0562 43.1792-12.3407 43.2047-12.6634C43.0603-12.5785 42.9499-12.5403 42.882-12.4638C42.606-12.1581 42.3427-11.8396 42.0795-11.5254C42.037-11.4702 42.003-11.3896 41.9521-11.3471C41.8671-11.2876 41.7822-11.2537 41.6931-11.207C41.6846-11.3344 41.6506-11.4617 41.6676-11.5764C41.7904-12.1549 42.1081-12.6733 42.5678-13.0456C42.6849-13.1521 42.7776-13.283 42.8392-13.4288C42.9007-13.5746 42.9297-13.7324 42.9244-13.8905C42.9329-14.1878 42.9159-14.4808 42.9202-14.7737C42.9202-14.9691 42.865-15.1049 42.6951-15.1474C42.5678-15.1771 42.5126-15.2493 42.5253-15.4276C42.5678-16.4043 42.6272-17.3766 42.6357-18.349C42.6399-19.4063 42.6017-20.4636 42.5635-21.5166C42.5593-21.7629 42.4786-22.0049 42.4319-22.247C42.3682-22.5527 42.313-22.8627 42.2366-23.1684C42.0327-23.9836 42.1856-24.7989 42.279-25.6014C42.3218-26.02 42.4521-26.4252 42.6612-26.7904C43.0136-27.3891 43.0094-28.0897 42.8862-28.7903C42.8427-29.0118 42.814-29.2358 42.8013-29.4612C42.7928-29.7414 42.6909-29.9198 42.4786-29.9877C41.7645-30.2269 41.0483-30.459 40.33-30.6841C39.863-30.8284 39.3874-30.9388 38.9246-31.0832C38.4469-31.2297 37.9738-31.3911 37.5063-31.5673C36.8142-31.8305 36.1348-32.1193 35.447-32.391C34.9887-32.5704 34.5287-32.7445 34.067-32.9133L31.5871-33.8177L29.6764-34.5184C28.7847-34.8538 27.893-35.185 27.0013-35.5374C26.6871-35.6648 26.3856-35.8516 26.0714-35.9833C25.2604-36.3315 24.4366-36.6542 23.6256-37.0108C22.9547-37.3081 22.3008-37.6478 21.6299-37.945C21.3617-38.0575 21.0808-38.1375 20.7934-38.1828C19.9782-38.3229 19.1629-38.4376 18.3476-38.5692C17.7531-38.6626 17.1545-38.773 16.5558-38.8579C16.2713-38.894 15.9846-38.9082 15.698-38.9004C14.7044-38.8876 13.7151-38.8579 12.7257-38.8367C12.437-38.8282 12.1525-38.7985 11.8638-38.8027C11.7515-38.8066 11.642-38.8378 11.5444-38.8933C11.4468-38.9485 11.3641-39.0271 11.3032-39.1212C11.2183-39.2316 11.091-39.291 10.9721-39.3462C10.8234-39.4184 10.6621-39.4439 10.5219-39.5161C10.4455-39.5585 10.3393-39.6774 10.3521-39.7369C10.3732-39.8561 10.4329-39.9651 10.5219-40.0468C10.6026-40.1105 10.7215-40.0936 10.8192-40.1233L11.3712-40.3016L11.3712-40.3993L10.9169-40.4417C10.8319-40.446 10.7428-40.4248 10.6706-40.463C10.5879-40.5143 10.5273-40.5946 10.5007-40.688C10.488-40.7432 10.5857-40.8451 10.6451-40.9003C10.7343-40.9768 10.8447-41.0277 10.9423-41.0872L10.9381-41.1721C10.8744-41.206 10.8022-41.2273 10.7555-41.2825C10.6706-41.3716 10.5474-41.482 10.5432-41.5882C10.5432-41.6986 10.6494-41.8684 10.7385-41.9109C11.1207-42.0808 11.5113-42.2081 11.902-42.361C12.5474-42.6073 13.2013-42.8196 13.834-43.1083C14.5728-43.4438 15.2904-43.8514 16.0207-44.2038C16.6887-44.5382 17.3686-44.8482 18.0589-45.1337C18.9081-45.4692 19.7743-45.7112 20.6151-46.0679C21.2095-46.3142 21.8465-46.3142 22.4197-46.7048C22.9887-47.0997 23.6171-47.3588 24.2116-47.6984C24.5682-47.9108 24.9249-48.14 25.2604-48.3991C25.9992-48.9723 26.7253-49.571 27.4599-50.1527C28.2921-50.8109 29.1201-51.469 29.9566-52.1144C30.1604-52.2716 30.3897-52.3692 30.602-52.5093C31.3708-53.0462 32.081-53.6625 32.7208-54.3479C33.0265-54.6579 33.4257-54.8447 33.7867-55.0655C34.619-55.5666 35.4512-56.0634 36.2877-56.5517C36.4363-56.6366 36.6019-56.6791 36.759-56.7512C37.5828-57.1207 38.4108-57.4858 39.2345-57.8637C39.6464-58.0548 40.0498-58.2799 40.4659-58.4582C40.8438-58.6111 41.2302-58.7087 41.6124-58.8531C42.1856-59.0696 42.7588-59.3074 43.3278-59.541C43.9308-59.7957 44.5252-60.0972 45.1452-60.2883C45.7057-60.4666 46.2916-60.5176 46.8691-60.6322C47.2895-60.7172 47.7056-60.8233 48.1217-60.9167C48.2406-60.9422 48.3595-60.9847 48.4742-60.9762C49.196-60.9252 49.8669-61.214 50.5463-61.422C50.7459-61.4815 50.9497-61.7277 51.0643-61.957C51.2554-62.3392 51.3615-62.7808 51.5314-63.1842C51.7777-63.7447 52.0409-64.2924 52.2957-64.8444C52.5802-65.4474 52.8477-66.0546 53.1449-66.6405C53.2518-66.8801 53.4064-67.0953 53.5993-67.2732C54.1598-67.7191 54.7203-68.1649 55.319-68.5216C56.0408-68.9504 56.8051-69.1415 57.6119-68.8825C58.0875-68.7296 58.5673-68.5895 59.0428-68.4579C59.3783-68.3687 59.7222-68.339 60.0492-68.2159C61.0683-67.8337 61.8156-67.0142 62.3209-65.8932C62.7285-64.9845 63.1489-64.0928 63.6499-63.2564C63.8099-62.959 64.0554-62.7165 64.3548-62.56C65.5862-61.9783 66.8133-61.4008 68.0489-60.8403C68.6519-60.56 69.2803-60.3477 69.879-60.0548C70.4055-59.8 70.9108-59.49 71.4161-59.1885C72.0531-58.8064 72.707-58.4412 73.3227-58.0039C74.0318-57.4943 74.7154-56.9296 75.3948-56.3606C75.7769-56.0379 76.1294-55.6727 76.4818-55.2991C76.9149-54.8405 77.3565-54.3819 77.7387-53.8639C77.9722-53.5539 78.1208-53.142 78.2609-52.7471C78.3041-52.5589 78.2829-52.3616 78.2015-52.1866C78.176-52.1272 77.9127-52.1527 77.8066-52.2333C77.1569-52.7344 76.4988-53.2269 75.8831-53.7874C75.0926-54.5127 74.2497-55.1783 73.3609-55.7789C72.6093-56.2799 71.862-56.7852 71.1062-57.265C70.758-57.4773 70.3886-57.6387 70.0276-57.817C69.4671-58.0845 68.9151-58.3903 68.3419-58.6026C67.6201-58.8658 66.9407-59.3032 66.1551-59.2989C65.882-59.314 65.6141-59.3802 65.3654-59.4943C64.6138-59.7915 63.8495-59.7618 63.0809-59.6641C62.8771-59.6386 62.6733-59.6301 62.4695-59.6047C61.9812-59.541 61.6924-59.0399 61.8411-58.4582C61.9345-58.093 62.0788-57.7448 62.219-57.4009C62.5926-56.488 63.0257-55.6048 63.3442-54.6621C63.5565-54.0337 63.6711-53.3331 63.7179-52.6495C63.7773-51.7365 63.7263-50.8109 63.7348-49.8895C63.7348-49.4479 63.7603-49.0063 63.7773-48.5647C63.8198-47.1634 63.548-45.8768 62.9833-44.6497C62.4058-43.4137 61.7388-42.2216 60.9876-41.0829C60.3804-40.1488 59.7222-39.2443 59.0556-38.3611C58.3125-37.376 57.5694-36.3824 56.6692-35.6139C55.8497-34.9132 54.975-34.3145 54.1258-33.6691C53.9768-33.5555 53.8254-33.4448 53.6715-33.3379C52.9921-32.8708 52.2872-32.4675 51.5356-32.1915C51.2724-32.0896 51.0219-31.9367 50.7628-31.8051C50.2958-31.563 49.8287-31.3125 49.3531-31.0832C48.8436-30.8369 48.334-30.6076 47.816-30.3826C47.6547-30.3104 47.5825-30.2212 47.5825-29.992C47.591-28.3444 47.5825-26.6969 47.5825-25.0494C47.5867-24.8456 47.6462-24.646 47.6504-24.4422C47.6504-24.0134 47.6419-23.5803 47.6334-23.1514C47.6164-22.3361 47.591-21.5209 47.5782-20.7014C47.574-20.011 47.6026-19.321 47.6631-18.6335L48.0028-15.5635C48.0495-15.0667 48.0793-14.5699 48.1302-14.0774C48.1387-13.933 48.1727-13.7929 48.2109-13.6528C48.2831-13.3725 48.368-13.1008 48.4317-12.8163C48.5166-12.4214 48.661-12.1496 49.0347-12.0902C49.3397-12.0268 49.6362-11.927 49.9179-11.7929C50.3934-11.5891 50.8732-11.6995 51.3531-11.708C51.8796-11.7123 52.4019-11.7505 52.9284-11.7802C53.0685-11.7887 53.2044-11.8142 53.3445-11.8099C54.0027-11.7929 54.6566-11.7038 55.2892-11.4617C55.4718-11.3896 55.6629-11.3344 55.854-11.3131C56.1767-11.2707 56.423-11.0456 56.6565-10.8036C56.7117-10.7441 56.7244-10.6168 56.7584-10.5233C56.682-10.5021 56.6055-10.4681 56.5291-10.4639C56.2574-10.4427 55.9771-10.4639 55.7096-10.4087C55.4396-10.339 55.1558-10.3464 54.8901-10.4299C54.3611-10.6231 53.8172-10.7724 53.2638-10.8758C52.8909-10.9646 52.5002-10.9437 52.1386-10.8163C51.7564-10.655 51.3488-10.5955 50.9497-10.4894C50.8732-10.4681 50.7459-10.4257 50.7416-10.379C50.7398-10.2739 50.7696-10.1702 50.8265-10.0817C50.9242-9.9034 51.0431-9.74205 51.1577-9.5722C51.1365-9.52974 51.1153-9.49577 51.0855-9.45755ZM49.0007-10.3747C49.0007-10.6125 48.9795-10.8291 49.0007-11.0414C49.0233-11.3786 49.1256-11.7055 49.299-11.9957C49.4724-12.2858 49.7123-12.5307 49.9985-12.7101C50.4741-13.0328 50.9582-13.3343 50.7119-13.7674C50.6779-13.8268 49.6988-13.9203 49.7073-13.9882C49.737-14.2684 49.8262-14.5572 49.7795-14.8374C49.6139-15.7376 49.3421-16.6378 49.2148-17.5422C49.0789-18.5528 49.1001-19.5676 48.9727-20.574C48.8616-21.3733 49.4826-21.4306 48.9727-22.8294C48.4292-23.5682 48.7831-24.3021 48.3117-25.0494C48.1713-25.266 48.2431-25.4341 48.1727-25.6821C48.1217-25.8689 48.0878-26.0728 48.1939-26.2468C48.4232-26.6163 47.9307-26.9729 48.1939-27.3339C48.3326-27.4938 48.4275-27.687 48.4699-27.8944C48.5124-28.4039 48.5124-28.9134 48.4911-29.423C48.4742-29.8051 48.2916-29.9028 47.6631-29.9452C46.8351-30.0004 46.4233-29.907 46.2322-29.5631C45.8921-28.9478 45.5776-28.319 45.2895-27.6778C45.2089-27.5037 45.2598-27.3126 45.2726-27.1343C45.298-26.8371 45.3575-26.5398 45.3702-26.2468C45.4042-25.215 45.332-24.1832 45.6929-23.1599C45.8628-22.6673 45.4976-22.247 44.9074-21.8563C44.7588-21.7587 44.5889-21.644 44.5677-21.5294C44.4534-20.925 44.378-20.3136 44.3427-19.6993C44.3002-18.7014 44.4573-17.7036 44.1813-16.7057C44.0125-16.0929 44.0228-15.4446 44.211-14.8374C44.4785-13.967 44.9753-13.1092 45.3915-12.2473C45.5231-11.9713 45.7142-11.7038 45.8628-11.4278C46.1558-10.9012 47.5145-10.4087 49.0007-10.3747ZM47.8797-5.74641C48.0793-6.06912 48.3043-6.37909 48.4444-6.72303C48.4657-6.77823 48.0453-7.10094 47.9349-7.06272C47.5612-6.91835 47.2428-6.67208 46.9031-6.46826C47.2215-6.22198 47.5485-5.9842 47.8797-5.74641Z"/>
   <path class="monochrome-1 multicolor-1:tintColor hierarchical-1:tertiary SFSymbolsPreviewWireframe" d="M44.3636-80.5865C50.0861-80.5876 55.7528-79.4613 61.04-77.272C66.3271-75.0826 71.1312-71.8729 75.1774-67.8265C79.2239-63.7803 82.4335-58.9764 84.6232-53.6889C86.8124-48.4015 87.9387-42.7349 87.9376-37.0127C87.9376-12.9352 68.432 6.58658 44.3638 6.58658C20.2909 6.58658 0.7645-12.9399 0.7645-37.0127C0.7645-61.0781 20.2877-80.5865 44.3636-80.5865ZM44.3638-78.3365C21.53-78.3365 3.0145-59.8351 3.0145-37.0127C3.0145-14.1825 21.5336 4.33658 44.3638 4.33658C67.1889 4.33658 85.6876-14.1774 85.6876-37.0129C85.6886-42.4398 84.6205-47.8138 82.5443-52.828C80.4678-57.8425 77.4239-62.3983 73.5865-66.2355C69.7491-70.073 65.1932-73.1168 60.1791-75.1931C55.1651-77.2695 49.791-78.3376 44.3638-78.3365Z"/>
  </g>
 </g>
</svg>
