<?xml version="1.0" encoding="UTF-8"?>
<!--Generator: Apple Native CoreSVG 341-->
<!DOCTYPE svg
PUBLIC "-//W3C//DTD SVG 1.1//EN"
       "http://www.w3.org/Graphics/SVG/1.1/DTD/svg11.dtd">
<svg version="1.1" xmlns="http://www.w3.org/2000/svg" xmlns:xlink="http://www.w3.org/1999/xlink" viewBox="0 0 3300 2200">
 <!--glyph: "", point size: 100.0, font version: "20.0d10e1", template writer version: "138.0.0"-->
 <style>.monochrome-0 {-sfsymbols-motion-group:1;-sfsymbols-layer-tags:-234657fe4ba91df3}
.monochrome-1 {-sfsymbols-motion-group:0;-sfsymbols-layer-tags:-234657fe4ba91df3}

.multicolor-0:tintColor {-sfsymbols-motion-group:1;-sfsymbols-layer-tags:-234657fe4ba91df3}
.multicolor-1:tintColor {-sfsymbols-motion-group:0;-sfsymbols-layer-tags:-234657fe4ba91df3}

.hierarchical-0:primary {-sfsymbols-motion-group:1;-sfsymbols-layer-tags:-234657fe4ba91df3}
.hierarchical-1:tertiary {-sfsymbols-motion-group:0;-sfsymbols-layer-tags:-234657fe4ba91df3}

.SFSymbolsPreviewWireframe {fill:none;opacity:1.0;stroke:black;stroke-width:0.5}
</style>
 <g id="Notes">
  <rect height="2200" id="artboard" style="fill:white;opacity:1" width="3300" x="0" y="0"/>
  <line style="fill:none;stroke:black;opacity:1;stroke-width:0.5;" x1="263" x2="3036" y1="292" y2="292"/>
  <text style="stroke:none;fill:black;font-family:sans-serif;font-size:13;font-weight:bold;" transform="matrix(1 0 0 1 263 322)">Weight/Scale Variations</text>
  <text style="stroke:none;fill:black;font-family:sans-serif;font-size:13;text-anchor:middle;" transform="matrix(1 0 0 1 559.711 322)">Ultralight</text>
  <text style="stroke:none;fill:black;font-family:sans-serif;font-size:13;text-anchor:middle;" transform="matrix(1 0 0 1 856.422 322)">Thin</text>
  <text style="stroke:none;fill:black;font-family:sans-serif;font-size:13;text-anchor:middle;" transform="matrix(1 0 0 1 1153.13 322)">Light</text>
  <text style="stroke:none;fill:black;font-family:sans-serif;font-size:13;text-anchor:middle;" transform="matrix(1 0 0 1 1449.84 322)">Regular</text>
  <text style="stroke:none;fill:black;font-family:sans-serif;font-size:13;text-anchor:middle;" transform="matrix(1 0 0 1 1746.56 322)">Medium</text>
  <text style="stroke:none;fill:black;font-family:sans-serif;font-size:13;text-anchor:middle;" transform="matrix(1 0 0 1 2043.27 322)">Semibold</text>
  <text style="stroke:none;fill:black;font-family:sans-serif;font-size:13;text-anchor:middle;" transform="matrix(1 0 0 1 2339.98 322)">Bold</text>
  <text style="stroke:none;fill:black;font-family:sans-serif;font-size:13;text-anchor:middle;" transform="matrix(1 0 0 1 2636.69 322)">Heavy</text>
  <text style="stroke:none;fill:black;font-family:sans-serif;font-size:13;text-anchor:middle;" transform="matrix(1 0 0 1 2933.4 322)">Black</text>
  <line style="fill:none;stroke:black;opacity:1;stroke-width:0.5;" x1="263" x2="3036" y1="1903" y2="1903"/>
  <g transform="matrix(0.2 0 0 0.2 263 1933)">
   <path d="m46.2402 4.15039c21.7773 0 39.4531-17.627 39.4531-39.4043s-17.6758-39.4043-39.4531-39.4043c-21.7285 0-39.4043 17.627-39.4043 39.4043s17.6758 39.4043 39.4043 39.4043Zm0-7.42188c-17.6758 0-31.9336-14.3066-31.9336-31.9824s14.2578-31.9824 31.9336-31.9824 31.9824 14.3066 31.9824 31.9824-14.3066 31.9824-31.9824 31.9824Zm-17.9688-31.9824c0 2.14844 1.51367 3.61328 3.75977 3.61328h10.498v10.5957c0 2.19727 1.46484 3.71094 3.61328 3.71094 2.24609 0 3.71094-1.51367 3.71094-3.71094v-10.5957h10.5957c2.19727 0 3.71094-1.46484 3.71094-3.61328 0-2.19727-1.51367-3.71094-3.71094-3.71094h-10.5957v-10.5469c0-2.24609-1.46484-3.75977-3.71094-3.75977-2.14844 0-3.61328 1.51367-3.61328 3.75977v10.5469h-10.498c-2.24609 0-3.75977 1.51367-3.75977 3.71094Z"/>
  </g>
  <g transform="matrix(0.2 0 0 0.2 281.506 1933)">
   <path d="m58.5449 14.5508c27.4902 0 49.8047-22.3145 49.8047-49.8047s-22.3145-49.8047-49.8047-49.8047-49.8047 22.3145-49.8047 49.8047 22.3145 49.8047 49.8047 49.8047Zm0-8.30078c-22.9492 0-41.5039-18.5547-41.5039-41.5039s18.5547-41.5039 41.5039-41.5039 41.5039 18.5547 41.5039 41.5039-18.5547 41.5039-41.5039 41.5039Zm-22.6562-41.5039c0 2.39258 1.66016 4.00391 4.15039 4.00391h14.3555v14.4043c0 2.44141 1.66016 4.15039 4.05273 4.15039 2.44141 0 4.15039-1.66016 4.15039-4.15039v-14.4043h14.4043c2.44141 0 4.15039-1.61133 4.15039-4.00391 0-2.44141-1.70898-4.15039-4.15039-4.15039h-14.4043v-14.3555c0-2.49023-1.70898-4.19922-4.15039-4.19922-2.39258 0-4.05273 1.70898-4.05273 4.19922v14.3555h-14.3555c-2.49023 0-4.15039 1.70898-4.15039 4.15039Z"/>
  </g>
  <g transform="matrix(0.2 0 0 0.2 304.924 1933)">
   <path d="m74.8535 28.3203c35.1074 0 63.623-28.4668 63.623-63.5742s-28.5156-63.623-63.623-63.623-63.5742 28.5156-63.5742 63.623 28.4668 63.5742 63.5742 63.5742Zm0-9.08203c-30.127 0-54.4922-24.3652-54.4922-54.4922s24.3652-54.4922 54.4922-54.4922 54.4922 24.3652 54.4922 54.4922-24.3652 54.4922-54.4922 54.4922Zm-28.8574-54.4922c0 2.58789 1.85547 4.39453 4.58984 4.39453h19.7266v19.7754c0 2.68555 1.85547 4.58984 4.44336 4.58984 2.68555 0 4.54102-1.85547 4.54102-4.58984v-19.7754h19.7754c2.68555 0 4.58984-1.80664 4.58984-4.39453 0-2.73438-1.85547-4.58984-4.58984-4.58984h-19.7754v-19.7266c0-2.73438-1.85547-4.63867-4.54102-4.63867-2.58789 0-4.44336 1.9043-4.44336 4.63867v19.7266h-19.7266c-2.73438 0-4.58984 1.85547-4.58984 4.58984Z"/>
  </g>
  <text style="stroke:none;fill:black;font-family:sans-serif;font-size:13;font-weight:bold;" transform="matrix(1 0 0 1 263 1953)">Design Variations</text>
  <text style="stroke:none;fill:black;font-family:sans-serif;font-size:13;" transform="matrix(1 0 0 1 263 1971)">Symbols are supported in up to nine weights and three scales.</text>
  <text style="stroke:none;fill:black;font-family:sans-serif;font-size:13;" transform="matrix(1 0 0 1 263 1989)">For optimal layout with text and other symbols, vertically align</text>
  <text style="stroke:none;fill:black;font-family:sans-serif;font-size:13;" transform="matrix(1 0 0 1 263 2007)">symbols with the adjacent text.</text>
  <line style="fill:none;stroke:#00AEEF;stroke-width:0.5;opacity:1.0;" x1="776" x2="776" y1="1919" y2="1933"/>
  <g transform="matrix(0.2 0 0 0.2 776 1933)">
   <path d="m16.5527 0.78125c2.58789 0 3.85742-0.976562 4.78516-3.71094l6.29883-17.2363h28.8086l6.29883 17.2363c0.927734 2.73438 2.19727 3.71094 4.73633 3.71094 2.58789 0 4.24805-1.5625 4.24805-4.00391 0-0.830078-0.146484-1.61133-0.537109-2.63672l-22.9004-60.9863c-1.12305-2.97852-3.125-4.49219-6.25-4.49219-3.02734 0-5.07812 1.46484-6.15234 4.44336l-22.9004 61.084c-0.390625 1.02539-0.537109 1.80664-0.537109 2.63672 0 2.44141 1.5625 3.95508 4.10156 3.95508Zm13.4766-28.3691 11.8652-32.8613h0.244141l11.8652 32.8613Z"/>
  </g>
  <line style="fill:none;stroke:#00AEEF;stroke-width:0.5;opacity:1.0;" x1="792.836" x2="792.836" y1="1919" y2="1933"/>
  <text style="stroke:none;fill:black;font-family:sans-serif;font-size:13;font-weight:bold;" transform="matrix(1 0 0 1 776 1953)">Margins</text>
  <text style="stroke:none;fill:black;font-family:sans-serif;font-size:13;" transform="matrix(1 0 0 1 776 1971)">Leading and trailing margins on the left and right side of each symbol</text>
  <text style="stroke:none;fill:black;font-family:sans-serif;font-size:13;" transform="matrix(1 0 0 1 776 1989)">can be adjusted by modifying the x-location of the margin guidelines.</text>
  <text style="stroke:none;fill:black;font-family:sans-serif;font-size:13;" transform="matrix(1 0 0 1 776 2007)">Modifications are automatically applied proportionally to all</text>
  <text style="stroke:none;fill:black;font-family:sans-serif;font-size:13;" transform="matrix(1 0 0 1 776 2025)">scales and weights.</text>
  <g transform="matrix(0.2 0 0 0.2 1289 1933)">
   <path d="m14.209 9.32617 8.49609 8.54492c4.29688 4.3457 9.22852 4.05273 13.8672-1.07422l53.4668-58.9355-4.83398-4.88281-53.0762 58.3984c-1.75781 2.00195-3.41797 2.49023-5.76172 0.146484l-5.85938-5.81055c-2.34375-2.29492-1.80664-4.00391 0.195312-5.81055l57.373-54.0039-4.88281-4.83398-57.959 54.4434c-4.93164 4.58984-5.32227 9.47266-1.02539 13.8184Zm32.0801-90.9668c-2.09961 2.05078-2.24609 4.93164-1.07422 6.88477 1.17188 1.80664 3.4668 2.97852 6.68945 2.14844 7.32422-1.70898 14.9414-2.00195 22.0703 2.68555l-2.92969 7.27539c-1.70898 4.15039-0.830078 7.08008 1.85547 9.81445l11.4746 11.5723c2.44141 2.44141 4.49219 2.53906 7.32422 2.05078l5.32227-0.976562 3.32031 3.36914-0.195312 2.7832c-0.195312 2.49023 0.439453 4.39453 2.88086 6.78711l3.80859 3.71094c2.39258 2.39258 5.46875 2.53906 7.8125 0.195312l14.5508-14.5996c2.34375-2.34375 2.24609-5.32227-0.146484-7.71484l-3.85742-3.80859c-2.39258-2.39258-4.24805-3.17383-6.64062-2.97852l-2.88086 0.244141-3.22266-3.17383 1.2207-5.61523c0.634766-2.83203-0.146484-5.0293-3.07617-7.95898l-10.9863-10.9375c-16.6992-16.6016-38.8672-16.2109-53.3203-1.75781Zm7.4707 1.85547c12.1582-8.88672 28.6133-7.37305 39.7461 3.75977l12.1582 12.0605c1.17188 1.17188 1.36719 2.09961 1.02539 3.80859l-1.61133 7.42188 7.51953 7.42188 4.93164-0.292969c1.26953-0.0488281 1.66016 0.0488281 2.63672 1.02539l2.88086 2.88086-12.207 12.207-2.88086-2.88086c-0.976562-0.976562-1.12305-1.36719-1.07422-2.68555l0.341797-4.88281-7.4707-7.42188-7.61719 1.26953c-1.61133 0.341797-2.34375 0.195312-3.56445-0.976562l-10.0098-10.0098c-1.26953-1.17188-1.41602-2.00195-0.634766-3.85742l4.39453-10.4492c-7.8125-7.27539-17.9688-10.4004-28.125-7.42188-0.78125 0.195312-1.07422-0.439453-0.439453-0.976562Z"/>
  </g>
  <text style="stroke:none;fill:black;font-family:sans-serif;font-size:13;font-weight:bold;" transform="matrix(1 0 0 1 1289 1953)">Exporting</text>
  <text style="stroke:none;fill:black;font-family:sans-serif;font-size:13;" transform="matrix(1 0 0 1 1289 1971)">Symbols should be outlined when exporting to ensure the</text>
  <text style="stroke:none;fill:black;font-family:sans-serif;font-size:13;" transform="matrix(1 0 0 1 1289 1989)">design is preserved when submitting to Xcode.</text>
  <text id="template-version" style="stroke:none;fill:black;font-family:sans-serif;font-size:13;text-anchor:end;" transform="matrix(1 0 0 1 3036 1933)">Template v.6.0</text>
  <text style="stroke:none;fill:black;font-family:sans-serif;font-size:13;text-anchor:end;" transform="matrix(1 0 0 1 3036 1951)">Requires Xcode 16 or greater</text>
  <text id="descriptive-name" style="stroke:none;fill:black;font-family:sans-serif;font-size:13;text-anchor:end;" transform="matrix(1 0 0 1 3036 1969)">Generated from filtervogelgruppe-28</text>
  <text style="stroke:none;fill:black;font-family:sans-serif;font-size:13;text-anchor:end;" transform="matrix(1 0 0 1 3036 1987)">Typeset at 100.0 points</text>
  <text style="stroke:none;fill:black;font-family:sans-serif;font-size:13;" transform="matrix(1 0 0 1 263 726)">Small</text>
  <text style="stroke:none;fill:black;font-family:sans-serif;font-size:13;" transform="matrix(1 0 0 1 263 1156)">Medium</text>
  <text style="stroke:none;fill:black;font-family:sans-serif;font-size:13;" transform="matrix(1 0 0 1 263 1586)">Large</text>
 </g>
 <g id="Guides">
  <g id="H-reference" style="fill:#27AAE1;stroke:none;" transform="matrix(1 0 0 1 339 696)">
   <path d="M0.993654 0L3.63775 0L29.3281-67.1323L30.0303-67.1323L30.0303-70.459L28.1226-70.459ZM11.6885-24.4799L46.9815-24.4799L46.2315-26.7285L12.4385-26.7285ZM55.1196 0L57.7637 0L30.6382-70.459L29.4326-70.459L29.4326-67.1323Z"/>
  </g>
  <line id="Baseline-S" style="fill:none;stroke:#27AAE1;opacity:1;stroke-width:0.5;" x1="263" x2="3036" y1="696" y2="696"/>
  <line id="Capline-S" style="fill:none;stroke:#27AAE1;opacity:1;stroke-width:0.5;" x1="263" x2="3036" y1="625.541" y2="625.541"/>
  <g id="H-reference" style="fill:#27AAE1;stroke:none;" transform="matrix(1 0 0 1 339 1126)">
   <path d="M0.993654 0L3.63775 0L29.3281-67.1323L30.0303-67.1323L30.0303-70.459L28.1226-70.459ZM11.6885-24.4799L46.9815-24.4799L46.2315-26.7285L12.4385-26.7285ZM55.1196 0L57.7637 0L30.6382-70.459L29.4326-70.459L29.4326-67.1323Z"/>
  </g>
  <line id="Baseline-M" style="fill:none;stroke:#27AAE1;opacity:1;stroke-width:0.5;" x1="263" x2="3036" y1="1126" y2="1126"/>
  <line id="Capline-M" style="fill:none;stroke:#27AAE1;opacity:1;stroke-width:0.5;" x1="263" x2="3036" y1="1055.54" y2="1055.54"/>
  <g id="H-reference" style="fill:#27AAE1;stroke:none;" transform="matrix(1 0 0 1 339 1556)">
   <path d="M0.993654 0L3.63775 0L29.3281-67.1323L30.0303-67.1323L30.0303-70.459L28.1226-70.459ZM11.6885-24.4799L46.9815-24.4799L46.2315-26.7285L12.4385-26.7285ZM55.1196 0L57.7637 0L30.6382-70.459L29.4326-70.459L29.4326-67.1323Z"/>
  </g>
  <line id="Baseline-L" style="fill:none;stroke:#27AAE1;opacity:1;stroke-width:0.5;" x1="263" x2="3036" y1="1556" y2="1556"/>
  <line id="Capline-L" style="fill:none;stroke:#27AAE1;opacity:1;stroke-width:0.5;" x1="263" x2="3036" y1="1485.54" y2="1485.54"/>
  <line id="right-margin-Black-S" style="fill:none;stroke:#00AEEF;stroke-width:0.5;opacity:1.0;" x1="2982.23" x2="2982.23" y1="600.785" y2="720.121"/>
  <line id="left-margin-Black-S" style="fill:none;stroke:#00AEEF;stroke-width:0.5;opacity:1.0;" x1="2884.57" x2="2884.57" y1="600.785" y2="720.121"/>
  <line id="right-margin-Regular-S" style="fill:none;stroke:#00AEEF;stroke-width:0.5;opacity:1.0;" x1="1496.11" x2="1496.11" y1="600.785" y2="720.121"/>
  <line id="left-margin-Regular-S" style="fill:none;stroke:#00AEEF;stroke-width:0.5;opacity:1.0;" x1="1403.58" x2="1403.58" y1="600.785" y2="720.121"/>
  <line id="right-margin-Ultralight-S" style="fill:none;stroke:#00AEEF;stroke-width:0.5;opacity:1.0;" x1="603.773" x2="603.773" y1="600.785" y2="720.121"/>
  <line id="left-margin-Ultralight-S" style="fill:none;stroke:#00AEEF;stroke-width:0.5;opacity:1.0;" x1="515.649" x2="515.649" y1="600.785" y2="720.121"/>
 </g>
 <g id="Symbols">
  <g id="Black-S" transform="matrix(1 0 0 1 2884.57 696)">
   <path class="monochrome-0 multicolor-0:tintColor hierarchical-0:primary SFSymbolsPreviewWireframe" d="M65.0718-32.3475C65.3705-32.1655 65.6654-31.9761 65.9678-31.8052C66.427-31.5564 66.8899-31.3112 67.3566-31.0847C67.5657-30.9844 67.8046-30.9658 68.0099-30.8618C68.891-30.4161 69.7609-29.9444 70.6382-29.4986C71.2281-29.2015 71.8254-28.9415 72.4116-28.6332C72.9865-28.3286 73.5428-27.9721 74.1177-27.6638C74.6404-27.3778 75.1743-27.1363 75.6969-26.854C76.1076-26.6312 76.5071-26.3823 76.914-26.1483C77.25-25.9552 77.5972-25.7695 77.937-25.5726C78.0004-25.5355 78.0751-25.4909 78.1124-25.4203C78.5082-24.7332 78.9002-24.0497 79.2772-23.3477C79.365-23.1635 79.4157-22.9642 79.4266-22.7609C79.4639-22.33 79.1914-22.0663 78.874-22.2297C78.3887-22.4748 77.9108-22.7571 77.433-23.0246C77.3919-23.0469 77.3583-23.0877 77.3135-23.1063C76.6713-23.4034 76.0031-23.6263 75.3945-24.0163C74.9055-24.354 74.3812-24.6381 73.8303-24.8632C73.2105-25.0897 72.587-25.3089 71.971-25.5392C71.3588-25.7695 70.7502-26.022 70.1417-26.2486C69.7908-26.3823 69.4324-26.4752 69.0814-26.6089C68.6334-26.776 68.1779-26.9432 67.7374-27.1512C67.0931-27.4496 66.3946-27.6136 65.6841-27.6341C65.3406-27.6526 65.0009-27.7603 64.6574-27.7975C64.299-27.8346 63.9368-27.8346 63.5784-27.8643C62.5219-27.9423 61.4878-27.6972 60.4424-27.5523C60.0989-27.5078 59.748-27.5783 59.4083-27.5301C59.1245-27.4929 58.852-27.3443 58.5757-27.2589C58.1277-27.1215 57.6648-27.036 57.2317-26.8503C56.612-26.5903 56.0147-26.256 55.4098-25.9552C55.2344-25.866 55.0402-25.8066 54.8872-25.6692C54.469-25.294 54.0658-24.8892 53.6626-24.4843C53.2034-24.0274 52.7666-23.5334 52.3-23.0989C51.6952-22.5343 51.0903-21.9623 50.4482-21.4868C49.7277-20.952 48.9735-20.484 48.1709-20.1645C47.9954-20.0902 47.8498-19.7931 47.7341-19.5665C47.4665-19.0598 47.2235-18.5404 47.006-18.0102C46.7671-17.4085 46.5506-16.7845 46.3714-16.1456C46.2395-15.716 46.1726-15.269 46.1735-14.8196C46.1884-14.3739 46.3452-13.9356 46.4647-13.5047C46.5804-13.0813 46.741-12.6802 46.8604-12.2604C46.9874-11.8147 47.0956-11.3541 47.1964-10.8973C47.2173-10.7846 47.2045-10.6682 47.1591-10.563C46.8567-9.93527 46.5356-9.31869 46.2258-8.69468C46.0988-8.44954 45.8487-8.35296 45.6583-8.52754C45.4754-8.69468 45.5575-8.91011 45.6396-9.10697C45.9122-9.74955 46.2519-10.3587 46.3228-11.1127C46.3521-11.5166 46.2429-11.9187 46.013-12.253C45.8157-12.5573 45.6287-12.868 45.453-13.1853C45.3298-13.4082 45.2364-13.4639 45.102-13.215C44.8556-12.7619 44.5794-12.3273 44.3554-11.8556C44.118-11.3764 44.0713-10.8258 44.2247-10.3141C44.3591-9.86841 44.4898-9.42269 44.6316-8.9844C44.6578-8.90269 44.7138-8.83583 44.766-8.76897C44.9154-8.57582 44.8855-8.04096 44.7026-8.00382C44.5644-7.9741 44.3516-8.12268 44.2658-8.27868C44.0642-8.65011 43.9186-9.06983 43.7506-9.47098L43.7356-9.51184C43.4146-10.0058 43.5228-10.5518 43.6236-11.1016C43.6311-11.1573 43.6236-11.2539 43.5975-11.2761C43.5602-11.3059 43.493-11.3059 43.4482-11.2799C43.2466-11.1647 43.1682-10.9604 43.1121-10.667C42.9591-9.87584 43.2167-9.30012 43.5788-8.73554C43.6498-8.62411 43.6012-8.39382 43.605-8.21925C43.4855-8.26382 43.3324-8.26011 43.254-8.36039C43.086-8.57582 42.9553-8.84326 42.8097-9.08469C42.7836-9.12183 42.7425-9.14783 42.7052-9.17755C42.6865-9.12926 42.6567-9.08469 42.6492-9.03269C42.6044-8.73554 42.4327-8.63525 42.2609-8.8544C42.0929-9.06612 41.9921-9.35955 41.8353-9.59355C41.4433-10.1804 41.5479-10.9121 41.518-11.5844C41.5068-11.8667 41.6785-12.201 41.8241-12.4536C42.1041-12.9216 42.4215-13.3487 42.7276-13.7907C42.9068-14.047 43.0785-14.3219 43.2876-14.5336C43.549-14.8048 43.87-14.983 44.1276-15.2653C44.4039-15.5699 44.6316-15.9451 44.8818-16.2905C44.893-16.3091 44.8967-16.3425 44.9079-16.3685C45.2476-17.1634 45.5911-17.9582 45.9271-18.7568C45.9644-18.8497 45.9644-18.9722 45.9831-19.0837C45.8972-19.0837 45.8114-19.0985 45.7292-19.0911C44.8332-19.0019 43.9372-18.8979 43.0375-19.1282C42.6193-19.2322 42.19-19.2582 41.7681-19.3028C41.1484-19.366 40.622-19.7411 40.0881-20.094C40.0247-20.1348 39.9537-20.1831 39.8865-20.1905C39.1212-20.2425 38.4902-20.7291 37.8556-21.2194C37.6913-21.3457 37.5644-21.5648 37.3964-21.6651C37.2844-21.7283 37.1238-21.6763 36.9969-21.6206C36.8849-21.5723 36.7878-21.4608 36.6982-21.3568C36.3923-21.0114 36.0936-20.6548 35.7912-20.3057C35.7306-20.2351 35.6658-20.1679 35.597-20.1051C35.2797-19.8191 35.2498-19.4922 35.3917-19.0205C35.4888-18.7011 35.541-18.3222 35.5149-17.9842C35.429-16.9256 35.0295-16.0379 34.5815-15.165C34.3426-14.7119 34.0962-14.619 33.7303-14.7305C33.3197-14.853 32.9016-14.9533 32.4872-15.0573C32.4424-15.0685 32.3751-15.0685 32.349-15.035C32.1885-14.8568 32.0503-14.931 31.9495-15.1168C31.6957-15.5996 31.4119-16.0751 31.2402-16.6062C31.1618-16.8365 31.1506-17.0779 30.9639-17.2191C30.9527-17.2302 30.9452-17.2711 30.949-17.3008C30.9564-17.4865 30.9378-17.6945 30.9901-17.8579C31.1618-18.4002 31.3522-18.9314 31.5575-19.4477C31.6023-19.5591 31.7554-19.5851 31.8562-19.6557L32.5282-20.1385C32.6439-20.2203 32.8007-20.3243 32.6999-20.5211C32.6439-20.6325 32.4573-20.7217 32.3565-20.6808C31.9645-20.5285 31.5501-20.4208 31.27-19.9454C31.1618-19.7634 30.9527-19.6854 30.8407-19.5071C30.7341-19.3158 30.668-19.1047 30.6466-18.8868C30.5981-18.4411 30.5719-17.9842 30.5607-17.5311C30.5532-17.0928 30.6503-16.7028 30.9602-16.4465C31.0797-16.3462 31.0535-15.7408 30.9228-15.6665C30.8519-15.6182 30.6989-15.6033 30.669-15.6591C30.4077-16.1048 30.053-16.5096 30.0269-17.1076C29.9765-17.7412 29.989-18.3783 30.0642-19.0094C30.1313-19.6089 30.3712-20.1766 30.7548-20.6437C30.8594-20.7551 31.0124-20.7811 31.1431-20.8517C31.2775-20.926 31.4119-21.0114 31.5538-21.0745C31.7666-21.1785 31.9869-21.3457 32.2034-21.3531C32.741-21.368 33.2786-21.316 33.8162-21.2788C34.2045-21.2603 34.6002-21.1563 34.9735-21.2268C35.1975-21.264 35.3992-21.5648 35.6082-21.7506C35.6463-21.7849 35.6802-21.8233 35.709-21.8657L36.0077-22.3114C35.8584-22.4377 35.7165-22.5751 35.5597-22.6791C35.3991-22.7869 35.205-22.8203 35.0594-22.9503C34.6637-23.3031 34.2232-23.5557 33.8834-24.0349C33.6632-24.3432 33.316-24.4917 33.036-24.7257C32.8157-24.9114 32.6103-25.1195 32.3975-25.3126C32.2557-25.4389 32.1138-25.554 31.9682-25.6729C31.8749-25.7472 31.7666-25.8029 31.6882-25.9032C31.1543-26.5978 30.6018-27.2738 30.1015-28.0092C29.6877-28.6255 29.3196-29.2711 29.0002-29.9407C28.5809-30.8086 28.207-31.6975 27.8802-32.6038C27.6562-33.2204 27.5367-33.9038 27.406-34.5724C27.1964-35.7904 27.0965-37.0248 27.1074-38.2608C27.0999-39.0779 27.1596-39.8691 27.4098-40.6194C27.5852-41.1356 27.3351-41.5108 27.2007-41.9268C27.085-42.2834 26.9879-42.6548 26.8796-43.0151C26.7676-43.3865 26.6332-43.7431 26.5361-44.1183C26.4503-44.4525 26.3943-44.8091 26.3345-45.1583C26.2785-45.4814 26.2561-45.8157 26.1852-46.1314C26.1088-46.4948 25.895-46.8155 25.5879-47.0265C25.2071-47.3163 24.7777-47.2865 24.3932-47.502C24.0953-47.6769 23.813-47.877 23.5495-48.1C23.3777-48.2411 23.3964-48.5754 23.5719-48.7351C24.0759-49.1883 24.5799-49.634 25.237-49.6191C25.5356-49.6117 25.8343-49.686 26.1255-49.7603C26.2002-49.7751 26.286-49.9386 26.2972-50.0426C26.3569-50.6592 26.3681-51.2832 26.4465-51.8923C26.5323-52.5419 26.6519-53.1866 26.8049-53.8238C26.9804-54.5443 27.141-55.3021 27.4285-55.9484C27.8438-56.8625 28.369-57.723 28.9927-58.5112C29.5079-59.1761 30.1762-59.3915 30.7996-59.711C31.2215-59.9301 31.733-59.8596 32.196-59.9487C33.1405-60.1418 34.0066-59.763 34.8317-59.2578C35.4439-58.8864 36.004-58.3515 36.5713-57.8575C37.1201-57.3821 37.654-56.8695 38.1916-56.3718L38.2924-56.2864C38.774-55.8258 39.2481-55.3578 39.7447-54.9195C39.9612-54.7301 40.2225-54.6298 40.454-54.4589C40.622-54.3363 40.7639-54.1469 40.9281-54.0095C41.5703-53.4672 42.2199-52.9323 42.8657-52.3937C43.5079-51.8626 44.1463-51.324 44.7922-50.7966C45.4716-50.2394 46.1698-49.712 46.8455-49.1363C47.1292-48.8911 47.3682-48.542 47.6445-48.2746C48.5181-47.4203 49.4103-46.6031 50.2765-45.7377C50.7207-45.292 51.1202-44.772 51.5533-44.3077C51.9192-43.9102 52.2962-43.5202 52.692-43.1748C53.517-42.4579 54.357-41.7634 55.2008-41.0799C55.492-40.8459 55.8093-40.6714 56.1192-40.4856C56.3059-40.3668 56.5037-40.2813 56.6904-40.1662C56.8323-40.0733 56.9667-39.9545 57.1011-39.8505C57.3848-39.6276 57.6723-39.4122 57.9523-39.1856C58.4824-38.7585 59.0051-38.3313 59.5315-37.8967L60.5395-37.0499C60.9054-36.7453 61.275-36.4333 61.652-36.1584C62.0328-35.8762 62.4024-35.579 62.8467-35.4416C63.1528-35.345 63.4216-35.0516 63.7166-34.8733C64.0862-34.6504 64.4595-34.4276 64.8441-34.2493C65.3369-34.019 65.8521-33.8481 66.3486-33.629C66.6211-33.5101 66.8937-33.369 67.1401-33.1833C67.2521-33.0904 67.3454-32.8638 67.3641-32.6818C67.3939-32.4367 67.2633-32.2733 67.0542-32.2955C66.6099-32.3438 66.1694-32.4033 65.7289-32.4404C65.5123-32.459 65.2921-32.4404 65.0755-32.4404L65.0718-32.3438L65.0718-32.3475ZM49.43-14.881L49.304-15C48.9435-14.895 48.5025-14.8285 48.2365-14.685C46.777-13.8975 45.314-13.1065 43.935-12.284C42.906-11.6715 42.262-10.961 42.4685-10.149C42.5735-9.7465 42.689-9.3335 42.9865-8.959C43.298-8.5705 43.641-8.1365 44.775-8C44.7365-8.098 44.705-8.147 44.6945-8.1995C44.516-8.8575 43.9805-9.5505 44.2535-10.1665C44.628-11.024 45.489-11.8465 46.364-12.6305C47.2425-13.418 48.394-14.1355 49.43-14.881ZM32.6067-16C32.8972-16.469 33.3942-16.903 33.3837-17.33C33.3592-18.4885 33.9681-19.5245 35.1615-20.431C36.0504-21.1065 37.2401-21.6665 38.2235-22.3105C38.444-22.4505 38.3705-22.7305 38.43-22.9475C38.066-22.9615 37.6531-23.0385 37.3416-22.9755C34.4336-22.3805 32.0328-20.221 32.3093-18.5095C32.3268-18.394 32.2253-18.2435 32.0818-18.1595C31.0739-17.6065 31.2244-16.5845 32.6067-16Z"/>
   <path class="monochrome-1 multicolor-1:tintColor hierarchical-1:tertiary SFSymbolsPreviewWireframe" d="M48.9411-84C55.3091-84.0013 61.615-82.7479 67.4985-80.3116C73.382-77.8752 78.7279-74.3036 83.2305-69.8009C87.7334-65.2983 91.305-59.9524 93.7418-54.0682C96.1779-48.1846 97.4312-41.8789 97.43-35.5124C97.43-8.72255 75.7254 13 48.9424 13C22.156 13 0.43-8.726 0.43-35.5124C0.43-62.2926 22.1539-84 48.9411-84ZM48.9424-70C29.8835-70 14.43-54.5582 14.43-35.5124C14.43-16.458 29.888-0.999999 48.9424-0.999999C67.9909-0.999999 83.43-16.4519 83.43-35.5138C83.4309-40.0428 82.5395-44.5276 80.8069-48.7121C79.0739-52.8969 76.5337-56.6989 73.3311-59.9013C70.1287-63.1038 66.3266-65.644 62.1422-67.3767C57.9578-69.1095 53.4729-70.0009 48.9424-70Z"/>
  </g>
  <g id="Regular-S" transform="matrix(1 0 0 1 1403.58 696)">
   <path class="monochrome-0 multicolor-0:tintColor hierarchical-0:primary SFSymbolsPreviewWireframe" d="M64.7815-33.3882C65.1212-33.1801 65.4566-32.9636 65.8006-32.7682C66.3228-32.4837 66.8494-32.2035 67.3801-31.9445C67.6179-31.8298 67.8897-31.8086 68.1232-31.6897C69.1253-31.1802 70.1147-30.6409 71.1125-30.1314C71.7834-29.7917 72.4628-29.4945 73.1294-29.142C73.7833-28.7938 74.416-28.3862 75.0699-28.0338C75.6644-27.7068 76.2716-27.4308 76.866-27.1081C77.3331-26.8533 77.7875-26.5689 78.2503-26.3013C78.6324-26.0805 79.0273-25.8682 79.4137-25.6432C79.4859-25.6007 79.5708-25.5498 79.6133-25.4691C80.0634-24.6836 80.5092-23.9023 80.9381-23.0997C81.0379-22.8892 81.0956-22.6613 81.1079-22.4289C81.1504-21.9363 80.8404-21.6348 80.4795-21.8217C79.9275-22.1019 79.384-22.4246 78.8405-22.7303C78.7938-22.7558 78.7556-22.8025 78.7046-22.8237C77.9743-23.1634 77.2142-23.4182 76.5221-23.8641C75.9659-24.2501 75.3696-24.5749 74.743-24.8322C74.0381-25.0912 73.329-25.3417 72.6284-25.605C71.932-25.8682 71.2399-26.157 70.5478-26.416C70.1486-26.5689 69.741-26.675 69.3419-26.8279C68.8323-27.0189 68.3143-27.21 67.8132-27.4478C67.0804-27.7889 66.286-27.9765 65.4779-27.9998C65.0872-28.021 64.7008-28.1442 64.3102-28.1866C63.9025-28.2291 63.4907-28.2291 63.083-28.2631C61.8814-28.3522 60.7052-28.072 59.5163-27.9064C59.1256-27.8554 58.7265-27.9361 58.3401-27.8809C58.0174-27.8385 57.7074-27.6686 57.3932-27.5709C56.8836-27.4138 56.3571-27.3162 55.8646-27.1039C55.1597-26.8066 54.4803-26.4245 53.7924-26.0805C53.5929-25.9786 53.3721-25.9107 53.198-25.7536C52.7224-25.3247 52.2638-24.8619 51.8052-24.3991C51.283-23.8768 50.7862-23.3121 50.2554-22.8153C49.5675-22.1698 48.8796-21.5159 48.1493-20.9724C47.3298-20.361 46.4721-19.826 45.5591-19.4608C45.3596-19.3759 45.194-19.0362 45.0623-18.7772C44.758-18.1979 44.4817-17.6042 44.2343-16.998C43.9626-16.3101 43.7163-15.5968 43.5125-14.8665C43.3625-14.3753 43.2864-13.8644 43.2875-13.3506C43.3044-12.841 43.4828-12.34 43.6187-11.8474C43.7503-11.3634 43.9329-10.9048 44.0687-10.425C44.2131-9.91544 44.3363-9.38891 44.4509-8.86664C44.4746-8.73784 44.4601-8.60479 44.4084-8.48448C44.0645-7.76688 43.6993-7.06202 43.3469-6.34867C43.2025-6.06842 42.918-5.95802 42.7015-6.15759C42.4934-6.34867 42.5868-6.59495 42.6803-6.81999C42.9902-7.55458 43.3766-8.25095 43.4573-9.11291C43.4906-9.57468 43.3664-10.0343 43.1049-10.4165C42.8805-10.7643 42.6679-11.1196 42.4679-11.4823C42.3278-11.737 42.2217-11.8007 42.0688-11.5162C41.7886-10.9982 41.4743-10.5014 41.2196-9.96215C40.9496-9.41439 40.8965-8.7849 41.071-8.19999C41.2238-7.69045 41.3724-7.18091 41.5338-6.67987C41.5635-6.58645 41.6272-6.51002 41.6867-6.43359C41.8565-6.21279 41.8225-5.60135 41.6145-5.55888C41.4574-5.52491 41.2153-5.69476 41.1177-5.8731C40.8884-6.29771 40.7228-6.77753 40.5317-7.23611L40.5147-7.28282C40.1495-7.84756 40.2727-8.47175 40.3873-9.10018C40.3958-9.16387 40.3873-9.27427 40.3576-9.29975C40.3151-9.33371 40.2387-9.33371 40.1878-9.30399C39.9585-9.17236 39.8693-8.93882 39.8056-8.60338C39.6315-7.69895 39.9245-7.04079 40.3364-6.39538C40.4171-6.26799 40.3619-6.00473 40.3661-5.80516C40.2302-5.85611 40.0561-5.85187 39.967-5.96651C39.7759-6.21279 39.6273-6.51851 39.4617-6.79451C39.4319-6.83698 39.3852-6.8667 39.3428-6.90067C39.3215-6.84547 39.2876-6.79451 39.2791-6.73507C39.2281-6.39538 39.0328-6.28073 38.8375-6.53125C38.6464-6.77328 38.5318-7.10873 38.3534-7.37624C37.9076-8.04713 38.0265-8.88362 37.9925-9.65218C37.9798-9.97488 38.1751-10.357 38.3407-10.6458C38.6591-11.1808 39.0201-11.6691 39.3683-12.1744C39.5721-12.4674 39.7674-12.7816 40.0052-13.0236C40.3024-13.3336 40.6676-13.5374 40.9606-13.8601C41.2748-14.2083 41.5338-14.6372 41.8183-15.0321C41.831-15.0533 41.8353-15.0915 41.848-15.1212C42.2344-16.0299 42.6251-16.9386 43.0072-17.8515C43.0497-17.9577 43.0497-18.0978 43.0709-18.2252C42.9732-18.2252 42.8756-18.2421 42.7822-18.2337C41.7631-18.1317 40.744-18.0129 39.7207-18.2761C39.2451-18.395 38.7568-18.4247 38.277-18.4757C37.5721-18.5479 36.9734-18.9767 36.3662-19.3801C36.294-19.4268 36.2134-19.482 36.1369-19.4905C35.2665-19.55 34.5489-20.1062 33.827-20.6667C33.6402-20.8111 33.4958-21.0616 33.3047-21.1762C33.1774-21.2484 32.9948-21.189 32.8504-21.1253C32.723-21.0701 32.6126-20.9427 32.5107-20.8238C32.1627-20.4289 31.823-20.0213 31.479-19.6221C31.4102-19.5415 31.3364-19.4647 31.2582-19.3929C30.8973-19.0659 30.8634-18.6922 31.0247-18.153C31.1351-17.7878 31.1946-17.3547 31.1649-16.9683C31.0672-15.7581 30.6128-14.7433 30.1033-13.7455C29.8315-13.2274 29.5513-13.1213 29.1352-13.2487C28.6681-13.3888 28.1926-13.5034 27.7212-13.6223C27.6703-13.6351 27.5938-13.6351 27.5641-13.5969C27.3815-13.393 27.2244-13.478 27.1097-13.6903C26.821-14.2423 26.4983-14.7858 26.303-15.393C26.2138-15.6562 26.2011-15.9322 25.9888-16.0936C25.9761-16.1063 25.9675-16.153 25.9718-16.187C25.9803-16.3993 25.9591-16.6371 26.0185-16.8239C26.2138-17.4439 26.4304-18.0511 26.6639-18.6413C26.7149-18.7687 26.8889-18.7984 27.0036-18.8791L27.7679-19.4311C27.8995-19.5245 28.0779-19.6434 27.9632-19.8684C27.8995-19.9958 27.6872-20.0977 27.5726-20.051C27.1267-19.8769 26.6554-19.7538 26.3369-19.2103C26.2138-19.0022 25.976-18.913 25.8486-18.7092C25.7274-18.4905 25.6522-18.2492 25.6279-18.0001C25.5727-17.4906 25.5429-16.9683 25.5302-16.4503C25.5217-15.9492 25.6321-15.5034 25.9846-15.2104C26.1204-15.0957 26.0907-14.4036 25.9421-14.3187C25.8614-14.2635 25.6873-14.2465 25.6534-14.3102C25.3561-14.8197 24.9527-15.2826 24.923-15.9662C24.8657-16.6905 24.88-17.4187 24.9654-18.1402C25.0418-18.8256 25.3146-19.4746 25.751-20.0085C25.8699-20.1359 26.044-20.1657 26.1926-20.2463C26.3454-20.3313 26.4983-20.4289 26.6597-20.5011C26.9017-20.62 27.1522-20.8111 27.3985-20.8196C28.0099-20.8365 28.6214-20.7771 29.2329-20.7346C29.6745-20.7134 30.1245-20.5945 30.5491-20.6752C30.8039-20.7177 31.0332-21.0616 31.271-21.2739C31.3143-21.3132 31.3528-21.3571 31.3856-21.4055L31.7254-21.9151C31.5555-22.0594 31.3941-22.2165 31.2158-22.3354C31.0332-22.4586 30.8124-22.4968 30.6468-22.6454C30.1967-23.0488 29.6957-23.3375 29.3093-23.8853C29.0588-24.2377 28.6639-24.4076 28.3454-24.6751C28.0949-24.8874 27.8613-25.1252 27.6193-25.346C27.4579-25.4903 27.2966-25.622 27.131-25.7578C27.0249-25.8428 26.9017-25.9065 26.8125-26.0211C26.2053-26.8151 25.5769-27.5879 25.0079-28.4287C24.5373-29.1332 24.1186-29.8713 23.7553-30.6367C23.2784-31.6289 22.8532-32.6451 22.4814-33.6812C22.2267-34.386 22.0908-35.1673 21.9422-35.9316C21.7038-37.324 21.5901-38.7351 21.6025-40.1481C21.594-41.0822 21.6619-41.9866 21.9464-42.8444C22.146-43.4346 21.8615-43.8634 21.7087-44.339C21.577-44.7466 21.4666-45.1713 21.3435-45.5831C21.2161-46.0077 21.0632-46.4154 20.9528-46.8442C20.8552-47.2264 20.7915-47.634 20.7235-48.0332C20.6598-48.4026 20.6344-48.7847 20.5537-49.1457C20.4668-49.5611 20.2236-49.9277 19.8743-50.1689C19.4412-50.5001 18.9529-50.4662 18.5155-50.7124C18.1767-50.9124 17.8556-51.1412 17.5559-51.3961C17.3606-51.5574 17.3818-51.9396 17.5814-52.1222C18.1546-52.6402 18.7279-53.1497 19.4752-53.1328C19.8149-53.1243 20.1546-53.2092 20.4858-53.2941C20.5707-53.3111 20.6683-53.4979 20.6811-53.6168C20.749-54.3217 20.7617-55.035 20.8509-55.7314C20.9484-56.474 21.0845-57.211 21.2585-57.9394C21.4581-58.7632 21.6407-59.6294 21.9677-60.3682C22.4401-61.4132 23.0375-62.397 23.7468-63.298C24.3328-64.0581 25.0928-64.3044 25.8019-64.6696C26.2817-64.9201 26.8635-64.8394 27.39-64.9413C28.4643-65.1621 29.4494-64.729 30.3878-64.1515C31.0841-63.7269 31.7211-63.1155 32.3663-62.5507C32.9905-62.0072 33.5977-61.4212 34.2092-60.8523L34.3238-60.7546C34.8716-60.2281 35.4108-59.6931 35.9756-59.192C36.2219-58.9755 36.5191-58.8608 36.7823-58.6655C36.9734-58.5254 37.1348-58.3088 37.3216-58.1517C38.0519-57.5318 38.7908-56.9203 39.5254-56.3046C40.2557-55.6974 40.9818-55.0817 41.7164-54.4788C42.4892-53.8419 43.2832-53.2389 44.0518-52.5808C44.3745-52.3005 44.6462-51.9014 44.9604-51.5956C45.954-50.619 46.9689-49.6849 47.954-48.6956C48.4593-48.186 48.9136-47.5916 49.4062-47.0608C49.8223-46.6065 50.2511-46.1606 50.7012-45.7657C51.6396-44.9462 52.595-44.1522 53.5547-43.3709C53.8859-43.1034 54.2468-42.9038 54.5992-42.6915C54.8115-42.5556 55.0366-42.458 55.2489-42.3263C55.4102-42.2202 55.5631-42.0843 55.7159-41.9654C56.0387-41.7106 56.3656-41.4644 56.6841-41.2053C57.287-40.717 57.8815-40.2287 58.4802-39.7319L59.6267-38.7638C60.0428-38.4156 60.4631-38.0589 60.892-37.7447C61.3251-37.422 61.7455-37.0823 62.2508-36.9252C62.599-36.8148 62.9047-36.4794 63.2401-36.2756C63.6605-36.0208 64.0851-35.766 64.5225-35.5622C65.083-35.2989 65.6689-35.1036 66.2337-34.8531C66.5436-34.7172 66.8536-34.5559 67.1339-34.3436C67.2612-34.2374 67.3674-33.9784 67.3886-33.7703C67.4226-33.4901 67.274-33.3033 67.0362-33.3287C66.5309-33.3839 66.0299-33.4519 65.5288-33.4943C65.2825-33.5156 65.032-33.4943 64.7857-33.4943L64.7815-33.3839L64.7815-33.3882ZM47.143-13.9026L46.9901-14.0469C46.5527-13.9196 46.0177-13.8389 45.695-13.6648C43.9244-12.7094 42.1495-11.7498 40.4765-10.7519C39.2281-10.0089 38.4468-9.14688 38.6974-8.16178C38.8247-7.67347 38.9649-7.17242 39.3258-6.71808C39.7037-6.24676 40.1198-5.72024 41.4956-5.55464C41.4489-5.67353 41.4107-5.73298 41.3979-5.79667C41.1814-6.59495 40.5317-7.43568 40.8629-8.18301C41.3172-9.22331 42.3618-10.2212 43.4233-11.1723C44.4891-12.1277 45.8861-12.9981 47.143-13.9026ZM27.339-14.0469C27.6915-14.6159 28.2945-15.1425 28.2817-15.6605C28.252-17.066 28.9908-18.3228 30.4387-19.4226C31.5173-20.2421 32.9608-20.9215 34.154-21.7028C34.4215-21.8726 34.3323-22.2123 34.4045-22.4756C33.9629-22.4925 33.4619-22.586 33.0839-22.5095C29.5556-21.7877 26.6427-19.1678 26.9781-17.0914C26.9993-16.9513 26.8762-16.7687 26.7021-16.6668C25.4792-15.9959 25.6618-14.7561 27.339-14.0469Z"/>
   <path class="monochrome-1 multicolor-1:tintColor hierarchical-1:tertiary SFSymbolsPreviewWireframe" d="M46.4321-81.8365C52.4502-81.8377 58.4096-80.6532 63.9698-78.3508C69.53-76.0483 74.5822-72.6729 78.8374-68.4176C83.0928-64.1624 86.4682-59.1103 88.771-53.5496C91.0733-47.9892 92.2577-42.03 92.2566-36.0127C92.2566-10.693 71.744 9.83658 46.4328 9.83658C21.1173 9.83658 0.5835-10.6972 0.5835-36.0127C0.5835-61.3211 21.1145-81.8365 46.4321-81.8365ZM46.4328-75.0865C24.8413-75.0865 7.3335-57.592 7.3335-36.0127C7.3335-14.4252 24.8452 3.08658 46.4328 3.08658C68.0148 3.08658 85.5066-14.4197 85.5066-36.0133C85.5076-41.1447 84.4976-46.226 82.5345-50.9672C80.571-55.7085 77.693-60.0162 74.0644-63.6446C70.4361-67.273 66.1283-70.1511 61.3873-72.1143C56.6463-74.0776 51.5649-75.0875 46.4328-75.0865Z"/>
  </g>
  <g id="Ultralight-S" transform="matrix(1 0 0 1 515.649 696)">
   <path class="monochrome-0 multicolor-0:tintColor hierarchical-0:primary SFSymbolsPreviewWireframe" d="M65.7125-33.3882C66.0522-33.1801 66.3876-32.9636 66.7316-32.7682C67.2538-32.4837 67.7804-32.2035 68.3111-31.9445C68.5489-31.8298 68.8207-31.8086 69.0542-31.6897C70.0563-31.1802 71.0457-30.6409 72.0435-30.1314C72.7144-29.7917 73.3938-29.4945 74.0604-29.142C74.7143-28.7938 75.347-28.3862 76.0009-28.0338C76.5954-27.7068 77.2026-27.4308 77.797-27.1081C78.2641-26.8533 78.7185-26.5689 79.1813-26.3013C79.5634-26.0805 79.9583-25.8682 80.3447-25.6432C80.4169-25.6007 80.5018-25.5498 80.5443-25.4691C80.9944-24.6836 81.4402-23.9023 81.8691-23.0997C81.9689-22.8892 82.0266-22.6613 82.0389-22.4289C82.0814-21.9363 81.7714-21.6348 81.4105-21.8217C80.8585-22.1019 80.315-22.4246 79.7715-22.7303C79.7248-22.7558 79.6866-22.8025 79.6356-22.8237C78.9053-23.1634 78.1452-23.4182 77.4531-23.8641C76.8969-24.2501 76.3006-24.5749 75.674-24.8322C74.9691-25.0912 74.26-25.3417 73.5594-25.605C72.863-25.8682 72.1709-26.157 71.4788-26.416C71.0796-26.5689 70.672-26.675 70.2729-26.8279C69.7633-27.0189 69.2453-27.21 68.7442-27.4478C68.0114-27.7889 67.217-27.9765 66.4089-27.9998C66.0182-28.021 65.6318-28.1442 65.2412-28.1866C64.8335-28.2291 64.4217-28.2291 64.014-28.2631C62.8124-28.3522 61.6362-28.072 60.4473-27.9064C60.0566-27.8554 59.6575-27.9361 59.2711-27.8809C58.9484-27.8385 58.6384-27.6686 58.3242-27.5709C57.8146-27.4138 57.2881-27.3162 56.7956-27.1039C56.0907-26.8066 55.4113-26.4245 54.7234-26.0805C54.5239-25.9786 54.3031-25.9107 54.129-25.7536C53.6534-25.3247 53.1948-24.8619 52.7362-24.3991C52.214-23.8768 51.7172-23.3121 51.1864-22.8153C50.4985-22.1698 49.8106-21.5159 49.0803-20.9724C48.2608-20.361 47.4031-19.826 46.4901-19.4608C46.2906-19.3759 46.125-19.0362 45.9933-18.7772C45.689-18.1979 45.4127-17.6042 45.1653-16.998C44.8936-16.3101 44.6473-15.5968 44.4435-14.8665C44.2935-14.3753 44.2174-13.8644 44.2185-13.3506C44.2354-12.841 44.4138-12.34 44.5497-11.8474C44.6813-11.3634 44.8639-10.9048 44.9997-10.425C45.1441-9.91544 45.2673-9.38891 45.3819-8.86664C45.4056-8.73784 45.3911-8.60479 45.3394-8.48448C44.9955-7.76688 44.6303-7.06202 44.2779-6.34867C44.1335-6.06842 43.849-5.95802 43.6325-6.15759C43.4244-6.34867 43.5178-6.59495 43.6113-6.81999C43.9212-7.55458 44.3076-8.25095 44.3883-9.11291C44.4216-9.57468 44.2974-10.0343 44.0359-10.4165C43.8115-10.7643 43.5989-11.1196 43.3989-11.4823C43.2588-11.737 43.1527-11.8007 42.9998-11.5162C42.7196-10.9982 42.4053-10.5014 42.1506-9.96215C41.8806-9.41439 41.8275-8.7849 42.002-8.19999C42.1548-7.69045 42.3034-7.18092 42.4648-6.67987C42.4945-6.58645 42.5582-6.51002 42.6177-6.43359C42.7875-6.21279 42.7535-5.60135 42.5455-5.55888C42.3884-5.52492 42.1463-5.69476 42.0487-5.8731C41.8194-6.29771 41.6538-6.77753 41.4627-7.23611L41.4457-7.28282C41.0805-7.84756 41.2037-8.47175 41.3183-9.10018C41.3268-9.16387 41.3183-9.27427 41.2886-9.29975C41.2461-9.33371 41.1697-9.33371 41.1188-9.30399C40.8895-9.17236 40.8003-8.93882 40.7366-8.60338C40.5625-7.69895 40.8555-7.04079 41.2674-6.39538C41.3481-6.26799 41.2929-6.00473 41.2971-5.80516C41.1612-5.85611 40.9871-5.85187 40.898-5.96652C40.7069-6.21279 40.5583-6.51851 40.3927-6.79451C40.3629-6.83698 40.3162-6.8667 40.2738-6.90067C40.2525-6.84547 40.2186-6.79451 40.2101-6.73507C40.1591-6.39538 39.9638-6.28073 39.7685-6.53125C39.5774-6.77328 39.4628-7.10873 39.2844-7.37624C38.8386-8.04713 38.9575-8.88362 38.9235-9.65218C38.9108-9.97488 39.1061-10.357 39.2717-10.6458C39.5901-11.1808 39.9511-11.6691 40.2993-12.1744C40.5031-12.4674 40.6984-12.7816 40.9362-13.0236C41.2334-13.3336 41.5986-13.5374 41.8916-13.8601C42.2058-14.2083 42.4648-14.6372 42.7493-15.0321C42.762-15.0533 42.7663-15.0915 42.779-15.1212C43.1654-16.0299 43.5561-16.9386 43.9382-17.8515C43.9807-17.9577 43.9807-18.0978 44.0019-18.2252C43.9042-18.2252 43.8066-18.2421 43.7132-18.2337C42.6941-18.1317 41.675-18.0129 40.6517-18.2761C40.1761-18.395 39.6878-18.4247 39.208-18.4757C38.5031-18.5479 37.9044-18.9767 37.2972-19.3801C37.225-19.4268 37.1444-19.482 37.0679-19.4905C36.1975-19.55 35.4799-20.1062 34.758-20.6667C34.5712-20.8111 34.4268-21.0616 34.2357-21.1762C34.1084-21.2484 33.9258-21.189 33.7814-21.1253C33.654-21.0701 33.5436-20.9427 33.4417-20.8238C33.0937-20.4289 32.754-20.0213 32.41-19.6221C32.3412-19.5415 32.2674-19.4647 32.1892-19.3929C31.8283-19.0659 31.7944-18.6922 31.9557-18.153C32.0661-17.7878 32.1256-17.3547 32.0959-16.9683C31.9982-15.7581 31.5438-14.7433 31.0343-13.7455C30.7625-13.2274 30.4823-13.1213 30.0662-13.2487C29.5991-13.3888 29.1236-13.5034 28.6522-13.6223C28.6013-13.6351 28.5248-13.6351 28.4951-13.5969C28.3125-13.393 28.1554-13.478 28.0407-13.6903C27.752-14.2423 27.4293-14.7858 27.234-15.393C27.1448-15.6562 27.1321-15.9322 26.9198-16.0936C26.9071-16.1063 26.8985-16.153 26.9028-16.187C26.9113-16.3993 26.8901-16.6371 26.9495-16.8239C27.1448-17.4439 27.3614-18.0511 27.5949-18.6413C27.6459-18.7687 27.8199-18.7984 27.9346-18.8791L28.6989-19.4311C28.8305-19.5245 29.0089-19.6434 28.8942-19.8684C28.8305-19.9958 28.6182-20.0977 28.5036-20.051C28.0577-19.8769 27.5864-19.7538 27.2679-19.2103C27.1448-19.0022 26.907-18.913 26.7796-18.7092C26.6584-18.4905 26.5832-18.2492 26.5589-18.0001C26.5037-17.4906 26.4739-16.9683 26.4612-16.4503C26.4527-15.9492 26.5631-15.5034 26.9156-15.2104C27.0514-15.0957 27.0217-14.4036 26.8731-14.3187C26.7924-14.2635 26.6183-14.2465 26.5844-14.3102C26.2871-14.8197 25.8837-15.2826 25.854-15.9662C25.7967-16.6905 25.811-17.4187 25.8964-18.1402C25.9728-18.8256 26.2456-19.4746 26.682-20.0085C26.8009-20.1359 26.975-20.1657 27.1236-20.2463C27.2764-20.3313 27.4293-20.4289 27.5907-20.5011C27.8327-20.62 28.0832-20.8111 28.3295-20.8196C28.9409-20.8365 29.5524-20.7771 30.1639-20.7346C30.6055-20.7134 31.0555-20.5945 31.4801-20.6752C31.7349-20.7177 31.9642-21.0616 32.202-21.2739C32.2453-21.3132 32.2838-21.3571 32.3166-21.4055L32.6564-21.9151C32.4865-22.0594 32.3251-22.2165 32.1468-22.3354C31.9642-22.4586 31.7434-22.4968 31.5778-22.6454C31.1277-23.0488 30.6267-23.3375 30.2403-23.8853C29.9898-24.2377 29.5949-24.4076 29.2764-24.6751C29.0259-24.8874 28.7923-25.1252 28.5503-25.346C28.3889-25.4903 28.2276-25.622 28.062-25.7578C27.9559-25.8428 27.8327-25.9065 27.7435-26.0211C27.1363-26.8151 26.5079-27.5879 25.9389-28.4287C25.4683-29.1332 25.0496-29.8713 24.6863-30.6367C24.2094-31.6289 23.7842-32.6451 23.4124-33.6812C23.1577-34.386 23.0218-35.1673 22.8732-35.9316C22.6348-37.324 22.5211-38.7351 22.5335-40.1481C22.525-41.0822 22.5929-41.9866 22.8774-42.8444C23.077-43.4346 22.7925-43.8634 22.6397-44.339C22.508-44.7466 22.3976-45.1713 22.2745-45.5831C22.1471-46.0077 21.9942-46.4154 21.8838-46.8442C21.7862-47.2264 21.7225-47.634 21.6545-48.0332C21.5908-48.4026 21.5654-48.7847 21.4847-49.1457C21.3978-49.5611 21.1546-49.9277 20.8053-50.1689C20.3722-50.5001 19.8839-50.4662 19.4465-50.7124C19.1077-50.9124 18.7866-51.1412 18.4869-51.3961C18.2916-51.5574 18.3128-51.9396 18.5124-52.1222C19.0856-52.6402 19.6589-53.1497 20.4062-53.1328C20.7459-53.1243 21.0856-53.2092 21.4168-53.2941C21.5017-53.3111 21.5993-53.4979 21.6121-53.6168C21.68-54.3217 21.6927-55.035 21.7819-55.7314C21.8794-56.474 22.0155-57.211 22.1895-57.9394C22.3891-58.7632 22.5717-59.6294 22.8987-60.3682C23.3711-61.4132 23.9685-62.397 24.6778-63.298C25.2638-64.0581 26.0238-64.3044 26.7329-64.6696C27.2127-64.9201 27.7945-64.8394 28.321-64.9413C29.3953-65.1621 30.3804-64.729 31.3188-64.1515C32.0151-63.7269 32.6521-63.1155 33.2973-62.5507C33.9215-62.0072 34.5287-61.4212 35.1402-60.8523L35.2548-60.7546C35.8026-60.2281 36.3418-59.6931 36.9066-59.192C37.1529-58.9755 37.4501-58.8608 37.7133-58.6655C37.9044-58.5254 38.0658-58.3088 38.2526-58.1517C38.9829-57.5318 39.7218-56.9203 40.4564-56.3046C41.1867-55.6974 41.9128-55.0817 42.6474-54.4788C43.4202-53.8419 44.2142-53.2389 44.9828-52.5808C45.3055-52.3005 45.5772-51.9014 45.8914-51.5956C46.885-50.619 47.8999-49.6849 48.885-48.6956C49.3903-48.186 49.8446-47.5916 50.3372-47.0608C50.7533-46.6065 51.1821-46.1606 51.6322-45.7657C52.5706-44.9462 53.526-44.1522 54.4857-43.3709C54.8169-43.1034 55.1778-42.9038 55.5302-42.6915C55.7425-42.5556 55.9676-42.458 56.1799-42.3263C56.3412-42.2202 56.4941-42.0843 56.6469-41.9654C56.9697-41.7106 57.2966-41.4644 57.6151-41.2053C58.218-40.717 58.8125-40.2287 59.4112-39.7319L60.5577-38.7638C60.9738-38.4156 61.3941-38.0589 61.823-37.7447C62.2561-37.422 62.6765-37.0823 63.1818-36.9252C63.53-36.8148 63.8357-36.4794 64.1711-36.2756C64.5915-36.0208 65.0161-35.766 65.4535-35.5622C66.014-35.2989 66.5999-35.1036 67.1647-34.8531C67.4746-34.7172 67.7846-34.5559 68.0649-34.3436C68.1922-34.2374 68.2984-33.9784 68.3196-33.7703C68.3536-33.4901 68.205-33.3033 67.9672-33.3287C67.4619-33.3839 66.9609-33.4519 66.4598-33.4943C66.2135-33.5156 65.963-33.4943 65.7167-33.4943L65.7125-33.3839L65.7125-33.3882ZM48.074-13.9026L47.9211-14.0469C47.4837-13.9196 46.9487-13.8389 46.626-13.6648C44.8554-12.7094 43.0805-11.7498 41.4075-10.7519C40.1591-10.0089 39.3778-9.14688 39.6284-8.16178C39.7557-7.67347 39.8959-7.17242 40.2568-6.71808C40.6347-6.24676 41.0508-5.72024 42.4266-5.55464C42.3799-5.67353 42.3417-5.73298 42.3289-5.79667C42.1124-6.59495 41.4627-7.43568 41.7939-8.18301C42.2482-9.22332 43.2928-10.2212 44.3543-11.1723C45.4201-12.1277 46.8171-12.9981 48.074-13.9026ZM28.27-14.0469C28.6225-14.6159 29.2255-15.1425 29.2127-15.6605C29.183-17.066 29.9218-18.3228 31.3697-19.4226C32.4483-20.2421 33.8918-20.9215 35.085-21.7028C35.3525-21.8726 35.2633-22.2123 35.3355-22.4756C34.8939-22.4925 34.3929-22.586 34.0149-22.5095C30.4866-21.7877 27.5737-19.1678 27.9091-17.0914C27.9303-16.9513 27.8072-16.7687 27.6331-16.6668C26.4102-15.9959 26.5928-14.7561 28.27-14.0469Z"/>
   <path class="monochrome-1 multicolor-1:tintColor hierarchical-1:tertiary SFSymbolsPreviewWireframe" d="M44.3636-80.5865C50.0861-80.5876 55.7528-79.4613 61.04-77.272C66.3271-75.0826 71.1312-71.8729 75.1774-67.8265C79.2239-63.7803 82.4335-58.9764 84.6232-53.6889C86.8124-48.4015 87.9387-42.7349 87.9376-37.0127C87.9376-12.9352 68.432 6.58658 44.3638 6.58658C20.2909 6.58658 0.7645-12.9399 0.7645-37.0127C0.7645-61.0781 20.2877-80.5865 44.3636-80.5865ZM44.3638-78.3365C21.53-78.3365 3.0145-59.8351 3.0145-37.0127C3.0145-14.1825 21.5336 4.33658 44.3638 4.33658C67.1889 4.33658 85.6876-14.1774 85.6876-37.0129C85.6886-42.4398 84.6205-47.8138 82.5443-52.828C80.4678-57.8425 77.4239-62.3983 73.5865-66.2355C69.7491-70.073 65.1932-73.1168 60.1791-75.1931C55.1651-77.2695 49.791-78.3376 44.3638-78.3365Z"/>
  </g>
 </g>
</svg>
