<?xml version="1.0" encoding="UTF-8"?>
<svg width="3300px" height="2200px" viewBox="0 0 3300 2200" version="1.1" xmlns="http://www.w3.org/2000/svg" xmlns:xlink="http://www.w3.org/1999/xlink">
    <!-- Generator: Sketch 59.1 (86144) - https://sketch.com -->
    <title>filter</title>
    <desc>Created with Sketch.</desc>
    <g id="Page-1" stroke="none" stroke-width="1" fill="none" fill-rule="evenodd">
        <g id="filter">
            <g id="Notes">
                <rect id="artboard" fill="#FFFFFF" fill-rule="nonzero" x="0" y="0" width="3300" height="2200"></rect>
                <line x1="263" y1="292" x2="3036" y2="292" id="Path" stroke="#000000" stroke-width="0.5"></line>
                <text id="Weight/Scale-Variations" fill="#000000" font-family="Helvetica-Bold, Helvetica" font-size="13" font-weight="bold">
                    <tspan x="263" y="322">Weight/Scale Variations</tspan>
                </text>
                <text id="Ultralight" fill="#000000" font-family="Helvetica" font-size="13" font-weight="normal">
                    <tspan x="533.711" y="322">Ultralight</tspan>
                </text>
                <text id="Thin" fill="#000000" font-family="Helvetica" font-size="13" font-weight="normal">
                    <tspan x="843.422" y="322">Thin</tspan>
                </text>
                <text id="Light" fill="#000000" font-family="Helvetica" font-size="13" font-weight="normal">
                    <tspan x="1138.63" y="322">Light</tspan>
                </text>
                <text id="Regular" fill="#000000" font-family="Helvetica" font-size="13" font-weight="normal">
                    <tspan x="1426.84" y="322">Regular</tspan>
                </text>
                <text id="Medium" fill="#000000" font-family="Helvetica" font-size="13" font-weight="normal">
                    <tspan x="1723.06" y="322">Medium</tspan>
                </text>
                <text id="Semibold" fill="#000000" font-family="Helvetica" font-size="13" font-weight="normal">
                    <tspan x="2015.77" y="322">Semibold</tspan>
                </text>
                <text id="Bold" fill="#000000" font-family="Helvetica" font-size="13" font-weight="normal">
                    <tspan x="2326.48" y="322">Bold</tspan>
                </text>
                <text id="Heavy" fill="#000000" font-family="Helvetica" font-size="13" font-weight="normal">
                    <tspan x="2618.19" y="322">Heavy</tspan>
                </text>
                <text id="Black" fill="#000000" font-family="Helvetica" font-size="13" font-weight="normal">
                    <tspan x="2917.4" y="322">Black</tspan>
                </text>
                <line x1="263" y1="1903" x2="3036" y2="1903" id="Path" stroke="#000000" stroke-width="0.5"></line>
                <g id="Group" transform="translate(264.000000, 1918.000000)" fill="#000000" fill-rule="nonzero">
                    <path d="M8.24805,15.830078 C12.5547,15.830078 16.1387,12.25586 16.1387,7.94922 C16.1387,3.6426 12.5449,0.0684 8.23828,0.0684 C3.94141,0.0684 0.36719,3.6426 0.36719,7.94922 C0.36719,12.25586 3.95117,15.830078 8.24805,15.830078 Z M8.24805,14.345703 C4.70312,14.345703 1.87109,11.50391 1.87109,7.94922 C1.87109,4.3945 4.69336,1.5527 8.23828,1.5527 C11.793,1.5527 14.6348,4.3945 14.6445503,7.94922 C14.6543,11.50391 11.8027,14.345703 8.24805,14.345703 Z M8.22852,11.57227 C8.69727,11.57227 8.9707,11.25977 8.9707,10.74219 L8.9707,8.68164 L11.1973,8.68164 C11.6953,8.68164 12.0371,8.42773 12.0371,7.95898 C12.0371,7.48047 11.7148,7.2168 11.1973,7.2168 L8.9707,7.2168 L8.9707,4.9902 C8.9707,4.4727 8.69727,4.1504 8.22852,4.1504 C7.75977,4.1504 7.50586,4.4922 7.50586,4.9902 L7.50586,7.2168 L5.29883,7.2168 C4.78125,7.2168 4.44922,7.48047 4.44922,7.95898 C4.44922,8.42773 4.80078,8.68164 5.29883,8.68164 L7.50586,8.68164 L7.50586,10.74219 C7.50586,11.24023 7.75977,11.57227 8.22852,11.57227 Z" id="Shape"></path>
                </g>
                <g id="Group" transform="translate(282.506000, 1915.000000)" fill="#000000" fill-rule="nonzero">
                    <path d="M10.709,20.91016 C16.1582,20.91016 20.6699,16.39844 20.6699,10.94922 C20.6699,5.5098 16.1484,0.9883 10.6992,0.9883 C5.25977,0.9883 0.74805,5.5098 0.74805,10.94922 C0.74805,16.39844 5.26953,20.91016 10.709,20.91016 Z M10.709,19.25 C6.09961,19.25 2.41797,15.55859 2.41797,10.94922 C2.41797,6.3496 6.08984,2.6484 10.6992,2.6484 C15.3086,2.6484 19,6.3496 19.0098379,10.94922 C19.0195,15.55859 15.3184,19.25 10.709,19.25 Z M10.6895,15.58789 C11.207,15.58789 11.5195,15.22656 11.5195,14.66016 L11.5195,11.76953 L14.5762,11.76953 C15.123,11.76953 15.5039,11.48633 15.5039,10.96875 C15.5039,10.44141 15.1426,10.13867 14.5762,10.13867 L11.5195,10.13867 L11.5195,7.0723 C11.5195,6.4961 11.207,6.1445 10.6895,6.1445 C10.1719,6.1445 9.8789,6.5156 9.8789,7.0723 L9.8789,10.13867 L6.83203,10.13867 C6.26562,10.13867 5.89453,10.44141 5.89453,10.96875 C5.89453,11.48633 6.28516,11.76953 6.83203,11.76953 L9.8789,11.76953 L9.8789,14.66016 C9.8789,15.20703 10.1719,15.58789 10.6895,15.58789 Z" id="Shape"></path>
                </g>
                <g id="Group" transform="translate(306.924000, 1913.000000)" fill="#000000" fill-rule="nonzero">
                    <path d="M12.9707,25.67383 C19.9336,25.67383 25.6953,19.921875 25.6953,12.95898 C25.6953,5.9961 19.9238,0.2441 12.9609,0.2441 C6.00781,0.2441 0.25586,5.9961 0.25586,12.95898 C0.25586,19.921875 6.01758,25.67383 12.9707,25.67383 Z M12.9707,23.85742 C6.93555,23.85742 2.08203,18.99414 2.08203,12.95898 C2.08203,6.9238 6.92578,2.0605 12.9609,2.0605 C19.0059,2.0605 23.8594,6.9238 23.8691295,12.95898 C23.8789,18.99414 19.0156,23.85742 12.9707,23.85742 Z M12.9512,18.93555 C13.5176,18.93555 13.8691,18.54492 13.8691,17.93945 L13.8691,13.86719 L18.1074,13.86719 C18.6934,13.86719 19.1133,13.53516 19.1133,12.97852 C19.1133,12.40234 18.7227,12.06055 18.1074,12.06055 L13.8691,12.06055 L13.8691,7.8125 C13.8691,7.1973 13.5176,6.8066 12.9512,6.8066 C12.3848,6.8066 12.0625,7.2168 12.0625,7.8125 L12.0625,12.06055 L7.83398,12.06055 C7.21875,12.06055 6.80859,12.40234 6.80859,12.97852 C6.80859,13.53516 7.23828,13.86719 7.83398,13.86719 L12.0625,13.86719 L12.0625,17.93945 C12.0625,18.52539 12.3848,18.93555 12.9512,18.93555 Z" id="Shape"></path>
                </g>
                <text id="Design-Variations" fill="#000000" font-family="Helvetica-Bold, Helvetica" font-size="13" font-weight="bold">
                    <tspan x="263" y="1953">Design Variations</tspan>
                </text>
                <text id="Symbols-are-supported-in-up-to-nine-weights-and-three-scales." fill="#000000" font-family="Helvetica" font-size="13" font-weight="normal">
                    <tspan x="263" y="1971">Symbols are supported in up to nine weights and three scales.</tspan>
                </text>
                <text id="For-optimal-layout-with-text-and-other-symbols,-vertically-align" fill="#000000" font-family="Helvetica" font-size="13" font-weight="normal">
                    <tspan x="263" y="1989">For optimal layout with text and other symbols, vertically align</tspan>
                </text>
                <text id="symbols-with-the-adjacent-text." fill="#000000" font-family="Helvetica" font-size="13" font-weight="normal">
                    <tspan x="263" y="2007">symbols with the adjacent text.</tspan>
                </text>
                <rect id="Rectangle" fill="#00AEEF" fill-rule="nonzero" opacity="0.4" x="776" y="1919" width="3" height="14"></rect>
                <g id="Group" transform="translate(779.000000, 1918.000000)" fill="#000000" fill-rule="nonzero">
                    <path d="M10.5273,15 L12.373,15 L7.17773,0.9082 L5.43945,0.9082 L0.244141,15 L2.08984,15 L3.50586,10.9668 L9.11133,10.9668 L10.5273,15 Z M6.2793,3.0469 L6.33789,3.0469 L8.59375,9.47266 L4.02344,9.47266 L6.2793,3.0469 Z" id="Shape"></path>
                </g>
                <rect id="Rectangle" fill="#00AEEF" fill-rule="nonzero" opacity="0.4" x="791.617" y="1919" width="3" height="14"></rect>
                <text id="Margins" fill="#000000" font-family="Helvetica-Bold, Helvetica" font-size="13" font-weight="bold">
                    <tspan x="776" y="1953">Margins</tspan>
                </text>
                <text id="Leading-and-trailing-margins-on-the-left-and-right-side-of-each-symbol" fill="#000000" font-family="Helvetica" font-size="13" font-weight="normal">
                    <tspan x="776" y="1971">Leading and trailing margins on the left and right side of each symbol</tspan>
                </text>
                <text id="can-be-adjusted-by-modifying-the-width-of-the-blue-rectangles." fill="#000000" font-family="Helvetica" font-size="13" font-weight="normal">
                    <tspan x="776" y="1989">can be adjusted by modifying the width of the blue rectangles.</tspan>
                </text>
                <text id="Modifications-are-automatically-applied-proportionally-to-all" fill="#000000" font-family="Helvetica" font-size="13" font-weight="normal">
                    <tspan x="776" y="2007">Modifications are automatically applied proportionally to all</tspan>
                </text>
                <text id="scales-and-weights." fill="#000000" font-family="Helvetica" font-size="13" font-weight="normal">
                    <tspan x="776" y="2025">scales and weights.</tspan>
                </text>
                <g id="Group" transform="translate(1291.000000, 1915.000000)" fill="#000000" fill-rule="nonzero">
                    <path d="M0.83203,21.11523 L2.375,22.6582 C3.22461,23.48828 4.19141,23.41992 5.06055,22.46289 L15.2754,11.33984 C15.7051,11.63281 16.0957,11.62305 16.5645,11.52539 L17.6094,11.31055 L18.3027,12.00391 L18.2539,12.52148 C18.1855,13.04883 18.3516,13.46875 18.8496,13.9668 L19.6602,14.77734 C20.168,15.28516 20.8223,15.31445 21.3008,14.83594 L24.5527,11.58398 C25.0312,11.10547 25.0117,10.45117 24.5039,9.94336 L23.6836,9.12305 C23.1855,8.625 22.7754,8.44922 22.2383,8.52734 L21.7109,8.58594 L21.0566,7.9219 L21.3398,6.7793 C21.4863,6.2129 21.3398,5.7441 20.7148,5.1387 L18.3027,2.7461 C14.7578,-0.7793 10.2266,-0.6719 7.11133,2.4629 C6.69141,2.8926 6.64258,3.4785 6.91602,3.9082 C7.15039,4.2793 7.62891,4.5039 8.2734,4.3379 C9.7871,3.957 11.3008,4.0742 12.7852,5.0801 L12.1602,6.6621 C11.9258,7.248 11.9453,7.7266 12.1797,8.16602 L1.01758,18.439453 C0.08008,19.30859 -0.02734,20.25586 0.83203,21.11523 Z M8.6738,2.8535 C11.3398,0.8613 14.6504,1.1738 17.0527,3.5859 L19.6797,6.1934 C19.9141,6.4277 19.9434,6.6133 19.8848,6.9062 L19.5039,8.46875 L21.0762,10.04102 L22.043,9.95312 C22.3262,9.92383 22.4141,9.94336 22.6387,10.16797 L23.2637,10.79297 L20.5098,13.53711 L19.8848,12.92188 C19.6602,12.69727 19.6406,12.59961 19.6699,12.31641 L19.7578,11.35938 L18.1953,9.79688 L16.5742,10.10938 C16.291,10.16797 16.1445,10.16797 15.9102,9.92383 L13.7324,7.7461 C13.5078,7.5117 13.4785,7.375 13.6055,7.0527 L14.5527,4.7773 C12.9512,3.2441 10.8418,2.3945 8.8008,3.0488 C8.7129,3.0781 8.6445,3.0586 8.6152,3.0195 C8.5859,2.9707 8.5859,2.9219 8.6738,2.8535 Z M2.10156,20.41211 C1.61328,19.91406 1.78906,19.61133 2.12109,19.30859 L13.0781,9.19141 L14.3086,10.42188 L4.15234,21.34961 C3.84961,21.68164 3.46875,21.7793 3.06836,21.37891 L2.10156,20.41211 Z" id="Shape"></path>
                </g>
                <text id="Exporting" fill="#000000" font-family="Helvetica-Bold, Helvetica" font-size="13" font-weight="bold">
                    <tspan x="1289" y="1953">Exporting</tspan>
                </text>
                <text id="Symbols-should-be-outlined-when-exporting-to-ensure-the" fill="#000000" font-family="Helvetica" font-size="13" font-weight="normal">
                    <tspan x="1289" y="1971">Symbols should be outlined when exporting to ensure the</tspan>
                </text>
                <text id="design-is-preserved-when-submitting-to-Xcode." fill="#000000" font-family="Helvetica" font-size="13" font-weight="normal">
                    <tspan x="1289" y="1989">design is preserved when submitting to Xcode.</tspan>
                </text>
                <text id="Template-v.1.0" fill="#000000" font-family="Helvetica" font-size="13" font-weight="normal">
                    <tspan x="2952" y="1933">Template v.1.0</tspan>
                </text>
                <text id="Generated-from-circle" fill="#000000" font-family="Helvetica" font-size="13" font-weight="normal">
                    <tspan x="2911" y="1951">Generated from circle</tspan>
                </text>
                <text id="Typeset-at-100-points" fill="#000000" font-family="Helvetica" font-size="13" font-weight="normal">
                    <tspan x="2912" y="1969">Typeset at 100 points</tspan>
                </text>
                <text id="Small" fill="#000000" font-family="Helvetica" font-size="13" font-weight="normal">
                    <tspan x="263" y="726">Small</tspan>
                </text>
                <text id="Medium" fill="#000000" font-family="Helvetica" font-size="13" font-weight="normal">
                    <tspan x="263" y="1156">Medium</tspan>
                </text>
                <text id="Large" fill="#000000" font-family="Helvetica" font-size="13" font-weight="normal">
                    <tspan x="263" y="1586">Large</tspan>
                </text>
            </g>
            <g id="Guides" transform="translate(263.000000, 625.000000)">
                <g id="H-reference" transform="translate(76.000000, 0.000000)" fill="#27AAE1" fill-rule="nonzero">
                    <path d="M54.9316,71 L57.666,71 L30.5664,0.541 L28.0762,0.541 L0.976562,71 L3.66211,71 L12.9395,46.5371 L45.7031,46.5371 L54.9316,71 Z M29.1992,3.9102 L29.4434,3.9102 L44.8242,44.291 L13.8184,44.291 L29.1992,3.9102 Z" id="Shape"></path>
                </g>
                <line x1="0" y1="71" x2="2773" y2="71" id="Baseline-S" stroke="#27AAE1" stroke-width="0.577"></line>
                <line x1="0" y1="0.541" x2="2773" y2="0.541" id="Capline-S" stroke="#27AAE1" stroke-width="0.577"></line>
                <g id="H-reference" transform="translate(76.000000, 430.000000)" fill="#27AAE1" fill-rule="nonzero">
                    <path d="M54.9316,71 L57.666,71 L30.5664,0.541 L28.0762,0.541 L0.976562,71 L3.66211,71 L12.9395,46.5371 L45.7031,46.5371 L54.9316,71 Z M29.1992,3.9102 L29.4434,3.9102 L44.8242,44.291 L13.8184,44.291 L29.1992,3.9102 Z" id="Shape"></path>
                </g>
                <line x1="0" y1="501" x2="2773" y2="501" id="Baseline-M" stroke="#27AAE1" stroke-width="0.577"></line>
                <line x1="0" y1="430.54" x2="2773" y2="430.54" id="Capline-M" stroke="#27AAE1" stroke-width="0.577"></line>
                <g id="H-reference" transform="translate(76.000000, 860.000000)" fill="#27AAE1" fill-rule="nonzero">
                    <path d="M54.9316,71 L57.666,71 L30.5664,0.541 L28.0762,0.541 L0.976562,71 L3.66211,71 L12.9395,46.5371 L45.7031,46.5371 L54.9316,71 Z M29.1992,3.9102 L29.4434,3.9102 L44.8242,44.291 L13.8184,44.291 L29.1992,3.9102 Z" id="Shape"></path>
                </g>
                <line x1="0" y1="931" x2="2773" y2="931" id="Baseline-L" stroke="#27AAE1" stroke-width="0.577"></line>
                <line x1="0" y1="860.54" x2="2773" y2="860.54" id="Capline-L" stroke="#27AAE1" stroke-width="0.577"></line>
                <rect id="left-margin" fill="#00AEEF" fill-rule="nonzero" opacity="0.4" x="1128.3" y="405.79" width="8.74023" height="119.336"></rect>
                <rect id="right-margin" fill="#00AEEF" fill-rule="nonzero" opacity="0.4" x="1236.65" y="405.79" width="8.74023" height="119.336"></rect>
            </g>
            <g id="Symbols" transform="translate(1399.000000, 1040.000000)" fill="#000000" fill-rule="nonzero">
                <g id="Regular-M" transform="translate(0.300000, 0.000000)">
                    <path d="M50.5449,100.5508 C77.791,100.5508 100.35,77.99219 100.35,50.7461 C100.35,23.5488 77.7422,0.9414 50.4961,0.9414 C23.2988,0.9414 0.74023,23.5488 0.74023,50.7461 C0.74023,77.99219 23.3477,100.5508 50.5449,100.5508 Z M50.1551,92.0078 C27.1082,92.0078 8.7,73.5508 8.7,50.5039 C8.7,27.5058 27.0594,9 50.1063,9 C73.1532,9 91.6102,27.5058 91.6593938,50.5039 C91.7082,73.5508 73.202,92.0078 50.1551,92.0078 Z" id="Shape"></path>
                    <path d="M45.6939181,79.6073621 C45.3219194,79.5353628 44.9543492,79.4543637 44.586779,79.4048643 C44.133836,79.3413003 43.6789124,79.2932735 43.2227837,79.2608658 C43.0279272,79.247366 42.8286422,79.2968654 42.6337857,79.3058653 C42.5078767,79.314096 42.3814494,79.3065392 42.2573584,79.2833656 C41.1856478,79.058368 40.1139372,78.8468703 38.997941,78.9638691 C38.8562272,78.9773689 38.7056563,78.8873699 38.5550853,78.8468703 C38.4753713,78.8288705 38.3912288,78.783871 38.3159433,78.7973709 C38.0679441,78.8423704 37.8155164,78.8963698 37.5763744,78.9773689 C37.4568034,79.0133685 37.3549466,79.1123674 37.2575183,79.1888666 C37.0183763,79.3778646 36.7969485,79.5848623 36.5489493,79.7558604 C36.4780924,79.8008599 36.3275215,79.7513605 36.2168076,79.7423606 C36.2300933,79.6523616 36.2035219,79.5353628 36.2566646,79.4768635 C36.681806,79.0088686 37.151233,78.5723733 37.7535166,78.2888764 C37.8863733,78.2258771 38.0768013,78.2528768 38.2362293,78.2213771 C38.4576571,78.1763776 38.6790849,78.1133783 38.9049413,78.054879 C38.958084,78.0413791 39.0200837,78.0188793 39.0687979,78.0233793 L40.0519374,78.1583778 C40.2910794,78.1898775 40.5302215,78.2213771 40.7693635,78.230377 L43.0943556,78.2978763 L45.3839192,78.3698755 C46.5796294,78.4058751 47.7753396,78.4643745 48.9710498,78.4733744 C49.5467621,78.4778743 50.1224744,78.419375 50.6981868,78.3383759 C51.1941851,78.2708766 51.3713273,77.8433813 51.583898,77.501385 C51.6946119,77.3213869 51.6946119,77.0738896 51.703469,76.853392 C51.703469,76.7813928 51.5794695,76.6553942 51.4997554,76.6463943 C50.7469009,76.5653952 50.0516175,76.7903927 49.3341914,76.9388911 C48.964379,77.004409 48.5877798,77.0210468 48.2137667,76.9883906 C48.0676243,76.9793907 47.9436247,76.7993926 47.7974824,76.7183935 C47.6867685,76.6553942 47.5539118,76.578895 47.4387693,76.583395 C47.0269136,76.6148946 46.6150578,76.6418943 46.2784876,76.9253912 C46.1899164,77.0018904 45.9906314,76.9838906 45.844489,76.9883906 C45.8002035,76.9883906 45.7116323,76.9253912 45.7116323,76.8848917 C45.7027752,76.8128925 45.7160609,76.7183935 45.764775,76.668894 C46.3360588,76.0929003 47.0933419,75.9129023 47.8993392,75.845403 C47.9834817,75.8409031 48.1030528,75.8679028 48.1561954,75.9219022 C48.4440516,76.1918992 48.7407649,76.0524007 49.0463352,75.9759016 C49.3297629,75.9084023 49.617619,75.8589029 49.9054752,75.8229032 C50.3483308,75.7644039 50.7734722,75.6879047 51.1011854,75.3549083 C51.1498995,75.3009089 51.3093275,75.3324086 51.4200414,75.3279086 C51.5661838,75.3189087 51.7167547,75.3279086 51.8584685,75.3009089 C52.4253237,75.1929101 52.3456097,74.6934155 52.4917521,74.3514193 C52.7043228,73.8429248 52.8150367,73.2939308 52.9656076,72.7629366 C52.9877504,72.6819374 52.9966075,72.5964384 53.0098931,72.5109393 C53.0763215,72.1329434 53.1560355,71.7549475 53.1958925,71.3679517 C53.2844636,70.4904613 53.7716048,69.68947 53.6830337,68.77148 C53.6210339,68.0964874 53.7140336,67.4079948 53.7140336,66.7240023 C53.7140336,66.0940091 53.6918908,65.468516 53.6564624,64.8430228 C53.6520338,64.7395239 53.5546056,64.6315251 53.4793201,64.546026 C53.3818919,64.4335272 53.2446066,64.3525281 53.151607,64.2400293 C52.7796082,63.8035341 52.4031809,63.3670388 52.053325,62.9170437 C51.8894684,62.710046 51.8008973,62.4490488 51.6281836,62.251051 C51.1190344,61.6497859 50.5902653,61.0659669 50.0427604,60.50057 C49.8523325,60.3070721 49.5556192,60.2080732 49.3076201,60.0550749 C48.8736216,59.7895778 48.4484801,59.5150808 48.0144816,59.2450837 L46.9516281,58.5970908 C46.783343,58.4890919 46.6239149,58.3720932 46.4512012,58.2685943 C45.4067122,57.6568514 44.4207633,56.9472747 43.5062113,56.1491174 C42.5939287,55.3076266 41.6417891,54.5066353 40.7162208,53.6741443 C40.0342231,53.0486511 39.3743683,52.4006582 38.6967991,51.7706651 C38.5417997,51.6266666 38.3425146,51.5276677 38.1742295,51.3926692 C37.4523748,50.8166754 36.7128059,50.2586815 36.0308082,49.6466882 C35.5868308,49.2360383 35.1751922,48.790681 34.7996696,48.3147027 C34.3186918,47.7169504 33.8535272,47.1062389 33.4046743,46.4832226 C33.138961,46.1232265 32.868819,45.7632304 32.669534,45.3672348 C32.4835346,44.9982388 32.3905349,44.5932432 32.2621068,44.2062474 C32.1513929,43.8642511 32.0096791,43.5312547 31.9521079,43.1847585 C31.881251,42.7437633 31.881251,42.2892683 31.8546796,41.8392732 C31.8458225,41.7042746 31.8591082,41.5692761 31.8546796,41.4342776 C31.841394,41.1552806 31.8591082,40.8717837 31.7838227,40.6107865 C31.7041087,40.3227897 31.5269665,40.0527926 31.3941098,39.7782956 C31.3453957,39.6702968 31.2701102,39.5667979 31.2612531,39.4587991 C31.252396,39.2023019 31.3055386,38.9413047 31.2745388,38.6848075 C31.1771105,37.9828151 31.4251097,37.3213223 31.5402521,36.6463297 C31.6066805,36.2053345 31.7041087,35.7688392 31.7882513,35.332344 C31.8546796,35.0128475 31.960965,34.6933509 31.9786792,34.3693545 C32.0096791,33.7168616 32.0362504,33.0598687 31.9875363,32.4073758 C31.9565364,32.0113801 31.8059655,31.6198844 31.6686803,31.2373886 C31.5225379,30.827893 31.33211,30.4318973 31.1638248,30.0269017 C31.0398253,29.725405 30.7785404,29.5679067 30.4552558,29.5229072 C29.5075448,29.3879087 28.5952622,29.0729121 27.6121227,29.1179116 C27.0834386,29.148042 26.5637153,29.2697946 26.0754136,29.4779077 C25.393416,29.7479048 24.7025612,29.9864022 24.0382777,30.2878989 C23.7439552,30.4172879 23.485426,30.6181739 23.2854232,30.8728925 C23.0595668,31.1878891 22.2447124,31.4173866 21.8727137,31.3453874 C21.7974282,31.3318875 21.7,31.1788892 21.7,31.0978901 C21.7442856,30.3238985 22.1738555,29.7119052 22.6875681,29.1449113 C23.2101377,28.5689176 23.7814215,28.0244235 24.2597056,27.4169302 C24.7335611,26.8139367 25.0391315,26.1299442 25.2118452,25.3784523 C25.3668446,24.7034597 25.632558,24.0509668 25.9071285,23.4119737 C26.1043821,22.8939074 26.4618192,22.4549096 26.9256965,22.1609874 C27.1028387,22.0574885 27.2268383,21.8729905 27.4128376,21.7784915 C28.1346923,21.4139955 28.8742612,21.089999 29.7289726,21.0809991 C29.8264008,21.0809991 29.9282576,21.0134999 29.9636861,21 C30.1452569,21.0449995 30.2869707,21.089999 30.4331131,21.1169987 C31.0043968,21.2294975 31.571252,21.3419963 32.1469643,21.4454952 C32.828962,21.5669938 33.4533885,21.823491 34.0202437,22.1879871 C34.4498136,22.4624841 34.8439551,22.7864806 35.2469538,23.0879773 C35.5126671,23.2859751 35.7783805,23.483973 36.0308082,23.6954707 C36.1189158,23.7776869 36.1897203,23.8771866 36.2389504,23.9879675 C36.5268065,24.5729611 36.8146627,25.1534548 37.0936618,25.7384484 C37.2796611,26.1254442 37.4568034,26.51244 37.6250885,26.9039357 C37.6649455,26.9894348 37.6339456,27.0974336 37.6649455,27.1919326 L38.2628006,28.9064139 C38.2938005,28.996413 38.3026576,29.086412 38.3248004,29.176411 L38.687942,30.7873935 C38.7632275,31.1158899 38.8119416,31.4488863 38.9226555,31.7638828 C39.0247472,32.050649 39.1600294,32.3240648 39.3256541,32.578374 C39.5647962,32.9518699 39.8349381,33.307366 40.1095086,33.6583622 C40.1980797,33.7753609 40.3309364,33.8833598 40.4637931,33.950859 C40.8623632,34.139857 41.2387905,34.3873543 41.7259317,34.3963542 C41.9207881,34.3963542 42.1112161,34.5313527 42.3105011,34.5628524 C42.6072144,34.598852 42.9083562,34.5763522 43.2050695,34.6078519 C44.4184939,34.7248506 45.6319183,34.8463493 46.8453428,34.9858478 C47.491912,35.0623469 48.1384812,35.1748457 48.7806219,35.2918444 C49.5467621,35.4358429 50.3129024,35.606841 51.0790426,35.7643393 C51.4687556,35.8453384 51.8717542,35.9083377 52.2570386,36.0118366 C52.5094663,36.0838358 52.7397512,36.2368341 52.9921789,36.3223332 C53.4970343,36.4843315 54.0107469,36.6283299 54.5244594,36.7813282 C54.7016017,36.8308277 54.8787439,36.8848271 55.0470291,36.9478264 C55.6138843,37.1548242 56.1718824,37.3798217 56.7431661,37.5778195 C57.323307,37.7803173 57.9167335,37.9513155 58.501303,38.1403134 C58.6518739,38.1943128 58.7891591,38.2843119 58.9353015,38.3473112 C59.4667283,38.5723087 59.998155,38.8063062 60.5384389,39.0223038 C60.7598667,39.1123028 61.0034373,39.1573024 61.2204366,39.2518013 C61.9290056,39.557798 62.6287175,39.8817945 63.3461436,40.1832912 C63.731428,40.3452894 64.1565694,40.4397884 64.5374252,40.6107865 C64.9979951,40.8177843 65.4364222,41.0787814 65.8881349,41.3082789 C66.0032774,41.3667783 66.1361341,41.398278 66.2601336,41.4432775 C66.7029893,41.6322754 67.1458449,41.8257733 67.5975577,42.0057714 C68.3371266,42.3027681 69.081124,42.586265 69.8206929,42.8787618 C70.6931185,43.2252581 71.6142582,43.3872563 72.5486836,43.4547556 C72.8436332,43.4628683 73.1376228,43.4171445 73.4166807,43.319757 C74.3378204,43.0317602 75.250103,42.7347634 76.1535285,42.4107669 C77.0038113,42.1047703 77.845237,41.762774 78.6778056,41.4207777 C79.342089,41.1507807 79.9930868,40.844784 80.6529417,40.565787 C80.9363693,40.4532882 81.2463682,40.3947889 81.5342244,40.2867901 C81.8220805,40.1832912 82.1143653,40.0707924 82.3800786,39.926794 C82.7476488,39.7242962 83.4163608,39.7017964 83.6422172,39.9312939 C83.7,39.9897933 83.7219312,40.1562915 83.6732171,40.2102909 C83.434075,40.4937878 83.155076,40.7457851 82.9115054,41.0202821 C82.6812205,41.2857792 82.4686498,41.5692761 82.2560791,41.8437731 C82.1320795,42.0012714 81.9903657,42.1587697 81.9017946,42.3297678 C81.7467951,42.6177647 81.6493668,42.9282613 81.5032245,43.2162582 C81.2596539,43.693253 80.9717977,44.1567479 80.7370842,44.6382427 C80.5732277,44.975739 80.4713709,45.3402351 80.3385142,45.6912312 C79.9399441,46.72622 79.5546597,47.7747086 79.1162326,48.7961974 C78.9603672,49.2440578 78.6879472,49.640614 78.3279496,49.9436849 C78.2659498,49.9886845 78.1552359,49.9886845 78.0666648,49.9931844 C77.9072368,50.0021843 77.7433802,49.9976844 77.5795236,49.9976844 C77.5498876,50.0365961 77.5203638,50.0755958 77.4909525,50.1146831 C77.654809,50.2361818 77.8319513,50.3396806 77.9780937,50.4746792 C78.2349499,50.7131766 78.5006633,50.947174 78.713234,51.2126711 C78.9568046,51.5186678 78.8195194,51.9551631 78.4563777,52.1486609 C78.4032351,52.1801606 78.3368067,52.1981604 78.2925212,52.23866 C77.8142371,52.7336546 77.1410965,52.7651542 76.507813,52.8416534 C75.6531016,52.9451523 74.8692471,53.15665 74.2138208,53.6966441 C73.9436789,53.9216416 73.6248228,54.0926398 73.3591094,54.3131374 C73.0845389,54.5381349 72.8409683,54.808132 72.5841121,55.0511294 C72.5663978,55.0691292 72.5486836,55.0961289 72.5486836,55.1231286 C72.5353979,55.6721226 71.9995426,55.90612 71.6851151,56.2526163 C71.4725444,56.4911137 71.0164031,56.5676128 70.6532615,56.6531119 C70.1218348,56.7791105 69.5461224,56.7791105 69.0456956,56.9591086 C68.5674115,57.1346067 68.1422701,57.4541032 67.7215572,57.7466 C67.2875587,58.0480967 66.8978458,58.3990929 66.4815615,58.7230894 C66.3398477,58.8310882 66.1715625,58.9120873 66.0209916,59.0065863 C65.6091359,59.2540836 65.2017087,59.5015809 64.7942815,59.7625781 C64.4045685,60.0055754 64.3779972,60.4195709 64.6924247,60.7480673 C65.0201379,61.0810637 65.3257083,61.4410598 65.6401358,61.7830561 C65.7685639,61.9180546 65.9235634,62.0395533 66.0254202,62.1880517 C66.2734193,62.5480477 66.1051342,62.9035439 65.9545633,63.25904 C65.9014206,63.3850386 65.8748492,63.5650367 65.9324205,63.6775355 C66.0918485,63.9835321 65.9014206,64.1950298 65.7597068,64.4245273 C65.6711357,64.5685258 65.5471361,64.6945244 65.4497078,64.8385228 C65.0599949,65.4280164 64.6215678,65.9905103 64.4089971,66.6790028 C64.2584262,67.1604975 63.9927128,67.6104926 63.7889992,68.0739876 C63.5587143,68.5959819 63.3284294,69.1224762 63.1158587,69.6489705 C62.8250832,70.2896337 62.7746858,71.016174 62.9741449,71.6919482 C63.062716,71.9529454 63.0937159,72.2319423 63.1867156,72.4884395 C63.3041901,72.8455234 63.5534464,73.1423548 63.8819989,73.3164305 C63.97057,73.36143 64.0148556,73.460429 64.0901411,73.5324282 C64.2539976,73.6989264 64.3912829,73.9374238 64.5949965,74.0139229 C65.0644234,74.1804211 65.3699938,74.5089176 65.7109927,74.8104143 C65.7995638,74.8959133 65.8217066,75.0669115 65.8349922,75.20191 C65.857135,75.4269076 65.8615636,75.6564051 65.8527065,75.8859026 C65.8527065,75.9624017 65.7907067,76.0974003 65.7464211,76.0974003 C65.65785,76.1064002 65.5205647,76.0659006 65.4807077,76.0029013 C65.3782388,75.8464129 65.296354,75.6769775 65.2371371,75.4989068 C65.1529946,75.2469095 64.9935665,75.1254108 64.7012818,75.1614104 C64.3868543,75.1974101 64.1919978,75.0714114 63.9882843,74.832914 C63.651714,74.4459182 63.2310011,74.1219218 62.863431,73.7529258 C62.6809229,73.5757822 62.518965,73.3779976 62.3807183,73.1634322 C62.1725762,72.8259359 61.9998625,72.7944362 61.6145781,72.9474345 C61.1805796,73.1184327 60.8174379,73.3344303 60.6314386,73.7529258 C60.3745823,74.3199196 60.1531545,74.9049132 59.838727,75.4449074 C59.6363327,75.7442127 59.3774129,75.9996586 59.0770153,76.1963992 C58.7706089,76.4060662 58.445972,76.5868171 58.1071615,76.7363933 C57.8503052,76.857892 57.5757347,76.9343911 57.3100213,77.03789 C57.1328791,77.1008893 56.9778796,77.1953883 56.8051659,77.2538877 C56.2205965,77.4518855 55.6315985,77.6363835 55.0514576,77.8388813 C54.8701315,77.9112784 54.6977303,78.0049094 54.5377451,78.1178783 C54.4934595,78.144878 54.4801738,78.2753766 54.5023166,78.2933764 C54.8566011,78.5183739 55.1798857,78.8108707 55.5740273,78.9278694 C56.5483096,79.2248662 57.5535919,79.4228641 58.5323029,79.706361 C58.7891591,79.7783602 59.0238726,79.976358 59.2187291,80.1563561 C59.4180141,80.345354 59.6482991,80.5478518 59.6172992,80.8628484 L59.5862993,81.0698461 C59.4977282,81.0428464 59.4002999,81.0383465 59.3383001,80.988847 C59.1655864,80.8448486 59.0150155,80.6738504 58.8467304,80.529852 C58.5274917,80.2881934 58.106034,80.2368031 57.7395913,80.3948535 C57.4295924,80.5523518 57.1948789,80.5208521 56.8848799,80.3228543 C56.5571668,80.1068566 56.1364539,80.0168576 55.7555981,79.8773591 C55.2241713,79.6793613 54.688316,79.4768635 54.1480321,79.2923655 C53.8557474,79.1888666 53.5856055,79.2698657 53.4350346,79.5038632 C53.0497502,80.0888568 52.4430379,80.250855 51.7743259,80.3588539 C51.4972478,80.4157671 51.230072,80.5143504 50.9816144,80.6513507 C50.5520444,80.8628484 50.1534743,81.1418454 49.7061901,81.3263433 C49.3563342,81.4703418 48.9533356,81.5063414 48.5813368,81.6053403 C48.2181952,81.6998393 47.8639107,81.816838 47.5007691,81.9203369 C47.2527699,81.9923361 46.9914851,82.0463355 46.7479145,82.1273346 C45.6584897,82.4693309 44.5690648,82.8158271 43.4884971,83.1713233 C42.9570703,83.3468213 42.4389292,83.5448192 41.9207881,83.742817 C41.5753607,83.8778156 41.2255048,84.4358095 41.2653618,84.7643059 C41.2875046,84.9623038 41.1413622,85.0208031 40.9775056,84.9938034 C40.4859359,84.9173043 40.3397935,84.665307 40.5922212,84.2108119 C40.9016949,83.6885512 41.3739618,83.2862751 41.9340738,83.0678244 C42.3857865,82.8698265 42.8596421,82.7078283 43.3246405,82.5413301 C44.2059232,82.2263335 45.096063,81.9248368 45.9640601,81.5918405 C46.1234881,81.5288411 46.2297734,81.3488431 46.3626301,81.2228445 C46.1766308,81.2138446 45.9862028,81.177845 45.8090606,81.2003447 C45.4719453,81.254457 45.1378655,81.3265559 44.8082069,81.4163424 C44.3471268,81.5323051 43.8893302,81.6613542 43.4353544,81.8033381 C42.5142147,82.1003349 41.5576465,82.2218336 40.6010784,82.370332 C40.0917944,82.4513311 39.5382248,82.5233303 39.1086549,82.7573278 C38.4266572,83.1308237 37.62066,83.3513213 37.1335188,83.9948143 C36.9962335,84.1748123 36.7438058,84.1478126 36.6153777,83.9633146 C36.4515211,83.7338171 36.482521,83.4233205 36.7482344,83.2388225 C37.111376,82.9913252 37.4922318,82.7663277 37.8863733,82.5683298 C38.528514,82.2488333 39.1839403,81.9428366 39.8437952,81.6593397 C40.1759369,81.5198412 40.5390786,81.452342 40.8756488,81.3263433 C41.6063606,81.0563463 42.3193582,80.7413497 43.0589271,80.4983524 C43.8294959,80.250855 44.6310646,80.075357 45.4149191,79.8593593 C45.5123473,79.8368596 45.5964899,79.7693603 45.6894896,79.7243608 L45.6894896,79.6073621 L45.6939181,79.6073621 Z M56.0120094,61.8803567 C55.7037415,61.7733225 55.5262539,61.9082786 55.4795467,62.1549226 C55.3767907,62.7087082 55.2600225,63.2671474 55.2133153,63.8302403 C55.166608,64.3328356 55.1619373,64.8447383 55.2133153,65.3519873 C55.2740347,65.8964655 55.4375101,66.4316364 55.5262539,66.9807684 C55.6685622,67.6290964 55.6363355,68.3033844 55.4328394,68.9353057 C55.2460103,69.4472083 54.9984619,69.9404963 54.7929499,70.4430916 C54.7369012,70.5733941 54.7369012,70.7223112 54.7182183,70.861921 C54.7088768,70.9270723 54.7369012,71.0015309 54.7182183,71.0620284 C54.6061209,71.4250139 54.4706698,71.7833458 54.3725846,72.1463313 C54.1857555,72.862995 54.0129386,73.5843123 53.8261096,74.300976 C53.7840731,74.4731614 53.7,74.6406932 53.7,74.8128786 C53.7,74.8733762 53.886829,75.012986 53.9615607,74.999025 C54.4659991,74.8919909 54.9751082,74.780303 55.4608637,74.6267322 C56.2081799,74.3800882 56.9554961,74.1241369 57.6794587,73.8263027 C58.1370495,73.6592732 58.5633164,73.4170315 58.9405547,73.109639 C59.3095421,72.7745754 59.5103833,72.3045557 59.8233219,71.9183019 C60.0568582,71.615814 60.1596142,71.1783699 60.6874063,71.1271797 C60.7621379,71.1178724 60.846211,70.9875699 60.8835768,70.903804 C61.0190278,70.5687404 61.1171131,70.2243696 61.2665763,69.903267 C61.3646616,69.698506 61.5561613,69.5309742 61.6776002,69.3262131 C61.8877829,68.9818423 62.0699412,68.6188568 62.2707824,68.2698323 C62.6070747,67.6788174 62.9527084,67.0924562 63.2749885,66.4967877 C63.4851712,66.1058802 63.676671,65.7056654 63.8541586,65.300797 C64.1063778,64.7423578 64.1390729,64.10946 64.6154869,63.6347866 C64.6435113,63.6068646 64.6528527,63.5556744 64.6575235,63.5184451 C64.7522109,62.8860005 64.6880191,62.2400315 64.4706944,61.6383663 C64.2978776,61.1450783 63.9709267,60.698327 63.7420612,60.2236536 C63.6066101,59.9537413 63.4197811,59.9723559 63.1722326,60.0514682 C62.9340255,60.1259267 62.6864771,60.2283073 62.4389286,60.2283073 C61.573822,60.2398659 60.7304606,60.5000295 60.010151,60.9775466 C59.6897445,61.2026937 59.3302673,61.3667863 58.9498962,61.4615272 C57.9783851,61.64302 56.9881912,61.7454005 56.0073387,61.8803567 L56.0120094,61.8803567 Z M54.3525711,82.9957848 C54.5411023,82.6922886 54.7253486,82.2834118 54.952443,82.0389288 C55.569454,81.3813537 56.1993194,80.7827918 56.8291848,80.1757995 C57.136556,79.8754488 57.4597918,79.5912301 57.7975494,79.3243241 C58.2817316,78.9491691 58.7830531,78.6667491 59.2543809,78.2283657 C59.4386273,78.0639719 59.5543168,77.5834363 59.7,77.2420031 C59.4729057,77.1619139 59.2243873,76.9132156 59.0230018,77.0312419 C58.294586,77.4696253 57.591879,78.0850481 56.8634632,78.5234314 C56.0407819,79.0250432 55.2395245,79.884949 54.3440016,79.4507808 C53.9283761,79.2568805 53.6798577,79.754277 53.7012817,80.4329282 C53.7312753,81.2338209 53.9412305,82.0136374 54.0869136,82.7892388 C54.1083376,82.8819737 54.2197424,82.8988346 54.3525711,83 L54.3525711,82.9957848 Z" id="Shape"></path>
                </g>
            </g>
        </g>
    </g>
</svg>